<svg width="1500" height="500" viewBox="0 0 1500 500" fill="none" xmlns="http://www.w3.org/2000/svg">
    <path
        d="M1413.4 500.2H86.7C38.8 500.2 0 461.4 0 413.5V86.9C0 39 38.8 0.199997 86.7 0.199997H1413.4C1461.3 0.199997 1500.1 39 1500.1 86.9V413.5C1500 461.4 1461.2 500.2 1413.4 500.2Z"
        fill="#D8D3C6" />
    <path
        d="M1402.3 486H98.6C52.7 486 15.4 448.8 15.4 402.8V99.1C15.4 53.2 52.6 15.9 98.6 15.9H1402.3C1448.2 15.9 1485.5 53.1 1485.5 99.1V402.8C1485.5 448.7 1448.2 486 1402.3 486Z"
        fill="#171817" />
</svg>