<svg width="248" height="67" viewBox="0 0 248 67" fill="none" xmlns="http://www.w3.org/2000/svg">
<g clip-path="url(#clip0)">
<path d="M240.292 27.7143V38.4281C238.077 38.5868 235.954 39.4406 234.248 40.8764C231.963 42.792 230.581 45.5189 230.299 48.6304C227.187 48.9161 224.464 50.292 222.555 52.5674C221.099 54.3066 220.261 56.3774 220.102 58.614H27.7234C27.5657 56.3809 26.7279 54.3102 25.2691 52.5674C23.362 50.292 20.6389 48.9126 17.526 48.6304C17.2434 45.5189 15.8634 42.792 13.5805 40.8764C11.8699 39.4406 9.74761 38.5868 7.53357 38.4281V27.7143C9.74302 27.559 11.8664 26.7018 13.5798 25.266C15.8634 23.3504 17.2434 20.6234 17.526 17.5119C20.6389 17.2297 23.362 15.8503 25.2691 13.5749C26.7279 11.8357 27.5657 9.76133 27.7234 7.53178H220.102C220.261 9.76486 221.099 11.8357 222.556 13.5749C224.464 15.8503 227.187 17.2297 230.299 17.5119C230.581 20.6269 231.963 23.3539 234.248 25.266C235.957 26.7018 238.081 27.559 240.292 27.7143V27.7143ZM231.282 16.5312C228.069 16.4712 225.26 15.1906 223.349 12.9116C221.824 11.0913 221.055 8.88649 221.113 6.49818H26.7127C26.7727 8.88649 26.0015 11.0913 24.4761 12.9116C22.5658 15.1906 19.7559 16.4712 16.5432 16.5312C16.486 19.745 15.21 22.5496 12.9152 24.4722C11.1827 25.9257 9.02476 26.7053 6.7945 26.7053C6.69643 26.7053 6.59765 26.7053 6.49887 26.7017V39.4405C6.59694 39.437 6.69502 39.437 6.79274 39.437C9.023 39.437 11.1816 40.2167 12.9152 41.6701C15.21 43.5963 16.486 46.3973 16.5432 49.6147C19.7559 49.6711 22.5658 50.9517 24.4761 53.2306C26.0015 55.0545 26.7727 57.2594 26.7127 59.6477H221.113C221.055 57.2594 221.824 55.0545 223.349 53.2306C225.26 50.9517 228.069 49.6711 231.282 49.6147C231.338 46.3973 232.614 43.5963 234.913 41.6701C236.642 40.2167 238.803 39.437 241.033 39.437C241.131 39.437 241.229 39.437 241.327 39.4405V26.7017C241.228 26.7053 241.13 26.7053 241.032 26.7053C238.802 26.7053 236.641 25.9257 234.913 24.4722C232.614 22.5496 231.338 19.745 231.282 16.5312V16.5312ZM237.228 21.7134C240.696 24.6203 244.934 22.0592 244.934 22.0592V44.0796C244.934 44.0796 240.696 41.5184 237.228 44.4323C234.624 46.6125 234.289 50.419 235.771 54.0914C232.099 52.6062 228.295 52.9449 226.112 55.5448C223.203 59.0162 225.766 63.2495 225.766 63.2495H22.0592C22.0592 63.2495 24.6207 59.0162 21.7145 55.5448C19.5305 52.9449 15.7251 52.6062 12.053 54.0914C13.5375 50.419 13.2009 46.6125 10.5978 44.4323C7.12929 41.5184 2.89242 44.0796 2.89242 44.0796V22.0592C2.89242 22.0592 7.12929 24.6203 10.5978 21.7134C13.2009 19.5298 13.5375 15.7233 12.053 12.0544C15.7251 13.5361 19.5305 13.1974 21.7145 10.5974C24.6207 7.12962 22.0592 2.89275 22.0592 2.89275H225.766C225.766 2.89275 223.203 7.12962 226.112 10.5974C228.295 13.1974 232.099 13.5361 235.771 12.0544C234.289 15.7233 234.624 19.5298 237.228 21.7134ZM244.615 5.45039C245.805 5.35514 247.825 5.45039 247.825 5.45039V-2.87177e-05H242.372C242.372 -2.87177e-05 242.468 2.02139 242.372 3.21025C242.243 4.86125 240.544 6.33943 240.544 6.33943C239.993 6.85096 239.98 6.55461 239.98 6.55461C240.297 5.23169 240.335 3.9793 239.841 2.69872C239 0.522082 236.294 -0.465682 234.368 1.07243C233.307 1.92615 232.922 3.18911 233.435 4.45558C233.982 5.81378 235.706 6.4805 235.691 8.09622C235.689 9.29919 235.141 8.41375 234.775 8.01864C232.736 5.80672 230.854 7.82461 230.854 7.82461C232.148 9.11931 231.721 10.3893 230.62 10.7139C228.779 11.2572 226.937 9.49322 226.689 7.93747C226.106 4.24389 229.81 2.89275 229.81 2.89275V-2.87177e-05H18.0142V2.89275C18.0142 2.89275 21.7198 4.24389 21.1342 7.93747C20.8901 9.49322 19.0482 11.2572 17.2053 10.7139C16.1071 10.3893 15.6778 9.11931 16.9746 7.82461C16.9746 7.82461 15.089 5.80672 13.0535 8.01864C12.6873 8.41375 12.138 9.29919 12.1313 8.09622C12.1207 6.4805 13.8451 5.81378 14.3905 4.45558C14.9024 3.18911 14.5186 1.92615 13.4546 1.07243C11.5312 -0.465682 8.82579 0.522082 7.98407 2.69872C7.49229 3.9793 7.52652 5.23169 7.84649 6.55461C7.84649 6.55461 7.83343 6.85096 7.27992 6.33943C7.27992 6.33943 5.58271 4.86125 5.45359 3.21025C5.35799 2.02139 5.45359 -2.87177e-05 5.45359 -2.87177e-05H0V5.45039C0 5.45039 2.02177 5.35514 3.21134 5.45039C4.86198 5.58092 6.34259 7.2778 6.34259 7.2778C6.8513 7.83519 6.55144 7.84576 6.55144 7.84576C5.23416 7.52474 3.98251 7.48947 2.69875 7.98336C0.521053 8.82297 -0.464256 11.5288 1.07527 13.4549C1.92546 14.5203 3.19158 14.9013 4.45876 14.3898C5.81695 13.843 6.4837 12.1214 8.09802 12.132C9.29711 12.1391 8.41481 12.6894 8.01829 13.0527C5.80919 15.0883 7.82461 16.9757 7.82461 16.9757C9.12037 15.6775 10.3879 16.1078 10.7149 17.205C11.2571 19.0465 9.49255 20.888 7.93821 21.1349C4.24356 21.7206 2.89242 18.0164 2.89242 18.0164H0V48.1295H2.89242C2.89242 48.1295 4.24356 44.4218 7.93821 45.0109C9.49255 45.2543 11.2571 47.0958 10.7149 48.9409C10.3879 50.038 9.12037 50.4649 7.82461 49.1667C7.82461 49.1667 5.80919 51.0575 8.01829 53.0895C8.41481 53.4564 9.29711 54.0068 8.09802 54.0138C6.4837 54.0244 5.81695 52.2958 4.45876 51.7525C3.19158 51.2445 1.92546 51.6255 1.07527 52.6909C-0.464256 54.6136 0.521053 57.3193 2.69875 58.1625C3.98251 58.6528 5.23416 58.6176 6.55144 58.3001C6.55144 58.3001 6.8513 58.3107 6.34259 58.8645C6.34259 58.8645 4.86198 60.5614 3.21134 60.6919C2.02177 60.7871 0 60.6919 0 60.6919V66.1458H5.45359C5.45359 66.1458 5.35799 64.1209 5.45359 62.932C5.58271 61.2845 7.27992 59.8029 7.27992 59.8029C7.83343 59.2914 7.84649 59.5912 7.84649 59.5912C7.52652 60.9106 7.49229 62.163 7.98407 63.4471C8.82579 65.6237 11.5312 66.608 13.4546 65.0699C14.5186 64.2161 14.9024 62.9532 14.3905 61.6868C13.8451 60.3286 12.1207 59.6582 12.1313 58.046C12.138 56.8466 12.6873 57.7321 13.0535 58.1272C15.089 60.3356 16.9746 58.3212 16.9746 58.3212C15.6778 57.023 16.1071 55.7565 17.2053 55.432C19.0482 54.8887 20.8901 56.649 21.1342 58.2048C21.7198 61.8984 18.0142 63.2495 18.0142 63.2495V66.1458H229.81V63.2495C229.81 63.2495 226.106 61.8984 226.689 58.2048C226.937 56.649 228.779 54.8887 230.62 55.432C231.721 55.7565 232.148 57.023 230.854 58.3212C230.854 58.3212 232.736 60.3356 234.775 58.1272C235.141 57.7321 235.689 56.8466 235.691 58.046C235.706 59.6582 233.982 60.3286 233.435 61.6868C232.922 62.9532 233.307 64.2161 234.368 65.0699C236.294 66.608 239 65.6237 239.841 63.4471C240.335 62.163 240.297 60.9106 239.98 59.5912C239.98 59.5912 239.993 59.2914 240.544 59.8029C240.544 59.8029 242.243 61.2845 242.372 62.932C242.468 64.1209 242.372 66.1458 242.372 66.1458H247.825V60.6919C247.825 60.6919 245.805 60.7871 244.615 60.6919C242.96 60.5614 241.483 58.8645 241.483 58.8645C240.974 58.3107 241.274 58.3001 241.274 58.3001C242.594 58.6176 243.846 58.6528 245.125 58.1625C247.305 57.3193 248.292 54.6136 246.75 52.6909C245.898 51.6255 244.633 51.2445 243.367 51.7525C242.009 52.2958 241.341 54.0244 239.727 54.0138C238.529 54.0068 239.411 53.4564 239.809 53.0895C242.017 51.0575 239.999 49.1667 239.999 49.1667C238.705 50.4649 237.438 50.038 237.111 48.9409C236.567 47.0958 238.332 45.2543 239.885 45.0109C243.581 44.4218 244.934 48.1295 244.934 48.1295H247.825V18.0164H244.934C244.934 18.0164 243.581 21.7206 239.885 21.1349C238.332 20.888 236.567 19.0465 237.111 17.205C237.438 16.1078 238.705 15.6775 239.999 16.9757C239.999 16.9757 242.017 15.0883 239.809 13.0527C239.411 12.6894 238.529 12.1391 239.727 12.132C241.341 12.1214 242.009 13.843 243.367 14.3898C244.633 14.9013 245.898 14.5203 246.75 13.4549C248.292 11.5288 247.305 8.82297 245.125 7.98336C243.846 7.48947 242.594 7.52474 241.274 7.84576C241.274 7.84576 240.974 7.83519 241.483 7.2778C241.483 7.2778 242.96 5.58092 244.615 5.45039" fill="url(#paint0_linear)"/>
</g>
<defs>
<linearGradient id="paint0_linear" x1="0" y1="33.0729" x2="247.825" y2="33.0729" gradientUnits="userSpaceOnUse">
<stop stop-color="#9A761E"/>
<stop offset="0.181818" stop-color="#9A761E"/>
<stop offset="0.339394" stop-color="#ECD33A"/>
<stop offset="0.527273" stop-color="#3C2716"/>
<stop offset="0.715152" stop-color="#B9871C"/>
<stop offset="0.842424" stop-color="#ECD33A"/>
<stop offset="1" stop-color="#775523"/>
</linearGradient>
<clipPath id="clip0">
<rect width="247.825" height="66.1458" fill="white"/>
</clipPath>
</defs>
</svg>
