<svg width="248" height="67" viewBox="0 0 248 67" fill="none" xmlns="http://www.w3.org/2000/svg">
<path d="M239.691 53.3859C239.575 53.8339 239.508 54.289 239.473 54.7511C239.374 55.9964 239.547 57.27 239.924 58.4624C238.728 58.0884 237.458 57.912 236.209 58.0108C235.751 58.0461 235.296 58.1096 234.851 58.226C233.56 58.5541 232.375 59.1044 231.218 59.7324C230.748 59.9899 230.279 60.2616 229.814 60.5403C229.584 60.6743 229.355 60.8119 229.115 60.9495C224.762 63.239 219.802 64.5407 214.535 64.5407H33.0693C27.8059 64.5407 22.8494 63.239 18.4891 60.9495C18.2562 60.8119 18.0234 60.6743 17.7906 60.5403C17.3249 60.2616 16.8627 59.9899 16.3865 59.7324C15.2364 59.1044 14.0476 58.5541 12.7529 58.226C12.3119 58.1096 11.8533 58.0461 11.3911 58.0108C10.1494 57.912 8.87231 58.0884 7.68698 58.4624C8.0574 57.27 8.23383 55.9964 8.13505 54.7511C8.09977 54.289 8.03623 53.8339 7.91629 53.3859C7.59173 52.0947 7.04143 50.9094 6.40995 49.7558C6.15243 49.2866 5.88781 48.8174 5.60559 48.3553C5.47154 48.1225 5.33397 47.8861 5.19638 47.6533C2.90686 43.2964 1.59805 38.3364 1.59805 33.0729C1.59805 27.8059 2.90686 22.8424 5.19638 18.4891C5.33397 18.2528 5.47154 18.0235 5.60559 17.7871C5.88781 17.325 6.15243 16.8593 6.40995 16.383C7.04143 15.233 7.59173 14.0441 7.91629 12.7565C8.03623 12.312 8.09977 11.8533 8.13505 11.3947C8.23383 10.1459 8.0574 8.8724 7.68698 7.68002C8.87231 8.05749 10.1494 8.23389 11.3911 8.13511C11.8533 8.09984 12.3119 8.02924 12.7529 7.91635C14.0476 7.58827 15.2364 7.03796 16.3865 6.41002C16.8627 6.14896 17.3249 5.87729 17.7906 5.60565C18.0234 5.46807 18.2562 5.33052 18.4891 5.19293C22.8494 2.9034 27.8059 1.60163 33.0693 1.60163H214.535C219.802 1.60163 224.762 2.9034 229.115 5.19293C229.355 5.33052 229.584 5.46807 229.814 5.60565C230.279 5.87729 230.748 6.14896 231.218 6.41002C232.375 7.03796 233.56 7.58827 234.851 7.91635C235.296 8.02924 235.751 8.09984 236.209 8.13511C237.458 8.23389 238.728 8.05749 239.924 7.68002C239.547 8.8724 239.374 10.1459 239.473 11.3947C239.508 11.8533 239.575 12.312 239.691 12.7565C240.019 14.0441 240.566 15.233 241.198 16.383C241.452 16.8593 241.727 17.325 241.998 17.7871C242.14 18.0235 242.274 18.2528 242.411 18.4891C244.704 22.8424 246.006 27.8059 246.006 33.0729C246.006 38.3364 244.704 43.2964 242.411 47.6533C242.274 47.8861 242.14 48.1225 241.998 48.3553C241.727 48.8174 241.452 49.2866 241.198 49.7558C240.566 50.9094 240.019 52.0947 239.691 53.3859ZM247.29 55.5061C247.209 54.7723 245.576 51.9324 242.676 54.9099C240.75 53.8974 242.387 50.987 242.648 50.4649C245.787 45.4131 247.608 39.4582 247.608 33.0729C247.608 26.6841 245.787 20.7292 242.648 15.6775C242.387 15.1518 240.75 12.2484 242.676 11.236C245.576 14.2099 247.209 11.3665 247.29 10.6363C247.752 8.11742 245.685 7.23196 243.978 6.82274C246.129 5.30932 247.46 3.66893 247.071 0.536265C243.935 0.14821 242.295 1.47815 240.781 3.6301C240.372 1.91913 239.487 -0.148165 236.971 0.317502C236.238 0.395113 233.394 2.03204 236.372 4.92835C235.359 6.85804 232.452 5.22111 231.923 4.95653C226.875 1.81681 220.924 1.79984e-06 214.535 1.79984e-06H33.0693C26.6911 1.79984e-06 20.7327 1.81681 15.6809 4.95653C15.1553 5.22111 12.2484 6.85804 11.2359 4.92835C14.2134 2.03204 11.3664 0.395113 10.6362 0.317502C8.12088 -0.148165 7.2319 1.91913 6.82268 3.6301C5.31279 1.47815 3.67238 0.14821 0.539717 0.536265C0.148133 3.66893 1.48162 5.30932 3.63004 6.82274C1.92612 7.23196 -0.1447 8.11742 0.317439 10.6363C0.39505 11.3665 2.03197 14.2099 4.9318 11.236C6.85797 12.2484 5.22463 15.1518 4.96005 15.6775C1.8168 20.7292 -6.10352e-05 26.6841 -6.10352e-05 33.0729C-6.10352e-05 39.4582 1.8168 45.4131 4.96005 50.4649C5.22463 50.987 6.85797 53.8974 4.9318 54.9099C2.03197 51.9324 0.39505 54.7723 0.317439 55.5061C-0.1447 58.0249 1.92612 58.9104 3.63004 59.3196C1.48162 60.833 0.148133 62.4735 0.539717 65.6061C3.67238 65.9977 5.31279 64.6642 6.82268 62.5158C7.2319 64.2197 8.12088 66.2905 10.6362 65.8248C11.3664 65.7472 14.2134 64.1068 11.2359 61.2105C12.2484 59.2879 15.1553 60.9247 15.6809 61.1858C20.7327 64.3255 26.6911 66.1459 33.0693 66.1459H214.535C220.924 66.1459 226.875 64.3255 231.923 61.1858C232.452 60.9247 235.359 59.2879 236.372 61.2105C233.394 64.1068 236.238 65.7472 236.971 65.8248C239.487 66.2905 240.372 64.2197 240.781 62.5158C242.295 64.6642 243.935 65.9977 247.071 65.6061C247.46 62.4735 246.129 60.833 243.978 59.3196C245.685 58.9104 247.752 58.0249 247.29 55.5061Z" fill="url(#paint0_linear)"/>
<path d="M230.142 48.6798C226.159 52.6909 220.638 55.1744 214.535 55.1744H33.0693C26.9698 55.1744 21.4489 52.6909 17.466 48.6798C13.4514 44.6934 10.9678 39.1759 10.9678 33.0729C10.9678 26.9663 13.4514 21.4489 17.466 17.4589C21.4489 13.4514 26.9698 10.9678 33.0693 10.9678H214.535C220.638 10.9678 226.159 13.4514 230.142 17.4589C234.156 21.4489 236.64 26.9663 236.64 33.0729C236.64 39.1759 234.156 44.6934 230.142 48.6798ZM214.535 9.64139H33.0693C26.6029 9.64139 20.7539 12.2766 16.5276 16.5276C12.2766 20.7503 9.6449 26.6029 9.6449 33.0729C9.6449 39.5393 12.2766 45.3884 16.5276 49.6146C20.7539 53.8656 26.6029 56.4973 33.0693 56.4973H214.535C221.001 56.4973 226.854 53.8656 231.08 49.6146C235.335 45.3884 237.963 39.5393 237.963 33.0729C237.963 26.6029 235.335 20.7503 231.08 16.5276C226.854 12.2766 221.001 9.64139 214.535 9.64139Z" fill="url(#paint1_linear)"/>
<path d="M232.484 51.0187C227.898 55.6296 221.555 58.487 214.535 58.487H33.0693C26.0596 58.487 19.7097 55.6296 15.1236 51.0187C10.5128 46.4326 7.6588 40.0861 7.6588 33.0729C7.6588 26.0526 10.5128 19.7062 15.1236 15.1271C19.7097 10.5128 26.0596 7.65884 33.0693 7.65884H214.535C221.555 7.65884 227.898 10.5128 232.484 15.1271C237.095 19.7062 239.945 26.0526 239.945 33.0729C239.945 40.0861 237.095 46.4326 232.484 51.0187ZM244.464 33.5527C244.464 33.3905 244.471 33.2316 244.471 33.0729C244.471 32.9071 244.464 32.7484 244.464 32.5896C244.404 29.0195 243.724 25.6011 242.517 22.4402C241.628 20.1048 240.453 17.9176 239.035 15.9032C237.24 12.693 237.642 9.96244 237.642 9.96244C237.642 9.96244 234.918 10.3681 231.701 8.56897C229.69 7.15433 227.499 5.9796 225.164 5.08708C222.003 3.8841 218.585 3.19973 215.014 3.14329C214.859 3.13976 214.701 3.13267 214.535 3.13267H33.0693C32.9106 3.13267 32.7518 3.13976 32.5931 3.14329C29.0195 3.19973 25.6011 3.8841 22.4437 5.08708C20.1083 5.9796 17.914 7.15433 15.9032 8.56897C12.6929 10.3681 9.96591 9.96244 9.96591 9.96244C9.96591 9.96244 10.3716 12.693 8.57244 15.9032C7.15427 17.9176 5.97955 20.1048 5.09055 22.4402C3.88405 25.6011 3.19967 29.0195 3.14675 32.5896C3.14323 32.7484 3.13263 32.9071 3.13263 33.0729C3.13263 33.2316 3.14323 33.3905 3.14675 33.5527C3.19967 37.1228 3.88405 40.5412 5.09055 43.7021C5.97955 46.034 7.15427 48.2248 8.57244 50.2391C10.3716 53.4529 9.96591 56.1763 9.96591 56.1763C9.96591 56.1763 12.6929 55.7742 15.9032 57.5733C17.914 58.9915 20.1083 60.1628 22.4437 61.0518C25.6011 62.2618 29.0195 62.9426 32.5931 62.9991C32.7518 63.0026 32.9106 63.0096 33.0693 63.0096H214.535C214.701 63.0096 214.859 63.0026 215.014 62.9991C218.585 62.9426 222.003 62.2618 225.164 61.0518C227.499 60.1628 229.69 58.9915 231.701 57.5733C234.918 55.7742 237.642 56.1763 237.642 56.1763C237.642 56.1763 237.24 53.4529 239.035 50.2391C240.453 48.2248 241.628 46.034 242.517 43.7021C243.724 40.5412 244.404 37.1228 244.464 33.5527" fill="url(#paint2_linear)"/>
<defs>
<linearGradient id="paint0_linear" x1="-6.10352e-05" y1="33.0729" x2="247.61" y2="33.0729" gradientUnits="userSpaceOnUse">
<stop stop-color="#9A761E"/>
<stop offset="0.181818" stop-color="#9A761E"/>
<stop offset="0.339394" stop-color="#ECD33A"/>
<stop offset="0.527273" stop-color="#3C2716"/>
<stop offset="0.715152" stop-color="#B9871C"/>
<stop offset="0.842424" stop-color="#ECD33A"/>
<stop offset="1" stop-color="#775523"/>
</linearGradient>
<linearGradient id="paint1_linear" x1="9.6449" y1="33.0694" x2="237.961" y2="33.0694" gradientUnits="userSpaceOnUse">
<stop stop-color="#9A761E"/>
<stop offset="0.181818" stop-color="#9A761E"/>
<stop offset="0.339394" stop-color="#ECD33A"/>
<stop offset="0.527273" stop-color="#3C2716"/>
<stop offset="0.715152" stop-color="#B9871C"/>
<stop offset="0.842424" stop-color="#ECD33A"/>
<stop offset="1" stop-color="#775523"/>
</linearGradient>
<linearGradient id="paint2_linear" x1="3.13263" y1="33.0729" x2="244.471" y2="33.0729" gradientUnits="userSpaceOnUse">
<stop stop-color="#9A761E"/>
<stop offset="0.181818" stop-color="#9A761E"/>
<stop offset="0.339394" stop-color="#ECD33A"/>
<stop offset="0.527273" stop-color="#3C2716"/>
<stop offset="0.715152" stop-color="#B9871C"/>
<stop offset="0.842424" stop-color="#ECD33A"/>
<stop offset="1" stop-color="#775523"/>
</linearGradient>
</defs>
</svg>
