<svg width="250" height="68" viewBox="0 0 250 68" fill="none" xmlns="http://www.w3.org/2000/svg">
<g clip-path="url(#clip0)">
<path fill-rule="evenodd" clip-rule="evenodd" d="M4.27567 21.1243C6.28333 20.1436 7.61364 17.8682 7.61188 15.367C7.61388 12.8693 6.28333 10.5974 4.27567 9.61672V4.27214H9.61812C10.6003 6.27944 12.8736 7.61295 15.3719 7.61295C17.8717 7.61295 20.145 6.27944 21.1257 4.27214H25.0691C22.1118 5.57389 17.2618 8.71715 15.6669 15.6669C8.71642 17.2614 5.57706 22.1086 4.27567 25.0649V21.1243ZM16.0009 16.0161L16.0099 16.0091H16.0079L16.0169 15.9985C18.2306 5.73269 27.5295 3.85944 27.5295 3.85944H20.8585C20.0368 5.80324 17.8934 7.1967 15.3714 7.1967C12.8479 7.1967 10.7073 5.80324 9.88425 3.85944H3.86057V3.86643V9.88482C5.8065 10.7033 7.19819 12.8481 7.19643 15.367C7.19843 17.8929 5.8065 20.0342 3.86057 20.8597V27.5308C3.86057 27.5308 5.73205 18.2315 16.0004 16.0161" fill="url(#paint0_linear)"/>
<path fill-rule="evenodd" clip-rule="evenodd" d="M8.82262 8.99583C11.2353 8.39964 11.6074 12.1179 8.70585 12.0756C8.70585 12.9963 9.8344 12.8552 9.93635 13.5326C10.0669 14.4074 8.90164 14.3581 8.83179 14.8414C8.83179 15.2541 9.7282 15.0848 9.78747 15.4234C9.90283 16.1325 8.44444 16.1854 8.28181 17.3919C9.88483 15.9244 11.7108 16.2207 12.5903 14.3404C12.8834 13.9453 13.2965 14.8908 14.4406 14.9013C15.0879 14.2558 14.5546 13.6701 14.5867 12.9117C14.6763 12.3084 15.3296 12.4954 15.6545 11.9909C15.7424 11.6029 15.2442 11.5147 15.6333 11.1972C16.8638 10.4105 16.6391 9.77194 17.2649 9.06639C17.7556 8.51253 18.4862 8.45255 18.6047 7.58472C16.3837 9.3733 15.8824 6.86153 14.2977 9.54616C13.6066 10.3434 11.0924 8.86178 11.0634 7.34836C9.39091 8.23736 6.30092 6.92855 7.93076 5.34458C6.62442 4.51908 5.2313 5.28818 5.37418 6.30414C5.49871 7.19314 6.48013 7.5953 7.01494 7.83519C6.20496 8.67833 6.72179 10.2517 7.76531 10.3152C7.93852 9.58497 8.26061 9.13341 8.82258 8.99583" fill="url(#paint1_linear)"/>
<path fill-rule="evenodd" clip-rule="evenodd" d="M21.1257 63.634C20.145 61.6267 17.8717 60.2933 15.3719 60.2933C12.8736 60.2933 10.6003 61.6267 9.61812 63.634H4.27567V58.2895C6.28333 57.3088 7.61364 55.0369 7.61188 52.5357C7.61388 50.038 6.28333 47.7626 4.27567 46.7819V42.8413C5.57706 45.7976 8.71642 50.6448 15.6676 52.2393C17.2625 59.1926 22.1135 62.3323 25.0694 63.634H21.1257ZM16.0175 51.9077L16.0085 51.8971L16.0105 51.9011L16.0015 51.8905C5.73321 49.6786 3.86172 40.3794 3.86172 40.3794V47.0504C5.80765 47.8724 7.19935 50.0137 7.19759 52.5361C7.19959 55.0585 5.80765 57.1998 3.86172 58.0218V64.0402V64.0508H9.88541C10.7084 62.1035 12.8491 60.71 15.3725 60.71C17.8945 60.71 20.038 62.1035 20.8596 64.0508L27.5306 64.0468C27.5306 64.0468 18.2318 62.1735 16.0181 51.9077" fill="url(#paint2_linear)"/>
<path fill-rule="evenodd" clip-rule="evenodd" d="M17.2649 58.8398C16.6391 58.1342 16.8638 57.4957 15.6334 56.709C15.2442 56.3915 15.7424 56.3069 15.6545 55.9153C15.3296 55.4108 14.6763 55.5978 14.5867 54.9945C14.5546 54.2361 15.088 53.654 14.4406 53.0049C13.2966 53.0155 12.8835 53.9644 12.5903 53.5658C11.7108 51.689 9.88487 51.9818 8.28185 50.5178C8.44448 51.7208 9.90287 51.7737 9.78751 52.4828C9.72821 52.8249 8.83182 52.6521 8.83182 53.0684C8.90162 53.5481 10.0669 53.4988 9.93638 54.3736C9.83443 55.051 8.70589 54.9099 8.70589 55.8341C11.6075 55.7882 11.2353 59.5066 8.82265 58.9139C8.26068 58.7763 7.9386 58.3212 7.76539 57.5945C6.72187 57.6545 6.20506 59.2279 7.01504 60.071C6.48023 60.3144 5.49879 60.7131 5.37426 61.6021C5.23138 62.6216 6.6245 63.3871 7.93084 62.5651C6.301 60.9776 9.39099 59.6688 11.0635 60.5614C11.0924 59.0479 13.6067 57.5628 14.2978 58.3636C15.8824 61.0447 16.3838 58.5329 18.6048 60.3215C18.4863 59.4536 17.7557 59.3972 17.265 58.8398" fill="url(#paint3_linear)"/>
<path fill-rule="evenodd" clip-rule="evenodd" d="M245.544 4.27214V9.61672C243.537 10.5974 242.207 12.8693 242.207 15.367C242.207 17.8682 243.537 20.1436 245.544 21.1243V25.0684C244.246 22.1121 241.102 17.2614 234.149 15.6669C232.558 8.71715 227.707 5.57389 224.751 4.27214H228.695C229.676 6.27944 231.951 7.61295 234.449 7.61295C236.947 7.61295 239.219 6.27944 240.199 4.27214H245.544ZM234.449 7.19666C231.927 7.19666 229.785 5.80319 228.96 3.85939H222.289C222.289 3.85939 231.588 5.73264 233.8 15.9985L233.814 16.0091H233.811L233.821 16.0161C244.087 18.2315 245.96 27.5307 245.96 27.5307V20.8597C244.013 20.0342 242.623 17.8928 242.623 15.367C242.623 12.8481 244.013 10.7032 245.96 9.8848V3.8664V3.85941H239.935C239.113 5.80321 236.971 7.19667 234.449 7.19667" fill="url(#paint4_linear)"/>
<path fill-rule="evenodd" clip-rule="evenodd" d="M235.521 9.54616C233.938 6.86153 233.437 9.3733 231.214 7.58472C231.33 8.45255 232.068 8.51253 232.555 9.06639C233.179 9.77194 232.957 10.4105 234.188 11.1972C234.576 11.5147 234.079 11.6029 234.167 11.9909C234.491 12.4954 235.144 12.3084 235.236 12.9117C235.267 13.6701 234.731 14.2558 235.38 14.9013C236.523 14.8907 236.936 13.9453 237.232 14.3404C238.111 16.2207 239.935 15.9244 241.54 17.3919C241.374 16.1854 239.917 16.1325 240.034 15.4234C240.09 15.0848 240.986 15.2541 240.986 14.8414C240.915 14.3581 239.755 14.4074 239.885 13.5326C239.984 12.8552 241.113 12.9963 241.113 12.0756C238.213 12.1179 238.584 8.39964 241 8.99583C241.561 9.13341 241.882 9.58497 242.055 10.3152C243.099 10.2517 243.614 8.67833 242.806 7.83519C243.339 7.5953 244.323 7.19314 244.443 6.30414C244.588 5.28814 243.194 4.51908 241.889 5.34458C243.522 6.92855 240.429 8.23736 238.756 7.34836C238.728 8.86178 236.213 10.3434 235.521 9.54616" fill="url(#paint5_linear)"/>
<path fill-rule="evenodd" clip-rule="evenodd" d="M246.115 18.1857C246.659 18.7254 247.329 19.0923 248.056 19.2546V48.6516C246.274 49.0538 244.937 50.6448 244.937 52.5357C244.937 54.4301 246.274 56.0176 248.056 56.4198V66.1458H238.33C237.931 64.3643 236.34 63.0273 234.449 63.0273C232.555 63.0273 230.967 64.3643 230.565 66.1458H19.2543C18.8531 64.3643 17.2649 63.0273 15.3719 63.0273C13.4782 63.0273 11.8893 64.3643 11.4882 66.1458H1.76353V56.4198C3.54576 56.0176 4.88103 54.4301 4.88103 52.5357C4.88103 50.6448 3.54576 49.0538 1.76353 48.6516L1.76653 19.2546C3.547 18.8524 4.88086 17.2649 4.88086 15.3705C4.88086 13.4796 3.5456 11.8921 1.76337 11.49V1.76389H11.488C11.8891 3.54541 13.4781 4.87891 15.3718 4.87891C17.2648 4.87891 18.853 3.54541 19.2541 1.76389H230.565C230.967 3.54541 232.555 4.87891 234.449 4.87891C236.34 4.87891 237.931 3.54541 238.33 1.76389H248.056V11.49C246.274 11.8921 244.937 13.4796 244.937 15.3705C244.937 16.4324 245.357 17.4343 246.115 18.1857ZM248.938 13.1551H249.82V0H236.664V0.881943C236.664 2.11314 235.67 3.11504 234.449 3.11504C233.225 3.11504 232.23 2.11314 232.23 0.881943V0H17.5877V0.881943C17.5877 2.11314 16.5933 3.11504 15.3719 3.11504C14.1496 3.11504 13.1547 2.11314 13.1547 0.881943V0H0V13.1551H0.881226C2.11384 13.1551 3.11749 14.1499 3.11749 15.3705C3.11749 16.5911 2.11489 17.586 0.881943 17.586H0V50.3202H0.881943C2.11489 50.3202 3.11749 51.315 3.11749 52.5357C3.11749 53.7598 2.11384 54.7511 0.881226 54.7511L0 54.7551V67.9102H13.1547V67.0282C13.1547 65.7935 14.1496 64.7916 15.3719 64.7916C16.5933 64.7916 17.5877 65.7935 17.5877 67.0282V67.9102H232.23V67.0282C232.23 65.7935 233.225 64.7916 234.449 64.7916C235.67 64.7916 236.664 65.7935 236.664 67.0282V67.9102H249.82V54.7551L248.938 54.7511C247.703 54.7511 246.701 53.7598 246.701 52.5357C246.701 51.315 247.703 50.3202 248.938 50.3202H249.82L249.816 17.586H248.934C248.341 17.586 247.781 17.3567 247.357 16.9333C246.937 16.5171 246.701 15.9597 246.701 15.3705C246.701 14.1499 247.703 13.1551 248.938 13.1551" fill="url(#paint6_linear)"/>
<path fill-rule="evenodd" clip-rule="evenodd" d="M215.865 61.0905H33.9545C29.1927 61.0905 26.3306 60.9247 22.8974 57.4922C19.5799 54.1725 19.1174 49.3607 19.1128 49.3113L19.0719 48.8527L18.6133 48.8104C18.5646 48.8064 13.7449 48.3376 10.4172 45.0109C6.98431 41.5784 6.81744 38.7174 6.81744 33.9549C6.81744 29.1924 6.98431 26.3314 10.4172 22.8953C13.7358 19.5792 18.5653 19.1029 18.6133 19.0959L19.0719 19.0536L19.1128 18.595C19.1178 18.5491 19.5799 13.7337 22.8974 10.4176C26.332 6.98154 29.1934 6.81573 33.9545 6.81573H215.865C220.627 6.81573 223.488 6.98154 226.917 10.4176C230.24 13.7337 230.703 18.5491 230.706 18.595L230.748 19.0536L231.203 19.0959C231.253 19.1029 236.082 19.5792 239.402 22.8953C242.835 26.3314 243 29.1924 243 33.9549C243 38.7174 242.835 41.5784 239.402 45.0109C236.082 48.3306 231.253 48.8068 231.203 48.8104L230.745 48.8527L230.706 49.3113C230.703 49.3607 230.251 54.162 226.917 57.4922C223.488 60.9247 220.627 61.0905 215.865 61.0905H215.865ZM231.747 49.851C233.091 49.6535 237.148 48.8244 240.182 45.7906C243.914 42.0582 244.105 38.862 244.105 33.9549C244.105 29.0477 243.914 25.8516 240.182 22.1156C237.148 19.0818 233.091 18.2527 231.75 18.0552C231.553 16.7146 230.731 12.6683 227.7 9.63789C223.968 5.90197 220.772 5.71147 215.865 5.71147H33.9545C29.0491 5.71147 25.8537 5.90197 22.1178 9.63789C19.0856 12.6683 18.2651 16.7146 18.0693 18.0552C16.7273 18.2527 12.6707 19.0818 9.63788 22.1156C5.90443 25.8516 5.71429 29.0477 5.71429 33.9549C5.71429 38.862 5.90443 42.0582 9.63788 45.7906C12.6707 48.8244 16.7273 49.6535 18.0693 49.851C18.2651 51.1916 19.0856 55.2344 22.1178 58.2683C25.8519 62.0042 29.0484 62.1947 33.9545 62.1947H215.865C220.772 62.1947 223.968 62.0042 227.7 58.2683C230.731 55.2379 231.553 51.1951 231.747 49.851" fill="url(#paint7_linear)"/>
<path fill-rule="evenodd" clip-rule="evenodd" d="M245.544 46.7819C243.537 47.7626 242.207 50.038 242.207 52.5357C242.207 55.0369 243.537 57.3088 245.544 58.2895V63.634H240.199C239.219 61.6267 236.947 60.2933 234.449 60.2933C231.951 60.2933 229.676 61.6267 228.695 63.634H224.751C227.707 62.3323 232.555 59.1926 234.149 52.2429C241.102 50.6448 244.246 45.7976 245.544 42.8413V46.7819ZM233.821 51.8901L233.811 51.9007L233.8 51.9077C231.588 62.1735 222.289 64.0468 222.289 64.0468L228.96 64.0508C229.785 62.1034 231.927 60.7099 234.449 60.7099C236.971 60.7099 239.113 62.1034 239.935 64.0508H245.96V64.0402V58.0218C244.013 57.1998 242.623 55.0584 242.623 52.5361C242.623 50.0137 244.013 47.8724 245.96 47.0504V40.3793C245.96 40.3793 244.087 49.6786 233.821 51.8905" fill="url(#paint8_linear)"/>
<path fill-rule="evenodd" clip-rule="evenodd" d="M241 58.9139C238.584 59.5066 238.213 55.7883 241.113 55.8341C241.113 54.9099 239.984 55.051 239.885 54.3736C239.755 53.4988 240.915 53.5481 240.986 53.0684C240.986 52.6521 240.09 52.8249 240.034 52.4828C239.917 51.7737 241.374 51.7208 241.54 50.5178C239.935 51.9818 238.111 51.689 237.232 53.5658C236.936 53.9644 236.523 53.0154 235.38 53.0049C234.731 53.654 235.267 54.2361 235.236 54.9945C235.144 55.5978 234.491 55.4108 234.167 55.9153C234.079 56.3069 234.576 56.3915 234.188 56.709C232.957 57.4957 233.179 58.1342 232.555 58.8398C232.068 59.3972 231.33 59.4536 231.214 60.3215C233.437 58.5329 233.938 61.0447 235.521 58.3636C236.213 57.5628 238.728 59.0479 238.756 60.5614C240.429 59.6688 243.522 60.9776 241.889 62.5651C243.194 63.3871 244.588 62.6216 244.443 61.6021C244.323 60.7131 243.339 60.3144 242.806 60.071C243.614 59.2279 243.099 57.6545 242.055 57.5945C241.882 58.3212 241.561 58.7763 241 58.9139" fill="url(#paint9_linear)"/>
</g>
<defs>
<linearGradient id="paint0_linear" x1="3.86115" y1="15.6951" x2="27.53" y2="15.6951" gradientUnits="userSpaceOnUse">
<stop stop-color="#9A761E"/>
<stop offset="0.181818" stop-color="#9A761E"/>
<stop offset="0.339394" stop-color="#ECD33A"/>
<stop offset="0.527273" stop-color="#3C2716"/>
<stop offset="0.715152" stop-color="#B9871C"/>
<stop offset="0.842424" stop-color="#ECD33A"/>
<stop offset="1" stop-color="#775523"/>
</linearGradient>
<linearGradient id="paint1_linear" x1="5.36399" y1="11.1936" x2="18.6047" y2="11.1936" gradientUnits="userSpaceOnUse">
<stop stop-color="#9A761E"/>
<stop offset="0.181818" stop-color="#9A761E"/>
<stop offset="0.339394" stop-color="#ECD33A"/>
<stop offset="0.527273" stop-color="#3C2716"/>
<stop offset="0.715152" stop-color="#B9871C"/>
<stop offset="0.842424" stop-color="#ECD33A"/>
<stop offset="1" stop-color="#775523"/>
</linearGradient>
<linearGradient id="paint2_linear" x1="3.86114" y1="52.2146" x2="27.53" y2="52.2146" gradientUnits="userSpaceOnUse">
<stop stop-color="#9A761E"/>
<stop offset="0.181818" stop-color="#9A761E"/>
<stop offset="0.339394" stop-color="#ECD33A"/>
<stop offset="0.527273" stop-color="#3C2716"/>
<stop offset="0.715152" stop-color="#B9871C"/>
<stop offset="0.842424" stop-color="#ECD33A"/>
<stop offset="1" stop-color="#775523"/>
</linearGradient>
<linearGradient id="paint3_linear" x1="5.36399" y1="56.7126" x2="18.6047" y2="56.7126" gradientUnits="userSpaceOnUse">
<stop stop-color="#9A761E"/>
<stop offset="0.181818" stop-color="#9A761E"/>
<stop offset="0.339394" stop-color="#ECD33A"/>
<stop offset="0.527273" stop-color="#3C2716"/>
<stop offset="0.715152" stop-color="#B9871C"/>
<stop offset="0.842424" stop-color="#ECD33A"/>
<stop offset="1" stop-color="#775523"/>
</linearGradient>
<linearGradient id="paint4_linear" x1="222.289" y1="15.6951" x2="245.961" y2="15.6951" gradientUnits="userSpaceOnUse">
<stop stop-color="#9A761E"/>
<stop offset="0.181818" stop-color="#9A761E"/>
<stop offset="0.339394" stop-color="#ECD33A"/>
<stop offset="0.527273" stop-color="#3C2716"/>
<stop offset="0.715152" stop-color="#B9871C"/>
<stop offset="0.842424" stop-color="#ECD33A"/>
<stop offset="1" stop-color="#775523"/>
</linearGradient>
<linearGradient id="paint5_linear" x1="231.214" y1="11.1936" x2="244.453" y2="11.1936" gradientUnits="userSpaceOnUse">
<stop stop-color="#9A761E"/>
<stop offset="0.181818" stop-color="#9A761E"/>
<stop offset="0.339394" stop-color="#ECD33A"/>
<stop offset="0.527273" stop-color="#3C2716"/>
<stop offset="0.715152" stop-color="#B9871C"/>
<stop offset="0.842424" stop-color="#ECD33A"/>
<stop offset="1" stop-color="#775523"/>
</linearGradient>
<linearGradient id="paint6_linear" x1="0" y1="33.9549" x2="249.82" y2="33.9549" gradientUnits="userSpaceOnUse">
<stop stop-color="#9A761E"/>
<stop offset="0.181818" stop-color="#9A761E"/>
<stop offset="0.339394" stop-color="#ECD33A"/>
<stop offset="0.527273" stop-color="#3C2716"/>
<stop offset="0.715152" stop-color="#B9871C"/>
<stop offset="0.842424" stop-color="#ECD33A"/>
<stop offset="1" stop-color="#775523"/>
</linearGradient>
<linearGradient id="paint7_linear" x1="5.71429" y1="33.9549" x2="244.104" y2="33.9549" gradientUnits="userSpaceOnUse">
<stop stop-color="#9A761E"/>
<stop offset="0.181818" stop-color="#9A761E"/>
<stop offset="0.339394" stop-color="#ECD33A"/>
<stop offset="0.527273" stop-color="#3C2716"/>
<stop offset="0.715152" stop-color="#B9871C"/>
<stop offset="0.842424" stop-color="#ECD33A"/>
<stop offset="1" stop-color="#775523"/>
</linearGradient>
<linearGradient id="paint8_linear" x1="222.289" y1="52.2146" x2="245.961" y2="52.2146" gradientUnits="userSpaceOnUse">
<stop stop-color="#9A761E"/>
<stop offset="0.181818" stop-color="#9A761E"/>
<stop offset="0.339394" stop-color="#ECD33A"/>
<stop offset="0.527273" stop-color="#3C2716"/>
<stop offset="0.715152" stop-color="#B9871C"/>
<stop offset="0.842424" stop-color="#ECD33A"/>
<stop offset="1" stop-color="#775523"/>
</linearGradient>
<linearGradient id="paint9_linear" x1="231.214" y1="56.7126" x2="244.453" y2="56.7126" gradientUnits="userSpaceOnUse">
<stop stop-color="#9A761E"/>
<stop offset="0.181818" stop-color="#9A761E"/>
<stop offset="0.339394" stop-color="#ECD33A"/>
<stop offset="0.527273" stop-color="#3C2716"/>
<stop offset="0.715152" stop-color="#B9871C"/>
<stop offset="0.842424" stop-color="#ECD33A"/>
<stop offset="1" stop-color="#775523"/>
</linearGradient>
<clipPath id="clip0">
<rect width="249.82" height="67.9102" fill="white"/>
</clipPath>
</defs>
</svg>
