<svg width="328" height="107" viewBox="0 0 328 107" fill="none" xmlns="http://www.w3.org/2000/svg">
<path d="M327.251 84.3331V22.6617H316.802C316.802 16.2322 307.249 5.27717 282.466 5.27717V5.48828e-06H44.7872V5.27717C20.0046 5.27717 10.4503 16.2322 10.4503 22.6617H0V84.3331H10.4503C10.4503 90.7644 20.0046 101.719 44.7872 101.719V106.995H282.466V101.719C307.249 101.719 316.802 90.7644 316.802 84.3331H327.251ZM313.415 82.6233V84.3331C313.415 89.4482 305.852 100.01 282.466 100.01H279.076V101.719V105.285H48.175V100.01H44.7872C21.4005 100.01 13.8352 89.4482 13.8352 84.3331V82.6233H3.38455V24.3715H13.8352V22.6617C13.8352 17.5484 21.4005 6.98695 44.7872 6.98695H48.175V1.70979H279.076V6.98695H282.466C305.852 6.98695 313.415 17.5484 313.415 22.6617V24.3715H323.868V82.6233H313.415Z" fill="url(#paint0_linear)"/>
<path d="M274.645 3.94853H52.6062V9.2239H44.7872C24.7512 9.2239 18.2696 18.2786 18.2696 22.6617V25.8248V26.6102H16.7139H7.81931V80.3864H16.7139H18.2696V81.1718V84.3331C18.2696 88.718 24.7512 97.7709 44.7872 97.7709H51.0508H52.6062V98.5563V103.046H274.645V98.5563V97.7709H276.201H282.466C302.5 97.7709 308.984 88.718 308.984 84.3331V81.1718V80.3864H310.54H319.434V26.6102H310.54H308.984V25.8248V22.6617C308.984 18.2786 302.5 9.2239 282.466 9.2239H276.201H274.645V8.43848V3.94853ZM272.44 5.06167V10.337H282.466C300.835 10.337 306.779 18.6402 306.779 22.6617V25.8248V26.6102V27.7234H308.984H310.54H317.229V79.2732H310.54H308.984H306.779V80.3864V81.1718V84.3331C306.779 88.3547 300.835 96.6578 282.466 96.6578H276.201H274.645H272.44V97.7709V98.5563V101.935H54.8114V98.5563V97.7709V96.6578H52.6062H51.0508H44.7872C26.417 96.6578 20.4748 88.3547 20.4748 84.3331V81.1718V80.3864V79.2732H18.2696H16.7139H10.0242V27.7234H16.7139H18.2696H20.4748V26.6102V25.8248V22.6617C20.4748 18.6402 26.417 10.337 44.7872 10.337H51.0508H52.6062H54.8114V9.2239V8.43848V5.06167H272.44Z" fill="url(#paint1_linear)"/>
<defs>
<linearGradient id="paint0_linear" x1="0" y1="53.4983" x2="327.252" y2="53.4983" gradientUnits="userSpaceOnUse">
<stop stop-color="#9A761E"/>
<stop offset="0.181818" stop-color="#9A761E"/>
<stop offset="0.339394" stop-color="#ECD33A"/>
<stop offset="0.527273" stop-color="#3C2716"/>
<stop offset="0.715152" stop-color="#B9871C"/>
<stop offset="0.842424" stop-color="#ECD33A"/>
<stop offset="1" stop-color="#775523"/>
</linearGradient>
<linearGradient id="paint1_linear" x1="7.81931" y1="53.4983" x2="319.433" y2="53.4983" gradientUnits="userSpaceOnUse">
<stop stop-color="#9A761E"/>
<stop offset="0.181818" stop-color="#9A761E"/>
<stop offset="0.339394" stop-color="#ECD33A"/>
<stop offset="0.527273" stop-color="#3C2716"/>
<stop offset="0.715152" stop-color="#B9871C"/>
<stop offset="0.842424" stop-color="#ECD33A"/>
<stop offset="1" stop-color="#775523"/>
</linearGradient>
</defs>
</svg>
