<?xml version="1.0" encoding="UTF-8" standalone="no"?>
<svg
   xmlns:dc="http://purl.org/dc/elements/1.1/"
   xmlns:cc="http://creativecommons.org/ns#"
   xmlns:rdf="http://www.w3.org/1999/02/22-rdf-syntax-ns#"
   xmlns:svg="http://www.w3.org/2000/svg"
   xmlns="http://www.w3.org/2000/svg"
   xmlns:sodipodi="http://sodipodi.sourceforge.net/DTD/sodipodi-0.dtd"
   xmlns:inkscape="http://www.inkscape.org/namespaces/inkscape"
   width="62.864998mm"
   height="64.796455mm"
   viewBox="0 0 62.864998 64.796455"
   version="1.1"
   id="svg2921"
   inkscape:version="1.0.2 (e86c8708, 2021-01-15)"
   sodipodi:docname="bet chips.svg">
  <defs
     id="defs2915" />
  <sodipodi:namedview
     id="base"
     pagecolor="#ffffff"
     bordercolor="#666666"
     borderopacity="1.0"
     inkscape:pageopacity="0.0"
     inkscape:pageshadow="2"
     inkscape:zoom="0.35"
     inkscape:cx="401.65714"
     inkscape:cy="545.30713"
     inkscape:document-units="mm"
     inkscape:current-layer="layer1"
     inkscape:document-rotation="0"
     showgrid="false"
     inkscape:window-width="1252"
     inkscape:window-height="943"
     inkscape:window-x="0"
     inkscape:window-y="25"
     inkscape:window-maximized="0" />
  <metadata
     id="metadata2918">
    <rdf:RDF>
      <cc:Work
         rdf:about="">
        <dc:format>image/svg+xml</dc:format>
        <dc:type
           rdf:resource="http://purl.org/dc/dcmitype/StillImage" />
        <dc:title></dc:title>
      </cc:Work>
    </rdf:RDF>
  </metadata>
  <g
     inkscape:label="Layer 1"
     inkscape:groupmode="layer"
     id="layer1"
     transform="translate(0.43845198,-3.8874885)">
    <g
       id="g2416"
       transform="matrix(0.26458333,0,0,0.26458333,-25.38866,-36.196886)">
      <path
         class="st2"
         d="m 235,325.6 c -46.5,0 -96.6,11.1 -96.6,35.4 0,24.3 50.1,35.4 96.6,35.4 46.5,0 96.6,-11.1 96.6,-35.4 0,-24.3 -50.1,-35.4 -96.6,-35.4 z"
         style="fill:#f15d5d"
         id="path2406" />
      <path
         class="st4"
         d="m 221,372.1 -10.5,8 v 15.3 c 8.1,0.7 16.4,1 24.5,1 8.3,0 16.7,-0.4 24.9,-1.1 v -15 l -11.4,-8.2 z"
         style="fill:#ece8da"
         id="path2408" />
      <path
         class="st4"
         d="m 331.6,361.6 c -0.1,-2.1 -0.2,-3.1 -0.2,-3.1 l -29.4,-5 -9.8,9.3 v 0.9 l 16.3,5.1 -1.3,16.8 c 14.5,-5.7 24,-13.6 24.4,-24 z"
         style="fill:#ece8da"
         id="path2410" />
      <path
         class="st4"
         d="m 138.6,358.5 c 0,0 -0.1,1 -0.2,3.1 0.3,10.4 9.9,18.3 24.4,24 v 0 l -1.3,-16.8 16.3,-5.1 v -0.9 l -9.8,-9.3 z"
         style="fill:#ece8da"
         id="path2412" />
      <path
         class="st5"
         d="m 236.7,381.1 c -45.5,0 -94.4,-8.7 -96.5,-27.6 -1.1,2.4 -1.7,4.9 -1.7,7.5 0,24.3 50.1,35.4 96.6,35.4 46.5,0 96.6,-11.1 96.6,-35.4 0,-0.9 -0.1,-1.7 -0.2,-2.5 -9.6,15.5 -53.6,22.6 -94.8,22.6 z"
         style="opacity:0.7;fill:#f15d5d"
         id="path2414" />
    </g>
    <g
       id="g2428"
       transform="matrix(0.26458333,0,0,0.26458333,-25.38866,-36.196886)">
      <path
         class="st2"
         d="m 230.4,303.4 c -46.5,0 -96.6,11.1 -96.6,35.4 0,24.3 50.1,35.4 96.6,35.4 46.5,0 96.6,-11.1 96.6,-35.4 -0.1,-24.3 -50.1,-35.4 -96.6,-35.4 z"
         style="fill:#f15d5d"
         id="path2418" />
      <path
         class="st4"
         d="m 216.3,349.8 -10.5,8 v 15.3 c 8.1,0.7 16.4,1 24.5,1 8.3,0 16.7,-0.4 24.9,-1.1 v -15 l -11.4,-8.2 z"
         style="fill:#ece8da"
         id="path2420" />
      <path
         class="st4"
         d="m 326.9,339.4 c -0.1,-2.1 -0.2,-3.1 -0.2,-3.1 l -29.4,-5 -9.8,9.3 v 0.9 l 16.3,5.1 -1.3,16.8 c 14.5,-5.7 24.1,-13.7 24.4,-24 z"
         style="fill:#ece8da"
         id="path2422" />
      <path
         class="st4"
         d="m 134,336.3 c 0,0 -0.1,1 -0.2,3.1 0.3,10.4 9.9,18.3 24.4,24 v 0 l -1.3,-16.8 16.3,-5.1 v -0.9 l -9.8,-9.3 z"
         style="fill:#ece8da"
         id="path2424" />
      <path
         class="st5"
         d="m 232,358.8 c -45.5,0 -94.4,-8.7 -96.5,-27.6 -1.1,2.4 -1.7,4.9 -1.7,7.5 0,24.3 50.1,35.4 96.6,35.4 46.5,0 96.6,-11.1 96.6,-35.4 0,-0.9 -0.1,-1.7 -0.2,-2.5 -9.5,15.5 -53.5,22.6 -94.8,22.6 z"
         style="opacity:0.7;fill:#f15d5d"
         id="path2426" />
    </g>
    <g
       id="g2452"
       transform="matrix(0.26458333,0,0,0.26458333,-25.38866,-36.196886)">
      <path
         class="st2"
         d="m 230.6,261 c -46.5,0 -96.6,11.1 -96.6,35.4 0,24.3 50.1,35.4 96.6,35.4 46.5,0 96.6,-11.1 96.6,-35.4 C 327.1,272 277.1,261 230.6,261 Z"
         style="fill:#f15d5d"
         id="path2442" />
      <path
         class="st4"
         d="m 216.5,307.4 -10.5,8 v 15.3 c 8.1,0.7 16.4,1 24.5,1 8.3,0 16.7,-0.4 24.9,-1.1 v -15 L 244,307.4 Z"
         style="fill:#ece8da"
         id="path2444" />
      <path
         class="st4"
         d="m 327.1,296.9 c -0.1,-2.1 -0.2,-3.1 -0.2,-3.1 l -29.4,-5 -9.8,9.3 v 0.9 l 16.3,5.1 -1.3,16.8 c 14.5,-5.6 24.1,-13.6 24.4,-24 z"
         style="fill:#ece8da"
         id="path2446" />
      <path
         class="st4"
         d="m 134.2,293.9 c 0,0 -0.1,1 -0.2,3.1 0.3,10.4 9.9,18.3 24.4,24 v 0 l -1.3,-16.8 16.3,-5.1 v -0.9 l -9.8,-9.3 z"
         style="fill:#ece8da"
         id="path2448" />
      <path
         class="st5"
         d="m 232.2,316.4 c -45.5,0 -94.4,-8.7 -96.5,-27.6 -1.1,2.4 -1.7,4.9 -1.7,7.5 0,24.3 50.1,35.4 96.6,35.4 46.5,0 96.6,-11.1 96.6,-35.4 0,-0.9 -0.1,-1.7 -0.2,-2.5 -9.5,15.5 -53.5,22.6 -94.8,22.6 z"
         style="opacity:0.7;fill:#f15d5d"
         id="path2450" />
    </g>
    <g
       id="g2464"
       transform="matrix(0.26458333,0,0,0.26458333,-25.38866,-36.196886)">
      <path
         class="st2"
         d="m 230.4,239.5 c -46.5,0 -96.6,11.1 -96.6,35.4 0,24.3 50.1,35.4 96.6,35.4 46.5,0 96.6,-11.1 96.6,-35.4 -0.1,-24.3 -50.1,-35.4 -96.6,-35.4 z"
         style="fill:#f15d5d"
         id="path2454" />
      <path
         class="st4"
         d="m 216.3,286 -10.5,8 v 15.3 c 8.1,0.7 16.4,1 24.5,1 8.3,0 16.7,-0.4 24.9,-1.1 v -15 L 243.8,286 Z"
         style="fill:#ece8da"
         id="path2456" />
      <path
         class="st4"
         d="m 326.9,275.5 c -0.1,-2.1 -0.2,-3.1 -0.2,-3.1 l -29.4,-5 -9.8,9.3 v 0.9 l 16.3,5.1 -1.3,16.8 c 14.5,-5.7 24.1,-13.6 24.4,-24 z"
         style="fill:#ece8da"
         id="path2458" />
      <path
         class="st4"
         d="m 134,272.4 c 0,0 -0.1,1 -0.2,3.1 0.3,10.4 9.9,18.3 24.4,24 v 0 l -1.3,-16.8 16.3,-5.1 v -0.9 l -9.8,-9.3 z"
         style="fill:#ece8da"
         id="path2460" />
      <path
         class="st5"
         d="m 232,295 c -45.5,0 -94.4,-8.7 -96.5,-27.6 -1.1,2.4 -1.7,4.9 -1.7,7.5 0,24.3 50.1,35.4 96.6,35.4 46.5,0 96.6,-11.1 96.6,-35.4 0,-0.9 -0.1,-1.7 -0.2,-2.5 -9.5,15.4 -53.5,22.6 -94.8,22.6 z"
         style="opacity:0.7;fill:#f15d5d"
         id="path2462" />
    </g>
    <g
       id="g2476"
       transform="matrix(0.26458333,0,0,0.26458333,-25.38866,-36.196886)">
      <path
         class="st2"
         d="m 230.4,217 c -46.5,0 -96.6,11.1 -96.6,35.4 0,24.3 50.1,35.4 96.6,35.4 46.5,0 96.6,-11.1 96.6,-35.4 C 326.9,228.1 276.9,217 230.4,217 Z"
         style="fill:#f15d5d"
         id="path2466" />
      <path
         class="st4"
         d="m 216.3,263.5 -10.5,8 v 15.3 c 8.1,0.7 16.4,1 24.5,1 8.3,0 16.7,-0.4 24.9,-1.1 v -15 l -11.4,-8.2 z"
         style="fill:#ece8da"
         id="path2468" />
      <path
         class="st4"
         d="m 326.9,253 c -0.1,-2.1 -0.2,-3.1 -0.2,-3.1 l -29.4,-5 -9.8,9.3 v 0.9 l 16.3,5.1 -1.3,16.8 c 14.5,-5.7 24.1,-13.6 24.4,-24 z"
         style="fill:#ece8da"
         id="path2470" />
      <path
         class="st4"
         d="m 134,249.9 c 0,0 -0.1,1 -0.2,3.1 0.3,10.4 9.9,18.3 24.4,24 v 0 l -1.3,-16.8 16.3,-5.1 v -0.9 l -9.8,-9.3 z"
         style="fill:#ece8da"
         id="path2472" />
      <path
         class="st5"
         d="m 232,272.5 c -45.5,0 -94.4,-8.7 -96.5,-27.6 -1.1,2.4 -1.7,4.9 -1.7,7.5 0,24.3 50.1,35.4 96.6,35.4 46.5,0 96.6,-11.1 96.6,-35.4 0,-0.9 -0.1,-1.7 -0.2,-2.5 -9.5,15.5 -53.5,22.6 -94.8,22.6 z"
         style="opacity:0.7;fill:#f15d5d"
         id="path2474" />
    </g>
    <g
       id="g2488"
       transform="matrix(0.26458333,0,0,0.26458333,-25.38866,-36.196886)">
      <path
         class="st2"
         d="m 235.2,194.4 c -46.5,0 -96.6,11.1 -96.6,35.4 0,24.3 50.1,35.4 96.6,35.4 46.5,0 96.6,-11.1 96.6,-35.4 0,-24.3 -50.1,-35.4 -96.6,-35.4 z"
         style="fill:#f15d5d"
         id="path2478" />
      <path
         class="st4"
         d="m 221.2,240.9 -10.5,8 v 15.3 c 8.1,0.7 16.4,1 24.5,1 8.3,0 16.7,-0.4 24.9,-1.1 v -15 l -11.4,-8.2 z"
         style="fill:#ece8da"
         id="path2480" />
      <path
         class="st4"
         d="m 331.7,230.4 c -0.1,-2.1 -0.2,-3.1 -0.2,-3.1 l -29.4,-5 -9.8,9.3 v 0.9 l 16.3,5.1 -1.3,16.8 c 14.5,-5.6 24.1,-13.6 24.4,-24 z"
         style="fill:#ece8da"
         id="path2482" />
      <path
         class="st4"
         d="m 138.8,227.3 c 0,0 -0.1,1 -0.2,3.1 0.3,10.4 9.9,18.3 24.4,24 v 0 l -1.3,-16.8 16.3,-5.1 v -0.9 l -9.8,-9.3 z"
         style="fill:#ece8da"
         id="path2484" />
      <path
         class="st5"
         d="m 236.9,249.9 c -45.5,0 -94.4,-8.7 -96.5,-27.6 -1.1,2.4 -1.7,4.9 -1.7,7.5 0,24.3 50.1,35.4 96.6,35.4 46.5,0 96.6,-11.1 96.6,-35.4 0,-0.9 -0.1,-1.7 -0.2,-2.5 -9.6,15.5 -53.6,22.6 -94.8,22.6 z"
         style="opacity:0.7;fill:#f15d5d"
         id="path2486" />
    </g>
    <g
       id="g2500"
       transform="matrix(0.26458333,0,0,0.26458333,-25.38866,-36.196886)">
      <path
         class="st2"
         d="m 201.1,174.1 c -46.5,0 -96.6,11.1 -96.6,35.4 0,24.3 50.1,35.4 96.6,35.4 46.5,0 96.6,-11.1 96.6,-35.4 0,-24.3 -50.1,-35.4 -96.6,-35.4 z"
         style="fill:#f15d5d"
         id="path2490" />
      <path
         class="st4"
         d="m 187.1,220.6 -10.5,8 v 15.3 c 8.1,0.7 16.4,1 24.5,1 8.3,0 16.7,-0.4 24.9,-1.1 v -15 l -11.4,-8.2 z"
         style="fill:#ece8da"
         id="path2492" />
      <path
         class="st4"
         d="m 297.6,210.1 c -0.1,-2.1 -0.2,-3.1 -0.2,-3.1 l -29.4,-5 -9.8,9.3 v 0.9 l 16.3,5.1 -1.3,16.8 c 14.5,-5.7 24.1,-13.6 24.4,-24 z"
         style="fill:#ece8da"
         id="path2494" />
      <path
         class="st4"
         d="m 104.7,207 c 0,0 -0.1,1 -0.2,3.1 0.3,10.4 9.9,18.3 24.4,24 v 0 l -1.3,-16.8 16.3,-5.1 v -0.9 l -9.8,-9.3 z"
         style="fill:#ece8da"
         id="path2496" />
      <path
         class="st5"
         d="m 202.8,229.6 c -45.5,0 -94.4,-8.7 -96.5,-27.6 -1.1,2.4 -1.7,4.9 -1.7,7.5 0,24.3 50.1,35.4 96.6,35.4 46.5,0 96.6,-11.1 96.6,-35.4 0,-0.9 -0.1,-1.7 -0.2,-2.5 -9.6,15.5 -53.6,22.6 -94.8,22.6 z"
         style="opacity:0.7;fill:#f15d5d"
         id="path2498" />
    </g>
    <g
       id="g2512"
       transform="matrix(0.26458333,0,0,0.26458333,-25.38866,-36.196886)">
      <path
         class="st2"
         d="m 190.9,151.5 c -46.5,0 -96.6,11.1 -96.6,35.4 0,24.3 50.1,35.4 96.6,35.4 46.5,0 96.6,-11.1 96.6,-35.4 0,-24.3 -50.1,-35.4 -96.6,-35.4 z"
         style="fill:#f15d5d"
         id="path2502" />
      <path
         class="st4"
         d="m 176.9,198 -10.5,8 v 15.3 c 8.1,0.7 16.4,1 24.5,1 8.3,0 16.7,-0.4 24.9,-1.1 v -15 L 204.4,198 Z"
         style="fill:#ece8da"
         id="path2504" />
      <path
         class="st4"
         d="m 287.5,187.5 c -0.1,-2.1 -0.2,-3.1 -0.2,-3.1 l -29.4,-5 -9.8,9.3 v 0.9 l 16.3,5.1 -1.3,16.8 c 14.5,-5.7 24,-13.6 24.4,-24 z"
         style="fill:#ece8da"
         id="path2506" />
      <path
         class="st4"
         d="m 94.6,184.4 c 0,0 -0.1,1 -0.2,3.1 0.3,10.4 9.9,18.3 24.4,24 v 0 l -1.3,-16.8 16.3,-5.1 v -0.9 l -9.8,-9.3 z"
         style="fill:#ece8da"
         id="path2508" />
      <path
         class="st5"
         d="m 192.6,207 c -45.5,0 -94.4,-8.7 -96.5,-27.6 -1.1,2.4 -1.7,4.9 -1.7,7.5 0,24.3 50.1,35.4 96.6,35.4 46.5,0 96.6,-11.1 96.6,-35.4 0,-0.9 -0.1,-1.7 -0.2,-2.5 -9.5,15.5 -53.6,22.6 -94.8,22.6 z"
         style="opacity:0.7;fill:#f15d5d"
         id="path2510" />
    </g>
    <path
       d="M 43.455922,10.475614 A 18.362084,6.1118749 0 0 1 25.093839,16.587486 18.362084,6.1118749 0 0 1 6.7317561,10.475614 18.362084,6.1118749 0 0 1 25.093839,4.3637343 18.362084,6.1118749 0 0 1 43.455922,10.475614 Z"
       class="st4"
       style="fill:#ece8da;stroke-width:0.264583"
       id="path2514" />
    <text
       xml:space="preserve"
       style="font-style:normal;font-weight:normal;font-size:10.5833px;line-height:1.25;font-family:sans-serif;fill:#000000;fill-opacity:1;stroke:none;stroke-width:0.264583"
       x="178.72226"
       y="136.17915"
       id="text3081"><tspan
         sodipodi:role="line"
         id="tspan3079"
         x="178.72226"
         y="136.17915"
         style="stroke-width:0.264583" /></text>
  </g>
</svg>
