<?xml version="1.0" encoding="UTF-8"?>
<svg width="108px" height="72px" viewBox="0 0 108 72" version="1.1" xmlns="http://www.w3.org/2000/svg" xmlns:xlink="http://www.w3.org/1999/xlink">
    <title>Group 2</title>
    <g id="Page-1" stroke="none" stroke-width="1" fill="none" fill-rule="evenodd">
        <g id="Group-2" transform="translate(1.000000, 1.000000)">
            <g id="sb-chip" transform="translate(52.000000, 40.000000)">
                <path d="M51,15 C51,23.2842713 39.5832612,30 25.5,30 C11.4167404,30 0,23.2842719 0,15 C0,11.0217532 2.68659938,7.20644426 7.46877731,4.39339842 C12.2509552,1.58035258 18.7369804,0 25.5,0 C39.5832623,0 51,6.71572964 51,15 L51,15 Z" id="path2544" fill="#ECE8DA" fill-rule="nonzero"></path>
                <path d="M51,15 C51,23.2842713 39.5832612,30 25.5,30 C11.4167404,30 0,23.2842719 0,15 C0,11.0217532 2.68659938,7.20644426 7.46877731,4.39339842 C12.2509552,1.58035258 18.7369804,0 25.5,0 C39.5832623,0 51,6.71572964 51,15 L51,15 Z" id="path2546" stroke="#F15D5D" stroke-width="1.58749998"></path>
                <path d="M43,14.5 C43,20.2989899 34.9411255,25 25,25 C15.0588745,25 7,20.2989899 7,14.5 C7,8.70101013 15.0588745,4 25,4 C34.9411255,4 43,8.70101013 43,14.5 Z" id="path2548" fill="#F15D5D" fill-rule="nonzero"></path>
                <path d="M19.3280423,3 L30.0687831,3 L32,0.507042254 C29.8306878,0.183098592 27.5291005,0 25.1481481,0 C22.2910053,0 19.5661376,0.253521127 17,0.718309859 L19.3280423,3 Z" id="path2552" fill="#F15D5D" fill-rule="nonzero"></path>
                <path d="M37,4.76482618 L43.3110599,10 L48,9.16564417 C47.1889401,7.87321063 46.0737327,6.61349693 44.6797235,5.46830266 C43.0069124,4.07770961 41.0299539,2.91615542 38.875576,2 L37,4.76482618 Z" id="path2554" fill="#F15D5D" fill-rule="nonzero"></path>
                <path d="M45.4664602,13.7635379 L43,20.1480144 L46.8367159,22 C47.9080067,20.7978339 48.7301601,19.465704 49.2782624,18.0523466 C49.9260196,16.3628159 50.1253296,14.6570397 49.9260196,13 L45.4664602,13.7635379 Z" id="path2556" fill="#F15D5D" fill-rule="nonzero"></path>
                <path d="M38.0464217,24 L28,26.771831 L28.1083172,30 C30.410058,29.7971831 32.6847195,29.3915493 34.9323017,28.7830986 C37.6131528,28.0394366 39.9690522,27.0591549 42,25.8929577 L38.0464217,24 Z" id="path2558" fill="#F15D5D" fill-rule="nonzero"></path>
                <path d="M20.974359,26.0638298 L11.8205128,23 L8,24.9308511 C9.58974359,25.8723404 11.3846154,26.7180851 13.4358974,27.3882979 C15.8717949,28.2021277 18.4358974,28.7287234 21,29 L20.974359,26.0638298 Z" id="path2560" fill="#F15D5D" fill-rule="nonzero"></path>
                <path d="M7,20.1418312 L5.16967075,13.6786355 L0.136265321,13 C-0.105984138,14.3734291 -0.0252343187,15.7953321 0.37851478,17.2333932 C0.863013699,18.94614 1.80509493,20.545781 3.12400865,22 L7,20.1418312 Z" id="path2562" fill="#F15D5D" fill-rule="nonzero"></path>
                <path d="M6.75221239,9 L14,4.5602537 L11.8495575,2 C9.91150442,2.66596195 8.13274336,3.49471459 6.51327434,4.48625793 C4.57522124,5.67019027 3.08849558,6.97251586 2,8.36363636 L6.75221239,9 Z" id="path2564" fill="#F15D5D" fill-rule="nonzero"></path>
            </g>
            <g id="sb-chip" transform="translate(55.000000, 34.000000)">
                <path d="M51,15 C51,23.2842713 39.5832612,30 25.5,30 C11.4167404,30 0,23.2842719 0,15 C0,11.0217532 2.68659938,7.20644426 7.46877731,4.39339842 C12.2509552,1.58035258 18.7369804,0 25.5,0 C39.5832623,0 51,6.71572964 51,15 L51,15 Z" id="path2544" fill="#ECE8DA" fill-rule="nonzero"></path>
                <path d="M51,15 C51,23.2842713 39.5832612,30 25.5,30 C11.4167404,30 0,23.2842719 0,15 C0,11.0217532 2.68659938,7.20644426 7.46877731,4.39339842 C12.2509552,1.58035258 18.7369804,0 25.5,0 C39.5832623,0 51,6.71572964 51,15 L51,15 Z" id="path2546" stroke="#F15D5D" stroke-width="1.58749998"></path>
                <path d="M43,14.5 C43,20.2989899 34.9411255,25 25,25 C15.0588745,25 7,20.2989899 7,14.5 C7,8.70101013 15.0588745,4 25,4 C34.9411255,4 43,8.70101013 43,14.5 Z" id="path2548" fill="#F15D5D" fill-rule="nonzero"></path>
                <path d="M19.3280423,3 L30.0687831,3 L32,0.507042254 C29.8306878,0.183098592 27.5291005,0 25.1481481,0 C22.2910053,0 19.5661376,0.253521127 17,0.718309859 L19.3280423,3 Z" id="path2552" fill="#F15D5D" fill-rule="nonzero"></path>
                <path d="M37,4.76482618 L43.3110599,10 L48,9.16564417 C47.1889401,7.87321063 46.0737327,6.61349693 44.6797235,5.46830266 C43.0069124,4.07770961 41.0299539,2.91615542 38.875576,2 L37,4.76482618 Z" id="path2554" fill="#F15D5D" fill-rule="nonzero"></path>
                <path d="M45.4664602,13.7635379 L43,20.1480144 L46.8367159,22 C47.9080067,20.7978339 48.7301601,19.465704 49.2782624,18.0523466 C49.9260196,16.3628159 50.1253296,14.6570397 49.9260196,13 L45.4664602,13.7635379 Z" id="path2556" fill="#F15D5D" fill-rule="nonzero"></path>
                <path d="M38.0464217,24 L28,26.771831 L28.1083172,30 C30.410058,29.7971831 32.6847195,29.3915493 34.9323017,28.7830986 C37.6131528,28.0394366 39.9690522,27.0591549 42,25.8929577 L38.0464217,24 Z" id="path2558" fill="#F15D5D" fill-rule="nonzero"></path>
                <path d="M20.974359,26.0638298 L11.8205128,23 L8,24.9308511 C9.58974359,25.8723404 11.3846154,26.7180851 13.4358974,27.3882979 C15.8717949,28.2021277 18.4358974,28.7287234 21,29 L20.974359,26.0638298 Z" id="path2560" fill="#F15D5D" fill-rule="nonzero"></path>
                <path d="M7,20.1418312 L5.16967075,13.6786355 L0.136265321,13 C-0.105984138,14.3734291 -0.0252343187,15.7953321 0.37851478,17.2333932 C0.863013699,18.94614 1.80509493,20.545781 3.12400865,22 L7,20.1418312 Z" id="path2562" fill="#F15D5D" fill-rule="nonzero"></path>
                <path d="M6.75221239,9 L14,4.5602537 L11.8495575,2 C9.91150442,2.66596195 8.13274336,3.49471459 6.51327434,4.48625793 C4.57522124,5.67019027 3.08849558,6.97251586 2,8.36363636 L6.75221239,9 Z" id="path2564" fill="#F15D5D" fill-rule="nonzero"></path>
            </g>
            <g id="sb-chip" transform="translate(54.000000, 27.000000)">
                <path d="M51,15 C51,23.2842713 39.5832612,30 25.5,30 C11.4167404,30 0,23.2842719 0,15 C0,11.0217532 2.68659938,7.20644426 7.46877731,4.39339842 C12.2509552,1.58035258 18.7369804,0 25.5,0 C39.5832623,0 51,6.71572964 51,15 L51,15 Z" id="path2544" fill="#ECE8DA" fill-rule="nonzero"></path>
                <path d="M51,15 C51,23.2842713 39.5832612,30 25.5,30 C11.4167404,30 0,23.2842719 0,15 C0,11.0217532 2.68659938,7.20644426 7.46877731,4.39339842 C12.2509552,1.58035258 18.7369804,0 25.5,0 C39.5832623,0 51,6.71572964 51,15 L51,15 Z" id="path2546" stroke="#F15D5D" stroke-width="1.58749998"></path>
                <path d="M43,14.5 C43,20.2989899 34.9411255,25 25,25 C15.0588745,25 7,20.2989899 7,14.5 C7,8.70101013 15.0588745,4 25,4 C34.9411255,4 43,8.70101013 43,14.5 Z" id="path2548" fill="#F15D5D" fill-rule="nonzero"></path>
                <path d="M19.3280423,3 L30.0687831,3 L32,0.507042254 C29.8306878,0.183098592 27.5291005,0 25.1481481,0 C22.2910053,0 19.5661376,0.253521127 17,0.718309859 L19.3280423,3 Z" id="path2552" fill="#F15D5D" fill-rule="nonzero"></path>
                <path d="M37,4.76482618 L43.3110599,10 L48,9.16564417 C47.1889401,7.87321063 46.0737327,6.61349693 44.6797235,5.46830266 C43.0069124,4.07770961 41.0299539,2.91615542 38.875576,2 L37,4.76482618 Z" id="path2554" fill="#F15D5D" fill-rule="nonzero"></path>
                <path d="M45.4664602,13.7635379 L43,20.1480144 L46.8367159,22 C47.9080067,20.7978339 48.7301601,19.465704 49.2782624,18.0523466 C49.9260196,16.3628159 50.1253296,14.6570397 49.9260196,13 L45.4664602,13.7635379 Z" id="path2556" fill="#F15D5D" fill-rule="nonzero"></path>
                <path d="M38.0464217,24 L28,26.771831 L28.1083172,30 C30.410058,29.7971831 32.6847195,29.3915493 34.9323017,28.7830986 C37.6131528,28.0394366 39.9690522,27.0591549 42,25.8929577 L38.0464217,24 Z" id="path2558" fill="#F15D5D" fill-rule="nonzero"></path>
                <path d="M20.974359,26.0638298 L11.8205128,23 L8,24.9308511 C9.58974359,25.8723404 11.3846154,26.7180851 13.4358974,27.3882979 C15.8717949,28.2021277 18.4358974,28.7287234 21,29 L20.974359,26.0638298 Z" id="path2560" fill="#F15D5D" fill-rule="nonzero"></path>
                <path d="M7,20.1418312 L5.16967075,13.6786355 L0.136265321,13 C-0.105984138,14.3734291 -0.0252343187,15.7953321 0.37851478,17.2333932 C0.863013699,18.94614 1.80509493,20.545781 3.12400865,22 L7,20.1418312 Z" id="path2562" fill="#F15D5D" fill-rule="nonzero"></path>
                <path d="M6.75221239,9 L14,4.5602537 L11.8495575,2 C9.91150442,2.66596195 8.13274336,3.49471459 6.51327434,4.48625793 C4.57522124,5.67019027 3.08849558,6.97251586 2,8.36363636 L6.75221239,9 Z" id="path2564" fill="#F15D5D" fill-rule="nonzero"></path>
            </g>
            <g id="goldchip" transform="translate(0.000000, 37.000000)">
                <path d="M51,15 C51,23.2842713 39.5832612,30 25.5,30 C11.4167404,30 0,23.2842719 0,15 C0,11.0217532 2.68659938,7.20644426 7.46877731,4.39339842 C12.2509552,1.58035258 18.7369804,0 25.5,0 C39.5832623,0 51,6.71572964 51,15 L51,15 Z" id="path2544" fill="#ECE8DA" fill-rule="nonzero"></path>
                <path d="M51,15 C51,23.2842713 39.5832612,30 25.5,30 C11.4167404,30 0,23.2842719 0,15 C0,11.0217532 2.68659938,7.20644426 7.46877731,4.39339842 C12.2509552,1.58035258 18.7369804,0 25.5,0 C39.5832623,0 51,6.71572964 51,15 L51,15 Z" id="path2546" stroke="#ED8F03" stroke-width="1.58749998"></path>
                <path d="M43,14.5 C43,20.2989899 34.9411255,25 25,25 C15.0588745,25 7,20.2989899 7,14.5 C7,8.70101013 15.0588745,4 25,4 C34.9411255,4 43,8.70101013 43,14.5 Z" id="path2548" fill="#ED8F03" fill-rule="nonzero"></path>
                <path d="M19.3280423,3 L30.0687831,3 L32,0.507042254 C29.8306878,0.183098592 27.5291005,0 25.1481481,0 C22.2910053,0 19.5661376,0.253521127 17,0.718309859 L19.3280423,3 Z" id="path2552" fill="#ED8F03" fill-rule="nonzero"></path>
                <path d="M37,4.76482618 L43.3110599,10 L48,9.16564417 C47.1889401,7.87321063 46.0737327,6.61349693 44.6797235,5.46830266 C43.0069124,4.07770961 41.0299539,2.91615542 38.875576,2 L37,4.76482618 Z" id="path2554" fill="#ED8F03" fill-rule="nonzero"></path>
                <path d="M45.4664602,13.7635379 L43,20.1480144 L46.8367159,22 C47.9080067,20.7978339 48.7301601,19.465704 49.2782624,18.0523466 C49.9260196,16.3628159 50.1253296,14.6570397 49.9260196,13 L45.4664602,13.7635379 Z" id="path2556" fill="#ED8F03" fill-rule="nonzero"></path>
                <path d="M38.0464217,24 L28,26.771831 L28.1083172,30 C30.410058,29.7971831 32.6847195,29.3915493 34.9323017,28.7830986 C37.6131528,28.0394366 39.9690522,27.0591549 42,25.8929577 L38.0464217,24 Z" id="path2558" fill="#ED8F03" fill-rule="nonzero"></path>
                <path d="M20.974359,26.0638298 L11.8205128,23 L8,24.9308511 C9.58974359,25.8723404 11.3846154,26.7180851 13.4358974,27.3882979 C15.8717949,28.2021277 18.4358974,28.7287234 21,29 L20.974359,26.0638298 Z" id="path2560" fill="#ED8F03" fill-rule="nonzero"></path>
                <path d="M7,20.1418312 L5.16967075,13.6786355 L0.136265321,13 C-0.105984138,14.3734291 -0.0252343187,15.7953321 0.37851478,17.2333932 C0.863013699,18.94614 1.80509493,20.545781 3.12400865,22 L7,20.1418312 Z" id="path2562" fill="#ED8F03" fill-rule="nonzero"></path>
                <path d="M6.75221239,9 L14,4.5602537 L11.8495575,2 C9.91150442,2.66596195 8.13274336,3.49471459 6.51327434,4.48625793 C4.57522124,5.67019027 3.08849558,6.97251586 2,8.36363636 L6.75221239,9 Z" id="path2564" fill="#ED8F03" fill-rule="nonzero"></path>
            </g>
            <g id="goldchip" opacity="0" transform="translate(79.500000, 16.000000) rotate(2.000000) translate(-79.500000, -16.000000) translate(54.000000, 1.000000)">
                <path d="M51,15 C51,23.2842713 39.5832612,30 25.5,30 C11.4167404,30 0,23.2842719 0,15 C0,11.0217532 2.68659938,7.20644426 7.46877731,4.39339842 C12.2509552,1.58035258 18.7369804,0 25.5,0 C39.5832623,0 51,6.71572964 51,15 L51,15 Z" id="path2544" fill="#ECE8DA" fill-rule="nonzero"></path>
                <path d="M51,15 C51,23.2842713 39.5832612,30 25.5,30 C11.4167404,30 0,23.2842719 0,15 C0,11.0217532 2.68659938,7.20644426 7.46877731,4.39339842 C12.2509552,1.58035258 18.7369804,0 25.5,0 C39.5832623,0 51,6.71572964 51,15 L51,15 Z" id="path2546" stroke="#ED8F03" stroke-width="1.58749998"></path>
                <path d="M43,14.5 C43,20.2989899 34.9411255,25 25,25 C15.0588745,25 7,20.2989899 7,14.5 C7,8.70101013 15.0588745,4 25,4 C34.9411255,4 43,8.70101013 43,14.5 Z" id="path2548" fill="#ED8F03" fill-rule="nonzero"></path>
                <path d="M19.3280423,3 L30.0687831,3 L32,0.507042254 C29.8306878,0.183098592 27.5291005,0 25.1481481,0 C22.2910053,0 19.5661376,0.253521127 17,0.718309859 L19.3280423,3 Z" id="path2552" fill="#ED8F03" fill-rule="nonzero"></path>
                <path d="M37,4.76482618 L43.3110599,10 L48,9.16564417 C47.1889401,7.87321063 46.0737327,6.61349693 44.6797235,5.46830266 C43.0069124,4.07770961 41.0299539,2.91615542 38.875576,2 L37,4.76482618 Z" id="path2554" fill="#ED8F03" fill-rule="nonzero"></path>
                <path d="M45.4664602,13.7635379 L43,20.1480144 L46.8367159,22 C47.9080067,20.7978339 48.7301601,19.465704 49.2782624,18.0523466 C49.9260196,16.3628159 50.1253296,14.6570397 49.9260196,13 L45.4664602,13.7635379 Z" id="path2556" fill="#ED8F03" fill-rule="nonzero"></path>
                <path d="M38.0464217,24 L28,26.771831 L28.1083172,30 C30.410058,29.7971831 32.6847195,29.3915493 34.9323017,28.7830986 C37.6131528,28.0394366 39.9690522,27.0591549 42,25.8929577 L38.0464217,24 Z" id="path2558" fill="#ED8F03" fill-rule="nonzero"></path>
                <path d="M20.974359,26.0638298 L11.8205128,23 L8,24.9308511 C9.58974359,25.8723404 11.3846154,26.7180851 13.4358974,27.3882979 C15.8717949,28.2021277 18.4358974,28.7287234 21,29 L20.974359,26.0638298 Z" id="path2560" fill="#ED8F03" fill-rule="nonzero"></path>
                <path d="M7,20.1418312 L5.16967075,13.6786355 L0.136265321,13 C-0.105984138,14.3734291 -0.0252343187,15.7953321 0.37851478,17.2333932 C0.863013699,18.94614 1.80509493,20.545781 3.12400865,22 L7,20.1418312 Z" id="path2562" fill="#ED8F03" fill-rule="nonzero"></path>
                <path d="M6.75221239,9 L14,4.5602537 L11.8495575,2 C9.91150442,2.66596195 8.13274336,3.49471459 6.51327434,4.48625793 C4.57522124,5.67019027 3.08849558,6.97251586 2,8.36363636 L6.75221239,9 Z" id="path2564" fill="#ED8F03" fill-rule="nonzero"></path>
            </g>
            <g id="goldchip" transform="translate(26.500000, 47.000000) rotate(2.000000) translate(-26.500000, -47.000000) translate(1.000000, 32.000000)">
                <path d="M51,15 C51,23.2842713 39.5832612,30 25.5,30 C11.4167404,30 0,23.2842719 0,15 C0,11.0217532 2.68659938,7.20644426 7.46877731,4.39339842 C12.2509552,1.58035258 18.7369804,0 25.5,0 C39.5832623,0 51,6.71572964 51,15 L51,15 Z" id="path2544" fill="#ECE8DA" fill-rule="nonzero"></path>
                <path d="M51,15 C51,23.2842713 39.5832612,30 25.5,30 C11.4167404,30 0,23.2842719 0,15 C0,11.0217532 2.68659938,7.20644426 7.46877731,4.39339842 C12.2509552,1.58035258 18.7369804,0 25.5,0 C39.5832623,0 51,6.71572964 51,15 L51,15 Z" id="path2546" stroke="#ED8F03" stroke-width="1.58749998"></path>
                <path d="M43,14.5 C43,20.2989899 34.9411255,25 25,25 C15.0588745,25 7,20.2989899 7,14.5 C7,8.70101013 15.0588745,4 25,4 C34.9411255,4 43,8.70101013 43,14.5 Z" id="path2548" fill="#ED8F03" fill-rule="nonzero"></path>
                <path d="M19.3280423,3 L30.0687831,3 L32,0.507042254 C29.8306878,0.183098592 27.5291005,0 25.1481481,0 C22.2910053,0 19.5661376,0.253521127 17,0.718309859 L19.3280423,3 Z" id="path2552" fill="#ED8F03" fill-rule="nonzero"></path>
                <path d="M37,4.76482618 L43.3110599,10 L48,9.16564417 C47.1889401,7.87321063 46.0737327,6.61349693 44.6797235,5.46830266 C43.0069124,4.07770961 41.0299539,2.91615542 38.875576,2 L37,4.76482618 Z" id="path2554" fill="#ED8F03" fill-rule="nonzero"></path>
                <path d="M45.4664602,13.7635379 L43,20.1480144 L46.8367159,22 C47.9080067,20.7978339 48.7301601,19.465704 49.2782624,18.0523466 C49.9260196,16.3628159 50.1253296,14.6570397 49.9260196,13 L45.4664602,13.7635379 Z" id="path2556" fill="#ED8F03" fill-rule="nonzero"></path>
                <path d="M38.0464217,24 L28,26.771831 L28.1083172,30 C30.410058,29.7971831 32.6847195,29.3915493 34.9323017,28.7830986 C37.6131528,28.0394366 39.9690522,27.0591549 42,25.8929577 L38.0464217,24 Z" id="path2558" fill="#ED8F03" fill-rule="nonzero"></path>
                <path d="M20.974359,26.0638298 L11.8205128,23 L8,24.9308511 C9.58974359,25.8723404 11.3846154,26.7180851 13.4358974,27.3882979 C15.8717949,28.2021277 18.4358974,28.7287234 21,29 L20.974359,26.0638298 Z" id="path2560" fill="#ED8F03" fill-rule="nonzero"></path>
                <path d="M7,20.1418312 L5.16967075,13.6786355 L0.136265321,13 C-0.105984138,14.3734291 -0.0252343187,15.7953321 0.37851478,17.2333932 C0.863013699,18.94614 1.80509493,20.545781 3.12400865,22 L7,20.1418312 Z" id="path2562" fill="#ED8F03" fill-rule="nonzero"></path>
                <path d="M6.75221239,9 L14,4.5602537 L11.8495575,2 C9.91150442,2.66596195 8.13274336,3.49471459 6.51327434,4.48625793 C4.57522124,5.67019027 3.08849558,6.97251586 2,8.36363636 L6.75221239,9 Z" id="path2564" fill="#ED8F03" fill-rule="nonzero"></path>
            </g>
            <g id="greenchip" transform="translate(1.000000, 22.000000)">
                <path d="M52,15 C52,23.2842713 40.3594036,30 26,30 C11.6405981,30 0,23.2842719 0,15 C0,11.0217532 2.7392778,7.20644426 7.61522392,4.39339842 C12.49117,1.58035258 19.1043722,0 26,0 C40.3594047,0 52,6.71572964 52,15 L52,15 Z" id="path2544" fill="#ECE8DA" fill-rule="nonzero"></path>
                <path d="M52,15 C52,23.2842713 40.3594036,30 26,30 C11.6405981,30 0,23.2842719 0,15 C0,11.0217532 2.7392778,7.20644426 7.61522392,4.39339842 C12.49117,1.58035258 19.1043722,0 26,0 C40.3594047,0 52,6.71572964 52,15 L52,15 Z" id="path2546" stroke="#00BB10" stroke-width="1.58749998"></path>
                <path d="M44,14.5 C44,20.2989899 35.7172679,25 25.5,25 C15.2827321,25 7,20.2989899 7,14.5 C7,8.70101013 15.2827321,4 25.5,4 C35.7172679,4 44,8.70101013 44,14.5 Z" id="path2548" fill="#00BB10" fill-rule="nonzero"></path>
                <path d="M19.3280423,3 L30.0687831,3 L32,0.507042254 C29.8306878,0.183098592 27.5291005,0 25.1481481,0 C22.2910053,0 19.5661376,0.253521127 17,0.718309859 L19.3280423,3 Z" id="path2552" fill="#00BB10" fill-rule="nonzero"></path>
                <path d="M38,4.76482618 L44.3110599,10 L49,9.16564417 C48.1889401,7.87321063 47.0737327,6.61349693 45.6797235,5.46830266 C44.0069124,4.07770961 42.0299539,2.91615542 39.875576,2 L38,4.76482618 Z" id="path2554" fill="#00BB10" fill-rule="nonzero"></path>
                <path d="M46.4664602,13.7635379 L44,20.1480144 L47.8367159,22 C48.9080067,20.7978339 49.7301601,19.465704 50.2782624,18.0523466 C50.9260196,16.3628159 51.1253296,14.6570397 50.9260196,13 L46.4664602,13.7635379 Z" id="path2556" fill="#00BB10" fill-rule="nonzero"></path>
                <path d="M39.0464217,24 L29,26.771831 L29.1083172,30 C31.410058,29.7971831 33.6847195,29.3915493 35.9323017,28.7830986 C38.6131528,28.0394366 40.9690522,27.0591549 43,25.8929577 L39.0464217,24 Z" id="path2558" fill="#00BB10" fill-rule="nonzero"></path>
                <path d="M20.974359,26.0638298 L11.8205128,23 L8,24.9308511 C9.58974359,25.8723404 11.3846154,26.7180851 13.4358974,27.3882979 C15.8717949,28.2021277 18.4358974,28.7287234 21,29 L20.974359,26.0638298 Z" id="path2560" fill="#00BB10" fill-rule="nonzero"></path>
                <path d="M7,20.1418312 L5.16967075,13.6786355 L0.136265321,13 C-0.105984138,14.3734291 -0.0252343189,15.7953321 0.37851478,17.2333932 C0.863013699,18.94614 1.80509493,20.545781 3.12400865,22 L7,20.1418312 Z" id="path2562" fill="#00BB10" fill-rule="nonzero"></path>
                <path d="M6.75221239,9 L14,4.5602537 L11.8495575,2 C9.91150442,2.66596195 8.13274336,3.49471459 6.51327434,4.48625793 C4.57522124,5.67019027 3.08849558,6.97251586 2,8.36363636 L6.75221239,9 Z" id="path2564" fill="#00BB10" fill-rule="nonzero"></path>
            </g>
            <g id="greenchip" transform="translate(1.000000, 13.000000)">
                <path d="M51,15 C51,23.2842713 39.5832612,30 25.5,30 C11.4167404,30 0,23.2842719 0,15 C0,11.0217532 2.68659938,7.20644426 7.46877731,4.39339842 C12.2509552,1.58035258 18.7369804,0 25.5,0 C39.5832623,0 51,6.71572964 51,15 L51,15 Z" id="path2544" fill="#ECE8DA" fill-rule="nonzero"></path>
                <path d="M51,15 C51,23.2842713 39.5832612,30 25.5,30 C11.4167404,30 0,23.2842719 0,15 C0,11.0217532 2.68659938,7.20644426 7.46877731,4.39339842 C12.2509552,1.58035258 18.7369804,0 25.5,0 C39.5832623,0 51,6.71572964 51,15 L51,15 Z" id="path2546" stroke="#00BB10" stroke-width="1.58749998"></path>
                <path d="M43,14.5 C43,20.2989899 34.9411255,25 25,25 C15.0588745,25 7,20.2989899 7,14.5 C7,8.70101013 15.0588745,4 25,4 C34.9411255,4 43,8.70101013 43,14.5 Z" id="path2548" fill="#00BB10" fill-rule="nonzero"></path>
                <path d="M19.3280423,3 L30.0687831,3 L32,0.507042254 C29.8306878,0.183098592 27.5291005,0 25.1481481,0 C22.2910053,0 19.5661376,0.253521127 17,0.718309859 L19.3280423,3 Z" id="path2552" fill="#00BB10" fill-rule="nonzero"></path>
                <path d="M37,4.76482618 L43.3110599,10 L48,9.16564417 C47.1889401,7.87321063 46.0737327,6.61349693 44.6797235,5.46830266 C43.0069124,4.07770961 41.0299539,2.91615542 38.875576,2 L37,4.76482618 Z" id="path2554" fill="#00BB10" fill-rule="nonzero"></path>
                <path d="M45.4664602,13.7635379 L43,20.1480144 L46.8367159,22 C47.9080067,20.7978339 48.7301601,19.465704 49.2782624,18.0523466 C49.9260196,16.3628159 50.1253296,14.6570397 49.9260196,13 L45.4664602,13.7635379 Z" id="path2556" fill="#00BB10" fill-rule="nonzero"></path>
                <path d="M38.0464217,24 L28,26.771831 L28.1083172,30 C30.410058,29.7971831 32.6847195,29.3915493 34.9323017,28.7830986 C37.6131528,28.0394366 39.9690522,27.0591549 42,25.8929577 L38.0464217,24 Z" id="path2558" fill="#00BB10" fill-rule="nonzero"></path>
                <path d="M20.974359,26.0638298 L11.8205128,23 L8,24.9308511 C9.58974359,25.8723404 11.3846154,26.7180851 13.4358974,27.3882979 C15.8717949,28.2021277 18.4358974,28.7287234 21,29 L20.974359,26.0638298 Z" id="path2560" fill="#00BB10" fill-rule="nonzero"></path>
                <path d="M7,20.1418312 L5.16967075,13.6786355 L0.136265321,13 C-0.105984138,14.3734291 -0.0252343187,15.7953321 0.37851478,17.2333932 C0.863013699,18.94614 1.80509493,20.545781 3.12400865,22 L7,20.1418312 Z" id="path2562" fill="#00BB10" fill-rule="nonzero"></path>
                <path d="M6.75221239,9 L14,4.5602537 L11.8495575,2 C9.91150442,2.66596195 8.13274336,3.49471459 6.51327434,4.48625793 C4.57522124,5.67019027 3.08849558,6.97251586 2,8.36363636 L6.75221239,9 Z" id="path2564" fill="#00BB10" fill-rule="nonzero"></path>
            </g>
            <g id="sb-chip-1" transform="translate(55.000000, 15.000000)">
                <path d="M51,17.5 C51,26.6126984 39.5832612,34 25.5,34 C11.4167404,34 0,26.6126991 0,17.5 C0,13.1239285 2.68659938,8.92708869 7.46877731,5.83273826 C12.2509552,2.73838784 18.7369804,1 25.5,1 C39.5832623,1 51,8.38730261 51,17.5 L51,17.5 Z" id="path2544" fill="#ECE8DA" fill-rule="nonzero"></path>
                <path d="M51,17.5 C51,26.6126984 39.5832612,34 25.5,34 C11.4167404,34 0,26.6126991 0,17.5 C0,13.1239285 2.68659938,8.92708869 7.46877731,5.83273826 C12.2509552,2.73838784 18.7369804,1 25.5,1 C39.5832623,1 51,8.38730261 51,17.5 L51,17.5 Z" id="path2546" stroke="#000000" stroke-width="1.58749998"></path>
                <path d="M43,17.5 C43,23.8512746 34.9411255,29 25,29 C15.0588745,29 7,23.8512746 7,17.5 C7,11.1487254 15.0588745,6 25,6 C34.9411255,6 43,11.1487254 43,17.5 Z" id="path2548" fill="#757F9A" fill-rule="nonzero"></path>
                <path d="M19.3280423,4 L30.0687831,4 L32,0.676056338 C29.8306878,0.244131455 27.5291005,0 25.1481481,0 C22.2910053,0 19.5661376,0.338028169 17,0.957746479 L19.3280423,4 Z" id="path2552" fill="#757F9A" fill-rule="nonzero"></path>
                <path d="M37,5.76482618 L43.3110599,11 L48,10.1656442 C47.1889401,8.87321063 46.0737327,7.61349693 44.6797235,6.46830266 C43.0069124,5.07770961 41.0299539,3.91615542 38.875576,3 L37,5.76482618 Z" id="path2554" fill="#757F9A" fill-rule="nonzero"></path>
                <path d="M45.4664602,15.8483755 L43,22.9422383 L46.8367159,25 C47.9080067,23.6642599 48.7301601,22.1841155 49.2782624,20.6137184 C49.9260196,18.7364621 50.1253296,16.8411552 49.9260196,15 L45.4664602,15.8483755 Z" id="path2556" fill="#757F9A" fill-rule="nonzero"></path>
                <path d="M38.0464217,27 L28,29.771831 L28.1083172,33 C30.410058,32.7971831 32.6847195,32.3915493 34.9323017,31.7830986 C37.6131528,31.0394366 39.9690522,30.0591549 42,28.8929577 L38.0464217,27 Z" id="path2558" fill="#757F9A" fill-rule="nonzero"></path>
                <path d="M20.974359,29.5744681 L11.8205128,26 L8,28.2526596 C9.58974359,29.3510638 11.3846154,30.337766 13.4358974,31.1196809 C15.8717949,32.0691489 18.4358974,32.6835106 21,33 L20.974359,29.5744681 Z" id="path2560" fill="#757F9A" fill-rule="nonzero"></path>
                <path d="M7,22.935368 L5.16967075,15.7540395 L0.136265321,15 C-0.105984138,16.5260323 -0.0252343187,18.1059246 0.37851478,19.7037702 C0.863013699,21.6068223 1.80509493,23.3842011 3.12400865,25 L7,22.935368 Z" id="path2562" fill="#757F9A" fill-rule="nonzero"></path>
                <path d="M6.75221239,11 L14,5.92600423 L11.8495575,3 C9.91150442,3.76109937 8.13274336,4.70824524 6.51327434,5.84143763 C4.57522124,7.19450317 3.08849558,8.68287526 2,10.2727273 L6.75221239,11 Z" id="path2564" fill="#757F9A" fill-rule="nonzero"></path>
            </g>
            <g id="sb-chip-1" transform="translate(53.000000, 6.000000)">
                <path d="M51,17.5 C51,26.6126984 39.5832612,34 25.5,34 C11.4167404,34 0,26.6126991 0,17.5 C0,13.1239285 2.68659938,8.92708869 7.46877731,5.83273826 C12.2509552,2.73838784 18.7369804,1 25.5,1 C39.5832623,1 51,8.38730261 51,17.5 L51,17.5 Z" id="path2544" fill="#ECE8DA" fill-rule="nonzero"></path>
                <path d="M51,17.5 C51,26.6126984 39.5832612,34 25.5,34 C11.4167404,34 0,26.6126991 0,17.5 C0,13.1239285 2.68659938,8.92708869 7.46877731,5.83273826 C12.2509552,2.73838784 18.7369804,1 25.5,1 C39.5832623,1 51,8.38730261 51,17.5 L51,17.5 Z" id="path2546" stroke="#000000" stroke-width="1.58749998"></path>
                <path d="M43,17.5 C43,23.8512746 34.9411255,29 25,29 C15.0588745,29 7,23.8512746 7,17.5 C7,11.1487254 15.0588745,6 25,6 C34.9411255,6 43,11.1487254 43,17.5 Z" id="path2548" fill="#757F9A" fill-rule="nonzero"></path>
                <path d="M19.3280423,4 L30.0687831,4 L32,0.676056338 C29.8306878,0.244131455 27.5291005,0 25.1481481,0 C22.2910053,0 19.5661376,0.338028169 17,0.957746479 L19.3280423,4 Z" id="path2552" fill="#757F9A" fill-rule="nonzero"></path>
                <path d="M37,5.76482618 L43.3110599,11 L48,10.1656442 C47.1889401,8.87321063 46.0737327,7.61349693 44.6797235,6.46830266 C43.0069124,5.07770961 41.0299539,3.91615542 38.875576,3 L37,5.76482618 Z" id="path2554" fill="#757F9A" fill-rule="nonzero"></path>
                <path d="M45.4664602,15.8483755 L43,22.9422383 L46.8367159,25 C47.9080067,23.6642599 48.7301601,22.1841155 49.2782624,20.6137184 C49.9260196,18.7364621 50.1253296,16.8411552 49.9260196,15 L45.4664602,15.8483755 Z" id="path2556" fill="#757F9A" fill-rule="nonzero"></path>
                <path d="M38.0464217,27 L28,29.771831 L28.1083172,33 C30.410058,32.7971831 32.6847195,32.3915493 34.9323017,31.7830986 C37.6131528,31.0394366 39.9690522,30.0591549 42,28.8929577 L38.0464217,27 Z" id="path2558" fill="#757F9A" fill-rule="nonzero"></path>
                <path d="M20.974359,29.5744681 L11.8205128,26 L8,28.2526596 C9.58974359,29.3510638 11.3846154,30.337766 13.4358974,31.1196809 C15.8717949,32.0691489 18.4358974,32.6835106 21,33 L20.974359,29.5744681 Z" id="path2560" fill="#757F9A" fill-rule="nonzero"></path>
                <path d="M7,22.935368 L5.16967075,15.7540395 L0.136265321,15 C-0.105984138,16.5260323 -0.0252343187,18.1059246 0.37851478,19.7037702 C0.863013699,21.6068223 1.80509493,23.3842011 3.12400865,25 L7,22.935368 Z" id="path2562" fill="#757F9A" fill-rule="nonzero"></path>
                <path d="M6.75221239,11 L14,5.92600423 L11.8495575,3 C9.91150442,3.76109937 8.13274336,4.70824524 6.51327434,5.84143763 C4.57522124,7.19450317 3.08849558,8.68287526 2,10.2727273 L6.75221239,11 Z" id="path2564" fill="#757F9A" fill-rule="nonzero"></path>
            </g>
        </g>
    </g>
</svg>