<svg width="24" height="24" viewBox="0 0 21 19" fill="none" xmlns="http://www.w3.org/2000/svg">
<path d="M15.4315 5.21064H3.68805C3.51821 5.21064 3.38477 5.07476 3.38477 4.90186C3.38477 4.72894 3.51821 4.59314 3.68805 4.59314H15.4315C15.5893 4.59314 15.7348 4.72894 15.7348 4.90186C15.7348 5.07476 15.5893 5.21064 15.4315 5.21064Z" fill="#242122"/>
<path d="M12.253 8.42118H3.68805C3.51821 8.42118 3.38477 8.28533 3.38477 8.11243C3.38477 7.93951 3.51821 7.80371 3.68805 7.80371H12.253C12.4229 7.80371 12.5563 7.93951 12.5563 8.11243C12.5563 8.28533 12.4229 8.42118 12.253 8.42118Z" fill="#242122"/>
<path d="M2.42636 0.617054C1.41943 0.617054 0.606599 1.45674 0.606599 2.46928V10.5327C0.606599 11.5577 1.41943 12.385 2.42636 12.385H4.19759C4.36743 12.385 4.50087 12.5331 4.50087 12.6937V14.793L6.76949 12.4838C6.83016 12.4222 6.90293 12.3851 6.98787 12.3851H16.6932C17.7002 12.3851 18.513 11.5578 18.513 10.5329V2.46939C18.513 1.45685 17.7002 0.61716 16.6932 0.61716L2.42636 0.617054ZM4.19759 15.8426C4.16121 15.8426 4.11266 15.8425 4.07626 15.8181C3.96708 15.781 3.89428 15.6574 3.89428 15.5342V13.0028H2.42634C1.07972 13.0028 0 11.9038 0 10.5331V2.4696C0 1.1113 1.07972 0 2.42634 0H16.6932C18.0277 0 19.1196 1.1113 19.1196 2.4696V10.5331C19.1196 11.9038 18.0277 13.0028 16.6932 13.0028H7.1092L4.40383 15.7565C4.3553 15.8181 4.27036 15.8429 4.19759 15.8429" fill="#242122"/>
<path d="M18.331 18.9791C18.2461 18.9791 18.1733 18.9545 18.1126 18.8926L16.5113 17.2626H10.7244C9.83881 17.2626 9.12305 16.5217 9.12305 15.6326V13.805C9.12305 13.6321 9.25651 13.4963 9.42635 13.4963C9.59619 13.4963 9.72964 13.6321 9.72964 13.805V15.6326C9.72964 16.1883 10.1785 16.6328 10.7244 16.6328H16.6326C16.7175 16.6328 16.7903 16.6699 16.8509 16.7315L18.0277 17.9293V16.9538C18.0277 16.7809 18.1612 16.6328 18.331 16.6328H19.4107C19.9566 16.6328 20.3934 16.1883 20.3934 15.6326V10.7303C20.3934 10.3104 20.1629 9.95236 19.7868 9.79181C19.6291 9.73022 19.5563 9.54473 19.617 9.38437C19.6898 9.2363 19.8717 9.16204 20.0173 9.22363C20.6118 9.48301 21 10.0634 21 10.7302V15.6325C21 16.5216 20.2842 17.2624 19.4107 17.2624H18.6343V18.6702C18.6343 18.806 18.5615 18.917 18.4523 18.9666C18.4038 18.9807 18.3674 18.9806 18.331 18.9806" fill="#242122"/>
</svg>
