<svg width="81" height="72" viewBox="0 0 81 72" fill="none" xmlns="http://www.w3.org/2000/svg">
<path d="M59.5217 19.7456H14.2254C13.5703 19.7456 13.0556 19.2307 13.0556 18.5755C13.0556 17.9202 13.5703 17.4056 14.2254 17.4056H59.5217C60.1301 17.4056 60.6915 17.9202 60.6915 18.5755C60.6915 19.2307 60.1301 19.7456 59.5217 19.7456Z" fill="#242122"/>
<path d="M47.2618 31.9119H14.2254C13.5703 31.9119 13.0556 31.3971 13.0556 30.7419C13.0556 30.0866 13.5703 29.572 14.2254 29.572H47.2618C47.9169 29.572 48.4316 30.0866 48.4316 30.7419C48.4316 31.3971 47.9169 31.9119 47.2618 31.9119Z" fill="#242122"/>
<path d="M9.35881 2.33831C5.47493 2.33831 2.33974 5.52029 2.33974 9.35728V39.9135C2.33974 43.7975 5.47493 46.9327 9.35881 46.9327H16.1907C16.8458 46.9327 17.3605 47.4937 17.3605 48.1026V56.0576L26.1109 47.3072C26.3449 47.0737 26.6256 46.9331 26.9532 46.9331H64.3882C68.2721 46.9331 71.4073 43.7979 71.4073 39.914V9.35768C71.4073 5.5207 68.2721 2.33871 64.3882 2.33871L9.35881 2.33831ZM16.1907 60.035C16.0504 60.035 15.8631 60.0349 15.7227 59.9421C15.3016 59.8015 15.0208 59.3332 15.0208 58.8663V49.2737H9.35874C4.16464 49.2737 0 45.1092 0 39.915V9.35849C0 4.21125 4.16464 0 9.35874 0H64.3882C69.5355 0 73.747 4.21125 73.747 9.35849V39.915C73.747 45.1092 69.5355 49.2737 64.3882 49.2737H27.4212L16.9862 59.7087C16.799 59.9422 16.4714 60.0364 16.1907 60.0364" fill="#242122"/>
<path d="M70.7054 71.9206C70.3779 71.9206 70.0971 71.8277 69.8631 71.5929L63.6864 65.4161H41.3657C37.9498 65.4161 35.189 62.6085 35.189 59.2393V52.3138C35.189 51.6586 35.7038 51.1438 36.3589 51.1438C37.014 51.1438 37.5287 51.6586 37.5287 52.3138V59.2393C37.5287 61.345 39.26 63.0296 41.3658 63.0296H64.1543C64.4818 63.0296 64.7626 63.1702 64.9966 63.4037L69.5356 67.9426V64.246C69.5356 63.5908 70.0504 63.0296 70.7054 63.0296H74.87C76.9757 63.0296 78.6603 61.345 78.6603 59.2393V40.6622C78.6603 39.0711 77.7712 37.7142 76.3206 37.1058C75.7123 36.8724 75.4315 36.1695 75.6655 35.5618C75.9463 35.0007 76.6481 34.7193 77.2097 34.9527C79.5026 35.9356 81 38.1349 81 40.6618V59.2389C81 62.6081 78.2392 65.4155 74.87 65.4155H71.8752V70.7501C71.8752 71.2648 71.5944 71.6853 71.1733 71.8736C70.9861 71.9267 70.8458 71.9266 70.7053 71.9266" fill="#242122"/>
</svg>
