<svg width="66" height="67" viewBox="0 0 66 67" fill="none" xmlns="http://www.w3.org/2000/svg">
<path d="M22.2717 9.28367C21.5682 9.28367 20.9382 9.87974 20.9382 10.6259V15.4357C20.9382 16.1808 21.5682 16.7779 22.2717 16.7779H42.0894C42.7929 16.7779 43.4229 16.1808 43.4229 15.4357V10.6259C43.4229 9.87974 42.7929 9.28367 42.0894 9.28367H36.3477C36.0138 9.28367 35.7177 9.09767 35.5697 8.79858C35.3849 8.53753 35.3849 8.16449 35.5697 7.86645C35.9403 7.23232 36.1618 6.56146 36.1618 5.85303C36.1618 3.65324 34.3468 1.8636 32.1613 1.8636C29.9758 1.8636 28.2348 3.65324 28.2348 5.85303C28.2348 6.56114 28.4196 7.23264 28.7903 7.86645C28.9751 8.16449 28.9751 8.53753 28.7903 8.79858C28.6422 9.09662 28.3461 9.28367 28.0122 9.28367H22.2717ZM42.0894 18.6422H22.2717C20.5306 18.6422 19.086 17.188 19.086 15.4357V10.6259C19.086 8.87359 20.5306 7.41958 22.2717 7.41958H26.6056C26.4576 6.89748 26.383 6.37546 26.383 5.85368C26.383 2.6099 28.976 0 32.1616 0C35.3843 0 37.9772 2.6099 37.9772 5.85368C37.9772 6.37578 37.9038 6.8978 37.7547 7.41958H42.0886C43.8296 7.41958 45.2742 8.87359 45.2742 10.6259V15.4357C45.2742 17.188 43.8296 18.6422 42.0886 18.6422" fill="#242122"/>
<path d="M10.381 38.925C9.86229 38.925 9.45493 38.515 9.45493 37.9929V14.541C9.45493 13.0123 10.6773 11.7448 12.2331 11.7448H17.7525C18.2712 11.7448 18.6786 12.1548 18.6786 12.6769C18.6786 13.199 18.2712 13.609 17.7525 13.609H12.2331C11.7144 13.609 11.307 14.019 11.307 14.5411V37.9931C11.307 38.5152 10.8996 38.9252 10.3809 38.9252" fill="#242122"/>
<path d="M51.2017 67H12.2331C10.6773 67 9.45493 65.7325 9.45493 64.2038V57.3435C9.45493 56.8584 9.86229 56.4112 10.381 56.4112C10.8997 56.4112 11.3072 56.8584 11.3072 57.3435V64.2038C11.3072 64.7259 11.7145 65.136 12.2332 65.136H51.2018C51.6838 65.136 52.128 64.7259 52.128 64.2038V40.5282C52.128 40.0431 52.5353 39.633 53.054 39.633C53.536 39.633 53.9434 40.0431 53.9434 40.5282V64.2038C53.9434 65.7325 52.721 67 51.2022 67" fill="#242122"/>
<path d="M53.0539 24.7939C52.5352 24.7939 52.1277 24.3469 52.1277 23.8618V14.5407C52.1277 14.0186 51.6836 13.6084 51.2016 13.6084H46.8306C46.3486 13.6084 45.9044 13.1984 45.9044 12.6763C45.9044 12.1542 46.3486 11.7441 46.8306 11.7441H51.2016C52.7204 11.7441 53.9428 13.0117 53.9428 14.5404V23.8616C53.9428 24.3467 53.5354 24.7937 53.0534 24.7937" fill="#242122"/>
<path d="M21.9383 45.1884C21.7157 45.1884 21.4563 45.0765 21.2715 44.9275L19.9749 43.5852C19.6043 43.2121 19.6043 42.616 19.9749 42.2803C20.3088 41.9072 20.9011 41.9072 21.2715 42.2803L21.9383 42.9513L27.0501 37.8061C27.4208 37.433 27.9762 37.433 28.3465 37.8061C28.7172 38.1791 28.7172 38.7382 28.3465 39.111L22.605 44.9275C22.4202 45.0765 22.1609 45.1884 21.9383 45.1884" fill="#242122"/>
<path d="M21.9383 57.0823C21.7157 57.0823 21.4563 57.0083 21.2715 56.8212L17.9006 53.3911C17.53 53.018 17.53 52.4589 17.9006 52.0861C18.2713 51.713 18.8267 51.713 19.1971 52.0861L21.9383 54.8452L27.0501 49.6998C27.4208 49.3267 27.9762 49.3267 28.3465 49.6998C28.7172 50.0729 28.7172 50.6691 28.3465 51.005L22.605 56.8212C22.4202 57.0072 22.1609 57.0823 21.9383 57.0823" fill="#242122"/>
<path d="M45.8306 30.3868H33.051C32.5323 30.3868 32.1248 29.9768 32.1248 29.4547C32.1248 28.9326 32.5323 28.5224 33.051 28.5224H45.8306C46.3125 28.5224 46.7567 28.9326 46.7567 29.4547C46.7567 29.9768 46.3125 30.3868 45.8306 30.3868Z" fill="#242122"/>
<path d="M34.7178 42.2805H33.051C32.5323 42.2805 32.1248 41.8704 32.1248 41.3483C32.1248 40.8632 32.5323 40.4161 33.051 40.4161H34.7178C35.2366 40.4161 35.644 40.8632 35.644 41.3483C35.644 41.8704 35.2366 42.2805 34.7178 42.2805Z" fill="#242122"/>
<path d="M45.8306 54.174H33.051C32.5323 54.174 32.1248 53.7639 32.1248 53.2788C32.1248 52.7567 32.5323 52.3467 33.051 52.3467H45.8306C46.3125 52.3467 46.7567 52.7567 46.7567 53.2788C46.7567 53.7639 46.3125 54.174 45.8306 54.174Z" fill="#242122"/>
<path d="M38.348 44.0327L37.6078 47.724L41.3119 47.0159L59.0924 29.0821L56.1289 26.0993L38.348 44.0327ZM36.4588 49.8492C36.1995 49.8492 35.9769 49.7371 35.7921 49.5511C35.5695 49.3651 35.4959 49.0291 35.5327 48.7311L36.5701 43.3994C36.6121 43.2134 36.6815 43.0644 36.8295 42.9143L55.4989 24.123C55.8328 23.788 56.425 23.788 56.7953 24.123L61.0552 28.4479C61.2401 28.5969 61.3146 28.8581 61.3146 29.0821C61.3146 29.3432 61.2411 29.5672 61.0552 29.7532L42.3859 48.5445C42.2746 48.6565 42.0898 48.7305 41.9417 48.7685L36.6446 49.8127C36.5711 49.8127 36.4966 49.8551 36.4598 49.8551" fill="#242122"/>
<path d="M59.5733 22.6318L62.5367 25.6146L63.7592 24.3841L60.7957 21.4013L59.5733 22.6318ZM62.5367 27.8887C62.2773 27.8887 62.0548 27.7767 61.9067 27.5907L57.6098 23.3031C57.2759 22.93 57.2759 22.3339 57.6098 21.9981L60.1657 19.4254C60.4996 19.0893 61.0918 19.0893 61.4621 19.4254L65.722 23.7505C66.0927 24.0866 66.0927 24.6827 65.722 25.0554L63.2031 27.5907C63.0183 27.7767 62.7957 27.8887 62.5364 27.8887" fill="#242122"/>
<path d="M50.5721 35.6439C50.3495 35.6439 50.09 35.5319 49.9052 35.3459C49.5713 34.9728 49.5713 34.4137 49.9052 34.0409L57.6101 26.2857C57.9807 25.9127 58.573 25.9127 58.9437 26.2857C59.2776 26.6588 59.2776 27.2549 58.9437 27.5907L51.2388 35.3459C51.054 35.5319 50.7947 35.6439 50.5721 35.6439" fill="#242122"/>
<path d="M41.7559 48.8053C41.4966 48.8053 41.274 48.6932 41.0892 48.5442L36.8292 44.2191C36.4586 43.8831 36.4586 43.2871 36.8292 42.9143C37.1999 42.5413 37.7554 42.5413 38.1258 42.9143L42.3857 47.2019C42.7563 47.575 42.7563 48.1711 42.3857 48.5442C42.2376 48.6932 41.9782 48.8053 41.7556 48.8053" fill="#242122"/>
<path d="M3.71338 37.3961C3.30597 37.3961 2.89856 37.508 2.56508 37.7691C1.75026 38.4032 1.6022 39.5588 2.23222 40.379L11.2336 52.1982L24.3465 29.6783C24.8652 28.7831 24.5691 27.6277 23.7165 27.143C22.8271 26.6209 21.6792 26.919 21.1606 27.7771L11.5296 44.3686C11.3815 44.6297 11.0854 44.7788 10.7882 44.8158C10.4543 44.8581 10.196 44.7037 9.97343 44.4427L5.15792 38.1044C4.78727 37.6573 4.2318 37.3962 3.71329 37.3962L3.71338 37.3961ZM11.3441 54.8078C11.048 54.8078 10.7886 54.6588 10.6038 54.4348L0.750579 41.4971C-0.471855 39.8939 -0.175525 37.5449 1.45411 36.3145C3.08405 35.0468 5.38065 35.3824 6.64004 36.9857L10.6037 42.2056L19.5679 26.8444C20.6053 25.092 22.8647 24.4955 24.6427 25.5021C26.3837 26.5463 26.9763 28.8577 25.9762 30.61L12.1223 54.323C11.9743 54.5841 11.7149 54.7701 11.382 54.8081H11.34" fill="#242122"/>
</svg>
