<svg width="27" height="24" viewBox="0 0 27 24" fill="none" xmlns="http://www.w3.org/2000/svg">
<path d="M16.1032 5.68291C15.979 5.68291 15.8815 5.58702 15.8815 5.46497V3.59972C15.8815 3.48631 15.9791 3.38181 16.1032 3.38181C16.2273 3.38181 16.3248 3.48631 16.3248 3.59972V5.46497C16.3248 5.58702 16.2273 5.68291 16.1032 5.68291Z" fill="#242122"/>
<path d="M13.222 8.51566H12.3621C10.6511 8.51566 9.25926 7.14722 9.25926 5.46501V3.59976C9.25926 3.48635 9.35679 3.38181 9.48088 3.38181C9.60499 3.38181 9.7025 3.48635 9.7025 3.59976V5.46501C9.7025 6.91188 10.8904 8.07985 12.362 8.07985H13.222C14.6936 8.07985 15.8815 6.91188 15.8815 5.46501C15.8815 5.34295 15.979 5.2471 16.1031 5.2471C16.2272 5.2471 16.3247 5.34295 16.3247 5.46501C16.3247 7.14722 14.9329 8.51566 13.2219 8.51566" fill="#242122"/>
<path d="M12.3621 0.435813C11.6263 0.435813 11.0323 1.01979 11.0323 1.74322V5.46501C11.0323 6.18843 11.6263 6.77241 12.3621 6.77241H13.222C13.9578 6.77241 14.5517 6.18843 14.5517 5.46501V1.74322C14.5517 1.01979 13.9578 0.435813 13.222 0.435813H12.3621ZM13.222 7.20822H12.3621C11.3869 7.20822 10.589 6.42377 10.589 5.46501V1.74322C10.589 0.775733 11.3869 0 12.3621 0H13.222C14.1971 0 14.995 0.775733 14.995 1.74322V5.46501C14.995 6.42377 14.1971 7.20822 13.222 7.20822Z" fill="#242122"/>
<path d="M12.7965 12.4989C12.6724 12.4989 12.566 12.4031 12.566 12.281V8.29772C12.566 8.17567 12.6724 8.07978 12.7965 8.07978C12.9117 8.07978 13.0181 8.17567 13.0181 8.29772V12.281C13.0181 12.4031 12.9117 12.4989 12.7965 12.4989Z" fill="#242122"/>
<path d="M14.3478 12.4989H11.2362C11.1121 12.4989 11.0146 12.403 11.0146 12.281C11.0146 12.1676 11.1121 12.0631 11.2362 12.0631H14.3478C14.4719 12.0631 14.5695 12.1676 14.5695 12.281C14.5695 12.403 14.4719 12.4989 14.3478 12.4989Z" fill="#242122"/>
<path d="M5.43773 8.17056C4.22935 8.17056 3.25336 9.14395 3.25336 10.3491V12.6358C3.25336 13.8409 4.22935 14.8143 5.43773 14.8143C6.64612 14.8143 7.62212 13.8409 7.62212 12.6358V10.3491C7.62212 9.14395 6.64612 8.17056 5.43773 8.17056ZM5.43773 15.5868C3.81107 15.5868 2.47876 14.2581 2.47876 12.6358V10.3491C2.47876 8.71133 3.81107 7.39803 5.43773 7.39803C7.0644 7.39803 8.39672 8.71133 8.39672 10.3491V12.6358C8.39672 14.2581 7.0644 15.5868 5.43773 15.5868Z" fill="#242122"/>
<path d="M8.59809 22.8022H2.13791C0.960509 22.8022 0 21.8443 0 20.67V18.3061C0 17.8271 0.294356 17.3327 0.883043 16.8692C1.3633 16.4983 1.92101 16.2203 2.55619 16.0504L4.57016 15.4942C4.77155 15.4324 4.98844 15.5559 5.05041 15.7569C5.09687 15.9579 4.98845 16.1739 4.77156 16.2359L2.77308 16.7921C2.23086 16.9467 1.76609 17.1784 1.3633 17.4874C0.991475 17.7808 0.774607 18.0745 0.774607 18.3062V20.6701C0.774607 21.4272 1.3788 22.0298 2.13791 22.0298H8.59809C9.3572 22.0298 9.96139 21.4272 9.96139 20.6701V18.3062C9.96139 18.0745 9.7445 17.7809 9.3727 17.4874C8.96992 17.1786 8.50514 16.9466 7.96292 16.7921L6.02641 16.2512C5.80952 16.1894 5.70109 15.9731 5.74755 15.7722C5.80952 15.5712 6.02641 15.4477 6.22781 15.5095L8.17981 16.0502C8.81499 16.2202 9.3727 16.4983 9.85296 16.8691C10.4417 17.3326 10.736 17.827 10.736 18.306V20.6699C10.736 21.8441 9.77549 22.8021 8.59809 22.8021" fill="#242122"/>
<path d="M4.67862 16.2357C4.46172 16.2357 4.29134 16.0658 4.29134 15.8648V15.2004C4.29134 14.984 4.46172 14.8141 4.67862 14.8141C4.88001 14.8141 5.05044 14.984 5.05044 15.2004V15.8648C5.05044 16.0658 4.88001 16.2357 4.67862 16.2357Z" fill="#242122"/>
<path d="M6.11937 16.2666C5.91798 16.2666 5.73209 16.0814 5.73209 15.8803V15.2006C5.73209 14.9842 5.91798 14.8142 6.11937 14.8142C6.33626 14.8142 6.50664 14.9842 6.50664 15.2006V15.8803C6.50664 16.0814 6.33622 16.2666 6.11937 16.2666Z" fill="#242122"/>
<path d="M5.37574 18.9087C4.32228 18.9087 3.47021 17.8271 3.47021 16.4675C3.47021 16.3287 3.48558 16.1741 3.50139 16.0194C3.53257 15.8184 3.73378 15.6643 3.93518 15.6949C4.15207 15.7256 4.307 15.9266 4.276 16.1276C4.26063 16.2358 4.24482 16.3593 4.24482 16.4675C4.24482 17.379 4.75606 18.1516 5.37574 18.1516C5.97994 18.1516 6.49117 17.379 6.49117 16.4675C6.49117 16.3593 6.49117 16.2358 6.45999 16.1276C6.44462 15.9266 6.58391 15.726 6.80081 15.6949C7.0022 15.6643 7.2036 15.8184 7.2346 16.0194C7.24997 16.174 7.26578 16.3129 7.26578 16.4675C7.26578 17.8271 6.41371 18.9087 5.37574 18.9087" fill="#242122"/>
<path d="M6.38274 10.7663C6.08838 10.7663 5.82502 10.7045 5.57715 10.581C5.26728 10.4422 5.0659 10.2412 4.91098 10.0712C4.75605 9.90124 4.66309 9.82412 4.52366 9.79303C4.18284 9.71595 3.70258 9.99406 3.14486 10.5964C3.00544 10.751 2.75758 10.751 2.60264 10.6139C2.44771 10.4751 2.43225 10.2276 2.58727 10.0732C3.36188 9.22339 4.05902 8.89895 4.69419 9.038C5.08148 9.13085 5.28289 9.34677 5.46879 9.54784C5.60822 9.68667 5.71665 9.81064 5.90259 9.88772C6.21245 10.0266 6.70817 10.1194 7.76163 9.51676C7.94752 9.40858 8.17992 9.47033 8.28837 9.65603C8.39679 9.84129 8.33483 10.0887 8.14894 10.1813C7.48278 10.5676 6.89408 10.7685 6.38284 10.7685" fill="#242122"/>
<path d="M19.0552 8.17056C17.8623 8.17056 16.8863 9.14395 16.8863 10.3491V12.6358C16.8863 13.8409 17.8623 14.8143 19.0552 14.8143C20.2636 14.8143 21.2396 13.8409 21.2396 12.6358V10.3491C21.2396 9.14395 20.2636 8.17056 19.0552 8.17056ZM19.0552 15.5868C17.4286 15.5868 16.1117 14.2581 16.1117 12.6358V10.3491C16.1117 8.71133 17.4286 7.39803 19.0552 7.39803C20.6974 7.39803 22.0142 8.71133 22.0142 10.3491V12.6358C22.0142 14.2581 20.6974 15.5868 19.0552 15.5868Z" fill="#242122"/>
<path d="M22.2311 22.8022H15.7554C14.578 22.8022 13.633 21.8443 13.633 20.67V18.3061C13.633 17.8271 13.9274 17.3327 14.5161 16.8692C14.9963 16.4983 15.554 16.2203 16.1892 16.0504L18.1877 15.4942C18.4046 15.4324 18.606 15.5559 18.6679 15.7569C18.7299 15.9579 18.606 16.1739 18.4046 16.2359L16.3906 16.7921C15.8639 16.9467 15.3836 17.1784 14.9963 17.4874C14.6091 17.7808 14.4076 18.0745 14.4076 18.3062V20.6701C14.4076 21.4272 15.0118 22.0298 15.7554 22.0298H22.2311C22.9747 22.0298 23.5944 21.4272 23.5944 20.6701V18.3062C23.5944 18.0745 23.3775 17.7809 22.9902 17.4874C22.603 17.1786 22.1382 16.9466 21.596 16.7921L19.644 16.2513C19.4426 16.1896 19.3186 15.9732 19.3806 15.7724C19.4426 15.5713 19.644 15.4478 19.8609 15.5096L21.7974 16.0504C22.4325 16.2203 23.0057 16.4984 23.4705 16.8692C24.0592 17.3327 24.369 17.8271 24.369 18.3061V20.67C24.369 21.8443 23.4085 22.8022 22.2311 22.8022" fill="#242122"/>
<path d="M18.2961 16.2357C18.0792 16.2357 17.9088 16.0658 17.9088 15.8648V15.2004C17.9088 14.984 18.0793 14.8141 18.2961 14.8141C18.513 14.8141 18.6834 14.984 18.6834 15.2004V15.8648C18.6834 16.0658 18.513 16.2357 18.2961 16.2357Z" fill="#242122"/>
<path d="M19.7524 16.2666C19.5355 16.2666 19.3651 16.0814 19.3651 15.8803V15.2006C19.3651 14.9842 19.5355 14.8142 19.7524 14.8142C19.9693 14.8142 20.1397 14.9842 20.1397 15.2006V15.8803C20.1397 16.0814 19.9692 16.2666 19.7524 16.2666Z" fill="#242122"/>
<path d="M20.0003 10.7663C19.7214 10.7663 19.458 10.7045 19.2102 10.581C18.8848 10.4422 18.6989 10.2412 18.544 10.0712C18.3736 9.90124 18.2961 9.82412 18.1567 9.79303C17.8159 9.71595 17.3356 9.99406 16.7779 10.5964C16.6385 10.751 16.3906 10.751 16.2357 10.6139C16.0653 10.4751 16.0653 10.2276 16.2045 10.0732C16.9946 9.22339 17.6763 8.89895 18.3269 9.038C18.6988 9.13085 18.9156 9.34677 19.1015 9.54784C19.2255 9.68667 19.3494 9.81064 19.5198 9.88772C19.8451 10.0266 20.3409 10.1194 21.3944 9.51676C21.5803 9.40858 21.8126 9.47033 21.9211 9.65603C22.0296 9.84129 21.9676 10.0887 21.7817 10.1813C21.1 10.5676 20.5268 10.7685 20.0001 10.7685" fill="#242122"/>
<path d="M4.97958 2.27617C28.2177 23.5895 26.3808 23.423 26.3808 23.423" stroke="#242122" stroke-width="1.5"/>
</svg>
