<svg width="18" height="17" viewBox="0 0 18 17" fill="none" xmlns="http://www.w3.org/2000/svg">
<g clip-path="url(#clip0)">
<path d="M11.8944 4.23684C11.8028 4.23684 11.7307 4.16535 11.7307 4.07435V2.68373C11.7307 2.59918 11.8028 2.52127 11.8944 2.52127C11.9861 2.52127 12.0581 2.59918 12.0581 2.68373V4.07435C12.0581 4.16535 11.9861 4.23684 11.8944 4.23684Z" fill="#242122"/>
<path d="M9.76628 6.34877H9.13111C7.86731 6.34877 6.83925 5.32854 6.83925 4.07438V2.68376C6.83925 2.59921 6.91129 2.52127 7.00294 2.52127C7.09462 2.52127 7.16664 2.59921 7.16664 2.68376V4.07438C7.16664 5.15308 8.04409 6.02385 9.13109 6.02385H9.76626C10.8533 6.02385 11.7307 5.15308 11.7307 4.07438C11.7307 3.98338 11.8028 3.91192 11.8944 3.91192C11.9861 3.91192 12.0581 3.98338 12.0581 4.07438C12.0581 5.32854 11.03 6.34877 9.76625 6.34877" fill="#242122"/>
<path d="M9.13107 0.324917C8.58758 0.324917 8.14885 0.760296 8.14885 1.29964V4.07439C8.14885 4.61373 8.58758 5.04911 9.13107 5.04911H9.76625C10.3097 5.04911 10.7485 4.61373 10.7485 4.07439V1.29964C10.7485 0.760296 10.3097 0.324917 9.76625 0.324917H9.13107ZM9.76625 5.37403H9.13107C8.41078 5.37403 7.82144 4.78919 7.82144 4.07439V1.29964C7.82144 0.578341 8.41078 0 9.13107 0H9.76625C10.4865 0 11.0759 0.578341 11.0759 1.29964V4.07439C11.0759 4.78919 10.4865 5.37403 9.76625 5.37403Z" fill="#242122"/>
<path d="M9.45199 9.31848C9.36031 9.31848 9.28174 9.24702 9.28174 9.15602V6.18632C9.28174 6.09532 9.36031 6.02383 9.45199 6.02383C9.53711 6.02383 9.61568 6.09532 9.61568 6.18632V9.15602C9.61568 9.24702 9.53711 9.31848 9.45199 9.31848Z" fill="#242122"/>
<path d="M10.5979 9.31843H8.29951C8.20783 9.31843 8.13582 9.24697 8.13582 9.15597C8.13582 9.07142 8.20785 8.99352 8.29951 8.99352H10.5979C10.6896 8.99352 10.7616 9.07142 10.7616 9.15597C10.7616 9.24697 10.6896 9.31843 10.5979 9.31843Z" fill="#242122"/>
<path d="M4.01655 6.09155C3.12399 6.09155 2.40307 6.81725 2.40307 7.71574V9.42054C2.40307 10.319 3.12399 11.0447 4.01655 11.0447C4.90911 11.0447 5.63003 10.319 5.63003 9.42054V7.71574C5.63003 6.81725 4.90911 6.09155 4.01655 6.09155ZM4.01655 11.6206C2.81502 11.6206 1.83092 10.63 1.83092 9.42054V7.71574C1.83092 6.49471 2.81502 5.51559 4.01655 5.51559C5.21808 5.51559 6.20218 6.49471 6.20218 7.71574V9.42054C6.20218 10.63 5.21808 11.6206 4.01655 11.6206Z" fill="#242122"/>
<path d="M6.35092 17H1.57915C0.709472 17 0 16.2859 0 15.4104V13.648C0 13.2909 0.217419 12.9223 0.652256 12.5767C1.00699 12.3001 1.41894 12.0929 1.88811 11.9662L3.37571 11.5515C3.52447 11.5055 3.68468 11.5976 3.73045 11.7474C3.76478 11.8973 3.68468 12.0583 3.52448 12.1045L2.04831 12.5192C1.64781 12.6345 1.30451 12.8072 1.00699 13.0376C0.732357 13.2563 0.572155 13.4753 0.572155 13.6481V15.4105C0.572155 15.9749 1.01844 16.4242 1.57915 16.4242H6.35092C6.91163 16.4242 7.35791 15.9749 7.35791 15.4105V13.6481C7.35791 13.4753 7.19771 13.2564 6.92308 13.0376C6.62556 12.8074 6.28226 12.6344 5.88175 12.5192L4.45137 12.116C4.29116 12.0699 4.21106 11.9086 4.24539 11.7589C4.29116 11.609 4.45137 11.5169 4.60013 11.5629L6.04196 11.9661C6.51113 12.0928 6.92308 12.3001 7.27781 12.5766C7.71265 12.9222 7.93007 13.2908 7.93007 13.6479V15.4103C7.93007 16.2858 7.2206 16.9999 6.35092 16.9999" fill="#242122"/>
<path d="M3.45583 12.1044C3.29563 12.1044 3.16975 11.9777 3.16975 11.8278V11.3326C3.16975 11.1713 3.29563 11.0445 3.45583 11.0445C3.60459 11.0445 3.73046 11.1713 3.73046 11.3326V11.8278C3.73046 11.9777 3.60459 12.1044 3.45583 12.1044Z" fill="#242122"/>
<path d="M4.52 12.1275C4.37124 12.1275 4.23392 11.9894 4.23392 11.8395V11.3327C4.23392 11.1714 4.37123 11.0447 4.52 11.0447C4.6802 11.0447 4.80607 11.1714 4.80607 11.3327V11.8395C4.80607 11.9894 4.6802 12.1275 4.52 12.1275Z" fill="#242122"/>
<path d="M3.97075 14.0973C3.19262 14.0973 2.56325 13.2909 2.56325 12.2772C2.56325 12.1737 2.5747 12.0584 2.58615 11.9432C2.60905 11.7933 2.7578 11.6784 2.90656 11.7012C3.06676 11.7241 3.18119 11.8739 3.1583 12.0238C3.14685 12.1045 3.1354 12.1966 3.1354 12.2772C3.1354 12.9568 3.51302 13.5328 3.97075 13.5328C4.41703 13.5328 4.79465 12.9568 4.79465 12.2772C4.79465 12.1966 4.79465 12.1045 4.77175 12.0238C4.7603 11.8739 4.8633 11.7244 5.0235 11.7012C5.17226 11.6784 5.32102 11.7933 5.34391 11.9432C5.35536 12.0584 5.36681 12.1619 5.36681 12.2772C5.36681 13.2909 4.73744 14.0973 3.97075 14.0973" fill="#242122"/>
<path d="M4.7146 8.02674C4.49718 8.02674 4.30264 7.98071 4.11955 7.88863C3.89069 7.78512 3.74193 7.63524 3.6275 7.50848C3.51307 7.38179 3.44441 7.32435 3.34142 7.30117C3.08967 7.2437 2.73494 7.45099 2.32299 7.90009C2.22 8.01535 2.03691 8.0154 1.92248 7.91319C1.80805 7.80969 1.79661 7.62519 1.91103 7.51002C2.48318 6.87647 2.99812 6.63459 3.46729 6.73826C3.75337 6.80748 3.90213 6.96846 4.03945 7.11836C4.14243 7.22187 4.22253 7.31425 4.35985 7.37171C4.58872 7.47522 4.95489 7.54449 5.73303 7.0952C5.87034 7.01454 6.04199 7.06058 6.12209 7.19903C6.20219 7.33715 6.15642 7.52161 6.0191 7.59064C5.52705 7.87863 5.09221 8.02839 4.71459 8.02839" fill="#242122"/>
<path d="M14.075 6.09155C13.1939 6.09155 12.473 6.81725 12.473 7.71574V9.42054C12.473 10.319 13.1939 11.0447 14.075 11.0447C14.9676 11.0447 15.6885 10.319 15.6885 9.42054V7.71574C15.6885 6.81725 14.9676 6.09155 14.075 6.09155ZM14.075 11.6206C12.8735 11.6206 11.9008 10.63 11.9008 9.42054V7.71574C11.9008 6.49471 12.8735 5.51559 14.075 5.51559C15.288 5.51559 16.2606 6.49471 16.2606 7.71574V9.42054C16.2606 10.63 15.288 11.6206 14.075 11.6206Z" fill="#242122"/>
<path d="M16.4208 17H11.6376C10.7679 17 10.0699 16.2859 10.0699 15.4104V13.648C10.0699 13.2909 10.2873 12.9223 10.7222 12.5767C11.0769 12.3001 11.4888 12.0929 11.958 11.9662L13.4342 11.5515C13.5944 11.5055 13.7431 11.5976 13.7889 11.7474C13.8347 11.8973 13.7431 12.0583 13.5944 12.1045L12.1068 12.5192C11.7177 12.6345 11.363 12.8072 11.0769 13.0376C10.7908 13.2563 10.6421 13.4753 10.6421 13.6481V15.4105C10.6421 15.9749 11.0883 16.4242 11.6376 16.4242H16.4208C16.9701 16.4242 17.4278 15.9749 17.4278 15.4105V13.6481C17.4278 13.4753 17.2676 13.2564 16.9815 13.0376C16.6955 12.8074 16.3522 12.6344 15.9517 12.5192L14.5098 12.1161C14.3611 12.07 14.2695 11.9087 14.3153 11.759C14.3611 11.6091 14.5098 11.517 14.67 11.563L16.1004 11.9662C16.5696 12.0929 16.993 12.3002 17.3363 12.5767C17.7711 12.9223 18 13.2909 18 13.648V15.4104C18 16.2859 17.2905 17 16.4208 17" fill="#242122"/>
<path d="M13.5143 12.1044C13.3541 12.1044 13.2283 11.9777 13.2283 11.8278V11.3326C13.2283 11.1713 13.3541 11.0445 13.5143 11.0445C13.6745 11.0445 13.8004 11.1713 13.8004 11.3326V11.8278C13.8004 11.9777 13.6745 12.1044 13.5143 12.1044Z" fill="#242122"/>
<path d="M14.59 12.1275C14.4298 12.1275 14.3039 11.9894 14.3039 11.8395V11.3327C14.3039 11.1714 14.4298 11.0447 14.59 11.0447C14.7502 11.0447 14.876 11.1714 14.876 11.3327V11.8395C14.876 11.9894 14.7502 12.1275 14.59 12.1275Z" fill="#242122"/>
<path d="M14.0292 14.0973C13.2625 14.0973 12.6331 13.2909 12.6331 12.2772C12.6331 12.162 12.6331 12.0584 12.656 11.9432C12.6789 11.7933 12.8163 11.6784 12.9765 11.7012C13.1367 11.7241 13.2396 11.8739 13.2168 12.0238C13.2053 12.1045 13.2053 12.1966 13.2053 12.2772C13.2053 12.9568 13.5829 13.5328 14.0292 13.5328C14.4755 13.5328 14.8646 12.9568 14.8646 12.2772C14.8646 12.1966 14.8531 12.1045 14.8417 12.0238C14.8188 11.8739 14.9218 11.7244 15.082 11.7012C15.2422 11.6784 15.3795 11.7933 15.4024 11.9432C15.4253 12.0584 15.4367 12.1619 15.4367 12.2772C15.4367 13.2909 14.8073 14.0973 14.0292 14.0973" fill="#242122"/>
<path d="M14.773 8.02674C14.5671 8.02674 14.3725 7.98071 14.1894 7.88863C13.9491 7.78512 13.8118 7.63524 13.6974 7.50848C13.5715 7.38179 13.5143 7.32435 13.4113 7.30117C13.1596 7.2437 12.8048 7.45099 12.3929 7.90009C12.2899 8.01535 12.1068 8.0154 11.9924 7.91319C11.8665 7.80969 11.8665 7.62519 11.9695 7.51002C12.5531 6.87647 13.0566 6.63459 13.5372 6.73826C13.8118 6.80748 13.972 6.96846 14.1093 7.11836C14.2009 7.22187 14.2924 7.31425 14.4183 7.37171C14.6586 7.47522 15.0248 7.54449 15.8029 7.0952C15.9402 7.01454 16.1119 7.06058 16.192 7.19903C16.2721 7.33715 16.2263 7.52161 16.089 7.59064C15.5855 7.87863 15.1621 8.02839 14.773 8.02839" fill="#242122"/>
</g>
<defs>
<clipPath id="clip0">
<rect width="18" height="17" fill="white"/>
</clipPath>
</defs>
</svg>
