<svg width="130" height="185" viewBox="0 0 130 185" fill="none" xmlns="http://www.w3.org/2000/svg">
<g clip-path="url(#clip0_209:10)">
<path d="M38.6 6.5L120.5 22.9C125.1 23.8 128 28.3 127.1 32.8L102.2 157.6C101.3 162.2 96.8 165.1 92.3 164.2L51.3 156L10.3 147.8C5.7 146.9 2.8 142.4 3.7 137.9L28.6 13.1C29.5 8.5 34 5.5 38.6 6.5Z" stroke="#010101" stroke-width="5.9676"/>
<path d="M77.7 142.6C77.7 163.8 60.4 181.2 39.2 181.2C30 181.2 21.6 178 15 172.7C13.3 171.3 13.1 168.7 14.7 167.2L16.5 165.4C17.8 164.1 20 163.9 21.5 165.1C26.4 169 32.6 171.3 39.3 171.3C55.1 171.3 67.9 158.5 67.9 142.7C67.9 126.9 55.1 114.1 39.3 114.1C31.7 114.1 24.8 117 19.7 121.9L27.6 129.8C29.2 131.4 28.1 134 25.8 134H3.1C1.7 134 0.599998 132.9 0.599998 131.5V108.9C0.599998 106.7 3.3 105.6 4.8 107.1L12.5 114.8C19.4 108.2 28.8 104.1 39.1 104.1C60.4 104.2 77.6 121.4 77.7 142.6ZM49.6 154.9L51.1 152.9C52.4 151.3 52.1 148.9 50.4 147.7L44.1 142.8V126.6C44.1 124.5 42.4 122.9 40.4 122.9H37.9C35.8 122.9 34.2 124.6 34.2 126.6V147.7L44.4 155.6C46 156.8 48.3 156.5 49.6 154.9Z" fill="#010101"/>
<path fill-rule="evenodd" clip-rule="evenodd" d="M55.8 70.8C38.9 84.4 52.3 97.3 65.1 91.4C61.9 99.1 60.6 99.6 59 101.6L71.8 103.2C70.4 100.9 68.8 100.1 68 91.9C79.3 100.3 93.6 89.7 81.8 74.1C73.9 65.3 71.3 57.9 70.7 56.8C69.9 57.4 64.8 64.2 55.8 70.8Z" fill="#010101" stroke="#010101" stroke-width="0.2264"/>
</g>
<defs>
<clipPath id="clip0_209:10">
<rect width="130" height="185" fill="white"/>
</clipPath>
</defs>
</svg>
