<svg width="130" height="185" viewBox="0 0 130 185" fill="none" xmlns="http://www.w3.org/2000/svg">
<g clip-path="url(#clip0_209:2)">
<path d="M38 10L120.4 27.1C125 28.1 128 32.7 127.1 37.5L102 167.5C101.1 172.3 96.6 175.4 92 174.4L9.60001 157.4C5.00001 156.4 2.00001 151.8 2.90001 147L28 16.9C28.9 12.1 33.4 9 38 10Z" stroke="#010101" stroke-width="6.1083"/>
<path d="M33.6 144.9C33.7 144.9 33.9 145 34 145L44.4 149.3L43.8 137.6C43.8 137.3 43.9 137 44.1 136.7L51.1 127.6L40.3 124.6C40 124.5 39.7 124.3 39.6 124.1L33.5 114.2L27.5 124.1C27.3 124.4 27.1 124.6 26.8 124.6L16 127.6L23.1 136.7C23.3 137 23.4 137.3 23.4 137.6L22.8 149.3L33.2 145C33.3 145 33.4 144.9 33.6 144.9ZM45.8 152.5C45.7 152.5 45.5 152.5 45.4 152.4L33.6 147.6L21.9 152.4C21.5 152.6 21.1 152.5 20.7 152.2C20.4 151.9 20.2 151.5 20.2 151.1L20.9 137.9L12.9 127.7C12.6 127.4 12.6 126.9 12.7 126.5C12.8 126.1 13.2 125.8 13.6 125.6L25.8 122.3L32.6 111.2C33.1 110.4 34.2 110.4 34.7 111.2L41.5 122.3L53.7 125.6C54.1 125.8 54.4 126.1 54.5 126.5C54.6 126.9 54.6 127.4 54.3 127.7L46.3 137.9L47 151.1C47.1 151.5 46.9 151.9 46.5 152.2C46.3 152.4 46 152.5 45.8 152.5Z" fill="#010101"/>
<path fill-rule="evenodd" clip-rule="evenodd" d="M52.5 72.3C35.6 86.3 49 99.7 61.8 93.6C58.6 101.6 57.3 102.1 55.7 104.1L68.5 105.7C67.1 103.3 65.5 102.4 64.7 94C76 102.7 90.3 91.7 78.5 75.5C70.5 66.4 68 58.7 67.4 57.6C66.6 58.4 61.5 65.5 52.5 72.3Z" fill="#010101" stroke="#010101" stroke-width="0.2305"/>
</g>
<defs>
<clipPath id="clip0_209:2">
<rect width="130" height="185" fill="white"/>
</clipPath>
</defs>
</svg>
