<svg width="42" height="39" viewBox="0 0 42 39" fill="none" xmlns="http://www.w3.org/2000/svg">
<path d="M18.4876 15.0274L17.1821 13.3469C16.9321 13.0274 16.4876 12.9857 16.1821 13.2219L14.2931 14.6802C13.7098 15.1246 13.4875 15.8747 13.7098 16.5691C14.1681 18.0136 14.9598 19.8747 16.3487 21.7776C18.0016 24.0277 19.8627 25.4722 21.2793 26.3611C21.8905 26.75 22.6822 26.7083 23.2516 26.2639L25.1405 24.8055C25.4599 24.5555 25.5016 24.1111 25.2655 23.8055L23.9321 22.0972C23.6821 21.7777 23.2377 21.736 22.9321 21.9722L21.6682 22.9444C20.8626 22.4166 19.696 21.4999 18.6543 20.0554C17.8348 18.9165 17.3626 17.8193 17.0849 17.0137L18.3488 16.0415C18.6821 15.7915 18.7238 15.347 18.4877 15.0276L18.4876 15.0274Z" fill="black"/>
<path d="M25.6675 18.9577C25.4452 18.9577 25.2647 18.7771 25.2647 18.5549C25.2647 18.0132 25.1536 16.9576 24.4174 15.9438C23.6813 14.9437 22.6952 14.5131 22.0007 14.3326C21.7785 14.277 21.6535 14.0548 21.7091 13.8325C21.7646 13.6103 21.9868 13.4853 22.2091 13.5409C23.3619 13.8464 24.3757 14.527 25.0702 15.4576C25.9452 16.6521 26.0841 17.9021 26.0841 18.541C26.0702 18.7771 25.8897 18.9576 25.6675 18.9576V18.9577Z" fill="black"/>
<path d="M28.1958 18.9577C27.9596 18.9577 27.793 18.7632 27.793 18.541C27.8069 17.8604 27.6957 16.1103 26.4458 14.4298C25.1819 12.7353 23.5152 12.1103 22.6263 11.8742C22.404 11.8186 22.279 11.5964 22.3346 11.3742C22.3901 11.1519 22.6124 11.0269 22.8346 11.0825C23.8207 11.3325 25.6819 12.0409 27.0986 13.9298C28.5014 15.8187 28.6263 17.791 28.6125 18.5409C28.5986 18.7771 28.418 18.9576 28.1958 18.9576L28.1958 18.9577Z" fill="black"/>
<path d="M23.0287 18.7494C22.8065 18.7494 22.6259 18.5688 22.6259 18.3466C22.6259 18.2077 22.5981 17.8327 22.3342 17.4855C22.1953 17.3049 21.9453 17.0549 21.5286 16.9438C21.3064 16.8883 21.1814 16.666 21.237 16.4438C21.2925 16.2216 21.5147 16.0966 21.737 16.1521C22.3759 16.3188 22.7648 16.7077 22.987 16.9855C23.3759 17.5133 23.4315 18.055 23.4315 18.3327C23.4315 18.5688 23.2509 18.7494 23.0287 18.7494L23.0287 18.7494Z" fill="black"/>
<path d="M23.3766 30.5833C23.3766 31.9409 22.2759 33.0416 20.9183 33.0416C19.5607 33.0416 18.46 31.9409 18.46 30.5833C18.46 29.2257 19.5607 28.125 20.9183 28.125C22.2759 28.125 23.3766 29.2257 23.3766 30.5833Z" fill="black"/>
<path d="M25.9735 39H15.6954V37.4166C15.6954 35.3333 17.3899 33.6387 19.4733 33.6387H22.1956C24.279 33.6387 25.9735 35.3333 25.9735 37.4166V39Z" fill="black"/>
<path d="M7.68108 3.74972C7.68108 5.10733 6.58036 6.20805 5.22274 6.20805C3.86513 6.20805 2.7644 5.10733 2.7644 3.74972C2.7644 2.3921 3.86513 1.29138 5.22274 1.29138C6.58036 1.29138 7.68108 2.3921 7.68108 3.74972Z" fill="black"/>
<path d="M10.2919 12.1664H0V10.583C0 8.49966 1.69451 6.80515 3.77786 6.80515H6.5002C8.58355 6.80515 10.2781 8.49966 10.2781 10.583L10.2919 12.1664Z" fill="black"/>
<path d="M39.057 4.45831C39.057 5.81592 37.9562 6.91664 36.5986 6.91664C35.241 6.91664 34.1403 5.81592 34.1403 4.45831C34.1403 3.10069 35.241 1.99997 36.5986 1.99997C37.9562 1.99997 39.057 3.10069 39.057 4.45831Z" fill="black"/>
<path d="M41.6678 12.875H31.3759V11.2916C31.3759 9.20825 33.0704 7.51373 35.1537 7.51373H37.8761C39.9594 7.51373 41.6539 9.20825 41.6539 11.2916L41.6678 12.875Z" fill="black"/>
<path d="M14.2654 36.9174C10.6681 35.5702 7.58471 33.1952 5.34847 30.0422C3.07058 26.8199 1.8623 23.0143 1.8623 19.0558C1.8623 17.1391 2.15398 15.2363 2.70955 13.4029L3.68178 13.6946C3.14011 15.4307 2.87621 17.2363 2.87621 19.0558C2.87621 26.5559 7.59859 33.3621 14.6126 35.973L14.2654 36.9174Z" fill="black"/>
<path d="M27.3488 36.986L27.0015 36.0276C34.1544 33.472 38.9462 26.6385 38.9462 19.0406C38.9462 17.3739 38.7239 15.721 38.2656 14.1238L39.2378 13.846C39.7101 15.5266 39.9601 17.2767 39.9601 19.0405C39.9601 27.0824 34.8905 34.2904 27.3487 36.985L27.3488 36.986Z" fill="black"/>
<path d="M9.70903 4.91673L9.08401 4.12504C12.473 1.43051 16.5703 0 20.9177 0C25.0705 0 29.0289 1.31952 32.3345 3.7917L31.7234 4.59728C28.5844 2.25005 24.8482 0.999997 20.9176 0.999997C16.7926 1.01389 12.9313 2.36117 9.70898 4.91678L9.70903 4.91673Z" fill="black"/>
</svg>
