<svg width="130" height="185" viewBox="0 0 130 185" fill="none" xmlns="http://www.w3.org/2000/svg">
<g clip-path="url(#clip0_209:6)">
<path d="M38 4.6L120.4 21C125 21.9 128 26.4 127.1 31L102 156.5C101.1 161.1 96.6 164.1 92 163.2L9.6 146.8C5 145.9 2 141.4 2.9 136.8L28 11.2C28.9 6.6 33.4 3.6 38 4.6Z" stroke="#010101" stroke-width="6"/>
<path d="M37.4 125.5V111.9C37.4 110.4 36.2 109.2 34.7 109.2C33.9 109.2 33.2 109.5 32.7 110.1L8.2 137.2C7.3 138.2 7.3 139.7 8.1 140.7L32.5 170.6C33.4 171.8 35.2 171.9 36.3 171C36.9 170.5 37.3 169.7 37.3 168.9V155.4C58.7 156.1 72.1 165.3 78.2 183.4C78.6 184.5 79.6 185.3 80.8 185.3C80.9 185.3 81.1 185.3 81.2 185.3C82.5 185.1 83.5 184 83.5 182.6C83.5 150.5 64.3 127 37.4 125.5Z" fill="#010101"/>
<path fill-rule="evenodd" clip-rule="evenodd" d="M50.5 75.7C33.6 89.3 47 102.2 59.8 96.3C56.6 104 55.3 104.5 53.7 106.5L66.5 108.1C65.1 105.8 63.5 105 62.7 96.8C74 105.2 88.3 94.6 76.5 79C68.5 70 66 62.6 65.4 61.5C64.6 62.2 59.5 69.1 50.5 75.7Z" fill="#010101" stroke="#010101" stroke-width="0.2264"/>
</g>
<defs>
<clipPath id="clip0_209:6">
<rect width="130" height="185" fill="white"/>
</clipPath>
</defs>
</svg>
