<svg width="63" height="100" viewBox="0 0 63 100" fill="none" xmlns="http://www.w3.org/2000/svg">
<path d="M51.1761 22C51.1761 10.9543 42.2218 2 31.1761 2C20.1304 2 11.1761 10.9543 11.1761 22V52C11.1761 63.0457 20.1304 72 31.1761 72C42.2218 72 51.1761 63.0457 51.1761 52V22Z" stroke="#222F3E" stroke-width="4" stroke-linecap="round" stroke-linejoin="round"/>
<path d="M60.3521 58C57.195 71.1889 45.3328 80.9927 31.176 80.9927C17.0221 80.9927 5.15758 71.1901 2 58" stroke="#222F3E" stroke-width="4" stroke-linecap="round" stroke-linejoin="round"/>
<path d="M31.1761 80.9688V97" stroke="#222F3E" stroke-width="4" stroke-linecap="round" stroke-linejoin="round"/>
<path d="M11.1761 98H51.1761" stroke="#222F3E" stroke-width="4" stroke-linecap="round" stroke-linejoin="round"/>
<path d="M53 42C53 58.5685 43.3741 72 31.5 72C19.6259 72 10 58.5685 10 42C10 42 19.6259 42 31.5 42C43.3741 42 53 42 53 42Z" fill="#222F3E"/>
</svg>
