<svg width="41" height="41" viewBox="0 0 41 41" fill="none" xmlns="http://www.w3.org/2000/svg">
<path d="M40.4289 39.4476H2.13512C1.81536 39.4476 1.56424 39.1966 1.56424 38.8769V0.57072C1.56424 0.273699 1.81536 0 2.13512 0C2.43222 0 2.68337 0.273699 2.68337 0.57072V38.3061H40.4291C40.7488 38.3061 41 38.5573 41 38.8769C41 39.1966 40.7488 39.4476 40.4291 39.4476" fill="#242122"/>
<path d="M3.6879 2.69384C3.52802 2.69384 3.3908 2.64852 3.27688 2.53398L2.13512 1.39254L0.970556 2.53398C0.742065 2.76241 0.399626 2.76241 0.17133 2.53398C-0.0571608 2.30555 -0.0571608 1.94063 0.17133 1.73497L1.7241 0.182674C1.92994 -0.0457546 2.31769 -0.0457546 2.52333 0.182674L4.0761 1.73497C4.30459 1.94011 4.30459 2.30568 4.0761 2.53398C3.96218 2.64787 3.82492 2.69384 3.6877 2.69384" fill="#242122"/>
<path d="M38.8762 41C38.739 41 38.5791 40.9314 38.4652 40.8175C38.26 40.6117 38.26 40.2468 38.4652 40.0186L39.6297 38.8771L38.4652 37.7128C38.26 37.5077 38.26 37.1421 38.4652 36.9139C38.6936 36.6854 39.0587 36.6854 39.2872 36.9139L40.8399 38.4662C41.0458 38.6946 41.0458 39.0596 40.8399 39.2652L39.2872 40.8175C39.1733 40.9314 39.0134 41 38.8762 41" fill="#242122"/>
<path d="M8.04936 23.5819C7.50111 23.5819 7.0446 24.0387 7.0446 24.5863C7.0446 25.1344 7.50157 25.5908 8.04936 25.5908C8.46038 25.5908 8.82571 25.3397 8.98553 24.9514C9.03084 24.8376 9.05412 24.7004 9.05412 24.5865C9.05412 24.0384 8.59714 23.582 8.04941 23.582L8.04936 23.5819ZM8.04936 26.7322C6.86192 26.7322 5.90285 25.7734 5.90285 24.5863C5.90285 23.3993 6.86192 22.4405 8.04936 22.4405C9.23674 22.4405 10.1958 23.3993 10.1958 24.5863C10.1958 24.86 10.1505 25.1111 10.0586 25.3397C9.73883 26.1843 8.93969 26.7322 8.04916 26.7322" fill="#242122"/>
<path d="M14.8313 27.7367C14.7626 27.7367 14.694 27.7366 14.6254 27.6913L9.30487 25.6825C9.00777 25.5686 8.87119 25.2488 8.98511 24.9519C9.09904 24.6549 9.41881 24.4958 9.71585 24.6096L15.0363 26.6413C15.3335 26.7552 15.47 27.0749 15.3561 27.3718C15.2648 27.6002 15.059 27.7368 14.8312 27.7368" fill="#242122"/>
<path d="M16.2926 26.7322C15.8816 26.7322 15.5162 26.9833 15.3564 27.3716C15.3111 27.4855 15.2878 27.6 15.2878 27.7365C15.2878 28.2846 15.7448 28.7182 16.2925 28.7182C16.8407 28.7182 17.2972 28.2846 17.2972 27.7365C17.2972 27.3716 17.1147 27.0517 16.8176 26.8691C16.6578 26.7778 16.4752 26.7318 16.2927 26.7318L16.2926 26.7322ZM16.2926 29.8597C15.1281 29.8597 14.169 28.9009 14.169 27.7366C14.169 27.4629 14.2143 27.2119 14.3062 26.9605C14.6033 26.1387 15.4252 25.5908 16.2928 25.5908C16.7039 25.5908 17.0921 25.7046 17.4345 25.9104C18.0514 26.2987 18.4392 26.9834 18.4392 27.7367C18.4392 28.901 17.4803 29.8598 16.2928 29.8598" fill="#242122"/>
<path d="M17.1147 26.9605C17.0234 26.9605 16.9095 26.9346 16.8176 26.8692C16.5664 26.7094 16.4751 26.3671 16.635 26.093L21.9555 17.578C22.1154 17.3042 22.4804 17.213 22.7547 17.3955C23.0058 17.5553 23.0971 17.8977 22.9146 18.1717L17.6169 26.6868C17.503 26.8693 17.3198 26.9605 17.1146 26.9605" fill="#242122"/>
<path d="M23.28 15.5462C22.7091 15.5462 22.2753 15.9799 22.2753 16.5279C22.2753 16.8929 22.4578 17.2127 22.7549 17.3953C23.12 17.6238 23.6455 17.5778 23.9652 17.2582C24.1711 17.0757 24.2623 16.8246 24.2623 16.5277C24.2623 15.9796 23.8287 15.5461 23.2804 15.5461L23.28 15.5462ZM23.28 18.6738C22.869 18.6738 22.4808 18.5599 22.1383 18.3541C21.4988 17.9658 21.1336 17.2812 21.1336 16.5278C21.1336 15.3636 22.0927 14.4048 23.28 14.4048C24.4446 14.4048 25.4037 15.3636 25.4037 16.5278C25.4037 17.1212 25.1752 17.6692 24.7642 18.0801C24.3531 18.4684 23.8279 18.6735 23.2799 18.6735" fill="#242122"/>
<path d="M27.8926 21.8926C27.7327 21.8926 27.5955 21.824 27.4816 21.7101L23.9423 18.0576C23.7364 17.8292 23.7364 17.4868 23.9681 17.2585C24.1966 17.0301 24.5617 17.0527 24.7674 17.2844L28.3067 20.9142C28.5125 21.1426 28.5125 21.5076 28.2808 21.736C28.1669 21.8272 28.0296 21.8958 27.8924 21.8958" fill="#242122"/>
<path d="M28.9887 21.4588C28.7149 21.4588 28.4638 21.55 28.2809 21.7325C28.0983 21.915 27.9838 22.1661 27.9838 22.4402C27.9838 22.9883 28.4175 23.4447 28.9885 23.4447C29.5367 23.4447 29.9703 22.9884 29.9703 22.4402C29.9703 21.8921 29.5367 21.4585 28.9885 21.4585L28.9887 21.4588ZM28.9887 24.5863C27.8013 24.5863 26.8423 23.6275 26.8423 22.4405C26.8423 21.8471 27.0708 21.3219 27.5045 20.911C27.8928 20.5227 28.4178 20.3176 28.9887 20.3176C30.1533 20.3176 31.1123 21.2763 31.1123 22.4406C31.1123 23.6276 30.1533 24.5865 28.9887 24.5865" fill="#242122"/>
<path d="M29.9249 21.7556C29.7877 21.7556 29.6738 21.7298 29.5825 21.6417C29.3314 21.4593 29.2628 21.0936 29.4686 20.8426L36.5017 11.4374C36.6843 11.1863 37.05 11.1403 37.301 11.3235C37.5521 11.5059 37.5981 11.8716 37.4149 12.1225L30.3817 21.5278C30.2678 21.6876 30.0846 21.7563 29.9248 21.7563" fill="#242122"/>
<path d="M37.1864 14.3363C36.8893 14.3363 36.6614 14.1306 36.6155 13.8342L36.4556 12.4188L35.0399 12.5559C34.7428 12.6012 34.4463 12.3735 34.4004 12.0538C34.3745 11.7568 34.6062 11.4604 34.9027 11.4371L36.8893 11.2087C37.209 11.1828 37.5055 11.3912 37.5288 11.7108L37.7573 13.697C37.7832 14.0167 37.5521 14.2904 37.255 14.3363C37.2291 14.3363 37.2097 14.3363 37.1864 14.3363" fill="#242122"/>
</svg>
