<?xml version="1.0" encoding="UTF-8" standalone="no"?>
<svg
   xmlns:dc="http://purl.org/dc/elements/1.1/"
   xmlns:cc="http://creativecommons.org/ns#"
   xmlns:rdf="http://www.w3.org/1999/02/22-rdf-syntax-ns#"
   xmlns:svg="http://www.w3.org/2000/svg"
   xmlns="http://www.w3.org/2000/svg"
   xmlns:sodipodi="http://sodipodi.sourceforge.net/DTD/sodipodi-0.dtd"
   xmlns:inkscape="http://www.inkscape.org/namespaces/inkscape"
   width="52.175831mm"
   height="52.175831mm"
   viewBox="0 0 52.175831 52.175831"
   version="1.1"
   id="svg3133"
   inkscape:version="1.0.2 (e86c8708, 2021-01-15)"
   sodipodi:docname="sb chip.svg">
  <defs
     id="defs3127" />
  <sodipodi:namedview
     id="base"
     pagecolor="#ffffff"
     bordercolor="#666666"
     borderopacity="1.0"
     inkscape:pageopacity="0.0"
     inkscape:pageshadow="2"
     inkscape:zoom="0.35"
     inkscape:cx="-138.54287"
     inkscape:cy="347.17143"
     inkscape:document-units="mm"
     inkscape:current-layer="g2566"
     inkscape:document-rotation="0"
     showgrid="false"
     inkscape:window-width="1252"
     inkscape:window-height="943"
     inkscape:window-x="0"
     inkscape:window-y="25"
     inkscape:window-maximized="0" />
  <metadata
     id="metadata3130">
    <rdf:RDF>
      <cc:Work
         rdf:about="">
        <dc:format>image/svg+xml</dc:format>
        <dc:type
           rdf:resource="http://purl.org/dc/dcmitype/StillImage" />
        <dc:title></dc:title>
      </cc:Work>
    </rdf:RDF>
  </metadata>
  <g
     inkscape:label="Layer 1"
     inkscape:groupmode="layer"
     id="layer1"
     transform="translate(-142.48946,-56.310893)">
    <g
       id="g2566"
       transform="matrix(0.26458333,0,0,0.26458333,92.010743,9.5930445)">
      <path
         d="m 384.98571,275.1714 a 95.599998,95.599998 0 0 1 -95.59999,95.59999 95.599998,95.599998 0 0 1 -95.6,-95.59999 95.599998,95.599998 0 0 1 95.6,-95.6 95.599998,95.599998 0 0 1 95.59999,95.6 z"
         class="st4"
         style="fill:#ece8da"
         id="path2544" />
      <path
         d="m 384.98571,275.1714 a 95.599998,95.599998 0 0 1 -95.59999,95.59999 95.599998,95.599998 0 0 1 -95.6,-95.59999 95.599998,95.599998 0 0 1 95.6,-95.6 95.599998,95.599998 0 0 1 95.59999,95.6 z"
         class="st6"
         style="fill:none;stroke:#000000;stroke-width:6;stroke-miterlimit:10"
         id="path2546" />
      <path
         d="m 356.88572,275.1714 a 67.5,67.5 0 0 1 -67.5,67.5 67.5,67.5 0 0 1 -67.5,-67.5 67.5,67.5 0 0 1 67.5,-67.5 67.5,67.5 0 0 1 67.5,67.5 z"
         class="st2"
         style="fill:#757F9A"
         id="path2548" />
      <path
         class="st2"
         d="m 267.38571,200.77142 h 40.6 l 7.3,-17.7 c -8.2,-2.3 -16.9,-3.6 -25.9,-3.6 -10.8,0 -21.1,1.8 -30.8,5.1 z"
         style="fill:#757F9A"
         id="path2552" />
      <path
         class="st2"
         d="m 333.98571,212.27142 24.9,32 18.5,-5.1 c -3.2,-7.9 -7.6,-15.6 -13.1,-22.6 -6.6,-8.5 -14.4,-15.6 -22.9,-21.2 z"
         style="fill:#757F9A"
         id="path2554" />
      <path
         class="st2"
         d="m 365.88571,271.87142 -9.9,39.3 15.4,11.4 c 4.3,-7.4 7.6,-15.6 9.8,-24.3 2.6,-10.4 3.4,-20.9 2.6,-31.1 z"
         style="fill:#757F9A"
         id="path2556" />
      <path
         class="st2"
         d="m 338.48571,333.67142 -37.1,16.4 0.4,19.1 c 8.5,-1.2 16.9,-3.6 25.2,-7.2 9.9,-4.4 18.6,-10.2 26.1,-17.1 z"
         style="fill:#757F9A"
         id="path2558" />
      <path
         class="st2"
         d="m 272.88571,350.07142 -35.7,-19.2 -14.9,12.1 c 6.2,5.9 13.2,11.2 21.2,15.4 9.5,5.1 19.5,8.4 29.5,10.1 z"
         style="fill:#757F9A"
         id="path2560" />
      <path
         class="st2"
         d="m 219.68571,308.37142 -6.8,-40 -18.7,-4.2 c -0.9,8.5 -0.6,17.3 0.9,26.2 1.8,10.6 5.3,20.5 10.2,29.5 z"
         style="fill:#757F9A"
         id="path2562" />
      <path
         class="st2"
         d="m 219.78571,240.87142 27.3,-30 -8.1,-17.3 c -7.3,4.5 -14,10.1 -20.1,16.8 -7.3,8 -12.9,16.8 -17,26.2 z"
         style="fill:#757F9A"
         id="path2564" />
    </g>
  </g>
</svg>
