<?xml version="1.0" encoding="utf-8"?>
<!-- Svg Vector Icons : http://www.onlinewebfonts.com/icon -->
<!DOCTYPE svg PUBLIC "-//W3C//DTD SVG 1.1//EN" "http://www.w3.org/Graphics/SVG/1.1/DTD/svg11.dtd">
<svg version="1.1" xmlns="http://www.w3.org/2000/svg" xmlns:xlink="http://www.w3.org/1999/xlink" x="0px" y="0px" viewBox="0 0 1000 1000" enable-background="new 0 0 1000 1000" xml:space="preserve">
<metadata> Svg Vector Icons : http://www.onlinewebfonts.com/icon </metadata>
<g><path d="M695.7,353.7H288.4V105.5h82.9C384.3,50.8,433.5,10,492,10c58.6,0,107.8,40.8,120.8,95.5h82.9L695.7,353.7L695.7,353.7z M345.7,296.4h292.7V162.8h-79.5v-28.7c0-36.9-30-66.8-66.8-66.8s-66.8,29.9-66.8,66.8v28.7h-79.5L345.7,296.4L345.7,296.4z M770.4,990H229.5c-86,0-155.9-70-155.9-155.9V293.2c0-85.9,69.9-155.9,155.9-155.9h116.1v159.1h292.7V137.3h132c86,0,155.9,70,155.9,155.9v540.9C926.4,920,856.4,990,770.4,990L770.4,990z M229.5,194.6c-54.4,0-98.6,44.2-98.6,98.6v540.9c0,54.4,44.3,98.6,98.6,98.6h540.9c54.4,0,98.6-44.2,98.6-98.6l0-540.9c0-54.4-44.3-98.6-98.6-98.6h-74.8v159.1H288.4V194.6H229.5L229.5,194.6z"/><path d="M604.2,774H414.4c-1,0.6-2,1.2-3.1,1.6l-68.7,27.8h261.7c8.1,0,14.7-6.6,14.7-14.7C618.9,780.6,612.3,774,604.2,774z"/><path d="M678.8,469.8l-59.6-59.5c-4.6-4.6-12-4.6-16.6,0L332.4,680.5c-1.1,1.1-2,2.4-2.6,3.9l-40.3,99.9c-1.8,4.4-0.7,9.4,2.6,12.7c2.2,2.3,5.3,3.4,8.3,3.4c1.5,0,3-0.3,4.4-0.9l63.4-25.6l0,0l36.4-14.7c1.5-0.6,2.8-1.5,3.9-2.6l270.3-270.3c2.2-2.2,3.4-5.2,3.4-8.3C682.2,475,681,472,678.8,469.8z M393.6,738.4l-39,15.7l-19.7-19.7l15.8-39l260.2-260.3l19.8,19.8L383.1,702.6c-2.3,2.3-2.3,6,0,8.3c1.2,1.1,2.7,1.7,4.2,1.7s3-0.6,4.2-1.7L639,463.3l14.8,14.8L393.6,738.4z"/></g>
</svg>