<?xml version="1.0" encoding="UTF-8"?>
<svg width="53px" height="32px" viewBox="0 0 53 32" version="1.1" xmlns="http://www.w3.org/2000/svg" xmlns:xlink="http://www.w3.org/1999/xlink">
    <title>sb chip</title>
    <g id="Page-1" stroke="none" stroke-width="1" fill="none" fill-rule="evenodd">
        <g id="sb-chip" transform="translate(1.000000, 1.000000)">
            <path d="M51,15 C51,23.2842713 39.5832612,30 25.5,30 C11.4167404,30 0,23.2842719 0,15 C0,11.0217532 2.68659938,7.20644426 7.46877731,4.39339842 C12.2509552,1.58035258 18.7369804,0 25.5,0 C39.5832623,0 51,6.71572964 51,15 L51,15 Z" id="path2544" fill="#757F9A" fill-rule="nonzero"></path>
            <path d="M51,15 C51,23.2842713 39.5832612,30 25.5,30 C11.4167404,30 0,23.2842719 0,15 C0,11.0217532 2.68659938,7.20644426 7.46877731,4.39339842 C12.2509552,1.58035258 18.7369804,0 25.5,0 C39.5832623,0 51,6.71572964 51,15 L51,15 Z" id="path2546" stroke="#D7DDE8" stroke-width="1.58749998"></path>
            <path d="M43,14.5 C43,20.2989899 34.9411255,25 25,25 C15.0588745,25 7,20.2989899 7,14.5 C7,8.70101013 15.0588745,4 25,4 C34.9411255,4 43,8.70101013 43,14.5 Z" id="path2548" fill="#D7DDE8" fill-rule="nonzero"></path>
            <path d="M19.3280423,3 L30.0687831,3 L32,0.507042254 C29.8306878,0.183098592 27.5291005,0 25.1481481,0 C22.2910053,0 19.5661376,0.253521127 17,0.718309859 L19.3280423,3 Z" id="path2552" fill="#D7DDE8" fill-rule="nonzero"></path>
            <path d="M37,4.76482618 L43.3110599,10 L48,9.16564417 C47.1889401,7.87321063 46.0737327,6.61349693 44.6797235,5.46830266 C43.0069124,4.07770961 41.0299539,2.91615542 38.875576,2 L37,4.76482618 Z" id="path2554" fill="#D7DDE8" fill-rule="nonzero"></path>
            <path d="M45.4664602,13.7635379 L43,20.1480144 L46.8367159,22 C47.9080067,20.7978339 48.7301601,19.465704 49.2782624,18.0523466 C49.9260196,16.3628159 50.1253296,14.6570397 49.9260196,13 L45.4664602,13.7635379 Z" id="path2556" fill="#D7DDE8" fill-rule="nonzero"></path>
            <path d="M38.0464217,24 L28,26.771831 L28.1083172,30 C30.410058,29.7971831 32.6847195,29.3915493 34.9323017,28.7830986 C37.6131528,28.0394366 39.9690522,27.0591549 42,25.8929577 L38.0464217,24 Z" id="path2558" fill="#D7DDE8" fill-rule="nonzero"></path>
            <path d="M20.974359,26.0638298 L11.8205128,23 L8,24.9308511 C9.58974359,25.8723404 11.3846154,26.7180851 13.4358974,27.3882979 C15.8717949,28.2021277 18.4358974,28.7287234 21,29 L20.974359,26.0638298 Z" id="path2560" fill="#D7DDE8" fill-rule="nonzero"></path>
            <path d="M7,20.1418312 L5.16967075,13.6786355 L0.136265321,13 C-0.105984138,14.3734291 -0.0252343187,15.7953321 0.37851478,17.2333932 C0.863013699,18.94614 1.80509493,20.545781 3.12400865,22 L7,20.1418312 Z" id="path2562" fill="#D7DDE8" fill-rule="nonzero"></path>
            <path d="M6.75221239,9 L14,4.5602537 L11.8495575,2 C9.91150442,2.66596195 8.13274336,3.49471459 6.51327434,4.48625793 C4.57522124,5.67019027 3.08849558,6.97251586 2,8.36363636 L6.75221239,9 Z" id="path2564" fill="#D7DDE8" fill-rule="nonzero"></path>
        </g>
    </g>
</svg>