<svg height="100" viewBox="0 0 63 100" width="63" xmlns="http://www.w3.org/2000/svg"><g fill="none" fill-rule="evenodd" transform="translate(1 1)"><g transform="translate(7 68)"><path d="m51 15c0 8.2842713-11.4167388 15-25.5 15-14.0832596 0-25.5-6.7157281-25.5-15 0-3.9782468 2.68659938-7.79355574 7.46877731-10.60660158 4.78217789-2.81304584 11.26820309-4.39339842 18.03122269-4.39339842 14.0832623 0 25.5 6.71572964 25.5 15z" fill="#ece8da" fill-rule="nonzero"/><path d="m51 15c0 8.2842713-11.4167388 15-25.5 15-14.0832596 0-25.5-6.7157281-25.5-15 0-3.9782468 2.68659938-7.79355574 7.46877731-10.60660158 4.78217789-2.81304584 11.26820309-4.39339842 18.03122269-4.39339842 14.0832623 0 25.5 6.71572964 25.5 15z" stroke="#ed8f03" stroke-width="1.5875"/><g fill="#ed8f03" fill-rule="nonzero"><path d="m43 14.5c0 5.7989899-8.0588745 10.5-18 10.5s-18-4.7010101-18-10.5c0-5.79898987 8.0588745-10.5 18-10.5s18 4.70101013 18 10.5z"/><path d="m19.3280423 3h10.7407408l1.9312169-2.49295775c-2.1693122-.32394366-4.4708995-.50704225-6.8518519-.50704225-2.8571428 0-5.5820105.25352113-8.1481481.71830986z"/><path d="m37 4.76482618 6.3110599 5.23517382 4.6889401-.83435583c-.8110599-1.29243354-1.9262673-2.55214724-3.3202765-3.69734151-1.6728111-1.39059305-3.6497696-2.55214724-5.8041475-3.46830266z"/><path d="m45.4664602 13.7635379-2.4664602 6.3844765 3.8367159 1.8519856c1.0712908-1.2021661 1.8934442-2.534296 2.4415465-3.9476534.6477572-1.6895307.8470672-3.3953069.6477572-5.0523466z"/><path d="m38.0464217 24-10.0464217 2.771831.1083172 3.228169c2.3017408-.2028169 4.5764023-.6084507 6.8239845-1.2169014 2.6808511-.743662 5.0367505-1.7239437 7.0676983-2.8901409z"/><path d="m20.974359 26.0638298-9.1538462-3.0638298-3.8205128 1.9308511c1.58974359.9414893 3.3846154 1.787234 5.4358974 2.4574468 2.4358975.8138298 5 1.3404255 7.5641026 1.6117021z"/><path d="m7 20.1418312-1.83032925-6.4631957-5.03340543-.6786355c-.24224946 1.3734291-.16149964 2.7953321.24224946 4.2333932.48449892 1.7127468 1.42658015 3.3123878 2.74549387 4.7666068z"/><path d="m6.75221239 9 7.24778761-4.4397463-2.1504425-2.5602537c-1.93805308.66596195-3.71681414 1.49471459-5.33628316 2.48625793-1.9380531 1.18393234-3.42477876 2.48625793-4.51327434 3.87737843z"/></g></g><g transform="translate(7 60)"><path d="m51 15c0 8.2842713-11.4167388 15-25.5 15-14.0832596 0-25.5-6.7157281-25.5-15 0-3.9782468 2.68659938-7.79355574 7.46877731-10.60660158 4.78217789-2.81304584 11.26820309-4.39339842 18.03122269-4.39339842 14.0832623 0 25.5 6.71572964 25.5 15z" fill="#ece8da" fill-rule="nonzero"/><path d="m51 15c0 8.2842713-11.4167388 15-25.5 15-14.0832596 0-25.5-6.7157281-25.5-15 0-3.9782468 2.68659938-7.79355574 7.46877731-10.60660158 4.78217789-2.81304584 11.26820309-4.39339842 18.03122269-4.39339842 14.0832623 0 25.5 6.71572964 25.5 15z" stroke="#ed8f03" stroke-width="1.5875"/><g fill="#ed8f03" fill-rule="nonzero"><path d="m43 14.5c0 5.7989899-8.0588745 10.5-18 10.5s-18-4.7010101-18-10.5c0-5.79898987 8.0588745-10.5 18-10.5s18 4.70101013 18 10.5z"/><path d="m19.3280423 3h10.7407408l1.9312169-2.49295775c-2.1693122-.32394366-4.4708995-.50704225-6.8518519-.50704225-2.8571428 0-5.5820105.25352113-8.1481481.71830986z"/><path d="m37 4.76482618 6.3110599 5.23517382 4.6889401-.83435583c-.8110599-1.29243354-1.9262673-2.55214724-3.3202765-3.69734151-1.6728111-1.39059305-3.6497696-2.55214724-5.8041475-3.46830266z"/><path d="m45.4664602 13.7635379-2.4664602 6.3844765 3.8367159 1.8519856c1.0712908-1.2021661 1.8934442-2.534296 2.4415465-3.9476534.6477572-1.6895307.8470672-3.3953069.6477572-5.0523466z"/><path d="m38.0464217 24-10.0464217 2.771831.1083172 3.228169c2.3017408-.2028169 4.5764023-.6084507 6.8239845-1.2169014 2.6808511-.743662 5.0367505-1.7239437 7.0676983-2.8901409z"/><path d="m20.974359 26.0638298-9.1538462-3.0638298-3.8205128 1.9308511c1.58974359.9414893 3.3846154 1.787234 5.4358974 2.4574468 2.4358975.8138298 5 1.3404255 7.5641026 1.6117021z"/><path d="m7 20.1418312-1.83032925-6.4631957-5.03340543-.6786355c-.24224946 1.3734291-.16149964 2.7953321.24224946 4.2333932.48449892 1.7127468 1.42658015 3.3123878 2.74549387 4.7666068z"/><path d="m6.75221239 9 7.24778761-4.4397463-2.1504425-2.5602537c-1.93805308.66596195-3.71681414 1.49471459-5.33628316 2.48625793-1.9380531 1.18393234-3.42477876 2.48625793-4.51327434 3.87737843z"/></g></g><g transform="matrix(.99939083 .0348995 -.0348995 .99939083 8.539026 51.1192)"><path d="m51 15c0 8.2842713-11.4167388 15-25.5 15-14.0832596 0-25.5-6.7157281-25.5-15 0-3.9782468 2.68659938-7.79355574 7.46877731-10.60660158 4.78217789-2.81304584 11.26820309-4.39339842 18.03122269-4.39339842 14.0832623 0 25.5 6.71572964 25.5 15z" fill="#ece8da" fill-rule="nonzero"/><path d="m51 15c0 8.2842713-11.4167388 15-25.5 15-14.0832596 0-25.5-6.7157281-25.5-15 0-3.9782468 2.68659938-7.79355574 7.46877731-10.60660158 4.78217789-2.81304584 11.26820309-4.39339842 18.03122269-4.39339842 14.0832623 0 25.5 6.71572964 25.5 15z" stroke="#ed8f03" stroke-width="1.5875"/><g fill="#ed8f03" fill-rule="nonzero"><path d="m43 14.5c0 5.7989899-8.0588745 10.5-18 10.5s-18-4.7010101-18-10.5c0-5.79898987 8.0588745-10.5 18-10.5s18 4.70101013 18 10.5z"/><path d="m19.3280423 3h10.7407408l1.9312169-2.49295775c-2.1693122-.32394366-4.4708995-.50704225-6.8518519-.50704225-2.8571428 0-5.5820105.25352113-8.1481481.71830986z"/><path d="m37 4.76482618 6.3110599 5.23517382 4.6889401-.83435583c-.8110599-1.29243354-1.9262673-2.55214724-3.3202765-3.69734151-1.6728111-1.39059305-3.6497696-2.55214724-5.8041475-3.46830266z"/><path d="m45.4664602 13.7635379-2.4664602 6.3844765 3.8367159 1.8519856c1.0712908-1.2021661 1.8934442-2.534296 2.4415465-3.9476534.6477572-1.6895307.8470672-3.3953069.6477572-5.0523466z"/><path d="m38.0464217 24-10.0464217 2.771831.1083172 3.228169c2.3017408-.2028169 4.5764023-.6084507 6.8239845-1.2169014 2.6808511-.743662 5.0367505-1.7239437 7.0676983-2.8901409z"/><path d="m20.974359 26.0638298-9.1538462-3.0638298-3.8205128 1.9308511c1.58974359.9414893 3.3846154 1.787234 5.4358974 2.4574468 2.4358975.8138298 5 1.3404255 7.5641026 1.6117021z"/><path d="m7 20.1418312-1.83032925-6.4631957-5.03340543-.6786355c-.24224946 1.3734291-.16149964 2.7953321.24224946 4.2333932.48449892 1.7127468 1.42658015 3.3123878 2.74549387 4.7666068z"/><path d="m6.75221239 9 7.24778761-4.4397463-2.1504425-2.5602537c-1.93805308.66596195-3.71681414 1.49471459-5.33628316 2.48625793-1.9380531 1.18393234-3.42477876 2.48625793-4.51327434 3.87737843z"/></g></g><g transform="matrix(.99939083 .0348995 -.0348995 .99939083 8.539026 44.1192)"><path d="m51 15c0 8.2842713-11.4167388 15-25.5 15-14.0832596 0-25.5-6.7157281-25.5-15 0-3.9782468 2.68659938-7.79355574 7.46877731-10.60660158 4.78217789-2.81304584 11.26820309-4.39339842 18.03122269-4.39339842 14.0832623 0 25.5 6.71572964 25.5 15z" fill="#ece8da" fill-rule="nonzero"/><path d="m51 15c0 8.2842713-11.4167388 15-25.5 15-14.0832596 0-25.5-6.7157281-25.5-15 0-3.9782468 2.68659938-7.79355574 7.46877731-10.60660158 4.78217789-2.81304584 11.26820309-4.39339842 18.03122269-4.39339842 14.0832623 0 25.5 6.71572964 25.5 15z" stroke="#ed8f03" stroke-width="1.5875"/><g fill="#ed8f03" fill-rule="nonzero"><path d="m43 14.5c0 5.7989899-8.0588745 10.5-18 10.5s-18-4.7010101-18-10.5c0-5.79898987 8.0588745-10.5 18-10.5s18 4.70101013 18 10.5z"/><path d="m19.3280423 3h10.7407408l1.9312169-2.49295775c-2.1693122-.32394366-4.4708995-.50704225-6.8518519-.50704225-2.8571428 0-5.5820105.25352113-8.1481481.71830986z"/><path d="m37 4.76482618 6.3110599 5.23517382 4.6889401-.83435583c-.8110599-1.29243354-1.9262673-2.55214724-3.3202765-3.69734151-1.6728111-1.39059305-3.6497696-2.55214724-5.8041475-3.46830266z"/><path d="m45.4664602 13.7635379-2.4664602 6.3844765 3.8367159 1.8519856c1.0712908-1.2021661 1.8934442-2.534296 2.4415465-3.9476534.6477572-1.6895307.8470672-3.3953069.6477572-5.0523466z"/><path d="m38.0464217 24-10.0464217 2.771831.1083172 3.228169c2.3017408-.2028169 4.5764023-.6084507 6.8239845-1.2169014 2.6808511-.743662 5.0367505-1.7239437 7.0676983-2.8901409z"/><path d="m20.974359 26.0638298-9.1538462-3.0638298-3.8205128 1.9308511c1.58974359.9414893 3.3846154 1.787234 5.4358974 2.4574468 2.4358975.8138298 5 1.3404255 7.5641026 1.6117021z"/><path d="m7 20.1418312-1.83032925-6.4631957-5.03340543-.6786355c-.24224946 1.3734291-.16149964 2.7953321.24224946 4.2333932.48449892 1.7127468 1.42658015 3.3123878 2.74549387 4.7666068z"/><path d="m6.75221239 9 7.24778761-4.4397463-2.1504425-2.5602537c-1.93805308.66596195-3.71681414 1.49471459-5.33628316 2.48625793-1.9380531 1.18393234-3.42477876 2.48625793-4.51327434 3.87737843z"/></g></g><g transform="matrix(.99939083 .0348995 -.0348995 .99939083 8.539026 36.1192)"><path d="m51 15c0 8.2842713-11.4167388 15-25.5 15-14.0832596 0-25.5-6.7157281-25.5-15 0-3.9782468 2.68659938-7.79355574 7.46877731-10.60660158 4.78217789-2.81304584 11.26820309-4.39339842 18.03122269-4.39339842 14.0832623 0 25.5 6.71572964 25.5 15z" fill="#ece8da" fill-rule="nonzero"/><path d="m51 15c0 8.2842713-11.4167388 15-25.5 15-14.0832596 0-25.5-6.7157281-25.5-15 0-3.9782468 2.68659938-7.79355574 7.46877731-10.60660158 4.78217789-2.81304584 11.26820309-4.39339842 18.03122269-4.39339842 14.0832623 0 25.5 6.71572964 25.5 15z" stroke="#ed8f03" stroke-width="1.5875"/><g fill="#ed8f03" fill-rule="nonzero"><path d="m43 14.5c0 5.7989899-8.0588745 10.5-18 10.5s-18-4.7010101-18-10.5c0-5.79898987 8.0588745-10.5 18-10.5s18 4.70101013 18 10.5z"/><path d="m19.3280423 3h10.7407408l1.9312169-2.49295775c-2.1693122-.32394366-4.4708995-.50704225-6.8518519-.50704225-2.8571428 0-5.5820105.25352113-8.1481481.71830986z"/><path d="m37 4.76482618 6.3110599 5.23517382 4.6889401-.83435583c-.8110599-1.29243354-1.9262673-2.55214724-3.3202765-3.69734151-1.6728111-1.39059305-3.6497696-2.55214724-5.8041475-3.46830266z"/><path d="m45.4664602 13.7635379-2.4664602 6.3844765 3.8367159 1.8519856c1.0712908-1.2021661 1.8934442-2.534296 2.4415465-3.9476534.6477572-1.6895307.8470672-3.3953069.6477572-5.0523466z"/><path d="m38.0464217 24-10.0464217 2.771831.1083172 3.228169c2.3017408-.2028169 4.5764023-.6084507 6.8239845-1.2169014 2.6808511-.743662 5.0367505-1.7239437 7.0676983-2.8901409z"/><path d="m20.974359 26.0638298-9.1538462-3.0638298-3.8205128 1.9308511c1.58974359.9414893 3.3846154 1.787234 5.4358974 2.4574468 2.4358975.8138298 5 1.3404255 7.5641026 1.6117021z"/><path d="m7 20.1418312-1.83032925-6.4631957-5.03340543-.6786355c-.24224946 1.3734291-.16149964 2.7953321.24224946 4.2333932.48449892 1.7127468 1.42658015 3.3123878 2.74549387 4.7666068z"/><path d="m6.75221239 9 7.24778761-4.4397463-2.1504425-2.5602537c-1.93805308.66596195-3.71681414 1.49471459-5.33628316 2.48625793-1.9380531 1.18393234-3.42477876 2.48625793-4.51327434 3.87737843z"/></g></g><g transform="matrix(.99939083 .0348995 -.0348995 .99939083 9.539026 28.1192)"><path d="m51 15c0 8.2842713-11.4167388 15-25.5 15-14.0832596 0-25.5-6.7157281-25.5-15 0-3.9782468 2.68659938-7.79355574 7.46877731-10.60660158 4.78217789-2.81304584 11.26820309-4.39339842 18.03122269-4.39339842 14.0832623 0 25.5 6.71572964 25.5 15z" fill="#ece8da" fill-rule="nonzero"/><path d="m51 15c0 8.2842713-11.4167388 15-25.5 15-14.0832596 0-25.5-6.7157281-25.5-15 0-3.9782468 2.68659938-7.79355574 7.46877731-10.60660158 4.78217789-2.81304584 11.26820309-4.39339842 18.03122269-4.39339842 14.0832623 0 25.5 6.71572964 25.5 15z" stroke="#ed8f03" stroke-width="1.5875"/><g fill="#ed8f03" fill-rule="nonzero"><path d="m43 14.5c0 5.7989899-8.0588745 10.5-18 10.5s-18-4.7010101-18-10.5c0-5.79898987 8.0588745-10.5 18-10.5s18 4.70101013 18 10.5z"/><path d="m19.3280423 3h10.7407408l1.9312169-2.49295775c-2.1693122-.32394366-4.4708995-.50704225-6.8518519-.50704225-2.8571428 0-5.5820105.25352113-8.1481481.71830986z"/><path d="m37 4.76482618 6.3110599 5.23517382 4.6889401-.83435583c-.8110599-1.29243354-1.9262673-2.55214724-3.3202765-3.69734151-1.6728111-1.39059305-3.6497696-2.55214724-5.8041475-3.46830266z"/><path d="m45.4664602 13.7635379-2.4664602 6.3844765 3.8367159 1.8519856c1.0712908-1.2021661 1.8934442-2.534296 2.4415465-3.9476534.6477572-1.6895307.8470672-3.3953069.6477572-5.0523466z"/><path d="m38.0464217 24-10.0464217 2.771831.1083172 3.228169c2.3017408-.2028169 4.5764023-.6084507 6.8239845-1.2169014 2.6808511-.743662 5.0367505-1.7239437 7.0676983-2.8901409z"/><path d="m20.974359 26.0638298-9.1538462-3.0638298-3.8205128 1.9308511c1.58974359.9414893 3.3846154 1.787234 5.4358974 2.4574468 2.4358975.8138298 5 1.3404255 7.5641026 1.6117021z"/><path d="m7 20.1418312-1.83032925-6.4631957-5.03340543-.6786355c-.24224946 1.3734291-.16149964 2.7953321.24224946 4.2333932.48449892 1.7127468 1.42658015 3.3123878 2.74549387 4.7666068z"/><path d="m6.75221239 9 7.24778761-4.4397463-2.1504425-2.5602537c-1.93805308.66596195-3.71681414 1.49471459-5.33628316 2.48625793-1.9380531 1.18393234-3.42477876 2.48625793-4.51327434 3.87737843z"/></g></g><g transform="matrix(.99939083 .0348995 -.0348995 .99939083 3.539026 21.1192)"><path d="m51 15c0 8.2842713-11.4167388 15-25.5 15-14.0832596 0-25.5-6.7157281-25.5-15 0-3.9782468 2.68659938-7.79355574 7.46877731-10.60660158 4.78217789-2.81304584 11.26820309-4.39339842 18.03122269-4.39339842 14.0832623 0 25.5 6.71572964 25.5 15z" fill="#ece8da" fill-rule="nonzero"/><path d="m51 15c0 8.2842713-11.4167388 15-25.5 15-14.0832596 0-25.5-6.7157281-25.5-15 0-3.9782468 2.68659938-7.79355574 7.46877731-10.60660158 4.78217789-2.81304584 11.26820309-4.39339842 18.03122269-4.39339842 14.0832623 0 25.5 6.71572964 25.5 15z" stroke="#ed8f03" stroke-width="1.5875"/><g fill="#ed8f03" fill-rule="nonzero"><path d="m43 14.5c0 5.7989899-8.0588745 10.5-18 10.5s-18-4.7010101-18-10.5c0-5.79898987 8.0588745-10.5 18-10.5s18 4.70101013 18 10.5z"/><path d="m19.3280423 3h10.7407408l1.9312169-2.49295775c-2.1693122-.32394366-4.4708995-.50704225-6.8518519-.50704225-2.8571428 0-5.5820105.25352113-8.1481481.71830986z"/><path d="m37 4.76482618 6.3110599 5.23517382 4.6889401-.83435583c-.8110599-1.29243354-1.9262673-2.55214724-3.3202765-3.69734151-1.6728111-1.39059305-3.6497696-2.55214724-5.8041475-3.46830266z"/><path d="m45.4664602 13.7635379-2.4664602 6.3844765 3.8367159 1.8519856c1.0712908-1.2021661 1.8934442-2.534296 2.4415465-3.9476534.6477572-1.6895307.8470672-3.3953069.6477572-5.0523466z"/><path d="m38.0464217 24-10.0464217 2.771831.1083172 3.228169c2.3017408-.2028169 4.5764023-.6084507 6.8239845-1.2169014 2.6808511-.743662 5.0367505-1.7239437 7.0676983-2.8901409z"/><path d="m20.974359 26.0638298-9.1538462-3.0638298-3.8205128 1.9308511c1.58974359.9414893 3.3846154 1.787234 5.4358974 2.4574468 2.4358975.8138298 5 1.3404255 7.5641026 1.6117021z"/><path d="m7 20.1418312-1.83032925-6.4631957-5.03340543-.6786355c-.24224946 1.3734291-.16149964 2.7953321.24224946 4.2333932.48449892 1.7127468 1.42658015 3.3123878 2.74549387 4.7666068z"/><path d="m6.75221239 9 7.24778761-4.4397463-2.1504425-2.5602537c-1.93805308.66596195-3.71681414 1.49471459-5.33628316 2.48625793-1.9380531 1.18393234-3.42477876 2.48625793-4.51327434 3.87737843z"/></g></g><g transform="matrix(.99939083 .0348995 -.0348995 .99939083 3.539026 15.1192)"><path d="m51 15c0 8.2842713-11.4167388 15-25.5 15-14.0832596 0-25.5-6.7157281-25.5-15 0-3.9782468 2.68659938-7.79355574 7.46877731-10.60660158 4.78217789-2.81304584 11.26820309-4.39339842 18.03122269-4.39339842 14.0832623 0 25.5 6.71572964 25.5 15z" fill="#ece8da" fill-rule="nonzero"/><path d="m51 15c0 8.2842713-11.4167388 15-25.5 15-14.0832596 0-25.5-6.7157281-25.5-15 0-3.9782468 2.68659938-7.79355574 7.46877731-10.60660158 4.78217789-2.81304584 11.26820309-4.39339842 18.03122269-4.39339842 14.0832623 0 25.5 6.71572964 25.5 15z" stroke="#ed8f03" stroke-width="1.5875"/><g fill="#ed8f03" fill-rule="nonzero"><path d="m43 14.5c0 5.7989899-8.0588745 10.5-18 10.5s-18-4.7010101-18-10.5c0-5.79898987 8.0588745-10.5 18-10.5s18 4.70101013 18 10.5z"/><path d="m19.3280423 3h10.7407408l1.9312169-2.49295775c-2.1693122-.32394366-4.4708995-.50704225-6.8518519-.50704225-2.8571428 0-5.5820105.25352113-8.1481481.71830986z"/><path d="m37 4.76482618 6.3110599 5.23517382 4.6889401-.83435583c-.8110599-1.29243354-1.9262673-2.55214724-3.3202765-3.69734151-1.6728111-1.39059305-3.6497696-2.55214724-5.8041475-3.46830266z"/><path d="m45.4664602 13.7635379-2.4664602 6.3844765 3.8367159 1.8519856c1.0712908-1.2021661 1.8934442-2.534296 2.4415465-3.9476534.6477572-1.6895307.8470672-3.3953069.6477572-5.0523466z"/><path d="m38.0464217 24-10.0464217 2.771831.1083172 3.228169c2.3017408-.2028169 4.5764023-.6084507 6.8239845-1.2169014 2.6808511-.743662 5.0367505-1.7239437 7.0676983-2.8901409z"/><path d="m20.974359 26.0638298-9.1538462-3.0638298-3.8205128 1.9308511c1.58974359.9414893 3.3846154 1.787234 5.4358974 2.4574468 2.4358975.8138298 5 1.3404255 7.5641026 1.6117021z"/><path d="m7 20.1418312-1.83032925-6.4631957-5.03340543-.6786355c-.24224946 1.3734291-.16149964 2.7953321.24224946 4.2333932.48449892 1.7127468 1.42658015 3.3123878 2.74549387 4.7666068z"/><path d="m6.75221239 9 7.24778761-4.4397463-2.1504425-2.5602537c-1.93805308.66596195-3.71681414 1.49471459-5.33628316 2.48625793-1.9380531 1.18393234-3.42477876 2.48625793-4.51327434 3.87737843z"/></g></g><g transform="matrix(.99939083 .0348995 -.0348995 .99939083 9.539026 6.1192)"><path d="m51 15c0 8.2842713-11.4167388 15-25.5 15-14.0832596 0-25.5-6.7157281-25.5-15 0-3.9782468 2.68659938-7.79355574 7.46877731-10.60660158 4.78217789-2.81304584 11.26820309-4.39339842 18.03122269-4.39339842 14.0832623 0 25.5 6.71572964 25.5 15z" fill="#ece8da" fill-rule="nonzero"/><path d="m51 15c0 8.2842713-11.4167388 15-25.5 15-14.0832596 0-25.5-6.7157281-25.5-15 0-3.9782468 2.68659938-7.79355574 7.46877731-10.60660158 4.78217789-2.81304584 11.26820309-4.39339842 18.03122269-4.39339842 14.0832623 0 25.5 6.71572964 25.5 15z" stroke="#ed8f03" stroke-width="1.5875"/><g fill="#ed8f03" fill-rule="nonzero"><path d="m43 14.5c0 5.7989899-8.0588745 10.5-18 10.5s-18-4.7010101-18-10.5c0-5.79898987 8.0588745-10.5 18-10.5s18 4.70101013 18 10.5z"/><path d="m19.3280423 3h10.7407408l1.9312169-2.49295775c-2.1693122-.32394366-4.4708995-.50704225-6.8518519-.50704225-2.8571428 0-5.5820105.25352113-8.1481481.71830986z"/><path d="m37 4.76482618 6.3110599 5.23517382 4.6889401-.83435583c-.8110599-1.29243354-1.9262673-2.55214724-3.3202765-3.69734151-1.6728111-1.39059305-3.6497696-2.55214724-5.8041475-3.46830266z"/><path d="m45.4664602 13.7635379-2.4664602 6.3844765 3.8367159 1.8519856c1.0712908-1.2021661 1.8934442-2.534296 2.4415465-3.9476534.6477572-1.6895307.8470672-3.3953069.6477572-5.0523466z"/><path d="m38.0464217 24-10.0464217 2.771831.1083172 3.228169c2.3017408-.2028169 4.5764023-.6084507 6.8239845-1.2169014 2.6808511-.743662 5.0367505-1.7239437 7.0676983-2.8901409z"/><path d="m20.974359 26.0638298-9.1538462-3.0638298-3.8205128 1.9308511c1.58974359.9414893 3.3846154 1.787234 5.4358974 2.4574468 2.4358975.8138298 5 1.3404255 7.5641026 1.6117021z"/><path d="m7 20.1418312-1.83032925-6.4631957-5.03340543-.6786355c-.24224946 1.3734291-.16149964 2.7953321.24224946 4.2333932.48449892 1.7127468 1.42658015 3.3123878 2.74549387 4.7666068z"/><path d="m6.75221239 9 7.24778761-4.4397463-2.1504425-2.5602537c-1.93805308.66596195-3.71681414 1.49471459-5.33628316 2.48625793-1.9380531 1.18393234-3.42477876 2.48625793-4.51327434 3.87737843z"/></g></g><g transform="matrix(.99939083 .0348995 -.0348995 .99939083 1.539026 .1192)"><path d="m51 15c0 8.2842713-11.4167388 15-25.5 15-14.0832596 0-25.5-6.7157281-25.5-15 0-3.9782468 2.68659938-7.79355574 7.46877731-10.60660158 4.78217789-2.81304584 11.26820309-4.39339842 18.03122269-4.39339842 14.0832623 0 25.5 6.71572964 25.5 15z" fill="#ece8da" fill-rule="nonzero"/><path d="m51 15c0 8.2842713-11.4167388 15-25.5 15-14.0832596 0-25.5-6.7157281-25.5-15 0-3.9782468 2.68659938-7.79355574 7.46877731-10.60660158 4.78217789-2.81304584 11.26820309-4.39339842 18.03122269-4.39339842 14.0832623 0 25.5 6.71572964 25.5 15z" stroke="#ed8f03" stroke-width="1.5875"/><g fill="#ed8f03" fill-rule="nonzero"><path d="m43 14.5c0 5.7989899-8.0588745 10.5-18 10.5s-18-4.7010101-18-10.5c0-5.79898987 8.0588745-10.5 18-10.5s18 4.70101013 18 10.5z"/><path d="m19.3280423 3h10.7407408l1.9312169-2.49295775c-2.1693122-.32394366-4.4708995-.50704225-6.8518519-.50704225-2.8571428 0-5.5820105.25352113-8.1481481.71830986z"/><path d="m37 4.76482618 6.3110599 5.23517382 4.6889401-.83435583c-.8110599-1.29243354-1.9262673-2.55214724-3.3202765-3.69734151-1.6728111-1.39059305-3.6497696-2.55214724-5.8041475-3.46830266z"/><path d="m45.4664602 13.7635379-2.4664602 6.3844765 3.8367159 1.8519856c1.0712908-1.2021661 1.8934442-2.534296 2.4415465-3.9476534.6477572-1.6895307.8470672-3.3953069.6477572-5.0523466z"/><path d="m38.0464217 24-10.0464217 2.771831.1083172 3.228169c2.3017408-.2028169 4.5764023-.6084507 6.8239845-1.2169014 2.6808511-.743662 5.0367505-1.7239437 7.0676983-2.8901409z"/><path d="m20.974359 26.0638298-9.1538462-3.0638298-3.8205128 1.9308511c1.58974359.9414893 3.3846154 1.787234 5.4358974 2.4574468 2.4358975.8138298 5 1.3404255 7.5641026 1.6117021z"/><path d="m7 20.1418312-1.83032925-6.4631957-5.03340543-.6786355c-.24224946 1.3734291-.16149964 2.7953321.24224946 4.2333932.48449892 1.7127468 1.42658015 3.3123878 2.74549387 4.7666068z"/><path d="m6.75221239 9 7.24778761-4.4397463-2.1504425-2.5602537c-1.93805308.66596195-3.71681414 1.49471459-5.33628316 2.48625793-1.9380531 1.18393234-3.42477876 2.48625793-4.51327434 3.87737843z"/></g></g></g></svg>