<?xml version="1.0" encoding="UTF-8"?>
<svg width="69px" height="35px" viewBox="0 0 69 35" version="1.1" xmlns="http://www.w3.org/2000/svg" xmlns:xlink="http://www.w3.org/1999/xlink">
    <title>Group</title>
    <g id="Page-1" stroke="none" stroke-width="1" fill="none" fill-rule="evenodd">
        <g id="Group" transform="translate(1.000000, 0.000000)">
            <g id="sb-chip-1">
                <path d="M51,17.5 C51,26.6126984 39.5832612,34 25.5,34 C11.4167404,34 0,26.6126991 0,17.5 C0,13.1239285 2.68659938,8.92708869 7.46877731,5.83273826 C12.2509552,2.73838784 18.7369804,1 25.5,1 C39.5832623,1 51,8.38730261 51,17.5 L51,17.5 Z" id="path2544" fill="#ECE8DA" fill-rule="nonzero"></path>
                <path d="M51,17.5 C51,26.6126984 39.5832612,34 25.5,34 C11.4167404,34 0,26.6126991 0,17.5 C0,13.1239285 2.68659938,8.92708869 7.46877731,5.83273826 C12.2509552,2.73838784 18.7369804,1 25.5,1 C39.5832623,1 51,8.38730261 51,17.5 L51,17.5 Z" id="path2546" stroke="#000000" stroke-width="1.58749998"></path>
                <path d="M43,17.5 C43,23.8512746 34.9411255,29 25,29 C15.0588745,29 7,23.8512746 7,17.5 C7,11.1487254 15.0588745,6 25,6 C34.9411255,6 43,11.1487254 43,17.5 Z" id="path2548" fill="#757F9A" fill-rule="nonzero"></path>
                <path d="M19.3280423,4 L30.0687831,4 L32,0.676056338 C29.8306878,0.244131455 27.5291005,0 25.1481481,0 C22.2910053,0 19.5661376,0.338028169 17,0.957746479 L19.3280423,4 Z" id="path2552" fill="#757F9A" fill-rule="nonzero"></path>
                <path d="M37,5.76482618 L43.3110599,11 L48,10.1656442 C47.1889401,8.87321063 46.0737327,7.61349693 44.6797235,6.46830266 C43.0069124,5.07770961 41.0299539,3.91615542 38.875576,3 L37,5.76482618 Z" id="path2554" fill="#757F9A" fill-rule="nonzero"></path>
                <path d="M45.4664602,15.8483755 L43,22.9422383 L46.8367159,25 C47.9080067,23.6642599 48.7301601,22.1841155 49.2782624,20.6137184 C49.9260196,18.7364621 50.1253296,16.8411552 49.9260196,15 L45.4664602,15.8483755 Z" id="path2556" fill="#757F9A" fill-rule="nonzero"></path>
                <path d="M38.0464217,27 L28,29.771831 L28.1083172,33 C30.410058,32.7971831 32.6847195,32.3915493 34.9323017,31.7830986 C37.6131528,31.0394366 39.9690522,30.0591549 42,28.8929577 L38.0464217,27 Z" id="path2558" fill="#757F9A" fill-rule="nonzero"></path>
                <path d="M20.974359,29.5744681 L11.8205128,26 L8,28.2526596 C9.58974359,29.3510638 11.3846154,30.337766 13.4358974,31.1196809 C15.8717949,32.0691489 18.4358974,32.6835106 21,33 L20.974359,29.5744681 Z" id="path2560" fill="#757F9A" fill-rule="nonzero"></path>
                <path d="M7,22.935368 L5.16967075,15.7540395 L0.136265321,15 C-0.105984138,16.5260323 -0.0252343187,18.1059246 0.37851478,19.7037702 C0.863013699,21.6068223 1.80509493,23.3842011 3.12400865,25 L7,22.935368 Z" id="path2562" fill="#757F9A" fill-rule="nonzero"></path>
                <path d="M6.75221239,11 L14,5.92600423 L11.8495575,3 C9.91150442,3.76109937 8.13274336,4.70824524 6.51327434,5.84143763 C4.57522124,7.19450317 3.08849558,8.68287526 2,10.2727273 L6.75221239,11 Z" id="path2564" fill="#757F9A" fill-rule="nonzero"></path>
            </g>
            <g id="sb-chip-1" transform="translate(16.000000, 0.000000)">
                <path d="M51,17.5 C51,26.6126984 39.5832612,34 25.5,34 C11.4167404,34 0,26.6126991 0,17.5 C0,13.1239285 2.68659938,8.92708869 7.46877731,5.83273826 C12.2509552,2.73838784 18.7369804,1 25.5,1 C39.5832623,1 51,8.38730261 51,17.5 L51,17.5 Z" id="path2544" fill="#ECE8DA" fill-rule="nonzero"></path>
                <path d="M51,17.5 C51,26.6126984 39.5832612,34 25.5,34 C11.4167404,34 0,26.6126991 0,17.5 C0,13.1239285 2.68659938,8.92708869 7.46877731,5.83273826 C12.2509552,2.73838784 18.7369804,1 25.5,1 C39.5832623,1 51,8.38730261 51,17.5 L51,17.5 Z" id="path2546" stroke="#000000" stroke-width="1.58749998"></path>
                <path d="M43,17.5 C43,23.8512746 34.9411255,29 25,29 C15.0588745,29 7,23.8512746 7,17.5 C7,11.1487254 15.0588745,6 25,6 C34.9411255,6 43,11.1487254 43,17.5 Z" id="path2548" fill="#757F9A" fill-rule="nonzero"></path>
                <path d="M19.3280423,4 L30.0687831,4 L32,0.676056338 C29.8306878,0.244131455 27.5291005,0 25.1481481,0 C22.2910053,0 19.5661376,0.338028169 17,0.957746479 L19.3280423,4 Z" id="path2552" fill="#757F9A" fill-rule="nonzero"></path>
                <path d="M37,5.76482618 L43.3110599,11 L48,10.1656442 C47.1889401,8.87321063 46.0737327,7.61349693 44.6797235,6.46830266 C43.0069124,5.07770961 41.0299539,3.91615542 38.875576,3 L37,5.76482618 Z" id="path2554" fill="#757F9A" fill-rule="nonzero"></path>
                <path d="M45.4664602,15.8483755 L43,22.9422383 L46.8367159,25 C47.9080067,23.6642599 48.7301601,22.1841155 49.2782624,20.6137184 C49.9260196,18.7364621 50.1253296,16.8411552 49.9260196,15 L45.4664602,15.8483755 Z" id="path2556" fill="#757F9A" fill-rule="nonzero"></path>
                <path d="M38.0464217,27 L28,29.771831 L28.1083172,33 C30.410058,32.7971831 32.6847195,32.3915493 34.9323017,31.7830986 C37.6131528,31.0394366 39.9690522,30.0591549 42,28.8929577 L38.0464217,27 Z" id="path2558" fill="#757F9A" fill-rule="nonzero"></path>
                <path d="M20.974359,29.5744681 L11.8205128,26 L8,28.2526596 C9.58974359,29.3510638 11.3846154,30.337766 13.4358974,31.1196809 C15.8717949,32.0691489 18.4358974,32.6835106 21,33 L20.974359,29.5744681 Z" id="path2560" fill="#757F9A" fill-rule="nonzero"></path>
                <path d="M7,22.935368 L5.16967075,15.7540395 L0.136265321,15 C-0.105984138,16.5260323 -0.0252343187,18.1059246 0.37851478,19.7037702 C0.863013699,21.6068223 1.80509493,23.3842011 3.12400865,25 L7,22.935368 Z" id="path2562" fill="#757F9A" fill-rule="nonzero"></path>
                <path d="M6.75221239,11 L14,5.92600423 L11.8495575,3 C9.91150442,3.76109937 8.13274336,4.70824524 6.51327434,5.84143763 C4.57522124,7.19450317 3.08849558,8.68287526 2,10.2727273 L6.75221239,11 Z" id="path2564" fill="#757F9A" fill-rule="nonzero"></path>
            </g>
        </g>
    </g>
</svg>