<svg width="42" height="18" viewBox="0 0 42 18" fill="none" xmlns="http://www.w3.org/2000/svg">
<path d="M41.8 11.4C41.8 11.5 41.8 11.5 41.8 11.5C41.8 15 32.5 18 21 18C9.6 18 0.399997 15.2 0.199997 11.7V11.6C0.199997 11.5 0.199997 11.5 0.199997 11.4C0.199997 9.8 0.199997 8.2 0.199997 6.6C3.1 6.4 6 6.4 8.9 6.3C12.3 5.6 16.5 5.1 21 5.1C25.6 5.1 29.8 5.5 33.2 6.3C34.6 6.3 35.9 6.4 37.2 6.4C38.7 6.5 40.2 6.5 41.7 6.6L41.8 11.4Z" fill="#314DEE"/>
<path d="M3.2 14.8C3.2 14 3.2 13.2 3.2 12.4C3.2 11.6 3.2 10.8 3.2 10C3.4 9.8 3.5 9.6 3.7 9.4C5.9 10.1 8.1 10.7 10.3 11.4C10.2 11.4 10 11.5 9.9 11.7C9.9 11.8 9.8 11.9 9.8 12.1C9.8 12.9 9.8 13.7 9.8 14.5C9.8 15.3 9.8 16.1 9.8 16.9C9.4 16.8 9 16.7 8.8 16.7C7.3 16.4 6.3 16 6 16C5.5 15.8 5.2 15.7 5.1 15.7C4.4 15.4 3.9 15.2 3.7 15.1C3.5 15 3.3 14.9 3.2 14.8Z" fill="white"/>
<path d="M21.6 12.9C21.6 14.6 21.6 16.3 21.6 18C21.9 18 22.3 18 22.8 18C23.8 18 24.5 17.9 24.9 17.9C25.5 17.9 26 17.8 26.2 17.8C27.7 17.7 28.9 17.5 29.3 17.5C29.8 17.4 30.2 17.4 30.5 17.3C30.5 15.6 30.5 13.9 30.5 12.1C29.5 12 28.5 12 27.5 11.9C25.5 12 23.4 12.1 21.4 12.2C21.5 12.4 21.5 12.7 21.6 12.9Z" fill="white"/>
<path d="M39.4 14.5C39.4 13.6 39.4 12.8 39.4 11.9C39.4 11 39.4 10.2 39.4 9.3C40 8.8 40.6 8.3 41.1 7.8C41.3 7.4 41.6 7 41.8 6.6C41.8 8.2 41.8 9.7 41.8 11.2C41.8 11.2 41.8 11.3 41.8 11.4C41.8 11.6 41.7 11.8 41.7 11.9C41.7 11.9 41.7 12 41.6 12.2C41.6 12.2 41.5 12.4 41.4 12.5C41.3 12.6 41.3 12.7 41.3 12.7C41.3 12.7 41.2 12.9 41 13.1C40.9 13.2 40.9 13.2 40.8 13.3C40.8 13.3 40.7 13.4 40.6 13.5C40.6 13.5 40.4 13.7 40.1 13.9C39.9 14 39.8 14.1 39.7 14.2C39.6 14.4 39.5 14.4 39.4 14.5Z" fill="white"/>
<path opacity="0.2" d="M41.8 11.4C41.8 11.5 41.8 11.5 41.8 11.5C41.8 15 32.5 18 21 18C9.6 18 0.399997 15.2 0.199997 11.7V11.6C0.199997 11.5 0.199997 11.5 0.199997 11.4C0.199997 9.8 0.199997 8.2 0.199997 6.6C3.1 6.4 6 6.4 8.9 6.3C12.3 5.6 16.5 5.1 21 5.1C25.6 5.1 29.8 5.5 33.2 6.3C34.6 6.3 35.9 6.4 37.2 6.4C38.7 6.5 40.2 6.5 41.7 6.6L41.8 11.4Z" fill="black"/>
<path d="M21 13.2C32.4875 13.2 41.8 10.2899 41.8 6.7C41.8 3.11015 32.4875 0.200001 21 0.200001C9.51247 0.200001 0.199997 3.11015 0.199997 6.7C0.199997 10.2899 9.51247 13.2 21 13.2Z" fill="#314DEE"/>
<path d="M3.7 9.4C3.6 9.5 3.6 9.6 3.5 9.7C3.4 9.8 3.3 9.9 3.2 10C3.2 10 3.3 10 3.3 10.1C3.3 10.1 3.4 10.1 3.5 10.2C3.6 10.3 3.7 10.3 3.7 10.3C3.8 10.3 3.9 10.4 4.2 10.5C4.3 10.6 4.7 10.7 5.1 10.9C5.2 10.9 5.4 11 5.6 11.1C5.9 11.2 6.1 11.3 6.2 11.3C6.3 11.3 6.4 11.4 6.4 11.4C6.6 11.5 6.7 11.5 6.8 11.5C6.9 11.5 7 11.6 7.1 11.6C7.1 11.6 7.3 11.6 7.4 11.7C7.7 11.8 8.1 11.9 8.1 11.9C8.7 11.9 9.2 12 9.4 12C9.5 12 9.6 12 9.6 12.1C9.6 12 9.8 11.7 9.8 11.6C9.8 11.5 10 11.2 10 11.1C8.3 10.6 6.6 10.1 4.9 9.7C4.7 9.6 4.2 9.5 3.7 9.4Z" fill="white"/>
<path d="M21.5 12.3C21.5 12.6 21.6 12.8 21.6 13.1C21.7 13.1 21.9 13.1 22.1 13.1C22.9 13.1 23.5 13.1 23.9 13C24.8 13 25.5 12.9 25.8 12.9C26.7 12.8 27.3 12.8 27.6 12.7C28.4 12.6 29.1 12.5 29.3 12.5C29.9 12.4 30.3 12.4 30.8 12.3C30.8 12.2 30.7 12 30.6 11.9C30.5 11.7 30.4 11.6 30.4 11.5C27.8 11.6 25.1 11.7 22.4 11.8C22.2 11.8 22 11.8 21.8 11.8C21.5 12 21.5 12.2 21.5 12.3Z" fill="white"/>
<path d="M38.9 9.2C39 9.3 39.1 9.4 39.1 9.5C39.2 9.6 39.3 9.7 39.4 9.8C39.4 9.8 39.5 9.8 39.5 9.7L39.6 9.6L39.7 9.5C39.7 9.5 39.7 9.5 39.8 9.5C39.8 9.5 39.9 9.5 39.9 9.4C40 9.3 40 9.3 40 9.3C40 9.3 40.1 9.3 40.2 9.2C40.3 9.1 40.4 9 40.4 9C40.5 8.9 40.5 8.9 40.6 8.9C40.7 8.9 40.7 8.8 40.8 8.7C40.9 8.6 41 8.5 41 8.5C41.1 8.4 41.2 8.3 41.2 8.3C41.2 8.2 41.3 8.2 41.4 8.1C41.4 8 41.5 8 41.5 7.9C41.5 7.8 41.6 7.8 41.6 7.7C41.6 7.7 41.6 7.6 41.7 7.6C41.7 7.6 41.7 7.6 41.7 7.5C41.7 7.5 41.7 7.5 41.7 7.4C41.7 7.4 41.7 7.4 41.7 7.3V7.2V7.1C41.7 7 41.7 7 41.7 6.9L41.6 6.8L41.5 6.7C41.1 6.7 40.7 6.7 40.3 6.7C39.7 7 39.4 7.2 39.4 7.4C39.4 7.4 39.4 7.5 39.3 7.5C39.1 8 39.1 8 39 8.1C38.9 8.2 38.9 8.2 38.9 8.3C38.9 8.4 38.8 8.5 38.8 8.5C38.8 8.6 38.8 8.7 38.8 8.9C38.9 9 38.9 9.1 38.9 9.2Z" fill="white"/>
<path opacity="0.08" d="M21 13.2C32.4875 13.2 41.8 10.2899 41.8 6.7C41.8 3.11015 32.4875 0.200001 21 0.200001C9.51247 0.200001 0.199997 3.11015 0.199997 6.7C0.199997 10.2899 9.51247 13.2 21 13.2Z" fill="black" stroke="black" stroke-width="0.00276381" stroke-miterlimit="10"/>
<path d="M21 12.4C32.3771 12.4 41.6 9.66894 41.6 6.3C41.6 2.93106 32.3771 0.200001 21 0.200001C9.62294 0.200001 0.400002 2.93106 0.400002 6.3C0.400002 9.66894 9.62294 12.4 21 12.4Z" fill="#314DEE"/>
<path d="M0.400002 6C2.4 6 4.4 6.1 6.4 6.1C6.4 5.9 6.5 5.7 6.6 5.5C7 4.6 7.8 4.3 8.1 4.3C8 4.2 5.6 3.8 5.5 3.8C5.4 3.8 3 3.4 2.9 3.4C2.9 3.4 2.8 3.4 2.8 3.5C2.8 3.5 2.7 3.6 2.6 3.6C2.3 3.8 2 3.9 2 3.9C1.9 4 1.7 4.1 1.5 4.3C1.3 4.5 1.2 4.6 1 4.8C0.900002 5 0.800002 5.1 0.700002 5.3C0.500002 5.6 0.500002 5.8 0.500002 5.8V5.9C0.400002 6 0.400002 6 0.400002 6Z" fill="white"/>
<path d="M11.5 0.900001C11.9 1.2 12.4 1.4 12.8 1.7C13.2 2 13.7 2.2 14.1 2.5C15 2.3 15.8 2.3 16.3 2.2C17.3 2 17.9 2 18.7 2C19.4 2 20.1 2 20.5 2C20.4 1.4 20.4 0.800001 20.4 0.200001C20.2 0.200001 20 0.200001 19.7 0.200001C19.1 0.200001 18.6 0.200001 18.3 0.200001C18 0.200001 17.6 0.200001 17.2 0.300001C17 0.300001 16.8 0.300001 16.5 0.400001C16.2 0.400001 15.9 0.400001 15.7 0.500001C15.3 0.500001 14.8 0.600001 14.4 0.600001C14.1 0.600001 13.8 0.700001 13.6 0.700001C13.1 0.800001 12.8 0.800001 12.6 0.800001C12.4 0.800001 12 0.900001 12 0.900001C11.7 0.900001 11.6 0.900001 11.5 0.900001Z" fill="white"/>
<path d="M32 1.2C31.5 1.5 31 1.7 30.4 2C29.9 2.3 29.4 2.5 28.8 2.7C29.2 2.8 29.8 2.9 30.4 3C30.7 3.1 31.1 3.2 31.6 3.4C32 3.6 32.6 3.8 33.2 4.1C34 3.9 34.9 3.8 35.7 3.6C36.6 3.4 37.5 3.2 38.3 3.1C38.1 3 37.7 2.9 37.4 2.7C36.6 2.4 36 2.2 35.4 2C34.3 1.7 33.5 1.5 32.9 1.4C32.6 1.3 32.3 1.2 32 1.2Z" fill="white"/>
<path d="M39 9.3C38.2 9.2 37.3 9 36.5 8.9C35.7 8.8 34.8 8.6 34 8.5C34.2 8.4 34.4 8.2 34.6 8C34.9 7.7 35.1 7.6 35.3 7.3C35.4 7.2 35.5 6.9 35.5 6.6C36.5 6.6 37.5 6.7 38.6 6.7C39.6 6.7 40.6 6.8 41.6 6.8C41.6 6.8 41.6 6.8 41.6 6.9C41.6 7 41.6 7 41.5 7.1C41.5 7.2 41.4 7.3 41.4 7.4C41.4 7.4 41.3 7.5 41.3 7.6C41.1 7.8 40.9 8 40.8 8.1C40.7 8.2 40.7 8.2 40.6 8.3C40.5 8.4 40.5 8.4 40.4 8.5C40.2 8.6 40 8.8 39.8 8.9C39.5 9 39.2 9.1 39 9.3Z" fill="white"/>
<path d="M21.5 12.3C21.7 12.3 21.8 12.3 22 12.3C22 12.3 22.1 12.3 22.2 12.3C22.7 12.3 23 12.3 23.2 12.3C23.5 12.3 23.8 12.3 24.4 12.3C24.9 12.3 25.2 12.3 25.8 12.2C26.2 12.2 26.5 12.1 26.6 12.1C27.3 12 27.9 12 28.1 12C28.6 11.9 29.1 11.9 29.4 11.8C29.8 11.7 30.1 11.7 30.4 11.7C30 11.4 29.6 11.2 29.3 10.9C28.9 10.6 28.5 10.4 28.1 10.1C27.9 10.1 27.6 10.2 27.3 10.2C26.4 10.3 25.3 10.4 24 10.5C23.5 10.5 22.7 10.6 21.7 10.6C21.5 11.2 21.5 11.8 21.5 12.3Z" fill="white"/>
<path d="M10 11.4C9.9 11.4 9.9 11.4 9.8 11.4C9.7 11.4 9.5 11.3 9 11.2C8.9 11.2 8.8 11.1 8.6 11.1C8.4 11.1 8.2 11 8.1 11C7.2 10.8 6.4 10.5 6.4 10.5C6.1 10.4 6 10.4 5.9 10.3C5.7 10.2 5.3 10.1 4.8 9.9C4.5 9.9 4.4 9.9 4.3 9.8C4.3 9.8 4.1 9.7 3.9 9.6C3.9 9.6 3.8 9.6 3.7 9.5C3.6 9.5 3.6 9.5 3.6 9.4C4.4 9.4 5.2 9.2 6.1 9C6.9 8.8 7.8 8.7 8.6 8.5C9.1 8.7 9.6 8.9 10 9C10.2 9.1 11 9.3 12 9.6C12.5 9.7 12.9 9.8 13.2 9.8C12.7 10.1 12.2 10.3 11.7 10.6C11 10.9 10.5 11.2 10 11.4Z" fill="white"/>
<path d="M21 10.3C28.5663 10.3 34.7 8.50914 34.7 6.3C34.7 4.09086 28.5663 2.3 21 2.3C13.4337 2.3 7.3 4.09086 7.3 6.3C7.3 8.50914 13.4337 10.3 21 10.3Z" fill="#1021BB"/>
<path d="M16.2 9.6C16.1 9.7 15.9 9.9 15.8 10C15.9 10 16 10 16.2 10C16.5 10 16.7 10 16.8 10.1C17.1 10.1 17.2 10.1 17.5 10.2C17.8 10.2 18.1 10.2 18.4 10.3C18.7 10.3 19 10.3 19.2 10.3C19.4 10.3 19.5 10.3 19.6 10.3C19.6 10.2 19.7 10 19.7 9.9C19.5 9.9 19.3 9.9 19.1 9.9C18.9 9.9 18.5 9.9 18 9.8C17.7 9.8 17.3 9.7 16.8 9.7C16.6 9.6 16.4 9.6 16.2 9.6Z" fill="white"/>
<path d="M22.3 10.3C22.3 10.2 22.3 10 22.3 9.9C22.8 9.9 23.1 9.9 23.4 9.9C23.7 9.9 23.9 9.9 24 9.9C24.1 9.9 24.4 9.9 24.6 9.9C24.9 9.9 25.2 9.8 25.7 9.8C25.8 9.9 25.8 9.9 25.9 10C25.9 9.9 26 10 26 10C25.7 10 25.5 10.1 25.3 10.1C24.7 10.2 24.2 10.2 23.9 10.2C23.8 10.2 23.6 10.2 23.2 10.2C22.9 10.3 22.5 10.3 22.3 10.3Z" fill="white"/>
<path d="M27.8 9.3C28 9.4 28.2 9.5 28.4 9.7C28.7 9.6 29 9.6 29.3 9.5C29.6 9.4 29.8 9.4 30 9.3C30.3 9.2 30.6 9.1 30.9 9C31.1 8.9 31.2 8.9 31.3 8.8C31 8.7 30.7 8.6 30.4 8.6C30.1 8.7 29.8 8.8 29.6 8.8C29.5 8.8 29.3 8.9 29 9C28.7 9.1 28.3 9.2 27.8 9.3Z" fill="white"/>
<path d="M31.7 8C31.9 8 32.1 8 32.3 8C32.5 8 32.7 8.1 32.9 8.1C33 8 33.2 7.8 33.4 7.6C33.6 7.3 33.7 7.1 33.8 6.9C33.4 6.9 33.1 6.9 32.7 6.9C32.6 7.1 32.5 7.2 32.5 7.3C32.3 7.5 32.2 7.6 32 7.8C31.9 7.9 31.8 7.9 31.7 8Z" fill="white"/>
<path d="M32.2 5C32.3 5 32.3 5.1 32.4 5.2C32.5 5.3 32.6 5.4 32.8 5.7C32.8 5.8 32.9 6 33 6.2C33.2 6.2 33.3 6.2 33.5 6.2C33.6 6.2 33.8 6.2 33.9 6.2C33.9 6.1 33.9 5.9 33.8 5.8C33.8 5.7 33.7 5.6 33.6 5.5C33.5 5.3 33.3 5.1 33.1 5.1C33.1 5 33.1 5 33.1 5C32.8 5 32.5 5 32.2 5Z" fill="white"/>
<path d="M28.4 3.6C28.5 3.6 28.5 3.5 28.6 3.5C28.7 3.5 28.7 3.4 28.8 3.4C28.9 3.4 29 3.4 29.1 3.5C29.3 3.5 29.4 3.6 29.5 3.6C30 3.7 30.3 3.8 30.6 3.9C30.8 4 31.2 4.1 31.6 4.3C31.5 4.3 31.4 4.4 31.3 4.4C31.2 4.4 31.1 4.5 31.1 4.5C30.7 4.3 30.4 4.2 30.2 4.1C29.9 4 29.7 3.9 29.2 3.8C28.8 3.7 28.6 3.6 28.4 3.6Z" fill="white"/>
<path d="M22.3 2.6C22.3 2.7 22.3 2.7 22.3 2.8V2.9C22.8 2.9 23.4 2.9 24.1 2.9C24.8 3 25.5 3.1 26 3.2V3.1V3C25.4 2.9 24.7 2.8 23.9 2.7C23.5 2.6 22.9 2.6 22.3 2.6Z" fill="white"/>
<path d="M15.8 3C15.9 3.1 16 3.2 16 3.2C16.2 3.2 16.6 3.1 16.9 3.1C17.4 3.1 17.8 3 18.1 3C18.7 3 18.9 3 19.1 3C19.3 3 19.5 3 19.6 3C19.6 2.9 19.6 2.9 19.6 2.8C19.1 2.8 18.6 2.8 18.3 2.8C18 2.8 17.8 2.8 17.5 2.9C17.4 2.9 17.1 2.9 17.1 2.9C16.8 2.8 16.4 2.9 15.8 3Z" fill="white"/>
<path d="M10.5 4.2C10.6 4.2 10.7 4.3 10.8 4.3C10.9 4.3 11 4.4 11 4.4C11.1 4.4 11.2 4.3 11.3 4.3C11.4 4.3 11.8 4 12.5 3.9C12.8 3.8 13.2 3.7 13.6 3.7C13.5 3.6 13.3 3.6 13.2 3.5C12.8 3.6 12.4 3.6 12.2 3.7C12.1 3.7 11.7 3.8 11.3 4C11 4 10.7 4.1 10.5 4.2Z" fill="white"/>
<path d="M8 6.1C8.4 6.1 8.7 6.1 9 6.1C9 6 9 5.9 9.1 5.7C9.2 5.5 9.3 5.4 9.4 5.3C9.5 5.2 9.6 5.1 9.8 5C9.7 5 9.5 5 9.4 5C9.2 5 9 5 8.8 4.9C8.7 5.1 8.5 5.2 8.3 5.5C8.2 5.7 8.1 5.9 8 6.1Z" fill="white"/>
<path d="M8 6.9C8.1 7 8.2 7.3 8.3 7.5C8.6 7.8 8.8 8 9 8.1C9.4 8.1 9.8 8 10.1 8C10 7.9 9.9 7.8 9.7 7.6C9.5 7.5 9.5 7.4 9.4 7.3L9.3 7.2C9.3 7.1 9.2 7.1 9.2 7C9.2 6.9 9.1 6.9 9.1 6.8C8.9 6.8 8.7 6.8 8.5 6.8C8.4 6.9 8.2 6.9 8 6.9Z" fill="white"/>
<path d="M10.5 8.7C10.7 8.8 11 8.9 11.2 9C11.6 9.2 11.9 9.2 12.2 9.3C12.5 9.4 12.9 9.5 13.3 9.6C13.4 9.6 13.5 9.5 13.6 9.4C13.7 9.3 13.8 9.3 14 9.2C13.8 9.2 13.6 9.1 13.4 9.1C13.3 9.1 13.2 9 12.9 9C12.6 8.9 12.3 8.8 11.9 8.7C11.8 8.7 11.6 8.6 11.4 8.5C11.3 8.5 11.1 8.6 11 8.6C10.8 8.7 10.7 8.7 10.5 8.7Z" fill="white"/>
<path d="M21 9.7C27.5722 9.7 32.9 8.17777 32.9 6.3C32.9 4.42223 27.5722 2.9 21 2.9C14.4278 2.9 9.1 4.42223 9.1 6.3C9.1 8.17777 14.4278 9.7 21 9.7Z" fill="#314DEE"/>
<path d="M21 9.5C27.2408 9.5 32.3 8.06731 32.3 6.3C32.3 4.53269 27.2408 3.1 21 3.1C14.7592 3.1 9.7 4.53269 9.7 6.3C9.7 8.06731 14.7592 9.5 21 9.5Z" fill="white"/>
</svg>
