<svg width="54" height="63" viewBox="0 0 54 63" fill="none" xmlns="http://www.w3.org/2000/svg">
<path d="M52 47C52 55.2843 40.5833 62 26.5 62C12.4167 62 1 55.2843 1 47C1 43.0218 3.6866 39.2064 8.46878 36.3934C13.251 33.5804 19.737 32 26.5 32C40.5833 32 52 38.7157 52 47Z" fill="#ECE8DA"/>
<path fill-rule="evenodd" clip-rule="evenodd" d="M52 47C52 55.2843 40.5833 62 26.5 62C12.4167 62 1 55.2843 1 47C1 43.0218 3.6866 39.2064 8.46878 36.3934C13.251 33.5804 19.737 32 26.5 32C40.5833 32 52 38.7157 52 47Z" stroke="#446825" stroke-width="1.5875"/>
<path d="M44 46.5C44 52.299 35.9411 57 26 57C16.0589 57 8 52.299 8 46.5C8 40.701 16.0589 36 26 36C35.9411 36 44 40.701 44 46.5Z" fill="#446825"/>
<path d="M20.328 35H31.0688L33 32.507C30.8307 32.1831 28.5291 32 26.1481 32C23.291 32 20.5661 32.2535 18 32.7183L20.328 35Z" fill="#446825"/>
<path d="M38 36.7648L44.3111 42L49 41.1656C48.1889 39.8732 47.0737 38.6135 45.6797 37.4683C44.0069 36.0777 42.03 34.9162 39.8756 34L38 36.7648Z" fill="#446825"/>
<path d="M46.4665 45.7635L44 52.148L47.8367 54C48.908 52.7978 49.7302 51.4657 50.2783 50.0523C50.926 48.3628 51.1253 46.657 50.926 45L46.4665 45.7635Z" fill="#446825"/>
<path d="M39.0464 56L29 58.7718L29.1083 62C31.4101 61.7972 33.6847 61.3915 35.9323 60.7831C38.6132 60.0394 40.9691 59.0592 43 57.893L39.0464 56Z" fill="#446825"/>
<path d="M21.9744 58.0638L12.8205 55L9 56.9309C10.5897 57.8723 12.3846 58.7181 14.4359 59.3883C16.8718 60.2021 19.4359 60.7287 22 61L21.9744 58.0638Z" fill="#446825"/>
<path d="M8 52.1418L6.16967 45.6786L1.13627 45C0.894016 46.3734 0.974766 47.7953 1.37851 49.2334C1.86301 50.9461 2.80509 52.5458 4.12401 54L8 52.1418Z" fill="#446825"/>
<path d="M7.75221 41L15 36.5603L12.8496 34C10.9115 34.666 9.13274 35.4947 7.51327 36.4863C5.57522 37.6702 4.0885 38.9725 3 40.3636L7.75221 41Z" fill="#446825"/>
<path d="M52 39C52 47.2843 40.5833 54 26.5 54C12.4167 54 1 47.2843 1 39C1 35.0218 3.6866 31.2064 8.46878 28.3934C13.251 25.5804 19.737 24 26.5 24C40.5833 24 52 30.7157 52 39Z" fill="#ECE8DA"/>
<path fill-rule="evenodd" clip-rule="evenodd" d="M52 39C52 47.2843 40.5833 54 26.5 54C12.4167 54 1 47.2843 1 39C1 35.0218 3.6866 31.2064 8.46878 28.3934C13.251 25.5804 19.737 24 26.5 24C40.5833 24 52 30.7157 52 39Z" stroke="#446825" stroke-width="1.5875"/>
<path d="M44 38.5C44 44.299 35.9411 49 26 49C16.0589 49 8 44.299 8 38.5C8 32.701 16.0589 28 26 28C35.9411 28 44 32.701 44 38.5Z" fill="#446825"/>
<path d="M20.328 27H31.0688L33 24.507C30.8307 24.1831 28.5291 24 26.1481 24C23.291 24 20.5661 24.2535 18 24.7183L20.328 27Z" fill="#446825"/>
<path d="M38 28.7648L44.3111 34L49 33.1656C48.1889 31.8732 47.0737 30.6135 45.6797 29.4683C44.0069 28.0777 42.03 26.9162 39.8756 26L38 28.7648Z" fill="#446825"/>
<path d="M46.4665 37.7635L44 44.148L47.8367 46C48.908 44.7978 49.7302 43.4657 50.2783 42.0523C50.926 40.3628 51.1253 38.657 50.926 37L46.4665 37.7635Z" fill="#446825"/>
<path d="M39.0464 48L29 50.7718L29.1083 54C31.4101 53.7972 33.6847 53.3915 35.9323 52.7831C38.6132 52.0394 40.9691 51.0592 43 49.893L39.0464 48Z" fill="#446825"/>
<path d="M21.9744 50.0638L12.8205 47L9 48.9309C10.5897 49.8723 12.3846 50.7181 14.4359 51.3883C16.8718 52.2021 19.4359 52.7287 22 53L21.9744 50.0638Z" fill="#446825"/>
<path d="M8 44.1418L6.16967 37.6786L1.13627 37C0.894016 38.3734 0.974766 39.7953 1.37851 41.2334C1.86301 42.9461 2.80509 44.5458 4.12401 46L8 44.1418Z" fill="#446825"/>
<path d="M7.75221 33L15 28.5603L12.8496 26C10.9115 26.666 9.13274 27.4947 7.51327 28.4863C5.57522 29.6702 4.0885 30.9725 3 32.3636L7.75221 33Z" fill="#446825"/>
<path d="M52.9845 31.8899C52.6954 40.1692 41.0512 46.4824 26.9765 45.9909C12.9018 45.4994 1.72642 38.3893 2.01554 30.1101C2.15438 26.1342 4.97249 22.415 9.84993 19.7706C14.7274 17.1261 21.2646 15.7731 28.0235 16.0091C42.0982 16.5006 53.2736 23.6107 52.9845 31.8899Z" fill="#ECE8DA"/>
<path fill-rule="evenodd" clip-rule="evenodd" d="M52.9845 31.8899C52.6954 40.1692 41.0512 46.4824 26.9765 45.9909C12.9018 45.4994 1.72642 38.3893 2.01554 30.1101C2.15438 26.1342 4.97249 22.415 9.84993 19.7706C14.7274 17.1261 21.2646 15.7731 28.0235 16.0091C42.0982 16.5006 53.2736 23.6107 52.9845 31.8899Z" stroke="#446825" stroke-width="1.5875"/>
<path d="M45.0068 31.111C44.8044 36.9065 36.5864 41.3234 26.6513 40.9765C16.7162 40.6295 8.82635 35.6501 9.02873 29.8547C9.23111 24.0592 17.4491 19.6423 27.3842 19.9892C37.3193 20.3362 45.2092 25.3156 45.0068 31.111Z" fill="#446825"/>
<path d="M21.7506 18.7919L32.4848 19.1668L34.5018 16.7427C32.3452 16.3433 30.0514 16.08 27.6719 15.9969C24.8165 15.8971 22.0844 16.0554 19.5036 16.4304L21.7506 18.7919Z" fill="#446825"/>
<path d="M39.3502 21.1724L45.4747 26.6247L50.1899 25.9544C49.4244 24.6345 48.3539 23.3366 47.0007 22.1435C45.3774 20.6954 43.4422 19.4655 41.3211 18.4747L39.3502 21.1724Z" fill="#446825"/>
<path d="M47.4975 30.4611L44.8097 36.7556L48.5794 38.7404C49.692 37.5763 50.5602 36.2737 51.1573 34.8803C51.8636 33.2145 52.1223 31.5167 51.9809 29.8537L47.4975 30.4611Z" fill="#446825"/>
<path d="M39.7247 40.4324L29.5877 42.8519L29.5832 46.0819C31.8907 45.9595 34.1781 45.6335 36.4455 45.1039C39.1507 44.4542 41.5394 43.5568 43.6098 42.4622L39.7247 40.4324Z" fill="#446825"/>
<path d="M22.591 41.8992L13.5497 38.5177L9.66409 40.3141C11.22 41.3105 12.9843 42.2183 15.0109 42.9597C17.4169 43.8581 19.9611 44.4738 22.5142 44.8344L22.591 41.8992Z" fill="#446825"/>
<path d="M8.83183 35.4931L7.22818 28.9699L2.22152 28.1161C1.93149 29.4802 1.96257 30.904 2.31588 32.3553C2.74031 34.0839 3.62599 35.7155 4.89335 37.2148L8.83183 35.4931Z" fill="#446825"/>
<path d="M8.97304 24.3494L16.3714 20.1653L14.3116 17.5315C12.3515 18.1294 10.5449 18.8956 8.89177 19.83C6.91358 20.9456 5.38231 22.1952 4.24593 23.5475L8.97304 24.3494Z" fill="#446825"/>
<path d="M52.9845 24.8899C52.6954 33.1692 41.0512 39.4824 26.9765 38.9909C12.9018 38.4994 1.72642 31.3893 2.01554 23.1101C2.15438 19.1342 4.97249 15.415 9.84993 12.7706C14.7274 10.1261 21.2646 8.77311 28.0235 9.00914C42.0982 9.50064 53.2736 16.6107 52.9845 24.8899Z" fill="#ECE8DA"/>
<path fill-rule="evenodd" clip-rule="evenodd" d="M52.9845 24.8899C52.6954 33.1692 41.0512 39.4824 26.9765 38.9909C12.9018 38.4994 1.72642 31.3893 2.01554 23.1101C2.15438 19.1342 4.97249 15.415 9.84993 12.7706C14.7274 10.1261 21.2646 8.77311 28.0235 9.00914C42.0982 9.50064 53.2736 16.6107 52.9845 24.8899Z" stroke="#446825" stroke-width="1.5875"/>
<path d="M45.0068 24.111C44.8044 29.9065 36.5864 34.3234 26.6513 33.9765C16.7162 33.6295 8.82635 28.6501 9.02873 22.8547C9.23111 17.0592 17.4491 12.6423 27.3842 12.9892C37.3193 13.3362 45.2092 18.3156 45.0068 24.111Z" fill="#446825"/>
<path d="M21.7506 11.7919L32.4848 12.1668L34.5018 9.74272C32.3452 9.34327 30.0514 9.07995 27.6719 8.99686C24.8165 8.89715 22.0844 9.05542 19.5036 9.43037L21.7506 11.7919Z" fill="#446825"/>
<path d="M39.3502 14.1724L45.4747 19.6247L50.1899 18.9544C49.4244 17.6345 48.3539 16.3366 47.0007 15.1435C45.3774 13.6954 43.4422 12.4655 41.3211 11.4747L39.3502 14.1724Z" fill="#446825"/>
<path d="M47.4975 23.4611L44.8097 29.7556L48.5794 31.7404C49.692 30.5763 50.5602 29.2737 51.1573 27.8803C51.8636 26.2145 52.1223 24.5167 51.9809 22.8537L47.4975 23.4611Z" fill="#446825"/>
<path d="M39.7247 33.4324L29.5877 35.8519L29.5832 39.0819C31.8907 38.9595 34.1781 38.6335 36.4455 38.1039C39.1507 37.4542 41.5394 36.5568 43.6098 35.4622L39.7247 33.4324Z" fill="#446825"/>
<path d="M22.591 34.8992L13.5497 31.5177L9.66409 33.3141C11.22 34.3105 12.9843 35.2183 15.0109 35.9597C17.4169 36.8581 19.9611 37.4738 22.5142 37.8344L22.591 34.8992Z" fill="#446825"/>
<path d="M8.83183 28.4931L7.22818 21.9699L2.22152 21.1161C1.93149 22.4802 1.96257 23.904 2.31588 25.3553C2.74031 27.0839 3.62599 28.7155 4.89335 30.2148L8.83183 28.4931Z" fill="#446825"/>
<path d="M8.97304 17.3494L16.3714 13.1653L14.3116 10.5315C12.3515 11.1294 10.5449 11.8956 8.89177 12.83C6.91358 13.9456 5.38231 15.1952 4.24593 16.5475L8.97304 17.3494Z" fill="#446825"/>
<path d="M52.9845 16.8899C52.6954 25.1692 41.0512 31.4824 26.9765 30.9909C12.9018 30.4994 1.72642 23.3893 2.01554 15.1101C2.15438 11.1342 4.97249 7.41502 9.84993 4.77058C14.7274 2.12614 21.2646 0.773113 28.0235 1.00914C42.0982 1.50064 53.2736 8.61071 52.9845 16.8899Z" fill="#ECE8DA"/>
<path fill-rule="evenodd" clip-rule="evenodd" d="M52.9845 16.8899C52.6954 25.1692 41.0512 31.4824 26.9765 30.9909C12.9018 30.4994 1.72642 23.3893 2.01554 15.1101C2.15438 11.1342 4.97249 7.41502 9.84993 4.77058C14.7274 2.12614 21.2646 0.773113 28.0235 1.00914C42.0982 1.50064 53.2736 8.61071 52.9845 16.8899Z" stroke="#446825" stroke-width="1.5875"/>
<path d="M45.0068 16.111C44.8044 21.9065 36.5864 26.3234 26.6513 25.9765C16.7162 25.6295 8.82635 20.6501 9.02873 14.8547C9.23111 9.0592 17.4491 4.6423 27.3842 4.98924C37.3193 5.33618 45.2092 10.3156 45.0068 16.111Z" fill="#446825"/>
<path d="M21.7506 3.79191L32.4848 4.16676L34.5018 1.74272C32.3452 1.34327 30.0514 1.07995 27.6719 0.99686C24.8165 0.897147 22.0844 1.05542 19.5036 1.43037L21.7506 3.79191Z" fill="#446825"/>
<path d="M39.3502 6.17241L45.4747 11.6247L50.1899 10.9544C49.4244 9.63449 48.3539 8.33663 47.0007 7.14348C45.3774 5.69535 43.4422 4.46551 41.3211 3.47473L39.3502 6.17241Z" fill="#446825"/>
<path d="M47.4975 15.4611L44.8097 21.7556L48.5794 23.7404C49.692 22.5763 50.5602 21.2737 51.1573 19.8803C51.8636 18.2145 52.1223 16.5167 51.9809 14.8537L47.4975 15.4611Z" fill="#446825"/>
<path d="M39.7247 25.4324L29.5877 27.8519L29.5832 31.0819C31.8907 30.9595 34.1781 30.6335 36.4455 30.1039C39.1507 29.4542 41.5394 28.5568 43.6098 27.4622L39.7247 25.4324Z" fill="#446825"/>
<path d="M22.591 26.8992L13.5497 23.5177L9.66409 25.3141C11.22 26.3105 12.9843 27.2183 15.0109 27.9597C17.4169 28.8581 19.9611 29.4738 22.5142 29.8344L22.591 26.8992Z" fill="#446825"/>
<path d="M8.83183 20.4931L7.22818 13.9699L2.22152 13.1161C1.93149 14.4802 1.96257 15.904 2.31588 17.3553C2.74031 19.0839 3.62599 20.7155 4.89335 22.2148L8.83183 20.4931Z" fill="#446825"/>
<path d="M8.97304 9.34936L16.3714 5.16526L14.3116 2.53152C12.3515 3.12944 10.5449 3.89561 8.89177 4.83003C6.91358 5.9456 5.38231 7.19525 4.24593 8.54753L8.97304 9.34936Z" fill="#446825"/>
</svg>
