<svg height="35" viewBox="0 0 53 35" width="53" xmlns="http://www.w3.org/2000/svg"><g fill="none" fill-rule="evenodd" transform="translate(1)"><path d="m51 17.5c0 9.1126984-11.4167388 16.5-25.5 16.5-14.0832596 0-25.5-7.3873009-25.5-16.5 0-4.3760715 2.68659938-8.57291131 7.46877731-11.66726174 4.78217789-3.09435042 11.26820309-4.83273826 18.03122269-4.83273826 14.0832623 0 25.5 7.38730261 25.5 16.5z" fill="#ece8da" fill-rule="nonzero"/><path d="m51 17.5c0 9.1126984-11.4167388 16.5-25.5 16.5-14.0832596 0-25.5-7.3873009-25.5-16.5 0-4.3760715 2.68659938-8.57291131 7.46877731-11.66726174 4.78217789-3.09435042 11.26820309-4.83273826 18.03122269-4.83273826 14.0832623 0 25.5 7.38730261 25.5 16.5z" stroke="#000" stroke-width="1.5875"/><g fill="#757f9a" fill-rule="nonzero"><path d="m43 17.5c0 6.3512746-8.0588745 11.5-18 11.5s-18-5.1487254-18-11.5 8.0588745-11.5 18-11.5 18 5.1487254 18 11.5z"/><path d="m19.3280423 4h10.7407408l1.9312169-3.32394366c-2.1693122-.43192488-4.4708995-.67605634-6.8518519-.67605634-2.8571428 0-5.5820105.33802817-8.1481481.95774648z"/><path d="m37 5.76482618 6.3110599 5.23517382 4.6889401-.8343558c-.8110599-1.29243357-1.9262673-2.55214727-3.3202765-3.69734154-1.6728111-1.39059305-3.6497696-2.55214724-5.8041475-3.46830266z"/><path d="m45.4664602 15.8483755-2.4664602 7.0938628 3.8367159 2.0577617c1.0712908-1.3357401 1.8934442-2.8158845 2.4415465-4.3862816.6477572-1.8772563.8470672-3.7725632.6477572-5.6137184z"/><path d="m38.0464217 27-10.0464217 2.771831.1083172 3.228169c2.3017408-.2028169 4.5764023-.6084507 6.8239845-1.2169014 2.6808511-.743662 5.0367505-1.7239437 7.0676983-2.8901409z"/><path d="m20.974359 29.5744681-9.1538462-3.5744681-3.8205128 2.2526596c1.58974359 1.0984042 3.3846154 2.0851064 5.4358974 2.8670213 2.4358975.949468 5 1.5638297 7.5641026 1.8803191z"/><path d="m7 22.935368-1.83032925-7.1813285-5.03340543-.7540395c-.24224946 1.5260323-.16149964 3.1059246.24224946 4.7037702.48449892 1.9030521 1.42658015 3.6804309 2.74549387 5.2962298z"/><path d="m6.75221239 11 7.24778761-5.07399577-2.1504425-2.92600423c-1.93805308.76109937-3.71681414 1.70824524-5.33628316 2.84143763-1.9380531 1.35306554-3.42477876 2.84143763-4.51327434 4.43128967z"/></g></g></svg>