<svg width="101" height="101" viewBox="0 0 101 101" fill="none" xmlns="http://www.w3.org/2000/svg">
<path d="M50.5007 0.000610352C22.61 0.000610352 0 22.6084 0 50.5011C0 78.3896 22.6098 100.999 50.5007 100.999C78.3902 100.999 101 78.3896 101 50.5011C101 22.6082 78.3902 0.000610352 50.5007 0.000610352Z" fill="#EDC92F"/>
<path d="M50.5005 15.8517C31.3643 15.8517 15.8513 31.3632 15.8513 50.5007C15.8513 69.6355 31.3643 85.1483 50.5005 85.1483C69.6357 85.1483 85.1487 69.6355 85.1487 50.5007C85.1487 31.363 69.6359 15.8517 50.5005 15.8517Z" fill="white"/>
<path d="M50.5005 18.5996C32.8821 18.5996 18.5992 32.8808 18.5992 50.5007C18.5992 68.1177 32.8821 82.4005 50.5005 82.4005C68.1183 82.4005 82.4008 68.1179 82.4008 50.5007C82.4008 32.8808 68.1183 18.5996 50.5005 18.5996Z" fill="#EDC92F"/>
<path d="M50.5007 0.000610352C47.3005 0.000610352 44.1711 0.301681 41.1362 0.870642V13.3495H59.864V0.870439C56.8295 0.301478 53.7005 0.000610352 50.5007 0.000610352Z" fill="#F0F2F2"/>
<path d="M41.1362 87.4468V100.129C44.1711 100.698 47.3007 100.999 50.5007 100.999C53.7003 100.999 56.8293 100.698 59.864 100.129V87.4468H41.1362V87.4468Z" fill="#F0F2F2"/>
<path d="M87.9837 16.6606L77.2974 23.1549L87.0237 39.1591L97.7477 32.6418C95.5001 26.6988 92.1657 21.2901 87.9837 16.6606Z" fill="#F0F2F2"/>
<path d="M13.9767 61.6371L3.18964 68.1926C5.41662 74.1444 8.7339 79.5633 12.8996 84.2068L23.703 77.6412L13.9767 61.6371Z" fill="#F0F2F2"/>
<path d="M87.0487 61.5547L77.3587 77.5809L88.1765 84.1216C92.3312 79.4691 95.6373 74.0437 97.8511 68.086L87.0487 61.5547Z" fill="#F0F2F2"/>
<path d="M12.941 16.746C8.76953 21.3844 5.44615 26.7996 3.21204 32.7485L13.9515 39.2418L23.6415 23.2156L12.941 16.746Z" fill="#F0F2F2"/>
</svg>
