<svg width="63" height="88" viewBox="0 0 63 88" fill="none" xmlns="http://www.w3.org/2000/svg">
<g clip-path="url(#clip0)">
<path d="M59.9867 1.52588e-05H3.01345C1.34916 1.52588e-05 0 1.34747 0 3.00964V84.9904C0 86.6526 1.34916 88 3.01345 88H59.9867C61.651 88 63.0001 86.6526 63.0001 84.9904V3.00964C63.0001 1.34747 61.651 1.52588e-05 59.9867 1.52588e-05Z" fill="white"/>
<path d="M31.4988 9.34445C28.7278 9.40453 27.4853 12.5204 29.5375 14.94C29.8351 15.2929 29.8658 15.4955 29.3207 15.1565C27.9391 14.2337 25.2898 14.8403 25.1541 17.6614C24.9865 21.1373 29.8495 22.1388 30.7625 18.4427C30.8107 18.0527 31.1281 18.0616 31.0516 18.6152C30.9683 20.1176 30.4985 21.5218 29.8528 22.8911C30.9411 22.8911 32.1574 22.8911 33.147 22.8911C32.5013 21.5218 32.0315 20.1176 31.9482 18.6152C31.8717 18.0616 32.189 18.0527 32.2372 18.4427C33.1503 22.1388 38.0133 21.1373 37.8457 17.6614C37.71 14.8403 35.0607 14.2337 33.679 15.1565C33.1339 15.4955 33.1646 15.2929 33.4623 14.94C35.5145 12.5204 34.272 9.40456 31.501 9.34445C31.501 9.34442 31.501 9.34445 31.4982 9.34445H31.4988Z" fill="black"/>
<path d="M31.4988 78.89C28.7278 78.8299 27.4853 75.7141 29.5375 73.2945C29.8351 72.9415 29.8658 72.739 29.3208 73.078C27.9391 74.0008 25.2898 73.3942 25.1541 70.5731C24.9865 67.0972 29.8495 66.0956 30.7625 69.7918C30.8107 70.1817 31.1281 70.1728 31.0516 69.6193C30.9683 68.1169 30.4985 66.7127 29.8528 65.3433C30.9411 65.3433 32.1574 65.3433 33.147 65.3433C32.5013 66.7127 32.0315 68.1169 31.9482 69.6193C31.8717 70.1728 32.189 70.1817 32.2372 69.7918C33.1503 66.0956 38.0133 67.0972 37.8457 70.5731C37.71 73.3942 35.0607 74.0008 33.679 73.078C33.1339 72.739 33.1646 72.9415 33.4623 73.2945C35.5145 75.7141 34.272 78.8299 31.501 78.89C31.501 78.89 31.501 78.89 31.4982 78.89H31.4988Z" fill="black"/>
<path d="M58.1415 73.8964C59.2499 73.8713 59.7469 72.5731 58.926 71.5649C58.807 71.4178 58.7947 71.3334 59.0127 71.4747C59.5654 71.8592 60.6251 71.6064 60.6794 70.431C60.7464 68.9827 58.8012 68.5654 58.436 70.1054C58.4168 70.2679 58.2898 70.2642 58.3204 70.0336C58.3537 69.4076 58.5416 68.8225 58.7999 68.2519C58.3607 68.2519 57.9215 68.2519 57.4823 68.2519C57.7406 68.8225 57.9285 69.4076 57.9618 70.0336C57.9924 70.2642 57.8655 70.2679 57.8462 70.1054C57.481 68.5654 55.5358 68.9827 55.6028 70.431C55.6571 71.6064 56.7168 71.8592 57.2695 71.4747C57.4875 71.3334 57.4752 71.4178 57.3562 71.5649C56.5353 72.5731 57.0323 73.8713 58.1407 73.8964C58.1409 73.8964 58.1407 73.8964 58.1407 73.8964H58.1415Z" fill="black"/>
<path d="M4.85857 14.1034C3.7502 14.1283 3.25317 15.4267 4.07405 16.4349C4.19312 16.582 4.20539 16.6664 3.98734 16.5251C3.43467 16.1406 2.37495 16.3934 2.32068 17.5688C2.25365 19.0171 4.19885 19.4344 4.56408 17.8944C4.58327 17.7319 4.71028 17.7356 4.67966 17.9662C4.64636 18.5922 4.45846 19.1773 4.20017 19.7479C4.63936 19.7479 5.07859 19.7479 5.51779 19.7479C5.2595 19.1773 5.0716 18.5922 5.03829 17.9662C5.00767 17.7356 5.13462 17.7319 5.15389 17.8944C5.51912 19.4344 7.46431 19.0171 7.39728 17.5688C7.34301 16.3934 6.28329 16.1406 5.73061 16.5251C5.51257 16.6664 5.52484 16.582 5.64391 16.4349C6.46478 15.4267 5.96776 14.1285 4.85942 14.1034C4.85913 14.1034 4.85942 14.1034 4.85942 14.1034H4.85857Z" fill="black"/>
<path d="M2.06682 13.1986L2.1122 12.6243C2.25552 10.8496 2.63686 10.2509 4.79982 8.39818C5.84991 7.50012 6.19426 7.05699 6.24252 6.54291C6.38004 5.33036 5.30708 4.95193 4.60824 4.94638C3.70256 4.93817 2.67786 5.48927 3.16698 6.77022L2.15065 7.0744C1.94638 5.87954 2.15656 4.75862 3.10749 4.2612C4.37746 3.61258 6.00592 3.86686 6.82815 4.88873C7.38077 5.5743 7.50703 6.52298 7.21059 7.26546C6.34448 9.1621 3.40649 9.99657 3.16409 12.1911H6.41122V10.9693H7.36808V13.2185L2.06682 13.1987V13.1986Z" fill="black"/>
<path d="M60.7913 74.8012L60.7459 75.3755C60.6026 77.1502 60.2213 77.7489 58.0583 79.6016C57.0082 80.4997 56.6639 80.9428 56.6156 81.4569C56.4781 82.6694 57.551 83.0479 58.2499 83.0534C59.1556 83.0616 60.1803 82.5105 59.6911 81.2296L60.7075 80.9254C60.9118 82.1202 60.7016 83.2412 59.7506 83.7386C58.4807 84.3872 56.8522 84.1329 56.03 83.1111C55.4774 82.4255 55.3511 81.4768 55.6475 80.7344C56.5137 78.8377 59.4516 78.0032 59.694 75.8087H56.4469V77.0305H55.4901V74.7813L60.7913 74.8013V74.8012Z" fill="black"/>
</g>
<defs>
<clipPath id="clip0">
<rect width="63.0001" height="88" fill="white"/>
</clipPath>
</defs>
</svg>
