<svg width="63" height="88" viewBox="0 0 63 88" fill="none" xmlns="http://www.w3.org/2000/svg">
<g clip-path="url(#clip0)">
<path d="M59.9867 3.05176e-05H3.01347C1.34918 3.05176e-05 0 1.34749 0 3.00966V84.9907C0 86.6529 1.34918 88.0003 3.01347 88.0003H59.9867C61.651 88.0003 63.0002 86.6529 63.0002 84.9907V3.00966C63.0002 1.34749 61.651 3.05176e-05 59.9867 3.05176e-05Z" fill="white"/>
<path d="M31.5001 22.774C30.0365 20.3568 28.4965 18.0075 26.5722 16.0006C28.4965 13.9938 30.0365 11.6445 31.5001 9.22728C32.9638 11.6445 34.5036 13.9938 36.428 16.0006C34.5036 18.0075 32.9638 20.3568 31.5001 22.774Z" fill="#C8102E"/>
<path d="M4.85913 19.7481C4.24927 18.741 3.60764 17.7621 2.80585 16.9259C3.60764 16.0897 4.24927 15.1108 4.85913 14.1036C5.46899 15.1108 6.11059 16.0897 6.91241 16.9259C6.11059 17.7621 5.46899 18.741 4.85913 19.7481Z" fill="#C8102E"/>
<path d="M58.1413 73.8967C57.5314 72.8896 56.8898 71.9107 56.088 71.0745C56.8898 70.2383 57.5314 69.2594 58.1413 68.2523C58.7512 69.2594 59.3928 70.2383 60.1946 71.0745C59.3928 71.9107 58.7512 72.8896 58.1413 73.8967Z" fill="#C8102E"/>
<path d="M31.5001 50.7735C30.0365 48.3563 28.4965 46.007 26.5722 44.0002C28.4965 41.9933 30.0365 39.644 31.5001 37.2268C32.9638 39.644 34.5036 41.9933 36.428 44.0002C34.5036 46.007 32.9638 48.3563 31.5001 50.7735Z" fill="#C8102E"/>
<path d="M31.5001 78.7731C30.0365 76.3559 28.4965 74.0066 26.5722 71.9997C28.4965 69.9929 30.0365 67.6436 31.5001 65.2264C32.9638 67.6436 34.5036 69.9929 36.428 71.9997C34.5036 74.0066 32.9638 76.3559 31.5001 78.7731Z" fill="#C8102E"/>
<path d="M1.83606 11.1772L2.55307 10.6499C3.17535 11.6632 3.87128 12.3306 4.93588 12.216C6.53315 12.1062 7.19498 10.4318 6.8608 9.17022C6.53751 8.03834 5.2149 7.48699 4.16337 8.09044C3.91518 8.23344 3.67571 8.35022 3.62889 8.35022C3.5186 8.35022 3.26895 7.85357 3.30307 7.70204C4.0088 6.67139 5.72255 4.86581 5.72255 4.86581H3.04507V6.07497H2.0175V3.90538H7.25049V4.6415C7.25049 4.6415 5.84844 6.09566 5.38509 6.89201C6.52626 6.93378 7.44608 7.65697 7.77628 8.80031C7.96896 9.40232 7.88259 10.7792 7.6304 11.3727C7.20915 12.362 6.05853 13.1646 5.00666 13.2108C3.24065 13.3294 2.30379 12.0922 1.83606 11.1772V11.1772Z" fill="#C8102E"/>
<path d="M61.1635 76.8232L60.4465 77.3505C59.8242 76.3372 59.1283 75.6698 58.0637 75.7844C56.4664 75.8941 55.8046 77.5685 56.1388 78.8301C56.4621 79.9621 57.7847 80.5134 58.8362 79.91C59.0844 79.7669 59.3238 79.6502 59.3707 79.6502C59.481 79.6502 59.7306 80.1468 59.6965 80.2983C58.9908 81.329 57.277 83.1346 57.277 83.1346H59.9545V81.9254H60.9821V84.095H55.7491V83.3589C55.7491 83.3589 57.1511 81.9047 57.6145 81.1084C56.4733 81.0666 55.5535 80.3434 55.2233 79.2001C55.0306 78.5981 55.117 77.2212 55.3692 76.6277C55.7904 75.6384 56.9411 74.8358 57.9929 74.7896C59.7589 74.671 60.6958 75.9082 61.1635 76.8232V76.8232Z" fill="#C8102E"/>
</g>
<defs>
<clipPath id="clip0">
<rect width="63.0002" height="88.0003" fill="white"/>
</clipPath>
</defs>
</svg>
