<svg width="63" height="88" viewBox="0 0 63 88" fill="none" xmlns="http://www.w3.org/2000/svg">
<g clip-path="url(#clip0)">
<path d="M59.9867 3.05176e-05H3.01345C1.34917 3.05176e-05 0 1.34749 0 3.00967V84.9907C0 86.6529 1.34917 88.0003 3.01345 88.0003H59.9867C61.651 88.0003 63.0002 86.6529 63.0002 84.9907V3.00967C63.0002 1.34749 61.651 3.05176e-05 59.9867 3.05176e-05Z" fill="white"/>
<path d="M4.85849 19.7492C4.85849 19.7492 4.23063 18.849 3.38368 17.7905C2.81706 17.0822 2.36409 16.3153 2.32196 15.6547C2.27367 14.9001 2.7309 14.143 3.55869 14.1063C4.38599 14.0696 4.72178 14.6881 4.85849 15.1981C4.9952 14.6881 5.33102 14.0696 6.1583 14.1063C6.98609 14.143 7.44334 14.9001 7.39503 15.6547C7.35292 16.3153 6.89993 17.0822 6.33333 17.7905C5.48635 18.849 4.85849 19.7492 4.85849 19.7492V19.7492Z" fill="#C8102E"/>
<path d="M58.1407 68.2534C58.1407 68.2534 57.5128 69.1536 56.6659 70.212C56.0993 70.9203 55.6463 71.6873 55.6042 72.3479C55.5559 73.1025 56.0131 73.8596 56.8409 73.8963C57.6682 73.9329 58.004 73.3144 58.1407 72.8045C58.2774 73.3144 58.6132 73.9329 59.4405 73.8963C60.2683 73.8596 60.7255 73.1025 60.6772 72.3479C60.6351 71.6873 60.1821 70.9203 59.6155 70.212C58.7686 69.1536 58.1407 68.2534 58.1407 68.2534V68.2534Z" fill="#C8102E"/>
<path d="M31.4995 22.775C31.4995 22.775 30.1825 20.6145 28.406 18.0743C27.2176 16.3744 26.2675 14.5337 26.1791 12.9482C26.0778 11.1371 27.0369 9.32013 28.7732 9.23207C30.5084 9.14406 31.2128 10.6285 31.4995 11.8524C31.7862 10.6285 32.4905 9.14406 34.2258 9.23207C35.9621 9.32013 36.9211 11.1371 36.8198 12.9482C36.7315 14.5337 35.7814 16.3744 34.5929 18.0743C32.8164 20.6145 31.4995 22.775 31.4995 22.775V22.775Z" fill="#C8102E"/>
<path d="M31.4995 50.7746C31.4995 50.7746 30.1825 48.6141 28.406 46.0738C27.2176 44.3739 26.2675 42.5332 26.1791 40.9478C26.0778 39.1367 27.0369 37.3197 28.7732 37.2316C30.5084 37.1436 31.2128 38.6281 31.4995 39.852C31.7862 38.6281 32.4905 37.1436 34.2258 37.2316C35.9621 37.3197 36.9211 39.1367 36.8198 40.9478C36.7315 42.5332 35.7814 44.3739 34.5929 46.0738C32.8164 48.6141 31.4995 50.7746 31.4995 50.7746V50.7746Z" fill="#C8102E"/>
<path d="M31.4995 65.2274C31.4995 65.2274 30.1825 67.388 28.406 69.9282C27.2176 71.6281 26.2675 73.4688 26.1791 75.0543C26.0778 76.8654 27.0369 78.6824 28.7732 78.7704C30.5084 78.8584 31.2128 77.374 31.4995 76.1501C31.7862 77.374 32.4905 78.8584 34.2258 78.7704C35.9621 78.6824 36.9211 76.8654 36.8198 75.0543C36.7315 73.4688 35.7814 71.6281 34.5929 69.9282C32.8164 67.388 31.4995 65.2274 31.4995 65.2274V65.2274Z" fill="#C8102E"/>
<path d="M1.83612 11.1785L2.55313 10.6511C3.17541 11.6644 3.87136 12.3318 4.93596 12.2172C6.53323 12.1075 7.19506 10.4331 6.86088 9.1715C6.53759 8.03958 5.215 7.48825 4.16346 8.0917C3.91527 8.23473 3.67579 8.35146 3.62897 8.35146C3.51868 8.35146 3.26903 7.85483 3.30315 7.70333C4.00888 6.67265 5.72261 4.86704 5.72261 4.86704H3.04515V6.07621H2.01757V3.90662H7.25059V4.64273C7.25059 4.64273 5.84852 6.0969 5.38517 6.89325C6.52633 6.93502 7.44614 7.65822 7.77634 8.8016C7.96902 9.40358 7.88267 10.7805 7.63048 11.374C7.20923 12.3632 6.05859 13.1659 5.00672 13.2121C3.24071 13.3307 2.30385 12.0935 1.83612 11.1785V11.1785Z" fill="#C8102E"/>
<path d="M61.1636 76.8244L60.4466 77.3517C59.8243 76.3384 59.1283 75.671 58.0637 75.7856C56.4664 75.8954 55.8046 77.5697 56.1388 78.8314C56.4621 79.9633 57.7847 80.5146 58.8362 79.9112C59.0844 79.7682 59.3239 79.6514 59.3707 79.6514C59.481 79.6514 59.7306 80.1481 59.6965 80.2996C58.9908 81.3302 57.2771 83.1358 57.2771 83.1358H59.9545V81.9266H60.9821V84.0962H55.7491V83.3601C55.7491 83.3601 57.1512 81.906 57.6145 81.1096C56.4733 81.0678 55.5535 80.3446 55.2233 79.2013C55.0307 78.5993 55.117 77.2224 55.3692 76.6289C55.7904 75.6396 56.9411 74.837 57.993 74.7908C59.759 74.6722 60.6958 75.9094 61.1636 76.8244V76.8244Z" fill="#C8102E"/>
</g>
<defs>
<clipPath id="clip0">
<rect width="63.0002" height="88.0003" fill="white"/>
</clipPath>
</defs>
</svg>
