<svg width="63" height="88" viewBox="0 0 63 88" fill="none" xmlns="http://www.w3.org/2000/svg">
<g clip-path="url(#clip0)">
<path d="M59.9867 0H3.01343C1.34914 0 -1.52588e-05 1.34745 -1.52588e-05 3.00962V84.9904C-1.52588e-05 86.6526 1.34914 88 3.01343 88H59.9867C61.6509 88 63.0001 86.6526 63.0001 84.9904V3.00962C63.0001 1.34745 61.6509 0 59.9867 0Z" fill="white"/>
<path d="M46.1085 9.34459C43.3376 9.40467 42.0951 12.5205 44.1473 14.9401C44.4449 15.2931 44.4756 15.4956 43.9305 15.1566C42.5488 14.2338 39.8995 14.8404 39.7639 17.6615C39.5963 21.1374 44.4592 22.139 45.3723 18.4428C45.4205 18.0529 45.7378 18.0618 45.6613 18.6153C45.5781 20.1177 45.1083 21.5219 44.4626 22.8913C45.5509 22.8913 46.7672 22.8913 47.7567 22.8913C47.111 21.5219 46.6412 20.1177 46.558 18.6153C46.4815 18.0618 46.7988 18.0529 46.847 18.4428C47.7601 22.139 52.623 21.1374 52.4555 17.6615C52.3198 14.8404 49.6705 14.2338 48.2888 15.1566C47.7437 15.4956 47.7744 15.2931 48.0721 14.9401C50.1242 12.5205 48.8817 9.40467 46.1108 9.34459C46.1108 9.34456 46.1108 9.34459 46.108 9.34459H46.1085Z" fill="black"/>
<path d="M16.8892 9.34459C14.1183 9.40467 12.8758 12.5205 14.928 14.9401C15.2256 15.2931 15.2563 15.4956 14.7112 15.1566C13.3295 14.2338 10.6802 14.8404 10.5446 17.6615C10.377 21.1374 15.2399 22.139 16.153 18.4428C16.2012 18.0529 16.5185 18.0618 16.442 18.6153C16.3588 20.1177 15.889 21.5219 15.2433 22.8913C16.3316 22.8913 17.5479 22.8913 18.5374 22.8913C17.8917 21.5219 17.4219 20.1177 17.3387 18.6153C17.2622 18.0618 17.5795 18.0529 17.6277 18.4428C18.5408 22.139 23.4037 21.1374 23.2362 17.6615C23.1005 14.8404 20.4512 14.2338 19.0695 15.1566C18.5244 15.4956 18.5551 15.2931 18.8528 14.9401C20.9049 12.5205 19.6624 9.40467 16.8915 9.34459C16.8915 9.34456 16.8915 9.34459 16.8887 9.34459H16.8892Z" fill="black"/>
<path d="M46.1085 78.8902C43.3376 78.8301 42.0951 75.7142 44.1473 73.2946C44.4449 72.9417 44.4756 72.7391 43.9305 73.0782C42.5488 74.0009 39.8995 73.3943 39.7639 70.5733C39.5963 67.0973 44.4592 66.0958 45.3723 69.7919C45.4205 70.1819 45.7378 70.173 45.6613 69.6194C45.5781 68.117 45.1083 66.7128 44.4626 65.3435C45.5509 65.3435 46.7672 65.3435 47.7567 65.3435C47.111 66.7128 46.6412 68.117 46.558 69.6194C46.4815 70.173 46.7988 70.1819 46.847 69.7919C47.7601 66.0958 52.623 67.0973 52.4555 70.5733C52.3198 73.3943 49.6705 74.0009 48.2888 73.0782C47.7437 72.7391 47.7744 72.9417 48.0721 73.2946C50.1242 75.7142 48.8817 78.8301 46.1108 78.8902C46.1108 78.8902 46.1108 78.8901 46.108 78.8902H46.1085Z" fill="black"/>
<path d="M16.8892 78.8902C14.1183 78.8301 12.8758 75.7142 14.928 73.2946C15.2256 72.9417 15.2563 72.7391 14.7112 73.0782C13.3295 74.0009 10.6802 73.3943 10.5446 70.5733C10.377 67.0973 15.2399 66.0958 16.153 69.7919C16.2012 70.1819 16.5185 70.173 16.442 69.6194C16.3588 68.117 15.889 66.7128 15.2433 65.3435C16.3316 65.3435 17.5479 65.3435 18.5374 65.3435C17.8917 66.7128 17.4219 68.117 17.3387 69.6194C17.2622 70.173 17.5795 70.1819 17.6277 69.7919C18.5408 66.0958 23.4037 67.0973 23.2362 70.5733C23.1005 73.3943 20.4512 74.0009 19.0695 73.0782C18.5244 72.7391 18.5551 72.9417 18.8528 73.2946C20.9049 75.7142 19.6624 78.8301 16.8915 78.8902C16.8915 78.8902 16.8915 78.8901 16.8887 78.8902H16.8892Z" fill="black"/>
<path d="M58.1416 73.8965C59.25 73.8714 59.747 72.5732 58.9261 71.565C58.8071 71.418 58.7948 71.3336 59.0129 71.4748C59.5655 71.8593 60.6252 71.6065 60.6795 70.4311C60.7465 68.9828 58.8014 68.5655 58.4361 70.1055C58.4168 70.268 58.2899 70.2643 58.3205 70.0337C58.3538 69.4077 58.5417 68.8226 58.8 68.252C58.3608 68.252 57.9216 68.252 57.4824 68.252C57.7407 68.8226 57.9286 69.4077 57.9619 70.0337C57.9925 70.2643 57.8656 70.268 57.8463 70.1055C57.4811 68.5655 55.5359 68.9828 55.6029 70.4311C55.6572 71.6065 56.7169 71.8593 57.2696 71.4748C57.4876 71.3336 57.4754 71.418 57.3563 71.565C56.5354 72.5732 57.0324 73.8714 58.1408 73.8965C58.141 73.8965 58.1408 73.8965 58.1408 73.8965H58.1416Z" fill="black"/>
<path d="M4.85869 14.1036C3.75031 14.1285 3.25329 15.4269 4.07419 16.4351C4.19325 16.5821 4.20552 16.6665 3.98747 16.5252C3.43481 16.1407 2.37506 16.3935 2.3208 17.569C2.25378 19.0173 4.19898 19.4346 4.5642 17.8945C4.58348 17.732 4.7104 17.7357 4.67978 17.9664C4.64647 18.5924 4.45857 19.1775 4.20029 19.748C4.63947 19.748 5.07871 19.748 5.51789 19.748C5.25961 19.1775 5.07171 18.5924 5.0384 17.9664C5.00778 17.7357 5.13474 17.732 5.15402 17.8945C5.51923 19.4346 7.46443 19.0173 7.39738 17.569C7.34312 16.3935 6.28341 16.1407 5.73075 16.5252C5.51269 16.6665 5.52496 16.5821 5.64403 16.4351C6.46492 15.4269 5.96787 14.1286 4.85952 14.1036C4.85924 14.1036 4.85952 14.1036 4.85952 14.1036H4.85869Z" fill="black"/>
<path d="M4.92401 13.2175V12.3949H5.66636V11.038H1.95296V10.0805L5.97117 3.9053L6.62756 3.90873V10.0807H7.76439V11.0381H6.62756L6.60601 12.3951H7.22828V13.2187H4.92387L4.92401 13.2175ZM5.66636 6.16611L3.11522 10.0809H5.66636V6.16611Z" fill="black"/>
<path d="M58.0755 74.7825V75.6051H57.3331V76.9621H61.0465V77.9195L57.0283 84.0948L56.3719 84.0914V77.9194H55.2351V76.962H56.3719L56.3934 75.6051H55.7712V74.7814H58.0756L58.0755 74.7825ZM57.3331 81.834L59.8843 77.9191H57.3331V81.834Z" fill="black"/>
</g>
<defs>
<clipPath id="clip0">
<rect width="63.0001" height="88" fill="white"/>
</clipPath>
</defs>
</svg>
