<svg width="63" height="88" viewBox="0 0 63 88" fill="none" xmlns="http://www.w3.org/2000/svg">
<g clip-path="url(#clip0)">
<path d="M59.9868 3.05176e-05H3.01348C1.34919 3.05176e-05 1.52588e-05 1.34749 1.52588e-05 3.00966V84.9907C1.52588e-05 86.6529 1.34919 88.0003 3.01348 88.0003H59.9868C61.651 88.0003 63.0002 86.6529 63.0002 84.9907V3.00966C63.0002 1.34749 61.651 3.05176e-05 59.9868 3.05176e-05Z" fill="white"/>
<path d="M4.85915 19.7481C4.24929 18.741 3.60766 17.7621 2.80583 16.9259C3.60766 16.0897 4.24929 15.1108 4.85915 14.1036C5.46901 15.1108 6.11064 16.0897 6.91243 16.9259C6.11064 17.7621 5.46901 18.741 4.85915 19.7481Z" fill="#C8102E"/>
<path d="M46.1098 22.774C44.6461 20.3568 43.1063 18.0075 41.1819 16.0006C43.1063 13.9938 44.6461 11.6445 46.1098 9.22728C47.5734 11.6445 49.1134 13.9938 51.0377 16.0006C49.1134 18.0075 47.5734 20.3568 46.1098 22.774Z" fill="#C8102E"/>
<path d="M58.1413 73.8967C57.5314 72.8896 56.8898 71.9107 56.088 71.0745C56.8898 70.2383 57.5314 69.2594 58.1413 68.2523C58.7511 69.2594 59.3928 70.2383 60.1946 71.0745C59.3928 71.9107 58.7511 72.8896 58.1413 73.8967Z" fill="#C8102E"/>
<path d="M16.8905 22.774C15.4268 20.3568 13.8869 18.0075 11.9626 16.0006C13.8869 13.9938 15.4268 11.6445 16.8905 9.22728C18.3541 11.6445 19.894 13.9938 21.8183 16.0006C19.894 18.0075 18.3541 20.3568 16.8905 22.774Z" fill="#C8102E"/>
<path d="M16.8905 78.7745C15.4268 76.3573 13.8869 74.008 11.9626 72.0011C13.8869 69.9943 15.4268 67.645 16.8905 65.2278C18.3541 67.645 19.894 69.9943 21.8183 72.0011C19.894 74.008 18.3541 76.3573 16.8905 78.7745Z" fill="#C8102E"/>
<path d="M46.1098 78.7765C44.6461 76.3593 43.1063 74.01 41.1819 72.0031C43.1063 69.9963 44.6461 67.647 46.1098 65.2297C47.5734 67.647 49.1134 69.9963 51.0377 72.0031C49.1134 74.01 47.5734 76.3593 46.1098 78.7765Z" fill="#C8102E"/>
<path d="M4.92404 13.2176V12.395H5.66643V11.0381H1.95302V10.0806L5.97122 3.90533L6.62761 3.90872V10.0807H7.7644V11.0381H6.62761L6.60615 12.3951H7.22844V13.2188H4.92401L4.92404 13.2176ZM5.66643 6.16614L3.11522 10.081H5.66643V6.16614Z" fill="#C8102E"/>
<path d="M58.0756 74.7828V75.6054H57.3332V76.9623H61.0466V77.9197L57.0284 84.095L56.372 84.0917V77.9197H55.2352V76.9623H56.372L56.3934 75.6053H55.7712V74.7816H58.0756L58.0756 74.7828ZM57.3332 81.8342L59.8844 77.9194H57.3332V81.8342Z" fill="#C8102E"/>
</g>
<defs>
<clipPath id="clip0">
<rect width="63.0002" height="88.0003" fill="white"/>
</clipPath>
</defs>
</svg>
