<svg width="63" height="88" viewBox="0 0 63 88" fill="none" xmlns="http://www.w3.org/2000/svg">
<g clip-path="url(#clip0)">
<path d="M59.9868 0H3.01348C1.3492 0 1.52588e-05 1.34746 1.52588e-05 3.00964V84.9907C1.52588e-05 86.6528 1.3492 88.0003 3.01348 88.0003H59.9868C61.651 88.0003 63.0002 86.6528 63.0002 84.9907V3.00964C63.0002 1.34746 61.651 0 59.9868 0Z" fill="white"/>
<path d="M16.8904 9.22725C14.2866 12.9405 11.5007 15.0773 11.4544 17.9743C11.4388 18.9124 11.946 20.5068 13.5347 20.812C14.5653 21.0091 15.9844 20.1749 16.014 18.4801C16.0095 18.1427 16.3713 18.1515 16.3679 18.6138C16.3193 19.9506 15.8962 21.507 15.185 22.774C16.322 22.774 17.4589 22.774 18.5959 22.774C17.8847 21.507 17.4616 19.9506 17.413 18.6138C17.4096 18.1515 17.7714 18.1427 17.7669 18.4801C17.7965 20.1749 19.2156 21.0091 20.2462 20.812C21.8349 20.5068 22.3421 18.9124 22.3265 17.9743C22.2803 15.0773 19.4942 12.9405 16.8904 9.22725V9.22725Z" fill="black"/>
<path d="M4.85914 14.1036C3.64259 15.6508 2.34092 16.5411 2.3193 17.7482C2.31196 18.1391 2.54902 18.8034 3.29127 18.9306C3.77283 19.0127 4.43583 18.6651 4.44969 17.959C4.44686 17.8184 4.61656 17.822 4.61498 18.0147C4.59241 18.5717 4.39461 19.2202 4.06232 19.7481C4.59355 19.7481 5.12476 19.7481 5.65599 19.7481C5.3237 19.2202 5.12595 18.5717 5.10329 18.0147C5.10047 17.822 5.27074 17.8184 5.26862 17.959C5.28245 18.6651 5.94548 19.0127 6.42704 18.9306C7.16929 18.8034 7.40623 18.1391 7.39897 17.7482C7.37724 16.5411 6.07566 15.6508 4.85914 14.1036Z" fill="black"/>
<path d="M58.1413 73.8967C56.9248 72.3495 55.6231 71.4592 55.6015 70.2521C55.5942 69.8612 55.8312 69.1969 56.5734 69.0697C57.055 68.9876 57.718 69.3352 57.7318 70.0414C57.729 70.1819 57.8988 70.1783 57.8972 69.9856C57.8746 69.4286 57.6768 68.7801 57.3445 68.2522C57.8757 68.2522 58.4069 68.2522 58.9382 68.2522C58.6059 68.7801 58.4082 69.4286 58.3855 69.9856C58.3827 70.1783 58.5529 70.1819 58.5508 70.0414C58.5646 69.3352 59.2277 68.9876 59.7092 69.0697C60.4515 69.1969 60.6884 69.8612 60.6812 70.2521C60.6594 71.4592 59.3579 72.3495 58.1413 73.8967Z" fill="black"/>
<path d="M46.1098 9.22725C43.506 12.9405 40.72 15.0773 40.6737 17.9743C40.6582 18.9124 41.1654 20.5068 42.754 20.812C43.7847 21.0091 45.2038 20.1749 45.2334 18.4801C45.2289 18.1427 45.5907 18.1515 45.5873 18.6138C45.5387 19.9506 45.1156 21.507 44.4044 22.774C45.5414 22.774 46.6783 22.774 47.8153 22.774C47.1041 21.507 46.6809 19.9506 46.6324 18.6138C46.629 18.1515 46.9908 18.1427 46.9863 18.4801C47.0159 20.1749 48.435 21.0091 49.4656 20.812C51.0543 20.5068 51.5615 18.9124 51.5459 17.9743C51.4996 15.0773 48.7136 12.9405 46.1098 9.22725V9.22725Z" fill="black"/>
<path d="M16.8904 78.773C14.2866 75.0598 11.5007 72.9229 11.4544 70.026C11.4388 69.0879 11.946 67.4935 13.5347 67.1883C14.5653 66.9912 15.9844 67.8254 16.014 69.5202C16.0095 69.8576 16.3713 69.8488 16.3679 69.3865C16.3193 68.0497 15.8962 66.4933 15.185 65.2263C16.322 65.2263 17.4589 65.2263 18.5959 65.2263C17.8847 66.4933 17.4616 68.0497 17.413 69.3865C17.4096 69.8488 17.7714 69.8576 17.7669 69.5202C17.7965 67.8254 19.2156 66.9912 20.2462 67.1883C21.8349 67.4935 22.3421 69.0879 22.3265 70.026C22.2803 72.9229 19.4942 75.0598 16.8904 78.773V78.773Z" fill="black"/>
<path d="M46.1098 78.773C43.506 75.0598 40.72 72.9229 40.6737 70.026C40.6582 69.0879 41.1654 67.4935 42.754 67.1883C43.7847 66.9912 45.2038 67.8254 45.2334 69.5202C45.2289 69.8576 45.5907 69.8488 45.5873 69.3865C45.5387 68.0497 45.1156 66.4933 44.4044 65.2263C45.5414 65.2263 46.6783 65.2263 47.8153 65.2263C47.1041 66.4933 46.6809 68.0497 46.6324 69.3865C46.629 69.8488 46.9908 69.8576 46.9863 69.5202C47.0159 67.8254 48.435 66.9912 49.4656 67.1883C51.0543 67.4935 51.5615 69.0879 51.5459 70.026C51.4996 72.9229 48.7136 75.0598 46.1098 78.773V78.773Z" fill="black"/>
<path d="M4.92407 13.2175V12.395H5.66646V11.038H1.95305V10.0806L5.97125 3.9053L6.62764 3.90869V10.0806H7.76443V11.0381H6.62764L6.60618 12.395H7.22847V13.2187H4.92404L4.92407 13.2175ZM5.66646 6.1661L3.11526 10.0809H5.66646V6.1661Z" fill="black"/>
<path d="M58.076 74.7828V75.6053H57.3336V76.9623H61.047V77.9197L57.0288 84.095L56.3724 84.0916V77.9197H55.2356V76.9622H56.3724L56.3939 75.6053H55.7716V74.7816H58.076L58.076 74.7828ZM57.3336 81.8342L59.8848 77.9194H57.3336V81.8342Z" fill="black"/>
</g>
<defs>
<clipPath id="clip0">
<rect width="63.0002" height="88.0003" fill="white"/>
</clipPath>
</defs>
</svg>
