<svg width="63" height="88" viewBox="0 0 63 88" fill="none" xmlns="http://www.w3.org/2000/svg">
<g clip-path="url(#clip0)">
<path d="M59.9867 0H3.01343C1.34915 0 -1.52588e-05 1.34746 -1.52588e-05 3.00963V84.9904C-1.52588e-05 86.6525 1.34915 88 3.01343 88H59.9867C61.651 88 63.0001 86.6525 63.0001 84.9904V3.00963C63.0001 1.34746 61.651 0 59.9867 0Z" fill="white"/>
<path d="M46.1093 9.34443C43.3384 9.40454 42.0959 12.5204 44.1481 14.94C44.4457 15.2929 44.4764 15.4954 43.9313 15.1564C42.5497 14.2336 39.9004 14.8403 39.7647 17.6613C39.5971 21.1373 44.4601 22.1388 45.3731 18.4427C45.4213 18.0527 45.7387 18.0616 45.6621 18.6151C45.5789 20.1175 45.1091 21.5218 44.4634 22.8911C45.5517 22.8911 46.768 22.8911 47.7575 22.8911C47.1118 21.5218 46.6421 20.1175 46.5588 18.6151C46.4823 18.0616 46.7996 18.0527 46.8478 18.4427C47.7609 22.1388 52.6239 21.1373 52.4563 17.6613C52.3206 14.8403 49.6713 14.2336 48.2896 15.1564C47.7445 15.4954 47.7752 15.2929 48.0729 14.94C50.125 12.5204 48.8826 9.40454 46.1116 9.34443C46.1116 9.34441 46.1116 9.34443 46.1088 9.34443H46.1093Z" fill="black"/>
<path d="M16.89 9.34443C14.119 9.40454 12.8765 12.5204 14.9287 14.94C15.2264 15.2929 15.257 15.4954 14.712 15.1564C13.3303 14.2336 10.681 14.8403 10.5453 17.6613C10.3778 21.1373 15.2407 22.1388 16.1538 18.4427C16.202 18.0527 16.5193 18.0616 16.4428 18.6151C16.3595 20.1175 15.8897 21.5218 15.244 22.8911C16.3324 22.8911 17.5486 22.8911 18.5382 22.8911C17.8925 21.5218 17.4227 20.1175 17.3394 18.6151C17.2629 18.0616 17.5803 18.0527 17.6285 18.4427C18.5416 22.1388 23.4045 21.1373 23.2369 17.6613C23.1013 14.8403 20.4519 14.2336 19.0702 15.1564C18.5251 15.4954 18.5559 15.2929 18.8535 14.94C20.9057 12.5204 19.6632 9.40454 16.8923 9.34443C16.8923 9.34441 16.8923 9.34443 16.8894 9.34443H16.89Z" fill="black"/>
<path d="M46.1093 78.89C43.3384 78.8299 42.0959 75.714 44.1481 73.2944C44.4457 72.9415 44.4764 72.739 43.9313 73.078C42.5497 74.0007 39.9004 73.3941 39.7647 70.5731C39.5971 67.0971 44.4601 66.0956 45.3731 69.7917C45.4213 70.1817 45.7387 70.1728 45.6621 69.6193C45.5789 68.1169 45.1091 66.7126 44.4634 65.3433C45.5517 65.3433 46.768 65.3433 47.7575 65.3433C47.1118 66.7126 46.6421 68.1169 46.5588 69.6193C46.4823 70.1728 46.7996 70.1817 46.8478 69.7917C47.7609 66.0956 52.6239 67.0971 52.4563 70.5731C52.3206 73.3941 49.6713 74.0007 48.2896 73.078C47.7445 72.739 47.7752 72.9415 48.0729 73.2944C50.125 75.714 48.8826 78.8299 46.1116 78.89C46.1116 78.89 46.1116 78.89 46.1088 78.89H46.1093Z" fill="black"/>
<path d="M16.89 78.89C14.119 78.8299 12.8765 75.714 14.9287 73.2944C15.2264 72.9415 15.257 72.739 14.712 73.078C13.3303 74.0007 10.681 73.3941 10.5453 70.5731C10.3778 67.0971 15.2407 66.0956 16.1538 69.7917C16.202 70.1817 16.5193 70.1728 16.4428 69.6193C16.3595 68.1169 15.8897 66.7126 15.244 65.3433C16.3324 65.3433 17.5486 65.3433 18.5382 65.3433C17.8925 66.7126 17.4227 68.1169 17.3394 69.6193C17.2629 70.1728 17.5803 70.1817 17.6285 69.7917C18.5416 66.0956 23.4045 67.0971 23.2369 70.5731C23.1013 73.3941 20.4519 74.0007 19.0702 73.078C18.5251 72.739 18.5559 72.9415 18.8535 73.2944C20.9057 75.714 19.6632 78.8299 16.8923 78.89C16.8923 78.89 16.8923 78.89 16.8894 78.89H16.89Z" fill="black"/>
<path d="M31.4997 37.3439C28.7287 37.404 27.4862 40.5198 29.5384 42.9394C29.836 43.2923 29.8667 43.4949 29.3216 43.1559C27.94 42.2331 25.2907 42.8397 25.155 45.6608C24.9874 49.1367 29.8504 50.1382 30.7634 46.4421C30.8117 46.0522 31.1289 46.061 31.0525 46.6146C30.9692 48.117 30.4994 49.5212 29.8537 50.8905C30.942 50.8905 32.1583 50.8905 33.1479 50.8905C32.5022 49.5212 32.0324 48.117 31.9491 46.6146C31.8726 46.061 32.19 46.0522 32.2381 46.4421C33.1512 50.1382 38.0142 49.1367 37.8466 45.6608C37.711 42.8397 35.0616 42.2331 33.6799 43.1559C33.1348 43.4949 33.1656 43.2923 33.4632 42.9394C35.5154 40.5198 34.2728 37.404 31.502 37.3439C31.502 37.3439 31.5019 37.3439 31.4991 37.3439H31.4997Z" fill="black"/>
<path d="M58.1424 73.8963C59.2508 73.8713 59.7478 72.573 58.9269 71.5648C58.8078 71.4178 58.7956 71.3334 59.0136 71.4747C59.5663 71.8591 60.626 71.6064 60.6803 70.4309C60.7473 68.9826 58.8021 68.5653 58.4369 70.1054C58.4176 70.2679 58.2907 70.2642 58.3213 70.0335C58.3546 69.4075 58.5425 68.8224 58.8008 68.2519C58.3616 68.2519 57.9224 68.2519 57.4832 68.2519C57.7415 68.8224 57.9294 69.4075 57.9627 70.0335C57.9933 70.2642 57.8663 70.2679 57.8471 70.1054C57.4818 68.5653 55.5367 68.9826 55.6037 70.4309C55.658 71.6064 56.7177 71.8591 57.2704 71.4747C57.4884 71.3334 57.4761 71.4178 57.357 71.5648C56.5362 72.573 57.0332 73.8713 58.1416 73.8963C58.1418 73.8963 58.1416 73.8963 58.1416 73.8963H58.1424Z" fill="black"/>
<path d="M4.85945 14.1034C3.75107 14.1283 3.25408 15.4267 4.07495 16.4348C4.19401 16.5819 4.20629 16.6663 3.98826 16.5251C3.43557 16.1406 2.37585 16.3933 2.32159 17.5688C2.25455 19.0171 4.19975 19.4344 4.56499 17.8943C4.58427 17.7318 4.71119 17.7356 4.68054 17.9662C4.64726 18.5922 4.45933 19.1773 4.20105 19.7478C4.64026 19.7478 5.07948 19.7478 5.51869 19.7478C5.2604 19.1773 5.07247 18.5922 5.03919 17.9662C5.00858 17.7356 5.1355 17.7318 5.15478 17.8943C5.52002 19.4344 7.46519 19.0171 7.39818 17.5688C7.34389 16.3933 6.2842 16.1406 5.73151 16.5251C5.51348 16.6663 5.52576 16.5819 5.64482 16.4348C6.46569 15.4267 5.96867 14.1285 4.86032 14.1034C4.86003 14.1034 4.86032 14.1034 4.86032 14.1034H4.85945Z" fill="black"/>
<path d="M1.92392 10.8075L2.83688 10.7987C3.01103 11.3608 3.39636 11.9322 3.91962 12.0908C5.39784 12.4445 6.34889 11.6029 6.66203 10.6328C7.04193 9.45599 6.65354 7.80356 5.63587 7.21704C4.79264 6.73068 3.53972 7.14092 2.96426 8.1813L2.32489 7.78288L2.66815 3.90521H6.84488V4.82178H3.46023L3.40656 6.43722C4.13518 5.9161 5.25491 5.92164 5.9831 6.28716C7.3623 6.95724 8.0031 8.48068 7.73532 10.2761C7.36378 12.0619 6.54447 13.0739 4.69647 13.2184C2.64093 13.2373 1.91519 11.7977 1.92392 10.8076V10.8075Z" fill="black"/>
<path d="M61.0771 77.1923L60.1642 77.2011C59.99 76.6389 59.6047 76.0676 59.0814 75.909C57.6032 75.5553 56.6521 76.3969 56.339 77.367C55.9591 78.5438 56.3475 80.1962 57.3652 80.7827C58.2084 81.2691 59.4614 80.8589 60.0368 79.8185L60.6761 80.2169L60.3329 84.0946H56.1562V83.178H59.5408L59.5945 81.5625C58.8659 82.0837 57.7462 82.0781 57.0179 81.7126C55.6387 81.0425 54.998 79.5191 55.2657 77.7237C55.6373 75.9378 56.4566 74.9259 58.3046 74.7814C60.3601 74.7625 61.0858 76.2021 61.0771 77.1922V77.1923Z" fill="black"/>
</g>
<defs>
<clipPath id="clip0">
<rect width="63.0001" height="88" fill="white"/>
</clipPath>
</defs>
</svg>
