<svg width="63" height="88" viewBox="0 0 63 88" fill="none" xmlns="http://www.w3.org/2000/svg">
<g clip-path="url(#clip0)">
<path d="M59.9867 0H3.01344C1.34915 0 0 1.34745 0 3.00962V84.9904C0 86.6526 1.34915 88 3.01344 88H59.9867C61.651 88 63.0001 86.6526 63.0001 84.9904V3.00962C63.0001 1.34745 61.651 0 59.9867 0Z" fill="white"/>
<path d="M46.1086 9.34462C43.3376 9.4047 42.0951 12.5206 44.1473 14.9402C44.4449 15.2931 44.4756 15.4956 43.9305 15.1566C42.5489 14.2339 39.8996 14.8404 39.7639 17.6615C39.5963 21.1375 44.4593 22.139 45.3723 18.4429C45.4206 18.0529 45.7379 18.0618 45.6614 18.6153C45.5781 20.1177 45.1083 21.5219 44.4626 22.8913C45.5509 22.8913 46.7672 22.8913 47.7568 22.8913C47.1111 21.5219 46.6413 20.1177 46.558 18.6153C46.4815 18.0618 46.7989 18.0529 46.847 18.4429C47.7601 22.139 52.6231 21.1375 52.4555 17.6615C52.3199 14.8404 49.6705 14.2339 48.2888 15.1566C47.7438 15.4956 47.7745 15.2931 48.0721 14.9402C50.1243 12.5206 48.8818 9.4047 46.1109 9.34462C46.1109 9.34459 46.1109 9.34462 46.108 9.34462H46.1086Z" fill="black"/>
<path d="M16.8892 9.34462C14.1183 9.4047 12.8758 12.5206 14.928 14.9402C15.2256 15.2931 15.2563 15.4956 14.7112 15.1566C13.3295 14.2339 10.6803 14.8404 10.5446 17.6615C10.377 21.1375 15.2399 22.139 16.153 18.4429C16.2012 18.0529 16.5186 18.0618 16.4421 18.6153C16.3588 20.1177 15.889 21.5219 15.2433 22.8913C16.3316 22.8913 17.5479 22.8913 18.5375 22.8913C17.8918 21.5219 17.422 20.1177 17.3387 18.6153C17.2622 18.0618 17.5795 18.0529 17.6277 18.4429C18.5408 22.139 23.4037 21.1375 23.2362 17.6615C23.1005 14.8404 20.4512 14.2339 19.0695 15.1566C18.5244 15.4956 18.5552 15.2931 18.8528 14.9402C20.905 12.5206 19.6624 9.4047 16.8915 9.34462C16.8915 9.34459 16.8915 9.34462 16.8887 9.34462H16.8892Z" fill="black"/>
<path d="M46.1086 78.8902C43.3376 78.8301 42.0951 75.7142 44.1473 73.2946C44.4449 72.9417 44.4756 72.7392 43.9305 73.0782C42.5489 74.0009 39.8996 73.3943 39.7639 70.5733C39.5964 67.0973 44.4593 66.0958 45.3723 69.7919C45.4206 70.1819 45.7379 70.173 45.6614 69.6195C45.5781 68.1171 45.1083 66.7128 44.4626 65.3435C45.5509 65.3435 46.7672 65.3435 47.7568 65.3435C47.1111 66.7128 46.6413 68.1171 46.558 69.6195C46.4815 70.173 46.7989 70.1819 46.847 69.7919C47.7601 66.0958 52.6231 67.0973 52.4555 70.5733C52.3199 73.3943 49.6705 74.0009 48.2888 73.0782C47.7438 72.7392 47.7745 72.9417 48.0721 73.2946C50.1243 75.7142 48.8818 78.8301 46.1109 78.8902C46.1109 78.8902 46.1108 78.8902 46.108 78.8902H46.1086Z" fill="black"/>
<path d="M16.8892 78.8902C14.1183 78.8301 12.8758 75.7142 14.928 73.2946C15.2256 72.9417 15.2563 72.7392 14.7112 73.0782C13.3295 74.0009 10.6803 73.3943 10.5446 70.5733C10.377 67.0973 15.2399 66.0958 16.153 69.7919C16.2012 70.1819 16.5186 70.173 16.4421 69.6195C16.3588 68.1171 15.889 66.7128 15.2433 65.3435C16.3316 65.3435 17.5479 65.3435 18.5375 65.3435C17.8918 66.7128 17.422 68.1171 17.3387 69.6195C17.2622 70.173 17.5795 70.1819 17.6277 69.7919C18.5408 66.0958 23.4037 67.0973 23.2362 70.5733C23.1005 73.3943 20.4512 74.0009 19.0695 73.0782C18.5244 72.7392 18.5552 72.9417 18.8528 73.2946C20.905 75.7142 19.6624 78.8301 16.8915 78.8902C16.8915 78.8902 16.8915 78.8902 16.8887 78.8902H16.8892Z" fill="black"/>
<path d="M46.1086 37.3441C43.3376 37.4042 42.0951 40.52 44.1473 42.9396C44.4449 43.2926 44.4756 43.4951 43.9305 43.1561C42.5489 42.2333 39.8996 42.8399 39.7639 45.661C39.5964 49.1369 44.4593 50.1385 45.3723 46.4423C45.4206 46.0524 45.7379 46.0613 45.6614 46.6148C45.5781 48.1172 45.1083 49.5214 44.4626 50.8908C45.5509 50.8908 46.7672 50.8908 47.7568 50.8908C47.1111 49.5214 46.6413 48.1172 46.558 46.6148C46.4815 46.0613 46.7989 46.0524 46.847 46.4423C47.7601 50.1385 52.6231 49.1369 52.4555 45.661C52.3199 42.8399 49.6705 42.2333 48.2888 43.1561C47.7438 43.4951 47.7745 43.2926 48.0721 42.9396C50.1243 40.52 48.8818 37.4042 46.1109 37.3441C46.1109 37.3441 46.1108 37.3441 46.108 37.3441H46.1086Z" fill="black"/>
<path d="M16.8892 37.3441C14.1183 37.4042 12.8758 40.52 14.928 42.9396C15.2256 43.2926 15.2563 43.4951 14.7112 43.1561C13.3295 42.2333 10.6803 42.8399 10.5446 45.661C10.377 49.1369 15.2399 50.1385 16.153 46.4423C16.2012 46.0524 16.5186 46.0613 16.4421 46.6148C16.3588 48.1172 15.889 49.5214 15.2433 50.8908C16.3316 50.8908 17.5479 50.8908 18.5375 50.8908C17.8918 49.5214 17.422 48.1172 17.3387 46.6148C17.2622 46.0613 17.5795 46.0524 17.6277 46.4423C18.5408 50.1385 23.4037 49.1369 23.2362 45.661C23.1005 42.8399 20.4512 42.2333 19.0695 43.1561C18.5244 43.4951 18.5552 43.2926 18.8528 42.9396C20.905 40.52 19.6624 37.4042 16.8915 37.3441C16.8915 37.3441 16.8915 37.3441 16.8887 37.3441H16.8892Z" fill="black"/>
<path d="M58.1416 73.8965C59.25 73.8715 59.747 72.5732 58.9261 71.565C58.807 71.418 58.7948 71.3336 59.0128 71.4749C59.5655 71.8593 60.6252 71.6066 60.6795 70.4311C60.7465 68.9828 58.8014 68.5655 58.4361 70.1056C58.4169 70.2681 58.2899 70.2644 58.3205 70.0337C58.3538 69.4077 58.5417 68.8226 58.8 68.2521C58.3608 68.2521 57.9216 68.2521 57.4824 68.2521C57.7407 68.8226 57.9286 69.4077 57.9619 70.0337C57.9925 70.2644 57.8656 70.2681 57.8463 70.1056C57.4811 68.5655 55.5359 68.9828 55.6029 70.4311C55.6572 71.6066 56.7169 71.8593 57.2696 71.4749C57.4876 71.3336 57.4753 71.418 57.3563 71.565C56.5354 72.5732 57.0324 73.8715 58.1408 73.8965C58.1411 73.8965 58.1408 73.8965 58.1408 73.8965H58.1416Z" fill="black"/>
<path d="M4.85874 14.1036C3.75036 14.1285 3.25334 15.4269 4.07423 16.4351C4.1933 16.5821 4.20557 16.6665 3.98751 16.5253C3.43485 16.1408 2.3751 16.3936 2.32084 17.569C2.25383 19.0173 4.19903 19.4346 4.56425 17.8946C4.58352 17.7321 4.71044 17.7358 4.67983 17.9664C4.64652 18.5924 4.45862 19.1775 4.20033 19.7481C4.63951 19.7481 5.07876 19.7481 5.51794 19.7481C5.25965 19.1775 5.07175 18.5924 5.03844 17.9664C5.00783 17.7358 5.13478 17.7321 5.15406 17.8946C5.51928 19.4346 7.46447 19.0173 7.39743 17.569C7.34317 16.3936 6.28345 16.1408 5.7308 16.5253C5.51274 16.6665 5.52501 16.5821 5.64407 16.4351C6.46497 15.4269 5.96793 14.1286 4.8596 14.1036C4.85932 14.1036 4.8596 14.1036 4.8596 14.1036H4.85874Z" fill="black"/>
<path d="M2.12372 10.3534C2.00905 9.56958 2.01195 7.54323 2.10559 6.94379C2.39478 5.10739 3.09617 4.26699 4.27106 3.99275C5.41224 3.72556 7.01529 4.0231 7.3669 5.55791L6.41297 5.57629C5.89699 4.53854 4.59145 4.81573 3.85597 5.26735C3.26926 5.62692 3.00396 7.12848 3.11756 7.22087C3.11756 7.22087 4.22716 6.39896 5.10201 6.45958C6.97138 6.65434 7.74245 8.27565 7.67714 9.80641C7.61763 11.648 7.03377 13.1207 5.05228 13.2186C3.16836 13.1458 2.30513 12.1188 2.12372 10.3534V10.3534ZM6.76999 9.86707C6.7802 8.58948 6.20032 7.63193 5.10201 7.52698C4.00474 7.42129 2.89765 8.4923 2.97422 9.79466C3.05079 11.1026 3.55696 12.2028 4.8879 12.1969C6.31932 12.1912 6.7631 10.7766 6.76999 9.86707Z" fill="black"/>
<path d="M60.8758 77.6466C60.9905 78.4305 60.9876 80.4568 60.894 81.0563C60.6048 82.8927 59.9034 83.733 58.7285 84.0073C57.5873 84.2745 55.9843 83.977 55.6326 82.4422L56.5866 82.4238C57.1026 83.4616 58.4081 83.1844 59.1436 82.7328C59.7303 82.3732 59.9956 80.8716 59.882 80.7792C59.882 80.7792 58.7724 81.6011 57.8976 81.5406C56.0282 81.3458 55.2571 79.7245 55.3224 78.1937C55.3819 76.3521 55.9658 74.8794 57.9473 74.7815C59.8312 74.8543 60.6944 75.8813 60.8758 77.6467V77.6466ZM56.2296 78.133C56.2194 79.4106 56.7993 80.3681 57.8976 80.4731C58.9948 80.5788 60.1019 79.5078 60.0253 78.2054C59.9488 76.8975 59.4426 75.7973 58.1116 75.8032C56.6802 75.8089 56.2365 77.2235 56.2296 78.133Z" fill="black"/>
</g>
<defs>
<clipPath id="clip0">
<rect width="63.0001" height="88" fill="white"/>
</clipPath>
</defs>
</svg>
