<svg width="63" height="88" viewBox="0 0 63 88" fill="none" xmlns="http://www.w3.org/2000/svg">
<g clip-path="url(#clip0)">
<path d="M59.9867 3.05176e-05H3.01347C1.34918 3.05176e-05 0 1.34749 0 3.00966V84.9907C0 86.6529 1.34918 88.0003 3.01347 88.0003H59.9867C61.651 88.0003 63.0002 86.6529 63.0002 84.9907V3.00966C63.0002 1.34749 61.651 3.05176e-05 59.9867 3.05176e-05Z" fill="white"/>
<path d="M4.8591 19.7481C4.24925 18.741 3.60758 17.7621 2.80579 16.9259C3.60758 16.0897 4.24925 15.1108 4.8591 14.1036C5.46896 15.1108 6.11056 16.0897 6.91239 16.9259C6.11056 17.7621 5.46896 18.741 4.8591 19.7481Z" fill="#C8102E"/>
<path d="M46.1097 22.774C44.646 20.3568 43.1062 18.0075 41.1818 16.0006C43.1062 13.9938 44.646 11.6445 46.1097 9.22728C47.5734 11.6445 49.1132 13.9938 51.0376 16.0006C49.1132 18.0075 47.5734 20.3568 46.1097 22.774Z" fill="#C8102E"/>
<path d="M58.1413 73.8967C57.5314 72.8896 56.8898 71.9107 56.088 71.0745C56.8898 70.2383 57.5314 69.2594 58.1413 68.2523C58.7512 69.2594 59.3928 70.2383 60.1946 71.0745C59.3928 71.9107 58.7512 72.8896 58.1413 73.8967Z" fill="#C8102E"/>
<path d="M16.8904 22.774C15.4268 20.3568 13.8869 18.0075 11.9625 16.0006C13.8869 13.9938 15.4268 11.6445 16.8904 9.22728C18.3541 11.6445 19.8939 13.9938 21.8183 16.0006C19.8939 18.0075 18.3541 20.3568 16.8904 22.774Z" fill="#C8102E"/>
<path d="M16.8904 50.7644C15.4268 48.3472 13.8869 45.9979 11.9625 43.991C13.8869 41.9842 15.4268 39.6349 16.8904 37.2177C18.3541 39.6349 19.8939 41.9842 21.8183 43.991C19.8939 45.9979 18.3541 48.3472 16.8904 50.7644Z" fill="#C8102E"/>
<path d="M46.1097 50.7688C44.646 48.3516 43.1062 46.0023 41.1818 43.9954C43.1062 41.9886 44.646 39.6393 46.1097 37.2221C47.5734 39.6393 49.1132 41.9886 51.0376 43.9954C49.1132 46.0023 47.5734 48.3516 46.1097 50.7688Z" fill="#C8102E"/>
<path d="M16.8904 78.7745C15.4268 76.3573 13.8869 74.008 11.9625 72.0011C13.8869 69.9943 15.4268 67.645 16.8904 65.2278C18.3541 67.645 19.8939 69.9943 21.8183 72.0011C19.8939 74.008 18.3541 76.3573 16.8904 78.7745Z" fill="#C8102E"/>
<path d="M46.1097 78.7764C44.646 76.3593 43.1062 74.01 41.1818 72.0031C43.1062 69.9963 44.646 67.6469 46.1097 65.2297C47.5734 67.6469 49.1132 69.9963 51.0376 72.0031C49.1132 74.01 47.5734 76.3593 46.1097 78.7764Z" fill="#C8102E"/>
<path d="M2.12367 10.3534C2.00901 9.56952 2.01192 7.54315 2.10562 6.94371C2.39482 5.10732 3.09622 4.26694 4.27111 3.9927C5.41228 3.72549 7.01536 4.02301 7.36695 5.55783L6.413 5.57645C5.89704 4.53872 4.59151 4.81589 3.85601 5.26751C3.2693 5.62709 3.00402 7.12865 3.11759 7.22105C3.11759 7.22105 4.2272 6.39914 5.10204 6.45973C6.97143 6.65449 7.74248 8.27581 7.67715 9.80656C7.61766 11.6481 7.03384 13.1209 5.05232 13.2188C3.1684 13.146 2.30519 12.119 2.12378 10.3535L2.12367 10.3534ZM6.76995 9.86701C6.78011 8.58941 6.2003 7.63186 5.10197 7.5269C4.00471 7.42121 2.89763 8.49221 2.9742 9.79459C3.05077 11.1025 3.55692 12.2027 4.88785 12.1968C6.31929 12.1911 6.76306 10.7765 6.76995 9.86701V9.86701Z" fill="#C8102E"/>
<path d="M60.8759 77.6468C60.9906 78.4307 60.9876 80.4571 60.8939 81.0565C60.6048 82.8929 59.9033 83.7333 58.7285 84.0075C57.5873 84.2747 55.9842 83.9772 55.6326 82.4424L56.5866 82.4241C57.1025 83.4618 58.4081 83.1846 59.1436 82.733C59.7303 82.3734 59.9955 80.8719 59.882 80.7795C59.882 80.7795 58.7724 81.6014 57.8975 81.5408C56.0281 81.346 55.2571 79.7247 55.3224 78.194C55.3819 76.3524 55.9657 74.8797 57.9472 74.7817C59.8312 74.8546 60.6944 75.8816 60.8758 77.647L60.8759 77.6468ZM56.2296 78.1332C56.2195 79.4108 56.7993 80.3684 57.8976 80.4733C58.9949 80.579 60.1019 79.508 60.0254 78.2056C59.9488 76.8978 59.4426 75.7975 58.1117 75.8035C56.6803 75.8091 56.2365 77.2237 56.2296 78.1332Z" fill="#C8102E"/>
</g>
<defs>
<clipPath id="clip0">
<rect width="63.0002" height="88.0003" fill="white"/>
</clipPath>
</defs>
</svg>
