<svg width="63" height="88" viewBox="0 0 63 88" fill="none" xmlns="http://www.w3.org/2000/svg">
<g clip-path="url(#clip0)">
<path d="M59.9867 3.05176e-05H3.01344C1.34915 3.05176e-05 -1.52588e-05 1.34749 -1.52588e-05 3.00967V84.9907C-1.52588e-05 86.6529 1.34915 88.0003 3.01344 88.0003H59.9867C61.651 88.0003 63.0002 86.6529 63.0002 84.9907V3.00967C63.0002 1.34749 61.651 3.05176e-05 59.9867 3.05176e-05Z" fill="white"/>
<path d="M4.85988 19.7492C4.85988 19.7492 4.23202 18.849 3.38507 17.7905C2.81845 17.0822 2.36548 16.3153 2.32334 15.6547C2.27506 14.9001 2.73229 14.143 3.56008 14.1063C4.38738 14.0696 4.72317 14.6881 4.85988 15.1981C4.99659 14.6881 5.33241 14.0696 6.15969 14.1063C6.98748 14.143 7.44473 14.9001 7.39642 15.6547C7.35431 16.3153 6.90131 17.0822 6.33472 17.7905C5.48774 18.849 4.85988 19.7492 4.85988 19.7492V19.7492Z" fill="#C8102E"/>
<path d="M58.142 68.2534C58.142 68.2534 57.5142 69.1536 56.6672 70.212C56.1006 70.9203 55.6476 71.6873 55.6055 72.3479C55.5572 73.1025 56.0145 73.8596 56.8422 73.8963C57.6695 73.9329 58.0053 73.3144 58.142 72.8045C58.2788 73.3144 58.6146 73.9329 59.4419 73.8963C60.2696 73.8596 60.7269 73.1025 60.6786 72.3479C60.6365 71.6873 60.1835 70.9203 59.6169 70.212C58.7699 69.1536 58.142 68.2534 58.142 68.2534V68.2534Z" fill="#C8102E"/>
<path d="M16.8912 22.775C16.8912 22.775 15.5743 20.6145 13.7978 18.0743C12.6093 16.3744 11.6592 14.5337 11.5709 12.9482C11.4696 11.1371 12.4286 9.32013 14.1649 9.23207C15.9001 9.14406 16.6045 10.6285 16.8912 11.8524C17.1779 10.6285 17.8823 9.14406 19.6175 9.23207C21.3538 9.32013 22.3129 11.1371 22.2116 12.9482C22.1232 14.5337 21.1731 16.3744 19.9847 18.0743C18.2082 20.6145 16.8912 22.775 16.8912 22.775Z" fill="#C8102E"/>
<path d="M46.1106 50.7746C46.1106 50.7746 44.7936 48.6141 43.0171 46.0738C41.8287 44.3739 40.8786 42.5332 40.7902 40.9478C40.6889 39.1367 41.648 37.3197 43.3843 37.2316C45.1195 37.1436 45.8239 38.6281 46.1106 39.852C46.3973 38.6281 47.1016 37.1436 48.8369 37.2316C50.5732 37.3197 51.5322 39.1367 51.4309 40.9478C51.3426 42.5332 50.3925 44.3739 49.204 46.0738C47.4275 48.6141 46.1106 50.7746 46.1106 50.7746V50.7746Z" fill="#C8102E"/>
<path d="M46.1106 22.775C46.1106 22.775 44.7936 20.6145 43.0171 18.0743C41.8287 16.3744 40.8786 14.5337 40.7902 12.9482C40.6889 11.1371 41.648 9.32013 43.3843 9.23207C45.1195 9.14406 45.8239 10.6285 46.1106 11.8524C46.3973 10.6285 47.1016 9.14406 48.8369 9.23207C50.5732 9.32013 51.5322 11.1371 51.4309 12.9482C51.3426 14.5337 50.3925 16.3744 49.204 18.0743C47.4275 20.6145 46.1106 22.775 46.1106 22.775Z" fill="#C8102E"/>
<path d="M16.8912 50.7746C16.8912 50.7746 15.5743 48.6141 13.7978 46.0738C12.6093 44.3739 11.6592 42.5333 11.5709 40.9478C11.4696 39.1367 12.4286 37.3197 14.1649 37.2316C15.9001 37.1436 16.6045 38.6281 16.8912 39.852C17.1779 38.6281 17.8823 37.1436 19.6175 37.2316C21.3538 37.3197 22.3129 39.1367 22.2116 40.9478C22.1232 42.5333 21.1731 44.3739 19.9847 46.0738C18.2082 48.6141 16.8912 50.7746 16.8912 50.7746V50.7746Z" fill="#C8102E"/>
<path d="M46.1106 65.2274C46.1106 65.2274 44.7936 67.388 43.0171 69.9282C41.8287 71.6281 40.8786 73.4688 40.7902 75.0543C40.6889 76.8654 41.648 78.6824 43.3843 78.7704C45.1195 78.8584 45.8239 77.374 46.1106 76.1501C46.3973 77.374 47.1016 78.8584 48.8369 78.7704C50.5732 78.6824 51.5322 76.8654 51.4309 75.0543C51.3426 73.4688 50.3925 71.6281 49.204 69.9282C47.4275 67.388 46.1106 65.2274 46.1106 65.2274V65.2274Z" fill="#C8102E"/>
<path d="M16.8912 65.2274C16.8912 65.2274 15.5743 67.388 13.7978 69.9282C12.6093 71.6281 11.6592 73.4688 11.5709 75.0543C11.4696 76.8654 12.4286 78.6824 14.1649 78.7704C15.9001 78.8584 16.6045 77.374 16.8912 76.1501C17.1779 77.374 17.8823 78.8584 19.6175 78.7704C21.3538 78.6824 22.3129 76.8654 22.2116 75.0543C22.1232 73.4688 21.1731 71.6281 19.9847 69.9282C18.2082 67.388 16.8912 65.2274 16.8912 65.2274V65.2274Z" fill="#C8102E"/>
<path d="M2.12467 10.3548C2.01 9.5709 2.01292 7.54453 2.10661 6.94509C2.39581 5.10869 3.09717 4.26831 4.27207 3.99408C5.41324 3.72687 7.01632 4.02438 7.36791 5.55919L6.41399 5.57755C5.89803 4.53982 4.59247 4.81698 3.85697 5.2686C3.27025 5.62818 3.00501 7.12974 3.11858 7.22214C3.11858 7.22214 4.22819 6.40022 5.10303 6.46081C6.97242 6.65557 7.74348 8.27691 7.67814 9.80766C7.61865 11.6492 7.03483 13.122 5.05332 13.2199C3.16939 13.1471 2.30618 12.1201 2.12477 10.3546L2.12467 10.3548ZM6.77094 9.8684C6.7811 8.59077 6.20129 7.63323 5.10296 7.52827C4.0057 7.42258 2.89863 8.49357 2.97519 9.79595C3.05176 11.1039 3.55791 12.2041 4.88885 12.1982C6.32028 12.1925 6.76406 10.7779 6.77094 9.8684Z" fill="#C8102E"/>
<path d="M60.8769 77.6481C60.9916 78.432 60.9887 80.4583 60.895 81.0578C60.6058 82.8942 59.9044 83.7345 58.7295 84.0088C57.5883 84.276 55.9852 83.9785 55.6336 82.4437L56.5876 82.4253C57.1036 83.463 58.4091 83.1859 59.1446 82.7342C59.7313 82.3747 59.9965 80.8731 59.883 80.7807C59.883 80.7807 58.7734 81.6026 57.8985 81.542C56.0292 81.3473 55.2581 79.7259 55.3234 78.1952C55.3829 76.3536 55.9667 74.8809 57.9483 74.783C59.8322 74.8558 60.6954 75.8828 60.8768 77.6482L60.8769 77.6481ZM56.2306 78.1344C56.2204 79.4121 56.8003 80.3696 57.8987 80.4746C58.9959 80.5803 60.1029 79.5093 60.0264 78.2069C59.9498 76.899 59.4437 75.7988 58.1127 75.8047C56.6813 75.8103 56.2375 77.225 56.2306 78.1344V78.1344Z" fill="#C8102E"/>
</g>
<defs>
<clipPath id="clip0">
<rect width="63.0002" height="88.0003" fill="white"/>
</clipPath>
</defs>
</svg>
