<svg width="63" height="88" viewBox="0 0 63 88" fill="none" xmlns="http://www.w3.org/2000/svg">
<g clip-path="url(#clip0)">
<path d="M59.9867 3.05176e-05H3.0134C1.34911 3.05176e-05 -3.05176e-05 1.34749 -3.05176e-05 3.00966V84.9907C-3.05176e-05 86.6529 1.34911 88.0003 3.0134 88.0003H59.9867C61.651 88.0003 63.0001 86.6529 63.0001 84.9907V3.00966C63.0001 1.34749 61.651 3.05176e-05 59.9867 3.05176e-05Z" fill="white"/>
<path d="M4.85916 19.7481C4.2493 18.741 3.60767 17.7621 2.80588 16.9259C3.60767 16.0897 4.2493 15.1108 4.85916 14.1037C5.46899 15.1108 6.11062 16.0897 6.91244 16.9259C6.11062 17.7621 5.46899 18.741 4.85916 19.7481Z" fill="#C8102E"/>
<path d="M46.1098 22.774C44.6461 20.3568 43.1062 18.0075 41.1819 16.0006C43.1062 13.9938 44.6462 11.6445 46.1098 9.22729C47.5735 11.6445 49.1134 13.9938 51.0377 16.0006C49.1134 18.0075 47.5735 20.3568 46.1098 22.774Z" fill="#C8102E"/>
<path d="M58.1414 73.8967C57.5315 72.8896 56.8899 71.9107 56.0881 71.0745C56.8899 70.2383 57.5315 69.2594 58.1414 68.2523C58.7512 69.2594 59.3928 70.2383 60.1947 71.0745C59.3928 71.9107 58.7512 72.8896 58.1414 73.8967Z" fill="#C8102E"/>
<path d="M16.8905 22.774C15.4268 20.3568 13.8869 18.0075 11.9626 16.0006C13.8869 13.9938 15.4269 11.6445 16.8905 9.22729C18.3542 11.6445 19.8941 13.9938 21.8184 16.0006C19.8941 18.0075 18.3542 20.3568 16.8905 22.774Z" fill="#C8102E"/>
<path d="M31.5001 36.7692C30.0364 34.352 28.4965 32.0027 26.5722 29.9958C28.4965 27.989 30.0364 25.6397 31.5001 23.2225C32.9638 25.6397 34.5037 27.989 36.428 29.9958C34.5037 32.0027 32.9638 34.352 31.5001 36.7692Z" fill="#C8102E"/>
<path d="M16.8905 50.7644C15.4268 48.3472 13.8869 45.9979 11.9626 43.9911C13.8869 41.9842 15.4269 39.6349 16.8905 37.2177C18.3542 39.6349 19.8941 41.9842 21.8184 43.9911C19.8941 45.9979 18.3542 48.3472 16.8905 50.7644Z" fill="#C8102E"/>
<path d="M46.1098 50.7688C44.6461 48.3516 43.1062 46.0023 41.1819 43.9954C43.1062 41.9886 44.6462 39.6393 46.1098 37.2221C47.5735 39.6393 49.1134 41.9886 51.0377 43.9954C49.1134 46.0023 47.5735 48.3516 46.1098 50.7688Z" fill="#C8102E"/>
<path d="M16.8905 78.7745C15.4268 76.3573 13.8869 74.008 11.9626 72.0011C13.8869 69.9943 15.4269 67.645 16.8905 65.2278C18.3542 67.645 19.8941 69.9943 21.8184 72.0011C19.8941 74.008 18.3542 76.3573 16.8905 78.7745Z" fill="#C8102E"/>
<path d="M46.1098 78.7765C44.6461 76.3593 43.1062 74.01 41.1819 72.0031C43.1062 69.9963 44.6462 67.647 46.1098 65.2298C47.5735 67.647 49.1134 69.9963 51.0377 72.0031C49.1134 74.01 47.5735 76.3593 46.1098 78.7765Z" fill="#C8102E"/>
<path d="M31.5001 64.7694C30.0364 62.3523 28.4965 60.003 26.5722 57.9961C28.4965 55.9893 30.0365 53.64 31.5001 51.2227C32.9638 53.64 34.5037 55.9893 36.428 57.9961C34.5037 60.003 32.9638 62.3523 31.5001 64.7694Z" fill="#C8102E"/>
<path d="M1.8334 10.4907C1.87765 9.24045 2.32977 8.77145 3.21984 8.11731C2.50974 7.60511 2.21038 6.85005 2.27134 6.20737C2.41756 4.6511 3.61933 3.87316 4.93068 3.9064C6.24311 3.94114 7.3726 4.9815 7.46077 6.1124C7.53734 7.09547 7.24529 7.57 6.54789 8.087C7.37556 8.78587 7.90417 9.24488 7.88459 10.4763C7.86511 11.7077 6.81746 13.1731 4.99159 13.2178C3.16575 13.2625 1.78801 11.741 1.8334 10.4907V10.4907ZM6.93029 10.4952C7.0083 9.36321 6.00761 8.59969 4.87804 8.5886C3.77825 8.57674 2.79451 9.5155 2.79451 10.5318C2.79451 11.6232 4.07434 12.2163 4.90092 12.2189C5.90566 12.2234 6.86242 11.4698 6.93029 10.4952V10.4952ZM6.5689 6.44582C6.59035 5.49346 5.71151 4.81011 4.80439 4.83746C3.99779 4.86229 3.14466 5.47717 3.14322 6.27397C3.14322 7.27146 4.11425 7.76964 4.94336 7.78886C5.69591 7.80579 6.55185 7.16614 6.5689 6.44582V6.44582Z" fill="#C8102E"/>
<path d="M55.1155 77.5097C55.1598 78.76 55.6119 79.2289 56.5019 79.8831C55.7918 80.3953 55.4925 81.1504 55.5534 81.7931C55.6997 83.3493 56.9014 84.1273 58.2128 84.094C59.5252 84.0593 60.6548 83.0189 60.7429 81.888C60.8195 80.905 60.5274 80.4304 59.83 79.9134C60.6577 79.2146 61.1863 78.7555 61.1668 77.5241C61.1473 76.2927 60.0996 74.8273 58.2737 74.7826C56.4479 74.7379 55.0701 76.2594 55.1155 77.5097V77.5097ZM60.2125 77.5052C60.2905 78.6372 59.2897 79.4007 58.1601 79.4118C57.0604 79.4237 56.0767 78.4849 56.0767 77.4686C56.0767 76.3772 57.3564 75.7841 58.183 75.7815C59.1878 75.777 60.1446 76.5306 60.2125 77.5052V77.5052ZM59.851 81.5546C59.8725 82.507 58.9936 83.1903 58.0865 83.163C57.2799 83.1381 56.4268 82.5232 56.4254 81.7264C56.4254 80.729 57.3964 80.2308 58.2255 80.2116C58.978 80.1946 59.834 80.8343 59.851 81.5546V81.5546Z" fill="#C8102E"/>
</g>
<defs>
<clipPath id="clip0">
<rect width="63.0002" height="88.0003" fill="white"/>
</clipPath>
</defs>
</svg>
