<svg width="63" height="88" viewBox="0 0 63 88" fill="none" xmlns="http://www.w3.org/2000/svg">
<g clip-path="url(#clip0)">
<path d="M59.9868 0H3.01345C1.34916 0 1.52588e-05 1.34746 1.52588e-05 3.00964V84.9907C1.52588e-05 86.6528 1.34916 88.0003 3.01345 88.0003H59.9868C61.651 88.0003 63.0002 86.6528 63.0002 84.9907V3.00964C63.0002 1.34746 61.651 0 59.9868 0Z" fill="white"/>
<path d="M16.8904 9.22725C14.2867 12.9405 11.5006 15.0773 11.4543 17.9743C11.4388 18.9124 11.946 20.5068 13.5346 20.812C14.5653 21.0091 15.9844 20.1749 16.014 18.4801C16.0095 18.1427 16.3713 18.1515 16.3679 18.6138C16.3193 19.9506 15.8962 21.507 15.185 22.774C16.322 22.774 17.4589 22.774 18.5959 22.774C17.8847 21.507 17.4615 19.9506 17.413 18.6138C17.4096 18.1515 17.7714 18.1427 17.7669 18.4801C17.7965 20.1749 19.2156 21.0091 20.2462 20.812C21.8349 20.5068 22.3421 18.9124 22.3265 17.9743C22.2803 15.0773 19.4942 12.9405 16.8904 9.22725V9.22725Z" fill="black"/>
<path d="M4.85914 14.1036C3.64259 15.6508 2.34089 16.5411 2.31927 17.7482C2.31193 18.1391 2.54896 18.8034 3.2912 18.9306C3.77276 19.0127 4.4358 18.6651 4.44966 17.959C4.44683 17.8184 4.61653 17.822 4.61495 18.0147C4.59237 18.5717 4.39458 19.2202 4.06229 19.7481C4.59352 19.7481 5.1247 19.7481 5.65593 19.7481C5.32364 19.2202 5.12592 18.5717 5.10326 18.0147C5.10044 17.822 5.27074 17.8184 5.26863 17.959C5.28246 18.6651 5.94545 19.0127 6.42701 18.9306C7.16926 18.8034 7.4062 18.1391 7.39894 17.7482C7.37721 16.5411 6.07566 15.6508 4.85914 14.1036V14.1036Z" fill="black"/>
<path d="M58.1413 73.8967C56.9248 72.3495 55.6231 71.4592 55.6014 70.2521C55.5941 69.8612 55.8312 69.1969 56.5734 69.0697C57.055 68.9876 57.718 69.3352 57.7318 70.0414C57.729 70.1819 57.8987 70.1783 57.8971 69.9856C57.8745 69.4286 57.6767 68.7801 57.3445 68.2522C57.8757 68.2522 58.4069 68.2522 58.9382 68.2522C58.6059 68.7801 58.4081 69.4286 58.3854 69.9856C58.3826 70.1783 58.5529 70.1819 58.5508 70.0414C58.5646 69.3352 59.2276 68.9876 59.7092 69.0697C60.4514 69.1969 60.6884 69.8612 60.6811 70.2521C60.6594 71.4592 59.3578 72.3495 58.1413 73.8967V73.8967Z" fill="black"/>
<path d="M46.1097 9.22725C43.5059 12.9405 40.7199 15.0773 40.6736 17.9743C40.6581 18.9124 41.1653 20.5068 42.7539 20.812C43.7846 21.0091 45.2036 20.1749 45.2332 18.4801C45.2287 18.1427 45.5905 18.1515 45.5871 18.6138C45.5386 19.9506 45.1154 21.507 44.4042 22.774C45.5412 22.774 46.6782 22.774 47.8152 22.774C47.104 21.507 46.6808 19.9506 46.6323 18.6138C46.6289 18.1515 46.9907 18.1427 46.9862 18.4801C47.0158 20.1749 48.4348 21.0091 49.4655 20.812C51.0541 20.5068 51.5613 18.9124 51.5458 17.9743C51.4995 15.0773 48.7135 12.9405 46.1097 9.22725V9.22725Z" fill="black"/>
<path d="M31.5001 23.227C28.8963 26.9402 26.1102 29.0771 26.064 31.974C26.0484 32.9121 26.5556 34.5065 28.1443 34.8117C29.1749 35.0088 30.594 34.1746 30.6236 32.4798C30.6191 32.1424 30.9809 32.1512 30.9775 32.6135C30.929 33.9504 30.5058 35.5068 29.7946 36.7737C30.9316 36.7737 32.0685 36.7737 33.2055 36.7737C32.4943 35.5068 32.0712 33.9504 32.0227 32.6135C32.0193 32.1512 32.381 32.1424 32.3765 32.4798C32.4061 34.1746 33.8252 35.0088 34.8559 34.8117C36.4445 34.5065 36.9517 32.9121 36.9362 31.974C36.8899 29.0771 34.1038 26.9402 31.5001 23.227V23.227Z" fill="black"/>
<path d="M16.8904 37.2268C14.2867 40.94 11.5006 43.0769 11.4543 45.9738C11.4388 46.9119 11.946 48.5063 13.5346 48.8115C14.5653 49.0086 15.9844 48.1744 16.014 46.4796C16.0095 46.1422 16.3713 46.151 16.3679 46.6133C16.3193 47.9501 15.8962 49.5066 15.185 50.7735C16.322 50.7735 17.4589 50.7735 18.5959 50.7735C17.8847 49.5066 17.4615 47.9501 17.413 46.6133C17.4096 46.151 17.7714 46.1422 17.7669 46.4796C17.7965 48.1744 19.2156 49.0086 20.2462 48.8115C21.8349 48.5063 22.3421 46.9119 22.3265 45.9738C22.2803 43.0769 19.4942 40.94 16.8904 37.2268V37.2268Z" fill="black"/>
<path d="M16.8904 78.773C14.2867 75.0598 11.5006 72.9229 11.4543 70.026C11.4388 69.0879 11.946 67.4935 13.5346 67.1883C14.5653 66.9912 15.9844 67.8254 16.014 69.5202C16.0095 69.8576 16.3713 69.8488 16.3679 69.3865C16.3193 68.0497 15.8962 66.4933 15.185 65.2263C16.322 65.2263 17.4589 65.2263 18.5959 65.2263C17.8847 66.4933 17.4615 68.0497 17.413 69.3865C17.4096 69.8488 17.7714 69.8576 17.7669 69.5202C17.7965 67.8254 19.2156 66.9912 20.2462 67.1883C21.8349 67.4935 22.3421 69.0879 22.3265 70.026C22.2803 72.9229 19.4942 75.0598 16.8904 78.773V78.773Z" fill="black"/>
<path d="M46.1097 78.773C43.5059 75.0598 40.7199 72.9229 40.6736 70.026C40.6581 69.0879 41.1653 67.4935 42.7539 67.1883C43.7846 66.9912 45.2036 67.8254 45.2332 69.5202C45.2287 69.8576 45.5905 69.8488 45.5871 69.3865C45.5386 68.0497 45.1154 66.4933 44.4042 65.2263C45.5412 65.2263 46.6782 65.2263 47.8152 65.2263C47.104 66.4933 46.6808 68.0497 46.6323 69.3865C46.6289 69.8488 46.9907 69.8576 46.9862 69.5202C47.0158 67.8254 48.4348 66.9912 49.4655 67.1883C51.0541 67.4935 51.5613 69.0879 51.5458 70.026C51.4995 72.9229 48.7135 75.0598 46.1097 78.773V78.773Z" fill="black"/>
<path d="M31.5001 64.7733C28.8963 61.06 26.1102 58.9232 26.064 56.0262C26.0484 55.0882 26.5556 53.4937 28.1443 53.1886C29.1749 52.9915 30.594 53.8257 30.6236 55.5204C30.6191 55.8578 30.9809 55.8491 30.9775 55.3867C30.929 54.0499 30.5058 52.4935 29.7946 51.2266C30.9316 51.2266 32.0685 51.2266 33.2055 51.2266C32.4943 52.4935 32.0712 54.0499 32.0227 55.3867C32.0193 55.8491 32.381 55.8578 32.3765 55.5204C32.4061 53.8257 33.8252 52.9915 34.8559 53.1886C36.4445 53.4937 36.9517 55.0882 36.9362 56.0262C36.8899 58.9232 34.1038 61.06 31.5001 64.7733V64.7733Z" fill="black"/>
<path d="M46.1097 37.2268C43.5059 40.94 40.7199 43.0769 40.6736 45.9738C40.6581 46.9119 41.1653 48.5063 42.7539 48.8115C43.7846 49.0086 45.2036 48.1744 45.2332 46.4796C45.2287 46.1422 45.5905 46.151 45.5871 46.6133C45.5386 47.9501 45.1154 49.5066 44.4042 50.7735C45.5412 50.7735 46.6782 50.7735 47.8152 50.7735C47.104 49.5066 46.6808 47.9501 46.6323 46.6133C46.6289 46.151 46.9907 46.1422 46.9862 46.4796C47.0158 48.1744 48.4348 49.0086 49.4655 48.8115C51.0541 48.5063 51.5613 46.9119 51.5458 45.9738C51.4995 43.0769 48.7135 40.94 46.1097 37.2268V37.2268Z" fill="black"/>
<path d="M1.83338 10.4906C1.87763 9.24039 2.32975 8.77139 3.21983 8.11725C2.50973 7.60502 2.21036 6.84999 2.27132 6.20731C2.41754 4.65102 3.61932 3.87307 4.93067 3.90634C6.24309 3.94108 7.37266 4.98142 7.46082 6.11231C7.53739 7.09538 7.24527 7.56991 6.54787 8.08695C7.37555 8.78581 7.90423 9.24482 7.88464 10.4762C7.86517 11.7076 6.81745 13.173 4.99158 13.2177C3.16574 13.2624 1.788 11.7409 1.83338 10.4906V10.4906ZM6.93035 10.4952C7.00835 9.36315 6.0076 8.59963 4.87803 8.58854C3.77823 8.57668 2.79456 9.51541 2.79456 10.5318C2.79456 11.6231 4.07433 12.2163 4.9009 12.2189C5.90565 12.2234 6.86247 11.4697 6.93035 10.4952ZM6.56889 6.44576C6.59033 5.49337 5.71149 4.81002 4.80437 4.83737C3.99778 4.8622 3.14472 5.47711 3.14328 6.27391C3.14328 7.27138 4.11423 7.76955 4.94335 7.78877C5.69589 7.8057 6.55184 7.16605 6.56889 6.44576V6.44576Z" fill="black"/>
<path d="M55.1155 77.5097C55.1597 78.7599 55.6119 79.2289 56.5019 79.8831C55.7918 80.3953 55.4925 81.1503 55.5534 81.793C55.6996 83.3493 56.9014 84.1272 58.2128 84.094C59.5252 84.0592 60.6548 83.0189 60.7429 81.888C60.8195 80.9049 60.5274 80.4304 59.83 79.9134C60.6577 79.2145 61.1863 78.7555 61.1667 77.5241C61.1473 76.2927 60.0996 74.8273 58.2738 74.7826C56.4479 74.7379 55.0701 76.2594 55.1155 77.5097V77.5097ZM60.2125 77.5052C60.2905 78.6371 59.2897 79.4007 58.1601 79.4118C57.0603 79.4236 56.0767 78.4849 56.0767 77.4685C56.0767 76.3772 57.3564 75.784 58.183 75.7814C59.1877 75.7769 60.1446 76.5306 60.2125 77.5052V77.5052ZM59.851 81.5545C59.8724 82.5069 58.9936 83.1903 58.0865 83.1629C57.2799 83.1381 56.4268 82.5232 56.4254 81.7264C56.4254 80.7289 57.3963 80.2307 58.2255 80.2115C58.978 80.1946 59.8339 80.8343 59.851 81.5545V81.5545Z" fill="black"/>
</g>
<defs>
<clipPath id="clip0">
<rect width="63.0002" height="88.0003" fill="white"/>
</clipPath>
</defs>
</svg>
