<svg width="63" height="88" viewBox="0 0 63 88" fill="none" xmlns="http://www.w3.org/2000/svg">
<g clip-path="url(#clip0)">
<path d="M59.9867 0H3.01344C1.34915 0 0 1.34745 0 3.00962V84.9904C0 86.6526 1.34915 88 3.01344 88H59.9867C61.651 88 63.0001 86.6526 63.0001 84.9904V3.00962C63.0001 1.34745 61.651 0 59.9867 0Z" fill="white"/>
<path d="M46.1086 9.34462C43.3376 9.4047 42.0951 12.5206 44.1473 14.9402C44.4449 15.2931 44.4756 15.4956 43.9305 15.1566C42.5488 14.2339 39.8995 14.8404 39.7639 17.6615C39.5963 21.1375 44.4593 22.139 45.3723 18.4429C45.4205 18.0529 45.7379 18.0618 45.6613 18.6153C45.5781 20.1177 45.1083 21.5219 44.4626 22.8913C45.5509 22.8913 46.7672 22.8913 47.7568 22.8913C47.1111 21.5219 46.6413 20.1177 46.558 18.6153C46.4815 18.0618 46.7988 18.0529 46.847 18.4429C47.7601 22.139 52.6231 21.1375 52.4555 17.6615C52.3199 14.8404 49.6705 14.2339 48.2888 15.1566C47.7437 15.4956 47.7745 15.2931 48.0721 14.9402C50.1243 12.5206 48.8818 9.4047 46.1109 9.34462C46.1109 9.34459 46.1109 9.34462 46.108 9.34462H46.1086Z" fill="black"/>
<path d="M16.8893 9.34462C14.1184 9.4047 12.8758 12.5206 14.928 14.9402C15.2257 15.2931 15.2564 15.4956 14.7113 15.1566C13.3296 14.2339 10.6803 14.8404 10.5446 17.6615C10.3771 21.1375 15.24 22.139 16.1531 18.4429C16.2013 18.0529 16.5186 18.0618 16.4421 18.6153C16.3588 20.1177 15.8891 21.5219 15.2434 22.8913C16.3317 22.8913 17.548 22.8913 18.5375 22.8913C17.8918 21.5219 17.4221 20.1177 17.3388 18.6153C17.2623 18.0618 17.5796 18.0529 17.6277 18.4429C18.5408 22.139 23.4038 21.1375 23.2362 17.6615C23.1006 14.8404 20.4512 14.2339 19.0695 15.1566C18.5245 15.4956 18.5552 15.2931 18.8528 14.9402C20.905 12.5206 19.6625 9.4047 16.8915 9.34462C16.8915 9.34459 16.8915 9.34462 16.8887 9.34462H16.8893Z" fill="black"/>
<path d="M46.1086 78.8902C43.3376 78.8301 42.0951 75.7143 44.1473 73.2946C44.4449 72.9417 44.4756 72.7392 43.9305 73.0782C42.5488 74.0009 39.8995 73.3943 39.7639 70.5733C39.5963 67.0973 44.4592 66.0958 45.3723 69.7919C45.4205 70.1819 45.7379 70.173 45.6613 69.6195C45.5781 68.1171 45.1083 66.7129 44.4626 65.3435C45.5509 65.3435 46.7672 65.3435 47.7568 65.3435C47.1111 66.7129 46.6413 68.1171 46.558 69.6195C46.4815 70.173 46.7988 70.1819 46.847 69.7919C47.7601 66.0958 52.6231 67.0973 52.4555 70.5733C52.3199 73.3943 49.6705 74.0009 48.2888 73.0782C47.7437 72.7392 47.7745 72.9417 48.0721 73.2946C50.1243 75.7143 48.8817 78.8301 46.1109 78.8902C46.1109 78.8902 46.1109 78.8902 46.108 78.8902H46.1086Z" fill="black"/>
<path d="M16.8893 78.8902C14.1184 78.8301 12.8758 75.7143 14.928 73.2946C15.2257 72.9417 15.2564 72.7392 14.7113 73.0782C13.3296 74.0009 10.6803 73.3943 10.5446 70.5733C10.3771 67.0973 15.24 66.0958 16.1531 69.7919C16.2013 70.1819 16.5186 70.173 16.4421 69.6195C16.3588 68.1171 15.8891 66.7129 15.2434 65.3435C16.3317 65.3435 17.548 65.3435 18.5375 65.3435C17.8918 66.7129 17.4221 68.1171 17.3388 69.6195C17.2623 70.173 17.5796 70.1819 17.6277 69.7919C18.5408 66.0958 23.4038 67.0973 23.2362 70.5733C23.1006 73.3943 20.4512 74.0009 19.0695 73.0782C18.5245 72.7392 18.5552 72.9417 18.8528 73.2946C20.905 75.7143 19.6625 78.8301 16.8915 78.8902C16.8915 78.8902 16.8915 78.8902 16.8887 78.8902H16.8893Z" fill="black"/>
<path d="M31.499 37.3441C28.728 37.4042 27.4855 40.52 29.5377 42.9396C29.8353 43.2926 29.866 43.4951 29.3209 43.1561C27.9393 42.2333 25.2899 42.8399 25.1543 45.661C24.9867 49.1369 29.8496 50.1385 30.7627 46.4423C30.8109 46.0524 31.1282 46.0613 31.0517 46.6148C30.9685 48.1172 30.4987 49.5214 29.853 50.8908C30.9413 50.8908 32.1576 50.8908 33.1471 50.8908C32.5014 49.5214 32.0317 48.1172 31.9484 46.6148C31.8719 46.0613 32.1892 46.0524 32.2374 46.4423C33.1505 50.1385 38.0135 49.1369 37.8459 45.661C37.7102 42.8399 35.0609 42.2333 33.6792 43.1561C33.1341 43.4951 33.1648 43.2926 33.4625 42.9396C35.5147 40.52 34.2721 37.4042 31.5012 37.3441C31.5012 37.3441 31.5012 37.3441 31.4984 37.3441H31.499Z" fill="black"/>
<path d="M58.1417 73.8965C59.25 73.8715 59.7471 72.5732 58.9262 71.565C58.8071 71.418 58.7948 71.3336 59.0129 71.4749C59.5656 71.8593 60.6253 71.6066 60.6796 70.4311C60.7466 68.9828 58.8013 68.5655 58.4362 70.1056C58.4169 70.2681 58.29 70.2644 58.3206 70.0337C58.3539 69.4077 58.5418 68.8226 58.8001 68.2521C58.3609 68.2521 57.9217 68.2521 57.4825 68.2521C57.7408 68.8226 57.9287 69.4077 57.962 70.0337C57.9926 70.2644 57.8656 70.2681 57.8463 70.1056C57.4812 68.5655 55.536 68.9828 55.603 70.4311C55.6573 71.6066 56.7169 71.8593 57.2696 71.4749C57.4877 71.3336 57.4754 71.418 57.3563 71.565C56.5354 72.5732 57.0325 73.8715 58.1408 73.8965C58.1408 73.8965 58.1408 73.8965 58.1408 73.8965H58.1417Z" fill="black"/>
<path d="M16.8893 28.0109C14.1184 28.071 12.8759 31.1868 14.928 33.6065C15.2257 33.9594 15.2564 34.1619 14.7113 33.8229C13.3297 32.9001 10.6803 33.5068 10.5446 36.3278C10.377 39.8038 15.2401 40.8053 16.1531 37.1092C16.2014 36.7192 16.5186 36.7281 16.4422 37.2816C16.3589 38.784 15.8891 40.1883 15.2434 41.5576C16.3317 41.5576 17.548 41.5576 18.5375 41.5576C17.8918 40.1883 17.4221 38.784 17.3388 37.2816C17.2623 36.7281 17.5796 36.7192 17.6277 37.1092C18.5408 40.8053 23.4038 39.8038 23.2363 36.3278C23.1006 33.5068 20.4512 32.9001 19.0695 33.8229C18.5245 34.1619 18.5552 33.9594 18.8528 33.6065C20.905 31.1868 19.6625 28.071 16.8916 28.0109C16.8916 28.0109 16.8915 28.0109 16.8887 28.0109H16.8893Z" fill="black"/>
<path d="M16.8893 60.2239C14.1184 60.1638 12.8758 57.048 14.928 54.6283C15.2257 54.2754 15.2564 54.0729 14.7113 54.4119C13.3296 55.3347 10.6803 54.728 10.5446 51.907C10.3771 48.431 15.24 47.4295 16.1531 51.1256C16.2013 51.5156 16.5186 51.5067 16.4421 50.9532C16.3588 49.4508 15.8891 48.0466 15.2434 46.6772C16.3317 46.6772 17.548 46.6772 18.5375 46.6772C17.8918 48.0466 17.4221 49.4508 17.3388 50.9532C17.2623 51.5067 17.5796 51.5156 17.6277 51.1256C18.5408 47.4295 23.4038 48.431 23.2362 51.907C23.1006 54.728 20.4512 55.3347 19.0695 54.4119C18.5245 54.0729 18.5552 54.2754 18.8528 54.6283C20.905 57.048 19.6625 60.1638 16.8915 60.2239C16.8915 60.2239 16.8915 60.2239 16.8887 60.2239H16.8893Z" fill="black"/>
<path d="M46.1086 28.0109C43.3376 28.071 42.0951 31.1868 44.1473 33.6065C44.4449 33.9594 44.4756 34.1619 43.9305 33.8229C42.5488 32.9001 39.8995 33.5068 39.7639 36.3278C39.5963 39.8038 44.4592 40.8053 45.3723 37.1092C45.4205 36.7192 45.7378 36.7281 45.6613 37.2816C45.5781 38.784 45.1083 40.1883 44.4626 41.5576C45.5509 41.5576 46.7672 41.5576 47.7568 41.5576C47.1111 40.1883 46.6413 38.784 46.558 37.2816C46.4815 36.7281 46.7988 36.7192 46.847 37.1092C47.7601 40.8053 52.6231 39.8038 52.4555 36.3278C52.3199 33.5068 49.6705 32.9001 48.2888 33.8229C47.7437 34.1619 47.7745 33.9594 48.0721 33.6065C50.1243 31.1868 48.8817 28.071 46.1109 28.0109C46.1109 28.0109 46.1109 28.0109 46.108 28.0109H46.1086Z" fill="black"/>
<path d="M46.1086 60.2239C43.3376 60.1638 42.0951 57.048 44.1473 54.6283C44.4449 54.2754 44.4756 54.0729 43.9305 54.4119C42.5488 55.3347 39.8995 54.728 39.7639 51.907C39.5963 48.431 44.4592 47.4295 45.3723 51.1256C45.4205 51.5156 45.7378 51.5067 45.6613 50.9532C45.5781 49.4508 45.1083 48.0466 44.4626 46.6772C45.5509 46.6772 46.7672 46.6772 47.7568 46.6772C47.1111 48.0466 46.6413 49.4508 46.558 50.9532C46.4815 51.5067 46.7988 51.5156 46.847 51.1256C47.7601 47.4295 52.6231 48.431 52.4555 51.907C52.3199 54.728 49.6705 55.3347 48.2888 54.4119C47.7437 54.0729 47.7745 54.2754 48.0721 54.6283C50.1243 57.048 48.8817 60.1638 46.1109 60.2239C46.1109 60.2239 46.1109 60.2239 46.108 60.2239H46.1086Z" fill="black"/>
<path d="M4.8588 14.1036C3.75042 14.1285 3.25343 15.4269 4.07429 16.4351C4.19336 16.5821 4.20557 16.6665 3.98757 16.5253C3.43486 16.1408 2.37519 16.3936 2.3209 17.569C2.25389 19.0173 4.19902 19.4346 4.56424 17.8946C4.58351 17.7321 4.71051 17.7358 4.67989 17.9664C4.64658 18.5924 4.45868 19.1775 4.2004 19.7481C4.6396 19.7481 5.07883 19.7481 5.51803 19.7481C5.25975 19.1775 5.07178 18.5924 5.03847 17.9664C5.00785 17.7358 5.13482 17.7321 5.15412 17.8946C5.51934 19.4346 7.4645 19.0173 7.39745 17.569C7.34319 16.3936 6.28354 16.1408 5.73086 16.5253C5.51283 16.6665 5.5251 16.5821 5.64413 16.4351C6.46503 15.4269 5.96795 14.1286 4.85963 14.1036H4.8588Z" fill="black"/>
<path d="M2.25707 11.4234L3.10906 11.1532C3.4309 12.012 4.08005 12.2663 4.76728 12.2112C6.00025 12.1129 6.40989 10.7345 6.50205 9.51616C6.02162 10.0258 5.29995 10.2844 4.68492 10.2582C2.71899 10.1529 2.21576 8.57937 2.19762 6.9323C2.1439 5.54356 2.7179 4.53768 3.70268 4.07576C4.22444 3.84184 5.41898 3.84181 5.94366 4.11896C7.14831 4.75458 7.59496 5.85252 7.51405 8.47406C7.51405 10.6307 7.05614 13.1425 4.74444 13.1972C3.40952 13.3819 2.39459 12.3428 2.25707 11.4234V11.4234ZM5.60362 9.06012C6.00459 8.80627 6.23029 8.56792 6.41028 8.21132C6.55758 7.91826 6.60872 7.76526 6.56628 7.1592C6.45705 5.59568 5.63776 4.70804 4.4487 4.88395C3.7854 4.98372 3.4226 5.35473 3.21433 6.04466C2.83006 7.32069 3.3177 8.8133 4.23062 9.15696C4.64136 9.31291 5.27634 9.26819 5.60362 9.06012V9.06012Z" fill="black"/>
<path d="M60.7424 76.5768L59.8905 76.8469C59.5686 75.9881 58.9195 75.7339 58.2322 75.7889C56.9993 75.8872 56.5896 77.2656 56.4974 78.484C56.9778 77.9744 57.6996 77.7157 58.3146 77.742C60.2805 77.8473 60.7838 79.4208 60.8019 81.0678C60.8556 82.4566 60.2816 83.4625 59.2968 83.9244C58.775 84.1583 57.5805 84.1583 57.0559 83.8812C55.8512 83.2456 55.4046 82.1476 55.4855 79.5261C55.4855 77.3695 55.9434 74.8577 58.2551 74.803C59.59 74.6182 60.6049 75.6574 60.7424 76.5768V76.5768ZM57.3958 78.94C56.9949 79.1939 56.7692 79.4322 56.5892 79.7889C56.4419 80.0819 56.3908 80.2349 56.4332 80.8409C56.5425 82.4045 57.3618 83.2921 58.5508 83.1162C59.2141 83.0164 59.5769 82.6454 59.7852 81.9555C60.1695 80.6795 59.6818 79.1869 58.7688 78.8432C58.3581 78.6872 57.7231 78.732 57.3958 78.94V78.94Z" fill="black"/>
</g>
<defs>
<clipPath id="clip0">
<rect width="63.0001" height="88" fill="white"/>
</clipPath>
</defs>
</svg>
