<svg width="63" height="88" viewBox="0 0 63 88" fill="none" xmlns="http://www.w3.org/2000/svg">
<path d="M59.9867 3.05176e-05H3.01343C1.34914 3.05176e-05 0 1.34749 0 3.00966V84.9907C0 86.6529 1.34914 88.0003 3.01343 88.0003H59.9867C61.651 88.0003 63.0002 86.6529 63.0002 84.9907V3.00966C63.0002 1.34749 61.651 3.05176e-05 59.9867 3.05176e-05Z" fill="white"/>
<path d="M4.85913 19.7481C4.24927 18.741 3.60764 17.7621 2.80585 16.9259C3.60764 16.0897 4.24927 15.1108 4.85913 14.1036C5.46899 15.1108 6.11059 16.0897 6.91241 16.9259C6.11059 17.7621 5.46899 18.741 4.85913 19.7481Z" fill="#C8102E"/>
<path d="M46.1098 22.774C44.6462 20.3568 43.1063 18.0075 41.1819 16.0006C43.1063 13.9938 44.6462 11.6445 46.1098 9.22728C47.5735 11.6445 49.1134 13.9938 51.0377 16.0006C49.1134 18.0075 47.5735 20.3568 46.1098 22.774Z" fill="#C8102E"/>
<path d="M58.1414 73.8967C57.5315 72.8896 56.8899 71.9107 56.0881 71.0745C56.8899 70.2383 57.5315 69.2594 58.1414 68.2523C58.7512 69.2594 59.3928 70.2383 60.1946 71.0745C59.3928 71.9107 58.7512 72.8896 58.1414 73.8967Z" fill="#C8102E"/>
<path d="M16.8905 22.774C15.4268 20.3568 13.8869 18.0075 11.9626 16.0006C13.8869 13.9938 15.4268 11.6445 16.8905 9.22728C18.3541 11.6445 19.894 13.9938 21.8183 16.0006C19.894 18.0075 18.3541 20.3568 16.8905 22.774Z" fill="#C8102E"/>
<path d="M46.1098 41.4423C44.6462 39.0252 43.1063 36.6758 41.1819 34.669C43.1063 32.6622 44.6462 30.3128 46.1098 27.8956C47.5735 30.3128 49.1134 32.6622 51.0377 34.669C49.1134 36.6758 47.5735 39.0252 46.1098 41.4423Z" fill="#C8102E"/>
<path d="M16.8905 41.4423C15.4268 39.0252 13.8869 36.6758 11.9626 34.669C13.8869 32.6622 15.4268 30.3128 16.8905 27.8956C18.3541 30.3128 19.894 32.6622 21.8183 34.669C19.894 36.6758 18.3541 39.0252 16.8905 41.4423Z" fill="#C8102E"/>
<path d="M31.5001 50.7735C30.0365 48.3563 28.4966 46.007 26.5723 44.0002C28.4966 41.9933 30.0365 39.644 31.5001 37.2268C32.9638 39.644 34.5037 41.9933 36.428 44.0002C34.5037 46.007 32.9638 48.3563 31.5001 50.7735Z" fill="#C8102E"/>
<path d="M16.8905 78.7745C15.4268 76.3573 13.8869 74.008 11.9626 72.0011C13.8869 69.9943 15.4268 67.645 16.8905 65.2278C18.3541 67.645 19.894 69.9943 21.8183 72.0011C19.894 74.008 18.3541 76.3573 16.8905 78.7745Z" fill="#C8102E"/>
<path d="M46.1098 78.7765C44.6462 76.3593 43.1063 74.01 41.1819 72.0031C43.1063 69.9963 44.6462 67.647 46.1098 65.2297C47.5735 67.647 49.1134 69.9963 51.0377 72.0031C49.1134 74.01 47.5735 76.3593 46.1098 78.7765Z" fill="#C8102E"/>
<path d="M46.1098 60.1063C44.6462 57.6891 43.1063 55.3398 41.1819 53.333C43.1063 51.3261 44.6462 48.9768 46.1098 46.5596C47.5735 48.9768 49.1134 51.3261 51.0377 53.333C49.1134 55.3398 47.5735 57.6891 46.1098 60.1063Z" fill="#C8102E"/>
<path d="M16.8905 60.0972C15.4268 57.6801 13.8869 55.3307 11.9626 53.3239C13.8869 51.3171 15.4268 48.9677 16.8905 46.5505C18.3541 48.9677 19.894 51.3171 21.8183 53.3239C19.894 55.3307 18.3541 57.6801 16.8905 60.0972Z" fill="#C8102E"/>
<path d="M2.25708 11.4234L3.10905 11.1532C3.4309 12.012 4.08001 12.2663 4.76725 12.2112C6.00023 12.1129 6.4099 10.7345 6.50207 9.51615C6.02164 10.0258 5.29993 10.2844 4.68491 10.2582C2.71898 10.1529 2.21576 8.57936 2.19762 6.93231C2.14391 5.54358 2.71795 4.53768 3.70271 4.07573C4.22449 3.84183 5.41894 3.84183 5.94362 4.11897C7.14829 4.75459 7.59502 5.8525 7.5141 8.47404C7.5141 10.6307 7.05616 13.1425 4.74445 13.1972C3.40953 13.382 2.39461 12.3428 2.25708 11.4234V11.4234ZM5.60365 9.06013C6.00461 8.80627 6.23032 8.56791 6.41029 8.21129C6.55761 7.91826 6.60876 7.76526 6.56629 7.15922C6.45707 5.59567 5.63778 4.70803 4.44872 4.88394C3.78541 4.9837 3.42255 5.35474 3.21427 6.04466C2.82999 7.32071 3.31771 8.81327 4.23064 9.15696C4.64139 9.31289 5.27636 9.26819 5.60365 9.06013V9.06013Z" fill="#C8102E"/>
<path d="M60.7425 76.577L59.8905 76.8471C59.5687 75.9883 58.9195 75.7341 58.2322 75.7891C56.9993 75.8874 56.5896 77.2658 56.4974 78.4842C56.9779 77.9746 57.6996 77.7159 58.3146 77.7422C60.2805 77.8475 60.7838 79.421 60.802 81.0681C60.8557 82.4568 60.2816 83.4627 59.2969 83.9246C58.7751 84.1585 57.5806 84.1585 57.0559 83.8814C55.8512 83.2458 55.4045 82.1479 55.4855 79.5263C55.4855 77.3697 55.9434 74.8579 58.2551 74.8032C59.59 74.6184 60.605 75.6576 60.7425 76.577V76.577ZM57.3959 78.9402C56.995 79.1941 56.7692 79.4325 56.5893 79.7891C56.442 80.0821 56.3908 80.2351 56.4333 80.8412C56.5425 82.4047 57.3618 83.2923 58.5508 83.1164C59.2142 83.0167 59.5769 82.6456 59.7852 81.9557C60.1695 80.6797 59.6819 79.1871 58.7689 78.8434C58.3582 78.6875 57.7232 78.7322 57.3959 78.9402V78.9402Z" fill="#C8102E"/>
</svg>
