<svg width="63" height="88" viewBox="0 0 63 88" fill="none" xmlns="http://www.w3.org/2000/svg">
<g clip-path="url(#clip0)">
<path d="M59.9868 3.05176e-05H3.01347C1.34918 3.05176e-05 1.52588e-05 1.34749 1.52588e-05 3.00967V84.9907C1.52588e-05 86.6529 1.34918 88.0003 3.01347 88.0003H59.9868C61.651 88.0003 63.0002 86.6529 63.0002 84.9907V3.00967C63.0002 1.34749 61.651 3.05176e-05 59.9868 3.05176e-05Z" fill="white"/>
<path d="M16.8912 41.4414C16.8912 41.4414 15.5743 39.2809 13.7978 36.7406C12.6094 35.0407 11.6592 33.2001 11.5709 31.6146C11.4696 29.8035 12.4286 27.9865 14.1649 27.8985C15.9002 27.8104 16.6045 29.2949 16.8912 30.5188C17.178 29.2949 17.8823 27.8104 19.6176 27.8985C21.3539 27.9865 22.3129 29.8035 22.2116 31.6146C22.1233 33.2001 21.1731 35.0407 19.9847 36.7406C18.2082 39.2809 16.8912 41.4414 16.8912 41.4414V41.4414Z" fill="#C8102E"/>
<path d="M4.85985 19.7492C4.85985 19.7483 4.23199 18.849 3.38504 17.7905C2.81842 17.0822 2.36545 16.3153 2.32331 15.6547C2.27503 14.9001 2.73226 14.143 3.56004 14.1063C4.38735 14.0696 4.72314 14.6881 4.85985 15.1981C4.99656 14.6881 5.33238 14.0696 6.15966 14.1063C6.98745 14.143 7.4447 14.9001 7.39639 15.6547C7.35428 16.3153 6.90128 17.0822 6.33469 17.7905C5.48771 18.849 4.86039 19.7485 4.85985 19.7492V19.7492Z" fill="#C8102E"/>
<path d="M58.142 68.2534C58.142 68.2534 57.5142 69.1536 56.6672 70.212C56.1006 70.9203 55.6476 71.6873 55.6055 72.3479C55.5572 73.1025 56.0144 73.8596 56.8422 73.8963C57.6695 73.9329 58.0053 73.3144 58.142 72.8045C58.2787 73.3144 58.6145 73.9329 59.4418 73.8963C60.2696 73.8596 60.7269 73.1025 60.6786 72.3479C60.6364 71.6873 60.1834 70.9203 59.6169 70.212C58.7699 69.1536 58.142 68.2534 58.142 68.2534V68.2534Z" fill="#C8102E"/>
<path d="M16.8912 22.775C16.8912 22.775 15.5743 20.6145 13.7978 18.0743C12.6094 16.3744 11.6592 14.5337 11.5709 12.9482C11.4696 11.1371 12.4286 9.32013 14.1649 9.23207C15.9002 9.14406 16.6045 10.6285 16.8912 11.8524C17.178 10.6285 17.8823 9.14406 19.6176 9.23207C21.3539 9.32013 22.3129 11.1371 22.2116 12.9482C22.1233 14.5337 21.1731 16.3744 19.9847 18.0743C18.2082 20.6145 16.8912 22.775 16.8912 22.775Z" fill="#C8102E"/>
<path d="M46.1105 41.4414C46.1105 41.4414 44.7935 39.2809 43.0171 36.7406C41.8286 35.0407 40.8785 33.2001 40.7901 31.6146C40.6888 29.8035 41.6479 27.9865 43.3842 27.8985C45.1194 27.8104 45.8238 29.2949 46.1105 30.5188C46.3972 29.2949 47.1016 27.8104 48.8368 27.8985C50.5731 27.9865 51.5321 29.8035 51.4308 31.6146C51.3425 33.2001 50.3924 35.0407 49.2039 36.7406C47.4274 39.2809 46.1105 41.4414 46.1105 41.4414V41.4414Z" fill="#C8102E"/>
<path d="M46.1105 22.775C46.1105 22.775 44.7935 20.6145 43.0171 18.0743C41.8286 16.3744 40.8785 14.5337 40.7901 12.9482C40.6888 11.1371 41.6479 9.32013 43.3842 9.23207C45.1194 9.14406 45.8238 10.6285 46.1105 11.8524C46.3972 10.6285 47.1016 9.14406 48.8368 9.23207C50.5731 9.32013 51.5321 11.1371 51.4308 12.9482C51.3425 14.5337 50.3924 16.3744 49.2039 18.0743C47.4274 20.6145 46.1105 22.775 46.1105 22.775Z" fill="#C8102E"/>
<path d="M31.5009 50.7746C31.5009 50.7746 30.1839 48.6141 28.4074 46.0738C27.219 44.3739 26.2689 42.5332 26.1805 40.9478C26.0792 39.1367 27.0383 37.3197 28.7745 37.2316C30.5098 37.1436 31.2141 38.6281 31.5009 39.852C31.7876 38.6281 32.4919 37.1436 34.2272 37.2316C35.9635 37.3197 36.9225 39.1367 36.8212 40.9478C36.7329 42.5332 35.7827 44.3739 34.5943 46.0738C32.8178 48.6141 31.5009 50.7746 31.5009 50.7746V50.7746Z" fill="#C8102E"/>
<path d="M46.1105 46.5611C46.1105 46.5611 44.7935 48.7216 43.0171 51.2619C41.8286 52.9618 40.8785 54.8024 40.7901 56.3879C40.6888 58.199 41.6479 60.016 43.3842 60.1041C45.1194 60.1921 45.8238 58.7076 46.1105 57.4837C46.3972 58.7076 47.1016 60.1921 48.8368 60.1041C50.5731 60.016 51.5321 58.199 51.4308 56.3879C51.3425 54.8024 50.3924 52.9618 49.2039 51.2619C47.4274 48.7216 46.1105 46.5611 46.1105 46.5611Z" fill="#C8102E"/>
<path d="M16.8912 46.5611C16.8912 46.5611 15.5743 48.7216 13.7978 51.2619C12.6094 52.9618 11.6592 54.8024 11.5709 56.3879C11.4696 58.199 12.4286 60.016 14.1649 60.1041C15.9002 60.1921 16.6045 58.7076 16.8912 57.4837C17.178 58.7076 17.8823 60.1921 19.6176 60.1041C21.3539 60.016 22.3129 58.199 22.2116 56.3879C22.1233 54.8024 21.1731 52.9618 19.9847 51.2619C18.2082 48.7216 16.8912 46.5611 16.8912 46.5611Z" fill="#C8102E"/>
<path d="M46.1105 65.2274C46.1105 65.2274 44.7935 67.388 43.0171 69.9282C41.8286 71.6281 40.8785 73.4688 40.7901 75.0543C40.6888 76.8654 41.6479 78.6824 43.3842 78.7704C45.1194 78.8584 45.8238 77.374 46.1105 76.1501C46.3972 77.374 47.1016 78.8584 48.8368 78.7704C50.5731 78.6824 51.5321 76.8654 51.4308 75.0543C51.3425 73.4688 50.3924 71.6281 49.2039 69.9282C47.4274 67.388 46.1105 65.2274 46.1105 65.2274V65.2274Z" fill="#C8102E"/>
<path d="M16.8912 65.2274C16.8912 65.2274 15.5743 67.388 13.7978 69.9282C12.6094 71.6281 11.6592 73.4688 11.5709 75.0543C11.4696 76.8654 12.4286 78.6824 14.1649 78.7704C15.9002 78.8584 16.6045 77.374 16.8912 76.1501C17.178 77.374 17.8823 78.8584 19.6176 78.7704C21.3539 78.6824 22.3129 76.8654 22.2116 75.0543C22.1233 73.4688 21.1731 71.6281 19.9847 69.9282C18.2082 67.388 16.8912 65.2274 16.8912 65.2274V65.2274Z" fill="#C8102E"/>
<path d="M2.25764 11.4246L3.10962 11.1545C3.43147 12.0133 4.08064 12.2675 4.76789 12.2125C6.00086 12.1142 6.41046 10.7358 6.50263 9.51739C6.02221 10.027 5.3005 10.2857 4.68548 10.2594C2.71954 10.1541 2.21633 8.58062 2.19818 6.93356C2.14447 5.54483 2.71852 4.53893 3.70328 4.07699C4.22505 3.84308 5.4195 3.84308 5.94418 4.12022C7.14885 4.75584 7.59558 5.85374 7.51467 8.47528C7.51467 10.6319 7.05673 13.1437 4.74501 13.1984C3.41009 13.3832 2.39517 12.3441 2.25764 11.4246V11.4246ZM5.60422 9.06136C6.00517 8.8075 6.23088 8.56914 6.41086 8.21252C6.55818 7.91949 6.60933 7.7665 6.56685 7.16046C6.45763 5.59691 5.63834 4.70926 4.44928 4.88517C3.78597 4.98494 3.42311 5.35597 3.21483 6.0459C2.83056 7.32194 3.31827 8.81454 4.23121 9.15821C4.64195 9.31416 5.27693 9.26942 5.60422 9.06136V9.06136Z" fill="#C8102E"/>
<path d="M60.7431 76.5782L59.8911 76.8484C59.5692 75.9896 58.9201 75.7353 58.2328 75.7904C56.9998 75.8887 56.5902 77.2671 56.498 78.4854C56.9784 77.9758 57.7001 77.7172 58.3151 77.7434C60.2811 77.8487 60.7844 79.4222 60.8025 81.0693C60.8562 82.458 60.2822 83.4639 59.2974 83.9259C58.7756 84.1598 57.5811 84.1598 57.0564 83.8826C55.8518 83.247 55.4051 82.1491 55.486 79.5276C55.486 77.3709 55.944 74.8591 58.2557 74.8044C59.5906 74.6196 60.6055 75.6588 60.7431 76.5782ZM57.3965 78.9415C56.9955 79.1953 56.7698 79.4337 56.5898 79.7903C56.4425 80.0833 56.3914 80.2363 56.4338 80.8424C56.5431 82.4059 57.3624 83.2936 58.5514 83.1177C59.2147 83.0179 59.5775 82.6469 59.7858 81.9569C60.1701 80.6809 59.6824 79.1883 58.7695 78.8446C58.3587 78.6887 57.7238 78.7334 57.3965 78.9415V78.9415Z" fill="#C8102E"/>
</g>
<defs>
<clipPath id="clip0">
<rect width="63.0002" height="88.0003" fill="white"/>
</clipPath>
</defs>
</svg>
