<svg width="63" height="88" viewBox="0 0 63 88" fill="none" xmlns="http://www.w3.org/2000/svg">
<g clip-path="url(#clip0)">
<path d="M59.9867 0H3.01342C1.34913 0 -1.52588e-05 1.34746 -1.52588e-05 3.00964V84.9907C-1.52588e-05 86.6528 1.34913 88.0003 3.01342 88.0003H59.9867C61.651 88.0003 63.0002 86.6528 63.0002 84.9907V3.00964C63.0002 1.34746 61.651 0 59.9867 0Z" fill="white"/>
<path d="M16.8905 9.22725C14.2867 12.9405 11.5007 15.0773 11.4544 17.9743C11.4388 18.9124 11.946 20.5068 13.5347 20.812C14.5653 21.0091 15.9844 20.1749 16.014 18.4801C16.0095 18.1427 16.3713 18.1515 16.3679 18.6138C16.3194 19.9506 15.8962 21.507 15.185 22.774C16.322 22.774 17.4589 22.774 18.5959 22.774C17.8847 21.507 17.4616 19.9506 17.413 18.6138C17.4096 18.1515 17.7714 18.1427 17.7669 18.4801C17.7965 20.1749 19.2156 21.0091 20.2463 20.812C21.8349 20.5068 22.3421 18.9124 22.3266 17.9743C22.2803 15.0773 19.4943 12.9405 16.8905 9.22725V9.22725Z" fill="black"/>
<path d="M4.8591 14.1036C3.64255 15.6508 2.34092 16.5411 2.3193 17.7482C2.31196 18.1391 2.54899 18.8034 3.29124 18.9306C3.77279 19.0127 4.43576 18.6651 4.44962 17.959C4.4468 17.8184 4.61656 17.822 4.61498 18.0147C4.59241 18.5717 4.39461 19.2202 4.06232 19.7481C4.59355 19.7481 5.12473 19.7481 5.65596 19.7481C5.32367 19.2202 5.12595 18.5717 5.10329 18.0147C5.10047 17.822 5.27071 17.8184 5.26859 17.959C5.28242 18.6651 5.94548 19.0127 6.42704 18.9306C7.16929 18.8034 7.40623 18.1391 7.39897 17.7482C7.37724 16.5411 6.07563 15.6508 4.8591 14.1036V14.1036Z" fill="black"/>
<path d="M16.8905 60.1067C14.2867 56.3934 11.5007 54.2566 11.4544 51.3596C11.4388 50.4216 11.946 48.8271 13.5347 48.5219C14.5653 48.3249 15.9844 49.1591 16.014 50.8538C16.0095 51.1912 16.3713 51.1825 16.3679 50.7201C16.3194 49.3833 15.8962 47.8269 15.185 46.56C16.322 46.56 17.4589 46.56 18.5959 46.56C17.8847 47.8269 17.4616 49.3833 17.413 50.7201C17.4096 51.1825 17.7714 51.1912 17.7669 50.8538C17.7965 49.1591 19.2156 48.3249 20.2463 48.5219C21.8349 48.8271 22.3421 50.4216 22.3266 51.3596C22.2803 54.2566 19.4943 56.3934 16.8905 60.1067V60.1067Z" fill="black"/>
<path d="M58.1413 73.8967C56.9247 72.3495 55.6231 71.4592 55.6015 70.2521C55.5941 69.8612 55.8312 69.1969 56.5734 69.0697C57.055 68.9876 57.718 69.3352 57.7319 70.0414C57.729 70.1819 57.8987 70.1783 57.8971 69.9856C57.8746 69.4286 57.6768 68.7801 57.3445 68.2522C57.8757 68.2522 58.4069 68.2522 58.9381 68.2522C58.6058 68.7801 58.4081 69.4286 58.3855 69.9856C58.3826 70.1783 58.5529 70.1819 58.5508 70.0414C58.5646 69.3352 59.2276 68.9876 59.7092 69.0697C60.4515 69.1969 60.6884 69.8612 60.6811 70.2521C60.6594 71.4592 59.3578 72.3495 58.1413 73.8967V73.8967Z" fill="black"/>
<path d="M46.1098 9.22725C43.506 12.9405 40.72 15.0773 40.6737 17.9743C40.6581 18.9124 41.1653 20.5068 42.754 20.812C43.7846 21.0091 45.2037 20.1749 45.2333 18.4801C45.2288 18.1427 45.5906 18.1515 45.5872 18.6138C45.5387 19.9506 45.1155 21.507 44.4043 22.774C45.5413 22.774 46.6782 22.774 47.8152 22.774C47.104 21.507 46.6809 19.9506 46.6323 18.6138C46.6289 18.1515 46.9907 18.1427 46.9862 18.4801C47.0158 20.1749 48.4349 21.0091 49.4656 20.812C51.0542 20.5068 51.5614 18.9124 51.5459 17.9743C51.4996 15.0773 48.7136 12.9405 46.1098 9.22725V9.22725Z" fill="black"/>
<path d="M16.8905 27.8936C14.2867 31.6068 11.5007 33.7437 11.4544 36.6406C11.4388 37.5787 11.946 39.1731 13.5347 39.4783C14.5653 39.6754 15.9844 38.8412 16.014 37.1464C16.0095 36.809 16.3713 36.8178 16.3679 37.2801C16.3194 38.617 15.8962 40.1734 15.185 41.4403C16.322 41.4403 17.4589 41.4403 18.5959 41.4403C17.8847 40.1734 17.4616 38.617 17.413 37.2801C17.4096 36.8178 17.7714 36.809 17.7669 37.1464C17.7965 38.8412 19.2156 39.6754 20.2463 39.4783C21.8349 39.1731 22.3421 37.5787 22.3266 36.6406C22.2803 33.7437 19.4943 31.6068 16.8905 27.8936V27.8936Z" fill="black"/>
<path d="M46.1098 27.8936C43.506 31.6068 40.72 33.7437 40.6737 36.6406C40.6581 37.5787 41.1653 39.1731 42.754 39.4783C43.7846 39.6754 45.2037 38.8412 45.2333 37.1464C45.2288 36.809 45.5906 36.8178 45.5872 37.2801C45.5387 38.617 45.1155 40.1734 44.4043 41.4403C45.5413 41.4403 46.6782 41.4403 47.8152 41.4403C47.104 40.1734 46.6809 38.617 46.6323 37.2801C46.6289 36.8178 46.9907 36.809 46.9862 37.1464C47.0158 38.8412 48.4349 39.6754 49.4656 39.4783C51.0542 39.1731 51.5614 37.5787 51.5459 36.6406C51.4996 33.7437 48.7136 31.6068 46.1098 27.8936V27.8936Z" fill="black"/>
<path d="M16.8905 78.773C14.2867 75.0598 11.5007 72.9229 11.4544 70.026C11.4388 69.0879 11.946 67.4935 13.5347 67.1883C14.5653 66.9912 15.9844 67.8254 16.014 69.5202C16.0095 69.8576 16.3713 69.8488 16.3679 69.3865C16.3194 68.0497 15.8962 66.4933 15.185 65.2263C16.322 65.2263 17.4589 65.2263 18.5959 65.2263C17.8847 66.4933 17.4616 68.0497 17.413 69.3865C17.4096 69.8488 17.7714 69.8576 17.7669 69.5202C17.7965 67.8254 19.2156 66.9912 20.2463 67.1883C21.8349 67.4935 22.3421 69.0879 22.3266 70.026C22.2803 72.9229 19.4943 75.0598 16.8905 78.773V78.773Z" fill="black"/>
<path d="M46.1098 78.773C43.506 75.0598 40.72 72.9229 40.6737 70.026C40.6581 69.0879 41.1653 67.4935 42.754 67.1883C43.7846 66.9912 45.2037 67.8254 45.2333 69.5202C45.2288 69.8576 45.5906 69.8488 45.5872 69.3865C45.5387 68.0497 45.1155 66.4933 44.4043 65.2263C45.5413 65.2263 46.6782 65.2263 47.8152 65.2263C47.104 66.4933 46.6809 68.0497 46.6323 69.3865C46.6289 69.8488 46.9907 69.8576 46.9862 69.5202C47.0158 67.8254 48.4349 66.9912 49.4656 67.1883C51.0542 67.4935 51.5614 69.0879 51.5459 70.026C51.4996 72.9229 48.7136 75.0598 46.1098 78.773V78.773Z" fill="black"/>
<path d="M46.1098 60.1067C43.506 56.3934 40.72 54.2566 40.6737 51.3596C40.6581 50.4216 41.1653 48.8271 42.754 48.5219C43.7846 48.3249 45.2037 49.1591 45.2333 50.8538C45.2288 51.1912 45.5906 51.1825 45.5872 50.7201C45.5387 49.3833 45.1155 47.8269 44.4043 46.56C45.5413 46.56 46.6782 46.56 47.8152 46.56C47.104 47.8269 46.6809 49.3833 46.6323 50.7201C46.6289 51.1825 46.9907 51.1912 46.9862 50.8538C47.0158 49.1591 48.4349 48.3249 49.4656 48.5219C51.0542 48.8271 51.5614 50.4216 51.5459 51.3596C51.4996 54.2566 48.7136 56.3934 46.1098 60.1067V60.1067Z" fill="black"/>
<path d="M31.5002 37.2268C28.8964 40.94 26.1103 43.0769 26.064 45.9738C26.0485 46.9119 26.5557 48.5063 28.1443 48.8115C29.175 49.0086 30.5941 48.1744 30.6237 46.4796C30.6192 46.1422 30.981 46.151 30.9776 46.6133C30.9291 47.9501 30.5059 49.5066 29.7947 50.7735C30.9317 50.7735 32.0686 50.7735 33.2056 50.7735C32.4944 49.5066 32.0712 47.9501 32.0227 46.6133C32.0193 46.151 32.3811 46.1422 32.3766 46.4796C32.4062 48.1744 33.8253 49.0086 34.856 48.8115C36.4446 48.5063 36.9518 46.9119 36.9363 45.9738C36.89 43.0769 34.1039 40.94 31.5002 37.2268V37.2268Z" fill="black"/>
<path d="M2.25707 11.4234L3.10905 11.1532C3.43089 12.012 4.08003 12.2663 4.76724 12.2112C6.00025 12.1129 6.40986 10.7345 6.50206 9.51614C6.02163 10.0258 5.29996 10.2844 4.68491 10.2582C2.71897 10.1529 2.21569 8.57936 2.19754 6.9323C2.14383 5.54354 2.71785 4.53764 3.70264 4.07572C4.22441 3.84179 5.4189 3.84179 5.94361 4.11896C7.14828 4.75456 7.59497 5.85249 7.51403 8.47403C7.51403 10.6307 7.05609 13.1425 4.74437 13.1972C3.40945 13.3819 2.39453 12.3428 2.257 11.4234H2.25707ZM5.60365 9.06012C6.0046 8.80623 6.23031 8.5679 6.41028 8.21128C6.55761 7.91822 6.60875 7.76523 6.56628 7.15918C6.45703 5.59564 5.63773 4.70802 4.44864 4.8839C3.78533 4.9837 3.42254 5.3547 3.21426 6.04465C2.82998 7.3207 3.31767 8.81326 4.23064 9.15695C4.64135 9.31288 5.27631 9.26818 5.60358 9.06012H5.60365Z" fill="black"/>
<path d="M60.7424 76.577L59.8904 76.8471C59.5686 75.9883 58.9195 75.734 58.2322 75.7891C56.9992 75.8874 56.5896 77.2658 56.4974 78.4842C56.9778 77.9746 57.6996 77.7159 58.3146 77.7421C60.2805 77.8475 60.7838 79.421 60.8019 81.068C60.8556 82.4568 60.2816 83.4627 59.2968 83.9246C58.7751 84.1585 57.5806 84.1585 57.0559 83.8814C55.8512 83.2458 55.4045 82.1478 55.4855 79.5263C55.4855 77.3697 55.9434 74.8578 58.2551 74.8031C59.59 74.6184 60.6049 75.6575 60.7424 76.577V76.577ZM57.3958 78.9402C56.9949 79.1941 56.7691 79.4324 56.5892 79.789C56.4419 80.0821 56.3907 80.2351 56.4332 80.8411C56.5425 82.4047 57.3617 83.2923 58.5508 83.1164C59.2141 83.0166 59.5769 82.6456 59.7852 81.9557C60.1695 80.6796 59.6819 79.1871 58.7689 78.8434C58.3582 78.6874 57.7232 78.7321 57.3959 78.9402H57.3958Z" fill="black"/>
</g>
<defs>
<clipPath id="clip0">
<rect width="63.0002" height="88.0003" fill="white"/>
</clipPath>
</defs>
</svg>
