<svg width="63" height="88" viewBox="0 0 63 88" fill="none" xmlns="http://www.w3.org/2000/svg">
<g clip-path="url(#clip0)">
<path d="M59.9867 0H3.01346C1.34917 0 0 1.34745 0 3.00962V84.9904C0 86.6526 1.34917 88 3.01346 88H59.9867C61.651 88 63.0001 86.6526 63.0001 84.9904V3.00962C63.0001 1.34745 61.651 0 59.9867 0Z" fill="white"/>
<path d="M31.4989 37.344C28.7279 37.4041 27.4854 40.52 29.5376 42.9396C29.8352 43.2925 29.866 43.495 29.3209 43.156C27.9392 42.2332 25.2899 42.8399 25.1542 45.6609C24.9866 49.1369 29.8496 50.1384 30.7627 46.4423C30.8109 46.0523 31.1282 46.0612 31.0517 46.6147C30.9684 48.1171 30.4986 49.5214 29.8529 50.8907C30.9412 50.8907 32.1575 50.8907 33.1471 50.8907C32.5014 49.5214 32.0316 48.1171 31.9483 46.6147C31.8718 46.0612 32.1892 46.0523 32.2374 46.4423C33.1504 50.1384 38.0134 49.1369 37.8458 45.6609C37.7102 42.8399 35.0608 42.2332 33.6792 43.156C33.1341 43.495 33.1648 43.2925 33.4624 42.9396C35.5146 40.52 34.2721 37.4041 31.5012 37.344C31.5012 37.344 31.5012 37.344 31.4983 37.344H31.4989Z" fill="black"/>
<path d="M58.1416 73.8965C59.25 73.8714 59.747 72.5732 58.9262 71.565C58.8071 71.418 58.7948 71.3336 59.0129 71.4748C59.5655 71.8593 60.6252 71.6065 60.6795 70.4311C60.7465 68.9828 58.8014 68.5655 58.4361 70.1055C58.4169 70.268 58.2899 70.2643 58.3205 70.0337C58.3538 69.4077 58.5418 68.8226 58.8 68.252C58.3609 68.252 57.9216 68.252 57.4824 68.252C57.7407 68.8226 57.9286 69.4077 57.9619 70.0337C57.9925 70.2643 57.8656 70.268 57.8463 70.1055C57.4811 68.5655 55.5359 68.9828 55.6029 70.4311C55.6572 71.6065 56.7169 71.8593 57.2696 71.4748C57.4876 71.3336 57.4754 71.418 57.3563 71.565C56.5354 72.5732 57.0324 73.8714 58.1408 73.8965C58.1411 73.8965 58.1408 73.8965 58.1408 73.8965H58.1416Z" fill="black"/>
<path d="M2.0105 13.2186V12.4223H2.77033L4.38899 3.9053H5.31027L7.09333 12.4223H7.70691V13.2186H5.61615V12.4223H6.18039L5.95507 11.1171H3.84582L3.68289 12.4223H4.24711V13.2186H2.0105ZM5.77509 10.1874L4.85815 5.62882L3.99929 10.1874H5.77509Z" fill="black"/>
<path d="M55.2926 74.7814V75.5778H56.0524L57.6711 84.0947H58.5924L60.3754 75.5778H60.989V74.7814H58.8983V75.5778H59.4625L59.2372 76.8829H57.1279L56.965 75.5778H57.5292V74.7814H55.2926ZM59.0572 77.8127L58.1403 82.3713L57.2814 77.8127H59.0572Z" fill="black"/>
<path d="M4.8587 14.1036C3.75033 14.1285 3.2533 15.4269 4.07418 16.4351C4.19324 16.5821 4.20553 16.6665 3.98748 16.5252C3.4348 16.1407 2.37508 16.3935 2.32081 17.569C2.25379 19.0173 4.19897 19.4346 4.5642 17.8945C4.58339 17.732 4.71042 17.7357 4.6798 17.9664C4.6465 18.5924 4.4586 19.1775 4.2003 19.748C4.6395 19.748 5.07872 19.748 5.51792 19.748C5.25962 19.1775 5.07172 18.5924 5.03842 17.9664C5.0078 17.7357 5.13475 17.732 5.15402 17.8945C5.51925 19.4346 7.46443 19.0173 7.39741 17.569C7.34313 16.3935 6.28342 16.1407 5.73074 16.5252C5.51269 16.6665 5.52497 16.5821 5.64404 16.4351C6.46492 15.4269 5.96789 14.1286 4.85955 14.1036C4.85926 14.1036 4.85955 14.1036 4.85955 14.1036H4.8587Z" fill="black"/>
</g>
<defs>
<clipPath id="clip0">
<rect width="63.0001" height="88" fill="white"/>
</clipPath>
</defs>
</svg>
