<svg width="63" height="88" viewBox="0 0 63 88" fill="none" xmlns="http://www.w3.org/2000/svg">
<g clip-path="url(#clip0)">
<path d="M59.9868 3.05176e-05H3.01348C1.3492 3.05176e-05 3.05176e-05 1.34749 3.05176e-05 3.00967V84.9907C3.05176e-05 86.6529 1.3492 88.0003 3.01348 88.0003H59.9868C61.6511 88.0003 63.0002 86.6529 63.0002 84.9907V3.00967C63.0002 1.34749 61.6511 3.05176e-05 59.9868 3.05176e-05Z" fill="white"/>
<path d="M4.85906 19.7492C4.85906 19.7492 4.23119 18.849 3.38424 17.7905C2.81762 17.0822 2.36466 16.3153 2.32252 15.6547C2.27423 14.9001 2.73146 14.143 3.55925 14.1063C4.38656 14.0696 4.72235 14.6881 4.85906 15.1981C4.99577 14.6881 5.33158 14.0696 6.15886 14.1063C6.98665 14.143 7.44391 14.9001 7.39559 15.6547C7.35348 16.3153 6.90049 17.0822 6.3339 17.7905C5.48692 18.849 4.85906 19.7492 4.85906 19.7492V19.7492Z" fill="#C8102E"/>
<path d="M58.1412 68.2534C58.1412 68.2534 57.5134 69.1536 56.6664 70.212C56.0998 70.9203 55.6468 71.6873 55.6047 72.3479C55.5564 73.1025 56.0136 73.8596 56.8414 73.8963C57.6687 73.9329 58.0045 73.3144 58.1412 72.8045C58.2779 73.3144 58.6137 73.9329 59.441 73.8963C60.2688 73.8596 60.7261 73.1025 60.6778 72.3479C60.6356 71.6873 60.1827 70.9203 59.6161 70.212C58.7691 69.1536 58.1412 68.2534 58.1412 68.2534V68.2534Z" fill="#C8102E"/>
<path d="M31.5 50.7746C31.5 50.7746 30.1831 48.6141 28.4066 46.0738C27.2182 44.3739 26.2681 42.5332 26.1797 40.9478C26.0784 39.1367 27.0374 37.3197 28.7737 37.2316C30.509 37.1436 31.2133 38.6281 31.5 39.852C31.7868 38.6281 32.4911 37.1436 34.2264 37.2316C35.9627 37.3197 36.9217 39.1367 36.8204 40.9478C36.7321 42.5332 35.7819 44.3739 34.5935 46.0738C32.817 48.6141 31.5 50.7746 31.5 50.7746V50.7746Z" fill="#C8102E"/>
<path d="M2.01044 13.22V12.4236H2.77026L4.38893 3.90659H5.31022L7.09328 12.4236H7.70685V13.22H5.61609V12.4236H6.18034L5.95501 11.1184H3.84576L3.68284 12.4236H4.24705V13.22H2.01044ZM5.77504 10.1887L4.85809 5.6301L3.99924 10.1887H5.77504Z" fill="#C8102E"/>
<path d="M55.2926 74.7829V75.5792H56.0524L57.6711 84.0962H58.5924L60.3755 75.5792H60.989V74.7829H58.8983V75.5792H59.4625L59.2372 76.8844H57.1279L56.965 75.5792H57.5292V74.7829H55.2926ZM59.0572 77.8141L58.1403 82.3727L57.2814 77.8141H59.0572Z" fill="#C8102E"/>
</g>
<defs>
<clipPath id="clip0">
<rect width="63.0002" height="88.0003" fill="white"/>
</clipPath>
</defs>
</svg>
