<svg width="63" height="88" viewBox="0 0 63 88" fill="none" xmlns="http://www.w3.org/2000/svg">
<g clip-path="url(#clip0)">
<path d="M59.9867 0H3.01346C1.34917 0 0 1.34746 0 3.00964V84.9907C0 86.6528 1.34917 88.0003 3.01346 88.0003H59.9867C61.651 88.0003 63.0002 86.6528 63.0002 84.9907V3.00964C63.0002 1.34746 61.651 0 59.9867 0Z" fill="white"/>
<path d="M4.85913 14.1036C3.64258 15.6508 2.3409 16.5411 2.31929 17.7482C2.31195 18.1391 2.54899 18.8034 3.29124 18.9306C3.77279 19.0127 4.4358 18.6651 4.44965 17.959C4.44683 17.8184 4.61656 17.822 4.61498 18.0147C4.5924 18.5717 4.39458 19.2202 4.0623 19.7481C4.59352 19.7481 5.12473 19.7481 5.65596 19.7481C5.32367 19.2202 5.12594 18.5717 5.10328 18.0147C5.10045 17.822 5.27072 17.8184 5.26861 17.959C5.28244 18.6651 5.94546 19.0127 6.42702 18.9306C7.16926 18.8034 7.40622 18.1391 7.39897 17.7482C7.37724 16.5411 6.07565 15.6508 4.85913 14.1036Z" fill="black"/>
<path d="M58.1413 73.8967C56.9247 72.3495 55.6231 71.4592 55.6014 70.2521C55.5941 69.8613 55.8311 69.1969 56.5734 69.0698C57.0549 68.9876 57.7179 69.3352 57.7318 70.0414C57.729 70.182 57.8987 70.1783 57.8971 69.9857C57.8745 69.4287 57.6767 68.7801 57.3444 68.2523C57.8757 68.2523 58.4069 68.2523 58.9381 68.2523C58.6058 68.7801 58.4081 69.4287 58.3854 69.9857C58.3826 70.1783 58.5529 70.182 58.5507 70.0414C58.5646 69.3352 59.2276 68.9876 59.7092 69.0698C60.4514 69.1969 60.6884 69.8613 60.6811 70.2521C60.6594 71.4592 59.3578 72.3495 58.1413 73.8967V73.8967Z" fill="black"/>
<path d="M31.5001 37.2268C28.8963 40.94 26.1103 43.0769 26.064 45.9738C26.0485 46.9119 26.5557 48.5063 28.1443 48.8115C29.175 49.0086 30.594 48.1744 30.6237 46.4796C30.6191 46.1422 30.9809 46.151 30.9775 46.6133C30.929 47.9501 30.5058 49.5065 29.7946 50.7735C30.9316 50.7735 32.0686 50.7735 33.2056 50.7735C32.4944 49.5065 32.0712 47.9501 32.0227 46.6133C32.0193 46.151 32.3811 46.1422 32.3765 46.4796C32.4062 48.1744 33.8252 49.0086 34.8559 48.8115C36.4445 48.5063 36.9517 46.9119 36.9362 45.9738C36.8899 43.0769 34.1039 40.94 31.5001 37.2268V37.2268Z" fill="black"/>
<path d="M2.0105 13.2187V12.4223H2.77033L4.38899 3.90533H5.31028L7.09334 12.4223H7.70692V13.2187H5.61615V12.4223H6.1804L5.95508 11.1171H3.84583L3.6829 12.4223H4.24712V13.2187H2.0105ZM5.7751 10.1874L4.85816 5.62881L3.9993 10.1874H5.7751Z" fill="black"/>
<path d="M55.2927 74.7816V75.578H56.0525L57.6711 84.095H58.5924L60.3755 75.578H60.9891V74.7816H58.8983V75.578H59.4626L59.2372 76.8832H57.128L56.9651 75.578H57.5293V74.7816H55.2927ZM59.0573 77.8129L58.1403 82.3715L57.2815 77.8129H59.0573Z" fill="black"/>
</g>
<defs>
<clipPath id="clip0">
<rect width="63.0002" height="88.0003" fill="white"/>
</clipPath>
</defs>
</svg>
