<svg width="63" height="88" viewBox="0 0 63 88" fill="none" xmlns="http://www.w3.org/2000/svg">
<path d="M3.01345 88.0002H59.9867C61.651 88.0002 63.0002 86.6528 63.0002 84.9906V3.00959C63.0002 1.34742 61.651 -3.8147e-05 59.9867 -3.8147e-05H3.01345C1.34916 -3.8147e-05 1.52588e-05 1.34742 1.52588e-05 3.00959V84.9906C1.52588e-05 86.6528 1.34916 88.0002 3.01345 88.0002Z" fill="white"/>
<path d="M8.46051 6.86472V81.1329H54.5344C54.5105 58.732 54.5506 31.2626 54.5344 6.86472H8.46051ZM21.4589 7.4863C29.5871 7.49191 37.2821 7.49663 45.6586 7.53555C44.9106 9.31893 42.8711 12.535 41.5931 15.1165C41.9022 15.9108 41.5207 16.0458 41.6808 16.2342C41.9397 16.6757 41.7525 17.2948 41.2054 17.4343C38.837 17.6873 36.308 17.035 34.2195 16.2337C31.0258 15.0083 28.333 14.6769 25.0956 14.963C25.0956 14.963 24.8295 14.9339 24.7094 14.3062C23.6424 11.0225 22.473 9.64796 21.4589 7.4863V7.4863ZM9.04863 7.57599H21.0607C21.0607 7.57599 21.6268 8.58073 22.8111 10.8944C23.3125 11.8739 23.7362 12.2899 23.7797 13.0656C23.7344 13.5211 23.9441 14.0383 24.3154 14.2465C24.4401 14.3165 24.6488 14.232 24.5791 14.4269C24.5024 14.6415 24.7376 14.9717 24.8018 15.0418C24.875 15.1659 24.8294 15.1963 24.8371 15.6582C24.8448 16.1047 24.8681 16.2911 24.9632 16.6282C25.2037 17.4799 25.2571 17.9055 25.1195 18.3473C24.762 19.4676 24.3894 20.3267 23.9074 21.3712C23.6271 21.9825 23.6699 22.2213 24.5298 22.6652C25.1736 22.9976 25.2593 22.9941 25.1781 23.4796C25.1401 23.7071 25.1045 23.8507 25.1521 23.9607C25.181 24.0278 25.2883 24.1216 25.3508 24.1754C25.4349 24.2476 25.4092 24.3968 25.3233 24.5077C25.239 24.6165 25.2383 24.7715 25.3233 25.0308C25.5956 25.6964 24.8376 26.6294 23.9815 26.9609C23.7351 26.0805 22.4857 25.7729 21.7603 26.3406C21.1273 26.836 21.0244 27.4113 21.1924 28.1799C19.6516 29.1132 17.9723 30.21 16.3167 31.0377C16.1163 30.627 16.0495 30.2764 15.9228 29.834C15.8132 29.4547 15.8274 29.4259 15.8682 28.6877C15.9051 28.0206 15.9251 27.8652 15.7691 27.8225C14.8809 27.7242 14.6784 28.0403 14.5082 28.6167C14.4347 28.8714 14.2928 28.8194 14.2051 28.7121C13.8671 28.0937 13.4395 27.4508 13.1586 27.0111C12.8077 26.4498 12.2166 26.1705 11.9071 26.4357C11.842 26.6539 11.7885 26.6607 11.3963 26.571C10.9208 26.4623 10.6499 26.7303 10.6042 27.0822C10.5859 27.2225 10.6876 27.2167 10.4329 27.3554C9.80116 27.8256 10.0419 28.4674 10.1365 28.8541C10.1283 28.8337 9.86669 29.0143 9.8609 29.3762C9.83068 31.2557 11.4504 33.9626 11.414 33.8927L9.04802 35.3178L9.04863 7.57599ZM46.1439 7.57599H53.8347V8.97055L50.0511 12.8541V15.7111C48.0219 15.2 47.1845 12.9146 47.0201 11.3314C43.2622 14.7802 43.355 19.9725 46.9059 23.2298C47.315 21.5821 48.9166 19.1264 50.0511 19.1399V29.4161L47.7946 27.1423L43.1968 27.1774C43.9814 26.2773 43.56 24.2329 43.133 23.1244C42.3295 21.0389 41.1809 17.6265 41.2682 17.5764C41.2682 17.5764 41.9299 17.4053 41.9897 16.9833C42.0783 16.3578 41.8084 16.4044 42.1973 15.8397C42.2848 15.7126 42.2287 15.473 42.135 15.2823C42.0733 15.1426 42.0145 14.9323 42.1297 14.7686L46.1439 7.57599ZM54.0916 9.11156L54.0834 32.8144C53.8043 34.7389 53.9265 36.7066 53.9105 38.6482L52.019 39.6508L44.9262 30.3016C44.9262 30.3016 45.2108 29.8789 45.343 29.8039C45.1918 29.4635 44.6893 30.312 44.6464 30.4488C47.2195 33.6544 52.0029 39.9313 52.0029 39.9313L53.9951 38.8856C54.0034 40.811 53.9518 42.7663 53.9359 44.6749C50.456 46.6851 48.3821 49.9359 46.8909 53.2656C45.5107 53.7175 44.0621 54.3591 42.676 54.9355L44.6719 57.9485L43.8813 58.3773C35.003 44.8712 38.8106 35.3713 45.899 27.4648L47.205 27.4425L50.2489 30.2865L50.1928 13.007C51.4601 11.6789 52.8671 10.4804 54.0917 9.11156H54.0916ZM46.7891 11.9981C46.8462 12.2002 46.9674 12.6955 46.9807 12.6814C44.8936 14.8652 43.9108 18.4454 46.9319 22.1146C46.9162 22.1006 46.8645 22.3795 46.7808 22.6927C43.5324 19.5023 44.0139 14.5016 46.7891 11.9981H46.7891ZM47.1032 12.9111C47.6453 14.52 48.974 15.5239 48.974 15.5239C48.4732 16.6413 48.1749 17.8084 49.1115 19.282C48.2402 20.0738 47.518 20.9436 47.1167 21.9819C44.1885 18.5641 45.1285 14.9995 47.1031 12.9111H47.1032ZM27.5379 15.0117C28.921 15.0196 30.5098 15.1748 31.5551 15.5789C31.9829 18.8072 34.2497 23.5969 33.9589 24.8353C33.3788 23.9557 30.946 24.1884 31.6786 26.6472C31.6786 26.6472 31.4797 26.9474 31.0837 27.3512C30.0628 28.3928 29.8109 28.565 30.2958 27.6478C30.6685 26.9426 31.1437 26.022 31.1543 25.8437C31.1628 25.7016 31.0528 25.6689 30.9669 25.7825C30.9033 25.8667 30.8274 26.0713 30.7614 26.2268C30.1529 27.6594 29.1129 28.9507 28.3959 29.2616C28.2113 29.3417 28.2205 29.2562 28.3482 29.0988C29.1917 28.0434 29.8362 27.0674 30.2942 25.7934C30.3147 25.662 30.1292 25.6069 30.07 25.7317C29.2787 27.3993 29.0423 27.7778 28.0699 28.9526C27.6877 29.4144 27.332 29.6477 27.0479 29.6224C26.8021 29.6006 26.875 29.5597 27.1024 29.3161C27.276 29.1299 27.5324 28.8713 27.9474 28.3461C28.6794 27.4199 29.4154 25.9126 29.1444 25.9914C29.0977 25.8659 28.8668 26.2665 28.6716 26.6488C28.1366 27.552 27.5688 28.7454 26.2983 29.5302C26.033 29.6406 25.7427 29.7041 25.4865 29.7069C25.1363 29.7077 25.3405 29.6034 26.1047 29.0703C26.8507 28.5499 28.0803 26.9043 28.2231 26.2936C28.2879 26.0164 28.1133 25.9948 27.9163 26.3756C27.0105 28.1264 25.297 29.7262 23.7283 29.6551C22.9598 29.6203 22.5446 29.4117 23.1807 29.3202C24.9245 29.105 26.2279 28.1049 27.3687 26.1117C27.3687 26.067 27.2654 26.0693 27.146 26.1459C26.1018 27.4297 24.8253 29.1799 22.7587 29.0423C21.268 28.952 20.9676 27.0323 22.2152 26.4445C23.2981 25.9343 24.2729 27.3246 23.3613 28.0387C23.1889 28.1864 22.9095 28.1006 22.9095 28.1006C22.9095 28.1006 23.0071 28.1095 23.1858 27.9646C23.8478 27.4283 23.0961 26.3767 22.304 26.7742C21.8603 26.9612 21.6808 27.6 22.0719 28.0822C22.9418 29.1548 24.8156 28.3391 26.1213 26.6063C26.2582 26.4239 26.3764 26.0281 26.2609 26.0707C26.0583 26.1547 25.9358 26.3144 25.8166 26.4943C25.3505 27.1442 24.9927 27.4705 24.3616 27.8199C24.129 27.9487 23.8722 28.0004 23.8722 28.0004C24.0237 27.8898 24.0772 27.6333 24.1077 27.3906C24.1077 27.3906 24.2371 27.2611 24.3533 27.1859C25.1629 26.6616 25.6422 25.9085 25.6619 25.4424C25.6763 25.1021 25.4286 24.6575 25.6972 24.5663C26.1526 24.3499 27.3947 24.5265 27.7299 24.9572C27.9711 25.2669 28.0647 25.0873 27.8836 24.5839C27.764 24.2514 27.7692 24.0637 27.5887 24.0976C27.3606 24.2191 27.2039 24.1906 26.7613 23.9473C26.548 23.83 26.1695 23.7208 25.9391 23.6673C25.519 23.5699 25.431 23.6107 25.4403 23.4278C25.4432 23.3718 25.4243 23.2144 25.4366 23.1152C25.5047 22.5645 25.0471 22.3771 24.4238 22.0151C24.0596 21.8036 24.2037 21.5856 24.6252 20.5376C24.8443 20.0635 25.0312 19.4259 25.3016 18.9445C25.5543 18.4036 25.5761 17.8117 25.4132 17.1367C25.1109 15.8842 24.8935 15.2474 25.4323 15.1346C25.9524 15.0555 26.7078 15.007 27.5377 15.0117H27.5379ZM49.0471 15.6152C49.5444 15.8845 49.7659 15.9092 50.0511 16.0092V18.8252C49.6692 18.893 49.3604 19.0528 49.1489 19.1347C48.1842 17.9411 48.571 16.1961 49.0482 15.6152H49.0471ZM31.9153 15.6484L32.4017 15.7945C32.8903 18.9116 34.3636 21.8155 34.8381 24.6808C35.3365 26.872 32.7457 28.0923 31.8774 26.2029C31.6477 25.7033 31.9136 25.0662 32.4981 24.7685C33.446 24.2857 34.4665 25.5701 33.7185 26.2771C33.1515 26.8129 32.313 26.416 32.4955 25.7301C32.6133 25.2836 33.2866 25.2551 33.3977 25.7058C33.4282 25.8558 33.5029 26.0055 33.5565 25.923C33.9051 25.0998 32.7335 24.7143 32.2469 25.4803C31.9583 26.0942 32.5076 26.8851 33.3162 26.7348C34.4249 26.5288 34.5272 24.9294 34.08 23.2754C33.309 20.4243 32.0691 17.8701 31.9151 15.6484L31.9153 15.6484ZM32.7578 15.919L33.2644 16.102C33.8134 18.5831 34.7329 21.1455 35.335 23.3324C35.7409 24.8164 36.1951 26.5171 34.5922 27.2403L34.1313 27.231C34.1313 27.231 34.2689 27.1564 34.5974 26.8043C36.4147 25.1344 33.4665 20.4198 32.7863 16.1269C32.7789 16.0809 32.7578 15.919 32.7578 15.919V15.919ZM27.4258 16.0719C26.6107 16.0522 25.8251 16.3 25.8872 16.6551C25.9304 16.9021 26.1111 16.9612 26.7437 16.8806C28.1368 16.6084 29.4775 17.1811 30.4951 17.818C30.7693 17.9917 30.9102 18.1007 30.9695 18.1036C31.0158 18.1057 31.0401 18.0443 30.9831 17.9724C30.2068 16.9936 28.7345 16.1089 27.4258 16.0719H27.4258ZM33.676 16.2031L34.1951 16.4135C34.6667 19.0276 35.8306 21.7382 36.3914 24.0893C36.7211 25.4699 36.6273 26.3422 35.8655 27.0941C35.6746 27.2424 35.6262 27.2584 35.6262 27.2584H35.1667C36.3274 26.2742 36.0694 24.8216 35.6396 23.3443C34.8468 20.6193 33.5426 16.2164 33.676 16.2031V16.2031ZM34.5746 16.5597L35.0418 16.7609C35.5228 19.0181 35.6424 19.0697 36.803 22.6844C37.1521 23.7716 37.4744 24.7282 37.4103 25.6347C37.3957 26.1512 36.9477 27.1737 36.4755 27.2553L36.1874 27.2584C37.2955 25.993 36.804 24.2614 36.3208 22.8171C35.4413 20.1312 35.0145 18.7139 34.5746 16.5597V16.5597ZM35.4129 16.863L35.9849 17.0683C36.5606 19.3721 37.2811 21.6112 37.8907 23.4511C38.1364 24.1926 38.3543 24.968 38.3317 25.6181C38.2156 26.4863 38.0683 26.7208 37.5541 27.2351L37.1087 27.2418C37.1087 27.2418 37.6638 26.2734 37.7145 25.7343C37.814 24.677 37.478 23.8027 37.0994 22.6092C36.1744 19.693 35.7034 18.7559 35.4128 16.863H35.4129ZM36.3369 17.1881L36.8222 17.3332C37.4616 19.3553 38.0371 21.4217 38.6701 23.1696C39.0016 24.117 39.1626 24.8547 39.1399 25.4828C39.0699 26.3494 38.8235 26.7112 38.4459 27.1936L38.0166 27.1978C38.3578 26.7392 38.5807 26.05 38.5912 25.558C38.6016 24.8373 38.3734 24.1341 38.1553 23.3853C37.4481 20.9563 36.7285 19.3444 36.3369 17.1881V17.1881ZM26.9093 17.4245C26.7889 17.4507 26.692 17.5169 26.7151 17.6417C26.7295 17.7195 26.863 17.7868 27.0074 17.7485C28.3312 17.3474 29.4794 18.24 30.5127 18.7651C30.5641 18.8046 30.6259 18.823 30.668 18.8211C30.7221 18.8184 30.7442 18.7819 30.6757 18.7107C29.3527 17.9448 28.4828 17.1119 26.9093 17.4245V17.4245ZM37.1918 17.4167L37.7093 17.5204C38.3515 19.4978 39.0076 21.6047 39.6756 23.4211C40.0824 24.5271 40.2425 26.419 39.3304 27.2377L38.8399 27.2237C39.1944 26.7767 39.4022 26.0805 39.4213 25.4611C39.4401 24.7284 39.2684 24.0084 39.0055 23.2624C38.2368 21.0816 37.6573 19.2066 37.1918 17.4167V17.4167ZM38.1142 17.5862L38.5996 17.6515C38.9684 19.7188 39.9259 21.6664 40.4786 23.4112C40.7641 24.228 40.9622 25.2322 40.8602 25.9997C40.7882 26.5411 40.2483 27.2515 40.1485 27.2621C40.1453 27.2626 40.1424 27.2619 40.1403 27.261L39.8127 27.2579C39.8249 27.2506 40.3017 26.2226 40.336 25.5989C40.3748 24.892 40.2046 24.1219 39.9716 23.362C39.2672 21.2761 38.5565 19.4005 38.1143 17.5862L38.1142 17.5862ZM26.1535 17.6277C26.0707 17.6588 26.1195 17.8772 26.2692 18.1803C26.3949 18.4347 26.5047 18.4955 26.4431 18.6889C26.3026 19.1299 26.5031 19.2175 26.7655 18.8268C26.9621 18.5209 26.9843 18.5281 27.1704 18.9212C27.417 19.4121 27.301 19.6386 26.9269 19.3188C26.6434 19.0764 26.571 19.2564 26.4608 19.4484C26.3158 19.7008 26.3379 19.9274 26.5968 19.9077C26.7457 19.8964 26.8847 19.965 27.0017 20.0933C27.2309 20.3448 27.6701 20.6601 28.0912 20.7341C28.2286 20.7367 28.184 20.6037 27.8602 20.3764C27.0885 19.8485 27.0229 19.7533 27.7709 19.7657C27.9605 19.7769 28.2573 19.6417 28.4255 19.5853C29.4018 19.2577 29.4492 19.2838 29.9163 19.394C30.072 19.4305 30.2301 19.4959 30.2984 19.4334C30.4038 19.3367 30.522 19.2727 30.3892 19.1285C30.2924 19.0234 30.1125 18.9431 29.8935 18.817C28.7598 18.1638 28.6564 18.0074 27.3235 17.9724C27.1709 17.9684 27.0929 18.0481 27.0032 18.0492C26.7856 18.0518 26.6714 17.9981 26.4514 17.7962C26.3004 17.6576 26.2032 17.609 26.1535 17.6277V17.6277ZM40.9811 17.6515C41.4958 19.4658 42.1836 21.2988 42.7751 22.969C43.2244 24.3473 43.912 26.3907 42.6406 27.2703L42.3001 27.2621C42.9201 26.4285 43.0036 25.7113 42.7839 24.6715C42.0551 21.5261 40.6708 19.7164 40.5186 17.6832L40.9811 17.6515ZM38.8383 17.6749L39.4078 17.7049C39.7935 19.8423 40.9075 21.3935 41.5236 24.0017C41.8334 25.1355 42.0345 26.4456 40.9489 27.2434H40.6224C40.6224 27.2434 41.135 26.3417 41.1675 25.8125C41.2258 24.8609 40.8588 23.8339 40.5248 22.716C40.0106 20.9948 39.1415 19.3469 38.8383 17.6749V17.6749ZM39.6606 17.7049L40.1687 17.7117C40.7311 20.2345 41.9007 22.0357 42.5114 24.8151C42.7287 25.9723 42.5425 26.6879 41.8225 27.2418L41.4706 27.232C41.4706 27.232 41.5234 27.1362 41.658 26.9044C42.3002 25.7351 41.9482 24.6554 41.6261 23.4434C41.0243 21.179 39.9214 19.3831 39.6606 17.7049V17.7049ZM28.2625 18.7677C28.1768 18.9925 28.1033 19.3038 27.8047 19.4048C27.7442 19.4253 27.7025 19.3785 27.7081 19.3597C27.7052 19.1981 27.8159 18.8675 27.9064 18.6941C27.9354 18.6168 27.9854 18.6072 28.0549 18.593C28.2717 18.5752 28.3148 18.5841 28.2625 18.7677V18.7677ZM28.7488 18.7732C28.8989 18.8443 29.0346 19.0544 28.9368 19.1244C28.8061 19.1974 28.5801 19.2902 28.3648 19.2939C28.2702 19.3009 28.2667 19.2615 28.3046 19.1752C28.3685 19.0371 28.487 18.9121 28.5651 18.7956C28.6191 18.7151 28.7263 18.7626 28.7488 18.7732ZM26.6611 21.0788C26.5408 21.0876 26.5376 21.1977 26.7977 21.3572C27.1543 21.576 26.9785 22.1511 26.5464 22.1447C26.3575 22.1419 26.2288 22.059 25.7486 21.703C25.3534 21.4099 24.9813 21.3869 24.8968 21.7839C24.8464 22.0207 24.925 22.1258 25.1766 22.0638C25.2878 22.0364 25.3532 22.102 25.5041 22.2074C25.829 22.3971 26.1478 22.6757 26.5028 22.5952C27.3436 22.3623 27.5186 21.5281 26.9731 21.1841C26.8477 21.105 26.7334 21.0735 26.6611 21.0788ZM28.6498 22.3018C28.5994 22.3712 28.6558 22.4773 28.8387 22.504C29.3673 22.6785 29.5564 23.3042 29.079 23.5667C28.8184 23.7041 28.4018 23.6156 27.8997 23.2417C27.0025 22.5735 25.9031 22.5315 26.0465 23.2075C26.0814 23.3715 26.1514 23.3938 26.8086 23.4838C27.3423 23.5569 27.5829 23.7267 27.8156 23.8529C28.1823 24.0518 28.5054 24.1342 28.779 24.1261C30.0364 24.054 29.9157 22.5121 29.1367 22.251C28.9598 22.1847 28.8026 22.2423 28.6498 22.3018V22.3018ZM12.3645 26.7457C12.6316 26.7393 12.7538 26.9514 12.8836 27.1324C13.3691 27.8108 13.7182 28.4829 14.2135 29.2533L14.1471 29.9734C14.1471 29.9734 14.0173 29.945 13.9446 29.9802C13.802 30.0491 13.7176 30.2741 13.6363 30.5732C13.506 30.8333 12.737 31.4254 12.4429 31.7433C12.3886 31.7793 12.3434 31.8386 12.3427 31.8745C12.3457 31.9909 12.6758 31.9127 12.894 31.6609C13.2146 31.3747 13.3517 31.473 13.3415 31.8387C13.373 32.2903 13.6469 32.0641 13.6607 31.623C13.6959 31.2746 13.8163 31.0622 14.0588 30.8672C14.5165 30.4992 14.4404 30.5922 14.4191 30.0812C14.382 29.1902 14.7238 28.4576 14.9475 28.9433C15.0269 29.1158 15.1198 29.3114 15.3197 29.3202C15.4612 29.3264 15.5314 29.4658 15.6093 29.8106C15.7252 30.3685 15.8868 30.7277 16.0345 31.2415L11.7852 33.6615C11.045 32.7982 10.5098 31.3594 10.2337 30.4218C10.0974 29.9548 10.0809 29.4218 10.2026 29.3477C10.3227 29.2745 10.3784 29.3527 10.3557 29.6318C10.3368 29.8642 10.3304 30.0444 10.4294 30.0418C10.7166 29.9672 10.7277 30.4051 10.6983 30.5079C10.6786 30.5766 10.6433 30.625 10.6277 30.6624C10.5569 30.832 10.7418 30.8089 10.9334 30.8112C11.1029 30.8071 11.1465 30.9104 11.1385 31.072C11.1432 31.2511 11.3795 31.2162 11.5138 31.0802C11.6364 30.956 11.6104 30.8098 11.4442 30.7075C11.2055 30.5605 10.9798 30.1988 10.4237 28.9526C10.1008 28.2292 10.1967 27.7157 10.5815 27.7214C10.8483 27.7293 11.1592 28.4644 11.4105 29.006C11.4754 29.1459 11.3124 29.3024 11.2553 29.3777C11.1076 29.5726 11.1302 29.6342 11.3492 29.6375C11.5543 29.6405 11.6414 29.622 11.765 29.8765C11.8116 29.9722 11.8452 30.1184 11.8288 30.2114C11.7231 30.4919 11.9405 30.5597 12.1512 30.4519C12.4167 30.3406 12.4143 30.1024 12.0095 29.7126C11.7487 29.2824 11.817 29.3124 12.064 29.0226C12.1156 28.9203 12.0847 28.8573 11.9757 28.8557C11.6625 28.9518 11.3214 28.3844 11.4146 28.19C11.5106 28.1065 11.7727 27.8042 11.519 27.8624C11.0032 28.0034 10.6894 27.2438 10.9931 26.9862C11.4462 26.7577 11.5535 26.829 12.2514 28.231C12.4681 28.6663 12.7291 29.1344 12.7611 29.1823C12.7932 29.2302 12.8071 29.3586 12.8058 29.4622C12.7754 29.7159 12.8831 29.7735 13.1022 29.6727C13.2667 29.6331 13.4154 29.497 13.207 29.3679C12.9637 28.9458 12.8776 28.8782 13.0113 28.7712C13.3156 28.5275 13.1834 28.5371 12.8426 28.4689C12.6758 28.4185 12.5911 28.332 12.5452 28.2284C12.3691 27.8308 12.057 27.27 12.0261 27.1558C11.9229 26.8641 12.1094 26.7331 12.3645 26.7457V26.7457ZM31.8525 26.9386C32.3996 27.1709 32.8851 27.3909 33.3215 27.6011C31.968 30.274 30.3796 31.2362 27.5872 32.4224L27.8467 33.6164C30.8209 32.5022 32.7134 31.1684 34.206 28.5768C36.0171 28.6026 43.3529 28.6548 43.3606 28.6317C40.3683 32.0536 38.0093 37.2147 37.7514 41.2387C37.6881 42.0225 37.7971 41.6456 37.4524 41.8795L36.9105 42.5291L36.4848 41.8893C36.4848 41.8893 36.1771 41.4949 35.9823 41.8235C35.4367 47.4351 36.014 53.8342 38.7028 58.2943C38.2258 58.326 37.7504 58.339 37.2935 58.0673C36.2419 55.6723 35.6222 52.7136 35.3532 50.4957C35.0127 47.6885 35.0605 44.5221 35.4072 41.8334L35.2281 41.8085C34.704 45.3028 34.8815 49.0193 35.3625 52.2677C35.6094 53.9623 36.4044 56.6131 36.9509 57.8366C37.102 58.1747 37.2193 58.2619 37.076 58.312C33.7994 58.5892 32.2935 59.6885 31.1164 61.4438C30.6318 61.1353 30.0385 60.7555 29.3526 60.565C30.8272 57.8941 33.1989 56.4629 35.1835 55.9039C35.1159 55.562 35.0681 55.2215 34.7391 55.0117C34.7506 55.0633 34.8957 55.6703 34.8637 55.795C32.1298 56.497 29.7235 59.1903 29.1081 60.579L17.0929 60.7102C25.9998 52.1178 26.3549 40.025 19.0877 29.8889L19.9234 29.398C25.5232 37.8332 25.4661 45.9605 23.7865 51.403C22.5956 55.2618 20.4588 58.2094 18.8349 59.8942C18.8349 59.8942 25.3493 59.9842 28.5916 59.8641C29.0626 59.1395 29.5006 58.5476 30.1338 57.8635C30.1338 57.8635 28.4862 59.4635 28.5288 59.7413C25.524 59.7439 22.4253 59.9174 19.4246 59.707C22.9361 55.4809 24.6671 51.1178 24.9674 47.0135C24.9785 46.4796 25.0109 46.7784 25.1864 46.5821L25.7408 45.7169L26.1851 46.6158C26.4872 46.7139 27.0812 46.5559 27.3334 46.6474C28.5688 41.1049 27.3203 34.4135 25.6946 30.0481C26.5798 29.7672 27.5537 30.0315 28.6254 29.4882C28.6928 29.4108 28.8148 29.3029 28.9529 29.2274C30.2871 28.74 31.8525 26.9126 31.8525 26.9386V26.9386ZM22.6263 26.9971C22.8875 26.9971 23.0992 27.2099 23.0992 27.4725C23.0992 27.7352 22.8875 27.9484 22.6263 27.9484C22.3651 27.9484 22.1534 27.7352 22.1534 27.4725C22.1534 27.2099 22.3651 26.9971 22.6263 26.9971ZM33.6734 27.5368H45.5283C40.9737 32.465 38.887 36.628 38.5585 42.2595C38.2458 47.6227 39.6026 52.5212 43.7234 58.4146L42.8716 58.9812C35.832 48.2749 36.1467 36.9039 44.0032 28.2844L34.0633 28.2994C32.798 30.8101 30.6906 32.3403 27.9936 33.283L27.7585 32.4945C30.858 31.4938 32.4262 29.8351 33.6734 27.5368V27.5368ZM15.5751 28.1983C15.7116 28.2582 15.6339 28.982 15.4489 28.9827C15.2463 28.9832 14.9827 28.3698 15.1406 28.2476C15.2828 28.1375 15.4329 28.136 15.5751 28.1983ZM21.3203 28.5197C21.4422 28.7372 21.6063 28.8561 21.7563 29.0076C21.5129 28.9899 21.2261 28.8674 21.0031 28.7468C21.1541 28.656 21.2199 28.6309 21.3203 28.5197V28.5197ZM21.9754 29.5908L23.4428 30.1554L23.1791 31.7417L21.6982 31.1487L21.9754 29.5908ZM25.5721 30.1932C27.5481 35.3007 27.979 41.5927 27.2067 46.537L26.6918 46.5178C27.5364 38.1397 25.8765 33.9005 24.4078 30.2139C24.4078 30.2139 24.4113 30.0662 24.4607 30.0226C24.856 29.8758 25.2667 29.8873 25.5721 30.1932V30.1932ZM18.8879 29.9952C28.6483 43.6797 22.4267 55.3819 16.7383 60.8538L15.574 60.9165C16.5333 60.0434 17.3037 59.1385 18.1134 58.1741C15.7172 54.8604 13.0543 51.2681 10.8151 48.3981C10.8151 48.3981 10.04 48.8596 10.0432 48.9171C10.0461 48.9474 10.1054 49.1004 10.1195 49.0664C10.1527 48.9867 10.7471 48.6522 10.7471 48.6522L17.8336 58.0045C17.8336 58.0045 17.4493 58.4671 17.3306 58.6126C16.78 58.7947 15.2479 60.7028 15.1728 60.6635C13.9723 59.7387 10.3522 55.8184 8.95779 54.6166L8.94027 43.7355C9.08456 43.3001 12.944 41.6224 15.6702 35.3629C17.041 34.5905 18.5599 34.1751 19.9723 33.5033C19.9723 33.5033 19.613 32.9348 19.4372 32.7791C19.653 33.248 19.6911 33.337 19.202 33.537L9.00097 37.7186L9.02011 36.8741C10.0429 36.0784 16.8074 31.1575 18.8879 29.9952H18.8879ZM13.0328 30.307C12.6821 30.541 11.9204 31.3497 11.8833 31.4219C11.7943 31.5952 11.8865 31.631 11.9203 31.5899C12.3375 31.2728 12.7222 30.917 13.177 30.6443C13.3475 30.543 13.5469 30.2814 13.5481 30.2114C13.4798 30.1183 13.1866 30.2043 13.0328 30.307V30.307ZM23.311 32.0668L24.632 32.664L24.2936 34.2354L23.0078 33.6112L23.311 32.0668ZM24.3398 34.5469L25.5 35.3723L24.9523 36.6419L23.8534 35.8933L24.3398 34.5469ZM20.9455 35.337C19.7496 38.3301 18.7676 40.3327 16.4326 43.5193C17.87 45.4119 21.9905 50.8717 22.1373 50.8151L22.14 50.8124C23.9167 45.2589 23.3832 39.9544 20.9455 35.337L20.9455 35.337ZM15.396 35.5801C15.4095 35.583 14.5035 37.5338 12.9537 39.5196C11.5737 41.2879 9.14411 43.2815 9.13688 43.2652L9.07303 42.2445L9.32323 42.6177L9.78262 42.2636L9.46182 41.836L9.06109 42.1501L9.03611 41.739C11.5821 39.8887 12.6806 37.7633 13.7136 36.1691L14.173 35.9736L14.6957 36.1406L14.9516 35.6854L15.396 35.5801ZM13.9841 36.2183L13.7614 36.6652L14.2774 36.9317L14.5468 36.463L13.9841 36.2183ZM13.3768 36.2686C12.1943 38.2948 10.7997 40.1752 8.84204 41.668L8.82024 38.0385L13.3768 36.2686ZM13.6472 36.8824L13.3778 37.3568L13.886 37.6424L14.1554 37.1738L13.6472 36.8824ZM24.985 37.0436L26.0574 37.8648L25.5342 39.0292L24.4607 38.3283L24.985 37.0436ZM40.6198 37.1339C38.7746 42.6922 39.4597 47.9015 41.6268 52.7187C42.913 49.9747 44.1788 47.1444 46.228 45.0061L40.6198 37.1339ZM13.2542 37.5574L12.9636 38.0276L13.4525 38.3293L13.7448 37.8747L13.2542 37.5574ZM21.0851 37.8306C22.2096 41.3738 22.717 44.8557 21.6463 48.6387L17.6109 43.4021C18.9608 41.7864 20.0823 39.8826 21.0851 37.8306ZM12.798 38.2505L12.4782 38.7052L12.9677 39.0235L13.2828 38.5839L12.798 38.2505ZM12.3287 38.9022L11.9934 39.3273L12.4486 39.6798L12.784 39.2563L12.3287 38.9022ZM25.5991 39.3558L26.4935 40.218L25.8291 41.3616L24.97 40.4424L25.5991 39.3558ZM11.7775 39.5813L11.4157 39.9831L11.8532 40.3641L12.215 39.9624L11.7775 39.5813ZM41.1228 39.7483L45.1229 44.8298C43.6573 46.6593 42.6844 48.3919 41.7317 50.0789C40.13 46.2285 40.2711 42.7569 41.1228 39.7483V39.7483ZM11.2257 40.191L10.8493 40.5777L11.261 40.9754L11.6373 40.5886L11.2257 40.191ZM10.6412 40.8027L10.2404 41.1651L10.6142 41.5627L11.0149 41.2035L10.6412 40.8027ZM20.7701 41.0013L18.9128 43.5317L21.0187 46.1311C21.1497 46.1311 21.2636 42.6842 20.7701 41.0013ZM10.0313 41.3523L9.61651 41.6955L9.97416 42.1092L10.3899 41.7665L10.0313 41.3523ZM25.7735 41.5954L26.5625 42.5234L25.8753 43.4524L25.1522 42.5669L25.7735 41.5954ZM41.7353 42.1817C41.5075 43.653 41.4564 45.3608 42.0058 47.5848L43.8527 44.8998L41.7353 42.1817ZM36.8829 42.7339L37.5328 43.7681L36.8098 44.7044L36.1235 43.7163L36.8829 42.7339ZM25.8586 43.82L26.5329 44.6759L25.8207 45.5624L25.1999 44.7236L25.8586 43.82ZM36.8575 44.8889L37.5775 45.7034L36.8466 46.6967L36.0882 45.8055L36.8575 44.8889ZM53.8533 44.9014C53.8608 45.1731 53.8613 45.2222 53.8611 45.3522L53.6674 45.4897L53.8595 45.8137C53.8569 45.9792 53.8555 46.1063 53.8534 46.5038C52.3599 47.7061 50.8262 48.7719 49.0747 52.1759L48.5422 52.4336L48.5739 52.3391L48.0852 52.1064L47.8352 52.5921L48.0055 52.6579C47.7368 52.8121 47.7346 52.7816 47.21 53.0412C47.21 53.0412 47.6049 52.1188 47.8936 51.5766C49.2742 49.1645 51.0623 46.7628 53.8532 44.9014H53.8533ZM53.4173 45.6733L52.9813 45.9901L53.2964 46.4287L53.7329 46.1119L53.4173 45.6733ZM52.6973 46.2115L52.28 46.5531L52.6184 46.9741L53.0368 46.6324L52.6973 46.2115ZM52.0682 46.732L51.6711 47.0985L52.0355 47.4977L52.4321 47.1311L52.0682 46.732ZM53.9868 46.7636L54.0641 50.1157L49.4442 52.0696C50.4603 49.7852 51.9852 48.0277 53.9868 46.7636V46.7636ZM36.83 46.9834L37.7498 47.8295L37.1643 48.9705L36.258 48.1058L36.83 46.9834ZM51.4173 47.3432L51.0451 47.7341L51.4334 48.1083L51.8061 47.7175L51.4173 47.3432ZM50.8058 47.999L50.458 48.4101L50.8671 48.76L51.2148 48.3489L50.8058 47.999ZM50.2514 48.6646L49.9197 49.0923L50.3438 49.4257L50.6755 48.998L50.2514 48.6646ZM37.2146 49.2603L38.2512 50.1224L37.6252 51.2894L36.6141 50.3246L37.2146 49.2603ZM49.7552 49.3121L49.4526 49.7606L49.8969 50.0649L50.1995 49.618L49.7552 49.3121ZM49.3082 49.9819L49.0259 50.4423L49.4837 50.7264L49.7661 50.266L49.3082 49.9819ZM53.912 50.4356V51.2443C53.912 51.2443 46.2834 54.0891 43.5393 55.6593C43.5393 55.6593 43.4727 55.5601 43.1203 55.0241C46.7499 53.5789 50.5478 51.6702 53.912 50.4356V50.4356ZM48.8899 50.6487L48.621 51.1173L49.0866 51.3879L49.356 50.9193L48.8899 50.6487ZM48.486 51.3812L48.2171 51.8498L48.6833 52.1204L48.9522 51.6518L48.486 51.3812ZM37.7244 51.5585L38.8482 52.3361L38.3301 53.6824L37.2146 52.8649L37.7244 51.5585ZM53.8347 52.8457V80.4559H41.5765L38.7568 75.3126C38.8399 74.9122 38.7153 74.6298 38.5777 74.3794C38.503 74.257 38.4478 74.0896 38.4308 73.9352C38.4029 73.6808 38.4029 73.6804 38.0327 73.3447C37.9549 73.2741 37.9401 73.2308 37.9689 73.1575C38.0914 72.8461 38.0197 72.2094 37.7773 71.4493C37.4712 70.4893 37.3922 70.5021 37.9621 69.218C38.081 68.9498 38.2249 68.5917 38.3795 68.2626C39.0832 66.8092 39.1916 66.4151 37.9839 65.6404C37.6439 65.4223 37.544 65.233 37.6289 64.7985C37.6957 64.4567 37.7096 64.2385 37.5463 64.0457C37.4404 63.9208 37.3443 63.9 37.3709 63.8036C37.389 63.738 37.4679 63.4537 37.4415 63.2147C37.3704 62.5705 38.1139 61.629 38.7853 61.2893C38.8338 61.2648 38.9329 61.2331 38.9329 61.2331C38.9329 61.2331 38.9842 61.3549 39.0356 61.4453C39.735 62.677 41.4759 62.1778 41.5915 60.7086C41.622 60.3202 41.5689 60.1691 41.5689 60.1691C43.6912 58.8969 45.017 58.0293 46.5286 57.1565C47.1877 58.3101 46.9552 59.3332 46.8176 60.3317C46.8309 60.5053 46.9782 60.5365 47.2007 60.5391C47.5774 60.5436 48.1194 60.1595 48.2373 59.8014C48.3375 59.497 48.4018 59.2998 48.4927 59.3011C48.5841 59.3038 48.6286 59.4253 48.8555 59.8641C49.3277 60.7773 49.4008 60.8932 49.8423 61.4235C50.1944 61.8466 50.4944 61.9025 50.8395 61.5874C51.0794 61.3683 51.0718 61.5586 51.276 61.6693C51.6285 61.9105 52.1584 61.6948 52.1715 61.3551C52.1823 61.0702 52.1845 60.856 52.4715 60.8372C52.791 60.8162 52.93 60.4014 52.84 59.8097C52.7927 59.4983 52.7832 59.4484 52.8779 59.3343C53.187 58.962 53.2275 58.7047 53.0575 58.185C52.5729 56.7034 51.8705 55.7057 51.2106 54.3585C51.2106 54.3585 52.8396 53.4017 53.8346 52.8457H53.8347ZM38.4755 53.9992L39.8454 54.7701L39.4498 56.2445L38.0924 55.5394L38.4755 53.9992ZM52.8001 58.1943C53.0921 58.8319 52.8068 59.2537 52.4295 58.7397C52.2829 58.5398 52.3579 58.4124 52.4295 58.0263C52.4428 57.9565 52.3779 57.9833 52.2566 57.9636C52.0658 57.9843 51.974 57.8126 51.981 57.5219C52.1015 57.1054 51.9348 57.3305 51.8559 57.3513C51.7049 57.3487 51.6716 57.2578 51.587 57.0849C51.5342 56.841 51.4272 56.9115 51.2714 57.0724C51.1427 57.2054 51.1427 57.2025 51.4022 57.5141C51.8506 58.0026 52.472 59.1055 52.633 59.777C52.6774 59.9622 52.6614 60.1097 52.6277 60.2083C52.4251 60.667 52.1431 60.6691 51.8356 60.0284C51.7832 59.9194 51.6801 59.7436 51.6071 59.6375C51.4889 59.4656 51.4157 59.3179 51.4198 59.0445C51.5107 58.8153 51.5254 58.8104 51.4467 58.779C51.2517 58.7015 50.9053 58.3475 50.8898 58.0304C50.8738 57.7084 50.8194 57.5371 50.5674 57.7282C50.2801 57.9461 50.4026 58.0341 50.6858 58.3135C50.9826 58.6687 51.0005 58.9762 50.8244 59.2327C50.7956 59.3187 50.8076 59.3433 50.9168 59.3327C51.2615 59.2992 51.5965 59.7381 51.3569 60.072C51.2466 60.2676 51.2598 60.318 51.4156 60.3234C51.4968 60.3263 51.6309 60.3104 51.6969 60.3478C51.7988 60.54 52.0116 60.8087 52.0095 61.0285C51.9093 61.3367 51.7538 61.4616 51.5895 61.4604H51.5868C51.4004 61.4572 51.2029 61.2928 51.0616 61.0529C50.734 60.4969 50.3356 59.5623 50.0816 59.0471C50.0175 58.9172 50.0152 58.8014 50.0193 58.7397C49.9993 58.4376 49.8985 58.3237 49.7203 58.4597C49.545 58.5935 49.3014 58.8173 49.5868 58.8532C49.8737 59.0706 50.0339 59.3898 49.8563 59.5842C49.7255 59.7273 49.7764 59.82 49.8818 59.8258C50.2838 59.8316 50.8831 61.0344 50.6007 61.2934C50.2196 61.643 49.7979 61.2105 48.9007 59.4204C48.5054 58.6299 48.487 57.7647 48.826 58.1933C48.9411 58.3013 48.9177 58.2449 49.0528 57.9045C49.1543 57.6486 49.2377 57.5277 49.6248 57.1533C50.0962 56.6975 50.382 56.337 50.3926 56.258C50.4127 56.107 50.1379 56.2482 49.9373 56.511C49.4893 56.951 49.4728 57.0684 49.4769 56.485C49.4806 55.9574 49.5075 55.8609 49.413 55.8644C49.2657 55.87 49.187 56.2873 49.1182 56.7909C49.036 57.2444 48.8018 57.4733 48.4117 57.7256C48.3046 57.7948 48.3029 57.8429 48.3235 58.0429C48.3955 58.6836 48.0332 59.878 47.8682 59.5826C47.8451 59.5161 47.7731 59.3606 47.7348 59.2518C47.704 59.0832 47.5986 58.8929 47.4374 58.8801C47.2371 58.7294 47.2374 58.6478 47.168 58.0957C47.1048 57.7178 46.9518 57.3709 46.8721 56.9972C46.8721 56.9972 49.5258 55.3371 50.9129 54.542C51.6932 55.6868 52.2936 57.0718 52.8001 58.1943ZM8.95883 55.0267L12.5571 58.5836C12.5571 58.5836 12.6276 63.1728 12.6241 65.0489C12.6204 66.9249 12.5932 68.8007 12.6007 69.1496C12.6084 69.4985 12.5818 70.9828 12.5706 72.5069C12.5469 75.6998 12.8375 75.3056 12.2472 75.9181L8.99825 78.9732L8.95883 55.0267ZM39.4732 56.3565L41.2121 57.1626L40.8877 58.8584L39.2271 58.0699L39.4732 56.3565ZM50.6096 56.7427C50.1811 57.3117 49.5941 57.554 49.2335 58.0714C49.1775 58.1671 49.2364 58.2064 49.3217 58.2052C49.3966 58.2052 49.5873 58.1194 49.845 57.8843C50.3208 57.4502 50.9476 56.7369 50.9496 56.6012C50.8299 56.5336 50.6911 56.6345 50.6096 56.7427V56.7427ZM37.2515 58.4198C37.7503 58.4341 37.5739 58.5457 37.1196 58.8392C36.1472 59.4674 34.7825 61.2735 34.5621 61.9124C34.5101 62.0634 34.5685 62.1499 34.6644 62.1395C35.4645 60.8523 36.521 59.4359 37.7498 58.8433C38.412 58.524 39.2473 58.461 39.658 58.6629C39.9589 58.8109 39.8835 58.862 39.3496 58.8967C38.0648 59.0242 36.5591 60.2371 35.8136 61.5205C35.3772 62.2311 35.6838 62.068 36.1822 61.3826C37.0329 60.2127 38.7217 59.0911 39.769 59.1798C40.8283 59.2428 41.4381 60.068 41.3019 60.7755C41.2195 61.2036 40.9174 61.6402 40.325 61.7652C39.3105 61.9793 38.6464 60.3633 39.5749 60.0585C39.8124 59.9806 40.0806 60.0824 40.0806 60.0824C39.1061 60.2849 39.5709 61.3581 40.0955 61.381C40.4559 61.3967 40.8847 61.1873 40.9027 60.6174C40.892 60.1926 40.5444 59.7771 39.8468 59.7672C39.0199 59.7555 37.751 60.354 36.981 61.4562C36.4346 62.2985 36.9375 62.0141 37.3449 61.452C37.7043 60.956 38.8244 60.2621 38.9129 60.2876C38.8847 60.457 38.8288 60.5876 38.8735 60.8589C38.8557 60.7602 37.127 61.9786 37.2307 62.8854C37.2971 63.5436 37.2014 63.7448 36.52 63.7366C36.0106 63.7305 35.3633 63.5507 35.1751 63.3157C34.981 63.0832 34.7638 63.0103 34.86 63.4023C35.0162 64.0385 34.8288 64.143 35.1953 64.0223C35.4483 63.939 35.6726 64.1435 35.9262 64.3246C36.2052 64.5237 36.5583 64.6088 36.9794 64.5936C37.294 64.5822 37.4361 64.601 37.3859 64.8995C37.3505 65.11 37.3102 65.3017 37.3708 65.4397C37.4693 65.664 37.8631 65.8954 38.3082 66.2251C38.8337 66.6143 38.7366 66.6375 37.6168 69.233C37.1466 70.3228 37.1443 70.5461 37.4263 71.3508C37.8718 72.6222 37.9419 73.1318 37.1071 73.3094C36.6344 73.3639 36.1471 73.3905 35.6531 73.3897C34.171 73.387 32.6255 73.1442 31.2086 72.7147C30.3149 68.1714 28.7453 65.117 28.7519 63.338C29.3983 63.9143 30.4062 64.0852 31.0862 63.1602C31.5165 62.5946 31.0833 61.8078 31.3037 61.4779C31.7211 60.8628 32.7952 59.7253 32.9751 59.7629C33.1059 59.7903 33.0846 59.8478 32.6242 60.5582C32.1448 61.2981 31.7772 61.9688 31.9354 62.1327C32.0026 62.2022 32.0385 62.0552 32.3964 61.4302C33.2363 59.9632 33.9746 59.0562 34.2671 59.174C34.4041 59.2292 34.3336 59.3509 33.7117 60.1772C33.0093 61.1103 32.8141 61.694 32.8838 61.9523C32.9374 62.1507 33.0464 61.8298 33.338 61.2565C33.6486 60.6498 34.2102 59.9737 34.6642 59.3244C34.8082 59.0894 34.9929 58.9536 35.2295 58.8464C35.4048 58.77 35.6841 58.6451 35.8462 58.6659C35.9295 58.6768 35.8719 58.7259 35.7579 58.8381C34.8619 59.766 34.0918 60.8004 33.6546 61.7936C33.5871 61.9239 33.6835 62.1092 33.7942 61.9725C34.4646 60.7862 35.398 59.3065 36.4115 58.6535C36.7075 58.5055 36.9686 58.4222 37.2514 58.4198H37.2515ZM12.8006 58.946L14.9921 61.0679L19.6893 61.0067C18.915 62.2704 18.8975 63.2738 19.3986 64.4584C20.2432 66.3936 21.5464 70.8109 21.4464 70.7961C21.4464 70.7961 21.4093 70.8914 21.3026 70.9153C20.9133 71.0026 20.6656 71.3807 20.7768 71.835C20.7981 71.9814 20.797 71.9467 20.6979 72.1367C20.3157 72.7926 20.7711 73.5049 20.7711 73.5049L16.6542 80.4559H9.04863V79.2713L12.8006 75.4547V72.593C14.2343 73.1398 15.4041 75.1494 15.7978 76.6802C19.4008 74.007 19.5697 68.078 15.6363 65.0665C15.6041 66.3747 14.5573 68.9454 12.8006 69.1361V58.946ZM41.0071 59.1617C41.3096 59.2095 42.1194 59.4432 41.7395 59.6251L41.3974 59.789C41.1732 59.6178 41.0898 59.3897 41.0071 59.1617ZM47.6467 59.6101C47.6626 59.7035 47.6634 59.7945 47.6872 59.8097C47.8347 59.9045 47.588 60.1806 47.3586 60.1772C47.1006 60.1772 47.1425 59.53 47.2745 59.3452C47.4817 59.0551 47.618 59.4433 47.6467 59.6101V59.6101ZM40.2014 60.2358C40.4521 60.2358 40.6551 60.4405 40.6551 60.6926C40.6551 60.9446 40.4521 61.1488 40.2014 61.1488C39.9508 61.1488 39.7478 60.9446 39.7478 60.6926C39.7478 60.4405 39.9508 60.2358 40.2014 60.2358ZM30.9259 61.8264C31.1876 62.442 30.9865 63.1828 30.2807 63.4361C29.059 63.8745 28.1638 62.3065 29.3619 61.8238C29.9816 61.574 30.5708 62.0241 30.2916 62.548C30.0959 62.9153 29.5451 62.8755 29.4149 62.4962C29.3088 62.0924 29.1331 62.2828 29.2083 62.5563C29.4355 63.4274 30.5485 63.222 30.6378 62.4194C30.6378 61.4251 29.5551 61.1918 28.9093 61.7501C28.4089 62.1965 28.3566 63.0027 28.4816 63.7025C28.6534 65.1562 29.4715 67.0415 30.0523 69.1931C30.3423 70.2675 30.7624 71.5484 30.9124 72.6531L30.479 72.5292C30.4755 72.5292 29.1255 67.8818 28.3523 65.6129C27.7647 63.7655 27.2509 61.4919 29.3998 61.0005C30.0419 60.8537 30.7352 61.3776 30.9259 61.8264ZM28.0793 60.9533V60.9658H28.6742C28.6742 60.9658 28.6771 61.0023 28.4162 61.1981C26.9759 62.2813 27.8354 64.668 28.3793 66.5026C29.327 69.4325 30.1741 72.4303 30.1624 72.4266L29.5659 72.1954C29.2392 70.2913 27.6989 66.6519 27.1553 63.9353C27.0039 62.3026 26.9796 61.8232 28.0793 60.9534V60.9533ZM25.2446 60.956L25.6526 60.9669C24.0952 63.8944 26.4556 66.9237 27.3873 71.4095L26.8319 71.2389C26.0774 67.9132 23.1776 62.4632 25.2446 60.956ZM24.5952 60.9669H24.7665C24.0476 62.0584 24.1831 63.4352 24.5666 64.923C25.0825 66.9238 26.0847 69.1249 26.4187 71.0994C26.2481 71.004 26.0041 70.9583 25.8182 70.904C25.2333 68.3893 24.1644 65.9161 23.678 63.574C23.5142 62.2917 23.794 61.3317 24.5952 60.9669V60.9669ZM26.0709 60.9669H26.5397C26.1211 61.6235 25.9485 62.2001 26.0113 63.0862C26.1937 66.0688 27.7065 68.9637 28.2532 71.7117L27.7367 71.5204C27.1421 68.2379 24.1943 63.3333 26.0709 60.9669ZM27.0847 60.9735H27.5971C27.0494 61.5213 26.684 61.6792 26.8371 63.5832C27.0795 66.0285 28.6839 69.084 29.2467 72.1061L28.6866 71.892C28.6866 71.892 28.5389 71.4526 28.4857 71.2014C27.9409 68.7707 26.4587 66.0373 26.2853 63.1939C26.2462 62.2621 26.4055 61.3936 27.0847 60.9735V60.9735ZM21.8897 61.0352H22.2266C21.5383 61.8599 21.5723 62.9842 21.8669 64.1929C22.3538 66.1906 23.5314 68.5994 23.8249 70.6006L23.3354 70.5555C22.8455 68.4103 21.8927 66.3251 21.2741 64.1794C21.1589 63.6951 21.0583 63.1031 21.0986 62.6677C21.1832 61.7548 21.5595 61.0352 21.8897 61.0352V61.0352ZM23.1018 61.0429C22.4401 61.932 22.3458 62.8582 22.6481 64.056C23.2686 66.5144 24.2078 68.6602 24.6715 70.7001L24.1971 70.6114C23.6415 68.6331 22.698 66.1809 22.1301 64.1384C21.7808 62.8823 21.9214 61.3352 22.7011 61.0501L23.1018 61.0429ZM20.5349 61.0461C20.0622 61.4906 19.9001 62.239 19.9753 63.015C20.1881 65.208 21.7314 68.2495 22.2905 70.5856L21.7444 70.6976C21.2652 68.6467 20.115 65.5179 19.7018 64.4376C19.152 63.3344 19.317 61.7004 20.1435 61.0538L20.5349 61.0461ZM21.3109 61.0514C21.3691 61.0514 20.757 62.0025 20.8095 62.8171C20.7938 63.2517 20.8411 63.7177 20.9642 64.178C21.7332 66.3892 22.4909 68.3931 23.0789 70.5007L22.5843 70.524C21.9074 67.902 20.598 65.5526 20.2795 63.0654C20.2075 62.3541 20.3259 61.6591 20.9138 61.0581L21.3109 61.0514ZM23.5269 61.054H24.0216C23.4806 61.6097 23.2365 62.4803 23.4158 63.5088C23.5989 64.5585 24.1384 66.2246 24.5858 67.6898C25.1045 69.3885 25.5221 70.8252 25.4745 70.8372L24.9144 70.7511C23.8614 65.8844 21.5497 62.8599 23.5269 61.054ZM34.2356 64.2102C33.7661 64.2216 33.3115 64.473 33.199 64.8484C33.0617 65.3065 33.1727 66.1429 34.0866 66.1429C34.3986 66.1429 34.5957 65.9091 34.205 65.8391C32.8096 65.5871 33.7451 64.1324 34.7293 64.8821C35.6161 65.6871 36.8023 65.6814 36.8165 65.1102C36.8194 64.9664 36.8117 64.9614 36.6016 64.9215C36.1073 64.8276 35.3696 64.6013 35.0869 64.458C34.9208 64.3737 34.7458 64.2952 34.6981 64.2833C34.5504 64.2293 34.3921 64.2064 34.2356 64.2102V64.2102ZM15.8658 65.528C19.4154 68.7658 18.7586 73.4091 16.0303 76.1033L15.832 75.5253C17.3399 74.656 19.1848 69.815 15.7983 66.2606L15.8658 65.528ZM36.5056 65.7401C35.8564 65.7531 35.3338 66.3571 35.7404 66.9931C35.8428 67.1532 36.0961 67.2933 36.2066 67.287C36.2225 67.287 36.2357 67.2822 36.246 67.2761C36.2814 67.2549 36.201 67.112 36.0841 66.9506C35.5443 66.2182 36.2916 66.0013 36.8207 66.3933C37.3229 66.786 38.0984 66.7491 37.9865 66.3373C37.9471 66.1921 37.9864 66.1211 37.7052 66.1169C37.456 66.1132 37.3915 66.0994 37.1669 65.9448C36.9521 65.7971 36.722 65.7358 36.5056 65.7401V65.7401ZM15.7152 66.5094C18.3876 69.2242 17.7928 73.16 15.7723 75.42C15.2548 74.346 14.6659 73.3952 13.8631 72.8129C14.2954 71.7751 14.4814 70.6304 13.7489 69.0865C14.2627 68.803 14.9765 68.0508 15.7152 66.5094ZM34.3337 67.583C34.0372 67.5746 34.1626 67.7689 34.5076 67.9019C34.8455 68.032 35.2649 68.3934 35.2634 68.4934C35.2634 68.5702 35.1559 68.5247 34.5471 68.693C34.2829 68.766 33.9115 68.9295 33.7549 69.002C33.4965 69.1217 33.4843 69.1204 33.0796 69.1082C32.3904 69.0875 32.2855 69.1112 32.7687 69.4717C33.7452 70.2002 35.048 70.675 35.7389 70.3727C35.9484 70.281 35.9436 70.3371 36.095 70.4245C36.2928 70.5388 36.4543 70.5905 36.5611 70.5899C36.765 70.5899 36.7684 70.4008 36.4428 70.114C36.2435 69.9385 36.2591 69.9971 36.2704 69.8859C36.3188 69.4108 36.2444 68.9758 36.0503 69.4649C35.9985 69.5955 35.9223 69.743 35.8463 69.7247C35.7028 69.6801 35.7755 69.4146 35.7062 69.2804C35.589 69.0437 35.7136 68.9858 35.9984 69.059C36.2034 69.1117 36.2154 69.0003 36.3426 68.8584C36.5653 68.6098 36.5285 68.4612 36.1858 68.5385C36.1293 68.5512 36.0817 68.535 36.0379 68.525C35.931 68.5003 35.8331 68.4322 35.5785 68.2367C35.2513 67.9857 34.7879 67.6507 34.4874 67.5996C34.4272 67.5893 34.3761 67.5842 34.3337 67.5831V67.583ZM34.9774 69.0331C35.029 69.0299 35.0854 69.0331 35.1046 69.0564C35.1682 69.1493 34.9518 69.5939 34.8279 69.6563C34.7589 69.6926 34.692 69.6361 34.6447 69.607C34.6052 69.5829 34.6284 69.5182 34.6587 69.4639C34.7384 69.3208 34.8788 69.0456 34.8788 69.0456C34.8788 69.0456 34.9259 69.0362 34.9774 69.033L34.9774 69.0331ZM34.6384 69.089L34.4344 69.468C34.3912 69.5484 34.372 69.5779 34.3379 69.5784C34.3174 69.5784 34.292 69.5683 34.2522 69.5524C34.075 69.482 33.7674 69.3375 33.9003 69.2258C34.1176 69.0925 34.5702 69.0473 34.6384 69.089V69.089ZM13.56 69.3421C14.5209 71.018 13.7286 72.6829 13.6648 72.6024L12.8006 72.2789V69.5811L13.56 69.3421ZM32.3114 69.5313C32.2481 69.5361 32.2161 69.5796 32.2496 69.6671C32.2764 69.7372 32.6602 70.0364 32.9997 70.2275C33.7257 70.6689 34.4006 71.0481 35.1752 71.0554C35.4333 71.0581 35.7034 71.0189 35.9891 70.9274C36.2816 70.8162 36.2456 70.5839 35.974 70.6319C35.8819 70.6481 35.7191 70.6773 35.6111 70.6962C34.9445 70.8131 34.1229 70.5716 33.1273 69.9652C32.8869 69.8188 32.6253 69.6779 32.5605 69.6293C32.469 69.5606 32.3746 69.5264 32.3113 69.5313H32.3114ZM31.7705 70.3831C31.6123 70.4008 31.8073 70.6951 32.2807 70.9834C33.5082 71.7309 34.7497 72.2833 35.9673 72.2297C36.8675 72.1902 37.015 72.1233 37.0179 71.9265C37.0232 71.5558 36.8721 71.3912 36.0353 71.4822C35.3111 71.5609 34.2619 71.4476 33.539 71.1348C32.7144 70.778 32.5184 70.6942 32.2221 70.5407C31.9896 70.4204 31.8424 70.375 31.7705 70.3831V70.3831ZM32.94 73.3749C34.4681 73.6246 36.2862 73.6175 37.874 73.527C38.1738 73.5089 38.1916 74.2412 38.1916 74.2412C38.4024 76.4601 39.9664 78.297 41.0491 80.7126C33.0975 80.4956 25.0966 80.7301 17.0861 80.6675C17.0861 80.6675 19.9964 75.5694 20.8786 73.9648C21.0717 73.612 21.0916 73.3626 20.9876 73.2162C20.8265 72.9898 20.8399 72.6067 21.0203 72.3852C21.2161 72.2952 21.1376 72.1345 21.0524 71.9508C20.91 71.462 21.2779 71.1237 21.6629 70.9668C25.6388 70.2905 29.252 72.6984 32.94 73.3749V73.3749Z" fill="#004C97"/>
<path d="M45.5644 7.48124C45.5644 7.48124 42.4025 13.6595 41.2802 15.2819C35.297 15.9272 36.5639 12.8731 24.1971 12.9005L21.5088 7.56087L45.5644 7.48124ZM51.0953 13.6341L51.1809 30.7235L50.3742 29.9688L50.1831 13.0353L53.7877 9.56458L53.8075 10.5814L51.0953 13.6341ZM48.9136 15.5577C48.0551 17.2954 49.0135 19.4175 49.0134 19.4167C48.5155 19.2931 47.1277 21.9414 47.0044 21.865C44.8806 19.2457 44.5125 15.343 47.1074 12.9243C47.7624 14.6055 48.9052 15.5577 48.9136 15.5577V15.5577ZM47.3284 27.4806C45.7147 29.139 44.435 30.4308 43.156 32.2867C43.0512 32.4376 49.9643 41.268 49.8568 41.4228C48.7904 42.608 47.3608 43.4789 46.2486 44.9102C46.2486 44.9102 40.5792 37.4469 40.4488 37.5125C39.8744 39.8481 39.4537 41.9626 39.5633 44.4039C39.9132 50.65 42.5675 54.4739 42.588 54.3986C44.843 45.4059 54.4531 39.6043 54.0431 40.5869L54.053 44.5973C53.9481 44.3965 49.5081 47.1683 47.019 53.0991C46.8754 53.441 42.6605 54.8242 42.6903 54.8765C42.8703 55.3416 44.7315 57.9895 44.7315 57.9895C44.7315 57.9895 43.9796 58.3417 43.8961 58.3404C41.4834 55.3235 39.6628 51.3491 39.0433 47.5646C38.2916 43.4883 37.8057 35.8252 45.9338 27.4561L47.3284 27.4806ZM22.9614 38.0261C24.2333 41.996 24.1987 46.1061 23.6138 48.9758C22.7214 54.1757 19.4535 57.8991 16.8324 60.7383L15.6807 60.6996C17.638 58.9601 18.8903 57.276 19.6281 55.7859L12.8449 46.8696L8.97851 47.71C8.97851 47.71 9.09513 43.7213 8.97513 43.7213C11.98 41.2201 14.1395 38.9563 15.6897 35.3121C16.6399 34.9588 19.7898 33.5931 19.7898 33.5931C20.7281 34.8443 15.443 43.8925 16.4662 43.5063C16.9326 43.8931 22.0963 50.8982 22.197 50.8837C24.5774 43.5549 22.2553 35.8584 18.0675 30.483C18.5428 30.1733 18.973 29.9322 18.9336 30.0048C20.7274 32.5074 22.2991 35.4954 22.9613 38.0261L22.9614 38.0261ZM35.3533 41.7007C35.0849 41.2828 33.8781 50.6448 37.0499 58.1387C36.7481 58.3687 34.1314 58.8721 34.1314 58.8721L33.4272 56.6283L35.2122 55.8682L34.8827 54.8165C33.497 55.4924 30.4962 56.4902 28.6503 59.5737C28.6503 59.5737 19.6811 59.6511 19.4902 59.635C19.3041 59.6194 21.3195 57.6771 23.2308 53.7453C24.1039 51.9494 24.7985 49.6256 24.9432 46.8993C24.9718 46.3606 26.9954 49.4321 26.9954 49.4321C26.491 52.0273 25.1421 54.5821 23.7978 57.1372C23.7978 57.1372 25.8604 57.2551 27.3013 57.2127C29.5421 54.7501 30.9472 53.4523 34.3257 52.2762C33.552 48.3791 35.7395 47.9968 27.233 46.7622C28.1977 41.7384 27.7706 35.7189 25.7154 29.9932C27.6845 29.8427 27.7687 29.7372 28.7931 29.4585L29.5031 31.5463L27.5819 32.4353L27.8926 33.6137C27.9002 33.6131 32.1321 32.3259 34.2049 28.6135L43.4746 28.6028C39.8997 32.5038 38.4415 36.3621 37.6651 41.463C36.9066 41.3263 35.3533 41.7007 35.3533 41.7007V41.7007ZM12.5557 75.3792C11.3901 76.3601 9.05086 78.9142 9.05086 78.9142L9.0204 77.6056L11.6753 74.829L11.6485 57.6865L12.5467 58.5521L12.5557 75.3792ZM13.7827 69.105C14.2609 68.8759 15.2138 67.7492 15.6681 66.4831C18.7439 69.2466 17.4773 74.3251 15.7935 75.3823C15.305 74.2734 13.8901 72.8033 13.9229 72.8342C14.248 71.6731 14.4972 70.4952 13.7827 69.105V69.105ZM41.0154 80.613L17.2938 80.5712C18.6469 77.8919 19.8883 75.7262 21.3265 73.0886C22.0748 72.1807 38.2742 76.0201 38.3502 75.6376L41.0154 80.613Z" fill="#FFCD00"/>
<path d="M53.838 10.8936L53.9963 33.4026L51.2998 30.7685L51.1398 13.4828L53.838 10.8936ZM41.4653 15.2554C42.022 15.5266 41.4846 16.2315 41.8123 16.8013C41.4581 17.9485 38.5143 17.3982 36.7095 16.9966C32.2151 15.8263 31.2001 14.3103 25.0043 14.8734C24.9535 14.7869 24.3221 13.1519 24.3643 12.9798C29.6966 11.9231 36.501 15.8599 41.4653 15.2554V15.2554ZM31.8548 26.9109C32.4166 27.3203 32.9439 27.3961 33.4651 27.485C32.5506 29.1026 31.4431 30.5767 29.5935 31.4992L28.7327 29.3578C29.8206 28.7954 30.8886 28.1258 31.8548 26.9109V26.9109ZM43.0883 32.472C43.0883 32.472 43.8864 31.1599 44.6397 30.5217C46.8791 33.5413 51.8865 39.9703 51.8865 39.9703L54.0113 38.8883C54.0113 38.8883 54.0198 40.133 53.9717 40.2201C48.2326 43.1941 44.2946 48.8151 42.5605 54.0786C42.5605 54.0786 41.6365 53.1304 41.758 52.7293C43.3098 48.5774 45.9633 44.4136 49.8655 41.291L43.0883 32.472ZM35.9305 38.5974L28.6851 38.5871L28.3643 36.0542C31.1387 35.1193 33.4283 33.2095 35.5692 31.0005L39.0058 31.0607C37.8791 33.5431 36.3138 36.0615 35.9305 38.5974V38.5974ZM9.10588 49.2685C8.87149 48.5544 9.10872 47.7841 9.01762 47.8164C17.6962 43.5002 20.1762 34.0268 20.1762 34.0268C20.1762 34.0268 21.0002 35.3386 20.9626 35.5415C16.4706 45.5816 13.4652 45.8806 12.8878 46.971L19.7198 55.8625L18.1744 57.9761L10.8466 48.3868C10.1182 48.7242 9.70301 49.0067 9.10588 49.2685V49.2685ZM13.385 36.2795C11.9134 38.9411 10.3952 40.4882 8.88278 41.5527L8.95623 38.0401L13.385 36.2795ZM53.959 46.7259L53.9213 50.1337L49.451 52.0683C50.687 49.3589 52.3648 47.9069 53.959 46.7259ZM34.0434 49.7898L34.3077 52.1867C31.594 53.3771 29.1964 54.9691 27.261 57.1481C25.1817 57.2485 23.7615 57.1069 23.7728 57.1353C23.7691 57.1395 25.6345 54.3496 26.9464 49.7483L34.0434 49.7898ZM11.5595 74.9674L9.08941 77.4774L9.01148 55.0344L11.4926 57.4525L11.5595 74.9674ZM33.2686 56.7285L34.0524 58.9493C32.8196 59.4139 31.8862 60.4259 31.0168 61.4281C30.3783 60.7019 29.315 60.5578 29.3279 60.6094C30.8664 58.187 32.1646 57.3851 33.2686 56.7285V56.7285ZM37.8996 73.547C37.8996 73.547 38.2079 73.7264 38.174 73.9791C38.072 74.3066 38.5033 75.0479 38.5035 75.0478C33.2431 76.6527 25.5832 72.1365 21.037 73.0865C21.0749 72.7672 21.0225 72.3865 21.1514 72.0855C21.0082 71.4458 20.9071 71.4252 21.5283 71.0346C24.7223 70.1257 28.0883 72.0636 31.2081 72.9901C33.7533 73.7962 35.8206 73.5908 37.8996 73.547V73.547Z" fill="#C8102E"/>
<path d="M45.9364 7.33246L21.215 7.3786L24.1863 12.975C24.1796 12.983 23.9487 13.8984 24.424 14.0087C24.5767 14.0442 24.664 14.1868 24.695 14.3234C24.6562 14.7127 24.8319 14.8782 24.9799 15.0793C27.33 14.7455 29.3711 14.9119 31.0574 15.2934C34.8457 16.4288 37.8718 18.1327 41.2563 17.4547C41.803 17.3152 42.0326 16.8246 41.8512 16.3831C41.7688 16.1825 41.6435 16.1807 41.7905 16.058C41.9546 15.8676 42.0416 15.4264 41.8611 15.2659C41.648 15.1431 41.5936 15.3549 41.818 14.9403L45.9364 7.33246ZM45.436 7.59737L43.4116 11.3549C42.2149 11.2932 42.2576 12.4515 42.3101 12.4799C41.5144 11.9086 40.6589 13.329 41.8232 13.736C40.8722 14.7368 39.4616 13.8121 39.546 13.7402C40.9031 13.9987 40.977 12.4741 40.0925 12.2253C41.3092 10.5443 38.1231 9.89186 38.7076 11.9661C37.0932 11.6736 37.3851 13.5207 38.5856 13.5037C38.3048 14.1921 36.0888 13.6709 36.1844 13.1595C37.6826 12.9997 37.0838 11.6271 36.4356 11.6255C38.0023 10.1339 34.8672 8.75851 34.9505 11.007C33.6927 10.7411 33.5447 12.4202 34.7538 12.5307C34.3109 13.1572 32.7293 12.7625 32.2907 12.0459C33.5389 11.8795 33.4611 10.7766 32.4843 10.5985C33.7222 9.0134 30.6753 8.42762 30.992 10.2704C29.9002 9.8929 29.3014 11.3576 30.7158 11.7764C29.2669 12.6443 27.6936 11.3507 27.864 11.3243C29.5174 11.4226 29.1882 9.75638 27.9917 9.84681C28.7529 8.11667 25.7363 8.02031 26.5014 9.81465C25.1446 9.78962 25.2638 11.3711 26.5637 11.4767C25.7451 12.0768 24.8221 12.1294 24.2283 11.568C25.4655 11.2407 24.9511 9.79432 23.7066 10.1947C23.5915 8.98466 22.6135 9.24155 22.5916 9.2781L21.7159 7.63574L45.436 7.59737ZM54.1924 8.95097L50.1446 13.0102L50.197 29.8517C49.3381 29.0391 48.6029 28.1722 47.6198 27.3757L45.9364 27.3892C41.5414 31.8846 39.1342 35.7316 38.6059 42.621C38.2525 47.2299 39.7753 53.026 43.8139 58.6428L44.8001 58.0404L42.8515 55.0875L46.9792 53.2476C48.6231 49.7623 50.5718 46.5461 54.1364 44.704L54.1565 40.1927L54.2189 40.0994L54.1717 38.683L52.4046 39.6307C51.8776 38.8547 50.1833 36.6031 48.5282 34.4242C46.7746 32.1158 45.1188 29.9595 45.1188 29.9595L45.0036 30.0477L45.2346 29.7657L52.5707 39.4234C52.5707 39.4234 53.7292 38.8527 54.0699 38.6623L54.0237 33.7617L54.222 33.7715L54.1924 8.95097ZM53.731 9.63737L53.757 10.5399L51.022 13.4115C51.0188 19.0853 51.0369 24.7591 51.0557 30.4329L50.383 29.7641L50.2911 12.99L53.731 9.63737ZM27.3667 9.87791C27.6 9.90474 27.7781 10.1748 27.6122 10.4492C27.2429 11.0601 27.5209 11.5715 28.4194 12.0439C29.6857 12.7097 31.7545 11.9639 31.3289 10.9822C31.0564 10.6686 31.3089 10.4478 31.6683 10.4591C32.0754 10.4718 32.2132 10.7454 31.9523 11.0381C31.6266 11.412 31.7121 11.791 32.0914 12.2227C33.2284 13.8515 35.5293 13.2056 35.2246 11.7785C35.0911 11.4238 35.4709 11.2812 35.8656 11.4389C36.1169 11.5392 36.0797 11.9294 35.8049 12.0672C35.4886 12.0994 35.4438 12.56 35.4815 12.8557C35.5365 13.2859 36.1671 13.7098 36.7912 13.9346C37.2429 14.0973 37.6627 14.1325 37.9939 14.102C38.693 14.0377 39.0833 13.5603 38.9682 12.8448C38.9003 12.4227 39.0176 11.985 39.5101 12.217C39.7798 12.344 39.7122 12.6508 39.4369 12.9335C38.469 13.8841 40.4181 15.041 41.5948 14.2441C41.7943 14.0792 41.94 14.0507 41.94 14.0507C41.2021 15.898 38.8912 14.1678 38.9127 14.0922C36.4773 15.4577 35.4493 13.5724 35.0974 13.2684C32.9683 13.7423 32.551 13.5091 31.3631 12.2186C29.2311 13.2669 28.1979 12.3754 27.308 11.8116C26.264 12.7927 24.94 12.8199 24.2501 12.3275C24.1209 12.1104 23.9419 11.8352 23.9272 11.7531C23.9158 11.689 24.0132 11.7634 24.2532 11.9361C25.5053 12.837 27.5834 11.7148 27.0282 10.527C26.8788 10.207 26.9023 10.0695 27.1258 9.94116C27.2052 9.88714 27.2889 9.86897 27.3667 9.87791V9.87791ZM23.3827 10.5135C23.7522 10.5227 23.8422 11.1014 23.648 11.2341C23.5734 11.0777 23.2775 10.534 23.3054 10.5197C23.3325 10.515 23.3581 10.5129 23.3827 10.5135V10.5135ZM53.7263 11.1268L53.8758 33.2344L51.407 30.7735L51.271 13.6033L53.7263 11.1268ZM27.3433 12.0688C27.5121 12.2491 27.8318 12.4291 28.1162 12.6095L26.7755 12.5234C26.9527 12.4022 27.1264 12.2897 27.3433 12.0688ZM31.3231 12.4773C31.5394 12.7136 31.7479 12.9176 31.971 13.1092L30.7376 12.8091L31.3231 12.4773ZM42.5899 12.6665C42.6467 12.6506 42.6306 12.7509 42.513 12.9993C42.4576 13.1196 42.4049 13.2168 42.363 13.2155C42.2585 13.1295 42.3306 12.8943 42.4154 12.8137C42.4956 12.7274 42.5558 12.6761 42.5899 12.6665V12.6665ZM47.1401 12.8386C43.7918 16.2531 45.3859 20.2545 47.0882 22.1889C47.4628 20.8336 49.2419 19.4218 49.2206 19.3884C48.4547 18.1859 48.5208 16.4415 49.1485 15.5339C49.1448 15.5533 47.7738 14.4091 47.5814 13.8148C47.4463 13.4333 47.4177 13.1737 47.1401 12.8386V12.8386ZM47.0649 13.0299L47.2813 13.3897C44.8655 16.2132 45.8894 19.6819 47.297 21.3242L47.0385 21.8348C43.7874 17.7785 45.9307 14.0656 47.0651 13.0299H47.0649ZM25.6215 13.1015C28.241 13.0715 31.1665 13.2694 33.3725 14.1414C35.8438 14.8789 38.1212 16.3052 41.5226 15.3499C41.6202 15.3512 41.6711 15.4967 41.6654 15.6309C41.6598 15.7621 41.6113 15.8675 41.5024 15.9512C37.0598 17.0783 34.681 14.6643 31.1321 13.9937C29.3773 13.6885 27.0741 13.5057 25.5686 13.624C24.7055 13.7113 24.5235 13.6836 24.5289 13.3218C24.5323 13.0951 24.5076 13.1004 25.6215 13.1015V13.1015ZM35.0528 13.525L35.7053 14.341L34.2347 13.7842C34.5738 13.7169 34.8125 13.6208 35.0528 13.525ZM47.3281 13.7946C47.3477 13.7901 47.3708 13.8017 47.4116 13.8397C47.6184 14.0777 47.0562 14.0973 47.2678 13.8449C47.2926 13.8194 47.3084 13.7991 47.3281 13.7946V13.7946ZM26.3296 14.1222C29.8209 14.0767 32.7713 14.8046 34.9567 15.7993C37.1372 16.6221 39.1397 16.8975 40.7222 16.6547C41.5912 16.5214 41.7191 16.5003 41.7157 16.7351C41.5475 17.4669 40.6089 17.3983 39.9249 17.4023C38.0094 17.4138 35.8564 16.8438 34.3645 16.171C31.3674 14.8196 28.4342 14.4361 25.4289 14.8133C25.2852 14.835 25.1364 14.8149 25.0293 14.7003C24.7567 14.3956 24.942 14.2049 25.6241 14.1414C25.8616 14.1314 26.0968 14.1253 26.3296 14.1222V14.1222ZM47.477 14.2669C47.6165 14.2738 47.7823 14.3377 47.8482 14.4245C48.0176 14.6478 47.8009 15.2681 47.5751 15.2648C47.4016 15.2622 47.1549 14.4721 47.2813 14.3234C47.3188 14.2793 47.3933 14.2628 47.477 14.2669V14.2669ZM38.9038 14.396C39.1645 14.6213 39.4605 14.8405 39.8081 15.0513C39.119 15.0583 38.4322 14.9842 37.8008 14.875C38.1643 14.7399 38.5263 14.6153 38.9038 14.396ZM46.9149 14.5022C46.9754 14.5041 47.0248 14.6061 47.083 14.8097C47.2075 15.2445 47.1956 15.2929 46.9486 15.3566C46.8032 15.3917 46.6801 15.4679 46.538 15.4862C46.39 15.4846 46.4374 15.2646 46.6797 14.7977C46.7827 14.5993 46.8543 14.5005 46.9149 14.5022V14.5022ZM48.1633 14.9688L48.8386 15.55C48.3845 16.6308 48.1598 17.7842 48.9242 19.2531L48.2188 19.9156C47.2399 17.9363 47.3014 16.3902 48.1633 14.9688V14.9688ZM47.2637 15.5505C47.3933 15.551 47.4841 15.5939 47.5056 15.7128C47.4523 16.0312 47.2932 16.5814 47.1183 16.5428C46.8475 16.4829 46.3917 15.7589 46.7898 15.6433C46.966 15.5921 47.1341 15.55 47.2637 15.5505V15.5505ZM49.5456 15.7537L49.0872 17.3883L49.5907 19.0711L49.8456 18.9954L49.3639 17.3857L49.8015 15.8253L49.5456 15.7537ZM46.2546 16.0378C46.4249 16.0318 46.8802 16.5374 46.8749 16.6941C46.8621 16.7731 46.38 17.0896 46.1887 17.2183C46.0961 17.2897 46.1021 17.2529 46.1009 17.169C46.0975 16.9297 46.1166 16.3113 46.2011 16.0741C46.2118 16.0498 46.2303 16.0387 46.2546 16.0378ZM47.1744 16.9606C47.2682 16.9713 47.2587 17.1035 47.2528 17.506C47.2483 17.8092 47.2663 18.006 47.1863 18.013C47.1241 18.0184 46.9432 17.9022 46.7664 17.7668C46.3185 17.4236 46.4179 17.1884 46.9268 17.0223C47.015 16.9935 47.0799 16.9712 47.1277 16.9632C47.1455 16.9602 47.161 16.9591 47.1744 16.9605V16.9606ZM46.2136 17.6838C46.2735 17.6987 46.3587 17.7601 46.4768 17.8653C46.817 18.1684 46.8758 18.2406 46.564 18.49C46.4726 18.563 46.3509 18.6618 46.2935 18.6621C46.1672 18.6626 46.1091 18.4227 46.0937 18.0089C46.0844 17.7632 46.1136 17.6589 46.2136 17.6838ZM47.2139 18.3215C47.354 18.3134 47.428 18.4694 47.5409 18.9638C47.6137 19.2908 47.6631 19.4223 47.5731 19.4185C47.3991 19.4221 47.2339 19.3775 47.0965 19.3355C46.4385 19.1343 46.417 18.6943 47.0477 18.378C47.113 18.3452 47.1671 18.3242 47.2139 18.3215ZM46.5484 19.4283C46.6518 19.4288 47.1011 19.5444 47.2325 19.6963C47.2145 19.8486 47.0725 20.236 46.947 20.3402C46.7826 20.3274 46.5488 19.8072 46.5271 19.4356C46.5271 19.4307 46.5335 19.4282 46.5484 19.4283V19.4283ZM47.6473 19.6642C47.6762 19.6592 47.7044 19.6686 47.7303 19.6958C47.7929 19.8189 47.8663 19.9254 47.924 20.053C47.9916 20.2052 47.9471 20.2791 47.7921 20.4304C47.5798 20.627 47.4095 20.6425 47.2528 20.5217C47.1948 20.4247 47.4448 19.6986 47.6473 19.6642ZM47.3358 20.8006L47.4988 20.8332L47.3898 21.0453C47.368 20.9794 47.2419 20.7882 47.3358 20.8006V20.8006ZM31.8806 26.7619C30.6929 28.2764 28.7445 29.2658 28.7319 29.2426L28.6665 29.4256C28.6665 29.4256 28.3094 29.5474 27.9953 29.6075C27.8945 29.6268 27.6881 29.6661 27.551 29.7143C27.339 29.7889 27.2338 29.868 26.9068 29.8398C26.226 29.7744 25.5428 29.973 25.5572 29.9767C27.584 35.5981 28.0635 40.6729 27.2717 46.5677C26.5249 46.5619 24.8875 46.5335 24.8875 46.5335C24.7228 48.1898 24.5141 49.847 24.0082 51.4108C23.3587 53.4186 22.5754 55.2851 21.3142 56.9917C20.602 58.0635 19.9802 58.826 19.2441 59.8305L28.5907 59.8088C29.8277 57.7181 32.2108 55.9721 34.1262 55.2446C34.7781 54.9983 34.8705 55.0348 34.9785 55.3431C35.1715 55.8939 35.1619 55.8703 34.652 56.0165C32.1491 56.9045 30.6025 58.4854 29.3122 60.4998C29.1751 60.7122 29.1458 60.8016 29.2058 60.8373C30.0436 60.7048 30.561 61.248 31.0678 61.6466C31.6012 60.8761 32.4966 59.8595 33.1955 59.5584C33.3866 59.5496 33.6851 59.3759 33.8153 59.2074C33.9798 58.9945 34.1234 59.0223 34.3058 59.0379C34.5229 59.0411 34.8531 58.993 35.3004 58.788C35.5538 58.6718 35.6696 58.6457 36.0411 58.6268C36.3721 58.6379 36.688 58.5082 36.9677 58.4163C37.2922 58.3207 37.1767 58.2279 36.9905 57.8071C36.0433 55.365 35.3645 52.5196 35.1171 50.2019C34.8394 47.5429 34.9239 44.3182 35.2936 41.8558C36.2003 41.8497 36.7695 41.8964 37.7245 41.8802C38.3758 36.5551 40.1432 32.3269 43.6753 28.524L34.1267 28.4992C33.0328 31.4333 28.0405 33.6716 27.8764 33.5066L27.6133 32.4355C27.6133 32.4355 31.2045 31.9197 33.6232 27.3369C33.3758 27.4873 32.4753 27.3827 31.8806 26.7619V26.7619ZM31.9046 26.976C32.5346 27.4416 32.905 27.4903 33.2936 27.5955C32.2217 29.6038 30.956 30.6584 29.6247 31.3914L28.8368 29.3188C29.9256 28.8748 31.0546 27.9246 31.9046 26.976ZM47.1963 27.4851C42.0019 32.4938 39.7038 36.7802 39.5226 42.4354C39.3142 48.9395 41.2894 53.2655 44.6164 57.8756L43.9026 58.282C40.7114 54.0242 38.4304 48.2473 38.812 42.5479C39.1775 35.9204 41.676 32.101 46.0641 27.5116L47.1963 27.4851ZM40.8904 28.6453L43.2331 28.6485L41.5211 30.8714L39.4499 30.8087L40.8904 28.6453ZM34.216 28.664L40.5172 28.6687L39.1104 30.8637L35.3803 30.8823C33.5773 33.0826 31.3528 34.8374 28.4209 35.8442C28.4209 35.8442 28.059 33.7878 27.9782 33.6383C31.327 32.3665 33.2867 30.4922 34.216 28.664V28.664ZM38.6459 28.7288L37.7899 29.7112L38.4543 30.5697L39.3907 29.706L38.6459 28.7288ZM36.6432 28.8149L35.875 29.818L36.692 30.6133L37.48 29.7755L36.6432 28.8149ZM34.3821 28.8672L34.2135 30.1664L35.3564 30.7911L35.4909 29.5256L34.3821 28.8672ZM41.0539 29.001L40.2369 30.2623L41.2304 30.3058L42.1803 29.0036L41.0539 29.001ZM28.5892 29.565L29.3221 31.5744C29.1216 31.6937 28.9119 31.7808 28.6909 31.8279L28.0779 29.7112L28.5892 29.565ZM27.8422 29.8118L28.448 31.9083C28.2009 32.0369 27.9537 32.1 27.7067 32.1805L27.0361 29.9528L27.8422 29.8118ZM18.8927 29.889L18.0123 30.4085L17.8779 30.3178L8.75082 35.5979L8.74602 37.2014L19.34 32.7315C19.5502 32.9564 19.6738 33.2074 19.8508 33.4843L15.6057 35.2988C14.3295 38.8209 11.4532 41.7391 8.77097 43.7864C8.78399 47.2828 8.80052 54.6028 8.80052 54.6028L15.1837 60.9954C16.0023 60.2428 16.7281 59.4688 17.4542 58.6288L10.1253 48.9276L10.7751 48.5025L18.0268 58.1535C17.9658 58.2272 17.9021 58.2957 17.8404 58.3681C17.7129 58.204 16.2403 56.3087 14.5457 54.1041C12.7795 51.8061 10.9081 49.3458 10.5244 48.757L10.3676 48.8586C10.7725 49.4799 12.6312 51.9192 14.3978 54.2176C16.1043 56.4378 17.6079 58.3728 17.7158 58.5117C16.9444 59.4011 16.1259 60.2052 15.3068 61.0084L16.7638 60.9872C17.7874 59.9362 25.2005 53.0693 23.9521 42.6972C23.4182 38.261 22.1861 34.4231 18.8926 29.8891L18.8927 29.889ZM26.7023 29.9222C28.066 33.8307 29.1498 39.3953 28.0472 46.5537C28.0472 46.5537 27.6523 46.5608 27.4752 46.5568C28.6092 40.9063 27.5688 34.9071 25.8193 30.0197L26.7023 29.9222ZM18.8735 30.0378C25.375 38.7993 26.5514 51.76 16.6175 60.7041L15.7668 60.6652C16.496 59.9872 17.1612 59.2948 17.7782 58.5926L17.8327 58.6631L17.9801 58.5485C17.9801 58.5485 17.905 58.4511 17.9033 58.449C25.5138 49.6609 24.5253 39.1463 18.1483 30.4764L18.8735 30.0378ZM44.9766 30.0809C44.9822 30.0882 46.6291 32.2333 48.3792 34.5372C50.0253 36.7041 51.7181 38.9566 52.2391 39.7199L51.9874 39.8547L44.7321 30.38L44.9766 30.0809ZM44.6112 30.6107L51.7408 39.8853L49.9422 41.1917L43.2429 32.3448L44.6112 30.6107ZM32.951 30.6133L32.909 31.8664L34.0411 32.0416L34.027 30.7051L32.951 30.6133ZM39.2652 31.1115L39.9415 31.1421L39.0513 31.7528L39.6223 32.4869L40.5364 31.8871L40.0272 31.1452L41.3628 31.1738L40.4429 32.6056C40.4517 32.5919 38.4736 32.5486 38.4736 32.5486L39.2652 31.1115ZM38.8826 31.153C38.8078 31.1423 36.1135 36.2547 35.8034 38.4737L28.774 38.5079L28.4988 36.1211C30.8227 35.2713 33.3279 33.8295 35.5194 31.1789C35.8939 31.2037 38.8826 31.153 38.8826 31.153V31.153ZM31.6492 31.9146L31.4249 33.0841L32.4361 33.3029L32.6359 32.1396L31.6492 31.9146ZM43.0544 32.629L49.6624 41.4111L48.9751 41.8927L42.551 33.3511L43.0544 32.629ZM38.309 32.8343L40.294 32.8887L39.4448 34.5601L37.4925 34.5352L38.309 32.8343ZM30.0312 32.9364L29.8869 34.136L30.9276 34.4232L31.0828 33.1604L30.0312 32.9364ZM38.9465 32.9431L38.0184 33.5704L38.6147 34.4082L39.5798 33.7809L38.9465 32.9431ZM28.5975 33.6596L28.2429 34.7322L29.2276 35.262L29.5391 34.2636L28.5975 33.6596ZM19.3095 33.8685C19.602 34.2311 19.1363 35.8764 18.5854 34.826C18.4658 34.6125 18.3082 34.3019 18.3082 34.3019L18.5901 34.1967C18.8172 34.9776 19.0261 34.6873 19.0505 33.9981C19.2406 33.9126 19.261 33.8991 19.3095 33.8685V33.8685ZM20.2677 34.3481L20.8564 35.4497C17.1371 44.6665 12.1239 47.3848 9.0929 49.2283L9.08303 47.9364C17.1886 43.8933 20.2241 34.3479 20.2678 34.3481H20.2677ZM17.9853 34.4258C18.138 34.7417 18.3991 35.0696 18.4624 35.4119C18.4873 35.5614 18.4123 35.6162 18.248 35.7089C17.8018 35.9286 17.3056 36.0656 16.9466 35.8758C16.8397 35.6987 17.2757 34.7089 17.2757 34.7089L17.9853 34.4258ZM42.1046 34.6389C42.3818 34.6573 42.762 34.8207 43.084 35.0821C43.6864 35.5713 43.9452 36.2264 44.0163 37.5141C44.062 38.3418 44.1231 38.5103 44.3626 38.1688C44.7931 37.4074 45.8238 37.7798 45.9525 38.5841C46.0246 39.0099 45.6514 39.3175 45.531 38.9314C45.2115 38.1292 44.4294 38.3219 44.5567 39.1186C44.6406 39.6442 45.1637 39.9344 46.197 40.227C47.4391 40.5787 47.8086 41.0061 48.0506 42.0306C48.1578 42.484 48.1405 42.7214 47.9022 42.9585C47.7845 43.0757 47.6349 43.1949 47.6349 43.1949C47.6349 43.1949 47.469 42.5054 47.3997 42.1861C47.2767 41.5996 46.4564 41.6321 46.5489 42.2436C46.6029 42.6007 46.6154 42.5933 46.4373 42.5853C45.5904 42.5436 45.7376 41.201 46.7135 41.3048C46.9171 41.2803 46.9439 41.1964 46.7716 41.1244C46.6004 41.0527 45.9445 40.8835 45.8435 40.8838C44.7816 40.8875 43.2498 39.2459 43.2875 37.7888C43.312 36.836 42.991 36.1505 42.6625 36.0729C42.4014 36.0111 42.0224 36.2498 42.0552 36.5415C42.1005 36.944 41.7753 36.8182 41.588 36.529C41.3022 36.1296 41.6709 35.5533 42.3517 35.5985C42.6413 35.5417 42.1385 35.3568 41.7661 35.2486C41.4283 35.2291 41.7137 34.8109 41.7765 34.7363C41.8242 34.6806 41.8992 34.6491 41.9924 34.6399C42.0273 34.6365 42.0649 34.6363 42.1045 34.6389L42.1046 34.6389ZM37.3632 34.7923L39.354 34.7975L38.7165 36.4798L36.703 36.4606L37.3632 34.7923ZM16.9051 34.8831C15.3667 39.1426 12.0767 42.791 9.06694 44.6569L9.05445 43.7082C9.68991 43.2407 13.7249 40.3005 15.8124 35.3512L16.9051 34.8831ZM38.0282 34.9116L37.1042 35.5524L37.8153 36.2564L38.7798 35.6426L38.0282 34.9116ZM19.2379 35.4627C19.3506 35.4627 19.4419 35.5546 19.4419 35.668C19.4419 35.7814 19.3506 35.8727 19.2379 35.8727C19.1251 35.8727 19.0344 35.7814 19.0344 35.668C19.0344 35.5546 19.1251 35.4627 19.2379 35.4627ZM20.9851 35.641C22.9701 40.3101 23.6969 44.8551 22.1473 50.7204L16.5719 43.4438C18.2353 41.3161 19.8945 38.8717 20.9851 35.641ZM18.5485 35.9168C18.6555 35.9316 18.6646 36.052 18.6331 36.3404C18.5574 37.0347 18.0961 37.7973 17.813 37.822C17.7186 37.8303 17.5928 37.6457 17.5555 37.4866C17.5103 37.2935 17.1775 36.8065 16.9679 36.5731C16.7044 36.2797 16.7181 36.2385 17.0956 36.2082C17.5452 36.1721 17.9845 36.0834 18.2376 35.9909C18.3848 35.9372 18.4843 35.9079 18.5485 35.9168V35.9168ZM13.597 36.1034L8.70099 38.0029L8.71452 41.8605C12.0538 39.4337 13.3366 36.4883 13.597 36.1034H13.597ZM18.0336 36.3492C17.8401 36.3694 17.4911 36.5382 17.4657 36.6592C17.4713 36.7316 17.7102 37.1503 17.854 37.1693C18.0975 37.131 18.1999 36.5757 18.1577 36.3855C18.1454 36.3519 18.0981 36.3424 18.0336 36.3492ZM13.2077 36.4155C11.8054 38.7977 10.432 40.2701 9.07054 41.3587L9.02023 38.1714L13.2077 36.4155ZM41.0118 36.4171L46.8044 44.0804L46.2624 44.6227L40.6381 37.3632L41.0118 36.4171ZM16.5625 36.6473C16.9077 36.6411 17.4882 37.9546 17.3105 38.1912C17.2217 38.3222 16.5355 38.2642 16.1696 38.2114C15.8094 38.1412 15.756 38.1344 15.8773 37.8355C16.0394 37.4389 16.4049 36.7234 16.4971 36.6665C16.5178 36.6536 16.5395 36.6477 16.5625 36.6473V36.6473ZM36.5851 36.7054L38.6599 36.7448L38.1584 38.5556L36.0281 38.5432L36.5851 36.7054ZM37.4261 36.7919L36.4149 37.4804L37.2127 38.2855L38.1896 37.6105L37.4261 36.7919ZM40.4974 37.6924L46.0922 45.012C43.9457 47.4423 42.5027 50.2245 41.6202 52.6344C39.5485 48.0875 39.0558 42.8883 40.4974 37.6924ZM17.9194 38.1538C18.0322 38.1538 18.1234 38.2452 18.1234 38.3586C18.1234 38.472 18.0322 38.5639 17.9194 38.5639C17.8066 38.5639 17.7154 38.472 17.7154 38.3586C17.7154 38.2452 17.8066 38.1538 17.9194 38.1538ZM15.6526 38.4167C15.711 38.4104 15.7999 38.4259 15.8991 38.4685C16.3401 38.658 17.3633 38.4568 17.3905 38.5546C17.5431 38.7732 17.3142 39.3697 16.8828 39.7827C16.6721 39.9844 16.4793 40.1156 16.3679 40.1176C16.2563 40.1195 16.2357 39.9646 16.153 39.6982C16.0185 39.257 15.767 38.8495 15.5877 38.4944C15.5659 38.4511 15.594 38.423 15.6526 38.4167ZM15.3375 38.849C15.5105 38.8049 15.7112 39.1771 15.8825 39.7309C16.0406 40.242 15.9607 40.3705 15.6603 40.3748C15.5065 40.3927 15.4004 40.39 15.2674 40.3893C14.5002 40.3849 14.244 40.3371 14.467 39.9579C14.7646 39.5879 14.9406 39.2364 15.2653 38.8941C15.2887 38.8702 15.3128 38.8553 15.3375 38.849V38.849ZM16.6948 38.8734C16.5691 38.8721 16.4199 38.9363 16.3544 39.0237C16.2826 39.1608 16.3132 39.424 16.5168 39.5313C16.6356 39.5939 16.9641 39.104 16.8729 38.9558C16.8375 38.8983 16.7703 38.8742 16.6948 38.8734V38.8734ZM36.0266 38.8926L38.076 38.9398L37.7038 41.0886L36.0266 38.8926ZM53.8498 39.0803L53.8629 40.1415C47.3331 43.8791 44.6554 48.2944 42.4155 53.8932L41.7936 52.8221C44.0587 47.0223 47.5844 42.7114 52.3601 39.8916C52.3628 39.8946 52.3686 39.9038 52.3705 39.9066L52.5278 39.8055C52.5278 39.8042 52.5235 39.7997 52.5227 39.7983C52.9554 39.5473 53.3971 39.307 53.85 39.0803H53.8498ZM16.4961 40.4992C16.6088 40.4992 16.7001 40.5906 16.7001 40.704C16.7001 40.8174 16.6088 40.9087 16.4961 40.9087C16.3833 40.9088 16.2926 40.8174 16.2926 40.704C16.2926 40.5906 16.3833 40.4992 16.4961 40.4992ZM14.2272 40.5039C14.3094 40.4916 14.5033 40.5757 14.7898 40.607C15.1751 40.6491 15.7884 40.5845 15.9401 40.6915C16.0063 40.7779 15.9452 41.0058 15.8218 41.2628C15.6478 41.6246 15.3315 41.9327 15.0956 42.0726C14.4981 42.3501 14.6371 41.9972 14.5407 41.6402C14.4845 41.4321 14.3992 41.1671 14.3341 40.9793C14.1742 40.6246 14.1449 40.5161 14.2272 40.5039V40.5039ZM13.8363 40.8745C13.9906 40.8599 14.1019 41.0733 14.2032 41.4676C14.4047 42.1264 14.4506 42.3793 13.9468 42.322C13.8068 42.3206 13.6086 42.3153 13.3759 42.267C12.7865 42.1445 12.7171 42.092 13.0712 41.6755C13.2024 41.5211 13.3977 41.2882 13.5046 41.1576C13.6353 40.9745 13.7437 40.8833 13.8363 40.8745V40.8745ZM53.8649 40.9155L53.8607 41.4889C53.3792 41.6579 53.0727 42.0611 53.8814 42.1903L53.8944 42.6418C53.5246 42.5071 53.2069 42.3078 52.8256 42.1773C52.5782 42.0927 52.6461 41.8935 52.9024 41.6107C53.1882 41.2714 53.4687 41.1045 53.8648 40.9155H53.8649ZM15.2134 40.9964C15.1215 40.9913 15.0221 41.001 14.9575 41.0249C14.7587 41.0982 14.8942 41.5832 15.0904 41.5822C15.2735 41.5316 15.5366 41.1905 15.4236 41.0565C15.3898 41.0215 15.3053 41.0014 15.2134 40.9964V40.9964ZM52.0466 41.6765C52.1594 41.6765 52.2506 41.7684 52.2506 41.8818C52.2506 41.9952 52.1594 42.0866 52.0466 42.0866C51.9338 42.0866 51.843 41.9952 51.843 41.8818C51.843 41.7684 51.9338 41.6765 52.0466 41.6765ZM34.8301 41.8295C34.9891 41.8391 35.1654 41.8792 35.1654 41.8792C35.0949 41.8556 34.8518 44.9769 34.8711 46.9375C34.9079 50.6712 35.5376 54.3646 36.9947 58.0649C36.7169 58.2359 36.0318 58.3231 36.0318 58.3231C35.1122 55.5171 34.2973 52.4987 34.1973 49.6353C34.1079 46.5168 34.063 44.6365 34.5814 41.8953C34.5883 41.8595 34.6282 41.8408 34.6842 41.8326C34.7262 41.8264 34.7771 41.8263 34.8301 41.8295V41.8295ZM30.2933 41.8938H32.5326V43.3806H34.1319L34.0027 45.0753H32.5326V46.5621H30.2933V45.0753H28.5414L28.6774 43.3806H30.2933V41.8938ZM12.6102 42.3194C12.6642 42.3089 12.7481 42.3352 12.862 42.3956C13.0832 42.5155 13.669 42.6063 13.9858 42.5812C14.3463 42.5527 14.3358 42.65 14.2303 42.9544C14.0432 43.494 13.3194 44.0745 12.9777 44.0748C12.8638 44.0748 12.7908 44.015 12.7929 43.8726C12.7958 43.6905 12.6656 42.9033 12.5931 42.6864C12.5141 42.456 12.5203 42.3369 12.6101 42.3194H12.6102ZM52.5039 42.3712C52.7003 42.3635 53.0333 42.5001 53.4776 42.7533C53.865 42.974 53.9372 43.109 53.7439 43.2442C53.4163 43.4443 52.4569 44.2181 52.2806 44.1707C52.0472 43.9699 52.0933 42.7013 52.3538 42.4282C52.3879 42.3926 52.4384 42.3738 52.5039 42.3712V42.3712ZM14.9092 42.4267C15.022 42.4267 15.1132 42.5181 15.1132 42.6315C15.1132 42.7449 15.022 42.8368 14.9092 42.8368C14.7965 42.8368 14.7052 42.7449 14.7052 42.6315C14.7052 42.5181 14.7965 42.4267 14.9092 42.4267ZM51.8467 42.4469C51.9733 42.4506 52.0237 42.5174 51.9894 42.6512C51.8463 43.2095 51.9775 44.0909 51.9438 44.2941C51.4046 44.1139 51.0208 43.8671 50.4903 43.8047C50.3306 43.7824 50.2896 43.7528 50.3631 43.6118C50.6041 43.1497 51.0586 42.6657 51.5384 42.5076C51.667 42.4652 51.7707 42.4447 51.8467 42.4469V42.4469ZM12.182 42.6279C12.3572 42.6323 12.4782 42.9226 12.5266 43.4174C12.5759 43.9213 12.5003 44.2083 12.0999 44.1432C11.9786 44.1459 11.8282 44.1247 11.6473 44.0831C10.9464 43.9247 10.7902 43.7636 11.3878 43.2863C11.6087 43.1098 11.8429 42.8907 11.911 42.8067C12.0115 42.6828 12.1023 42.6258 12.182 42.6279V42.6279ZM13.3691 42.8948C13.2587 42.8911 13.1527 42.9064 13.1215 42.9353C13.026 43.0239 13.0704 43.4354 13.1501 43.4848C13.3538 43.5545 13.7653 43.1212 13.6432 42.9695C13.5942 42.9215 13.4795 42.8986 13.3691 42.8948V42.8948ZM51.4465 43.1069C51.3865 43.1113 51.3024 43.152 51.1932 43.2292C50.9346 43.4118 50.9453 43.5264 51.2368 43.702C51.3836 43.8288 51.5508 43.8435 51.5923 43.7704C51.6372 43.6914 51.6257 43.5112 51.5575 43.2017C51.5427 43.134 51.5065 43.1024 51.4465 43.1069ZM49.9146 43.3562C50.0274 43.3562 50.1187 43.4476 50.1187 43.561C50.1187 43.6744 50.0274 43.7663 49.9146 43.7663C49.8019 43.7663 49.7112 43.6744 49.7112 43.561C49.7112 43.4476 49.8019 43.3562 49.9146 43.3562ZM30.5321 43.5009V44.982H32.3151V43.5009H30.5321ZM53.8597 43.5045L53.8773 44.5217C48.9739 47.4933 46.8542 53.0599 46.8546 53.0616L45.7116 53.4971C47.3098 49.6671 49.4934 46.3257 53.8596 43.5045H53.8597ZM16.5215 43.7259L22.0331 50.9506L21.6874 51.863L15.9526 44.3008L16.5215 43.7259ZM10.8464 44.038C10.8917 44.0382 10.9625 44.0731 11.0696 44.1339C11.2519 44.2378 11.6226 44.4074 12.0236 44.4423C12.3522 44.4709 12.3762 44.6071 12.2744 44.8249C11.9842 45.3076 11.4351 45.5361 10.9963 45.6876C10.7565 45.7704 10.8834 45.0406 10.7872 44.3594C10.7665 44.1328 10.7707 44.0376 10.8464 44.038V44.038ZM50.6554 44.0991C51.1253 44.1375 51.7582 44.4026 51.7548 44.6352C51.7548 44.7361 50.6979 45.6333 50.5832 45.6316C50.3234 45.6279 50.0357 44.2671 50.2692 44.1458C50.3601 44.0986 50.4987 44.0864 50.6554 44.0991V44.0991ZM49.7024 44.1966C49.8376 44.1878 49.8895 44.2877 49.8752 44.5258C49.8725 44.7841 49.9842 45.2331 50.1295 45.5533C50.2426 45.8023 50.3716 45.969 50.2479 45.9727C50.1737 45.9751 49.9456 45.8763 49.7434 45.8198C49.4395 45.7348 49.1998 45.6981 48.9227 45.6928C48.3661 45.682 48.2933 45.6869 48.5329 45.2267C48.7055 44.8952 49.0941 44.4571 49.366 44.3236C49.5103 44.2461 49.6213 44.2019 49.7024 44.1966V44.1966ZM10.3817 44.2163C10.5411 44.197 10.5947 44.37 10.6076 44.8057C10.6307 45.4587 10.5608 45.8113 10.2136 45.8187C10.0558 45.8222 9.78515 45.7248 9.53827 45.6041C8.8837 45.2842 8.90141 45.2106 9.78847 44.5776C10.0702 44.3626 10.2579 44.2313 10.3817 44.2163ZM12.889 44.4439C13.0017 44.4439 13.0929 44.5353 13.093 44.6487C13.093 44.7621 13.0017 44.854 12.889 44.854C12.7762 44.854 12.6855 44.7621 12.6855 44.6487C12.6855 44.5353 12.7762 44.4439 12.889 44.4439ZM11.2611 44.6227C11.1929 44.6304 11.1619 44.6798 11.1729 44.799C11.2176 45.2263 11.2005 45.2711 11.5819 45.0344C11.795 44.9 11.8818 44.8034 11.5726 44.6969C11.435 44.6495 11.3294 44.6151 11.2611 44.6227H11.2611ZM49.4516 44.8254C49.3743 44.815 49.2876 44.8604 49.1988 44.9633C48.9504 45.2516 49.0027 45.3832 49.3603 45.459C49.5094 45.4906 49.6298 45.4804 49.7289 45.4584C49.893 45.4221 49.7289 45.2083 49.6484 45.0219C49.5968 44.9018 49.529 44.8358 49.4516 44.8254V44.8254ZM14.8931 45.3708C14.993 45.3811 15.0229 45.5644 15.0343 45.7747C15.0955 46.9005 16.6707 47.0743 16.1192 46.0774C15.938 45.7556 16.0511 45.6304 16.3756 45.7944C16.8881 46.0533 17.0578 46.6669 16.5609 46.9499C15.9702 47.1875 16.1699 47.2388 16.9248 47.4953C18.5317 48.0474 19.2215 49.0601 19.3059 50.9895C19.275 51.869 19.3945 52.1825 19.8057 52.3027C20.1823 52.4126 20.6087 51.9314 20.3383 51.678C20.1915 51.5402 20.0715 51.4155 20.1494 51.3394C20.3991 51.0956 21.024 51.4913 21.0178 51.9159C21.0138 52.1936 20.9093 52.2509 20.4961 52.5774C20.3815 52.668 20.4789 52.8383 20.6467 52.8408C21.2783 52.6361 21.234 53.4765 20.8943 53.5039C19.7317 53.4718 18.5092 52.1972 18.6331 51.1466C18.7205 50.4062 18.5792 49.8569 18.3788 50.16C17.9359 50.8298 16.6312 50.3847 16.643 49.5804C16.6491 49.1524 16.9335 49.0816 17.0966 49.4679C17.3378 50.0388 18.0151 50.0533 18.1151 49.4549C18.2088 48.8941 17.7364 48.4817 16.4727 48.0225C14.9919 47.6732 14.0431 46.2963 14.6268 45.5714C14.7479 45.421 14.8333 45.3646 14.8931 45.3708V45.3708ZM47.8929 45.3802C48.0056 45.3802 48.0963 45.4731 48.0963 45.5865C48.0963 45.6999 48.0056 45.7913 47.8929 45.7913C47.7801 45.7913 47.6873 45.6999 47.6873 45.5865C47.6873 45.4731 47.7801 45.3802 47.8929 45.3802ZM9.09549 45.7228C9.41118 45.8176 9.60655 45.9518 9.96648 46.0723C10.1871 46.1467 10.3176 46.2 10.1228 46.4336C9.81749 46.7996 9.48987 47.0285 9.11781 47.2553L9.11515 46.784C9.70979 46.5191 9.65202 46.2744 9.10214 46.1391L9.09549 45.7228ZM49.12 45.9209C49.5434 45.9373 49.8712 46.0736 50.0195 46.2273C50.0626 46.1949 49.041 47.4227 48.8536 47.5389C48.4301 47.171 48.3725 46.5099 48.388 46.0085C48.5788 45.9561 48.762 45.929 48.9331 45.9214C48.9972 45.9185 49.0595 45.9185 49.12 45.9209V45.9209ZM48.0102 46.0339C48.1066 46.0286 48.1195 46.1297 48.1456 46.4035C48.1897 46.9356 48.4585 47.4537 48.5754 47.8624C48.1938 47.8324 47.7581 47.7057 47.3536 47.71C46.8719 47.7201 46.7306 47.7528 46.7332 47.5731C46.7276 47.0894 47.1775 46.4028 47.7268 46.1438C47.8654 46.0784 47.9533 46.0371 48.0112 46.0339H48.0102ZM10.8536 46.037C10.9664 46.037 11.0577 46.1289 11.0576 46.2423C11.0577 46.3557 10.9664 46.4471 10.8536 46.4471C10.7409 46.4471 10.6496 46.3557 10.6496 46.2423C10.6496 46.1289 10.7409 46.037 10.8536 46.037ZM54.2064 46.4274C51.9412 47.9462 50.1573 50.1349 49.1869 52.3006L54.1789 50.1916L54.2064 46.4274ZM13.637 46.4564L20.1525 54.9518L19.6791 55.6449L13.012 46.9541L13.637 46.4564ZM47.6234 46.727C47.5728 46.732 47.5188 46.7646 47.462 46.8255C47.2594 47.0428 47.2319 47.2154 47.3597 47.3082C47.5475 47.384 47.6863 47.3943 47.8954 47.3953C48.0861 47.3822 47.9855 47.267 47.8441 46.9323C47.7829 46.7875 47.7078 46.7187 47.6234 46.727V46.727ZM53.8784 46.8815L53.8664 50.0765L49.597 51.8843C50.4535 50.0176 52.0388 48.1666 53.8784 46.8815V46.8815ZM25.0158 47.0194L26.7994 49.5514L24.6908 49.5384L25.0158 47.0194ZM12.7763 47.1438L19.4932 55.8746L18.0788 57.7373L11.0332 48.4461L12.7763 47.1438ZM46.2707 47.4124C46.3834 47.4124 46.4747 47.5037 46.4747 47.6172C46.4747 47.7306 46.3834 47.8219 46.2707 47.8219C46.158 47.8219 46.0667 47.7306 46.0667 47.6172C46.0667 47.5037 46.158 47.4124 46.2707 47.4124ZM47.1313 47.9215C47.5618 47.9262 48.2233 48.0251 48.3185 48.1237C48.4494 48.2379 48.0261 48.7278 47.7885 49.0724C47.666 49.2166 47.5304 49.6076 47.3441 49.4348C47.0119 49.1233 46.5922 48.0302 46.8074 47.9515C46.87 47.9287 46.9878 47.9199 47.1313 47.9215V47.9215ZM46.3101 48.1133C46.4713 48.1301 46.563 48.3258 46.6227 48.6924C46.6572 48.9043 46.8787 49.2646 47.0737 49.5488C47.2916 49.8664 47.2017 49.917 46.6496 49.7893C46.2642 49.7142 45.7887 49.8058 45.4324 49.8236C45.0843 49.7989 45.413 48.6842 45.9369 48.2776C46.0918 48.1574 46.2134 48.1032 46.3101 48.1133V48.1133ZM46.1316 48.7535C46.0786 48.7614 46.0165 48.8014 45.9364 48.8712C45.6393 49.1304 45.7644 49.4111 46.1705 49.3974C46.4916 49.3866 46.5128 49.3426 46.3605 48.9946C46.2828 48.8172 46.2199 48.7404 46.1316 48.7535V48.7535ZM44.7913 49.6898C44.9041 49.6898 44.9948 49.7827 44.9948 49.8962C44.9948 50.0096 44.9041 50.1014 44.7913 50.1014C44.6785 50.1014 44.5857 50.0096 44.5857 49.8962C44.5857 49.7827 44.6785 49.6898 44.7913 49.6898ZM33.9908 49.8402C34.0038 50.6031 34.1019 51.366 34.215 52.129C31.2234 53.23 28.9063 54.8756 27.2022 57.0509L23.9901 57.0689C24.9597 55.2555 26.2975 53.1876 27.0485 49.8458L33.9908 49.8402ZM24.6405 49.8542L26.7469 49.8858L26.191 51.5354L24.1801 51.5132L24.6405 49.8542ZM46.3553 49.9584C46.6693 49.9557 47.0654 50.0328 47.0213 50.1782C46.9162 50.4581 46.2222 51.6101 46.157 51.6091C45.9722 51.6064 45.5531 50.9617 45.4355 50.4991C45.3483 50.156 45.4408 50.0837 46.088 49.9869C46.155 49.9684 46.2506 49.9591 46.3553 49.9584ZM25.498 50.0486L24.5061 50.6645L25.3023 51.4338L26.2388 50.7822L25.498 50.0486ZM45.0088 50.4457C45.119 50.4399 45.1988 50.5337 45.247 50.7599C45.2871 50.9475 45.4834 51.3445 45.7308 51.664C46.0186 52.0358 46.0157 52.0446 45.5954 52.071C45.1312 52.0638 44.7502 52.2882 44.388 52.3323C43.8961 52.3477 44.1391 51.0123 44.7779 50.5567C44.8657 50.4888 44.9426 50.4493 45.0088 50.4457ZM54.099 50.8781L43.2268 55.5672L44.7949 57.8903L54.1099 52.4287L54.099 50.8781ZM44.9403 51.2451C44.8428 51.2345 44.7575 51.3178 44.6812 51.4955C44.6069 51.669 44.6736 51.7616 44.8743 51.7646C45.2372 51.7699 45.3458 51.5996 45.1297 51.3659C45.0615 51.2921 44.9987 51.2515 44.9403 51.2451ZM24.0155 51.8859L26.1028 51.901L25.4544 53.4314L23.4907 53.3962L24.0155 51.8859ZM25.0044 51.9953L23.9174 52.509L24.534 53.281L25.5157 52.7138L25.0044 51.9953ZM45.6535 52.311C45.8624 52.3235 45.8942 52.4555 45.7413 52.7854C45.4402 53.4348 45.3215 53.7839 45.1219 53.7854C44.9667 53.7854 44.7785 53.5924 44.566 53.2167C44.2587 52.6734 44.2687 52.6381 44.7736 52.4816C45.1145 52.3909 45.3755 52.3264 45.5533 52.3126C45.5904 52.3097 45.6236 52.3091 45.6535 52.3099V52.311ZM43.6328 52.311C43.7455 52.311 43.8362 52.4045 43.8362 52.5179C43.8362 52.6313 43.7455 52.7226 43.6328 52.7226C43.52 52.7226 43.4271 52.6313 43.4271 52.5179C43.4271 52.4045 43.52 52.311 43.6328 52.311ZM34.2518 52.4313L34.4315 53.3204L33.3315 53.0218L33.099 54.1136L34.1958 54.4537L34.4325 53.3261L34.7164 54.7341C34.7164 54.7341 30.9504 55.6473 28.5113 59.5544L22.3783 59.5254L23.7264 57.3885L27.3615 57.3418C29.5368 54.6449 31.8732 53.3291 34.2518 52.4313V52.4313ZM44.0433 52.9046C44.1047 52.9163 44.1635 52.9628 44.2369 53.0425C44.3381 53.1524 44.7965 53.9041 44.7965 53.9041L44.4051 54.1022C43.9299 53.338 43.9304 53.7076 43.7505 54.3588L43.2943 54.5677C43.2377 54.5791 43.4787 53.2192 43.8331 52.9741C43.9178 52.9155 43.9818 52.8928 44.0433 52.9046V52.9046ZM23.3251 53.6967L25.3293 53.7268L24.4962 55.42L22.4733 55.4075L23.3251 53.6967ZM23.9543 53.7217L23.1133 54.3967C23.0955 54.411 23.7285 55.2822 23.7285 55.2822L24.6405 54.518L23.9543 53.7217ZM31.6876 53.7554L31.4779 54.9898L32.5773 55.2189L32.857 54.0685L31.6876 53.7554ZM30.1438 54.6849L29.9357 56.0909L30.9697 56.304L31.2687 55.1209L30.1438 54.6849ZM8.79546 54.7006C8.79546 54.7006 8.83084 71.356 8.879 79.3988L12.6824 75.4748L12.6677 58.5924L8.79546 54.7006ZM9.11781 55.1594L11.3888 57.4425V75.0165L9.11781 77.3048V55.1594ZM22.3072 55.7084L24.3457 55.7251L23.6008 57.102L21.4917 57.0688L22.3072 55.7084ZM23.0583 55.8085L22.0612 56.1921L22.7064 56.9723L23.6117 56.4477L23.0583 55.8085ZM35.0274 56.0225L35.7639 58.3565L35.1576 58.4882L34.3562 56.2455L35.0274 56.0225ZM29.7727 56.247L28.5388 56.2771L28.6286 57.5084L29.8121 57.4482L29.7727 56.247ZM34.1423 56.3367L34.8353 58.6007L34.2373 58.8355L33.4597 56.668L34.1423 56.3367ZM33.2287 56.7997L33.9772 58.9164C32.1426 59.7754 31.652 60.636 31.0019 61.3379C30.5818 60.8856 30.0835 60.6211 29.4275 60.5349C30.476 58.8802 31.7566 57.5863 33.2287 56.7997ZM21.2254 57.3979L23.4388 57.4062L21.9989 59.5431L19.5753 59.5484L21.2254 57.3979ZM27.4207 57.4425L27.2603 58.6422L28.3732 59.2083L28.5186 57.8049L27.4207 57.4425ZM26.0399 57.5161L25.2411 58.4249L26.0726 59.3488L26.9151 58.4114L26.0399 57.5161ZM24.3524 57.5804L23.4679 58.4524L24.165 59.3705L25.0184 58.4783L24.3524 57.5804ZM11.8061 57.8645L12.4669 58.5488V75.2477L9.11833 78.785V77.8134L11.8066 75.0248L11.8061 57.8645ZM21.2908 57.8836L20.452 59.1309L21.6942 59.1559L22.4909 57.9029L21.2908 57.8836ZM15.6609 66.3381C15.2016 67.375 14.587 68.6958 13.5923 69.1158C14.3328 70.5954 14.2365 72.0743 13.7112 72.8852C14.4624 73.5885 15.2336 74.4308 15.7123 75.6422C18.0859 73.5346 18.4675 69.2056 15.6609 66.3381V66.3381ZM15.7185 66.534C17.5898 68.5187 18.4092 72.7138 15.732 75.2373L15.5685 74.8324C17.6826 72.2307 17.0301 68.8154 15.4989 66.9928L15.7185 66.534ZM15.2363 67.7207C15.2599 67.7172 15.2825 67.7178 15.3032 67.7233C15.4413 67.7525 15.502 67.9494 15.3665 68.207C15.2819 68.4501 15.0845 68.6545 14.9196 68.6347C14.7187 68.6085 14.7537 68.1473 14.997 67.8752C15.0816 67.7806 15.1649 67.7325 15.2363 67.7218V67.7207ZM15.7958 67.9939C15.8832 67.9865 15.983 68.1291 16.1467 68.4708C16.3222 68.8374 16.3946 69.0715 16.2703 69.08C15.9788 69.0143 15.7055 68.9096 15.5025 68.6699C15.3831 68.5288 15.5405 68.2554 15.7107 68.0499C15.7388 68.0159 15.7667 67.9964 15.7958 67.9939V67.9939ZM14.5059 68.6186C14.9025 68.7857 15.7751 72.0516 14.5858 73.3756L13.9598 72.8474C14.3055 71.9429 14.5321 70.7944 13.8378 69.1463C13.9149 69.1413 14.3647 68.6948 14.5059 68.6186ZM15.3317 68.9623C15.5731 68.966 15.9655 69.1173 16.0741 69.2895C16.1932 69.4783 15.8477 70.0415 15.5991 70.1905C15.5107 70.259 15.4365 70.2295 15.4107 70.2067C15.2669 70.1022 15.0702 69.1141 15.1568 69.0122C15.1877 68.9759 15.2513 68.9612 15.3317 68.9624V68.9623ZM13.1812 69.2588L12.9263 69.3351L13.408 70.9442L12.9699 72.5052L13.2258 72.5768L13.6847 70.9422L13.1812 69.2588ZM16.4224 69.6238C16.5366 69.6076 16.6018 69.7796 16.629 70.1775C16.6449 70.4112 16.6622 70.5926 16.5921 70.6026C16.5376 70.6103 16.3675 70.4965 16.2064 70.4004C15.9264 70.2334 15.9201 70.1599 16.1613 69.8483C16.2675 69.711 16.3538 69.6336 16.4224 69.6238ZM15.5228 70.3833C15.7396 70.3982 16.186 70.5367 16.2609 70.8152C16.3872 71.0528 15.8833 71.432 15.5882 71.4259C15.5335 71.4259 15.4859 71.4118 15.4512 71.3839L15.405 70.4092C15.405 70.3872 15.4505 70.3784 15.5228 70.3832V70.3833ZM23.2343 70.7695C21.5647 70.76 20.6785 71.1964 20.996 71.9847C21.1993 72.1899 21.0605 72.2674 20.9731 72.3907C20.6197 72.7536 20.8168 73.0178 21.0323 73.4197C21.0323 73.4197 18.266 78.3895 16.8843 80.8658L41.2875 80.9285L40.3267 79.1089L40.4928 78.9953C40.2312 78.557 40.0087 78.0641 39.7411 77.6293L39.5485 77.6516C39.2329 77.0435 39.105 76.8184 38.6921 76.0979H38.8784C38.7824 75.7776 38.5362 75.5647 38.5311 75.3348C38.5282 75.0488 38.602 74.7585 38.4273 74.5649C38.2204 74.3356 38.1953 74.2721 38.2379 74.1377C38.3508 73.7809 38.0295 73.3859 37.7032 73.4213C35.4036 73.7303 33.0653 73.4499 30.7174 72.7561C28.357 72.0587 26.2969 70.9852 23.9963 70.8001C23.727 70.7802 23.4728 70.7699 23.2343 70.7685L23.2343 70.7695ZM22.927 70.8888C25.9972 70.818 28.1042 72.1355 30.6972 72.9044C33.1718 73.6382 34.9747 73.8685 37.7463 73.5809C38.088 73.6096 38.0833 73.8123 38.0863 74.0112C35.1139 74.4098 32.3803 74.1123 29.3595 72.964C26.4355 71.8599 23.2158 70.758 21.1029 71.7462C21.1029 71.7462 21.0899 71.3257 21.3313 71.2066C21.3313 71.2066 21.5542 71.0251 22.2999 70.922C22.5136 70.9042 22.7223 70.8935 22.927 70.8888V70.8888ZM16.5516 71.1112C16.6653 71.1112 16.6754 71.3274 16.6196 71.7628C16.5755 72.1071 16.5144 72.3333 16.4213 72.3326C16.3392 72.3326 16.2102 72.132 16.0517 71.8707C15.9282 71.6668 15.9536 71.5898 16.2272 71.3419C16.3782 71.1883 16.4834 71.1109 16.5516 71.1112ZM15.4667 71.6752C15.5518 71.6696 16.1454 72.1741 16.086 72.4347C15.965 72.7648 15.5514 72.6945 15.298 72.6835L15.4568 71.6835C15.4568 71.6785 15.4611 71.6755 15.4667 71.6753L15.4667 71.6752ZM22.9322 71.8924C23.0322 71.8898 23.1336 71.8898 23.2364 71.8924C25.0458 71.9379 27.2645 72.712 28.9323 73.3311C32.8317 74.7784 35.8664 74.6945 38.0344 74.5291C38.2252 74.5667 38.377 75.0675 38.0712 75.0709C34.0169 75.1158 34.6721 75.6246 28.3696 73.7649C25.9201 73.0422 23.9583 71.9157 21.1263 72.9194L21.1127 72.3652C21.6056 72.0471 22.2322 71.9079 22.9321 71.8919L22.9322 71.8924ZM16.2734 72.7903C16.3782 72.7996 16.3586 72.9045 16.2697 73.1522C16.1729 73.4221 16.0863 73.5543 15.9925 73.5566C15.9196 73.5592 15.8428 73.4813 15.7532 73.3275C15.5808 73.0317 15.6035 72.9746 15.938 72.8666C16.1027 72.8133 16.2104 72.7848 16.2733 72.7903H16.2734ZM15.1615 73.0646C15.1615 73.0646 15.4747 73.3542 15.6334 73.6385C15.7403 73.9146 15.4187 73.9893 15.106 74.0159L14.807 73.6317L15.1615 73.0646ZM23.4461 73.1926C23.9965 73.1855 24.5826 73.2289 25.1642 73.4612L23.8354 73.9148L22.9093 73.2118C23.0834 73.2033 23.2626 73.1951 23.4461 73.1927V73.1926ZM22.0549 73.4736C23.0957 73.4281 23.8258 74.2263 23.7959 74.2627C25.267 73.409 26.5713 73.5892 27.6735 75.0232C27.9601 74.8635 30.0122 74.4875 31.4934 76.1223C32.9881 75.3682 34.3776 75.6843 35.6123 76.5277C36.5248 75.6615 37.4867 75.5248 38.486 75.9408L38.7819 76.5391C38.7072 76.5672 38.3848 75.9387 36.8208 76.2317C36.2957 76.33 35.3924 77.2174 35.8983 77.65C36.13 77.9795 36.1367 78.1284 35.9322 78.3281C35.7309 78.5249 35.3874 78.4233 35.2713 78.226C35.191 78.0836 35.2258 77.8863 35.3549 77.7252C35.9045 77.0397 34.1781 75.8483 32.936 76.0554C31.9906 76.213 31.1847 76.7838 31.5324 77.2182C31.8155 77.572 31.6306 77.9298 31.2905 77.9274C30.9407 77.9247 30.6598 77.6455 30.9629 77.2623C31.6374 76.4097 30.6088 75.4094 29.0361 75.3887C27.9239 75.3741 27.5539 75.6495 27.6138 76.4463C27.642 76.8194 27.5689 76.9226 27.3107 76.9792C26.8982 77.0696 26.6899 76.5942 27.0319 76.2317C27.7704 75.4486 26.9311 74.2976 25.5344 74.2233C25.0233 74.1961 24.9226 74.2231 24.3524 74.5468C23.9067 74.7997 23.7494 75.182 23.9678 75.4789C24.2488 75.861 23.8701 76.3176 23.4326 76.1295C23.1199 75.9951 22.9658 75.754 23.3116 75.3451C23.7661 74.8081 23.5394 74.3969 22.6758 74.0662C22.1288 73.8568 21.7473 73.8743 21.431 74.0097C21.2317 74.0949 21.0581 74.2272 20.8854 74.3783C21.1 74.0057 21.2903 73.6597 21.2903 73.6597C21.5581 73.5396 21.8148 73.4841 22.0549 73.4736V73.4736ZM27.0117 73.8884C27.6158 74.079 28.2031 74.2908 28.7496 74.554L27.8162 74.7464L27.0117 73.8884ZM21.9319 74.2155C21.9923 74.2129 22.0541 74.2128 22.1167 74.2181C22.4173 74.2373 22.7339 74.3367 22.9706 74.5696C22.0007 74.439 21.6572 75.7293 22.8419 76.016C21.28 77.1836 24.2101 78.9316 24.245 76.5163C25.6227 76.7603 25.4439 74.9293 24.5699 74.7869C25.017 74.2912 26.3313 74.2776 27.0184 75.3224C25.8497 74.712 25.2173 76.2873 26.4313 76.7283C24.9329 78.0497 27.8673 79.2679 27.7986 77.1327C28.9045 77.7918 29.6649 76.1116 28.1884 75.8538C28.2726 75.5514 30.2059 75.5491 30.6966 76.3308C29.3257 76.0162 29.2626 77.6944 30.4724 77.831C29.258 79.3808 32.3405 80.1648 31.8231 78.0498C33.014 78.5235 33.4641 77.0306 32.3042 76.551C32.2398 76.3134 34.1824 76.1112 34.8623 76.9684C33.3693 77.1937 33.892 78.6488 34.8591 78.5325C34.8591 78.5325 34.8453 78.5739 34.7906 78.7155C34.334 80.1761 36.7886 80.2985 36.4486 78.7497C36.3941 78.6071 36.3343 78.4169 36.3343 78.4169C37.0111 78.5555 37.4246 78.2783 37.3757 77.6397C37.2071 76.7919 36.7618 76.855 36.1922 77.0238C35.9532 76.7728 37.5665 75.9332 38.5794 76.6827C37.3389 77.0412 37.967 78.5033 39.0051 78.3059C39.048 78.7725 39.5523 79.4267 40.2099 79.1074L40.906 80.4838L17.3354 80.4811L19.3546 76.9761C20.4339 77.1727 20.6873 76.2599 20.7037 76.1316C22.1054 76.4929 21.8901 74.6651 21.187 74.5416C21.1622 74.3966 21.5091 74.2324 21.9318 74.215L21.9319 74.2155ZM15.5664 74.2227C15.6754 74.2123 15.7823 74.2277 15.7392 74.2833L15.5378 74.5348L15.3806 74.316C15.3464 74.2686 15.4574 74.2329 15.5664 74.2227ZM20.5039 74.9868C20.6599 75.1622 20.7052 75.5347 20.2335 75.5447L20.5039 74.9868ZM30.964 75.26L32.2362 75.5286L31.5692 75.851L30.964 75.26ZM34.8991 75.7764L36.1896 75.7841L35.6201 76.232L34.8991 75.7764ZM39.0472 77.1072C39.0583 77.1019 39.0755 77.1157 39.0995 77.158C39.1503 77.2475 39.4153 77.6476 39.4027 77.6598C39.2795 77.6702 39.157 77.5422 39.1021 77.4411C39.0367 77.3136 39.0135 77.1231 39.0467 77.1072H39.0472Z" fill="#100F08"/>
<path d="M46.0446 65.2263C47.5083 67.6435 49.0481 69.9928 50.9725 71.9997C49.0481 74.0065 47.5083 76.3558 46.0446 78.773C44.5809 76.3558 43.0411 74.0065 41.1167 71.9997C43.0411 69.9928 44.5809 67.6435 46.0446 65.2263Z" fill="#C8102E"/>
<path d="M58.0222 68.2521C58.6321 69.2593 59.2737 70.2382 60.0755 71.0744C59.2737 71.9105 58.6321 72.8894 58.0222 73.8966C57.4124 72.8894 56.7708 71.9105 55.9689 71.0744C56.7708 70.2382 57.4124 69.2593 58.0222 68.2521Z" fill="#C8102E"/>
<path d="M16.9556 22.7705C18.4193 20.3533 19.9591 18.004 21.8835 15.9972C19.9591 13.9903 18.4193 11.641 16.9556 9.2238C15.4919 11.641 13.9521 13.9903 12.0277 15.9972C13.9521 18.004 15.4919 20.3533 16.9556 22.7705Z" fill="#C8102E"/>
<path d="M4.97778 19.748C5.58764 18.7408 6.22927 17.7619 7.03107 16.9258C6.22927 16.0896 5.58764 15.1107 4.97778 14.1035C4.36793 15.1107 3.72632 16.0896 2.9245 16.9258C3.72632 17.7619 4.36793 18.7408 4.97778 19.748Z" fill="#C8102E"/>
<path d="M57.7972 75.8074H56.8604L58.2367 79.2463L59.2882 77.7937L59.2809 75.8074H58.5425V74.7831H61.1448V75.8074H60.2874V83.2029L61.1448 83.1995V84.0949H58.5044V83.1692H59.233L59.2485 79.5648L56.9436 83.1995H57.7572V84.0949H54.9479V83.1995H55.6892L57.587 80.2292L55.7288 75.8059H54.904L54.8998 74.7815H57.7885L57.7972 75.8074V75.8074Z" fill="#C8102E"/>
<path d="M5.20293 12.1927H6.13979L4.76347 8.75386L3.71189 10.2065L3.71926 12.1927H4.45769V13.2171H1.85525V12.1927H2.71274V4.79726L1.85525 4.80065V3.90527H4.49579V4.83096H3.76715L3.75165 8.4354L6.05649 4.80065H5.24296V3.90527H8.05224V4.80065H7.31092L5.41315 7.77096L7.27137 12.1943H8.09613L8.1004 13.2186H5.21168L5.20293 12.1928V12.1927Z" fill="#C8102E"/>
</svg>
