<svg width="63" height="88" viewBox="0 0 63 88" fill="none" xmlns="http://www.w3.org/2000/svg">
<g clip-path="url(#clip0)">
<path d="M59.9867 0H3.01344C1.34915 0 0 1.34745 0 3.00962V84.9904C0 86.6526 1.34915 88 3.01344 88H59.9867C61.651 88 63.0001 86.6526 63.0001 84.9904V3.00962C63.0001 1.34745 61.651 0 59.9867 0Z" fill="white"/>
<path d="M46.1086 9.34457C43.3376 9.40468 42.0951 12.5205 44.1473 14.9401C44.4449 15.2931 44.4757 15.4956 43.9306 15.1566C42.5489 14.2338 39.8995 14.8404 39.7639 17.6615C39.5963 21.1374 44.4593 22.1389 45.3724 18.4428C45.4206 18.0528 45.7379 18.0618 45.6614 18.6153C45.5781 20.1177 45.1083 21.5219 44.4626 22.8912C45.5509 22.8912 46.7672 22.8912 47.7568 22.8912C47.1111 21.5219 46.6413 20.1177 46.558 18.6153C46.4815 18.0618 46.7989 18.0528 46.8471 18.4428C47.7601 22.1389 52.6231 21.1374 52.4555 17.6615C52.3199 14.8404 49.6705 14.2338 48.2889 15.1566C47.7438 15.4956 47.7745 15.2931 48.0721 14.9401C50.1243 12.5205 48.8818 9.40468 46.1109 9.34457C46.1109 9.34457 46.1109 9.3446 46.108 9.34457H46.1086Z" fill="black"/>
<path d="M16.8893 9.34457C14.1184 9.40468 12.8758 12.5205 14.928 14.9401C15.2257 15.2931 15.2564 15.4956 14.7113 15.1566C13.3297 14.2338 10.6803 14.8404 10.5446 17.6615C10.3771 21.1374 15.2401 22.1389 16.1531 18.4428C16.2014 18.0528 16.5186 18.0618 16.4422 18.6153C16.3589 20.1177 15.8891 21.5219 15.2434 22.8912C16.3317 22.8912 17.548 22.8912 18.5375 22.8912C17.8918 21.5219 17.4221 20.1177 17.3388 18.6153C17.2623 18.0618 17.5796 18.0528 17.6278 18.4428C18.5409 22.1389 23.4038 21.1374 23.2362 17.6615C23.1006 14.8404 20.4513 14.2338 19.0696 15.1566C18.5245 15.4956 18.5552 15.2931 18.8528 14.9401C20.905 12.5205 19.6625 9.40468 16.8916 9.34457C16.8916 9.34457 16.8916 9.3446 16.8888 9.34457H16.8893Z" fill="black"/>
<path d="M46.1086 78.8902C43.3376 78.8301 42.0951 75.7142 44.1473 73.2946C44.4449 72.9417 44.4757 72.7391 43.9306 73.0782C42.5489 74.0009 39.8995 73.3943 39.7639 70.5732C39.5963 67.0973 44.4593 66.0958 45.3724 69.7919C45.4206 70.1819 45.7379 70.173 45.6614 69.6194C45.5781 68.117 45.1083 66.7128 44.4626 65.3435C45.5509 65.3435 46.7672 65.3435 47.7568 65.3435C47.1111 66.7128 46.6413 68.117 46.558 69.6194C46.4815 70.173 46.7989 70.1819 46.8471 69.7919C47.7601 66.0958 52.6231 67.0973 52.4555 70.5732C52.3199 73.3943 49.6705 74.0009 48.2889 73.0782C47.7438 72.7391 47.7745 72.9417 48.0721 73.2946C50.1243 75.7142 48.8818 78.8301 46.1109 78.8902C46.1109 78.8902 46.1109 78.8901 46.108 78.8902H46.1086Z" fill="black"/>
<path d="M16.8893 78.8902C14.1184 78.8301 12.8758 75.7142 14.928 73.2946C15.2257 72.9417 15.2564 72.7391 14.7113 73.0782C13.3297 74.0009 10.6803 73.3943 10.5446 70.5732C10.3771 67.0973 15.2401 66.0958 16.1531 69.7919C16.2014 70.1819 16.5186 70.173 16.4422 69.6194C16.3589 68.117 15.8891 66.7128 15.2434 65.3435C16.3317 65.3435 17.548 65.3435 18.5375 65.3435C17.8918 66.7128 17.4221 68.117 17.3388 69.6194C17.2623 70.173 17.5796 70.1819 17.6278 69.7919C18.5409 66.0958 23.4038 67.0973 23.2362 70.5732C23.1006 73.3943 20.4513 74.0009 19.0696 73.0782C18.5245 72.7391 18.5552 72.9417 18.8528 73.2946C20.905 75.7142 19.6625 78.8301 16.8916 78.8902C16.8916 78.8902 16.8916 78.8901 16.8888 78.8902H16.8893Z" fill="black"/>
<path d="M31.499 18.6778C28.728 18.7379 27.4855 21.8537 29.5377 24.2733C29.8353 24.6263 29.866 24.8288 29.321 24.4898C27.9393 23.567 25.2899 24.1737 25.1543 26.9947C24.9867 30.4707 29.8497 31.4722 30.7628 27.776C30.811 27.3861 31.1282 27.395 31.0517 27.9485C30.9685 29.4509 30.4987 30.8551 29.853 32.2245C30.9413 32.2245 32.1576 32.2245 33.1471 32.2245C32.5014 30.8551 32.0317 29.4509 31.9484 27.9485C31.8719 27.395 32.1892 27.3861 32.2374 27.776C33.1505 31.4722 38.0134 30.4707 37.8459 26.9947C37.7102 24.1737 35.0609 23.567 33.6792 24.4898C33.1341 24.8288 33.1648 24.6263 33.4625 24.2733C35.5146 21.8537 34.2722 18.7379 31.5012 18.6778C31.5012 18.6778 31.5012 18.6778 31.4984 18.6778H31.499Z" fill="black"/>
<path d="M31.499 69.557C28.728 69.4969 27.4855 66.3811 29.5377 63.9615C29.8353 63.6085 29.866 63.406 29.321 63.745C27.9393 64.6678 25.2899 64.0612 25.1543 61.2401C24.9867 57.7641 29.8497 56.7626 30.7628 60.4588C30.811 60.8487 31.1283 60.8398 31.0518 60.2863C30.9685 58.7839 30.4987 57.3797 29.853 56.0103C30.9413 56.0103 32.1576 56.0103 33.1471 56.0103C32.5014 57.3797 32.0317 58.7839 31.9484 60.2863C31.8719 60.8398 32.1892 60.8487 32.2374 60.4588C33.1505 56.7626 38.0135 57.7641 37.8459 61.2401C37.7102 64.0612 35.0609 64.6678 33.6792 63.745C33.1341 63.406 33.1649 63.6085 33.4625 63.9615C35.5147 66.3811 34.2722 69.4969 31.5012 69.557C31.5012 69.557 31.5012 69.557 31.4984 69.557H31.499Z" fill="black"/>
<path d="M58.1417 73.8965C59.2501 73.8714 59.7471 72.5732 58.9262 71.565C58.8071 71.418 58.7948 71.3336 59.0129 71.4748C59.5656 71.8593 60.6253 71.6065 60.6796 70.4311C60.7466 68.9828 58.8014 68.5655 58.4362 70.1055C58.4169 70.268 58.29 70.2643 58.3206 70.0337C58.3539 69.4077 58.5418 68.8226 58.8001 68.252C58.3609 68.252 57.9217 68.252 57.4825 68.252C57.7408 68.8226 57.9287 69.4077 57.962 70.0337C57.9926 70.2643 57.8656 70.268 57.8463 70.1055C57.4811 68.5655 55.536 68.9828 55.603 70.4311C55.6573 71.6065 56.7169 71.8593 57.2696 71.4748C57.4877 71.3336 57.4754 71.418 57.3563 71.565C56.5354 72.5732 57.0325 73.8714 58.1408 73.8965C58.1411 73.8965 58.1408 73.8965 58.1408 73.8965H58.1417Z" fill="black"/>
<path d="M16.8893 28.0109C14.1184 28.071 12.8759 31.1868 14.928 33.6064C15.2257 33.9593 15.2564 34.1619 14.7113 33.8229C13.3297 32.9001 10.6803 33.5067 10.5446 36.3278C10.3771 39.8037 15.2401 40.8052 16.1531 37.1091C16.2014 36.7192 16.5186 36.7281 16.4422 37.2816C16.3589 38.784 15.8891 40.1882 15.2434 41.5576C16.3317 41.5576 17.548 41.5576 18.5375 41.5576C17.8918 40.1882 17.4221 38.784 17.3388 37.2816C17.2623 36.7281 17.5796 36.7192 17.6278 37.1091C18.5409 40.8052 23.4038 39.8037 23.2362 36.3278C23.1006 33.5067 20.4513 32.9001 19.0696 33.8229C18.5245 34.1619 18.5552 33.9593 18.8528 33.6064C20.905 31.1868 19.6625 28.071 16.8916 28.0109C16.8916 28.0109 16.8916 28.0109 16.8888 28.0109H16.8893Z" fill="black"/>
<path d="M16.8893 60.2238C14.1184 60.1638 12.8758 57.0479 14.928 54.6283C15.2257 54.2754 15.2564 54.0728 14.7113 54.4118C13.3297 55.3346 10.6803 54.728 10.5446 51.9069C10.3771 48.431 15.2401 47.4295 16.1531 51.1256C16.2014 51.5156 16.5186 51.5067 16.4422 50.9531C16.3589 49.4507 15.8891 48.0465 15.2434 46.6772C16.3317 46.6772 17.548 46.6772 18.5375 46.6772C17.8918 48.0465 17.4221 49.4507 17.3388 50.9531C17.2623 51.5067 17.5796 51.5156 17.6278 51.1256C18.5409 47.4295 23.4038 48.431 23.2362 51.9069C23.1006 54.728 20.4513 55.3346 19.0696 54.4118C18.5245 54.0728 18.5552 54.2754 18.8528 54.6283C20.905 57.0479 19.6625 60.1637 16.8916 60.2238C16.8916 60.2239 16.8916 60.2238 16.8888 60.2238H16.8893Z" fill="black"/>
<path d="M46.1086 28.0109C43.3376 28.071 42.0951 31.1868 44.1473 33.6064C44.4449 33.9593 44.4757 34.1619 43.9306 33.8229C42.5489 32.9001 39.8995 33.5067 39.7639 36.3278C39.5963 39.8037 44.4593 40.8052 45.3724 37.1091C45.4206 36.7192 45.7379 36.7281 45.6614 37.2816C45.5781 38.784 45.1083 40.1882 44.4626 41.5576C45.5509 41.5576 46.7672 41.5576 47.7568 41.5576C47.1111 40.1882 46.6413 38.784 46.558 37.2816C46.4815 36.7281 46.7989 36.7192 46.8471 37.1091C47.7601 40.8052 52.6231 39.8037 52.4555 36.3278C52.3199 33.5067 49.6705 32.9001 48.2889 33.8229C47.7438 34.1619 47.7745 33.9593 48.0721 33.6064C50.1243 31.1868 48.8818 28.071 46.1109 28.0109C46.1109 28.0109 46.1109 28.0109 46.108 28.0109H46.1086Z" fill="black"/>
<path d="M46.1086 60.2238C43.3376 60.1638 42.0951 57.0479 44.1473 54.6283C44.4449 54.2754 44.4757 54.0728 43.9306 54.4118C42.5489 55.3346 39.8995 54.728 39.7639 51.9069C39.5963 48.431 44.4593 47.4295 45.3724 51.1256C45.4206 51.5156 45.7379 51.5067 45.6614 50.9531C45.5781 49.4507 45.1083 48.0465 44.4626 46.6772C45.5509 46.6772 46.7672 46.6772 47.7568 46.6772C47.1111 48.0465 46.6413 49.4507 46.558 50.9531C46.4815 51.5067 46.7989 51.5156 46.8471 51.1256C47.7601 47.4295 52.6231 48.431 52.4555 51.9069C52.3199 54.728 49.6705 55.3346 48.2889 54.4118C47.7438 54.0728 47.7745 54.2754 48.0721 54.6283C50.1243 57.0479 48.8818 60.1637 46.1109 60.2238C46.1109 60.2239 46.1109 60.2238 46.108 60.2238H46.1086Z" fill="black"/>
<path d="M4.85874 14.1036C3.75036 14.1285 3.25337 15.4269 4.07423 16.4351C4.1933 16.5821 4.20554 16.6665 3.98751 16.5252C3.43482 16.1407 2.3751 16.3935 2.32085 17.569C2.2538 19.0173 4.199 19.4346 4.56425 17.8945C4.58352 17.732 4.71047 17.7357 4.67983 17.9664C4.64655 18.5924 4.45862 19.1775 4.20034 19.748C4.63954 19.748 5.07877 19.748 5.51797 19.748C5.25969 19.1775 5.07176 18.5924 5.03848 17.9664C5.00786 17.7357 5.13478 17.732 5.15406 17.8945C5.51931 19.4346 7.46448 19.0173 7.39746 17.569C7.34318 16.3935 6.28348 16.1407 5.7308 16.5252C5.51277 16.6665 5.52501 16.5821 5.64408 16.4351C6.46494 15.4269 5.96792 14.1286 4.85957 14.1036C4.85929 14.1036 4.85957 14.1036 4.85957 14.1036H4.85874Z" fill="black"/>
<path d="M2.03119 13.2186V3.90549H2.93398V13.2186H2.03119Z" fill="black"/>
<path d="M5.61004 3.9053C4.74098 3.9053 4.04248 4.69911 4.04248 5.68505V11.4391C4.04248 12.4251 4.74135 13.2185 5.61004 13.2185H6.11728C6.98632 13.2185 7.68623 12.4251 7.68623 11.4391V5.68505C7.68623 4.69911 6.98595 3.9053 6.11728 3.9053H5.61004ZM5.87235 4.78593C6.38543 4.78593 6.79797 5.17946 6.79797 5.67171V11.502C6.79797 11.9942 6.38543 12.3914 5.87235 12.3914C5.35929 12.3914 4.94527 11.9942 4.94527 11.502V5.67171C4.94527 5.17983 5.35929 4.78593 5.87235 4.78593Z" fill="black"/>
<path d="M60.9684 74.7814V84.0946H60.0656V74.7814H60.9684Z" fill="black"/>
<path d="M57.3896 84.0947C58.2586 84.0947 58.9571 83.301 58.9571 82.315V76.5609C58.9571 75.575 58.2583 74.7816 57.3896 74.7816H56.8823C56.0133 74.7816 55.3134 75.575 55.3134 76.5609V82.315C55.3134 83.301 56.0136 84.0947 56.8823 84.0947H57.3896ZM57.1272 83.2141C56.6141 83.2141 56.2016 82.8206 56.2016 82.3283V76.4981C56.2016 76.0059 56.6141 75.6086 57.1272 75.6086C57.6403 75.6086 58.0544 76.0059 58.0544 76.4981V82.3283C58.0544 82.8202 57.6403 83.2141 57.1272 83.2141Z" fill="black"/>
</g>
<defs>
<clipPath id="clip0">
<rect width="63.0001" height="88" fill="white"/>
</clipPath>
</defs>
</svg>
