<svg width="63" height="88" viewBox="0 0 63 88" fill="none" xmlns="http://www.w3.org/2000/svg">
<g clip-path="url(#clip0)">
<path d="M59.9867 0H3.01346C1.34917 0 0 1.34745 0 3.00963V84.9907C0 86.6528 1.34917 88.0003 3.01346 88.0003H59.9867C61.651 88.0003 63.0002 86.6528 63.0002 84.9907V3.00963C63.0002 1.34745 61.651 0 59.9867 0Z" fill="white"/>
<path d="M4.85864 19.7482C4.24879 18.7411 3.60715 17.7622 2.80536 16.926C3.60715 16.0898 4.24879 15.1109 4.85864 14.1038C5.4685 15.1109 6.1101 16.0898 6.91193 16.926C6.1101 17.7622 5.4685 18.7411 4.85864 19.7482Z" fill="#C8102E"/>
<path d="M46.1093 22.7741C44.6456 20.3569 43.1057 18.0076 41.1813 16.0008C43.1057 13.9939 44.6456 11.6446 46.1093 9.22741C47.5729 11.6446 49.1128 13.9939 51.0371 16.0008C49.1128 18.0076 47.5729 20.3569 46.1093 22.7741Z" fill="#C8102E"/>
<path d="M58.1408 73.8968C57.531 72.8897 56.8893 71.9108 56.0875 71.0746C56.8893 70.2384 57.531 69.2595 58.1408 68.2524C58.7507 69.2595 59.3923 70.2384 60.1941 71.0746C59.3923 71.9108 58.7507 72.8897 58.1408 73.8968Z" fill="#C8102E"/>
<path d="M16.8899 22.7741C15.4263 20.3569 13.8864 18.0076 11.962 16.0008C13.8864 13.9939 15.4263 11.6446 16.8899 9.22741C18.3536 11.6446 19.8935 13.9939 21.8178 16.0008C19.8935 18.0076 18.3536 20.3569 16.8899 22.7741Z" fill="#C8102E"/>
<path d="M46.1093 41.4425C44.6456 39.0253 43.1057 36.676 41.1813 34.6691C43.1057 32.6623 44.6456 30.313 46.1093 27.8957C47.5729 30.313 49.1128 32.6623 51.0371 34.6691C49.1128 36.676 47.5729 39.0253 46.1093 41.4425Z" fill="#C8102E"/>
<path d="M16.8899 41.4425C15.4263 39.0253 13.8864 36.676 11.962 34.6691C13.8864 32.6623 15.4263 30.313 16.8899 27.8958C18.3536 30.313 19.8935 32.6623 21.8178 34.6691C19.8935 36.676 18.3536 39.0253 16.8899 41.4425Z" fill="#C8102E"/>
<path d="M31.4996 32.1073C30.0359 29.6901 28.4961 27.3408 26.5717 25.3339C28.4961 23.3271 30.0359 20.9778 31.4996 18.5606C32.9633 20.9778 34.5031 23.3271 36.4275 25.3339C34.5031 27.3408 32.9633 29.6901 31.4996 32.1073Z" fill="#C8102E"/>
<path d="M16.8899 78.7746C15.4263 76.3574 13.8864 74.0081 11.962 72.0012C13.8864 69.9944 15.4263 67.6451 16.8899 65.2279C18.3536 67.6451 19.8935 69.9944 21.8178 72.0012C19.8935 74.0081 18.3536 76.3574 16.8899 78.7746Z" fill="#C8102E"/>
<path d="M46.1093 78.7766C44.6456 76.3594 43.1057 74.0101 41.1813 72.0032C43.1057 69.9964 44.6456 67.6471 46.1093 65.2299C47.5729 67.6471 49.1128 69.9964 51.0371 72.0032C49.1128 74.0101 47.5729 76.3594 46.1093 78.7766Z" fill="#C8102E"/>
<path d="M46.1093 60.1064C44.6456 57.6893 43.1057 55.34 41.1813 53.3331C43.1057 51.3263 44.6456 48.977 46.1093 46.5597C47.5729 48.977 49.1128 51.3263 51.0371 53.3331C49.1128 55.34 47.5729 57.6893 46.1093 60.1064Z" fill="#C8102E"/>
<path d="M16.8899 60.0974C15.4263 57.6802 13.8864 55.3309 11.962 53.324C13.8864 51.3172 15.4263 48.9679 16.8899 46.5507C18.3536 48.9679 19.8935 51.3172 21.8178 53.324C19.8935 55.3309 18.3536 57.6802 16.8899 60.0974Z" fill="#C8102E"/>
<path d="M31.4996 69.44C30.0359 67.0228 28.4961 64.6735 26.5717 62.6667C28.4961 60.6598 30.0359 58.3105 31.4996 55.8933C32.9633 58.3105 34.5031 60.6598 36.4275 62.6667C34.5031 64.6735 32.9633 67.0228 31.4996 69.44Z" fill="#C8102E"/>
<path d="M2.03192 13.2188V3.90562H2.93471V13.2188H2.03192Z" fill="#C8102E"/>
<path d="M5.61077 3.90542C4.74172 3.90542 4.04324 4.69919 4.04324 5.68512V11.4392C4.04324 12.4252 4.74208 13.2186 5.61077 13.2186H6.11802C6.98705 13.2186 7.68699 12.4252 7.68699 11.4392V5.68512C7.68699 4.69919 6.98668 3.90542 6.11802 3.90542H5.61077ZM5.87308 4.78604C6.38616 4.78604 6.79871 5.1796 6.79871 5.67183V11.5021C6.79871 11.9943 6.38616 12.3916 5.87308 12.3916C5.36002 12.3916 4.946 11.9943 4.946 11.5021V5.67183C4.946 5.17997 5.36002 4.78604 5.87308 4.78604Z" fill="#C8102E"/>
<path d="M60.967 74.7817V84.0949H60.0643V74.7817H60.967Z" fill="#C8102E"/>
<path d="M57.3882 84.0951C58.2572 84.0951 58.9557 83.3013 58.9557 82.3154V76.5613C58.9557 75.5753 58.2569 74.7819 57.3882 74.7819H56.8809C56.0119 74.7819 55.312 75.5753 55.312 76.5613V82.3154C55.312 83.3013 56.0123 84.0951 56.8809 84.0951H57.3882ZM57.1259 83.2145C56.6128 83.2145 56.2003 82.8209 56.2003 82.3287V76.4984C56.2003 76.0062 56.6128 75.6089 57.1259 75.6089C57.6389 75.6089 58.053 76.0062 58.053 76.4984V82.3287C58.053 82.8205 57.6389 83.2145 57.1259 83.2145Z" fill="#C8102E"/>
</g>
<defs>
<clipPath id="clip0">
<rect width="63.0002" height="88.0003" fill="white"/>
</clipPath>
</defs>
</svg>
