<svg width="63" height="88" viewBox="0 0 63 88" fill="none" xmlns="http://www.w3.org/2000/svg">
<path d="M59.9867 3.05176e-05H3.01345C1.34917 3.05176e-05 0 1.34749 0 3.00967V84.9907C0 86.6529 1.34917 88.0003 3.01345 88.0003H59.9867C61.651 88.0003 63.0002 86.6529 63.0002 84.9907V3.00967C63.0002 1.34749 61.651 3.05176e-05 59.9867 3.05176e-05Z" fill="white"/>
<path d="M16.8912 41.4414C16.8912 41.4414 15.5743 39.2809 13.7978 36.7406C12.6094 35.0407 11.6592 33.2001 11.5709 31.6146C11.4696 29.8035 12.4286 27.9865 14.1649 27.8985C15.9002 27.8104 16.6045 29.2949 16.8912 30.5188C17.178 29.2949 17.8823 27.8104 19.6175 27.8985C21.3538 27.9865 22.3129 29.8035 22.2116 31.6146C22.1232 33.2001 21.1731 35.0407 19.9847 36.7406C18.2082 39.2809 16.8912 41.4414 16.8912 41.4414V41.4414Z" fill="#C8102E"/>
<path d="M4.8599 19.7492C4.8599 19.7492 4.23203 18.849 3.38508 17.7905C2.81846 17.0822 2.3655 16.3153 2.32336 15.6547C2.27507 14.9001 2.7323 14.143 3.56009 14.1063C4.3874 14.0696 4.72319 14.6881 4.8599 15.1981C4.99661 14.6881 5.33242 14.0696 6.1597 14.1063C6.98749 14.143 7.44475 14.9001 7.39643 15.6547C7.35432 16.3153 6.90133 17.0822 6.33474 17.7905C5.48776 18.849 4.8599 19.7492 4.8599 19.7492V19.7492Z" fill="#C8102E"/>
<path d="M58.1421 68.2534C58.1421 68.2534 57.5142 69.1536 56.6672 70.212C56.1006 70.9203 55.6477 71.6873 55.6055 72.3479C55.5572 73.1025 56.0145 73.8596 56.8423 73.8963C57.6696 73.9329 58.0054 73.3144 58.1421 72.8045C58.2788 73.3144 58.6146 73.9329 59.4419 73.8963C60.2697 73.8596 60.7269 73.1025 60.6786 72.3479C60.6365 71.6873 60.1835 70.9203 59.6169 70.212C58.7699 69.1536 58.1421 68.2534 58.1421 68.2534V68.2534Z" fill="#C8102E"/>
<path d="M31.5008 34.8092C31.5008 34.8092 30.1839 32.6486 28.4074 30.1084C27.219 28.4085 26.2688 26.5678 26.1805 24.9824C26.0792 23.1712 27.0382 21.3543 28.7745 21.2662C30.5098 21.1782 31.2141 22.6627 31.5008 23.8865C31.7876 22.6627 32.4919 21.1782 34.2272 21.2662C35.9635 21.3543 36.9225 23.1712 36.8212 24.9824C36.7329 26.5678 35.7827 28.4085 34.5943 30.1084C32.8178 32.6486 31.5008 34.8092 31.5008 34.8092V34.8092Z" fill="#C8102E"/>
<path d="M16.8912 22.775C16.8912 22.775 15.5743 20.6145 13.7978 18.0743C12.6094 16.3744 11.6592 14.5337 11.5709 12.9482C11.4696 11.1371 12.4286 9.32013 14.1649 9.23207C15.9002 9.14406 16.6045 10.6285 16.8912 11.8524C17.178 10.6285 17.8823 9.14406 19.6175 9.23207C21.3538 9.32013 22.3129 11.1371 22.2116 12.9482C22.1232 14.5337 21.1731 16.3744 19.9847 18.0743C18.2082 20.6145 16.8912 22.775 16.8912 22.775Z" fill="#C8102E"/>
<path d="M46.1105 41.4414C46.1105 41.4414 44.7936 39.2809 43.0171 36.7406C41.8287 35.0407 40.8785 33.2001 40.7902 31.6146C40.6889 29.8035 41.6479 27.9865 43.3842 27.8985C45.1195 27.8104 45.8238 29.2949 46.1105 30.5188C46.3973 29.2949 47.1016 27.8104 48.8368 27.8985C50.5731 27.9865 51.5322 29.8035 51.4309 31.6146C51.3425 33.2001 50.3924 35.0407 49.204 36.7406C47.4275 39.2809 46.1105 41.4414 46.1105 41.4414V41.4414Z" fill="#C8102E"/>
<path d="M46.1105 22.775C46.1105 22.775 44.7936 20.6145 43.0171 18.0743C41.8287 16.3744 40.8785 14.5337 40.7902 12.9482C40.6889 11.1371 41.6479 9.32013 43.3842 9.23207C45.1195 9.14406 45.8238 10.6285 46.1105 11.8524C46.3973 10.6285 47.1016 9.14406 48.8368 9.23207C50.5731 9.32013 51.5322 11.1371 51.4309 12.9482C51.3425 14.5337 50.3924 16.3744 49.204 18.0743C47.4275 20.6145 46.1105 22.775 46.1105 22.775Z" fill="#C8102E"/>
<path d="M31.5008 53.1933C31.5008 53.1933 30.1839 55.3539 28.4074 57.8941C27.219 59.594 26.2688 61.4347 26.1805 63.0202C26.0792 64.8313 27.0382 66.6482 28.7745 66.7363C30.5098 66.8243 31.2141 65.3399 31.5008 64.116C31.7876 65.3399 32.4919 66.8243 34.2272 66.7363C35.9635 66.6482 36.9225 64.8313 36.8212 63.0202C36.7329 61.4347 35.7827 59.594 34.5943 57.8941C32.8178 55.3539 31.5008 53.1933 31.5008 53.1933Z" fill="#C8102E"/>
<path d="M46.1105 46.5611C46.1105 46.5611 44.7936 48.7216 43.0171 51.2619C41.8287 52.9618 40.8785 54.8024 40.7902 56.3879C40.6889 58.199 41.6479 60.016 43.3842 60.1041C45.1195 60.1921 45.8238 58.7076 46.1105 57.4837C46.3973 58.7076 47.1016 60.1921 48.8368 60.1041C50.5731 60.016 51.5322 58.199 51.4309 56.3879C51.3425 54.8024 50.3924 52.9618 49.204 51.2619C47.4275 48.7216 46.1105 46.5611 46.1105 46.5611Z" fill="#C8102E"/>
<path d="M16.8912 46.5611C16.8912 46.5611 15.5743 48.7216 13.7978 51.2619C12.6094 52.9618 11.6592 54.8024 11.5709 56.3879C11.4696 58.199 12.4286 60.016 14.1649 60.1041C15.9002 60.1921 16.6045 58.7076 16.8912 57.4837C17.178 58.7076 17.8823 60.1921 19.6175 60.1041C21.3538 60.016 22.3129 58.199 22.2116 56.3879C22.1232 54.8024 21.1731 52.9618 19.9847 51.2619C18.2082 48.7216 16.8912 46.5611 16.8912 46.5611Z" fill="#C8102E"/>
<path d="M46.1105 65.2274C46.1105 65.2274 44.7936 67.388 43.0171 69.9282C41.8287 71.6281 40.8785 73.4688 40.7902 75.0543C40.6889 76.8654 41.6479 78.6824 43.3842 78.7704C45.1195 78.8584 45.8238 77.374 46.1105 76.1501C46.3973 77.374 47.1016 78.8584 48.8368 78.7704C50.5731 78.6824 51.5322 76.8654 51.4309 75.0543C51.3425 73.4688 50.3924 71.6281 49.204 69.9282C47.4275 67.388 46.1105 65.2274 46.1105 65.2274V65.2274Z" fill="#C8102E"/>
<path d="M16.8912 65.2274C16.8912 65.2274 15.5743 67.388 13.7978 69.9282C12.6094 71.6281 11.6592 73.4688 11.5709 75.0543C11.4696 76.8654 12.4286 78.6824 14.1649 78.7704C15.9002 78.8584 16.6045 77.374 16.8912 76.1501C17.178 77.374 17.8823 78.8584 19.6175 78.7704C21.3538 78.6824 22.3129 76.8654 22.2116 75.0543C22.1232 73.4688 21.1731 71.6281 19.9847 69.9282C18.2082 67.388 16.8912 65.2274 16.8912 65.2274V65.2274Z" fill="#C8102E"/>
<path d="M2.03186 13.2202V3.90701H2.93465V13.2202H2.03186Z" fill="#C8102E"/>
<path d="M5.61068 3.90683C4.74163 3.90683 4.04315 4.7006 4.04315 5.68654V11.4407C4.04315 12.4266 4.74199 13.22 5.61068 13.22H6.11793C6.98695 13.22 7.6869 12.4266 7.6869 11.4407V5.68654C7.6869 4.7006 6.98659 3.90683 6.11793 3.90683H5.61068ZM5.87299 4.78745C6.38607 4.78745 6.79862 5.18101 6.79862 5.67324V11.5035C6.79862 11.9957 6.38607 12.393 5.87299 12.393C5.35993 12.393 4.94591 11.9957 4.94591 11.5035V5.67324C4.94591 5.18138 5.35993 4.78745 5.87299 4.78745Z" fill="#C8102E"/>
<path d="M60.9691 74.7829V84.0961H60.0663V74.7829H60.9691Z" fill="#C8102E"/>
<path d="M57.3903 84.0963C58.2593 84.0963 58.9578 83.3025 58.9578 82.3166V76.5625C58.9578 75.5765 58.259 74.7831 57.3903 74.7831H56.883C56.014 74.7831 55.314 75.5765 55.314 76.5625V82.3166C55.314 83.3025 56.0144 84.0963 56.883 84.0963H57.3903ZM57.128 83.2157C56.6149 83.2157 56.2023 82.8221 56.2023 82.3299V76.4996C56.2023 76.0074 56.6149 75.6101 57.128 75.6101C57.641 75.6101 58.055 76.0074 58.055 76.4996V82.3299C58.055 82.8217 57.641 83.2157 57.128 83.2157Z" fill="#C8102E"/>
</svg>
