<svg width="63" height="88" viewBox="0 0 63 88" fill="none" xmlns="http://www.w3.org/2000/svg">
<g clip-path="url(#clip0)">
<path d="M59.9867 1.52588e-05H3.01343C1.34915 1.52588e-05 0 1.34748 0 3.00965V84.9907C0 86.6528 1.34915 88.0003 3.01343 88.0003H59.9867C61.651 88.0003 63.0002 86.6528 63.0002 84.9907V3.00965C63.0002 1.34748 61.651 1.52588e-05 59.9867 1.52588e-05Z" fill="white"/>
<path d="M16.8904 9.22726C14.2866 12.9405 11.5006 15.0773 11.4543 17.9743C11.4388 18.9124 11.946 20.5068 13.5346 20.812C14.5653 21.0091 15.9844 20.1749 16.014 18.4801C16.0095 18.1427 16.3713 18.1515 16.3679 18.6138C16.3193 19.9506 15.8962 21.507 15.185 22.774C16.322 22.774 17.4589 22.774 18.5959 22.774C17.8847 21.507 17.4615 19.9506 17.413 18.6138C17.4096 18.1515 17.7714 18.1427 17.7669 18.4801C17.7965 20.1749 19.2156 21.0091 20.2462 20.812C21.8349 20.5068 22.342 18.9124 22.3265 17.9743C22.2802 15.0773 19.4942 12.9405 16.8904 9.22726V9.22726Z" fill="black"/>
<path d="M4.85913 14.1036C3.64258 15.6508 2.34087 16.5412 2.31926 17.7482C2.31192 18.1391 2.54894 18.8034 3.29119 18.9306C3.77275 19.0127 4.43578 18.6651 4.44964 17.959C4.44682 17.8184 4.61652 17.822 4.61494 18.0147C4.59236 18.5717 4.39456 19.2202 4.06227 19.7481C4.5935 19.7481 5.12468 19.7481 5.65591 19.7481C5.32362 19.2202 5.12591 18.5717 5.10325 18.0147C5.10042 17.822 5.27073 17.8184 5.26861 17.959C5.28244 18.6651 5.94544 19.0127 6.42699 18.9306C7.16924 18.8034 7.40618 18.1391 7.39893 17.7482C7.3772 16.5412 6.07565 15.6508 4.85913 14.1036V14.1036Z" fill="black"/>
<path d="M16.8904 60.1067C14.2866 56.3934 11.5006 54.2566 11.4543 51.3597C11.4388 50.4216 11.946 48.8272 13.5346 48.522C14.5653 48.3249 15.9844 49.1591 16.014 50.8538C16.0095 51.1913 16.3713 51.1825 16.3679 50.7201C16.3193 49.3833 15.8962 47.8269 15.185 46.56C16.322 46.56 17.4589 46.56 18.5959 46.56C17.8847 47.8269 17.4615 49.3833 17.413 50.7201C17.4096 51.1825 17.7714 51.1913 17.7669 50.8538C17.7965 49.1591 19.2156 48.3249 20.2462 48.522C21.8349 48.8272 22.342 50.4216 22.3265 51.3597C22.2802 54.2566 19.4942 56.3934 16.8904 60.1067V60.1067Z" fill="black"/>
<path d="M58.1413 73.8967C56.9247 72.3495 55.623 71.4592 55.6014 70.2521C55.5941 69.8613 55.8312 69.1969 56.5734 69.0698C57.055 68.9876 57.7179 69.3352 57.7318 70.0414C57.729 70.182 57.8988 70.1783 57.8972 69.9857C57.8746 69.4287 57.6767 68.7801 57.3444 68.2523C57.8757 68.2523 58.4069 68.2523 58.9381 68.2523C58.6059 68.7801 58.4081 69.4287 58.3854 69.9857C58.3826 70.1783 58.5529 70.182 58.5508 70.0414C58.5646 69.3352 59.2276 68.9876 59.7092 69.0698C60.4514 69.1969 60.6884 69.8613 60.6812 70.2521C60.6594 71.4592 59.3578 72.3495 58.1413 73.8967V73.8967Z" fill="black"/>
<path d="M46.1098 9.22726C43.506 12.9405 40.72 15.0773 40.6737 17.9743C40.6582 18.9124 41.1653 20.5068 42.754 20.812C43.7847 21.0091 45.2036 20.1749 45.2333 18.4801C45.2288 18.1427 45.5905 18.1515 45.5872 18.6138C45.5386 19.9506 45.1155 21.507 44.4043 22.774C45.5412 22.774 46.6783 22.774 47.8153 22.774C47.104 21.507 46.6809 19.9506 46.6323 18.6138C46.629 18.1515 46.9907 18.1427 46.9862 18.4801C47.0159 20.1749 48.4348 21.0091 49.4655 20.812C51.0542 20.5068 51.5614 18.9124 51.5459 17.9743C51.4996 15.0773 48.7136 12.9405 46.1098 9.22726V9.22726Z" fill="black"/>
<path d="M16.8904 27.8936C14.2866 31.6069 11.5006 33.7437 11.4543 36.6407C11.4388 37.5787 11.946 39.1732 13.5346 39.4783C14.5653 39.6754 15.9844 38.8412 16.014 37.1465C16.0095 36.8091 16.3713 36.8178 16.3679 37.2802C16.3193 38.617 15.8962 40.1734 15.185 41.4403C16.322 41.4403 17.4589 41.4403 18.5959 41.4403C17.8847 40.1734 17.4615 38.617 17.413 37.2802C17.4096 36.8178 17.7714 36.8091 17.7669 37.1465C17.7965 38.8412 19.2156 39.6754 20.2462 39.4783C21.8349 39.1732 22.342 37.5787 22.3265 36.6407C22.2802 33.7437 19.4942 31.6069 16.8904 27.8936V27.8936Z" fill="black"/>
<path d="M31.5 21.2614C28.8962 24.9746 26.1103 27.1115 26.064 30.0084C26.0485 30.9465 26.5557 32.5409 28.1443 32.8461C29.175 33.0432 30.594 32.209 30.6236 30.5142C30.6191 30.1768 30.9809 30.1856 30.9775 30.6479C30.9289 31.9847 30.5058 33.5411 29.7946 34.8081C30.9316 34.8081 32.0686 34.8081 33.2056 34.8081C32.4944 33.5411 32.0712 31.9847 32.0227 30.6479C32.0193 30.1856 32.3811 30.1768 32.3765 30.5142C32.4062 32.209 33.8252 33.0432 34.8558 32.8461C36.4445 32.5409 36.9517 30.9465 36.9361 30.0084C36.8899 27.1115 34.1038 24.9746 31.5 21.2614V21.2614Z" fill="black"/>
<path d="M46.1098 27.8936C43.506 31.6069 40.72 33.7437 40.6737 36.6407C40.6582 37.5787 41.1653 39.1732 42.754 39.4783C43.7847 39.6754 45.2036 38.8412 45.2333 37.1465C45.2288 36.8091 45.5905 36.8178 45.5872 37.2802C45.5386 38.617 45.1155 40.1734 44.4043 41.4403C45.5412 41.4403 46.6783 41.4403 47.8153 41.4403C47.104 40.1734 46.6809 38.617 46.6323 37.2802C46.629 36.8178 46.9907 36.8091 46.9862 37.1465C47.0159 38.8412 48.4348 39.6754 49.4655 39.4783C51.0542 39.1732 51.5614 37.5787 51.5459 36.6407C51.4996 33.7437 48.7136 31.6069 46.1098 27.8936V27.8936Z" fill="black"/>
<path d="M16.8904 78.773C14.2866 75.0598 11.5006 72.923 11.4543 70.026C11.4388 69.0879 11.946 67.4935 13.5346 67.1883C14.5653 66.9912 15.9844 67.8254 16.014 69.5202C16.0095 69.8576 16.3713 69.8488 16.3679 69.3865C16.3193 68.0497 15.8962 66.4933 15.185 65.2263C16.322 65.2263 17.4589 65.2263 18.5959 65.2263C17.8847 66.4933 17.4615 68.0497 17.413 69.3865C17.4096 69.8488 17.7714 69.8576 17.7669 69.5202C17.7965 67.8254 19.2156 66.9912 20.2462 67.1883C21.8349 67.4935 22.342 69.0879 22.3265 70.026C22.2802 72.923 19.4942 75.0598 16.8904 78.773V78.773Z" fill="black"/>
<path d="M46.1098 78.773C43.506 75.0598 40.72 72.923 40.6737 70.026C40.6582 69.0879 41.1653 67.4935 42.754 67.1883C43.7847 66.9912 45.2036 67.8254 45.2333 69.5202C45.2288 69.8576 45.5905 69.8488 45.5872 69.3865C45.5386 68.0497 45.1155 66.4933 44.4043 65.2263C45.5412 65.2263 46.6783 65.2263 47.8153 65.2263C47.104 66.4933 46.6809 68.0497 46.6323 69.3865C46.629 69.8488 46.9907 69.8576 46.9862 69.5202C47.0159 67.8254 48.4348 66.9912 49.4655 67.1883C51.0542 67.4935 51.5614 69.0879 51.5459 70.026C51.4996 72.923 48.7136 75.0598 46.1098 78.773V78.773Z" fill="black"/>
<path d="M31.5 66.7389C28.8962 63.0257 26.1103 60.8889 26.064 57.9919C26.0485 57.0538 26.5557 55.4594 28.1443 55.1542C29.175 54.9571 30.594 55.7913 30.6236 57.4861C30.6191 57.8235 30.9809 57.8147 30.9775 57.3524C30.9289 56.0156 30.5058 54.4592 29.7946 53.1922C30.9316 53.1922 32.0686 53.1922 33.2056 53.1922C32.4944 54.4592 32.0712 56.0156 32.0227 57.3524C32.0193 57.8147 32.3811 57.8235 32.3765 57.4861C32.4062 55.7913 33.8252 54.9571 34.8558 55.1542C36.4445 55.4594 36.9517 57.0538 36.9361 57.9919C36.8899 60.8889 34.1038 63.0257 31.5 66.7389V66.7389Z" fill="black"/>
<path d="M46.1098 60.1067C43.506 56.3934 40.72 54.2566 40.6737 51.3597C40.6582 50.4216 41.1653 48.8272 42.754 48.522C43.7847 48.3249 45.2036 49.1591 45.2333 50.8538C45.2288 51.1913 45.5905 51.1825 45.5872 50.7201C45.5386 49.3833 45.1155 47.8269 44.4043 46.56C45.5412 46.56 46.6783 46.56 47.8153 46.56C47.104 47.8269 46.6809 49.3833 46.6323 50.7201C46.629 51.1825 46.9907 51.1913 46.9862 50.8538C47.0159 49.1591 48.4348 48.3249 49.4655 48.522C51.0542 48.8272 51.5614 50.4216 51.5459 51.3597C51.4996 54.2566 48.7136 56.3934 46.1098 60.1067V60.1067Z" fill="black"/>
<path d="M2.03113 13.2187V3.90553H2.93388V13.2187H2.03113Z" fill="black"/>
<path d="M5.60994 3.90535C4.74089 3.90535 4.04242 4.69913 4.04242 5.68507V11.4392C4.04242 12.4251 4.74126 13.2185 5.60994 13.2185H6.1172C6.98622 13.2185 7.68617 12.4251 7.68617 11.4392V5.68507C7.68617 4.69913 6.98585 3.90535 6.1172 3.90535H5.60994ZM5.87225 4.78597C6.38533 4.78597 6.79788 5.17953 6.79788 5.67176V11.502C6.79788 11.9942 6.38533 12.3915 5.87225 12.3915C5.3592 12.3915 4.94518 11.9942 4.94518 11.502V5.67176C4.94518 5.1799 5.3592 4.78597 5.87225 4.78597Z" fill="black"/>
<path d="M60.9688 74.7816V84.0948H60.0659V74.7816H60.9688Z" fill="black"/>
<path d="M57.39 84.095C58.259 84.095 58.9575 83.3012 58.9575 82.3153V76.5612C58.9575 75.5752 58.2587 74.7818 57.39 74.7818H56.8827C56.0136 74.7818 55.3138 75.5752 55.3138 76.5612V82.3153C55.3138 83.3012 56.014 84.095 56.8827 84.095H57.39ZM57.1276 83.2144C56.6145 83.2144 56.202 82.8208 56.202 82.3286V76.4983C56.202 76.0061 56.6145 75.6089 57.1276 75.6089C57.6407 75.6089 58.0547 76.0061 58.0547 76.4983V82.3286C58.0547 82.8204 57.6407 83.2144 57.1276 83.2144Z" fill="black"/>
</g>
<defs>
<clipPath id="clip0">
<rect width="63.0002" height="88.0003" fill="white"/>
</clipPath>
</defs>
</svg>
