<svg width="119" height="91" viewBox="0 0 119 91" fill="none" xmlns="http://www.w3.org/2000/svg">
<path opacity="0.136" d="M91.752 14.5441H27.956C13.0443 14.5441 0.955994 26.6324 0.955994 41.5441V63.3851C0.955994 78.2968 13.0443 90.3851 27.956 90.3851H91.752C106.664 90.3851 118.752 78.2968 118.752 63.3851V41.5441C118.752 26.6324 106.664 14.5441 91.752 14.5441Z" fill="#40D876"/>
<path d="M65.168 11.4451H63.337V36.7901L48.309 57.1611L49.781 58.2481C53.0808 60.6818 56.9107 62.2983 60.9563 62.965C65.002 63.6317 69.1481 63.3295 73.0543 62.0832C76.9605 60.837 80.5155 58.6822 83.4276 55.7957C86.3396 52.9092 88.5257 49.3733 89.8063 45.4782C91.0869 41.5831 91.4257 37.4398 90.7947 33.3885C90.1637 29.3371 88.5809 25.4931 86.1764 22.172C83.7718 18.8508 80.614 16.1472 76.9621 14.2831C73.3101 12.4189 69.2682 11.4473 65.168 11.4481V11.4451Z" fill="#40D876"/>
<path d="M36.087 15.3C34.5125 17.0293 33.1167 18.9132 31.921 20.923C29.3753 25.4606 28.2537 30.659 28.7019 35.8425C29.15 41.026 31.1473 45.9548 34.434 49.988C36.2524 52.1041 38.332 53.9807 40.623 55.5731L57.016 33.3511L36.087 15.3Z" fill="#40D876"/>
<path d="M57.827 0.813032C54.1172 0.662321 50.42 1.33226 46.999 2.77503C43.6721 4.4255 40.75 6.78929 38.441 9.69803L57.827 26.418V0.813032Z" fill="#40D876"/>
</svg>
