<svg width="119" height="94" viewBox="0 0 119 94" fill="none" xmlns="http://www.w3.org/2000/svg">
<path opacity="0.136" d="M91.185 17.5428H27.389C12.4773 17.5428 0.388977 29.6312 0.388977 44.5428V66.3838C0.388977 81.2955 12.4773 93.3839 27.389 93.3839H91.185C106.097 93.3839 118.185 81.2955 118.185 66.3838V44.5428C118.185 29.6312 106.097 17.5428 91.185 17.5428Z" fill="#40D876"/>
<g filter="url(#filter0_d)">
<path d="M40.649 58.0048C42.1921 59.5426 44.2181 60.5015 46.3857 60.7201C48.5532 60.9386 50.7298 60.4035 52.549 59.2049L59.101 65.7538C59.4558 66.1085 59.9368 66.3077 60.4385 66.3077C60.9401 66.3077 61.4212 66.1085 61.776 65.7538L67.127 60.4029C67.4816 60.0481 67.6808 59.567 67.6808 59.0653C67.6808 58.5637 67.4816 58.0826 67.127 57.7278L60.727 51.3279C73.49 39.2449 86.633 38.4049 90.727 36.9698C91.0517 36.8886 91.3491 36.7227 91.5888 36.489C91.8284 36.2552 92.0018 35.9621 92.0912 35.6395C92.1805 35.3169 92.1827 34.9764 92.0975 34.6526C92.0122 34.3289 91.8426 34.0336 91.606 33.7969L62.176 4.36685C61.9392 4.13019 61.6439 3.96059 61.3202 3.87535C60.9965 3.79011 60.6559 3.79229 60.3333 3.88166C60.0107 3.97103 59.7176 4.14439 59.4839 4.38405C59.2501 4.62372 59.0842 4.9211 59.003 5.24585C57.615 9.13485 56.691 23.2338 43.651 36.2738L37.973 41.9519C37.094 42.8299 36.3968 43.8725 35.921 45.0202C35.4453 46.1678 35.2004 47.398 35.2004 48.6404C35.2004 49.8827 35.4453 51.1129 35.921 52.2605C36.3968 53.4082 37.094 54.4508 37.973 55.3289L40.649 58.0048ZM60.437 61.7408L55.364 56.6679L58.039 53.9928L63.112 59.0669L60.437 61.7408ZM47.323 37.9249C52.7989 32.1743 56.9725 25.3122 59.56 17.8049L78.174 36.4179C70.6667 39.0053 63.8045 43.1789 58.054 48.6549L47.323 37.9249ZM61.866 9.40785L86.566 34.1078C83.966 34.7598 83.125 34.9659 82.288 35.1809L60.788 13.6809C61.001 12.8929 61.393 11.2929 61.866 9.40785ZM40.649 44.6278L44.662 40.6148L55.362 51.3149L51.351 55.3289C50.2858 56.3915 48.8426 56.9883 47.338 56.9883C45.8333 56.9883 44.3902 56.3915 43.325 55.3289L40.649 52.6539C40.1216 52.1271 39.7032 51.5015 39.4178 50.8129C39.1323 50.1243 38.9854 49.3863 38.9854 48.6409C38.9854 47.8954 39.1323 47.1574 39.4178 46.4688C39.7032 45.7802 40.1216 45.1546 40.649 44.6278Z" fill="#40D876"/>
</g>
<defs>
<filter id="filter0_d" x="29.2004" y="0.812988" width="68.9594" height="74.4947" filterUnits="userSpaceOnUse" color-interpolation-filters="sRGB">
<feFlood flood-opacity="0" result="BackgroundImageFix"/>
<feColorMatrix in="SourceAlpha" type="matrix" values="0 0 0 0 0 0 0 0 0 0 0 0 0 0 0 0 0 0 127 0"/>
<feOffset dy="3"/>
<feGaussianBlur stdDeviation="3"/>
<feColorMatrix type="matrix" values="0 0 0 0 1 0 0 0 0 1 0 0 0 0 1 0 0 0 0.275 0"/>
<feBlend mode="normal" in2="BackgroundImageFix" result="effect1_dropShadow"/>
<feBlend mode="normal" in="SourceGraphic" in2="effect1_dropShadow" result="shape"/>
</filter>
</defs>
</svg>
