<svg width="112" height="90" viewBox="0 0 112 90" fill="none" xmlns="http://www.w3.org/2000/svg">
<path opacity="0.136" d="M84.637 13.543H27.296C12.3843 13.543 0.296021 25.6313 0.296021 40.543V62.384C0.296021 77.2957 12.3843 89.384 27.296 89.384H84.637C99.5487 89.384 111.637 77.2957 111.637 62.384V40.543C111.637 25.6313 99.5487 13.543 84.637 13.543Z" fill="#40D876"/>
<path d="M72.635 0.588013H39.298C38.2457 0.589072 37.2368 1.00757 36.4927 1.75168C35.7486 2.49578 35.3301 3.50469 35.329 4.55701V61.23C35.3292 61.654 35.4425 62.0702 35.6573 62.4357C35.8721 62.8013 36.1806 63.1028 36.5508 63.3093C36.9211 63.5158 37.3398 63.6198 37.7637 63.6104C38.1875 63.601 38.6012 63.4787 38.962 63.256L55.971 52.756L72.978 63.181C73.3389 63.4024 73.7523 63.5235 74.1756 63.532C74.5988 63.5404 75.0167 63.4358 75.3861 63.229C75.7555 63.0222 76.0631 62.7206 76.2772 62.3554C76.4913 61.9901 76.6041 61.5744 76.604 61.151V4.55701C76.603 3.50469 76.1844 2.49578 75.4403 1.75168C74.6962 1.00757 73.6873 0.589072 72.635 0.588013V0.588013ZM71.841 56.897L57.211 47.928C56.8352 47.6965 56.4024 47.5739 55.961 47.5739C55.5196 47.5739 55.0868 47.6965 54.711 47.928L40.087 56.961V5.35001H71.837L71.841 56.897Z" fill="#40D876"/>
</svg>
