<svg width="119" height="89" viewBox="0 0 119 89" fill="none" xmlns="http://www.w3.org/2000/svg">
<path opacity="0.136" d="M91.205 11.5729H27.889C12.9773 11.5729 0.889008 23.6612 0.889008 38.5729V61.8419C0.889008 76.7536 12.9773 88.8419 27.889 88.8419H91.205C106.117 88.8419 118.205 76.7536 118.205 61.8419V38.5729C118.205 23.6612 106.117 11.5729 91.205 11.5729Z" fill="#40D876"/>
<path d="M77.837 0.408889H24.534C24.1649 0.40523 23.8069 0.5346 23.5253 0.773325C23.2438 1.01205 23.0577 1.34416 23.001 1.70889V35.9029C23.0534 36.2762 23.2359 36.6191 23.5163 36.871C23.7968 37.123 24.1572 37.2678 24.534 37.2799H33.695V51.4689L48.081 37.2799H77.837C78.1771 37.2546 78.4933 37.0954 78.7162 36.8372C78.9391 36.5791 79.0505 36.2431 79.026 35.9029V1.70889C79.0367 1.54469 79.0141 1.38001 78.9595 1.22477C78.905 1.06952 78.8196 0.926903 78.7086 0.80548C78.5975 0.684056 78.4631 0.586333 78.3133 0.518181C78.1635 0.450029 78.0015 0.412854 77.837 0.408889Z" fill="#40D876"/>
<path d="M94.885 13.7539H89.732V40.2539C89.732 42.7969 88.632 44.4539 85.732 44.4539H56.98L50.792 50.6539H71.42L85.755 64.8129V50.6569H94.885C95.2274 50.631 95.5459 50.4718 95.7721 50.2136C95.9984 49.9554 96.1143 49.6187 96.095 49.2759V15.2019C96.1158 14.8518 96.0022 14.507 95.7773 14.2378C95.5524 13.9687 95.2332 13.7956 94.885 13.7539Z" fill="#40D876"/>
</svg>
