<svg width="118" height="95" viewBox="0 0 118 95" fill="none" xmlns="http://www.w3.org/2000/svg">
<path opacity="0.136" d="M90.978 17.934H27.182C12.2703 17.934 0.182007 30.0223 0.182007 44.934V67.483C0.182007 82.3946 12.2703 94.483 27.182 94.483H90.978C105.89 94.483 117.978 82.3946 117.978 67.483V44.934C117.978 30.0223 105.89 17.934 90.978 17.934Z" fill="#40D876"/>
<path d="M54.674 19.761L54.667 36.331C54.6669 36.6421 54.7282 36.9502 54.8473 37.2376C54.9663 37.525 55.1409 37.7861 55.361 38.006L67.215 49.858L70.564 46.509L59.404 35.351L59.411 19.762L54.674 19.761Z" fill="#40D876"/>
<path d="M59.416 0.812988C51.4503 0.827076 43.7555 3.70616 37.737 8.92437C31.7185 14.1426 27.7779 21.3517 26.635 29.235H16.783L28.625 41.077L40.468 29.235H31.422C32.5196 22.8193 35.7896 16.9761 40.6836 12.685C45.5777 8.39394 51.7983 5.91594 58.3023 5.66651C64.8064 5.41708 71.1985 7.41138 76.4068 11.315C81.6152 15.2187 85.323 20.7943 86.9088 27.1071C88.4945 33.4198 87.8616 40.0858 85.1163 45.9874C82.3709 51.8889 77.6801 56.6672 71.8302 59.521C65.9803 62.3748 59.3271 63.1306 52.9862 61.6617C46.6453 60.1927 41.0021 56.5884 37.003 51.453L33.27 54.368C36.7302 58.8034 41.2619 62.2855 46.4387 64.4868C51.6155 66.6881 57.2673 67.5362 62.8622 66.9512C68.4571 66.3663 73.8112 64.3676 78.4208 61.1431C83.0304 57.9187 86.7438 53.5745 89.2118 48.5194C91.6797 43.4642 92.8211 37.8643 92.5283 32.2466C92.2356 26.6288 90.5185 21.1778 87.5385 16.4065C84.5586 11.6353 80.4137 7.70057 75.494 4.97265C70.5743 2.24473 65.0414 0.813283 59.416 0.812988Z" fill="#40D876"/>
</svg>
