<svg width="118" height="91" viewBox="0 0 118 91" fill="none" xmlns="http://www.w3.org/2000/svg">
<path opacity="0.136" d="M90.891 14.5441H27.095C12.1833 14.5441 0.0949707 26.6324 0.0949707 41.5441V63.3851C0.0949707 78.2968 12.1833 90.3851 27.095 90.3851H90.891C105.803 90.3851 117.891 78.2968 117.891 63.3851V41.5441C117.891 26.6324 105.803 14.5441 90.891 14.5441Z" fill="#40D876"/>
<g filter="url(#filter0_d)">
<path d="M44.528 49.919C47.6939 49.919 50.7887 48.9802 53.421 47.2214C56.0533 45.4625 58.105 42.9625 59.3165 40.0376C60.5281 37.1128 60.8451 33.8943 60.2274 30.7892C59.6098 27.6842 58.0853 24.832 55.8467 22.5934C53.608 20.3548 50.7559 18.8302 47.6508 18.2126C44.5458 17.595 41.3273 17.912 38.4024 19.1235C35.4775 20.335 32.9775 22.3867 31.2187 25.019C29.4598 27.6514 28.521 30.7462 28.521 33.912C28.5258 38.1559 30.2137 42.2246 33.2146 45.2254C36.2155 48.2263 40.2841 49.9143 44.528 49.919ZM44.528 20.741C47.133 20.741 49.6794 21.5135 51.8454 22.9608C54.0114 24.408 55.6995 26.465 56.6964 28.8717C57.6933 31.2784 57.9541 33.9266 57.4459 36.4816C56.9377 39.0365 55.6833 41.3833 53.8413 43.2253C51.9993 45.0673 49.6525 46.3218 47.0975 46.83C44.5426 47.3382 41.8944 47.0773 39.4877 46.0805C37.081 45.0836 35.024 43.3954 33.5767 41.2295C32.1295 39.0635 31.357 36.517 31.357 33.912C31.361 30.4201 32.7499 27.0723 35.2191 24.6031C37.6883 22.1339 41.036 20.745 44.528 20.741Z" fill="#40D876"/>
</g>
<g filter="url(#filter1_d)">
<path d="M93.886 20.301H86.02V14.984H90.32C90.6961 14.984 91.0568 14.8346 91.3227 14.5687C91.5886 14.3028 91.738 13.9421 91.738 13.566V5.41202C91.738 5.03629 91.5889 4.67592 91.3234 4.41005C91.0579 4.14418 90.6977 3.99455 90.322 3.99402H49.763C49.3869 3.99402 49.0263 4.14341 48.7603 4.40934C48.4944 4.67527 48.345 5.03594 48.345 5.41202V12.067H44.528C41.3366 12.0692 38.1845 12.7702 35.293 14.1208C32.4015 15.4714 29.8408 17.4388 27.7909 19.8848C25.741 22.3308 24.2517 25.196 23.4274 28.2791C22.6032 31.3622 22.4641 34.5884 23.02 37.731C23.0855 38.1014 23.2955 38.4306 23.6037 38.6461C23.9119 38.8617 24.2931 38.946 24.6635 38.8805C25.0339 38.815 25.3631 38.6051 25.5786 38.2968C25.7942 37.9886 25.8785 37.6074 25.813 37.237C25.141 33.4576 25.6291 29.5632 27.2131 26.0666C28.7971 22.5699 31.4027 19.6348 34.687 17.6476C37.9713 15.6604 41.7804 14.7142 45.6128 14.9336C49.4453 15.153 53.1215 16.5277 56.1575 18.8767C59.1936 21.2258 61.4472 24.4391 62.6218 28.0937C63.7964 31.7483 63.8369 35.6729 62.7379 39.3509C61.639 43.029 59.4521 46.288 56.4651 48.6992C53.4782 51.1104 49.8311 52.5606 46.004 52.859C45.513 52.896 45.02 52.916 44.528 52.916C39.6137 52.9251 34.8888 51.021 31.354 47.607C31.0828 47.346 30.7191 47.2035 30.3428 47.2107C29.9665 47.2179 29.6085 47.3743 29.3475 47.6455C29.0865 47.9167 28.944 48.2804 28.9512 48.6567C28.9584 49.033 29.1148 49.391 29.386 49.652C30.7005 50.9176 32.1678 52.0141 33.754 52.916H28.186C27.8099 52.916 27.4493 53.0654 27.1833 53.3313C26.9174 53.5973 26.768 53.9579 26.768 54.334C26.768 54.7101 26.9174 55.0708 27.1833 55.3367C27.4493 55.6026 27.8099 55.752 28.186 55.752H91.223C91.5991 55.752 91.9598 55.6026 92.2257 55.3367C92.4916 55.0708 92.641 54.7101 92.641 54.334C92.641 53.9579 92.4916 53.5973 92.2257 53.3313C91.9598 53.0654 91.5991 52.916 91.223 52.916H82.766V47.599H90.321C90.5072 47.599 90.6916 47.5623 90.8637 47.4911C91.0357 47.4198 91.192 47.3154 91.3237 47.1837C91.4554 47.052 91.5598 46.8957 91.6311 46.7237C91.7023 46.5516 91.739 46.3672 91.739 46.181V31.294H93.886C94.2621 31.294 94.6228 31.1446 94.8887 30.8787C95.1546 30.6128 95.304 30.2521 95.304 29.876V21.72C95.3041 21.5337 95.2676 21.3492 95.1964 21.1771C95.1252 21.0049 95.0207 20.8485 94.889 20.7167C94.7574 20.5849 94.601 20.4804 94.4289 20.4091C94.2568 20.3377 94.0723 20.301 93.886 20.301ZM51.186 6.83002H88.904V12.148H77.429C77.0529 12.148 76.6923 12.2974 76.4263 12.5633C76.1604 12.8293 76.011 13.1899 76.011 13.566C76.011 13.9421 76.1604 14.3028 76.4263 14.5687C76.6923 14.8346 77.0529 14.984 77.429 14.984H83.186V20.301H61.615C59.9057 18.1574 57.809 16.3538 55.434 14.984H64.643C65.0191 14.984 65.3798 14.8346 65.6457 14.5687C65.9116 14.3028 66.061 13.9421 66.061 13.566C66.0609 13.5176 66.0582 13.4692 66.053 13.421C66.0174 13.0718 65.8535 12.7482 65.593 12.5129C65.3325 12.2775 64.994 12.1472 64.643 12.147H51.186V6.83002ZM79.93 52.916H55.3C57.6982 51.5486 59.8186 49.7434 61.551 47.594H79.93V52.916ZM88.904 44.762H63.486C63.9153 44.0096 64.3 43.2326 64.638 42.435C65.0516 41.4648 65.3942 40.4659 65.663 39.446H88.904V44.762ZM88.904 36.609H66.206C66.4226 34.8431 66.4256 33.0576 66.215 31.291H88.904V36.609ZM92.463 28.455H65.686C65.2106 26.5947 64.4882 24.8065 63.538 23.138H92.463V28.455Z" fill="#40D876"/>
</g>
<g filter="url(#filter2_d)">
<path d="M36.101 38.774C36.2255 38.9895 36.4046 39.1684 36.6201 39.2929C36.8356 39.4173 37.0801 39.4829 37.329 39.483H41.309L43.299 42.93C43.4235 43.1455 43.6025 43.3245 43.818 43.449C44.0336 43.5734 44.2781 43.6389 44.527 43.6389C44.7759 43.6389 45.0204 43.5734 45.236 43.449C45.4515 43.3245 45.6305 43.1455 45.755 42.93L47.745 39.483H51.725C51.9745 39.4837 52.2197 39.4186 52.436 39.2943C52.6522 39.1699 52.8318 38.9907 52.9567 38.7748C53.0816 38.5588 53.1473 38.3137 53.1471 38.0643C53.147 37.8148 53.0811 37.5698 52.956 37.354L50.966 33.907L52.956 30.46C53.0805 30.2444 53.146 29.9999 53.146 29.751C53.146 29.5021 53.0805 29.2576 52.956 29.042C52.8316 28.8264 52.6526 28.6474 52.437 28.523C52.2214 28.3985 51.9769 28.333 51.728 28.333H47.748L45.758 24.885C45.6335 24.6694 45.4545 24.4904 45.239 24.366C45.0234 24.2415 44.7789 24.176 44.53 24.176C44.2811 24.176 44.0366 24.2415 43.821 24.366C43.6055 24.4904 43.4265 24.6694 43.302 24.885L41.312 28.333H37.332C37.0831 28.333 36.8386 28.3985 36.623 28.523C36.4075 28.6474 36.2285 28.8264 36.104 29.042C35.9795 29.2576 35.914 29.5021 35.914 29.751C35.914 29.9999 35.9796 30.2444 36.104 30.46L38.094 33.907L36.104 37.354C35.9788 37.5696 35.9126 37.8143 35.9121 38.0636C35.9116 38.3129 35.9767 38.5579 36.101 38.774ZM40.957 33.2L39.785 31.171H42.128C42.3769 31.171 42.6214 31.1055 42.837 30.981C43.0526 30.8565 43.2316 30.6775 43.356 30.462L44.528 28.433L45.699 30.462C45.8235 30.6775 46.0025 30.8565 46.218 30.981C46.4336 31.1055 46.6781 31.171 46.927 31.171H49.27L48.098 33.2C47.9737 33.4156 47.9082 33.6601 47.9082 33.909C47.9082 34.1579 47.9737 34.4024 48.098 34.618L49.27 36.647H46.927C46.6781 36.647 46.4336 36.7125 46.218 36.837C46.0025 36.9614 45.8235 37.1404 45.699 37.356L44.528 39.385L43.356 37.354C43.2316 37.1384 43.0526 36.9594 42.837 36.835C42.6214 36.7105 42.3769 36.645 42.128 36.645H39.785L40.957 34.616C41.0808 34.4005 41.1459 34.1564 41.1458 33.9079C41.1456 33.6594 41.0802 33.4153 40.956 33.2H40.957Z" fill="#40D876"/>
</g>
<g filter="url(#filter3_d)">
<path d="M69.726 14.1261C69.8334 14.3851 70.0152 14.6066 70.2484 14.7623C70.4816 14.918 70.7558 15.0011 71.0362 15.001C71.3167 15.001 71.5908 14.9177 71.8239 14.7619C72.0571 14.606 72.2388 14.3845 72.346 14.1254C72.4533 13.8662 72.4813 13.5811 72.4265 13.3061C72.3717 13.031 72.2367 12.7784 72.0383 12.5801C71.84 12.3819 71.5873 12.2469 71.3122 12.1922C71.0371 12.1376 70.752 12.1657 70.493 12.2731C70.1476 12.4196 69.8736 12.696 69.7302 13.0426C69.5867 13.3892 69.5852 13.7783 69.726 14.1261Z" fill="#40D876"/>
</g>
<g filter="url(#filter4_d)">
<path d="M27.0869 44.9231C27.3459 44.8159 27.5673 44.6343 27.723 44.4013C27.8788 44.1683 27.962 43.8944 27.9621 43.6141C27.9621 43.3338 27.8791 43.0598 27.7234 42.8267C27.5677 42.5937 27.3464 42.412 27.0875 42.3047C26.8286 42.1974 26.5436 42.1693 26.2687 42.224C25.9938 42.2786 25.7413 42.4136 25.5431 42.6117C25.3449 42.8099 25.21 43.0624 25.1553 43.3373C25.1006 43.6122 25.1287 43.8971 25.2359 44.1561C25.3825 44.5009 25.6585 44.7745 26.0046 44.918C26.3508 45.0614 26.7394 45.0632 27.0869 44.9231Z" fill="#40D876"/>
</g>
<defs>
<filter id="filter0_d" x="22.521" y="14.905" width="44.014" height="44.014" filterUnits="userSpaceOnUse" color-interpolation-filters="sRGB">
<feFlood flood-opacity="0" result="BackgroundImageFix"/>
<feColorMatrix in="SourceAlpha" type="matrix" values="0 0 0 0 0 0 0 0 0 0 0 0 0 0 0 0 0 0 127 0"/>
<feOffset dy="3"/>
<feGaussianBlur stdDeviation="3"/>
<feColorMatrix type="matrix" values="0 0 0 0 1 0 0 0 0 1 0 0 0 0 1 0 0 0 0.275 0"/>
<feBlend mode="normal" in2="BackgroundImageFix" result="effect1_dropShadow"/>
<feBlend mode="normal" in="SourceGraphic" in2="effect1_dropShadow" result="shape"/>
</filter>
<filter id="filter1_d" x="16.6859" y="0.994019" width="84.6181" height="63.758" filterUnits="userSpaceOnUse" color-interpolation-filters="sRGB">
<feFlood flood-opacity="0" result="BackgroundImageFix"/>
<feColorMatrix in="SourceAlpha" type="matrix" values="0 0 0 0 0 0 0 0 0 0 0 0 0 0 0 0 0 0 127 0"/>
<feOffset dy="3"/>
<feGaussianBlur stdDeviation="3"/>
<feColorMatrix type="matrix" values="0 0 0 0 1 0 0 0 0 1 0 0 0 0 1 0 0 0 0.275 0"/>
<feBlend mode="normal" in2="BackgroundImageFix" result="effect1_dropShadow"/>
<feBlend mode="normal" in="SourceGraphic" in2="effect1_dropShadow" result="shape"/>
</filter>
<filter id="filter2_d" x="29.9121" y="21.176" width="29.235" height="31.4629" filterUnits="userSpaceOnUse" color-interpolation-filters="sRGB">
<feFlood flood-opacity="0" result="BackgroundImageFix"/>
<feColorMatrix in="SourceAlpha" type="matrix" values="0 0 0 0 0 0 0 0 0 0 0 0 0 0 0 0 0 0 127 0"/>
<feOffset dy="3"/>
<feGaussianBlur stdDeviation="3"/>
<feColorMatrix type="matrix" values="0 0 0 0 1 0 0 0 0 1 0 0 0 0 1 0 0 0 0.275 0"/>
<feBlend mode="normal" in2="BackgroundImageFix" result="effect1_dropShadow"/>
<feBlend mode="normal" in="SourceGraphic" in2="effect1_dropShadow" result="shape"/>
</filter>
<filter id="filter3_d" x="63.6215" y="9.16504" width="14.8324" height="14.836" filterUnits="userSpaceOnUse" color-interpolation-filters="sRGB">
<feFlood flood-opacity="0" result="BackgroundImageFix"/>
<feColorMatrix in="SourceAlpha" type="matrix" values="0 0 0 0 0 0 0 0 0 0 0 0 0 0 0 0 0 0 127 0"/>
<feOffset dy="3"/>
<feGaussianBlur stdDeviation="3"/>
<feColorMatrix type="matrix" values="0 0 0 0 1 0 0 0 0 1 0 0 0 0 1 0 0 0 0.275 0"/>
<feBlend mode="normal" in2="BackgroundImageFix" result="effect1_dropShadow"/>
<feBlend mode="normal" in="SourceGraphic" in2="effect1_dropShadow" result="shape"/>
</filter>
<filter id="filter4_d" x="19.1281" y="39.1968" width="14.834" height="14.8301" filterUnits="userSpaceOnUse" color-interpolation-filters="sRGB">
<feFlood flood-opacity="0" result="BackgroundImageFix"/>
<feColorMatrix in="SourceAlpha" type="matrix" values="0 0 0 0 0 0 0 0 0 0 0 0 0 0 0 0 0 0 127 0"/>
<feOffset dy="3"/>
<feGaussianBlur stdDeviation="3"/>
<feColorMatrix type="matrix" values="0 0 0 0 1 0 0 0 0 1 0 0 0 0 1 0 0 0 0.275 0"/>
<feBlend mode="normal" in2="BackgroundImageFix" result="effect1_dropShadow"/>
<feBlend mode="normal" in="SourceGraphic" in2="effect1_dropShadow" result="shape"/>
</filter>
</defs>
</svg>
