<svg width="118" height="93" viewBox="0 0 118 93" fill="none" xmlns="http://www.w3.org/2000/svg">
<path opacity="0.136" d="M90.865 15.9341H27.069C12.1573 15.9341 0.0690002 28.0224 0.0690002 42.9341V65.4831C0.0690002 80.3948 12.1573 92.4831 27.069 92.4831H90.865C105.777 92.4831 117.865 80.3948 117.865 65.4831V42.9341C117.865 28.0224 105.777 15.9341 90.865 15.9341Z" fill="#40D876"/>
<path d="M94.555 13.004L92.687 4.51404C92.3765 3.10457 91.5189 1.87615 90.3027 1.099C89.0866 0.321856 87.6115 0.0596437 86.202 0.370044L30.062 12.722H25.154C23.6379 12.7236 22.1842 13.3263 21.1118 14.398C20.0394 15.4697 19.4356 16.9229 19.433 18.439V43.225C19.4433 43.6284 19.6107 44.0118 19.8996 44.2934C20.1885 44.5751 20.576 44.7327 20.9795 44.7327C21.383 44.7327 21.7705 44.5751 22.0594 44.2934C22.3483 44.0118 22.5157 43.6284 22.526 43.225C22.526 43.184 22.526 43.143 22.526 43.103V18.439C22.5268 17.7411 22.8045 17.0719 23.2981 16.5785C23.7918 16.085 24.461 15.8076 25.159 15.807H92.78C93.478 15.8076 94.1472 16.085 94.6409 16.5785C95.1345 17.0719 95.4122 17.7411 95.413 18.439V55.568H20.977C20.5676 55.5683 20.175 55.7311 19.8855 56.0206C19.596 56.3101 19.4333 56.7026 19.433 57.112V60.193C19.4306 61.2208 19.7071 62.23 20.233 63.113C20.242 63.127 20.25 63.143 20.258 63.157L20.267 63.17C20.7776 64.0074 21.4949 64.6995 22.35 65.1798C23.205 65.6601 24.1692 65.9126 25.15 65.913H92.78C93.7102 65.9128 94.6263 65.6855 95.4488 65.2511C96.2713 64.8167 96.9754 64.1882 97.5 63.42L97.522 63.388L97.532 63.373C98.1646 62.4332 98.502 61.3259 98.501 60.193V18.439C98.4986 17.2332 98.1159 16.0588 97.4074 15.0831C96.699 14.1073 95.7008 13.3798 94.555 13.004ZM86.867 3.38604C87.4758 3.25357 88.1124 3.36778 88.6372 3.70365C89.162 4.03953 89.5323 4.5697 89.667 5.17804L91.327 12.722H44.433L86.867 3.38604ZM95.413 60.193C95.4109 60.8906 95.1328 61.559 94.6394 62.0522C94.1461 62.5453 93.4776 62.8232 92.78 62.825H25.155C24.4574 62.8232 23.7889 62.5453 23.2956 62.0522C22.8022 61.559 22.5241 60.8906 22.522 60.193V58.657H95.413V60.193Z" fill="#40D876"/>
<path d="M49.369 40.0961C48.9594 40.0961 48.5665 40.2588 48.2769 40.5484C47.9872 40.8381 47.8245 41.2309 47.8245 41.6406C47.8245 42.0502 47.9872 42.443 48.2769 42.7327C48.5665 43.0223 48.9594 43.1851 49.369 43.1851H58.112C58.5216 43.1851 58.9145 43.0223 59.2041 42.7327C59.4938 42.443 59.6565 42.0502 59.6565 41.6406C59.6565 41.2309 59.4938 40.8381 59.2041 40.5484C58.9145 40.2588 58.5216 40.0961 58.112 40.0961H49.369Z" fill="#40D876"/>
<path d="M73.031 43.1851C73.4406 43.1851 73.8335 43.0223 74.1231 42.7327C74.4128 42.443 74.5755 42.0502 74.5755 41.6406C74.5755 41.2309 74.4128 40.8381 74.1231 40.5484C73.8335 40.2588 73.4406 40.0961 73.031 40.0961H64.287C63.8774 40.0961 63.4845 40.2588 63.1949 40.5484C62.9052 40.8381 62.7425 41.2309 62.7425 41.6406C62.7425 42.0502 62.9052 42.443 63.1949 42.7327C63.4845 43.0223 63.8774 43.1851 64.287 43.1851H73.031Z" fill="#40D876"/>
<path d="M87.952 40.0961H79.209C78.7994 40.0961 78.4065 40.2588 78.1169 40.5484C77.8272 40.8381 77.6645 41.2309 77.6645 41.6406C77.6645 42.0502 77.8272 42.443 78.1169 42.7327C78.4065 43.0223 78.7994 43.1851 79.209 43.1851H87.952C88.3616 43.1851 88.7545 43.0223 89.0441 42.7327C89.3338 42.443 89.4965 42.0502 89.4965 41.6406C89.4965 41.2309 89.3338 40.8381 89.0441 40.5484C88.7545 40.2588 88.3616 40.0961 87.952 40.0961Z" fill="#40D876"/>
<path d="M58.613 48.597C58.6133 49.0064 58.776 49.399 59.0655 49.6885C59.355 49.978 59.7476 50.1408 60.157 50.141H87.957C88.3666 50.141 88.7595 49.9783 89.0491 49.6886C89.3388 49.399 89.5015 49.0061 89.5015 48.5965C89.5015 48.1869 89.3388 47.794 89.0491 47.5044C88.7595 47.2147 88.3666 47.052 87.957 47.052H60.157C59.9542 47.052 59.7533 47.092 59.5659 47.1696C59.3785 47.2473 59.2083 47.3611 59.0649 47.5046C58.9215 47.6481 58.8078 47.8184 58.7302 48.0058C58.6527 48.1933 58.6129 48.3942 58.613 48.597Z" fill="#40D876"/>
<path d="M28.171 36.0641C28.3065 36.2988 28.5014 36.4937 28.7361 36.6292C28.9708 36.7647 29.237 36.8361 29.508 36.8361H34.142L36.459 40.8491C36.5945 41.084 36.7894 41.2791 37.0242 41.4147C37.259 41.5503 37.5253 41.6217 37.7965 41.6217C38.0676 41.6217 38.334 41.5503 38.5688 41.4147C38.8036 41.2791 38.9985 41.084 39.134 40.8491L41.45 36.8361H46.084C46.355 36.8361 46.6212 36.7647 46.8559 36.6292C47.0906 36.4937 47.2855 36.2987 47.421 36.064C47.5565 35.8293 47.6279 35.5631 47.6279 35.2921C47.6279 35.021 47.5565 34.7548 47.421 34.5201L45.104 30.5071L47.421 26.4931C47.5565 26.2584 47.6279 25.9922 47.6279 25.7211C47.6279 25.4501 47.5565 25.1839 47.421 24.9492C47.2855 24.7145 47.0906 24.5195 46.8559 24.384C46.6212 24.2485 46.355 24.1771 46.084 24.1771H41.451L39.135 20.1641C38.9995 19.9292 38.8046 19.7341 38.5698 19.5985C38.335 19.4629 38.0686 19.3915 37.7975 19.3915C37.5263 19.3915 37.26 19.4629 37.0252 19.5985C36.7904 19.7341 36.5955 19.9292 36.46 20.1641L34.142 24.1771H29.508C29.237 24.1771 28.9707 24.2485 28.736 24.384C28.5013 24.5195 28.3065 24.7145 28.171 24.9492C28.0355 25.1839 27.9641 25.4501 27.9641 25.7211C27.9641 25.9922 28.0355 26.2584 28.171 26.4931L30.488 30.5061L28.171 34.5191C28.0354 34.754 27.964 35.0204 27.964 35.2916C27.964 35.5628 28.0354 35.8292 28.171 36.0641ZM33.609 29.7341L32.184 27.2661H35.035C35.306 27.2661 35.5722 27.1947 35.8069 27.0592C36.0416 26.9237 36.2365 26.7288 36.372 26.4941L37.797 24.0261L39.222 26.4941C39.3575 26.7288 39.5524 26.9237 39.7871 27.0592C40.0218 27.1947 40.288 27.2661 40.559 27.2661H43.41L41.985 29.7341C41.8493 29.9687 41.7778 30.235 41.7778 30.5061C41.7778 30.7772 41.8493 31.0434 41.985 31.2781L43.41 33.7471H40.559C40.288 33.7471 40.0218 33.8185 39.7871 33.954C39.5524 34.0895 39.3575 34.2844 39.222 34.5191L37.797 36.9871L36.372 34.5191C36.2365 34.2844 36.0416 34.0895 35.8069 33.954C35.5722 33.8185 35.306 33.7471 35.035 33.7471H32.183L33.608 31.2781C33.7434 31.0436 33.8147 30.7775 33.8149 30.5067C33.8151 30.2359 33.7441 29.9698 33.609 29.7351V29.7341Z" fill="#40D876"/>
<path d="M89.766 22.037C89.7657 21.6276 89.603 21.2351 89.3135 20.9456C89.024 20.6561 88.6314 20.4933 88.222 20.493H60.544C60.1346 20.4933 59.742 20.6561 59.4525 20.9456C59.163 21.2351 59.0003 21.6276 59 22.037V29.831C59 30.2405 59.1627 30.6332 59.4522 30.9228C59.7418 31.2124 60.1345 31.375 60.544 31.375H88.221C88.6305 31.375 89.0232 31.2124 89.3128 30.9228C89.6023 30.6332 89.765 30.2405 89.765 29.831L89.766 22.037ZM86.677 28.287H62.089V23.582H86.677V28.287Z" fill="#40D876"/>
<path d="M19.694 51.385C19.8754 51.6539 20.1364 51.8592 20.4403 51.9722C20.7443 52.0852 21.0761 52.1002 21.389 52.0151C21.6179 51.9515 21.829 51.8361 22.0059 51.6776C22.1828 51.5192 22.3208 51.322 22.409 51.1015C22.4972 50.881 22.5334 50.6431 22.5146 50.4063C22.4958 50.1695 22.4227 49.9403 22.3008 49.7364C22.1789 49.5326 22.0116 49.3596 21.8119 49.231C21.6122 49.1024 21.3856 49.0216 21.1496 48.995C20.9136 48.9683 20.6746 48.9965 20.4512 49.0774C20.2279 49.1582 20.0263 49.2895 19.862 49.4611C19.6217 49.7161 19.4744 50.0448 19.4439 50.3939C19.4134 50.743 19.5015 51.0922 19.694 51.385Z" fill="#40D876"/>
</svg>
