<svg width="119" height="106" viewBox="0 0 119 106" fill="none" xmlns="http://www.w3.org/2000/svg">
<path opacity="0.136" d="M91.004 29.543H27.208C12.2963 29.543 0.208008 41.6313 0.208008 56.543V78.384C0.208008 93.2957 12.2963 105.384 27.208 105.384H91.004C105.916 105.384 118.004 93.2957 118.004 78.384V56.543C118.004 41.6313 105.916 29.543 91.004 29.543Z" fill="#40D876"/>
<g filter="url(#filter0_d)">
<path d="M84.6169 13.997C84.4299 13.997 84.2453 13.9534 84.078 13.8698C83.9107 13.7861 83.7652 13.6646 83.6529 13.515C82.9581 12.5773 82.1807 11.7038 81.3299 10.905C81.0957 10.6871 80.9577 10.3851 80.9462 10.0655C80.9346 9.7458 81.0505 9.43465 81.2684 9.20047C81.4863 8.96628 81.7883 8.82824 82.1079 8.8167C82.4276 8.80517 82.7387 8.92109 82.9729 9.13897C83.9301 10.0372 84.8053 11.0191 85.5879 12.073C85.7225 12.252 85.8045 12.465 85.8247 12.688C85.845 12.911 85.8027 13.1353 85.7026 13.3356C85.6025 13.536 85.4485 13.7044 85.258 13.8221C85.0674 13.9398 84.8479 14.0021 84.6239 14.002L84.6169 13.997Z" fill="#40D876"/>
</g>
<g filter="url(#filter1_d)">
<path d="M88.75 51.5489H29.227C25.9519 51.5195 22.821 50.1979 20.5154 47.8716C18.2099 45.5453 16.9164 42.4026 16.9164 39.1274C16.9164 35.8522 18.2099 32.7095 20.5154 30.3832C22.821 28.0569 25.9519 26.7353 29.227 26.7059H29.335C29.6852 24.5246 30.4766 22.4376 31.6608 20.5725C32.845 18.7075 34.3971 17.1035 36.2223 15.8587C38.0474 14.6138 40.1073 13.7543 42.2759 13.3325C44.4445 12.9108 46.6763 12.9358 48.835 13.4059C51.5574 9.10813 55.6668 5.86984 60.482 4.22788C60.7847 4.12524 61.1159 4.14707 61.4025 4.28857C61.6892 4.43006 61.9079 4.67964 62.0105 4.98238C62.1131 5.28513 62.0913 5.61624 61.9498 5.90289C61.8083 6.18954 61.5587 6.40824 61.256 6.51088C56.6978 8.06764 52.8581 11.2234 50.448 15.3939C50.3149 15.6227 50.1102 15.8013 49.8655 15.9022C49.6208 16.003 49.3496 16.0205 49.094 15.9519C47.9065 15.6278 46.6819 15.4598 45.451 15.4519C41.9891 15.4397 38.6479 16.7232 36.0847 19.0502C33.5214 21.3771 31.9216 24.5789 31.6 28.0259C31.5701 28.3242 31.4301 28.6007 31.2073 28.8014C30.9845 29.002 30.6948 29.1124 30.395 29.1109H29.221C26.5659 29.1109 24.0196 30.1656 22.1421 32.043C20.2647 33.9205 19.21 36.4668 19.21 39.1219C19.21 41.777 20.2647 44.3233 22.1421 46.2007C24.0196 48.0782 26.5659 49.1329 29.221 49.1329H88.75C91.4051 49.1329 93.9514 48.0782 95.8288 46.2007C97.7063 44.3233 98.761 41.777 98.761 39.1219C98.761 36.4668 97.7063 33.9205 95.8288 32.043C93.9514 30.1656 91.4051 29.1109 88.75 29.1109H88.581C88.4109 29.1113 88.2426 29.0757 88.0872 29.0064C87.9318 28.9371 87.7929 28.8356 87.6795 28.7088C87.5661 28.5819 87.4809 28.4325 87.4295 28.2703C87.378 28.1081 87.3615 27.9369 87.381 27.7679C87.4823 26.9617 87.5364 26.1503 87.543 25.3379C87.5463 24.3671 87.4744 23.3975 87.328 22.4379C87.2791 22.122 87.3576 21.7996 87.5464 21.5417C87.7351 21.2837 88.0186 21.1113 88.3345 21.0624C88.6504 21.0134 88.9727 21.092 89.2307 21.2808C89.4886 21.4695 89.6611 21.753 89.71 22.0689C89.8748 23.151 89.9554 24.2443 89.951 25.3389C89.951 25.7889 89.934 26.2479 89.898 26.7539C93.139 26.9717 96.1655 28.4509 98.3285 30.8743C100.492 33.2977 101.619 36.4723 101.468 39.7171C101.318 42.9619 99.9016 46.0185 97.5237 48.2313C95.1457 50.4442 91.9952 51.637 88.748 51.5539L88.75 51.5489Z" fill="#40D876"/>
</g>
<g filter="url(#filter2_d)">
<path d="M74.987 6.76398C74.8446 6.76349 74.7034 6.73776 74.57 6.68798C73.4879 6.28554 72.3703 5.98621 71.232 5.79398C70.9168 5.74094 70.6355 5.56485 70.4501 5.30446C70.2648 5.04406 70.1904 4.72069 70.2435 4.40548C70.2965 4.09027 70.4726 3.80905 70.733 3.62367C70.9934 3.43829 71.3168 3.36394 71.632 3.41698C72.9166 3.63334 74.1782 3.96982 75.4 4.42198C75.6696 4.51656 75.8968 4.70386 76.0411 4.95047C76.1855 5.19708 76.2374 5.48695 76.1878 5.76833C76.1382 6.04972 75.9902 6.30432 75.7702 6.4867C75.5503 6.66907 75.2727 6.76734 74.987 6.76398Z" fill="#40D876"/>
</g>
<g filter="url(#filter3_d)">
<path d="M58.995 76.918C58.6754 76.918 58.3689 76.791 58.1429 76.565C57.9169 76.339 57.79 76.0325 57.79 75.713V50.353C57.79 50.0332 57.917 49.7266 58.1431 49.5005C58.3691 49.2745 58.6758 49.1475 58.9955 49.1475C59.3152 49.1475 59.6218 49.2745 59.8479 49.5005C60.074 49.7266 60.201 50.0332 60.201 50.353V75.713C60.201 75.8713 60.1698 76.0281 60.1092 76.1743C60.0485 76.3206 59.9597 76.4535 59.8477 76.5654C59.7357 76.6773 59.6027 76.766 59.4564 76.8265C59.3101 76.887 59.1533 76.9181 58.995 76.918Z" fill="#40D876"/>
</g>
<g filter="url(#filter4_d)">
<path d="M58.9909 86.3689C57.8176 86.3691 56.6706 86.0213 55.6949 85.3696C54.7192 84.7178 53.9588 83.7914 53.5097 82.7074C53.0606 81.6235 52.943 80.4306 53.1719 79.2799C53.4007 78.1291 53.9657 77.072 54.7954 76.2423C55.625 75.4127 56.6821 74.8477 57.8329 74.6188C58.9837 74.39 60.1765 74.5075 61.2605 74.9566C62.3444 75.4057 63.2709 76.1662 63.9226 77.1419C64.5744 78.1175 64.9221 79.2646 64.9219 80.4379C64.9217 82.0108 64.2967 83.5192 63.1845 84.6314C62.0723 85.7437 60.5638 86.3686 58.9909 86.3689ZM58.9909 76.9169C58.2945 76.9167 57.6136 77.123 57.0345 77.5098C56.4553 77.8966 56.0039 78.4464 55.7372 79.0898C55.4706 79.7331 55.4007 80.4411 55.5365 81.1242C55.6722 81.8073 56.0075 82.4347 56.4998 82.9273C56.9922 83.4198 57.6196 83.7552 58.3026 83.8912C58.9857 84.0271 59.6937 83.9574 60.3371 83.691C60.9806 83.4245 61.5305 82.9732 61.9175 82.3942C62.3044 81.8151 62.5109 81.1343 62.5109 80.4379C62.5109 79.5042 62.1401 78.6088 61.48 77.9485C60.8199 77.2882 59.9246 76.9172 58.9909 76.9169Z" fill="#40D876"/>
</g>
<g filter="url(#filter5_d)">
<path d="M89.32 73.717C88.1798 73.717 87.0652 73.3789 86.1171 72.7454C85.1691 72.112 84.4302 71.2116 83.9938 70.1582C83.5575 69.1048 83.4433 67.9456 83.6658 66.8273C83.8882 65.709 84.4373 64.6818 85.2435 63.8755C86.0498 63.0693 87.077 62.5202 88.1953 62.2978C89.3136 62.0753 90.4727 62.1895 91.5262 62.6258C92.5796 63.0622 93.48 63.8011 94.1134 64.7492C94.7469 65.6972 95.085 66.8118 95.085 67.952C95.085 69.481 94.4776 70.9473 93.3965 72.0285C92.3153 73.1096 90.849 73.717 89.32 73.717ZM89.32 64.597C88.6566 64.598 88.0084 64.7956 87.4573 65.1649C86.9062 65.5342 86.477 66.0586 86.2239 66.6718C85.9707 67.285 85.905 67.9595 86.0351 68.61C86.1652 69.2605 86.4853 69.8578 86.9548 70.3265C87.4243 70.7951 88.0222 71.1141 88.6729 71.243C89.3237 71.372 89.998 71.3051 90.6107 71.0509C91.2235 70.7966 91.7471 70.3665 92.1154 69.8147C92.4837 69.263 92.6802 68.6144 92.68 67.951C92.68 67.0612 92.3265 66.2079 91.6973 65.5787C91.0682 64.9495 90.2148 64.596 89.325 64.596L89.32 64.597Z" fill="#40D876"/>
</g>
<g filter="url(#filter6_d)">
<path d="M84.76 69.1589H72.495C72.3366 69.1589 72.1799 69.1277 72.0336 69.0671C71.8873 69.0065 71.7545 68.9176 71.6426 68.8056C71.5307 68.6936 71.4419 68.5607 71.3814 68.4144C71.3209 68.2681 71.2898 68.1113 71.29 67.9529V50.3539C71.29 50.0342 71.417 49.7276 71.6431 49.5015C71.8691 49.2754 72.1758 49.1484 72.4955 49.1484C72.8152 49.1484 73.1218 49.2754 73.3479 49.5015C73.574 49.7276 73.701 50.0342 73.701 50.3539V66.7479H84.756C85.0757 66.7479 85.3823 66.8749 85.6084 67.101C85.8345 67.3271 85.9615 67.6337 85.9615 67.9534C85.9615 68.2732 85.8345 68.5798 85.6084 68.8059C85.3823 69.0319 85.0757 69.1589 84.756 69.1589H84.76Z" fill="#40D876"/>
</g>
<g filter="url(#filter7_d)">
<path d="M28.664 73.717C27.5238 73.717 26.4092 73.3789 25.4611 72.7454C24.5131 72.112 23.7742 71.2116 23.3378 70.1582C22.9015 69.1048 22.7873 67.9456 23.0098 66.8273C23.2322 65.709 23.7813 64.6818 24.5875 63.8755C25.3938 63.0693 26.421 62.5202 27.5393 62.2978C28.6576 62.0753 29.8167 62.1895 30.8702 62.6258C31.9236 63.0622 32.8239 63.8011 33.4574 64.7492C34.0909 65.6972 34.429 66.8118 34.429 67.952C34.429 69.481 33.8216 70.9473 32.7405 72.0285C31.6593 73.1096 30.193 73.717 28.664 73.717ZM28.664 64.597C28.0004 64.597 27.3518 64.7938 26.8001 65.1624C26.2483 65.5311 25.8183 66.0551 25.5644 66.6681C25.3104 67.2812 25.244 67.9557 25.3735 68.6065C25.5029 69.2573 25.8224 69.8552 26.2916 70.3244C26.7609 70.7936 27.3587 71.1131 28.0095 71.2425C28.6603 71.372 29.3348 71.3056 29.9479 71.0516C30.5609 70.7977 31.0849 70.3677 31.4536 69.816C31.8222 69.2642 32.019 68.6156 32.019 67.952C32.019 67.0622 31.6655 66.2089 31.0363 65.5797C30.4071 64.9505 29.5538 64.597 28.664 64.597Z" fill="#40D876"/>
</g>
<g filter="url(#filter8_d)">
<path d="M45.5 69.1589H33.23C32.9103 69.1589 32.6036 69.0319 32.3776 68.8059C32.1515 68.5798 32.0245 68.2732 32.0245 67.9534C32.0245 67.6337 32.1515 67.3271 32.3776 67.101C32.6036 66.8749 32.9103 66.7479 33.23 66.7479H44.29V50.3539C44.29 50.0342 44.417 49.7276 44.6431 49.5015C44.8691 49.2754 45.1758 49.1484 45.4955 49.1484C45.8152 49.1484 46.1218 49.2754 46.3479 49.5015C46.574 49.7276 46.701 50.0342 46.701 50.3539V67.9539C46.701 68.2728 46.5746 68.5787 46.3495 68.8046C46.1243 69.0305 45.8189 69.1579 45.5 69.1589Z" fill="#40D876"/>
</g>
<defs>
<filter id="filter0_d" x="74.9454" y="5.81592" width="16.8843" height="17.186" filterUnits="userSpaceOnUse" color-interpolation-filters="sRGB">
<feFlood flood-opacity="0" result="BackgroundImageFix"/>
<feColorMatrix in="SourceAlpha" type="matrix" values="0 0 0 0 0 0 0 0 0 0 0 0 0 0 0 0 0 0 127 0"/>
<feOffset dy="3"/>
<feGaussianBlur stdDeviation="3"/>
<feColorMatrix type="matrix" values="0 0 0 0 1 0 0 0 0 1 0 0 0 0 1 0 0 0 0.275 0"/>
<feBlend mode="normal" in2="BackgroundImageFix" result="effect1_dropShadow"/>
<feBlend mode="normal" in="SourceGraphic" in2="effect1_dropShadow" result="shape"/>
</filter>
<filter id="filter1_d" x="10.9164" y="1.16406" width="96.5651" height="59.3939" filterUnits="userSpaceOnUse" color-interpolation-filters="sRGB">
<feFlood flood-opacity="0" result="BackgroundImageFix"/>
<feColorMatrix in="SourceAlpha" type="matrix" values="0 0 0 0 0 0 0 0 0 0 0 0 0 0 0 0 0 0 127 0"/>
<feOffset dy="3"/>
<feGaussianBlur stdDeviation="3"/>
<feColorMatrix type="matrix" values="0 0 0 0 1 0 0 0 0 1 0 0 0 0 1 0 0 0 0.275 0"/>
<feBlend mode="normal" in2="BackgroundImageFix" result="effect1_dropShadow"/>
<feBlend mode="normal" in="SourceGraphic" in2="effect1_dropShadow" result="shape"/>
</filter>
<filter id="filter2_d" x="64.2267" y="0.400269" width="17.9794" height="15.3638" filterUnits="userSpaceOnUse" color-interpolation-filters="sRGB">
<feFlood flood-opacity="0" result="BackgroundImageFix"/>
<feColorMatrix in="SourceAlpha" type="matrix" values="0 0 0 0 0 0 0 0 0 0 0 0 0 0 0 0 0 0 127 0"/>
<feOffset dy="3"/>
<feGaussianBlur stdDeviation="3"/>
<feColorMatrix type="matrix" values="0 0 0 0 1 0 0 0 0 1 0 0 0 0 1 0 0 0 0.275 0"/>
<feBlend mode="normal" in2="BackgroundImageFix" result="effect1_dropShadow"/>
<feBlend mode="normal" in="SourceGraphic" in2="effect1_dropShadow" result="shape"/>
</filter>
<filter id="filter3_d" x="51.79" y="46.1475" width="14.411" height="39.7705" filterUnits="userSpaceOnUse" color-interpolation-filters="sRGB">
<feFlood flood-opacity="0" result="BackgroundImageFix"/>
<feColorMatrix in="SourceAlpha" type="matrix" values="0 0 0 0 0 0 0 0 0 0 0 0 0 0 0 0 0 0 127 0"/>
<feOffset dy="3"/>
<feGaussianBlur stdDeviation="3"/>
<feColorMatrix type="matrix" values="0 0 0 0 1 0 0 0 0 1 0 0 0 0 1 0 0 0 0.275 0"/>
<feBlend mode="normal" in2="BackgroundImageFix" result="effect1_dropShadow"/>
<feBlend mode="normal" in="SourceGraphic" in2="effect1_dropShadow" result="shape"/>
</filter>
<filter id="filter4_d" x="47.0579" y="71.5049" width="23.864" height="23.864" filterUnits="userSpaceOnUse" color-interpolation-filters="sRGB">
<feFlood flood-opacity="0" result="BackgroundImageFix"/>
<feColorMatrix in="SourceAlpha" type="matrix" values="0 0 0 0 0 0 0 0 0 0 0 0 0 0 0 0 0 0 127 0"/>
<feOffset dy="3"/>
<feGaussianBlur stdDeviation="3"/>
<feColorMatrix type="matrix" values="0 0 0 0 1 0 0 0 0 1 0 0 0 0 1 0 0 0 0.275 0"/>
<feBlend mode="normal" in2="BackgroundImageFix" result="effect1_dropShadow"/>
<feBlend mode="normal" in="SourceGraphic" in2="effect1_dropShadow" result="shape"/>
</filter>
<filter id="filter5_d" x="77.555" y="59.187" width="23.53" height="23.53" filterUnits="userSpaceOnUse" color-interpolation-filters="sRGB">
<feFlood flood-opacity="0" result="BackgroundImageFix"/>
<feColorMatrix in="SourceAlpha" type="matrix" values="0 0 0 0 0 0 0 0 0 0 0 0 0 0 0 0 0 0 127 0"/>
<feOffset dy="3"/>
<feGaussianBlur stdDeviation="3"/>
<feColorMatrix type="matrix" values="0 0 0 0 1 0 0 0 0 1 0 0 0 0 1 0 0 0 0.275 0"/>
<feBlend mode="normal" in2="BackgroundImageFix" result="effect1_dropShadow"/>
<feBlend mode="normal" in="SourceGraphic" in2="effect1_dropShadow" result="shape"/>
</filter>
<filter id="filter6_d" x="65.29" y="46.1484" width="26.6715" height="32.0105" filterUnits="userSpaceOnUse" color-interpolation-filters="sRGB">
<feFlood flood-opacity="0" result="BackgroundImageFix"/>
<feColorMatrix in="SourceAlpha" type="matrix" values="0 0 0 0 0 0 0 0 0 0 0 0 0 0 0 0 0 0 127 0"/>
<feOffset dy="3"/>
<feGaussianBlur stdDeviation="3"/>
<feColorMatrix type="matrix" values="0 0 0 0 1 0 0 0 0 1 0 0 0 0 1 0 0 0 0.275 0"/>
<feBlend mode="normal" in2="BackgroundImageFix" result="effect1_dropShadow"/>
<feBlend mode="normal" in="SourceGraphic" in2="effect1_dropShadow" result="shape"/>
</filter>
<filter id="filter7_d" x="16.899" y="59.187" width="23.53" height="23.53" filterUnits="userSpaceOnUse" color-interpolation-filters="sRGB">
<feFlood flood-opacity="0" result="BackgroundImageFix"/>
<feColorMatrix in="SourceAlpha" type="matrix" values="0 0 0 0 0 0 0 0 0 0 0 0 0 0 0 0 0 0 127 0"/>
<feOffset dy="3"/>
<feGaussianBlur stdDeviation="3"/>
<feColorMatrix type="matrix" values="0 0 0 0 1 0 0 0 0 1 0 0 0 0 1 0 0 0 0.275 0"/>
<feBlend mode="normal" in2="BackgroundImageFix" result="effect1_dropShadow"/>
<feBlend mode="normal" in="SourceGraphic" in2="effect1_dropShadow" result="shape"/>
</filter>
<filter id="filter8_d" x="26.0245" y="46.1484" width="26.6765" height="32.0105" filterUnits="userSpaceOnUse" color-interpolation-filters="sRGB">
<feFlood flood-opacity="0" result="BackgroundImageFix"/>
<feColorMatrix in="SourceAlpha" type="matrix" values="0 0 0 0 0 0 0 0 0 0 0 0 0 0 0 0 0 0 127 0"/>
<feOffset dy="3"/>
<feGaussianBlur stdDeviation="3"/>
<feColorMatrix type="matrix" values="0 0 0 0 1 0 0 0 0 1 0 0 0 0 1 0 0 0 0.275 0"/>
<feBlend mode="normal" in2="BackgroundImageFix" result="effect1_dropShadow"/>
<feBlend mode="normal" in="SourceGraphic" in2="effect1_dropShadow" result="shape"/>
</filter>
</defs>
</svg>
