<svg width="119" height="95" viewBox="0 0 119 95" fill="none" xmlns="http://www.w3.org/2000/svg">
<path opacity="0.136" d="M91.324 18.5439H27.528C12.6163 18.5439 0.527954 30.6323 0.527954 45.5439V67.3849C0.527954 82.2966 12.6163 94.3849 27.528 94.3849H91.324C106.236 94.3849 118.324 82.2966 118.324 67.3849V45.5439C118.324 30.6323 106.236 18.5439 91.324 18.5439Z" fill="#40D876"/>
<path d="M59.4259 0.534913C53.8018 0.533274 48.3255 2.33604 43.8021 5.67817C39.2787 9.02031 35.9468 13.7255 34.2963 19.102C32.6459 24.4785 32.7638 30.2428 34.6329 35.5472C36.502 40.8517 40.0236 45.4167 44.6799 48.5709V65.2889C44.6798 65.6102 44.7602 65.9264 44.9137 66.2086C45.0673 66.4909 45.2891 66.7301 45.5589 66.9046C45.8287 67.079 46.1379 67.1831 46.4583 67.2072C46.7787 67.2314 47.1 67.1749 47.3929 67.0429L59.4259 61.6279L71.4589 67.0429C71.7519 67.1749 72.0732 67.2314 72.3936 67.2072C72.714 67.1831 73.0232 67.079 73.293 66.9046C73.5628 66.7301 73.7846 66.4909 73.9382 66.2086C74.0917 65.9264 74.1721 65.6102 74.1719 65.2889V48.5709C78.8283 45.4167 82.3499 40.8517 84.219 35.5472C86.0881 30.2428 86.206 24.4785 84.5556 19.102C82.9051 13.7255 79.5732 9.02031 75.0498 5.67817C70.5264 2.33604 65.0501 0.533274 59.4259 0.534913ZM70.3259 62.3139L60.2149 57.7649C59.9669 57.6532 59.698 57.5955 59.4259 57.5955C59.1539 57.5955 58.885 57.6532 58.6369 57.7649L48.5269 62.3139V50.7449C49.4929 51.1845 50.4848 51.5648 51.4969 51.8839L51.6689 51.9389C51.7983 51.9789 51.9276 52.0176 52.0569 52.0549L52.3449 52.1379L52.6589 52.2229L53.0269 52.3229L53.2879 52.3869C53.4293 52.4209 53.5713 52.4542 53.7139 52.4869L53.9359 52.5349C54.0919 52.5682 54.2486 52.6016 54.4059 52.6349L54.5979 52.6719C54.7646 52.7026 54.9313 52.7319 55.0979 52.7599L55.2699 52.7889C55.4426 52.8162 55.6163 52.8419 55.7909 52.8659L55.9529 52.8889C56.1289 52.9119 56.3059 52.9329 56.4829 52.9529L56.6409 52.9709C56.8179 52.9899 56.9949 53.0059 57.1729 53.0209L57.3349 53.0349C57.5099 53.0489 57.6859 53.0599 57.8619 53.0699L58.0319 53.0809C58.2099 53.0899 58.3889 53.0969 58.5679 53.1019L58.7289 53.1079C58.9603 53.1139 59.1936 53.1169 59.4289 53.1169C59.6643 53.1169 59.8976 53.1139 60.1289 53.1079L60.2899 53.1019C60.4689 53.0959 60.6479 53.0899 60.8259 53.0809L60.9959 53.0699C61.1719 53.0599 61.3479 53.0489 61.5229 53.0349L61.6849 53.0209C61.8629 53.0059 62.0399 52.9899 62.2169 52.9709L62.3749 52.9529C62.5519 52.9329 62.7289 52.9119 62.9049 52.8889L63.0669 52.8659C63.2409 52.8419 63.4146 52.8162 63.5879 52.7889L63.7599 52.7599C63.9273 52.7319 64.0939 52.7026 64.2599 52.6719L64.4519 52.6349C64.6093 52.6042 64.7659 52.5709 64.9219 52.5349L65.1439 52.4869C65.2866 52.4556 65.4286 52.4222 65.5699 52.3869L65.8309 52.3229C65.9543 52.2922 66.0769 52.2589 66.1989 52.2229L66.5129 52.1379L66.8009 52.0549C66.9309 52.0169 67.0599 51.9789 67.1889 51.9389L67.3609 51.8839C68.3731 51.5649 69.365 51.1845 70.3309 50.7449V62.3139H70.3259ZM66.7489 48.0349L66.5189 48.1139C66.4023 48.1532 66.2849 48.1916 66.1669 48.2289C66.0296 48.2722 65.8919 48.3139 65.7539 48.3539L65.4619 48.4389C65.2793 48.4896 65.0963 48.5382 64.9129 48.5849L64.7069 48.6349C64.5269 48.6782 64.3463 48.7196 64.1649 48.7589L64.0289 48.7889C63.7956 48.8376 63.5623 48.8829 63.3289 48.9249L63.2569 48.9369C63.0449 48.9736 62.8323 49.0069 62.6189 49.0369L62.4749 49.0569C62.2479 49.0879 62.0199 49.1159 61.7919 49.1399H61.7659C61.5266 49.1646 61.2869 49.1852 61.0469 49.2019L60.8899 49.2119C60.7033 49.2239 60.5163 49.2336 60.3289 49.2409L60.1379 49.2479C59.9029 49.2549 59.6669 49.2599 59.4309 49.2599C59.1949 49.2599 58.9589 49.2599 58.7239 49.2479L58.5329 49.2409C58.3456 49.2336 58.1586 49.2239 57.9719 49.2119L57.8149 49.2019C57.5749 49.1846 57.3353 49.1639 57.0959 49.1399H57.0699C56.8419 49.1159 56.6139 49.0879 56.3869 49.0569L56.2429 49.0369C56.0296 49.0062 55.8169 48.9729 55.6049 48.9369L55.5329 48.9249C55.2976 48.8836 55.0643 48.8382 54.8329 48.7889L54.6969 48.7589C54.5156 48.7202 54.3353 48.6789 54.1559 48.6349L53.9499 48.5849C53.7659 48.5389 53.5829 48.4902 53.4009 48.4389L53.1089 48.3539C52.9709 48.3132 52.8333 48.2716 52.6959 48.2289C52.5779 48.1916 52.4606 48.1532 52.3439 48.1139L52.1139 48.0349C47.0969 46.3029 42.8563 42.8486 40.1453 38.2856C37.4343 33.7226 36.4286 28.3463 37.3067 23.1119C38.1848 17.8775 40.8899 13.1238 44.9415 9.69522C48.9931 6.26668 54.1289 4.38531 59.4364 4.38531C64.744 4.38531 69.8798 6.26668 73.9314 9.69522C77.983 13.1238 80.6881 17.8775 81.5662 23.1119C82.4443 28.3463 81.4386 33.7226 78.7276 38.2856C76.0166 42.8486 71.776 46.3029 66.7589 48.0349H66.7489Z" fill="#40D876"/>
<path d="M70.8369 26.8209L74.4499 20.0309C74.6034 19.7428 74.681 19.4204 74.6755 19.0941C74.6699 18.7677 74.5814 18.4482 74.4183 18.1655C74.2551 17.8828 74.0227 17.6463 73.7429 17.4782C73.4631 17.3102 73.1451 17.2161 72.8189 17.2049L65.1319 16.9389L61.0579 10.4149C60.8851 10.1379 60.6447 9.90954 60.3593 9.7512C60.0739 9.59285 59.7528 9.50977 59.4264 9.50977C59.1 9.50977 58.779 9.59285 58.4936 9.7512C58.2081 9.90954 57.9677 10.1379 57.7949 10.4149L53.7209 16.9389L46.0339 17.2049C45.7077 17.2161 45.3898 17.3102 45.11 17.4782C44.8302 17.6463 44.5978 17.8828 44.4346 18.1655C44.2715 18.4482 44.1829 18.7677 44.1774 19.0941C44.1719 19.4204 44.2495 19.7428 44.4029 20.0309L48.0159 26.8209L44.4029 33.6109C44.2495 33.8989 44.1719 34.2213 44.1774 34.5476C44.1829 34.874 44.2715 35.1936 44.4346 35.4762C44.5978 35.7589 44.8302 35.9954 45.11 36.1635C45.3898 36.3315 45.7077 36.4256 46.0339 36.4369L53.7209 36.7029L57.7949 43.2269C57.9677 43.5038 58.2081 43.7322 58.4936 43.8905C58.779 44.0489 59.1 44.132 59.4264 44.132C59.7528 44.132 60.0739 44.0489 60.3593 43.8905C60.6447 43.7322 60.8851 43.5038 61.0579 43.2269L65.1319 36.7029L72.8189 36.4369C73.1451 36.4256 73.4631 36.3315 73.7429 36.1635C74.0227 35.9954 74.2551 35.7589 74.4183 35.4762C74.5814 35.1936 74.6699 34.874 74.6755 34.5476C74.681 34.2213 74.6034 33.8989 74.4499 33.6109L70.8369 26.8209ZM63.9759 32.8939C63.6613 32.9043 63.3541 32.9919 63.0813 33.1488C62.8084 33.3057 62.5782 33.5272 62.4109 33.7939L59.4259 38.5739L56.4409 33.7949C56.2736 33.5283 56.0434 33.3068 55.7705 33.1499C55.4977 32.993 55.1905 32.9054 54.8759 32.8949L49.2449 32.6949L51.8919 27.7209C52.0401 27.4427 52.1175 27.1325 52.1175 26.8174C52.1175 26.5023 52.0401 26.192 51.8919 25.9139L49.2449 20.9399L54.8759 20.7399C55.1905 20.7294 55.4978 20.6419 55.7706 20.4849C56.0435 20.328 56.2737 20.1065 56.4409 19.8399L59.4259 15.0609L62.4109 19.8399C62.5783 20.1064 62.8085 20.3279 63.0813 20.4848C63.3542 20.6417 63.6613 20.7293 63.9759 20.7399L69.6069 20.9399L66.9599 25.9139C66.8119 26.192 66.7345 26.5023 66.7345 26.8174C66.7345 27.1325 66.8119 27.4427 66.9599 27.7209L69.6069 32.6959L63.9759 32.8939Z" fill="#40D876"/>
</svg>
