<svg width="167" height="244" viewBox="0 0 167 244" fill="none" xmlns="http://www.w3.org/2000/svg">
<path d="M65.345 0.194349C61.0951 1.24065 57.9255 4.93338 57.4671 9.34694L57.2387 11.3407L53.6108 12.4518C23.2441 21.9315 5.98523 27.4885 4.87417 28.1429C3.14113 29.1568 1.5393 30.9546 0.65829 32.8819C0.135138 34.0254 -0.0284532 35.0069 0.00392423 37.0007C0.00392423 39.5176 0.527076 41.2507 13.1764 81.2913C20.4 104.204 28.9647 131.432 32.2331 141.76C35.4692 152.089 38.4104 161.11 38.7376 161.765C39.6527 163.562 41.5152 165.263 43.5755 166.243C45.0461 166.897 45.8964 167.093 47.8578 167.093C50.1787 167.093 52.1401 166.505 83.1594 156.732L116.009 146.338L137.746 146.273L159.483 146.174L161.118 145.358C163.21 144.344 165.172 142.384 166.184 140.292L167 138.657V73.1186V7.58152L166.184 5.9473C165.17 3.8547 163.208 1.89501 161.118 0.881089L159.483 0.0648461L112.906 7.7893e-05C87.2782 -0.00162618 65.9006 0.0648394 65.345 0.194349ZM159.514 5.98139C160.005 6.34095 160.724 7.06006 161.083 7.55083L161.77 8.43356V73.1203V137.807L161.083 138.69C160.724 139.18 160.005 139.9 159.514 140.259C158.631 140.946 158.567 140.946 112.25 140.946C65.9329 140.946 65.8682 140.946 64.9855 140.259C64.4947 139.9 63.7756 139.18 63.416 138.69L62.7293 137.807V73.151V8.49831L63.6767 7.28841C64.1999 6.60167 65.0826 5.85017 65.6381 5.58945C66.4885 5.22989 74.3988 5.16514 112.642 5.22989C158.502 5.29465 158.633 5.29464 159.514 5.98139ZM57.3359 39.5824V62.267L55.9624 62.1034C54.1646 61.9075 50.2742 62.7254 48.0197 63.77C44.6848 65.273 42.0708 68.3795 41.1233 71.8763C40.5354 74.1308 40.5354 78.316 41.1557 80.9301C41.9072 84.0025 43.9998 87.7617 46.2543 90.115C48.3128 92.2059 52.2356 94.9529 55.4392 96.5224L57.3018 97.4374L57.4006 118.03L57.4995 138.656L58.3174 140.29C59.3313 142.382 61.2927 144.344 63.3836 145.356L65.0178 146.172L81.5576 146.336L98.0974 146.5L73.3866 154.279C59.7897 158.529 48.2514 162.025 47.6942 162.025C46.3548 162.025 44.2622 160.751 43.5755 159.573C43.2483 159.018 35.6328 135.123 26.6114 106.457C17.59 77.7912 9.0253 50.5634 7.58706 45.9863C5.52854 39.4171 5.00539 37.3892 5.1349 36.377C5.33087 35.0035 6.08236 33.7953 7.35701 32.8461C8.04376 32.323 55.7323 17.0255 56.9422 16.9284C57.2387 16.8977 57.3359 21.6367 57.3359 39.5824Z" fill="black"/>
<path d="M70.706 15.0027C69.7262 17.5843 68.6799 19.9377 68.3851 20.2325C67.4376 21.1799 67.6983 21.4747 69.4314 21.4747C70.6089 21.4747 71.0656 21.3435 71.0656 21.0163C71.0656 20.7539 70.8696 20.4932 70.6737 20.3961C70.3465 20.2972 70.3465 20.0365 70.5748 19.3174C70.902 18.4023 70.9668 18.3699 73.1565 18.3699C75.3786 18.3699 75.4451 18.4023 75.7382 19.3174C75.9665 20.0365 75.9665 20.3313 75.7058 20.4284C75.4775 20.4932 75.3139 20.7556 75.3139 21.0163C75.3139 21.3435 75.7723 21.4747 76.9481 21.4747C78.1903 21.4747 78.5823 21.3435 78.5823 20.984C78.5823 20.7232 78.3863 20.4932 78.1239 20.4932C77.8291 20.4932 76.9464 18.5983 75.7706 15.427C73.223 8.69417 73.0917 8.66009 70.706 15.0027ZM74.6271 16.4733C74.6595 16.7681 74.1363 16.8976 73.0253 16.8976H71.4235L72.2073 14.7726C72.6657 13.5951 73.0253 12.5181 73.0577 12.3869C73.0917 12.0597 74.6271 16.0149 74.6271 16.4733Z" fill="black"/>
<path d="M70.7061 26.6057C68.0903 29.2862 67.5024 30.4961 68.0903 32.0315C68.6134 33.405 69.8881 34.0576 71.2616 33.6333C72.5038 33.2738 72.601 33.405 71.916 35.0392L71.4252 36.1826H73.0594C73.9421 36.1826 74.6612 36.1179 74.6612 36.0514C74.6612 35.9866 74.4329 35.3323 74.1704 34.5808C73.712 33.2073 73.712 33.2073 74.4312 33.4697C76.7197 34.2536 78.2551 33.1749 78.2551 30.7568C78.2551 29.3834 78.0915 29.155 75.7382 26.6705L73.1889 24.0223L70.7061 26.6057Z" fill="black"/>
<path d="M108.359 43.3416C106.366 45.4665 102.705 49.0298 100.221 51.2519C90.6437 59.9137 88.1592 62.6266 86.1007 66.8101C84.5636 70.0138 84.0421 72.6943 84.2381 76.7142C84.5005 82.2388 86.3307 86.194 89.8599 88.8745C92.312 90.737 94.1746 91.2602 98.1945 91.2278C102.117 91.2278 104.307 90.5734 107.248 88.6461C108.458 87.8299 108.981 87.6322 108.981 87.9594C108.981 89.0057 106.563 96.3929 104.927 100.316L103.194 104.499H112.282H121.37L120.226 102.015C118.853 98.9745 117.023 93.8436 116.009 90.0844L115.257 87.2726L117.284 88.6461C120.192 90.6075 122.546 91.2619 126.469 91.2619C130.325 91.2619 132.221 90.7064 134.64 88.8762C138.169 86.1957 139.968 82.2729 140.261 76.7159C140.457 72.6295 139.934 69.9831 138.268 66.6806C136.11 62.3659 133.888 59.9137 124.277 51.2519C121.793 49.0298 118.132 45.4665 116.138 43.3416C114.145 41.1842 112.379 39.4511 112.248 39.4511C112.117 39.4511 110.355 41.1842 108.359 43.3416Z" fill="black"/>
<path d="M149.84 110.186C149.84 110.252 150.068 110.937 150.331 111.689C150.789 112.963 150.789 113.062 150.232 112.832C148.042 111.885 146.244 112.897 146.244 115.121C146.244 116.755 146.866 117.769 149.284 120.09L151.409 122.083L153.862 119.599C156.51 116.854 157.065 115.611 156.314 114.074C155.659 112.703 154.352 112.113 153.078 112.571C151.967 112.996 151.999 113.127 152.652 110.774C152.848 110.119 152.751 110.054 151.345 110.054C150.527 110.054 149.84 110.121 149.84 110.186Z" fill="black"/>
<path d="M145.917 125.253C145.917 125.514 146.113 125.744 146.376 125.744C146.67 125.744 147.553 127.64 148.729 130.81C151.311 137.577 151.343 137.577 153.926 130.81C155.037 127.933 156.051 125.744 156.28 125.744C156.508 125.744 156.704 125.515 156.704 125.253C156.704 124.893 156.312 124.762 155.07 124.762C153.86 124.762 153.436 124.893 153.436 125.219C153.436 125.481 153.632 125.742 153.894 125.808C154.318 125.906 154.318 126.069 153.926 126.984L153.468 128.063L151.278 127.964C149.153 127.867 149.056 127.833 148.761 126.885C148.533 126.199 148.533 125.906 148.826 125.807C149.022 125.742 149.186 125.48 149.186 125.217C149.186 124.89 148.727 124.76 147.551 124.76C146.309 124.764 145.917 124.893 145.917 125.253ZM153.01 129.406C152.945 129.634 152.519 130.778 152.127 131.89L151.375 133.983L150.591 131.957C149.513 129.08 149.545 129.016 151.507 129.016C152.716 129.012 153.141 129.143 153.01 129.406Z" fill="black"/>
<path d="M15.2043 35.4959C14.8771 35.7243 14.6811 37.1301 14.4528 40.7905C14.2892 43.5681 13.9944 46.1515 13.7984 46.5435C13.3076 47.5574 13.4712 47.6221 15.1054 47.1978C16.4125 46.8383 17.0345 45.9879 15.9882 45.9879C15.661 45.9879 15.4974 45.6284 15.4974 44.8445C15.4974 43.7334 15.5298 43.7011 17.6547 43.0467C18.8323 42.6871 19.8445 42.3923 19.9092 42.3923C19.9416 42.3923 20.2364 42.7843 20.5636 43.2427C21.022 43.9618 21.0544 44.1577 20.6948 44.3861C19.7797 44.9416 20.826 45.3336 22.2967 44.9416C23.6037 44.6144 24.258 43.6993 23.1794 43.6993C22.9186 43.6993 21.218 41.8368 19.4202 39.5158C17.59 37.2273 16.0205 35.3323 15.8893 35.2983C15.7598 35.2352 15.465 35.3323 15.2043 35.4959ZM17.59 39.3863L19.0606 41.3153L17.4264 41.8061L15.8246 42.3293V39.9112C15.8246 38.5718 15.8893 37.4931 15.9558 37.4931C16.0529 37.4897 16.772 38.34 17.59 39.3863Z" fill="black"/>
<path d="M21.3168 48.1129C20.826 48.3736 20.3693 48.8967 20.2381 49.2563C20.0098 49.9754 19.5838 50.1066 19.2583 49.5835C19.1611 49.3875 18.5392 49.2563 17.9189 49.2563C16.4806 49.2563 15.1736 50.4662 15.1736 51.7732C15.1736 53.5386 16.2847 54.7144 19.3895 56.2839L22.3307 57.7545L23.769 55.0416C25.6315 51.642 25.7627 51.1512 25.306 49.7471C24.65 47.7874 23.1146 47.1654 21.3168 48.1129Z" fill="black"/>
<path d="M86.2186 244C85.6943 244 85.1647 243.891 84.6615 243.675C65.3414 235.349 56.5265 214.133 63.2196 192.087C69.3744 171.876 84.451 161.634 108.032 161.634H110.689L110.694 149.941C110.694 148.353 111.644 146.918 113.109 146.303C114.567 145.701 116.258 146.01 117.392 147.115L149.808 178.771C150.574 179.517 151 180.534 151 181.598C151 182.661 150.574 183.68 149.808 184.424L117.387 216.086C116.253 217.186 114.567 217.505 113.109 216.898C111.644 216.286 110.694 214.858 110.689 213.27L110.652 200.879C103.834 199.861 97.8443 201.449 93.2063 205.582C87.19 210.938 84.6948 219.454 85.3927 224.749C86.3746 232.079 89.6467 238.088 89.6765 238.144C90.4883 239.625 90.2779 241.46 89.1417 242.709C88.3771 243.547 87.3092 244 86.2186 244ZM108.032 169.529C88.0527 169.529 75.8624 177.661 70.772 194.385C66.5653 208.242 69.6988 221.642 78.3804 230.149C78.056 228.767 77.7737 227.307 77.5738 225.791C76.6076 218.528 79.4483 207.261 87.9563 199.686C93.0835 195.121 102.032 190.408 115.558 193.826C117.299 194.273 118.527 195.84 118.532 197.645L118.553 203.915L141.403 181.598L118.579 159.306V165.587C118.579 167.766 116.812 169.534 114.634 169.534C114.567 169.534 114.496 169.534 114.429 169.529H108.032Z" fill="black"/>
</svg>
