<svg fill="none" height="125" viewBox="0 0 124 125" width="124" xmlns="http://www.w3.org/2000/svg"><g fill="#c8923b"><path d="m13.6747 64.3028c-.7846-.7846-.9423-1.1452-.9423-2.1554 0-1.3852.5126-2.2658 1.6659-2.8622 1.6314-.8436 3.5097-.223 4.2879 1.4169.5309 1.1188.5309 1.8623-.0002 2.8892-.5187 1.0031-1.7217 1.6537-3.0577 1.6537-.7807 0-1.2263-.2149-1.9536-.9422z"/><path d="m37.8125 24.9499c-1.2344-.5449-1.8507-1.3853-2.0023-2.7305-.1137-1.0084-.0177-1.3418.5961-2.0713 1.4887-1.7692 3.5347-1.7764 5.0145-.0178 1.3473 1.6012.6496 3.9577-1.4289 4.8262-1.0968.4582-1.1265.4581-2.1794-.0066z"/><path d="m82.9568 24.1192c-1.0619-1.0619-1.25-2.3699-.5388-3.7453.5301-1.0251 2.1452-1.7899 3.3162-1.5702 1.9512.3661 3.168 2.7976 2.2695 4.5352-.6252 1.2091-1.4871 1.7225-2.8915 1.7225-1.0102 0-1.3708-.1576-2.1554-.9422z"/><path d="m106.956 64.7709c-1.213-.6201-2.061-2.2231-1.801-3.4054.1-.4584.556-1.2072 1.013-1.6639 1.196-1.1958 3.151-1.1958 4.347 0 1.054 1.0533 1.303 2.1521.775 3.4147-.738 1.7681-2.67 2.5054-4.334 1.6546z"/><path d="m83.1738 104.368c-.9807-.917-1.3721-2.447-.8729-3.413.5985-1.1592 1.4432-1.8877 2.3953-2.0663 1.9756-.3706 3.6923 1.1243 3.6923 3.2153 0 .953-.1701 1.333-.9422 2.105-.7921.792-1.1408.943-2.1878.943-.9846 0-1.4212-.165-2.0847-.784z"/><path d="m37.7642 105.024c-2.5629-1.115-2.4842-4.79.1259-5.881 3.751-1.5673 6.105 4.101 2.4278 5.846-1.1128.528-1.4112.532-2.5537.035z"/></g><path d="m9.28813 79.4106c-.31099-.5032-1.78641-6.6293-2.1435-8.9001-.57433-3.6522-.49223-14.7136.13267-17.8748.65438-3.3104 1.81474-7.6941 2.11649-7.9959.21082-.2108 17.32531 5.2919 18.21331 5.856.2464.1566.2286.6091-.0737 1.8661-1.5785 6.5656-1.6052 12.764-.0808 18.8042.3025 1.1989.5126 2.2127.4667 2.2529-.1562.1369-17.99263 6.2367-18.23668 6.2367-.13365 0-.31117-.1103-.39449-.2451zm8.86697-14.568c1.8703-1.2254 1.575-4.7939-.4849-5.8591-1.2135-.6275-3.3473-.4015-4.2544.4507-1.9524 1.8342-1.1192 5.3666 1.4282 6.0552.9522.2574 2.3469-.015 3.3111-.6468z" fill="#168348"/><path d="m33.2379 36.5239c-.9896-.8595-4.2753-3.7432-7.3015-6.4083l-5.5023-4.8457 2.3153-2.3423c6.7838-6.8629 15.2504-11.8189 24.5407-14.36505 1.9269-.52811 3.5923-.96019 3.701-.96019.3078 0 3.9464 18.87774 3.683 19.10824-.1286.1126-1.5427.6124-3.1424 1.1107-5.3224 1.6579-10.0252 4.4067-14.1748 8.2852-1.1651 1.089-2.1637 1.98-2.2191 1.98-.0553 0-.9103-.7032-1.8999-1.5626zm7.1525-11.2955c2.3936-1.2378 2.8048-4.01.8698-5.8638-.7318-.7012-1.0657-.8157-2.3786-.8157-1.4098 0-1.6003.0797-2.476 1.0352-.8041.8775-.9486 1.2375-.9486 2.3632 0 1.5039.4769 2.3518 1.7644 3.1369 1.0289.6274 2.1371.6778 3.169.1442z" fill="#168348"/><path d="m87.2705 36.5302c-3.9198-4.0273-9.355-7.2001-15.3712-8.9729-2.3147-.682-2.488-.7833-2.4092-1.4075.2432-1.9269 3.4507-18.16225 3.6235-18.3412.1113-.11521 1.5538.17002 3.2056.63384 10.2504 2.87826 18.052 7.38986 25.0688 14.49696l2.33 2.3601-1.499 1.3691c-2.9646 2.7086-13.0725 11.4179-13.2512 11.4179-.1004 0-.8642-.7003-1.6973-1.5563zm-1.0487-11.1916c.3076 0 .9985-.4392 1.5354-.9761.9319-.9319.9702-1.0466.8463-2.5398-.1133-1.3661-.2571-1.6806-1.1382-2.488-.8212-.7526-1.2335-.9243-2.2188-.9243-3.2741 0-4.9186 3.8614-2.58 6.0584.7167.6733 2.036 1.1677 2.6269.9843.203-.063.6208-.1145.9284-.1145z" fill="#168348"/><path d="m105.134 76.56-8.8893-3.0687.688-2.8068c.6211-2.5334.6884-3.3735.6909-8.6264.0025-5.2586-.0636-6.0923-.6852-8.6463l-.688-2.8265 5.6226-1.943c7.178-2.4808 12.836-4.2813 12.984-4.1325.306.3056 1.819 6.8699 2.23 9.676.367 2.5009.435 4.431.324 9.2572-.141 6.1604-.396 8.232-1.583 12.8738-.677 2.6481-.984 3.3448-1.468 3.3254-.186-.0074-4.337-1.3944-9.226-3.0822zm4.897-11.467c1.757-.9086 2.423-3.3037 1.391-4.997-.552-.9046-2.066-1.7792-3.08-1.7792-1.026 0-2.456.8429-3.044 1.7943-1.888 3.0549 1.52 6.643 4.733 4.9819z" fill="#168348"/><path d="m73.0408 116.29c-.1674-.271-3.8052-18.9657-3.7057-19.044.0385-.0304 1.2548-.3912 2.7028-.8018 5.2364-1.485 10.6106-4.5509 14.6686-8.3685 1.225-1.1523 2.3424-2.0529 2.4831-2.0013.1408.0516 3.0188 2.5257 6.3957 5.4979 3.377 2.9722 6.5997 5.8047 7.1617 6.2946l1.022.8906-1.663 1.7035c-7.348 7.53-15.559 12.427-25.3349 15.109-3.9487 1.083-3.5533 1.006-3.7303.72zm14.166-11.314c1.0184-.635 1.5476-1.699 1.5268-3.069-.0324-2.1462-1.3699-3.3948-3.6443-3.4024-1.0682-.0034-1.3538.1358-2.2863 1.1161-.8725.9173-1.0656 1.3213-1.0656 2.2303 0 1.173.5045 2.407 1.2305 3.01 1.0075.836 2.9968.89 4.2389.115z" fill="#168348"/><path d="m46.8192 115.402c-6.6019-2.037-11.5273-4.353-16.2562-7.645-2.3736-1.652-7.0661-5.708-9.2143-7.9654l-.9446-.9925.5716-.4957c.3144-.2727 3.5755-3.1458 7.2469-6.3847 3.6714-3.239 6.7498-5.889 6.8408-5.889.0911 0 1.121.8802 2.2888 1.9561 4.2362 3.903 9.6292 6.9887 14.7868 8.4609 1.4181.4047 2.6217.7743 2.6746.8213.1337.1188-2.9412 16.005-3.4436 17.791-.2251.8-.5617 1.445-.748 1.434-.1863-.012-1.8975-.503-3.8028-1.091zm-5.8723-10.258c2.7575-1.681 1.8165-6.2044-1.3654-6.5631-1.5541-.1752-2.8176.4122-3.5815 1.6651-1.9439 3.188 1.751 6.847 4.9469 4.898z" fill="#168348"/><path d="m57.0446 124.078c-19.5043-1.825-36.1294-11.726-46.9737-27.9756-4.70458-7.0495-8.16178-16.075-9.563954-24.9682-.674405-4.2773-.676283-14.0931-.003488-18.2364 2.169612-13.3611 8.122802-25.095 17.513542-34.5194 5.3649-5.3842 9.6842-8.49753 16.5013-11.89412 17.2994-8.61936 37.3166-8.64685 54.7207-.07514 6.8735 3.38527 11.394 6.65166 16.905 12.21526 9.677 9.7697 15.442 21.5221 17.478 35.6309.644 4.4576.435 14.0615-.4 18.4713-4.156 21.9304-18.406 39.2554-38.9326 47.3324-8.1021 3.189-18.9748 4.792-27.2448 4.019zm22.772-8.624c6.8068-2.186 13.843-6.245 19.2782-11.122 4.1172-3.695 5.3352-5.0363 5.1162-5.6353-.104-.2837-1.332-1.5294-2.73-2.7682-4.5316-4.0148-10.2725-9.0213-11.4961-10.0251l-1.194-.9794-2.1316 2.1011c-4.0162 3.959-8.7755 6.8408-14.0623 8.5151-3.7727 1.1947-4.1627 1.4103-4.0519 2.2392.3782 2.8296 3.7486 19.2746 3.9794 19.4166.4062.251 3.05-.381 7.2921-1.742zm-28.1815 1.023c.4075-.894 3.6557-17.6134 3.6557-18.8164 0-.904-.0359-.9312-1.8707-1.4188-5.8308-1.5496-11.4071-4.7036-15.996-9.0473l-2.3455-2.2203-2.2954 1.9341c-4.4193 3.7237-13.0711 11.5533-13.1936 11.9397-.1411.4451 4.5595 5.082 7.6487 7.545 5.4795 4.37 11.4217 7.396 19.1843 9.771 3.9198 1.199 4.7851 1.251 5.2125.313zm-33.9851-38.6926c4.4696-1.5394 8.7189-2.9973 9.4429-3.2399 1.557-.5216 1.572-.6033.7546-4.1087-1.1798-5.0601-1.1876-11.6318-.0195-16.548.8547-3.5974.8438-3.6508-.8736-4.2922-2.5306-.945-16.3811-5.5228-17.30278-5.7189l-.88289-.1878-.69199 2.1906c-2.76183 8.7428-3.04804 20.5001-.72482 29.7764.88851 3.5477 1.39214 4.9273 1.7987 4.9273.20508 0 4.02978-1.2594 8.49938-2.7988zm97.752 2.0516c.579-1.2717 1.891-6.7402 2.281-9.5065.549-3.9045.479-13.2773-.126-16.9292-.561-3.3799-2.015-9.1174-2.412-9.5143-.175-.1748-2.585.4929-6.852 1.8982-10.828 3.5657-12.8186 4.3159-12.8186 4.8306 0 .2519.3353 1.8913.7451 3.6431.6509 2.7822.7449 3.7636.7427 7.7577-.0021 3.7108-.119 5.095-.6207 7.3439-1.0693 4.7936-1.0694 4.6912.0045 5.047.5113.1694 4.733 1.6221 9.382 3.228 4.649 1.606 8.651 2.9265 8.893 2.9344s.594-.3219.781-.7329zm-77.5298-43.1863c4.4694-4.0765 8.6961-6.5037 14.4394-8.292 1.791-.5577 3.2563-1.1225 3.2563-1.2553 0-1.0293-3.9294-19.81755-4.1766-19.97034-.4319-.26688-3.3204.40944-7.3242 1.7149-6.0801 1.98244-13.4103 6.07814-18.2905 10.21974-2.566 2.1776-6.2354 5.8981-6.2354 6.3221 0 .4306 15.0079 13.6252 15.4976 13.6252.1327 0 1.4077-1.0639 2.8334-2.3643zm55.9163-1.6033c6.1901-5.3183 10.2905-9.0485 10.4755-9.5288.301-.7842-6.1514-6.8215-10.401-9.7321-4.9425-3.3852-11.6512-6.44862-17.3594-7.92685-4.5748-1.18471-3.958-1.90391-5.6255 6.56015-1.9769 10.0351-2.3742 12.3242-2.2121 12.7465.0769.2005 1.1831.661 2.4583 1.0235 3.1627.8989 6.7147 2.4485 9.2853 4.0506 2.2389 1.3955 6.4303 4.7703 7.5266 6.0603.3504.4123.8078.7106 1.0164.6627.2085-.0478 2.3847-1.81 4.8359-3.916z" fill="#c8923b"/></svg>