<svg viewBox="0 0 180 252" xmlns="http://www.w3.org/2000/svg"><path d="m180 9a9 9 0 0 0 -9-9h-162a9 9 0 0 0 -9 9v234a9 9 0 0 0 9 9h162a9 9 0 0 0 9-9z" fill="#fff"/><path d="m138.66 186 2.78 2.78 3.89-3.89-3.89-3.9-2.78 2.79a2.71 2.71 0 0 0 -1.29-1.3l2.78-2.77-3.89-3.89-3.89 3.89 2.78 2.77a2.67 2.67 0 0 0 -1.29 1.3l-2.78-2.78-3.89 3.89 3.89 3.89 2.78-2.78a2.69 2.69 0 0 0 1.29 1.29l-2.78 2.71 3.89 3.89 3.89-3.89-2.78-2.78a2.74 2.74 0 0 0 1.29-1.22z" fill="#2b3990"/><path d="m115.51 186 2.78 2.78 3.89-3.89-3.89-3.9-2.78 2.79a2.67 2.67 0 0 0 -1.29-1.3l2.78-2.77-3.89-3.89-3.89 3.89 2.78 2.77a2.67 2.67 0 0 0 -1.29 1.3l-2.78-2.78-3.93 3.86 3.89 3.89 2.78-2.78a2.69 2.69 0 0 0 1.29 1.29l-2.74 2.74 3.89 3.89 3.89-3.89-2.78-2.78a2.65 2.65 0 0 0 1.29-1.22z" fill="#2b3990"/><path d="m150.3 174.19 2.78 2.77 3.89-3.88-3.89-3.9-2.78 2.82a2.67 2.67 0 0 0 -1.29-1.3l2.78-2.77-3.89-3.93-3.9 3.9 2.78 2.77a2.76 2.76 0 0 0 -1.29 1.3l-2.78-2.78-3.89 3.89 3.89 3.89 2.78-2.78a2.78 2.78 0 0 0 1.29 1.29l-2.78 2.78 3.89 3.89 3.89-3.89-2.78-2.78a2.65 2.65 0 0 0 1.3-1.29z" fill="#2b3990"/><path d="m161.81 162.43 2.78 2.77 3.89-3.88-3.89-3.9-2.78 2.78a2.78 2.78 0 0 0 -1.29-1.29l2.78-2.78-3.89-3.89-3.89 3.89 2.78 2.78a2.67 2.67 0 0 0 -1.29 1.3l-2.79-2.79-3.89 3.9 3.89 3.88 2.79-2.77a2.63 2.63 0 0 0 1.29 1.28l-2.78 2.79 3.89 3.89 3.89-3.89-2.78-2.79a2.72 2.72 0 0 0 1.29-1.28z" fill="#2b3990"/><path d="m32.17 182.15 3.89-3.89-2.78-2.78a2.74 2.74 0 0 0 1.29-1.29l2.78 2.81 3.89-3.88-3.89-3.9-2.78 2.78a2.76 2.76 0 0 0 -1.29-1.3l2.78-2.77-3.89-3.93-3.89 3.89 2.78 2.77a2.67 2.67 0 0 0 -1.29 1.3l-2.77-2.77-3.89 3.89 3.89 3.92 2.78-2.78a2.69 2.69 0 0 0 1.29 1.29l-2.78 2.78z" fill="#2b3990"/><path d="m20.52 170.39 3.89-3.9-2.78-2.78a2.61 2.61 0 0 0 1.29-1.29l2.78 2.78 3.9-3.88-3.9-3.9-2.77 2.78a2.74 2.74 0 0 0 -1.29-1.29l2.78-2.78-3.9-3.89-3.88 3.89 2.77 2.78a2.72 2.72 0 0 0 -1.29 1.3l-2.78-2.79-3.89 3.9 3.89 3.88 2.78-2.78a2.69 2.69 0 0 0 1.29 1.29l-2.77 2.78z" fill="#2b3990"/><path d="m159.41 58.07-3.89 3.93 2.78 2.78a2.63 2.63 0 0 0 -1.3 1.22l-2.79-2.79-3.89 3.9 3.9 3.89 2.78-2.75a2.61 2.61 0 0 0 1.29 1.29l-2.78 2.79 3.89 3.89 3.89-3.89-2.78-2.79a2.69 2.69 0 0 0 1.29-1.29l2.79 2.75 3.89-3.88-3.89-3.9-2.78 2.78a2.74 2.74 0 0 0 -1.29-1.29l2.78-2.71z" fill="#2b3990"/><path d="m69.22 186 2.78 2.75 3.89-3.89-3.89-3.86-2.78 2.79a2.76 2.76 0 0 0 -1.29-1.3l2.78-2.77-3.89-3.89-3.89 3.89 2.78 2.77a2.67 2.67 0 0 0 -1.29 1.3l-2.78-2.79-3.89 3.89 3.89 3.89 2.78-2.78a2.69 2.69 0 0 0 1.29 1.29l-2.78 2.71 3.89 3.89 3.89-3.89-2.78-2.78a2.74 2.74 0 0 0 1.29-1.22z" fill="#2b3990"/><path d="m92.36 186 2.78 2.78 3.9-3.89-3.9-3.9-2.77 2.79a2.76 2.76 0 0 0 -1.29-1.3l2.78-2.77-3.86-3.92-3.9 3.89 2.78 2.77a2.76 2.76 0 0 0 -1.29 1.3l-2.81-2.75-3.89 3.89 3.89 3.89 2.78-2.78a2.78 2.78 0 0 0 1.29 1.29l-2.78 2.71 3.9 3.89 3.89-3.89-2.78-2.78a2.67 2.67 0 0 0 1.28-1.22z" fill="#2b3990"/><path d="m46.07 186 2.78 2.78 3.89-3.89-3.89-3.89-2.78 2.79a2.67 2.67 0 0 0 -1.29-1.3l2.78-2.77-3.89-3.89-3.89 3.89 2.78 2.77a2.67 2.67 0 0 0 -1.29 1.3l-2.78-2.79-3.89 3.89 3.89 3.89 2.78-2.78a2.69 2.69 0 0 0 1.29 1.29l-2.78 2.71 3.89 3.89 3.89-3.89-2.78-2.78a2.65 2.65 0 0 0 1.29-1.22z" fill="#2b3990"/><path d="m64.42 42.49-2.78-2.78-3.89 3.89 3.89 3.89 2.78-2.78a2.61 2.61 0 0 0 1.29 1.29l-2.78 2.78 3.89 3.89 3.89-3.89-2.78-2.78a2.69 2.69 0 0 0 1.29-1.29l2.78 2.78 3.89-3.89-3.89-3.89-2.78 2.78a2.65 2.65 0 0 0 -1.29-1.29l2.78-2.78-3.89-3.89-3.89 3.89 2.78 2.78a2.61 2.61 0 0 0 -1.29 1.29z" fill="#2b3990"/><path d="m29.77 54.26-2.77-2.79-3.9 3.89 3.9 3.89 2.78-2.78a2.61 2.61 0 0 0 1.29 1.29l-2.78 2.78 3.89 3.89 3.89-3.89-2.78-2.78a2.65 2.65 0 0 0 1.29-1.29l2.78 2.78 3.89-3.89-3.89-3.89-2.78 2.78a2.74 2.74 0 0 0 -1.3-1.25l2.78-2.78-3.89-3.89-3.89 3.89 2.78 2.78a2.63 2.63 0 0 0 -1.29 1.26z" fill="#2b3990"/><path d="m147.9 46.29-3.9 3.89 2.79 2.82a2.72 2.72 0 0 0 -1.29 1.3l-2.78-2.79-3.89 3.89 3.89 3.89 2.78-2.78a2.69 2.69 0 0 0 1.29 1.29l-2.79 2.74 3.89 3.89 3.89-3.89-2.78-2.78a2.61 2.61 0 0 0 1.29-1.29l2.78 2.78 3.93-3.89-3.89-3.89-2.78 2.78a2.65 2.65 0 0 0 -1.33-1.25l2.78-2.78z" fill="#2b3990"/><path d="m18.12 66-2.78-2.79-3.89 3.9 3.89 3.89 2.78-2.78a2.67 2.67 0 0 0 1.3 1.29l-2.78 2.78 3.89 3.89 3.89-3.89-2.79-2.78a2.67 2.67 0 0 0 1.3-1.29l2.77 2.78 3.9-3.88-3.9-3.9-2.77 2.78a2.74 2.74 0 0 0 -1.29-1.29l2.78-2.71-3.89-3.89-3.89 3.89 2.78 2.78a2.69 2.69 0 0 0 -1.3 1.22z" fill="#2b3990"/><path d="m41.27 42.49-2.78-2.78-3.89 3.89 3.89 3.89 2.78-2.78a2.65 2.65 0 0 0 1.29 1.29l-2.78 2.78 3.89 3.89 3.89-3.89-2.78-2.78a2.65 2.65 0 0 0 1.29-1.29l2.78 2.78 3.89-3.89-3.89-3.89-2.78 2.78a2.61 2.61 0 0 0 -1.29-1.29l2.78-2.78-3.89-3.89-3.89 3.89 2.78 2.78a2.65 2.65 0 0 0 -1.29 1.29z" fill="#2b3990"/><path d="m20.52 193.93 3.89-3.93-2.78-2.78a2.65 2.65 0 0 0 1.29-1.22l2.78 2.78 3.9-3.89-3.9-3.89-2.77 2.79a2.76 2.76 0 0 0 -1.29-1.3l2.78-2.78-3.9-3.89-3.88 3.89 2.77 2.78a2.76 2.76 0 0 0 -1.29 1.3l-2.78-2.79-3.89 3.9 3.89 3.89 2.78-2.79a2.78 2.78 0 0 0 1.29 1.29l-2.77 2.71z" fill="#2b3990"/><path d="m133.86 42.49-2.78-2.78-3.89 3.89 3.89 3.89 2.78-2.78a2.61 2.61 0 0 0 1.29 1.29l-2.78 2.78 3.89 3.89 3.89-3.89-2.78-2.78a2.74 2.74 0 0 0 1.29-1.29l2.78 2.78 3.89-3.89-3.89-3.89-2.78 2.78a2.65 2.65 0 0 0 -1.29-1.29l2.78-2.78-3.89-3.89-3.89 3.89 2.78 2.78a2.61 2.61 0 0 0 -1.29 1.29z" fill="#2b3990"/><path d="m110.71 42.49-2.78-2.78-3.93 3.89 3.89 3.89 2.78-2.78a2.69 2.69 0 0 0 1.33 1.29l-2.78 2.78 3.89 3.89 3.89-3.89-2.78-2.78a2.65 2.65 0 0 0 1.29-1.29l2.78 2.78 3.89-3.89-3.89-3.89-2.77 2.78a2.67 2.67 0 0 0 -1.3-1.29l2.78-2.78-3.89-3.89-3.89 3.89 2.78 2.78a2.65 2.65 0 0 0 -1.29 1.29z" fill="#2b3990"/><path d="m87.57 42.49-2.79-2.78-3.89 3.89 3.89 3.89 2.79-2.78a2.63 2.63 0 0 0 1.28 1.29l-2.77 2.78 3.92 3.89 3.89-3.89-2.81-2.78a2.67 2.67 0 0 0 1.28-1.29l2.78 2.78 3.86-3.89-3.9-3.89-2.77 2.78a2.69 2.69 0 0 0 -1.29-1.29l2.78-2.78-3.82-3.89-3.89 3.89 2.77 2.78a2.63 2.63 0 0 0 -1.31 1.29z" fill="#2b3990"/><path d="m41.27 66-2.78-2.79-3.89 3.9 3.89 3.89 2.78-2.78a2.65 2.65 0 0 0 1.29 1.29l-2.78 2.78 3.89 3.89 3.89-3.89-2.78-2.78a2.61 2.61 0 0 0 1.29-1.29l2.78 2.78 3.89-3.88-3.89-3.9-2.78 2.78a2.65 2.65 0 0 0 -1.29-1.29l2.78-2.71-3.89-3.89-3.89 3.89 2.78 2.78a2.67 2.67 0 0 0 -1.29 1.22z" fill="#2b3990"/><path d="m115.51 162.43 2.78 2.77 3.89-3.88-3.89-3.9-2.78 2.78a2.69 2.69 0 0 0 -1.29-1.29l2.78-2.78-3.89-3.89-3.89 3.89 2.78 2.78a2.67 2.67 0 0 0 -1.29 1.3l-2.78-2.79-3.89 3.9 3.89 3.88 2.78-2.77a2.63 2.63 0 0 0 1.29 1.28l-2.78 2.79 3.89 3.89 3.89-3.89-2.78-2.79a2.63 2.63 0 0 0 1.29-1.28z" fill="#2b3990"/><path d="m138.66 162.43 2.78 2.77 3.89-3.88-3.89-3.9-2.78 2.78a2.74 2.74 0 0 0 -1.29-1.29l2.78-2.78-3.89-3.89-3.89 3.89 2.78 2.78a2.67 2.67 0 0 0 -1.29 1.3l-2.78-2.79-3.89 3.9 3.89 3.88 2.78-2.77a2.63 2.63 0 0 0 1.29 1.28l-2.78 2.79 3.89 3.89 3.89-3.89-2.78-2.79a2.72 2.72 0 0 0 1.29-1.28z" fill="#2b3990"/><path d="m150.3 150.64 2.78 2.78 3.89-3.89-3.89-3.89-2.78 2.78a2.65 2.65 0 0 0 -1.29-1.29l2.78-2.78-3.89-3.89-3.9 3.89 2.78 2.78a2.72 2.72 0 0 0 -1.29 1.3l-2.78-2.79-3.89 3.89 3.89 3.89 2.78-2.78a2.69 2.69 0 0 0 1.29 1.29l-2.78 2.79 3.89 3.88 3.89-3.89-2.78-2.78a2.61 2.61 0 0 0 1.3-1.29z" fill="#2b3990"/><path d="m159.41 128.7-3.89 3.89 2.78 2.78a2.65 2.65 0 0 0 -1.29 1.29l-2.79-2.78-3.89 3.89 3.89 3.89 2.79-2.78a2.61 2.61 0 0 0 1.29 1.29l-2.78 2.83 3.89 3.89 3.89-3.89-2.78-2.78a2.69 2.69 0 0 0 1.29-1.29l2.78 2.78 3.89-3.89-3.89-3.89-2.78 2.78a2.74 2.74 0 0 0 -1.29-1.29l2.78-2.78z" fill="#2b3990"/><path d="m69.22 162.43 2.78 2.77 3.89-3.88-3.89-3.9-2.78 2.78a2.78 2.78 0 0 0 -1.29-1.29l2.78-2.78-3.89-3.89-3.89 3.89 2.78 2.78a2.67 2.67 0 0 0 -1.29 1.3l-2.78-2.79-3.89 3.9 3.89 3.88 2.78-2.77a2.63 2.63 0 0 0 1.29 1.28l-2.78 2.79 3.89 3.89 3.89-3.89-2.78-2.79a2.72 2.72 0 0 0 1.29-1.28z" fill="#2b3990"/><path d="m46.07 162.43 2.78 2.77 3.89-3.88-3.89-3.9-2.78 2.78a2.69 2.69 0 0 0 -1.29-1.29l2.78-2.78-3.89-3.89-3.89 3.89 2.78 2.78a2.67 2.67 0 0 0 -1.29 1.3l-2.78-2.79-3.89 3.9 3.89 3.88 2.78-2.77a2.63 2.63 0 0 0 1.29 1.28l-2.78 2.79 3.89 3.89 3.89-3.89-2.78-2.79a2.63 2.63 0 0 0 1.29-1.28z" fill="#2b3990"/><path d="m32.17 158.6 3.89-3.89-2.78-2.78a2.69 2.69 0 0 0 1.29-1.29l2.78 2.78 3.89-3.89-3.89-3.89-2.78 2.78a2.74 2.74 0 0 0 -1.29-1.29l2.78-2.78-3.89-3.89-3.89 3.89 2.78 2.78a2.63 2.63 0 0 0 -1.29 1.3l-2.77-2.79-3.89 3.89 3.89 3.89 2.78-2.78a2.61 2.61 0 0 0 1.29 1.29l-2.78 2.78z" fill="#2b3990"/><path d="m159.41 105.16-3.89 3.89 2.78 2.78a2.61 2.61 0 0 0 -1.29 1.29l-2.79-2.78-3.89 3.89 3.89 3.89 2.79-2.78a2.65 2.65 0 0 0 1.29 1.29l-2.78 2.78 3.89 3.89 3.89-3.89-2.78-2.78a2.74 2.74 0 0 0 1.29-1.29l2.78 2.78 3.89-3.89-3.89-3.89-2.78 2.78a2.69 2.69 0 0 0 -1.29-1.29l2.78-2.78z" fill="#2b3990"/><path d="m92.36 162.43 2.78 2.77 3.9-3.88-3.9-3.9-2.77 2.78a2.78 2.78 0 0 0 -1.29-1.29l2.78-2.78-3.86-3.89-3.9 3.89 2.78 2.78a2.76 2.76 0 0 0 -1.29 1.3l-2.78-2.79-3.89 3.9 3.89 3.88 2.78-2.77a2.72 2.72 0 0 0 1.29 1.28l-2.78 2.79 3.9 3.89 3.89-3.89-2.78-2.79a2.65 2.65 0 0 0 1.25-1.28z" fill="#2b3990"/><path d="m159.41 81.62-3.89 3.89 2.78 2.77a2.67 2.67 0 0 0 -1.29 1.3l-2.79-2.78-3.89 3.89 3.89 3.89 2.78-2.78a2.69 2.69 0 0 0 1.29 1.29l-2.78 2.78 3.89 3.89 3.89-3.89-2.78-2.78a2.74 2.74 0 0 0 1.29-1.29l2.78 2.78 3.89-3.89-3.89-3.89-2.78 2.78a2.76 2.76 0 0 0 -1.29-1.3l2.78-2.77z" fill="#2b3990"/><path d="m20.52 146.84 3.89-3.84-2.78-2.78a2.65 2.65 0 0 0 1.29-1.29l2.78 2.78 3.9-3.89-3.9-3.89-2.77 2.78a2.69 2.69 0 0 0 -1.29-1.29l2.78-2.78-3.9-3.89-3.88 3.89 2.77 2.78a2.69 2.69 0 0 0 -1.29 1.29l-2.78-2.78-3.89 3.89 3.89 3.89 2.78-2.78a2.74 2.74 0 0 0 1.29 1.29l-2.77 2.78z" fill="#2b3990"/><path d="m64.42 66-2.78-2.79-3.89 3.9 3.89 3.89 2.78-2.78a2.61 2.61 0 0 0 1.29 1.29l-2.78 2.78 3.89 3.89 3.89-3.89-2.78-2.78a2.65 2.65 0 0 0 1.29-1.29l2.78 2.78 3.89-3.88-3.89-3.87-2.78 2.75a2.69 2.69 0 0 0 -1.29-1.29l2.78-2.71-3.89-3.89-3.89 3.89 2.78 2.78a2.63 2.63 0 0 0 -1.29 1.22z" fill="#2b3990"/><path d="m29.77 77.8-2.77-2.8-3.89 3.9 3.89 3.89 2.77-2.79a2.69 2.69 0 0 0 1.29 1.29l-2.78 2.78 3.89 3.93 3.89-3.89-2.78-2.78a2.74 2.74 0 0 0 1.29-1.33l2.78 2.77 3.89-3.88-3.89-3.89-2.78 2.8a2.76 2.76 0 0 0 -1.29-1.3l2.78-2.78-3.89-3.89-3.89 3.89 2.78 2.78a2.67 2.67 0 0 0 -1.29 1.3z" fill="#2b3990"/><path d="m87.57 66-2.79-2.79-3.89 3.9 3.89 3.89 2.79-2.78a2.63 2.63 0 0 0 1.28 1.29l-2.77 2.78 3.92 3.92 3.89-3.89-2.78-2.78a2.63 2.63 0 0 0 1.28-1.29l2.75 2.75 3.86-3.85-3.9-3.9-2.73 2.75a2.74 2.74 0 0 0 -1.29-1.29l2.78-2.71-3.86-3.93-3.92 3.93 2.77 2.78a2.65 2.65 0 0 0 -1.28 1.22z" fill="#2b3990"/><path d="m133.86 66-2.78-2.79-3.89 3.9 3.89 3.89 2.78-2.78a2.61 2.61 0 0 0 1.29 1.29l-2.78 2.78 3.89 3.89 3.89-3.89-2.78-2.78a2.69 2.69 0 0 0 1.29-1.29l2.78 2.78 3.89-3.88-3.89-3.9-2.78 2.78a2.69 2.69 0 0 0 -1.29-1.29l2.78-2.71-3.89-3.89-3.89 3.89 2.78 2.78a2.63 2.63 0 0 0 -1.29 1.22z" fill="#2b3990"/><path d="m110.71 66-2.78-2.79-3.93 3.94 3.93 3.85 2.78-2.78a2.69 2.69 0 0 0 1.29 1.32l-2.78 2.78 3.89 3.89 3.89-3.89-2.78-2.78a2.61 2.61 0 0 0 1.29-1.29l2.78 2.75 3.89-3.88-3.89-3.9-2.77 2.78a2.71 2.71 0 0 0 -1.3-1.29l2.78-2.71-3.89-3.89-3.89 3.89 2.78 2.74a2.67 2.67 0 0 0 -1.29 1.26z" fill="#2b3990"/><path d="m147.9 69.84-3.9 3.88 2.78 2.78a2.76 2.76 0 0 0 -1.29 1.3l-2.77-2.8-3.89 3.9 3.89 3.88 2.78-2.78a2.78 2.78 0 0 0 1.29 1.29l-2.79 2.8 3.9 3.91 3.89-3.89-2.79-2.8a2.69 2.69 0 0 0 1.3-1.31l2.78 2.77 3.92-3.86-3.92-3.91-2.78 2.8a2.67 2.67 0 0 0 -1.3-1.3l2.78-2.78z" fill="#2b3990"/><path d="m18.12 89.58-2.78-2.79-3.89 3.9 3.89 3.89 2.78-2.78a2.76 2.76 0 0 0 1.3 1.29l-2.78 2.78 3.89 3.89 3.89-3.89-2.79-2.78a2.71 2.71 0 0 0 1.3-1.29l2.77 2.78 3.9-3.89-3.9-3.9-2.77 2.79a2.76 2.76 0 0 0 -1.29-1.3l2.78-2.78-3.89-3.89-3.89 3.89 2.78 2.78a2.74 2.74 0 0 0 -1.3 1.3z" fill="#2b3990"/><path d="m69.22 209.51 2.78 2.78 3.89-3.89-3.89-3.89-2.78 2.78a2.69 2.69 0 0 0 -1.29-1.29l2.78-2.78-3.89-3.89-3.89 3.89 2.78 2.78a2.61 2.61 0 0 0 -1.29 1.29l-2.78-2.78-3.89 3.89 3.89 3.89 2.78-2.78a2.65 2.65 0 0 0 1.29 1.29l-2.78 2.78 3.89 3.89 3.89-3.89-2.78-2.78a2.69 2.69 0 0 0 1.29-1.29z" fill="#2b3990"/><path d="m150.3 221.27 2.78 2.78 3.89-3.89-3.89-3.89-2.78 2.78a2.65 2.65 0 0 0 -1.29-1.29l2.78-2.78-3.89-3.89-3.9 3.91 2.78 2.78a2.74 2.74 0 0 0 -1.29 1.29l-2.78-2.78-3.89 3.89 3.89 3.89 2.78-2.78a2.69 2.69 0 0 0 1.29 1.29l-2.78 2.76 3.89 3.89 3.89-3.89-2.78-2.78a2.61 2.61 0 0 0 1.3-1.29z" fill="#2b3990"/><path d="m96.43 12.18 2.78-2.78a2.69 2.69 0 0 0 1.29 1.29l-2.78 2.78 3.89 3.89 3.89-3.89-2.78-2.78a2.74 2.74 0 0 0 1.28-1.29l2.78 2.78 3.22-3.18h-16.75z" fill="#2b3990"/><path d="m161.81 209.51 2.78 2.78 3.89-3.89-3.89-3.89-2.78 2.78a2.69 2.69 0 0 0 -1.29-1.29l2.78-2.78-3.89-3.89-3.89 3.89 2.78 2.78a2.61 2.61 0 0 0 -1.29 1.29l-2.79-2.78-3.89 3.89 3.89 3.89 2.79-2.78a2.65 2.65 0 0 0 1.29 1.29l-2.78 2.78 3.89 3.89 3.89-3.89-2.78-2.78a2.69 2.69 0 0 0 1.29-1.29z" fill="#2b3990"/><path d="m119.57 12.18 2.79-2.78a2.69 2.69 0 0 0 1.29 1.29l-2.78 2.78 3.89 3.89 3.89-3.89-2.79-2.78a2.71 2.71 0 0 0 1.3-1.29l2.77 2.78 3.18-3.18h-16.71z" fill="#2b3990"/><path d="m142.72 12.18 2.78-2.78a2.78 2.78 0 0 0 1.29 1.29l-2.79 2.78 3.89 3.89 3.9-3.89-2.79-2.78a2.65 2.65 0 0 0 1.3-1.29l2.78 2.78 3.18-3.18h-16.72z" fill="#2b3990"/><path d="m69.22 233.05 2.78 2.78 3.89-3.89-3.89-3.89-2.78 2.78a2.74 2.74 0 0 0 -1.29-1.29l2.78-2.78-3.89-3.89-3.89 3.89 2.78 2.78a2.65 2.65 0 0 0 -1.29 1.29l-2.78-2.78-3.89 3.89 3.89 3.89 2.78-2.78a2.61 2.61 0 0 0 1.29 1.29l-2.78 2.78 3.89 3.88 3.89-3.89-2.78-2.78a2.69 2.69 0 0 0 1.29-1.28z" fill="#2b3990"/><path d="m138.66 233.05 2.78 2.78 3.89-3.89-3.89-3.89-2.78 2.78a2.69 2.69 0 0 0 -1.29-1.29l2.78-2.78-3.89-3.89-3.89 3.89 2.78 2.78a2.65 2.65 0 0 0 -1.29 1.29l-2.78-2.78-3.89 3.89 3.89 3.89 2.78-2.78a2.61 2.61 0 0 0 1.29 1.29l-2.78 2.78 3.89 3.89 3.89-3.89-2.78-2.78a2.69 2.69 0 0 0 1.29-1.29z" fill="#2b3990"/><path d="m92.36 233.05 2.78 2.78 3.9-3.89-3.9-3.89-2.77 2.78a2.74 2.74 0 0 0 -1.29-1.29l2.78-2.78-3.86-3.89-3.9 3.89 2.78 2.78a2.74 2.74 0 0 0 -1.29 1.29l-2.78-2.78-3.89 3.89 3.89 3.89 2.78-2.78a2.69 2.69 0 0 0 1.29 1.29l-2.78 2.78 3.9 3.88 3.89-3.89-2.78-2.78a2.63 2.63 0 0 0 1.25-1.28z" fill="#2b3990"/><path d="m115.51 233.05 2.78 2.78 3.89-3.89-3.89-3.89-2.78 2.78a2.65 2.65 0 0 0 -1.29-1.29l2.78-2.78-3.89-3.89-3.89 3.89 2.78 2.78a2.65 2.65 0 0 0 -1.29 1.29l-2.78-2.78-3.93 3.89 3.89 3.89 2.78-2.78a2.61 2.61 0 0 0 1.29 1.29l-2.78 2.78 3.89 3.89 3.89-3.89-2.78-2.78a2.61 2.61 0 0 0 1.33-1.29z" fill="#2b3990"/><path d="m50.13 12.18 2.78-2.78a2.78 2.78 0 0 0 1.29 1.29l-2.78 2.78 3.9 3.89 3.89-3.89-2.78-2.78a2.74 2.74 0 0 0 1.29-1.29l2.77 2.78 3.18-3.18h-16.67z" fill="#2b3990"/><path d="m106.79 239.82-2.79 2.79a2.71 2.71 0 0 0 -1.29-1.3l2.78-2.78-3.89-3.89-3.89 3.89 2.78 2.78a2.67 2.67 0 0 0 -1.29 1.3l-2.78-2.79-3.17 3.18h16.75z" fill="#2b3990"/><path d="m129.93 239.82-2.77 2.79a2.76 2.76 0 0 0 -1.29-1.3l2.78-2.78-3.89-3.89-3.89 3.89 2.78 2.78a2.67 2.67 0 0 0 -1.29 1.3l-2.79-2.79-3.17 3.18h16.71z" fill="#2b3990"/><path d="m83.64 239.82-2.78 2.79a2.67 2.67 0 0 0 -1.29-1.3l2.78-2.78-3.89-3.89-3.89 3.89 2.78 2.78a2.67 2.67 0 0 0 -1.29 1.3l-2.78-2.79-3.18 3.18h16.72z" fill="#2b3990"/><path d="m153.08 239.82-2.78 2.79a2.67 2.67 0 0 0 -1.29-1.3l2.78-2.78-3.89-3.89-3.9 3.89 2.78 2.78a2.76 2.76 0 0 0 -1.29 1.3l-2.78-2.79-3.17 3.18h16.72z" fill="#2b3990"/><path d="m37.28 239.82-2.78 2.79a2.76 2.76 0 0 0 -1.29-1.3l2.79-2.78-3.89-3.89-3.89 3.89 2.78 2.78a2.67 2.67 0 0 0 -1.29 1.3l-2.78-2.79-3.19 3.18h16.71z" fill="#2b3990"/><path d="m60.49 239.82-2.77 2.79a2.76 2.76 0 0 0 -1.29-1.3l2.78-2.78-3.9-3.89-3.89 3.89 2.78 2.78a2.76 2.76 0 0 0 -1.29 1.3l-2.78-2.79-3.13 3.18h16.67z" fill="#2b3990"/><path d="m27 12.18 2.77-2.78a2.69 2.69 0 0 0 1.29 1.29l-2.78 2.78 3.89 3.89 3.89-3.89-2.78-2.78a2.74 2.74 0 0 0 1.29-1.29l2.78 2.78 3.17-3.18h-16.71z" fill="#2b3990"/><path d="m46.07 233.05 2.78 2.78 3.89-3.89-3.89-3.89-2.78 2.78a2.65 2.65 0 0 0 -1.29-1.29l2.78-2.78-3.89-3.89-3.89 3.89 2.78 2.78a2.65 2.65 0 0 0 -1.29 1.29l-2.78-2.78-3.89 3.89 3.89 3.89 2.78-2.78a2.61 2.61 0 0 0 1.29 1.29l-2.78 2.78 3.89 3.88 3.89-3.89-2.78-2.78a2.61 2.61 0 0 0 1.29-1.28z" fill="#2b3990"/><path d="m73.28 12.18 2.78-2.78a2.69 2.69 0 0 0 1.29 1.29l-2.78 2.78 3.89 3.89 3.89-3.89-2.78-2.78a2.65 2.65 0 0 0 1.29-1.29l2.78 2.78 3.18-3.18h-16.72z" fill="#2b3990"/><path d="m32.1 229.23 3.9-3.89-2.78-2.78a2.65 2.65 0 0 0 1.29-1.29l2.78 2.78 3.89-3.89-3.89-3.89-2.78 2.78a2.65 2.65 0 0 0 -1.29-1.29l2.78-2.76-3.89-3.89-3.9 3.89 2.79 2.76a2.65 2.65 0 0 0 -1.29 1.29l-2.78-2.78-3.93 3.89 3.89 3.89 2.78-2.78a2.61 2.61 0 0 0 1.33 1.29l-2.78 2.78z" fill="#2b3990"/><path d="m138.66 209.51 2.78 2.78 3.89-3.89-3.89-3.89-2.78 2.78a2.65 2.65 0 0 0 -1.29-1.29l2.78-2.78-3.89-3.89-3.89 3.89 2.78 2.78a2.61 2.61 0 0 0 -1.29 1.29l-2.78-2.78-3.89 3.89 3.89 3.89 2.78-2.78a2.65 2.65 0 0 0 1.29 1.29l-2.78 2.78 3.89 3.89 3.89-3.89-2.78-2.78a2.69 2.69 0 0 0 1.29-1.29z" fill="#2b3990"/><path d="m150.3 197.73 2.78 2.78 3.89-3.89-3.89-3.89-2.78 2.78a2.61 2.61 0 0 0 -1.29-1.29l2.78-2.78-3.89-3.89-3.9 3.89 2.78 2.78a2.69 2.69 0 0 0 -1.29 1.29l-2.78-2.78-3.89 3.89 3.89 3.89 2.78-2.78a2.74 2.74 0 0 0 1.29 1.29l-2.78 2.78 3.89 3.89 3.89-3.89-2.78-2.8a2.61 2.61 0 0 0 1.3-1.27z" fill="#2b3990"/><path d="m161.81 186 2.78 2.78 3.89-3.89-3.89-3.9-2.78 2.79a2.76 2.76 0 0 0 -1.29-1.3l2.78-2.77-3.89-3.89-3.89 3.89 2.78 2.77a2.67 2.67 0 0 0 -1.29 1.3l-2.79-2.78-3.89 3.89 3.89 3.89 2.78-2.78a2.69 2.69 0 0 0 1.29 1.29l-2.77 2.71 3.89 3.89 3.89-3.89-2.78-2.78a2.74 2.74 0 0 0 1.29-1.22z" fill="#2b3990"/><path d="m159.41 34.53-3.89 3.89 2.78 2.78a2.61 2.61 0 0 0 -1.3 1.29l-2.79-2.78-3.89 3.89 3.89 3.89 2.79-2.78a2.61 2.61 0 0 0 1.3 1.29l-2.78 2.78 3.89 3.89 3.89-3.89-2.78-2.78a2.69 2.69 0 0 0 1.29-1.29l2.78 2.78 3.89-3.89-3.89-3.89-2.78 2.78a2.69 2.69 0 0 0 -1.29-1.29l2.78-2.78z" fill="#2b3990"/><path d="m147.9 22.75-3.9 3.89 2.78 2.78a2.69 2.69 0 0 0 -1.29 1.29l-2.78-2.78-3.89 3.89 3.89 3.89 2.78-2.78a2.74 2.74 0 0 0 1.29 1.29l-2.78 2.78 3.89 3.89 3.9-3.89-2.79-2.78a2.65 2.65 0 0 0 1.29-1.29l2.78 2.78 3.93-3.89-3.89-3.89-2.78 2.78a2.61 2.61 0 0 0 -1.33-1.29l2.78-2.78z" fill="#2b3990"/><path d="m20.52 123.3 3.89-3.89-2.78-2.78a2.65 2.65 0 0 0 1.29-1.29l2.78 2.78 3.9-3.89-3.9-3.89-2.77 2.78a2.69 2.69 0 0 0 -1.29-1.29l2.78-2.78-3.9-3.89-3.88 3.89 2.77 2.78a2.69 2.69 0 0 0 -1.29 1.29l-2.78-2.78-3.89 3.89 3.89 3.89 2.78-2.78a2.78 2.78 0 0 0 1.29 1.29l-2.77 2.78z" fill="#2b3990"/><path d="m46.07 209.51 2.78 2.78 3.89-3.89-3.89-3.89-2.78 2.78a2.61 2.61 0 0 0 -1.29-1.29l2.78-2.78-3.89-3.89-3.89 3.89 2.78 2.78a2.61 2.61 0 0 0 -1.29 1.29l-2.78-2.78-3.89 3.89 3.89 3.89 2.78-2.78a2.65 2.65 0 0 0 1.29 1.29l-2.78 2.78 3.89 3.89 3.89-3.89-2.78-2.78a2.61 2.61 0 0 0 1.29-1.29z" fill="#2b3990"/><path d="m115.51 209.51 2.78 2.78 3.89-3.89-3.89-3.89-2.78 2.78a2.61 2.61 0 0 0 -1.29-1.29l2.78-2.78-3.89-3.89-3.89 3.89 2.78 2.78a2.61 2.61 0 0 0 -1.29 1.29l-2.78-2.78-3.93 3.89 3.89 3.89 2.78-2.78a2.65 2.65 0 0 0 1.33 1.29l-2.78 2.78 3.89 3.89 3.89-3.89-2.78-2.78a2.61 2.61 0 0 0 1.29-1.29z" fill="#2b3990"/><path d="m92.36 209.51 2.78 2.78 3.86-3.89-3.9-3.89-2.77 2.78a2.69 2.69 0 0 0 -1.25-1.29l2.78-2.78-3.86-3.89-3.9 3.89 2.75 2.78a2.69 2.69 0 0 0 -1.29 1.29l-2.78-2.78-3.89 3.89 3.89 3.89 2.78-2.78a2.74 2.74 0 0 0 1.29 1.29l-2.78 2.78 3.9 3.89 3.89-3.89-2.78-2.78a2.63 2.63 0 0 0 1.28-1.29z" fill="#2b3990"/><path d="m41.27 19-2.78-2.78-3.89 3.84 3.89 3.94 2.78-2.78a2.74 2.74 0 0 0 1.29 1.29l-2.78 2.78 3.89 3.89 3.89-3.89-2.78-2.78a2.65 2.65 0 0 0 1.29-1.29l2.78 2.78 3.89-3.89-3.89-3.89-2.78 2.78a2.67 2.67 0 0 0 -1.29-1.3l2.78-2.77-3.89-3.93-3.89 3.89 2.78 2.77a2.71 2.71 0 0 0 -1.29 1.34z" fill="#2b3990"/><path d="m29.77 30.71-2.77-2.78-3.9 3.89 3.9 3.89 2.78-2.78a2.65 2.65 0 0 0 1.29 1.29l-2.79 2.78 3.89 3.89 3.89-3.89-2.78-2.78a2.69 2.69 0 0 0 1.29-1.29l2.78 2.78 3.89-3.89-3.89-3.89-2.78 2.78a2.69 2.69 0 0 0 -1.29-1.29l2.78-2.78-3.89-3.89-3.89 3.89 2.78 2.78a2.61 2.61 0 0 0 -1.29 1.29z" fill="#2b3990"/><path d="m32.17 205.69 3.89-3.89-2.78-2.8a2.74 2.74 0 0 0 1.29-1.29l2.78 2.78 3.89-3.89-3.89-3.89-2.78 2.78a2.69 2.69 0 0 0 -1.29-1.29l2.78-2.78-3.89-3.89-3.89 3.89 2.78 2.78a2.61 2.61 0 0 0 -1.29 1.29l-2.77-2.76-3.89 3.89 3.89 3.89 2.78-2.78a2.65 2.65 0 0 0 1.28 1.27l-2.78 2.78z" fill="#2b3990"/><path d="m133.86 19-2.78-2.78-3.89 3.89 3.89 3.89 2.78-2.78a2.69 2.69 0 0 0 1.29 1.29l-2.78 2.78 3.89 3.89 3.89-3.89-2.78-2.78a2.74 2.74 0 0 0 1.29-1.29l2.78 2.78 3.89-3.89-3.89-3.89-2.78 2.78a2.71 2.71 0 0 0 -1.29-1.3l2.78-2.77-3.89-3.93-3.89 3.89 2.78 2.77a2.67 2.67 0 0 0 -1.29 1.34z" fill="#2b3990"/><path d="m20.52 217.47 3.89-3.89-2.78-2.78a2.65 2.65 0 0 0 1.29-1.29l2.78 2.78 3.9-3.89-3.9-3.89-2.77 2.78a2.69 2.69 0 0 0 -1.29-1.29l2.78-2.78-3.9-3.89-3.88 3.89 2.77 2.78a2.69 2.69 0 0 0 -1.29 1.29l-2.78-2.78-3.89 3.89 3.89 3.89 2.78-2.78a2.74 2.74 0 0 0 1.29 1.29l-2.77 2.78z" fill="#2b3990"/><path d="m18.12 42.49-2.78-2.78-3.89 3.89 3.89 3.89 2.78-2.78a2.67 2.67 0 0 0 1.3 1.29l-2.78 2.78 3.89 3.89 3.89-3.89-2.79-2.78a2.71 2.71 0 0 0 1.3-1.29l2.77 2.78 3.9-3.89-3.9-3.89-2.77 2.78a2.69 2.69 0 0 0 -1.29-1.29l2.78-2.78-3.89-3.89-3.89 3.89 2.78 2.78a2.67 2.67 0 0 0 -1.3 1.29z" fill="#2b3990"/><path d="m64.42 19-2.78-2.78-3.89 3.89 3.89 3.89 2.78-2.78a2.69 2.69 0 0 0 1.29 1.29l-2.78 2.78 3.89 3.89 3.89-3.89-2.78-2.78a2.69 2.69 0 0 0 1.29-1.29l2.78 2.78 3.89-3.89-3.89-3.94-2.78 2.83a2.71 2.71 0 0 0 -1.29-1.3l2.78-2.77-3.89-3.93-3.89 3.89 2.78 2.77a2.67 2.67 0 0 0 -1.29 1.34z" fill="#2b3990"/><path d="m110.71 19-2.78-2.78-3.93 3.84 3.93 3.94 2.78-2.78a2.78 2.78 0 0 0 1.29 1.24l-2.78 2.78 3.89 3.89 3.89-3.89-2.78-2.78a2.65 2.65 0 0 0 1.29-1.29l2.78 2.83 3.89-3.89-3.89-3.89-2.77 2.78a2.74 2.74 0 0 0 -1.3-1.3l2.78-2.82-3.89-3.88-3.89 3.89 2.78 2.76a2.71 2.71 0 0 0 -1.29 1.35z" fill="#2b3990"/><path d="m87.57 19-2.79-2.78-3.89 3.89 3.89 3.89 2.79-2.78a2.72 2.72 0 0 0 1.28 1.29l-2.77 2.78 3.92 3.84 3.89-3.89-2.78-2.78a2.67 2.67 0 0 0 1.28-1.29l2.75 2.83 3.86-3.94-3.9-3.89-2.73 2.83a2.76 2.76 0 0 0 -1.29-1.3l2.78-2.77-3.86-3.93-3.89 3.89 2.77 2.77a2.69 2.69 0 0 0 -1.31 1.34z" fill="#2b3990"/><path d="m120.87 73.72 2.78 2.78a2.67 2.67 0 0 0 -1.29 1.3l-2.79-2.8-3.89 3.9 3.89 3.88 2.79-2.78a2.61 2.61 0 0 0 1.29 1.29l-2.78 2.79 3.89 3.92 3.89-3.89-2.79-2.79a2.67 2.67 0 0 0 1.3-1.29l2.77 2.78 3.9-3.88-3.9-3.9-2.77 2.78a2.78 2.78 0 0 0 -1.29-1.29l2.78-2.78-3.89-3.89z" fill="#2b3990"/><path d="m82.35 201.8-2.78-2.8a2.65 2.65 0 0 0 1.29-1.29l2.78 2.78 3.89-3.89-3.89-3.89-2.78 2.78a2.61 2.61 0 0 0 -1.29-1.29l2.78-2.78-3.89-3.89-3.89 3.89 2.78 2.78a2.61 2.61 0 0 0 -1.29 1.29l-2.78-2.78-3.89 3.89 3.89 3.89 2.78-2.78a2.65 2.65 0 0 0 1.29 1.29l-2.78 2.78 3.89 3.89z" fill="#2b3990"/><path d="m59.21 201.8-2.79-2.8a2.65 2.65 0 0 0 1.29-1.29l2.78 2.78 3.9-3.89-3.9-3.89-2.77 2.78a2.69 2.69 0 0 0 -1.29-1.29l2.78-2.78-3.9-3.89-3.89 3.89 2.78 2.78a2.69 2.69 0 0 0 -1.29 1.29l-2.78-2.78-3.89 3.89 3.89 3.89 2.78-2.78a2.74 2.74 0 0 0 1.29 1.29l-2.78 2.78 3.89 3.89z" fill="#2b3990"/><path d="m10.06 175.48a2.65 2.65 0 0 0 1.29-1.29l2.78 2.81 3.87-3.92-3.89-3.9-2.76 2.82a2.67 2.67 0 0 0 -1.29-1.3l2.78-2.77-3.84-3.88v18l3.84-3.84z" fill="#2b3990"/><path d="m9 87.93 3.84-3.84-2.78-2.79a2.61 2.61 0 0 0 1.29-1.3l2.78 2.78 3.87-3.87-3.87-3.91-2.78 2.78a2.69 2.69 0 0 0 -1.29-1.29l2.78-2.78-3.84-3.83z" fill="#2b3990"/><path d="m171 164.05-3.84 3.85 2.78 2.77a2.67 2.67 0 0 0 -1.29 1.3l-2.78-2.78-3.87 3.89 3.89 3.89 2.78-2.78a2.69 2.69 0 0 0 1.29 1.29l-2.78 2.78 3.82 3.84z" fill="#2b3990"/><path d="m51.42 50.18 2.78 2.82a2.74 2.74 0 0 0 -1.29 1.29l-2.78-2.78-3.89 3.89 3.89 3.89 2.78-2.78a2.69 2.69 0 0 0 1.29 1.29l-2.78 2.78 3.9 3.89 3.89-3.89-2.78-2.78a2.69 2.69 0 0 0 1.29-1.29l2.77 2.78 3.9-3.89-3.9-3.89-2.77 2.78a2.74 2.74 0 0 0 -1.29-1.29l2.78-2.78-3.89-3.89z" fill="#2b3990"/><path d="m169.94 53a2.63 2.63 0 0 0 -1.29 1.3l-2.78-2.79-3.87 3.85 3.89 3.89 2.78-2.78a2.61 2.61 0 0 0 1.29 1.29l-2.78 2.78 3.82 3.85v-18l-3.84 3.84z" fill="#2b3990"/><path d="m128.65 201.8-2.79-2.8a2.71 2.71 0 0 0 1.3-1.29l2.77 2.78 3.9-3.89-3.9-3.89-2.77 2.78a2.69 2.69 0 0 0 -1.29-1.29l2.78-2.78-3.89-3.89-3.89 3.89 2.78 2.78a2.61 2.61 0 0 0 -1.29 1.29l-2.79-2.78-3.89 3.89 3.89 3.89 2.79-2.78a2.65 2.65 0 0 0 1.29 1.29l-2.78 2.78 3.89 3.89z" fill="#2b3990"/><path d="m105.5 201.8-2.78-2.8a2.74 2.74 0 0 0 1.29-1.29l2.78 2.78 3.89-3.89-3.89-3.89-2.79 2.8a2.65 2.65 0 0 0 -1.29-1.29l2.78-2.78-3.89-3.89-3.89 3.89 2.78 2.78a2.61 2.61 0 0 0 -1.29 1.29l-2.78-2.78-3.89 3.89 3.89 3.89 2.78-2.78a2.65 2.65 0 0 0 1.3 1.27l-2.78 2.78 3.89 3.89z" fill="#2b3990"/><path d="m167.16 120.81 2.78 2.78a2.65 2.65 0 0 0 -1.29 1.29l-2.78-2.78-3.87 3.9 3.89 3.89 2.78-2.78a2.61 2.61 0 0 0 1.29 1.29l-2.78 2.78 3.82 3.82v-18z" fill="#2b3990"/><path d="m171 140.51-3.84 3.84 2.78 2.78a2.67 2.67 0 0 0 -1.29 1.3l-2.78-2.79-3.89 3.9 3.89 3.88 2.78-2.78a2.61 2.61 0 0 0 1.29 1.29l-2.78 2.79 3.84 3.84z" fill="#2b3990"/><path d="m128.65 178.26-2.79-2.78a2.71 2.71 0 0 0 1.3-1.29l2.77 2.77 3.9-3.88-3.9-3.9-2.77 2.82a2.76 2.76 0 0 0 -1.29-1.3l2.78-2.77-3.89-3.93-3.89 3.89 2.78 2.77a2.67 2.67 0 0 0 -1.29 1.3l-2.79-2.78-3.89 3.89 3.89 3.89 2.79-2.78a2.69 2.69 0 0 0 1.29 1.29l-2.78 2.78 3.89 3.89z" fill="#2b3990"/><path d="m74.57 50.18 2.78 2.82a2.65 2.65 0 0 0 -1.29 1.29l-2.78-2.78-3.89 3.89 3.89 3.89 2.78-2.78a2.61 2.61 0 0 0 1.29 1.29l-2.78 2.78 3.89 3.89 3.89-3.89-2.78-2.78a2.61 2.61 0 0 0 1.29-1.29l2.78 2.78 3.89-3.89-3.89-3.89-2.78 2.78a2.65 2.65 0 0 0 -1.29-1.29l2.78-2.78-3.89-3.89z" fill="#2b3990"/><path d="m120.87 26.64 2.78 2.78a2.61 2.61 0 0 0 -1.29 1.29l-2.79-2.78-3.89 3.89 3.89 3.89 2.79-2.78a2.69 2.69 0 0 0 1.29 1.29l-2.78 2.78 3.89 3.89 3.89-3.89-2.79-2.78a2.71 2.71 0 0 0 1.3-1.29l2.77 2.78 3.9-3.89-3.9-3.89-2.77 2.78a2.69 2.69 0 0 0 -1.29-1.29l2.78-2.78-3.89-3.89z" fill="#2b3990"/><path d="m105.5 178.26-2.78-2.78a2.74 2.74 0 0 0 1.29-1.29l2.78 2.77 3.89-3.88-3.89-3.9-2.79 2.82a2.71 2.71 0 0 0 -1.29-1.3l2.78-2.77-3.88-3.93-3.89 3.89 2.78 2.77a2.67 2.67 0 0 0 -1.29 1.3l-2.78-2.78-3.89 3.89 3.89 3.93 2.78-2.78a2.69 2.69 0 0 0 1.29 1.29l-2.78 2.78 3.89 3.89z" fill="#2b3990"/><path d="m97.72 50.18 2.78 2.82a2.65 2.65 0 0 0 -1.29 1.29l-2.78-2.78-3.89 3.89 3.89 3.89 2.78-2.78a2.61 2.61 0 0 0 1.29 1.29l-2.78 2.78 3.89 3.89 3.89-3.89-2.78-2.78a2.69 2.69 0 0 0 1.28-1.33l2.78 2.78 3.89-3.89-3.89-3.89-2.78 2.78a2.65 2.65 0 0 0 -1.28-1.25l2.78-2.78-3.89-3.89z" fill="#2b3990"/><path d="m167.16 97.27 2.78 2.78a2.61 2.61 0 0 0 -1.29 1.29l-2.78-2.78-3.87 3.89 3.89 3.89 2.78-2.78a2.69 2.69 0 0 0 1.29 1.29l-2.78 2.78 3.84 3.84v-18z" fill="#2b3990"/><path d="m120.87 50.18 2.78 2.82a2.65 2.65 0 0 0 -1.29 1.29l-2.79-2.78-3.89 3.89 3.89 3.89 2.79-2.78a2.61 2.61 0 0 0 1.29 1.29l-2.78 2.78 3.89 3.89 3.89-3.89-2.79-2.78a2.67 2.67 0 0 0 1.3-1.29l2.77 2.78 3.9-3.89-3.9-3.89-2.77 2.78a2.74 2.74 0 0 0 -1.29-1.29l2.78-2.78-3.89-3.89z" fill="#2b3990"/><path d="m167.16 73.72 2.78 2.78a2.67 2.67 0 0 0 -1.29 1.3l-2.78-2.8-3.87 3.91 3.89 3.88 2.76-2.79a2.61 2.61 0 0 0 1.29 1.29l-2.78 2.79 3.84 3.85v-18.05z" fill="#2b3990"/><path d="m169.94 29.42a2.61 2.61 0 0 0 -1.29 1.29l-2.78-2.78-3.87 3.89 3.89 3.89 2.78-2.78a2.65 2.65 0 0 0 1.29 1.29l-2.8 2.78 3.84 3.84v-18l-3.84 3.84z" fill="#2b3990"/><path d="m171 187.6-3.84 3.84 2.78 2.78a2.61 2.61 0 0 0 -1.29 1.29l-2.78-2.78-3.87 3.89 3.89 3.89 2.78-2.78a2.61 2.61 0 0 0 1.29 1.29l-2.78 2.78 3.84 3.84z" fill="#2b3990"/><path d="m161.81 19a2.76 2.76 0 0 0 -1.29-1.3l2.78-2.77-3.9-3.93-3.88 3.89 2.77 2.77a2.69 2.69 0 0 0 -1.29 1.34l-2.79-2.78-3.89 3.89 3.9 3.89 2.78-2.83a2.72 2.72 0 0 0 1.28 1.29l-2.77 2.78 3.88 3.89 3.9-3.89-2.79-2.78a2.71 2.71 0 0 0 1.3-1.29l2.78 2.83 3.9-3.89-3.9-3.89z" fill="#2b3990"/><path d="m18.12 19-2.78-2.78-3.89 3.89 3.89 3.89 2.78-2.78a2.76 2.76 0 0 0 1.3 1.29l-2.78 2.78 3.89 3.89 3.89-3.89-2.79-2.78a2.71 2.71 0 0 0 1.3-1.29l2.77 2.78 3.9-3.89-3.9-3.89-2.77 2.78a2.76 2.76 0 0 0 -1.29-1.3l2.78-2.77-3.89-3.93-3.89 3.89 2.78 2.77a2.74 2.74 0 0 0 -1.3 1.34z" fill="#2b3990"/><path d="m82.35 178.26-2.78-2.78a2.65 2.65 0 0 0 1.29-1.29l2.78 2.81 3.89-3.88-3.89-3.9-2.78 2.78a2.67 2.67 0 0 0 -1.29-1.3l2.78-2.77-3.89-3.93-3.89 3.89 2.78 2.77a2.67 2.67 0 0 0 -1.29 1.3l-2.78-2.78-3.89 3.89 3.89 3.93 2.78-2.78a2.69 2.69 0 0 0 1.29 1.29l-2.78 2.78 3.89 3.89z" fill="#2b3990"/><path d="m9 40.84 3.84-3.84-2.78-2.78a2.65 2.65 0 0 0 1.29-1.29l2.78 2.78 3.87-3.89-3.89-3.89-2.78 2.78a2.61 2.61 0 0 0 -1.29-1.29l2.78-2.78-3.82-3.84v18z" fill="#2b3990"/><path d="m171 211.14-3.84 3.86 2.78 2.78a2.63 2.63 0 0 0 -1.29 1.3l-2.78-2.79-3.89 3.9 3.89 3.88 2.78-2.78a2.61 2.61 0 0 0 1.29 1.29l-2.78 2.79 3.84 3.84z" fill="#2b3990"/><path d="m161.81 233.05 2.78 2.78 3.89-3.89-3.89-3.89-2.78 2.78a2.74 2.74 0 0 0 -1.29-1.29l2.78-2.78-3.89-3.89-3.89 3.89 2.78 2.78a2.65 2.65 0 0 0 -1.29 1.29l-2.79-2.78-3.89 3.89 3.89 3.89 2.79-2.78a2.61 2.61 0 0 0 1.29 1.29l-2.78 2.78 3.89 3.89 3.89-3.89-2.78-2.78a2.69 2.69 0 0 0 1.29-1.29z" fill="#2b3990"/><path d="m10.06 222.56a2.61 2.61 0 0 0 1.29-1.29l2.78 2.78 3.87-3.89-3.89-3.89-2.78 2.78a2.65 2.65 0 0 0 -1.29-1.29l2.8-2.76-3.84-3.86v18l3.84-3.84z" fill="#2b3990"/><path d="m97.72 26.64 2.78 2.78a2.61 2.61 0 0 0 -1.29 1.29l-2.78-2.78-3.89 3.89 3.89 3.89 2.78-2.78a2.69 2.69 0 0 0 1.29 1.29l-2.78 2.78 3.89 3.89 3.89-3.89-2.78-2.78a2.74 2.74 0 0 0 1.28-1.29l2.78 2.78 3.89-3.89-3.89-3.89-2.78 2.78a2.61 2.61 0 0 0 -1.29-1.29l2.78-2.78-3.89-3.89z" fill="#2b3990"/><path d="m18.12 233.05a2.67 2.67 0 0 0 1.3 1.29l-2.78 2.78 3.89 3.88 3.89-3.89-2.79-2.78a2.67 2.67 0 0 0 1.3-1.29l2.77 2.78 3.9-3.89-3.9-3.89-2.77 2.78a2.74 2.74 0 0 0 -1.29-1.29l2.78-2.78-3.89-3.89-3.89 3.89 2.78 2.78a2.71 2.71 0 0 0 -1.3 1.29l-2.78-2.78-3.89 3.89 3.89 3.89z" fill="#2b3990"/><path d="m10.06 199a2.65 2.65 0 0 0 1.29-1.29l2.78 2.78 3.87-3.87-3.89-3.89-2.78 2.78a2.61 2.61 0 0 0 -1.29-1.29l2.78-2.78-3.82-3.84v18l3.84-3.84z" fill="#2b3990"/><path d="m9 64.38 3.84-3.84-2.78-2.78a2.65 2.65 0 0 0 1.29-1.29l2.78 2.78 3.87-3.89-3.89-3.89-2.78 2.78a2.65 2.65 0 0 0 -1.27-1.25l2.78-2.78-3.84-3.88v18z" fill="#2b3990"/><path d="m51.42 26.64 2.78 2.78a2.69 2.69 0 0 0 -1.29 1.29l-2.78-2.78-3.89 3.89 3.89 3.89 2.78-2.78a2.78 2.78 0 0 0 1.29 1.29l-2.78 2.78 3.9 3.89 3.89-3.89-2.78-2.78a2.74 2.74 0 0 0 1.29-1.29l2.77 2.78 3.9-3.89-3.9-3.89-2.77 2.78a2.69 2.69 0 0 0 -1.29-1.29l2.78-2.78-3.89-3.89z" fill="#2b3990"/><path d="m128.65 225.34-2.79-2.78a2.67 2.67 0 0 0 1.3-1.29l2.77 2.78 3.9-3.89-3.9-3.89-2.77 2.78a2.74 2.74 0 0 0 -1.29-1.29l2.78-2.78-3.89-3.89-3.89 3.91 2.78 2.78a2.65 2.65 0 0 0 -1.29 1.29l-2.79-2.78-3.89 3.89 3.89 3.89 2.79-2.78a2.61 2.61 0 0 0 1.29 1.29l-2.78 2.78 3.89 3.89z" fill="#2b3990"/><path d="m74.57 26.64 2.78 2.78a2.61 2.61 0 0 0 -1.29 1.29l-2.78-2.78-3.89 3.89 3.89 3.89 2.78-2.78a2.69 2.69 0 0 0 1.29 1.29l-2.78 2.78 3.89 3.89 3.89-3.89-2.78-2.78a2.65 2.65 0 0 0 1.29-1.29l2.78 2.78 3.89-3.89-3.89-3.89-2.78 2.78a2.61 2.61 0 0 0 -1.29-1.29l2.78-2.78-3.89-3.89z" fill="#2b3990"/><path d="m59.21 225.34-2.79-2.78a2.61 2.61 0 0 0 1.29-1.29l2.78 2.78 3.9-3.89-3.9-3.89-2.77 2.78a2.74 2.74 0 0 0 -1.29-1.29l2.78-2.76-3.9-3.89-3.89 3.89 2.78 2.78a2.74 2.74 0 0 0 -1.29 1.29l-2.78-2.78-3.89 3.89 3.89 3.89 2.78-2.78a2.69 2.69 0 0 0 1.29 1.29l-2.78 2.78 3.89 3.89z" fill="#2b3990"/><path d="m105.5 225.34-2.78-2.78a2.69 2.69 0 0 0 1.29-1.29l2.78 2.78 3.89-3.89-3.89-3.89-2.79 2.78a2.69 2.69 0 0 0 -1.29-1.29l2.79-2.76-3.89-3.89-3.89 3.89 2.78 2.78a2.65 2.65 0 0 0 -1.29 1.29l-2.78-2.78-3.89 3.89 3.89 3.89 2.78-2.78a2.61 2.61 0 0 0 1.29 1.29l-2.78 2.78 3.89 3.89z" fill="#2b3990"/><path d="m82.35 225.34-2.78-2.78a2.61 2.61 0 0 0 1.29-1.29l2.78 2.78 3.89-3.89-3.89-3.89-2.78 2.78a2.65 2.65 0 0 0 -1.29-1.29l2.78-2.76-3.89-3.89-3.89 3.89 2.78 2.78a2.65 2.65 0 0 0 -1.29 1.29l-2.78-2.78-3.89 3.89 3.89 3.89 2.78-2.78a2.61 2.61 0 0 0 1.29 1.29l-2.78 2.78 3.89 3.89z" fill="#2b3990"/><path d="m82.35 131.17-2.78-2.78a2.65 2.65 0 0 0 1.29-1.29l2.78 2.78 3.89-3.88-3.89-3.89-2.78 2.78a2.65 2.65 0 0 0 -1.29-1.29l2.78-2.78-3.89-3.89-3.89 3.89 2.78 2.78a2.65 2.65 0 0 0 -1.29 1.29l-2.78-2.78-3.89 3.89 3.89 3.89 2.78-2.78a2.61 2.61 0 0 0 1.29 1.29l-2.78 2.78 3.89 3.89z" fill="#2b3990"/><path d="m115.51 138.88 2.78 2.78 3.89-3.89-3.89-3.89-2.78 2.78a2.65 2.65 0 0 0 -1.29-1.29l2.78-2.78-3.89-3.89-3.89 3.89 2.78 2.78a2.65 2.65 0 0 0 -1.29 1.29l-2.78-2.78-3.93 3.89 3.89 3.89 2.78-2.78a2.61 2.61 0 0 0 1.29 1.29l-2.74 2.83 3.89 3.89 3.89-3.89-2.78-2.78a2.61 2.61 0 0 0 1.29-1.34z" fill="#2b3990"/><path d="m32.17 135.06 3.89-3.89-2.78-2.78a2.74 2.74 0 0 0 1.29-1.29l2.78 2.78 3.89-3.88-3.89-3.89-2.78 2.78a2.69 2.69 0 0 0 -1.29-1.29l2.78-2.78-3.89-3.89-3.89 3.89 2.78 2.78a2.61 2.61 0 0 0 -1.29 1.29l-2.77-2.79-3.9 3.9 3.9 3.88 2.78-2.78a2.65 2.65 0 0 0 1.29 1.29l-2.78 2.78z" fill="#2b3990"/><path d="m69.22 138.88 2.78 2.78 3.89-3.89-3.89-3.89-2.78 2.78a2.74 2.74 0 0 0 -1.29-1.29l2.78-2.78-3.89-3.89-3.89 3.89 2.78 2.78a2.65 2.65 0 0 0 -1.29 1.29l-2.78-2.78-3.89 3.89 3.89 3.89 2.78-2.78a2.61 2.61 0 0 0 1.29 1.29l-2.78 2.83 3.89 3.89 3.89-3.89-2.78-2.78a2.69 2.69 0 0 0 1.29-1.34z" fill="#2b3990"/><path d="m92.36 138.88 2.78 2.78 3.9-3.89-3.9-3.89-2.77 2.78a2.74 2.74 0 0 0 -1.29-1.29l2.78-2.78-3.86-3.89-3.9 3.89 2.78 2.78a2.74 2.74 0 0 0 -1.29 1.29l-2.78-2.78-3.89 3.89 3.89 3.89 2.78-2.78a2.69 2.69 0 0 0 1.29 1.29l-2.81 2.83 3.9 3.89 3.89-3.89-2.78-2.78a2.63 2.63 0 0 0 1.28-1.34z" fill="#2b3990"/><path d="m46.07 138.88 2.78 2.78 3.89-3.89-3.89-3.89-2.78 2.78a2.65 2.65 0 0 0 -1.29-1.29l2.78-2.78-3.89-3.89-3.89 3.89 2.78 2.78a2.65 2.65 0 0 0 -1.29 1.29l-2.78-2.78-3.89 3.89 3.89 3.89 2.78-2.78a2.61 2.61 0 0 0 1.29 1.29l-2.78 2.83 3.89 3.89 3.89-3.89-2.78-2.78a2.61 2.61 0 0 0 1.29-1.34z" fill="#2b3990"/><path d="m29.77 101.34-2.77-2.78-3.89 3.89 3.89 3.89 2.78-2.78a2.69 2.69 0 0 0 1.29 1.29l-2.78 2.78 3.89 3.89 3.89-3.89-2.78-2.78a2.69 2.69 0 0 0 1.29-1.29l2.78 2.78 3.89-3.89-3.89-3.89-2.78 2.78a2.69 2.69 0 0 0 -1.29-1.29l2.78-2.78-3.89-3.89-3.89 3.89 2.78 2.78a2.61 2.61 0 0 0 -1.3 1.29z" fill="#2b3990"/><path d="m64.42 113.12-2.78-2.78-3.89 3.89 3.89 3.89 2.78-2.78a2.69 2.69 0 0 0 1.29 1.29l-2.78 2.78 3.89 3.89 3.89-3.89-2.78-2.78a2.69 2.69 0 0 0 1.29-1.29l2.78 2.78 3.89-3.89-3.89-3.89-2.78 2.78a2.65 2.65 0 0 0 -1.29-1.29l2.78-2.78-3.89-3.89-3.89 3.89 2.78 2.78a2.61 2.61 0 0 0 -1.29 1.29z" fill="#2b3990"/><path d="m41.27 113.12-2.78-2.78-3.89 3.89 3.89 3.89 2.78-2.78a2.74 2.74 0 0 0 1.29 1.29l-2.78 2.78 3.89 3.89 3.89-3.89-2.78-2.78a2.65 2.65 0 0 0 1.29-1.29l2.78 2.78 3.89-3.89-3.89-3.89-2.78 2.78a2.61 2.61 0 0 0 -1.29-1.29l2.78-2.78-3.89-3.89-3.89 3.89 2.78 2.78a2.65 2.65 0 0 0 -1.29 1.29z" fill="#2b3990"/><path d="m59.21 131.17-2.79-2.78a2.65 2.65 0 0 0 1.29-1.29l2.78 2.78 3.9-3.89-3.9-3.89-2.77 2.78a2.74 2.74 0 0 0 -1.29-1.29l2.78-2.78-3.9-3.89-3.89 3.89 2.78 2.78a2.74 2.74 0 0 0 -1.29 1.29l-2.78-2.78-3.89 3.9 3.89 3.89 2.78-2.78a2.69 2.69 0 0 0 1.29 1.29l-2.78 2.78 3.89 3.89z" fill="#2b3990"/><path d="m147.9 93.38-3.9 3.89 2.78 2.78a2.69 2.69 0 0 0 -1.29 1.29l-2.78-2.78-3.89 3.89 3.89 3.89 2.78-2.78a2.78 2.78 0 0 0 1.29 1.29l-2.78 2.78 3.89 3.89 3.89-3.89-2.78-2.78a2.65 2.65 0 0 0 1.29-1.29l2.78 2.78 3.89-3.89-3.89-3.89-2.78 2.78a2.61 2.61 0 0 0 -1.29-1.29l2.78-2.78z" fill="#2b3990"/><path d="m110.71 89.58-2.78-2.79-3.93 3.9 3.89 3.89 2.78-2.78a2.78 2.78 0 0 0 1.33 1.29l-2.78 2.78 3.89 3.89 3.89-3.89-2.78-2.78a2.65 2.65 0 0 0 1.29-1.29l2.78 2.78 3.89-3.89-3.89-3.9-2.77 2.79a2.74 2.74 0 0 0 -1.3-1.3l2.78-2.78-3.89-3.89-3.89 3.89 2.78 2.78a2.71 2.71 0 0 0 -1.29 1.3z" fill="#2b3990"/><path d="m64.42 89.58-2.78-2.79-3.89 3.9 3.89 3.89 2.78-2.78a2.69 2.69 0 0 0 1.29 1.29l-2.78 2.78 3.89 3.89 3.89-3.89-2.78-2.78a2.69 2.69 0 0 0 1.29-1.29l2.78 2.78 3.89-3.89-3.89-3.9-2.78 2.79a2.71 2.71 0 0 0 -1.29-1.3l2.78-2.78-3.89-3.89-3.89 3.89 2.78 2.78a2.67 2.67 0 0 0 -1.29 1.3z" fill="#2b3990"/><path d="m87.57 89.58-2.79-2.79-3.89 3.9 3.89 3.89 2.79-2.78a2.72 2.72 0 0 0 1.28 1.29l-2.77 2.78 3.92 3.89 3.89-3.89-2.78-2.78a2.67 2.67 0 0 0 1.28-1.29l2.78 2.78 3.83-3.89-3.9-3.9-2.77 2.79a2.76 2.76 0 0 0 -1.29-1.3l2.78-2.78-3.82-3.89-3.92 3.89 2.77 2.78a2.69 2.69 0 0 0 -1.28 1.3z" fill="#2b3990"/><path d="m41.27 89.58-2.78-2.79-3.89 3.9 3.89 3.89 2.78-2.78a2.74 2.74 0 0 0 1.29 1.29l-2.78 2.78 3.89 3.89 3.89-3.89-2.78-2.78a2.65 2.65 0 0 0 1.29-1.29l2.78 2.78 3.89-3.89-3.89-3.9-2.78 2.79a2.67 2.67 0 0 0 -1.29-1.3l2.78-2.78-3.89-3.89-3.89 3.89 2.78 2.78a2.71 2.71 0 0 0 -1.29 1.3z" fill="#2b3990"/><path d="m87.57 113.12-2.79-2.78-3.89 3.89 3.89 3.89 2.79-2.78a2.72 2.72 0 0 0 1.28 1.29l-2.77 2.78 3.92 3.89 3.89-3.89-2.78-2.78a2.67 2.67 0 0 0 1.28-1.29l2.78 2.78 3.9-3.89-3.9-3.89-2.77 2.78a2.69 2.69 0 0 0 -1.29-1.29l2.78-2.78-3.89-3.89-3.89 3.89 2.77 2.78a2.63 2.63 0 0 0 -1.31 1.29z" fill="#2b3990"/><path d="m147.9 116.92-3.9 3.89 2.78 2.78a2.74 2.74 0 0 0 -1.29 1.29l-2.78-2.78-3.88 3.9 3.89 3.89 2.78-2.78a2.69 2.69 0 0 0 1.29 1.29l-2.79 2.77 3.89 3.89 3.89-3.89-2.78-2.78a2.61 2.61 0 0 0 1.29-1.29l2.78 2.78 3.93-3.88-3.89-3.89-2.78 2.78a2.65 2.65 0 0 0 -1.29-1.29l2.78-2.78z" fill="#2b3990"/><path d="m133.86 89.58-2.78-2.79-3.89 3.9 3.89 3.89 2.78-2.78a2.69 2.69 0 0 0 1.29 1.29l-2.78 2.78 3.89 3.89 3.89-3.89-2.78-2.78a2.74 2.74 0 0 0 1.29-1.29l2.78 2.78 3.89-3.89-3.89-3.9-2.78 2.79a2.71 2.71 0 0 0 -1.29-1.3l2.78-2.78-3.89-3.89-3.89 3.89 2.78 2.78a2.67 2.67 0 0 0 -1.29 1.3z" fill="#2b3990"/><path d="m138.66 138.88 2.78 2.78 3.89-3.89-3.89-3.89-2.78 2.78a2.69 2.69 0 0 0 -1.29-1.29l2.78-2.78-3.89-3.89-3.89 3.89 2.78 2.78a2.65 2.65 0 0 0 -1.29 1.29l-2.78-2.78-3.89 3.89 3.89 3.89 2.78-2.78a2.61 2.61 0 0 0 1.29 1.29l-2.78 2.83 3.89 3.89 3.89-3.89-2.78-2.78a2.69 2.69 0 0 0 1.29-1.34z" fill="#2b3990"/><path d="m74.57 97.27 2.78 2.78a2.61 2.61 0 0 0 -1.29 1.29l-2.78-2.78-3.89 3.89 3.89 3.89 2.78-2.78a2.69 2.69 0 0 0 1.29 1.29l-2.78 2.78 3.89 3.89 3.89-3.89-2.78-2.78a2.65 2.65 0 0 0 1.29-1.29l2.78 2.78 3.89-3.89-3.89-3.89-2.78 2.78a2.61 2.61 0 0 0 -1.29-1.29l2.78-2.78-3.89-3.89z" fill="#2b3990"/><path d="m74.57 73.72 2.78 2.78a2.67 2.67 0 0 0 -1.29 1.3l-2.78-2.8-3.89 3.9 3.89 3.88 2.78-2.78a2.61 2.61 0 0 0 1.29 1.29l-2.78 2.79 3.89 3.92 3.89-3.89-2.78-2.81a2.61 2.61 0 0 0 1.29-1.3l2.78 2.78 3.89-3.88-3.89-3.9-2.78 2.78a2.69 2.69 0 0 0 -1.29-1.29l2.78-2.78-3.89-3.89z" fill="#2b3990"/><path d="m97.72 73.72 2.78 2.78a2.67 2.67 0 0 0 -1.29 1.3l-2.78-2.8-3.89 3.9 3.89 3.88 2.78-2.78a2.61 2.61 0 0 0 1.29 1.29l-2.78 2.79 3.89 3.92 3.89-3.89-2.78-2.79a2.69 2.69 0 0 0 1.28-1.32l2.78 2.78 3.89-3.88-3.88-3.9-2.79 2.79a2.69 2.69 0 0 0 -1.29-1.29l2.78-2.78-3.89-3.89z" fill="#2b3990"/><path d="m82.35 154.72-2.78-2.79a2.61 2.61 0 0 0 1.29-1.29l2.78 2.78 3.89-3.88-3.89-3.9-2.78 2.78a2.69 2.69 0 0 0 -1.29-1.29l2.78-2.78-3.89-3.89-3.89 3.89 2.78 2.78a2.67 2.67 0 0 0 -1.29 1.3l-2.78-2.79-3.89 3.9 3.89 3.88 2.78-2.78a2.61 2.61 0 0 0 1.29 1.29l-2.78 2.79 3.89 3.89z" fill="#2b3990"/><path d="m105.5 131.17-2.78-2.78a2.74 2.74 0 0 0 1.28-1.29l2.78 2.78 3.89-3.89-3.89-3.89-2.78 2.78a2.69 2.69 0 0 0 -1.29-1.29l2.78-2.78-3.89-3.89-3.89 3.89 2.78 2.78a2.65 2.65 0 0 0 -1.29 1.29l-2.78-2.78-3.88 3.9 3.89 3.89 2.78-2.78a2.61 2.61 0 0 0 1.29 1.29l-2.78 2.78 3.89 3.89z" fill="#2b3990"/><path d="m128.65 154.72-2.79-2.79a2.67 2.67 0 0 0 1.3-1.29l2.77 2.78 3.9-3.88-3.9-3.9-2.77 2.78a2.78 2.78 0 0 0 -1.29-1.29l2.78-2.78-3.89-3.89-3.89 3.89 2.78 2.78a2.67 2.67 0 0 0 -1.29 1.3l-2.79-2.79-3.89 3.9 3.89 3.88 2.79-2.78a2.61 2.61 0 0 0 1.29 1.29l-2.78 2.79 3.89 3.89z" fill="#2b3990"/><path d="m12.84 154.72-2.78-2.79a2.61 2.61 0 0 0 1.29-1.29l2.78 2.78 3.87-3.88-3.89-3.9-2.78 2.78a2.69 2.69 0 0 0 -1.29-1.29l2.78-2.78-3.82-3.84v18.05z" fill="#2b3990"/><path d="m12.84 131.17-2.78-2.78a2.65 2.65 0 0 0 1.29-1.29l2.78 2.78 3.87-3.88-3.89-3.89-2.78 2.78a2.65 2.65 0 0 0 -1.29-1.29l2.78-2.78-3.82-3.82v18z" fill="#2b3990"/><path d="m9 111.47 3.84-3.84-2.78-2.78a2.65 2.65 0 0 0 1.29-1.29l2.78 2.78 3.87-3.89-3.89-3.89-2.78 2.78a2.61 2.61 0 0 0 -1.29-1.29l2.78-2.78-3.82-3.85v18z" fill="#2b3990"/><path d="m51.42 73.72 2.78 2.78a2.76 2.76 0 0 0 -1.29 1.3l-2.78-2.8-3.89 3.9 3.89 3.88 2.78-2.78a2.69 2.69 0 0 0 1.29 1.3l-2.78 2.79 3.9 3.91 3.89-3.89-2.78-2.81a2.69 2.69 0 0 0 1.29-1.3l2.77 2.78 3.9-3.88-3.9-3.9-2.77 2.78a2.78 2.78 0 0 0 -1.29-1.29l2.78-2.78-3.89-3.89z" fill="#2b3990"/><path d="m105.5 154.72-2.78-2.79a2.69 2.69 0 0 0 1.29-1.29l2.78 2.78 3.89-3.88-3.89-3.9-2.79 2.78a2.74 2.74 0 0 0 -1.29-1.29l2.78-2.78-3.89-3.89-3.89 3.89 2.78 2.78a2.67 2.67 0 0 0 -1.29 1.3l-2.78-2.79-3.89 3.9 3.89 3.88 2.78-2.78a2.61 2.61 0 0 0 1.29 1.29l-2.78 2.79 3.89 3.89z" fill="#2b3990"/><path d="m120.87 97.27 2.78 2.78a2.61 2.61 0 0 0 -1.29 1.29l-2.79-2.78-3.89 3.89 3.89 3.89 2.79-2.78a2.69 2.69 0 0 0 1.29 1.29l-2.78 2.78 3.89 3.89 3.89-3.89-2.79-2.78a2.71 2.71 0 0 0 1.3-1.29l2.77 2.78 3.9-3.89-3.9-3.89-2.77 2.78a2.69 2.69 0 0 0 -1.29-1.29l2.78-2.78-3.89-3.89z" fill="#2b3990"/><path d="m59.21 154.72-2.79-2.79a2.61 2.61 0 0 0 1.29-1.29l2.78 2.78 3.9-3.88-3.9-3.9-2.77 2.78a2.78 2.78 0 0 0 -1.29-1.29l2.78-2.78-3.9-3.89-3.89 3.89 2.78 2.78a2.76 2.76 0 0 0 -1.29 1.3l-2.78-2.79-3.89 3.9 3.89 3.88 2.78-2.78a2.69 2.69 0 0 0 1.29 1.29l-2.78 2.79 3.89 3.89z" fill="#2b3990"/><path d="m128.65 131.17-2.79-2.78a2.71 2.71 0 0 0 1.3-1.29l2.77 2.78 3.9-3.89-3.9-3.89-2.77 2.78a2.74 2.74 0 0 0 -1.29-1.29l2.78-2.78-3.89-3.89-3.89 3.89 2.78 2.78a2.65 2.65 0 0 0 -1.29 1.29l-2.79-2.78-3.89 3.9 3.89 3.89 2.79-2.78a2.61 2.61 0 0 0 1.29 1.29l-2.78 2.78 3.89 3.89z" fill="#2b3990"/><path d="m110.71 113.12-2.78-2.78-3.93 3.89 3.89 3.89 2.78-2.78a2.78 2.78 0 0 0 1.29 1.29l-2.78 2.78 3.89 3.89 3.89-3.89-2.78-2.78a2.65 2.65 0 0 0 1.29-1.29l2.78 2.78 3.89-3.89-3.89-3.89-2.77 2.78a2.67 2.67 0 0 0 -1.3-1.29l2.78-2.78-3.89-3.89-3.89 3.89 2.78 2.78a2.65 2.65 0 0 0 -1.25 1.29z" fill="#2b3990"/><path d="m133.86 113.12-2.78-2.78-3.89 3.89 3.89 3.89 2.78-2.78a2.69 2.69 0 0 0 1.29 1.29l-2.78 2.78 3.89 3.89 3.89-3.89-2.78-2.78a2.74 2.74 0 0 0 1.29-1.29l2.78 2.78 3.89-3.89-3.89-3.89-2.78 2.78a2.65 2.65 0 0 0 -1.29-1.29l2.78-2.78-3.89-3.89-3.89 3.89 2.78 2.78a2.61 2.61 0 0 0 -1.29 1.29z" fill="#2b3990"/><path d="m51.42 97.27 2.78 2.78a2.69 2.69 0 0 0 -1.29 1.29l-2.78-2.78-3.89 3.89 3.89 3.89 2.78-2.78a2.78 2.78 0 0 0 1.29 1.29l-2.78 2.78 3.9 3.89 3.89-3.89-2.78-2.78a2.74 2.74 0 0 0 1.29-1.29l2.77 2.78 3.9-3.89-3.9-3.89-2.77 2.78a2.69 2.69 0 0 0 -1.29-1.29l2.78-2.78-3.89-3.89z" fill="#2b3990"/><path d="m59.21 178.26-2.79-2.78a2.65 2.65 0 0 0 1.29-1.29l2.78 2.81 3.9-3.88-3.9-3.9-2.77 2.78a2.76 2.76 0 0 0 -1.29-1.3l2.78-2.77-3.9-3.93-3.89 3.89 2.78 2.77a2.76 2.76 0 0 0 -1.29 1.3l-2.78-2.78-3.89 3.89 3.89 3.93 2.78-2.78a2.78 2.78 0 0 0 1.29 1.29l-2.78 2.78 3.89 3.89z" fill="#2b3990"/><path d="m97.72 97.27 2.78 2.78a2.61 2.61 0 0 0 -1.29 1.29l-2.78-2.78-3.89 3.89 3.89 3.89 2.78-2.78a2.69 2.69 0 0 0 1.29 1.29l-2.78 2.78 3.89 3.89 3.89-3.89-2.78-2.78a2.74 2.74 0 0 0 1.29-1.29l2.78 2.78 3.89-3.89-3.89-3.89-2.79 2.78a2.61 2.61 0 0 0 -1.29-1.29l2.78-2.78-3.89-3.89z" fill="#2b3990"/><path d="m171 17.1v-.1a8 8 0 0 0 -8-8h-146a8 8 0 0 0 -8 8v218a8 8 0 0 0 8 8h146a8 8 0 0 0 8-8zm-146 7.9h130v202h-130z" fill="#2b3990"/><g fill="#fff"><path d="m15.39 46.2a6.56 6.56 0 0 1 -3.22 1.66 6.65 6.65 0 0 1 1.65-3.23 6.55 6.55 0 0 1 3.23-1.63 6.6 6.6 0 0 1 -1.66 3.2z"/><path d="m13.83 41.32a6.62 6.62 0 0 1 -1.66-3.23 6.56 6.56 0 0 1 3.22 1.66 6.6 6.6 0 0 1 1.66 3.25 6.5 6.5 0 0 1 -3.22-1.68z"/><path d="m20.28 44.63a6.55 6.55 0 0 1 1.65 3.23 6.6 6.6 0 0 1 -3.22-1.66 6.6 6.6 0 0 1 -1.66-3.2 6.55 6.55 0 0 1 3.23 1.63z"/><path d="m20.28 41.32a6.55 6.55 0 0 1 -3.23 1.68 6.6 6.6 0 0 1 1.66-3.22 6.6 6.6 0 0 1 3.22-1.66 6.55 6.55 0 0 1 -1.65 3.2z"/><circle cx="17.05" cy="42.98" r="1.1"/><circle cx="17.05" cy="38.09" r="1.1"/><circle cx="21.94" cy="42.98" r="1.1"/><circle cx="12.17" cy="42.98" r="1.1"/><circle cx="17.05" cy="47.86" r="1.1"/><path d="m15.39 36.43a6.56 6.56 0 0 1 -3.22 1.66 6.65 6.65 0 0 1 1.65-3.23 6.65 6.65 0 0 1 3.23-1.65 6.56 6.56 0 0 1 -1.66 3.22z"/><path d="m13.83 31.55a6.62 6.62 0 0 1 -1.66-3.23 6.56 6.56 0 0 1 3.22 1.68 6.62 6.62 0 0 1 1.66 3.23 6.56 6.56 0 0 1 -3.22-1.68z"/><path d="m20.28 34.86a6.55 6.55 0 0 1 1.65 3.23 6.6 6.6 0 0 1 -3.22-1.66 6.56 6.56 0 0 1 -1.66-3.22 6.65 6.65 0 0 1 3.23 1.65z"/><path d="m20.28 31.55a6.62 6.62 0 0 1 -3.23 1.66 6.62 6.62 0 0 1 1.66-3.21 6.6 6.6 0 0 1 3.22-1.66 6.55 6.55 0 0 1 -1.65 3.21z"/><circle cx="17.05" cy="33.21" r="1.1"/><circle cx="17.05" cy="28.32" r="1.1"/><circle cx="21.94" cy="33.21" r="1.1"/><circle cx="12.17" cy="33.21" r="1.1"/><circle cx="17.05" cy="38.09" r="1.1"/><path d="m15.39 65.74a6.5 6.5 0 0 1 -3.22 1.65 6.64 6.64 0 0 1 1.65-3.22 6.62 6.62 0 0 1 3.23-1.66 6.62 6.62 0 0 1 -1.66 3.23z"/><path d="m13.83 60.85a6.6 6.6 0 0 1 -1.66-3.22 6.5 6.5 0 0 1 3.22 1.65 6.62 6.62 0 0 1 1.66 3.23 6.56 6.56 0 0 1 -3.22-1.66z"/><path d="m20.28 64.17a6.55 6.55 0 0 1 1.65 3.23 6.6 6.6 0 0 1 -3.22-1.66 6.62 6.62 0 0 1 -1.66-3.23 6.62 6.62 0 0 1 3.23 1.66z"/><path d="m20.28 60.85a6.62 6.62 0 0 1 -3.23 1.66 6.62 6.62 0 0 1 1.66-3.23 6.54 6.54 0 0 1 3.22-1.65 6.54 6.54 0 0 1 -1.65 3.22z"/><circle cx="17.05" cy="62.51" r="1.1"/><circle cx="17.05" cy="57.63" r="1.1"/><circle cx="21.94" cy="62.51" r="1.1"/><circle cx="12.17" cy="62.51" r="1.1"/><circle cx="17.05" cy="67.39" r="1.1"/><path d="m15.39 56a6.56 6.56 0 0 1 -3.22 1.66 6.65 6.65 0 0 1 1.65-3.23 6.62 6.62 0 0 1 3.23-1.66 6.62 6.62 0 0 1 -1.66 3.23z"/><path d="m13.83 51.09a6.62 6.62 0 0 1 -1.66-3.23 6.56 6.56 0 0 1 3.22 1.66 6.6 6.6 0 0 1 1.66 3.22 6.6 6.6 0 0 1 -3.22-1.65z"/><path d="m20.28 54.4a6.55 6.55 0 0 1 1.65 3.23 6.6 6.6 0 0 1 -3.22-1.63 6.62 6.62 0 0 1 -1.66-3.23 6.62 6.62 0 0 1 3.23 1.63z"/><path d="m20.28 51.09a6.65 6.65 0 0 1 -3.23 1.65 6.56 6.56 0 0 1 1.66-3.22 6.6 6.6 0 0 1 3.22-1.66 6.55 6.55 0 0 1 -1.65 3.23z"/><circle cx="17.05" cy="52.74" r="1.1"/><circle cx="17.05" cy="47.86" r="1.1"/><circle cx="21.94" cy="52.74" r="1.1"/><circle cx="12.17" cy="52.74" r="1.1"/><circle cx="17.05" cy="57.63" r="1.1"/><path d="m15.39 85.27a6.56 6.56 0 0 1 -3.22 1.66 6.65 6.65 0 0 1 1.65-3.23 6.62 6.62 0 0 1 3.23-1.7 6.62 6.62 0 0 1 -1.66 3.27z"/><path d="m13.83 80.39a6.62 6.62 0 0 1 -1.66-3.23 6.56 6.56 0 0 1 3.22 1.66 6.6 6.6 0 0 1 1.66 3.18 6.5 6.5 0 0 1 -3.22-1.61z"/><path d="m20.28 83.7a6.55 6.55 0 0 1 1.65 3.23 6.6 6.6 0 0 1 -3.22-1.66 6.6 6.6 0 0 1 -1.66-3.22 6.55 6.55 0 0 1 3.23 1.65z"/><path d="m20.28 80.39a6.55 6.55 0 0 1 -3.23 1.61 6.6 6.6 0 0 1 1.66-3.22 6.6 6.6 0 0 1 3.22-1.66 6.55 6.55 0 0 1 -1.65 3.27z"/><circle cx="17.05" cy="82.05" r="1.1"/><circle cx="17.05" cy="77.16" r="1.1"/><circle cx="21.94" cy="82.05" r="1.1"/><circle cx="12.17" cy="82.05" r="1.1"/><circle cx="17.05" cy="86.93" r="1.1"/><path d="m15.39 75.51a6.6 6.6 0 0 1 -3.22 1.65 6.6 6.6 0 0 1 1.65-3.22 6.62 6.62 0 0 1 3.23-1.66 6.62 6.62 0 0 1 -1.66 3.23z"/><path d="m13.83 70.62a6.62 6.62 0 0 1 -1.66-3.23 6.56 6.56 0 0 1 3.22 1.66 6.62 6.62 0 0 1 1.66 3.23 6.56 6.56 0 0 1 -3.22-1.66z"/><path d="m20.28 73.94a6.5 6.5 0 0 1 1.65 3.22 6.64 6.64 0 0 1 -3.22-1.65 6.62 6.62 0 0 1 -1.66-3.23 6.62 6.62 0 0 1 3.23 1.66z"/><path d="m20.28 70.62a6.62 6.62 0 0 1 -3.23 1.66 6.62 6.62 0 0 1 1.66-3.23 6.6 6.6 0 0 1 3.22-1.66 6.55 6.55 0 0 1 -1.65 3.23z"/><circle cx="17.05" cy="72.28" r="1.1"/><circle cx="17.05" cy="67.39" r="1.1"/><circle cx="21.94" cy="72.28" r="1.1"/><circle cx="12.17" cy="72.28" r="1.1"/><circle cx="17.05" cy="77.16" r="1.1"/><path d="m15.39 104.81a6.5 6.5 0 0 1 -3.22 1.65 6.64 6.64 0 0 1 1.65-3.22 6.62 6.62 0 0 1 3.23-1.66 6.62 6.62 0 0 1 -1.66 3.23z"/><path d="m13.83 99.93a6.62 6.62 0 0 1 -1.66-3.23 6.6 6.6 0 0 1 3.22 1.65 6.62 6.62 0 0 1 1.66 3.23 6.6 6.6 0 0 1 -3.22-1.65z"/><path d="m20.28 103.24a6.54 6.54 0 0 1 1.65 3.22 6.54 6.54 0 0 1 -3.22-1.65 6.62 6.62 0 0 1 -1.66-3.23 6.62 6.62 0 0 1 3.23 1.66z"/><path d="m20.28 99.93a6.65 6.65 0 0 1 -3.23 1.65 6.62 6.62 0 0 1 1.66-3.23 6.54 6.54 0 0 1 3.22-1.65 6.55 6.55 0 0 1 -1.65 3.23z"/><circle cx="17.05" cy="101.58" r="1.1"/><circle cx="17.05" cy="96.7" r="1.1"/><circle cx="21.94" cy="101.58" r="1.1"/><circle cx="12.17" cy="101.58" r="1.1"/><circle cx="17.05" cy="106.46" r="1.1"/><path d="m15.39 95a6.56 6.56 0 0 1 -3.22 1.66 6.65 6.65 0 0 1 1.65-3.23 6.62 6.62 0 0 1 3.23-1.66 6.62 6.62 0 0 1 -1.66 3.23z"/><path d="m13.83 90.16a6.62 6.62 0 0 1 -1.66-3.23 6.56 6.56 0 0 1 3.22 1.66 6.6 6.6 0 0 1 1.66 3.22 6.5 6.5 0 0 1 -3.22-1.65z"/><path d="m20.28 93.47a6.55 6.55 0 0 1 1.65 3.23 6.6 6.6 0 0 1 -3.22-1.7 6.62 6.62 0 0 1 -1.66-3.23 6.62 6.62 0 0 1 3.23 1.7z"/><path d="m20.28 90.16a6.55 6.55 0 0 1 -3.23 1.65 6.6 6.6 0 0 1 1.66-3.22 6.6 6.6 0 0 1 3.22-1.66 6.55 6.55 0 0 1 -1.65 3.23z"/><circle cx="17.05" cy="91.81" r="1.1"/><circle cx="17.05" cy="86.93" r="1.1"/><circle cx="21.94" cy="91.81" r="1.1"/><circle cx="12.17" cy="91.81" r="1.1"/><circle cx="17.05" cy="96.7" r="1.1"/><path d="m15.39 124.34a6.56 6.56 0 0 1 -3.22 1.66 6.65 6.65 0 0 1 1.65-3.23 6.55 6.55 0 0 1 3.23-1.65 6.6 6.6 0 0 1 -1.66 3.22z"/><path d="m13.83 119.46a6.62 6.62 0 0 1 -1.66-3.23 6.56 6.56 0 0 1 3.22 1.66 6.62 6.62 0 0 1 1.66 3.23 6.56 6.56 0 0 1 -3.22-1.66z"/><path d="m20.28 122.77a6.55 6.55 0 0 1 1.65 3.23 6.6 6.6 0 0 1 -3.22-1.66 6.6 6.6 0 0 1 -1.66-3.22 6.65 6.65 0 0 1 3.23 1.65z"/><path d="m20.28 119.46a6.62 6.62 0 0 1 -3.23 1.66 6.62 6.62 0 0 1 1.66-3.23 6.6 6.6 0 0 1 3.22-1.66 6.55 6.55 0 0 1 -1.65 3.23z"/><circle cx="17.05" cy="121.12" r="1.1"/><circle cx="17.05" cy="116.23" r="1.1"/><circle cx="21.94" cy="121.12" r="1.1"/><circle cx="12.17" cy="121.12" r="1.1"/><circle cx="17.05" cy="126" r="1.1"/><path d="m15.39 114.58a6.5 6.5 0 0 1 -3.22 1.65 6.6 6.6 0 0 1 1.65-3.23 6.62 6.62 0 0 1 3.23-1.66 6.62 6.62 0 0 1 -1.66 3.24z"/><path d="m13.83 109.69a6.62 6.62 0 0 1 -1.66-3.23 6.56 6.56 0 0 1 3.22 1.66 6.62 6.62 0 0 1 1.66 3.23 6.56 6.56 0 0 1 -3.22-1.66z"/><path d="m20.28 113a6.54 6.54 0 0 1 1.65 3.22 6.54 6.54 0 0 1 -3.22-1.65 6.62 6.62 0 0 1 -1.66-3.23 6.62 6.62 0 0 1 3.23 1.66z"/><path d="m20.28 109.69a6.62 6.62 0 0 1 -3.23 1.66 6.62 6.62 0 0 1 1.66-3.23 6.6 6.6 0 0 1 3.22-1.66 6.55 6.55 0 0 1 -1.65 3.23z"/><circle cx="17.05" cy="111.35" r="1.1"/><circle cx="17.05" cy="106.46" r="1.1"/><circle cx="21.94" cy="111.35" r="1.1"/><circle cx="12.17" cy="111.35" r="1.1"/><circle cx="17.05" cy="116.23" r="1.1"/><path d="m15.39 143.88a6.56 6.56 0 0 1 -3.22 1.66 6.65 6.65 0 0 1 1.65-3.23 6.62 6.62 0 0 1 3.23-1.66 6.62 6.62 0 0 1 -1.66 3.23z"/><path d="m13.83 139a6.56 6.56 0 0 1 -1.66-3.22 6.56 6.56 0 0 1 3.22 1.66 6.56 6.56 0 0 1 1.66 3.22 6.56 6.56 0 0 1 -3.22-1.66z"/><path d="m20.28 142.31a6.55 6.55 0 0 1 1.65 3.23 6.6 6.6 0 0 1 -3.22-1.66 6.62 6.62 0 0 1 -1.66-3.23 6.62 6.62 0 0 1 3.23 1.66z"/><path d="m20.28 139a6.65 6.65 0 0 1 -3.23 1.65 6.56 6.56 0 0 1 1.66-3.22 6.6 6.6 0 0 1 3.22-1.66 6.55 6.55 0 0 1 -1.65 3.23z"/><circle cx="17.05" cy="140.65" r="1.1"/><circle cx="17.05" cy="135.77" r="1.1"/><circle cx="21.94" cy="140.65" r="1.1"/><circle cx="12.17" cy="140.65" r="1.1"/><circle cx="17.05" cy="145.54" r="1.1"/><path d="m15.39 134.11a6.56 6.56 0 0 1 -3.22 1.66 6.65 6.65 0 0 1 1.65-3.23 6.62 6.62 0 0 1 3.23-1.66 6.62 6.62 0 0 1 -1.66 3.23z"/><path d="m13.83 129.23a6.62 6.62 0 0 1 -1.66-3.23 6.56 6.56 0 0 1 3.22 1.66 6.6 6.6 0 0 1 1.66 3.22 6.5 6.5 0 0 1 -3.22-1.65z"/><path d="m20.28 132.54a6.55 6.55 0 0 1 1.65 3.23 6.6 6.6 0 0 1 -3.22-1.66 6.62 6.62 0 0 1 -1.66-3.23 6.62 6.62 0 0 1 3.23 1.66z"/><path d="m20.28 129.23a6.55 6.55 0 0 1 -3.23 1.65 6.6 6.6 0 0 1 1.66-3.22 6.6 6.6 0 0 1 3.22-1.66 6.55 6.55 0 0 1 -1.65 3.23z"/><circle cx="17.05" cy="130.88" r="1.1"/><circle cx="17.05" cy="126" r="1.1"/><circle cx="21.94" cy="130.88" r="1.1"/><circle cx="12.17" cy="130.88" r="1.1"/><circle cx="17.05" cy="135.77" r="1.1"/><path d="m15.39 163.41a6.56 6.56 0 0 1 -3.22 1.66 6.6 6.6 0 0 1 1.65-3.22 6.62 6.62 0 0 1 3.23-1.66 6.56 6.56 0 0 1 -1.66 3.22z"/><path d="m13.83 158.53a6.62 6.62 0 0 1 -1.66-3.23 6.56 6.56 0 0 1 3.22 1.7 6.62 6.62 0 0 1 1.66 3.23 6.56 6.56 0 0 1 -3.22-1.7z"/><path d="m20.28 161.85a6.5 6.5 0 0 1 1.65 3.22 6.6 6.6 0 0 1 -3.22-1.66 6.56 6.56 0 0 1 -1.66-3.22 6.62 6.62 0 0 1 3.23 1.66z"/><path d="m20.28 158.53a6.62 6.62 0 0 1 -3.23 1.66 6.62 6.62 0 0 1 1.66-3.19 6.6 6.6 0 0 1 3.22-1.66 6.55 6.55 0 0 1 -1.65 3.19z"/><circle cx="17.05" cy="160.19" r="1.1"/><circle cx="17.05" cy="155.3" r="1.1"/><circle cx="21.94" cy="160.19" r="1.1"/><circle cx="12.17" cy="160.19" r="1.1"/><circle cx="17.05" cy="165.07" r="1.1"/><path d="m15.39 153.65a6.6 6.6 0 0 1 -3.22 1.65 6.64 6.64 0 0 1 1.65-3.22 6.62 6.62 0 0 1 3.23-1.66 6.62 6.62 0 0 1 -1.66 3.23z"/><path d="m13.83 148.76a6.62 6.62 0 0 1 -1.66-3.23 6.56 6.56 0 0 1 3.22 1.66 6.62 6.62 0 0 1 1.66 3.23 6.56 6.56 0 0 1 -3.22-1.66z"/><path d="m20.28 152.08a6.54 6.54 0 0 1 1.65 3.22 6.64 6.64 0 0 1 -3.22-1.65 6.62 6.62 0 0 1 -1.66-3.23 6.62 6.62 0 0 1 3.23 1.66z"/><path d="m20.28 148.76a6.62 6.62 0 0 1 -3.23 1.66 6.62 6.62 0 0 1 1.66-3.23 6.54 6.54 0 0 1 3.22-1.65 6.54 6.54 0 0 1 -1.65 3.22z"/><circle cx="17.05" cy="150.42" r="1.1"/><circle cx="17.05" cy="145.54" r="1.1"/><circle cx="21.94" cy="150.42" r="1.1"/><circle cx="12.17" cy="150.42" r="1.1"/><circle cx="17.05" cy="155.3" r="1.1"/><path d="m15.39 183a6.56 6.56 0 0 1 -3.22 1.66 6.65 6.65 0 0 1 1.65-3.23 6.62 6.62 0 0 1 3.23-1.66 6.62 6.62 0 0 1 -1.66 3.23z"/><path d="m13.83 178.07a6.66 6.66 0 0 1 -1.66-3.23 6.56 6.56 0 0 1 3.22 1.66 6.56 6.56 0 0 1 1.66 3.22 6.6 6.6 0 0 1 -3.22-1.65z"/><path d="m20.28 181.38a6.55 6.55 0 0 1 1.65 3.23 6.6 6.6 0 0 1 -3.22-1.61 6.62 6.62 0 0 1 -1.66-3.23 6.62 6.62 0 0 1 3.23 1.61z"/><path d="m20.28 178.07a6.65 6.65 0 0 1 -3.23 1.65 6.56 6.56 0 0 1 1.66-3.22 6.6 6.6 0 0 1 3.22-1.66 6.55 6.55 0 0 1 -1.65 3.23z"/><circle cx="17.05" cy="179.72" r="1.1"/><circle cx="17.05" cy="174.84" r="1.1"/><circle cx="21.94" cy="179.72" r="1.1"/><circle cx="12.17" cy="179.72" r="1.1"/><circle cx="17.05" cy="184.61" r="1.1"/><path d="m15.39 173.18a6.56 6.56 0 0 1 -3.22 1.66 6.65 6.65 0 0 1 1.65-3.23 6.62 6.62 0 0 1 3.23-1.61 6.62 6.62 0 0 1 -1.66 3.18z"/><path d="m13.83 168.3a6.62 6.62 0 0 1 -1.66-3.23 6.56 6.56 0 0 1 3.22 1.66 6.6 6.6 0 0 1 1.66 3.27 6.5 6.5 0 0 1 -3.22-1.7z"/><path d="m20.28 171.61a6.55 6.55 0 0 1 1.65 3.23 6.6 6.6 0 0 1 -3.22-1.66 6.62 6.62 0 0 1 -1.66-3.18 6.62 6.62 0 0 1 3.23 1.61z"/><path d="m20.28 168.3a6.55 6.55 0 0 1 -3.23 1.7 6.6 6.6 0 0 1 1.66-3.22 6.6 6.6 0 0 1 3.22-1.66 6.55 6.55 0 0 1 -1.65 3.18z"/><circle cx="17.05" cy="169.95" r="1.1"/><circle cx="17.05" cy="165.07" r="1.1"/><circle cx="21.94" cy="169.95" r="1.1"/><circle cx="12.17" cy="169.95" r="1.1"/><circle cx="17.05" cy="174.84" r="1.1"/><path d="m15.39 202.48a6.56 6.56 0 0 1 -3.22 1.66 6.65 6.65 0 0 1 1.65-3.23 6.65 6.65 0 0 1 3.23-1.65 6.56 6.56 0 0 1 -1.66 3.22z"/><path d="m13.83 197.6a6.62 6.62 0 0 1 -1.66-3.23 6.56 6.56 0 0 1 3.22 1.63 6.62 6.62 0 0 1 1.66 3.23 6.56 6.56 0 0 1 -3.22-1.63z"/><path d="m20.28 200.92a6.54 6.54 0 0 1 1.65 3.22 6.6 6.6 0 0 1 -3.22-1.66 6.56 6.56 0 0 1 -1.66-3.22 6.62 6.62 0 0 1 3.23 1.66z"/><path d="m20.28 197.6a6.62 6.62 0 0 1 -3.23 1.66 6.62 6.62 0 0 1 1.66-3.26 6.6 6.6 0 0 1 3.22-1.66 6.55 6.55 0 0 1 -1.65 3.26z"/><circle cx="17.05" cy="199.26" r="1.1"/><circle cx="17.05" cy="194.38" r="1.1"/><circle cx="21.94" cy="199.26" r="1.1"/><circle cx="12.17" cy="199.26" r="1.1"/><circle cx="17.05" cy="204.14" r="1.1"/><path d="m15.39 192.72a6.5 6.5 0 0 1 -3.22 1.65 6.6 6.6 0 0 1 1.65-3.22 6.62 6.62 0 0 1 3.23-1.66 6.62 6.62 0 0 1 -1.66 3.23z"/><path d="m13.83 187.83a6.6 6.6 0 0 1 -1.66-3.22 6.6 6.6 0 0 1 3.22 1.65 6.62 6.62 0 0 1 1.66 3.23 6.56 6.56 0 0 1 -3.22-1.66z"/><path d="m20.28 191.15a6.55 6.55 0 0 1 1.65 3.23 6.6 6.6 0 0 1 -3.22-1.66 6.62 6.62 0 0 1 -1.66-3.23 6.62 6.62 0 0 1 3.23 1.66z"/><path d="m20.28 187.83a6.62 6.62 0 0 1 -3.23 1.66 6.62 6.62 0 0 1 1.66-3.23 6.54 6.54 0 0 1 3.22-1.65 6.54 6.54 0 0 1 -1.65 3.22z"/><circle cx="17.05" cy="189.49" r="1.1"/><circle cx="17.05" cy="184.61" r="1.1"/><circle cx="21.94" cy="189.49" r="1.1"/><circle cx="12.17" cy="189.49" r="1.1"/><circle cx="17.05" cy="194.38" r="1.1"/><path d="m15.39 222a6.56 6.56 0 0 1 -3.22 1.66 6.65 6.65 0 0 1 1.65-3.23 6.62 6.62 0 0 1 3.23-1.66 6.62 6.62 0 0 1 -1.66 3.23z"/><path d="m13.83 217.14a6.62 6.62 0 0 1 -1.66-3.23 6.56 6.56 0 0 1 3.22 1.66 6.6 6.6 0 0 1 1.66 3.22 6.6 6.6 0 0 1 -3.22-1.65z"/><path d="m20.28 220.45a6.55 6.55 0 0 1 1.65 3.23 6.6 6.6 0 0 1 -3.22-1.68 6.62 6.62 0 0 1 -1.66-3.23 6.62 6.62 0 0 1 3.23 1.68z"/><path d="m20.28 217.14a6.65 6.65 0 0 1 -3.23 1.65 6.6 6.6 0 0 1 1.66-3.22 6.6 6.6 0 0 1 3.22-1.66 6.55 6.55 0 0 1 -1.65 3.23z"/><circle cx="17.05" cy="218.79" r="1.1"/><circle cx="17.05" cy="213.91" r="1.1"/><circle cx="21.94" cy="218.79" r="1.1"/><circle cx="12.17" cy="218.79" r="1.1"/><circle cx="17.05" cy="223.68" r="1.1"/><path d="m15.39 212.25a6.56 6.56 0 0 1 -3.22 1.66 6.65 6.65 0 0 1 1.65-3.23 6.62 6.62 0 0 1 3.23-1.68 6.62 6.62 0 0 1 -1.66 3.25z"/><path d="m13.83 207.37a6.62 6.62 0 0 1 -1.66-3.23 6.56 6.56 0 0 1 3.22 1.66 6.62 6.62 0 0 1 1.66 3.2 6.56 6.56 0 0 1 -3.22-1.63z"/><path d="m20.28 210.68a6.55 6.55 0 0 1 1.65 3.23 6.6 6.6 0 0 1 -3.22-1.66 6.6 6.6 0 0 1 -1.66-3.25 6.55 6.55 0 0 1 3.23 1.68z"/><path d="m20.28 207.37a6.62 6.62 0 0 1 -3.23 1.63 6.62 6.62 0 0 1 1.66-3.23 6.6 6.6 0 0 1 3.22-1.66 6.55 6.55 0 0 1 -1.65 3.26z"/><circle cx="17.05" cy="209.02" r="1.1"/><circle cx="17.05" cy="204.14" r="1.1"/><circle cx="21.94" cy="209.02" r="1.1"/><circle cx="12.17" cy="209.02" r="1.1"/><circle cx="17.05" cy="213.91" r="1.1"/><path d="m161.29 46.2a6.6 6.6 0 0 1 -3.22 1.66 5.89 5.89 0 0 1 4.93-4.86 6.6 6.6 0 0 1 -1.71 3.2z"/><path d="m159.72 41.32a6.55 6.55 0 0 1 -1.65-3.23 5.95 5.95 0 0 1 4.93 4.91 6.55 6.55 0 0 1 -3.28-1.68z"/><path d="m166.17 44.63a6.62 6.62 0 0 1 1.66 3.23 5.95 5.95 0 0 1 -4.83-4.86 6.5 6.5 0 0 1 3.17 1.63z"/><path d="m166.17 41.32a6.5 6.5 0 0 1 -3.17 1.68 5.95 5.95 0 0 1 4.88-4.88 6.62 6.62 0 0 1 -1.71 3.2z"/><circle cx="162.95" cy="42.98" r="1.1"/><circle cx="162.95" cy="38.09" r="1.1"/><circle cx="167.83" cy="42.98" r="1.1"/><circle cx="158.07" cy="42.98" r="1.1"/><circle cx="162.95" cy="47.86" r="1.1"/><path d="m161.29 36.43a6.6 6.6 0 0 1 -3.22 1.66 6.55 6.55 0 0 1 1.65-3.23 6.65 6.65 0 0 1 3.28-1.65 6.56 6.56 0 0 1 -1.71 3.22z"/><path d="m159.72 31.55a6.55 6.55 0 0 1 -1.65-3.23 5.94 5.94 0 0 1 4.93 4.89 6.62 6.62 0 0 1 -3.28-1.66z"/><path d="m166.17 34.86a6.62 6.62 0 0 1 1.66 3.23 5.95 5.95 0 0 1 -4.83-4.88 6.6 6.6 0 0 1 3.17 1.65z"/><path d="m166.17 31.55a6.56 6.56 0 0 1 -3.17 1.66 5.94 5.94 0 0 1 4.88-4.89 6.62 6.62 0 0 1 -1.71 3.23z"/><circle cx="162.95" cy="33.21" r="1.1"/><circle cx="162.95" cy="28.32" r="1.1"/><circle cx="167.83" cy="33.21" r="1.1"/><circle cx="158.07" cy="33.21" r="1.1"/><circle cx="162.95" cy="38.09" r="1.1"/><path d="m161.29 65.74a6.54 6.54 0 0 1 -3.22 1.65 6.54 6.54 0 0 1 1.65-3.22 6.62 6.62 0 0 1 3.28-1.66 6.62 6.62 0 0 1 -1.71 3.23z"/><path d="m159.72 60.85a6.54 6.54 0 0 1 -1.65-3.22 6.54 6.54 0 0 1 3.22 1.65 6.62 6.62 0 0 1 1.71 3.23 6.62 6.62 0 0 1 -3.28-1.66z"/><path d="m166.17 64.17a6.62 6.62 0 0 1 1.66 3.23 5.94 5.94 0 0 1 -4.83-4.89 6.56 6.56 0 0 1 3.17 1.66z"/><path d="m166.17 60.85a6.56 6.56 0 0 1 -3.17 1.66 6.62 6.62 0 0 1 1.66-3.23 6.5 6.5 0 0 1 3.22-1.65 6.6 6.6 0 0 1 -1.71 3.22z"/><circle cx="162.95" cy="62.51" r="1.1"/><circle cx="162.95" cy="57.63" r="1.1"/><circle cx="167.83" cy="62.51" r="1.1"/><circle cx="158.07" cy="62.51" r="1.1"/><circle cx="162.95" cy="67.39" r="1.1"/><path d="m161.29 56a6.6 6.6 0 0 1 -3.22 1.66 5.91 5.91 0 0 1 4.93-4.92 6.62 6.62 0 0 1 -1.71 3.26z"/><path d="m159.72 51.09a6.55 6.55 0 0 1 -1.65-3.23 5.95 5.95 0 0 1 4.93 4.88 6.65 6.65 0 0 1 -3.28-1.65z"/><path d="m166.17 54.4a6.62 6.62 0 0 1 1.66 3.23 5.94 5.94 0 0 1 -4.83-4.89 6.56 6.56 0 0 1 3.17 1.66z"/><path d="m166.17 51.09a6.6 6.6 0 0 1 -3.17 1.65 5.95 5.95 0 0 1 4.88-4.88 6.62 6.62 0 0 1 -1.71 3.23z"/><circle cx="162.95" cy="52.74" r="1.1"/><circle cx="162.95" cy="47.86" r="1.1"/><circle cx="167.83" cy="52.74" r="1.1"/><circle cx="158.07" cy="52.74" r="1.1"/><circle cx="162.95" cy="57.63" r="1.1"/><path d="m161.29 85.27a6.6 6.6 0 0 1 -3.22 1.66 5.91 5.91 0 0 1 4.93-4.93 6.62 6.62 0 0 1 -1.71 3.27z"/><path d="m159.72 80.39a6.55 6.55 0 0 1 -1.65-3.23 5.95 5.95 0 0 1 4.93 4.84 6.55 6.55 0 0 1 -3.28-1.61z"/><path d="m166.17 83.7a6.62 6.62 0 0 1 1.66 3.23 5.95 5.95 0 0 1 -4.83-4.88 6.5 6.5 0 0 1 3.17 1.65z"/><path d="m166.17 80.39a6.5 6.5 0 0 1 -3.17 1.61 5.95 5.95 0 0 1 4.88-4.88 6.62 6.62 0 0 1 -1.71 3.27z"/><circle cx="162.95" cy="82.05" r="1.1"/><circle cx="162.95" cy="77.16" r="1.1"/><circle cx="167.83" cy="82.05" r="1.1"/><circle cx="158.07" cy="82.05" r="1.1"/><circle cx="162.95" cy="86.93" r="1.1"/><path d="m161.29 75.51a6.64 6.64 0 0 1 -3.22 1.65 6.5 6.5 0 0 1 1.65-3.22 6.62 6.62 0 0 1 3.28-1.66 6.62 6.62 0 0 1 -1.71 3.23z"/><path d="m159.72 70.62a6.55 6.55 0 0 1 -1.65-3.23 5.94 5.94 0 0 1 4.93 4.89 6.62 6.62 0 0 1 -3.28-1.66z"/><path d="m166.17 73.94a6.56 6.56 0 0 1 1.66 3.22 5.92 5.92 0 0 1 -4.83-4.88 6.56 6.56 0 0 1 3.17 1.66z"/><path d="m166.17 70.62a6.56 6.56 0 0 1 -3.17 1.66 5.94 5.94 0 0 1 4.88-4.89 6.62 6.62 0 0 1 -1.71 3.23z"/><circle cx="162.95" cy="72.28" r="1.1"/><circle cx="162.95" cy="67.39" r="1.1"/><circle cx="167.83" cy="72.28" r="1.1"/><circle cx="158.07" cy="72.28" r="1.1"/><circle cx="162.95" cy="77.16" r="1.1"/><path d="m161.29 104.81a6.54 6.54 0 0 1 -3.22 1.65 6.54 6.54 0 0 1 1.65-3.22 6.62 6.62 0 0 1 3.23-1.66 6.62 6.62 0 0 1 -1.66 3.23z"/><path d="m159.72 99.93a6.55 6.55 0 0 1 -1.65-3.23 5.92 5.92 0 0 1 4.88 4.88 6.65 6.65 0 0 1 -3.23-1.65z"/><path d="m166.17 103.24a6.6 6.6 0 0 1 1.66 3.22 6.5 6.5 0 0 1 -3.22-1.65 6.62 6.62 0 0 1 -1.66-3.23 6.56 6.56 0 0 1 3.22 1.66z"/><path d="m166.17 99.93a6.6 6.6 0 0 1 -3.22 1.65 6.62 6.62 0 0 1 1.66-3.23 6.5 6.5 0 0 1 3.22-1.65 6.62 6.62 0 0 1 -1.66 3.23z"/><circle cx="162.95" cy="101.58" r="1.1"/><circle cx="162.95" cy="96.7" r="1.1"/><circle cx="167.83" cy="101.58" r="1.1"/><circle cx="158.07" cy="101.58" r="1.1"/><circle cx="162.95" cy="106.46" r="1.1"/><path d="m161.29 95a6.6 6.6 0 0 1 -3.22 1.66 5.91 5.91 0 0 1 4.93-4.85 6.62 6.62 0 0 1 -1.71 3.19z"/><path d="m159.72 90.16a6.55 6.55 0 0 1 -1.65-3.23 5.95 5.95 0 0 1 4.93 4.88 6.55 6.55 0 0 1 -3.28-1.65z"/><path d="m166.17 93.47a6.62 6.62 0 0 1 1.66 3.23 5.94 5.94 0 0 1 -4.83-4.89 6.56 6.56 0 0 1 3.17 1.66z"/><path d="m166.17 90.16a6.5 6.5 0 0 1 -3.17 1.65 5.95 5.95 0 0 1 4.88-4.88 6.62 6.62 0 0 1 -1.71 3.23z"/><circle cx="162.95" cy="91.81" r="1.1"/><circle cx="162.95" cy="86.93" r="1.1"/><circle cx="167.83" cy="91.81" r="1.1"/><circle cx="158.07" cy="91.81" r="1.1"/><circle cx="162.95" cy="96.7" r="1.1"/><path d="m161.29 124.34a6.6 6.6 0 0 1 -3.22 1.66 5.89 5.89 0 0 1 4.88-4.88 6.6 6.6 0 0 1 -1.66 3.22z"/><path d="m159.72 119.46a6.55 6.55 0 0 1 -1.65-3.23 5.94 5.94 0 0 1 4.88 4.89 6.62 6.62 0 0 1 -3.23-1.66z"/><path d="m166.17 122.77a6.62 6.62 0 0 1 1.66 3.23 5.95 5.95 0 0 1 -4.88-4.88 6.6 6.6 0 0 1 3.22 1.65z"/><path d="m166.17 119.46a6.56 6.56 0 0 1 -3.22 1.66 5.94 5.94 0 0 1 4.88-4.89 6.62 6.62 0 0 1 -1.66 3.23z"/><circle cx="162.95" cy="121.12" r="1.1"/><circle cx="162.95" cy="116.23" r="1.1"/><circle cx="167.83" cy="121.12" r="1.1"/><circle cx="158.07" cy="121.12" r="1.1"/><circle cx="162.95" cy="126" r="1.1"/><path d="m161.29 114.58a6.54 6.54 0 0 1 -3.22 1.65 6.5 6.5 0 0 1 1.65-3.22 6.62 6.62 0 0 1 3.23-1.66 6.62 6.62 0 0 1 -1.66 3.23z"/><path d="m159.72 109.69a6.55 6.55 0 0 1 -1.65-3.23 5.94 5.94 0 0 1 4.88 4.89 6.62 6.62 0 0 1 -3.23-1.66z"/><path d="m166.17 113a6.6 6.6 0 0 1 1.66 3.22 6.5 6.5 0 0 1 -3.22-1.65 6.62 6.62 0 0 1 -1.66-3.23 6.56 6.56 0 0 1 3.22 1.66z"/><path d="m166.17 109.69a6.56 6.56 0 0 1 -3.22 1.66 5.94 5.94 0 0 1 4.88-4.89 6.62 6.62 0 0 1 -1.66 3.23z"/><circle cx="162.95" cy="111.35" r="1.1"/><circle cx="162.95" cy="106.46" r="1.1"/><circle cx="167.83" cy="111.35" r="1.1"/><circle cx="158.07" cy="111.35" r="1.1"/><circle cx="162.95" cy="116.23" r="1.1"/><path d="m161.29 143.88a6.6 6.6 0 0 1 -3.22 1.66 5.91 5.91 0 0 1 4.88-4.89 6.62 6.62 0 0 1 -1.66 3.23z"/><path d="m159.72 139a6.5 6.5 0 0 1 -1.65-3.22 5.95 5.95 0 0 1 4.88 4.88 6.62 6.62 0 0 1 -3.23-1.66z"/><path d="m166.17 142.31a6.62 6.62 0 0 1 1.66 3.23 5.94 5.94 0 0 1 -4.88-4.89 6.56 6.56 0 0 1 3.22 1.66z"/><path d="m166.17 139a6.6 6.6 0 0 1 -3.22 1.65 5.95 5.95 0 0 1 4.88-4.88 6.62 6.62 0 0 1 -1.66 3.23z"/><circle cx="162.95" cy="140.65" r="1.1"/><circle cx="162.95" cy="135.77" r="1.1"/><circle cx="167.83" cy="140.65" r="1.1"/><circle cx="158.07" cy="140.65" r="1.1"/><circle cx="162.95" cy="145.54" r="1.1"/><path d="m161.29 134.11a6.6 6.6 0 0 1 -3.22 1.66 5.91 5.91 0 0 1 4.88-4.89 6.62 6.62 0 0 1 -1.66 3.23z"/><path d="m159.72 129.23a6.55 6.55 0 0 1 -1.65-3.23 5.95 5.95 0 0 1 4.88 4.88 6.55 6.55 0 0 1 -3.23-1.65z"/><path d="m166.17 132.54a6.62 6.62 0 0 1 1.66 3.23 5.94 5.94 0 0 1 -4.88-4.89 6.56 6.56 0 0 1 3.22 1.66z"/><path d="m166.17 129.23a6.5 6.5 0 0 1 -3.22 1.65 5.95 5.95 0 0 1 4.88-4.88 6.62 6.62 0 0 1 -1.66 3.23z"/><circle cx="162.95" cy="130.88" r="1.1"/><circle cx="162.95" cy="126" r="1.1"/><circle cx="167.83" cy="130.88" r="1.1"/><circle cx="158.07" cy="130.88" r="1.1"/><circle cx="162.95" cy="135.77" r="1.1"/><path d="m161.29 163.41a6.6 6.6 0 0 1 -3.22 1.66 6.5 6.5 0 0 1 1.65-3.22 6.62 6.62 0 0 1 3.23-1.66 6.56 6.56 0 0 1 -1.66 3.22z"/><path d="m159.72 158.53a6.55 6.55 0 0 1 -1.65-3.23 5.94 5.94 0 0 1 4.88 4.89 6.62 6.62 0 0 1 -3.23-1.66z"/><path d="m166.17 161.85a6.56 6.56 0 0 1 1.66 3.22 5.95 5.95 0 0 1 -4.88-4.88 6.56 6.56 0 0 1 3.22 1.66z"/><path d="m166.17 158.53a6.56 6.56 0 0 1 -3.22 1.66 5.94 5.94 0 0 1 4.88-4.89 6.62 6.62 0 0 1 -1.66 3.23z"/><circle cx="162.95" cy="160.19" r="1.1"/><circle cx="162.95" cy="155.3" r="1.1"/><circle cx="167.83" cy="160.19" r="1.1"/><circle cx="158.07" cy="160.19" r="1.1"/><circle cx="162.95" cy="165.07" r="1.1"/><path d="m161.29 153.65a6.64 6.64 0 0 1 -3.22 1.65 6.54 6.54 0 0 1 1.65-3.22 6.62 6.62 0 0 1 3.23-1.66 6.62 6.62 0 0 1 -1.66 3.23z"/><path d="m159.72 148.76a6.55 6.55 0 0 1 -1.65-3.23 5.94 5.94 0 0 1 4.88 4.89 6.62 6.62 0 0 1 -3.23-1.66z"/><path d="m166.17 152.08a6.6 6.6 0 0 1 1.66 3.22 5.92 5.92 0 0 1 -4.88-4.88 6.56 6.56 0 0 1 3.22 1.66z"/><path d="m166.17 148.76a6.56 6.56 0 0 1 -3.22 1.66 6.62 6.62 0 0 1 1.66-3.23 6.5 6.5 0 0 1 3.22-1.65 6.6 6.6 0 0 1 -1.66 3.22z"/><circle cx="162.95" cy="150.42" r="1.1"/><circle cx="162.95" cy="145.54" r="1.1"/><circle cx="167.83" cy="150.42" r="1.1"/><circle cx="158.07" cy="150.42" r="1.1"/><circle cx="162.95" cy="155.3" r="1.1"/><path d="m161.29 183a6.6 6.6 0 0 1 -3.22 1.66 5.91 5.91 0 0 1 4.88-4.89 6.62 6.62 0 0 1 -1.66 3.23z"/><path d="m159.72 178.07a6.59 6.59 0 0 1 -1.65-3.23 5.95 5.95 0 0 1 4.88 4.88 6.65 6.65 0 0 1 -3.23-1.65z"/><path d="m166.17 181.38a6.62 6.62 0 0 1 1.66 3.23 5.94 5.94 0 0 1 -4.88-4.89 6.56 6.56 0 0 1 3.22 1.66z"/><path d="m166.17 178.07a6.6 6.6 0 0 1 -3.22 1.65 5.95 5.95 0 0 1 4.88-4.88 6.62 6.62 0 0 1 -1.66 3.23z"/><circle cx="162.95" cy="179.72" r="1.1"/><circle cx="162.95" cy="174.84" r="1.1"/><circle cx="167.83" cy="179.72" r="1.1"/><circle cx="158.07" cy="179.72" r="1.1"/><circle cx="162.95" cy="184.61" r="1.1"/><path d="m161.29 173.18a6.6 6.6 0 0 1 -3.22 1.66 5.91 5.91 0 0 1 4.93-4.84 6.62 6.62 0 0 1 -1.71 3.18z"/><path d="m159.72 168.3a6.55 6.55 0 0 1 -1.65-3.23 5.95 5.95 0 0 1 4.93 4.93 6.55 6.55 0 0 1 -3.28-1.7z"/><path d="m166.17 171.61a6.62 6.62 0 0 1 1.66 3.23 5.94 5.94 0 0 1 -4.83-4.84 6.56 6.56 0 0 1 3.17 1.61z"/><path d="m166.17 168.3a6.5 6.5 0 0 1 -3.17 1.7 5.95 5.95 0 0 1 4.88-4.88 6.62 6.62 0 0 1 -1.71 3.18z"/><circle cx="162.95" cy="169.95" r="1.1"/><circle cx="162.95" cy="165.07" r="1.1"/><circle cx="167.83" cy="169.95" r="1.1"/><circle cx="158.07" cy="169.95" r="1.1"/><circle cx="162.95" cy="174.84" r="1.1"/><path d="m161.29 202.48a6.6 6.6 0 0 1 -3.22 1.66 6.55 6.55 0 0 1 1.65-3.23 6.65 6.65 0 0 1 3.23-1.65 6.56 6.56 0 0 1 -1.66 3.22z"/><path d="m159.72 197.6a6.55 6.55 0 0 1 -1.65-3.23 5.94 5.94 0 0 1 4.88 4.89 6.62 6.62 0 0 1 -3.23-1.66z"/><path d="m166.17 200.92a6.6 6.6 0 0 1 1.66 3.22 5.95 5.95 0 0 1 -4.88-4.88 6.56 6.56 0 0 1 3.22 1.66z"/><path d="m166.17 197.6a6.56 6.56 0 0 1 -3.22 1.66 5.94 5.94 0 0 1 4.88-4.89 6.62 6.62 0 0 1 -1.66 3.23z"/><circle cx="162.95" cy="199.26" r="1.1"/><circle cx="162.95" cy="194.38" r="1.1"/><circle cx="167.83" cy="199.26" r="1.1"/><circle cx="158.07" cy="199.26" r="1.1"/><circle cx="162.95" cy="204.14" r="1.1"/><path d="m161.29 192.72a6.54 6.54 0 0 1 -3.22 1.65 6.5 6.5 0 0 1 1.65-3.22 6.62 6.62 0 0 1 3.23-1.66 6.62 6.62 0 0 1 -1.66 3.23z"/><path d="m159.72 187.83a6.54 6.54 0 0 1 -1.65-3.22 5.92 5.92 0 0 1 4.88 4.88 6.62 6.62 0 0 1 -3.23-1.66z"/><path d="m166.17 191.15a6.62 6.62 0 0 1 1.66 3.23 5.94 5.94 0 0 1 -4.88-4.89 6.56 6.56 0 0 1 3.22 1.66z"/><path d="m166.17 187.83a6.56 6.56 0 0 1 -3.22 1.66 6.62 6.62 0 0 1 1.66-3.23 6.5 6.5 0 0 1 3.22-1.65 6.6 6.6 0 0 1 -1.66 3.22z"/><circle cx="162.95" cy="189.49" r="1.1"/><circle cx="162.95" cy="184.61" r="1.1"/><circle cx="167.83" cy="189.49" r="1.1"/><circle cx="158.07" cy="189.49" r="1.1"/><circle cx="162.95" cy="194.38" r="1.1"/><path d="m161.29 222a6.6 6.6 0 0 1 -3.22 1.66 5.91 5.91 0 0 1 4.88-4.89 6.62 6.62 0 0 1 -1.66 3.23z"/><path d="m159.72 217.14a6.55 6.55 0 0 1 -1.65-3.23 5.95 5.95 0 0 1 4.88 4.88 6.65 6.65 0 0 1 -3.23-1.65z"/><path d="m166.17 220.45a6.62 6.62 0 0 1 1.66 3.23 5.94 5.94 0 0 1 -4.88-4.89 6.56 6.56 0 0 1 3.22 1.66z"/><path d="m166.17 217.14a6.6 6.6 0 0 1 -3.22 1.65 5.95 5.95 0 0 1 4.88-4.88 6.62 6.62 0 0 1 -1.66 3.23z"/><circle cx="162.95" cy="218.79" r="1.1"/><circle cx="162.95" cy="213.91" r="1.1"/><circle cx="167.83" cy="218.79" r="1.1"/><circle cx="158.07" cy="218.79" r="1.1"/><circle cx="162.95" cy="223.68" r="1.1"/><path d="m161.29 212.25a6.6 6.6 0 0 1 -3.22 1.66 5.91 5.91 0 0 1 4.93-4.91 6.62 6.62 0 0 1 -1.71 3.25z"/><path d="m159.72 207.37a6.55 6.55 0 0 1 -1.65-3.23 5.94 5.94 0 0 1 4.93 4.86 6.62 6.62 0 0 1 -3.28-1.63z"/><path d="m166.17 210.68a6.62 6.62 0 0 1 1.66 3.23 5.95 5.95 0 0 1 -4.83-4.91 6.5 6.5 0 0 1 3.17 1.68z"/><path d="m166.17 207.37a6.56 6.56 0 0 1 -3.17 1.63 5.94 5.94 0 0 1 4.88-4.89 6.62 6.62 0 0 1 -1.71 3.26z"/><circle cx="162.95" cy="209.02" r="1.1"/><circle cx="162.95" cy="204.14" r="1.1"/><circle cx="167.83" cy="209.02" r="1.1"/><circle cx="158.07" cy="209.02" r="1.1"/><circle cx="162.95" cy="213.91" r="1.1"/><path d="m135.61 233a6.62 6.62 0 0 1 -1.66-3.23 5.94 5.94 0 0 1 4.89 4.88 6.55 6.55 0 0 1 -3.23-1.65z"/><path d="m140.49 231.42a6.62 6.62 0 0 1 3.23-1.66 6.62 6.62 0 0 1 -1.66 3.23 6.5 6.5 0 0 1 -3.22 1.65 6.64 6.64 0 0 1 1.65-3.22z"/><path d="m137.18 237.87a6.62 6.62 0 0 1 -3.23 1.66 5.94 5.94 0 0 1 4.89-4.89 6.62 6.62 0 0 1 -1.66 3.23z"/><path d="m140.49 237.87a6.65 6.65 0 0 1 -1.65-3.23 5.94 5.94 0 0 1 4.88 4.89 6.62 6.62 0 0 1 -3.23-1.66z"/><circle cx="138.84" cy="234.64" r="1.1"/><circle cx="143.72" cy="234.64" r="1.1"/><circle cx="138.84" cy="239.53" r="1.1"/><circle cx="138.84" cy="229.76" r="1.1"/><circle cx="133.95" cy="234.64" r="1.1"/><path d="m145.38 233a6.62 6.62 0 0 1 -1.66-3.23 5.94 5.94 0 0 1 4.89 4.88 6.55 6.55 0 0 1 -3.23-1.65z"/><path d="m150.26 231.42a6.62 6.62 0 0 1 3.23-1.66 6.62 6.62 0 0 1 -1.66 3.23 6.54 6.54 0 0 1 -3.22 1.65 6.54 6.54 0 0 1 1.65-3.22z"/><path d="m147 237.87a6.62 6.62 0 0 1 -3.23 1.66 5.94 5.94 0 0 1 4.89-4.89 6.62 6.62 0 0 1 -1.66 3.23z"/><path d="m150.26 237.87a6.55 6.55 0 0 1 -1.65-3.23 5.94 5.94 0 0 1 4.88 4.89 6.62 6.62 0 0 1 -3.23-1.66z"/><circle cx="148.61" cy="234.64" r="1.1"/><circle cx="153.49" cy="234.64" r="1.1"/><circle cx="148.61" cy="239.53" r="1.1"/><circle cx="148.61" cy="229.76" r="1.1"/><circle cx="143.72" cy="234.64" r="1.1"/><path d="m116.08 233a6.62 6.62 0 0 1 -1.66-3.23 5.92 5.92 0 0 1 4.88 4.88 6.5 6.5 0 0 1 -3.22-1.65z"/><path d="m121 231.42a6.62 6.62 0 0 1 3.23-1.66 5.91 5.91 0 0 1 -4.89 4.88 6.6 6.6 0 0 1 1.66-3.22z"/><path d="m117.65 237.87a6.62 6.62 0 0 1 -3.23 1.66 5.94 5.94 0 0 1 4.88-4.89 6.65 6.65 0 0 1 -1.65 3.23z"/><path d="m121 237.87a6.62 6.62 0 0 1 -1.66-3.23 5.94 5.94 0 0 1 4.89 4.89 6.62 6.62 0 0 1 -3.23-1.66z"/><circle cx="119.3" cy="234.64" r="1.1"/><circle cx="124.19" cy="234.64" r="1.1"/><circle cx="119.3" cy="239.53" r="1.1"/><circle cx="119.3" cy="229.76" r="1.1"/><circle cx="114.42" cy="234.64" r="1.1"/><path d="m125.85 233a6.62 6.62 0 0 1 -1.66-3.23 5.95 5.95 0 0 1 4.88 4.88 6.5 6.5 0 0 1 -3.22-1.65z"/><path d="m130.73 231.42a6.62 6.62 0 0 1 3.23-1.66 5.91 5.91 0 0 1 -4.89 4.88 6.6 6.6 0 0 1 1.66-3.22z"/><path d="m127.41 237.87a6.6 6.6 0 0 1 -3.22 1.66 5.91 5.91 0 0 1 4.88-4.89 6.62 6.62 0 0 1 -1.66 3.23z"/><path d="m130.73 237.87a6.62 6.62 0 0 1 -1.66-3.23 5.94 5.94 0 0 1 4.89 4.89 6.62 6.62 0 0 1 -3.23-1.66z"/><circle cx="129.07" cy="234.64" r="1.1"/><circle cx="133.95" cy="234.64" r="1.1"/><circle cx="129.07" cy="239.53" r="1.1"/><circle cx="129.07" cy="229.76" r="1.1"/><circle cx="124.19" cy="234.64" r="1.1"/><path d="m96.54 233a6.62 6.62 0 0 1 -1.66-3.23 5.94 5.94 0 0 1 4.89 4.88 6.55 6.55 0 0 1 -3.23-1.65z"/><path d="m101.42 231.42a6.62 6.62 0 0 1 3.23-1.66 6.65 6.65 0 0 1 -1.65 3.24 6.55 6.55 0 0 1 -3.23 1.65 6.64 6.64 0 0 1 1.65-3.23z"/><path d="m98.11 237.87a6.62 6.62 0 0 1 -3.23 1.66 5.94 5.94 0 0 1 4.89-4.89 6.62 6.62 0 0 1 -1.66 3.23z"/><path d="m101.42 237.87a6.65 6.65 0 0 1 -1.65-3.23 5.94 5.94 0 0 1 4.88 4.89 6.62 6.62 0 0 1 -3.23-1.66z"/><circle cx="99.77" cy="234.64" r="1.1"/><circle cx="104.65" cy="234.64" r="1.1"/><circle cx="99.77" cy="239.53" r="1.1"/><circle cx="99.77" cy="229.76" r="1.1"/><circle cx="94.88" cy="234.64" r="1.1"/><path d="m106.31 233a6.62 6.62 0 0 1 -1.66-3.23 6.62 6.62 0 0 1 3.23 1.66 6.54 6.54 0 0 1 1.65 3.22 6.54 6.54 0 0 1 -3.22-1.65z"/><path d="m111.19 231.42a6.62 6.62 0 0 1 3.23-1.66 5.91 5.91 0 0 1 -4.89 4.88 6.71 6.71 0 0 1 1.66-3.22z"/><path d="m107.88 237.87a6.62 6.62 0 0 1 -3.23 1.66 5.94 5.94 0 0 1 4.88-4.89 6.55 6.55 0 0 1 -1.65 3.23z"/><path d="m111.19 237.87a6.62 6.62 0 0 1 -1.66-3.23 5.94 5.94 0 0 1 4.89 4.89 6.62 6.62 0 0 1 -3.23-1.66z"/><circle cx="109.53" cy="234.64" r="1.1"/><circle cx="114.42" cy="234.64" r="1.1"/><circle cx="109.53" cy="239.53" r="1.1"/><circle cx="109.53" cy="229.76" r="1.1"/><circle cx="104.65" cy="234.64" r="1.1"/><path d="m77 233a6.62 6.62 0 0 1 -1.66-3.23 5.95 5.95 0 0 1 4.88 4.88 6.5 6.5 0 0 1 -3.22-1.65z"/><path d="m81.89 231.42a6.62 6.62 0 0 1 3.23-1.66 5.91 5.91 0 0 1 -4.89 4.88 6.6 6.6 0 0 1 1.66-3.22z"/><path d="m78.57 237.87a6.6 6.6 0 0 1 -3.22 1.66 5.91 5.91 0 0 1 4.88-4.89 6.62 6.62 0 0 1 -1.66 3.23z"/><path d="m81.89 237.87a6.62 6.62 0 0 1 -1.66-3.23 5.94 5.94 0 0 1 4.89 4.89 6.62 6.62 0 0 1 -3.23-1.66z"/><circle cx="80.23" cy="234.64" r="1.1"/><circle cx="85.12" cy="234.64" r="1.1"/><circle cx="80.23" cy="239.53" r="1.1"/><circle cx="80.23" cy="229.76" r="1.1"/><circle cx="75.35" cy="234.64" r="1.1"/><path d="m86.77 233a6.55 6.55 0 0 1 -1.65-3.23 5.95 5.95 0 0 1 4.88 4.87 6.55 6.55 0 0 1 -3.23-1.64z"/><path d="m91.66 231.42a6.6 6.6 0 0 1 3.22-1.66 6.65 6.65 0 0 1 -1.65 3.24 6.55 6.55 0 0 1 -3.23 1.64 6.6 6.6 0 0 1 1.66-3.22z"/><path d="m88.34 237.87a6.6 6.6 0 0 1 -3.22 1.66 5.91 5.91 0 0 1 4.88-4.89 6.62 6.62 0 0 1 -1.66 3.23z"/><path d="m91.66 237.87a6.62 6.62 0 0 1 -1.66-3.23 5.91 5.91 0 0 1 4.88 4.89 6.6 6.6 0 0 1 -3.22-1.66z"/><circle cx="90" cy="234.64" r="1.1"/><circle cx="94.88" cy="234.64" r="1.1"/><circle cx="90" cy="239.53" r="1.1"/><circle cx="90" cy="229.76" r="1.1"/><circle cx="85.12" cy="234.64" r="1.1"/><path d="m57.47 233a6.62 6.62 0 0 1 -1.66-3.23 5.94 5.94 0 0 1 4.89 4.88 6.55 6.55 0 0 1 -3.23-1.65z"/><path d="m62.35 231.42a6.62 6.62 0 0 1 3.23-1.66 6.62 6.62 0 0 1 -1.66 3.24 6.5 6.5 0 0 1 -3.22 1.65 6.54 6.54 0 0 1 1.65-3.23z"/><path d="m59 237.87a6.62 6.62 0 0 1 -3.23 1.66 5.94 5.94 0 0 1 4.89-4.89 6.62 6.62 0 0 1 -1.66 3.23z"/><path d="m62.35 237.87a6.55 6.55 0 0 1 -1.65-3.23 5.94 5.94 0 0 1 4.88 4.89 6.62 6.62 0 0 1 -3.23-1.66z"/><circle cx="60.7" cy="234.64" r="1.1"/><circle cx="65.58" cy="234.64" r="1.1"/><circle cx="60.7" cy="239.53" r="1.1"/><circle cx="60.7" cy="229.76" r="1.1"/><circle cx="55.81" cy="234.64" r="1.1"/><path d="m67.24 233a6.62 6.62 0 0 1 -1.66-3.23 6.62 6.62 0 0 1 3.23 1.66 6.54 6.54 0 0 1 1.65 3.22 6.54 6.54 0 0 1 -3.22-1.65z"/><path d="m72.12 231.42a6.62 6.62 0 0 1 3.23-1.66 5.91 5.91 0 0 1 -4.89 4.88 6.6 6.6 0 0 1 1.66-3.22z"/><path d="m68.81 237.87a6.62 6.62 0 0 1 -3.23 1.66 5.94 5.94 0 0 1 4.88-4.89 6.55 6.55 0 0 1 -1.65 3.23z"/><path d="m72.12 237.87a6.62 6.62 0 0 1 -1.66-3.23 5.94 5.94 0 0 1 4.89 4.89 6.62 6.62 0 0 1 -3.23-1.66z"/><circle cx="70.46" cy="234.64" r="1.1"/><circle cx="75.35" cy="234.64" r="1.1"/><circle cx="70.46" cy="239.53" r="1.1"/><circle cx="70.46" cy="229.76" r="1.1"/><circle cx="65.58" cy="234.64" r="1.1"/><path d="m37.93 233a6.65 6.65 0 0 1 -1.65-3.23 5.92 5.92 0 0 1 4.88 4.88 6.55 6.55 0 0 1 -3.23-1.65z"/><path d="m42.82 231.42a6.6 6.6 0 0 1 3.18-1.66 5.89 5.89 0 0 1 -4.88 4.88 6.6 6.6 0 0 1 1.7-3.22z"/><path d="m39.5 237.87a6.56 6.56 0 0 1 -3.22 1.66 5.91 5.91 0 0 1 4.88-4.89 6.62 6.62 0 0 1 -1.66 3.23z"/><path d="m42.82 237.87a6.62 6.62 0 0 1 -1.66-3.23 5.91 5.91 0 0 1 4.84 4.89 6.6 6.6 0 0 1 -3.18-1.66z"/><circle cx="41.16" cy="234.64" r="1.1"/><circle cx="46.04" cy="234.64" r="1.1"/><circle cx="41.16" cy="239.53" r="1.1"/><circle cx="41.16" cy="229.76" r="1.1"/><circle cx="36.28" cy="234.64" r="1.1"/><path d="m47.7 233a6.55 6.55 0 0 1 -1.65-3.23 5.95 5.95 0 0 1 4.88 4.88 6.55 6.55 0 0 1 -3.23-1.65z"/><path d="m52.59 231.42a6.6 6.6 0 0 1 3.22-1.66 6.65 6.65 0 0 1 -1.65 3.24 6.55 6.55 0 0 1 -3.23 1.65 6.6 6.6 0 0 1 1.66-3.23z"/><path d="m49.27 237.87a6.6 6.6 0 0 1 -3.22 1.66 5.91 5.91 0 0 1 4.88-4.89 6.62 6.62 0 0 1 -1.66 3.23z"/><path d="m52.59 237.87a6.62 6.62 0 0 1 -1.66-3.23 5.91 5.91 0 0 1 4.88 4.89 6.6 6.6 0 0 1 -3.22-1.66z"/><circle cx="50.93" cy="234.64" r="1.1"/><circle cx="55.81" cy="234.64" r="1.1"/><circle cx="50.93" cy="239.53" r="1.1"/><circle cx="50.93" cy="229.76" r="1.1"/><circle cx="46.04" cy="234.64" r="1.1"/><path d="m28.17 233a6.62 6.62 0 0 1 -1.66-3.23 6.62 6.62 0 0 1 3.23 1.66 6.54 6.54 0 0 1 1.65 3.22 6.54 6.54 0 0 1 -3.22-1.65z"/><path d="m33.05 231.42a6.62 6.62 0 0 1 3.23-1.66 6.62 6.62 0 0 1 -1.66 3.24 6.55 6.55 0 0 1 -3.23 1.65 6.6 6.6 0 0 1 1.66-3.23z"/><path d="m29.74 237.87a6.62 6.62 0 0 1 -3.23 1.66 5.94 5.94 0 0 1 4.88-4.89 6.55 6.55 0 0 1 -1.65 3.23z"/><path d="m33.05 237.87a6.62 6.62 0 0 1 -1.66-3.23 6.62 6.62 0 0 1 3.23 1.66 6.62 6.62 0 0 1 1.66 3.23 6.62 6.62 0 0 1 -3.23-1.66z"/><circle cx="31.39" cy="234.64" r="1.1"/><circle cx="36.28" cy="234.64" r="1.1"/><circle cx="31.39" cy="239.53" r="1.1"/><circle cx="31.39" cy="229.76" r="1.1"/><circle cx="26.51" cy="234.64" r="1.1"/><path d="m135.61 15.7a6.62 6.62 0 0 1 -1.61-3.23 6.62 6.62 0 0 1 3.23 1.66 6.62 6.62 0 0 1 1.66 3.23 6.62 6.62 0 0 1 -3.28-1.66z"/><path d="m140.49 14.13a6.62 6.62 0 0 1 3.23-1.66 6.62 6.62 0 0 1 -1.66 3.23 6.56 6.56 0 0 1 -3.22 1.66 6.65 6.65 0 0 1 1.65-3.23z"/><path d="m137.18 20.58a6.62 6.62 0 0 1 -3.18 1.66 6.62 6.62 0 0 1 1.61-3.24 6.55 6.55 0 0 1 3.23-1.65 6.56 6.56 0 0 1 -1.66 3.23z"/><path d="m140.49 20.58a6.6 6.6 0 0 1 -1.65-3.22 6.6 6.6 0 0 1 3.22 1.64 6.62 6.62 0 0 1 1.66 3.23 6.62 6.62 0 0 1 -3.23-1.65z"/><circle cx="138.84" cy="17.36" r="1.1"/><circle cx="143.72" cy="17.36" r="1.1"/><circle cx="138.84" cy="22.24" r="1.1"/><circle cx="138.84" cy="12.47" r="1.1"/><circle cx="133.95" cy="17.36" r="1.1"/><path d="m145.38 15.7a6.62 6.62 0 0 1 -1.66-3.23 6.62 6.62 0 0 1 3.28 1.66 6.62 6.62 0 0 1 1.66 3.23 6.62 6.62 0 0 1 -3.28-1.66z"/><path d="m150.26 14.13a6.62 6.62 0 0 1 3.23-1.66 6.62 6.62 0 0 1 -1.66 3.23 6.6 6.6 0 0 1 -3.22 1.66 6.55 6.55 0 0 1 1.65-3.23z"/><path d="m147 20.58a6.62 6.62 0 0 1 -3.23 1.66 6.62 6.62 0 0 1 1.61-3.24 6.55 6.55 0 0 1 3.23-1.65 6.56 6.56 0 0 1 -1.61 3.23z"/><path d="m150.26 20.58a6.5 6.5 0 0 1 -1.65-3.22 6.64 6.64 0 0 1 3.22 1.64 6.62 6.62 0 0 1 1.66 3.23 6.62 6.62 0 0 1 -3.23-1.65z"/><circle cx="148.61" cy="17.36" r="1.1"/><circle cx="153.49" cy="17.36" r="1.1"/><circle cx="148.61" cy="22.24" r="1.1"/><circle cx="148.61" cy="12.47" r="1.1"/><circle cx="143.72" cy="17.36" r="1.1"/><path d="m116.08 15.7a6.62 6.62 0 0 1 -1.66-3.23 6.62 6.62 0 0 1 3.23 1.66 6.65 6.65 0 0 1 1.65 3.23 6.56 6.56 0 0 1 -3.22-1.66z"/><path d="m121 14.13a6.62 6.62 0 0 1 3.23-1.66 6.62 6.62 0 0 1 -1.66 3.23 6.62 6.62 0 0 1 -3.23 1.66 6.62 6.62 0 0 1 1.66-3.23z"/><path d="m117.65 20.58a6.62 6.62 0 0 1 -3.23 1.66 6.62 6.62 0 0 1 1.66-3.24 6.5 6.5 0 0 1 3.22-1.65 6.6 6.6 0 0 1 -1.65 3.23z"/><path d="m121 20.58a6.56 6.56 0 0 1 -1.66-3.22 6.65 6.65 0 0 1 3.19 1.64 6.62 6.62 0 0 1 1.66 3.23 6.62 6.62 0 0 1 -3.19-1.65z"/><circle cx="119.3" cy="17.36" r="1.1"/><circle cx="124.19" cy="17.36" r="1.1"/><circle cx="119.3" cy="22.24" r="1.1"/><circle cx="119.3" cy="12.47" r="1.1"/><circle cx="114.42" cy="17.36" r="1.1"/><path d="m125.85 15.7a6.62 6.62 0 0 1 -1.66-3.23 6.6 6.6 0 0 1 3.22 1.66 6.62 6.62 0 0 1 1.66 3.23 6.56 6.56 0 0 1 -3.22-1.66z"/><path d="m130.73 14.13a6.62 6.62 0 0 1 3.27-1.66 6.62 6.62 0 0 1 -1.66 3.23 6.62 6.62 0 0 1 -3.23 1.66 6.62 6.62 0 0 1 1.62-3.23z"/><path d="m127.41 20.58a6.6 6.6 0 0 1 -3.22 1.66 6.65 6.65 0 0 1 1.65-3.24 6.55 6.55 0 0 1 3.23-1.65 6.56 6.56 0 0 1 -1.66 3.23z"/><path d="m130.73 20.58a6.56 6.56 0 0 1 -1.66-3.22 6.65 6.65 0 0 1 3.23 1.64 6.62 6.62 0 0 1 1.7 3.24 6.62 6.62 0 0 1 -3.27-1.66z"/><circle cx="129.07" cy="17.36" r="1.1"/><circle cx="133.95" cy="17.36" r="1.1"/><circle cx="129.07" cy="22.24" r="1.1"/><circle cx="129.07" cy="12.47" r="1.1"/><circle cx="124.19" cy="17.36" r="1.1"/><path d="m96.54 15.7a6.62 6.62 0 0 1 -1.66-3.23 6.62 6.62 0 0 1 3.23 1.66 6.62 6.62 0 0 1 1.66 3.23 6.62 6.62 0 0 1 -3.23-1.66z"/><path d="m101.42 14.13a6.62 6.62 0 0 1 3.23-1.66 6.65 6.65 0 0 1 -1.65 3.23 6.62 6.62 0 0 1 -3.23 1.66 6.65 6.65 0 0 1 1.65-3.23z"/><path d="m98.11 20.58a6.62 6.62 0 0 1 -3.23 1.66 6.62 6.62 0 0 1 1.66-3.24 6.55 6.55 0 0 1 3.23-1.65 6.56 6.56 0 0 1 -1.66 3.23z"/><path d="m101.42 20.58a6.6 6.6 0 0 1 -1.65-3.22 6.6 6.6 0 0 1 3.23 1.64 6.62 6.62 0 0 1 1.66 3.23 6.62 6.62 0 0 1 -3.24-1.65z"/><circle cx="99.77" cy="17.36" r="1.1"/><circle cx="104.65" cy="17.36" r="1.1"/><circle cx="99.77" cy="22.24" r="1.1"/><circle cx="99.77" cy="12.47" r="1.1"/><circle cx="94.88" cy="17.36" r="1.1"/><path d="m106.31 15.7a6.62 6.62 0 0 1 -1.66-3.23 6.62 6.62 0 0 1 3.23 1.66 6.55 6.55 0 0 1 1.65 3.23 6.6 6.6 0 0 1 -3.22-1.66z"/><path d="m111.19 14.13a6.62 6.62 0 0 1 3.23-1.66 6.62 6.62 0 0 1 -1.66 3.23 6.62 6.62 0 0 1 -3.23 1.66 6.72 6.72 0 0 1 1.66-3.23z"/><path d="m107.88 20.58a6.62 6.62 0 0 1 -3.23 1.66 6.62 6.62 0 0 1 1.66-3.24 6.54 6.54 0 0 1 3.22-1.65 6.5 6.5 0 0 1 -1.65 3.23z"/><path d="m111.19 20.58a6.56 6.56 0 0 1 -1.66-3.22 6.65 6.65 0 0 1 3.23 1.64 6.62 6.62 0 0 1 1.66 3.23 6.62 6.62 0 0 1 -3.23-1.65z"/><circle cx="109.53" cy="17.36" r="1.1"/><circle cx="114.42" cy="17.36" r="1.1"/><circle cx="109.53" cy="22.24" r="1.1"/><circle cx="109.53" cy="12.47" r="1.1"/><circle cx="104.65" cy="17.36" r="1.1"/><path d="m77 15.7a6.62 6.62 0 0 1 -1.66-3.23 6.56 6.56 0 0 1 3.22 1.66 6.62 6.62 0 0 1 1.66 3.23 6.56 6.56 0 0 1 -3.22-1.66z"/><path d="m81.89 14.13a6.62 6.62 0 0 1 3.23-1.66 6.62 6.62 0 0 1 -1.66 3.23 6.62 6.62 0 0 1 -3.23 1.66 6.62 6.62 0 0 1 1.66-3.23z"/><path d="m78.57 20.58a6.6 6.6 0 0 1 -3.22 1.66 6.65 6.65 0 0 1 1.65-3.24 6.55 6.55 0 0 1 3.23-1.65 6.56 6.56 0 0 1 -1.66 3.23z"/><path d="m81.89 20.58a6.56 6.56 0 0 1 -1.66-3.22 6.65 6.65 0 0 1 3.23 1.64 6.62 6.62 0 0 1 1.66 3.23 6.62 6.62 0 0 1 -3.23-1.65z"/><circle cx="80.23" cy="17.36" r="1.1"/><circle cx="85.12" cy="17.36" r="1.1"/><circle cx="80.23" cy="22.24" r="1.1"/><circle cx="80.23" cy="12.47" r="1.1"/><circle cx="75.35" cy="17.36" r="1.1"/><path d="m86.77 15.7a6.55 6.55 0 0 1 -1.65-3.23 6.56 6.56 0 0 1 3.22 1.66 6.62 6.62 0 0 1 1.66 3.23 6.62 6.62 0 0 1 -3.23-1.66z"/><path d="m91.66 14.13a6.6 6.6 0 0 1 3.22-1.66 6.65 6.65 0 0 1 -1.65 3.23 6.62 6.62 0 0 1 -3.23 1.66 6.62 6.62 0 0 1 1.66-3.23z"/><path d="m88.34 20.58a6.6 6.6 0 0 1 -3.22 1.66 6.65 6.65 0 0 1 1.65-3.24 6.55 6.55 0 0 1 3.23-1.64 6.56 6.56 0 0 1 -1.66 3.22z"/><path d="m91.66 20.58a6.56 6.56 0 0 1 -1.66-3.22 6.65 6.65 0 0 1 3.23 1.64 6.55 6.55 0 0 1 1.65 3.23 6.6 6.6 0 0 1 -3.22-1.65z"/><circle cx="90" cy="17.36" r="1.1"/><circle cx="94.88" cy="17.36" r="1.1"/><circle cx="90" cy="22.24" r="1.1"/><circle cx="90" cy="12.47" r="1.1"/><circle cx="85.12" cy="17.36" r="1.1"/><path d="m57.47 15.7a6.62 6.62 0 0 1 -1.66-3.23 6.62 6.62 0 0 1 3.19 1.66 6.62 6.62 0 0 1 1.66 3.23 6.62 6.62 0 0 1 -3.19-1.66z"/><path d="m62.35 14.13a6.62 6.62 0 0 1 3.23-1.66 6.62 6.62 0 0 1 -1.66 3.23 6.56 6.56 0 0 1 -3.22 1.66 6.55 6.55 0 0 1 1.65-3.23z"/><path d="m59 20.58a6.62 6.62 0 0 1 -3.23 1.66 6.62 6.62 0 0 1 1.7-3.24 6.55 6.55 0 0 1 3.23-1.65 6.56 6.56 0 0 1 -1.7 3.23z"/><path d="m62.35 20.58a6.5 6.5 0 0 1 -1.65-3.22 6.6 6.6 0 0 1 3.22 1.64 6.62 6.62 0 0 1 1.66 3.23 6.62 6.62 0 0 1 -3.23-1.65z"/><circle cx="60.7" cy="17.36" r="1.1"/><circle cx="65.58" cy="17.36" r="1.1"/><circle cx="60.7" cy="22.24" r="1.1"/><circle cx="60.7" cy="12.47" r="1.1"/><circle cx="55.81" cy="17.36" r="1.1"/><path d="m67.24 15.7a6.62 6.62 0 0 1 -1.66-3.23 6.62 6.62 0 0 1 3.23 1.66 6.55 6.55 0 0 1 1.65 3.23 6.6 6.6 0 0 1 -3.22-1.66z"/><path d="m72.12 14.13a6.62 6.62 0 0 1 3.23-1.66 6.62 6.62 0 0 1 -1.66 3.23 6.62 6.62 0 0 1 -3.23 1.66 6.62 6.62 0 0 1 1.66-3.23z"/><path d="m68.81 20.58a6.62 6.62 0 0 1 -3.23 1.66 6.62 6.62 0 0 1 1.66-3.24 6.5 6.5 0 0 1 3.22-1.65 6.5 6.5 0 0 1 -1.65 3.23z"/><path d="m72.12 20.58a6.56 6.56 0 0 1 -1.66-3.22 6.65 6.65 0 0 1 3.23 1.64 6.62 6.62 0 0 1 1.66 3.23 6.62 6.62 0 0 1 -3.23-1.65z"/><circle cx="70.46" cy="17.36" r="1.1"/><circle cx="75.35" cy="17.36" r="1.1"/><circle cx="70.46" cy="22.24" r="1.1"/><circle cx="70.46" cy="12.47" r="1.1"/><circle cx="65.58" cy="17.36" r="1.1"/><path d="m37.93 15.7a6.65 6.65 0 0 1 -1.65-3.23 6.62 6.62 0 0 1 3.23 1.66 6.65 6.65 0 0 1 1.65 3.23 6.62 6.62 0 0 1 -3.23-1.66z"/><path d="m42.82 14.13a6.6 6.6 0 0 1 3.18-1.66 6.55 6.55 0 0 1 -1.65 3.23 6.62 6.62 0 0 1 -3.23 1.66 6.62 6.62 0 0 1 1.7-3.23z"/><path d="m39.5 20.58a6.56 6.56 0 0 1 -3.22 1.66 6.65 6.65 0 0 1 1.65-3.24 6.55 6.55 0 0 1 3.23-1.65 6.56 6.56 0 0 1 -1.66 3.23z"/><path d="m42.82 20.58a6.56 6.56 0 0 1 -1.66-3.22 6.65 6.65 0 0 1 3.23 1.64 6.55 6.55 0 0 1 1.61 3.24 6.6 6.6 0 0 1 -3.18-1.66z"/><circle cx="41.16" cy="17.36" r="1.1"/><circle cx="46.04" cy="17.36" r="1.1"/><circle cx="41.16" cy="22.24" r="1.1"/><circle cx="41.16" cy="12.47" r="1.1"/><circle cx="36.28" cy="17.36" r="1.1"/><path d="m47.7 15.7a6.55 6.55 0 0 1 -1.65-3.23 6.6 6.6 0 0 1 3.22 1.66 6.62 6.62 0 0 1 1.66 3.23 6.62 6.62 0 0 1 -3.23-1.66z"/><path d="m52.59 14.13a6.6 6.6 0 0 1 3.22-1.66 6.65 6.65 0 0 1 -1.65 3.23 6.62 6.62 0 0 1 -3.23 1.66 6.62 6.62 0 0 1 1.66-3.23z"/><path d="m49.27 20.58a6.6 6.6 0 0 1 -3.22 1.66 6.65 6.65 0 0 1 1.65-3.24 6.55 6.55 0 0 1 3.23-1.65 6.56 6.56 0 0 1 -1.66 3.23z"/><path d="m52.59 20.58a6.56 6.56 0 0 1 -1.66-3.22 6.65 6.65 0 0 1 3.23 1.64 6.55 6.55 0 0 1 1.65 3.23 6.6 6.6 0 0 1 -3.22-1.65z"/><circle cx="50.93" cy="17.36" r="1.1"/><circle cx="55.81" cy="17.36" r="1.1"/><circle cx="50.93" cy="22.24" r="1.1"/><circle cx="50.93" cy="12.47" r="1.1"/><circle cx="46.04" cy="17.36" r="1.1"/><path d="m28.17 15.7a6.62 6.62 0 0 1 -1.66-3.23 6.62 6.62 0 0 1 3.23 1.66 6.55 6.55 0 0 1 1.65 3.23 6.6 6.6 0 0 1 -3.22-1.66z"/><path d="m33.05 14.13a6.62 6.62 0 0 1 3.23-1.66 6.62 6.62 0 0 1 -1.66 3.23 6.62 6.62 0 0 1 -3.23 1.66 6.62 6.62 0 0 1 1.66-3.23z"/><path d="m29.74 20.58a6.62 6.62 0 0 1 -3.23 1.66 6.62 6.62 0 0 1 1.66-3.24 6.54 6.54 0 0 1 3.22-1.65 6.5 6.5 0 0 1 -1.65 3.23z"/><path d="m33.05 20.58a6.56 6.56 0 0 1 -1.66-3.22 6.65 6.65 0 0 1 3.23 1.64 6.62 6.62 0 0 1 1.66 3.23 6.62 6.62 0 0 1 -3.23-1.65z"/><circle cx="31.39" cy="17.36" r="1.1"/><circle cx="36.28" cy="17.36" r="1.1"/><circle cx="31.39" cy="22.24" r="1.1"/><circle cx="31.39" cy="12.47" r="1.1"/><circle cx="26.51" cy="17.36" r="1.1"/><path d="m18.39 235.28 1.6 1.6 2.25-2.24-2.24-2.24-1.61 1.6a1.5 1.5 0 0 0 -.74-.75l1.6-1.6-2.25-2.23-2.24 2.24 1.6 1.6a1.5 1.5 0 0 0 -.74.75l-1.62-1.61-2.24 2.24 2.24 2.24 1.6-1.6a1.54 1.54 0 0 0 .74.75l-1.6 1.6 2.26 2.24 2.24-2.24-1.6-1.6a1.54 1.54 0 0 0 .75-.75z"/><path d="m164.33 235.28 1.6 1.6 2.24-2.24-2.24-2.24-1.6 1.61a1.54 1.54 0 0 0 -.74-.75l1.6-1.6-2.19-2.24-2.24 2.24 1.6 1.6a1.5 1.5 0 0 0 -.74.75l-1.62-1.61-2.24 2.24 2.24 2.24 1.61-1.6a1.54 1.54 0 0 0 .74.75l-1.6 1.6 2.24 2.24 2.24-2.24-1.6-1.6a1.58 1.58 0 0 0 .7-.75z"/><path d="m18.39 18 1.61 1.6 2.25-2.24-2.25-2.24-1.6 1.6a1.54 1.54 0 0 0 -.74-.75l1.6-1.6-2.26-2.24-2.24 2.24 1.6 1.6a1.54 1.54 0 0 0 -.74.75l-1.62-1.6-2.24 2.24 2.24 2.24 1.6-1.6a1.56 1.56 0 0 0 .74.74l-1.6 1.6 2.26 2.24 2.24-2.24-1.6-1.6a1.56 1.56 0 0 0 .75-.74z"/><path d="m164.33 18 1.6 1.6 2.24-2.24-2.24-2.24-1.6 1.6a1.58 1.58 0 0 0 -.74-.75l1.6-1.6-2.19-2.24-2.24 2.24 1.6 1.6a1.54 1.54 0 0 0 -.74.75l-1.62-1.6-2.24 2.24 2.24 2.24 1.61-1.6a1.56 1.56 0 0 0 .74.74l-1.6 1.6 2.25 2.24 2.24-2.24-1.6-1.6a1.61 1.61 0 0 0 .69-.74z"/></g><path d="m170.21 126a27.55 27.55 0 0 0 -4.57-15.29 27.87 27.87 0 0 0 -11.48-27.91 27.73 27.73 0 0 0 -21.47-21.08 27.85 27.85 0 0 0 -27.83-11.64 27.87 27.87 0 0 0 -30.15.28 27.87 27.87 0 0 0 -27.91 11.48 27.73 27.73 0 0 0 -21.08 21.47 27.86 27.86 0 0 0 -11.64 27.84 27.86 27.86 0 0 0 .28 30.14 27.87 27.87 0 0 0 11.48 27.91 27.74 27.74 0 0 0 21.47 21.07 27.88 27.88 0 0 0 27.83 11.65 27.85 27.85 0 0 0 30.15-.29 27.78 27.78 0 0 0 5.06.47 27.87 27.87 0 0 0 22.85-11.94 27.73 27.73 0 0 0 21.07-21.48 27.83 27.83 0 0 0 11.65-27.83 27.63 27.63 0 0 0 4.29-14.85z" fill="#2b3990"/><path d="m90 98.38a24.71 24.71 0 1 1 24.71-24.71 24.74 24.74 0 0 1 -24.71 24.71zm0-47.3a22.59 22.59 0 1 0 22.59 22.59 22.61 22.61 0 0 0 -22.59-22.59z" fill="#fff"/><path d="m90 203a24.71 24.71 0 1 1 24.71-24.71 24.74 24.74 0 0 1 -24.71 24.71zm0-47.3a22.59 22.59 0 1 0 22.59 22.59 22.61 22.61 0 0 0 -22.59-22.55z" fill="#fff"/><path d="m142.33 150.71a24.71 24.71 0 1 1 24.67-24.71 24.74 24.74 0 0 1 -24.67 24.71zm0-47.3a22.59 22.59 0 1 0 22.59 22.59 22.61 22.61 0 0 0 -22.59-22.59z" fill="#fff"/><path d="m37.67 150.71a24.71 24.71 0 1 1 24.71-24.71 24.74 24.74 0 0 1 -24.71 24.71zm0-47.3a22.59 22.59 0 1 0 22.59 22.59 22.61 22.61 0 0 0 -22.59-22.59z" fill="#fff"/><path d="m127 113.7a24.7 24.7 0 1 1 17.47-7.23 24.57 24.57 0 0 1 -17.47 7.23zm0-47.3a22.6 22.6 0 1 0 16 6.6 22.44 22.44 0 0 0 -16-6.6z" fill="#fff"/><path d="m53 187.71a24.71 24.71 0 1 1 17.48-7.23 24.55 24.55 0 0 1 -17.48 7.23zm0-47.3a22.6 22.6 0 1 0 16 6.59 22.44 22.44 0 0 0 -16-6.59z" fill="#fff"/><path d="m127 187.71a24.71 24.71 0 1 1 17.47-7.23 24.57 24.57 0 0 1 -17.47 7.23zm0-47.3a22.6 22.6 0 1 0 16 6.59 22.44 22.44 0 0 0 -16-6.59z" fill="#fff"/><path d="m53 113.7a24.7 24.7 0 1 1 17.48-7.23 24.55 24.55 0 0 1 -17.48 7.23zm0-47.3a22.6 22.6 0 1 0 16 6.6 22.44 22.44 0 0 0 -16-6.6z" fill="#fff"/><path d="m109.71 102.24a24.71 24.71 0 1 1 22.9-15.4 24.43 24.43 0 0 1 -22.9 15.4zm0-47.31a22.62 22.62 0 1 0 8.5 1.67 22.51 22.51 0 0 0 -8.48-1.67z" fill="#fff"/><path d="m70.27 199.19a24.71 24.71 0 1 1 22.9-15.41 24.62 24.62 0 0 1 -22.9 15.41zm0-47.31a22.61 22.61 0 1 0 8.5 1.67 22.51 22.51 0 0 0 -8.48-1.67z" fill="#fff"/><path d="m138.47 170.43a24.71 24.71 0 1 1 22.89-15.43 24.7 24.7 0 0 1 -22.89 15.43zm0-47.31a22.6 22.6 0 1 0 8.51 1.67 22.51 22.51 0 0 0 -8.5-1.67z" fill="#fff"/><path d="m41.52 131a24.71 24.71 0 1 1 22.89-15.4 24.61 24.61 0 0 1 -22.89 15.4zm0-47.31a22.6 22.6 0 1 0 8.48 1.66 22.51 22.51 0 0 0 -8.47-1.67z" fill="#fff"/><path d="m138.23 130.38a24.73 24.73 0 1 1 9.59-1.95 24.4 24.4 0 0 1 -9.59 1.95zm0-47.31a22.59 22.59 0 1 0 20.77 13.82 22.47 22.47 0 0 0 -20.79-13.82z" fill="#fff"/><path d="m41.79 171.05a24.71 24.71 0 0 1 -9.61-47.48 24.4 24.4 0 0 1 9.59-1.95 24.72 24.72 0 0 1 0 49.43zm0-47.32a22.6 22.6 0 1 0 20.81 13.82 22.5 22.5 0 0 0 -20.83-13.82z" fill="#fff"/><path d="m110.35 198.93a24.71 24.71 0 1 1 9.58-1.94 24.67 24.67 0 0 1 -9.58 1.94zm0-47.31a22.6 22.6 0 1 0 20.83 13.82 22.5 22.5 0 0 0 -20.86-13.82z" fill="#fff"/><path d="m69.68 102.49a24.7 24.7 0 1 1 9.59-1.94 24.67 24.67 0 0 1 -9.59 1.94zm0-47.31a22.6 22.6 0 1 0 20.81 13.82 22.47 22.47 0 0 0 -20.83-13.82z" fill="#fff"/><circle cx="90" cy="126.71" fill="#2b3990" r="53.04"/><path d="m90 129.19c-9.22 0-16.72-11.76-16.72-26.23s7.5-26.22 16.72-26.22 16.72 11.76 16.72 26.26-7.5 26.19-16.72 26.19zm0-50.34c-8 0-14.6 10.82-14.6 24.11s6.6 24.11 14.6 24.11 14.6-10.81 14.6-24.11-6.55-24.11-14.6-24.11z" fill="#fff"/><path d="m90 178.75c-9.22 0-16.72-11.77-16.72-26.23s7.5-26.22 16.72-26.22 16.72 11.76 16.72 26.22-7.5 26.23-16.72 26.23zm0-50.34c-8 0-14.6 10.82-14.6 24.11s6.6 24.11 14.6 24.11 14.6-10.81 14.6-24.11-6.55-24.11-14.6-24.11z" fill="#fff"/><path d="m114.78 144.46c-14.46 0-26.23-7.5-26.23-16.72s11.77-16.74 26.23-16.74 26.22 7.52 26.22 16.74-11.76 16.72-26.22 16.72zm0-31.32c-13.3 0-24.11 6.55-24.11 14.6s10.81 14.61 24.11 14.61 24.11-6.55 24.11-14.61-10.82-14.6-24.11-14.6z" fill="#fff"/><path d="m65.22 144.46c-14.46 0-26.22-7.46-26.22-16.72s11.76-16.74 26.22-16.74 26.23 7.49 26.23 16.71-11.77 16.75-26.23 16.75zm0-31.32c-13.29 0-24.11 6.55-24.11 14.6s10.82 14.61 24.11 14.61 24.11-6.55 24.11-14.61-10.81-14.6-24.11-14.6z" fill="#fff"/><path d="m98.24 132.24a12.75 12.75 0 0 1 -9.24-3.47c-6.52-6.52-3.5-20.15 6.72-30.37 6.37-6.4 14.28-10.2 21.08-10.2a12.74 12.74 0 0 1 9.27 3.48c3.22 3.22 4.25 8.21 2.9 14a35.24 35.24 0 0 1 -9.63 16.32c-6.34 6.43-14.27 10.24-21.1 10.24zm18.56-41.92c-6.28 0-13.6 3.58-19.6 9.57-9.41 9.41-12.42 21.69-6.73 27.38a10.69 10.69 0 0 0 7.77 2.86c6.28 0 13.61-3.58 19.61-9.58a33.17 33.17 0 0 0 9.06-15.32c1.18-5.09.35-9.37-2.34-12.06a10.67 10.67 0 0 0 -7.77-2.85z" fill="#fff"/><path d="m63.2 167.29a12.78 12.78 0 0 1 -9.27-3.48c-6.51-6.52-3.5-20.14 6.73-30.37 6.38-6.38 14.27-10.2 21.1-10.2a12.7 12.7 0 0 1 9.24 3.48c3.23 3.23 4.26 8.21 2.9 14a35.13 35.13 0 0 1 -9.62 16.33c-6.37 6.42-14.28 10.24-21.08 10.24zm18.56-41.93c-6.28 0-13.61 3.58-19.61 9.58-9.4 9.4-12.41 21.68-6.72 27.37a10.69 10.69 0 0 0 7.77 2.86c6.28 0 13.61-3.58 19.61-9.58a33.17 33.17 0 0 0 9.06-15.32c1.18-5.08.35-9.37-2.34-12.06a10.73 10.73 0 0 0 -7.77-2.85z" fill="#fff"/><path d="m116.8 167.29c-6.83 0-14.71-3.82-21.1-10.2-4.89-4.9-8.31-10.7-9.62-16.34-1.36-5.82-.33-10.8 2.9-14a12.75 12.75 0 0 1 9.26-3.48c6.83 0 14.72 3.82 21.1 10.2a35.27 35.27 0 0 1 9.66 16.31c1.35 5.82.32 10.8-2.9 14a12.78 12.78 0 0 1 -9.3 3.51zm-18.56-41.93a10.73 10.73 0 0 0 -7.77 2.85c-2.69 2.69-3.52 7-2.33 12.06a33 33 0 0 0 9.06 15.32c6 6 13.32 9.58 19.6 9.58a10.67 10.67 0 0 0 7.77-2.86c2.69-2.69 3.52-7 2.34-12.05a33.07 33.07 0 0 0 -9.06-15.32c-6-6-13.33-9.58-19.61-9.58z" fill="#fff"/><path d="m81.76 132.24c-6.83 0-14.71-3.81-21.1-10.2a35.24 35.24 0 0 1 -9.66-16.33c-1.35-5.82-.32-10.81 2.9-14a12.74 12.74 0 0 1 9.3-3.51c6.8 0 14.71 3.8 21.1 10.2a35.11 35.11 0 0 1 9.62 16.34c1.36 5.82.33 10.8-2.9 14a12.73 12.73 0 0 1 -9.26 3.5zm-18.56-41.92a10.68 10.68 0 0 0 -7.77 2.85c-2.69 2.69-3.52 7-2.34 12.06a33.17 33.17 0 0 0 9.06 15.32c6 6 13.33 9.58 19.61 9.58a10.69 10.69 0 0 0 7.77-2.86c2.69-2.69 3.52-7 2.33-12a32.9 32.9 0 0 0 -9.06-15.37c-5.99-6-13.32-9.58-19.6-9.58z" fill="#fff"/></svg>