<svg viewBox="0 0 180 252" xmlns="http://www.w3.org/2000/svg"><path d="m180 9a9 9 0 0 0 -9-9h-162a9 9 0 0 0 -9 9v234a9 9 0 0 0 9 9h162a9 9 0 0 0 9-9z" fill="#fff"/><path d="m138.66 186 2.78 2.78 3.89-3.89-3.89-3.9-2.78 2.79a2.76 2.76 0 0 0 -1.29-1.3l2.78-2.78-3.89-3.89-3.89 3.89 2.78 2.78a2.67 2.67 0 0 0 -1.29 1.3l-2.78-2.78-3.89 3.9 3.89 3.89 2.78-2.78a2.69 2.69 0 0 0 1.29 1.29l-2.78 2.7 3.89 3.89 3.89-3.89-2.78-2.78a2.74 2.74 0 0 0 1.29-1.22z" fill="#2b3990"/><path d="m115.51 186 2.78 2.78 3.89-3.89-3.89-3.9-2.78 2.79a2.67 2.67 0 0 0 -1.29-1.3l2.78-2.78-3.89-3.89-3.89 3.89 2.78 2.78a2.71 2.71 0 0 0 -1.29 1.3l-2.78-2.78-3.89 3.9 3.89 3.89 2.78-2.78a2.74 2.74 0 0 0 1.29 1.29l-2.78 2.7 3.89 3.89 3.89-3.89-2.78-2.78a2.65 2.65 0 0 0 1.29-1.22z" fill="#2b3990"/><path d="m150.3 174.19 2.78 2.77 3.89-3.88-3.89-3.9-2.78 2.82a2.67 2.67 0 0 0 -1.29-1.3l2.78-2.78-3.89-3.92-3.9 3.89 2.78 2.78a2.67 2.67 0 0 0 -1.29 1.3l-2.78-2.79-3.89 3.9 3.89 3.88 2.78-2.77a2.69 2.69 0 0 0 1.29 1.29l-2.78 2.78 3.89 3.89 3.89-3.89-2.78-2.78a2.65 2.65 0 0 0 1.3-1.29z" fill="#2b3990"/><path d="m161.8 162.42 2.78 2.78 3.9-3.88-3.9-3.9-2.77 2.78a2.74 2.74 0 0 0 -1.29-1.29l2.78-2.78-3.9-3.89-3.88 3.89 2.77 2.78a2.72 2.72 0 0 0 -1.29 1.3l-2.78-2.79-3.89 3.9 3.89 3.88 2.78-2.78a2.69 2.69 0 0 0 1.29 1.29l-2.77 2.78 3.88 3.9 3.9-3.9-2.79-2.78a2.61 2.61 0 0 0 1.29-1.29z" fill="#2b3990"/><path d="m32.17 182.15 3.89-3.89-2.78-2.78a2.74 2.74 0 0 0 1.29-1.29l2.78 2.81 3.89-3.88-3.89-3.9-2.78 2.78a2.76 2.76 0 0 0 -1.29-1.3l2.78-2.78-3.89-3.92-3.89 3.89 2.78 2.78a2.67 2.67 0 0 0 -1.29 1.3l-2.77-2.79-3.88 3.9 3.88 3.92 2.79-2.77a2.69 2.69 0 0 0 1.29 1.29l-2.78 2.78z" fill="#2b3990"/><path d="m20.52 170.39 3.9-3.9-2.79-2.78a2.61 2.61 0 0 0 1.29-1.29l2.78 2.78 3.89-3.88-3.89-3.9-2.77 2.78a2.71 2.71 0 0 0 -1.3-1.29l2.78-2.78-3.89-3.89-3.89 3.89 2.78 2.78a2.72 2.72 0 0 0 -1.29 1.3l-2.78-2.79-3.89 3.9 3.89 3.88 2.78-2.78a2.69 2.69 0 0 0 1.29 1.29l-2.78 2.78z" fill="#2b3990"/><path d="m159.4 58.07-3.88 3.93 2.77 2.78a2.72 2.72 0 0 0 -1.29 1.22l-2.78-2.79-3.89 3.9 3.89 3.89 2.78-2.75a2.69 2.69 0 0 0 1.29 1.29l-2.77 2.79 3.88 3.89 3.9-3.89-2.79-2.79a2.61 2.61 0 0 0 1.29-1.29l2.78 2.75 3.9-3.88-3.9-3.9-2.77 2.78a2.74 2.74 0 0 0 -1.29-1.29l2.78-2.71z" fill="#2b3990"/><path d="m69.22 186 2.78 2.75 3.89-3.89-3.89-3.86-2.78 2.79a2.76 2.76 0 0 0 -1.29-1.3l2.78-2.78-3.89-3.89-3.89 3.89 2.78 2.78a2.67 2.67 0 0 0 -1.29 1.3l-2.79-2.79-3.88 3.9 3.88 3.89 2.79-2.79a2.69 2.69 0 0 0 1.29 1.29l-2.78 2.71 3.89 3.89 3.89-3.89-2.78-2.78a2.74 2.74 0 0 0 1.29-1.22z" fill="#2b3990"/><path d="m92.36 186 2.78 2.78 3.9-3.89-3.9-3.9-2.77 2.79a2.76 2.76 0 0 0 -1.29-1.3l2.78-2.78-3.86-3.92-3.89 3.89 2.78 2.78a2.76 2.76 0 0 0 -1.29 1.3l-2.82-2.75-3.89 3.9 3.89 3.89 2.78-2.79a2.78 2.78 0 0 0 1.29 1.29l-2.78 2.71 3.93 3.93 3.9-3.89-2.79-2.78a2.65 2.65 0 0 0 1.25-1.26z" fill="#2b3990"/><path d="m46.07 186 2.78 2.78 3.89-3.89-3.89-3.89-2.78 2.79a2.67 2.67 0 0 0 -1.29-1.3l2.78-2.78-3.89-3.89-3.89 3.89 2.78 2.78a2.67 2.67 0 0 0 -1.29 1.3l-2.78-2.79-3.89 3.9 3.89 3.89 2.78-2.79a2.69 2.69 0 0 0 1.29 1.29l-2.78 2.71 3.89 3.89 3.89-3.89-2.78-2.78a2.65 2.65 0 0 0 1.29-1.22z" fill="#2b3990"/><path d="m64.42 42.49-2.78-2.78-3.89 3.89 3.89 3.89 2.78-2.78a2.61 2.61 0 0 0 1.29 1.29l-2.78 2.78 3.89 3.89 3.89-3.89-2.78-2.78a2.69 2.69 0 0 0 1.29-1.29l2.78 2.78 3.89-3.89-3.89-3.89-2.78 2.78a2.65 2.65 0 0 0 -1.29-1.29l2.78-2.78-3.89-3.89-3.89 3.89 2.78 2.78a2.61 2.61 0 0 0 -1.29 1.29z" fill="#2b3990"/><path d="m29.77 54.25-2.77-2.78-3.9 3.89 3.9 3.89 2.78-2.78a2.61 2.61 0 0 0 1.29 1.29l-2.78 2.78 3.89 3.89 3.89-3.89-2.78-2.78a2.69 2.69 0 0 0 1.29-1.29l2.78 2.78 3.89-3.89-3.89-3.89-2.78 2.78a2.74 2.74 0 0 0 -1.3-1.25l2.78-2.78-3.89-3.89-3.89 3.89 2.78 2.78a2.65 2.65 0 0 0 -1.29 1.25z" fill="#2b3990"/><path d="m147.9 46.29-3.9 3.89 2.79 2.82a2.63 2.63 0 0 0 -1.29 1.3l-2.78-2.79-3.89 3.89 3.89 3.89 2.78-2.78a2.61 2.61 0 0 0 1.29 1.29l-2.79 2.74 3.89 3.89 3.89-3.89-2.78-2.78a2.61 2.61 0 0 0 1.29-1.29l2.78 2.78 3.93-3.89-3.89-3.89-2.78 2.78a2.65 2.65 0 0 0 -1.33-1.25l2.78-2.78z" fill="#2b3990"/><path d="m18.12 66-2.78-2.79-3.89 3.9 3.89 3.89 2.78-2.78a2.69 2.69 0 0 0 1.29 1.29l-2.77 2.79 3.88 3.89 3.9-3.89-2.79-2.79a2.61 2.61 0 0 0 1.29-1.29l2.78 2.78 3.9-3.88-3.9-3.9-2.77 2.78a2.74 2.74 0 0 0 -1.29-1.29l2.78-2.71-3.9-3.89-3.88 3.89 2.77 2.78a2.72 2.72 0 0 0 -1.29 1.22z" fill="#2b3990"/><path d="m41.27 42.49-2.78-2.78-3.89 3.89 3.89 3.89 2.78-2.78a2.65 2.65 0 0 0 1.29 1.29l-2.78 2.78 3.89 3.89 3.89-3.89-2.78-2.78a2.61 2.61 0 0 0 1.29-1.29l2.78 2.78 3.89-3.89-3.89-3.89-2.78 2.78a2.61 2.61 0 0 0 -1.29-1.29l2.78-2.78-3.89-3.89-3.89 3.89 2.78 2.78a2.65 2.65 0 0 0 -1.29 1.29z" fill="#2b3990"/><path d="m20.52 193.93 3.9-3.89-2.79-2.78a2.65 2.65 0 0 0 1.29-1.26l2.78 2.78 3.89-3.89-3.89-3.89-2.77 2.79a2.74 2.74 0 0 0 -1.3-1.3l2.78-2.78-3.89-3.89-3.89 3.89 2.78 2.78a2.76 2.76 0 0 0 -1.29 1.3l-2.78-2.79-3.89 3.9 3.89 3.89 2.78-2.79a2.78 2.78 0 0 0 1.29 1.29l-2.78 2.71z" fill="#2b3990"/><path d="m133.86 42.49-2.78-2.78-3.89 3.89 3.89 3.89 2.78-2.78a2.61 2.61 0 0 0 1.29 1.29l-2.78 2.78 3.89 3.89 3.89-3.89-2.78-2.78a2.69 2.69 0 0 0 1.29-1.29l2.78 2.78 3.89-3.89-3.89-3.89-2.78 2.78a2.65 2.65 0 0 0 -1.29-1.29l2.78-2.78-3.89-3.89-3.89 3.89 2.78 2.78a2.61 2.61 0 0 0 -1.29 1.29z" fill="#2b3990"/><path d="m110.71 42.49-2.78-2.78-3.93 3.89 3.89 3.89 2.78-2.78a2.65 2.65 0 0 0 1.33 1.29l-2.78 2.78 3.89 3.89 3.89-3.89-2.78-2.78a2.61 2.61 0 0 0 1.29-1.29l2.78 2.78 3.89-3.89-3.89-3.89-2.77 2.78a2.67 2.67 0 0 0 -1.3-1.29l2.78-2.78-3.89-3.89-3.89 3.89 2.78 2.78a2.65 2.65 0 0 0 -1.29 1.29z" fill="#2b3990"/><path d="m87.57 42.49-2.79-2.78-3.89 3.89 3.89 3.89 2.79-2.78a2.63 2.63 0 0 0 1.28 1.29l-2.77 2.78 3.92 3.89 3.89-3.89-2.81-2.78a2.69 2.69 0 0 0 1.29-1.29l2.77 2.78 3.86-3.89-3.9-3.89-2.77 2.78a2.69 2.69 0 0 0 -1.29-1.29l2.78-2.78-3.82-3.89-3.89 3.89 2.78 2.78a2.63 2.63 0 0 0 -1.32 1.29z" fill="#2b3990"/><path d="m41.27 66-2.78-2.79-3.89 3.9 3.89 3.89 2.78-2.78a2.65 2.65 0 0 0 1.29 1.29l-2.78 2.79 3.89 3.89 3.89-3.89-2.78-2.79a2.61 2.61 0 0 0 1.29-1.29l2.78 2.78 3.89-3.88-3.89-3.9-2.78 2.78a2.65 2.65 0 0 0 -1.29-1.29l2.78-2.71-3.89-3.89-3.89 3.89 2.78 2.78a2.67 2.67 0 0 0 -1.29 1.22z" fill="#2b3990"/><path d="m115.51 162.42 2.78 2.78 3.89-3.88-3.89-3.9-2.78 2.78a2.65 2.65 0 0 0 -1.29-1.29l2.78-2.78-3.89-3.89-3.89 3.89 2.78 2.78a2.67 2.67 0 0 0 -1.29 1.3l-2.78-2.79-3.89 3.9 3.89 3.88 2.78-2.78a2.65 2.65 0 0 0 1.29 1.29l-2.78 2.78 3.89 3.9 3.89-3.9-2.78-2.78a2.61 2.61 0 0 0 1.29-1.29z" fill="#2b3990"/><path d="m138.66 162.42 2.78 2.78 3.89-3.88-3.89-3.9-2.78 2.78a2.74 2.74 0 0 0 -1.29-1.29l2.78-2.78-3.89-3.89-3.89 3.89 2.78 2.78a2.63 2.63 0 0 0 -1.29 1.3l-2.78-2.79-3.89 3.9 3.89 3.88 2.78-2.78a2.61 2.61 0 0 0 1.29 1.29l-2.78 2.78 3.89 3.9 3.89-3.9-2.78-2.78a2.69 2.69 0 0 0 1.29-1.29z" fill="#2b3990"/><path d="m150.3 150.64 2.78 2.78 3.89-3.89-3.89-3.89-2.78 2.78a2.65 2.65 0 0 0 -1.29-1.29l2.78-2.78-3.89-3.89-3.9 3.89 2.78 2.78a2.65 2.65 0 0 0 -1.29 1.29l-2.78-2.78-3.89 3.89 3.89 3.89 2.78-2.78a2.61 2.61 0 0 0 1.29 1.29l-2.78 2.79 3.89 3.88 3.89-3.88-2.78-2.79a2.61 2.61 0 0 0 1.3-1.29z" fill="#2b3990"/><path d="m159.4 128.7-3.88 3.89 2.77 2.78a2.74 2.74 0 0 0 -1.29 1.29l-2.78-2.78-3.89 3.89 3.89 3.89 2.78-2.78a2.69 2.69 0 0 0 1.29 1.29l-2.77 2.83 3.88 3.89 3.9-3.89-2.79-2.78a2.61 2.61 0 0 0 1.29-1.29l2.78 2.78 3.9-3.89-3.9-3.89-2.77 2.78a2.74 2.74 0 0 0 -1.29-1.29l2.78-2.78z" fill="#2b3990"/><path d="m69.22 162.42 2.78 2.78 3.89-3.88-3.89-3.9-2.78 2.78a2.74 2.74 0 0 0 -1.29-1.29l2.78-2.78-3.89-3.89-3.89 3.89 2.78 2.78a2.63 2.63 0 0 0 -1.29 1.3l-2.79-2.79-3.88 3.9 3.88 3.88 2.79-2.78a2.61 2.61 0 0 0 1.29 1.29l-2.78 2.78 3.89 3.9 3.89-3.9-2.78-2.78a2.69 2.69 0 0 0 1.29-1.29z" fill="#2b3990"/><path d="m46.07 162.42 2.78 2.78 3.89-3.88-3.89-3.9-2.78 2.78a2.65 2.65 0 0 0 -1.29-1.29l2.78-2.78-3.89-3.89-3.89 3.89 2.78 2.78a2.63 2.63 0 0 0 -1.29 1.3l-2.78-2.79-3.89 3.9 3.89 3.88 2.78-2.78a2.61 2.61 0 0 0 1.29 1.29l-2.78 2.78 3.89 3.9 3.89-3.9-2.78-2.78a2.61 2.61 0 0 0 1.29-1.29z" fill="#2b3990"/><path d="m32.17 158.6 3.89-3.88-2.78-2.79a2.69 2.69 0 0 0 1.29-1.29l2.78 2.78 3.89-3.89-3.89-3.89-2.78 2.78a2.74 2.74 0 0 0 -1.29-1.29l2.78-2.78-3.89-3.89-3.89 3.89 2.78 2.78a2.65 2.65 0 0 0 -1.29 1.29l-2.77-2.78-3.88 3.89 3.88 3.89 2.79-2.78a2.61 2.61 0 0 0 1.29 1.29l-2.78 2.79z" fill="#2b3990"/><path d="m159.4 105.16-3.88 3.89 2.77 2.78a2.69 2.69 0 0 0 -1.29 1.29l-2.78-2.78-3.89 3.89 3.89 3.89 2.78-2.78a2.74 2.74 0 0 0 1.29 1.29l-2.77 2.78 3.88 3.89 3.9-3.89-2.79-2.78a2.65 2.65 0 0 0 1.29-1.29l2.78 2.78 3.9-3.89-3.9-3.89-2.77 2.78a2.69 2.69 0 0 0 -1.29-1.29l2.78-2.78z" fill="#2b3990"/><path d="m92.36 162.42 2.78 2.78 3.9-3.88-3.9-3.9-2.77 2.78a2.74 2.74 0 0 0 -1.29-1.29l2.78-2.78-3.86-3.89-3.89 3.89 2.78 2.78a2.72 2.72 0 0 0 -1.29 1.3l-2.78-2.79-3.89 3.9 3.89 3.88 2.78-2.78a2.69 2.69 0 0 0 1.29 1.29l-2.78 2.78 3.89 3.9 3.9-3.9-2.79-2.78a2.61 2.61 0 0 0 1.25-1.29z" fill="#2b3990"/><path d="m159.4 81.61-3.88 3.9 2.77 2.77a2.76 2.76 0 0 0 -1.29 1.3l-2.78-2.78-3.89 3.89 3.89 3.89 2.78-2.78a2.78 2.78 0 0 0 1.29 1.29l-2.77 2.78 3.88 3.89 3.9-3.89-2.79-2.78a2.65 2.65 0 0 0 1.29-1.29l2.78 2.78 3.9-3.89-3.9-3.89-2.77 2.78a2.76 2.76 0 0 0 -1.29-1.3l2.78-2.77z" fill="#2b3990"/><path d="m20.52 146.84 3.9-3.89-2.79-2.78a2.65 2.65 0 0 0 1.29-1.29l2.78 2.78 3.89-3.89-3.89-3.89-2.77 2.78a2.67 2.67 0 0 0 -1.3-1.29l2.78-2.78-3.89-3.89-3.89 3.89 2.78 2.78a2.69 2.69 0 0 0 -1.29 1.29l-2.78-2.78-3.89 3.89 3.89 3.89 2.78-2.78a2.74 2.74 0 0 0 1.29 1.29l-2.78 2.83z" fill="#2b3990"/><path d="m64.42 66-2.78-2.79-3.89 3.9 3.89 3.89 2.78-2.78a2.61 2.61 0 0 0 1.29 1.29l-2.78 2.79 3.89 3.89 3.89-3.89-2.78-2.79a2.69 2.69 0 0 0 1.29-1.29l2.78 2.78 3.89-3.88-3.89-3.87-2.78 2.75a2.69 2.69 0 0 0 -1.29-1.29l2.78-2.71-3.89-3.89-3.89 3.89 2.78 2.78a2.63 2.63 0 0 0 -1.29 1.22z" fill="#2b3990"/><path d="m29.77 77.8-2.77-2.8-3.89 3.9 3.89 3.89 2.77-2.79a2.69 2.69 0 0 0 1.29 1.29l-2.78 2.78 3.89 3.93 3.89-3.89-2.78-2.78a2.78 2.78 0 0 0 1.29-1.33l2.78 2.77 3.89-3.88-3.89-3.89-2.78 2.8a2.76 2.76 0 0 0 -1.29-1.3l2.78-2.78-3.89-3.89-3.89 3.89 2.78 2.78a2.67 2.67 0 0 0 -1.29 1.3z" fill="#2b3990"/><path d="m87.57 66-2.79-2.79-3.89 3.9 3.89 3.89 2.79-2.78a2.63 2.63 0 0 0 1.28 1.29l-2.77 2.79 3.92 3.92 3.89-3.89-2.78-2.79a2.69 2.69 0 0 0 1.29-1.29l2.74 2.75 3.86-3.85-3.9-3.9-2.73 2.75a2.74 2.74 0 0 0 -1.29-1.29l2.78-2.71-3.86-3.93-3.93 3.93 2.78 2.78a2.65 2.65 0 0 0 -1.28 1.22z" fill="#2b3990"/><path d="m133.86 66-2.78-2.79-3.89 3.9 3.89 3.89 2.78-2.78a2.61 2.61 0 0 0 1.29 1.29l-2.78 2.79 3.89 3.89 3.89-3.89-2.78-2.79a2.69 2.69 0 0 0 1.29-1.29l2.78 2.78 3.89-3.88-3.89-3.9-2.78 2.78a2.69 2.69 0 0 0 -1.29-1.29l2.78-2.71-3.89-3.89-3.89 3.89 2.78 2.78a2.63 2.63 0 0 0 -1.29 1.22z" fill="#2b3990"/><path d="m110.71 66-2.78-2.79-3.93 3.94 3.93 3.85 2.78-2.78a2.65 2.65 0 0 0 1.29 1.32l-2.78 2.79 3.89 3.89 3.89-3.89-2.78-2.79a2.61 2.61 0 0 0 1.29-1.29l2.78 2.75 3.89-3.88-3.89-3.9-2.77 2.78a2.71 2.71 0 0 0 -1.3-1.29l2.78-2.71-3.89-3.89-3.89 3.89 2.78 2.74a2.67 2.67 0 0 0 -1.29 1.26z" fill="#2b3990"/><path d="m147.9 69.83-3.9 3.89 2.78 2.78a2.67 2.67 0 0 0 -1.29 1.3l-2.77-2.8-3.89 3.89 3.89 3.89 2.78-2.78a2.69 2.69 0 0 0 1.29 1.29l-2.79 2.8 3.9 3.91 3.89-3.89-2.79-2.8a2.65 2.65 0 0 0 1.3-1.31l2.78 2.78 3.92-3.87-3.92-3.91-2.78 2.8a2.67 2.67 0 0 0 -1.3-1.3l2.78-2.78z" fill="#2b3990"/><path d="m18.12 89.58-2.78-2.78-3.89 3.89 3.89 3.89 2.78-2.78a2.78 2.78 0 0 0 1.29 1.29l-2.77 2.78 3.88 3.89 3.9-3.89-2.79-2.78a2.65 2.65 0 0 0 1.29-1.29l2.78 2.78 3.9-3.89-3.9-3.89-2.77 2.78a2.76 2.76 0 0 0 -1.29-1.3l2.78-2.77-3.9-3.89-3.88 3.89 2.77 2.77a2.76 2.76 0 0 0 -1.29 1.3z" fill="#2b3990"/><path d="m69.22 209.51 2.78 2.78 3.89-3.89-3.89-3.89-2.78 2.78a2.69 2.69 0 0 0 -1.29-1.29l2.78-2.78-3.89-3.89-3.89 3.89 2.78 2.78a2.61 2.61 0 0 0 -1.29 1.29l-2.79-2.78-3.88 3.89 3.88 3.89 2.79-2.78a2.65 2.65 0 0 0 1.29 1.29l-2.78 2.78 3.89 3.89 3.89-3.89-2.78-2.78a2.74 2.74 0 0 0 1.29-1.29z" fill="#2b3990"/><path d="m150.3 221.27 2.78 2.78 3.89-3.89-3.89-3.89-2.78 2.78a2.65 2.65 0 0 0 -1.29-1.29l2.78-2.78-3.89-3.89-3.9 3.91 2.78 2.78a2.65 2.65 0 0 0 -1.29 1.29l-2.78-2.78-3.89 3.89 3.89 3.89 2.78-2.78a2.61 2.61 0 0 0 1.29 1.29l-2.78 2.76 3.89 3.89 3.89-3.89-2.78-2.78a2.61 2.61 0 0 0 1.3-1.29z" fill="#2b3990"/><path d="m96.43 12.17 2.78-2.77a2.69 2.69 0 0 0 1.29 1.29l-2.78 2.78 3.89 3.89 3.89-3.89-2.78-2.78a2.74 2.74 0 0 0 1.28-1.29l2.78 2.77 3.22-3.17h-16.75z" fill="#2b3990"/><path d="m161.8 209.51 2.78 2.78 3.9-3.89-3.9-3.89-2.77 2.78a2.69 2.69 0 0 0 -1.29-1.29l2.78-2.78-3.9-3.89-3.88 3.89 2.77 2.78a2.69 2.69 0 0 0 -1.29 1.29l-2.78-2.78-3.89 3.89 3.89 3.89 2.78-2.78a2.74 2.74 0 0 0 1.29 1.29l-2.77 2.78 3.88 3.89 3.9-3.89-2.79-2.78a2.65 2.65 0 0 0 1.29-1.29z" fill="#2b3990"/><path d="m119.57 12.17 2.79-2.77a2.69 2.69 0 0 0 1.29 1.29l-2.78 2.78 3.89 3.89 3.89-3.89-2.79-2.78a2.69 2.69 0 0 0 1.29-1.29l2.78 2.77 3.18-3.17h-16.71z" fill="#2b3990"/><path d="m142.72 12.17 2.78-2.77a2.78 2.78 0 0 0 1.29 1.29l-2.79 2.78 3.89 3.89 3.89-3.89-2.78-2.78a2.69 2.69 0 0 0 1.3-1.29l2.78 2.77 3.18-3.17h-16.71z" fill="#2b3990"/><path d="m69.22 233.05 2.78 2.78 3.89-3.89-3.89-3.89-2.78 2.78a2.74 2.74 0 0 0 -1.29-1.29l2.78-2.78-3.89-3.89-3.89 3.89 2.78 2.78a2.65 2.65 0 0 0 -1.29 1.29l-2.79-2.78-3.88 3.89 3.88 3.89 2.79-2.78a2.61 2.61 0 0 0 1.29 1.29l-2.78 2.78 3.89 3.88 3.89-3.89-2.78-2.78a2.69 2.69 0 0 0 1.29-1.28z" fill="#2b3990"/><path d="m138.66 233.05 2.78 2.78 3.89-3.89-3.89-3.89-2.78 2.78a2.74 2.74 0 0 0 -1.29-1.29l2.78-2.78-3.89-3.89-3.89 3.89 2.78 2.78a2.65 2.65 0 0 0 -1.29 1.29l-2.78-2.78-3.89 3.89 3.89 3.89 2.78-2.78a2.61 2.61 0 0 0 1.29 1.29l-2.78 2.78 3.89 3.89 3.89-3.89-2.78-2.78a2.69 2.69 0 0 0 1.29-1.29z" fill="#2b3990"/><path d="m92.36 233.05 2.78 2.78 3.9-3.89-3.9-3.89-2.77 2.78a2.74 2.74 0 0 0 -1.29-1.29l2.78-2.78-3.86-3.89-3.89 3.89 2.78 2.78a2.74 2.74 0 0 0 -1.29 1.29l-2.78-2.78-3.89 3.89 3.89 3.89 2.78-2.78a2.69 2.69 0 0 0 1.29 1.29l-2.78 2.78 3.89 3.88 3.9-3.89-2.79-2.78a2.61 2.61 0 0 0 1.25-1.28z" fill="#2b3990"/><path d="m115.51 233.05 2.78 2.78 3.89-3.89-3.89-3.89-2.78 2.78a2.65 2.65 0 0 0 -1.29-1.29l2.78-2.78-3.89-3.89-3.89 3.89 2.78 2.78a2.69 2.69 0 0 0 -1.29 1.29l-2.78-2.78-3.93 3.89 3.89 3.89 2.78-2.78a2.65 2.65 0 0 0 1.29 1.29l-2.78 2.78 3.89 3.89 3.89-3.89-2.78-2.78a2.61 2.61 0 0 0 1.33-1.29z" fill="#2b3990"/><path d="m50.13 12.17 2.79-2.77a2.72 2.72 0 0 0 1.28 1.29l-2.77 2.78 3.89 3.89 3.89-3.89-2.78-2.78a2.78 2.78 0 0 0 1.29-1.29l2.77 2.77 3.18-3.17h-16.67z" fill="#2b3990"/><path d="m106.79 239.82-2.79 2.78a2.78 2.78 0 0 0 -1.29-1.29l2.78-2.78-3.89-3.89-3.89 3.89 2.78 2.78a2.67 2.67 0 0 0 -1.29 1.3l-2.78-2.79-3.17 3.18h16.75z" fill="#2b3990"/><path d="m129.93 239.82-2.77 2.78a2.78 2.78 0 0 0 -1.29-1.29l2.78-2.78-3.89-3.89-3.89 3.89 2.77 2.78a2.76 2.76 0 0 0 -1.29 1.3l-2.78-2.79-3.17 3.18h16.71z" fill="#2b3990"/><path d="m83.64 239.82-2.78 2.78a2.69 2.69 0 0 0 -1.29-1.29l2.78-2.78-3.89-3.89-3.89 3.89 2.78 2.78a2.71 2.71 0 0 0 -1.29 1.3l-2.78-2.79-3.18 3.18h16.72z" fill="#2b3990"/><path d="m153.08 239.82-2.78 2.78a2.69 2.69 0 0 0 -1.29-1.29l2.78-2.78-3.89-3.89-3.9 3.89 2.78 2.78a2.67 2.67 0 0 0 -1.29 1.3l-2.78-2.79-3.17 3.18h16.71z" fill="#2b3990"/><path d="m37.28 239.82-2.78 2.78a2.78 2.78 0 0 0 -1.29-1.29l2.79-2.78-3.89-3.89-3.89 3.89 2.78 2.78a2.67 2.67 0 0 0 -1.29 1.3l-2.79-2.79-3.18 3.18h16.71z" fill="#2b3990"/><path d="m60.49 239.82-2.77 2.78a2.78 2.78 0 0 0 -1.29-1.29l2.78-2.78-3.9-3.89-3.89 3.89 2.78 2.78a2.76 2.76 0 0 0 -1.29 1.3l-2.78-2.79-3.13 3.18h16.67z" fill="#2b3990"/><path d="m27 12.17 2.77-2.77a2.69 2.69 0 0 0 1.29 1.29l-2.78 2.78 3.89 3.89 3.89-3.89-2.78-2.78a2.78 2.78 0 0 0 1.29-1.29l2.78 2.77 3.17-3.17h-16.71z" fill="#2b3990"/><path d="m46.07 233.05 2.78 2.78 3.89-3.89-3.89-3.89-2.78 2.78a2.65 2.65 0 0 0 -1.29-1.29l2.78-2.78-3.89-3.89-3.89 3.89 2.78 2.78a2.65 2.65 0 0 0 -1.29 1.29l-2.78-2.78-3.89 3.89 3.89 3.89 2.78-2.78a2.61 2.61 0 0 0 1.29 1.29l-2.78 2.78 3.89 3.88 3.89-3.89-2.78-2.78a2.61 2.61 0 0 0 1.29-1.28z" fill="#2b3990"/><path d="m73.28 12.17 2.78-2.77a2.74 2.74 0 0 0 1.29 1.29l-2.78 2.78 3.89 3.89 3.89-3.89-2.78-2.78a2.69 2.69 0 0 0 1.29-1.29l2.78 2.77 3.18-3.17h-16.72z" fill="#2b3990"/><path d="m32.1 229.23 3.9-3.89-2.78-2.78a2.69 2.69 0 0 0 1.29-1.29l2.78 2.78 3.89-3.89-3.89-3.89-2.78 2.78a2.74 2.74 0 0 0 -1.29-1.29l2.78-2.76-3.89-3.89-3.9 3.89 2.79 2.76a2.65 2.65 0 0 0 -1.29 1.29l-2.78-2.78-3.93 3.89 3.89 3.89 2.78-2.78a2.61 2.61 0 0 0 1.33 1.29l-2.78 2.78z" fill="#2b3990"/><path d="m138.66 209.51 2.78 2.78 3.89-3.89-3.89-3.89-2.78 2.78a2.69 2.69 0 0 0 -1.29-1.29l2.78-2.78-3.89-3.89-3.89 3.89 2.78 2.78a2.61 2.61 0 0 0 -1.29 1.29l-2.78-2.78-3.89 3.89 3.89 3.89 2.78-2.78a2.65 2.65 0 0 0 1.29 1.29l-2.78 2.78 3.89 3.89 3.89-3.89-2.78-2.78a2.74 2.74 0 0 0 1.29-1.29z" fill="#2b3990"/><path d="m150.3 197.73 2.78 2.78 3.89-3.89-3.89-3.89-2.78 2.78a2.61 2.61 0 0 0 -1.29-1.29l2.78-2.78-3.89-3.89-3.9 3.89 2.78 2.78a2.61 2.61 0 0 0 -1.29 1.29l-2.78-2.78-3.89 3.89 3.89 3.89 2.78-2.78a2.69 2.69 0 0 0 1.29 1.29l-2.78 2.78 3.89 3.89 3.89-3.89-2.78-2.8a2.65 2.65 0 0 0 1.3-1.27z" fill="#2b3990"/><path d="m161.8 186 2.78 2.78 3.9-3.89-3.9-3.9-2.77 2.79a2.76 2.76 0 0 0 -1.29-1.3l2.78-2.78-3.9-3.89-3.88 3.89 2.77 2.78a2.76 2.76 0 0 0 -1.29 1.3l-2.78-2.78-3.89 3.9 3.89 3.89 2.78-2.79a2.78 2.78 0 0 0 1.29 1.29l-2.77 2.71 3.88 3.89 3.9-3.89-2.79-2.78a2.65 2.65 0 0 0 1.29-1.22z" fill="#2b3990"/><path d="m159.4 34.53-3.88 3.89 2.77 2.78a2.69 2.69 0 0 0 -1.29 1.29l-2.78-2.78-3.89 3.89 3.89 3.89 2.78-2.78a2.69 2.69 0 0 0 1.29 1.29l-2.77 2.78 3.88 3.89 3.9-3.89-2.79-2.78a2.61 2.61 0 0 0 1.29-1.29l2.78 2.78 3.9-3.89-3.9-3.89-2.77 2.78a2.69 2.69 0 0 0 -1.29-1.29l2.78-2.78z" fill="#2b3990"/><path d="m147.9 22.75-3.9 3.89 2.78 2.78a2.61 2.61 0 0 0 -1.29 1.29l-2.78-2.78-3.89 3.89 3.89 3.89 2.78-2.78a2.69 2.69 0 0 0 1.29 1.29l-2.78 2.78 3.89 3.89 3.9-3.89-2.79-2.78a2.65 2.65 0 0 0 1.29-1.29l2.78 2.78 3.93-3.89-3.89-3.89-2.78 2.78a2.61 2.61 0 0 0 -1.33-1.29l2.78-2.78z" fill="#2b3990"/><path d="m20.52 123.3 3.9-3.89-2.79-2.78a2.65 2.65 0 0 0 1.29-1.29l2.78 2.78 3.89-3.89-3.89-3.89-2.77 2.78a2.74 2.74 0 0 0 -1.3-1.3l2.78-2.77-3.89-3.89-3.89 3.89 2.78 2.77a2.76 2.76 0 0 0 -1.29 1.3l-2.78-2.78-3.89 3.89 3.89 3.89 2.78-2.78a2.78 2.78 0 0 0 1.29 1.29l-2.78 2.78z" fill="#2b3990"/><path d="m46.07 209.51 2.78 2.78 3.89-3.89-3.89-3.89-2.78 2.78a2.61 2.61 0 0 0 -1.29-1.29l2.78-2.78-3.89-3.89-3.89 3.89 2.78 2.78a2.61 2.61 0 0 0 -1.29 1.29l-2.78-2.78-3.89 3.89 3.89 3.89 2.78-2.78a2.65 2.65 0 0 0 1.29 1.29l-2.78 2.78 3.89 3.89 3.89-3.89-2.78-2.78a2.65 2.65 0 0 0 1.29-1.29z" fill="#2b3990"/><path d="m115.51 209.51 2.78 2.78 3.89-3.89-3.89-3.89-2.78 2.78a2.61 2.61 0 0 0 -1.29-1.29l2.78-2.78-3.89-3.89-3.89 3.89 2.78 2.78a2.65 2.65 0 0 0 -1.29 1.29l-2.78-2.78-3.93 3.89 3.89 3.89 2.78-2.78a2.69 2.69 0 0 0 1.33 1.29l-2.78 2.78 3.89 3.89 3.89-3.89-2.78-2.78a2.65 2.65 0 0 0 1.29-1.29z" fill="#2b3990"/><path d="m92.36 209.51 2.78 2.78 3.86-3.89-3.9-3.89-2.77 2.78a2.69 2.69 0 0 0 -1.25-1.29l2.78-2.78-3.86-3.89-3.89 3.89 2.74 2.78a2.69 2.69 0 0 0 -1.29 1.29l-2.78-2.78-3.89 3.89 3.89 3.89 2.78-2.78a2.74 2.74 0 0 0 1.29 1.29l-2.78 2.78 3.93 3.89 3.9-3.89-2.79-2.78a2.65 2.65 0 0 0 1.25-1.29z" fill="#2b3990"/><path d="m41.27 19-2.78-2.78-3.89 3.84 3.89 3.94 2.78-2.78a2.74 2.74 0 0 0 1.29 1.29l-2.78 2.78 3.89 3.89 3.89-3.89-2.78-2.78a2.65 2.65 0 0 0 1.29-1.29l2.78 2.78 3.89-3.89-3.89-3.89-2.78 2.78a2.61 2.61 0 0 0 -1.29-1.29l2.78-2.78-3.89-3.93-3.89 3.89 2.78 2.78a2.65 2.65 0 0 0 -1.29 1.33z" fill="#2b3990"/><path d="m29.77 30.71-2.77-2.78-3.9 3.89 3.9 3.89 2.78-2.78a2.69 2.69 0 0 0 1.29 1.29l-2.79 2.78 3.89 3.89 3.89-3.89-2.78-2.78a2.74 2.74 0 0 0 1.29-1.29l2.78 2.78 3.89-3.89-3.89-3.89-2.78 2.78a2.69 2.69 0 0 0 -1.29-1.29l2.78-2.78-3.89-3.89-3.89 3.89 2.78 2.78a2.61 2.61 0 0 0 -1.29 1.29z" fill="#2b3990"/><path d="m32.17 205.69 3.89-3.89-2.78-2.8a2.74 2.74 0 0 0 1.29-1.29l2.78 2.78 3.89-3.89-3.89-3.89-2.78 2.78a2.69 2.69 0 0 0 -1.29-1.29l2.78-2.78-3.89-3.89-3.89 3.89 2.78 2.78a2.61 2.61 0 0 0 -1.29 1.29l-2.77-2.76-3.88 3.89 3.88 3.89 2.79-2.78a2.69 2.69 0 0 0 1.27 1.27l-2.78 2.78z" fill="#2b3990"/><path d="m133.86 19-2.78-2.78-3.89 3.89 3.89 3.89 2.78-2.78a2.69 2.69 0 0 0 1.29 1.29l-2.78 2.78 3.89 3.89 3.89-3.89-2.78-2.78a2.74 2.74 0 0 0 1.29-1.29l2.78 2.78 3.89-3.89-3.89-3.89-2.78 2.78a2.65 2.65 0 0 0 -1.29-1.29l2.78-2.78-3.89-3.93-3.89 3.89 2.78 2.78a2.61 2.61 0 0 0 -1.29 1.33z" fill="#2b3990"/><path d="m20.52 217.47 3.9-3.89-2.79-2.78a2.65 2.65 0 0 0 1.29-1.29l2.78 2.78 3.89-3.89-3.89-3.89-2.77 2.78a2.67 2.67 0 0 0 -1.3-1.29l2.78-2.78-3.89-3.89-3.89 3.89 2.78 2.78a2.69 2.69 0 0 0 -1.29 1.29l-2.78-2.78-3.89 3.89 3.89 3.89 2.78-2.78a2.74 2.74 0 0 0 1.29 1.29l-2.78 2.78z" fill="#2b3990"/><path d="m18.12 42.49-2.78-2.78-3.89 3.89 3.89 3.89 2.78-2.78a2.69 2.69 0 0 0 1.29 1.29l-2.77 2.78 3.88 3.89 3.9-3.89-2.79-2.78a2.61 2.61 0 0 0 1.29-1.29l2.78 2.78 3.9-3.89-3.9-3.89-2.77 2.78a2.69 2.69 0 0 0 -1.29-1.29l2.78-2.78-3.9-3.89-3.88 3.89 2.77 2.78a2.69 2.69 0 0 0 -1.29 1.29z" fill="#2b3990"/><path d="m64.42 19-2.78-2.78-3.89 3.89 3.89 3.89 2.78-2.78a2.69 2.69 0 0 0 1.29 1.29l-2.78 2.78 3.89 3.89 3.89-3.89-2.78-2.78a2.74 2.74 0 0 0 1.29-1.29l2.78 2.78 3.89-3.89-3.89-3.94-2.78 2.83a2.65 2.65 0 0 0 -1.29-1.29l2.78-2.78-3.89-3.93-3.89 3.89 2.78 2.78a2.61 2.61 0 0 0 -1.29 1.33z" fill="#2b3990"/><path d="m110.71 19-2.78-2.78-3.93 3.84 3.93 3.94 2.78-2.78a2.74 2.74 0 0 0 1.29 1.24l-2.78 2.78 3.89 3.89 3.89-3.89-2.78-2.78a2.65 2.65 0 0 0 1.29-1.29l2.78 2.83 3.89-3.89-3.89-3.89-2.77 2.78a2.67 2.67 0 0 0 -1.3-1.29l2.78-2.83-3.89-3.88-3.89 3.89 2.78 2.77a2.65 2.65 0 0 0 -1.29 1.34z" fill="#2b3990"/><path d="m87.57 19-2.79-2.78-3.89 3.89 3.89 3.89 2.79-2.78a2.72 2.72 0 0 0 1.28 1.29l-2.77 2.78 3.92 3.84 3.89-3.89-2.78-2.78a2.74 2.74 0 0 0 1.29-1.29l2.74 2.83 3.86-3.94-3.9-3.89-2.73 2.83a2.69 2.69 0 0 0 -1.29-1.29l2.78-2.78-3.86-3.93-3.89 3.89 2.78 2.78a2.63 2.63 0 0 0 -1.32 1.33z" fill="#2b3990"/><path d="m120.87 73.72 2.77 2.78a2.76 2.76 0 0 0 -1.29 1.3l-2.78-2.8-3.89 3.9 3.89 3.88 2.78-2.78a2.78 2.78 0 0 0 1.29 1.29l-2.77 2.78 3.89 3.93 3.89-3.89-2.79-2.78a2.69 2.69 0 0 0 1.29-1.33l2.78 2.77 3.9-3.88-3.9-3.9-2.77 2.79a2.76 2.76 0 0 0 -1.29-1.3l2.78-2.78-3.9-3.89z" fill="#2b3990"/><path d="m82.35 201.8-2.78-2.8a2.65 2.65 0 0 0 1.29-1.29l2.78 2.78 3.89-3.89-3.89-3.89-2.78 2.78a2.61 2.61 0 0 0 -1.29-1.29l2.78-2.78-3.89-3.89-3.89 3.89 2.78 2.78a2.61 2.61 0 0 0 -1.29 1.29l-2.78-2.78-3.89 3.89 3.89 3.89 2.78-2.78a2.69 2.69 0 0 0 1.29 1.29l-2.78 2.78 3.89 3.89z" fill="#2b3990"/><path d="m59.21 201.8-2.79-2.8a2.65 2.65 0 0 0 1.29-1.29l2.78 2.78 3.89-3.89-3.89-3.89-2.77 2.78a2.69 2.69 0 0 0 -1.29-1.29l2.78-2.78-3.9-3.89-3.89 3.89 2.78 2.78a2.69 2.69 0 0 0 -1.29 1.29l-2.78-2.78-3.89 3.89 3.89 3.89 2.78-2.78a2.78 2.78 0 0 0 1.29 1.29l-2.78 2.78 3.89 3.89z" fill="#2b3990"/><path d="m10.06 175.48a2.65 2.65 0 0 0 1.29-1.29l2.78 2.81 3.87-3.92-3.89-3.9-2.76 2.82a2.67 2.67 0 0 0 -1.29-1.3l2.78-2.78-3.84-3.87v18l3.84-3.84z" fill="#2b3990"/><path d="m9 87.93 3.84-3.85-2.78-2.78a2.61 2.61 0 0 0 1.29-1.3l2.78 2.78 3.87-3.88-3.87-3.9-2.78 2.78a2.65 2.65 0 0 0 -1.29-1.29l2.78-2.78-3.84-3.83z" fill="#2b3990"/><path d="m171 164.05-3.84 3.85 2.78 2.77a2.67 2.67 0 0 0 -1.29 1.3l-2.78-2.78-3.87 3.89 3.89 3.89 2.78-2.78a2.69 2.69 0 0 0 1.29 1.29l-2.78 2.78 3.82 3.84z" fill="#2b3990"/><path d="m51.43 50.18 2.77 2.82a2.67 2.67 0 0 0 -1.28 1.29l-2.79-2.78-3.89 3.89 3.89 3.89 2.79-2.78a2.63 2.63 0 0 0 1.28 1.29l-2.77 2.78 3.89 3.89 3.89-3.89-2.78-2.78a2.69 2.69 0 0 0 1.29-1.29l2.77 2.78 3.9-3.89-3.9-3.89-2.77 2.78a2.74 2.74 0 0 0 -1.29-1.29l2.78-2.78-3.89-3.89z" fill="#2b3990"/><path d="m169.94 53a2.63 2.63 0 0 0 -1.29 1.3l-2.78-2.79-3.87 3.85 3.89 3.89 2.78-2.78a2.61 2.61 0 0 0 1.29 1.29l-2.78 2.78 3.82 3.85v-18l-3.84 3.84z" fill="#2b3990"/><path d="m128.65 201.8-2.79-2.8a2.65 2.65 0 0 0 1.29-1.29l2.78 2.78 3.89-3.89-3.89-3.89-2.77 2.78a2.67 2.67 0 0 0 -1.3-1.29l2.78-2.78-3.89-3.89-3.89 3.89 2.78 2.78a2.69 2.69 0 0 0 -1.29 1.29l-2.78-2.78-3.89 3.89 3.89 3.89 2.78-2.78a2.78 2.78 0 0 0 1.29 1.29l-2.78 2.78 3.89 3.89z" fill="#2b3990"/><path d="m105.5 201.8-2.78-2.8a2.74 2.74 0 0 0 1.29-1.29l2.78 2.78 3.89-3.89-3.89-3.89-2.79 2.8a2.69 2.69 0 0 0 -1.29-1.29l2.78-2.78-3.89-3.89-3.89 3.89 2.78 2.78a2.61 2.61 0 0 0 -1.29 1.29l-2.78-2.78-3.89 3.89 3.89 3.89 2.78-2.78a2.69 2.69 0 0 0 1.3 1.27l-2.78 2.78 3.89 3.89z" fill="#2b3990"/><path d="m167.16 120.81 2.78 2.78a2.61 2.61 0 0 0 -1.29 1.29l-2.78-2.78-3.87 3.9 3.89 3.89 2.78-2.78a2.61 2.61 0 0 0 1.29 1.29l-2.78 2.78 3.82 3.82v-18z" fill="#2b3990"/><path d="m171 140.51-3.84 3.84 2.78 2.78a2.67 2.67 0 0 0 -1.29 1.3l-2.78-2.79-3.89 3.9 3.89 3.88 2.78-2.78a2.67 2.67 0 0 0 1.29 1.3l-2.78 2.78 3.84 3.84z" fill="#2b3990"/><path d="m128.65 178.26-2.79-2.78a2.65 2.65 0 0 0 1.29-1.29l2.78 2.77 3.89-3.88-3.89-3.9-2.77 2.82a2.74 2.74 0 0 0 -1.3-1.3l2.78-2.78-3.89-3.92-3.89 3.89 2.78 2.78a2.76 2.76 0 0 0 -1.29 1.3l-2.78-2.79-3.89 3.9 3.89 3.88 2.78-2.77a2.78 2.78 0 0 0 1.29 1.29l-2.78 2.78 3.89 3.89z" fill="#2b3990"/><path d="m74.57 50.18 2.78 2.82a2.65 2.65 0 0 0 -1.29 1.29l-2.78-2.78-3.89 3.89 3.89 3.89 2.78-2.78a2.61 2.61 0 0 0 1.29 1.29l-2.78 2.78 3.89 3.89 3.89-3.89-2.78-2.78a2.61 2.61 0 0 0 1.29-1.29l2.78 2.78 3.89-3.89-3.89-3.89-2.78 2.78a2.65 2.65 0 0 0 -1.29-1.29l2.78-2.78-3.89-3.89z" fill="#2b3990"/><path d="m120.87 26.64 2.77 2.78a2.69 2.69 0 0 0 -1.29 1.29l-2.78-2.78-3.89 3.89 3.89 3.89 2.78-2.78a2.78 2.78 0 0 0 1.29 1.29l-2.77 2.78 3.89 3.89 3.89-3.89-2.79-2.78a2.65 2.65 0 0 0 1.29-1.29l2.78 2.78 3.9-3.89-3.9-3.89-2.77 2.78a2.69 2.69 0 0 0 -1.29-1.29l2.78-2.78-3.9-3.89z" fill="#2b3990"/><path d="m105.5 178.26-2.78-2.78a2.74 2.74 0 0 0 1.29-1.29l2.78 2.77 3.89-3.88-3.89-3.9-2.79 2.82a2.76 2.76 0 0 0 -1.29-1.3l2.78-2.78-3.88-3.92-3.89 3.89 2.78 2.78a2.67 2.67 0 0 0 -1.29 1.3l-2.78-2.79-3.89 3.9 3.89 3.92 2.78-2.77a2.69 2.69 0 0 0 1.29 1.29l-2.78 2.78 3.89 3.89z" fill="#2b3990"/><path d="m97.72 50.18 2.78 2.82a2.65 2.65 0 0 0 -1.29 1.29l-2.78-2.78-3.89 3.89 3.89 3.89 2.78-2.78a2.61 2.61 0 0 0 1.29 1.29l-2.78 2.78 3.89 3.89 3.89-3.89-2.78-2.78a2.65 2.65 0 0 0 1.28-1.33l2.78 2.78 3.89-3.89-3.89-3.89-2.78 2.78a2.69 2.69 0 0 0 -1.28-1.25l2.78-2.78-3.89-3.89z" fill="#2b3990"/><path d="m167.16 97.27 2.78 2.78a2.61 2.61 0 0 0 -1.29 1.29l-2.78-2.78-3.87 3.89 3.89 3.89 2.78-2.78a2.69 2.69 0 0 0 1.29 1.29l-2.78 2.78 3.84 3.84v-18z" fill="#2b3990"/><path d="m120.87 50.18 2.77 2.82a2.74 2.74 0 0 0 -1.29 1.29l-2.78-2.78-3.89 3.89 3.89 3.89 2.78-2.78a2.69 2.69 0 0 0 1.29 1.29l-2.77 2.78 3.89 3.89 3.89-3.89-2.79-2.78a2.61 2.61 0 0 0 1.29-1.29l2.78 2.78 3.9-3.89-3.9-3.89-2.77 2.78a2.74 2.74 0 0 0 -1.29-1.29l2.78-2.78-3.9-3.89z" fill="#2b3990"/><path d="m167.16 73.72 2.78 2.78a2.67 2.67 0 0 0 -1.29 1.3l-2.78-2.8-3.87 3.91 3.89 3.88 2.76-2.79a2.69 2.69 0 0 0 1.29 1.29l-2.78 2.78 3.84 3.86v-18.05z" fill="#2b3990"/><path d="m169.94 29.42a2.61 2.61 0 0 0 -1.29 1.29l-2.78-2.78-3.87 3.89 3.89 3.89 2.78-2.78a2.69 2.69 0 0 0 1.29 1.29l-2.8 2.78 3.84 3.84v-18l-3.84 3.84z" fill="#2b3990"/><path d="m171 187.6-3.84 3.84 2.78 2.78a2.61 2.61 0 0 0 -1.29 1.29l-2.78-2.78-3.87 3.89 3.89 3.89 2.78-2.78a2.61 2.61 0 0 0 1.29 1.29l-2.78 2.78 3.84 3.84z" fill="#2b3990"/><path d="m161.81 19a2.76 2.76 0 0 0 -1.29-1.3l2.78-2.77-3.89-3.93-3.89 3.89 2.78 2.77a2.67 2.67 0 0 0 -1.3 1.34l-2.79-2.78-3.89 3.89 3.9 3.89 2.78-2.83a2.69 2.69 0 0 0 1.29 1.29l-2.78 2.78 3.89 3.89 3.89-3.89-2.79-2.78a2.65 2.65 0 0 0 1.29-1.29l2.79 2.83 3.9-3.89-3.9-3.89z" fill="#2b3990"/><path d="m18.12 19-2.78-2.78-3.89 3.89 3.89 3.89 2.78-2.78a2.78 2.78 0 0 0 1.29 1.29l-2.77 2.78 3.88 3.89 3.9-3.89-2.79-2.78a2.65 2.65 0 0 0 1.29-1.29l2.78 2.78 3.9-3.89-3.9-3.89-2.77 2.78a2.69 2.69 0 0 0 -1.29-1.29l2.78-2.78-3.9-3.93-3.88 3.89 2.77 2.78a2.69 2.69 0 0 0 -1.29 1.33z" fill="#2b3990"/><path d="m82.35 178.26-2.78-2.78a2.65 2.65 0 0 0 1.29-1.29l2.78 2.81 3.89-3.88-3.89-3.9-2.78 2.78a2.67 2.67 0 0 0 -1.29-1.3l2.78-2.78-3.89-3.92-3.89 3.89 2.78 2.78a2.67 2.67 0 0 0 -1.29 1.3l-2.78-2.79-3.89 3.9 3.89 3.92 2.78-2.77a2.69 2.69 0 0 0 1.29 1.29l-2.78 2.78 3.89 3.89z" fill="#2b3990"/><path d="m9 40.84 3.84-3.84-2.78-2.78a2.65 2.65 0 0 0 1.29-1.29l2.78 2.78 3.87-3.89-3.89-3.89-2.78 2.78a2.67 2.67 0 0 0 -1.29-1.3l2.78-2.77-3.82-3.85z" fill="#2b3990"/><path d="m171 211.14-3.84 3.86 2.78 2.78a2.65 2.65 0 0 0 -1.29 1.29l-2.78-2.78-3.87 3.87 3.89 3.89 2.78-2.78a2.61 2.61 0 0 0 1.29 1.29l-2.78 2.78 3.84 3.85z" fill="#2b3990"/><path d="m161.8 233.05 2.78 2.78 3.9-3.89-3.9-3.89-2.77 2.78a2.74 2.74 0 0 0 -1.29-1.29l2.78-2.78-3.9-3.89-3.88 3.89 2.77 2.78a2.74 2.74 0 0 0 -1.29 1.29l-2.78-2.78-3.89 3.89 3.89 3.89 2.78-2.78a2.69 2.69 0 0 0 1.29 1.29l-2.77 2.78 3.88 3.88 3.9-3.89-2.79-2.78a2.61 2.61 0 0 0 1.29-1.28z" fill="#2b3990"/><path d="m10.06 222.56a2.61 2.61 0 0 0 1.29-1.29l2.78 2.78 3.87-3.89-3.89-3.89-2.78 2.78a2.65 2.65 0 0 0 -1.29-1.29l2.8-2.76-3.84-3.86v18.05l3.84-3.85z" fill="#2b3990"/><path d="m97.72 26.64 2.78 2.78a2.61 2.61 0 0 0 -1.29 1.29l-2.78-2.78-3.89 3.89 3.89 3.89 2.78-2.78a2.69 2.69 0 0 0 1.29 1.29l-2.78 2.78 3.89 3.89 3.89-3.89-2.78-2.78a2.69 2.69 0 0 0 1.28-1.29l2.78 2.78 3.89-3.89-3.89-3.89-2.78 2.78a2.65 2.65 0 0 0 -1.29-1.29l2.78-2.78-3.89-3.89z" fill="#2b3990"/><path d="m18.12 233.05a2.69 2.69 0 0 0 1.29 1.29l-2.77 2.78 3.88 3.88 3.9-3.89-2.79-2.78a2.61 2.61 0 0 0 1.29-1.29l2.78 2.78 3.9-3.89-3.9-3.89-2.77 2.78a2.74 2.74 0 0 0 -1.29-1.29l2.78-2.78-3.9-3.89-3.88 3.89 2.77 2.78a2.74 2.74 0 0 0 -1.29 1.29l-2.78-2.78-3.89 3.89 3.89 3.89z" fill="#2b3990"/><path d="m10.06 199a2.65 2.65 0 0 0 1.29-1.29l2.78 2.78 3.87-3.87-3.89-3.89-2.78 2.78a2.61 2.61 0 0 0 -1.29-1.29l2.78-2.78-3.82-3.84v18l3.84-3.84z" fill="#2b3990"/><path d="m9 64.38 3.84-3.84-2.78-2.78a2.65 2.65 0 0 0 1.29-1.29l2.78 2.78 3.87-3.89-3.89-3.89-2.78 2.78a2.61 2.61 0 0 0 -1.27-1.25l2.78-2.78-3.84-3.88v18z" fill="#2b3990"/><path d="m51.43 26.64 2.77 2.78a2.63 2.63 0 0 0 -1.28 1.29l-2.79-2.78-3.89 3.89 3.89 3.89 2.79-2.78a2.72 2.72 0 0 0 1.28 1.29l-2.77 2.78 3.89 3.89 3.89-3.89-2.78-2.78a2.74 2.74 0 0 0 1.29-1.29l2.77 2.78 3.9-3.89-3.9-3.89-2.77 2.78a2.69 2.69 0 0 0 -1.29-1.29l2.78-2.78-3.89-3.89z" fill="#2b3990"/><path d="m128.65 225.34-2.79-2.78a2.61 2.61 0 0 0 1.29-1.29l2.78 2.78 3.89-3.89-3.89-3.89-2.77 2.78a2.71 2.71 0 0 0 -1.3-1.29l2.78-2.78-3.89-3.89-3.89 3.91 2.78 2.78a2.74 2.74 0 0 0 -1.29 1.29l-2.78-2.78-3.89 3.89 3.89 3.89 2.78-2.78a2.69 2.69 0 0 0 1.29 1.29l-2.78 2.78 3.89 3.89z" fill="#2b3990"/><path d="m74.57 26.64 2.78 2.78a2.61 2.61 0 0 0 -1.29 1.29l-2.78-2.78-3.89 3.89 3.89 3.89 2.78-2.78a2.69 2.69 0 0 0 1.29 1.29l-2.78 2.78 3.89 3.89 3.89-3.89-2.78-2.78a2.65 2.65 0 0 0 1.29-1.29l2.78 2.78 3.89-3.89-3.89-3.89-2.78 2.78a2.61 2.61 0 0 0 -1.29-1.29l2.78-2.78-3.89-3.89z" fill="#2b3990"/><path d="m59.21 225.34-2.79-2.78a2.61 2.61 0 0 0 1.29-1.29l2.78 2.78 3.89-3.89-3.89-3.89-2.77 2.78a2.74 2.74 0 0 0 -1.29-1.29l2.78-2.76-3.9-3.89-3.89 3.89 2.78 2.78a2.74 2.74 0 0 0 -1.29 1.29l-2.78-2.78-3.89 3.89 3.89 3.89 2.78-2.78a2.69 2.69 0 0 0 1.29 1.29l-2.78 2.78 3.89 3.89z" fill="#2b3990"/><path d="m105.5 225.34-2.78-2.78a2.69 2.69 0 0 0 1.29-1.29l2.78 2.78 3.89-3.89-3.89-3.89-2.79 2.78a2.74 2.74 0 0 0 -1.29-1.29l2.79-2.76-3.89-3.89-3.89 3.89 2.78 2.78a2.65 2.65 0 0 0 -1.29 1.29l-2.78-2.78-3.89 3.89 3.89 3.89 2.78-2.78a2.61 2.61 0 0 0 1.29 1.29l-2.78 2.78 3.89 3.89z" fill="#2b3990"/><path d="m82.35 225.34-2.78-2.78a2.61 2.61 0 0 0 1.29-1.29l2.78 2.78 3.89-3.89-3.89-3.89-2.78 2.78a2.65 2.65 0 0 0 -1.29-1.29l2.78-2.76-3.89-3.89-3.89 3.89 2.78 2.78a2.65 2.65 0 0 0 -1.29 1.29l-2.78-2.78-3.89 3.89 3.89 3.89 2.78-2.78a2.61 2.61 0 0 0 1.29 1.29l-2.78 2.78 3.89 3.89z" fill="#2b3990"/><path d="m82.35 131.17-2.78-2.78a2.65 2.65 0 0 0 1.29-1.29l2.78 2.78 3.89-3.88-3.89-3.89-2.78 2.78a2.61 2.61 0 0 0 -1.29-1.29l2.78-2.78-3.89-3.89-3.89 3.89 2.78 2.78a2.61 2.61 0 0 0 -1.29 1.29l-2.78-2.78-3.89 3.89 3.89 3.89 2.78-2.78a2.65 2.65 0 0 0 1.29 1.29l-2.78 2.78 3.89 3.89z" fill="#2b3990"/><path d="m115.51 138.88 2.78 2.78 3.89-3.89-3.89-3.89-2.78 2.78a2.61 2.61 0 0 0 -1.29-1.29l2.78-2.78-3.89-3.89-3.89 3.89 2.78 2.78a2.65 2.65 0 0 0 -1.29 1.29l-2.78-2.78-3.93 3.89 3.89 3.89 2.78-2.78a2.65 2.65 0 0 0 1.29 1.29l-2.74 2.83 3.89 3.89 3.89-3.89-2.78-2.78a2.61 2.61 0 0 0 1.29-1.34z" fill="#2b3990"/><path d="m32.17 135.06 3.89-3.89-2.78-2.78a2.74 2.74 0 0 0 1.29-1.29l2.78 2.78 3.89-3.88-3.89-3.89-2.78 2.78a2.69 2.69 0 0 0 -1.29-1.29l2.78-2.78-3.89-3.89-3.89 3.89 2.78 2.78a2.61 2.61 0 0 0 -1.29 1.29l-2.77-2.79-3.9 3.9 3.9 3.88 2.79-2.78a2.65 2.65 0 0 0 1.29 1.29l-2.78 2.78z" fill="#2b3990"/><path d="m69.22 138.88 2.78 2.78 3.89-3.89-3.89-3.89-2.78 2.78a2.69 2.69 0 0 0 -1.29-1.29l2.78-2.78-3.89-3.89-3.89 3.89 2.78 2.78a2.61 2.61 0 0 0 -1.29 1.29l-2.79-2.78-3.88 3.89 3.88 3.89 2.79-2.78a2.61 2.61 0 0 0 1.29 1.29l-2.78 2.83 3.89 3.89 3.89-3.89-2.78-2.78a2.69 2.69 0 0 0 1.29-1.34z" fill="#2b3990"/><path d="m92.36 138.88 2.78 2.78 3.9-3.89-3.9-3.89-2.77 2.78a2.69 2.69 0 0 0 -1.29-1.29l2.78-2.78-3.86-3.89-3.89 3.89 2.78 2.78a2.69 2.69 0 0 0 -1.29 1.29l-2.78-2.78-3.89 3.89 3.89 3.89 2.78-2.78a2.69 2.69 0 0 0 1.29 1.29l-2.82 2.83 3.93 3.84 3.9-3.89-2.79-2.78a2.61 2.61 0 0 0 1.25-1.29z" fill="#2b3990"/><path d="m46.07 138.88 2.78 2.78 3.89-3.89-3.89-3.89-2.78 2.78a2.61 2.61 0 0 0 -1.29-1.29l2.78-2.78-3.89-3.89-3.89 3.89 2.78 2.78a2.61 2.61 0 0 0 -1.29 1.29l-2.78-2.78-3.89 3.89 3.89 3.89 2.78-2.78a2.61 2.61 0 0 0 1.29 1.29l-2.78 2.83 3.89 3.89 3.89-3.89-2.78-2.78a2.61 2.61 0 0 0 1.29-1.34z" fill="#2b3990"/><path d="m29.77 101.34-2.77-2.78-3.89 3.89 3.89 3.89 2.78-2.78a2.69 2.69 0 0 0 1.29 1.29l-2.78 2.78 3.89 3.89 3.89-3.89-2.78-2.78a2.74 2.74 0 0 0 1.29-1.29l2.78 2.78 3.89-3.89-3.89-3.89-2.78 2.78a2.69 2.69 0 0 0 -1.29-1.29l2.78-2.78-3.89-3.89-3.89 3.89 2.78 2.78a2.61 2.61 0 0 0 -1.3 1.29z" fill="#2b3990"/><path d="m64.42 113.12-2.78-2.78-3.89 3.89 3.89 3.89 2.78-2.78a2.65 2.65 0 0 0 1.29 1.29l-2.78 2.78 3.89 3.89 3.89-3.89-2.78-2.78a2.74 2.74 0 0 0 1.29-1.29l2.78 2.78 3.89-3.89-3.89-3.89-2.78 2.78a2.65 2.65 0 0 0 -1.29-1.29l2.78-2.78-3.89-3.89-3.89 3.89 2.78 2.78a2.61 2.61 0 0 0 -1.29 1.29z" fill="#2b3990"/><path d="m41.27 113.12-2.78-2.78-3.89 3.89 3.89 3.89 2.78-2.78a2.69 2.69 0 0 0 1.29 1.29l-2.78 2.78 3.89 3.89 3.89-3.89-2.78-2.78a2.65 2.65 0 0 0 1.29-1.29l2.78 2.78 3.89-3.89-3.89-3.89-2.78 2.78a2.61 2.61 0 0 0 -1.29-1.29l2.78-2.78-3.89-3.89-3.89 3.89 2.78 2.78a2.65 2.65 0 0 0 -1.29 1.29z" fill="#2b3990"/><path d="m59.21 131.17-2.79-2.78a2.65 2.65 0 0 0 1.29-1.29l2.78 2.78 3.89-3.88-3.89-3.89-2.77 2.78a2.69 2.69 0 0 0 -1.29-1.29l2.78-2.78-3.9-3.89-3.89 3.89 2.78 2.78a2.69 2.69 0 0 0 -1.29 1.29l-2.78-2.78-3.89 3.89 3.89 3.89 2.78-2.78a2.74 2.74 0 0 0 1.29 1.29l-2.78 2.78 3.89 3.89z" fill="#2b3990"/><path d="m147.9 93.38-3.9 3.89 2.78 2.78a2.61 2.61 0 0 0 -1.29 1.29l-2.78-2.78-3.89 3.89 3.89 3.89 2.78-2.78a2.69 2.69 0 0 0 1.29 1.29l-2.78 2.78 3.89 3.89 3.89-3.89-2.78-2.78a2.65 2.65 0 0 0 1.29-1.29l2.78 2.78 3.89-3.89-3.89-3.89-2.78 2.78a2.61 2.61 0 0 0 -1.29-1.29l2.78-2.78z" fill="#2b3990"/><path d="m110.71 89.58-2.78-2.78-3.93 3.89 3.89 3.89 2.78-2.78a2.74 2.74 0 0 0 1.33 1.29l-2.78 2.78 3.89 3.89 3.89-3.89-2.78-2.78a2.65 2.65 0 0 0 1.29-1.29l2.78 2.78 3.89-3.89-3.89-3.89-2.77 2.78a2.74 2.74 0 0 0 -1.3-1.3l2.78-2.77-3.89-3.89-3.89 3.89 2.78 2.77a2.71 2.71 0 0 0 -1.29 1.3z" fill="#2b3990"/><path d="m64.42 89.58-2.78-2.78-3.89 3.89 3.89 3.89 2.78-2.78a2.69 2.69 0 0 0 1.29 1.29l-2.78 2.78 3.89 3.89 3.89-3.89-2.78-2.78a2.74 2.74 0 0 0 1.29-1.29l2.78 2.78 3.89-3.89-3.89-3.89-2.78 2.78a2.71 2.71 0 0 0 -1.29-1.3l2.78-2.77-3.89-3.89-3.89 3.89 2.78 2.77a2.67 2.67 0 0 0 -1.29 1.3z" fill="#2b3990"/><path d="m87.57 89.58-2.79-2.78-3.89 3.89 3.89 3.89 2.79-2.78a2.72 2.72 0 0 0 1.28 1.29l-2.77 2.78 3.92 3.89 3.89-3.89-2.78-2.78a2.74 2.74 0 0 0 1.29-1.29l2.77 2.78 3.83-3.89-3.9-3.89-2.77 2.78a2.76 2.76 0 0 0 -1.29-1.3l2.78-2.77-3.82-3.89-3.89 3.89 2.78 2.77a2.69 2.69 0 0 0 -1.32 1.3z" fill="#2b3990"/><path d="m41.27 89.58-2.78-2.78-3.89 3.89 3.89 3.89 2.78-2.78a2.74 2.74 0 0 0 1.29 1.29l-2.78 2.78 3.89 3.89 3.89-3.89-2.78-2.78a2.65 2.65 0 0 0 1.29-1.29l2.78 2.78 3.89-3.89-3.89-3.89-2.78 2.78a2.67 2.67 0 0 0 -1.29-1.3l2.78-2.77-3.89-3.89-3.89 3.89 2.78 2.77a2.71 2.71 0 0 0 -1.29 1.3z" fill="#2b3990"/><path d="m87.57 113.12-2.79-2.78-3.89 3.89 3.89 3.89 2.79-2.78a2.67 2.67 0 0 0 1.28 1.29l-2.77 2.78 3.92 3.89 3.89-3.89-2.78-2.78a2.74 2.74 0 0 0 1.29-1.29l2.77 2.78 3.9-3.89-3.9-3.89-2.77 2.78a2.69 2.69 0 0 0 -1.29-1.29l2.78-2.78-3.89-3.89-3.89 3.89 2.78 2.78a2.63 2.63 0 0 0 -1.32 1.29z" fill="#2b3990"/><path d="m147.9 116.92-3.9 3.89 2.78 2.78a2.65 2.65 0 0 0 -1.29 1.29l-2.78-2.78-3.88 3.9 3.89 3.89 2.78-2.78a2.61 2.61 0 0 0 1.29 1.29l-2.79 2.77 3.89 3.89 3.89-3.89-2.78-2.78a2.61 2.61 0 0 0 1.29-1.29l2.78 2.78 3.93-3.88-3.89-3.89-2.78 2.78a2.65 2.65 0 0 0 -1.29-1.29l2.78-2.78z" fill="#2b3990"/><path d="m133.86 89.58-2.78-2.78-3.89 3.89 3.89 3.89 2.78-2.78a2.69 2.69 0 0 0 1.29 1.29l-2.78 2.78 3.89 3.89 3.89-3.89-2.78-2.78a2.74 2.74 0 0 0 1.29-1.29l2.78 2.78 3.89-3.89-3.89-3.89-2.78 2.78a2.71 2.71 0 0 0 -1.29-1.3l2.78-2.77-3.89-3.89-3.89 3.89 2.78 2.77a2.67 2.67 0 0 0 -1.29 1.3z" fill="#2b3990"/><path d="m138.66 138.88 2.78 2.78 3.89-3.89-3.89-3.89-2.78 2.78a2.69 2.69 0 0 0 -1.29-1.29l2.78-2.78-3.89-3.89-3.89 3.89 2.78 2.78a2.61 2.61 0 0 0 -1.29 1.29l-2.78-2.78-3.89 3.89 3.89 3.89 2.78-2.78a2.61 2.61 0 0 0 1.29 1.29l-2.78 2.83 3.89 3.89 3.89-3.89-2.78-2.78a2.69 2.69 0 0 0 1.29-1.34z" fill="#2b3990"/><path d="m74.57 97.27 2.78 2.78a2.61 2.61 0 0 0 -1.29 1.29l-2.78-2.78-3.89 3.89 3.89 3.89 2.78-2.78a2.69 2.69 0 0 0 1.29 1.29l-2.78 2.78 3.89 3.89 3.89-3.89-2.78-2.78a2.65 2.65 0 0 0 1.29-1.29l2.78 2.78 3.89-3.89-3.89-3.89-2.78 2.78a2.61 2.61 0 0 0 -1.29-1.29l2.78-2.78-3.89-3.89z" fill="#2b3990"/><path d="m74.57 73.72 2.78 2.78a2.67 2.67 0 0 0 -1.29 1.3l-2.78-2.8-3.89 3.9 3.89 3.88 2.78-2.78a2.69 2.69 0 0 0 1.29 1.29l-2.78 2.78 3.89 3.93 3.89-3.89-2.78-2.78a2.69 2.69 0 0 0 1.29-1.33l2.78 2.77 3.89-3.88-3.89-3.89-2.78 2.8a2.67 2.67 0 0 0 -1.29-1.3l2.78-2.78-3.89-3.89z" fill="#2b3990"/><path d="m97.72 73.72 2.78 2.78a2.67 2.67 0 0 0 -1.29 1.3l-2.78-2.8-3.89 3.9 3.89 3.88 2.78-2.78a2.69 2.69 0 0 0 1.29 1.29l-2.78 2.78 3.89 3.93 3.89-3.89-2.78-2.78a2.74 2.74 0 0 0 1.28-1.33l2.78 2.77 3.89-3.88-3.88-3.89-2.79 2.8a2.71 2.71 0 0 0 -1.29-1.3l2.78-2.78-3.89-3.89z" fill="#2b3990"/><path d="m82.35 154.72-2.78-2.79a2.61 2.61 0 0 0 1.29-1.29l2.78 2.78 3.89-3.89-3.89-3.89-2.78 2.78a2.65 2.65 0 0 0 -1.29-1.29l2.78-2.78-3.89-3.89-3.89 3.89 2.78 2.78a2.65 2.65 0 0 0 -1.29 1.29l-2.78-2.78-3.89 3.89 3.89 3.89 2.78-2.78a2.61 2.61 0 0 0 1.29 1.29l-2.78 2.79 3.89 3.88z" fill="#2b3990"/><path d="m105.5 131.17-2.78-2.78a2.74 2.74 0 0 0 1.28-1.29l2.78 2.78 3.89-3.89-3.89-3.89-2.78 2.78a2.69 2.69 0 0 0 -1.29-1.29l2.78-2.78-3.89-3.89-3.89 3.89 2.78 2.78a2.61 2.61 0 0 0 -1.29 1.29l-2.78-2.78-3.88 3.9 3.89 3.89 2.78-2.78a2.65 2.65 0 0 0 1.29 1.29l-2.78 2.78 3.89 3.89z" fill="#2b3990"/><path d="m128.65 154.72-2.79-2.79a2.61 2.61 0 0 0 1.29-1.29l2.78 2.78 3.89-3.89-3.89-3.89-2.77 2.78a2.71 2.71 0 0 0 -1.3-1.29l2.78-2.78-3.89-3.89-3.89 3.89 2.78 2.78a2.74 2.74 0 0 0 -1.29 1.29l-2.78-2.78-3.89 3.89 3.89 3.89 2.78-2.78a2.69 2.69 0 0 0 1.29 1.29l-2.78 2.79 3.89 3.88z" fill="#2b3990"/><path d="m12.84 154.72-2.78-2.79a2.61 2.61 0 0 0 1.29-1.29l2.78 2.78 3.87-3.89-3.89-3.89-2.78 2.78a2.65 2.65 0 0 0 -1.29-1.29l2.78-2.78-3.82-3.84v18z" fill="#2b3990"/><path d="m12.84 131.17-2.78-2.78a2.65 2.65 0 0 0 1.29-1.29l2.78 2.78 3.87-3.88-3.89-3.89-2.78 2.78a2.61 2.61 0 0 0 -1.29-1.29l2.78-2.78-3.82-3.82v18z" fill="#2b3990"/><path d="m9 111.47 3.84-3.84-2.78-2.78a2.65 2.65 0 0 0 1.29-1.29l2.78 2.78 3.87-3.89-3.89-3.89-2.78 2.78a2.67 2.67 0 0 0 -1.29-1.3l2.78-2.77-3.82-3.85v18z" fill="#2b3990"/><path d="m51.43 73.72 2.77 2.78a2.69 2.69 0 0 0 -1.28 1.3l-2.79-2.8-3.89 3.9 3.89 3.88 2.79-2.78a2.72 2.72 0 0 0 1.28 1.29l-2.77 2.78 3.89 3.93 3.89-3.89-2.78-2.78a2.78 2.78 0 0 0 1.29-1.33l2.77 2.77 3.9-3.88-3.9-3.89-2.77 2.8a2.76 2.76 0 0 0 -1.29-1.3l2.78-2.78-3.89-3.89z" fill="#2b3990"/><path d="m105.5 154.72-2.78-2.79a2.69 2.69 0 0 0 1.29-1.29l2.78 2.78 3.89-3.89-3.89-3.89-2.79 2.78a2.74 2.74 0 0 0 -1.29-1.29l2.78-2.78-3.89-3.89-3.89 3.89 2.78 2.78a2.65 2.65 0 0 0 -1.29 1.29l-2.78-2.78-3.89 3.89 3.89 3.89 2.78-2.78a2.61 2.61 0 0 0 1.29 1.29l-2.78 2.79 3.89 3.88z" fill="#2b3990"/><path d="m120.87 97.27 2.77 2.78a2.69 2.69 0 0 0 -1.29 1.29l-2.78-2.78-3.89 3.89 3.89 3.89 2.78-2.78a2.78 2.78 0 0 0 1.29 1.29l-2.77 2.78 3.89 3.89 3.89-3.89-2.79-2.78a2.65 2.65 0 0 0 1.29-1.29l2.78 2.78 3.9-3.89-3.9-3.89-2.77 2.78a2.69 2.69 0 0 0 -1.29-1.29l2.78-2.78-3.9-3.89z" fill="#2b3990"/><path d="m59.21 154.72-2.79-2.79a2.61 2.61 0 0 0 1.29-1.29l2.78 2.78 3.89-3.89-3.89-3.89-2.77 2.78a2.74 2.74 0 0 0 -1.29-1.29l2.78-2.78-3.9-3.89-3.89 3.89 2.78 2.78a2.74 2.74 0 0 0 -1.29 1.29l-2.78-2.78-3.89 3.89 3.89 3.89 2.78-2.78a2.69 2.69 0 0 0 1.29 1.29l-2.78 2.79 3.89 3.88z" fill="#2b3990"/><path d="m128.65 131.17-2.79-2.78a2.65 2.65 0 0 0 1.29-1.29l2.78 2.78 3.89-3.89-3.89-3.89-2.77 2.78a2.67 2.67 0 0 0 -1.3-1.29l2.78-2.78-3.89-3.89-3.89 3.89 2.78 2.78a2.69 2.69 0 0 0 -1.29 1.29l-2.78-2.78-3.89 3.9 3.89 3.89 2.78-2.78a2.74 2.74 0 0 0 1.29 1.29l-2.78 2.78 3.89 3.89z" fill="#2b3990"/><path d="m110.71 113.12-2.78-2.78-3.93 3.89 3.89 3.89 2.78-2.78a2.69 2.69 0 0 0 1.29 1.29l-2.78 2.78 3.89 3.89 3.89-3.89-2.78-2.78a2.65 2.65 0 0 0 1.29-1.29l2.78 2.78 3.89-3.89-3.89-3.89-2.77 2.78a2.67 2.67 0 0 0 -1.3-1.29l2.78-2.78-3.89-3.89-3.89 3.89 2.78 2.78a2.65 2.65 0 0 0 -1.25 1.29z" fill="#2b3990"/><path d="m133.86 113.12-2.78-2.78-3.89 3.89 3.89 3.89 2.78-2.78a2.65 2.65 0 0 0 1.29 1.29l-2.78 2.78 3.89 3.89 3.89-3.89-2.78-2.78a2.74 2.74 0 0 0 1.29-1.29l2.78 2.78 3.89-3.89-3.89-3.89-2.78 2.78a2.65 2.65 0 0 0 -1.29-1.29l2.78-2.78-3.89-3.89-3.89 3.89 2.78 2.78a2.61 2.61 0 0 0 -1.29 1.29z" fill="#2b3990"/><path d="m51.43 97.27 2.77 2.78a2.63 2.63 0 0 0 -1.28 1.29l-2.79-2.78-3.89 3.89 3.89 3.89 2.79-2.78a2.72 2.72 0 0 0 1.28 1.29l-2.77 2.78 3.89 3.89 3.89-3.89-2.78-2.78a2.74 2.74 0 0 0 1.29-1.29l2.77 2.78 3.9-3.89-3.9-3.89-2.77 2.78a2.69 2.69 0 0 0 -1.29-1.29l2.78-2.78-3.89-3.89z" fill="#2b3990"/><path d="m59.21 178.26-2.79-2.78a2.65 2.65 0 0 0 1.29-1.29l2.78 2.81 3.89-3.88-3.89-3.9-2.77 2.78a2.76 2.76 0 0 0 -1.29-1.3l2.78-2.78-3.9-3.92-3.89 3.89 2.78 2.78a2.76 2.76 0 0 0 -1.29 1.3l-2.78-2.79-3.89 3.9 3.89 3.92 2.78-2.77a2.78 2.78 0 0 0 1.29 1.29l-2.78 2.78 3.89 3.89z" fill="#2b3990"/><path d="m97.72 97.27 2.78 2.78a2.61 2.61 0 0 0 -1.29 1.29l-2.78-2.78-3.89 3.89 3.89 3.89 2.78-2.78a2.69 2.69 0 0 0 1.29 1.29l-2.78 2.78 3.89 3.89 3.89-3.89-2.78-2.78a2.69 2.69 0 0 0 1.29-1.29l2.78 2.78 3.89-3.89-3.89-3.89-2.79 2.78a2.65 2.65 0 0 0 -1.29-1.29l2.78-2.78-3.89-3.89z" fill="#2b3990"/><path d="m163 8.5h-146a8.53 8.53 0 0 0 -8.5 8.5v218a8.53 8.53 0 0 0 8.5 8.5h146a8.54 8.54 0 0 0 8.52-8.59v-217.91a8.53 8.53 0 0 0 -8.52-8.5zm-8.52 17v200.96h-128.94v-200.92z" fill="#fff"/><path d="m18.3 12.27a6 6 0 1 0 6 6 6 6 0 0 0 -6-6z" fill="#2b3990"/><circle cx="18.3" cy="18.29" fill="#fff" r="2.52"/><path d="m161.7 12.39a6 6 0 1 0 6 6 6 6 0 0 0 -6-6z" fill="#2b3990"/><circle cx="161.7" cy="18.41" fill="#fff" r="2.52"/><path d="m18.3 227.57a6 6 0 1 0 6 6 6 6 0 0 0 -6-6z" fill="#2b3990"/><circle cx="18.3" cy="233.59" fill="#fff" r="2.52"/><path d="m161.7 227.7a6 6 0 1 0 6 6 6 6 0 0 0 -6-6z" fill="#2b3990"/><circle cx="161.7" cy="233.71" fill="#fff" r="2.52"/><g fill="#2b3990"><path d="m15.39 46.2a6.56 6.56 0 0 1 -3.22 1.66 6.62 6.62 0 0 1 1.66-3.23 6.5 6.5 0 0 1 3.22-1.63 6.6 6.6 0 0 1 -1.66 3.2z"/><path d="m13.83 41.32a6.62 6.62 0 0 1 -1.66-3.23 6.56 6.56 0 0 1 3.22 1.66 6.62 6.62 0 0 1 1.66 3.25 6.56 6.56 0 0 1 -3.22-1.68z"/><path d="m20.28 44.63a6.62 6.62 0 0 1 1.66 3.23 6.62 6.62 0 0 1 -3.23-1.66 6.62 6.62 0 0 1 -1.66-3.2 6.62 6.62 0 0 1 3.23 1.63z"/><path d="m20.28 41.32a6.62 6.62 0 0 1 -3.23 1.68 6.62 6.62 0 0 1 1.66-3.23 6.62 6.62 0 0 1 3.23-1.66 6.62 6.62 0 0 1 -1.66 3.21z"/><circle cx="17.05" cy="42.98" r="1.1"/><circle cx="17.05" cy="38.09" r="1.1"/><circle cx="21.94" cy="42.98" r="1.1"/><circle cx="12.17" cy="42.98" r="1.1"/><circle cx="17.05" cy="47.86" r="1.1"/><path d="m15.39 36.43a6.56 6.56 0 0 1 -3.22 1.66 6.62 6.62 0 0 1 1.66-3.23 6.6 6.6 0 0 1 3.22-1.65 6.56 6.56 0 0 1 -1.66 3.22z"/><path d="m13.83 31.55a6.62 6.62 0 0 1 -1.66-3.23 6.56 6.56 0 0 1 3.22 1.68 6.62 6.62 0 0 1 1.66 3.23 6.56 6.56 0 0 1 -3.22-1.68z"/><path d="m20.28 34.86a6.62 6.62 0 0 1 1.66 3.23 6.62 6.62 0 0 1 -3.23-1.66 6.56 6.56 0 0 1 -1.66-3.22 6.65 6.65 0 0 1 3.23 1.65z"/><path d="m20.28 31.55a6.62 6.62 0 0 1 -3.23 1.66 6.62 6.62 0 0 1 1.66-3.21 6.6 6.6 0 0 1 3.22-1.66 6.55 6.55 0 0 1 -1.65 3.21z"/><circle cx="17.05" cy="33.21" r="1.1"/><circle cx="17.05" cy="28.32" r="1.1"/><circle cx="21.94" cy="33.21" r="1.1"/><circle cx="12.17" cy="33.21" r="1.1"/><circle cx="17.05" cy="38.09" r="1.1"/><path d="m15.39 65.74a6.5 6.5 0 0 1 -3.22 1.65 6.6 6.6 0 0 1 1.66-3.22 6.56 6.56 0 0 1 3.22-1.66 6.62 6.62 0 0 1 -1.66 3.23z"/><path d="m13.83 60.85a6.6 6.6 0 0 1 -1.66-3.22 6.5 6.5 0 0 1 3.22 1.65 6.62 6.62 0 0 1 1.66 3.23 6.56 6.56 0 0 1 -3.22-1.66z"/><path d="m20.28 64.17a6.6 6.6 0 0 1 1.66 3.22 6.55 6.55 0 0 1 -3.23-1.65 6.62 6.62 0 0 1 -1.66-3.23 6.62 6.62 0 0 1 3.23 1.66z"/><path d="m20.28 60.85a6.62 6.62 0 0 1 -3.23 1.66 6.62 6.62 0 0 1 1.66-3.23 6.55 6.55 0 0 1 3.23-1.65 6.6 6.6 0 0 1 -1.66 3.22z"/><circle cx="17.05" cy="62.51" r="1.1"/><circle cx="17.05" cy="57.63" r="1.1"/><circle cx="21.94" cy="62.51" r="1.1"/><circle cx="12.17" cy="62.51" r="1.1"/><circle cx="17.05" cy="67.39" r="1.1"/><path d="m15.39 56a6.56 6.56 0 0 1 -3.22 1.66 6.62 6.62 0 0 1 1.66-3.23 6.56 6.56 0 0 1 3.22-1.66 6.62 6.62 0 0 1 -1.66 3.23z"/><path d="m13.83 51.09a6.62 6.62 0 0 1 -1.66-3.23 6.56 6.56 0 0 1 3.22 1.66 6.56 6.56 0 0 1 1.66 3.22 6.6 6.6 0 0 1 -3.22-1.65z"/><path d="m20.28 54.4a6.62 6.62 0 0 1 1.66 3.23 6.62 6.62 0 0 1 -3.23-1.63 6.62 6.62 0 0 1 -1.66-3.23 6.62 6.62 0 0 1 3.23 1.63z"/><path d="m20.28 51.09a6.65 6.65 0 0 1 -3.23 1.65 6.6 6.6 0 0 1 1.66-3.22 6.6 6.6 0 0 1 3.22-1.66 6.55 6.55 0 0 1 -1.65 3.23z"/><circle cx="17.05" cy="52.74" r="1.1"/><circle cx="17.05" cy="47.86" r="1.1"/><circle cx="21.94" cy="52.74" r="1.1"/><circle cx="12.17" cy="52.74" r="1.1"/><circle cx="17.05" cy="57.63" r="1.1"/><path d="m15.39 85.27a6.56 6.56 0 0 1 -3.22 1.66 6.62 6.62 0 0 1 1.66-3.23 6.5 6.5 0 0 1 3.22-1.65 6.6 6.6 0 0 1 -1.66 3.22z"/><path d="m13.83 80.39a6.62 6.62 0 0 1 -1.66-3.23 6.56 6.56 0 0 1 3.22 1.66 6.62 6.62 0 0 1 1.66 3.23 6.56 6.56 0 0 1 -3.22-1.66z"/><path d="m20.28 83.7a6.62 6.62 0 0 1 1.66 3.23 6.62 6.62 0 0 1 -3.23-1.66 6.6 6.6 0 0 1 -1.66-3.22 6.65 6.65 0 0 1 3.23 1.65z"/><path d="m20.28 80.39a6.62 6.62 0 0 1 -3.23 1.66 6.62 6.62 0 0 1 1.66-3.23 6.62 6.62 0 0 1 3.23-1.66 6.62 6.62 0 0 1 -1.66 3.23z"/><circle cx="17.05" cy="82.05" r="1.1"/><circle cx="17.05" cy="77.16" r="1.1"/><circle cx="21.94" cy="82.05" r="1.1"/><circle cx="12.17" cy="82.05" r="1.1"/><circle cx="17.05" cy="86.93" r="1.1"/><path d="m15.39 75.51a6.6 6.6 0 0 1 -3.22 1.65 6.62 6.62 0 0 1 1.66-3.23 6.6 6.6 0 0 1 3.22-1.65 6.62 6.62 0 0 1 -1.66 3.23z"/><path d="m13.83 70.62a6.62 6.62 0 0 1 -1.66-3.23 6.56 6.56 0 0 1 3.22 1.66 6.62 6.62 0 0 1 1.66 3.23 6.56 6.56 0 0 1 -3.22-1.66z"/><path d="m20.28 73.94a6.56 6.56 0 0 1 1.66 3.22 6.65 6.65 0 0 1 -3.23-1.65 6.62 6.62 0 0 1 -1.66-3.23 6.62 6.62 0 0 1 3.23 1.66z"/><path d="m20.28 70.62a6.62 6.62 0 0 1 -3.23 1.66 6.62 6.62 0 0 1 1.66-3.23 6.6 6.6 0 0 1 3.22-1.66 6.55 6.55 0 0 1 -1.65 3.23z"/><circle cx="17.05" cy="72.28" r="1.1"/><circle cx="17.05" cy="67.39" r="1.1"/><circle cx="21.94" cy="72.28" r="1.1"/><circle cx="12.17" cy="72.28" r="1.1"/><circle cx="17.05" cy="77.16" r="1.1"/><path d="m15.39 104.81a6.5 6.5 0 0 1 -3.22 1.65 6.6 6.6 0 0 1 1.66-3.22 6.56 6.56 0 0 1 3.22-1.66 6.62 6.62 0 0 1 -1.66 3.23z"/><path d="m13.83 99.92a6.56 6.56 0 0 1 -1.66-3.22 6.6 6.6 0 0 1 3.22 1.65 6.62 6.62 0 0 1 1.66 3.23 6.56 6.56 0 0 1 -3.22-1.66z"/><path d="m20.28 103.24a6.62 6.62 0 0 1 1.66 3.23 6.62 6.62 0 0 1 -3.23-1.66 6.62 6.62 0 0 1 -1.66-3.23 6.62 6.62 0 0 1 3.23 1.66z"/><path d="m20.28 99.92a6.62 6.62 0 0 1 -3.23 1.66 6.62 6.62 0 0 1 1.66-3.23 6.55 6.55 0 0 1 3.23-1.65 6.56 6.56 0 0 1 -1.66 3.22z"/><circle cx="17.05" cy="101.58" r="1.1"/><circle cx="17.05" cy="96.7" r="1.1"/><circle cx="21.94" cy="101.58" r="1.1"/><circle cx="12.17" cy="101.58" r="1.1"/><circle cx="17.05" cy="106.46" r="1.1"/><path d="m15.39 95a6.56 6.56 0 0 1 -3.22 1.66 6.62 6.62 0 0 1 1.66-3.23 6.56 6.56 0 0 1 3.22-1.66 6.62 6.62 0 0 1 -1.66 3.23z"/><path d="m13.83 90.16a6.62 6.62 0 0 1 -1.66-3.23 6.56 6.56 0 0 1 3.22 1.66 6.6 6.6 0 0 1 1.66 3.22 6.6 6.6 0 0 1 -3.22-1.65z"/><path d="m20.28 93.47a6.62 6.62 0 0 1 1.66 3.23 6.62 6.62 0 0 1 -3.23-1.7 6.62 6.62 0 0 1 -1.66-3.23 6.62 6.62 0 0 1 3.23 1.7z"/><path d="m20.28 90.16a6.55 6.55 0 0 1 -3.23 1.65 6.6 6.6 0 0 1 1.66-3.22 6.6 6.6 0 0 1 3.22-1.66 6.55 6.55 0 0 1 -1.65 3.23z"/><circle cx="17.05" cy="91.81" r="1.1"/><circle cx="17.05" cy="86.93" r="1.1"/><circle cx="21.94" cy="91.81" r="1.1"/><circle cx="12.17" cy="91.81" r="1.1"/><circle cx="17.05" cy="96.7" r="1.1"/><path d="m15.39 124.34a6.56 6.56 0 0 1 -3.22 1.66 6.62 6.62 0 0 1 1.66-3.23 6.5 6.5 0 0 1 3.22-1.65 6.6 6.6 0 0 1 -1.66 3.22z"/><path d="m13.83 119.46a6.62 6.62 0 0 1 -1.66-3.23 6.56 6.56 0 0 1 3.22 1.66 6.62 6.62 0 0 1 1.66 3.23 6.56 6.56 0 0 1 -3.22-1.66z"/><path d="m20.28 122.77a6.62 6.62 0 0 1 1.66 3.23 6.62 6.62 0 0 1 -3.23-1.66 6.6 6.6 0 0 1 -1.66-3.22 6.55 6.55 0 0 1 3.23 1.65z"/><path d="m20.28 119.46a6.62 6.62 0 0 1 -3.23 1.66 6.62 6.62 0 0 1 1.66-3.23 6.62 6.62 0 0 1 3.23-1.66 6.62 6.62 0 0 1 -1.66 3.23z"/><circle cx="17.05" cy="121.12" r="1.1"/><circle cx="17.05" cy="116.23" r="1.1"/><circle cx="21.94" cy="121.12" r="1.1"/><circle cx="12.17" cy="121.12" r="1.1"/><circle cx="17.05" cy="126" r="1.1"/><path d="m15.39 114.58a6.6 6.6 0 0 1 -3.22 1.65 6.6 6.6 0 0 1 1.66-3.23 6.56 6.56 0 0 1 3.22-1.66 6.62 6.62 0 0 1 -1.66 3.24z"/><path d="m13.83 109.69a6.62 6.62 0 0 1 -1.66-3.23 6.56 6.56 0 0 1 3.22 1.66 6.62 6.62 0 0 1 1.66 3.23 6.56 6.56 0 0 1 -3.22-1.66z"/><path d="m20.28 113a6.6 6.6 0 0 1 1.66 3.22 6.65 6.65 0 0 1 -3.23-1.65 6.62 6.62 0 0 1 -1.66-3.23 6.62 6.62 0 0 1 3.23 1.66z"/><path d="m20.28 109.69a6.62 6.62 0 0 1 -3.23 1.66 6.62 6.62 0 0 1 1.66-3.23 6.6 6.6 0 0 1 3.22-1.66 6.55 6.55 0 0 1 -1.65 3.23z"/><circle cx="17.05" cy="111.35" r="1.1"/><circle cx="17.05" cy="106.46" r="1.1"/><circle cx="21.94" cy="111.35" r="1.1"/><circle cx="12.17" cy="111.35" r="1.1"/><circle cx="17.05" cy="116.23" r="1.1"/><path d="m15.39 143.88a6.5 6.5 0 0 1 -3.22 1.65 6.6 6.6 0 0 1 1.66-3.22 6.56 6.56 0 0 1 3.22-1.66 6.62 6.62 0 0 1 -1.66 3.23z"/><path d="m13.83 139a6.56 6.56 0 0 1 -1.66-3.22 6.6 6.6 0 0 1 3.22 1.65 6.62 6.62 0 0 1 1.66 3.23 6.56 6.56 0 0 1 -3.22-1.66z"/><path d="m20.28 142.31a6.62 6.62 0 0 1 1.66 3.23 6.62 6.62 0 0 1 -3.23-1.66 6.62 6.62 0 0 1 -1.66-3.23 6.62 6.62 0 0 1 3.23 1.66z"/><path d="m20.28 139a6.65 6.65 0 0 1 -3.23 1.65 6.56 6.56 0 0 1 1.66-3.22 6.62 6.62 0 0 1 3.23-1.66 6.62 6.62 0 0 1 -1.66 3.23z"/><path d="m17.05 139.56a1.1 1.1 0 1 1 -1.05 1.09 1.09 1.09 0 0 1 1.05-1.09z"/><circle cx="17.05" cy="135.77" r="1.1"/><path d="m21.94 139.56a1.1 1.1 0 1 1 -1.1 1.09 1.09 1.09 0 0 1 1.1-1.09z"/><path d="m12.17 139.56a1.1 1.1 0 1 1 -1.1 1.09 1.09 1.09 0 0 1 1.1-1.09z"/><circle cx="17.05" cy="145.54" r="1.1"/><path d="m15.39 134.11a6.56 6.56 0 0 1 -3.22 1.66 6.62 6.62 0 0 1 1.66-3.23 6.56 6.56 0 0 1 3.22-1.66 6.62 6.62 0 0 1 -1.66 3.23z"/><path d="m13.83 129.23a6.62 6.62 0 0 1 -1.66-3.23 6.56 6.56 0 0 1 3.22 1.66 6.6 6.6 0 0 1 1.66 3.22 6.5 6.5 0 0 1 -3.22-1.65z"/><path d="m20.28 132.54a6.62 6.62 0 0 1 1.66 3.23 6.62 6.62 0 0 1 -3.23-1.66 6.6 6.6 0 0 1 -1.66-3.22 6.55 6.55 0 0 1 3.23 1.65z"/><path d="m20.28 129.23a6.55 6.55 0 0 1 -3.23 1.65 6.6 6.6 0 0 1 1.66-3.22 6.6 6.6 0 0 1 3.22-1.66 6.55 6.55 0 0 1 -1.65 3.23z"/><circle cx="17.05" cy="130.88" r="1.1"/><circle cx="17.05" cy="126" r="1.1"/><circle cx="21.94" cy="130.88" r="1.1"/><circle cx="12.17" cy="130.88" r="1.1"/><circle cx="17.05" cy="135.77" r="1.1"/><path d="m15.39 163.41a6.56 6.56 0 0 1 -3.22 1.66 6.56 6.56 0 0 1 1.66-3.22 6.56 6.56 0 0 1 3.22-1.66 6.56 6.56 0 0 1 -1.66 3.22z"/><path d="m13.83 158.53a6.62 6.62 0 0 1 -1.66-3.23 6.56 6.56 0 0 1 3.22 1.7 6.62 6.62 0 0 1 1.66 3.23 6.56 6.56 0 0 1 -3.22-1.7z"/><path d="m20.28 161.85a6.56 6.56 0 0 1 1.66 3.22 6.62 6.62 0 0 1 -3.23-1.66 6.56 6.56 0 0 1 -1.66-3.22 6.62 6.62 0 0 1 3.23 1.66z"/><path d="m20.28 158.53a6.62 6.62 0 0 1 -3.23 1.66 6.62 6.62 0 0 1 1.66-3.19 6.62 6.62 0 0 1 3.23-1.66 6.62 6.62 0 0 1 -1.66 3.19z"/><circle cx="17.05" cy="160.19" r="1.1"/><circle cx="17.05" cy="155.3" r="1.1"/><circle cx="21.94" cy="160.19" r="1.1"/><circle cx="12.17" cy="160.19" r="1.1"/><circle cx="17.05" cy="165.07" r="1.1"/><path d="m15.39 153.65a6.6 6.6 0 0 1 -3.22 1.65 6.6 6.6 0 0 1 1.66-3.22 6.56 6.56 0 0 1 3.22-1.66 6.62 6.62 0 0 1 -1.66 3.23z"/><path d="m13.83 148.76a6.6 6.6 0 0 1 -1.66-3.22 6.5 6.5 0 0 1 3.22 1.65 6.62 6.62 0 0 1 1.66 3.23 6.56 6.56 0 0 1 -3.22-1.66z"/><path d="m20.28 152.08a6.6 6.6 0 0 1 1.66 3.22 6.65 6.65 0 0 1 -3.23-1.65 6.62 6.62 0 0 1 -1.66-3.23 6.62 6.62 0 0 1 3.23 1.66z"/><path d="m20.28 148.76a6.62 6.62 0 0 1 -3.23 1.66 6.62 6.62 0 0 1 1.66-3.23 6.54 6.54 0 0 1 3.22-1.65 6.54 6.54 0 0 1 -1.65 3.22z"/><circle cx="17.05" cy="150.42" r="1.1"/><circle cx="17.05" cy="145.54" r="1.1"/><circle cx="21.94" cy="150.42" r="1.1"/><circle cx="12.17" cy="150.42" r="1.1"/><circle cx="17.05" cy="155.3" r="1.1"/><path d="m15.39 183a6.56 6.56 0 0 1 -3.22 1.66 6.62 6.62 0 0 1 1.66-3.23 6.56 6.56 0 0 1 3.22-1.66 6.62 6.62 0 0 1 -1.66 3.23z"/><path d="m13.83 178.07a6.62 6.62 0 0 1 -1.66-3.23 6.6 6.6 0 0 1 3.22 1.65 6.62 6.62 0 0 1 1.66 3.23 6.6 6.6 0 0 1 -3.22-1.65z"/><path d="m20.28 181.38a6.62 6.62 0 0 1 1.66 3.23 6.62 6.62 0 0 1 -3.23-1.61 6.62 6.62 0 0 1 -1.66-3.23 6.62 6.62 0 0 1 3.23 1.61z"/><path d="m20.28 178.07a6.65 6.65 0 0 1 -3.23 1.65 6.62 6.62 0 0 1 1.66-3.23 6.65 6.65 0 0 1 3.23-1.65 6.62 6.62 0 0 1 -1.66 3.23z"/><circle cx="17.05" cy="179.72" r="1.1"/><circle cx="17.05" cy="174.84" r="1.1"/><circle cx="21.94" cy="179.72" r="1.1"/><circle cx="12.17" cy="179.72" r="1.1"/><circle cx="17.05" cy="184.61" r="1.1"/><path d="m15.39 173.18a6.56 6.56 0 0 1 -3.22 1.66 6.62 6.62 0 0 1 1.66-3.23 6.56 6.56 0 0 1 3.22-1.61 6.62 6.62 0 0 1 -1.66 3.18z"/><path d="m13.83 168.3a6.62 6.62 0 0 1 -1.66-3.23 6.56 6.56 0 0 1 3.22 1.66 6.6 6.6 0 0 1 1.66 3.27 6.5 6.5 0 0 1 -3.22-1.7z"/><path d="m20.28 171.61a6.62 6.62 0 0 1 1.66 3.23 6.62 6.62 0 0 1 -3.23-1.66 6.6 6.6 0 0 1 -1.66-3.18 6.55 6.55 0 0 1 3.23 1.61z"/><path d="m20.28 168.3a6.55 6.55 0 0 1 -3.23 1.7 6.6 6.6 0 0 1 1.66-3.22 6.6 6.6 0 0 1 3.22-1.66 6.55 6.55 0 0 1 -1.65 3.18z"/><circle cx="17.05" cy="169.96" r="1.1"/><circle cx="17.05" cy="165.07" r="1.1"/><circle cx="21.94" cy="169.96" r="1.1"/><circle cx="12.17" cy="169.96" r="1.1"/><circle cx="17.05" cy="174.84" r="1.1"/><path d="m15.39 202.48a6.56 6.56 0 0 1 -3.22 1.66 6.62 6.62 0 0 1 1.66-3.23 6.6 6.6 0 0 1 3.22-1.65 6.56 6.56 0 0 1 -1.66 3.22z"/><path d="m13.83 197.6a6.62 6.62 0 0 1 -1.66-3.23 6.56 6.56 0 0 1 3.22 1.63 6.62 6.62 0 0 1 1.66 3.23 6.56 6.56 0 0 1 -3.22-1.63z"/><path d="m20.28 200.91a6.62 6.62 0 0 1 1.66 3.23 6.62 6.62 0 0 1 -3.23-1.66 6.56 6.56 0 0 1 -1.66-3.22 6.65 6.65 0 0 1 3.23 1.65z"/><path d="m20.28 197.6a6.62 6.62 0 0 1 -3.23 1.66 6.62 6.62 0 0 1 1.66-3.26 6.62 6.62 0 0 1 3.23-1.66 6.62 6.62 0 0 1 -1.66 3.26z"/><circle cx="17.05" cy="199.26" r="1.1"/><circle cx="17.05" cy="194.38" r="1.1"/><circle cx="21.94" cy="199.26" r="1.1"/><circle cx="12.17" cy="199.26" r="1.1"/><circle cx="17.05" cy="204.14" r="1.1"/><path d="m15.39 192.72a6.5 6.5 0 0 1 -3.22 1.65 6.56 6.56 0 0 1 1.66-3.22 6.56 6.56 0 0 1 3.22-1.66 6.62 6.62 0 0 1 -1.66 3.23z"/><path d="m13.83 187.83a6.6 6.6 0 0 1 -1.66-3.22 6.6 6.6 0 0 1 3.22 1.65 6.62 6.62 0 0 1 1.66 3.23 6.56 6.56 0 0 1 -3.22-1.66z"/><path d="m20.28 191.15a6.62 6.62 0 0 1 1.66 3.23 6.62 6.62 0 0 1 -3.23-1.66 6.62 6.62 0 0 1 -1.66-3.23 6.62 6.62 0 0 1 3.23 1.66z"/><path d="m20.28 187.83a6.62 6.62 0 0 1 -3.23 1.66 6.62 6.62 0 0 1 1.66-3.23 6.54 6.54 0 0 1 3.22-1.65 6.54 6.54 0 0 1 -1.65 3.22z"/><circle cx="17.05" cy="189.49" r="1.1"/><circle cx="17.05" cy="184.61" r="1.1"/><circle cx="21.94" cy="189.49" r="1.1"/><circle cx="12.17" cy="189.49" r="1.1"/><circle cx="17.05" cy="194.38" r="1.1"/><path d="m15.39 222a6.56 6.56 0 0 1 -3.22 1.66 6.62 6.62 0 0 1 1.66-3.23 6.56 6.56 0 0 1 3.22-1.66 6.62 6.62 0 0 1 -1.66 3.23z"/><path d="m13.83 217.14a6.62 6.62 0 0 1 -1.66-3.23 6.56 6.56 0 0 1 3.22 1.66 6.6 6.6 0 0 1 1.66 3.22 6.6 6.6 0 0 1 -3.22-1.65z"/><path d="m20.28 220.45a6.62 6.62 0 0 1 1.66 3.23 6.62 6.62 0 0 1 -3.23-1.68 6.62 6.62 0 0 1 -1.66-3.23 6.62 6.62 0 0 1 3.23 1.68z"/><path d="m20.28 217.14a6.65 6.65 0 0 1 -3.23 1.65 6.56 6.56 0 0 1 1.66-3.22 6.62 6.62 0 0 1 3.23-1.66 6.62 6.62 0 0 1 -1.66 3.23z"/><circle cx="17.05" cy="218.79" r="1.1"/><circle cx="17.05" cy="213.91" r="1.1"/><circle cx="21.94" cy="218.79" r="1.1"/><circle cx="12.17" cy="218.79" r="1.1"/><circle cx="17.05" cy="223.68" r="1.1"/><path d="m15.39 212.25a6.56 6.56 0 0 1 -3.22 1.66 6.62 6.62 0 0 1 1.66-3.23 6.56 6.56 0 0 1 3.22-1.68 6.62 6.62 0 0 1 -1.66 3.25z"/><path d="m13.83 207.37a6.62 6.62 0 0 1 -1.66-3.23 6.56 6.56 0 0 1 3.22 1.66 6.62 6.62 0 0 1 1.66 3.2 6.56 6.56 0 0 1 -3.22-1.63z"/><path d="m20.28 210.68a6.62 6.62 0 0 1 1.66 3.23 6.62 6.62 0 0 1 -3.23-1.66 6.62 6.62 0 0 1 -1.66-3.25 6.72 6.72 0 0 1 3.23 1.68z"/><path d="m20.28 207.37a6.55 6.55 0 0 1 -3.23 1.63 6.6 6.6 0 0 1 1.66-3.22 6.6 6.6 0 0 1 3.22-1.66 6.55 6.55 0 0 1 -1.65 3.25z"/><circle cx="17.05" cy="209.03" r="1.1"/><circle cx="17.05" cy="204.14" r="1.1"/><circle cx="21.94" cy="209.03" r="1.1"/><circle cx="12.17" cy="209.03" r="1.1"/><circle cx="17.05" cy="213.91" r="1.1"/><path d="m161.29 46.2a6.62 6.62 0 0 1 -3.23 1.66 5.91 5.91 0 0 1 4.94-4.86 6.6 6.6 0 0 1 -1.71 3.2z"/><path d="m159.72 41.32a6.55 6.55 0 0 1 -1.65-3.23 5.94 5.94 0 0 1 4.93 4.91 6.62 6.62 0 0 1 -3.28-1.68z"/><path d="m166.18 44.63a6.65 6.65 0 0 1 1.65 3.23 5.94 5.94 0 0 1 -4.83-4.86 6.62 6.62 0 0 1 3.18 1.63z"/><path d="m166.18 41.32a6.62 6.62 0 0 1 -3.18 1.68 5.94 5.94 0 0 1 4.88-4.89 6.65 6.65 0 0 1 -1.7 3.21z"/><circle cx="162.95" cy="42.98" r="1.1"/><circle cx="162.95" cy="38.09" r="1.1"/><circle cx="167.83" cy="42.98" r="1.1"/><circle cx="158.06" cy="42.98" r="1.1"/><circle cx="162.95" cy="47.86" r="1.1"/><path d="m161.29 36.43a6.62 6.62 0 0 1 -3.23 1.66 5.91 5.91 0 0 1 4.94-4.88 6.56 6.56 0 0 1 -1.71 3.22z"/><path d="m159.72 31.55a6.55 6.55 0 0 1 -1.65-3.23 5.94 5.94 0 0 1 4.93 4.89 6.62 6.62 0 0 1 -3.28-1.66z"/><path d="m166.18 34.86a6.65 6.65 0 0 1 1.65 3.23 5.95 5.95 0 0 1 -4.83-4.88 6.65 6.65 0 0 1 3.18 1.65z"/><path d="m166.17 31.55a6.56 6.56 0 0 1 -3.17 1.66 5.94 5.94 0 0 1 4.88-4.89 6.62 6.62 0 0 1 -1.71 3.23z"/><circle cx="162.95" cy="33.21" r="1.1"/><circle cx="162.95" cy="28.32" r="1.1"/><circle cx="167.83" cy="33.21" r="1.1"/><circle cx="158.06" cy="33.21" r="1.1"/><circle cx="162.95" cy="38.09" r="1.1"/><path d="m161.29 65.74a6.55 6.55 0 0 1 -3.23 1.65 5.94 5.94 0 0 1 4.94-4.88 6.62 6.62 0 0 1 -1.71 3.23z"/><path d="m159.72 60.85a6.54 6.54 0 0 1 -1.65-3.22 6.54 6.54 0 0 1 3.22 1.65 6.62 6.62 0 0 1 1.71 3.23 6.62 6.62 0 0 1 -3.28-1.66z"/><path d="m166.18 64.17a6.64 6.64 0 0 1 1.65 3.22 6.5 6.5 0 0 1 -3.22-1.65 6.62 6.62 0 0 1 -1.61-3.23 6.62 6.62 0 0 1 3.18 1.66z"/><path d="m166.18 60.85a6.62 6.62 0 0 1 -3.18 1.66 6.62 6.62 0 0 1 1.66-3.23 6.5 6.5 0 0 1 3.22-1.65 6.64 6.64 0 0 1 -1.7 3.22z"/><circle cx="162.95" cy="62.51" r="1.1"/><circle cx="162.95" cy="57.63" r="1.1"/><circle cx="167.83" cy="62.51" r="1.1"/><circle cx="158.06" cy="62.51" r="1.1"/><circle cx="162.95" cy="67.39" r="1.1"/><path d="m161.29 56a6.62 6.62 0 0 1 -3.23 1.66 5.94 5.94 0 0 1 4.94-4.92 6.62 6.62 0 0 1 -1.71 3.26z"/><path d="m159.72 51.09a6.55 6.55 0 0 1 -1.65-3.23 5.95 5.95 0 0 1 4.93 4.88 6.65 6.65 0 0 1 -3.28-1.65z"/><path d="m166.18 54.4a6.65 6.65 0 0 1 1.65 3.23 5.94 5.94 0 0 1 -4.83-4.89 6.62 6.62 0 0 1 3.18 1.66z"/><path d="m166.17 51.09a6.6 6.6 0 0 1 -3.17 1.65 5.95 5.95 0 0 1 4.88-4.88 6.62 6.62 0 0 1 -1.71 3.23z"/><circle cx="162.95" cy="52.74" r="1.1"/><circle cx="162.95" cy="47.86" r="1.1"/><circle cx="167.83" cy="52.74" r="1.1"/><circle cx="158.06" cy="52.74" r="1.1"/><circle cx="162.95" cy="57.63" r="1.1"/><path d="m161.29 85.27a6.62 6.62 0 0 1 -3.23 1.66 5.91 5.91 0 0 1 4.94-4.88 6.6 6.6 0 0 1 -1.71 3.22z"/><path d="m159.72 80.39a6.55 6.55 0 0 1 -1.65-3.23 5.94 5.94 0 0 1 4.93 4.89 6.62 6.62 0 0 1 -3.28-1.66z"/><path d="m166.18 83.7a6.65 6.65 0 0 1 1.65 3.23 5.95 5.95 0 0 1 -4.83-4.88 6.65 6.65 0 0 1 3.18 1.65z"/><path d="m166.18 80.39a6.62 6.62 0 0 1 -3.18 1.66 5.94 5.94 0 0 1 4.88-4.89 6.65 6.65 0 0 1 -1.7 3.23z"/><circle cx="162.95" cy="82.05" r="1.1"/><circle cx="162.95" cy="77.16" r="1.1"/><circle cx="167.83" cy="82.05" r="1.1"/><circle cx="158.06" cy="82.05" r="1.1"/><circle cx="162.95" cy="86.93" r="1.1"/><path d="m161.29 75.51a6.65 6.65 0 0 1 -3.23 1.65 5.91 5.91 0 0 1 4.94-4.88 6.62 6.62 0 0 1 -1.71 3.23z"/><path d="m159.72 70.62a6.55 6.55 0 0 1 -1.65-3.23 5.94 5.94 0 0 1 4.93 4.89 6.62 6.62 0 0 1 -3.28-1.66z"/><path d="m166.18 73.94a6.6 6.6 0 0 1 1.65 3.22 5.92 5.92 0 0 1 -4.83-4.88 6.62 6.62 0 0 1 3.18 1.66z"/><path d="m166.17 70.62a6.56 6.56 0 0 1 -3.17 1.66 5.94 5.94 0 0 1 4.88-4.89 6.62 6.62 0 0 1 -1.71 3.23z"/><circle cx="162.95" cy="72.28" r="1.1"/><circle cx="162.95" cy="67.39" r="1.1"/><circle cx="167.83" cy="72.28" r="1.1"/><circle cx="158.06" cy="72.28" r="1.1"/><circle cx="162.95" cy="77.16" r="1.1"/><path d="m161.29 104.81a6.55 6.55 0 0 1 -3.23 1.65 5.94 5.94 0 0 1 4.89-4.88 6.62 6.62 0 0 1 -1.66 3.23z"/><path d="m159.72 99.92a6.5 6.5 0 0 1 -1.65-3.22 5.92 5.92 0 0 1 4.88 4.88 6.62 6.62 0 0 1 -3.23-1.66z"/><path d="m166.18 103.24a6.65 6.65 0 0 1 1.65 3.23 5.94 5.94 0 0 1 -4.88-4.89 6.62 6.62 0 0 1 3.23 1.66z"/><path d="m166.18 99.92a6.62 6.62 0 0 1 -3.23 1.66 6.62 6.62 0 0 1 1.66-3.23 6.5 6.5 0 0 1 3.22-1.65 6.6 6.6 0 0 1 -1.65 3.22z"/><circle cx="162.95" cy="101.58" r="1.1"/><circle cx="162.95" cy="96.7" r="1.1"/><circle cx="167.83" cy="101.58" r="1.1"/><circle cx="158.06" cy="101.58" r="1.1"/><circle cx="162.95" cy="106.46" r="1.1"/><path d="m161.29 95a6.62 6.62 0 0 1 -3.23 1.66 5.94 5.94 0 0 1 4.94-4.85 6.62 6.62 0 0 1 -1.71 3.19z"/><path d="m159.72 90.16a6.55 6.55 0 0 1 -1.65-3.23 5.95 5.95 0 0 1 4.93 4.88 6.65 6.65 0 0 1 -3.28-1.65z"/><path d="m166.18 93.47a6.65 6.65 0 0 1 1.65 3.23 5.94 5.94 0 0 1 -4.83-4.89 6.62 6.62 0 0 1 3.18 1.66z"/><path d="m166.17 90.16a6.5 6.5 0 0 1 -3.17 1.65 5.95 5.95 0 0 1 4.88-4.88 6.62 6.62 0 0 1 -1.71 3.23z"/><circle cx="162.95" cy="91.81" r="1.1"/><circle cx="162.95" cy="86.93" r="1.1"/><circle cx="167.83" cy="91.81" r="1.1"/><circle cx="158.06" cy="91.81" r="1.1"/><circle cx="162.95" cy="96.7" r="1.1"/><path d="m161.29 124.34a6.62 6.62 0 0 1 -3.23 1.66 5.91 5.91 0 0 1 4.89-4.88 6.6 6.6 0 0 1 -1.66 3.22z"/><path d="m159.72 119.46a6.55 6.55 0 0 1 -1.65-3.23 5.94 5.94 0 0 1 4.88 4.89 6.62 6.62 0 0 1 -3.23-1.66z"/><path d="m166.18 122.77a6.65 6.65 0 0 1 1.65 3.23 5.95 5.95 0 0 1 -4.88-4.88 6.55 6.55 0 0 1 3.23 1.65z"/><path d="m166.18 119.46a6.62 6.62 0 0 1 -3.23 1.66 5.94 5.94 0 0 1 4.88-4.89 6.65 6.65 0 0 1 -1.65 3.23z"/><circle cx="162.95" cy="121.12" r="1.1"/><circle cx="162.95" cy="116.23" r="1.1"/><circle cx="167.83" cy="121.12" r="1.1"/><circle cx="158.06" cy="121.12" r="1.1"/><circle cx="162.95" cy="126" r="1.1"/><path d="m161.29 114.58a6.65 6.65 0 0 1 -3.23 1.65 5.94 5.94 0 0 1 4.89-4.88 6.62 6.62 0 0 1 -1.66 3.23z"/><path d="m159.72 109.69a6.55 6.55 0 0 1 -1.65-3.23 5.94 5.94 0 0 1 4.88 4.89 6.62 6.62 0 0 1 -3.23-1.66z"/><path d="m166.18 113a6.64 6.64 0 0 1 1.65 3.22 5.92 5.92 0 0 1 -4.88-4.88 6.62 6.62 0 0 1 3.23 1.66z"/><path d="m166.17 109.69a6.56 6.56 0 0 1 -3.22 1.66 5.94 5.94 0 0 1 4.88-4.89 6.62 6.62 0 0 1 -1.66 3.23z"/><circle cx="162.95" cy="111.35" r="1.1"/><circle cx="162.95" cy="106.46" r="1.1"/><circle cx="167.83" cy="111.35" r="1.1"/><circle cx="158.06" cy="111.35" r="1.1"/><circle cx="162.95" cy="116.23" r="1.1"/><path d="m161.29 143.88a6.55 6.55 0 0 1 -3.23 1.65 5.94 5.94 0 0 1 4.89-4.88 6.62 6.62 0 0 1 -1.66 3.23z"/><path d="m159.72 139a6.5 6.5 0 0 1 -1.65-3.22 5.92 5.92 0 0 1 4.88 4.88 6.62 6.62 0 0 1 -3.23-1.66z"/><path d="m166.18 142.31a6.65 6.65 0 0 1 1.65 3.23 5.94 5.94 0 0 1 -4.88-4.89 6.62 6.62 0 0 1 3.23 1.66z"/><path d="m166.18 139a6.65 6.65 0 0 1 -3.23 1.65 5.95 5.95 0 0 1 4.88-4.88 6.65 6.65 0 0 1 -1.65 3.23z"/><path d="m163 139.56a1.1 1.1 0 1 1 -1.1 1.09 1.09 1.09 0 0 1 1.1-1.09z"/><circle cx="162.95" cy="135.77" r="1.1"/><path d="m167.83 139.56a1.1 1.1 0 1 1 -1.09 1.09 1.09 1.09 0 0 1 1.09-1.09z"/><path d="m158.06 139.56a1.1 1.1 0 1 1 -1.09 1.09 1.09 1.09 0 0 1 1.09-1.09z"/><circle cx="162.95" cy="145.54" r="1.1"/><path d="m161.29 134.11a6.62 6.62 0 0 1 -3.23 1.66 5.94 5.94 0 0 1 4.89-4.89 6.62 6.62 0 0 1 -1.66 3.23z"/><path d="m159.72 129.23a6.55 6.55 0 0 1 -1.65-3.23 5.95 5.95 0 0 1 4.88 4.88 6.55 6.55 0 0 1 -3.23-1.65z"/><path d="m166.18 132.54a6.65 6.65 0 0 1 1.65 3.23 5.95 5.95 0 0 1 -4.88-4.88 6.55 6.55 0 0 1 3.23 1.65z"/><path d="m166.17 129.23a6.5 6.5 0 0 1 -3.22 1.65 5.95 5.95 0 0 1 4.88-4.88 6.62 6.62 0 0 1 -1.66 3.23z"/><circle cx="162.95" cy="130.88" r="1.1"/><circle cx="162.95" cy="126" r="1.1"/><circle cx="167.83" cy="130.88" r="1.1"/><circle cx="158.06" cy="130.88" r="1.1"/><circle cx="162.95" cy="135.77" r="1.1"/><path d="m161.29 163.41a6.62 6.62 0 0 1 -3.23 1.66 5.94 5.94 0 0 1 4.89-4.88 6.56 6.56 0 0 1 -1.66 3.22z"/><path d="m159.72 158.53a6.55 6.55 0 0 1 -1.65-3.23 5.94 5.94 0 0 1 4.88 4.89 6.62 6.62 0 0 1 -3.23-1.66z"/><path d="m166.18 161.85a6.6 6.6 0 0 1 1.65 3.22 5.95 5.95 0 0 1 -4.88-4.88 6.62 6.62 0 0 1 3.23 1.66z"/><path d="m166.18 158.53a6.62 6.62 0 0 1 -3.23 1.66 5.94 5.94 0 0 1 4.88-4.89 6.65 6.65 0 0 1 -1.65 3.23z"/><circle cx="162.95" cy="160.19" r="1.1"/><circle cx="162.95" cy="155.3" r="1.1"/><circle cx="167.83" cy="160.19" r="1.1"/><circle cx="158.06" cy="160.19" r="1.1"/><circle cx="162.95" cy="165.07" r="1.1"/><path d="m161.29 153.65a6.65 6.65 0 0 1 -3.23 1.65 5.94 5.94 0 0 1 4.89-4.88 6.62 6.62 0 0 1 -1.66 3.23z"/><path d="m159.72 148.76a6.54 6.54 0 0 1 -1.65-3.22 6.54 6.54 0 0 1 3.22 1.65 6.62 6.62 0 0 1 1.66 3.23 6.62 6.62 0 0 1 -3.23-1.66z"/><path d="m166.18 152.08a6.64 6.64 0 0 1 1.65 3.22 5.92 5.92 0 0 1 -4.88-4.88 6.62 6.62 0 0 1 3.23 1.66z"/><path d="m166.17 148.76a6.56 6.56 0 0 1 -3.22 1.66 6.62 6.62 0 0 1 1.66-3.23 6.5 6.5 0 0 1 3.22-1.65 6.6 6.6 0 0 1 -1.66 3.22z"/><circle cx="162.95" cy="150.42" r="1.1"/><circle cx="162.95" cy="145.54" r="1.1"/><circle cx="167.83" cy="150.42" r="1.1"/><circle cx="158.06" cy="150.42" r="1.1"/><circle cx="162.95" cy="155.3" r="1.1"/><path d="m161.29 183a6.62 6.62 0 0 1 -3.23 1.66 5.94 5.94 0 0 1 4.89-4.89 6.62 6.62 0 0 1 -1.66 3.23z"/><path d="m159.72 178.07a6.55 6.55 0 0 1 -1.65-3.23 5.92 5.92 0 0 1 4.88 4.88 6.65 6.65 0 0 1 -3.23-1.65z"/><path d="m166.18 181.38a6.65 6.65 0 0 1 1.65 3.23 5.94 5.94 0 0 1 -4.88-4.89 6.62 6.62 0 0 1 3.23 1.66z"/><path d="m166.18 178.07a6.65 6.65 0 0 1 -3.23 1.65 5.92 5.92 0 0 1 4.88-4.88 6.65 6.65 0 0 1 -1.65 3.23z"/><circle cx="162.95" cy="179.72" r="1.1"/><circle cx="162.95" cy="174.84" r="1.1"/><circle cx="167.83" cy="179.72" r="1.1"/><circle cx="158.06" cy="179.72" r="1.1"/><circle cx="162.95" cy="184.61" r="1.1"/><path d="m161.29 173.18a6.62 6.62 0 0 1 -3.23 1.66 5.94 5.94 0 0 1 4.94-4.84 6.62 6.62 0 0 1 -1.71 3.18z"/><path d="m159.72 168.3a6.55 6.55 0 0 1 -1.65-3.23 5.95 5.95 0 0 1 4.93 4.93 6.55 6.55 0 0 1 -3.28-1.7z"/><path d="m166.18 171.61a6.65 6.65 0 0 1 1.65 3.23 5.95 5.95 0 0 1 -4.83-4.84 6.55 6.55 0 0 1 3.18 1.61z"/><path d="m166.17 168.3a6.5 6.5 0 0 1 -3.17 1.7 5.95 5.95 0 0 1 4.88-4.88 6.62 6.62 0 0 1 -1.71 3.18z"/><circle cx="162.95" cy="169.96" r="1.1"/><circle cx="162.95" cy="165.07" r="1.1"/><circle cx="167.83" cy="169.96" r="1.1"/><circle cx="158.06" cy="169.96" r="1.1"/><circle cx="162.95" cy="174.84" r="1.1"/><path d="m161.29 202.48a6.62 6.62 0 0 1 -3.23 1.66 5.91 5.91 0 0 1 4.89-4.88 6.56 6.56 0 0 1 -1.66 3.22z"/><path d="m159.72 197.6a6.55 6.55 0 0 1 -1.65-3.23 5.94 5.94 0 0 1 4.88 4.89 6.62 6.62 0 0 1 -3.23-1.66z"/><path d="m166.18 200.91a6.65 6.65 0 0 1 1.65 3.23 5.95 5.95 0 0 1 -4.88-4.88 6.65 6.65 0 0 1 3.23 1.65z"/><path d="m166.18 197.6a6.62 6.62 0 0 1 -3.23 1.66 5.94 5.94 0 0 1 4.88-4.89 6.65 6.65 0 0 1 -1.65 3.23z"/><circle cx="162.95" cy="199.26" r="1.1"/><circle cx="162.95" cy="194.38" r="1.1"/><circle cx="167.83" cy="199.26" r="1.1"/><circle cx="158.06" cy="199.26" r="1.1"/><circle cx="162.95" cy="204.14" r="1.1"/><path d="m161.29 192.72a6.55 6.55 0 0 1 -3.23 1.65 5.94 5.94 0 0 1 4.89-4.88 6.62 6.62 0 0 1 -1.66 3.23z"/><path d="m159.72 187.83a6.54 6.54 0 0 1 -1.65-3.22 5.92 5.92 0 0 1 4.88 4.88 6.62 6.62 0 0 1 -3.23-1.66z"/><path d="m166.18 191.15a6.65 6.65 0 0 1 1.65 3.23 5.94 5.94 0 0 1 -4.88-4.89 6.62 6.62 0 0 1 3.23 1.66z"/><path d="m166.17 187.83a6.56 6.56 0 0 1 -3.22 1.66 6.62 6.62 0 0 1 1.66-3.23 6.5 6.5 0 0 1 3.22-1.65 6.6 6.6 0 0 1 -1.66 3.22z"/><circle cx="162.95" cy="189.49" r="1.1"/><circle cx="162.95" cy="184.61" r="1.1"/><circle cx="167.83" cy="189.49" r="1.1"/><circle cx="158.06" cy="189.49" r="1.1"/><circle cx="162.95" cy="194.38" r="1.1"/><path d="m161.29 222a6.62 6.62 0 0 1 -3.23 1.66 5.94 5.94 0 0 1 4.89-4.89 6.62 6.62 0 0 1 -1.66 3.23z"/><path d="m159.72 217.14a6.55 6.55 0 0 1 -1.65-3.23 5.95 5.95 0 0 1 4.88 4.88 6.65 6.65 0 0 1 -3.23-1.65z"/><path d="m166.18 220.45a6.65 6.65 0 0 1 1.65 3.23 5.94 5.94 0 0 1 -4.88-4.89 6.62 6.62 0 0 1 3.23 1.66z"/><path d="m166.18 217.14a6.65 6.65 0 0 1 -3.23 1.65 5.95 5.95 0 0 1 4.88-4.88 6.65 6.65 0 0 1 -1.65 3.23z"/><circle cx="162.95" cy="218.79" r="1.1"/><circle cx="162.95" cy="213.91" r="1.1"/><circle cx="167.83" cy="218.79" r="1.1"/><circle cx="158.06" cy="218.79" r="1.1"/><circle cx="162.95" cy="223.68" r="1.1"/><path d="m161.29 212.25a6.62 6.62 0 0 1 -3.23 1.66 5.94 5.94 0 0 1 4.94-4.91 6.62 6.62 0 0 1 -1.71 3.25z"/><path d="m159.72 207.37a6.55 6.55 0 0 1 -1.65-3.23 5.94 5.94 0 0 1 4.93 4.86 6.62 6.62 0 0 1 -3.28-1.63z"/><path d="m166.18 210.68a6.65 6.65 0 0 1 1.65 3.23 5.94 5.94 0 0 1 -4.83-4.91 6.72 6.72 0 0 1 3.18 1.68z"/><path d="m166.17 207.37a6.5 6.5 0 0 1 -3.17 1.63 5.95 5.95 0 0 1 4.88-4.88 6.62 6.62 0 0 1 -1.71 3.25z"/><circle cx="162.95" cy="209.03" r="1.1"/><circle cx="162.95" cy="204.14" r="1.1"/><circle cx="167.83" cy="209.03" r="1.1"/><circle cx="158.06" cy="209.03" r="1.1"/><circle cx="162.95" cy="213.91" r="1.1"/><path d="m135.61 233a6.62 6.62 0 0 1 -1.66-3.23 5.94 5.94 0 0 1 4.89 4.88 6.55 6.55 0 0 1 -3.23-1.65z"/><path d="m140.49 231.42a6.62 6.62 0 0 1 3.23-1.66 5.94 5.94 0 0 1 -4.88 4.89 6.65 6.65 0 0 1 1.65-3.23z"/><path d="m137.18 237.87a6.62 6.62 0 0 1 -3.23 1.66 5.94 5.94 0 0 1 4.89-4.89 6.62 6.62 0 0 1 -1.66 3.23z"/><path d="m140.49 237.87a6.65 6.65 0 0 1 -1.65-3.23 5.94 5.94 0 0 1 4.88 4.89 6.62 6.62 0 0 1 -3.23-1.66z"/><circle cx="138.84" cy="234.64" r="1.1"/><circle cx="143.72" cy="234.64" r="1.1"/><circle cx="138.84" cy="239.53" r="1.1"/><circle cx="138.84" cy="229.76" r="1.1"/><circle cx="133.95" cy="234.64" r="1.1"/><path d="m145.38 233a6.62 6.62 0 0 1 -1.66-3.23 5.94 5.94 0 0 1 4.89 4.88 6.55 6.55 0 0 1 -3.23-1.65z"/><path d="m150.26 231.42a6.62 6.62 0 0 1 3.23-1.66 5.94 5.94 0 0 1 -4.88 4.89 6.55 6.55 0 0 1 1.65-3.23z"/><path d="m147 237.87a6.62 6.62 0 0 1 -3.23 1.66 5.94 5.94 0 0 1 4.88-4.89 6.55 6.55 0 0 1 -1.65 3.23z"/><path d="m150.26 237.87a6.55 6.55 0 0 1 -1.65-3.23 5.94 5.94 0 0 1 4.88 4.89 6.62 6.62 0 0 1 -3.23-1.66z"/><circle cx="148.61" cy="234.64" r="1.1"/><circle cx="153.49" cy="234.64" r="1.1"/><circle cx="148.61" cy="239.53" r="1.1"/><circle cx="148.61" cy="229.76" r="1.1"/><circle cx="143.72" cy="234.64" r="1.1"/><path d="m116.08 233a6.62 6.62 0 0 1 -1.66-3.23 5.92 5.92 0 0 1 4.88 4.88 6.54 6.54 0 0 1 -3.22-1.65z"/><path d="m121 231.42a6.62 6.62 0 0 1 3.23-1.66 5.94 5.94 0 0 1 -4.89 4.89 6.62 6.62 0 0 1 1.66-3.23z"/><path d="m117.64 237.87a6.56 6.56 0 0 1 -3.22 1.66 5.91 5.91 0 0 1 4.88-4.89 6.62 6.62 0 0 1 -1.66 3.23z"/><path d="m121 237.87a6.62 6.62 0 0 1 -1.66-3.23 5.94 5.94 0 0 1 4.89 4.89 6.62 6.62 0 0 1 -3.23-1.66z"/><circle cx="119.3" cy="234.64" r="1.1"/><circle cx="124.19" cy="234.64" r="1.1"/><circle cx="119.3" cy="239.53" r="1.1"/><circle cx="119.3" cy="229.76" r="1.1"/><circle cx="114.42" cy="234.64" r="1.1"/><path d="m125.84 233a6.55 6.55 0 0 1 -1.65-3.23 5.95 5.95 0 0 1 4.88 4.88 6.55 6.55 0 0 1 -3.23-1.65z"/><path d="m130.73 231.42a6.6 6.6 0 0 1 3.22-1.66 5.91 5.91 0 0 1 -4.88 4.89 6.62 6.62 0 0 1 1.66-3.23z"/><path d="m127.41 237.87a6.62 6.62 0 0 1 -3.23 1.66 5.94 5.94 0 0 1 4.89-4.89 6.62 6.62 0 0 1 -1.66 3.23z"/><path d="m130.73 237.87a6.62 6.62 0 0 1 -1.66-3.23 5.91 5.91 0 0 1 4.88 4.89 6.6 6.6 0 0 1 -3.22-1.66z"/><circle cx="129.07" cy="234.64" r="1.1"/><circle cx="133.95" cy="234.64" r="1.1"/><circle cx="129.07" cy="239.53" r="1.1"/><circle cx="129.07" cy="229.76" r="1.1"/><circle cx="124.19" cy="234.64" r="1.1"/><path d="m96.54 233a6.62 6.62 0 0 1 -1.66-3.23 5.94 5.94 0 0 1 4.89 4.88 6.55 6.55 0 0 1 -3.23-1.65z"/><path d="m101.42 231.42a6.62 6.62 0 0 1 3.23-1.66 5.94 5.94 0 0 1 -4.88 4.89 6.65 6.65 0 0 1 1.65-3.23z"/><path d="m98.11 237.87a6.62 6.62 0 0 1 -3.23 1.66 5.94 5.94 0 0 1 4.89-4.89 6.62 6.62 0 0 1 -1.66 3.23z"/><path d="m101.42 237.87a6.65 6.65 0 0 1 -1.65-3.23 5.94 5.94 0 0 1 4.88 4.89 6.62 6.62 0 0 1 -3.23-1.66z"/><circle cx="99.77" cy="234.64" r="1.1"/><circle cx="104.65" cy="234.64" r="1.1"/><circle cx="99.77" cy="239.53" r="1.1"/><circle cx="99.77" cy="229.76" r="1.1"/><circle cx="94.88" cy="234.64" r="1.1"/><path d="m106.31 233a6.62 6.62 0 0 1 -1.66-3.23 5.94 5.94 0 0 1 4.89 4.88 6.55 6.55 0 0 1 -3.23-1.65z"/><path d="m111.19 231.42a6.62 6.62 0 0 1 3.23-1.66 5.94 5.94 0 0 1 -4.89 4.89 6.62 6.62 0 0 1 1.66-3.23z"/><path d="m107.88 237.87a6.62 6.62 0 0 1 -3.23 1.66 5.94 5.94 0 0 1 4.88-4.89 6.55 6.55 0 0 1 -1.65 3.23z"/><path d="m111.19 237.87a6.62 6.62 0 0 1 -1.66-3.23 5.94 5.94 0 0 1 4.89 4.89 6.62 6.62 0 0 1 -3.23-1.66z"/><circle cx="109.53" cy="234.64" r="1.1"/><circle cx="114.42" cy="234.64" r="1.1"/><circle cx="109.53" cy="239.53" r="1.1"/><circle cx="109.53" cy="229.76" r="1.1"/><circle cx="104.65" cy="234.64" r="1.1"/><path d="m77 233a6.62 6.62 0 0 1 -1.66-3.23 5.95 5.95 0 0 1 4.88 4.88 6.5 6.5 0 0 1 -3.22-1.65z"/><path d="m81.89 231.42a6.62 6.62 0 0 1 3.23-1.66 5.94 5.94 0 0 1 -4.89 4.89 6.62 6.62 0 0 1 1.66-3.23z"/><path d="m78.57 237.87a6.56 6.56 0 0 1 -3.22 1.66 5.91 5.91 0 0 1 4.88-4.89 6.62 6.62 0 0 1 -1.66 3.23z"/><path d="m81.89 237.87a6.62 6.62 0 0 1 -1.66-3.23 5.94 5.94 0 0 1 4.89 4.89 6.62 6.62 0 0 1 -3.23-1.66z"/><circle cx="80.23" cy="234.64" r="1.1"/><circle cx="85.12" cy="234.64" r="1.1"/><circle cx="80.23" cy="239.53" r="1.1"/><circle cx="80.23" cy="229.76" r="1.1"/><circle cx="75.35" cy="234.64" r="1.1"/><path d="m86.77 233a6.55 6.55 0 0 1 -1.65-3.23 5.95 5.95 0 0 1 4.88 4.87 6.55 6.55 0 0 1 -3.23-1.64z"/><path d="m91.66 231.42a6.6 6.6 0 0 1 3.22-1.66 5.91 5.91 0 0 1 -4.88 4.89 6.62 6.62 0 0 1 1.66-3.23z"/><path d="m88.34 237.87a6.6 6.6 0 0 1 -3.22 1.66 5.91 5.91 0 0 1 4.88-4.89 6.62 6.62 0 0 1 -1.66 3.23z"/><path d="m91.66 237.87a6.62 6.62 0 0 1 -1.66-3.23 5.91 5.91 0 0 1 4.88 4.89 6.6 6.6 0 0 1 -3.22-1.66z"/><circle cx="90" cy="234.64" r="1.1"/><circle cx="94.88" cy="234.64" r="1.1"/><circle cx="90" cy="239.53" r="1.1"/><circle cx="90" cy="229.76" r="1.1"/><circle cx="85.12" cy="234.64" r="1.1"/><path d="m57.47 233a6.62 6.62 0 0 1 -1.66-3.23 5.94 5.94 0 0 1 4.89 4.88 6.55 6.55 0 0 1 -3.23-1.65z"/><path d="m62.35 231.42a6.62 6.62 0 0 1 3.23-1.66 5.94 5.94 0 0 1 -4.88 4.89 6.55 6.55 0 0 1 1.65-3.23z"/><path d="m59 237.87a6.62 6.62 0 0 1 -3.23 1.66 5.94 5.94 0 0 1 4.89-4.89 6.62 6.62 0 0 1 -1.66 3.23z"/><path d="m62.35 237.87a6.55 6.55 0 0 1 -1.65-3.23 5.94 5.94 0 0 1 4.88 4.89 6.62 6.62 0 0 1 -3.23-1.66z"/><circle cx="60.7" cy="234.64" r="1.1"/><circle cx="65.58" cy="234.64" r="1.1"/><circle cx="60.7" cy="239.53" r="1.1"/><circle cx="60.7" cy="229.76" r="1.1"/><circle cx="55.81" cy="234.64" r="1.1"/><path d="m67.24 233a6.62 6.62 0 0 1 -1.66-3.23 6.62 6.62 0 0 1 3.23 1.66 6.54 6.54 0 0 1 1.65 3.22 6.54 6.54 0 0 1 -3.22-1.65z"/><path d="m72.12 231.42a6.62 6.62 0 0 1 3.23-1.66 5.94 5.94 0 0 1 -4.89 4.89 6.62 6.62 0 0 1 1.66-3.23z"/><path d="m68.81 237.87a6.62 6.62 0 0 1 -3.23 1.66 5.94 5.94 0 0 1 4.88-4.89 6.65 6.65 0 0 1 -1.65 3.23z"/><path d="m72.12 237.87a6.62 6.62 0 0 1 -1.66-3.23 5.94 5.94 0 0 1 4.89 4.89 6.62 6.62 0 0 1 -3.23-1.66z"/><circle cx="70.46" cy="234.64" r="1.1"/><circle cx="75.35" cy="234.64" r="1.1"/><circle cx="70.46" cy="239.53" r="1.1"/><circle cx="70.46" cy="229.76" r="1.1"/><circle cx="65.58" cy="234.64" r="1.1"/><path d="m37.93 233a6.65 6.65 0 0 1 -1.65-3.23 5.95 5.95 0 0 1 4.88 4.88 6.55 6.55 0 0 1 -3.23-1.65z"/><path d="m42.82 231.42a6.6 6.6 0 0 1 3.18-1.66 5.91 5.91 0 0 1 -4.88 4.89 6.62 6.62 0 0 1 1.7-3.23z"/><path d="m39.5 237.87a6.6 6.6 0 0 1 -3.22 1.66 5.91 5.91 0 0 1 4.88-4.89 6.62 6.62 0 0 1 -1.66 3.23z"/><path d="m42.82 237.87a6.62 6.62 0 0 1 -1.66-3.23 5.91 5.91 0 0 1 4.84 4.89 6.6 6.6 0 0 1 -3.18-1.66z"/><circle cx="41.16" cy="234.64" r="1.1"/><circle cx="46.05" cy="234.64" r="1.1"/><circle cx="41.16" cy="239.53" r="1.1"/><circle cx="41.16" cy="229.76" r="1.1"/><circle cx="36.28" cy="234.64" r="1.1"/><path d="m47.7 233a6.62 6.62 0 0 1 -1.7-3.24 5.94 5.94 0 0 1 4.89 4.88 6.55 6.55 0 0 1 -3.19-1.64z"/><path d="m52.59 231.42a6.6 6.6 0 0 1 3.22-1.66 5.91 5.91 0 0 1 -4.88 4.89 6.62 6.62 0 0 1 1.66-3.23z"/><path d="m49.27 237.87a6.62 6.62 0 0 1 -3.27 1.66 5.94 5.94 0 0 1 4.89-4.89 6.62 6.62 0 0 1 -1.62 3.23z"/><path d="m52.59 237.87a6.62 6.62 0 0 1 -1.66-3.23 5.91 5.91 0 0 1 4.88 4.89 6.6 6.6 0 0 1 -3.22-1.66z"/><circle cx="50.93" cy="234.64" r="1.1"/><circle cx="55.81" cy="234.64" r="1.1"/><circle cx="50.93" cy="239.53" r="1.1"/><circle cx="50.93" cy="229.76" r="1.1"/><circle cx="46.05" cy="234.64" r="1.1"/><path d="m28.17 233a6.62 6.62 0 0 1 -1.66-3.23 6.62 6.62 0 0 1 3.23 1.66 6.5 6.5 0 0 1 1.65 3.22 6.54 6.54 0 0 1 -3.22-1.65z"/><path d="m33.05 231.42a6.62 6.62 0 0 1 3.23-1.66 6.62 6.62 0 0 1 -1.66 3.24 6.62 6.62 0 0 1 -3.23 1.66 6.62 6.62 0 0 1 1.66-3.24z"/><path d="m29.74 237.87a6.62 6.62 0 0 1 -3.23 1.66 5.94 5.94 0 0 1 4.88-4.89 6.65 6.65 0 0 1 -1.65 3.23z"/><path d="m33.05 237.87a6.62 6.62 0 0 1 -1.66-3.23 6.62 6.62 0 0 1 3.23 1.66 6.62 6.62 0 0 1 1.66 3.23 6.62 6.62 0 0 1 -3.23-1.66z"/><circle cx="31.39" cy="234.64" r="1.1"/><circle cx="36.28" cy="234.64" r="1.1"/><circle cx="31.39" cy="239.53" r="1.1"/><circle cx="31.39" cy="229.76" r="1.1"/><circle cx="26.51" cy="234.64" r="1.1"/><path d="m135.61 15.7a6.62 6.62 0 0 1 -1.61-3.23 6.62 6.62 0 0 1 3.23 1.66 6.62 6.62 0 0 1 1.66 3.23 6.62 6.62 0 0 1 -3.28-1.66z"/><path d="m140.49 14.13a6.62 6.62 0 0 1 3.23-1.66 6.62 6.62 0 0 1 -1.66 3.23 6.56 6.56 0 0 1 -3.22 1.66 6.65 6.65 0 0 1 1.65-3.23z"/><path d="m137.18 20.58a6.62 6.62 0 0 1 -3.18 1.66 6.62 6.62 0 0 1 1.61-3.24 6.55 6.55 0 0 1 3.23-1.65 6.56 6.56 0 0 1 -1.66 3.23z"/><path d="m140.49 20.58a6.6 6.6 0 0 1 -1.65-3.22 6.6 6.6 0 0 1 3.22 1.64 6.62 6.62 0 0 1 1.66 3.23 6.62 6.62 0 0 1 -3.23-1.65z"/><circle cx="138.84" cy="17.36" r="1.1"/><circle cx="143.72" cy="17.36" r="1.1"/><circle cx="138.84" cy="22.24" r="1.1"/><circle cx="138.84" cy="12.47" r="1.1"/><circle cx="133.95" cy="17.36" r="1.1"/><path d="m145.38 15.7a6.62 6.62 0 0 1 -1.66-3.23 6.62 6.62 0 0 1 3.28 1.66 6.62 6.62 0 0 1 1.66 3.23 6.62 6.62 0 0 1 -3.28-1.66z"/><path d="m150.26 14.13a6.62 6.62 0 0 1 3.23-1.66 6.62 6.62 0 0 1 -1.66 3.23 6.6 6.6 0 0 1 -3.22 1.66 6.55 6.55 0 0 1 1.65-3.23z"/><path d="m147 20.58a6.62 6.62 0 0 1 -3.23 1.66 6.62 6.62 0 0 1 1.61-3.24 6.54 6.54 0 0 1 3.22-1.65 6.5 6.5 0 0 1 -1.6 3.23z"/><path d="m150.26 20.58a6.5 6.5 0 0 1 -1.65-3.22 6.64 6.64 0 0 1 3.22 1.64 6.62 6.62 0 0 1 1.66 3.23 6.62 6.62 0 0 1 -3.23-1.65z"/><circle cx="148.61" cy="17.36" r="1.1"/><circle cx="153.49" cy="17.36" r="1.1"/><circle cx="148.61" cy="22.24" r="1.1"/><circle cx="148.61" cy="12.47" r="1.1"/><circle cx="143.72" cy="17.36" r="1.1"/><path d="m116.08 15.7a6.62 6.62 0 0 1 -1.66-3.23 6.62 6.62 0 0 1 3.23 1.66 6.65 6.65 0 0 1 1.65 3.23 6.6 6.6 0 0 1 -3.22-1.66z"/><path d="m121 14.13a6.62 6.62 0 0 1 3.23-1.66 6.62 6.62 0 0 1 -1.66 3.23 6.62 6.62 0 0 1 -3.23 1.66 6.62 6.62 0 0 1 1.66-3.23z"/><path d="m117.64 20.58a6.56 6.56 0 0 1 -3.22 1.66 6.65 6.65 0 0 1 1.65-3.24 6.55 6.55 0 0 1 3.23-1.65 6.56 6.56 0 0 1 -1.66 3.23z"/><path d="m121 20.58a6.56 6.56 0 0 1 -1.66-3.22 6.65 6.65 0 0 1 3.19 1.64 6.62 6.62 0 0 1 1.66 3.23 6.62 6.62 0 0 1 -3.19-1.65z"/><circle cx="119.3" cy="17.36" r="1.1"/><circle cx="124.19" cy="17.36" r="1.1"/><circle cx="119.3" cy="22.24" r="1.1"/><circle cx="119.3" cy="12.47" r="1.1"/><circle cx="114.42" cy="17.36" r="1.1"/><path d="m125.84 15.7a6.55 6.55 0 0 1 -1.65-3.23 6.6 6.6 0 0 1 3.22 1.66 6.62 6.62 0 0 1 1.66 3.23 6.62 6.62 0 0 1 -3.23-1.66z"/><path d="m130.73 14.13a6.6 6.6 0 0 1 3.27-1.66 6.55 6.55 0 0 1 -1.65 3.23 6.62 6.62 0 0 1 -3.23 1.66 6.62 6.62 0 0 1 1.61-3.23z"/><path d="m127.41 20.58a6.62 6.62 0 0 1 -3.23 1.66 6.62 6.62 0 0 1 1.66-3.24 6.55 6.55 0 0 1 3.23-1.65 6.56 6.56 0 0 1 -1.66 3.23z"/><path d="m130.73 20.58a6.56 6.56 0 0 1 -1.66-3.22 6.65 6.65 0 0 1 3.23 1.64 6.55 6.55 0 0 1 1.7 3.24 6.6 6.6 0 0 1 -3.27-1.66z"/><circle cx="129.07" cy="17.36" r="1.1"/><circle cx="133.95" cy="17.36" r="1.1"/><circle cx="129.07" cy="22.24" r="1.1"/><circle cx="129.07" cy="12.47" r="1.1"/><circle cx="124.19" cy="17.36" r="1.1"/><path d="m96.54 15.7a6.62 6.62 0 0 1 -1.66-3.23 6.62 6.62 0 0 1 3.23 1.66 6.62 6.62 0 0 1 1.66 3.23 6.62 6.62 0 0 1 -3.23-1.66z"/><path d="m101.42 14.13a6.62 6.62 0 0 1 3.23-1.66 6.62 6.62 0 0 1 -1.65 3.23 6.6 6.6 0 0 1 -3.22 1.66 6.65 6.65 0 0 1 1.64-3.23z"/><path d="m98.11 20.58a6.62 6.62 0 0 1 -3.23 1.66 6.62 6.62 0 0 1 1.66-3.24 6.55 6.55 0 0 1 3.23-1.65 6.56 6.56 0 0 1 -1.66 3.23z"/><path d="m101.42 20.58a6.6 6.6 0 0 1 -1.65-3.22 6.6 6.6 0 0 1 3.23 1.64 6.62 6.62 0 0 1 1.66 3.23 6.62 6.62 0 0 1 -3.24-1.65z"/><circle cx="99.77" cy="17.36" r="1.1"/><circle cx="104.65" cy="17.36" r="1.1"/><circle cx="99.77" cy="22.24" r="1.1"/><circle cx="99.77" cy="12.47" r="1.1"/><circle cx="94.88" cy="17.36" r="1.1"/><path d="m106.31 15.7a6.62 6.62 0 0 1 -1.66-3.23 6.62 6.62 0 0 1 3.23 1.66 6.62 6.62 0 0 1 1.66 3.23 6.62 6.62 0 0 1 -3.23-1.66z"/><path d="m111.19 14.13a6.62 6.62 0 0 1 3.23-1.66 6.62 6.62 0 0 1 -1.66 3.23 6.62 6.62 0 0 1 -3.23 1.66 6.62 6.62 0 0 1 1.66-3.23z"/><path d="m107.88 20.58a6.62 6.62 0 0 1 -3.23 1.66 6.62 6.62 0 0 1 1.66-3.24 6.54 6.54 0 0 1 3.22-1.65 6.5 6.5 0 0 1 -1.65 3.23z"/><path d="m111.19 20.58a6.56 6.56 0 0 1 -1.66-3.22 6.65 6.65 0 0 1 3.23 1.64 6.62 6.62 0 0 1 1.66 3.23 6.62 6.62 0 0 1 -3.23-1.65z"/><circle cx="109.53" cy="17.36" r="1.1"/><circle cx="114.42" cy="17.36" r="1.1"/><circle cx="109.53" cy="22.24" r="1.1"/><circle cx="109.53" cy="12.47" r="1.1"/><circle cx="104.65" cy="17.36" r="1.1"/><path d="m77 15.7a6.62 6.62 0 0 1 -1.66-3.23 6.56 6.56 0 0 1 3.22 1.66 6.62 6.62 0 0 1 1.66 3.23 6.56 6.56 0 0 1 -3.22-1.66z"/><path d="m81.89 14.13a6.62 6.62 0 0 1 3.23-1.66 6.62 6.62 0 0 1 -1.66 3.23 6.62 6.62 0 0 1 -3.23 1.66 6.62 6.62 0 0 1 1.66-3.23z"/><path d="m78.57 20.58a6.56 6.56 0 0 1 -3.22 1.66 6.65 6.65 0 0 1 1.65-3.24 6.55 6.55 0 0 1 3.23-1.65 6.56 6.56 0 0 1 -1.66 3.23z"/><path d="m81.89 20.58a6.56 6.56 0 0 1 -1.66-3.22 6.65 6.65 0 0 1 3.23 1.64 6.62 6.62 0 0 1 1.66 3.23 6.62 6.62 0 0 1 -3.23-1.65z"/><circle cx="80.23" cy="17.36" r="1.1"/><circle cx="85.12" cy="17.36" r="1.1"/><circle cx="80.23" cy="22.24" r="1.1"/><circle cx="80.23" cy="12.47" r="1.1"/><circle cx="75.35" cy="17.36" r="1.1"/><path d="m86.77 15.7a6.55 6.55 0 0 1 -1.65-3.23 6.6 6.6 0 0 1 3.22 1.66 6.62 6.62 0 0 1 1.66 3.23 6.62 6.62 0 0 1 -3.23-1.66z"/><path d="m91.66 14.13a6.6 6.6 0 0 1 3.22-1.66 6.65 6.65 0 0 1 -1.65 3.23 6.62 6.62 0 0 1 -3.23 1.66 6.62 6.62 0 0 1 1.66-3.23z"/><path d="m88.34 20.58a6.6 6.6 0 0 1 -3.22 1.66 6.55 6.55 0 0 1 1.65-3.24 6.55 6.55 0 0 1 3.23-1.64 6.56 6.56 0 0 1 -1.66 3.22z"/><path d="m91.66 20.58a6.56 6.56 0 0 1 -1.66-3.22 6.65 6.65 0 0 1 3.23 1.64 6.65 6.65 0 0 1 1.65 3.23 6.6 6.6 0 0 1 -3.22-1.65z"/><circle cx="90" cy="17.36" r="1.1"/><circle cx="94.88" cy="17.36" r="1.1"/><circle cx="90" cy="22.24" r="1.1"/><circle cx="90" cy="12.47" r="1.1"/><circle cx="85.12" cy="17.36" r="1.1"/><path d="m57.47 15.7a6.62 6.62 0 0 1 -1.66-3.23 6.62 6.62 0 0 1 3.19 1.66 6.62 6.62 0 0 1 1.66 3.23 6.62 6.62 0 0 1 -3.19-1.66z"/><path d="m62.35 14.13a6.62 6.62 0 0 1 3.23-1.66 6.62 6.62 0 0 1 -1.66 3.23 6.6 6.6 0 0 1 -3.22 1.66 6.55 6.55 0 0 1 1.65-3.23z"/><path d="m59 20.58a6.62 6.62 0 0 1 -3.23 1.66 6.62 6.62 0 0 1 1.7-3.24 6.55 6.55 0 0 1 3.23-1.65 6.56 6.56 0 0 1 -1.7 3.23z"/><path d="m62.35 20.58a6.5 6.5 0 0 1 -1.65-3.22 6.64 6.64 0 0 1 3.22 1.64 6.62 6.62 0 0 1 1.66 3.23 6.62 6.62 0 0 1 -3.23-1.65z"/><circle cx="60.7" cy="17.36" r="1.1"/><circle cx="65.58" cy="17.36" r="1.1"/><circle cx="60.7" cy="22.24" r="1.1"/><circle cx="60.7" cy="12.47" r="1.1"/><circle cx="55.81" cy="17.36" r="1.1"/><path d="m67.24 15.7a6.62 6.62 0 0 1 -1.66-3.23 6.62 6.62 0 0 1 3.23 1.66 6.55 6.55 0 0 1 1.65 3.23 6.6 6.6 0 0 1 -3.22-1.66z"/><path d="m72.12 14.13a6.62 6.62 0 0 1 3.23-1.66 6.62 6.62 0 0 1 -1.66 3.23 6.62 6.62 0 0 1 -3.23 1.66 6.62 6.62 0 0 1 1.66-3.23z"/><path d="m68.81 20.58a6.62 6.62 0 0 1 -3.23 1.66 6.62 6.62 0 0 1 1.66-3.24 6.54 6.54 0 0 1 3.22-1.65 6.6 6.6 0 0 1 -1.65 3.23z"/><path d="m72.12 20.58a6.56 6.56 0 0 1 -1.66-3.22 6.65 6.65 0 0 1 3.23 1.64 6.62 6.62 0 0 1 1.66 3.23 6.62 6.62 0 0 1 -3.23-1.65z"/><circle cx="70.46" cy="17.36" r="1.1"/><circle cx="75.35" cy="17.36" r="1.1"/><circle cx="70.46" cy="22.24" r="1.1"/><circle cx="70.46" cy="12.47" r="1.1"/><circle cx="65.58" cy="17.36" r="1.1"/><path d="m37.93 15.7a6.65 6.65 0 0 1 -1.65-3.23 6.56 6.56 0 0 1 3.22 1.66 6.62 6.62 0 0 1 1.66 3.23 6.62 6.62 0 0 1 -3.23-1.66z"/><path d="m42.82 14.13a6.6 6.6 0 0 1 3.18-1.66 6.55 6.55 0 0 1 -1.65 3.23 6.62 6.62 0 0 1 -3.23 1.66 6.62 6.62 0 0 1 1.7-3.23z"/><path d="m39.5 20.58a6.6 6.6 0 0 1 -3.22 1.66 6.65 6.65 0 0 1 1.65-3.24 6.55 6.55 0 0 1 3.23-1.65 6.56 6.56 0 0 1 -1.66 3.23z"/><path d="m42.82 20.58a6.56 6.56 0 0 1 -1.66-3.22 6.65 6.65 0 0 1 3.23 1.64 6.55 6.55 0 0 1 1.61 3.24 6.6 6.6 0 0 1 -3.18-1.66z"/><circle cx="41.16" cy="17.36" r="1.1"/><circle cx="46.05" cy="17.36" r="1.1"/><circle cx="41.16" cy="22.24" r="1.1"/><circle cx="41.16" cy="12.47" r="1.1"/><circle cx="36.28" cy="17.36" r="1.1"/><path d="m47.7 15.7a6.62 6.62 0 0 1 -1.7-3.23 6.62 6.62 0 0 1 3.23 1.66 6.62 6.62 0 0 1 1.66 3.23 6.62 6.62 0 0 1 -3.19-1.66z"/><path d="m52.59 14.13a6.6 6.6 0 0 1 3.22-1.66 6.65 6.65 0 0 1 -1.65 3.23 6.62 6.62 0 0 1 -3.23 1.66 6.62 6.62 0 0 1 1.66-3.23z"/><path d="m49.27 20.58a6.62 6.62 0 0 1 -3.27 1.66 6.62 6.62 0 0 1 1.7-3.24 6.55 6.55 0 0 1 3.23-1.65 6.56 6.56 0 0 1 -1.66 3.23z"/><path d="m52.59 20.58a6.56 6.56 0 0 1 -1.66-3.22 6.65 6.65 0 0 1 3.23 1.64 6.55 6.55 0 0 1 1.65 3.23 6.6 6.6 0 0 1 -3.22-1.65z"/><circle cx="50.93" cy="17.36" r="1.1"/><circle cx="55.81" cy="17.36" r="1.1"/><circle cx="50.93" cy="22.24" r="1.1"/><circle cx="50.93" cy="12.47" r="1.1"/><circle cx="46.05" cy="17.36" r="1.1"/><path d="m28.17 15.7a6.62 6.62 0 0 1 -1.66-3.23 6.62 6.62 0 0 1 3.23 1.66 6.55 6.55 0 0 1 1.65 3.23 6.6 6.6 0 0 1 -3.22-1.66z"/><path d="m33.05 14.13a6.62 6.62 0 0 1 3.23-1.66 6.62 6.62 0 0 1 -1.66 3.23 6.62 6.62 0 0 1 -3.23 1.66 6.62 6.62 0 0 1 1.66-3.23z"/><path d="m29.74 20.58a6.62 6.62 0 0 1 -3.23 1.66 6.62 6.62 0 0 1 1.66-3.24 6.5 6.5 0 0 1 3.22-1.65 6.6 6.6 0 0 1 -1.65 3.23z"/><path d="m33.05 20.58a6.56 6.56 0 0 1 -1.66-3.22 6.65 6.65 0 0 1 3.23 1.64 6.62 6.62 0 0 1 1.66 3.23 6.62 6.62 0 0 1 -3.23-1.65z"/><circle cx="31.39" cy="17.36" r="1.1"/><circle cx="36.28" cy="17.36" r="1.1"/><circle cx="31.39" cy="22.24" r="1.1"/><circle cx="31.39" cy="12.47" r="1.1"/><circle cx="26.51" cy="17.36" r="1.1"/><path d="m136.69 126a46.14 46.14 0 0 0 -8.73-8.53 38.87 38.87 0 0 0 -5-12.53 46.21 46.21 0 0 0 .1-12 45.56 45.56 0 0 0 -11.71.07 38.44 38.44 0 0 0 -13.15-5.51 45.74 45.74 0 0 0 -8.2-8.19 46 46 0 0 0 -8.16 8.24 38.52 38.52 0 0 0 -13.15 5.51 45.59 45.59 0 0 0 -11.69-.06 46 46 0 0 0 .11 12 38.65 38.65 0 0 0 -5.11 12.47 45.77 45.77 0 0 0 -8.69 8.53 45.92 45.92 0 0 0 9 8.75 38.5 38.5 0 0 0 4.89 11.45 46 46 0 0 0 -.2 12.8 45.9 45.9 0 0 0 13.07-.28 38.74 38.74 0 0 0 10.85 4.44 45.67 45.67 0 0 0 9.1 9.52 46.08 46.08 0 0 0 9.09-9.52 38.8 38.8 0 0 0 10.89-4.43 45.83 45.83 0 0 0 13 .27 45.71 45.71 0 0 0 -.24-12.81 38.76 38.76 0 0 0 4.89-11.45 45.92 45.92 0 0 0 9.04-8.74z"/></g><path d="m90 173.93-.6-.44a46.57 46.57 0 0 1 -9.1-9.44 39.64 39.64 0 0 1 -10.44-4.27 45.23 45.23 0 0 1 -7.31.57 40.91 40.91 0 0 1 -5.71-.35l-.73-.11-.11-.73a46.19 46.19 0 0 1 .18-12.75 39.38 39.38 0 0 1 -4.72-11.07 46.44 46.44 0 0 1 -9-8.74l-.44-.6.44-.59a46.38 46.38 0 0 1 8.63-8.51 39.66 39.66 0 0 1 4.91-12.18 46 46 0 0 1 0-11.88l.11-.73.73-.11a40.91 40.91 0 0 1 5.71-.35 45.3 45.3 0 0 1 5.91.37 39.49 39.49 0 0 1 12.81-5.37 46.86 46.86 0 0 1 8.13-8.14l.6-.44.59.44a46.34 46.34 0 0 1 8.14 8.14 39.49 39.49 0 0 1 12.81 5.35 45.3 45.3 0 0 1 5.91-.37 40.91 40.91 0 0 1 5.71.35l.73.11.11.73a46.54 46.54 0 0 1 0 11.88 39.39 39.39 0 0 1 4.9 12.18 46.25 46.25 0 0 1 8.64 8.51l.44.59-.44.6a46.79 46.79 0 0 1 -9 8.74 39.68 39.68 0 0 1 -4.72 11.07 46.19 46.19 0 0 1 .18 12.75l-.11.73-.73.11a41 41 0 0 1 -5.7.35 45.26 45.26 0 0 1 -7.32-.57 39.5 39.5 0 0 1 -10.44 4.27 46.18 46.18 0 0 1 -9.11 9.44zm-19.75-16.25.32.19a37.54 37.54 0 0 0 10.57 4.32l.37.09.21.31a46.19 46.19 0 0 0 8.28 8.83 45.87 45.87 0 0 0 8.28-8.83l.21-.31.37-.09a37.13 37.13 0 0 0 10.57-4.32l.32-.19.37.06a43 43 0 0 0 7.34.61 43.79 43.79 0 0 0 4.66-.24 46.16 46.16 0 0 0 -.33-11.75l-.07-.38.21-.32a37.41 37.41 0 0 0 4.76-11.15l.09-.36.29-.21a45.65 45.65 0 0 0 8.35-7.94 46 46 0 0 0 -8.06-7.72l-.3-.23-.08-.37a37.46 37.46 0 0 0 -4.92-12.21l-.19-.31v-.36a46.81 46.81 0 0 0 .2-10.92c-.91-.09-2.58-.23-4.67-.23a43.33 43.33 0 0 0 -6 .4h-.37l-.32-.21a37.43 37.43 0 0 0 -12.71-5.32l-.36-.07-.23-.3a46.13 46.13 0 0 0 -7.41-7.57 46.55 46.55 0 0 0 -7.36 7.57l-.22.3-.37.07a37.52 37.52 0 0 0 -12.8 5.37l-.32.21h-.37a43.12 43.12 0 0 0 -6-.4c-2.08 0-3.75.14-4.66.23a46.25 46.25 0 0 0 .2 10.92v.36l-.2.31a37.68 37.68 0 0 0 -4.9 12.16l-.07.37-.31.23a45.8 45.8 0 0 0 -8 7.72 46.2 46.2 0 0 0 8.34 7.94l.3.21.09.36a37.26 37.26 0 0 0 4.76 11.15l.2.33-.06.37a45.68 45.68 0 0 0 -.33 11.75 43.63 43.63 0 0 0 4.66.24 42.8 42.8 0 0 0 7.33-.61z" fill="#fff"/><path d="m116 143.69a16.24 16.24 0 0 0 -2-7.75 16.32 16.32 0 0 0 6.91-4.08 18.84 18.84 0 0 1 -.86 6.57 18.91 18.91 0 0 1 -4.05 5.26z" fill="#fff"/><path d="m110.66 146.66a11.22 11.22 0 0 1 -3 .4 12 12 0 0 1 -7-2.35 25.43 25.43 0 0 0 -1.92-9.9 25.37 25.37 0 0 0 9.5 1.94h.44a12 12 0 0 1 2.33 7 11.17 11.17 0 0 1 -.35 2.91z" fill="#fff"/><path d="m72.29 147.06a11.17 11.17 0 0 1 -3-.4 11.17 11.17 0 0 1 -.4-2.95 12 12 0 0 1 2.33-7h.44a25.37 25.37 0 0 0 9.5-1.94 25.43 25.43 0 0 0 -1.92 9.9 12 12 0 0 1 -6.95 2.39z" fill="#fff"/><path d="m62.59 128.37a10.88 10.88 0 0 1 -1.81-2.37 11.12 11.12 0 0 1 1.81-2.37 11.84 11.84 0 0 1 6.62-3.27 25.18 25.18 0 0 0 8.38 5.64 25.49 25.49 0 0 0 -8.38 5.64 11.84 11.84 0 0 1 -6.62-3.27z" fill="#fff"/><path d="m69.34 105.34a11.17 11.17 0 0 1 3-.4 12 12 0 0 1 7 2.35 25.39 25.39 0 0 0 1.92 9.9 25.37 25.37 0 0 0 -9.5-1.94h-.43a11.94 11.94 0 0 1 -2.34-7 11.22 11.22 0 0 1 .35-2.91z" fill="#fff"/><path d="m107.71 104.94a11.17 11.17 0 0 1 3 .4 11.17 11.17 0 0 1 .4 3 11.94 11.94 0 0 1 -2.34 7h-.43a25.37 25.37 0 0 0 -9.5 1.94 25.43 25.43 0 0 0 1.92-9.9 12 12 0 0 1 6.95-2.44z" fill="#fff"/><path d="m117.41 123.63a10.88 10.88 0 0 1 1.81 2.37 10.88 10.88 0 0 1 -1.81 2.37 11.91 11.91 0 0 1 -6.62 3.27 25.33 25.33 0 0 0 -8.38-5.64 25.18 25.18 0 0 0 8.38-5.64 11.87 11.87 0 0 1 6.62 3.27z" fill="#fff"/><path d="m90 113.59a25.4 25.4 0 0 0 -5.65-8.39 11.92 11.92 0 0 1 3.28-6.61 10.63 10.63 0 0 1 2.37-1.79 10.86 10.86 0 0 1 2.37 1.79 11.92 11.92 0 0 1 3.28 6.61 25.4 25.4 0 0 0 -5.65 8.39z" fill="#fff"/><path d="m90 138.41a25.4 25.4 0 0 0 5.65 8.39 11.92 11.92 0 0 1 -3.28 6.61 11.11 11.11 0 0 1 -2.37 1.79 10.63 10.63 0 0 1 -2.37-1.79 11.92 11.92 0 0 1 -3.28-6.61 25.4 25.4 0 0 0 5.65-8.39z" fill="#fff"/><path d="m120.87 120.15a16.24 16.24 0 0 0 -6.91-4.09 16.24 16.24 0 0 0 2-7.75 18.77 18.77 0 0 1 4 5.26 18.86 18.86 0 0 1 .91 6.58z" fill="#fff"/><path d="m107.69 100a16.18 16.18 0 0 0 -7.77 2 16.28 16.28 0 0 0 -4-6.9h.87a19.43 19.43 0 0 1 5.69.88 19 19 0 0 1 5.21 4.02z" fill="#fff"/><path d="m83.24 95.12h.88a16.28 16.28 0 0 0 -4 6.9 16.18 16.18 0 0 0 -7.77-2 19 19 0 0 1 5.25-4 19.37 19.37 0 0 1 5.64-.9z" fill="#fff"/><path d="m64 108.31a16.24 16.24 0 0 0 2 7.75 16.24 16.24 0 0 0 -6.91 4.09 18.86 18.86 0 0 1 .86-6.58 18.77 18.77 0 0 1 4.05-5.26z" fill="#fff"/><path d="m59.13 131.86a16.22 16.22 0 0 0 6.87 4.08 16.24 16.24 0 0 0 -2 7.75 18.77 18.77 0 0 1 -4-5.26 18.81 18.81 0 0 1 -.87-6.57z" fill="#fff"/><path d="m72.31 152a16.18 16.18 0 0 0 7.77-2 16.28 16.28 0 0 0 4 6.9c-.29 0-.58 0-.88 0a19.48 19.48 0 0 1 -5.69-.88 19.12 19.12 0 0 1 -5.2-4.02z" fill="#fff"/><path d="m96.76 156.88c-.3 0-.59 0-.88 0a16.28 16.28 0 0 0 4-6.9 16.18 16.18 0 0 0 7.77 2 19 19 0 0 1 -5.25 4 19.42 19.42 0 0 1 -5.64.9z" fill="#fff"/><circle cx="90" cy="126" fill="#fff" r="5.77"/></svg>