<svg width="308" height="308" viewBox="0 0 308 308" fill="none" xmlns="http://www.w3.org/2000/svg">
<path d="M307.4 153.7C307.4 194.464 291.207 233.558 262.382 262.382C233.558 291.207 194.464 307.4 153.7 307.4C112.936 307.4 73.842 291.207 45.0177 262.382C16.1934 233.558 0 194.464 0 153.7C0 112.936 16.1934 73.842 45.0177 45.0177C73.842 16.1933 112.936 0 153.7 0C194.464 0 233.558 16.1933 262.382 45.0177C291.207 73.842 307.4 112.936 307.4 153.7V153.7Z" fill="url(#paint0_linear)"/>
<path d="M297.4 153.7C297.4 191.812 282.26 228.362 255.311 255.311C228.362 282.26 191.812 297.4 153.7 297.4C115.588 297.4 79.0377 282.26 52.0887 255.311C25.1398 228.362 10 191.812 10 153.7C10 115.588 25.1398 79.0377 52.0887 52.0888C79.0377 25.1398 115.588 10 153.7 10C191.812 10 228.362 25.1398 255.311 52.0888C282.26 79.0377 297.4 115.588 297.4 153.7V153.7Z" fill="url(#paint1_linear)"/>
<path d="M153.7 10C74.3999 10 10 74.3 10 153.7C10 233.1 74.2999 297.4 153.7 297.4C233 297.4 297.4 233.1 297.4 153.7C297.4 74.3 233 10 153.7 10ZM153.7 290.6C78 290.6 16.7 229.3 16.7 153.6C16.7 77.9 78 16.6 153.7 16.6C229.4 16.6 290.7 77.9 290.7 153.6C290.7 229.3 229.4 290.6 153.7 290.6Z" fill="url(#paint2_linear)"/>
<path d="M98.1383 120.975C98.0939 101.455 102.38 86.4855 110.996 76.0658C119.612 65.4862 133.2 60.1752 151.76 60.1329C163.28 60.1067 173.446 62.7235 182.258 67.9835C191.07 73.2434 197.887 80.9879 202.711 91.2169C207.694 101.446 210.203 114.08 210.237 129.12C210.289 151.68 205.606 168.091 196.189 178.352C186.932 188.453 173.984 193.523 157.344 193.561C150.304 193.577 143.661 192.392 137.416 190.006C131.17 187.62 125.483 184.513 120.354 180.685C120.519 182.764 120.606 185.964 120.616 190.284C120.786 194.444 120.875 198.684 120.885 203.004L120.99 248.844L98.4297 248.895L98.1383 120.975ZM157.315 181.081C166.115 181.061 173.227 177.204 178.649 169.512C184.231 161.659 187.001 148.213 186.957 129.173C186.916 111.253 183.925 97.4197 177.983 87.6732C172.2 77.7664 163.309 72.8266 151.309 72.854C143.309 72.8722 137.073 74.8864 132.603 78.8966C128.132 82.9068 125.024 88.5139 123.281 95.7179C121.537 102.762 120.676 111.164 120.698 120.924L120.803 167.004C125.773 171.152 131.221 174.58 137.147 177.287C143.233 179.833 149.955 181.097 157.315 181.081Z" fill="url(#paint3_linear)"/>
<line x1="143" y1="41" x2="143" y2="220" stroke="#99701A" stroke-width="10"/>
<line x1="166" y1="41" x2="166" y2="220" stroke="#99701A" stroke-width="10"/>
<defs>
<linearGradient id="paint0_linear" x1="-0.021879" y1="153.662" x2="307.432" y2="153.662" gradientUnits="userSpaceOnUse">
<stop stop-color="#553A07"/>
<stop offset="0.26" stop-color="#BB973F"/>
<stop offset="0.5198" stop-color="#FDFBD5"/>
<stop offset="0.7506" stop-color="#BB973F"/>
<stop offset="1" stop-color="#553A07"/>
</linearGradient>
<linearGradient id="paint1_linear" x1="24.5532" y1="216.654" x2="282.857" y2="90.6708" gradientUnits="userSpaceOnUse">
<stop offset="0.0759014" stop-color="#BB973F"/>
<stop offset="0.5198" stop-color="#FDFBD5"/>
<stop offset="0.9484" stop-color="#BB973F"/>
</linearGradient>
<linearGradient id="paint2_linear" x1="24.5533" y1="216.654" x2="282.857" y2="90.6708" gradientUnits="userSpaceOnUse">
<stop stop-color="#553A07"/>
<stop offset="0.26" stop-color="#BB973F"/>
<stop offset="0.5198" stop-color="#FDFBD5"/>
<stop offset="0.7506" stop-color="#BB973F"/>
<stop offset="1" stop-color="#553A07"/>
</linearGradient>
<linearGradient id="paint3_linear" x1="24" y1="72" x2="360" y2="70" gradientUnits="userSpaceOnUse">
<stop stop-color="#99701A"/>
<stop offset="0.239583" stop-color="#D09A2A" stop-opacity="0.840278"/>
<stop offset="0.34375" stop-color="#99701A" stop-opacity="0.770833"/>
<stop offset="0.34385" stop-color="#99701A" stop-opacity="0.760725"/>
<stop offset="0.390625" stop-color="#99701A" stop-opacity="0.725346"/>
<stop offset="0.549881" stop-color="#99701A" stop-opacity="0.570803"/>
<stop offset="0.706352" stop-color="#99701A" stop-opacity="0.432292"/>
<stop offset="0.979167" stop-color="#99701A" stop-opacity="0"/>
</linearGradient>
</defs>
</svg>
