<svg height="20" width="20" xmlns="http://www.w3.org/2000/svg"><path d="m1.731867 9.9956035c.00002.7560365.09966 1.4842425.298902 2.1846165.199287.700357.477675 1.358232.835165 1.973627.357528.615372.786831 1.175079 1.287912 1.67912.501116.504017 1.057891.936251 1.67033 1.296703.612469.360426 1.270344.640279 1.973627.839561.703309.199253 1.432978.298886 2.18901.298901.756055-.000015 1.484259-.09965 2.184616-.298901.700375-.199282 1.355319-.479135 1.964834-.839561.609531-.360452 1.167773-.792686 1.674726-1.296703.506965-.504041.940664-1.063748 1.301099-1.67912.360444-.615395.641762-1.27327.843956-1.973627.202201-.700374.3033-1.42858.303296-2.1846165.000004-.756049-.09963-1.484254-.298901-2.184615-.199263-.70037-.479116-1.356779-.83956-1.969231-.360435-.612454-.792669-1.169231-1.296704-1.67033-.504022-.501098-1.063729-.931867-1.67912-1.292307-.615377-.360439-1.273251-.640292-1.973626-.839561-.700357-.199264-1.428561-.298899-2.184616-.2989-.756032.000001-1.485701.09964-2.18901.2989-.703283.199269-1.361158.477658-1.973627.835165-.612439.357511-1.169214.786814-1.67033 1.287912-.501081.501099-.930384 1.05934-1.287912 1.674726-.35749.615382-.635878 1.273256-.835165 1.973626-.199247.700361-.298882 1.428566-.298902 2.184615zm2.769231.035172v-.035172l4.026374-4.210988h2.918682l-3.068132 3.138462h6.672527v2.1802195h-6.672527l3.068132 3.138461h-2.918682zm-4.501098-.043964c.000021-.90843.120171-1.784619.360439-2.628572.240315-.843958.58024-1.636632 1.01978-2.378021.43958-.741393.964123-1.416851 1.573627-2.026375.609541-.609521 1.284999-1.134064 2.026372-1.573625.741409-.43955897 1.535547-.77948397 2.382419-1.01978097.846901-.240288 1.724555-.360435 2.632967-.360438.908436.000003 1.78609.120155 2.632967.360439.846895.240297 1.641033.577292 2.382418 1.01098997.741398.433701 1.41832.955312 2.030769 1.564835.612458.609524 1.138465 1.284982 1.578022 2.026374.439563.74139.77949 1.535528 1.01978 2.382416.240295.846883.360442 1.727468.36044 2.641759.000002.9084175-.120145 1.7860735-.36044 2.6329675-.24029.846877-.580217 1.641015-1.01978 2.382417-.439557.74138-.965564 1.418303-1.578022 2.03077-.612449.61244-1.289371 1.138447-2.030769 1.578022-.741385.439545-1.535523.780937-2.382418 1.024176-.846877.243207-1.724531.364819-2.632967.364835-.908412-.000016-1.786066-.120163-2.632967-.36044-.846872-.240308-1.64101-.57877-2.382419-1.015384-.741373-.436645-1.416831-.961186-2.026372-1.573627-.609504-.612467-1.134047-1.28939-1.573627-2.03077-.43954-.741402-.779465-1.537005-1.01978-2.386812-.240271-.849824-.360418-1.731876-.360439-2.6461545z" fill="#1a1a1a"/></svg>