<svg xmlns="http://www.w3.org/2000/svg" width="23.91" height="15.23" viewBox="0 0 23.91 15.23">
    <defs>
        <style>
            .cls-1{fill:#fff}
        </style>
    </defs>
    <g id="casino" transform="rotate(90 11.955 11.955)">
        <path id="Path_19" d="M27.055 132.173a.4.4 0 1 0 .4-.4.4.4 0 0 0-.4.4zm0 0" class="cls-1" transform="translate(-14.024 -124.901)"/>
        <path id="Path_20" d="M78.287 398.573a.4.4 0 1 1 .4-.4.4.4 0 0 1-.4.4zm0 0" class="cls-1" transform="translate(-67.507 -377.027)"/>
        <path id="Path_21" d="M87.1 92.084a3.444 3.444 0 0 1-3.442 3.429 3.444 3.444 0 0 1-3.442-3.429v-8.655a3.442 3.442 0 0 1 6.884 0zm0 0" class="cls-1" transform="translate(-76.046 -75.828)"/>
        <path id="Path_22" d="M208.286 397.773a.4.4 0 1 1-.4.4.4.4 0 0 1 .4-.4zm0 0" class="cls-1" transform="translate(-204.287 -377.027)"/>
        <path id="Path_23" d="M27.055 222.173a.4.4 0 1 0 .4-.4.4.4 0 0 0-.4.4zm0 0" class="cls-1" transform="translate(-14.024 -210.207)"/>
        <path id="Path_24" d="M208.287 46.573a.4.4 0 1 1 .4-.4.4.4 0 0 1-.4.4zm0 0" class="cls-1" transform="translate(-204.288 -43.386)"/>
        <path id="Path_25" d="M78.287 46.573a.4.4 0 1 1 .4-.4.4.4 0 0 1-.4.4zm0 0" class="cls-1" transform="translate(-67.507 -43.386)"/>
        <path id="Path_26" d="M27.055 312.173a.4.4 0 1 0 .4-.4.4.4 0 0 0-.4.4zm0 0" class="cls-1" transform="translate(-14.024 -295.513)"/>
        <path id="Path_27" d="M7.834 23.91a7.6 7.6 0 0 1-7.615-7.578V7.6a7.615 7.615 0 0 1 15.23 0v8.731a7.6 7.6 0 0 1-7.615 7.579zm-3.616-1.53a1.234 1.234 0 1 0-1.234-1.234 1.234 1.234 0 0 0 1.234 1.234zm-2.2-4.485a1.234 1.234 0 1 0-1.234-1.234 1.234 1.234 0 0 0 1.234 1.234zm0-4.694a1.234 1.234 0 1 0-1.234-1.234A1.234 1.234 0 0 0 2.018 13.2zm0-7.163a1.234 1.234 0 1 0 1.235 1.235 1.234 1.234 0 0 0-1.235-1.235zm2.2-4.485a1.234 1.234 0 1 0 1.234 1.234 1.234 1.234 0 0 0-1.234-1.234zM3.557 7.6v8.656a4.279 4.279 0 0 0 4.277 4.264 4.28 4.28 0 0 0 4.277-4.263V7.6a4.277 4.277 0 0 0-8.553 0zM11 1.553a1.234 1.234 0 1 0 1.234 1.234A1.234 1.234 0 0 0 11 1.553zm0 18.359a1.234 1.234 0 1 0 1.234 1.234A1.234 1.234 0 0 0 11 19.912zm2.649-13.874a1.234 1.234 0 1 0 1.234 1.234 1.234 1.234 0 0 0-1.234-1.234zm0 4.694a1.234 1.234 0 1 0 1.234 1.234 1.234 1.234 0 0 0-1.234-1.234zm1.234 5.928a1.234 1.234 0 1 0-1.234 1.234 1.234 1.234 0 0 0 1.235-1.233zm0 0" class="cls-1" transform="translate(-.219)"/>
        <path id="Path_28" d="M250.055 222.173a.4.4 0 1 0 .4-.4.4.4 0 0 0-.4.4zm0 0" class="cls-1" transform="translate(-248.655 -210.207)"/>
        <path id="Path_29" d="M250.055 132.173a.4.4 0 1 0 .4-.4.4.4 0 0 0-.4.4zm0 0" class="cls-1" transform="translate(-248.655 -124.901)"/>
        <path id="Path_30" d="M250.055 312.173a.4.4 0 1 0 .4-.4.4.4 0 0 0-.4.4zm0 0" class="cls-1" transform="translate(-248.655 -295.513)"/>
    </g>
</svg>
