<svg height="15.23" viewBox="0 0 23.91 15.23" width="23.91" xmlns="http://www.w3.org/2000/svg"><g fill="#fff"><path d="m27.055 132.173a.4.4 0 1 0 .4-.4.4.4 0 0 0 -.4.4zm0 0" transform="matrix(0 1 -1 0 148.811 -14.024)"/><path d="m78.287 398.573a.4.4 0 1 1 .4-.4.4.4 0 0 1 -.4.4zm0 0" transform="matrix(0 1 -1 0 400.937 -67.507)"/><path d="m87.1 92.084a3.444 3.444 0 0 1 -3.442 3.429 3.444 3.444 0 0 1 -3.442-3.429v-8.655a3.442 3.442 0 0 1 6.884 0zm0 0" transform="matrix(0 1 -1 0 99.738 -76.046)"/><path d="m208.286 397.773a.4.4 0 1 1 -.4.4.4.4 0 0 1 .4-.4zm0 0" transform="matrix(0 1 -1 0 400.937 -204.287)"/><path d="m27.055 222.173a.4.4 0 1 0 .4-.4.4.4 0 0 0 -.4.4zm0 0" transform="matrix(0 1 -1 0 234.117 -14.024)"/><path d="m208.287 46.573a.4.4 0 1 1 .4-.4.4.4 0 0 1 -.4.4zm0 0" transform="matrix(0 1 -1 0 67.296 -204.288)"/><path d="m78.287 46.573a.4.4 0 1 1 .4-.4.4.4 0 0 1 -.4.4zm0 0" transform="matrix(0 1 -1 0 67.296 -67.507)"/><path d="m27.055 312.173a.4.4 0 1 0 .4-.4.4.4 0 0 0 -.4.4zm0 0" transform="matrix(0 1 -1 0 319.423 -14.024)"/><path d="m7.834 23.91a7.6 7.6 0 0 1 -7.615-7.578v-8.732a7.615 7.615 0 0 1 15.23 0v8.731a7.6 7.6 0 0 1 -7.615 7.579zm-3.616-1.53a1.234 1.234 0 1 0 -1.234-1.234 1.234 1.234 0 0 0 1.234 1.234zm-2.2-4.485a1.234 1.234 0 1 0 -1.234-1.234 1.234 1.234 0 0 0 1.234 1.234zm0-4.694a1.234 1.234 0 1 0 -1.234-1.234 1.234 1.234 0 0 0 1.234 1.233zm0-7.163a1.234 1.234 0 1 0 1.235 1.235 1.234 1.234 0 0 0 -1.235-1.235zm2.2-4.485a1.234 1.234 0 1 0 1.234 1.234 1.234 1.234 0 0 0 -1.234-1.234zm-.661 6.047v8.656a4.279 4.279 0 0 0 4.277 4.264 4.28 4.28 0 0 0 4.277-4.263v-8.657a4.277 4.277 0 0 0 -8.553 0zm7.443-6.047a1.234 1.234 0 1 0 1.234 1.234 1.234 1.234 0 0 0 -1.234-1.234zm0 18.359a1.234 1.234 0 1 0 1.234 1.234 1.234 1.234 0 0 0 -1.234-1.234zm2.649-13.874a1.234 1.234 0 1 0 1.234 1.234 1.234 1.234 0 0 0 -1.234-1.234zm0 4.694a1.234 1.234 0 1 0 1.234 1.234 1.234 1.234 0 0 0 -1.234-1.234zm1.234 5.928a1.234 1.234 0 1 0 -1.234 1.234 1.234 1.234 0 0 0 1.235-1.233zm0 0" transform="matrix(0 1 -1 0 23.91 -.219)"/><path d="m250.055 222.173a.4.4 0 1 0 .4-.4.4.4 0 0 0 -.4.4zm0 0" transform="matrix(0 1 -1 0 234.117 -248.655)"/><path d="m250.055 132.173a.4.4 0 1 0 .4-.4.4.4 0 0 0 -.4.4zm0 0" transform="matrix(0 1 -1 0 148.811 -248.655)"/><path d="m250.055 312.173a.4.4 0 1 0 .4-.4.4.4 0 0 0 -.4.4zm0 0" transform="matrix(0 1 -1 0 319.423 -248.655)"/></g></svg>