<svg width="66" height="66" viewBox="0 0 66 66" fill="none" xmlns="http://www.w3.org/2000/svg">
<path d="M54.4581 7.92959C49.6116 3.78117 43.9102 1.28344 38.0366 0.382523C27.1302 -1.29064 15.6327 2.54233 7.93 11.5417C-3.92109 25.3879 -2.30402 46.219 11.5421 58.0703C16.3887 62.2185 22.0898 64.716 27.9635 65.6172C38.8696 67.2906 50.3676 63.4571 58.0701 54.4575C69.9211 40.6116 68.3039 19.7805 54.4581 7.92959ZM60.8541 42.5728L50.7685 39.096C52.1269 35.1328 52.1105 30.8355 50.7717 26.9137L60.8465 23.4465C61.6428 25.7734 62.1515 28.2169 62.3469 30.7351C62.6635 34.8109 62.1432 38.8211 60.8541 42.5728ZM55.1939 13.6844L47.1644 20.6593C46.5703 19.9792 45.9224 19.3323 45.2161 18.7277C42.6634 16.543 39.693 15.167 36.6149 14.5666L38.6396 4.1614C43.6106 5.12532 48.2588 7.34345 52.1378 10.6637C53.2375 11.6049 54.2573 12.6152 55.1939 13.6844ZM22.9852 5.33881C24.4161 4.82345 25.8838 4.42408 27.3729 4.13936L29.3958 14.5673C25.4357 15.3391 21.6969 17.3836 18.8454 20.6538L10.808 13.6639C14.0991 9.88748 18.3003 7.02733 22.9852 5.33881ZM5.14776 23.4269L15.2315 26.9034C13.8731 30.8666 13.8896 35.1635 15.2282 39.0856L5.14487 42.5557C4.35192 40.2314 3.84547 37.7917 3.65046 35.2789C3.3339 31.1994 3.85571 27.1833 5.14776 23.4269ZM10.7895 52.3289L18.8359 45.3399C19.43 46.0202 20.0781 46.6676 20.7846 47.2722C23.3371 49.4569 26.3072 50.8325 29.3851 51.4331L27.3497 61.8953C22.3799 60.9273 17.7362 58.6847 13.8584 55.3653C12.7532 54.4197 11.7294 53.4045 10.7895 52.3289ZM43.0098 60.6923C41.583 61.2063 40.1189 61.6072 38.6336 61.8951L36.604 51.4322C40.5641 50.6604 44.3032 48.6159 47.1546 45.3455L55.1957 52.3376C51.9034 56.118 47.6967 59.0031 43.0098 60.6923Z" fill="#FFFFFA"/>
<path d="M20.786 13.6902C21.7696 13.6902 22.5669 12.8928 22.5669 11.9092C22.5669 10.9257 21.7696 10.1283 20.786 10.1283C19.8024 10.1283 19.0051 10.9257 19.0051 11.9092C19.0051 12.8928 19.8024 13.6902 20.786 13.6902Z" fill="#FFFFFA"/>
<path d="M8.62811 34.8127C9.61168 34.8127 10.409 34.0154 10.409 33.0318C10.409 32.0482 9.61168 31.2509 8.62811 31.2509C7.64454 31.2509 6.8472 32.0482 6.8472 33.0318C6.8472 34.0154 7.64454 34.8127 8.62811 34.8127Z" fill="#FFFFFA"/>
<path d="M20.8418 55.9034C21.8254 55.9034 22.6227 55.106 22.6227 54.1225C22.6227 53.1389 21.8254 52.3416 20.8418 52.3416C19.8583 52.3416 19.0609 53.1389 19.0609 54.1225C19.0609 55.106 19.8583 55.9034 20.8418 55.9034Z" fill="#FFFFFA"/>
<path d="M45.2141 55.8711C46.1978 55.8711 46.9952 55.0737 46.9952 54.09C46.9952 53.1063 46.1978 52.3088 45.2141 52.3088C44.2304 52.3088 43.433 53.1063 43.433 54.09C43.433 55.0737 44.2304 55.8711 45.2141 55.8711Z" fill="#FFFFFA"/>
<path d="M57.3715 34.7479C58.3551 34.7479 59.1524 33.9506 59.1524 32.967C59.1524 31.9834 58.3551 31.1861 57.3715 31.1861C56.3879 31.1861 55.5906 31.9834 55.5906 32.967C55.5906 33.9506 56.3879 34.7479 57.3715 34.7479Z" fill="#FFFFFA"/>
<path d="M45.158 13.6575C46.1416 13.6575 46.9389 12.8601 46.9389 11.8766C46.9389 10.893 46.1416 10.0956 45.158 10.0956C44.1744 10.0956 43.3771 10.893 43.3771 11.8766C43.3771 12.8601 44.1744 13.6575 45.158 13.6575Z" fill="#FFFFFA"/>
</svg>
