<svg xmlns="http://www.w3.org/2000/svg" width="189.607" height="227.898" viewBox="0 0 189.607 227.898">
  <g id="Group_362" data-name="Group 362" transform="translate(-53.799 -71)">
    <g id="Group_361" data-name="Group 361" transform="translate(-10 164)">
      <g id="Ellipse_85" data-name="Ellipse 85" transform="translate(64 63)" fill="#fff" stroke="#ff0000" stroke-width="3">
        <ellipse cx="81" cy="29.5" rx="81" ry="29.5" stroke="none"/>
        <ellipse cx="81" cy="29.5" rx="79.5" ry="28" fill="none"/>
      </g>
      <path id="Path_2940" data-name="Path 2940" d="M17164.99,6141.343c-4.033-11.262-1.264-18.732-1.264-18.732s10.748,21.343,55.209,24.544,73.982-4.269,84.654-8.181,20.273-13.162,21.342-16.363,0,12.806,0,12.806-2.844,20.631-59.4,27.033S17169.023,6152.6,17164.99,6141.343Z" transform="translate(-17099 -6029)" fill="#ff0000"/>
    </g>
    <g id="Group_360" data-name="Group 360" transform="translate(3 139)">
      <g id="Ellipse_85-2" data-name="Ellipse 85" transform="translate(64 63)" fill="#fff" stroke="#ff0000" stroke-width="3">
        <ellipse cx="81" cy="29.5" rx="81" ry="29.5" stroke="none"/>
        <ellipse cx="81" cy="29.5" rx="79.5" ry="28" fill="none"/>
      </g>
      <path id="Path_2940-2" data-name="Path 2940" d="M17164.99,6141.343c-4.033-11.262-1.264-18.732-1.264-18.732s10.748,21.343,55.209,24.544,73.982-4.269,84.654-8.181,20.273-13.162,21.342-16.363,0,12.806,0,12.806-2.844,20.631-59.4,27.033S17169.023,6152.6,17164.99,6141.343Z" transform="translate(-17099 -6029)" fill="#ff0000"/>
    </g>
    <g id="Group_358" data-name="Group 358" transform="translate(7 117)">
      <g id="Ellipse_85-3" data-name="Ellipse 85" transform="translate(64 63)" fill="#fff" stroke="#ff0000" stroke-width="3">
        <ellipse cx="81" cy="29.5" rx="81" ry="29.5" stroke="none"/>
        <ellipse cx="81" cy="29.5" rx="79.5" ry="28" fill="none"/>
      </g>
      <path id="Path_2940-3" data-name="Path 2940" d="M17164.99,6141.343c-4.033-11.262-1.264-18.732-1.264-18.732s10.748,21.343,55.209,24.544,73.982-4.269,84.654-8.181,20.273-13.162,21.342-16.363,0,12.806,0,12.806-2.844,20.631-59.4,27.033S17169.023,6152.6,17164.99,6141.343Z" transform="translate(-17099 -6029)" fill="#ff0000"/>
    </g>
    <g id="Group_359" data-name="Group 359" transform="translate(11 92)">
      <g id="Ellipse_85-4" data-name="Ellipse 85" transform="translate(64 63)" fill="#fff" stroke="#ff0000" stroke-width="3">
        <ellipse cx="81" cy="29.5" rx="81" ry="29.5" stroke="none"/>
        <ellipse cx="81" cy="29.5" rx="79.5" ry="28" fill="none"/>
      </g>
      <path id="Path_2940-4" data-name="Path 2940" d="M17164.99,6141.343c-4.033-11.262-1.264-18.732-1.264-18.732s10.748,21.343,55.209,24.544,73.982-4.269,84.654-8.181,20.273-13.162,21.342-16.363,0,12.806,0,12.806-2.844,20.631-59.4,27.033S17169.023,6152.6,17164.99,6141.343Z" transform="translate(-17099 -6029)" fill="#ff0000"/>
    </g>
    <g id="Group_357" data-name="Group 357" transform="translate(-1 64)">
      <g id="Ellipse_85-5" data-name="Ellipse 85" transform="translate(64 63)" fill="#fff" stroke="#ff0000" stroke-width="3">
        <ellipse cx="81" cy="29.5" rx="81" ry="29.5" stroke="none"/>
        <ellipse cx="81" cy="29.5" rx="79.5" ry="28" fill="none"/>
      </g>
      <path id="Path_2940-5" data-name="Path 2940" d="M17164.99,6141.343c-4.033-11.262-1.264-18.732-1.264-18.732s10.748,21.343,55.209,24.544,73.982-4.269,84.654-8.181,20.273-13.162,21.342-16.363,0,12.806,0,12.806-2.844,20.631-59.4,27.033S17169.023,6152.6,17164.99,6141.343Z" transform="translate(-17099 -6029)" fill="#ff0000"/>
    </g>
    <g id="Group_356" data-name="Group 356" transform="translate(17 37)">
      <g id="Ellipse_85-6" data-name="Ellipse 85" transform="translate(64 63)" fill="#fff" stroke="#ff0000" stroke-width="3">
        <ellipse cx="81" cy="29.5" rx="81" ry="29.5" stroke="none"/>
        <ellipse cx="81" cy="29.5" rx="79.5" ry="28" fill="none"/>
      </g>
      <path id="Path_2940-6" data-name="Path 2940" d="M17164.99,6141.343c-4.033-11.262-1.264-18.732-1.264-18.732s10.748,21.343,55.209,24.544,73.982-4.269,84.654-8.181,20.273-13.162,21.342-16.363,0,12.806,0,12.806-2.844,20.631-59.4,27.033S17169.023,6152.6,17164.99,6141.343Z" transform="translate(-17099 -6029)" fill="#ff0000"/>
    </g>
    <g id="Group_355" data-name="Group 355" transform="translate(4 8)">
      <g id="Ellipse_85-7" data-name="Ellipse 85" transform="translate(64 63)" fill="#fff" stroke="#ff0000" stroke-width="3">
        <ellipse cx="81" cy="29.5" rx="81" ry="29.5" stroke="none"/>
        <ellipse cx="81" cy="29.5" rx="79.5" ry="28" fill="none"/>
      </g>
      <path id="Path_2940-7" data-name="Path 2940" d="M17164.99,6141.343c-4.033-11.262-1.264-18.732-1.264-18.732s10.748,21.343,55.209,24.544,73.982-4.269,84.654-8.181,20.273-13.162,21.342-16.363,0,12.806,0,12.806-2.844,20.631-59.4,27.033S17169.023,6152.6,17164.99,6141.343Z" transform="translate(-17099 -6029)" fill="#ff0000"/>
    </g>
  </g>
</svg>
