<svg height="227.898" viewBox="0 0 189.607 227.898" width="189.607" xmlns="http://www.w3.org/2000/svg"><g transform="translate(-63.799 93)"><g fill="#fff" stroke="#f00" stroke-width="3"><ellipse cx="145" cy="92.5" rx="81" ry="29.5" stroke="none"/><ellipse cx="145" cy="92.5" fill="none" rx="79.5" ry="28"/></g><path d="m17164.99 6141.343c-4.033-11.262-1.264-18.732-1.264-18.732s10.748 21.343 55.209 24.544 73.982-4.269 84.654-8.181 20.273-13.162 21.342-16.363 0 12.806 0 12.806-2.844 20.631-59.4 27.033-96.508-9.85-100.541-21.107z" fill="#f00" transform="translate(-17099 -6029)"/></g><g transform="translate(-50.799 68)"><g fill="#fff" stroke="#f00" stroke-width="3"><ellipse cx="145" cy="92.5" rx="81" ry="29.5" stroke="none"/><ellipse cx="145" cy="92.5" fill="none" rx="79.5" ry="28"/></g><path d="m17164.99 6141.343c-4.033-11.262-1.264-18.732-1.264-18.732s10.748 21.343 55.209 24.544 73.982-4.269 84.654-8.181 20.273-13.162 21.342-16.363 0 12.806 0 12.806-2.844 20.631-59.4 27.033-96.508-9.85-100.541-21.107z" fill="#f00" transform="translate(-17099 -6029)"/></g><g transform="translate(-46.799 46)"><g fill="#fff" stroke="#f00" stroke-width="3"><ellipse cx="145" cy="92.5" rx="81" ry="29.5" stroke="none"/><ellipse cx="145" cy="92.5" fill="none" rx="79.5" ry="28"/></g><path d="m17164.99 6141.343c-4.033-11.262-1.264-18.732-1.264-18.732s10.748 21.343 55.209 24.544 73.982-4.269 84.654-8.181 20.273-13.162 21.342-16.363 0 12.806 0 12.806-2.844 20.631-59.4 27.033-96.508-9.85-100.541-21.107z" fill="#f00" transform="translate(-17099 -6029)"/></g><g transform="translate(-42.799 21)"><g fill="#fff" stroke="#f00" stroke-width="3"><ellipse cx="145" cy="92.5" rx="81" ry="29.5" stroke="none"/><ellipse cx="145" cy="92.5" fill="none" rx="79.5" ry="28"/></g><path d="m17164.99 6141.343c-4.033-11.262-1.264-18.732-1.264-18.732s10.748 21.343 55.209 24.544 73.982-4.269 84.654-8.181 20.273-13.162 21.342-16.363 0 12.806 0 12.806-2.844 20.631-59.4 27.033-96.508-9.85-100.541-21.107z" fill="#f00" transform="translate(-17099 -6029)"/></g><g transform="translate(-54.799 -7)"><g fill="#fff" stroke="#f00" stroke-width="3"><ellipse cx="145" cy="92.5" rx="81" ry="29.5" stroke="none"/><ellipse cx="145" cy="92.5" fill="none" rx="79.5" ry="28"/></g><path d="m17164.99 6141.343c-4.033-11.262-1.264-18.732-1.264-18.732s10.748 21.343 55.209 24.544 73.982-4.269 84.654-8.181 20.273-13.162 21.342-16.363 0 12.806 0 12.806-2.844 20.631-59.4 27.033-96.508-9.85-100.541-21.107z" fill="#f00" transform="translate(-17099 -6029)"/></g><g transform="translate(-36.799 -34)"><g fill="#fff" stroke="#f00" stroke-width="3"><ellipse cx="145" cy="92.5" rx="81" ry="29.5" stroke="none"/><ellipse cx="145" cy="92.5" fill="none" rx="79.5" ry="28"/></g><path d="m17164.99 6141.343c-4.033-11.262-1.264-18.732-1.264-18.732s10.748 21.343 55.209 24.544 73.982-4.269 84.654-8.181 20.273-13.162 21.342-16.363 0 12.806 0 12.806-2.844 20.631-59.4 27.033-96.508-9.85-100.541-21.107z" fill="#f00" transform="translate(-17099 -6029)"/></g><g transform="translate(-49.799 -63)"><g fill="#fff" stroke="#f00" stroke-width="3"><ellipse cx="145" cy="92.5" rx="81" ry="29.5" stroke="none"/><ellipse cx="145" cy="92.5" fill="none" rx="79.5" ry="28"/></g><path d="m17164.99 6141.343c-4.033-11.262-1.264-18.732-1.264-18.732s10.748 21.343 55.209 24.544 73.982-4.269 84.654-8.181 20.273-13.162 21.342-16.363 0 12.806 0 12.806-2.844 20.631-59.4 27.033-96.508-9.85-100.541-21.107z" fill="#f00" transform="translate(-17099 -6029)"/></g></svg>