<svg fill="none" height="211" viewBox="0 0 210 211" width="210" xmlns="http://www.w3.org/2000/svg" xmlns:xlink="http://www.w3.org/1999/xlink"><linearGradient id="a"><stop offset="0" stop-color="#fab865"/><stop offset=".253" stop-color="#fffe9e"/><stop offset=".5" stop-color="#fab865"/><stop offset=".806" stop-color="#fffe9e"/><stop offset="1" stop-color="#fab865"/></linearGradient><linearGradient id="b" gradientUnits="userSpaceOnUse" x1="30.5648" x2="178.783" xlink:href="#a" y1="178.783" y2="30.5648"/><radialGradient id="c" cx="104.668" cy="104.681" gradientUnits="userSpaceOnUse" r="100.8"><stop offset="0" stop-color="#79973c"/><stop offset="1" stop-color="#434f1a"/></radialGradient><linearGradient id="d" gradientUnits="userSpaceOnUse" x1="33.3016" x2="176.034" y1="176.047" y2="33.3145"><stop offset="0" stop-color="#953900"/><stop offset=".253" stop-color="#c89b14"/><stop offset=".5" stop-color="#953900"/><stop offset=".806" stop-color="#c89b14"/><stop offset="1" stop-color="#953900"/></linearGradient><linearGradient id="e" gradientUnits="userSpaceOnUse" x1="11.4471" x2="197.891" xlink:href="#a" y1="104.676" y2="104.676"/><linearGradient id="f" gradientUnits="userSpaceOnUse" x1="21.674" x2="187.674" xlink:href="#a" y1="104.677" y2="104.677"/><path d="m209.27 107.638c-.001 20.403-6.053 40.347-17.389 57.31-11.337 16.963-27.449 30.184-46.299 37.99s-39.592 9.847-59.6021 5.865c-20.0102-3.982-38.3902-13.808-52.8158-28.236s-24.24888-32.81-28.22755-52.82c-3.97867-20.011-1.93406-40.7526 5.87525-59.6014 7.8093-18.8489 21.0326-34.9587 37.9977-46.2923s36.91-17.38194 57.3125-17.38016c13.547.00027 26.961 2.66901 39.477 7.85386 12.515 5.1848 23.887 12.7842 33.465 22.3641 9.579 9.5799 17.176 20.9528 22.359 33.4691s7.849 25.931 7.847 39.4778z" fill="#8f8f8f" opacity=".687"/><path d="m209.113 107.543c0 20.372-6.041 40.286-17.359 57.225-11.318 16.938-27.405 30.14-46.227 37.936-18.821 7.795-39.531 9.834-59.5115 5.859-19.9803-3.975-38.3331-13.785-52.7376-28.191-14.4044-14.406-24.21354-32.759-28.1868-52.74s-1.93223-40.6908 5.865-59.5114c7.7972-18.8207 21.0004-34.9064 37.9398-46.2231 16.9395-11.3167 36.8543-17.35607 57.2261-17.35429 13.526-.00026 26.919 2.6638 39.415 7.84009 12.497 5.1762 23.851 12.7633 33.414 22.3279 9.564 9.5646 17.15 20.9194 22.325 33.416 5.176 12.4966 7.839 25.8902 7.837 39.4158z" fill="#8e8e8e" opacity=".693"/><path d="m208.957 107.447c.002 20.341-6.029 40.227-17.328 57.141-11.3 16.913-27.362 30.097-46.155 37.882s-39.472 9.822-59.4226 5.854-38.2765-13.763-52.66-28.146c-14.3835-14.384-24.17866-32.71-28.14663-52.66-3.96797-19.951-1.93056-40.6301 5.85453-59.4228 7.7852-18.7926 20.9684-34.8546 37.8823-46.1545 16.914-11.3 36.7991-17.33042 57.1404-17.32864 27.273.00292 53.428 10.83824 72.712 30.12294 19.285 19.2846 30.12 45.4394 30.123 72.712z" fill="#8d8d8d" opacity=".699"/><path d="m208.8 107.36c0 20.31-6.023 40.164-17.306 57.051-11.284 16.887-27.322 30.048-46.086 37.82-18.765 7.772-39.412 9.805-59.3315 5.842-19.9196-3.963-38.2166-13.743-52.5773-28.105s-24.13994-32.66-28.10112-52.58c-3.96119-19.92-1.92636-40.5673 5.84712-59.3308 7.7736-18.7634 20.9366-34.8003 37.8246-46.0826s36.7423-17.30328 57.0522-17.3015c27.233.00132 53.35 10.8208 72.606 30.0783 19.256 19.2576 30.073 45.3756 30.072 72.6086z" fill="#8c8c8c" opacity=".706"/><path d="m208.644 107.264c0 20.279-6.013 40.102-17.28 56.964-11.266 16.861-27.28 30.002-46.015 37.762-18.736 7.76-39.351 9.79-59.2405 5.833-19.8891-3.956-38.1581-13.722-52.4969-28.062s-24.10316-32.61-28.0584-52.499c-3.95524-19.89-1.92366-40.5052 5.8378-59.2399 7.7615-18.7348 20.9043-34.7473 37.7663-46.0124 16.862-11.2652 36.6859-17.27715 56.9647-17.27557 27.192.00133 53.269 10.80427 72.495 30.03227 19.227 19.2281 30.028 45.3062 30.027 72.4976z" fill="#8b8b8b" opacity=".712"/><path d="m208.487 107.169c.001 20.248-6.002 40.04-17.25 56.876-11.248 16.835-27.236 29.957-45.942 37.706s-39.29 9.776-59.1481 5.826c-19.8583-3.949-38.0993-13.699-52.4163-28.016s-24.06691-32.558-28.01672-52.417c-3.94981-19.858-1.92212-40.4415 5.82662-59.1474 7.7488-18.7059 20.8706-34.6938 37.706-45.942s36.6283-17.25139 56.8755-17.2504c27.149.00159 53.185 10.787 72.381 29.9838 19.197 19.1968 29.983 45.2328 29.984 72.381z" fill="#8a8a8a" opacity=".718"/><path d="m208.331 107.074c.001 20.216-5.993 39.979-17.224 56.788-11.231 16.81-27.195 29.911-45.872 37.648s-39.229 9.761-59.0567 5.817c-19.8278-3.943-38.0407-13.678-52.3357-27.973s-24.02994-32.508-27.97373-52.336c-3.94378-19.828-1.91928-40.3797 5.81743-59.0568 7.7368-18.6772 20.8383-34.6406 37.6478-45.8716 16.8094-11.231 36.5718-17.22516 56.7879-17.22437 27.107.0016 53.103 10.77057 72.271 29.93807 19.168 19.1676 29.936 45.1639 29.938 72.2707z" fill="#898989" opacity=".724"/><path d="m208.178 106.986c-.001 20.185-5.987 39.916-17.202 56.698s-27.154 29.862-45.802 37.586c-18.649 7.724-39.169 9.744-58.9651 5.805-19.7966-3.938-37.9808-13.658-52.2531-27.931s-23.99165-32.458-27.9291-52.255c-3.93745-19.796-1.91611-40.3162 5.8084-58.9642 7.7245-18.648 20.8053-34.5867 37.5882-45.8006 16.783-11.2138 36.5142-17.19915 56.6987-17.19915 13.403-.00053 26.674 2.63904 39.057 7.76795 12.383 5.1289 23.634 12.6467 33.111 22.1242 9.476 9.4774 16.994 20.7287 22.122 33.1116 5.128 12.3828 7.767 25.6545 7.766 39.0572z" fill="#888" opacity=".73"/><path d="m208.009 106.89c.001 20.155-5.975 39.857-17.172 56.615-11.197 16.759-27.112 29.82-45.732 37.533s-39.11 9.731-58.8773 5.799c-19.7674-3.933-37.9247-13.638-52.1756-27.891-14.251-14.252-23.9555-32.41-27.88625-52.177-3.93077-19.768-1.91125-40.2573 5.80315-58.8772 7.7144-18.6198 20.7772-34.5338 37.5364-45.7294s36.462-17.16985 56.6166-17.16728c13.381.00013 26.63 2.63587 38.992 7.75668 12.362 5.1209 23.594 12.6265 33.056 22.0885 9.461 9.4619 16.966 20.6947 22.085 33.057 5.12 12.3624 7.755 25.6122 7.754 38.9927z" fill="#878787" opacity=".736"/><path d="m207.855 106.795c0 20.122-5.967 39.793-17.146 56.524-11.18 16.731-27.07 29.771-45.66 37.471-18.591 7.701-39.048 9.715-58.7834 5.789-19.7356-3.926-37.8637-13.617-52.0919-27.846s-23.9175-32.357-27.84243-52.093c-3.92494-19.736-1.90931-40.1926 5.79203-58.7828 7.7013-18.5903 20.7423-34.4793 37.474-45.6579 16.7317-11.1785 36.4025-17.14433 56.5247-17.14315 13.361-.00079 26.59 2.63028 38.934 7.74295 12.344 5.1126 23.559 12.6067 33.006 22.0543s16.941 20.6636 22.052 33.0074c5.112 12.3439 7.743 25.5739 7.741 38.9342z" fill="#868686" opacity=".742"/><path d="m207.694 106.699c.002 20.092-5.955 39.733-17.116 56.439-11.162 16.707-27.027 29.728-45.589 37.417-18.562 7.69-38.988 9.702-58.6934 5.783-19.7057-3.92-37.8067-13.595-52.0136-27.802s-23.8816-32.308-27.80069-52.014c-3.91908-19.706-1.90646-40.1316 5.78329-58.6936 7.6898-18.562 20.7114-34.4267 37.418-45.5878 16.7065-11.1611 36.3477-17.11733 56.4394-17.11536 13.339-.00013 26.547 2.62709 38.871 7.73166 12.323 5.1045 23.52 12.5864 32.952 22.0185s16.914 20.6296 22.018 32.9532c5.105 12.3235 7.731 25.5318 7.731 38.8704z" fill="#858585" opacity=".748"/><path d="m207.54 106.612c0 20.061-5.948 39.671-17.093 56.351s-26.986 29.68-45.519 37.357c-18.534 7.677-38.928 9.685-58.6029 5.771-19.675-3.914-37.7476-13.574-51.9321-27.76-14.1846-14.185-23.8441-32.258-27.75686-51.934-3.91281-19.675-1.90321-40.0687 5.77466-58.6019 7.6779-18.5332 20.6791-34.3733 37.3596-45.5173 16.6806-11.1439 36.2911-17.09115 56.3516-17.08957 13.319.0004 26.507 2.62412 38.812 7.72137 12.305 5.0972 23.485 12.5682 32.903 21.9863 9.417 9.4181 16.888 20.5989 21.984 32.904 5.097 12.3051 7.719 25.4935 7.719 38.8121z" fill="#848484" opacity=".755"/><path d="m207.382 106.516c-.001 20.029-5.941 39.609-17.07 56.262-11.128 16.653-26.945 29.632-45.45 37.296-18.506 7.664-38.868 9.668-58.5119 5.759-19.6442-3.909-37.6881-13.555-51.8499-27.719-14.1619-14.164-23.8056-32.209-27.71171-51.854-3.90606-19.644-1.89902-40.0061 5.76731-58.5102 7.6663-18.504 20.6476-34.3192 37.3023-45.4454 16.6547-11.1263 36.2347-17.06399 56.2639-17.06221 13.299.00065 26.467 2.62073 38.753 7.71061 12.286 5.0899 23.449 12.55 32.852 21.9542s16.862 20.5684 21.95 32.8551c5.088 12.2868 7.706 25.4554 7.705 38.7539z" fill="#838383" opacity=".761"/><path d="m207.226 106.43c-.001 19.997-5.932 39.545-17.042 56.171-11.11 16.627-26.902 29.585-45.377 37.237s-38.804 9.654-58.4168 5.752c-19.6126-3.902-37.6279-13.532-51.7677-27.672-14.1397-14.14-23.7689-32.156-27.66986-51.769-3.90099-19.613-1.89857-39.9419 5.75406-58.4167 7.6526-18.4748 20.6117-34.2655 37.2386-45.3753 16.6269-11.1097 36.1748-17.03966 56.1717-17.03986 13.278-.00026 26.427 2.61495 38.694 7.69636 12.268 5.0813 23.414 12.5293 32.803 21.9186s16.836 20.5361 21.917 32.8038c5.081 12.2676 7.696 25.416 7.695 38.6941z" fill="#828282" opacity=".767"/><path d="m207.07 106.334c-.001 19.967-5.922 39.484-17.016 56.085-11.093 16.601-26.86 29.54-45.307 37.18s-38.745 9.639-58.3276 5.743-37.5701-13.512-51.688-27.631c-14.1178-14.119-23.7318-32.107-27.62629-51.69-3.89448-19.583-1.89449-39.8809 5.74709-58.3272 7.6415-18.4462 20.5814-34.2123 37.1833-45.3044s36.1202-17.01202 56.0865-17.01123c13.257.0004 26.385 2.61203 38.633 7.68573 12.248 5.0738 23.376 12.5103 32.75 21.885 9.374 9.3746 16.81 20.5038 21.882 32.7522 5.073 12.2483 7.684 25.3758 7.683 38.6329z" fill="#818181" opacity=".773"/><path d="m206.904 106.239c-.002 19.935-5.915 39.421-16.991 55.995-11.077 16.574-26.819 29.491-45.237 37.118s-38.684 9.622-58.235 5.731c-19.5512-3.891-37.5096-13.492-51.6042-27.589-14.0947-14.097-23.6925-32.057-27.57976-51.609-3.88729-19.552-1.88948-39.8177 5.74076-58.2341 7.6303-18.4165 20.5504-34.1568 37.1263-45.2303 16.576-11.0736 36.0634-16.98317 55.9979-16.98139 13.236.00092 26.343 2.60895 38.571 7.67519 12.228 5.0662 23.339 12.4914 32.697 21.8516 9.359 9.3602 16.782 20.4721 21.846 32.7012s7.67 25.3359 7.668 38.5718z" fill="#808080" opacity=".779"/><path d="m206.756 106.142c.001 19.905-5.901 39.363-16.959 55.914s-26.775 29.451-45.165 37.068c-18.389 7.618-38.625 9.612-58.1474 5.729-19.5225-3.883-37.4551-13.468-51.5301-27.543-14.0749-14.075-23.6599-32.008-27.54292-51.53-3.88302-19.523-1.88961-39.7586 5.72812-58.1481 7.6178-18.3896 20.5177-34.1072 37.0684-45.1652 16.5508-11.058 36.009-16.95963 55.9139-16.95864 26.689.00185 52.285 10.60494 71.157 29.47704 18.872 18.8722 29.475 44.4677 29.477 71.1569z" fill="#7f7f7f" opacity=".785"/><path d="m206.591 106.055c-.001 19.873-5.896 39.299-16.938 55.821-11.042 16.523-26.736 29.4-45.096 37.004-18.361 7.603-38.564 9.591-58.0544 5.713-19.4905-3.879-37.3932-13.45-51.4442-27.503-14.0509-14.054-23.619-31.958-27.49431-51.449-3.8753-19.491-1.88375-39.6939 5.72281-58.0533 7.6066-18.3593 20.4865-34.0507 37.011-45.0899 16.5245-11.0393 35.9515-16.93049 55.8241-16.92871 26.648.00318 52.204 10.59161 71.045 29.43621s29.425 44.4018 29.424 71.0497z" fill="#7e7e7e" opacity=".791"/><path d="m206.434 105.96c0 19.842-5.884 39.239-16.908 55.736-11.023 16.498-26.692 29.357-45.024 36.95-18.332 7.592-38.503 9.578-57.9639 5.707-19.4606-3.872-37.3361-13.427-51.3658-27.458-14.0298-14.031-23.5838-31.908-27.45366-51.369-3.86989-19.461-1.88191-39.6321 5.71256-57.9633 7.5944-18.3311 20.4542-33.9984 36.9531-45.0208 16.4989-11.0223 35.8958-16.90452 55.7377-16.90274 13.174.00026 26.219 2.59539 38.39 7.63724 12.17 5.0418 23.229 12.4315 32.544 21.7472 9.315 9.3158 16.704 20.375 21.744 32.5464 5.041 12.1713 7.635 25.2163 7.634 38.39z" fill="#7d7d7d" opacity=".798"/><path d="m206.278 105.865c0 19.811-5.875 39.178-16.881 55.65-11.007 16.472-26.651 29.31-44.954 36.891-18.304 7.581-38.444 9.565-57.8744 5.699s-37.2781-13.406-51.286-27.416c-14.008-14.009-23.5471-31.857-27.41095-51.288-3.86387-19.431-1.87899-39.5709 5.70365-57.8735 7.5826-18.3026 20.4224-33.9456 36.8957-44.9508 16.4732-11.0052 35.84-16.87828 55.651-16.8765 13.153.00026 26.178 2.59135 38.33 7.6253 12.152 5.034 23.193 12.4122 32.494 21.7135 9.3 9.3012 16.677 20.3433 21.71 32.4957s7.623 25.1771 7.622 38.3303z" fill="#7c7c7c" opacity=".804"/><path d="m206.121 105.768c-.002 19.778-5.868 39.111-16.857 55.555s-26.607 29.26-44.88 36.827c-18.273 7.568-38.379 9.547-57.7769 5.688-19.3975-3.86-37.2151-13.384-51.1995-27.37-13.9845-13.985-23.5078-31.804-27.36564-51.202-3.85787-19.398-1.87707-39.5038 5.69194-57.7759 7.569-18.2722 20.3862-33.8896 36.831-44.8774 16.4447-10.9878 35.7784-16.85245 55.5561-16.85245 13.133 0 26.137 2.58685 38.27 7.61285 12.133 5.0259 23.158 12.3926 32.444 21.6793s16.651 20.3116 21.676 32.4451c5.025 12.1334 7.611 25.1379 7.61 38.2705z" fill="#7b7b7b" opacity=".81"/><path d="m205.965 105.681c0 19.749-5.856 39.055-16.829 55.476-10.972 16.42-26.567 29.218-44.813 36.776-18.246 7.557-38.324 9.533-57.6933 5.68-19.3695-3.854-37.1612-13.365-51.1252-27.331-13.9639-13.965-23.4728-31.758-27.32425-51.128-3.85142-19.37-1.87232-39.4474 5.68705-57.6926 7.5593-18.2451 20.3593-33.8389 36.7813-44.8092 16.422-10.9704 35.7283-16.82449 55.4774-16.82212 13.112.00079 26.095 2.58414 38.209 7.60252 12.113 5.0184 23.12 12.3736 32.39 21.6456 9.271 9.2721 16.625 20.2793 21.642 32.3934s7.599 25.0976 7.598 38.2094z" fill="#7a7a7a" opacity=".816"/><path d="m205.8 105.586c-.002 19.716-5.85 38.989-16.805 55.381s-26.525 29.168-44.741 36.711c-18.216 7.544-38.259 9.516-57.5961 5.668-19.3369-3.848-37.0984-13.344-51.0385-27.286-13.9401-13.943-23.4327-31.706-27.27751-51.043-3.84477-19.338-1.86899-39.3811 5.67751-57.5957s20.3247-33.7823 36.7189-44.7346c16.3941-10.9523 35.6678-16.79717 55.3837-16.79559 13.091.0004 26.054 2.57948 38.149 7.58999 12.094 5.0105 23.083 12.3542 32.339 21.6119s16.598 20.248 21.607 32.3432c5.008 12.0953 7.585 25.0587 7.583 38.1498z" fill="#797979" opacity=".822"/><path d="m205.652 105.49c-.001 19.686-5.839 38.93-16.777 55.298-10.937 16.367-26.483 29.124-44.671 36.657-18.187 7.533-38.2 9.503-57.508 5.662-19.3075-3.841-37.0424-13.322-50.9619-27.243-13.9195-13.92-23.3985-31.656-27.23827-50.964s-1.86786-39.3204 5.66637-57.5076c7.5342-18.1871 20.2924-33.7317 36.6611-44.668 16.3687-10.9362 35.6128-16.77304 55.2987-16.77225 13.071-.0004 26.015 2.57402 38.091 7.57625 12.076 5.0022 23.049 12.3342 32.291 21.5774 9.243 9.2431 16.574 20.2163 21.575 32.2929 5.001 12.0767 7.575 25.0202 7.573 38.0913z" fill="#787878" opacity=".828"/><path d="m205.486 105.394c0 19.655-5.828 38.868-16.748 55.21s-26.44 29.079-44.599 36.6c-18.158 7.521-38.139 9.488-57.4159 5.653-19.2768-3.835-36.9833-13.3-50.8805-27.199-13.8972-13.898-23.3609-31.606-27.19418-50.883-3.83331-19.277-1.86411-39.2575 5.65858-57.4154 7.5227-18.1579 20.261-33.6772 36.604-44.5954 16.343-10.9181 35.5566-16.74474 55.211-16.74296 26.354.00212 51.628 10.47276 70.262 29.10856 18.634 18.6359 29.102 43.9106 29.102 70.2642z" fill="#777" opacity=".834"/><path d="m106.118 204.523c54.797 0 99.218-44.421 99.218-99.218 0-54.7964-44.421-99.21784-99.218-99.21784-54.7965 0-99.21791 44.42144-99.21791 99.21784 0 54.797 44.42141 99.218 99.21791 99.218z" fill="#767676" opacity=".84"/><path d="m205.173 105.212c0 19.593-5.81 38.746-16.695 55.036-10.886 16.291-26.358 28.988-44.459 36.485-18.102 7.497-38.02 9.458-57.2363 5.635-19.2162-3.824-36.8669-13.259-50.7202-27.115-13.8533-13.855-23.2868-31.507-27.10759-50.723-3.82079-19.217-1.85721-39.1349 5.64239-57.2355 7.4996-18.1007 20.1984-33.5708 36.4905-44.4541 16.292-10.8833 35.4455-16.69087 55.0382-16.6883 13.008.00066 25.888 2.56346 37.906 7.5421 12.017 4.9786 22.937 12.2755 32.134 21.4742 9.197 9.1986 16.493 20.1187 21.47 32.1368 4.977 12.0182 7.538 24.899 7.537 37.9068z" fill="#757575" opacity=".847"/><path d="m205.017 105.116c0 19.561-5.8 38.682-16.668 54.946-10.867 16.265-26.314 28.941-44.386 36.426-18.072 7.486-37.957 9.444-57.1422 5.627-19.1848-3.816-36.8071-13.236-50.6383-27.068-13.8313-13.832-23.2502-31.455-27.06569-50.64-3.81551-19.185-1.85625-39.0703 5.62999-57.1418 7.4863-18.0715 20.1633-33.5172 36.428-44.3839s35.3865-16.66622 54.9472-16.66524c26.229.00133 51.383 10.42174 69.93 28.96894 18.546 18.5472 28.965 43.702 28.965 69.931z" fill="#747474" opacity=".853"/><path d="m204.86 105.03c-.002 19.53-5.795 38.622-16.647 54.86-10.852 16.237-26.275 28.893-44.319 36.365-18.045 7.472-37.9 9.426-57.0543 5.614-19.1547-3.812-36.7488-13.218-50.5576-27.03-13.8088-13.811-23.2119-31.407-27.02033-50.562s-1.85109-39.01 5.62443-57.053c7.4756-18.043 20.1337-33.464 36.3735-44.313 16.2399-10.8489 35.3321-16.63861 54.8623-16.63683 12.968.00013 25.809 2.55475 37.79 7.51793 11.98 4.9633 22.866 12.2379 32.035 21.4084 9.168 9.1706 16.441 20.0574 21.402 32.0389s7.513 24.8228 7.511 37.7906z" fill="#737373" opacity=".859"/><path d="m204.704 104.933c-.001 19.499-5.783 38.559-16.617 54.771-10.833 16.212-26.231 28.847-44.245 36.308-18.015 7.461-37.837 9.413-56.961 5.608-19.1237-3.805-36.6896-13.195-50.4766-26.983-13.7869-13.788-23.1756-31.355-26.97879-50.478-3.80319-19.124-1.85005-38.9467 5.61239-56.9607 7.4625-18.0139 20.0991-33.4104 36.312-44.2425 16.2128-10.8321 35.2736-16.61333 54.772-16.61254 12.947.00013 25.766 2.55039 37.727 7.50514 11.961 4.9548 22.829 12.217 31.984 21.372 9.154 9.155 16.415 20.0235 21.369 31.9849 4.954 11.9613 7.503 24.7814 7.502 37.7277z" fill="#727272" opacity=".865"/><path d="m204.547 104.838c0 19.469-5.773 38.5-16.59 54.688-10.816 16.188-26.19 28.804-44.177 36.254s-37.779 9.399-56.8737 5.6c-19.0946-3.799-36.6338-13.175-50.3997-26.942s-23.1401-31.307-26.93719-50.402-1.84648-38.8869 5.60509-56.8732c7.4517-17.9864 20.0696-33.359 36.2582-44.174 16.1885-10.815 35.2206-16.58653 54.6893-16.58475 12.926-.00052 25.726 2.54525 37.668 7.49195 11.943 4.9467 22.794 12.1974 31.933 21.3381 9.14 9.1406 16.39 19.9922 21.336 31.935 4.945 11.9427 7.49 24.7427 7.488 37.6689z" fill="#717171" opacity=".871"/><path d="m204.382 104.742c-.002 19.436-5.767 38.435-16.566 54.594-10.8 16.159-26.149 28.753-44.106 36.189s-37.715 9.38-56.7773 5.586c-19.0619-3.794-36.5707-13.155-50.3123-26.9-13.7416-13.744-23.0988-31.255-26.88834-50.318-3.78949-19.063-1.84108-38.8212 5.59884-56.7765 7.4399-17.9554 20.0372-33.3013 36.1988-44.0972s35.1617-16.55678 54.5973-16.55421c12.905.00131 25.683 2.54438 37.604 7.48401 11.922 4.9396 22.754 12.179 31.878 21.3049s16.361 19.9595 21.298 31.8823c4.936 11.9228 7.477 24.7013 7.475 37.6057z" fill="#707070" opacity=".877"/><path d="m106.119 202.766c54.188 0 98.115-43.927 98.115-98.115 0-54.1873-43.927-98.11487-98.115-98.11487-54.1873 0-98.11491 43.92757-98.11491 98.11487 0 54.188 43.92761 98.115 98.11491 98.115z" fill="#6f6f6f" opacity=".883"/><path d="m204.069 104.559c-.002 19.374-5.748 38.312-16.513 54.419-10.765 16.108-26.065 28.662-43.964 36.074-17.9 7.413-37.595 9.351-56.5964 5.569-19.0011-3.781-36.4541-13.112-50.1522-26.812-13.698-13.701-23.0258-31.155-26.8038-50.157-3.77794-19.002-1.83643-38.6969 5.579-56.5952 7.4155-17.8982 19.9719-33.1956 36.0814-43.9577 16.1094-10.7621 35.0485-16.50547 54.422-16.50388 25.979.00265 50.894 10.32518 69.262 28.69698 18.369 18.3717 28.687 43.2877 28.685 69.2668z" fill="#6e6e6e" opacity=".89"/><path d="m203.913 104.464c0 19.343-5.736 38.253-16.483 54.336s-26.022 28.618-43.893 36.02-37.536 9.339-56.5074 5.564c-18.9716-3.774-36.3979-13.09-50.0751-26.768-13.6772-13.679-22.9909-31.106-26.7634-50.078-3.77253-18.972-1.83434-38.6369 5.5694-56.5073 7.4038-17.8704 19.9407-33.144 36.0251-43.8892s34.9941-16.47941 54.3374-16.47744c25.937.00265 50.81 10.30774 69.149 28.64854 18.339 18.3407 28.641 43.215 28.641 69.1514z" fill="#6d6d6d" opacity=".896"/><path d="m203.755 104.368c0 19.312-5.727 38.191-16.456 54.248-10.73 16.057-25.98 28.572-43.822 35.962s-37.475 9.324-56.4162 5.555c-18.9409-3.768-36.3391-13.068-49.9942-26.725-13.6551-13.656-22.9539-31.055-26.7204-49.996-3.76654-18.942-1.83162-38.5746 5.56-56.4161 7.3917-17.8416 19.9081-33.0906 35.9665-43.8186 16.0583-10.7279 34.9373-16.45301 54.2493-16.45123 12.822.00014 25.519 2.52588 37.365 7.43303 11.845 4.9071 22.609 12.0995 31.675 21.1665s16.258 19.831 21.164 31.6773c4.906 11.8464 7.43 24.5431 7.429 37.3651z" fill="#6c6c6c" opacity=".902"/><path d="m203.599 104.281c-.001 19.28-5.719 38.127-16.431 54.157s-25.937 28.523-43.75 35.901c-17.813 7.377-37.413 9.306-56.322 5.544-18.9093-3.762-36.2782-13.047-49.9105-26.681-13.6323-13.633-22.9157-31.003-26.6762-49.913-3.76042-18.909-1.82911-38.5092 5.5498-56.3211 7.3788-17.812 19.8738-33.0359 35.9049-43.7465 16.0311-10.7107 34.8782-16.42703 54.158-16.42623 12.802-.00014 25.478 2.52139 37.305 7.42063 11.827 4.8991 22.574 12.0801 31.625 21.1326 9.052 9.0526 16.232 19.7995 21.13 31.627 4.898 11.8276 7.418 24.5041 7.417 37.3056z" fill="#6b6b6b" opacity=".908"/><path d="m203.442 104.185c0 19.25-5.708 38.068-16.403 54.074s-25.897 28.481-43.682 35.847c-17.785 7.367-37.355 9.294-56.2352 5.537-18.8802-3.756-36.2225-13.026-49.8339-26.639-13.6113-13.613-22.8803-30.956-26.6347-49.836-3.75449-18.881-1.82577-38.4508 5.5422-56.2352 7.368-17.7844 19.8443-32.9845 35.8512-43.6781 16.0068-10.6935 34.8253-16.40028 54.0754-16.3985 25.812.00159 50.566 10.2567 68.817 28.5093 18.251 18.2527 28.504 43.0078 28.503 68.8195z" fill="#6a6a6a" opacity=".914"/><path d="m203.277 104.09c-.001 19.218-5.701 38.003-16.379 53.981-10.677 15.978-25.853 28.431-43.608 35.784-17.755 7.352-37.292 9.275-56.1397 5.525-18.8478-3.751-36.1602-13.006-49.7478-26.596-13.5877-13.59-22.8404-30.903-26.588-49.752-3.74757-18.848-1.82176-38.3846 5.5339-56.1385 7.3557-17.7539 19.8108-32.9279 35.7904-43.603 15.9796-10.6752 34.7659-16.37211 53.9832-16.37033 12.76.00026 25.395 2.51392 37.183 7.39743 11.788 4.8835 22.499 12.0413 31.521 21.0645s16.178 19.7352 21.059 31.5242c4.882 11.789 7.394 24.4241 7.392 37.1837z" fill="#696969" opacity=".92"/><path d="m203.129 103.994c.002 19.189-5.687 37.947-16.346 53.903-10.66 15.955-25.812 28.391-43.539 35.735-17.728 7.344-37.235 9.266-56.0556 5.523-18.8201-3.743-36.1075-12.983-49.676-26.551-13.5685-13.569-22.8085-30.856-26.5516-49.676-3.74311-18.82-1.82111-38.3278 5.5229-56.0555 7.344-17.7277 19.7802-32.8795 35.7358-43.539 15.9556-10.6596 34.7139-16.34822 53.9025-16.34644 25.728.00106 50.401 10.22174 68.593 28.41384s28.413 42.8656 28.414 68.5931z" fill="#686868" opacity=".926"/><path d="m202.965 103.907c-.001 19.155-5.683 37.88-16.327 53.806-10.643 15.926-25.77 28.339-43.468 35.668s-37.171 9.245-55.9584 5.507c-18.787-3.739-36.0434-12.965-49.5871-26.511-13.5438-13.546-22.7665-30.803-26.502-49.591-3.73546-18.788-1.81587-38.261 5.516-55.9576 7.3319-17.6966 19.7468-32.8216 35.6747-43.4624 15.928-10.6408 34.6536-16.31949 53.8088-16.3179 12.719.00026 25.313 2.50589 37.064 7.3738 11.75 4.8679 22.427 12.0027 31.42 20.9971 8.992 8.9943 16.125 19.672 20.991 31.4233 4.866 11.7512 7.37 24.3459 7.368 37.0647z" fill="#676767" opacity=".933"/><path d="m202.812 103.811c.001 19.126-5.669 37.823-16.295 53.726-10.625 15.904-25.727 28.299-43.397 35.618-17.67 7.32-37.114 9.235-55.8728 5.504-18.7586-3.731-35.9894-12.941-49.5134-26.466-13.524-13.524-22.7336-30.755-26.4643-49.514-3.73066-18.759-1.81475-38.2023 5.5054-55.8721 7.3202-17.6699 19.7159-32.7721 35.6195-43.3968 15.9035-10.6247 34.6006-16.29469 53.7266-16.29291 25.644.00238 50.237 10.19061 68.369 28.32381 18.133 18.1332 28.32 42.7264 28.322 68.37z" fill="#666" opacity=".939"/><path d="m202.651 103.716c0 19.094-5.662 37.759-16.27 53.635s-25.686 28.249-43.326 35.556c-17.641 7.306-37.052 9.217-55.7788 5.492-18.7268-3.726-35.9282-12.921-49.4289-26.423-13.5008-13.502-22.6944-30.705-26.4183-49.432-3.72395-18.727-1.8109-38.1376 5.4972-55.7775s19.683-32.7164 35.5598-43.3231c15.8768-10.6066 34.5423-16.26696 53.636-16.26518 25.602.00266 50.154 10.17478 68.257 28.27878 18.102 18.1041 28.272 42.6574 28.272 68.259z" fill="#656565" opacity=".945"/><path d="m202.497 103.62c0 19.063-5.653 37.697-16.243 53.547-10.591 15.85-25.644 28.204-43.256 35.498-17.612 7.295-36.991 9.203-55.6871 5.484-18.6963-3.719-35.8697-12.899-49.3486-26.379s-22.6578-30.654-26.376-49.35c-3.71821-18.697-1.80869-38.0761 5.4871-55.6873 7.2958-17.6112 19.6501-32.6635 35.5006-43.2532 15.8506-10.5898 34.4855-16.24143 53.548-16.24024 12.657-.0004 25.19 2.49235 36.883 7.33584 11.693 4.8436 22.318 11.943 31.268 20.893 8.949 8.9499 16.048 19.5751 20.891 31.2687 4.842 11.6937 7.334 24.2267 7.333 36.8832z" fill="#646464" opacity=".951"/><path d="m202.336 103.533c0 19.032-5.644 37.636-16.217 53.46-10.574 15.824-25.603 28.158-43.186 35.44-17.583 7.283-36.931 9.188-55.5969 5.474-18.6659-3.713-35.8114-12.879-49.2682-26.337-13.4567-13.458-22.6204-30.604-26.3321-49.271-3.71169-18.666-1.80471-38.0137 5.4798-55.5962 7.2845-17.5824 19.6193-32.6099 35.4446-43.1819s34.4302-16.2138 53.4618-16.21182c25.519.00212 49.991 10.14102 68.035 28.18632 18.043 18.0453 28.18 42.5191 28.179 68.0376z" fill="#636363" opacity=".957"/><path d="m202.172 103.438c-.002 18.999-5.637 37.57-16.194 53.366-10.556 15.796-25.56 28.107-43.113 35.376-17.553 7.268-36.868 9.169-55.5009 5.461-18.6333-3.709-35.7485-12.859-49.1813-26.294-13.4328-13.436-22.58-30.553-26.2847-49.187-3.7047-18.633-1.8006-37.9476 5.4715-55.4994s19.5857-32.553 35.3835-43.1066 34.3703-16.18566 53.3689-16.18388c25.476.00371 49.907 10.12688 67.92 28.14288 18.013 18.0159 28.131 42.4491 28.13 67.925z" fill="#626262" opacity=".963"/><path d="m202.025 103.341c0 18.97-5.625 37.514-16.165 53.287-10.539 15.772-25.519 28.065-43.045 35.324s-36.811 9.158-55.4162 5.456c-18.6053-3.701-35.6949-12.837-49.1079-26.251-13.413-13.415-22.5467-30.506-26.2462-49.111-3.69954-18.606-1.7986-37.8907 5.4624-55.416 7.2609-17.5252 19.5558-32.5037 35.3297-43.0413 15.7739-10.5375 34.3184-16.1607 53.2882-16.15852 25.435.00265 49.828 10.10872 67.813 28.09532 17.984 17.9865 28.087 42.3803 28.087 67.8155z" fill="#616161" opacity=".969"/><path d="m201.859 103.246c0 18.937-5.616 37.449-16.137 53.195-10.521 15.745-25.475 28.017-42.971 35.264-17.495 7.246-36.747 9.142-55.3203 5.447-18.5732-3.695-35.6335-12.815-49.0234-26.206-13.39-13.392-22.5082-30.453-26.2016-49.026-3.69332-18.574-1.7959-37.8253 5.4522-55.3204 7.2482-17.4951 19.5216-32.448 35.2681-42.9676 15.7466-10.5196 34.259-16.13354 53.196-16.13176 12.573.00053 25.023 2.4775 36.639 7.28946 11.615 4.812 22.169 11.8648 31.059 20.7556 8.89 8.8909 15.942 19.4457 20.753 31.0618 4.811 11.6162 7.287 24.0662 7.286 36.6389z" fill="#606060" opacity=".975"/><path d="m201.711 103.159c0 18.908-5.607 37.392-16.112 53.114-10.505 15.721-25.436 27.974-42.906 35.21-17.469 7.235-36.691 9.128-55.2362 5.438-18.5449-3.689-35.5791-12.795-48.9486-26.166-13.3696-13.371-22.4738-30.406-26.1614-48.951-3.68762-18.546-1.793-37.7679 5.4443-55.2364 7.2373-17.4684 19.4921-32.3984 35.2148-42.9019 15.7226-10.5034 34.2069-16.1086 53.1151-16.10662 12.554.00013 24.985 2.47302 36.583 7.27762 11.598 4.8045 22.136 11.8465 31.013 20.7239 8.876 8.8774 15.917 19.4162 20.72 31.0149 4.804 11.5986 7.275 24.0297 7.274 36.5835z" fill="#5f5f5f" opacity=".982"/><path d="m201.546 103.063c0 18.875-5.597 37.327-16.084 53.021s-25.392 27.926-42.83 35.149c-17.439 7.222-36.628 9.112-55.1403 5.429-18.5124-3.683-35.5169-12.773-48.8631-26.121-13.3462-13.347-22.4346-30.353-26.1159-48.865-3.68127-18.513-1.7901-37.7018 5.4344-55.1397 7.2245-17.438 19.4578-32.342 35.1528-42.8272 15.6951-10.4852 34.1469-16.08075 53.0221-16.07897 25.309.00238 49.58 10.05797 67.476 27.95487 17.895 17.8969 27.948 42.1693 27.948 67.478z" fill="#5e5e5e" opacity=".988"/><path d="m201.398 102.967c.002 18.847-5.585 37.27-16.055 52.941-10.469 15.671-25.35 27.885-42.762 35.098-17.411 7.213-36.571 9.101-55.0549 5.425-18.4843-3.677-35.4633-12.752-48.7897-26.078-13.3264-13.327-22.4016-30.306-26.0779-48.79-3.67626-18.484-1.7885-37.6436 5.4245-55.055s19.4273-32.2928 35.0982-42.7622c15.6709-10.4693 34.0945-16.05642 52.9408-16.05464 25.269.0008 49.502 10.03904 67.37 27.90654 17.867 17.8676 27.905 42.1009 27.906 67.3693z" fill="#5d5d5d" opacity=".994"/><path d="m201.233 102.872c0 18.814-5.579 37.204-16.031 52.847s-25.309 27.834-42.69 35.033c-17.382 7.2-36.508 9.083-54.9592 5.412-18.4517-3.671-35.4005-12.731-48.7029-26.035s-22.361-30.253-26.0302-48.705c-3.66922-18.452-1.7842-37.5781 5.4165-54.9589 7.2008-17.3807 19.394-32.2358 35.0376-42.6867 15.6436-10.4508 34.0349-16.02798 52.8482-16.0262 12.491-.00013 24.86 2.4602 36.4 7.2405s22.025 11.7869 30.857 20.6198c8.832 8.8328 15.838 19.3189 20.617 30.8594s7.238 23.9094 7.237 36.4001z" fill="#5c5c5c"/><path d="m209.348 104.672c0 20.702-6.138 40.94-17.639 58.154-11.502 17.213-27.849 30.63-46.975 38.553-19.127 7.923-40.173 9.997-60.4778 5.958-20.3047-4.038-38.9561-14.006-53.5954-28.645-14.6393-14.638-24.60912-33.289-28.64872-53.593-4.03959-20.305-1.9675272-41.3512 5.95417-60.4781 7.92175-19.1269 21.33725-35.4752 38.55015-46.9776 17.213-11.5024 37.4502-17.6423111 58.1526-17.6433 27.761.00026512 54.386 11.028 74.017 30.6576 19.63 19.6295 30.66 46.2531 30.662 74.0144z" fill="url(#b)"/><path d="m205.468 104.672c.002 19.937-5.908 39.426-16.983 56.004s-26.818 29.499-45.236 37.129c-18.419 7.631-38.687 9.628-58.2409 5.74s-37.5156-13.488-51.6136-27.585c-14.0979-14.097-23.69902-32.058-27.58903-51.611-3.89001-19.554-1.89422-39.8219 5.73503-58.2412 7.6292-18.4193 20.5491-34.1626 37.1259-45.2389 16.5768-11.07636 36.0659-16.98824 56.0026-16.98804 26.732.00026 52.369 10.61914 71.273 29.52084 18.903 18.9017 29.524 44.5381 29.526 71.2703z" fill="url(#c)"/><path d="m205.468 104.672c.002 19.937-5.908 39.426-16.983 56.004s-26.818 29.499-45.236 37.129c-18.419 7.631-38.687 9.628-58.2409 5.74s-37.5156-13.488-51.6136-27.585c-14.0979-14.097-23.69902-32.058-27.58903-51.611-3.89001-19.554-1.89422-39.8219 5.73503-58.2412 7.6292-18.4193 20.5491-34.1626 37.1259-45.2389 16.5768-11.07636 36.0659-16.98824 56.0026-16.98804 26.732.00026 52.369 10.61914 71.273 29.52084 18.903 18.9017 29.524 44.5381 29.526 71.2703zm-108.9519-90.3711-.809-.835c-1.0321-1.0648-2.3105-1.859-3.7223-2.3124-1.4119-.4534-2.9137-.552-4.3727-.2872s-2.8303.8849-3.9928 1.8056c-1.1624.9206-2.0802 2.1134-2.6722 3.473l-.47 1.061-.939-.67c-1.2055-.8645-2.6054-1.4186-4.0759-1.6132-1.4706-.1946-2.9664-.0238-4.3553.4974-1.3888.5211-2.6277 1.3765-3.6073 2.4905-.9795 1.114-1.6693 2.4522-2.0085 3.8963l-.27 1.131-1.052-.5c-1.3411-.6341-2.8177-.9281-4.2994-.8562-1.4817.072-2.9229.5078-4.1962 1.2689s-2.3395 1.8241-3.1046 3.095c-.765 1.271-1.2052 2.7108-1.2818 4.1923l-.052 1.157-1.131-.3c-1.4323-.384-2.9372-.4094-4.3817-.0741s-2.7842 1.021-3.9009 1.9966c-1.1168.9756-1.9762 2.2112-2.5024 3.5976-.5263 1.3863-.7031 2.8809-.515 4.3519l.148 1.157-1.157-.1c-1.478-.1215-2.9632.1226-4.3247.7106-1.3614.5881-2.5572 1.5021-3.482 2.6614-.9247 1.1594-1.5501 2.5285-1.8208 3.9865-.2707 1.4581-.1785 2.9604.2685 4.3745l.357 1.1-1.157.113c-1.4764.1424-2.8949.6466-4.13 1.4678s-2.2488 1.9342-2.9513 3.2405c-.7026 1.3062-1.0724 2.7655-1.0767 4.2487s.357 2.9446 1.052 4.255l.539 1.026-1.122.322c-1.4269.4047-2.7321 1.1546-3.8002 2.1835-1.0682 1.029-1.8665 2.3052-2.3243 3.7159-.4577 1.4108-.561 2.9125-.3005 4.3726s.8766 2.8336 1.794 3.999l.722.913-1.044.513c-1.3322.652-2.483 1.6223-3.3508 2.8251s-1.4257 2.601-1.6243 4.0707c-.19864 1.4698-.03191 2.9659.4854 4.3559.5174 1.39 1.3694 2.631 2.4807 3.6133l.861.7741-.931.7c-1.193.88-2.151 2.04-2.7895 3.378-.63851 1.338-.93787 2.813-.87165 4.294.06621 1.481.49596 2.922 1.25135 4.198.7553 1.276 1.813 2.346 3.0798 3.116l.992.6-.8.844c-1.0159 1.08-1.7505 2.393-2.1391 3.824s-.4192 2.935-.0892 4.381c.33 1.445 1.0105 2.787 1.9815 3.908.9711 1.12 2.2029 1.985 3.5868 2.517l1.087.417-.635.974c-.8085 1.244-1.2981 2.668-1.4254 4.146s.1115 2.964.6954 4.328 1.4948 2.563 2.6522 3.491 2.5257 1.556 3.9838 1.83l1.131.217-.444 1.079c-.5736 1.368-.8012 2.856-.6627 4.333.1385 1.476.6388 2.896 1.4566 4.134.8178 1.237 1.928 2.254 3.2323 2.96s2.7626 1.08 4.2458 1.089l1.157.009-.252 1.139c-.3169 1.448-.2728 2.952.1285 4.38.4012 1.427 1.1472 2.734 2.1723 3.805 1.0252 1.071 2.2979 1.874 3.7063 2.337 1.4083.464 2.909.574 4.3699.321l1.139-.209-.044 1.166c-.056 1.481.2536 2.954.9014 4.287s1.6139 2.487 2.8129 3.359c1.1991.871 2.5943 1.434 4.0626 1.639 1.4682.205 2.9642.045 4.3561-.465l1.1-.4.165 1.148c.2099 1.468.7777 2.861 1.6535 4.058.8758 1.196 2.0325 2.159 3.3682 2.803s2.8093.949 4.2909.888c1.4815-.06 2.9254-.484 4.2044-1.234l1.009-.591.365 1.1c.4679 1.408 1.2755 2.678 2.3514 3.699 1.0759 1.022 2.387 1.762 3.8171 2.156 1.4302.394 2.9354.429 4.3824.103 1.4471-.327 2.7914-1.005 3.9141-1.974l.878-.748.557 1.018c.713 1.3 1.7349 2.404 2.9756 3.216 1.2408.811 2.6622 1.305 4.1389 1.437 1.4767.133 2.9632-.1 4.3284-.679 1.365-.578 2.567-1.483 3.5-2.635l.731-.9.739.9c.934 1.15 2.136 2.053 3.5 2.63 1.365.576 2.851.808 4.326.674 1.476-.133 2.896-.627 4.135-1.438 1.24-.812 2.261-1.915 2.973-3.214l.565-1.018.878.748c1.122.969 2.466 1.646 3.912 1.972 1.446.327 2.951.291 4.38-.103 1.43-.394 2.74-1.134 3.815-2.155s1.882-2.291 2.349-3.698l.365-1.1 1.018.591c1.278.75 2.722 1.175 4.203 1.235s2.954-.245 4.289-.889 2.491-1.607 3.366-2.803c.875-1.197 1.442-2.591 1.65-4.058l.165-1.148 1.1.4c1.392.51 2.888.67 4.356.465s2.864-.768 4.063-1.639c1.199-.872 2.165-2.026 2.813-3.359.647-1.333.957-2.806.901-4.287l-.043-1.166 1.148.209c1.461.252 2.961.141 4.369-.323 1.407-.465 2.679-1.268 3.703-2.339 1.024-1.072 1.77-2.378 2.17-3.806.4-1.427.444-2.93.126-4.378l-.261-1.139 1.174-.009c1.483-.009 2.94-.384 4.243-1.091s2.412-1.724 3.228-2.962c.816-1.237 1.315-2.657 1.451-4.133.137-1.477-.093-2.964-.668-4.33l-.435-1.079 1.131-.217c1.459-.273 2.828-.901 3.986-1.829 1.157-.928 2.068-2.127 2.652-3.491.583-1.365.821-2.852.693-4.33-.129-1.478-.62-2.902-1.431-4.145l-.626-.974 1.087-.417c1.386-.53 2.619-1.394 3.592-2.514.972-1.12 1.654-2.463 1.984-3.909.33-1.447.299-2.952-.091-4.384-.39-1.431-1.127-2.744-2.145-3.823l-.8-.844.992-.6c1.267-.77 2.325-1.84 3.08-3.116s1.185-2.717 1.251-4.198-.233-2.956-.871-4.294c-.639-1.338-1.597-2.498-2.79-3.378l-.931-.7.878-.7741c1.108-.9851 1.956-2.2276 2.47-3.6179s.679-2.8858.478-4.3546c-.2-1.4687-.758-2.8657-1.626-4.0677-.867-1.202-2.017-2.1721-3.348-2.8248l-1.044-.513.722-.913c.914-1.1664 1.527-2.5397 1.784-3.9989.258-1.4591.152-2.9593-.307-4.368-.459-1.4088-1.258-2.6829-2.326-3.71-1.068-1.027-2.372-1.7754-3.798-2.1791l-1.122-.322.539-1.026c.695-1.31 1.056-2.7708 1.052-4.2535s-.374-2.9416-1.075-4.2476c-.702-1.3061-1.715-2.4191-2.949-3.2407-1.235-.8217-2.652-1.3266-4.128-1.4702l-1.166-.113.348-1.1c.449-1.4134.543-2.9156.274-4.3738-.27-1.4583-.894-2.8278-1.818-3.9876-.924-1.1597-2.12-2.074-3.481-2.662-1.362-.5881-2.847-.8318-4.325-.7096l-1.157.1.148-1.157c.188-1.471.011-2.9656-.515-4.3519-.526-1.3864-1.386-2.622-2.502-3.5976-1.117-.9756-2.457-1.6613-3.901-1.9966-1.445-.3353-2.95-.3099-4.382.0741l-1.122.3-.07-1.157c-.075-1.4813-.513-2.9213-1.277-4.1926-.764-1.2712-1.83-2.3346-3.103-3.0959-1.272-.7614-2.713-1.1972-4.195-1.269-1.481-.0718-2.957.2227-4.298.8575l-1.052.5-.27-1.131c-.339-1.4438-1.028-2.7819-2.007-3.8959-.979-1.1141-2.217-1.9698-3.605-2.4915-1.388-.5216-2.884-.6932-4.354-.4996-1.47.1937-2.87.7466-4.076 1.61l-.939.67-.47-1.061c-.592-1.3596-1.51-2.5524-2.672-3.473-1.163-.9207-2.534-1.5408-3.993-1.8056s-2.961-.1662-4.373.2872c-1.411.4534-2.69 1.2476-3.722 2.3124l-.809.835-.644-.965c-.824-1.2328-1.94-2.2434-3.248-2.9422-1.309-.69882-2.769-1.06441-4.252-1.06441s-2.943.36559-4.251 1.06441c-1.3086.6988-2.4244 1.7094-3.2489 2.9422z" fill="url(#d)"/><path d="m112.415 197.807c-1.017.001-2.022-.226-2.94-.664s-1.727-1.076-2.366-1.867l-.731-.9c-.205-.254-.464-.459-.758-.601-.294-.141-.616-.215-.942-.217h-.009c-.328 0-.652.074-.949.216-.296.141-.557.347-.764.602l-.739.9c-.637.793-1.444 1.432-2.3611 1.87-.9175.438-1.922.664-2.9388.661-.209 0-.409-.009-.609-.026-1.1183-.098-2.1951-.471-3.1344-1.085-.9394-.615-1.7122-1.453-2.2496-2.438l-.557-1.018c-.1573-.288-.3774-.536-.6441-.726-.2667-.191-.5729-.319-.8959-.374-.1286-.028-.2596-.042-.391-.043-.5292 0-1.0411.188-1.444.531l-.878.757c-.8491.731-1.865 1.242-2.9582 1.488s-2.23.219-3.3104-.078c-1.0803-.298-2.0709-.856-2.8843-1.627-.8135-.77-1.4248-1.729-1.7801-2.792l-.365-1.113c-.1048-.309-.2769-.591-.504-.826s-.5034-.416-.809-.531c-.2478-.092-.5098-.139-.774-.139-.3941-.002-.7814.102-1.122.3l-1 .591c-.9662.567-2.057.888-3.1764.934-1.1193.046-2.2329-.183-3.2425-.669-1.0097-.485-1.8845-1.212-2.5473-2.115-.6629-.903-1.0934-1.955-1.2538-3.064l-.165-1.157c-.0742-.527-.3358-1.009-.7368-1.358-.4011-.349-.9146-.541-1.4462-.542-.261.003-.5196.05-.765.139l-1.1.4c-.7487.278-1.5413.42-2.34.418-.9175-.001-1.8255-.186-2.6697-.545-.8443-.36-1.6074-.886-2.2439-1.546-.6365-.661-1.1333-1.444-1.4606-2.301-.3274-.857-.4787-1.771-.4448-2.688l.043-1.166c.0086-.328-.0548-.653-.1856-.954-.1307-.301-.3258-.569-.5714-.786-.401-.354-.918-.549-1.453-.548-.1251 0-.2501.009-.374.026l-1.148.209c-.3876.068-.7805.101-1.174.1-1.0208 0-2.0286-.229-2.9492-.67-.9207-.441-1.7308-1.082-2.3708-1.877-.64-.796-1.0936-1.724-1.3274-2.718-.2338-.993-.2419-2.027-.0236-3.024l.261-1.139c.0689-.321.0665-.654-.0071-.974s-.2166-.62-.4189-.879c-.2056-.257-.4662-.465-.7627-.608-.2964-.143-.6212-.217-.9503-.218l-1.157-.009c-1.1225-.006-2.2262-.289-3.2132-.823-.9871-.535-1.8271-1.305-2.4456-2.241-.6185-.937-.9964-2.012-1.1002-3.13-.1038-1.117.0696-2.243.505-3.278l.452-1.07c.1259-.303.1826-.631.1661-.959-.0165-.327-.1059-.648-.2616-.937-.1558-.289-.3739-.539-.6387-.733-.2647-.195-.5694-.327-.8918-.389l-1.148-.217c-1.102-.207-2.1358-.683-3.0101-1.385s-1.562-1.609-2.0023-2.64-.6196-2.155-.522-3.272c.0975-1.117.469-2.193 1.0814-3.132l.635-.974c.1796-.275.2949-.586.3371-.912.0423-.325.0104-.656-.0931-.967-.1006-.313-.2694-.599-.4942-.838-.2249-.239-.5001-.425-.8058-.545l-1.087-.418c-1.0477-.401-1.9804-1.054-2.7157-1.901-.7352-.847-1.2503-1.863-1.4998-2.956-.2494-1.094-.2255-2.232.0697-3.314.2952-1.083.8526-2.076 1.6228-2.891l.8-.844c.2234-.24.3908-.527.49-.84s.1278-.644.0837-.969-.1598-.637-.3387-.912-.4166-.507-.696-.679l-.992-.6c-.9585-.582-1.7589-1.391-2.3308-2.355-.5718-.964-.8975-2.055-.9482-3.175s.1751-2.235.6575-3.247 1.2065-1.89 2.1085-2.556l.939-.687c.2639-.194.4807-.445.6343-.734.1535-.289.2399-.609.2527-.936.0186-.329-.0383-.657-.1664-.9599-.1281-.303-.324-.5727-.5726-.7881l-.861-.774c-.8397-.7432-1.4834-1.6817-1.8745-2.7326-.391-1.051-.5173-2.182-.3676-3.2933.1496-1.1113.5705-2.1686 1.2256-3.0787.6551-.91 1.5241-1.6448 2.5305-2.1395l1.044-.5c.2961-.1444.5562-.3533.761-.6114s.3492-.5588.4226-.8801c.0734-.3212.0738-.6548.0014-.9762s-.216-.6226-.42-.8813l-.722-.9c-.6923-.8826-1.1567-1.9222-1.3522-3.0268-.1956-1.1046-.1162-2.2404.2311-3.3071.3472-1.0667.9517-2.0315 1.7601-2.8094.8083-.7778 1.7957-1.3447 2.875-1.6507l1.113-.3129c.3147-.092.6054-.2517.8518-.468.2463-.2163.4423-.4839.5742-.784.1299-.3024.1904-.6301.1769-.9589s-.1006-.6504-.2549-.9411l-.548-1.026c-.5233-.9922-.7943-2.0979-.7894-3.2196.005-1.1216.2858-2.2249.8178-3.2124s1.2988-1.8289 2.2328-2.4501c.9339-.6212 2.0064-1.0031 3.1228-1.1119l1.148-.113c.3274-.0311.6437-.1352.9256-.3047.2818-.1694.5221-.3999.7032-.6745.181-.2746.2982-.5863.3429-.9121.0447-.3259.0157-.6576-.0847-.9707l-.348-1.1c-.3241-1.0229-.4025-2.1077-.2289-3.1666.1736-1.0588.5943-2.0618 1.228-2.9276s1.4626-1.5701 2.4194-2.0557c.9567-.4856 2.0145-.7388 3.0875-.7391.191 0 .374.009.565.017 0 0 1.279.1 1.339.1.3128-.0003.622-.0669.9071-.1955s.5397-.3163.7469-.5506.3623-.51.455-.8087c.0928-.2988.1211-.6138.083-.9242l-.157-1.157c-.1426-1.1128-.0088-2.2435.3894-3.2923.3983-1.0488 1.0487-1.9833 1.8939-2.7211.8451-.7377 1.859-1.2558 2.952-1.5087 1.093-.2528 2.2314-.2326 3.3147.059l1.122.3c.188.0452.3806.0687.574.0701.4626.0016.9136-.1449 1.287-.4181.2653-.1933.484-.4437.6397-.7327.1558-.289.2447-.6093.2603-.9372l.07-1.166c.0564-1.1198.3883-2.2083.9662-3.1691.5778-.9608 1.3839-1.7641 2.3465-2.3388.9627-.5747 2.0524-.9029 3.1723-.9556s2.2356.1717 3.248.6535l1.052.5c.2964.1396.6204.2112.9481.2096s.6509-.0764.946-.2189.5546-.3492.7596-.6048c.205-.2557.3503-.5539.4253-.8729l.27-1.131c.2566-1.0917.7782-2.1033 1.5188-2.9454s1.6773-1.4887 2.7273-1.8826c1.05-.3938 2.1808-.5229 3.2926-.3757 1.1117.1472 2.17.5661 3.0813 1.2197l.948.67c.371.2718.819.4183 1.279.418.2002.0009.3995-.0285.591-.087.3157-.0868.6082-.2426.8563-.4562.2482-.2136.4459-.4796.5787-.7788l.461-1.07c.4494-1.0271 1.1447-1.9278 2.0245-2.6226.8799-.6948 1.9172-1.1624 3.0205-1.3614.3984-.0764.8033-.1143 1.209-.113.9153.0024 1.8211.1867 2.6646.542.8436.3554 1.6082.8747 2.2494 1.528l.8.835c.205.2126.451.3815.723.4967.2721.1151.5646.1741.86.1733l.191-.009c.3273-.0286.644-.1301.9269-.2971.283-.167.5249-.3952.7081-.6679l.652-.965c.624-.9315 1.4679-1.6949 2.4569-2.2228s2.093-.804 3.214-.804 2.225.2761 3.214.804 1.833 1.2913 2.457 2.2228l.644.965c.186.2722.43.4999.714.6667s.602.2687.93.2983l.191.009c.295.0008.588-.0582.86-.1733.272-.1152.518-.2841.723-.4967l.809-.835c.638-.6534 1.4-1.173 2.242-1.5284.841-.3554 1.745-.5395 2.658-.5416.411-.0013.822.0366 1.226.113 1.103.2 2.14.6679 3.02 1.3626.879.6946 1.575 1.5948 2.025 2.6214l.452 1.07c.132.3.329.5667.577.7805.249.2137.542.369.858.4545.192.0586.391.0879.591.087.46.0016.909-.1449 1.279-.418l.948-.67c.91-.6545 1.967-1.0745 3.078-1.223 1.111-.1484 2.241-.0207 3.291.3718 1.05.3926 1.987 1.0379 2.728 1.8788s1.263 1.8515 1.52 2.9424l.278 1.131c.111.4839.384.9157.773 1.2245.388.3089.871.4765 1.367.4755.327-.0007.651-.072.948-.209l1.044-.5c1.013-.4803 2.129-.7037 3.249-.6504s2.209.3816 3.172.9558c.963.5743 1.77 1.3769 2.349 2.337.579.96.913 2.0479.972 3.1676l.052 1.168c.02.3284.112.6485.27.9372.157.2887.377.5389.643.7328.378.2741.833.4205 1.3.4179.193-.0018.386-.0253.574-.07l1.113-.2999c1.083-.2901 2.221-.3092 3.313-.0558 1.093.2534 2.106.7717 2.951 1.509.844.7374 1.495 1.6713 1.894 2.7193.398 1.048.533 2.178.392 3.2905l-.157 1.157c-.039.3257-.005.6559.099.9671.103.3112.275.5956.501.8329.205.2152.453.3864.726.5029.274.1166.569.1762.866.1751.061 0 1.348-.1 1.348-.1.183-.009.365-.017.557-.017 1.074-.0019 2.133.25 3.091.7349.958.485 1.787 1.1894 2.422 2.0558.634.8664 1.054 1.8704 1.227 2.9301s.092 2.1453-.234 3.1682l-.348 1.1c-.103.3131-.134.6456-.09.9723.043.3268.16.6396.342.9148.181.2753.423.5059.706.6747s.601.2714.929.3002l1.157.113c1.115.1098 2.186.4921 3.118 1.1131s1.697 1.4617 2.228 2.4481c.531.9863.812 2.0881.817 3.2083s-.266 2.2244-.788 3.2155l-.552 1.034c-.154.2906-.241.6123-.255.9411-.013.3288.047.6565.177.9589.131.3021.328.5712.576.7877.249.2166.542.3752.859.4643l1.113.313c1.078.3074 2.064.8753 2.871 1.6537.807.7783 1.411 1.7432 1.757 2.8096s.425 2.2016.229 3.3055c-.196 1.104-.66 2.1429-1.352 3.0252l-.713.9c-.205.2577-.35.5584-.424.8796-.074.3213-.074.6551-.001.9766.072.3215.216.6225.421.8809s.465.4675.761.6119l1.044.5c1.006.4952 1.874 1.2298 2.529 2.1392.655.9095 1.077 1.9659 1.228 3.0765s.027 2.2413-.361 3.2928c-.388 1.0514-1.028 1.9915-1.865 2.7374l-.879.7741c-.245.2177-.439.4875-.566.7897-.128.3023-.186.6293-.171.9563.015.328.103.648.258.937.154.29.372.541.636.735l.931.7c.902.665 1.626 1.542 2.108 2.554.483 1.011.708 2.126.658 3.245-.051 1.12-.377 2.209-.949 3.173-.571.964-1.372 1.772-2.33 2.353l-.992.6c-.279.173-.516.405-.695.681-.179.275-.295.586-.34.911s-.017.657.082.97.267.599.492.839l.8.844c.771.815 1.329 1.808 1.625 2.891.296 1.082.32 2.221.071 3.315s-.765 2.11-1.501 2.957c-.735.848-1.669 1.5-2.717 1.901l-1.087.409c-.306.119-.581.305-.807.543-.225.239-.395.524-.496.837-.102.312-.133.642-.091.968s.156.638.333.914l.635.974c.612.939.984 2.015 1.081 3.132.098 1.117-.081 2.241-.522 3.272-.44 1.031-1.128 1.938-2.002 2.64s-1.908 1.178-3.01 1.385l-1.139.217c-.323.06-.629.192-.895.385-.266.194-.486.445-.642.734-.157.289-.247.61-.264.938-.017.329.04.657.166.961l.452 1.07c.435 1.034.609 2.159.505 3.276-.103 1.117-.48 2.191-1.098 3.128-.617.936-1.456 1.706-2.442 2.241-.986.536-2.088.819-3.21.827l-1.166.009c-.327 0-.651.074-.945.217-.295.143-.553.351-.755.609-.205.257-.351.557-.426.877-.075.321-.078.654-.009.976l.261 1.139c.218.997.21 2.031-.024 3.024-.233.994-.687 1.922-1.327 2.718-.64.795-1.45 1.436-2.371 1.877-.92.441-1.928.67-2.949.67-.393.001-.786-.032-1.174-.1l-1.148-.209c-.124-.018-.249-.026-.374-.026-.297-.002-.591.057-.865.172-.273.116-.52.286-.726.5s-.366.467-.471.745c-.104.278-.151.574-.138.871l.035 1.157c.044 1.12-.189 2.233-.678 3.242s-1.219 1.881-2.125 2.541c-.907.659-1.961 1.085-3.071 1.24-1.111.155-2.242.034-3.294-.352l-1.087-.4c-.246-.088-.504-.135-.765-.139-.398 0-.789.108-1.131.313-.281.17-.522.4-.704.673-.182.274-.3.585-.348.91l-.165 1.148c-.155 1.111-.581 2.166-1.242 3.073-.661.906-1.535 1.635-2.545 2.122-1.011.487-2.126.717-3.246.67-1.121-.048-2.212-.371-3.178-.942l-1.009-.591c-.338-.196-.722-.3-1.113-.3-.264-.002-.527.045-.774.139-.307.115-.584.296-.813.53-.228.235-.402.517-.509.827l-.365 1.113c-.353 1.064-.963 2.025-1.776 2.797-.814.773-1.805 1.332-2.886 1.63-.589.164-1.198.246-1.809.244-1.636-.003-3.218-.589-4.462-1.653l-.878-.765c-.402-.339-.909-.527-1.435-.531-.134.001-.268.015-.4.043-.322.057-.628.185-.894.375-.267.191-.487.438-.645.725l-.557 1.018c-.536.984-1.308 1.821-2.246 2.436-.937.614-2.012.988-3.129 1.087-.218.031-.418.038-.631.038zm.418-2.218c.756-.068 1.484-.321 2.12-.737.635-.415 1.159-.981 1.524-1.646l.548-1.018c.316-.576.756-1.075 1.289-1.46.533-.384 1.145-.645 1.792-.764.646-.118 1.311-.091 1.946.08.634.171 1.223.482 1.722.909l.878.765c.843.723 1.916 1.121 3.027 1.122.414-.003.826-.058 1.226-.165.732-.206 1.402-.588 1.953-1.112.55-.525.963-1.176 1.204-1.897l.365-1.1c.21-.623.556-1.192 1.014-1.664.457-.472 1.014-.837 1.63-1.067.492-.187 1.014-.281 1.54-.278.784 0 1.553.21 2.227.609l1 .591c.713.414 1.523.633 2.348.635 1.111-.004 2.184-.406 3.024-1.134.839-.728 1.39-1.733 1.551-2.832l.165-1.157c.152-1.05.677-2.01 1.479-2.705.801-.694 1.826-1.078 2.887-1.079.522.003 1.04.094 1.531.27l1.087.4c.506.191 1.042.288 1.583.287.622-.001 1.238-.127 1.81-.37.573-.244 1.09-.6 1.522-1.048s.769-.978.991-1.559c.223-.581.326-1.201.304-1.823l-.044-1.165c-.021-.591.076-1.181.288-1.734.211-.553.532-1.057.943-1.483.41-.427.902-.766 1.447-.997.545-.232 1.13-.352 1.722-.352.254-.001.507.019.757.061l1.148.2c.262.044.527.068.792.07.692-.001 1.375-.156 1.999-.455.623-.299 1.172-.734 1.606-1.273s.742-1.168.9-1.841c.159-.674.165-1.374.018-2.05l-.261-1.139c-.139-.642-.133-1.306.017-1.945.15-.64.44-1.237.85-1.75s.928-.929 1.519-1.216c.59-.288 1.237-.441 1.893-.447l1.157-.009c.76-.004 1.507-.196 2.175-.557.668-.362 1.236-.883 1.655-1.517.419-.633.675-1.361.746-2.117s-.046-1.519-.34-2.219l-.452-1.07c-.256-.606-.372-1.262-.341-1.919.032-.657.21-1.299.522-1.878s.75-1.081 1.282-1.468c.531-.388 1.143-.651 1.79-.771l1.139-.209c.746-.142 1.446-.465 2.038-.942.592-.476 1.057-1.091 1.354-1.79.298-.699.418-1.461.352-2.218-.067-.756-.32-1.485-.735-2.121l-.626-.974c-.358-.551-.588-1.176-.674-1.828s-.025-1.315.179-1.94c.203-.625.544-1.197.997-1.674.452-.476 1.006-.846 1.62-1.081l1.079-.409c.708-.272 1.339-.715 1.836-1.288.497-.574.846-1.261 1.015-2 .169-.74.154-1.51-.045-2.243-.198-.732-.573-1.405-1.093-1.958l-.8-.852c-.449-.479-.786-1.052-.986-1.677-.2-.626-.258-1.288-.17-1.939.089-.651.321-1.274.68-1.823.36-.55.837-1.012 1.398-1.354l.992-.591c.648-.394 1.189-.942 1.576-1.594.386-.652.607-1.39.642-2.147.036-.758-.116-1.512-.44-2.198-.325-.685-.813-1.28-1.421-1.733l-.939-.7c-.533-.386-.973-.888-1.284-1.468-.312-.58-.488-1.223-.516-1.881-.028-.657.092-1.3124.349-1.9178s.646-1.1459 1.138-1.5823l.87-.7739c.568-.5038 1.003-1.1397 1.267-1.8516s.349-1.4778.246-2.2301c-.102-.7523-.388-1.4679-.832-2.0834-.445-.6156-1.034-1.1122-1.716-1.4459l-1.044-.513c-.591-.2884-1.109-.7055-1.517-1.2208s-.695-1.1156-.84-1.7566c-.146-.6411-.145-1.3065.001-1.9473s.434-1.2407.843-1.7553l.713-.913c.468-.5976.781-1.3009.914-2.0481.132-.7473.078-1.5155-.157-2.2372-.234-.7216-.643-1.3745-1.189-1.9013-.546-.5267-1.213-.9112-1.943-1.1194l-1.122-.322c-.632-.1782-1.215-.4951-1.709-.9276s-.884-.9697-1.144-1.5724c-.26-.6038-.38-1.2583-.351-1.9149.028-.6566.205-1.2983.516-1.8771l.539-1.035c.354-.6713.537-1.419.534-2.1776-.004-.7586-.193-1.5048-.552-2.173s-.877-1.238-1.508-1.6594c-.63-.4213-1.355-.6813-2.11-.757l-1.157-.113c-.655-.0612-1.287-.2682-1.851-.606-.564-.3377-1.046-.7977-1.409-1.3459s-.598-1.1708-.689-1.8221c-.091-.6512-.034-1.3145.165-1.941l.357-1.113c.22-.693.273-1.4281.156-2.1456-.118-.7175-.403-1.3971-.833-1.9836-.43-.5864-.992-1.0633-1.64-1.3916-.649-.3284-1.366-.4991-2.093-.4982-.131 0-.252.009-.383.017 0 0-1.453.113-1.522.113-.626-.0018-1.245-.1366-1.815-.3955-.571-.2589-1.08-.636-1.493-1.1064-.414-.4703-.723-1.0232-.907-1.6219-.184-.5988-.238-1.2298-.16-1.8512l.157-1.148c.082-.6515.025-1.3129-.168-1.9405-.193-.6277-.516-1.2073-.949-1.7006-.434-.4933-.967-.889-1.564-1.1611-.598-.272-1.246-.4141-1.903-.4168-.408.0029-.815.0584-1.209.165l-1.131.3c-.369.0961-.749.1459-1.131.148-1.13-.0009-2.216-.4354-3.035-1.214-.819-.7785-1.307-1.8417-1.365-2.97l-.07-1.166c-.036-.757-.258-1.4934-.648-2.1431-.39-.6498-.936-1.1926-1.587-1.5799-.718-.4272-1.539-.6524-2.375-.652-.683-.0011-1.357.1506-1.974.444l-1.061.5c-.589.2717-1.23.4142-1.879.418-.992-.0033-1.953-.3406-2.729-.9575-.777-.6169-1.323-1.4773-1.55-2.4425l-.278-1.131c-.174-.7386-.526-1.423-1.027-1.9933-.5-.5702-1.133-1.0086-1.843-1.2767-.521-.1907-1.071-.2878-1.626-.287-.968-.0039-1.913.2974-2.7.861l-.939.678c-.536.3793-1.149.6353-1.796.7496-.646.1143-1.31.084-1.944-.0886-.636-.1723-1.225-.4869-1.722-.9199-.498-.4331-.89-.9734-1.148-1.5801l-.461-1.061c-.303-.6966-.774-1.3076-1.37-1.7786-.597-.471-1.3-.7875-2.048-.9214-.272-.0514-.549-.0775-.826-.078-.618.0018-1.23.1274-1.799.3694-.57.242-1.085.5954-1.515 1.0396l-.818.835c-.408.4246-.898.7633-1.439.9961-.541.2329-1.124.3552-1.713.3599l-.4-.017c-.653-.0613-1.285-.2671-1.849-.6027-.565-.3355-1.047-.7923-1.413-1.3373l-.644-.965c-.423-.6316-.995-1.1492-1.665-1.5072-.671-.3579-1.419-.5452-2.179-.5452-.761 0-1.509.1873-2.179.5452-.671.358-1.243.8756-1.666 1.5072l-.644.965c-.3635.5424-.8432.9971-1.4043 1.331-.5611.334-1.1895.539-1.8396.6-.078.009-.339.026-.418.026-.5908-.003-1.1751-.1238-1.7188-.3553-.5436-.2314-1.0356-.5689-1.4472-.9927l-.8-.826c-.4338-.4444-.9518-.7979-1.5237-1.0398s-1.1863-.3674-1.8073-.3692c-.2772.0009-.5536.027-.826.078-.7466.1366-1.4482.4548-2.0429.9266-.5946.4717-1.0641 1.0824-1.3671 1.7784l-.47 1.061c-.2579.6025-.6483 1.1391-1.1423 1.5699-.4939.4308-1.0787.7446-1.7107.9181-.3857.1045-.7835.1573-1.183.157-.9193-.0015-1.8156-.2872-2.566-.818l-.939-.678c-.7872-.5637-1.7319-.8649-2.7-.861-1.0421-.0045-2.0548.3449-2.8723.9912-.8176.6462-1.3914 1.5508-1.6277 2.5658l-.261 1.131c-.2306.9683-.7809 1.8306-1.5621 2.4475-.7812.617-1.7475.9525-2.7429.9525-.6489-.0047-1.2894-.1472-1.879-.418l-1.052-.5c-.6115-.292-1.2804-.4437-1.958-.444-.8358.0007-1.656.2259-2.375.652-.6514.3873-1.1965.9301-1.5866 1.5799-.39.6497-.6128 1.3861-.6484 2.1431l-.061 1.1659c-.0577 1.1284-.5463 2.1916-1.365 2.9701-.8188.7786-1.9052 1.2131-3.035 1.214-.3873-.0022-.7729-.0519-1.148-.148l-1.122-.3c-.3887-.1055-.7893-.1609-1.192-.165-1.1228.0018-2.2072.4095-3.053 1.148-.5728.4987-1.0133 1.1314-1.282 1.8418-.2687.7103-.3574 1.4762-.258 2.2292l.148 1.148c.0803.6217.0271 1.2535-.156 1.8531s-.492 1.1533-.906 1.6241c-.4141.4708-.9237.8479-1.495 1.1062s-1.1911.3917-1.818.3916c-.07 0-1.513-.113-1.54-.113-.131-.009-.244-.017-.365-.017-.7271-.0009-1.4441.1698-2.0927.4982-.6487.3283-1.2107.8052-1.6404 1.3916-.4297.5865-.715 1.2661-.8326 1.9836s-.0643 1.4526.1557 2.1456l.348 1.113c.2009.6252.2591 1.2875.1701 1.9382-.0889.6507-.3226 1.2731-.684 1.8215-.3614.5483-.8411 1.0087-1.4039 1.347-.5629.3384-1.1944.5463-1.8482.6083l-1.157.113c-.7566.0739-1.4834.3331-2.116.7548-.6326.4216-1.1516.9926-1.511 1.6624-.3595.6699-.5484 1.418-.5499 2.1783-.0016.7602.1842 1.5091.5409 2.1805l.539 1.018c.3083.5807.4825 1.2232.5098 1.8801.0273.657-.093 1.3117-.352 1.9161-.259.6043-.6502 1.1429-1.1447 1.5762-.4946.4333-1.08.7503-1.7131.9276l-1.122.322c-.7285.21-1.3943.5955-1.939 1.1228s-.9517 1.1802-1.1853 1.9015c-.2336.7212-.2866 1.4888-.1544 2.2353s.4456 1.4492.9127 2.0464l.722.913c.4054.5168.6902 1.1178.8335 1.7588.1433.6411.1415 1.3061-.0052 1.9464-.1468.6403-.4348 1.2397-.843 1.7544s-.9263.9316-1.5163 1.2204l-1.044.5129c-.6799.3358-1.267.8333-1.7098 1.4488-.4428.6156-.7278 1.3304-.83 2.0818-.1022.7513-.0184 1.5163.244 2.2277.2623.7114.6953 1.3476 1.2608 1.8527l.87.7741c.4913.4354.8791.9751 1.1353 1.5796.2562.6044.3742 1.2584.3455 1.9144-.0288.656-.2036 1.297-.5117 1.877-.308.579-.7416 1.083-1.2691 1.474l-.931.687c-.6118.45-1.1033 1.043-1.4311 1.728s-.4817 1.44-.4482 2.198c.0335.759.2534 1.498.6403 2.151.387.653.9289 1.201 1.578 1.595l1 .609c.5595.342 1.0357.804 1.3939 1.353.3583.55.5895 1.172.677 1.822s.0289 1.311-.1714 1.935-.5373 1.196-.9865 1.674l-.8.852c-.517.554-.8906 1.225-1.0882 1.956-.1976.732-.2133 1.5-.0456 2.239.1677.738.5136 1.425 1.0075 1.999.494.574 1.121 1.019 1.8263 1.295l1.1.417c.6128.235 1.1654.605 1.6171 1.081.4518.476.7914 1.048.9941 1.672.2026.625.2631 1.286.1771 1.937s-.3164 1.275-.6743 1.825l-.626.974c-.4129.637-.663 1.365-.7286 2.121-.0655.756.0556 1.516.3527 2.215.2972.698.7612 1.312 1.3514 1.789s1.2885.802 2.0335.946l1.139.209c.6462.121 1.2571.385 1.7881.773.5309.388.9683.889 1.2802 1.468s.4904 1.22.5224 1.877c.0319.656-.0835 1.312-.3377 1.918l-.452 1.07c-.2939.701-.4103 1.464-.339 2.221.0714.757.3284 1.485.7482 2.119.4198.633.9895 1.154 1.6586 1.515.669.361 1.4169.552 2.1772.555l1.157.009c.6563.006 1.3031.158 1.8931.446s1.1085.703 1.5176 1.216c.4092.514.6987 1.112.8475 1.751s.1532 1.304.0128 1.945l-.252 1.139c-.1648.739-.1445 1.508.059 2.237.2036.73.5842 1.398 1.108 1.945.4329.449.9516.807 1.5253 1.052.5738.245 1.1908.372 1.8147.374.2651-.002.5297-.025.791-.07l1.157-.2c.2471-.042.4974-.062.748-.061.5931-.002 1.1804.117 1.7264.349.546.231 1.0395.571 1.4506.999.4112.427.7315.934.9417 1.488.2102.555.3059 1.146.2813 1.739l-.035 1.157c-.0238.621.078 1.241.2994 1.823.2214.581.5578 1.111.989 1.559.4313.449.9485.805 1.5208 1.049.5723.243 1.1878.369 1.8098.369.5407.001 1.077-.096 1.583-.287l1.1-.4c.4885-.175 1.0031-.267 1.522-.27.7939 0 1.5727.217 2.253.626.5666.332 1.0501.789 1.4139 1.336s.5985 1.17.6861 1.821l.174 1.157c.1077.751.3985 1.463.8466 2.075.4482.612 1.04 1.104 1.7232 1.433s1.437.485 2.1947.454c.7578-.031 1.4963-.247 2.1505-.631l1.009-.591c.6773-.399 1.449-.609 2.235-.609.5256-.002 1.0471.093 1.539.278.6152.232 1.1709.599 1.6267 1.073s.8003 1.043 1.0083 1.667l.365 1.1c.24.722.6545 1.374 1.2066 1.897.5522.524 1.225.903 1.9588 1.104.7337.201 1.5058.219 2.2478.05s1.431-.518 2.0058-1.016l.87-.757c.4993-.428 1.0879-.739 1.7226-.91.6348-.171 1.2998-.199 1.9466-.081.6467.119 1.2589.38 1.7919.765s.9733.884 1.2889 1.461l.548 1.018c.3674.666.8925 1.231 1.5295 1.647.6369.415 1.3661.668 2.1235.736.139.009.27.017.409.017.6886 0 1.3685-.153 1.99-.45.6215-.296 1.1689-.728 1.6019-1.263l.731-.9c.413-.511.936-.922 1.529-1.205.592-.283 1.241-.43 1.898-.43s1.306.147 1.899.43 1.115.694 1.528 1.205l.731.9c.432.537.979.971 1.601 1.269s1.303.453 1.992.454c.143 0 .274-.008.422-.016z" fill="url(#e)"/><path d="m104.674 21.677c-16.4159 0-32.4631 4.8679-46.1123 13.988-13.6493 9.1202-24.2876 22.083-30.5697 37.2493-6.2821 15.1662-7.9258 31.8547-4.7232 47.9547 3.2026 16.101 11.1076 30.89 22.7153 42.498 11.6078 11.608 26.397 19.513 42.4974 22.715 16.1005 3.203 32.7885 1.559 47.9555-4.723 15.166-6.282 28.129-16.92 37.249-30.57 9.12-13.649 13.988-29.696 13.988-46.112.002-10.9002-2.144-21.694-6.314-31.7649-4.171-10.0709-10.284-19.2214-17.992-26.9291-7.708-7.7076-16.858-13.8213-26.929-17.9917-10.071-4.1705-20.865-6.3161-31.765-6.3143zm0 164.146c-16.049-.001-31.7374-4.761-45.0814-13.677-13.3439-8.917-23.7441-21.591-29.8854-36.418-6.1414-14.828-7.748-31.143-4.6168-46.884 3.1312-15.7406 10.8596-30.1992 22.208-41.5476s25.807-19.0768 41.5476-22.208c15.741-3.1312 32.056-1.5245 46.884 4.6168 14.827 6.1413 27.501 16.5415 36.418 29.8855 8.916 13.3439 13.676 29.0323 13.677 45.0813-.026 21.515-8.584 42.14-23.798 57.353-15.213 15.214-35.838 23.772-57.353 23.798z" fill="url(#f)"/><path d="m104.791 16c-26.6804.0023-52.2716 10.5821-71.1647 29.4207-18.8931 18.8385-29.54689 44.3991-29.6263 71.0793 33.2437 6.171 66.9885 9.243 100.8 9.176 33.803.066 67.538-3.005 100.773-9.176-.076-26.6798-10.727-52.2411-29.619-71.0802-18.892-18.8392-44.483-29.4188-71.163-29.4198z" fill="#fff" opacity=".16"/></svg>