<svg width="191" height="190" viewBox="0 0 191 190" fill="none" xmlns="http://www.w3.org/2000/svg">
<path d="M188.058 97.1111C189.223 45.8486 148.611 3.34758 97.3483 2.18248C46.0858 1.01738 3.58476 41.6294 2.41966 92.8919C1.25456 144.154 41.8666 186.655 93.1291 187.821C144.392 188.986 186.893 148.374 188.058 97.1111Z" fill="url(#paint0_linear)"/>
<path d="M95.3429 185.68C145.424 185.623 185.975 144.978 185.917 94.897C185.86 44.8164 145.215 4.26486 95.134 4.32255C45.0534 4.38024 4.50184 45.0253 4.55953 95.1059C4.61722 145.187 45.2623 185.738 95.3429 185.68Z" fill="url(#paint1_linear)"/>
<path d="M178.849 94.9989C178.849 78.4613 173.945 62.295 164.757 48.5445C155.569 34.794 142.51 24.0769 127.231 17.7484C111.952 11.4199 95.1401 9.76425 78.9202 12.9909C62.7004 16.2175 47.8016 24.1815 36.108 35.8756C24.4144 47.5698 16.4512 62.4689 13.2253 78.6889C9.99948 94.9089 11.6559 111.721 17.9851 127C24.3144 142.278 35.0321 155.337 48.7831 164.524C62.534 173.711 78.7005 178.615 95.2382 178.614C106.219 178.614 117.091 176.452 127.236 172.25C137.38 168.048 146.598 161.889 154.362 154.124C162.126 146.36 168.285 137.142 172.486 126.997C176.688 116.852 178.85 105.979 178.849 94.9989Z" fill="url(#paint2_linear)"/>
<path d="M95.238 11.3879C102.545 11.3891 109.82 12.3452 116.879 14.2319L111.137 35.6569C100.72 32.8719 89.754 32.8719 79.337 35.6569L73.587 14.2319C80.6492 12.3445 87.9279 11.3884 95.238 11.3879ZM14.47 73.3589L35.895 79.1009C38.6957 68.6874 44.178 59.1903 51.795 51.5569L36.111 35.8729C25.7329 46.2528 18.2692 59.1811 14.47 73.3589ZM36.111 154.127L51.794 138.444C44.1729 130.814 38.6899 121.315 35.894 110.9L14.47 116.64C18.2692 130.818 25.7329 143.746 36.111 154.126V154.127ZM116.879 175.768L111.137 154.343C100.72 157.128 89.754 157.128 79.337 154.343L73.587 175.767C87.7662 179.569 102.697 179.569 116.876 175.767L116.879 175.768ZM176.006 116.641L154.581 110.899C151.785 121.314 146.302 130.813 138.681 138.443L154.364 154.126C164.742 143.746 172.206 130.818 176.005 116.64L176.006 116.641ZM154.364 35.8729L138.681 51.5559C146.298 59.1893 151.78 68.6864 154.581 79.0999L176.006 73.3579C172.207 59.1801 164.743 46.2518 154.365 35.8719L154.364 35.8729Z" fill="url(#paint3_linear)"/>
<path d="M156.669 95C156.669 82.8501 153.066 70.973 146.316 60.8708C139.566 50.7685 129.972 42.8947 118.747 38.2452C107.522 33.5956 95.17 32.379 83.2536 34.7494C71.3371 37.1197 60.3912 42.9704 51.7999 51.5617C43.2086 60.153 37.3579 71.099 34.9875 83.0154C32.6172 94.9319 33.8337 107.284 38.4833 118.509C43.1329 129.734 51.0066 139.328 61.1089 146.078C71.2112 152.828 83.0883 156.431 95.2382 156.431C111.53 156.43 127.155 149.958 138.676 138.437C150.196 126.917 156.668 111.292 156.669 95Z" fill="url(#paint4_linear)"/>
<path d="M108.586 152.577C140.384 145.205 160.185 113.451 152.813 81.6528C145.441 49.8545 113.687 30.0533 81.8889 37.4255C50.0906 44.7977 30.2893 76.5516 37.6615 108.35C45.0337 140.148 76.7877 159.949 108.586 152.577Z" fill="url(#paint5_radial)"/>
<path style="mix-blend-mode:hard-light" opacity="0.67" d="M95.2381 110.69C64.9381 110.69 36.3121 104.69 12.3591 93.327C12.8467 71.6692 21.7927 51.0626 37.2824 35.9177C52.7721 20.7728 73.5748 12.2928 95.2381 12.2928C116.901 12.2928 137.704 20.7728 153.194 35.9177C168.684 51.0626 177.63 71.6692 178.117 93.327C154.172 104.695 125.541 110.69 95.2381 110.69Z" fill="url(#paint6_linear)"/>
<defs>
<linearGradient id="paint0_linear" x1="188.058" y1="97.1111" x2="2.41966" y2="92.8919" gradientUnits="userSpaceOnUse">
<stop stop-color="#953900"/>
<stop offset="0.253" stop-color="#C89B14"/>
<stop offset="0.5" stop-color="#953900"/>
<stop offset="0.806" stop-color="#C89B14"/>
<stop offset="1" stop-color="#953900"/>
</linearGradient>
<linearGradient id="paint1_linear" x1="95.3429" y1="185.68" x2="95.134" y2="4.32255" gradientUnits="userSpaceOnUse">
<stop stop-color="#FAB865"/>
<stop offset="0.253" stop-color="#FFFE9E"/>
<stop offset="0.5" stop-color="#FAB865"/>
<stop offset="0.806" stop-color="#FFFE9E"/>
<stop offset="1" stop-color="#FAB865"/>
</linearGradient>
<linearGradient id="paint2_linear" x1="95.2342" y1="178.614" x2="95.2342" y2="11.3839" gradientUnits="userSpaceOnUse">
<stop stop-color="#D76200"/>
<stop offset="1" stop-color="#FFC12B"/>
</linearGradient>
<linearGradient id="paint3_linear" x1="36.1158" y1="35.8036" x2="158.314" y2="149.971" gradientUnits="userSpaceOnUse">
<stop stop-color="#324357"/>
<stop offset="0.083" stop-color="#243549"/>
<stop offset="0.279" stop-color="#0A1A2D"/>
<stop offset="0.393" stop-color="#001023"/>
<stop offset="0.494" stop-color="#0E1E32"/>
<stop offset="0.786" stop-color="#36475B"/>
<stop offset="0.865" stop-color="#334458"/>
<stop offset="0.913" stop-color="#2B3C50"/>
<stop offset="0.952" stop-color="#1D2E41"/>
<stop offset="0.986" stop-color="#0A1A2D"/>
<stop offset="1" stop-color="#001023"/>
</linearGradient>
<linearGradient id="paint4_linear" x1="95.2381" y1="156.431" x2="95.2381" y2="33.569" gradientUnits="userSpaceOnUse">
<stop stop-color="#FFC12B"/>
<stop offset="1" stop-color="#D76200"/>
</linearGradient>
<radialGradient id="paint5_radial" cx="0" cy="0" r="1" gradientUnits="userSpaceOnUse" gradientTransform="translate(83.4982 109.755) rotate(0.0103374) scale(59.0957)">
<stop stop-color="#7789A0"/>
<stop offset="0.602" stop-color="#304156"/>
<stop offset="1" stop-color="#001023"/>
</radialGradient>
<linearGradient id="paint6_linear" x1="95.2381" y1="110.69" x2="95.2381" y2="12.2928" gradientUnits="userSpaceOnUse">
<stop offset="0.006" stop-color="#858585"/>
<stop offset="0.41" stop-color="#B4B4B4"/>
<stop offset="1" stop-color="white"/>
</linearGradient>
</defs>
</svg>
