<svg width="159" height="194" viewBox="0 0 159 194" fill="none" xmlns="http://www.w3.org/2000/svg">
<path d="M58 12H12.4378C6.74689 12 2.20325 16.7425 2.44692 22.4282L7.58978 142.428C7.81912 147.78 12.2243 152 17.5806 152H34" stroke="black" stroke-width="3"/>
<path d="M17 46.3839V44.7039H17.76C18.5333 44.7039 19.1067 44.5039 19.48 44.1039C19.88 43.7039 20.32 42.8639 20.8 41.5839L29.68 17.8239H32.8L41.84 42.5839C42.1333 43.4106 42.48 43.9706 42.88 44.2639C43.3067 44.5572 43.9067 44.7039 44.68 44.7039H45.2V46.3839H34.2V44.7039H35.12C36.72 44.7039 37.52 44.0639 37.52 42.7839C37.52 42.5706 37.4933 42.3439 37.44 42.1039C37.3867 41.8639 37.3067 41.5972 37.2 41.3039L35.6 36.8239H25.08L23.56 41.0239C23.32 41.6639 23.2 42.2372 23.2 42.7439C23.2 44.0506 24.08 44.7039 25.84 44.7039H26.76V46.3839H17ZM25.84 34.8239H34.88L32.4 27.8239C31.9733 26.6506 31.5867 25.5439 31.24 24.5039C30.8933 23.4639 30.6133 22.4639 30.4 21.5039C30.2133 22.4639 29.9733 23.3839 29.68 24.2639C29.3867 25.1439 29.0133 26.2106 28.56 27.4639L25.84 34.8239Z" fill="black"/>
<path d="M66.5013 9.42965L148.874 25.8827C153.478 26.8022 156.464 31.2795 155.545 35.883L130.473 161.404C129.554 166.007 125.076 168.994 120.473 168.074L79.2865 159.848L38.1001 151.621C33.4966 150.701 30.5101 146.224 31.4296 141.621L56.501 16.1001C57.4205 11.4966 61.8978 8.51015 66.5013 9.42965Z" stroke="black" stroke-width="3"/>
<path d="M63.059 42.1671L63.3881 40.5196L64.1334 40.6685C64.8917 40.82 65.4931 40.7361 65.9376 40.417C66.4082 40.1031 67.0042 39.3656 67.7256 38.2044L81.0875 16.6439L84.147 17.255L88.1622 43.3061C88.2879 44.1742 88.5182 44.7913 88.853 45.1573C89.2139 45.5285 89.7736 45.7898 90.5319 45.9413L91.0418 46.0432L90.7128 47.6906L79.9259 45.536L80.2549 43.8886L81.1571 44.0688C82.7261 44.3822 83.636 43.9113 83.8867 42.6561C83.9285 42.4469 83.9467 42.2194 83.9414 41.9736C83.9361 41.7278 83.9099 41.4506 83.8628 41.1421L83.1713 36.4354L72.855 34.3749L70.5418 38.1958C70.1811 38.7764 69.9511 39.3151 69.8519 39.812C69.596 41.0933 70.3309 41.9064 72.0569 42.2511L72.959 42.4313L72.63 44.0788L63.059 42.1671ZM73.9921 32.5625L82.8569 34.3332L81.7961 26.983C81.6075 25.7488 81.4451 24.5878 81.3088 23.5001C81.1726 22.4123 81.0939 21.3769 81.0727 20.3937C80.7016 21.2985 80.2861 22.1537 79.8261 22.9592C79.366 23.7647 78.791 24.7376 78.101 25.8778L73.9921 32.5625Z" fill="black"/>
<path d="M104 151.921C104.043 175.061 85.1711 193.984 62.0304 194C52.036 194.007 42.8556 190.523 35.6413 184.701C33.7653 183.186 33.6251 180.375 35.3298 178.67L37.2379 176.762C38.6959 175.304 41.0235 175.145 42.6388 176.426C47.954 180.644 54.6806 183.161 62 183.161C79.2242 183.161 93.1612 169.222 93.1612 152C93.1612 134.776 79.2215 120.839 62 120.839C53.7331 120.839 46.2247 124.051 40.6498 129.295L49.2452 137.89C50.9523 139.598 49.7433 142.516 47.3293 142.516H22.7097C21.2131 142.516 20 141.303 20 139.807V115.187C20 112.773 22.9187 111.564 24.6258 113.271L32.9871 121.632C40.5273 114.426 50.7467 110 62 110C85.1694 110 103.957 128.761 104 151.921ZM73.3616 165.263L75.0252 163.124C76.4034 161.352 76.0842 158.799 74.3122 157.42L67.4193 152.059V134.387C67.4193 132.142 65.5996 130.323 63.3548 130.323H60.6451C58.4003 130.323 56.5806 132.142 56.5806 134.387V157.36L67.6579 165.976C69.4299 167.354 71.9834 167.035 73.3616 165.263V165.263Z" fill="black"/>
<path fill-rule="evenodd" clip-rule="evenodd" d="M84.196 75.6298C67.2974 89.1828 80.6983 102.111 93.478 96.2093C90.2658 103.944 88.9548 104.425 87.3368 106.368L100.179 107.919C98.7873 105.591 97.1297 104.772 96.3366 96.6006C107.638 105.042 121.905 94.4219 110.125 78.7597C102.243 69.9876 99.6709 62.5373 99.0609 61.4498C98.2594 62.1977 93.2421 69.0462 84.196 75.6298V75.6298Z" fill="black" stroke="black" stroke-width="0.22642"/>
</svg>
