<svg width="159" height="172" viewBox="0 0 159 172" fill="none" xmlns="http://www.w3.org/2000/svg">
<path d="M58 12H12.4378C6.74689 12 2.20325 16.7425 2.44692 22.4282L7.58978 142.428C7.81912 147.78 12.2243 152 17.5806 152H34" stroke="black" stroke-width="3"/>
<path d="M17 46.3839V44.7039H17.76C18.5333 44.7039 19.1067 44.5039 19.48 44.1039C19.88 43.7039 20.32 42.8639 20.8 41.5839L29.68 17.8239H32.8L41.84 42.5839C42.1333 43.4106 42.48 43.9706 42.88 44.2639C43.3067 44.5572 43.9067 44.7039 44.68 44.7039H45.2V46.3839H34.2V44.7039H35.12C36.72 44.7039 37.52 44.0639 37.52 42.7839C37.52 42.5706 37.4933 42.3439 37.44 42.1039C37.3867 41.8639 37.3067 41.5972 37.2 41.3039L35.6 36.8239H25.08L23.56 41.0239C23.32 41.6639 23.2 42.2372 23.2 42.7439C23.2 44.0506 24.08 44.7039 25.84 44.7039H26.76V46.3839H17ZM25.84 34.8239H34.88L32.4 27.8239C31.9733 26.6506 31.5867 25.5439 31.24 24.5039C30.8933 23.4639 30.6133 22.4639 30.4 21.5039C30.2133 22.4639 29.9733 23.3839 29.68 24.2639C29.3867 25.1439 29.0133 26.2106 28.56 27.4639L25.84 34.8239Z" fill="black"/>
<rect x="58.1659" y="7.76475" width="101" height="145" rx="8.5" transform="rotate(11.2956 58.1659 7.76475)" stroke="black" stroke-width="3"/>
<path d="M63.059 42.1671L63.3881 40.5196L64.1334 40.6685C64.8917 40.82 65.4931 40.7361 65.9376 40.417C66.4082 40.1031 67.0042 39.3656 67.7256 38.2044L81.0875 16.6439L84.147 17.255L88.1622 43.3061C88.2879 44.1742 88.5182 44.7913 88.853 45.1573C89.2139 45.5285 89.7736 45.7898 90.5319 45.9413L91.0418 46.0432L90.7128 47.6906L79.9259 45.536L80.2549 43.8886L81.1571 44.0688C82.7261 44.3822 83.636 43.9113 83.8867 42.6561C83.9285 42.4469 83.9467 42.2194 83.9414 41.9736C83.9361 41.7278 83.9099 41.4506 83.8628 41.1421L83.1713 36.4354L72.855 34.3749L70.5418 38.1958C70.1811 38.7764 69.9511 39.3151 69.8519 39.812C69.596 41.0933 70.3309 41.9064 72.0569 42.2511L72.959 42.4313L72.63 44.0788L63.059 42.1671ZM73.9921 32.5625L82.8569 34.3332L81.7961 26.983C81.6075 25.7488 81.4451 24.5878 81.3088 23.5001C81.1726 22.4123 81.0939 21.3769 81.0727 20.3937C80.7016 21.2985 80.2861 22.1537 79.8261 22.9592C79.366 23.7647 78.791 24.7376 78.101 25.8778L73.9921 32.5625Z" fill="black"/>
<mask id="path-5-inside-1" fill="white">
<path d="M62.9886 128.058C63.1366 128.058 63.3335 128.115 63.4327 128.157L73.8784 132.281L73.2374 121.001C73.2374 120.702 73.3351 120.405 73.5334 120.156L80.5794 111.409L69.7886 108.527C69.4925 108.471 69.198 108.279 69.0499 108.03L62.9894 98.4886L56.9781 108.03C56.7812 108.278 56.5353 108.477 56.2392 108.527L45.3992 111.409L52.4944 120.156C52.6914 120.404 52.7905 120.702 52.7905 121.001L52.1494 132.281L62.5461 128.157C62.6942 128.1 62.8419 128.058 62.9886 128.058ZM75.2081 135.363C75.06 135.363 74.912 135.363 74.764 135.265L62.9879 130.643L51.2607 135.265C50.8668 135.414 50.4226 135.363 50.0776 135.115C49.7327 134.867 49.5358 134.469 49.5847 134.072L50.2746 121.35L42.2925 111.461C41.9964 111.162 41.9474 110.716 42.0466 110.319C42.1946 109.921 42.5397 109.622 42.9336 109.473L55.1533 106.243L61.9528 95.5589C62.4458 94.8137 63.579 94.8137 64.0224 95.5589L70.8713 106.243L83.091 109.473C83.4849 109.622 83.8299 109.92 83.929 110.319C84.0771 110.716 83.9849 111.164 83.7321 111.461L75.7006 121.35L76.4395 134.072C76.4954 134.469 76.2913 134.867 75.9464 135.115C75.7494 135.265 75.4539 135.363 75.2081 135.363Z"/>
</mask>
<path d="M62.9886 128.058C63.1366 128.058 63.3335 128.115 63.4327 128.157L73.8784 132.281L73.2374 121.001C73.2374 120.702 73.3351 120.405 73.5334 120.156L80.5794 111.409L69.7886 108.527C69.4925 108.471 69.198 108.279 69.0499 108.03L62.9894 98.4886L56.9781 108.03C56.7812 108.278 56.5353 108.477 56.2392 108.527L45.3992 111.409L52.4944 120.156C52.6914 120.404 52.7905 120.702 52.7905 121.001L52.1494 132.281L62.5461 128.157C62.6942 128.1 62.8419 128.058 62.9886 128.058ZM75.2081 135.363C75.06 135.363 74.912 135.363 74.764 135.265L62.9879 130.643L51.2607 135.265C50.8668 135.414 50.4226 135.363 50.0776 135.115C49.7327 134.867 49.5358 134.469 49.5847 134.072L50.2746 121.35L42.2925 111.461C41.9964 111.162 41.9474 110.716 42.0466 110.319C42.1946 109.921 42.5397 109.622 42.9336 109.473L55.1533 106.243L61.9528 95.5589C62.4458 94.8137 63.579 94.8137 64.0224 95.5589L70.8713 106.243L83.091 109.473C83.4849 109.622 83.8299 109.92 83.929 110.319C84.0771 110.716 83.9849 111.164 83.7321 111.461L75.7006 121.35L76.4395 134.072C76.4954 134.469 76.2913 134.867 75.9464 135.115C75.7494 135.265 75.4539 135.363 75.2081 135.363Z" fill="black"/>
<path d="M63.4327 128.157L62.2566 130.917L62.2936 130.932L62.331 130.947L63.4327 128.157ZM73.8784 132.281L72.7767 135.071L77.1398 136.794L76.8736 132.111L73.8784 132.281ZM73.2374 121.001H70.2374V121.086L70.2422 121.171L73.2374 121.001ZM73.5334 120.156L71.1972 118.274L71.1914 118.281L71.1856 118.288L73.5334 120.156ZM80.5794 111.409L82.9156 113.291L85.8082 109.701L81.3535 108.511L80.5794 111.409ZM69.7886 108.527L70.5627 105.629L70.457 105.601L70.3494 105.58L69.7886 108.527ZM69.0499 108.03L71.6295 106.498L71.6064 106.459L71.5823 106.421L69.0499 108.03ZM62.9894 98.4886L65.5217 96.8801L62.9791 92.877L60.4512 96.8894L62.9894 98.4886ZM56.9781 108.03L59.3272 109.896L59.429 109.768L59.5163 109.629L56.9781 108.03ZM56.2392 108.527L55.7328 105.57L55.5993 105.593L55.4684 105.628L56.2392 108.527ZM45.3992 111.409L44.6284 108.51L40.1501 109.701L43.0694 113.299L45.3992 111.409ZM52.4944 120.156L54.8435 118.29L54.8339 118.278L54.8243 118.266L52.4944 120.156ZM52.7905 121.001L55.7856 121.171L55.7905 121.086V121.001H52.7905ZM52.1494 132.281L49.1542 132.111L48.8876 136.802L53.2556 135.07L52.1494 132.281ZM62.5461 128.157L61.479 125.353L61.4594 125.36L61.4399 125.368L62.5461 128.157ZM74.764 135.265L76.4269 132.768L76.1593 132.589L75.8599 132.472L74.764 135.265ZM62.9879 130.643L64.0838 127.851L62.9856 127.42L61.888 127.852L62.9879 130.643ZM51.2607 135.265L52.3241 138.07L52.3424 138.063L52.3606 138.056L51.2607 135.265ZM49.5847 134.072L52.5622 134.438L52.5747 134.336L52.5803 134.234L49.5847 134.072ZM50.2746 121.35L53.2702 121.512L53.3325 120.362L52.609 119.466L50.2746 121.35ZM42.2925 111.461L44.627 109.577L44.5307 109.457L44.4229 109.349L42.2925 111.461ZM42.0466 110.319L39.2355 109.271L39.1767 109.429L39.1359 109.592L42.0466 110.319ZM42.9336 109.473L42.167 106.573L42.0161 106.613L41.8701 106.668L42.9336 109.473ZM55.1533 106.243L55.9199 109.144L57.0543 108.844L57.6843 107.854L55.1533 106.243ZM61.9528 95.5589L59.4508 93.9035L59.4361 93.9257L59.4218 93.9482L61.9528 95.5589ZM64.0224 95.5589L61.4444 97.0931L61.4699 97.1359L61.4968 97.1779L64.0224 95.5589ZM70.8713 106.243L68.3456 107.862L68.9758 108.845L70.1047 109.144L70.8713 106.243ZM83.091 109.473L84.1545 106.668L84.0085 106.613L83.8576 106.573L83.091 109.473ZM83.929 110.319L81.0178 111.043L81.0587 111.207L81.1179 111.366L83.929 110.319ZM83.7321 111.461L81.4469 109.517L81.4249 109.543L81.4034 109.57L83.7321 111.461ZM75.7006 121.35L73.3719 119.459L72.6382 120.362L72.7057 121.524L75.7006 121.35ZM76.4395 134.072L73.4446 134.246L73.4517 134.368L73.4688 134.489L76.4395 134.072ZM75.9464 135.115L74.1956 132.679L74.1644 132.702L74.1338 132.725L75.9464 135.115ZM62.9886 131.058C62.845 131.058 62.7362 131.045 62.6755 131.037C62.6102 131.027 62.5599 131.016 62.5255 131.008C62.4902 131 62.4559 130.99 62.4205 130.978C62.3889 130.968 62.3323 130.949 62.2566 130.917L64.6088 125.397C64.2816 125.257 63.6723 125.058 62.9886 125.058V131.058ZM62.331 130.947L72.7767 135.071L74.9802 129.491L64.5344 125.366L62.331 130.947ZM76.8736 132.111L76.2325 120.831L70.2422 121.171L70.8833 132.451L76.8736 132.111ZM76.2374 121.001C76.2374 121.363 76.1158 121.728 75.8812 122.023L71.1856 118.288C70.5543 119.082 70.2374 120.041 70.2374 121.001H76.2374ZM75.8696 122.038L82.9156 113.291L78.2432 109.527L71.1972 118.274L75.8696 122.038ZM81.3535 108.511L70.5627 105.629L69.0145 111.426L79.8053 114.308L81.3535 108.511ZM70.3494 105.58C70.6209 105.632 70.8454 105.733 71.0283 105.855C71.208 105.975 71.4379 106.176 71.6295 106.498L66.4704 109.562C67.1083 110.636 68.1901 111.277 69.2278 111.474L70.3494 105.58ZM71.5823 106.421L65.5217 96.8801L60.4571 100.097L66.5176 109.638L71.5823 106.421ZM60.4512 96.8894L54.4399 106.431L59.5163 109.629L65.5277 100.088L60.4512 96.8894ZM54.629 106.164C54.6535 106.133 54.9968 105.696 55.7328 105.57L56.7456 111.484C58.0738 111.257 58.9088 110.423 59.3272 109.896L54.629 106.164ZM55.4684 105.628L44.6284 108.51L46.17 114.309L57.01 111.427L55.4684 105.628ZM43.0694 113.299L50.1646 122.046L54.8243 118.266L47.729 109.519L43.0694 113.299ZM50.1454 122.022C49.9129 121.729 49.7905 121.367 49.7905 121.001H55.7905C55.7905 120.037 55.4699 119.078 54.8435 118.29L50.1454 122.022ZM49.7953 120.831L49.1542 132.111L55.1446 132.451L55.7856 121.171L49.7953 120.831ZM53.2556 135.07L63.6523 130.945L61.4399 125.368L51.0432 129.492L53.2556 135.07ZM63.6132 130.961C63.612 130.961 63.5981 130.966 63.5744 130.974C63.5506 130.982 63.5126 130.993 63.4628 131.005C63.3652 131.028 63.2008 131.058 62.9886 131.058V125.058C62.2959 125.058 61.7426 125.253 61.479 125.353L63.6132 130.961ZM75.2081 132.363C75.006 132.363 75.7327 132.305 76.4269 132.768L73.101 137.761C74.0913 138.421 75.1141 138.363 75.2081 138.363V132.363ZM75.8599 132.472L64.0838 127.851L61.892 133.436L73.668 138.057L75.8599 132.472ZM61.888 127.852L50.1608 132.473L52.3606 138.056L64.0878 133.434L61.888 127.852ZM50.1972 132.459C50.7087 132.265 51.3263 132.318 51.8284 132.679L48.3269 137.552C49.5189 138.408 51.0249 138.562 52.3241 138.07L50.1972 132.459ZM51.8284 132.679C52.2438 132.978 52.6657 133.597 52.5622 134.438L46.6072 133.705C46.4059 135.341 47.2215 136.757 48.3269 137.552L51.8284 132.679ZM52.5803 134.234L53.2702 121.512L47.279 121.187L46.5891 133.909L52.5803 134.234ZM52.609 119.466L44.627 109.577L39.9581 113.345L47.9401 123.234L52.609 119.466ZM44.4229 109.349C45.118 110.05 45.011 110.83 44.9573 111.045L39.1359 109.592C38.8838 110.602 38.8748 112.275 40.1622 113.573L44.4229 109.349ZM44.8577 111.366C44.6457 111.935 44.2421 112.185 43.997 112.278L41.8701 106.668C40.8373 107.059 39.7436 107.908 39.2355 109.271L44.8577 111.366ZM43.7002 112.373L55.9199 109.144L54.3868 103.343L42.167 106.573L43.7002 112.373ZM57.6843 107.854L64.4837 97.1696L59.4218 93.9482L52.6224 104.633L57.6843 107.854ZM64.4547 97.2143C64.0937 97.76 63.5145 98 63.0062 98C62.495 98 61.8343 97.7483 61.4444 97.0931L66.6004 94.0247C64.9349 91.226 61.0645 91.4646 59.4508 93.9035L64.4547 97.2143ZM61.4968 97.1779L68.3456 107.862L73.3969 104.624L66.5481 93.9399L61.4968 97.1779ZM70.1047 109.144L82.3245 112.373L83.8576 106.573L71.6379 103.343L70.1047 109.144ZM82.0276 112.278C81.8914 112.227 81.7155 112.133 81.5358 111.96C81.3505 111.781 81.126 111.478 81.0178 111.043L86.8403 109.594C86.4266 107.931 85.1227 107.035 84.1545 106.668L82.0276 112.278ZM81.1179 111.366C80.8769 110.72 81.0129 110.027 81.4469 109.517L86.0173 113.404C86.9569 112.3 87.2773 110.712 86.7401 109.271L81.1179 111.366ZM81.4034 109.57L73.3719 119.459L78.0294 123.241L86.0609 113.352L81.4034 109.57ZM72.7057 121.524L73.4446 134.246L79.4345 133.898L78.6956 121.176L72.7057 121.524ZM73.4688 134.489C73.3404 133.577 73.8175 132.951 74.1956 132.679L77.6971 137.552C78.7652 136.784 79.6504 135.361 79.4103 133.654L73.4688 134.489ZM74.1338 132.725C74.3383 132.57 74.5179 132.493 74.6414 132.451C74.765 132.41 74.9535 132.363 75.2081 132.363V138.363C76.1054 138.363 77.038 138.052 77.7589 137.506L74.1338 132.725Z" fill="black" mask="url(#path-5-inside-1)"/>
<mask id="path-7-inside-2" fill="white">
<path d="M69.443 151.216H56.5828C56.189 151.216 55.8439 151.066 55.647 150.768C55.4012 150.52 55.3021 150.172 55.351 149.824L58.1103 130.592C58.208 129.896 58.8491 129.45 59.539 129.548C60.1801 129.647 60.6717 130.244 60.574 130.94L57.9626 148.731H68.0142L65.4521 130.94C65.3543 130.244 65.797 129.648 66.487 129.548C67.177 129.45 67.7678 129.896 67.867 130.592L70.6755 149.824C70.7314 150.172 70.6197 150.52 70.3795 150.768C70.1336 151.066 69.7886 151.216 69.4437 151.216"/>
</mask>
<path d="M69.443 151.216H56.5828C56.189 151.216 55.8439 151.066 55.647 150.768C55.4012 150.52 55.3021 150.172 55.351 149.824L58.1103 130.592C58.208 129.896 58.8491 129.45 59.539 129.548C60.1801 129.647 60.6717 130.244 60.574 130.94L57.9626 148.731H68.0142L65.4521 130.94C65.3543 130.244 65.797 129.648 66.487 129.548C67.177 129.45 67.7678 129.896 67.867 130.592L70.6755 149.824C70.7314 150.172 70.6197 150.52 70.3795 150.768C70.1336 151.066 69.7886 151.216 69.4437 151.216" fill="black"/>
<path d="M55.647 150.768L58.9863 148.566L58.7674 148.234L58.4874 147.951L55.647 150.768ZM55.351 149.824L51.3915 149.256L51.3899 149.267L55.351 149.824ZM58.1103 130.592L62.0697 131.16L62.0714 131.149L58.1103 130.592ZM59.539 129.548L60.1471 125.595L60.126 125.591L60.1049 125.588L59.539 129.548ZM60.574 130.94L64.5315 131.521L64.5333 131.509L64.5351 131.497L60.574 130.94ZM57.9626 148.731L54.005 148.15L53.3326 152.731H57.9626V148.731ZM68.0142 148.731V152.731H72.6316L71.9734 148.16L68.0142 148.731ZM65.4521 130.94L61.491 131.497L61.4929 131.51L65.4521 130.94ZM66.487 129.548L65.9211 125.588L65.9132 125.589L66.487 129.548ZM67.867 130.592L63.907 131.157L63.909 131.17L67.867 130.592ZM70.6755 149.824L66.7175 150.402L66.7216 150.43L66.7261 150.458L70.6755 149.824ZM70.3795 150.768L67.5069 147.984L67.3941 148.101L67.2912 148.226L70.3795 150.768ZM69.443 147.216H56.5828V155.216H69.443V147.216ZM56.5828 147.216C57.1663 147.216 58.2614 147.466 58.9863 148.566L52.3077 152.97C53.4265 154.666 55.2116 155.216 56.5828 155.216V147.216ZM58.4874 147.951C59.2199 148.69 59.4167 149.636 59.3121 150.38L51.3899 149.267C51.1875 150.708 51.5825 152.35 52.8066 153.584L58.4874 147.951ZM59.3104 150.392L62.0697 131.16L54.1508 130.024L51.3915 149.256L59.3104 150.392ZM62.0714 131.149C61.8401 132.795 60.3202 133.7 58.9731 133.508L60.1049 125.588C57.3779 125.199 54.576 126.998 54.1492 130.036L62.0714 131.149ZM58.931 133.502C57.522 133.285 56.3904 131.967 56.6129 130.384L64.5351 131.497C64.9531 128.521 62.8383 126.009 60.1471 125.595L58.931 133.502ZM56.6164 130.359L54.005 148.15L61.9202 149.311L64.5315 131.521L56.6164 130.359ZM57.9626 152.731H68.0142V144.731H57.9626V152.731ZM71.9734 148.16L69.4113 130.37L61.4929 131.51L64.0551 149.301L71.9734 148.16ZM69.4132 130.384C69.5053 131.039 69.3496 131.781 68.8845 132.407C68.418 133.034 67.7411 133.408 67.0608 133.507L65.9132 125.589C63.0105 126.01 61.0915 128.653 61.491 131.497L69.4132 130.384ZM67.0529 133.508C66.3728 133.605 65.6141 133.438 64.9851 132.962C64.3578 132.488 64.0006 131.813 63.907 131.157L71.827 130.028C71.4204 127.175 68.829 125.173 65.9211 125.588L67.0529 133.508ZM63.909 131.17L66.7175 150.402L74.6335 149.246L71.825 130.014L63.909 131.17ZM66.7261 150.458C66.5816 149.558 66.871 148.64 67.5069 147.984L73.2521 153.551C74.3684 152.399 74.8811 150.785 74.6249 149.19L66.7261 150.458ZM67.2912 148.226C67.8228 147.58 68.6211 147.216 69.4437 147.216V155.216C70.9562 155.216 72.4445 154.553 73.4678 153.31L67.2912 148.226Z" fill="black" mask="url(#path-7-inside-2)"/>
<mask id="path-9-inside-3" fill="white">
<path d="M75.8491 158.372H50.1778C49.4878 158.372 48.9459 157.825 48.9459 157.129C48.9459 150.619 53.9223 148.781 56.5339 148.731C57.2239 148.787 57.766 149.277 57.766 149.924C57.8218 150.62 57.2729 151.216 56.5829 151.216C56.0899 151.216 52.1484 151.514 51.5079 155.887H74.5184C73.8773 151.514 69.8865 151.216 69.3939 151.216C68.7528 151.216 68.2108 150.62 68.2108 149.924C68.2667 149.277 68.8017 148.682 69.4917 148.731C72.1031 148.787 77.0799 150.619 77.0799 157.129C77.0799 157.825 76.4889 158.372 75.8478 158.372"/>
</mask>
<path d="M75.8491 158.372H50.1778C49.4878 158.372 48.9459 157.825 48.9459 157.129C48.9459 150.619 53.9223 148.781 56.5339 148.731C57.2239 148.787 57.766 149.277 57.766 149.924C57.8218 150.62 57.2729 151.216 56.5829 151.216C56.0899 151.216 52.1484 151.514 51.5079 155.887H74.5184C73.8773 151.514 69.8865 151.216 69.3939 151.216C68.7528 151.216 68.2108 150.62 68.2108 149.924C68.2667 149.277 68.8017 148.682 69.4917 148.731C72.1031 148.787 77.0799 150.619 77.0799 157.129C77.0799 157.825 76.4889 158.372 75.8478 158.372" fill="black"/>
<path d="M56.5339 148.731L56.8595 144.744L56.6589 144.728L56.4578 144.732L56.5339 148.731ZM57.766 149.924H53.766V150.084L53.7788 150.244L57.766 149.924ZM51.5079 155.887L47.5501 155.307L46.8792 159.887H51.5079V155.887ZM74.5184 155.887V159.887H79.1475L78.4761 155.307L74.5184 155.887ZM68.2108 149.924L64.2257 149.58L64.2108 149.751V149.924H68.2108ZM69.4917 148.731L69.2066 152.721L69.3059 152.728L69.4054 152.73L69.4917 148.731ZM75.8491 154.372H50.1778V162.372H75.8491V154.372ZM50.1778 154.372C51.729 154.372 52.9459 155.648 52.9459 157.129H44.9459C44.9459 160.002 47.2466 162.372 50.1778 162.372V154.372ZM52.9459 157.129C52.9459 155.033 53.6827 154.101 54.2871 153.609C55.054 152.984 56.0451 152.741 56.6101 152.73L56.4578 144.732C54.4112 144.771 51.6082 145.472 49.234 147.406C46.6973 149.473 44.9459 152.716 44.9459 157.129H52.9459ZM56.2083 152.718C55.3248 152.646 53.766 151.829 53.766 149.924H61.766C61.766 146.726 59.123 144.929 56.8595 144.744L56.2083 152.718ZM53.7788 150.244C53.6496 148.635 54.9144 147.216 56.5829 147.216V155.216C59.6314 155.216 61.994 152.604 61.7531 149.604L53.7788 150.244ZM56.5829 147.216C55.9017 147.216 54.0682 147.362 52.1699 148.408C50.066 149.568 48.0705 151.755 47.5501 155.307L55.4656 156.467C55.5382 155.971 55.6751 155.75 55.7373 155.664C55.8071 155.568 55.8981 155.488 56.0315 155.415C56.1774 155.334 56.3493 155.276 56.5112 155.242C56.6887 155.204 56.7462 155.216 56.5829 155.216V147.216ZM51.5079 159.887H74.5184V151.887H51.5079V159.887ZM78.4761 155.307C77.9524 151.734 75.9263 149.55 73.815 148.399C71.9088 147.36 70.0695 147.216 69.3939 147.216V155.216C69.2327 155.216 69.2962 155.204 69.4815 155.243C69.6514 155.279 69.8322 155.34 69.9859 155.423C70.1276 155.501 70.2219 155.583 70.2921 155.679C70.3538 155.763 70.4893 155.98 70.5607 156.467L78.4761 155.307ZM69.3939 147.216C70.3493 147.216 71.082 147.659 71.5148 148.132C71.9472 148.606 72.2108 149.236 72.2108 149.924H64.2108C64.2108 152.482 66.2118 155.216 69.3939 155.216V147.216ZM72.196 150.268C72.1416 150.898 71.8688 151.475 71.4204 151.916C70.9401 152.389 70.1558 152.789 69.2066 152.721L69.7768 144.741C66.3944 144.499 64.4222 147.305 64.2257 149.58L72.196 150.268ZM69.4054 152.73C69.9789 152.742 70.9728 152.988 71.7396 153.612C72.3436 154.104 73.0799 155.033 73.0799 157.129H81.0799C81.0799 152.715 79.3279 149.474 76.7906 147.408C74.4161 145.475 71.6159 144.776 69.578 144.732L69.4054 152.73ZM73.0799 157.129C73.0799 155.545 74.3514 154.372 75.8478 154.372V162.372C78.6264 162.372 81.0799 160.105 81.0799 157.129H73.0799Z" fill="black" mask="url(#path-9-inside-3)"/>
<mask id="path-11-inside-4" fill="white">
<path d="M48.4037 167.515H77.5735V158.372H48.4037V167.515ZM78.8053 170H47.1721C46.4821 170 45.9401 169.404 45.9401 168.758V157.129C45.9401 156.434 46.4821 155.887 47.1721 155.887H78.8053C79.4953 155.887 80.0372 156.434 80.0372 157.129V168.758C80.0372 169.404 79.4953 170 78.8053 170Z"/>
</mask>
<path d="M48.4037 167.515H77.5735V158.372H48.4037V167.515ZM78.8053 170H47.1721C46.4821 170 45.9401 169.404 45.9401 168.758V157.129C45.9401 156.434 46.4821 155.887 47.1721 155.887H78.8053C79.4953 155.887 80.0372 156.434 80.0372 157.129V168.758C80.0372 169.404 79.4953 170 78.8053 170Z" fill="black"/>
<path d="M48.4037 167.515H44.4037V171.515H48.4037V167.515ZM77.5735 167.515V171.515H81.5735V167.515H77.5735ZM77.5735 158.372H81.5735V154.372H77.5735V158.372ZM48.4037 158.372V154.372H44.4037V158.372H48.4037ZM48.4037 171.515H77.5735V163.515H48.4037V171.515ZM81.5735 167.515V158.372H73.5735V167.515H81.5735ZM77.5735 154.372H48.4037V162.372H77.5735V154.372ZM44.4037 158.372V167.515H52.4037V158.372H44.4037ZM78.8053 166H47.1721V174H78.8053V166ZM47.1721 166C48.8238 166 49.9401 167.33 49.9401 168.758H41.9401C41.9401 171.479 44.1405 174 47.1721 174V166ZM49.9401 168.758V157.129H41.9401V168.758H49.9401ZM49.9401 157.129C49.9401 158.61 48.7242 159.887 47.1721 159.887V151.887C44.2401 151.887 41.9401 154.257 41.9401 157.129H49.9401ZM47.1721 159.887H78.8053V151.887H47.1721V159.887ZM78.8053 159.887C77.2523 159.887 76.0372 158.609 76.0372 157.129H84.0372C84.0372 154.258 81.7383 151.887 78.8053 151.887V159.887ZM76.0372 157.129V168.758H84.0372V157.129H76.0372ZM76.0372 168.758C76.0372 167.331 77.1528 166 78.8053 166V174C81.8379 174 84.0372 171.478 84.0372 168.758H76.0372Z" fill="black" mask="url(#path-11-inside-4)"/>
<path fill-rule="evenodd" clip-rule="evenodd" d="M80.9896 76.5148C64.091 90.0678 77.492 102.996 90.2716 97.0943C87.0595 104.829 85.7484 105.31 84.1305 107.253L96.9724 108.804C95.5809 106.476 93.9233 105.657 93.1302 97.4856C104.432 105.927 118.699 95.3069 106.918 79.6447C99.0364 70.8726 96.4646 63.4223 95.8546 62.3348C95.053 63.0827 90.0358 69.9312 80.9896 76.5148V76.5148Z" fill="black" stroke="black" stroke-width="0.22642"/>
</svg>
