<svg width="90" height="90" viewBox="0 0 90 90" fill="none" xmlns="http://www.w3.org/2000/svg">
<path d="M45 0C53.9002 0 62.6005 2.6392 70.0007 7.58387C77.4009 12.5285 83.1686 19.5566 86.5746 27.7792C89.9805 36.0019 90.8717 45.0499 89.1353 53.7791C87.399 62.5082 83.1132 70.5264 76.8198 76.8198C70.5264 83.1132 62.5082 87.399 53.7791 89.1353C45.0499 90.8717 36.0019 89.9805 27.7792 86.5746C19.5566 83.1686 12.5285 77.4009 7.58387 70.0007C2.6392 62.6005 0 53.9002 0 45C0 33.0653 4.74106 21.6193 13.1802 13.1802C21.6193 4.74106 33.0653 0 45 0V0Z"/>
<defs>
<radialGradient id="paint0_radial" cx="0" cy="0" r="1" gradientUnits="userSpaceOnUse" gradientTransform="translate(45 45) scale(45)">
<stop stop-color="#A70C0C"/>
<stop offset="0.813" stop-color="#390C0C"/>
<stop offset="0.833" stop-color="#D0D0D0"/>
<stop offset="1" stop-color="#E8E8E8"/>
</radialGradient>
</defs>
</svg>
