<svg fill="none" height="146" viewBox="0 0 147 146" width="147" xmlns="http://www.w3.org/2000/svg" xmlns:xlink="http://www.w3.org/1999/xlink"><radialGradient id="a" cx="0" cy="0" gradientTransform="matrix(72.5 0 0 72 73.4998 71.999)" gradientUnits="userSpaceOnUse" r="1"><stop offset="0" stop-color="#0ca740"/><stop offset=".813" stop-color="#0c391d"/><stop offset=".833" stop-color="#d0d0d0"/><stop offset="1" stop-color="#e8e8e8"/></radialGradient><path d="m73.414.187012c14.3617 0 28.401 4.258738 40.342 12.237688 11.942 7.9789 21.249 19.3197 26.745 32.5881 5.496 13.2685 6.934 27.8688 4.132 41.9545s-9.718 27.0247-19.873 37.1797-23.094 17.071-37.1797 19.873-28.686 1.364-41.9544-4.132c-13.2685-5.496-24.6093-14.803-32.5882-26.745-7.97892-11.941-12.237651-25.9803-12.237651-40.342 0-19.2584 7.650381-37.7281 21.268151-51.3458 13.6178-13.61781 32.0874-21.268188 51.3458-21.268188z" fill="url(#a)"/></svg>