<svg width="159" height="191" viewBox="0 0 159 191" fill="none" xmlns="http://www.w3.org/2000/svg">
<path d="M58 12H12.4378C6.74689 12 2.20325 16.7425 2.44692 22.4282L7.58978 142.428C7.81912 147.78 12.2243 152 17.5806 152H34" stroke="black" stroke-width="3"/>
<path d="M17 46.3839V44.7039H17.76C18.5333 44.7039 19.1067 44.5039 19.48 44.1039C19.88 43.7039 20.32 42.8639 20.8 41.5839L29.68 17.8239H32.8L41.84 42.5839C42.1333 43.4106 42.48 43.9706 42.88 44.2639C43.3067 44.5572 43.9067 44.7039 44.68 44.7039H45.2V46.3839H34.2V44.7039H35.12C36.72 44.7039 37.52 44.0639 37.52 42.7839C37.52 42.5706 37.4933 42.3439 37.44 42.1039C37.3867 41.8639 37.3067 41.5972 37.2 41.3039L35.6 36.8239H25.08L23.56 41.0239C23.32 41.6639 23.2 42.2372 23.2 42.7439C23.2 44.0506 24.08 44.7039 25.84 44.7039H26.76V46.3839H17ZM25.84 34.8239H34.88L32.4 27.8239C31.9733 26.6506 31.5867 25.5439 31.24 24.5039C30.8933 23.4639 30.6133 22.4639 30.4 21.5039C30.2133 22.4639 29.9733 23.3839 29.68 24.2639C29.3867 25.1439 29.0133 26.2106 28.56 27.4639L25.84 34.8239Z" fill="black"/>
<rect x="58.1659" y="7.76475" width="101" height="145" rx="8.5" transform="rotate(11.2956 58.1659 7.76475)" stroke="black" stroke-width="3"/>
<path d="M63.059 42.1671L63.3881 40.5196L64.1334 40.6685C64.8917 40.82 65.4931 40.7361 65.9376 40.417C66.4082 40.1031 67.0042 39.3656 67.7256 38.2044L81.0875 16.6439L84.147 17.255L88.1622 43.3061C88.2879 44.1742 88.5182 44.7913 88.853 45.1573C89.2139 45.5285 89.7736 45.7898 90.5319 45.9413L91.0418 46.0432L90.7128 47.6906L79.9259 45.536L80.2549 43.8886L81.1571 44.0688C82.7261 44.3822 83.636 43.9113 83.8867 42.6561C83.9285 42.4469 83.9467 42.2194 83.9414 41.9736C83.9361 41.7278 83.9099 41.4506 83.8628 41.1421L83.1713 36.4354L72.855 34.3749L70.5418 38.1958C70.1811 38.7764 69.9511 39.3151 69.8519 39.812C69.596 41.0933 70.3309 41.9064 72.0569 42.2511L72.959 42.4313L72.63 44.0788L63.059 42.1671ZM73.9921 32.5625L82.8569 34.3332L81.7961 26.983C81.6075 25.7488 81.4451 24.5878 81.3088 23.5001C81.1726 22.4123 81.0939 21.3769 81.0727 20.3937C80.7016 21.2985 80.2861 22.1537 79.8261 22.9592C79.366 23.7647 78.791 24.7376 78.101 25.8778L73.9921 32.5625Z" fill="black"/>
<path d="M65.8553 130.359V116.714C65.8549 115.214 64.6393 114 63.1401 114C62.3713 114 61.6387 114.327 61.124 114.898L36.6947 142.042C35.8014 143.037 35.7656 144.534 36.6106 145.57L61.0401 175.428C61.9893 176.589 63.6993 176.76 64.8597 175.811C65.4883 175.296 65.8536 174.528 65.8553 173.716V160.19C87.299 160.888 100.681 170.054 106.712 188.148C107.082 189.255 108.118 190.001 109.286 190.002C109.432 190.002 109.578 189.991 109.723 189.967C111.036 189.752 112 188.618 112 187.288C112 155.323 92.7577 131.841 65.8553 130.359Z" fill="black"/>
<path fill-rule="evenodd" clip-rule="evenodd" d="M78.9896 80.5148C62.091 94.0678 75.492 106.996 88.2716 101.094C85.0595 108.829 83.7484 109.31 82.1305 111.253L94.9724 112.804C93.5809 110.476 91.9233 109.657 91.1302 101.486C102.432 109.927 116.699 99.3069 104.918 83.6447C97.0364 74.8726 94.4646 67.4223 93.8546 66.3348C93.053 67.0827 88.0358 73.9312 78.9896 80.5148V80.5148Z" fill="black" stroke="black" stroke-width="0.22642"/>
</svg>
