<svg width="24" height="24" viewBox="0 0 22 22" fill="none" xmlns="http://www.w3.org/2000/svg">
<path d="M21.6936 21.167H1.14574C0.974163 21.167 0.839417 21.0323 0.839417 20.8608V0.30624C0.839417 0.146863 0.974163 0 1.14574 0C1.30516 0 1.43993 0.146863 1.43993 0.30624V20.5545H21.6937C21.8653 20.5545 22 20.6893 22 20.8608C22 21.0323 21.8653 21.167 21.6937 21.167" fill="#242122"/>
<path d="M1.97889 1.44549C1.8931 1.44549 1.81947 1.42117 1.75834 1.35971L1.1457 0.74723L0.520807 1.35971C0.398202 1.48228 0.214454 1.48228 0.0919536 1.35971C-0.0306512 1.23714 -0.0306512 1.04132 0.0919536 0.930974L0.925149 0.0980321C1.0356 -0.0245393 1.24366 -0.0245393 1.354 0.0980321L2.1872 0.930974C2.3098 1.04105 2.3098 1.23721 2.1872 1.35971C2.12607 1.42082 2.05242 1.44549 1.97879 1.44549" fill="#242122"/>
<path d="M20.8605 22C20.7869 22 20.7011 21.9632 20.6399 21.9021C20.5298 21.7916 20.5298 21.5958 20.6399 21.4734L21.2648 20.8609L20.6399 20.2361C20.5298 20.1261 20.5298 19.9299 20.6399 19.8074C20.7626 19.6849 20.9584 19.6849 21.081 19.8074L21.9142 20.6404C22.0247 20.763 22.0247 20.9588 21.9142 21.0691L21.081 21.9021C21.0199 21.9632 20.9341 22 20.8605 22" fill="#242122"/>
<path d="M4.31915 12.6537C4.02496 12.6537 3.78001 12.8989 3.78001 13.1927C3.78001 13.4868 4.02521 13.7317 4.31915 13.7317C4.5397 13.7317 4.73573 13.5969 4.82148 13.3886C4.84579 13.3275 4.85829 13.2539 4.85829 13.1928C4.85829 12.8987 4.61308 12.6538 4.31917 12.6538L4.31915 12.6537ZM4.31915 14.3442C3.68198 14.3442 3.16736 13.8296 3.16736 13.1927C3.16736 12.5557 3.68198 12.0413 4.31915 12.0413C4.95627 12.0413 5.47091 12.5557 5.47091 13.1927C5.47091 13.3396 5.44659 13.4743 5.39727 13.5969C5.22569 14.0501 4.79689 14.3442 4.31904 14.3442" fill="#242122"/>
<path d="M7.95828 14.883C7.92146 14.883 7.88465 14.883 7.84783 14.8587L4.9929 13.7808C4.83348 13.7197 4.76019 13.5481 4.82132 13.3888C4.88245 13.2294 5.05403 13.144 5.21342 13.2051L8.06833 14.2953C8.22775 14.3564 8.30103 14.5279 8.2399 14.6873C8.19093 14.8098 8.08048 14.8831 7.95822 14.8831" fill="#242122"/>
<path d="M8.74246 14.3441C8.52191 14.3441 8.32586 14.4788 8.24007 14.6872C8.21576 14.7483 8.20327 14.8097 8.20327 14.883C8.20327 15.1771 8.44848 15.4097 8.74238 15.4097C9.03656 15.4097 9.28152 15.1771 9.28152 14.883C9.28152 14.6872 9.18359 14.5155 9.02417 14.4175C8.93838 14.3686 8.84043 14.3439 8.74249 14.3439L8.74246 14.3441ZM8.74246 16.0223C8.11759 16.0223 7.60297 15.5078 7.60297 14.883C7.60297 14.7362 7.62726 14.6015 7.67658 14.4666C7.836 14.0256 8.27698 13.7316 8.74256 13.7316C8.96311 13.7316 9.17142 13.7927 9.35519 13.9031C9.68618 14.1115 9.8943 14.4789 9.8943 14.8831C9.8943 15.5078 9.37973 16.0223 8.74256 16.0223" fill="#242122"/>
<path d="M9.18349 14.4666C9.13452 14.4666 9.0734 14.4527 9.02408 14.4176C8.88932 14.3319 8.84032 14.1482 8.92611 14.0011L11.781 9.43206C11.8668 9.28518 12.0627 9.23623 12.2098 9.33415C12.3446 9.41991 12.3936 9.60363 12.2956 9.75065L9.45298 14.3197C9.39185 14.4176 9.29357 14.4666 9.18347 14.4666" fill="#242122"/>
<path d="M12.4917 8.34185C12.1853 8.34185 11.9526 8.57454 11.9526 8.86861C11.9526 9.06444 12.0505 9.23607 12.2099 9.33406C12.4058 9.45663 12.6878 9.432 12.8593 9.26047C12.9698 9.16255 13.0187 9.02784 13.0187 8.8685C13.0187 8.5744 12.7861 8.3418 12.4919 8.3418L12.4917 8.34185ZM12.4917 10.0201C12.2711 10.0201 12.0628 9.95894 11.879 9.84852C11.5359 9.64018 11.3399 9.27279 11.3399 8.86855C11.3399 8.24385 11.8545 7.72937 12.4917 7.72937C13.1166 7.72937 13.6312 8.24385 13.6312 8.86855C13.6312 9.18696 13.5086 9.481 13.288 9.70149C13.0675 9.90983 12.7857 10.0199 12.4916 10.0199" fill="#242122"/>
<path d="M14.9668 11.7472C14.881 11.7472 14.8074 11.7104 14.7463 11.6493L12.8471 9.68943C12.7367 9.56686 12.7367 9.38314 12.861 9.26064C12.9836 9.13807 13.1795 9.15021 13.2898 9.27452L15.189 11.2222C15.2995 11.3448 15.2995 11.5406 15.1751 11.6632C15.114 11.7122 15.0403 11.749 14.9667 11.749" fill="#242122"/>
<path d="M15.5549 11.5145C15.408 11.5145 15.2732 11.5635 15.1751 11.6614C15.0771 11.7593 15.0157 11.894 15.0157 12.0411C15.0157 12.3352 15.2484 12.5801 15.5548 12.5801C15.8489 12.5801 16.0816 12.3353 16.0816 12.0411C16.0816 11.747 15.8489 11.5144 15.5548 11.5144L15.5549 11.5145ZM15.5549 13.1927C14.9177 13.1927 14.4031 12.6782 14.4031 12.0413C14.4031 11.7229 14.5258 11.4411 14.7585 11.2206C14.9669 11.0123 15.2486 10.9022 15.5549 10.9022C16.1798 10.9022 16.6944 11.4166 16.6944 12.0413C16.6944 12.6783 16.1798 13.1928 15.5549 13.1928" fill="#242122"/>
<path d="M16.0572 11.6738C15.9836 11.6738 15.9225 11.6599 15.8735 11.6127C15.7387 11.5148 15.7019 11.3186 15.8124 11.1839L19.5862 6.13719C19.6842 6.00247 19.8804 5.97778 20.0151 6.07605C20.1499 6.17397 20.1745 6.37017 20.0762 6.50479L16.3024 11.5516C16.2412 11.6373 16.1429 11.6742 16.0571 11.6742" fill="#242122"/>
<path d="M19.9536 7.6927C19.7942 7.6927 19.672 7.58231 19.6473 7.42328L19.5615 6.66377L18.8019 6.73737C18.6424 6.76167 18.4834 6.63948 18.4587 6.46795C18.4448 6.30857 18.5691 6.14952 18.7282 6.13702L19.7942 6.01447C19.9658 6.00058 20.1249 6.11236 20.1374 6.28389L20.26 7.34963C20.2739 7.52116 20.1499 7.66804 19.9905 7.6927C19.9766 7.6927 19.9662 7.6927 19.9536 7.6927" fill="#242122"/>
</svg>
