<?xml version="1.0" encoding="UTF-8" standalone="no"?>
<svg
   xmlns:dc="http://purl.org/dc/elements/1.1/"
   xmlns:cc="http://creativecommons.org/ns#"
   xmlns:rdf="http://www.w3.org/1999/02/22-rdf-syntax-ns#"
   xmlns:svg="http://www.w3.org/2000/svg"
   xmlns="http://www.w3.org/2000/svg"
   xmlns:sodipodi="http://sodipodi.sourceforge.net/DTD/sodipodi-0.dtd"
   xmlns:inkscape="http://www.inkscape.org/namespaces/inkscape"
   width="6.3341751mm"
   height="6.3358998mm"
   viewBox="0 0 6.3341751 6.3358998"
   version="1.1"
   id="svg41390"
   sodipodi:docname="player-stats.svg"
   inkscape:version="1.0.2 (e86c8708, 2021-01-15)">
  <defs
     id="defs41384" />
  <sodipodi:namedview
     id="base"
     pagecolor="#ffffff"
     bordercolor="#666666"
     borderopacity="1.0"
     inkscape:pageopacity="0.0"
     inkscape:pageshadow="2"
     inkscape:zoom="11.2"
     inkscape:cx="-11.508837"
     inkscape:cy="-5.6894866"
     inkscape:document-units="mm"
     inkscape:current-layer="layer1"
     inkscape:document-rotation="0"
     showgrid="false"
     inkscape:window-width="1252"
     inkscape:window-height="943"
     inkscape:window-x="2240"
     inkscape:window-y="25"
     inkscape:window-maximized="0" />
  <metadata
     id="metadata41387">
    <rdf:RDF>
      <cc:Work
         rdf:about="">
        <dc:format>image/svg+xml</dc:format>
        <dc:type
           rdf:resource="http://purl.org/dc/dcmitype/StillImage" />
        <dc:title></dc:title>
      </cc:Work>
    </rdf:RDF>
  </metadata>
  <g
     inkscape:label="Layer 1"
     inkscape:groupmode="layer"
     id="layer1"
     transform="translate(-108.87838,-149.67201)">
    <path
       d="m 115.12432,155.76802 h -5.91608 c -0.0494,0 -0.0882,-0.0388 -0.0882,-0.0882 v -5.91961 c 0,-0.0459 0.0388,-0.0882 0.0882,-0.0882 0.0459,0 0.0847,0.0423 0.0847,0.0882 v 5.83141 h 5.83141 c 0.0494,0 0.0882,0.0388 0.0882,0.0882 0,0.0494 -0.0388,0.0882 -0.0882,0.0882"
       style="fill:#242122;fill-opacity:1;fill-rule:nonzero;stroke:none;stroke-width:0.0352778"
       id="path16844" />
    <path
       d="m 109.44813,150.0883 c -0.0247,0 -0.0459,-0.007 -0.0635,-0.0247 l -0.17639,-0.17639 -0.17992,0.17639 c -0.0353,0.0353 -0.0882,0.0353 -0.12347,0 -0.0353,-0.0353 -0.0353,-0.0917 0,-0.12348 l 0.23989,-0.23988 c 0.0318,-0.0353 0.0917,-0.0353 0.12347,0 l 0.23989,0.23988 c 0.0353,0.0317 0.0353,0.0882 0,0.12348 -0.0176,0.0176 -0.0388,0.0247 -0.06,0.0247"
       style="fill:#242122;fill-opacity:1;fill-rule:nonzero;stroke:none;stroke-width:0.0352778"
       id="path16846" />
    <path
       d="m 114.88444,156.00791 c -0.0212,0 -0.0459,-0.0106 -0.0635,-0.0282 -0.0317,-0.0318 -0.0317,-0.0882 0,-0.12347 l 0.17991,-0.17639 -0.17991,-0.17992 c -0.0317,-0.0317 -0.0317,-0.0882 0,-0.12347 0.0353,-0.0353 0.0917,-0.0353 0.127,0 l 0.23988,0.23989 c 0.0318,0.0353 0.0318,0.0917 0,0.12347 l -0.23988,0.23989 c -0.0176,0.0176 -0.0423,0.0282 -0.0635,0.0282"
       style="fill:#242122;fill-opacity:1;fill-rule:nonzero;stroke:none;stroke-width:0.0352778"
       id="path16848" />
    <path
       d="m 110.12194,153.31622 c -0.0847,0 -0.15523,0.0706 -0.15523,0.15522 0,0.0847 0.0706,0.15522 0.15523,0.15522 0.0635,0 0.11994,-0.0388 0.14463,-0.0988 0.007,-0.0176 0.0106,-0.0388 0.0106,-0.0564 0,-0.0847 -0.0706,-0.15522 -0.15522,-0.15522 z m 0,0.48683 c -0.18345,0 -0.33162,-0.14817 -0.33162,-0.33161 0,-0.18344 0.14817,-0.33161 0.33162,-0.33161 0.18344,0 0.33161,0.14817 0.33161,0.33161 0,0.0423 -0.007,0.0811 -0.0212,0.11642 -0.0494,0.13052 -0.17286,0.21519 -0.31044,0.21519"
       style="fill:#242122;fill-opacity:1;fill-rule:nonzero;stroke:none;stroke-width:0.0352778"
       id="path16850" />
    <path
       d="m 111.16969,153.95827 c -0.0106,0 -0.0212,0 -0.0318,-0.007 l -0.82198,-0.31045 c -0.0459,-0.0176 -0.067,-0.067 -0.0494,-0.11289 0.0176,-0.0459 0.067,-0.0705 0.11289,-0.0529 l 0.82198,0.31397 c 0.0459,0.0176 0.067,0.067 0.0494,0.11289 -0.0141,0.0353 -0.0459,0.0564 -0.0811,0.0564"
       style="fill:#242122;fill-opacity:1;fill-rule:nonzero;stroke:none;stroke-width:0.0352778"
       id="path16852" />
    <path
       d="m 111.39546,153.80305 c -0.0635,0 -0.11994,0.0388 -0.14464,0.0988 -0.007,0.0176 -0.0106,0.0353 -0.0106,0.0564 0,0.0847 0.0706,0.1517 0.15522,0.1517 0.0847,0 0.15523,-0.067 0.15523,-0.1517 0,-0.0564 -0.0282,-0.10583 -0.0741,-0.13405 -0.0247,-0.0141 -0.0529,-0.0212 -0.0811,-0.0212 z m 0,0.48331 c -0.17991,0 -0.32808,-0.14817 -0.32808,-0.32809 0,-0.0423 0.007,-0.0811 0.0212,-0.11994 0.0459,-0.127 0.17286,-0.21167 0.30691,-0.21167 0.0635,0 0.12348,0.0176 0.17639,0.0494 v 0 c 0.0953,0.06 0.15522,0.16581 0.15522,0.28222 0,0.17992 -0.14816,0.32809 -0.33161,0.32809"
       style="fill:#242122;fill-opacity:1;fill-rule:nonzero;stroke:none;stroke-width:0.0352778"
       id="path16854" />
    <path
       d="m 111.52246,153.83833 c -0.0141,0 -0.0317,-0.004 -0.0459,-0.0141 -0.0388,-0.0247 -0.0529,-0.0776 -0.0282,-0.11995 l 0.82197,-1.31586 c 0.0247,-0.0423 0.0811,-0.0564 0.12347,-0.0282 0.0388,0.0247 0.0529,0.0776 0.0247,0.11994 l -0.81845,1.31587 c -0.0176,0.0282 -0.0459,0.0423 -0.0776,0.0423"
       style="fill:#242122;fill-opacity:1;fill-rule:nonzero;stroke:none;stroke-width:0.0352778"
       id="path16856" />
    <path
       d="m 112.47496,152.07444 c -0.0882,0 -0.15522,0.067 -0.15522,0.15169 0,0.0564 0.0282,0.10584 0.0741,0.13406 0.0564,0.0353 0.13759,0.0282 0.18698,-0.0212 0.0318,-0.0282 0.0459,-0.067 0.0459,-0.11289 0,-0.0847 -0.067,-0.15169 -0.1517,-0.15169 z m 0,0.48331 c -0.0635,0 -0.12347,-0.0176 -0.17639,-0.0494 -0.0988,-0.06 -0.15522,-0.16581 -0.15522,-0.28223 0,-0.17991 0.14817,-0.32808 0.33161,-0.32808 0.17992,0 0.32809,0.14817 0.32809,0.32808 0,0.0917 -0.0353,0.17639 -0.0988,0.23989 -0.0635,0.06 -0.14464,0.0917 -0.22931,0.0917"
       style="fill:#242122;fill-opacity:1;fill-rule:nonzero;stroke:none;stroke-width:0.0352778"
       id="path16858" />
    <path
       d="m 113.18757,153.05516 c -0.0247,0 -0.0459,-0.0106 -0.0635,-0.0282 l -0.5468,-0.56444 c -0.0318,-0.0353 -0.0318,-0.0882 0.004,-0.12348 0.0353,-0.0353 0.0917,-0.0318 0.12347,0.004 l 0.5468,0.56092 c 0.0318,0.0353 0.0318,0.0917 -0.004,0.127 -0.0176,0.0141 -0.0388,0.0247 -0.06,0.0247"
       style="fill:#242122;fill-opacity:1;fill-rule:nonzero;stroke:none;stroke-width:0.0352778"
       id="path16860" />
    <path
       d="m 113.35691,152.98813 c -0.0423,0 -0.0811,0.0141 -0.10936,0.0423 -0.0282,0.0282 -0.0459,0.067 -0.0459,0.10936 0,0.0847 0.067,0.15522 0.15522,0.15522 0.0847,0 0.15169,-0.0705 0.15169,-0.15522 0,-0.0847 -0.067,-0.1517 -0.15169,-0.1517 z m 0,0.48331 c -0.18345,0 -0.33161,-0.14817 -0.33161,-0.33161 0,-0.0917 0.0353,-0.17286 0.1023,-0.23636 0.06,-0.06 0.14111,-0.0917 0.22931,-0.0917 0.17991,0 0.32808,0.14816 0.32808,0.32808 0,0.18344 -0.14817,0.33161 -0.32808,0.33161"
       style="fill:#242122;fill-opacity:1;fill-rule:nonzero;stroke:none;stroke-width:0.0352778"
       id="path16862" />
    <path
       d="m 113.50155,153.034 c -0.0212,0 -0.0388,-0.004 -0.0529,-0.0176 -0.0388,-0.0282 -0.0494,-0.0847 -0.0176,-0.12348 l 1.08656,-1.45344 c 0.0282,-0.0388 0.0847,-0.0459 0.12347,-0.0176 0.0388,0.0282 0.0459,0.0847 0.0176,0.12347 l -1.08656,1.45345 c -0.0176,0.0247 -0.0459,0.0353 -0.0706,0.0353"
       style="fill:#242122;fill-opacity:1;fill-rule:nonzero;stroke:none;stroke-width:0.0352778"
       id="path16864" />
    <path
       d="m 114.62338,151.88747 c -0.0459,0 -0.0811,-0.0318 -0.0882,-0.0776 l -0.0247,-0.21873 -0.21872,0.0212 c -0.0459,0.007 -0.0917,-0.0282 -0.0988,-0.0776 -0.004,-0.0459 0.0318,-0.0917 0.0776,-0.0953 l 0.30692,-0.0353 c 0.0494,-0.004 0.0952,0.0282 0.0988,0.0776 l 0.0353,0.30692 c 0.004,0.0494 -0.0317,0.0917 -0.0776,0.0988 -0.004,0 -0.007,0 -0.0106,0"
       style="fill:#242122;fill-opacity:1;fill-rule:nonzero;stroke:none;stroke-width:0.0352778"
       id="path16866" />
  </g>
</svg>
