<svg width="41" height="20" viewBox="0 0 41 20" fill="none" xmlns="http://www.w3.org/2000/svg">
<path d="M2.79701 7.17658C2.52573 6.98695 2.31681 6.7211 2.1967 6.41268C2.07659 6.10426 2.05068 5.76713 2.12226 5.44398C2.19384 5.12083 2.35969 4.82618 2.59881 4.59733C2.83794 4.36849 3.13958 4.21573 3.46556 4.1584C3.79154 4.10107 4.1272 4.14175 4.43006 4.27528C4.73291 4.40881 4.98934 4.62919 5.16687 4.90853C5.34441 5.18787 5.43508 5.51361 5.42741 5.8445C5.41973 6.1754 5.31405 6.49657 5.12375 6.76738C4.86782 7.12806 4.48 7.3733 4.04443 7.4499C3.60885 7.52651 3.16064 7.4283 2.79701 7.17658V7.17658ZM11.6892 18.3316H5.78633C5.18866 18.3322 4.6106 18.1184 4.15713 17.7291C3.70366 17.3397 3.40486 16.8007 3.315 16.2098L1.66978 8.31222H0L1.66136 16.4611C1.81491 17.4471 2.31591 18.3456 3.07389 18.9946C3.83188 19.6436 4.7969 20.0002 5.79475 20H11.6906L11.6892 18.3316ZM11.8815 14.992H7.80635L6.94865 11.5683C8.21753 12.4028 9.73997 12.7634 11.2484 12.5867V10.8053C10.559 10.9089 9.85568 10.8698 9.18207 10.6902C8.50846 10.5107 7.87894 10.1946 7.33258 9.76161L5.9611 8.70458C5.77237 8.56001 5.55806 8.45238 5.3294 8.38733C5.06114 8.30825 4.7784 8.29121 4.50258 8.33749H4.48363C3.9928 8.42513 3.55628 8.70267 3.26868 9.10996C2.98108 9.51724 2.86558 10.0215 2.94721 10.5133L4.07443 15.456C4.1849 16.0284 4.49107 16.5445 4.94044 16.9159C5.3898 17.2873 5.95437 17.4908 6.53734 17.4915H12.2563L15.4464 20L16.6985 18.7478L11.8808 14.9906L11.8815 14.992Z" fill="white"/>
<path d="M37.5133 7.1766C37.7842 6.9867 37.9927 6.72073 38.1124 6.41233C38.2321 6.10394 38.2577 5.76697 38.1859 5.44403C38.1141 5.1211 37.9481 4.82671 37.709 4.5981C37.4699 4.36949 37.1684 4.21692 36.8425 4.15968C36.5167 4.10245 36.1812 4.14312 35.8785 4.27656C35.5758 4.41 35.3195 4.63021 35.1419 4.90934C34.9644 5.18847 34.8736 5.51399 34.881 5.84472C34.8885 6.17546 34.9938 6.49655 35.1838 6.7674C35.4397 7.12888 35.8281 7.37466 36.2644 7.45129C36.7006 7.52792 37.1495 7.4292 37.5133 7.1766V7.1766ZM28.6212 18.3309H34.524C35.1217 18.3317 35.6998 18.1181 36.1534 17.7289C36.607 17.3397 36.906 16.8007 36.996 16.2098L38.6405 8.31225H40.3103L38.649 16.4611C38.4954 17.447 37.9945 18.3454 37.2367 18.9944C36.4789 19.6433 35.514 20 34.5163 20H28.6205L28.6212 18.3309ZM28.4288 14.9914H32.5033L33.3631 11.5683C32.0942 12.4028 30.5718 12.7634 29.0633 12.5867V10.8053C29.7527 10.909 30.4561 10.8698 31.1297 10.6902C31.8033 10.5107 32.4328 10.1946 32.9792 9.76164L34.3506 8.7046C34.5394 8.56004 34.7537 8.45241 34.9823 8.38735C35.2506 8.30827 35.5333 8.29123 35.8091 8.33752H35.8246C36.3154 8.42515 36.7519 8.70269 37.0395 9.10998C37.3271 9.51727 37.4426 10.0215 37.361 10.5134L36.2359 15.4588C36.1254 16.0312 35.8193 16.5474 35.3699 16.9188C34.9205 17.2901 34.356 17.4936 33.773 17.4943H28.0533L24.864 20L23.6118 18.7486L28.4295 14.9914H28.4288Z" fill="white"/>
<path d="M15.1655 2.31744V1.98615C15.1655 1.85435 15.2179 1.72796 15.3111 1.63476C15.4043 1.54157 15.5307 1.48921 15.6625 1.48921H23.1123V0.496048C23.1124 0.397893 23.1417 0.301988 23.1963 0.22043C23.2509 0.138873 23.3284 0.0753161 23.4191 0.0377773C23.5098 0.000238567 23.6096 -0.00960081 23.7059 0.00950038C23.8022 0.0286016 23.8906 0.0757877 23.9601 0.145107L25.6152 1.79874C25.7081 1.8919 25.7603 2.01811 25.7603 2.14969C25.7603 2.28126 25.7081 2.40747 25.6152 2.50063L23.9601 4.15848C23.8906 4.2278 23.8022 4.27498 23.7059 4.29408C23.6096 4.31318 23.5098 4.30334 23.4191 4.26581C23.3284 4.22827 23.2509 4.16471 23.1963 4.08315C23.1417 4.0016 23.1124 3.90569 23.1123 3.80754V2.81367H15.6625C15.5308 2.81367 15.4045 2.76141 15.3113 2.66837C15.2182 2.57533 15.1657 2.44911 15.1655 2.31744V2.31744ZM25.2642 5.46258H17.8144V4.4659C17.8143 4.36775 17.785 4.27184 17.7304 4.19028C17.6758 4.10873 17.5982 4.04517 17.5076 4.00763C17.4169 3.97009 17.3171 3.96025 17.2208 3.97935C17.1245 3.99845 17.0361 4.04564 16.9666 4.11496L15.3108 5.77351C15.2179 5.86667 15.1657 5.99287 15.1657 6.12445C15.1657 6.25603 15.2179 6.38224 15.3108 6.47539L16.9666 8.13114C17.0361 8.20046 17.1245 8.24764 17.2208 8.26674C17.3171 8.28584 17.4169 8.27601 17.5076 8.23847C17.5982 8.20093 17.6758 8.13737 17.7304 8.05581C17.785 7.97426 17.8143 7.87835 17.8144 7.7802V6.78703H25.2642C25.3297 6.7874 25.3945 6.77484 25.4551 6.75008C25.5157 6.72532 25.5707 6.68883 25.6172 6.64273C25.6636 6.59662 25.7005 6.5418 25.7257 6.4814C25.7509 6.42101 25.7639 6.35623 25.764 6.2908V5.95951C25.764 5.89401 25.751 5.82917 25.7259 5.76869C25.7007 5.70822 25.6639 5.65331 25.6174 5.60713C25.571 5.56095 25.5159 5.5244 25.4553 5.49959C25.3946 5.47479 25.3297 5.46221 25.2642 5.46258Z" fill="white"/>
</svg>
