<?xml version="1.0" encoding="UTF-8" standalone="no"?>
<svg
   xmlns:dc="http://purl.org/dc/elements/1.1/"
   xmlns:cc="http://creativecommons.org/ns#"
   xmlns:rdf="http://www.w3.org/1999/02/22-rdf-syntax-ns#"
   xmlns:svg="http://www.w3.org/2000/svg"
   xmlns="http://www.w3.org/2000/svg"
   xmlns:sodipodi="http://sodipodi.sourceforge.net/DTD/sodipodi-0.dtd"
   xmlns:inkscape="http://www.inkscape.org/namespaces/inkscape"
   width="5.84554mm"
   height="5.84554mm"
   viewBox="0 0 5.84554 5.84554"
   version="1.1"
   id="svg41393"
   inkscape:version="1.0.2 (e86c8708, 2021-01-15)"
   sodipodi:docname="standing1.svg">
  <defs
     id="defs41387" />
  <sodipodi:namedview
     id="base"
     pagecolor="#ffffff"
     bordercolor="#666666"
     borderopacity="1.0"
     inkscape:pageopacity="0.0"
     inkscape:pageshadow="2"
     inkscape:zoom="5.6"
     inkscape:cx="35.049477"
     inkscape:cy="51.883144"
     inkscape:document-units="mm"
     inkscape:current-layer="layer1"
     inkscape:document-rotation="0"
     showgrid="false"
     inkscape:window-width="1252"
     inkscape:window-height="943"
     inkscape:window-x="2240"
     inkscape:window-y="25"
     inkscape:window-maximized="0" />
  <metadata
     id="metadata41390">
    <rdf:RDF>
      <cc:Work
         rdf:about="">
        <dc:format>image/svg+xml</dc:format>
        <dc:type
           rdf:resource="http://purl.org/dc/dcmitype/StillImage" />
        <dc:title />
      </cc:Work>
    </rdf:RDF>
  </metadata>
  <g
     inkscape:label="Layer 1"
     inkscape:groupmode="layer"
     id="layer1"
     transform="translate(111.20636,-196.74969)">
    <g
       id="g42805">
      <path
         d="m -108.28535,196.92609 c -1.51342,0 -2.74461,1.2312 -2.74461,2.74461 0,1.51695 1.23119,2.74814 2.74461,2.74814 1.51694,0 2.74814,-1.23119 2.74814,-2.74814 0,-1.51341 -1.2312,-2.74461 -2.74814,-2.74461 z m 0,5.66914 c -1.60867,0 -2.921,-1.31233 -2.921,-2.92453 0,-1.60866 1.31233,-2.921 2.921,-2.921 1.61219,0 2.92453,1.31234 2.92453,2.921 0,1.6122 -1.31234,2.92453 -2.92453,2.92453"
         style="fill:#242122;fill-opacity:1;fill-rule:nonzero;stroke:none;stroke-width:0.0352778"
         id="path45608" />
      <path
         d="m -108.28535,197.86095 c -0.99836,0 -1.80975,0.81139 -1.80975,1.80975 0,1.00189 0.81139,1.81328 1.80975,1.81328 1.00189,0 1.81328,-0.81139 1.81328,-1.81328 0,-0.99836 -0.81139,-1.80975 -1.81328,-1.80975 z m 0,3.79942 c -1.09361,0 -1.98614,-0.89253 -1.98614,-1.98967 0,-1.09361 0.89253,-1.98613 1.98614,-1.98613 1.09714,0 1.98967,0.89252 1.98967,1.98613 0,1.09714 -0.89253,1.98967 -1.98967,1.98967"
         style="fill:#242122;fill-opacity:1;fill-rule:nonzero;stroke:none;stroke-width:0.0352778"
         id="path45610" />
      <path
         d="m -108.28535,197.86095 c -0.0459,0 -0.0847,-0.0388 -0.0847,-0.0882 v -0.93486 c 0,-0.0494 0.0388,-0.0882 0.0847,-0.0882 0.0494,0 0.0882,0.0388 0.0882,0.0882 v 0.93486 c 0,0.0494 -0.0388,0.0882 -0.0882,0.0882"
         style="fill:#242122;fill-opacity:1;fill-rule:nonzero;stroke:none;stroke-width:0.0352778"
         id="path45612" />
      <path
         d="m -108.28535,202.59523 c -0.0459,0 -0.0847,-0.0423 -0.0847,-0.0882 v -0.93486 c 0,-0.0494 0.0388,-0.0882 0.0847,-0.0882 0.0494,0 0.0882,0.0388 0.0882,0.0882 v 0.93486 c 0,0.0459 -0.0388,0.0882 -0.0882,0.0882"
         style="fill:#242122;fill-opacity:1;fill-rule:nonzero;stroke:none;stroke-width:0.0352778"
         id="path45614" />
      <path
         d="m -109.23432,198.11495 c -0.0282,0 -0.06,-0.0141 -0.0741,-0.0459 l -0.46919,-0.80786 c -0.0247,-0.0423 -0.0106,-0.0953 0.0318,-0.11994 0.0423,-0.0247 0.0988,-0.0106 0.11994,0.0317 l 0.4692,0.80786 c 0.0247,0.0423 0.0106,0.0988 -0.0318,0.12347 -0.0141,0.007 -0.0317,0.0106 -0.0459,0.0106"
         style="fill:#242122;fill-opacity:1;fill-rule:nonzero;stroke:none;stroke-width:0.0352778"
         id="path45616" />
      <path
         d="m -106.86718,202.21423 c -0.0317,0 -0.06,-0.0141 -0.0776,-0.0423 l -0.46567,-0.81139 c -0.0247,-0.0423 -0.0106,-0.0952 0.0318,-0.11994 0.0423,-0.0247 0.0988,-0.0106 0.11994,0.0318 l 0.4692,0.81138 c 0.0247,0.0388 0.0106,0.0952 -0.0318,0.11995 -0.0141,0.007 -0.0318,0.0106 -0.0459,0.0106"
         style="fill:#242122;fill-opacity:1;fill-rule:nonzero;stroke:none;stroke-width:0.0352778"
         id="path45618" />
      <path
         d="m -109.92929,198.80993 c -0.0141,0 -0.0282,-0.004 -0.0423,-0.0106 l -0.81139,-0.46919 c -0.0423,-0.0247 -0.0564,-0.0776 -0.0318,-0.11995 0.0247,-0.0423 0.0776,-0.0564 0.11995,-0.0317 l 0.81139,0.46567 c 0.0423,0.0247 0.0564,0.0811 0.0318,0.12347 -0.0176,0.0282 -0.0459,0.0423 -0.0776,0.0423"
         style="fill:#242122;fill-opacity:1;fill-rule:nonzero;stroke:none;stroke-width:0.0352778"
         id="path45620" />
      <path
         d="m -105.83002,201.17707 c -0.0141,0 -0.0282,-0.004 -0.0423,-0.0106 l -0.81139,-0.46919 c -0.0423,-0.0247 -0.0564,-0.0776 -0.0318,-0.11995 0.0247,-0.0423 0.0776,-0.0564 0.11995,-0.0317 l 0.81138,0.46567 c 0.0423,0.0247 0.0564,0.0811 0.0318,0.11994 -0.0176,0.0282 -0.0459,0.0459 -0.0776,0.0459"
         style="fill:#242122;fill-opacity:1;fill-rule:nonzero;stroke:none;stroke-width:0.0352778"
         id="path45622" />
      <path
         d="m -110.18329,199.7589 h -0.93487 c -0.0494,0 -0.0882,-0.0388 -0.0882,-0.0882 0,-0.0459 0.0388,-0.0882 0.0882,-0.0882 h 0.93487 c 0.0494,0 0.0882,0.0423 0.0882,0.0882 0,0.0494 -0.0388,0.0882 -0.0882,0.0882"
         style="fill:#242122;fill-opacity:1;fill-rule:nonzero;stroke:none;stroke-width:0.0352778"
         id="path45624" />
      <path
         d="m -105.44902,199.7589 h -0.93486 c -0.0494,0 -0.0882,-0.0388 -0.0882,-0.0882 0,-0.0459 0.0388,-0.0882 0.0882,-0.0882 h 0.93486 c 0.0494,0 0.0882,0.0423 0.0882,0.0882 0,0.0494 -0.0388,0.0882 -0.0882,0.0882"
         style="fill:#242122;fill-opacity:1;fill-rule:nonzero;stroke:none;stroke-width:0.0352778"
         id="path45626" />
      <path
         d="m -110.73716,201.17707 c -0.0318,0 -0.06,-0.0176 -0.0776,-0.0459 -0.0247,-0.0388 -0.0106,-0.0952 0.0318,-0.11994 l 0.81139,-0.46567 c 0.0423,-0.0247 0.0953,-0.0106 0.11995,0.0317 0.0247,0.0423 0.0106,0.0953 -0.0318,0.11995 l -0.81139,0.46919 c -0.0141,0.007 -0.0282,0.0106 -0.0423,0.0106"
         style="fill:#242122;fill-opacity:1;fill-rule:nonzero;stroke:none;stroke-width:0.0352778"
         id="path45628" />
      <path
         d="m -106.63788,198.80993 c -0.0318,0 -0.06,-0.0141 -0.0776,-0.0423 -0.0247,-0.0423 -0.0106,-0.0988 0.0318,-0.12347 l 0.81139,-0.46567 c 0.0423,-0.0247 0.0952,-0.0106 0.11994,0.0317 0.0247,0.0423 0.0106,0.0953 -0.0318,0.11995 l -0.81138,0.46919 c -0.0141,0.007 -0.0282,0.0106 -0.0423,0.0106"
         style="fill:#242122;fill-opacity:1;fill-rule:nonzero;stroke:none;stroke-width:0.0352778"
         id="path45630" />
      <path
         d="m -109.69999,202.21423 c -0.0141,0 -0.0318,-0.004 -0.0459,-0.0106 -0.0423,-0.0247 -0.0564,-0.0811 -0.0318,-0.11995 l 0.46919,-0.81138 c 0.0212,-0.0423 0.0776,-0.0565 0.11995,-0.0318 0.0423,0.0247 0.0564,0.0776 0.0318,0.11994 l -0.4692,0.81139 c -0.0141,0.0282 -0.0459,0.0423 -0.0741,0.0423"
         style="fill:#242122;fill-opacity:1;fill-rule:nonzero;stroke:none;stroke-width:0.0352778"
         id="path45632" />
      <path
         d="m -107.33285,198.11495 c -0.0176,0 -0.0318,-0.004 -0.0459,-0.0106 -0.0423,-0.0247 -0.0564,-0.0811 -0.0318,-0.12347 l 0.46567,-0.80786 c 0.0247,-0.0423 0.0811,-0.0564 0.12347,-0.0317 0.0423,0.0247 0.0564,0.0776 0.0318,0.11994 l -0.4692,0.80786 c -0.0141,0.0282 -0.0459,0.0459 -0.0741,0.0459"
         style="fill:#242122;fill-opacity:1;fill-rule:nonzero;stroke:none;stroke-width:0.0352778"
         id="path45634" />
      <text
         xml:space="preserve"
         style="font-style:normal;font-weight:normal;font-size:3.41684px;line-height:1.25;font-family:sans-serif;fill:#000000;fill-opacity:1;stroke:none;stroke-width:0.0854212"
         x="-118.88035"
         y="184.76421"
         id="text42787"
         transform="scale(0.91900014,1.0881391)"><tspan
           sodipodi:role="line"
           id="tspan42785"
           x="-118.88035"
           y="184.76421"
           style="stroke-width:0.0854212">1</tspan></text>
    </g>
  </g>
</svg>
