<svg width="179" height="250" viewBox="0 0 179 250" fill="none" xmlns="http://www.w3.org/2000/svg">
<g clip-path="url(#clip0)">
<path d="M8.54942 -0.0374756H170.026C174.705 -0.0374756 178.587 3.75034 178.587 8.53499V240.889C178.587 245.574 174.804 249.462 170.026 249.462H8.54942C3.8704 249.462 -0.012207 245.674 -0.012207 240.889V8.53499C-0.012207 3.85003 3.8704 -0.0374756 8.54942 -0.0374756Z" fill="white"/>
<path d="M89.2999 26.5C81.3999 26.7 77.8999 35.5 83.6999 42.4C84.4999 43.4 84.5999 44 83.0999 43C79.1999 40.4 71.6999 42.1 71.2999 50.1C70.7999 60 84.5999 62.8 87.1999 52.3C87.2999 51.2 88.1999 51.2 87.9999 52.8C87.7999 57.1 86.3999 61 84.5999 64.9C87.6999 64.9 91.0999 64.9 93.8999 64.9C92.0999 61 90.6999 57 90.4999 52.8C90.2999 51.2 91.1999 51.2 91.2999 52.3C93.8999 62.8 107.7 59.9 107.2 50.1C106.8 42.1 99.2999 40.4 95.3999 43C93.8999 44 93.8999 43.4 94.7999 42.4C100.7 35.5 97.0999 26.7 89.2999 26.5Z" fill="#025E0B"/>
<path d="M89.2999 223.6C81.3999 223.4 77.8999 214.6 83.6999 207.7C84.4999 206.7 84.5999 206.1 83.0999 207.1C79.1999 209.7 71.6999 208 71.2999 200C70.7999 190.1 84.5999 187.3 87.1999 197.8C87.2999 198.9 88.1999 198.9 87.9999 197.3C87.7999 193 86.3999 189.1 84.5999 185.2C87.6999 185.2 91.0999 185.2 93.8999 185.2C92.0999 189.1 90.6999 193.1 90.4999 197.3C90.2999 198.9 91.1999 198.9 91.2999 197.8C93.8999 187.3 107.7 190.2 107.2 200C106.8 208 99.2999 209.7 95.3999 207.1C93.8999 206.1 93.8999 206.7 94.7999 207.7C100.7 214.6 97.0999 223.5 89.2999 223.6Z" fill="#025E0B"/>
<path d="M164.8 209.5C167.9 209.4 169.4 205.7 167 202.9C166.7 202.5 166.6 202.2 167.2 202.6C168.8 203.7 171.8 203 171.9 199.6C172.1 195.5 166.6 194.3 165.5 198.7C165.4 199.2 165.1 199.2 165.2 198.5C165.3 196.7 165.8 195.1 166.6 193.4C165.4 193.4 164.1 193.4 162.9 193.4C163.6 195 164.2 196.7 164.3 198.5C164.4 199.2 164 199.2 164 198.7C163 194.3 157.5 195.5 157.6 199.6C157.8 202.9 160.8 203.6 162.3 202.6C162.9 202.2 162.9 202.4 162.5 202.9C160.3 205.7 161.7 209.4 164.8 209.5Z" fill="#025E0B"/>
<path d="M13.8001 40C10.7001 40.1 9.20014 43.8 11.6001 46.6C11.9001 47 12.0001 47.3 11.4001 46.9C9.80014 45.8 6.80014 46.5 6.70014 49.9C6.50014 54 12.0001 55.2 13.1001 50.8C13.2001 50.3 13.5001 50.3 13.4001 51C13.3001 52.8 12.8001 54.4 12.0001 56.1C13.2001 56.1 14.5001 56.1 15.7001 56.1C15.0001 54.5 14.4001 52.8 14.3001 51C14.2001 50.3 14.6001 50.3 14.6001 50.8C15.6001 55.2 21.1001 54 21.0001 49.9C20.8001 46.6 17.8001 45.9 16.3001 46.9C15.7001 47.3 15.7001 47.1 16.1001 46.6C18.3001 43.7 16.9001 40 13.8001 40Z" fill="#025E0B"/>
<path d="M5.89982 37.4L5.99982 35.8C6.39982 30.8 7.49982 29.1 13.5998 23.8C16.5998 21.3 17.5998 20 17.6998 18.5C18.0998 15.1 14.9998 14 13.0998 14C10.4998 14 7.59982 15.5 8.99982 19.2L6.09982 20.1C5.49982 16.7 6.09982 13.5 8.79982 12.1C12.3998 10.3 16.9998 11 19.2998 13.9C20.8998 15.8 21.1998 18.5 20.3998 20.6C17.9998 26 9.69982 28.3 8.99982 34.6H18.1998V31.1H20.8998V37.5L5.89982 37.4Z" fill="#025E0B"/>
<path d="M172.3 212L172.2 213.6C171.8 218.6 170.7 220.3 164.6 225.6C161.6 228.1 160.6 229.4 160.5 230.9C160.1 234.3 163.2 235.4 165.1 235.4C167.7 235.4 170.6 233.9 169.2 230.2L172.1 229.3C172.7 232.7 172.1 235.9 169.4 237.3C165.8 239.1 161.2 238.4 158.9 235.5C157.3 233.6 157 230.9 157.8 228.8C160.3 223.4 168.6 221.1 169.3 214.8H160V218.3H157.3V212H172.3Z" fill="#025E0B"/>
</g>
<defs>
<clipPath id="clip0">
<rect width="178.6" height="249.4" fill="white"/>
</clipPath>
</defs>
</svg>
