<svg width="179" height="250" viewBox="0 0 179 250" fill="none" xmlns="http://www.w3.org/2000/svg">
<g clip-path="url(#clip0)">
<path d="M8.5 0H170C174.7 0 178.5 3.8 178.5 8.5V240.9C178.5 245.6 174.7 249.4 170 249.4H8.5C3.8 249.4 0 245.6 0 240.9V8.5C0 3.8 3.8 0 8.5 0Z" fill="white"/>
<path d="M89.2998 64.5999C85.1998 57.6999 80.7998 51.1 75.2998 45.4C80.7998 39.7 85.0998 33.1 89.2998 26.2C93.3998 33.1 97.7998 39.7 103.3 45.4C97.7998 51 93.3998 57.6999 89.2998 64.5999Z" fill="#030D6D"/>
<path d="M13.8 56C12.1 53.1 10.3 50.4 8 48C10.3 45.6 12.1 42.9 13.8 40C15.5 42.9 17.3 45.6 19.6 48C17.3 50.3 15.5 53.1 13.8 56Z" fill="#030D6D"/>
<path d="M164.8 209.5C163.1 206.6 161.3 203.9 159 201.5C161.3 199.1 163.1 196.4 164.8 193.5C166.5 196.4 168.3 199.1 170.6 201.5C168.4 203.8 166.5 206.6 164.8 209.5Z" fill="#030D6D"/>
<path d="M89.2998 223.3C85.1998 216.4 80.7998 209.8 75.2998 204.1C80.7998 198.4 85.0998 191.8 89.2998 184.9C93.3998 191.8 97.7998 198.4 103.3 204.1C97.7998 209.8 93.3998 216.4 89.2998 223.3Z" fill="#030D6D"/>
<path d="M6.30021 37.4L6.40021 35.8C6.80021 30.8 7.90021 29.1 14.0002 23.8C17.0002 21.3 18.0002 20 18.1002 18.5C18.5002 15.1 15.4002 14 13.5002 14C10.9002 14 8.00021 15.5 9.40021 19.2L6.50021 20.1C5.90021 16.7 6.50021 13.5 9.20021 12.1C12.8002 10.3 17.4002 11 19.7002 13.9C21.3002 15.8 21.6002 18.5 20.8002 20.6C18.3002 26 10.0002 28.3 9.30021 34.6H18.5002V31.1H21.2002V37.5L6.30021 37.4Z" fill="#030D6D"/>
<path d="M172.3 212L172.2 213.6C171.8 218.6 170.7 220.3 164.6 225.6C161.6 228.1 160.6 229.4 160.5 230.9C160.1 234.3 163.2 235.4 165.1 235.4C167.7 235.4 170.6 233.9 169.2 230.2L172.1 229.3C172.7 232.7 172.1 235.9 169.4 237.3C165.8 239.1 161.2 238.4 158.9 235.5C157.3 233.6 157 230.9 157.8 228.8C160.3 223.4 168.6 221.1 169.3 214.8H160V218.3H157.3V212H172.3Z" fill="#030D6D"/>
</g>
<defs>
<clipPath id="clip0">
<rect width="178.6" height="249.4" fill="white"/>
</clipPath>
</defs>
</svg>
