<svg width="179" height="250" viewBox="0 0 179 250" fill="none" xmlns="http://www.w3.org/2000/svg">
<g clip-path="url(#clip0)">
<path d="M8.49902 0.0244141H169.999C174.699 0.0244141 178.499 3.82441 178.499 8.52441V240.924C178.499 245.624 174.699 249.424 169.999 249.424H8.49902C3.79902 249.424 -0.000976562 245.624 -0.000976562 240.924V8.52441C-0.000976562 3.82441 3.79902 0.0244141 8.49902 0.0244141Z" fill="white"/>
<path d="M13.8001 56C13.8001 56 12.0001 53.4 9.6001 50.4C8.0001 48.4 6.7001 46.2 6.6001 44.3C6.5001 42.2 7.8001 40 10.1001 39.9C12.4001 39.8 13.4001 41.5 13.8001 43C14.2001 41.6 15.1001 39.8 17.5001 39.9C19.8001 40 21.1001 42.2 21.0001 44.3C20.9001 46.2 19.6001 48.3 18.0001 50.4C15.6001 53.4 13.8001 56 13.8001 56Z" fill="#FF0000"/>
<path d="M164.8 193.5C164.8 193.5 163 196.1 160.6 199.1C159 201.1 157.7 203.3 157.6 205.2C157.5 207.3 158.8 209.5 161.1 209.6C163.4 209.7 164.4 208 164.8 206.5C165.2 207.9 166.1 209.7 168.5 209.6C170.8 209.5 172.1 207.3 172 205.2C171.9 203.3 170.6 201.2 169 199.1C166.6 196 164.8 193.5 164.8 193.5Z" fill="#FF0000"/>
<path d="M89.2998 64.6001C89.2998 64.6001 85.5998 58.5001 80.4998 51.3001C77.0998 46.5001 74.3998 41.3001 74.1998 36.8001C73.8998 31.7001 76.5998 26.5001 81.5998 26.3001C86.4998 26.1001 88.4998 30.3001 89.2998 33.7001C90.0998 30.2001 92.0998 26.0001 96.9998 26.3001C101.9 26.5001 104.6 31.7001 104.4 36.8001C104.1 41.3001 101.5 46.5001 98.0998 51.3001C92.9998 58.4001 89.2998 64.6001 89.2998 64.6001Z" fill="#FF0000"/>
<path d="M89.2998 184.9C89.2998 184.9 85.5998 191 80.4998 198.2C77.0998 203 74.3998 208.2 74.1998 212.7C73.8998 217.8 76.5998 223 81.5998 223.2C86.4998 223.4 88.4998 219.2 89.2998 215.8C90.0998 219.3 92.0998 223.5 96.9998 223.2C101.9 223 104.6 217.8 104.4 212.7C104.1 208.2 101.5 203 98.0998 198.2C92.9998 191 89.2998 184.9 89.2998 184.9Z" fill="#FF0000"/>
<path d="M6.30021 37.4L6.40021 35.8C6.80021 30.8 7.90021 29.1 14.0002 23.8C17.0002 21.3 18.0002 20 18.1002 18.5C18.5002 15.1 15.4002 14 13.5002 14C10.9002 14 8.00021 15.5 9.40021 19.2L6.50021 20.1C5.90021 16.7 6.50021 13.5 9.20021 12.1C12.8002 10.3 17.4002 11 19.7002 13.9C21.3002 15.8 21.6002 18.5 20.8002 20.6C18.3002 26 10.0002 28.3 9.30021 34.6H18.5002V31.1H21.2002V37.5L6.30021 37.4Z" fill="#FF0000"/>
<path d="M172.3 212L172.2 213.6C171.8 218.6 170.7 220.3 164.6 225.6C161.6 228.1 160.6 229.4 160.5 230.9C160.1 234.3 163.2 235.4 165.1 235.4C167.7 235.4 170.6 233.9 169.2 230.2L172.1 229.3C172.7 232.7 172.1 235.9 169.4 237.3C165.8 239.1 161.2 238.4 158.9 235.5C157.3 233.6 157 230.9 157.8 228.8C160.3 223.4 168.6 221.1 169.3 214.8H160V218.3H157.3V212H172.3Z" fill="#FF0000"/>
</g>
<defs>
<clipPath id="clip0">
<rect width="178.6" height="249.4" fill="white"/>
</clipPath>
</defs>
</svg>
