<svg width="179" height="250" viewBox="0 0 179 250" fill="none" xmlns="http://www.w3.org/2000/svg">
<g clip-path="url(#clip0)">
<path d="M8.55531 -0.03125H170.049C174.742 -0.03125 178.582 3.80875 178.582 8.50208V240.929C178.582 245.622 174.742 249.462 170.049 249.462H8.55531C3.86197 249.462 0.0219727 245.622 0.0219727 240.929V8.50208C0.0219727 3.80875 3.86197 -0.03125 8.55531 -0.03125Z" fill="white"/>
<path d="M13.7819 39.9688C10.3685 44.3421 6.63525 46.902 6.63525 50.3154C6.63525 51.382 7.27523 53.302 9.40856 53.622C10.7952 53.8353 12.6085 52.8754 12.7152 50.8487C12.7152 50.422 13.1419 50.422 13.1419 50.9553C13.0352 52.5553 12.5019 54.3688 11.5419 55.8621C13.0352 55.8621 14.5285 55.8621 16.0218 55.8621C15.0618 54.3688 14.5285 52.5553 14.4218 50.9553C14.4218 50.422 14.8485 50.422 14.8485 50.8487C14.8485 52.8754 16.7685 53.8353 18.1552 53.622C20.2885 53.302 20.9286 51.382 20.9286 50.3154C20.9286 46.902 17.1952 44.3421 13.7819 39.9688Z" fill="black"/>
<path d="M164.822 209.462C161.409 205.089 157.675 202.529 157.675 199.115C157.675 198.049 158.315 196.129 160.449 195.809C161.835 195.595 163.649 196.555 163.755 198.582C163.755 199.009 164.182 199.009 164.182 198.475C164.075 196.875 163.542 195.062 162.582 193.569C164.075 193.569 165.569 193.569 167.062 193.569C166.102 195.062 165.569 196.875 165.462 198.475C165.462 199.009 165.889 199.009 165.889 198.582C165.889 196.555 167.809 195.595 169.195 195.809C171.329 196.129 171.969 198.049 171.969 199.115C171.969 202.529 168.235 205.089 164.822 209.462Z" fill="black"/>
<path d="M89.3019 26.1021C81.9419 36.662 74.0486 42.6353 73.9419 50.8487C73.9419 53.5153 75.3286 57.9953 79.8086 58.8487C82.6886 59.382 86.7419 57.0354 86.8485 52.2354C86.8485 51.2754 87.8086 51.2754 87.8086 52.6621C87.7019 56.5021 86.4219 60.8754 84.5019 64.502C87.7019 64.502 90.9019 64.502 94.2086 64.502C92.1819 60.8754 91.0086 56.5021 90.9019 52.6621C90.9019 51.3821 91.9686 51.2754 91.862 52.2354C91.9686 57.0354 95.9153 59.382 98.9019 58.8487C103.382 57.9953 104.875 53.5153 104.769 50.8487C104.555 42.742 96.6619 36.662 89.3019 26.1021Z" fill="black"/>
<path d="M89.3019 223.329C81.9419 212.769 74.0486 206.795 73.9419 198.582C73.9419 195.915 75.3286 191.435 79.8086 190.582C82.6886 190.049 86.7419 192.395 86.8485 197.195C86.8485 198.155 87.8086 198.155 87.8086 196.769C87.7019 192.929 86.4219 188.555 84.5019 184.929C87.7019 184.929 90.9019 184.929 94.2086 184.929C92.1819 188.555 91.0086 192.929 90.9019 196.769C90.9019 198.049 91.9686 198.155 91.862 197.195C91.9686 192.395 95.9153 190.049 98.9019 190.582C103.382 191.435 104.875 195.915 104.769 198.582C104.555 206.689 96.6619 212.769 89.3019 223.329Z" fill="black"/>
<path d="M6.20898 37.4086L6.31563 35.8086C6.74229 30.7953 7.80893 29.0887 13.8889 23.862C16.8756 21.302 17.8357 20.022 17.9423 18.6353C18.369 15.222 15.2756 14.1553 13.3556 14.1553C10.7956 14.1553 7.91568 15.6487 9.30234 19.2753L6.42227 20.1287C5.88893 16.7154 6.42227 13.5154 9.08893 12.1287C12.7156 10.3154 17.3023 11.062 19.649 13.942C21.249 15.862 21.569 18.5287 20.7156 20.662C18.2623 25.9954 9.94237 28.4487 9.1957 34.6353H18.369V31.2219H21.0357V37.6219L6.20898 37.4086Z" fill="black"/>
<path d="M172.289 212.022L172.182 213.622C171.756 218.635 170.689 220.342 164.609 225.569C161.622 228.129 160.662 229.409 160.556 230.795C160.129 234.209 163.222 235.275 165.142 235.275C167.702 235.275 170.582 233.782 169.196 230.155L172.076 229.302C172.609 232.715 172.076 235.915 169.409 237.302C165.782 239.115 161.196 238.369 158.849 235.489C157.249 233.569 156.929 230.902 157.782 228.769C160.236 223.435 168.556 220.982 169.302 214.795H160.129V218.209H157.462V211.809L172.289 212.022Z" fill="black"/>
</g>
<defs>
<clipPath id="clip0">
<rect width="178.6" height="249.4" fill="white"/>
</clipPath>
</defs>
</svg>
