<svg width="179" height="250" viewBox="0 0 179 250" fill="none" xmlns="http://www.w3.org/2000/svg">
<g clip-path="url(#clip0)">
<path d="M8.55867 -0.0374756H170.035C174.714 -0.0374756 178.597 3.75034 178.597 8.53499V240.889C178.597 245.574 174.813 249.462 170.035 249.462H8.55867C3.87964 249.462 -0.00292969 245.674 -0.00292969 240.889V8.53499C-0.00292969 3.85003 3.78009 -0.0374756 8.55867 -0.0374756Z" fill="white"/>
<path d="M89.2999 26.5C81.3999 26.7 77.8999 35.5 83.6999 42.4C84.4999 43.4 84.5999 44 83.0999 43C79.1999 40.4 71.6999 42.1 71.2999 50.1C70.7999 60 84.5999 62.8 87.1999 52.3C87.2999 51.2 88.1999 51.2 87.9999 52.8C87.7999 57.1 86.3999 61 84.5999 64.9C87.6999 64.9 91.0999 64.9 93.8999 64.9C92.0999 61 90.6999 57 90.4999 52.8C90.2999 51.2 91.1999 51.2 91.2999 52.3C93.8999 62.8 107.7 59.9 107.2 50.1C106.8 42.1 99.2999 40.4 95.3999 43C93.8999 44 93.8999 43.4 94.7999 42.4C100.7 35.5 97.0999 26.7 89.2999 26.5Z" fill="#025E0B"/>
<path d="M89.2999 223.6C81.3999 223.4 77.8999 214.6 83.6999 207.7C84.4999 206.7 84.5999 206.1 83.0999 207.1C79.1999 209.7 71.6999 208 71.2999 200C70.7999 190.1 84.5999 187.3 87.1999 197.8C87.2999 198.9 88.1999 198.9 87.9999 197.3C87.7999 193 86.3999 189.1 84.5999 185.2C87.6999 185.2 91.0999 185.2 93.8999 185.2C92.0999 189.1 90.6999 193.1 90.4999 197.3C90.2999 198.9 91.1999 198.9 91.2999 197.8C93.8999 187.3 107.7 190.2 107.2 200C106.8 208 99.2999 209.7 95.3999 207.1C93.8999 206.1 93.8999 206.7 94.7999 207.7C100.7 214.6 97.0999 223.5 89.2999 223.6Z" fill="#025E0B"/>
<path d="M89.2999 105.9C81.3999 106.1 77.8999 114.9 83.6999 121.8C84.4999 122.8 84.5999 123.4 83.0999 122.4C79.1999 119.8 71.6999 121.5 71.2999 129.5C70.7999 139.4 84.5999 142.2 87.1999 131.7C87.2999 130.6 88.1999 130.6 87.9999 132.2C87.7999 136.5 86.3999 140.4 84.5999 144.3C87.6999 144.3 91.0999 144.3 93.8999 144.3C92.0999 140.4 90.6999 136.4 90.4999 132.2C90.2999 130.6 91.1999 130.6 91.2999 131.7C93.8999 142.2 107.7 139.3 107.2 129.5C106.8 121.5 99.2999 119.8 95.3999 122.4C93.8999 123.4 93.8999 122.8 94.7999 121.8C100.7 114.9 97.0999 106 89.2999 105.9Z" fill="#025E0B"/>
<path d="M164.8 209.5C167.9 209.4 169.4 205.7 167 202.9C166.7 202.5 166.6 202.2 167.2 202.6C168.8 203.7 171.8 203 171.9 199.6C172.1 195.5 166.6 194.3 165.5 198.7C165.4 199.2 165.1 199.2 165.2 198.5C165.3 196.7 165.8 195.1 166.6 193.4C165.4 193.4 164.1 193.4 162.9 193.4C163.6 195 164.2 196.7 164.3 198.5C164.4 199.2 164 199.2 164 198.7C163 194.3 157.5 195.5 157.6 199.6C157.8 202.9 160.8 203.6 162.3 202.6C162.9 202.2 162.9 202.4 162.5 202.9C160.3 205.7 161.7 209.4 164.8 209.5Z" fill="#025E0B"/>
<path d="M13.8001 40C10.7001 40.1 9.20014 43.8 11.6001 46.6C11.9001 47 12.0001 47.3 11.4001 46.9C9.80014 45.8 6.80014 46.5 6.70014 49.9C6.50014 54 12.0001 55.2 13.1001 50.8C13.2001 50.3 13.5001 50.3 13.4001 51C13.3001 52.8 12.8001 54.4 12.0001 56.1C13.2001 56.1 14.5001 56.1 15.7001 56.1C15.0001 54.5 14.4001 52.8 14.3001 51C14.2001 50.3 14.6001 50.3 14.6001 50.8C15.6001 55.2 21.1001 54 21.0001 49.9C20.8001 46.6 17.8001 45.9 16.3001 46.9C15.7001 47.3 15.7001 47.1 16.1001 46.6C18.3001 43.7 16.9001 40 13.8001 40Z" fill="#025E0B"/>
<path d="M5.2002 31.7L7.2002 30.2C9.0002 33.1 11.0002 35 14.0002 34.6C18.5002 34.3 20.4002 29.5 19.5002 26C18.6002 22.8 14.8002 21.2 11.9002 22.9C11.2002 23.3 10.5002 23.6 10.4002 23.6C10.1002 23.6 9.4002 22.2 9.5002 21.8C11.5002 18.9 16.4002 13.8 16.4002 13.8H8.6002V17.2H5.7002V11.1H20.5002V13.2C20.5002 13.2 16.5002 17.3 15.2002 19.6C18.4002 19.7 21.0002 21.8 22.0002 25C22.5002 26.7 22.3002 30.6 21.6002 32.3C20.4002 35.1 17.1002 37.4 14.2002 37.5C9.2002 37.8 6.5002 34.3 5.2002 31.7Z" fill="#025E0B"/>
<path d="M173.4 217.8L171.4 219.3C169.6 216.4 167.7 214.5 164.6 214.9C160.1 215.2 158.2 220 159.1 223.5C160 226.7 163.8 228.3 166.7 226.6C167.4 226.2 168.1 225.9 168.2 225.9C168.5 225.9 169.2 227.3 169.1 227.7C167.1 230.6 162.2 235.7 162.2 235.7H169.8V232.3H172.7V238.4H158V236.3C158 236.3 162 232.2 163.3 229.9C160.1 229.8 157.5 227.7 156.5 224.5C156 222.8 156.2 218.9 156.9 217.2C158.1 214.4 161.4 212.1 164.3 212C169.4 211.7 172.1 215.2 173.4 217.8Z" fill="#025E0B"/>
</g>
<defs>
<clipPath id="clip0">
<rect width="178.6" height="249.4" fill="white"/>
</clipPath>
</defs>
</svg>
