<svg width="179" height="250" viewBox="0 0 179 250" fill="none" xmlns="http://www.w3.org/2000/svg">
<g clip-path="url(#clip0)">
<path d="M8.5 0H170C174.7 0 178.5 3.8 178.5 8.5V240.9C178.5 245.6 174.7 249.4 170 249.4H8.5C3.8 249.4 0 245.6 0 240.9V8.5C0 3.8 3.8 0 8.5 0Z" fill="white"/>
<path d="M89.2998 64.5999C85.1998 57.6999 80.7998 51.1 75.2998 45.4C80.7998 39.7 85.0998 33.1 89.2998 26.2C93.3998 33.1 97.7998 39.7 103.3 45.4C97.7998 51 93.3998 57.6999 89.2998 64.5999Z" fill="#030D6D"/>
<path d="M13.8 56C12.1 53.1 10.3 50.4 8 48C10.3 45.6 12.1 42.9 13.8 40C15.5 42.9 17.3 45.6 19.6 48C17.3 50.3 15.5 53.1 13.8 56Z" fill="#030D6D"/>
<path d="M164.8 209.5C163.1 206.6 161.3 203.9 159 201.5C161.3 199.1 163.1 196.4 164.8 193.5C166.5 196.4 168.3 199.1 170.6 201.5C168.4 203.8 166.5 206.6 164.8 209.5Z" fill="#030D6D"/>
<path d="M89.2998 143.9C85.1998 137 80.7998 130.4 75.2998 124.7C80.7998 119 85.0998 112.4 89.2998 105.5C93.3998 112.4 97.7998 119 103.3 124.7C97.7998 130.4 93.3998 137.1 89.2998 143.9Z" fill="#030D6D"/>
<path d="M89.2998 223.3C85.1998 216.4 80.7998 209.8 75.2998 204.1C80.7998 198.4 85.0998 191.8 89.2998 184.9C93.3998 191.8 97.7998 198.4 103.3 204.1C97.7998 209.8 93.3998 216.4 89.2998 223.3Z" fill="#030D6D"/>
<path d="M5.2002 31.7L7.2002 30.2C9.0002 33.1 11.0002 35 14.0002 34.6C18.5002 34.3 20.4002 29.5 19.5002 26C18.6002 22.8 14.8002 21.2 11.9002 22.9C11.2002 23.3 10.5002 23.6 10.4002 23.6C10.1002 23.6 9.4002 22.2 9.5002 21.8C11.5002 18.9 16.4002 13.8 16.4002 13.8H8.6002V17.2H5.7002V11.1H20.5002V13.2C20.5002 13.2 16.5002 17.3 15.2002 19.6C18.4002 19.7 21.0002 21.8 22.0002 25C22.5002 26.7 22.3002 30.6 21.6002 32.3C20.4002 35.1 17.1002 37.4 14.2002 37.5C9.2002 37.8 6.5002 34.3 5.2002 31.7Z" fill="#030D6D"/>
<path d="M173.4 217.8L171.4 219.3C169.6 216.4 167.7 214.5 164.6 214.9C160.1 215.2 158.2 220 159.1 223.5C160 226.7 163.8 228.3 166.7 226.6C167.4 226.2 168.1 225.9 168.2 225.9C168.5 225.9 169.2 227.3 169.1 227.7C167.1 230.6 162.2 235.7 162.2 235.7H169.8V232.3H172.7V238.4H158V236.3C158 236.3 162 232.2 163.3 229.9C160.1 229.8 157.5 227.7 156.5 224.5C156 222.8 156.2 218.9 156.9 217.2C158.1 214.4 161.4 212.1 164.3 212C169.4 211.7 172.1 215.2 173.4 217.8Z" fill="#030D6D"/>
</g>
<defs>
<clipPath id="clip0">
<rect width="178.6" height="249.4" fill="white"/>
</clipPath>
</defs>
</svg>
