<svg width="179" height="250" viewBox="0 0 179 250" fill="none" xmlns="http://www.w3.org/2000/svg">
<g clip-path="url(#clip0)">
<path d="M8.54541 0.0244141H170.045C174.745 0.0244141 178.545 3.82441 178.545 8.52441V240.924C178.545 245.624 174.745 249.424 170.045 249.424H8.54541C3.84541 249.424 0.0454102 245.624 0.0454102 240.924V8.52441C0.0454102 3.82441 3.84541 0.0244141 8.54541 0.0244141Z" fill="white"/>
<path d="M13.8001 56C13.8001 56 12.0001 53.4 9.6001 50.4C8.0001 48.4 6.7001 46.2 6.6001 44.3C6.5001 42.2 7.8001 40 10.1001 39.9C12.4001 39.8 13.4001 41.5 13.8001 43C14.2001 41.6 15.1001 39.8 17.5001 39.9C19.8001 40 21.1001 42.2 21.0001 44.3C20.9001 46.2 19.6001 48.3 18.0001 50.4C15.6001 53.4 13.8001 56 13.8001 56Z" fill="#FF0000"/>
<path d="M164.8 193.5C164.8 193.5 163 196.1 160.6 199.1C159 201.1 157.7 203.3 157.6 205.2C157.5 207.3 158.8 209.5 161.1 209.6C163.4 209.7 164.4 208 164.8 206.5C165.2 207.9 166.1 209.7 168.5 209.6C170.8 209.5 172.1 207.3 172 205.2C171.9 203.3 170.6 201.2 169 199.1C166.6 196 164.8 193.5 164.8 193.5Z" fill="#FF0000"/>
<path d="M89.2998 64.6001C89.2998 64.6001 85.5998 58.5001 80.4998 51.3001C77.0998 46.5001 74.3998 41.3001 74.1998 36.8001C73.8998 31.7001 76.5998 26.5001 81.5998 26.3001C86.4998 26.1001 88.4998 30.3001 89.2998 33.7001C90.0998 30.2001 92.0998 26.0001 96.9998 26.3001C101.9 26.5001 104.6 31.7001 104.4 36.8001C104.1 41.3001 101.5 46.5001 98.0998 51.3001C92.9998 58.4001 89.2998 64.6001 89.2998 64.6001Z" fill="#FF0000"/>
<path d="M89.2998 143.9C89.2998 143.9 85.5998 137.8 80.4998 130.6C77.0998 125.8 74.3998 120.6 74.1998 116.1C73.8998 111 76.5998 105.8 81.5998 105.6C86.4998 105.4 88.4998 109.6 89.2998 113C90.0998 109.5 92.0998 105.3 96.9998 105.6C101.9 105.8 104.6 111 104.4 116.1C104.1 120.6 101.5 125.8 98.0998 130.6C92.9998 137.8 89.2998 143.9 89.2998 143.9Z" fill="#FF0000"/>
<path d="M89.2998 184.9C89.2998 184.9 85.5998 191 80.4998 198.2C77.0998 203 74.3998 208.2 74.1998 212.7C73.8998 217.8 76.5998 223 81.5998 223.2C86.4998 223.4 88.4998 219.2 89.2998 215.8C90.0998 219.3 92.0998 223.5 96.9998 223.2C101.9 223 104.6 217.8 104.4 212.7C104.1 208.2 101.5 203 98.0998 198.2C92.9998 191 89.2998 184.9 89.2998 184.9Z" fill="#FF0000"/>
<path d="M5.2002 31.7001L7.2002 30.2001C9.0002 33.1001 11.0002 35.0001 14.0002 34.6001C18.5002 34.3001 20.4002 29.5001 19.5002 26.0001C18.6002 22.8001 14.8002 21.2001 11.9002 22.9001C11.2002 23.3001 10.5002 23.6001 10.4002 23.6001C10.1002 23.6001 9.4002 22.2001 9.5002 21.8001C11.5002 18.9001 16.4002 13.8001 16.4002 13.8001H8.6002V17.2001H5.7002V11.1001H20.5002V13.2001C20.5002 13.2001 16.5002 17.3001 15.2002 19.6001C18.4002 19.7001 21.0002 21.8001 22.0002 25.0001C22.5002 26.7001 22.3002 30.6001 21.6002 32.3001C20.4002 35.1001 17.1002 37.4001 14.2002 37.5001C9.2002 37.8001 6.5002 34.3001 5.2002 31.7001Z" fill="#FF0000"/>
<path d="M173.4 217.8L171.4 219.3C169.6 216.4 167.7 214.5 164.6 214.9C160.1 215.2 158.2 220 159.1 223.5C160 226.7 163.8 228.3 166.7 226.6C167.4 226.2 168.1 225.9 168.2 225.9C168.5 225.9 169.2 227.3 169.1 227.7C167.1 230.6 162.2 235.7 162.2 235.7H169.8V232.3H172.7V238.4H158V236.3C158 236.3 162 232.2 163.3 229.9C160.1 229.8 157.5 227.7 156.5 224.5C156 222.8 156.2 218.9 156.9 217.2C158.1 214.4 161.4 212.1 164.3 212C169.4 211.7 172.1 215.2 173.4 217.8Z" fill="#FF0000"/>
</g>
<defs>
<clipPath id="clip0">
<rect width="178.6" height="249.4" fill="white"/>
</clipPath>
</defs>
</svg>
