<svg width="179" height="250" viewBox="0 0 179 250" fill="none" xmlns="http://www.w3.org/2000/svg">
<g clip-path="url(#clip0)">
<path d="M8.55287 -0.03125H170.046C174.74 -0.03125 178.58 3.80875 178.58 8.50208V240.929C178.58 245.622 174.74 249.462 170.046 249.462H8.55287C3.85953 249.462 0.0195312 245.622 0.0195312 240.929V8.50208C0.0195312 3.80875 3.85953 -0.03125 8.55287 -0.03125Z" fill="white"/>
<path d="M13.7794 39.9688C10.3661 44.3421 6.63281 46.902 6.63281 50.3154C6.63281 51.382 7.27279 53.302 9.40612 53.622C10.7928 53.8353 12.6061 52.8754 12.7128 50.8487C12.7128 50.422 13.1395 50.422 13.1395 50.9553C13.0328 52.5553 12.4995 54.3688 11.5395 55.8621C13.0328 55.8621 14.5261 55.8621 16.0194 55.8621C15.0594 54.3688 14.5261 52.5553 14.4194 50.9553C14.4194 50.422 14.8461 50.422 14.8461 50.8487C14.8461 52.8754 16.7661 53.8353 18.1527 53.622C20.2861 53.302 20.9262 51.382 20.9262 50.3154C20.9262 46.902 17.1928 44.3421 13.7794 39.9688Z" fill="black"/>
<path d="M164.819 209.462C161.406 205.089 157.673 202.529 157.673 199.115C157.673 198.049 158.313 196.129 160.446 195.809C161.833 195.595 163.646 196.555 163.753 198.582C163.753 199.009 164.179 199.009 164.179 198.475C164.073 196.875 163.539 195.062 162.579 193.569C164.073 193.569 165.566 193.569 167.06 193.569C166.1 195.062 165.566 196.875 165.46 198.475C165.46 199.009 165.886 199.009 165.886 198.582C165.886 196.555 167.806 195.595 169.193 195.809C171.326 196.129 171.966 198.049 171.966 199.115C171.966 202.529 168.233 205.089 164.819 209.462Z" fill="black"/>
<path d="M89.2995 26.1021C81.9395 36.662 74.0461 42.6353 73.9395 50.8487C73.9395 53.5153 75.3261 57.9953 79.8061 58.8487C82.6861 59.382 86.7394 57.0354 86.8461 52.2354C86.8461 51.2754 87.8061 51.2754 87.8061 52.6621C87.6995 56.5021 86.4195 60.8754 84.4995 64.502C87.6995 64.502 90.8995 64.502 94.2061 64.502C92.1795 60.8754 91.0062 56.5021 90.8995 52.6621C90.8995 51.3821 91.9662 51.2754 91.8595 52.2354C91.9662 57.0354 95.9128 59.382 98.8995 58.8487C103.379 57.9953 104.873 53.5153 104.766 50.8487C104.553 42.742 96.6595 36.662 89.2995 26.1021Z" fill="black"/>
<path d="M89.2995 223.329C81.9395 212.769 74.0461 206.795 73.9395 198.582C73.9395 195.915 75.3261 191.435 79.8061 190.582C82.6861 190.049 86.7394 192.395 86.8461 197.195C86.8461 198.155 87.8061 198.155 87.8061 196.769C87.6995 192.929 86.4195 188.555 84.4995 184.929C87.6995 184.929 90.8995 184.929 94.2061 184.929C92.1795 188.555 91.0062 192.929 90.8995 196.769C90.8995 198.049 91.9662 198.155 91.8595 197.195C91.9662 192.395 95.9128 190.049 98.8995 190.582C103.379 191.435 104.873 195.915 104.766 198.582C104.553 206.689 96.6595 212.769 89.2995 223.329Z" fill="black"/>
<path d="M89.2995 105.569C81.9395 116.129 74.0461 122.102 73.9395 130.315C73.9395 132.982 75.3261 137.462 79.8061 138.315C82.6861 138.849 86.7394 136.502 86.8461 131.702C86.8461 130.742 87.8061 130.742 87.8061 132.129C87.6995 135.969 86.4195 140.342 84.4995 143.969C87.6995 143.969 90.8995 143.969 94.2061 143.969C92.1795 140.342 91.0062 135.969 90.8995 132.129C90.8995 130.849 91.9662 130.742 91.8595 131.702C91.9662 136.502 95.9128 138.849 98.8995 138.315C103.379 137.462 104.873 132.982 104.766 130.315C104.553 122.102 96.6595 116.022 89.2995 105.569Z" fill="black"/>
<path d="M5.24609 31.6486L7.27279 30.1552C9.08612 33.0352 11.0062 34.9553 13.9928 34.6353C18.4728 34.3153 20.3928 29.622 19.4328 25.9953C18.4728 22.7953 14.7394 21.1953 11.7527 22.902C11.0061 23.3287 10.3662 23.6486 10.2595 23.6486C9.93951 23.6486 9.19281 22.262 9.29948 21.8353C11.3261 18.9553 16.1262 13.8353 16.1262 13.8353H8.55274V17.2486H5.67279V11.062H20.4995V13.1953C20.4995 13.1953 16.5528 17.3553 15.1661 19.5953C18.3661 19.702 21.0328 21.7287 21.9928 25.0353C22.5262 26.742 22.3128 30.6886 21.5662 32.2886C20.3928 35.0619 17.0861 37.4086 14.0995 37.5153C9.19281 37.8353 6.52609 34.3153 5.24609 31.6486Z" fill="black"/>
<path d="M173.353 217.782L171.326 219.275C169.513 216.395 167.593 214.475 164.606 214.795C160.126 215.115 158.206 219.809 159.166 223.435C160.126 226.635 163.86 228.235 166.846 226.529C167.593 226.102 168.233 225.782 168.34 225.782C168.66 225.782 169.406 227.169 169.3 227.595C167.273 230.475 162.473 235.595 162.473 235.595H170.046V232.182H172.926V238.369H158.1V236.235C158.1 236.235 162.046 232.075 163.433 229.835C160.233 229.729 157.566 227.702 156.606 224.395C156.073 222.689 156.286 218.742 157.033 217.142C158.206 214.369 161.513 212.022 164.5 211.915C169.406 211.702 172.073 215.222 173.353 217.782Z" fill="black"/>
</g>
<defs>
<clipPath id="clip0">
<rect width="178.6" height="249.4" fill="white"/>
</clipPath>
</defs>
</svg>
