<svg width="179" height="250" viewBox="0 0 179 250" fill="none" xmlns="http://www.w3.org/2000/svg">
<g clip-path="url(#clip0)">
<path d="M8.5 0H170C174.7 0 178.5 3.8 178.5 8.5V240.9C178.5 245.6 174.7 249.4 170 249.4H8.5C3.8 249.4 0 245.6 0 240.9V8.5C0 3.8 3.8 0 8.5 0Z" fill="white"/>
<path d="M13.8 56C12.1 53.1 10.3 50.4 8 48C10.3 45.6 12.1 42.9 13.8 40C15.5 42.9 17.3 45.6 19.6 48C17.3 50.3 15.5 53.1 13.8 56Z" fill="#030D6D"/>
<path d="M130.7 64.5999C126.6 57.6999 122.2 51.1 116.7 45.4C122.2 39.7 126.5 33.1 130.7 26.2C134.8 33.1 139.2 39.7 144.7 45.4C139.2 51 134.9 57.6999 130.7 64.5999Z" fill="#030D6D"/>
<path d="M164.8 209.5C163.1 206.6 161.3 203.9 159 201.5C161.3 199.1 163.1 196.4 164.8 193.5C166.5 196.4 168.3 199.1 170.6 201.5C168.4 203.8 166.5 206.6 164.8 209.5Z" fill="#030D6D"/>
<path d="M47.8999 64.5999C43.7999 57.6999 39.3999 51.1 33.8999 45.4C39.3999 39.7 43.6999 33.1 47.8999 26.2C51.9999 33.1 56.3999 39.7 61.8999 45.4C56.3999 51 51.9999 57.6999 47.8999 64.5999Z" fill="#030D6D"/>
<path d="M47.8999 223.3C43.7999 216.4 39.3999 209.8 33.8999 204.1C39.3999 198.4 43.6999 191.8 47.8999 184.9C51.9999 191.8 56.3999 198.4 61.8999 204.1C56.3999 209.8 51.9999 216.4 47.8999 223.3Z" fill="#030D6D"/>
<path d="M130.7 223.3C126.6 216.4 122.2 209.8 116.7 204.1C122.2 198.4 126.5 191.8 130.7 184.9C134.8 191.8 139.2 198.4 144.7 204.1C139.2 209.8 134.9 216.5 130.7 223.3Z" fill="#030D6D"/>
<path d="M14 37.5V35.2H16.1V31.4H5.5V28.7L16.9 11.2H18.8V28.7H22V31.4H18.8L18.7 35.2H20.5V37.5H14ZM16.1 17.5L8.8 28.6H16V17.5H16.1Z" fill="#030D6D"/>
<path d="M164.6 212V214.3H162.5V218.1H173V220.8L161.6 238.3H159.7V220.8H156.5V218.1H159.7L159.8 214.3H158V212H164.6ZM162.5 232L169.7 220.9H162.5V232Z" fill="#030D6D"/>
</g>
<defs>
<clipPath id="clip0">
<rect width="178.6" height="249.4" fill="white"/>
</clipPath>
</defs>
</svg>
