<svg width="179" height="250" viewBox="0 0 179 250" fill="none" xmlns="http://www.w3.org/2000/svg">
<g clip-path="url(#clip0)">
<path d="M8.59128 0.0244141H170.091C174.791 0.0244141 178.591 3.82441 178.591 8.52441V240.924C178.591 245.624 174.791 249.424 170.091 249.424H8.59128C3.89128 249.424 0.0912847 245.624 0.0912847 240.924V8.52441C-0.0087153 3.82441 3.79128 0.0244141 8.59128 0.0244141Z" fill="white"/>
<path d="M13.8001 56C13.8001 56 12.0001 53.4 9.6001 50.4C8.0001 48.4 6.7001 46.2 6.6001 44.3C6.5001 42.2 7.8001 40 10.1001 39.9C12.4001 39.8 13.4001 41.5 13.8001 43C14.2001 41.6 15.1001 39.8 17.5001 39.9C19.8001 40 21.1001 42.2 21.0001 44.3C20.9001 46.2 19.6001 48.3 18.0001 50.4C15.6001 53.4 13.8001 56 13.8001 56Z" fill="#FF0000"/>
<path d="M164.8 193.5C164.8 193.5 163 196.1 160.6 199.1C159 201.1 157.7 203.3 157.6 205.2C157.5 207.3 158.8 209.5 161.1 209.6C163.4 209.7 164.4 208 164.8 206.5C165.2 207.9 166.1 209.7 168.5 209.6C170.8 209.5 172.1 207.3 172 205.2C171.9 203.3 170.6 201.2 169 199.1C166.6 196 164.8 193.5 164.8 193.5Z" fill="#FF0000"/>
<path d="M47.8999 64.6001C47.8999 64.6001 44.1999 58.5001 39.0999 51.3001C35.6999 46.5001 32.9999 41.3001 32.7999 36.8001C32.4999 31.7001 35.1999 26.5001 40.1999 26.3001C45.0999 26.1001 47.0999 30.3001 47.8999 33.7001C48.6999 30.2001 50.6999 26.0001 55.5999 26.3001C60.4999 26.5001 63.1999 31.7001 62.9999 36.8001C62.6999 41.3001 60.0999 46.5001 56.6999 51.3001C51.5999 58.4001 47.8999 64.6001 47.8999 64.6001Z" fill="#FF0000"/>
<path d="M130.7 64.6001C130.7 64.6001 127 58.5001 121.9 51.3001C118.5 46.5001 115.8 41.3001 115.6 36.8001C115.3 31.7001 118 26.5001 123 26.3001C127.9 26.1001 129.9 30.3001 130.7 33.7001C131.5 30.2001 133.5 26.0001 138.4 26.3001C143.3 26.5001 146 31.7001 145.8 36.8001C145.5 41.3001 142.9 46.5001 139.5 51.3001C134.4 58.4001 130.7 64.6001 130.7 64.6001Z" fill="#FF0000"/>
<path d="M130.7 184.9C130.7 184.9 127 191 121.9 198.2C118.5 203 115.8 208.2 115.6 212.7C115.3 217.8 118 223 123 223.2C127.9 223.4 129.9 219.2 130.7 215.8C131.5 219.3 133.5 223.5 138.4 223.2C143.3 223 146 217.8 145.8 212.7C145.5 208.2 142.9 203 139.5 198.2C134.4 191 130.7 184.9 130.7 184.9Z" fill="#FF0000"/>
<path d="M47.8999 184.9C47.8999 184.9 44.1999 191 39.0999 198.2C35.6999 203 32.9999 208.2 32.7999 212.7C32.4999 217.8 35.1999 223 40.1999 223.2C45.0999 223.4 47.0999 219.2 47.8999 215.8C48.6999 219.3 50.6999 223.5 55.5999 223.2C60.4999 223 63.1999 217.8 62.9999 212.7C62.6999 208.2 60.0999 203 56.6999 198.2C51.5999 191 47.8999 184.9 47.8999 184.9Z" fill="#FF0000"/>
<path d="M14 37.5V35.2H16.1V31.4H5.5V28.7L16.9 11.2H18.8V28.7H22V31.4H18.8L18.7 35.2H20.5V37.5H14ZM16.1 17.5L8.8 28.6H16V17.5H16.1Z" fill="#FF0000"/>
<path d="M164.6 212V214.3H162.5V218.1H173V220.8L161.6 238.3H159.7V220.8H156.5V218.1H159.7L159.8 214.3H158V212H164.6ZM162.5 232L169.7 220.9H162.5V232Z" fill="#FF0000"/>
</g>
<defs>
<clipPath id="clip0">
<rect width="178.6" height="249.4" fill="white"/>
</clipPath>
</defs>
</svg>
