<svg width="179" height="250" viewBox="0 0 179 250" fill="none" xmlns="http://www.w3.org/2000/svg">
<g clip-path="url(#clip0)">
<path d="M8.55042 -0.03125H170.044C174.737 -0.03125 178.577 3.80875 178.577 8.50208V240.929C178.577 245.622 174.737 249.462 170.044 249.462H8.55042C3.85709 249.462 0.0170898 245.622 0.0170898 240.929V8.50208C0.0170898 3.80875 3.85709 -0.03125 8.55042 -0.03125Z" fill="white"/>
<path d="M47.9103 26.1021C40.5503 36.662 32.657 42.6353 32.5503 50.8487C32.5503 53.5153 33.937 57.9953 38.417 58.8487C41.297 59.382 45.3504 57.0354 45.4571 52.2354C45.4571 51.2754 46.417 51.2754 46.417 52.6621C46.3103 56.5021 45.0303 60.8754 43.1103 64.502C46.3103 64.502 49.5103 64.502 52.817 64.502C50.7903 60.8754 49.617 56.5021 49.5103 52.6621C49.5103 51.3821 50.577 51.2754 50.4703 52.2354C50.577 57.0354 54.5237 59.382 57.5103 58.8487C61.9903 57.9953 63.4837 53.5153 63.377 50.8487C63.1637 42.742 55.2703 36.662 47.9103 26.1021Z" fill="black"/>
<path d="M13.777 39.9688C10.3637 44.3421 6.63037 46.902 6.63037 50.3154C6.63037 51.382 7.27035 53.302 9.40368 53.622C10.7903 53.8353 12.6037 52.8754 12.7103 50.8487C12.7103 50.422 13.137 50.422 13.137 50.9553C13.0303 52.5553 12.497 54.3688 11.537 55.8621C13.0303 55.8621 14.5236 55.8621 16.017 55.8621C15.057 54.3688 14.5236 52.5553 14.417 50.9553C14.417 50.422 14.8437 50.422 14.8437 50.8487C14.8437 52.8754 16.7636 53.8353 18.1503 53.622C20.2836 53.302 20.9237 51.382 20.9237 50.3154C20.9237 46.902 17.1903 44.3421 13.777 39.9688Z" fill="black"/>
<path d="M164.817 209.462C161.404 205.089 157.67 202.529 157.67 199.115C157.67 198.049 158.31 196.129 160.444 195.809C161.83 195.595 163.644 196.555 163.75 198.582C163.75 199.009 164.177 199.009 164.177 198.475C164.07 196.875 163.537 195.062 162.577 193.569C164.07 193.569 165.564 193.569 167.057 193.569C166.097 195.062 165.564 196.875 165.457 198.475C165.457 199.009 165.884 199.009 165.884 198.582C165.884 196.555 167.804 195.595 169.19 195.809C171.324 196.129 171.964 198.049 171.964 199.115C171.964 202.529 168.23 205.089 164.817 209.462Z" fill="black"/>
<path d="M130.684 26.1021C123.324 36.662 115.43 42.6353 115.324 50.8487C115.324 53.5153 116.71 57.9953 121.19 58.8487C124.07 59.382 128.124 57.0354 128.23 52.2354C128.23 51.2754 129.19 51.2754 129.19 52.6621C129.084 56.5021 127.804 60.8754 125.884 64.502C129.084 64.502 132.284 64.502 135.59 64.502C133.564 60.8754 132.39 56.5021 132.284 52.6621C132.284 51.3821 133.35 51.2754 133.244 52.2354C133.35 57.0354 137.297 59.382 140.284 58.8487C144.764 57.9953 146.257 53.5153 146.15 50.8487C145.937 42.742 138.044 36.662 130.684 26.1021Z" fill="black"/>
<path d="M47.9103 223.329C40.5503 212.769 32.657 206.795 32.5503 198.582C32.5503 195.915 33.937 191.435 38.417 190.582C41.297 190.049 45.3504 192.395 45.4571 197.195C45.4571 198.155 46.417 198.155 46.417 196.769C46.3103 192.929 45.0303 188.555 43.1103 184.929C46.3103 184.929 49.5103 184.929 52.817 184.929C50.7903 188.555 49.617 192.929 49.5103 196.769C49.5103 198.049 50.577 198.155 50.4703 197.195C50.577 192.395 54.5237 190.049 57.5103 190.582C61.9903 191.435 63.4837 195.915 63.377 198.582C63.1637 206.689 55.2703 212.769 47.9103 223.329Z" fill="black"/>
<path d="M130.684 223.329C123.324 212.769 115.43 206.795 115.324 198.582C115.324 195.915 116.71 191.435 121.19 190.582C124.07 190.049 128.124 192.395 128.23 197.195C128.23 198.155 129.19 198.155 129.19 196.769C129.084 192.929 127.804 188.555 125.884 184.929C129.084 184.929 132.284 184.929 135.59 184.929C133.564 188.555 132.39 192.929 132.284 196.769C132.284 198.049 133.35 198.155 133.244 197.195C133.35 192.395 137.297 190.049 140.284 190.582C144.764 191.435 146.257 195.915 146.15 198.582C145.937 206.689 138.044 212.769 130.684 223.329Z" fill="black"/>
<path d="M13.9907 37.5153V35.1687H16.124V31.3287H5.56396V28.6621L16.9772 11.1687H18.7907V28.6621H21.9907V31.3287H18.7907L18.6839 35.1687H20.4973V37.5153H13.9907ZM16.0172 17.4621L8.76397 28.5553H16.0172V17.4621Z" fill="black"/>
<path d="M164.604 212.022V214.369H162.471V218.209H173.031V220.875L161.617 238.369H159.804V220.875H156.604V218.209H159.804L159.911 214.369H158.097V212.022H164.604ZM162.471 231.969L169.724 220.875H162.471V231.969Z" fill="black"/>
</g>
<defs>
<clipPath id="clip0">
<rect width="178.6" height="249.4" fill="white"/>
</clipPath>
</defs>
</svg>
