<svg width="179" height="250" viewBox="0 0 179 250" fill="none" xmlns="http://www.w3.org/2000/svg">
<g clip-path="url(#clip0)">
<path d="M8.57735 -0.0375977H170.054C174.733 -0.0375977 178.615 3.75022 178.615 8.53487V240.889C178.615 245.574 174.832 249.462 170.054 249.462H8.57735C3.89832 249.462 0.015625 245.674 0.015625 240.889V8.53487C0.015625 3.8499 3.79877 -0.0375977 8.57735 -0.0375977Z" fill="white"/>
<path d="M130.5 26.3C122.6 26.5 119.1 35.3001 124.9 42.2001C125.7 43.2001 125.8 43.8 124.3 42.8C120.4 40.2 112.9 41.9001 112.5 49.9001C112 59.8001 125.8 62.6 128.4 52.1C128.5 51 129.4 51 129.2 52.6C129 56.9 127.6 60.8 125.8 64.7C128.9 64.7 132.3 64.7 135.1 64.7C133.3 60.8 131.9 56.8 131.7 52.6C131.5 51 132.4 51 132.5 52.1C135.1 62.6 148.9 59.7001 148.4 49.9001C148 41.9001 140.5 40.2 136.6 42.8C135.1 43.8 135.1 43.2001 136 42.2001C141.9 35.3001 138.4 26.5 130.5 26.3Z" fill="#025E0B"/>
<path d="M47.6998 26.3C39.7998 26.5 36.2998 35.3001 42.0998 42.2001C42.8998 43.2001 42.9998 43.8 41.4998 42.8C37.5998 40.2 30.0998 41.9001 29.6998 49.9001C29.1998 59.8001 42.9998 62.6 45.5998 52.1C45.6998 51 46.5998 51 46.3998 52.6C46.1998 56.9 44.7998 60.8 42.9998 64.7C46.0998 64.7 49.4998 64.7 52.2998 64.7C50.4998 60.8 49.0998 56.8 48.8998 52.6C48.6998 51 49.5998 51 49.6998 52.1C52.2998 62.6 66.0998 59.7001 65.5998 49.9001C65.1998 41.9001 57.6998 40.2 53.7998 42.8C52.2998 43.8 52.2998 43.2001 53.1998 42.2001C59.0998 35.3001 55.5998 26.5 47.6998 26.3Z" fill="#025E0B"/>
<path d="M130.7 223.6C122.8 223.4 119.3 214.6 125.1 207.7C125.9 206.7 126 206.1 124.5 207.1C120.6 209.7 113.1 208 112.7 200C112.2 190.1 126 187.3 128.6 197.8C128.7 198.9 129.6 198.9 129.4 197.3C129.2 193 127.8 189.1 126 185.2C129.1 185.2 132.5 185.2 135.3 185.2C133.5 189.1 132.1 193.1 131.9 197.3C131.7 198.9 132.6 198.9 132.7 197.8C135.3 187.3 149.1 190.2 148.6 200C148.2 208 140.7 209.7 136.8 207.1C135.3 206.1 135.3 206.7 136.2 207.7C142.1 214.6 138.6 223.5 130.7 223.6Z" fill="#025E0B"/>
<path d="M47.9 223.6C40 223.4 36.5 214.6 42.3 207.7C43.1 206.7 43.2 206.1 41.7 207.1C37.8 209.7 30.3 208 29.9 200C29.4 190.1 43.2 187.3 45.8 197.8C45.9 198.9 46.8 198.9 46.6 197.3C46.4 193 45 189.1 43.2 185.2C46.3 185.2 49.7 185.2 52.5 185.2C50.7 189.1 49.3 193.1 49.1 197.3C48.9 198.9 49.8 198.9 49.9 197.8C52.5 187.3 66.3 190.2 65.8 200C65.4 208 57.9 209.7 54 207.1C52.5 206.1 52.5 206.7 53.4 207.7C59.3 214.6 55.7 223.5 47.9 223.6Z" fill="#025E0B"/>
<path d="M89.1002 105.7C81.2002 105.9 77.7002 114.7 83.5002 121.6C84.3002 122.6 84.4002 123.2 82.9002 122.2C79.0002 119.6 71.5002 121.3 71.1002 129.3C70.6002 139.2 84.4002 142 87.0002 131.5C87.1002 130.4 88.0002 130.4 87.8002 132C87.6002 136.3 86.2002 140.2 84.4002 144.1C87.5002 144.1 90.9002 144.1 93.7002 144.1C91.9002 140.2 90.5002 136.2 90.3002 132C90.1002 130.4 91.0002 130.4 91.1002 131.5C93.7002 142 107.5 139.1 107 129.3C106.6 121.3 99.1002 119.6 95.2002 122.2C93.7002 123.2 93.7002 122.6 94.6002 121.6C100.5 114.7 97.0002 105.8 89.1002 105.7Z" fill="#025E0B"/>
<path d="M164.8 209.5C167.9 209.4 169.4 205.7 167 202.9C166.7 202.5 166.6 202.2 167.2 202.6C168.8 203.7 171.8 203 171.9 199.6C172.1 195.5 166.6 194.3 165.5 198.7C165.4 199.2 165.1 199.2 165.2 198.5C165.3 196.7 165.8 195.1 166.6 193.4C165.4 193.4 164.1 193.4 162.9 193.4C163.6 195 164.2 196.7 164.3 198.5C164.4 199.2 164 199.2 164 198.7C163 194.3 157.5 195.5 157.6 199.6C157.8 202.9 160.8 203.6 162.3 202.6C162.9 202.2 162.9 202.4 162.5 202.9C160.3 205.7 161.7 209.4 164.8 209.5Z" fill="#025E0B"/>
<path d="M13.5999 39.8C10.4999 39.9 8.99995 43.6001 11.3999 46.4001C11.6999 46.8001 11.7999 47.1001 11.1999 46.7001C9.59995 45.6001 6.59995 46.3001 6.49995 49.7001C6.29995 53.8001 11.7999 55 12.8999 50.6C12.9999 50.1 13.2999 50.1 13.1999 50.8C13.0999 52.6 12.5999 54.2001 11.7999 55.9001C12.9999 55.9001 14.2999 55.9001 15.4999 55.9001C14.7999 54.3001 14.1999 52.6 14.0999 50.8C13.9999 50.1 14.3999 50.1 14.3999 50.6C15.3999 55 20.8999 53.8001 20.7999 49.7001C20.5999 46.4001 17.5999 45.7001 16.0999 46.7001C15.4999 47.1001 15.4999 46.9001 15.8999 46.4001C18.0999 43.5001 16.6999 39.9 13.5999 39.8Z" fill="#025E0B"/>
<path d="M5.29978 30.5H7.89978C8.39978 32.1 9.49978 33.7 10.9998 34.2C15.1998 35.2 17.8998 32.8 18.7998 30.1C19.8998 26.8 18.7998 22.1 15.8998 20.4C13.4998 19 9.99978 20.2 8.29978 23.1L6.49978 22L7.49978 11H19.2998V13.6H9.59978L9.39978 18.2C11.4998 16.7 14.5998 16.7 16.6998 17.8C20.5998 19.7 22.3998 24 21.6998 29.1C20.5998 34.2 18.2998 37 13.0998 37.4C7.29978 37.3 5.19978 33.3 5.29978 30.5Z" fill="#025E0B"/>
<path d="M173.1 218.8H170.5C170 217.2 168.9 215.6 167.4 215.1C163.2 214.1 160.5 216.5 159.6 219.2C158.5 222.5 159.6 227.2 162.5 228.9C164.9 230.3 168.4 229.1 170.1 226.2L171.9 227.3L170.9 238.3H159.1V235.7H168.7L168.9 231.1C166.8 232.6 163.7 232.6 161.6 231.5C157.7 229.6 155.9 225.3 156.6 220.2C157.7 215.1 160 212.3 165.2 211.9C171.1 211.9 173.2 216 173.1 218.8Z" fill="#025E0B"/>
</g>
<defs>
<clipPath id="clip0">
<rect width="178.6" height="249.4" fill="white"/>
</clipPath>
</defs>
</svg>
