<svg width="179" height="250" viewBox="0 0 179 250" fill="none" xmlns="http://www.w3.org/2000/svg">
<g clip-path="url(#clip0)">
<path d="M8.5 0H170C174.7 0 178.5 3.8 178.5 8.5V240.9C178.5 245.6 174.7 249.4 170 249.4H8.5C3.8 249.4 0 245.6 0 240.9V8.5C0 3.8 3.8 0 8.5 0Z" fill="white"/>
<path d="M13.8 56C12.1 53.1 10.3 50.4 8 48C10.3 45.6 12.1 42.9 13.8 40C15.5 42.9 17.3 45.6 19.6 48C17.3 50.3 15.5 53.1 13.8 56Z" fill="#030D6D"/>
<path d="M130.7 64.5999C126.6 57.6999 122.2 51.1 116.7 45.4C122.2 39.7 126.5 33.1 130.7 26.2C134.8 33.1 139.2 39.7 144.7 45.4C139.2 51 134.9 57.6999 130.7 64.5999Z" fill="#030D6D"/>
<path d="M164.8 209.5C163.1 206.6 161.3 203.9 159 201.5C161.3 199.1 163.1 196.4 164.8 193.5C166.5 196.4 168.3 199.1 170.6 201.5C168.4 203.8 166.5 206.6 164.8 209.5Z" fill="#030D6D"/>
<path d="M47.8999 64.5999C43.7999 57.6999 39.3999 51.1 33.8999 45.4C39.3999 39.7 43.6999 33.1 47.8999 26.2C51.9999 33.1 56.3999 39.7 61.8999 45.4C56.3999 51 51.9999 57.6999 47.8999 64.5999Z" fill="#030D6D"/>
<path d="M89.2998 143.9C85.1998 137 80.7998 130.4 75.2998 124.7C80.7998 119 85.0998 112.4 89.2998 105.5C93.3998 112.4 97.7998 119 103.3 124.7C97.7998 130.4 93.3998 137.1 89.2998 143.9Z" fill="#030D6D"/>
<path d="M47.8999 223.3C43.7999 216.4 39.3999 209.8 33.8999 204.1C39.3999 198.4 43.6999 191.8 47.8999 184.9C51.9999 191.8 56.3999 198.4 61.8999 204.1C56.3999 209.8 51.9999 216.4 47.8999 223.3Z" fill="#030D6D"/>
<path d="M130.7 223.3C126.6 216.4 122.2 209.8 116.7 204.1C122.2 198.4 126.5 191.8 130.7 184.9C134.8 191.8 139.2 198.4 144.7 204.1C139.2 209.8 134.9 216.5 130.7 223.3Z" fill="#030D6D"/>
<path d="M5.49997 30.6H8.09997C8.59997 32.2 9.69997 33.8 11.2 34.3C15.4 35.3 18.1 32.9 19 30.2C20.1 26.9 19 22.2 16.1 20.5C13.7 19.1 10.2 20.3 8.49997 23.2L6.69997 22.1L7.69997 11.1H19.5V13.7H9.79997L9.59997 18.3C11.7 16.8 14.8 16.8 16.9 17.9C20.8 19.8 22.6 24.1 21.9 29.2C20.8 34.3 18.5 37.1 13.3 37.5C7.49997 37.5 5.39997 33.4 5.49997 30.6Z" fill="#030D6D"/>
<path d="M173.1 218.8H170.5C170 217.2 168.9 215.6 167.4 215.1C163.2 214.1 160.5 216.5 159.6 219.2C158.5 222.5 159.6 227.2 162.5 228.9C164.9 230.3 168.4 229.1 170.1 226.2L171.9 227.3L170.9 238.3H159.1V235.7H168.7L168.9 231.1C166.8 232.6 163.7 232.6 161.6 231.5C157.7 229.6 155.9 225.3 156.6 220.2C157.7 215.1 160 212.3 165.2 211.9C171.1 211.9 173.2 216 173.1 218.8Z" fill="#030D6D"/>
</g>
<defs>
<clipPath id="clip0">
<rect width="178.6" height="249.4" fill="white"/>
</clipPath>
</defs>
</svg>
