<svg width="179" height="250" viewBox="0 0 179 250" fill="none" xmlns="http://www.w3.org/2000/svg">
<g clip-path="url(#clip0)">
<path d="M170.031 250.203L8.53773 250.203C3.8444 250.203 0.00439782 246.363 0.00439782 241.67L0.00439782 9.24317C0.00439782 4.54984 3.8444 0.709808 8.53773 0.709808L170.031 0.709808C174.724 0.709808 178.564 4.54984 178.564 9.24317L178.564 241.67C178.564 246.363 174.724 250.203 170.031 250.203Z" fill="white"/>
<path d="M130.671 224.07C138.031 213.51 145.925 207.536 146.031 199.323C146.031 196.656 144.645 192.176 140.165 191.323C137.285 190.79 133.231 193.136 133.124 197.936C133.124 198.896 132.165 198.897 132.165 197.51C132.271 193.67 133.551 189.296 135.471 185.67C132.271 185.67 129.071 185.67 125.765 185.67C127.791 189.296 128.965 193.67 129.071 197.51C129.071 198.79 128.005 198.896 128.111 197.936C128.005 193.136 124.058 190.79 121.071 191.323C116.591 192.176 115.098 196.656 115.205 199.323C115.418 207.43 123.311 213.51 130.671 224.07Z" fill="black"/>
<path d="M164.805 210.203C168.218 205.83 171.951 203.27 171.951 199.856C171.951 198.79 171.311 196.87 169.178 196.55C167.791 196.336 165.978 197.296 165.871 199.323C165.871 199.75 165.445 199.75 165.445 199.216C165.551 197.616 166.085 195.803 167.045 194.31C165.551 194.31 164.058 194.31 162.565 194.31C163.525 195.803 164.058 197.616 164.165 199.216C164.165 199.75 163.738 199.75 163.738 199.323C163.738 197.296 161.818 196.336 160.431 196.55C158.298 196.87 157.658 198.79 157.658 199.856C157.658 203.27 161.391 205.83 164.805 210.203Z" fill="black"/>
<path d="M13.7645 40.7099C17.1779 45.0833 20.9111 47.6433 20.9111 51.0566C20.9111 52.1233 20.2712 54.0433 18.1378 54.3633C16.7512 54.5766 14.9378 53.6166 14.8312 51.5899C14.8312 51.1633 14.4045 51.1633 14.4045 51.6966C14.5112 53.2966 15.0445 55.1099 16.0045 56.6033C14.5112 56.6033 13.0177 56.6033 11.5244 56.6033C12.4844 55.1099 13.0177 53.2966 13.1244 51.6966C13.1244 51.1633 12.6978 51.1633 12.6978 51.5899C12.6978 53.6166 10.7777 54.5766 9.39108 54.3633C7.25774 54.0433 6.61777 52.1233 6.61777 51.0566C6.61777 47.6433 10.3512 45.0833 13.7645 40.7099Z" fill="black"/>
<path d="M47.8979 224.07C55.2579 213.51 63.1511 207.536 63.2578 199.323C63.2578 196.656 61.8711 192.176 57.3911 191.323C54.5111 190.79 50.4578 193.136 50.3512 197.936C50.3512 198.896 49.3911 198.897 49.3911 197.51C49.4978 193.67 50.7779 189.296 52.6979 185.67C49.4979 185.67 46.2978 185.67 42.9911 185.67C45.0178 189.296 46.1912 193.67 46.2979 197.51C46.2979 198.79 45.2312 198.896 45.3379 197.936C45.2312 193.136 41.2846 190.79 38.2979 191.323C33.8179 192.176 32.3246 196.656 32.4312 199.323C32.6446 207.43 40.5379 213.51 47.8979 224.07Z" fill="black"/>
<path d="M130.671 26.9499C138.031 37.5099 145.925 43.4832 146.031 51.6965C146.031 54.3632 144.645 58.8432 140.165 59.6965C137.285 60.2298 133.231 57.8832 133.124 53.0832C133.124 52.1232 132.165 52.1232 132.165 53.5098C132.271 57.3498 133.551 61.7232 135.471 65.3499C132.271 65.3499 129.071 65.3499 125.765 65.3499C127.791 61.7232 128.965 57.3498 129.071 53.5098C129.071 52.2298 128.005 52.1232 128.111 53.0832C128.005 57.8832 124.058 60.2298 121.071 59.6965C116.591 58.8432 115.098 54.3632 115.205 51.6965C115.418 43.4832 123.311 37.4032 130.671 26.9499Z" fill="black"/>
<path d="M47.8979 26.9499C55.2579 37.5099 63.1511 43.4832 63.2578 51.6965C63.2578 54.3632 61.8711 58.8432 57.3911 59.6965C54.5111 60.2298 50.4578 57.8832 50.3512 53.0832C50.3512 52.1232 49.3911 52.1232 49.3911 53.5098C49.4978 57.3498 50.7779 61.7232 52.6979 65.3499C49.4979 65.3499 46.2978 65.3499 42.9911 65.3499C45.0178 61.7232 46.1912 57.3498 46.2979 53.5098C46.2979 52.2298 45.2312 52.1232 45.3379 53.0832C45.2312 57.8832 41.2846 60.2298 38.2979 59.6965C33.8179 58.8432 32.3246 54.3632 32.4312 51.6965C32.6446 43.4832 40.5379 37.4032 47.8979 26.9499Z" fill="black"/>
<path d="M89.2845 144.71C96.6445 134.15 104.538 128.177 104.645 119.963C104.645 117.297 103.258 112.817 98.7779 111.963C95.8979 111.43 91.8446 113.777 91.7379 118.577C91.7379 119.537 90.7779 119.537 90.7779 118.15C90.8845 114.31 92.1645 109.937 94.0845 106.31C90.8845 106.31 87.6845 106.31 84.3779 106.31C86.4045 109.937 87.5778 114.31 87.6845 118.15C87.6845 119.43 86.6178 119.537 86.7245 118.577C86.6178 113.777 82.6712 111.43 79.6845 111.963C75.2045 112.817 73.7112 117.297 73.8178 119.963C74.0312 128.07 81.9245 134.15 89.2845 144.71Z" fill="black"/>
<path d="M173.124 219.59H170.564C170.031 217.99 168.964 216.39 167.471 215.963C163.311 215.003 160.537 217.35 159.684 220.123C158.617 223.43 159.684 228.123 162.564 229.83C164.911 231.217 168.537 230.043 170.137 227.057L171.951 228.23L170.991 239.217H159.151V236.657H168.751L168.857 232.07C166.831 233.563 163.631 233.563 161.604 232.497C157.657 230.577 155.844 226.31 156.591 221.19C157.657 216.177 160.004 213.297 165.231 212.87C171.097 212.657 173.124 216.71 173.124 219.59Z" fill="black"/>
<path d="M5.44456 31.4298H8.00458C8.53792 33.0298 9.60461 34.6298 11.0979 35.0564C15.2579 36.0164 18.0312 33.6698 18.8845 30.8964C19.9512 27.5898 18.8846 22.8964 16.0046 21.1898C13.6579 19.8031 10.0313 20.9764 8.43128 23.9631L6.61787 22.7898L7.57789 11.8031L19.4179 11.8031V14.3631H9.81787L9.71123 18.9498C11.7379 17.4565 14.9379 17.4564 16.9646 18.5231C20.9113 20.4431 22.7246 24.7098 21.9779 29.8298C20.9112 34.8431 18.5646 37.7231 13.3379 38.1498C7.47125 38.2565 5.44456 34.2031 5.44456 31.4298Z" fill="black"/>
</g>
<defs>
<clipPath id="clip0">
<rect width="178.6" height="249.4" fill="white"/>
</clipPath>
</defs>
</svg>
