<svg width="179" height="250" viewBox="0 0 179 250" fill="none" xmlns="http://www.w3.org/2000/svg">
<g clip-path="url(#clip0)">
<path d="M8.5 0H170C174.7 0 178.5 3.8 178.5 8.5V240.9C178.5 245.6 174.7 249.4 170 249.4H8.5C3.8 249.4 0 245.6 0 240.9V8.5C0 3.8 3.8 0 8.5 0Z" fill="white"/>
<path d="M13.8 56C12.1 53.1 10.3 50.4 8 48C10.3 45.6 12.1 42.9 13.8 40C15.5 42.9 17.3 45.6 19.6 48C17.3 50.3 15.5 53.1 13.8 56Z" fill="#030D6D"/>
<path d="M130.7 64.5999C126.6 57.6999 122.2 51.1 116.7 45.4C122.2 39.7 126.5 33.1 130.7 26.2C134.8 33.1 139.2 39.7 144.7 45.4C139.2 51 134.9 57.6999 130.7 64.5999Z" fill="#030D6D"/>
<path d="M164.8 209.5C163.1 206.6 161.3 203.9 159 201.5C161.3 199.1 163.1 196.4 164.8 193.5C166.5 196.4 168.3 199.1 170.6 201.5C168.4 203.8 166.5 206.6 164.8 209.5Z" fill="#030D6D"/>
<path d="M47.8999 64.5999C43.7999 57.6999 39.3999 51.1 33.8999 45.4C39.3999 39.7 43.6999 33.1 47.8999 26.2C51.9999 33.1 56.3999 39.7 61.8999 45.4C56.3999 51 51.9999 57.6999 47.8999 64.5999Z" fill="#030D6D"/>
<path d="M47.8999 143.9C43.7999 137 39.3999 130.4 33.8999 124.7C39.3999 119 43.6999 112.4 47.8999 105.5C51.9999 112.4 56.3999 119 61.8999 124.7C56.3999 130.4 51.9999 137 47.8999 143.9Z" fill="#030D6D"/>
<path d="M130.7 143.9C126.6 137 122.2 130.4 116.7 124.7C122.2 119 126.5 112.4 130.7 105.5C134.8 112.4 139.2 119 144.7 124.7C139.2 130.4 134.9 137.1 130.7 143.9Z" fill="#030D6D"/>
<path d="M47.8999 223.3C43.7999 216.4 39.3999 209.8 33.8999 204.1C39.3999 198.4 43.6999 191.8 47.8999 184.9C51.9999 191.8 56.3999 198.4 61.8999 204.1C56.3999 209.8 51.9999 216.4 47.8999 223.3Z" fill="#030D6D"/>
<path d="M130.7 223.3C126.6 216.4 122.2 209.8 116.7 204.1C122.2 198.4 126.5 191.8 130.7 184.9C134.8 191.8 139.2 198.4 144.7 204.1C139.2 209.8 134.9 216.5 130.7 223.3Z" fill="#030D6D"/>
<path d="M6.00013 29.3C5.70013 27.1 5.70013 21.3 5.90013 19.6C6.70013 14.4 8.70013 12 12.0001 11.2C15.2001 10.4 19.8001 11.3 20.8001 15.6L18.1001 15.7C16.6001 12.8 12.9001 13.5 10.9001 14.8C9.20013 15.8 8.50013 20.1 8.80013 20.3C8.80013 20.3 11.9001 18 14.4001 18.1C19.7001 18.7 21.9001 23.2 21.7001 27.6C21.5001 32.8 19.9001 37 14.3001 37.3C9.00013 37.3 6.50013 34.4 6.00013 29.3ZM19.2001 28C19.2001 24.4 17.6001 21.7 14.5001 21.4C11.4001 21.1 8.30013 24.1 8.50013 27.8C8.70013 31.5 10.2001 34.6 13.9001 34.6C17.9001 34.6 19.2001 30.5 19.2001 28Z" fill="#030D6D"/>
<path d="M172.6 220.1C172.9 222.3 172.9 228.1 172.7 229.8C171.9 235 169.9 237.4 166.6 238.2C163.4 239 158.8 238.1 157.8 233.8L160.5 233.7C162 236.6 165.7 235.9 167.7 234.6C169.4 233.6 170.1 229.3 169.8 229.1C169.8 229.1 166.7 231.4 164.2 231.3C158.9 230.7 156.7 226.2 156.9 221.8C157.1 216.6 158.7 212.4 164.3 212.1C169.6 212.2 172 215.1 172.6 220.1ZM159.4 221.5C159.4 225.1 161 227.8 164.1 228.1C167.2 228.4 170.3 225.4 170.1 221.7C169.9 218 168.4 214.9 164.7 214.9C160.7 214.9 159.4 218.9 159.4 221.5Z" fill="#030D6D"/>
</g>
<defs>
<clipPath id="clip0">
<rect width="178.6" height="249.4" fill="white"/>
</clipPath>
</defs>
</svg>
