<svg width="179" height="250" viewBox="0 0 179 250" fill="none" xmlns="http://www.w3.org/2000/svg">
<g clip-path="url(#clip0)">
<path d="M8.54505 -0.03125H170.039C174.732 -0.03125 178.572 3.80875 178.572 8.50208V240.929C178.572 245.622 174.732 249.462 170.039 249.462H8.54505C3.85172 249.462 0.0117188 245.622 0.0117188 240.929V8.50208C0.0117188 3.80875 3.85172 -0.03125 8.54505 -0.03125Z" fill="white"/>
<path d="M47.905 26.1021C40.545 36.662 32.6516 42.6353 32.5449 50.8487C32.5449 53.5153 33.9316 57.9953 38.4116 58.8487C41.2916 59.382 45.345 57.0354 45.4517 52.2354C45.4517 51.2754 46.4116 51.2754 46.4116 52.6621C46.3049 56.5021 45.025 60.8754 43.105 64.502C46.305 64.502 49.5049 64.502 52.8116 64.502C50.7849 60.8754 49.6116 56.5021 49.505 52.6621C49.505 51.3821 50.5716 51.2754 50.465 52.2354C50.5716 57.0354 54.5183 59.382 57.505 58.8487C61.985 57.9953 63.4783 53.5153 63.3716 50.8487C63.1583 42.742 55.265 36.662 47.905 26.1021Z" fill="black"/>
<path d="M13.7716 39.9688C10.3583 44.3421 6.625 46.902 6.625 50.3154C6.625 51.382 7.26497 53.302 9.39831 53.622C10.785 53.8353 12.5983 52.8754 12.7049 50.8487C12.7049 50.422 13.1316 50.422 13.1316 50.9553C13.025 52.5553 12.4916 54.3688 11.5316 55.8621C13.025 55.8621 14.5183 55.8621 16.0116 55.8621C15.0516 54.3688 14.5183 52.5553 14.4116 50.9553C14.4116 50.422 14.8383 50.422 14.8383 50.8487C14.8383 52.8754 16.7583 53.8353 18.1449 53.622C20.2783 53.302 20.9184 51.382 20.9184 50.3154C20.9184 46.902 17.185 44.3421 13.7716 39.9688Z" fill="black"/>
<path d="M164.812 209.462C161.398 205.089 157.665 202.529 157.665 199.115C157.665 198.049 158.305 196.129 160.438 195.809C161.825 195.595 163.638 196.555 163.745 198.582C163.745 199.009 164.172 199.009 164.172 198.475C164.065 196.875 163.532 195.062 162.572 193.569C164.065 193.569 165.558 193.569 167.052 193.569C166.092 195.062 165.558 196.875 165.452 198.475C165.452 199.009 165.878 199.009 165.878 198.582C165.878 196.555 167.798 195.595 169.185 195.809C171.318 196.129 171.958 198.049 171.958 199.115C171.958 202.529 168.225 205.089 164.812 209.462Z" fill="black"/>
<path d="M130.678 26.1021C123.318 36.662 115.425 42.6353 115.318 50.8487C115.318 53.5153 116.705 57.9953 121.185 58.8487C124.065 59.382 128.118 57.0354 128.225 52.2354C128.225 51.2754 129.185 51.2754 129.185 52.6621C129.078 56.5021 127.798 60.8754 125.878 64.502C129.078 64.502 132.278 64.502 135.585 64.502C133.558 60.8754 132.385 56.5021 132.278 52.6621C132.278 51.3821 133.345 51.2754 133.238 52.2354C133.345 57.0354 137.292 59.382 140.278 58.8487C144.758 57.9953 146.252 53.5153 146.145 50.8487C145.932 42.742 138.038 36.662 130.678 26.1021Z" fill="black"/>
<path d="M47.905 105.569C40.545 116.129 32.6516 122.102 32.5449 130.315C32.5449 132.982 33.9316 137.462 38.4116 138.315C41.2916 138.849 45.345 136.502 45.4517 131.702C45.4517 130.742 46.4116 130.742 46.4116 132.129C46.3049 135.969 45.025 140.342 43.105 143.969C46.305 143.969 49.5049 143.969 52.8116 143.969C50.7849 140.342 49.6116 135.969 49.505 132.129C49.505 130.849 50.5716 130.742 50.465 131.702C50.5716 136.502 54.5183 138.849 57.505 138.315C61.985 137.462 63.4783 132.982 63.3716 130.315C63.1583 122.102 55.265 116.022 47.905 105.569Z" fill="black"/>
<path d="M47.905 223.329C40.545 212.769 32.6516 206.795 32.5449 198.582C32.5449 195.915 33.9316 191.435 38.4116 190.582C41.2916 190.049 45.345 192.395 45.4517 197.195C45.4517 198.155 46.4116 198.155 46.4116 196.769C46.3049 192.929 45.025 188.555 43.105 184.929C46.305 184.929 49.5049 184.929 52.8116 184.929C50.7849 188.555 49.6116 192.929 49.505 196.769C49.505 198.049 50.5716 198.155 50.465 197.195C50.5716 192.395 54.5183 190.049 57.505 190.582C61.985 191.435 63.4783 195.915 63.3716 198.582C63.1583 206.689 55.265 212.769 47.905 223.329Z" fill="black"/>
<path d="M130.678 223.329C123.318 212.769 115.425 206.795 115.318 198.582C115.318 195.915 116.705 191.435 121.185 190.582C124.065 190.049 128.118 192.395 128.225 197.195C128.225 198.155 129.185 198.155 129.185 196.769C129.078 192.929 127.798 188.555 125.878 184.929C129.078 184.929 132.278 184.929 135.585 184.929C133.558 188.555 132.385 192.929 132.278 196.769C132.278 198.049 133.345 198.155 133.238 197.195C133.345 192.395 137.292 190.049 140.278 190.582C144.758 191.435 146.252 195.915 146.145 198.582C145.932 206.689 138.038 212.769 130.678 223.329Z" fill="black"/>
<path d="M130.678 105.569C123.318 116.129 115.425 122.102 115.318 130.315C115.318 132.982 116.705 137.462 121.185 138.315C124.065 138.849 128.118 136.502 128.225 131.702C128.225 130.742 129.185 130.742 129.185 132.129C129.078 135.969 127.798 140.342 125.878 143.969C129.078 143.969 132.278 143.969 135.585 143.969C133.558 140.342 132.385 135.969 132.278 132.129C132.278 130.849 133.345 130.742 133.238 131.702C133.345 136.502 137.292 138.849 140.278 138.315C144.758 137.462 146.252 132.982 146.145 130.315C145.932 122.102 138.038 116.022 130.678 105.569Z" fill="black"/>
<path d="M5.98512 29.3021C5.66512 27.0621 5.66512 21.3021 5.98512 19.5955C6.83845 14.3688 8.75837 12.0221 12.1717 11.2754C15.3717 10.5287 19.9585 11.382 20.9185 15.7554H18.2518C16.7585 12.7687 13.1317 13.6221 10.9984 14.9021C9.29173 15.9688 8.54507 20.1287 8.86507 20.4487C8.86507 20.4487 11.9585 18.102 14.5185 18.3154C19.8518 18.8487 21.985 23.4354 21.7717 27.8087C21.5584 33.0354 19.9584 37.1954 14.305 37.5154C8.97171 37.302 6.51845 34.3154 5.98512 29.3021ZM19.2117 28.022C19.2117 24.3954 17.6118 21.7287 14.5185 21.4087C11.4251 21.0887 8.22504 24.1821 8.43837 27.8087C8.65171 31.5421 10.0383 34.6354 13.8783 34.6354C17.9317 34.5288 19.2117 30.582 19.2117 28.022Z" fill="black"/>
<path d="M172.598 220.129C172.918 222.369 172.918 228.129 172.598 229.835C171.745 235.062 169.825 237.409 166.411 238.155C163.211 238.902 158.625 238.049 157.665 233.675H160.331C161.825 236.662 165.451 235.809 167.585 234.529C169.291 233.462 170.038 229.302 169.718 228.982C169.718 228.982 166.625 231.329 164.065 231.115C158.731 230.582 156.598 225.995 156.811 221.622C157.025 216.395 158.625 212.235 164.278 211.915C169.611 212.235 172.065 215.115 172.598 220.129ZM159.371 221.515C159.371 225.142 160.971 227.809 164.065 228.129C167.158 228.449 170.358 225.355 170.145 221.729C169.931 217.995 168.545 214.902 164.705 214.902C160.651 214.902 159.371 218.849 159.371 221.515Z" fill="black"/>
</g>
<defs>
<clipPath id="clip0">
<rect width="178.6" height="249.4" fill="white"/>
</clipPath>
</defs>
</svg>
