<svg width="179" height="250" viewBox="0 0 179 250" fill="none" xmlns="http://www.w3.org/2000/svg">
<g clip-path="url(#clip0)">
<path d="M8.5 0H170C174.7 0 178.5 3.8 178.5 8.5V240.9C178.5 245.6 174.7 249.4 170 249.4H8.5C3.8 249.4 0 245.6 0 240.9V8.5C0 3.8 3.8 0 8.5 0Z" fill="white"/>
<path d="M130.7 26.5C122.8 26.7 119.3 35.5 125.1 42.4C125.9 43.4 126 44 124.5 43C120.6 40.4 113.1 42.1 112.7 50.1C112.2 60 126 62.8 128.6 52.3C128.7 51.2 129.6 51.2 129.4 52.8C129.2 57.1 127.8 61 126 64.9C129.1 64.9 132.5 64.9 135.3 64.9C133.5 61 132.1 57 131.9 52.8C131.7 51.2 132.6 51.2 132.7 52.3C135.3 62.8 149.1 59.9 148.6 50.1C148.2 42.1 140.7 40.4 136.8 43C135.3 44 135.3 43.4 136.2 42.4C142.1 35.5 138.6 26.7 130.7 26.5Z" fill="#025E0B"/>
<path d="M47.9 26.5C40 26.7 36.5 35.5 42.3 42.4C43.1 43.4 43.2 44 41.7 43C37.8 40.4 30.3 42.1 29.9 50.1C29.4 60 43.2 62.8 45.8 52.3C45.9 51.2 46.8 51.2 46.6 52.8C46.4 57 45 61 43.2 64.9C46.3 64.9 49.7 64.9 52.5 64.9C50.7 61 49.3 57 49.1 52.8C48.9 51.2 49.8 51.2 49.9 52.3C52.5 62.8 66.3 59.9 65.8 50.1C65.4 42.1 57.9 40.4 54 43C52.5 44 52.5 43.4 53.4 42.4C59.3 35.5 55.7 26.7 47.9 26.5Z" fill="#025E0B"/>
<path d="M130.7 223.6C122.8 223.4 119.3 214.6 125.1 207.7C125.9 206.7 126 206.1 124.5 207.1C120.6 209.7 113.1 208 112.7 200C112.2 190.1 126 187.3 128.6 197.8C128.7 198.9 129.6 198.9 129.4 197.3C129.2 193 127.8 189.1 126 185.2C129.1 185.2 132.5 185.2 135.3 185.2C133.5 189.1 132.1 193.1 131.9 197.3C131.7 198.9 132.6 198.9 132.7 197.8C135.3 187.3 149.1 190.2 148.6 200C148.2 208 140.7 209.7 136.8 207.1C135.3 206.1 135.3 206.7 136.2 207.7C142.1 214.6 138.6 223.5 130.7 223.6Z" fill="#025E0B"/>
<path d="M47.9 223.6C40 223.4 36.5 214.6 42.3 207.7C43.1 206.7 43.2 206.1 41.7 207.1C37.8 209.7 30.3 208 29.9 200C29.4 190.1 43.2 187.3 45.8 197.8C45.9 198.9 46.8 198.9 46.6 197.3C46.4 193 45 189.1 43.2 185.2C46.3 185.2 49.7 185.2 52.5 185.2C50.7 189.1 49.3 193.1 49.1 197.3C48.9 198.9 49.8 198.9 49.9 197.8C52.5 187.3 66.3 190.2 65.8 200C65.4 208 57.9 209.7 54 207.1C52.5 206.1 52.5 206.7 53.4 207.7C59.3 214.6 55.7 223.5 47.9 223.6Z" fill="#025E0B"/>
<path d="M89.2999 66.2C81.3999 66.4 77.8999 75.2 83.6999 82.1C84.4999 83.1 84.5999 83.7 83.0999 82.7C79.1999 80.1 71.6999 81.8 71.2999 89.8C70.7999 99.7 84.5999 102.5 87.1999 92C87.2999 90.9 88.1999 90.9 87.9999 92.5C87.7999 96.8 86.3999 100.7 84.5999 104.6C87.6999 104.6 91.0999 104.6 93.8999 104.6C92.0999 100.7 90.6999 96.7 90.4999 92.5C90.2999 90.9 91.1999 90.9 91.2999 92C93.8999 102.5 107.7 99.6 107.2 89.8C106.8 81.8 99.2999 80.1 95.3999 82.7C93.8999 83.7 93.8999 83.1 94.7999 82.1C100.7 75.2 97.0999 66.3 89.2999 66.2Z" fill="#025E0B"/>
<path d="M130.7 105.9C122.8 106.1 119.3 114.9 125.1 121.8C125.9 122.8 126 123.4 124.5 122.4C120.6 119.8 113.1 121.5 112.7 129.5C112.2 139.4 126 142.2 128.6 131.7C128.7 130.6 129.6 130.6 129.4 132.2C129.2 136.5 127.8 140.4 126 144.3C129.1 144.3 132.5 144.3 135.3 144.3C133.5 140.4 132.1 136.4 131.9 132.2C131.7 130.6 132.6 130.6 132.7 131.7C135.3 142.2 149.1 139.3 148.6 129.5C148.2 121.5 140.7 119.8 136.8 122.4C135.3 123.4 135.3 122.8 136.2 121.8C142.1 114.9 138.6 106 130.7 105.9Z" fill="#025E0B"/>
<path d="M47.9 105.9C40 106.1 36.5 114.9 42.3 121.8C43.1 122.8 43.2 123.4 41.7 122.4C37.8 119.8 30.3 121.5 29.9 129.5C29.4 139.4 43.2 142.2 45.8 131.7C45.9 130.6 46.8 130.6 46.6 132.2C46.4 136.5 45 140.4 43.2 144.3C46.3 144.3 49.7 144.3 52.5 144.3C50.7 140.4 49.3 136.4 49.1 132.2C48.9 130.6 49.8 130.6 49.9 131.7C52.5 142.2 66.3 139.3 65.8 129.5C65.4 121.5 57.9 119.8 54 122.4C52.5 123.4 52.5 122.8 53.4 121.8C59.3 114.9 55.7 106 47.9 105.9Z" fill="#025E0B"/>
<path d="M164.8 209.5C167.9 209.4 169.4 205.7 167 202.9C166.7 202.5 166.6 202.2 167.2 202.6C168.8 203.7 171.8 203 171.9 199.6C172.1 195.5 166.6 194.3 165.5 198.7C165.4 199.2 165.1 199.2 165.2 198.5C165.3 196.7 165.8 195.1 166.6 193.4C165.4 193.4 164.1 193.4 162.9 193.4C163.6 195 164.2 196.7 164.3 198.5C164.4 199.2 164 199.2 164 198.7C163 194.3 157.5 195.5 157.6 199.6C157.8 202.9 160.8 203.6 162.3 202.6C162.9 202.2 162.9 202.4 162.5 202.9C160.3 205.7 161.7 209.4 164.8 209.5Z" fill="#025E0B"/>
<path d="M13.8001 40C10.7001 40.1 9.20014 43.8 11.6001 46.6C11.9001 47 12.0001 47.3 11.4001 46.9C9.80014 45.8 6.80014 46.5 6.70014 49.9C6.50014 54 12.0001 55.2 13.1001 50.8C13.2001 50.3 13.5001 50.3 13.4001 51C13.3001 52.8 12.8001 54.4 12.0001 56.1C13.2001 56.1 14.5001 56.1 15.7001 56.1C15.0001 54.5 14.4001 52.8 14.3001 51C14.2001 50.3 14.6001 50.3 14.6001 50.8C15.6001 55.2 21.1001 54 21.0001 49.9C20.8001 46.6 17.8001 45.9 16.3001 46.9C15.7001 47.3 15.7001 47.1 16.1001 46.6C18.3001 43.7 16.9001 40 13.8001 40Z" fill="#025E0B"/>
<path d="M9.7002 37.5C11.4002 28.3 13.3002 21.4 18.1002 14H8.3002V17.2H5.7002V11.1H20.1002L21.9002 13.9C16.7002 19.5 12.0002 37.7 12.9002 37.4H9.7002V37.5Z" fill="#025E0B"/>
<path d="M168.9 212C167.2 221.2 165.3 228.1 160.5 235.5H170.4V232.3H173V238.4H158.6L156.8 235.6C162 230 166.7 211.8 165.8 212.1H168.9V212Z" fill="#025E0B"/>
</g>
<defs>
<clipPath id="clip0">
<rect width="178.6" height="249.4" fill="white"/>
</clipPath>
</defs>
</svg>
