<svg width="179" height="250" viewBox="0 0 179 250" fill="none" xmlns="http://www.w3.org/2000/svg">
<g clip-path="url(#clip0)">
<path d="M8.5 0H170C174.7 0 178.5 3.8 178.5 8.5V240.9C178.5 245.6 174.7 249.4 170 249.4H8.5C3.8 249.4 0 245.6 0 240.9V8.5C0 3.8 3.8 0 8.5 0Z" fill="white"/>
<path d="M13.8001 56C13.8001 56 12.0001 53.4 9.6001 50.4C8.0001 48.4 6.7001 46.2 6.6001 44.3C6.5001 42.2 7.8001 40 10.1001 39.9C12.4001 39.8 13.4001 41.5 13.8001 43C14.2001 41.6 15.1001 39.8 17.5001 39.9C19.8001 40 21.1001 42.2 21.0001 44.3C20.9001 46.2 19.6001 48.3 18.0001 50.4C15.6001 53.4 13.8001 56 13.8001 56Z" fill="#FF0000"/>
<path d="M164.8 193.5C164.8 193.5 163 196.1 160.6 199.1C159 201.1 157.7 203.3 157.6 205.2C157.5 207.3 158.8 209.5 161.1 209.6C163.4 209.7 164.4 208 164.8 206.5C165.2 207.9 166.1 209.7 168.5 209.6C170.8 209.5 172.1 207.3 172 205.2C171.9 203.3 170.6 201.2 169 199.1C166.6 196 164.8 193.5 164.8 193.5Z" fill="#FF0000"/>
<path d="M89.2998 104.2C89.2998 104.2 85.5998 98.1 80.4998 90.9C77.0998 86.1 74.3998 80.9 74.1998 76.4C73.8998 71.3 76.5998 66.1 81.5998 65.9C86.4998 65.7 88.4998 69.9 89.2998 73.3C90.0998 69.8 92.0998 65.6 96.9998 65.9C101.9 66.1 104.6 71.3 104.4 76.4C104.1 80.9 101.5 86.1 98.0998 90.9C92.9998 98.1 89.2998 104.2 89.2998 104.2Z" fill="#FF0000"/>
<path d="M47.8999 64.6001C47.8999 64.6001 44.1999 58.5001 39.0999 51.3001C35.6999 46.5001 32.9999 41.3001 32.7999 36.8001C32.4999 31.7001 35.1999 26.5001 40.1999 26.3001C45.0999 26.1001 47.0999 30.3001 47.8999 33.7001C48.6999 30.2001 50.6999 26.0001 55.5999 26.3001C60.4999 26.5001 63.1999 31.7001 62.9999 36.8001C62.6999 41.3001 60.0999 46.5001 56.6999 51.3001C51.5999 58.4001 47.8999 64.6001 47.8999 64.6001Z" fill="#FF0000"/>
<path d="M130.7 143.9C130.7 143.9 127 137.8 121.9 130.6C118.5 125.8 115.8 120.6 115.6 116.1C115.3 111 118 105.8 123 105.6C127.9 105.4 129.9 109.6 130.7 113C131.5 109.5 133.5 105.3 138.4 105.6C143.3 105.8 146 111 145.8 116.1C145.5 120.6 142.9 125.8 139.5 130.6C134.4 137.8 130.7 143.9 130.7 143.9Z" fill="#FF0000"/>
<path d="M130.7 64.6001C130.7 64.6001 127 58.5001 121.9 51.3001C118.5 46.5001 115.8 41.3001 115.6 36.8001C115.3 31.7001 118 26.5001 123 26.3001C127.9 26.1001 129.9 30.3001 130.7 33.7001C131.5 30.2001 133.5 26.0001 138.4 26.3001C143.3 26.5001 146 31.7001 145.8 36.8001C145.5 41.3001 142.9 46.5001 139.5 51.3001C134.4 58.4001 130.7 64.6001 130.7 64.6001Z" fill="#FF0000"/>
<path d="M47.8999 143.9C47.8999 143.9 44.1999 137.8 39.0999 130.6C35.6999 125.8 32.9999 120.6 32.7999 116.1C32.4999 111 35.1999 105.8 40.1999 105.6C45.0999 105.4 47.0999 109.6 47.8999 113C48.6999 109.5 50.6999 105.3 55.5999 105.6C60.4999 105.8 63.1999 111 62.9999 116.1C62.6999 120.6 60.0999 125.8 56.6999 130.6C51.5999 137.8 47.8999 143.9 47.8999 143.9Z" fill="#FF0000"/>
<path d="M130.7 184.9C130.7 184.9 127 191 121.9 198.2C118.5 203 115.8 208.2 115.6 212.7C115.3 217.8 118 223 123 223.2C127.9 223.4 129.9 219.2 130.7 215.8C131.5 219.3 133.5 223.5 138.4 223.2C143.3 223 146 217.8 145.8 212.7C145.5 208.2 142.9 203 139.5 198.2C134.4 191 130.7 184.9 130.7 184.9Z" fill="#FF0000"/>
<path d="M47.8999 184.9C47.8999 184.9 44.1999 191 39.0999 198.2C35.6999 203 32.9999 208.2 32.7999 212.7C32.4999 217.8 35.1999 223 40.1999 223.2C45.0999 223.4 47.0999 219.2 47.8999 215.8C48.6999 219.3 50.6999 223.5 55.5999 223.2C60.4999 223 63.1999 217.8 62.9999 212.7C62.6999 208.2 60.0999 203 56.6999 198.2C51.5999 191 47.8999 184.9 47.8999 184.9Z" fill="#FF0000"/>
<path d="M9.7002 37.5001C11.4002 28.3001 13.3002 21.4001 18.1002 14.0001H8.3002V17.2001H5.7002V11.1001H20.1002L21.9002 13.9001C16.7002 19.5001 12.0002 37.7001 12.9002 37.4001H9.7002V37.5001Z" fill="#FF0000"/>
<path d="M168.9 212C167.2 221.2 165.3 228.1 160.5 235.5H170.4V232.3H173V238.4H158.6L156.8 235.6C162 230 166.7 211.8 165.8 212.1L168.9 212Z" fill="#FF0000"/>
</g>
<defs>
<clipPath id="clip0">
<rect width="178.6" height="249.4" fill="white"/>
</clipPath>
</defs>
</svg>
