<svg width="179" height="250" viewBox="0 0 179 250" fill="none" xmlns="http://www.w3.org/2000/svg">
<g clip-path="url(#clip0)">
<path d="M8.5431 -0.03125H170.037C174.73 -0.03125 178.57 3.80875 178.57 8.50208V240.929C178.57 245.622 174.73 249.462 170.037 249.462H8.5431C3.84977 249.462 0.00976562 245.622 0.00976562 240.929V8.50208C0.00976563 3.80875 3.84977 -0.03125 8.5431 -0.03125Z" fill="white"/>
<path d="M47.903 26.1021C40.543 36.662 32.6496 42.6353 32.543 50.8487C32.543 53.5153 33.9296 57.9953 38.4096 58.8487C41.2896 59.382 45.3431 57.0354 45.4497 52.2354C45.4497 51.2754 46.4096 51.2754 46.4096 52.6621C46.303 56.5021 45.023 60.8754 43.103 64.502C46.303 64.502 49.503 64.502 52.8096 64.502C50.783 60.8754 49.6097 56.5021 49.503 52.6621C49.503 51.3821 50.5697 51.2754 50.463 52.2354C50.5697 57.0354 54.5163 59.382 57.503 58.8487C61.983 57.9953 63.4765 53.5153 63.3698 50.8487C63.1565 42.742 55.263 36.662 47.903 26.1021Z" fill="black"/>
<path d="M13.7697 39.9688C10.3563 44.3421 6.62305 46.902 6.62305 50.3154C6.62305 51.382 7.26302 53.302 9.39635 53.622C10.783 53.8353 12.5963 52.8754 12.703 50.8487C12.703 50.422 13.1297 50.422 13.1297 50.9553C13.023 52.5553 12.4897 54.3688 11.5297 55.8621C13.023 55.8621 14.5163 55.8621 16.0096 55.8621C15.0496 54.3688 14.5163 52.5553 14.4096 50.9553C14.4096 50.422 14.8363 50.422 14.8363 50.8487C14.8363 52.8754 16.7563 53.8353 18.143 53.622C20.2763 53.302 20.9164 51.382 20.9164 50.3154C20.9164 46.902 17.183 44.3421 13.7697 39.9688Z" fill="black"/>
<path d="M164.81 209.462C161.396 205.089 157.663 202.529 157.663 199.115C157.663 198.049 158.303 196.129 160.437 195.809C161.823 195.595 163.636 196.555 163.743 198.582C163.743 199.009 164.17 199.009 164.17 198.475C164.063 196.875 163.53 195.062 162.57 193.569C164.063 193.569 165.556 193.569 167.05 193.569C166.09 195.062 165.556 196.875 165.45 198.475C165.45 199.009 165.876 199.009 165.876 198.582C165.876 196.555 167.796 195.595 169.183 195.809C171.316 196.129 171.956 198.049 171.956 199.115C171.956 202.529 168.223 205.089 164.81 209.462Z" fill="black"/>
<path d="M130.676 26.1021C123.316 36.662 115.423 42.6353 115.316 50.8487C115.316 53.5153 116.703 57.9953 121.183 58.8487C124.063 59.382 128.116 57.0354 128.223 52.2354C128.223 51.2754 129.183 51.2754 129.183 52.6621C129.076 56.5021 127.796 60.8754 125.876 64.502C129.076 64.502 132.276 64.502 135.583 64.502C133.556 60.8754 132.383 56.5021 132.276 52.6621C132.276 51.3821 133.343 51.2754 133.236 52.2354C133.343 57.0354 137.29 59.382 140.276 58.8487C144.756 57.9953 146.25 53.5153 146.143 50.8487C145.93 42.742 138.036 36.662 130.676 26.1021Z" fill="black"/>
<path d="M89.2896 65.8887C81.9296 76.4487 74.0364 82.4221 73.9297 90.6354C73.9297 93.3021 75.3164 97.7821 79.7964 98.6354C82.6764 99.1687 86.7298 96.822 86.8365 92.022C86.8365 91.062 87.7964 91.062 87.7964 92.4487C87.6897 96.2887 86.4096 100.662 84.4896 104.289C87.6896 104.289 90.8897 104.289 94.1964 104.289C92.1697 100.662 90.9963 96.2887 90.8896 92.4487C90.8896 91.1687 91.9564 91.062 91.8497 92.022C91.9564 96.822 95.9029 99.1687 98.8896 98.6354C103.37 97.7821 104.863 93.3021 104.756 90.6354C104.543 82.4221 96.6496 76.342 89.2896 65.8887Z" fill="black"/>
<path d="M47.903 105.569C40.543 116.129 32.6496 122.102 32.543 130.315C32.543 132.982 33.9296 137.462 38.4096 138.315C41.2896 138.849 45.3431 136.502 45.4497 131.702C45.4497 130.742 46.4096 130.742 46.4096 132.129C46.303 135.969 45.023 140.342 43.103 143.969C46.303 143.969 49.503 143.969 52.8096 143.969C50.783 140.342 49.6097 135.969 49.503 132.129C49.503 130.849 50.5697 130.742 50.463 131.702C50.5697 136.502 54.5163 138.849 57.503 138.315C61.983 137.462 63.4765 132.982 63.3698 130.315C63.1565 122.102 55.263 116.022 47.903 105.569Z" fill="black"/>
<path d="M47.903 223.329C40.543 212.769 32.6496 206.795 32.543 198.582C32.543 195.915 33.9296 191.435 38.4096 190.582C41.2896 190.049 45.3431 192.395 45.4497 197.195C45.4497 198.155 46.4096 198.155 46.4096 196.769C46.303 192.929 45.023 188.555 43.103 184.929C46.303 184.929 49.503 184.929 52.8096 184.929C50.783 188.555 49.6097 192.929 49.503 196.769C49.503 198.049 50.5697 198.155 50.463 197.195C50.5697 192.395 54.5163 190.049 57.503 190.582C61.983 191.435 63.4765 195.915 63.3698 198.582C63.1565 206.689 55.263 212.769 47.903 223.329Z" fill="black"/>
<path d="M130.676 223.329C123.316 212.769 115.423 206.795 115.316 198.582C115.316 195.915 116.703 191.435 121.183 190.582C124.063 190.049 128.116 192.395 128.223 197.195C128.223 198.155 129.183 198.155 129.183 196.769C129.076 192.929 127.796 188.555 125.876 184.929C129.076 184.929 132.276 184.929 135.583 184.929C133.556 188.555 132.383 192.929 132.276 196.769C132.276 198.049 133.343 198.155 133.236 197.195C133.343 192.395 137.29 190.049 140.276 190.582C144.756 191.435 146.25 195.915 146.143 198.582C145.93 206.689 138.036 212.769 130.676 223.329Z" fill="black"/>
<path d="M130.676 105.569C123.316 116.129 115.423 122.102 115.316 130.315C115.316 132.982 116.703 137.462 121.183 138.315C124.063 138.849 128.116 136.502 128.223 131.702C128.223 130.742 129.183 130.742 129.183 132.129C129.076 135.969 127.796 140.342 125.876 143.969C129.076 143.969 132.276 143.969 135.583 143.969C133.556 140.342 132.383 135.969 132.276 132.129C132.276 130.849 133.343 130.742 133.236 131.702C133.343 136.502 137.29 138.849 140.276 138.315C144.756 137.462 146.25 132.982 146.143 130.315C145.93 122.102 138.036 116.022 130.676 105.569Z" fill="black"/>
<path d="M9.71647 37.5153C11.4231 28.3419 13.343 21.4086 18.143 13.942H8.32975V17.142H5.66309V11.062H20.0631L21.8764 13.942C16.7564 19.5953 11.9564 37.7286 12.8097 37.5153H9.71647Z" fill="black"/>
<path d="M168.863 212.022C167.156 221.195 165.236 228.129 160.436 235.595H170.25V232.395H172.916V238.475H158.516L156.703 235.595C161.823 229.942 166.623 211.809 165.77 212.022H168.863Z" fill="black"/>
</g>
<defs>
<clipPath id="clip0">
<rect width="178.6" height="249.4" fill="white"/>
</clipPath>
</defs>
</svg>
