<svg width="179" height="250" viewBox="0 0 179 250" fill="none" xmlns="http://www.w3.org/2000/svg">
<g clip-path="url(#clip0)">
<path d="M8.60003 0H170.1C174.8 0 178.6 3.8 178.6 8.5V240.9C178.6 245.6 174.8 249.4 170.1 249.4H8.60003C3.90003 249.4 0.100026 245.6 0.100026 240.9V8.5C2.58269e-05 3.8 3.90003 0 8.60003 0Z" fill="white"/>
<path d="M13.8 56C12.1 53.1 10.3 50.4 8 48C10.3 45.6 12.1 42.9 13.8 40C15.5 42.9 17.3 45.6 19.6 48C17.4 50.3 15.6 53.1 13.8 56Z" fill="#030D6D"/>
<path d="M130.8 64.5999C126.7 57.6999 122.3 51.1 116.8 45.4C122.3 39.7 126.6 33.1 130.8 26.2C134.9 33.1 139.3 39.7 144.8 45.4C139.3 51 134.9 57.6999 130.8 64.5999Z" fill="#030D6D"/>
<path d="M164.9 209.5C163.2 206.6 161.4 203.9 159.1 201.5C161.4 199.1 163.2 196.4 164.9 193.5C166.6 196.4 168.4 199.1 170.7 201.5C168.4 203.8 166.6 206.6 164.9 209.5Z" fill="#030D6D"/>
<path d="M47.8999 64.5999C43.7999 57.6999 39.3999 51.1 33.8999 45.4C39.3999 39.7 43.6999 33.1 47.8999 26.2C51.9999 33.1 56.3999 39.7 61.8999 45.4C56.3999 51 52.0999 57.6999 47.8999 64.5999Z" fill="#030D6D"/>
<path d="M89.2998 104.2C85.1998 97.3 80.7998 90.7 75.2998 85C80.7998 79.3 85.0998 72.7 89.2998 65.8C93.3998 72.7 97.7998 79.3 103.3 85C97.8998 90.7 93.4998 97.4 89.2998 104.2Z" fill="#030D6D"/>
<path d="M47.8999 143.9C43.7999 137 39.3999 130.4 33.8999 124.7C39.3999 119 43.6999 112.4 47.8999 105.5C51.9999 112.4 56.3999 119 61.8999 124.7C56.3999 130.4 52.0999 137 47.8999 143.9Z" fill="#030D6D"/>
<path d="M130.8 143.9C126.7 137 122.3 130.4 116.8 124.7C122.3 119 126.6 112.4 130.8 105.5C134.9 112.4 139.3 119 144.8 124.7C139.3 130.4 134.9 137.1 130.8 143.9Z" fill="#030D6D"/>
<path d="M47.8999 223.3C43.7999 216.4 39.3999 209.8 33.8999 204.1C39.3999 198.4 43.6999 191.8 47.8999 184.9C51.9999 191.8 56.3999 198.4 61.8999 204.1C56.3999 209.8 52.0999 216.4 47.8999 223.3Z" fill="#030D6D"/>
<path d="M130.8 223.3C126.7 216.4 122.3 209.8 116.8 204.1C122.3 198.4 126.6 191.8 130.8 184.9C134.9 191.8 139.3 198.4 144.8 204.1C139.3 209.8 134.9 216.5 130.8 223.3Z" fill="#030D6D"/>
<path d="M89.2998 183.6C85.1998 176.7 80.7998 170.1 75.2998 164.4C80.7998 158.7 85.0998 152.1 89.2998 145.2C93.3998 152.1 97.7998 158.7 103.3 164.4C97.8998 170.1 93.4998 176.7 89.2998 183.6Z" fill="#030D6D"/>
<path d="M5.20012 29.6999C5.30012 26.1999 6.60012 24.7999 9.10012 22.9999C7.10012 21.4999 6.20012 19.3999 6.40012 17.5999C6.80012 13.1999 10.2001 10.9999 13.9001 11.0999C17.6001 11.1999 20.8001 14.0999 21.1001 17.3999C21.3001 20.1999 20.5001 21.4999 18.5001 22.9999C20.8001 24.9999 22.3001 26.2999 22.3001 29.7999C22.2001 33.2999 19.3001 37.3999 14.1001 37.5999C9.00012 37.5999 5.10012 33.2999 5.20012 29.6999ZM19.7001 29.7999C19.9001 26.5999 17.1001 24.3999 13.9001 24.3999C10.8001 24.2999 8.00012 26.9999 8.00012 29.8999C8.00012 32.9999 11.6001 34.6999 14.0001 34.6999C16.8001 34.5999 19.5001 32.4999 19.7001 29.7999ZM18.7001 18.2999C18.8001 15.5999 16.3001 13.6999 13.7001 13.6999C11.4001 13.7999 9.00012 15.4999 9.00012 17.7999C9.00012 20.5999 11.8001 21.9999 14.1001 22.0999C16.2001 22.0999 18.6001 20.2999 18.7001 18.2999Z" fill="#030D6D"/>
<path d="M156.3 219.7C156.4 223.2 157.7 224.6 160.2 226.4C158.2 227.9 157.3 230 157.5 231.8C157.9 236.2 161.3 238.4 165 238.3C168.7 238.2 171.9 235.3 172.2 232C172.4 229.2 171.6 227.9 169.6 226.4C171.9 224.4 173.4 223.1 173.4 219.6C173.3 216.1 170.4 212 165.2 211.8C160.1 211.9 156.2 216.2 156.3 219.7ZM170.7 219.7C170.9 222.9 168.1 225.1 164.9 225.1C161.8 225.1 159 222.5 159 219.6C159 216.5 162.6 214.8 165 214.8C167.8 214.8 170.5 216.9 170.7 219.7ZM169.7 231.2C169.8 233.9 167.3 235.8 164.7 235.8C162.4 235.7 160 234 160 231.7C160 228.9 162.8 227.5 165.1 227.4C167.2 227.3 169.7 229.1 169.7 231.2Z" fill="#030D6D"/>
</g>
<defs>
<clipPath id="clip0">
<rect width="178.6" height="249.4" fill="white"/>
</clipPath>
</defs>
</svg>
