<svg width="179" height="250" viewBox="0 0 179 250" fill="none" xmlns="http://www.w3.org/2000/svg">
<g clip-path="url(#clip0)">
<path d="M8.57615 0.0244141H170.076C174.776 0.0244141 178.576 3.82441 178.576 8.52441V240.924C178.576 245.624 174.776 249.424 170.076 249.424H8.57615C3.87615 249.424 0.076148 245.624 0.076148 240.924V8.52441C-0.023852 3.82441 3.77615 0.0244141 8.57615 0.0244141Z" fill="white"/>
<path d="M13.8001 56C13.8001 56 12.0001 53.4 9.6001 50.4C8.0001 48.4 6.7001 46.2 6.6001 44.3C6.5001 42.2 7.8001 40 10.1001 39.9C12.4001 39.8 13.4001 41.5 13.8001 43C14.2001 41.6 15.1001 39.8 17.5001 39.9C19.8001 40 21.1001 42.2 21.0001 44.3C20.9001 46.2 19.6001 48.3 18.0001 50.4C15.6001 53.4 13.8001 56 13.8001 56Z" fill="#FF0000"/>
<path d="M164.8 193.5C164.8 193.5 163 196.1 160.6 199.1C159 201.1 157.7 203.3 157.6 205.2C157.5 207.3 158.8 209.5 161.1 209.6C163.4 209.7 164.4 208 164.8 206.5C165.2 207.9 166.1 209.7 168.5 209.6C170.8 209.5 172.1 207.3 172 205.2C171.9 203.3 170.6 201.2 169 199.1C166.6 196 164.8 193.5 164.8 193.5Z" fill="#FF0000"/>
<path d="M89.2998 104.2C89.2998 104.2 85.5998 98.1 80.4998 90.9C77.0998 86.1 74.3998 80.9 74.1998 76.4C73.8998 71.3 76.5998 66.1 81.5998 65.9C86.4998 65.7 88.4998 69.9 89.2998 73.3C90.0998 69.8 92.0998 65.6 96.9998 65.9C101.9 66.1 104.6 71.3 104.4 76.4C104.1 80.9 101.5 86.1 98.0998 90.9C92.9998 98.1 89.2998 104.2 89.2998 104.2Z" fill="#FF0000"/>
<path d="M47.8999 64.6001C47.8999 64.6001 44.1999 58.5001 39.0999 51.3001C35.6999 46.5001 32.9999 41.3001 32.7999 36.8001C32.4999 31.7001 35.1999 26.5001 40.1999 26.3001C45.0999 26.1001 47.0999 30.3001 47.8999 33.7001C48.6999 30.2001 50.6999 26.0001 55.5999 26.3001C60.4999 26.5001 63.1999 31.7001 62.9999 36.8001C62.6999 41.3001 60.0999 46.5001 56.6999 51.3001C51.5999 58.4001 47.8999 64.6001 47.8999 64.6001Z" fill="#FF0000"/>
<path d="M130.7 143.9C130.7 143.9 127 137.8 121.9 130.6C118.5 125.8 115.8 120.6 115.6 116.1C115.3 111 118 105.8 123 105.6C127.9 105.4 129.9 109.6 130.7 113C131.5 109.5 133.5 105.3 138.4 105.6C143.3 105.8 146 111 145.8 116.1C145.5 120.6 142.9 125.8 139.5 130.6C134.4 137.8 130.7 143.9 130.7 143.9Z" fill="#FF0000"/>
<path d="M130.7 64.6001C130.7 64.6001 127 58.5001 121.9 51.3001C118.5 46.5001 115.8 41.3001 115.6 36.8001C115.3 31.7001 118 26.5001 123 26.3001C127.9 26.1001 129.9 30.3001 130.7 33.7001C131.5 30.2001 133.5 26.0001 138.4 26.3001C143.3 26.5001 146 31.7001 145.8 36.8001C145.5 41.3001 142.9 46.5001 139.5 51.3001C134.4 58.4001 130.7 64.6001 130.7 64.6001Z" fill="#FF0000"/>
<path d="M47.8999 143.9C47.8999 143.9 44.1999 137.8 39.0999 130.6C35.6999 125.8 32.9999 120.6 32.7999 116.1C32.4999 111 35.1999 105.8 40.1999 105.6C45.0999 105.4 47.0999 109.6 47.8999 113C48.6999 109.5 50.6999 105.3 55.5999 105.6C60.4999 105.8 63.1999 111 62.9999 116.1C62.6999 120.6 60.0999 125.8 56.6999 130.6C51.5999 137.8 47.8999 143.9 47.8999 143.9Z" fill="#FF0000"/>
<path d="M89.2998 145.2C89.2998 145.2 85.5998 151.3 80.4998 158.5C77.0998 163.3 74.3998 168.5 74.1998 173C73.8998 178.1 76.5998 183.3 81.5998 183.5C86.4998 183.7 88.4998 179.5 89.2998 176.1C90.0998 179.6 92.0998 183.8 96.9998 183.5C101.9 183.3 104.6 178.1 104.4 173C104.1 168.5 101.5 163.3 98.0998 158.5C92.9998 151.3 89.2998 145.2 89.2998 145.2Z" fill="#FF0000"/>
<path d="M130.7 184.9C130.7 184.9 127 191 121.9 198.2C118.5 203 115.8 208.2 115.6 212.7C115.3 217.8 118 223 123 223.2C127.9 223.4 129.9 219.2 130.7 215.8C131.5 219.3 133.5 223.5 138.4 223.2C143.3 223 146 217.8 145.8 212.7C145.5 208.2 142.9 203 139.5 198.2C134.4 191 130.7 184.9 130.7 184.9Z" fill="#FF0000"/>
<path d="M47.8999 184.9C47.8999 184.9 44.1999 191 39.0999 198.2C35.6999 203 32.9999 208.2 32.7999 212.7C32.4999 217.8 35.1999 223 40.1999 223.2C45.0999 223.4 47.0999 219.2 47.8999 215.8C48.6999 219.3 50.6999 223.5 55.5999 223.2C60.4999 223 63.1999 217.8 62.9999 212.7C62.6999 208.2 60.0999 203 56.6999 198.2C51.5999 191 47.8999 184.9 47.8999 184.9Z" fill="#FF0000"/>
<path d="M5.20012 29.6999C5.30012 26.1999 6.60012 24.7999 9.10012 22.9999C7.10012 21.4999 6.20012 19.3999 6.40012 17.5999C6.80012 13.1999 10.2001 10.9999 13.9001 11.0999C17.6001 11.1999 20.8001 14.0999 21.1001 17.3999C21.3001 20.1999 20.5001 21.4999 18.5001 22.9999C20.8001 24.9999 22.3001 26.2999 22.3001 29.7999C22.2001 33.2999 19.3001 37.3999 14.1001 37.5999C9.00012 37.5999 5.10012 33.2999 5.20012 29.6999ZM19.6001 29.7999C19.8001 26.5999 17.0001 24.3999 13.8001 24.3999C10.7001 24.3999 7.90012 26.9999 7.90012 29.8999C7.90012 32.9999 11.5001 34.6999 13.9001 34.6999C16.7001 34.5999 19.5001 32.4999 19.6001 29.7999ZM18.6001 18.2999C18.7001 15.5999 16.2001 13.6999 13.6001 13.6999C11.3001 13.7999 8.90012 15.4999 8.90012 17.7999C8.90012 20.5999 11.7001 21.9999 14.0001 22.0999C16.1001 22.0999 18.6001 20.2999 18.6001 18.2999Z" fill="#FF0000"/>
<path d="M156.2 219.7C156.3 223.2 157.6 224.6 160.1 226.4C158.1 227.9 157.2 230 157.4 231.8C157.8 236.2 161.2 238.4 164.9 238.3C168.6 238.2 171.8 235.3 172.1 232C172.3 229.2 171.5 227.9 169.5 226.4C171.8 224.4 173.3 223.1 173.3 219.6C173.2 216.1 170.3 212 165.1 211.8C160 211.9 156.1 216.2 156.2 219.7ZM170.7 219.7C170.9 222.9 168.1 225.1 164.9 225.1C161.8 225.1 159 222.5 159 219.6C159 216.5 162.6 214.8 165 214.8C167.8 214.8 170.5 216.9 170.7 219.7ZM169.7 231.2C169.8 233.9 167.3 235.8 164.7 235.8C162.4 235.7 160 234 160 231.7C160 228.9 162.8 227.5 165.1 227.4C167.2 227.3 169.6 229.1 169.7 231.2Z" fill="#FF0000"/>
</g>
<defs>
<clipPath id="clip0">
<rect width="178.6" height="249.4" fill="white"/>
</clipPath>
</defs>
</svg>
