<svg width="179" height="250" viewBox="0 0 179 250" fill="none" xmlns="http://www.w3.org/2000/svg">
<g clip-path="url(#clip0)">
<path d="M8.54017 -0.03125H170.034C174.727 -0.03125 178.567 3.80875 178.567 8.50208V240.929C178.567 245.622 174.727 249.462 170.034 249.462H8.54017C3.84684 249.462 0.00683594 245.622 0.00683594 240.929V8.50208C0.00683594 3.80875 3.84684 -0.03125 8.54017 -0.03125Z" fill="white"/>
<path d="M47.9002 26.1021C40.5402 36.662 32.6467 42.6353 32.54 50.8487C32.54 53.5153 33.9267 57.9953 38.4067 58.8487C41.2867 59.382 45.3401 57.0354 45.4468 52.2354C45.4468 51.2754 46.4067 51.2754 46.4067 52.6621C46.3 56.5021 45.0202 60.8754 43.1002 64.502C46.3002 64.502 49.5 64.502 52.8067 64.502C50.78 60.8754 49.6069 56.5021 49.5002 52.6621C49.5002 51.3821 50.5668 51.2754 50.4601 52.2354C50.5668 57.0354 54.5135 59.382 57.5002 58.8487C61.9802 57.9953 63.4735 53.5153 63.3669 50.8487C63.1535 42.742 55.2602 36.662 47.9002 26.1021Z" fill="black"/>
<path d="M13.767 39.9688C10.3537 44.3421 6.62012 46.902 6.62012 50.3154C6.62012 51.382 7.26022 53.302 9.39356 53.622C10.7802 53.8353 12.5937 52.8754 12.7003 50.8487C12.7003 50.422 13.1269 50.422 13.1269 50.9553C13.0202 52.5553 12.4869 54.3688 11.5269 55.8621C13.0202 55.8621 14.5135 55.8621 16.0068 55.8621C15.0468 54.3688 14.5135 52.5553 14.4068 50.9553C14.4068 50.422 14.8337 50.422 14.8337 50.8487C14.8337 52.8754 16.7535 53.8353 18.1402 53.622C20.2735 53.302 20.9136 51.382 20.9136 50.3154C20.9136 46.902 17.1803 44.3421 13.767 39.9688Z" fill="black"/>
<path d="M164.807 209.462C161.393 205.089 157.66 202.529 157.66 199.115C157.66 198.049 158.3 196.129 160.434 195.809C161.82 195.595 163.633 196.555 163.74 198.582C163.74 199.009 164.167 199.009 164.167 198.475C164.06 196.875 163.527 195.062 162.567 193.569C164.06 193.569 165.554 193.569 167.047 193.569C166.087 195.062 165.554 196.875 165.447 198.475C165.447 199.009 165.873 199.009 165.873 198.582C165.873 196.555 167.794 195.595 169.18 195.809C171.314 196.129 171.953 198.049 171.953 199.115C171.953 202.529 168.22 205.089 164.807 209.462Z" fill="black"/>
<path d="M130.673 26.1021C123.313 36.662 115.42 42.6353 115.313 50.8487C115.313 53.5153 116.7 57.9953 121.18 58.8487C124.06 59.382 128.113 57.0354 128.22 52.2354C128.22 51.2754 129.18 51.2754 129.18 52.6621C129.073 56.5021 127.793 60.8754 125.873 64.502C129.073 64.502 132.273 64.502 135.58 64.502C133.553 60.8754 132.38 56.5021 132.273 52.6621C132.273 51.3821 133.34 51.2754 133.234 52.2354C133.34 57.0354 137.287 59.382 140.273 58.8487C144.753 57.9953 146.247 53.5153 146.14 50.8487C146.033 42.742 138.033 36.662 130.673 26.1021Z" fill="black"/>
<path d="M89.2867 65.8887C81.9267 76.4487 74.0334 82.4221 73.9268 90.6354C73.9268 93.3021 75.3134 97.7821 79.7934 98.6354C82.6734 99.1687 86.7269 96.822 86.8335 92.022C86.8335 91.062 87.7934 91.062 87.7934 92.4487C87.6868 96.2887 86.4067 100.662 84.4867 104.289C87.6867 104.289 90.8868 104.289 94.1934 104.289C92.1668 100.662 90.9933 96.2887 90.8867 92.4487C90.8867 91.1687 91.9535 91.062 91.8468 92.022C91.9535 96.822 95.9 99.1687 98.8867 98.6354C103.367 97.7821 104.86 93.3021 104.753 90.6354C104.54 82.4221 96.6467 76.342 89.2867 65.8887Z" fill="black"/>
<path d="M47.9002 105.569C40.5402 116.129 32.6467 122.102 32.54 130.315C32.54 132.982 33.9267 137.462 38.4067 138.315C41.2867 138.849 45.3401 136.502 45.4468 131.702C45.4468 130.742 46.4067 130.742 46.4067 132.129C46.3 135.969 45.0202 140.342 43.1002 143.969C46.3002 143.969 49.5 143.969 52.8067 143.969C50.78 140.342 49.6069 135.969 49.5002 132.129C49.5002 130.849 50.5668 130.742 50.4601 131.702C50.5668 136.502 54.5135 138.849 57.5002 138.315C61.9802 137.462 63.4735 132.982 63.3669 130.315C63.1535 122.102 55.2602 116.022 47.9002 105.569Z" fill="black"/>
<path d="M47.9002 223.329C40.5402 212.769 32.6467 206.795 32.54 198.582C32.54 195.915 33.9267 191.435 38.4067 190.582C41.2867 190.049 45.3401 192.395 45.4468 197.195C45.4468 198.155 46.4067 198.155 46.4067 196.769C46.3 192.929 45.0202 188.555 43.1002 184.929C46.3002 184.929 49.5 184.929 52.8067 184.929C50.78 188.555 49.6069 192.929 49.5002 196.769C49.5002 198.049 50.5668 198.155 50.4601 197.195C50.5668 192.395 54.5135 190.049 57.5002 190.582C61.9802 191.435 63.4735 195.915 63.3669 198.582C63.1535 206.689 55.2602 212.769 47.9002 223.329Z" fill="black"/>
<path d="M130.673 223.329C123.313 212.769 115.42 206.795 115.313 198.582C115.313 195.915 116.7 191.435 121.18 190.582C124.06 190.049 128.113 192.395 128.22 197.195C128.22 198.155 129.18 198.155 129.18 196.769C129.073 192.929 127.793 188.555 125.873 184.929C129.073 184.929 132.273 184.929 135.58 184.929C133.553 188.555 132.38 192.929 132.273 196.769C132.273 198.049 133.34 198.155 133.234 197.195C133.34 192.395 137.287 190.049 140.273 190.582C144.753 191.435 146.247 195.915 146.14 198.582C146.033 206.689 138.033 212.769 130.673 223.329Z" fill="black"/>
<path d="M89.2867 183.649C81.9267 173.089 74.0334 167.115 73.9268 158.902C73.9268 156.235 75.3134 151.755 79.7934 150.902C82.6734 150.369 86.7269 152.715 86.8335 157.515C86.8335 158.475 87.7934 158.475 87.7934 157.089C87.6868 153.249 86.4067 148.875 84.4867 145.249C87.6867 145.249 90.8868 145.249 94.1934 145.249C92.1668 148.875 90.9933 153.249 90.8867 157.089C90.8867 158.369 91.9535 158.475 91.8468 157.515C91.9535 152.715 95.9 150.369 98.8867 150.902C103.367 151.755 104.86 156.235 104.753 158.902C104.54 167.009 96.6467 173.089 89.2867 183.649Z" fill="black"/>
<path d="M130.673 105.569C123.313 116.129 115.42 122.102 115.313 130.315C115.313 132.982 116.7 137.462 121.18 138.315C124.06 138.849 128.113 136.502 128.22 131.702C128.22 130.742 129.18 130.742 129.18 132.129C129.073 135.969 127.793 140.342 125.873 143.969C129.073 143.969 132.273 143.969 135.58 143.969C133.553 140.342 132.38 135.969 132.273 132.129C132.273 130.849 133.34 130.742 133.234 131.702C133.34 136.502 137.287 138.849 140.273 138.315C144.753 137.462 146.247 132.982 146.14 130.315C146.033 122.102 138.033 116.022 130.673 105.569Z" fill="black"/>
<path d="M5.23384 29.7289C5.34051 26.2089 6.62045 24.8222 9.18045 23.0088C7.15379 21.5155 6.30045 19.3822 6.51379 17.5689C6.94045 13.1955 10.3536 10.9556 14.087 11.0622C17.8203 11.1689 21.0205 14.1555 21.2338 17.3555C21.4472 20.1288 20.5937 21.5155 18.6737 22.9022C21.0204 24.9289 22.5138 26.2088 22.5138 29.6221C22.4071 33.1421 19.5272 37.3022 14.3005 37.4088C8.96717 37.6222 5.02051 33.2489 5.23384 29.7289ZM19.6338 29.7289C19.8472 26.5289 16.9672 24.3955 13.7672 24.2888C10.6738 24.2888 7.90051 26.9555 7.90051 29.8355C7.90051 32.9289 11.527 34.6355 13.8737 34.6355C16.7537 34.6355 19.4205 32.5022 19.6338 29.7289ZM18.5672 18.3155C18.6738 15.6488 16.1136 13.7289 13.5536 13.7289C11.3136 13.8356 8.8604 15.5422 8.8604 17.7822C8.8604 20.6622 11.6338 22.0488 13.9805 22.0488C16.1138 22.1555 18.5672 20.3422 18.5672 18.3155Z" fill="black"/>
<path d="M156.273 219.702C156.38 223.222 157.66 224.609 160.22 226.422C158.193 227.915 157.34 230.049 157.553 231.862C157.98 236.235 161.393 238.476 165.127 238.369C168.86 238.262 172.06 235.275 172.273 232.075C172.487 229.302 171.633 227.915 169.713 226.529C172.06 224.502 173.553 223.222 173.553 219.809C173.447 216.289 170.567 212.129 165.34 212.022C160.007 211.809 156.06 216.182 156.273 219.702ZM170.673 219.702C170.887 222.902 168.007 225.035 164.807 225.142C161.713 225.142 158.94 222.475 158.94 219.595C158.94 216.502 162.567 214.795 164.913 214.795C167.793 214.795 170.46 216.929 170.673 219.702ZM169.607 231.222C169.713 233.889 167.153 235.809 164.593 235.809C162.353 235.702 159.9 233.995 159.9 231.755C159.9 228.875 162.673 227.489 165.02 227.489C167.153 227.275 169.607 229.089 169.607 231.222Z" fill="black"/>
</g>
<defs>
<clipPath id="clip0">
<rect width="178.6" height="249.4" fill="white"/>
</clipPath>
</defs>
</svg>
