<svg width="179" height="250" viewBox="0 0 179 250" fill="none" xmlns="http://www.w3.org/2000/svg">
<g clip-path="url(#clip0)">
<path d="M8.5 0H170C174.7 0 178.5 3.8 178.5 8.5V240.9C178.5 245.6 174.7 249.4 170 249.4H8.5C3.8 249.4 0 245.6 0 240.9V8.5C0 3.8 3.8 0 8.5 0Z" fill="white"/>
<path d="M130.7 26.5C122.8 26.7 119.3 35.5 125.1 42.4C125.9 43.4 126 44 124.5 43C120.6 40.4 113.1 42.1 112.7 50.1C112.2 60 126 62.8 128.6 52.3C128.7 51.2 129.6 51.2 129.4 52.8C129.2 57.1 127.8 61 126 64.9C129.1 64.9 132.5 64.9 135.3 64.9C133.5 61 132.1 57 131.9 52.8C131.7 51.2 132.6 51.2 132.7 52.3C135.3 62.8 149.1 59.9 148.6 50.1C148.2 42.1 140.7 40.4 136.8 43C135.3 44 135.3 43.4 136.2 42.4C142.1 35.5 138.6 26.7 130.7 26.5Z" fill="#025E0B"/>
<path d="M47.9 26.5C40 26.7 36.5 35.5 42.3 42.4C43.1 43.4 43.2 44 41.7 43C37.8 40.4 30.3 42.1 29.9 50.1C29.4 60 43.2 62.8 45.8 52.3C45.9 51.2 46.8 51.2 46.6 52.8C46.4 57 45 61 43.2 64.9C46.3 64.9 49.7 64.9 52.5 64.9C50.7 61 49.3 57 49.1 52.8C48.9 51.2 49.8 51.2 49.9 52.3C52.5 62.8 66.3 59.9 65.8 50.1C65.4 42.1 57.9 40.4 54 43C52.5 44 52.5 43.4 53.4 42.4C59.3 35.5 55.7 26.7 47.9 26.5Z" fill="#025E0B"/>
<path d="M130.7 223.6C122.8 223.4 119.3 214.6 125.1 207.7C125.9 206.7 126 206.1 124.5 207.1C120.6 209.7 113.1 208 112.7 200C112.2 190.1 126 187.3 128.6 197.8C128.7 198.9 129.6 198.9 129.4 197.3C129.2 193 127.8 189.1 126 185.2C129.1 185.2 132.5 185.2 135.3 185.2C133.5 189.1 132.1 193.1 131.9 197.3C131.7 198.9 132.6 198.9 132.7 197.8C135.3 187.3 149.1 190.2 148.6 200C148.2 208 140.7 209.7 136.8 207.1C135.3 206.1 135.3 206.7 136.2 207.7C142.1 214.6 138.6 223.5 130.7 223.6Z" fill="#025E0B"/>
<path d="M47.9 223.6C40 223.4 36.5 214.6 42.3 207.7C43.1 206.7 43.2 206.1 41.7 207.1C37.8 209.7 30.3 208 29.9 200C29.4 190.1 43.2 187.3 45.8 197.8C45.9 198.9 46.8 198.9 46.6 197.3C46.4 193 45 189.1 43.2 185.2C46.3 185.2 49.7 185.2 52.5 185.2C50.7 189.1 49.3 193.1 49.1 197.3C48.9 198.9 49.8 198.9 49.9 197.8C52.5 187.3 66.3 190.2 65.8 200C65.4 208 57.9 209.7 54 207.1C52.5 206.1 52.5 206.7 53.4 207.7C59.3 214.6 55.7 223.5 47.9 223.6Z" fill="#025E0B"/>
<path d="M89.2999 105.9C81.3999 106.1 77.8999 114.9 83.6999 121.8C84.4999 122.8 84.5999 123.4 83.0999 122.4C79.1999 119.8 71.6999 121.5 71.2999 129.5C70.7999 139.4 84.5999 142.2 87.1999 131.7C87.2999 130.6 88.1999 130.6 87.9999 132.2C87.7999 136.5 86.3999 140.4 84.5999 144.3C87.6999 144.3 91.0999 144.3 93.8999 144.3C92.0999 140.4 90.6999 136.4 90.4999 132.2C90.2999 130.6 91.1999 130.6 91.2999 131.7C93.8999 142.2 107.7 139.3 107.2 129.5C106.8 121.5 99.2999 119.8 95.3999 122.4C93.8999 123.4 93.8999 122.8 94.7999 121.8C100.7 114.9 97.0999 106 89.2999 105.9Z" fill="#025E0B"/>
<path d="M164.8 209.5C167.9 209.4 169.4 205.7 167 202.9C166.7 202.5 166.6 202.2 167.2 202.6C168.8 203.7 171.8 203 171.9 199.6C172.1 195.5 166.6 194.3 165.5 198.7C165.4 199.2 165.1 199.2 165.2 198.5C165.3 196.7 165.8 195.1 166.6 193.4C165.4 193.4 164.1 193.4 162.9 193.4C163.6 195 164.2 196.7 164.3 198.5C164.4 199.2 164 199.2 164 198.7C163 194.3 157.5 195.5 157.6 199.6C157.8 202.9 160.8 203.6 162.3 202.6C162.9 202.2 162.9 202.4 162.5 202.9C160.3 205.7 161.7 209.4 164.8 209.5Z" fill="#025E0B"/>
<path d="M47.9 79.3999C40 79.5999 36.5 88.3999 42.3 95.2999C43.1 96.2999 43.2 96.8999 41.7 95.8999C37.8 93.2999 30.3 94.9999 29.9 103C29.4 112.9 43.2 115.7 45.8 105.2C45.9 104.1 46.8 104.1 46.6 105.7C46.4 110 45 113.9 43.2 117.8C46.3 117.8 49.7 117.8 52.5 117.8C50.7 113.9 49.3 109.9 49.1 105.7C48.9 104.1 49.8 104.1 49.9 105.2C52.5 115.7 66.3 112.8 65.8 103C65.4 94.9999 57.9 93.2999 54 95.8999C52.5 96.8999 52.5 96.2999 53.4 95.2999C59.3 88.3999 55.7 79.5999 47.9 79.3999Z" fill="#025E0B"/>
<path d="M47.9 170.7C40 170.5 36.5 161.7 42.3 154.8C43.1 153.8 43.2 153.2 41.7 154.2C37.8 156.8 30.3 155.1 29.9 147.1C29.4 137.2 43.2 134.4 45.8 144.9C45.9 146 46.8 146 46.6 144.4C46.4 140.1 45 136.2 43.2 132.3C46.3 132.3 49.7 132.3 52.5 132.3C50.7 136.2 49.3 140.2 49.1 144.4C48.9 146 49.8 146 49.9 144.9C52.5 134.4 66.3 137.3 65.8 147.1C65.4 155.1 57.9 156.8 54 154.2C52.5 153.2 52.5 153.8 53.4 154.8C59.3 161.7 55.7 170.5 47.9 170.7Z" fill="#025E0B"/>
<path d="M130.7 79.3999C122.8 79.5999 119.3 88.3999 125.1 95.2999C125.9 96.2999 126 96.8999 124.5 95.8999C120.6 93.2999 113.1 94.9999 112.7 103C112.2 112.9 126 115.7 128.6 105.2C128.7 104.1 129.6 104.1 129.4 105.7C129.2 110 127.8 113.9 126 117.8C129.1 117.8 132.5 117.8 135.3 117.8C133.5 113.9 132.1 109.9 131.9 105.7C131.7 104.1 132.6 104.1 132.7 105.2C135.3 115.7 149.1 112.8 148.6 103C148.2 94.9999 140.7 93.2999 136.8 95.8999C135.3 96.8999 135.3 96.2999 136.2 95.2999C142.1 88.3999 138.6 79.5999 130.7 79.3999Z" fill="#025E0B"/>
<path d="M130.7 170.7C122.8 170.5 119.3 161.7 125.1 154.8C125.9 153.8 126 153.2 124.5 154.2C120.6 156.8 113.1 155.1 112.7 147.1C112.2 137.2 126 134.4 128.6 144.9C128.7 146 129.6 146 129.4 144.4C129.2 140.1 127.8 136.2 126 132.3C129.1 132.3 132.5 132.3 135.3 132.3C133.5 136.2 132.1 140.2 131.9 144.4C131.7 146 132.6 146 132.7 144.9C135.3 134.4 149.1 137.3 148.6 147.1C148.2 155.1 140.7 156.8 136.8 154.2C135.3 153.2 135.3 153.8 136.2 154.8C142.1 161.7 138.6 170.5 130.7 170.7Z" fill="#025E0B"/>
<path d="M13.8001 40C10.7001 40.1 9.20014 43.8 11.6001 46.6C11.9001 47 12.0001 47.3 11.4001 46.9C9.80014 45.8 6.80014 46.5 6.70014 49.9C6.50014 54 12.0001 55.2 13.1001 50.8C13.2001 50.3 13.5001 50.3 13.4001 51C13.3001 52.8 12.8001 54.4 12.0001 56.1C13.2001 56.1 14.5001 56.1 15.7001 56.1C15.0001 54.5 14.4001 52.8 14.3001 51C14.2001 50.3 14.6001 50.3 14.6001 50.8C15.6001 55.2 21.1001 54 21.0001 49.9C20.8001 46.6 17.8001 45.9 16.3001 46.9C15.7001 47.3 15.7001 47.1 16.1001 46.6C18.3001 43.7 16.9001 40 13.8001 40Z" fill="#025E0B"/>
<path d="M6.39989 32.4L8.79989 31.6C9.69989 34 11.5999 34.8 13.4999 34.6C16.9999 34.3 18.1999 30.4 18.3999 27C16.9999 28.4 14.9999 29.2 13.1999 29.1C7.59989 28.8 6.19989 24.3 6.09989 19.7C5.89989 15.8 7.59989 12.9 10.3999 11.6C11.8999 10.9 15.2999 10.9 16.7999 11.7C20.1999 13.5 21.4999 16.6 21.2999 24C21.2999 30.1 19.9999 37.2 13.3999 37.4C9.69989 37.9 6.79989 35 6.39989 32.4ZM15.8999 25.7C16.9999 25 17.6999 24.3 18.1999 23.3C18.5999 22.5 18.7999 22 18.5999 20.3C18.2999 15.9 15.9999 13.4 12.5999 13.9C10.6999 14.2 9.69989 15.2 9.09989 17.2C7.99989 20.8 9.39989 25 11.9999 26C13.1999 26.4 14.9999 26.3 15.8999 25.7Z" fill="#025E0B"/>
<path d="M172.2 217.1L169.8 217.9C168.9 215.5 167 214.7 165.1 214.9C161.6 215.2 160.4 219.1 160.2 222.5C161.6 221.1 163.6 220.3 165.4 220.4C171 220.7 172.4 225.2 172.5 229.8C172.7 233.7 171 236.6 168.2 237.9C166.7 238.6 163.3 238.6 161.8 237.8C158.4 236 157.1 232.9 157.3 225.5C157.3 219.4 158.6 212.3 165.2 212.1C168.9 211.5 171.8 214.5 172.2 217.1ZM162.7 223.8C161.6 224.5 160.9 225.2 160.4 226.2C160 227 159.8 227.5 160 229.2C160.3 233.6 162.6 236.1 166 235.6C167.9 235.3 168.9 234.3 169.5 232.3C170.6 228.7 169.2 224.5 166.6 223.5C165.4 223.1 163.6 223.2 162.7 223.8Z" fill="#025E0B"/>
</g>
<defs>
<clipPath id="clip0">
<rect width="178.6" height="249.4" fill="white"/>
</clipPath>
</defs>
</svg>
