<svg width="179" height="250" viewBox="0 0 179 250" fill="none" xmlns="http://www.w3.org/2000/svg">
<g clip-path="url(#clip0)">
<path d="M8.52246 0.0244141H170.022C174.722 0.0244141 178.522 3.82441 178.522 8.52441V240.924C178.522 245.624 174.722 249.424 170.022 249.424H8.52246C3.82246 249.424 0.0224609 245.624 0.0224609 240.924V8.52441C0.0224609 3.82441 3.82246 0.0244141 8.52246 0.0244141Z" fill="white"/>
<path d="M47.8999 117.5C47.8999 117.5 44.1999 111.4 39.0999 104.2C35.6999 99.4 32.9999 94.2 32.7999 89.7C32.4999 84.6 35.1999 79.4 40.1999 79.2C45.0999 79 47.0999 83.2 47.8999 86.6C48.6999 83.1 50.6999 78.9 55.5999 79.2C60.4999 79.4 63.1999 84.6 62.9999 89.7C62.6999 94.2 60.0999 99.4 56.6999 104.2C51.5999 111.3 47.8999 117.5 47.8999 117.5Z" fill="#FF0000"/>
<path d="M14.1 56.0001C14.1 56.0001 12.3 53.4001 9.9 50.4001C8.3 48.4001 7 46.2001 6.9 44.3001C6.7 42.2001 8 40.1001 10.4 40.0001C12.7 39.9001 13.7 41.6001 14.1 43.1001C14.5 41.7001 15.4 39.9001 17.8 40.0001C20.1 40.1001 21.4 42.3001 21.3 44.4001C21.2 46.3001 19.9 48.4001 18.3 50.5001C15.9 53.4001 14.1 56.0001 14.1 56.0001Z" fill="#FF0000"/>
<path d="M164.8 193.5C164.8 193.5 163 196.1 160.6 199.1C159 201.1 157.7 203.3 157.6 205.2C157.5 207.3 158.8 209.5 161.1 209.6C163.4 209.7 164.4 208 164.8 206.5C165.2 207.9 166.1 209.7 168.5 209.6C170.8 209.5 172.1 207.3 172 205.2C171.9 203.3 170.6 201.2 169 199.1C166.6 196 164.8 193.5 164.8 193.5Z" fill="#FF0000"/>
<path d="M47.8999 64.6001C47.8999 64.6001 44.1999 58.5001 39.0999 51.3001C35.6999 46.5001 32.9999 41.3001 32.7999 36.8001C32.4999 31.7001 35.1999 26.5001 40.1999 26.3001C45.0999 26.1001 47.0999 30.3001 47.8999 33.7001C48.6999 30.2001 50.6999 26.0001 55.5999 26.3001C60.4999 26.5001 63.1999 31.7001 62.9999 36.8001C62.6999 41.3001 60.0999 46.5001 56.6999 51.3001C51.5999 58.4001 47.8999 64.6001 47.8999 64.6001Z" fill="#FF0000"/>
<path d="M130.7 117.5C130.7 117.5 127 111.4 121.9 104.2C118.5 99.4 115.8 94.2 115.6 89.7C115.3 84.6 118 79.4 123 79.2C127.9 79 129.9 83.2 130.7 86.6C131.5 83.1 133.5 78.9 138.4 79.2C143.3 79.4 146 84.6 145.8 89.7C145.5 94.2 142.9 99.4 139.5 104.2C134.4 111.3 130.7 117.5 130.7 117.5Z" fill="#FF0000"/>
<path d="M130.7 64.6001C130.7 64.6001 127 58.5001 121.9 51.3001C118.5 46.5001 115.8 41.3001 115.6 36.8001C115.3 31.7001 118 26.5001 123 26.3001C127.9 26.1001 129.9 30.3001 130.7 33.7001C131.5 30.2001 133.5 26.0001 138.4 26.3001C143.3 26.5001 146 31.7001 145.8 36.8001C145.5 41.3001 142.9 46.5001 139.5 51.3001C134.4 58.4001 130.7 64.6001 130.7 64.6001Z" fill="#FF0000"/>
<path d="M89.2998 143.9C89.2998 143.9 85.5998 137.8 80.4998 130.6C77.0998 125.8 74.3998 120.6 74.1998 116.1C73.8998 111 76.5998 105.8 81.5998 105.6C86.4998 105.4 88.4998 109.6 89.2998 113C90.0998 109.5 92.0998 105.3 96.9998 105.6C101.9 105.8 104.6 111 104.4 116.1C104.1 120.6 101.5 125.8 98.0998 130.6C92.9998 137.8 89.2998 143.9 89.2998 143.9Z" fill="#FF0000"/>
<path d="M130.7 132C130.7 132 127 138.1 121.9 145.3C118.5 150.1 115.8 155.3 115.6 159.8C115.3 164.9 118 170.1 123 170.3C127.9 170.5 129.9 166.3 130.7 162.9C131.5 166.4 133.5 170.6 138.4 170.3C143.3 170.1 146 164.9 145.8 159.8C145.5 155.3 142.9 150.1 139.5 145.3C134.4 138.1 130.7 132 130.7 132Z" fill="#FF0000"/>
<path d="M47.8999 132C47.8999 132 44.1999 138.1 39.0999 145.3C35.6999 150.1 32.9999 155.3 32.7999 159.8C32.4999 164.9 35.1999 170.1 40.1999 170.3C45.0999 170.5 47.0999 166.3 47.8999 162.9C48.6999 166.4 50.6999 170.6 55.5999 170.3C60.4999 170.1 63.1999 164.9 62.9999 159.8C62.6999 155.3 60.0999 150.1 56.6999 145.3C51.5999 138.1 47.8999 132 47.8999 132Z" fill="#FF0000"/>
<path d="M130.7 184.9C130.7 184.9 127 191 121.9 198.2C118.5 203 115.8 208.2 115.6 212.7C115.3 217.8 118 223 123 223.2C127.9 223.4 129.9 219.2 130.7 215.8C131.5 219.3 133.5 223.5 138.4 223.2C143.3 223 146 217.8 145.8 212.7C145.5 208.2 142.9 203 139.5 198.2C134.4 191 130.7 184.9 130.7 184.9Z" fill="#FF0000"/>
<path d="M47.8999 184.9C47.8999 184.9 44.1999 191 39.0999 198.2C35.6999 203 32.9999 208.2 32.7999 212.7C32.4999 217.8 35.1999 223 40.1999 223.2C45.0999 223.4 47.0999 219.2 47.8999 215.8C48.6999 219.3 50.6999 223.5 55.5999 223.2C60.4999 223 63.1999 217.8 62.9999 212.7C62.6999 208.2 60.0999 203 56.6999 198.2C51.5999 191 47.8999 184.9 47.8999 184.9Z" fill="#FF0000"/>
<path d="M6.70019 32.4L9.10019 31.6C10.0002 34 11.9002 34.8 13.8002 34.6C17.3002 34.3 18.5002 30.4 18.7002 27C17.3002 28.4 15.3002 29.2 13.5002 29.1C7.90019 28.8 6.50019 24.3 6.40019 19.7C6.20019 15.8 7.90019 12.9 10.7002 11.6C12.2002 10.9 15.6002 10.9 17.1002 11.7C20.5002 13.5 21.8002 16.6 21.6002 24C21.6002 30.1 20.3002 37.2 13.7002 37.4C10.0002 37.9 7.10019 35 6.70019 32.4ZM16.2002 25.7C17.3002 25 18.0002 24.3 18.5002 23.3C18.9002 22.5 19.1002 22 18.9002 20.3C18.6002 15.9 16.3002 13.4 12.9002 13.9C11.0002 14.2 10.0002 15.2 9.40018 17.2C8.30018 20.8 9.70019 25 12.3002 26C13.5002 26.4 15.3002 26.3 16.2002 25.7Z" fill="#FF0000"/>
<path d="M172.2 217.1L169.8 217.9C168.9 215.5 167 214.7 165.1 214.9C161.6 215.2 160.4 219.1 160.2 222.5C161.6 221.1 163.6 220.3 165.4 220.4C171 220.7 172.4 225.2 172.5 229.8C172.7 233.7 171 236.6 168.2 237.9C166.7 238.6 163.3 238.6 161.8 237.8C158.4 236 157.1 232.9 157.3 225.5C157.3 219.4 158.6 212.3 165.2 212.1C168.9 211.5 171.8 214.5 172.2 217.1ZM162.7 223.8C161.6 224.5 160.9 225.2 160.4 226.2C160 227 159.8 227.5 160 229.2C160.3 233.6 162.6 236.1 166 235.6C167.9 235.3 168.9 234.3 169.5 232.3C170.6 228.7 169.2 224.5 166.6 223.5C165.4 223.1 163.6 223.2 162.7 223.8Z" fill="#FF0000"/>
</g>
<defs>
<clipPath id="clip0">
<rect width="178.6" height="249.4" fill="white"/>
</clipPath>
</defs>
</svg>
