<svg width="179" height="250" viewBox="0 0 179 250" fill="none" xmlns="http://www.w3.org/2000/svg">
<g clip-path="url(#clip0)">
<path d="M8.53822 -0.03125H170.032C174.725 -0.03125 178.565 3.80875 178.565 8.50208V240.929C178.565 245.622 174.725 249.462 170.032 249.462H8.53822C3.84488 249.462 0.00488281 245.622 0.00488281 240.929V8.50208C0.00488281 3.80875 3.84488 -0.03125 8.53822 -0.03125Z" fill="white"/>
<path d="M47.8982 26.1021C40.5382 36.662 32.6448 42.6353 32.5381 50.8487C32.5381 53.5153 33.9248 57.9953 38.4048 58.8487C41.2848 59.382 45.3382 57.0354 45.4449 52.2354C45.4449 51.2754 46.4048 51.2754 46.4048 52.6621C46.2981 56.5021 45.0182 60.8754 43.0982 64.502C46.2982 64.502 49.4981 64.502 52.8048 64.502C50.7781 60.8754 49.6049 56.5021 49.4982 52.6621C49.4982 51.3821 50.5648 51.2754 50.4581 52.2354C50.5648 57.0354 54.5116 59.382 57.4982 58.8487C61.9782 57.9953 63.4716 53.5153 63.3649 50.8487C63.1516 42.742 55.2582 36.662 47.8982 26.1021Z" fill="black"/>
<path d="M13.765 39.9688C10.3517 44.3421 6.61816 46.902 6.61816 50.3154C6.61816 51.382 7.25827 53.302 9.3916 53.622C10.7783 53.8353 12.5917 52.8754 12.6984 50.8487C12.6984 50.422 13.1249 50.422 13.1249 50.9553C13.0183 52.5553 12.4849 54.3688 11.5249 55.8621C13.0183 55.8621 14.5116 55.8621 16.0049 55.8621C15.0449 54.3688 14.5116 52.5553 14.4049 50.9553C14.4049 50.422 14.8317 50.422 14.8317 50.8487C14.8317 52.8754 16.7516 53.8353 18.1382 53.622C20.2716 53.302 20.9117 51.382 20.9117 50.3154C20.9117 46.902 17.1784 44.3421 13.765 39.9688Z" fill="black"/>
<path d="M47.8982 170.422C40.5382 159.862 32.6448 153.889 32.5381 145.675C32.5381 143.009 33.9248 138.529 38.4048 137.675C41.2848 137.142 45.3382 139.489 45.4449 144.289C45.4449 145.249 46.4048 145.249 46.4048 143.862C46.2981 140.022 45.0182 135.649 43.0982 132.022C46.2982 132.022 49.4981 132.022 52.8048 132.022C50.7781 135.649 49.6049 140.022 49.4982 143.862C49.4982 145.142 50.5648 145.249 50.4581 144.289C50.5648 139.489 54.5116 137.142 57.4982 137.675C61.9782 138.529 63.4716 143.009 63.3649 145.675C63.1516 153.782 55.2582 159.862 47.8982 170.422Z" fill="black"/>
<path d="M164.805 209.462C161.391 205.089 157.658 202.529 157.658 199.115C157.658 198.049 158.298 196.129 160.432 195.809C161.818 195.595 163.631 196.555 163.738 198.582C163.738 199.009 164.165 199.009 164.165 198.475C164.058 196.875 163.525 195.062 162.565 193.569C164.058 193.569 165.552 193.569 167.045 193.569C166.085 195.062 165.552 196.875 165.445 198.475C165.445 199.009 165.871 199.009 165.871 198.582C165.871 196.555 167.792 195.595 169.178 195.809C171.312 196.129 171.951 198.049 171.951 199.115C171.951 202.529 168.218 205.089 164.805 209.462Z" fill="black"/>
<path d="M130.671 26.1021C123.311 36.662 115.418 42.6353 115.312 50.8487C115.312 53.5153 116.698 57.9953 121.178 58.8487C124.058 59.382 128.111 57.0354 128.218 52.2354C128.218 51.2754 129.178 51.2754 129.178 52.6621C129.072 56.5021 127.791 60.8754 125.871 64.502C129.071 64.502 132.272 64.502 135.578 64.502C133.552 60.8754 132.378 56.5021 132.271 52.6621C132.271 51.3821 133.338 51.2754 133.232 52.2354C133.338 57.0354 137.285 59.382 140.271 58.8487C144.751 57.9953 146.245 53.5153 146.138 50.8487C146.031 42.742 138.138 36.662 130.671 26.1021Z" fill="black"/>
<path d="M47.8982 79.1152C40.5382 89.6752 32.6448 95.6486 32.5381 103.862C32.5381 106.529 33.9248 111.009 38.4048 111.862C41.2848 112.395 45.3382 110.049 45.4449 105.249C45.4449 104.289 46.4048 104.289 46.4048 105.675C46.2981 109.515 45.0182 113.889 43.0982 117.515C46.2982 117.515 49.4981 117.515 52.8048 117.515C50.7781 113.889 49.6049 109.515 49.4982 105.675C49.4982 104.395 50.5648 104.289 50.4581 105.249C50.5648 110.049 54.5116 112.395 57.4982 111.862C61.9782 111.009 63.4716 106.529 63.3649 103.862C63.1516 95.6486 55.2582 89.5686 47.8982 79.1152Z" fill="black"/>
<path d="M130.671 79.1152C123.311 89.6752 115.418 95.6486 115.312 103.862C115.312 106.529 116.698 111.009 121.178 111.862C124.058 112.395 128.111 110.049 128.218 105.249C128.218 104.289 129.178 104.289 129.178 105.675C129.072 109.515 127.791 113.889 125.871 117.515C129.071 117.515 132.272 117.515 135.578 117.515C133.552 113.889 132.378 109.515 132.271 105.675C132.271 104.395 133.338 104.289 133.232 105.249C133.338 110.049 137.285 112.395 140.271 111.862C144.751 111.009 146.245 106.529 146.138 103.862C146.031 95.6486 138.138 89.5686 130.671 79.1152Z" fill="black"/>
<path d="M47.8982 223.329C40.5382 212.769 32.6448 206.795 32.5381 198.582C32.5381 195.915 33.9248 191.435 38.4048 190.582C41.2848 190.049 45.3382 192.395 45.4449 197.195C45.4449 198.155 46.4048 198.155 46.4048 196.769C46.2981 192.929 45.0182 188.555 43.0982 184.929C46.2982 184.929 49.4981 184.929 52.8048 184.929C50.7781 188.555 49.6049 192.929 49.4982 196.769C49.4982 198.049 50.5648 198.155 50.4581 197.195C50.5648 192.395 54.5116 190.049 57.4982 190.582C61.9782 191.435 63.4716 195.915 63.3649 198.582C63.1516 206.689 55.2582 212.769 47.8982 223.329Z" fill="black"/>
<path d="M130.671 223.329C123.311 212.769 115.418 206.795 115.312 198.582C115.312 195.915 116.698 191.435 121.178 190.582C124.058 190.049 128.111 192.395 128.218 197.195C128.218 198.155 129.178 198.155 129.178 196.769C129.072 192.929 127.791 188.555 125.871 184.929C129.071 184.929 132.272 184.929 135.578 184.929C133.552 188.555 132.378 192.929 132.271 196.769C132.271 198.049 133.338 198.155 133.232 197.195C133.338 192.395 137.285 190.049 140.271 190.582C144.751 191.435 146.245 195.915 146.138 198.582C146.031 206.689 138.138 212.769 130.671 223.329Z" fill="black"/>
<path d="M130.671 170.422C123.311 159.862 115.418 153.889 115.312 145.675C115.312 143.009 116.698 138.529 121.178 137.675C124.058 137.142 128.111 139.489 128.218 144.289C128.218 145.249 129.178 145.249 129.178 143.862C129.072 140.022 127.791 135.649 125.871 132.022C129.071 132.022 132.272 132.022 135.578 132.022C133.552 135.649 132.378 140.022 132.271 143.862C132.271 145.142 133.338 145.249 133.232 144.289C133.338 139.489 137.285 137.142 140.271 137.675C144.751 138.529 146.245 143.009 146.138 145.675C146.031 153.782 138.138 159.862 130.671 170.422Z" fill="black"/>
<path d="M89.2847 105.569C81.9247 116.129 74.0315 122.102 73.9248 130.315C73.9248 132.982 75.3115 137.462 79.7915 138.315C82.6715 138.849 86.7249 136.502 86.8316 131.702C86.8316 130.742 87.7915 130.742 87.7915 132.129C87.6848 135.969 86.4047 140.342 84.4847 143.969C87.6847 143.969 90.8848 143.969 94.1915 143.969C92.1648 140.342 90.9914 135.969 90.8847 132.129C90.8847 130.849 91.9515 130.742 91.8449 131.702C91.9515 136.502 95.898 138.849 98.8847 138.315C103.365 137.462 104.858 132.982 104.751 130.315C104.538 122.102 96.6447 116.022 89.2847 105.569Z" fill="black"/>
<path d="M6.40498 32.3954L8.85837 31.6486C9.81837 34.102 11.6316 34.8487 13.5516 34.6353C17.0716 34.3153 18.245 30.4753 18.4584 26.9553C17.0717 28.4486 15.045 29.0886 13.3383 29.0886C7.79165 28.7686 6.29847 24.2887 6.29847 19.702C6.19181 15.7554 7.79181 12.8754 10.5651 11.5954C12.0585 10.9554 15.4718 10.9554 16.9651 11.702C20.3785 13.5154 21.6584 16.6087 21.4451 24.0753C21.4451 30.1553 20.1649 37.302 13.5516 37.5153C9.7116 37.942 6.83165 34.9554 6.40498 32.3954ZM15.8985 25.6753C17.0718 24.9287 17.7117 24.2886 18.1383 23.2219C18.565 22.3686 18.6718 21.942 18.5651 20.2354C18.2451 15.7554 15.8984 13.302 12.5917 13.8354C10.6717 14.1554 9.71165 15.222 9.07165 17.142C8.00498 20.7687 9.3916 25.0354 11.9516 25.9954C13.1249 26.422 14.9385 26.3153 15.8985 25.6753Z" fill="black"/>
<path d="M172.165 217.035L169.712 217.782C168.752 215.329 166.938 214.582 165.018 214.795C161.498 215.115 160.325 218.955 160.112 222.475C161.499 220.982 163.525 220.342 165.232 220.342C170.779 220.662 172.272 225.142 172.272 229.729C172.378 233.675 170.778 236.555 168.005 237.835C166.512 238.475 163.098 238.475 161.605 237.729C158.192 235.915 156.912 232.822 157.125 225.355C157.125 219.275 158.405 212.129 165.018 211.915C168.965 211.489 171.845 214.475 172.165 217.035ZM162.672 223.755C161.498 224.502 160.859 225.142 160.432 226.209C160.005 227.062 159.898 227.489 160.005 229.195C160.325 233.675 162.672 236.129 165.979 235.595C167.899 235.275 168.859 234.209 169.499 232.289C170.565 228.662 169.178 224.395 166.618 223.435C165.445 223.009 163.632 223.222 162.672 223.755Z" fill="black"/>
</g>
<defs>
<clipPath id="clip0">
<rect width="178.6" height="249.4" fill="white"/>
</clipPath>
</defs>
</svg>
