<svg width="179" height="250" viewBox="0 0 179 250" fill="none" xmlns="http://www.w3.org/2000/svg">
<g clip-path="url(#clip0)">
<path d="M8.5 0H170C174.7 0 178.5 3.8 178.5 8.5V240.9C178.5 245.6 174.7 249.4 170 249.4H8.5C3.8 249.4 0 245.6 0 240.9V8.5C0 3.8 3.8 0 8.5 0Z" fill="white"/>
<path d="M89.2999 105.9C81.3999 106.1 77.8999 114.9 83.6999 121.8C84.4999 122.8 84.5999 123.4 83.0999 122.4C79.1999 119.8 71.6999 121.5 71.2999 129.5C70.7999 139.4 84.5999 142.2 87.1999 131.7C87.2999 130.6 88.1999 130.6 87.9999 132.2C87.7999 136.5 86.3999 140.4 84.5999 144.3C87.6999 144.3 91.0999 144.3 93.8999 144.3C92.0999 140.4 90.6999 136.4 90.4999 132.2C90.2999 130.6 91.1999 130.6 91.2999 131.7C93.8999 142.2 107.7 139.3 107.2 129.5C106.8 121.5 99.2999 119.8 95.3999 122.4C93.8999 123.4 93.8999 122.8 94.7999 121.8C100.7 114.9 97.0999 106 89.2999 105.9Z" fill="#035E0B"/>
<path d="M164.8 209.5C167.9 209.4 169.4 205.7 167 202.9C166.7 202.5 166.6 202.2 167.2 202.6C168.8 203.7 171.8 203 171.9 199.6C172.1 195.5 166.6 194.3 165.5 198.7C165.4 199.2 165.1 199.2 165.2 198.5C165.3 196.7 165.8 195.1 166.6 193.4C165.4 193.4 164.1 193.4 162.9 193.4C163.6 195 164.2 196.7 164.3 198.5C164.4 199.2 164 199.2 164 198.7C163 194.3 157.5 195.5 157.6 199.6C157.8 202.9 160.8 203.6 162.3 202.6C162.9 202.2 162.9 202.4 162.5 202.9C160.3 205.7 161.7 209.4 164.8 209.5Z" fill="#035E0B"/>
<path d="M5.7002 37.5V35.2H7.9002L12.5002 11.1H15.1002L20.2002 35.2H21.9002V37.5H16.0002V35.2H17.6002L17.0002 31.5H11.0002L10.5002 35.2H12.0002V37.5H5.7002ZM16.4002 28.9L13.8002 16L11.4002 28.9H16.4002Z" fill="#035E0B"/>
<path d="M156.7 212V214.3H158.9L163.5 238.4H166.1L171.2 214.3H172.9V212H167V214.3H168.6L168 218H162L161.5 214.3H163.1V212H156.7ZM167.4 220.6L164.8 233.5L162.4 220.6H167.4Z" fill="#035E0B"/>
<path d="M13.8001 40C10.7001 40.1 9.20014 43.8 11.6001 46.6C11.9001 47 12.0001 47.3 11.4001 46.9C9.80014 45.8 6.80014 46.5 6.70014 49.9C6.50014 54 12.0001 55.2 13.1001 50.8C13.2001 50.3 13.5001 50.3 13.4001 51C13.3001 52.8 12.8001 54.4 12.0001 56.1C13.2001 56.1 14.5001 56.1 15.7001 56.1C15.0001 54.5 14.4001 52.8 14.3001 51C14.2001 50.3 14.6001 50.3 14.6001 50.8C15.6001 55.2 21.1001 54 21.0001 49.9C20.8001 46.6 17.8001 45.9 16.3001 46.9C15.7001 47.3 15.7001 47.1 16.1001 46.6C18.3001 43.7 16.9001 40 13.8001 40Z" fill="#035E0B"/>
</g>
<defs>
<clipPath id="clip0">
<rect width="178.6" height="249.4" fill="white"/>
</clipPath>
</defs>
</svg>
