<svg width="179" height="250" viewBox="0 0 179 250" fill="none" xmlns="http://www.w3.org/2000/svg">
<g clip-path="url(#clip0)">
<path d="M8.5 0H170C174.7 0 178.5 3.8 178.5 8.5V240.9C178.5 245.6 174.7 249.4 170 249.4H8.5C3.8 249.4 0 245.6 0 240.9V8.5C0 3.8 3.8 0 8.5 0Z" fill="white"/>
<path d="M13.8 56C12.1 53.1 10.3 50.4 8 48C10.3 45.6 12.1 42.9 13.8 40C15.5 42.9 17.3 45.6 19.6 48C17.3 50.3 15.5 53.1 13.8 56Z" fill="#030D6D"/>
<path d="M164.8 209.5C163.1 206.6 161.3 203.9 159 201.5C161.3 199.1 163.1 196.4 164.8 193.5C166.5 196.4 168.3 199.1 170.6 201.5C168.4 203.8 166.5 206.6 164.8 209.5Z" fill="#030D6D"/>
<path d="M89.2998 143.9C85.1998 137 80.7998 130.4 75.2998 124.7C80.7998 119 85.0998 112.4 89.2998 105.5C93.3998 112.4 97.7998 119 103.3 124.7C97.7998 130.4 93.3998 137.1 89.2998 143.9Z" fill="#030D6D"/>
<path d="M5.7002 37.5V35.2H7.9002L12.5002 11.1H15.1002L20.2002 35.2H21.9002V37.5H16.0002V35.2H17.6002L17.0002 31.5H11.0002L10.5002 35.2H12.0002V37.5H5.7002ZM16.4002 28.9L13.8002 16L11.4002 28.9H16.4002Z" fill="#030D6D"/>
<path d="M156.7 212V214.3H158.9L163.5 238.4H166.1L171.2 214.3H172.9V212H167V214.3H168.6L168 218H162L161.5 214.3H163.1V212H156.7ZM167.4 220.6L164.8 233.5L162.4 220.6H167.4Z" fill="#030D6D"/>
</g>
<defs>
<clipPath id="clip0">
<rect width="178.6" height="249.4" fill="white"/>
</clipPath>
</defs>
</svg>
