<svg width="179" height="250" viewBox="0 0 179 250" fill="none" xmlns="http://www.w3.org/2000/svg">
<g clip-path="url(#clip0)">
<path d="M8.55266 0.0244141H170.053C174.753 0.0244141 178.553 3.82441 178.553 8.52441V240.924C178.553 245.624 174.753 249.424 170.053 249.424H8.55266C3.85266 249.424 0.0526625 245.624 0.0526625 240.924V8.52441C-0.0473375 3.82441 3.85266 0.0244141 8.55266 0.0244141Z" fill="white"/>
<path d="M13.8001 56C13.8001 56 12.0001 53.4 9.6001 50.4C8.0001 48.4 6.7001 46.2 6.6001 44.3C6.5001 42.2 7.8001 40 10.1001 39.9C12.4001 39.8 13.4001 41.5 13.8001 43C14.2001 41.6 15.1001 39.8 17.5001 39.9C19.8001 40 21.1001 42.2 21.0001 44.3C20.9001 46.2 19.6001 48.3 18.0001 50.4C15.6001 53.4 13.8001 56 13.8001 56Z" fill="#FF0000"/>
<path d="M164.8 193.5C164.8 193.5 163 196.1 160.6 199.1C159 201.1 157.7 203.3 157.6 205.2C157.5 207.3 158.8 209.5 161.1 209.6C163.4 209.7 164.4 208 164.8 206.5C165.2 207.9 166.1 209.7 168.5 209.6C170.8 209.5 172.1 207.3 172 205.2C171.9 203.3 170.6 201.2 169 199.1C166.6 196 164.8 193.5 164.8 193.5Z" fill="#FF0000"/>
<path d="M89.3003 143.9C89.3003 143.9 85.6003 137.8 80.5003 130.6C77.1003 125.8 74.4003 120.6 74.2003 116.1C73.9003 111 76.6003 105.8 81.6003 105.6C86.5003 105.4 88.5003 109.6 89.3003 113C90.1003 109.5 92.1003 105.3 97.0003 105.6C101.9 105.8 104.6 111 104.4 116.1C104.1 120.6 101.5 125.8 98.1003 130.6C93.0003 137.8 89.3003 143.9 89.3003 143.9Z" fill="#FF0000"/>
<path d="M5.7002 37.5001V35.2001H7.9002L12.5002 11.1001H15.1002L20.2002 35.2001H21.9002V37.5001H16.0002V35.2001H17.6002L17.0002 31.5001H11.0002L10.5002 35.2001H12.0002V37.5001H5.7002ZM16.4002 28.9001L13.8002 16.0001L11.4002 28.9001H16.4002Z" fill="#FF0000"/>
<path d="M156.7 212V214.3H158.9L163.5 238.4H166.1L171.2 214.3H172.9V212H167V214.3H168.6L168 218H162L161.5 214.3H163.1V212H156.7ZM167.4 220.6L164.8 233.5L162.4 220.6H167.4Z" fill="#FF0000"/>
</g>
<defs>
<clipPath id="clip0">
<rect width="178.6" height="249.4" fill="white"/>
</clipPath>
</defs>
</svg>
