<svg width="179" height="250" viewBox="0 0 179 250" fill="none" xmlns="http://www.w3.org/2000/svg">
<g clip-path="url(#clip0)">
<path d="M8.55775 -0.03125H170.051C174.744 -0.03125 178.584 3.80875 178.584 8.50208V240.929C178.584 245.622 174.744 249.462 170.051 249.462H8.55775C3.86441 249.462 0.0244141 245.622 0.0244141 240.929V8.50208C0.0244141 3.80875 3.86441 -0.03125 8.55775 -0.03125Z" fill="white"/>
<path d="M13.7843 39.9688C10.371 44.3421 6.6377 46.902 6.6377 50.3154C6.6377 51.382 7.27767 53.302 9.411 53.622C10.7977 53.8353 12.611 52.8754 12.7176 50.8487C12.7176 50.422 13.1443 50.422 13.1443 50.9553C13.0377 52.5553 12.5043 54.3688 11.5443 55.8621C13.0377 55.8621 14.531 55.8621 16.0243 55.8621C15.0643 54.3688 14.531 52.5553 14.4243 50.9553C14.4243 50.422 14.851 50.422 14.851 50.8487C14.851 52.8754 16.771 53.8353 18.1576 53.622C20.291 53.302 20.9311 51.382 20.9311 50.3154C20.9311 46.902 17.1976 44.3421 13.7843 39.9688Z" fill="black"/>
<path d="M164.824 209.462C161.411 205.089 157.678 202.529 157.678 199.115C157.678 198.049 158.318 196.129 160.451 195.809C161.838 195.595 163.651 196.555 163.758 198.582C163.758 199.009 164.184 199.009 164.184 198.475C164.078 196.875 163.544 195.062 162.584 193.569C164.078 193.569 165.571 193.569 167.064 193.569C166.104 195.062 165.571 196.875 165.464 198.475C165.464 199.009 165.891 199.009 165.891 198.582C165.891 196.555 167.811 195.595 169.198 195.809C171.331 196.129 171.971 198.049 171.971 199.115C171.971 202.529 168.238 205.089 164.824 209.462Z" fill="black"/>
<path d="M89.3044 105.569C81.9444 116.129 74.051 122.102 73.9443 130.315C73.9443 132.982 75.331 137.462 79.811 138.315C82.691 138.849 86.7443 136.502 86.851 131.702C86.851 130.742 87.811 130.742 87.811 132.129C87.7043 135.969 86.4244 140.342 84.5044 143.969C87.7044 143.969 90.9043 143.969 94.211 143.969C92.1843 140.342 91.011 135.969 90.9044 132.129C90.9044 130.849 91.9711 130.742 91.8644 131.702C91.9711 136.502 95.9177 138.849 98.9044 138.315C103.384 137.462 104.878 132.982 104.771 130.315C104.558 122.102 96.6644 116.022 89.3044 105.569Z" fill="black"/>
<path d="M5.67773 37.5153V35.2753H7.81107L12.3978 11.1687H14.9577L19.9711 35.2753H21.6777V37.5153H15.7044V35.2753H17.3044L16.6645 31.542H10.691L10.2645 35.2753H11.8645V37.5153H5.67773ZM16.3444 28.8753L13.7844 15.9687L11.3311 28.8753H16.3444Z" fill="black"/>
<path d="M156.718 212.022V214.262H158.851L163.438 238.369H165.998L171.011 214.262H172.718V212.022H166.744V214.262H168.344L167.704 217.995H161.731L161.304 214.262H162.904V212.022H156.718ZM167.384 220.555L164.824 233.462L162.371 220.555H167.384Z" fill="black"/>
</g>
<defs>
<clipPath id="clip0">
<rect width="178.6" height="249.4" fill="white"/>
</clipPath>
</defs>
</svg>
