<svg width="179" height="250" viewBox="0 0 179 250" fill="none" xmlns="http://www.w3.org/2000/svg">
<g clip-path="url(#clip0)">
<path d="M8.60674 0.0180664H170.074C174.788 0.0180664 178.646 3.87039 178.646 8.57878V241.002C178.646 245.711 174.788 249.563 170.074 249.563H8.60674C3.89237 249.563 0.0351562 245.711 0.0351562 241.002V8.57878C0.0351562 3.87039 3.89237 0.0180664 8.60674 0.0180664Z" fill="white"/>
<path d="M164.824 209.542C167.931 209.435 169.324 205.796 167.074 202.907C166.752 202.479 166.752 202.265 167.288 202.693C168.895 203.763 171.895 203.014 172.002 199.697C172.217 195.63 166.645 194.453 165.681 198.734C165.574 199.162 165.252 199.162 165.36 198.52C165.467 196.701 166.002 195.095 166.752 193.49C165.467 193.49 164.288 193.49 163.002 193.49C163.752 195.095 164.288 196.808 164.395 198.52C164.502 199.162 164.074 199.162 164.074 198.734C163.002 194.346 157.538 195.523 157.752 199.697C157.859 203.014 160.859 203.763 162.467 202.693C163.109 202.265 163.002 202.479 162.681 202.907C160.324 205.796 161.717 209.435 164.824 209.542Z" fill="#025E0B"/>
<path d="M13.8566 40.0396C10.7494 40.1466 9.35655 43.7848 11.6066 46.6741C11.928 47.1021 11.928 47.3161 11.3923 46.888C9.78512 45.8179 6.78504 46.567 6.6779 49.8843C6.46361 53.9507 12.0352 55.1278 12.9995 50.8474C13.1066 50.4194 13.428 50.4193 13.3209 51.0614C13.2137 52.8805 12.678 54.4858 11.928 56.0909C13.2138 56.0909 14.3923 56.0909 15.6781 56.0909C14.9281 54.4858 14.3924 52.7735 14.2852 51.0614C14.1781 50.4193 14.6066 50.4194 14.6066 50.8474C15.6781 55.2348 21.1424 54.0577 20.9281 49.8843C20.821 46.567 17.821 45.8179 16.2138 46.888C15.5709 47.3161 15.6781 47.1021 15.9995 46.6741C18.3567 43.7848 16.9638 40.1466 13.8566 40.0396Z" fill="#025E0B"/>
<path d="M14.4995 34.582H17.1782L13.321 24.8442L10.3209 28.9106V34.582H12.4638V37.4713H5.0708V34.582H7.53512V13.6083H5.0708V11.04H12.5709V13.7153H10.5352V23.8811L17.071 13.6083H14.7138V11.04H22.6426V13.6083H20.4997L15.1424 22.062L20.3925 34.582H22.7497V37.4713H14.6067L14.4995 34.582Z" fill="#025E0B"/>
<path d="M164.181 214.999H161.502L165.359 224.737L168.36 220.671V214.999H166.217V212.11H173.61V214.999H171.145V235.973H173.61V238.541H166.109V235.866H168.145V225.7L161.609 235.973H163.967V238.541H156.038V235.973H158.181L163.538 227.519L158.288 214.999H155.931V212.11H164.074L164.181 214.999Z" fill="#025E0B"/>
<path d="M128.814 20.822L63.1643 21.1423L71.4985 37.0696C88.5598 35.5228 103.514 36.8938 119.098 37.4121L128.814 20.822ZM83.98 76.8097C83.9173 76.9079 81.2471 77.5927 81.5184 78.2007C88.4751 93.2036 91.5738 105.412 94.4802 120.837C95.9433 119.645 98.3215 119.693 98.3215 119.693C97.152 113.968 104.317 113.255 104.36 119.245C105.742 119.572 107.149 119.575 108.39 120.97C108.948 104.117 115.305 86.2398 123.044 74.1472C114.206 77.672 100.91 86.8918 100.91 86.8918C100.91 86.8918 90.1279 82.4153 83.98 76.8097ZM137.642 78.6097C125.891 89.8485 121.632 120.051 122.131 121.494C106.984 120.983 102.399 137.807 115.524 146.886C115.011 148.64 113.731 150.071 112.728 151.626C114.086 152.405 115.561 152.569 117.036 152.732C118.163 154.065 119.263 155.609 120.478 155.745C121.803 154.911 122.732 153.68 123.842 152.624C125.209 152.273 126.576 151.889 127.873 151.281C126.724 149.658 125.348 148.023 125.316 146.506C136.727 138.391 135.173 127.362 124.868 121.713C126.392 102.336 132.078 91.0935 137.6 82.8412L137.642 78.6097ZM56.7091 92.9545C55.2205 93.6956 54.3952 95.2306 53.3207 96.4476C51.8342 96.5106 50.4055 97.0245 48.9796 97.6675C48.9796 97.6675 52.3928 102.409 52.1715 102.656C41.1314 109.94 41.2224 120.595 51.8143 127.611C53.6155 142.769 40.8351 166.769 40.19 166.072L40.1631 171.03C49.2545 161.009 54.4594 142.913 54.9821 128.305C73.1499 127.09 73.7867 109.396 61.294 102.742C60.3378 101.858 64.4409 97.7361 64.4409 97.7361C63.4009 96.708 61.6518 96.5826 60.1289 96.4525C59.1512 95.31 58.3186 94.1485 56.7091 92.9545ZM146.523 106.136C147.682 108.195 150.853 109.857 151.178 105.991C150.633 103.096 148.744 102.457 141.234 103.71C136.811 105.69 137.318 100.48 135.145 102.527C128.069 109.148 146.377 108.432 146.523 106.136ZM142.263 113.603C140.161 113.598 139.799 121.905 139.834 124.391C133.728 134.093 152.351 132.998 144.305 122.426C144.655 121.337 143.399 119.28 143.32 117.796C142.655 117.713 142.351 113.956 142.263 113.603ZM33.3317 126.119C33.141 128.626 34.9642 136.242 35.6381 135.986C38.016 132.11 37.7375 128.806 37.4977 125.032C43.1725 114.016 23.7792 118.533 33.3317 126.119ZM68.7517 127.892C67.9065 144.105 63.9661 160.011 55.0337 173.808C62.7212 170.193 70.177 165.535 77.404 161.542L94.2782 172.062C95.2559 171.638 95.9308 171.43 96.5802 170.771C88.8071 159.305 86.3962 142.82 83.0149 127.888C81.7239 128.803 79.3079 129.273 79.3079 129.273C79.1399 134.443 73.741 136.121 72.6474 129.378L68.7517 127.892ZM28.0184 140.535C26.2258 140.653 24.8631 145.138 29.9709 145.808C33.5715 146.315 38.176 144.541 40.4571 145.365C43.1167 149.638 45.4934 143.356 41.9468 142.331C38.1399 141.231 30.3562 144.104 29.4972 141.668C29.0592 140.821 28.5191 140.509 28.0184 140.535ZM58.6279 210.76L48.4425 228.877L113.525 228.488L105.017 211.208C105.159 211.011 76.5937 214.636 58.6279 210.76Z" fill="white"/>
<path d="M23.7302 19.1942L23.7314 230.388L154.931 230.395L154.93 19.2014L23.7302 19.1942ZM128.954 20.5768L116.775 41.5936C116.898 40.4931 93.1042 37.0923 73.6709 41.2393L63.0933 20.8369L128.954 20.5768ZM152.41 20.9166L152.793 106.685L153.593 151.639L142.22 159.996L142.061 131.192C142.061 131.192 140.427 130.402 140.006 130.346C139.844 130.333 139.641 130.693 139.92 130.881C140.346 131.146 141.372 131.529 141.372 131.529L141.607 160.073C132.35 166.771 120.787 171.434 111.985 175.12C111.272 172.729 104.154 167.127 96.1501 171.086C95.4118 171.36 94.5113 171.605 93.9054 172.021C90.8606 172.584 89.845 175.867 89.3935 179.057C89.38 179.187 89.638 179.149 89.6383 179.165C89.6717 179.213 90.3673 176.098 90.6463 175.511C91.2348 174.256 91.9792 173.498 92.3648 173.377C92.5419 173.341 92.6934 173.628 92.46 174.069C91.9769 174.951 91.5789 176.816 91.4669 177.658C91.3698 178.435 91.3343 179.066 91.4804 179.095C91.5134 179.127 92.1917 176.739 92.4977 175.893C93.2932 173.697 93.8083 172.798 94.5748 172.33C95.3734 171.845 95.5529 171.922 95.4016 172.426C94.2205 174.743 93.7392 176.497 93.5152 178.956C93.4767 179.441 93.7198 179.469 93.9291 178.641C94.5711 176.06 95.4527 172.554 97.5496 171.51C98.4468 171.104 98.8354 171.128 98.7444 171.42C96.2548 174.588 95.6322 178.105 95.6559 179.251C95.6636 179.622 95.8239 179.554 96.1305 178.741C96.9716 175.623 98.2266 172.965 99.7035 171.659C100.275 171.147 100.968 171.019 101.548 170.943C103.307 170.729 103.369 171.374 101.835 172.277C100.093 173.298 98.0679 177.022 97.8508 179.82C97.7739 180.79 98.1156 180.896 98.3476 179.599C99.3808 174.039 104.108 170.373 107.895 172.071C109.593 172.844 109.906 173.903 108.424 173.433C105.413 172.478 102.093 174.613 100.716 177.613C99.4783 180.319 99.4915 181.74 100.375 185.371C100.978 188.717 102.134 192.988 101.749 196.274C101.342 196.912 100.029 196.019 98.489 195.825C97.5637 195.65 96.4308 195.609 95.4521 195.984C94.6017 196.309 94.1346 196.399 93.9633 195.934C93.9118 195.79 94.6084 195.065 94.9236 194.671C95.1443 194.392 95.2507 194.067 95.2507 194.067C95.2507 194.067 94.8335 194.221 94.4374 194.617C94.0888 194.963 93.345 195.753 93.1517 195.789C92.7008 195.879 92.6904 195.379 93.0517 194.08C94.3067 189.081 93.9814 188.99 91.8098 187.986C89.6742 187.158 90.3448 186.74 89.3902 185.936C88.722 186.467 90.2595 188.873 92.017 189.402C93.4492 189.841 93.2702 190.571 92.6482 192.554C92.0102 195.329 90.938 199 91.5548 201.458C92.8746 206.63 98.0796 206.523 102.063 204.438L102.543 205.753C99.1757 207.13 81.3951 208.304 75.4133 207.604C74.9428 205.967 74.9018 205.548 74.7166 203.63C74.7166 203.63 78.4224 205.313 80.2556 205.599C82.5597 205.971 86.1176 205.978 87.0276 203.844C87.3059 203.225 87.0197 202.682 86.2188 203.053C84.7612 203.729 82.2485 204.217 80.2408 204.097C78.5405 203.987 76.1331 203.31 75.0849 202.669C74.5936 202.373 74.1771 201.784 74.5659 201.033C74.904 200.961 75.3647 201.34 75.6263 201.48C78.6825 203.031 80.4056 203.464 82.3636 202.745C83.6636 202.267 85.1219 201.623 85.4155 200.18C84.2792 200.752 83.233 201.775 82.0431 202.106C79.6473 202.769 77.0713 201.757 74.5634 200.129C73.7893 199.451 74.151 198.959 75.0841 199.505C78.8265 201.397 80.3892 202.673 83.9725 200C84.7687 199.402 85.223 199.473 85.6833 199.835C87.5453 201.508 87.5421 200.572 86.1799 198.824C85.8644 198.426 85.5941 197.867 85.4043 197.289C85.2659 196.856 85.2407 196.421 84.9919 196.119C84.5613 195.627 83.8124 195.385 82.9312 194.999C82.1314 194.644 81.5515 194.753 81.5515 194.753C81.5515 194.753 81.8478 195.005 82.1909 195.176C83.8082 195.966 84.6022 196.822 82.5874 196.363C80.7593 195.544 77.696 195.995 75.9746 197.209C74.614 197.883 74.014 198.59 73.6917 197.079C73.0282 193.928 73.6675 189.652 72.7778 184.164C72.6106 183.117 72.4026 182.444 72.61 182.31C72.8973 182.127 73.5906 182.806 74.4569 184.032C74.8565 184.589 75.6386 185.655 75.6343 185.445C75.6587 184.282 73.8669 182.09 72.3776 181.233C71.5593 180.765 71.0128 178.581 71.9445 179.062C72.6635 179.419 76.4029 182.732 77.1227 183.912C77.4574 184.455 77.7413 184.11 77.3885 183.471C77.1865 183.088 76.3058 181.943 75.4475 181.105C73.929 179.618 73.7525 179.687 74.0533 179.374C74.6229 178.765 75.8681 179.546 78.0603 181.552C78.625 182.267 79.3661 182.913 79.2779 182.56C79.509 182.006 77.3087 179.613 76.0019 178.978C75.7561 178.822 75.7204 178.661 75.7467 178.37C75.8688 177.237 78.3936 178.897 80.4872 180.823C81.2785 181.55 80.6196 180.191 79.7109 179.257C79.0005 178.529 77.8499 177.632 77.067 177.309C76.2841 176.986 76.2377 176.309 76.8463 176.022C78.9467 175.93 81.11 178.098 82.4066 179.799C82.7557 180.26 83.0867 180.624 82.7127 179.744C81.5096 177.088 79.0202 175.574 77.2998 175.27C75.9039 175.024 75.926 173.748 77.2552 173.898C78.6979 174.062 81.0698 175.37 83.0849 177.411C83.6634 178.013 84.6613 179.349 84.451 178.562C84.4466 178.352 83.8308 177.509 83.1184 176.684C81.4672 175.039 79.5611 173.576 77.5308 173.15C76.5873 172.879 73.7685 173.421 73.7585 172.937C73.7511 172.582 74.0536 172.35 74.9531 172.056C78.4381 170.887 83.5136 173.898 86.3102 178.54C86.5112 178.875 86.886 179.012 86.9167 178.931C85.577 175.148 81.3985 171.714 78.071 171.12C75.8155 170.747 73.5315 171.343 72.4471 172.867C71.2213 174.588 71.7058 176.903 73.5294 176.72C74.498 176.636 74.422 176.088 74.3893 176.073C74.3233 176.009 73.7629 176.279 73.4218 176.206C72.1714 175.957 72.3021 173.677 74.1341 173.898C76.2418 174.161 76.5372 177.498 74.1909 178.208C72.021 178.85 71.2244 177.866 70.6336 176.667C69.7567 174.925 70.7015 172.128 72.2316 171.047C76.5356 168.035 81.9567 170.556 85.0264 173.544C86.5446 175.015 87.6482 176.768 88.3503 178.659C88.5371 179.091 88.9083 179.051 88.7373 178.603C84.4156 167.469 71.5004 166.185 69.625 174.814C66.4988 169.873 63.7586 169.526 59.5827 171.695C55.318 173.479 53.2133 174.927 49.2577 176.801L40.2953 171.948C39.7702 162.98 40.0693 153.98 40.11 145.001C40.138 144.791 38.1722 145.138 34.9002 145.658C26.1875 147.403 26.9474 142.705 25.7944 142.471C25.1936 142.354 25.2313 142.611 25.067 126.063C25.016 121.253 24.9222 112.809 24.8562 107.272C24.7906 101.751 24.7601 97.1495 24.8228 97.0513C24.8693 96.9534 25.3617 96.5235 25.9194 96.1245C28.039 94.6113 29.2329 93.6986 33.8809 90.1148C34.9314 89.302 35.2036 89.1671 35.2036 89.1671C35.7328 99.1193 35.2534 109.56 35.5273 118.113L35.9155 118.121L35.7585 89.4141C34.9617 89.2045 54.0697 77.9269 64.5379 74.2716C64.7306 74.2031 65.2202 74.419 65.2202 74.419C71.228 81.8522 87.0457 79.6045 88.314 70.5518C90.9346 76.0687 102.444 86.7633 107.707 73.8658C107.707 73.8658 109.611 77.5729 111.25 77.8136C114.931 78.3029 115.339 77.7131 123.424 73.7679C114.175 87.9101 109.068 102.887 108.424 121.034C107.157 119.187 104.507 119.274 104.283 119.408C104.296 117.68 103.988 115.329 101.396 115.075C98.7717 114.871 97.4209 118.371 98.4057 119.852C96.7746 119.175 94.3516 120.872 94.3549 121.034C94.1448 121.038 92.2907 126.001 97.9237 126.257C98.4412 128.603 99.3054 129.732 101.12 130.696L101.16 149.798L101.792 150.673L101.847 130.665C104.723 130.541 105.091 127.207 104.865 126.452C106.144 126.507 107.303 126.257 108.29 125.494L108.632 128.748C108.632 128.748 109.304 127.604 109.162 126.994C107.901 108.24 114.645 87.9487 123.478 74.8001C123.951 74.2413 124.1 73.5925 124.326 73.5878C126.485 72.413 127.843 71.626 127.843 71.626C131.404 73.3449 137.732 77.4935 137.732 77.4935L137.832 104.216C137.73 103.959 149.658 102.874 149.471 103.201C149.471 103.201 148.427 102.786 148.413 102.092L148.106 39.5589L142.893 36.13C142.893 36.13 138.601 38.9476 137.408 39.9249L137.539 76.7387L128.305 71.2774C128.305 71.2774 128.456 69.9825 128.463 69.5463C128.86 65.2913 125.883 62.866 121.208 64.3349C120.581 64.5416 120.148 64.712 119.852 64.4597C117.889 58.6871 117.009 43.4943 117.009 43.4943L130.161 21.0524L152.41 20.9166ZM25.5853 21.3198L61.4053 21.3238L73.4837 43.1323C73.4837 43.1323 74.1909 44.4903 73.7677 45.9201C73.2986 47.4799 72.9085 48.166 72.4884 48.9659C72.5276 48.513 69.0092 48.0689 69.2982 51.0987C69.5026 53.1614 72.0817 54.3192 74.0052 52.7132C74.312 52.6907 74.318 52.9812 74.2475 53.4833C74.0779 54.6655 72.8292 58.4053 71.9772 58.6489C67.6336 55.0568 66.0873 61.6123 69.0088 62.9085C70.7063 63.6647 73.2971 63.0461 74.5159 60.9863C75.4537 59.4168 75.3459 59.6774 75.644 61.5767C75.7556 62.2849 75.902 63.1055 75.9905 63.4751C76.2408 64.6325 75.9865 64.8477 74.0568 65.3719C72.5008 65.9853 70.9392 66.3242 69.329 66.6642C66.4119 67.1442 64.9055 69.3714 64.8319 72.0696C64.8116 72.6513 64.8335 72.9253 64.7078 73.1055C52.3374 77.8334 39.3271 84.464 25.5561 95.7606L25.5853 21.3198ZM143.422 37.4917C143.422 37.4917 145.964 39.1832 147.178 40.0302L147.202 42.7424L143.529 40.3315L143.422 37.4917ZM142.088 37.9068C142.868 40.4097 142.865 45.7708 142.575 48.1504C142.09 49.7106 141.861 56.6265 142.419 60.1352C142.865 62.9357 142.783 67.5878 142.36 69.7926C142.2 70.6679 142.316 74.7186 142.637 78.4905C142.874 81.3599 142.799 83.9772 142.457 85.4698C142.191 86.6541 142.278 90.8668 142.586 92.4913C143.04 94.8718 143.118 102.54 142.916 102.948C142.379 103.573 138.144 103.66 138.431 103.444L138.308 40.423C138.308 40.423 140.828 38.7401 142.088 37.9068ZM96.0527 41.2621C99.61 41.2372 102.022 41.349 102.006 41.3816C102.342 42.7472 102.484 44.1329 102.609 45.5029C102.609 45.5029 99.3741 43.9064 97.6813 43.3762C95.0772 42.574 90.9716 43.4498 90.2429 44.9666C89.8238 45.8149 90.046 46.3917 91.7889 45.4354C94.6517 43.8908 100.481 45.0623 102.537 46.7154C103.014 47.0931 102.983 47.1745 102.993 47.6265C103.007 48.3044 103.04 48.336 102.108 47.8385C97.2037 45.3076 93.0053 45.604 91.57 48.9277C91.2444 48.8214 89.9624 48.6056 89.9624 48.6056L91.3306 50.6444L91.5848 52.7705C92.9415 53.4691 93.3506 53.703 95.6529 54.7697C95.6529 54.7697 94.894 54.0426 94.0734 53.462C92.9902 52.6931 93.8584 52.4491 94.576 52.7411C96.0546 53.082 98.2145 53.5219 100.72 51.9201C101.502 51.4195 103.274 51.8513 103.311 52.0766C103.311 52.0766 103.544 53.9449 103.786 57.8315C103.905 59.6699 104.116 62.0715 104.25 63.0538C104.635 66.0331 104.751 66.2084 103.185 64.7712C102.658 64.2977 101.801 63.4917 101.785 63.5405C101.594 64.4648 103.876 66.0811 104.421 66.6511C105.231 67.4903 105.89 69.6565 105.553 69.7926C105.345 69.8777 103.172 68.0172 101.455 66.3409C100.811 65.7083 99.8562 64.8721 99.8245 64.905C99.4735 65.1383 100.915 66.788 102.266 68.0035C103.848 69.4403 104.028 69.5658 103.499 69.7866C102.521 70.1781 101.638 69.6957 99.268 67.71C99.0377 67.521 98.1349 66.8775 98.0874 66.927C97.8671 67.2222 100.061 69.3084 100.55 69.4921C101.479 69.8282 101.74 70.7272 101.003 71.0814C100.523 71.3174 98.7075 70.3213 97.258 69.0433C96.9947 68.8226 96.2751 68.4338 96.2276 68.4833C95.9403 68.6668 97.5706 70.0864 99.1101 71.0235C100.633 71.9448 100.864 72.1661 100.476 72.9331C100.12 73.7155 96.7833 71.8951 95.1274 70.0239C94.7796 69.6274 94.485 69.4557 94.5685 69.5831C95.2895 71.6029 97.6805 73.0554 99.4555 73.6486C99.765 73.7552 100.236 73.8746 100.434 74.0482C100.944 74.4575 100.823 74.8797 100.278 75.117C98.3812 75.6567 95.4063 73.3445 93.27 70.918C93.0252 70.81 93.1774 71.1298 93.2282 71.2418C95.0017 74.1118 98.4265 76.2857 100.472 75.8883C101.68 75.6534 102.642 76.0211 102.65 76.4246C102.657 76.7635 101.989 77.2941 100.697 77.3853C97.7743 77.5909 93.2121 74.3747 90.5397 70.2637C90.4562 70.1363 90.3582 70.0899 90.3437 70.1709C90.2647 71.0445 91.9259 73.174 93.2125 74.3909C96.9906 78.0108 100.574 79.2449 103.362 77.2012C104.937 75.9738 106.45 73.2782 104.119 72.3897C102.88 71.9147 102.091 73.6426 103.148 73.1525C104.536 72.9785 104.858 73.7309 104.679 74.429C104.316 75.6314 103.139 75.817 102.175 75.3202C100.506 74.4019 100.862 71.2781 103.018 70.733C104.965 70.2569 106.681 71.9332 106.892 73.5113C107.234 75.9748 104.491 78.6312 102.273 79.2905C94.735 81.5451 88.8571 71.009 88.8197 70.7675C88.4487 70.0324 87.9878 69.6382 87.6984 70.5C87.3843 71.7337 85.6968 75.3694 84.7744 75.3399C85.0552 74.0585 86.2558 71.9023 85.9581 70.0192C85.4564 71.5635 84.3926 74.8634 82.3754 76.6328C81.8517 77.1119 80.3109 77.6766 81.3689 76.4437C82.6573 74.6247 84.3204 72.1521 83.981 69.8177C83.6361 70.3415 83.4533 71.6694 83.0672 72.5493C82.0939 74.7493 79.9644 77.3446 78.5661 77.7609C77.5214 78.0731 77.6272 77.7157 78.6875 76.5958C79.827 75.3935 81.8398 71.848 81.7111 70.3166C81.6486 69.6397 79.6164 76.1568 75.8046 77.947C74.7774 78.3235 74.1855 77.8513 74.1855 77.8513C75.6876 76.9806 79.8393 72.8582 79.4512 68.1672C79.4512 68.1672 79.223 68.8661 78.9049 69.9061C77.4934 74.3758 74.4816 77.3122 72.1256 77.5546C70.2376 77.755 68.9281 76.9907 69.406 76.6418C71.8482 76.656 73.8521 75.8074 75.4198 73.4176C77.0027 70.9789 77.6012 67.0749 76.6422 62.9286C75.7727 59.2003 75.5739 55.8458 75.2732 52.2511C77.9442 53.1648 80.6254 53.7878 83.2402 52.765C82.9713 53.8363 82.5372 53.9582 81.8588 54.7796C81.6853 54.9931 81.6246 55.1881 81.6246 55.1881C82.5885 54.8776 84.4834 53.4499 84.4834 53.4499C84.4834 53.4499 84.2521 54.7787 83.6829 56.9703C82.8451 60.2494 83.0603 60.4873 86.191 61.7307C86.7779 61.9608 86.9927 62.1824 87.192 62.4367C87.2913 62.5477 87.796 63.4899 87.8451 63.5212C87.96 63.5996 87.9224 62.5669 87.8686 62.3097C87.7088 61.6186 87.3263 61.1098 87.0148 60.9063C86.4047 60.3376 85.5143 60.2913 84.9429 60.0286C84.0937 59.6263 83.7707 59.6491 83.9291 58.7093C84.0296 58.0936 84.8986 53.9742 85.3185 52.3831C86.5458 47.6104 85.3915 44.9699 81.8924 43.8955C79.5164 43.1695 77.4863 43.5342 75.0712 44.8273L74.639 43.48C81.0061 41.7016 90.1186 41.3038 96.0527 41.2621ZM143.727 41.3124L147.139 43.6481L147.168 46.6024L143.725 44.2997L143.727 41.3124ZM103.026 41.4413L104.534 41.6201C104.534 41.6201 105.097 43.8046 105.72 49.7017C106.023 52.6343 106.343 58.7153 106.595 61.5198C106.972 65.6781 108.84 72.3247 109.99 73.9965C111.874 76.735 115.654 74.9615 114.39 71.7096C113.741 70.0275 111.191 70.29 111.551 72.0427C111.557 72.3494 111.789 71.8117 112.17 71.4971C113.261 71.0709 114.498 72.2241 113.864 73.6258C113.06 75.4025 110.698 74.5955 109.908 72.3511C108.963 69.6901 112.14 67.6868 114.502 69.3175C117.144 71.1361 117.142 75.7221 115.021 77.1707C111.442 78.4878 109.01 75.8574 107.855 73.1846C107.386 72.4192 105.897 68.4131 105.474 66.7425C104.368 58.6108 104.169 48.9909 103.026 41.4413ZM105.526 41.8903L107.097 41.987C107.714 45.2684 108.002 48.9926 108.241 52.7339C108.328 58.4968 109.019 64.5863 110.363 68.5794L109.208 69.798C107.238 65.2366 107.089 58.0217 106.648 53.1381C106.47 47.6516 105.559 41.9219 105.526 41.8903ZM107.794 42.1018L109.172 42.2511C109.592 46.1501 110.229 48.7852 110.48 53.0914C110.789 58.6398 111.756 63.2058 112.347 67.5373L111.319 67.8814C110.631 68.2024 109.49 63.0748 108.967 52.6866C108.805 49.5411 108.28 46.0156 107.794 42.1018ZM109.868 42.2528L111.507 42.5582C112.229 52.4256 113.391 61.6864 114.584 66.9905L113.15 67.2785C111.393 59.6931 111.288 50.7172 109.868 42.2528ZM112.252 42.5913L113.761 42.8508C115.586 65.4036 116.712 65.1219 117.054 66.003L115.418 66.6666C113.651 60.1955 113.3 51.0633 112.252 42.5913ZM114.427 43.0146L116.226 43.2036C116.162 43.2372 117.515 61.6983 119.13 64.7491C118.871 65.5134 118.255 65.4455 117.594 65.5237C116.839 63.4562 116.4 60.9784 116.091 58.5627C115.383 53.2486 115.134 48.2641 114.427 43.0146ZM80.2805 44.9298C82.66 45.0422 84.639 46.1156 84.8172 47.6944C84.8569 48.0488 84.5784 47.8769 84.2659 47.625C82.2116 46.0365 79.8891 45.5516 77.0803 46.5784C76.4704 46.8009 75.9601 47.1504 75.7005 47.1073C75.4547 46.9509 75.382 46.5649 75.5697 46.2543C76.2094 45.1269 79.0988 44.8734 80.2805 44.9298ZM143.762 45.3325L147.207 47.6996L147.179 50.2677L143.522 47.808L143.762 45.3325ZM74.5631 46.0651C74.5631 46.0651 74.7703 47.4818 74.7668 48.0955C74.8182 50.5811 74.2158 51.95 72.9178 52.5258C71.3635 53.2199 69.3601 51.7433 70.3283 50.0763C71.0623 48.8178 72.3315 49.1953 72.569 50.5145L74.5631 46.0651ZM79.4797 46.8679C79.6413 46.8646 79.8191 46.8609 79.9811 46.8737C80.7904 46.9054 81.5703 47.0832 82.2878 47.3752C84.0978 48.0968 84.7466 48.9715 84.8192 49.3575C84.7121 49.6504 84.53 49.4443 83.2214 48.7285C81.1903 47.4786 78.5501 47.2747 76.2218 48.8567C75.6419 48.9656 75.5867 48.6437 76.1721 48.0181C77.1267 47.2556 78.2996 46.8923 79.4797 46.8679ZM95.9749 46.8831C97.5587 46.8343 99.459 47.231 101.061 48.0537C101.764 48.4107 102.399 48.6398 102.86 49.0501C103.236 49.2362 103.254 50.0916 102.996 50.1453C102.754 50.1826 102.362 49.9969 101.771 49.5731C97.9682 47.0841 95.2252 47.3829 93.0255 48.93C92.8979 49.0134 92.5278 49.1018 92.3819 49.0887C91.9607 49.0489 91.9412 48.8878 92.1143 48.6582C93.1252 47.4908 94.6498 46.9265 95.9749 46.8831ZM143.524 48.6799L147.184 51.2688L147.188 53.8038L143.282 51.0747L143.524 48.6799ZM77.339 49.7056L77.8731 49.7269C79.1166 52.7693 80.6852 51.2029 81.339 49.9784L81.988 50.0781C80.9567 54.1685 76.8049 52.0257 77.339 49.7056ZM97.9623 49.9262L98.3856 50.0629C98.2761 51.8091 95.3712 53.6613 93.9864 50.0405L94.5677 49.9962C96.1541 52.4179 97.0623 50.9782 97.9623 49.9262ZM76.4256 50.112C77.0254 50.1804 77.0074 50.875 77.1956 51.3717C77.6231 52.4932 76.0186 51.5413 75.7381 51.2726C75.2752 50.7816 75.9417 50.1704 76.4256 50.112ZM99.4409 50.2671C99.6026 50.2637 99.9447 50.3859 100.255 50.5248C101.119 50.8784 101.076 51.1377 100.115 51.5612C98.5764 52.255 98.0443 52.3305 98.5096 51.3682C98.7754 50.9267 98.957 50.3255 99.4409 50.2671ZM93.2539 50.5885C93.3024 50.5875 93.3674 50.6023 93.433 50.6494C93.8108 50.9323 94.0762 51.2498 94.1192 51.7656C94.1427 52.1204 92.9536 51.7088 92.9578 51.1274C92.9844 50.8523 93.0926 50.6079 93.2539 50.5885ZM82.827 50.7711C83.6093 51.0618 83.52 51.4352 82.9774 51.7855C82.0024 52.3384 81.5797 52.2341 82.2086 51.3653C82.5074 50.9555 82.5684 50.7765 82.827 50.7711ZM143.287 52.0596L147.258 54.8682L147.231 57.4523L143.261 54.7245C143.06 53.6144 143.239 52.868 143.287 52.0596ZM143.182 55.5819L147.156 58.5035L147.176 61.0704L143.239 58.342C143.069 57.1829 143.133 56.3741 143.182 55.5819ZM90.8249 55.9027C90.2109 55.9316 90.3166 56.3491 91.1807 56.6865C92.403 57.1458 92.5271 58.4513 91.4557 59.0385C90.1957 59.888 88.1294 57.7184 86.6291 57.8947C85.906 58.1195 85.451 58.7909 85.8563 59.6222C86.1757 60.213 87.2664 60.562 87.7114 60.1814C88.1236 59.7854 88.2365 59.7669 89.0187 60.0576C91.4638 60.9922 93.4001 59.2245 92.828 57.3631C92.62 56.6892 91.6994 55.9655 91.1481 55.8961C91.0188 55.8987 90.9053 55.8849 90.8249 55.9027ZM74.6566 56.0584C74.8509 56.0706 74.912 56.683 74.9634 57.6024C75.0436 59.1347 73.5026 61.2495 71.9331 61.9924C70.0592 62.8707 68.0446 61.6366 68.3786 59.805C68.6834 58.1194 71.0754 58.0538 71.156 59.6024C70.9218 60.0109 71.2524 60.3593 71.3811 60.3244C71.9923 60.1664 73.4367 58.8449 74.0209 57.3796C74.2517 56.8097 74.3851 56.2255 74.5441 56.0931C74.5919 56.0598 74.6239 56.043 74.6566 56.0584ZM97.0591 58.6484C96.2347 58.6654 95.2251 59.106 95.0259 59.643C94.7292 60.1497 94.9745 61.0651 95.5892 60.2935C97.168 58.4363 99.4639 60.7625 98.2331 62.2412C97.1286 63.5719 95.7615 63.148 92.8598 62.029C90.7569 61.2166 90.4231 61.498 89.9013 62.0739C89.4746 62.551 89.6889 63.5316 90.2385 63.5203C91.9445 63.9049 93.4241 64.2943 95.1944 64.6615C98.93 65.4403 101.207 60.5813 97.7902 58.8109C97.5936 58.6858 97.3339 58.6428 97.0591 58.6484ZM143.44 59.452L147.165 62.1042L147.136 64.5753L143.524 61.9531L143.44 59.452ZM80.036 59.6938C79.5019 59.6725 78.9398 59.8618 78.5424 60.1929C77.0819 61.5148 78.2852 64.9616 80.4263 65.2727C80.8806 65.3441 81.543 65.3144 82.2984 65.0889C83.7934 64.6544 85.4568 63.7642 85.5107 63.2464C85.8176 60.8825 82.32 63.0054 81.8569 63.2894C80.7549 63.9581 79.5887 63.869 79.0062 63.0737C77.6753 61.2764 80.058 59.1927 81.4945 61.4076C81.5945 61.5509 81.7282 61.7581 81.7282 61.7581C81.7282 61.7581 81.6287 60.8559 81.3277 60.3777C81.0759 59.9308 80.5701 59.7151 80.036 59.6938ZM143.725 63.0793L147.255 65.6387L147.308 68.205L143.602 65.7462C143.68 64.8242 143.694 63.9519 143.725 63.0793ZM123.913 64.5537C127.019 64.6027 128.764 69.2333 127.138 71.1561C126.649 71.7313 126.264 71.8846 126.033 71.6633C125.983 71.6159 126.07 71.0974 126.09 70.5157C126.197 68.6565 125.798 67.3729 124.443 65.9637C123.435 64.8865 123.056 64.5714 123.913 64.5537ZM86.7922 64.9962C86.4039 64.9881 86.0674 65.1404 85.6663 65.294C85.0722 65.5 84.4667 65.9323 83.9794 65.8293C83.5083 65.726 83.2705 65.9569 83.0842 66.3322C82.37 67.7679 82.5898 68.2316 83.9959 67.4114C84.6671 67.0261 84.8965 67.1668 86.6823 67.5014C87.9649 67.7494 88.8375 67.7153 89.9636 67.4337C91.363 67.0657 92.2032 67.0322 92.9066 67.4214C93.6101 67.8106 94.0902 68.3497 94.1135 67.9133C94.0381 67.3981 93.5905 66.0831 93.4845 65.6493C93.4316 65.4405 93.0797 65.6255 92.7567 65.6483C91.5942 65.7368 90.214 64.6834 89.3198 65.2347C88.6014 65.6855 88.5068 65.8004 87.5242 65.2071C87.2626 65.0672 87.0185 64.9915 86.7922 64.9962ZM121.644 65.101C122.177 65.09 122.666 65.2736 123.077 65.6043C125.184 67.3694 125.718 68.9408 125.518 70.2367C125.408 71.1756 125.349 72.2103 124.439 72.7781C124.279 72.8621 124.021 72.9158 123.795 72.9366C124.5 70.2739 123.674 67.885 120.695 65.3467C120.999 65.1789 121.337 65.1073 121.644 65.101ZM75.6463 65.5974C76.2282 65.5854 76.199 66.5226 76.0801 67.0257C75.9753 67.4315 75.5638 67.0848 75.2245 66.3167C74.9733 65.902 75.2421 65.6058 75.6463 65.5974ZM119.37 66.1814C119.919 66.1378 120.636 66.4297 120.964 66.649C122.933 67.981 124.055 71.4458 122.851 73.4083C122.726 73.6531 122.551 73.7858 122.344 73.9193C121.945 74.1697 121.707 74.3846 121.622 74.2087C121.554 74.0648 121.785 73.4787 121.813 73.2843C122.668 69.246 118.795 66.5485 118.717 66.6793C118.791 66.3387 119.047 66.2042 119.37 66.1814ZM73.705 66.348C74.4647 66.3323 74.7704 67.0364 74.8952 67.599C75.0022 68.0812 74.8703 69.5211 74.4555 69.013C74.3522 68.7083 73.9439 67.7317 73.6149 67.464C72.8596 66.9144 72.9291 66.364 73.705 66.348ZM143.618 66.5048L147.262 69.1424L147.272 71.968L143.451 69.3825C143.544 68.3956 143.589 67.442 143.618 66.5048ZM71.5368 67.0708C71.65 67.0685 71.7958 67.0817 71.9742 67.1103C73.1751 67.3116 74.088 69.2304 73.8198 70.334C73.1811 71.5098 72.9546 70.7233 72.7382 69.6459C72.5673 69.1973 72.0841 68.5128 71.7855 68.1476C71.1555 67.4016 71.0519 67.0808 71.5368 67.0708ZM117.367 67.0946C120.277 67.0507 122.138 71.792 120.796 74.1288C120.447 74.4912 119.396 75.2558 119.356 74.9014C119.35 74.6108 119.542 73.7026 119.597 73.2493C119.771 71.5179 118.959 69.7584 117.54 68.3828C116.351 67.2285 116.235 67.1017 117.367 67.0946ZM69.1716 67.6526C70.9659 67.6156 72.4816 69.748 71.9252 71.7779C71.2251 73.8915 67.7387 73.4305 68.326 71.3354C68.4915 70.7345 69.129 70.2854 69.7351 70.6604C70.6197 71.2073 70.5205 70.3213 69.9642 70.0098C69.0972 69.5271 67.9063 69.8101 67.6519 70.8003C66.7366 74.2425 71.1109 75.4118 73.4955 71.8586C74.3744 70.5648 75.3159 69.1728 75.8373 68.5808C76.3115 68.0543 76.4095 68.1008 76.3269 68.7968C76.0209 71.9842 73.8073 75.986 69.679 75.7643C65.6604 75.3789 64.391 71.0775 67.4402 68.3826C67.9969 67.9351 68.5412 67.6656 69.1716 67.6526ZM90.5054 67.8262C89.0326 68.5509 87.696 68.8206 86.2433 68.1724C85.1664 67.7102 85.193 68.2102 85.6546 68.6366C87.0045 69.7876 89.4518 69.2688 90.5056 68.6173C90.8411 68.4166 90.9415 67.8011 90.5054 67.8262ZM115.151 67.8347C116.236 67.8931 117.963 69.2945 118.492 70.6561C119.09 72.194 119.236 73.7897 118.399 75.5186C117.824 75.8857 116.918 76.6471 116.657 76.5394C116.51 76.4617 116.666 76.1679 116.846 75.5183C117.506 73.0341 117.095 71.1049 115.504 69.2807C114.61 68.2657 114.283 68.0786 114.748 67.9075C114.86 67.8568 115.006 67.8377 115.151 67.8347ZM143.355 70.2242L147.276 72.9207L147.28 75.4882L143.213 72.73C143.152 72.1338 143.213 71.196 143.355 70.2242ZM143.348 73.7768L147.233 76.3449L147.335 78.8941L143.566 76.5336L143.348 73.7768ZM143.616 77.3561L147.324 79.9439L147.381 82.7202L143.709 80.293L143.616 77.3561ZM53.3092 80.2518C53.2729 80.0588 50.6353 87.7993 50.6353 87.7993L53.1626 89.5881L55.8433 87.8373L53.0828 84.1641C53.0828 84.1641 53.3455 80.4448 53.3092 80.2518ZM143.776 81.1958L147.353 83.6734L147.406 86.2398L143.697 83.6519L143.776 81.1958ZM143.631 84.3315L147.292 87.0011L147.365 89.7285L143.216 86.9398L143.631 84.3315ZM61.7719 85.9712C61.7356 85.7781 59.098 93.5187 59.098 93.5187L61.6254 95.3074L64.306 93.5567L61.5456 89.8834C61.5294 89.8837 61.8083 86.1642 61.7719 85.9712ZM44.8367 86.5787C44.8004 86.3857 42.1628 94.1263 42.1628 94.1263L44.6902 95.915L47.3709 94.1642L44.6104 90.4911C44.6104 90.4911 44.8731 86.7717 44.8367 86.5787ZM143.152 87.7808L147.452 90.8248L147.479 93.7146L143.314 90.8939L143.152 87.7808ZM143.445 91.7793L147.402 94.6527L147.454 97.1868L143.843 94.5969L143.445 91.7793ZM70.7089 95.0717C70.6726 94.8787 68.035 102.619 68.035 102.619L70.5624 104.408L73.243 102.657L70.4826 98.984C70.4826 98.984 70.7614 95.2644 70.7089 95.0717ZM144.079 95.8355L147.426 98.1563L147.399 100.757L144.102 98.5317L144.079 95.8355ZM75.2655 98.0135C75.3197 99.8532 75.4344 118.695 75.4044 118.809C73.0976 119.082 72.451 120.662 72.2361 122.782C70.4381 122.641 69.2643 123.747 69.2195 123.926C68.5536 123.003 69.0431 121.653 68.5217 120.678C66.924 126.315 70.0341 129.69 72.7444 129.375C73.1799 134.792 79.0865 135.768 78.886 129.2C86.0412 128.778 83.6077 122.143 78.7743 123.018C78.8122 120.159 77.3094 119.431 76.0843 118.843C76.0843 118.843 75.8711 100.714 75.9086 100.18C75.9103 100.261 75.5931 98.2166 75.5581 98.0882C75.5581 98.0882 75.2655 98.0135 75.2655 98.0135ZM144.07 99.3074L147.353 101.662L147.311 102.793L144.043 102.731L144.07 99.3074ZM45.1383 100.379C45.102 100.186 42.4644 107.926 42.4644 107.926L44.9918 109.715L47.6724 107.964L44.912 104.291C44.912 104.291 45.1747 100.572 45.1383 100.379ZM147.383 107.022C140.177 107.365 133.687 107.87 133.939 117.731C132.894 121.918 134.653 125.645 139.691 124.491C140.786 123.5 140.061 122.061 139.933 121.369C139.506 119.473 139.998 118.236 140.141 117.345C140.569 114.591 142.57 112.03 142.789 116.353C143.133 115.813 142.97 115.736 143.548 115.514C144.928 115.017 144.925 116.422 144.646 116.993C144.458 117.288 144.182 117.261 143.907 117.235C143.501 117.178 142.981 117.028 142.978 116.882C142.874 117.337 143.716 118.159 143.627 118.581C143.523 118.986 143.441 118.956 143.807 118.69C145.544 117.443 146.637 120.23 144.124 119.91C145.367 120.579 143.531 122.522 144.813 123.529C148.7 123.821 151.605 121.161 150.368 119.249C151.824 115.36 150.932 111.325 148.843 109.608C148.528 109.227 149.587 108.85 149.994 108.196C148.723 108.496 148.063 107.864 147.383 107.022ZM143.078 108.419C143.741 108.421 143.921 108.547 143.868 109.097C144.122 110.432 144.458 111.055 146.185 110.906C147.927 110.676 148.475 110.568 146.734 111.621C145.853 112.011 145.563 112.098 144.51 111.99C143.457 111.899 143.535 111.784 142.928 112.152C142.593 112.353 142.226 112.603 141.952 112.657C141.55 112.73 140.825 112.89 140.825 112.89C140.415 114.965 139.806 116.011 138.953 116.998C137.753 118.379 137.143 118.617 138.613 118.522C139.164 118.56 138.883 118.275 139.123 120.514C139.204 121.304 139.352 122.205 139.472 122.509C139.849 123.535 139.907 124.034 138.454 124.113C134.805 124.398 133.954 120.815 134.434 118.98C134.654 117.877 134.696 116.811 134.627 115.795C134.702 112.386 135.508 111.482 138.519 109.272C139.427 108.607 141.057 108.461 142.254 108.452C142.576 108.429 142.851 108.424 143.078 108.419ZM145.443 108.629C147.124 108.594 148.758 109.416 147.944 109.933C147.418 110.283 145.522 110.129 144.997 109.752C144.308 109.282 144.57 108.647 145.443 108.629ZM149.082 110.976C150.17 111.195 150.223 112.195 149.944 112.815C149.342 114.168 145.264 114.833 145.264 114.833C145.236 114.252 145.305 113.685 144.887 113.032C144.887 113.032 147.605 112.314 148.177 111.785C148.541 111.439 148.775 110.998 149.082 110.976ZM70.3391 111.598C70.321 111.502 68.9925 115.292 68.9925 115.292L68.7811 119.93L70.1923 120.918L72.8729 119.168L70.1125 115.494C70.0966 115.511 70.3755 111.791 70.3391 111.598ZM143.631 113.284C143.97 113.261 144.413 113.559 144.486 113.977C144.544 115.219 142.905 114.93 142.857 114.156C142.813 113.592 143.308 113.307 143.631 113.284ZM149.89 114.075C150.278 114.084 150.494 114.37 150.603 114.965C150.659 115.287 150.535 115.548 150.283 115.892C149.239 117.028 146.328 117.814 145.287 117.529C145.221 117.433 145.39 116.235 145.476 115.7C146.867 115.72 149.219 114.477 149.89 114.075ZM101.368 116.061C102.258 116.091 103.109 116.606 103.484 117.519C103.691 118.145 103.754 118.87 103.525 119.488C103.341 120.009 102.987 120.081 102.987 120.081L101.192 118.535L99.4473 120.17C99.4473 120.17 98.3735 119.078 98.9568 117.564C99.5332 116.502 100.478 116.047 101.368 116.061ZM149.778 117.275C150.925 117.203 150.338 118.539 148.642 119.43C147.57 120.001 146.7 120.148 146.308 119.946C146.101 119.321 146.283 118.752 146.407 118.491C147.127 118.137 149.119 117.482 149.778 117.275ZM75.7319 119.787C77.0089 119.76 78.1113 120.674 78.1447 122.288C78.1584 122.95 77.8322 123.603 77.8322 123.603L75.6971 122.016L74.0676 123.761C73.7948 123.864 72.7985 122.609 73.4817 121.238C73.979 120.259 74.859 119.805 75.7319 119.787ZM149.459 119.865C149.767 119.859 149.85 119.986 149.937 120.275C150.18 121.094 149.551 121.93 148.44 122.195C147.427 122.442 147.526 122.553 147.038 121.643C146.667 120.924 146.555 120.958 147.148 120.72C147.871 120.479 148.626 120.205 149.459 119.865ZM105.613 120.366C105.92 120.359 106.228 120.385 106.489 120.525C108.285 121.344 108.596 123.873 106.853 124.845C106.022 125.315 104.718 125.567 104.116 124.627L105.871 122.702L103.847 120.983C103.797 120.92 104.692 120.417 105.613 120.366ZM97.3559 120.697C98.1001 120.714 98.6877 120.977 98.5449 121.109C98.5449 121.109 97.2781 122.411 96.7234 122.955L98.6408 124.966C98.7267 125.206 96.4358 126.255 95.2228 124.681C94.4413 123.648 94.8862 121.701 95.9882 121.032C96.4193 120.765 96.9188 120.674 97.3559 120.697ZM101.289 120.875C102.421 120.851 103.345 121.769 103.353 122.899C103.376 124.029 102.474 124.968 101.342 124.991C100.21 125.014 99.2859 124.097 99.2625 122.967C99.255 121.821 100.157 120.882 101.289 120.875ZM145.602 121.027C146.104 121.065 146.548 121.395 146.559 121.943C146.576 122.734 145.675 122.979 144.987 122.541C144.446 122.213 144.417 121.584 144.702 121.303C144.973 121.104 145.295 121.001 145.602 121.027ZM101.277 122.635C101.067 122.639 100.876 122.805 100.881 123.031C100.885 123.241 101.051 123.431 101.277 123.426C101.487 123.422 101.678 123.256 101.673 123.03C101.669 122.804 101.503 122.63 101.277 122.635ZM80.3068 123.616C80.5977 123.61 80.8735 123.653 81.1187 123.777C82.4097 124.429 83.0727 126.773 81.6264 127.997C80.4823 128.974 78.7191 128.17 78.6841 128.042L80.4865 126.051L78.5723 124.201C78.5542 124.105 79.4501 123.634 80.3068 123.616ZM71.9517 123.886C72.4205 123.876 72.8605 124.044 73.3518 124.341L71.5158 126.268L73.5013 128.44C73.5013 128.44 71.938 128.698 71.3699 128.596C68.6749 128.087 68.9324 124.901 71.0171 124.05C71.3707 123.946 71.6604 123.875 71.9517 123.886ZM76.0038 124.335C77.0869 124.312 77.9946 125.198 78.0011 126.296C78.0238 127.394 77.1532 128.3 76.0536 128.306C74.9706 128.329 74.0628 127.443 74.0563 126.345C74.0498 125.247 74.9208 124.357 76.0038 124.335ZM39.125 124.74C38.6081 124.767 38.0275 124.843 37.3839 125.002C37.3839 125.002 37.7435 129.096 38.0796 130.494C37.8702 132.097 36.8415 133.184 36.3738 134.808C36.1302 135.54 35.1962 136.512 35.0297 135.498C34.3567 134.236 35.0032 132.657 34.4508 131.748C34.029 130.901 34.2615 130.411 34.0653 129.527C33.5488 128.795 33.2994 128.461 33.383 127.814C33.2747 124.925 32.5587 125.489 31.286 125.725C26.3463 126.15 26.3411 129.024 26.6428 132.668C25.9373 136.089 27.2303 135.271 27.1945 135.886C27.1337 136.856 27.2914 138.225 27.5695 138.381C29.3422 140.427 29.4197 141.831 31.7088 141.477C35.5963 141.784 41.7618 141.205 43.1024 136.43C43.8662 130.359 44.1498 124.523 39.125 124.74ZM39.0898 125.387C39.8172 125.372 40.6938 125.531 41.4036 126.227C42.9218 127.697 42.5929 128.996 42.3227 134.702C42.1662 138.08 39.2751 139.819 36.0407 140.596C35.2523 140.79 34.5569 140.788 34.0235 140.799C33.4412 140.795 33.1122 140.527 33.0699 140.044C33.2042 138.717 31.8595 138.599 31.0846 138.664C29.7113 138.724 29.5688 138.872 30.428 138.193C31.4149 137.43 33.6786 137.415 34.1082 137.859C34.9954 136.968 35.9151 136.868 37.0443 136.732C36.8773 136.477 36.469 135.501 36.7469 134.865C37.324 133.836 38.3211 132.007 39.342 131.324C40.3653 129.979 39.4886 130.594 38.8582 130.607C38.5026 130.615 38.5326 130.501 38.4629 130.26C38.2149 129.216 37.8509 127.253 37.843 126.091C37.8307 125.493 38.3621 125.386 39.0898 125.387ZM103.214 125.566C104.706 127.376 103.425 129.534 101.423 129.672C99.7749 129.755 98.412 127.974 99.0218 126.185C99.3678 125.71 99.5146 125.772 99.5146 125.772L101.393 127.477L103.214 125.566ZM75.9884 125.934C75.7783 125.938 75.5876 126.103 75.5923 126.329C75.5966 126.539 75.7623 126.73 75.9886 126.725C76.1987 126.721 76.3893 126.555 76.3847 126.329C76.3803 126.12 76.1989 125.946 75.9884 125.934ZM31.9355 126.632C32.1776 126.611 32.4214 126.671 32.6026 126.828C32.9982 127.192 32.992 127.676 32.5794 128.056C32.1032 128.486 31.1441 128.247 31.1274 127.44C31.1494 126.939 31.532 126.673 31.9355 126.632ZM30.1432 126.766C30.3213 126.779 30.484 126.824 30.583 126.919C30.4482 127.438 30.6205 127.951 30.642 128.209C30.3072 128.442 28.9089 128.858 28.1727 129.229C27.6591 129.417 27.2769 128.924 27.3484 128.471C27.5412 127.627 28.7752 127.085 29.6592 126.825C29.7876 126.773 29.965 126.754 30.1432 126.766ZM106.824 128.091L104.143 129.842L104.176 129.89L104.144 129.907L106.889 133.58C106.875 133.71 106.661 137.428 106.661 137.428L106.661 137.412L106.646 137.493L108.547 129.299C108.563 129.299 107.562 128.609 106.824 128.091ZM77.8454 128.931C79.0839 131.732 77.6547 133.004 76.1339 132.971C74.4515 132.941 72.6555 131.331 74.2252 129.038L76.1829 130.645L77.8454 128.931ZM30.8749 129.302C31.375 129.244 31.236 130.344 31.0375 130.914C30.8519 131.321 30.3016 131.3 29.8009 131.327C28.9125 131.377 27.8017 132.401 27.3292 132.234C27.1659 132.156 27.0602 131.739 27.0384 131.465C27.1538 130.009 29.5844 129.458 30.8749 129.302ZM32.5903 129.364C33.479 129.329 33.9668 130.24 33.5427 130.846C33.3699 131.092 32.8388 131.216 32.3832 131.08C31.635 130.869 31.5321 129.806 32.1875 129.437C32.3162 129.402 32.461 129.367 32.5903 129.364ZM31.4792 131.938C31.9661 132.025 31.722 133.516 31.6419 133.55C31.2408 133.703 29.5472 133.916 28.8321 134.528C27.3047 135.738 26.6586 134.993 27.3566 133.557C28.0185 132.72 30.4931 131.958 31.366 131.94C31.4145 131.939 31.4469 131.939 31.4792 131.938ZM33.3081 132.013C33.986 131.951 34.4708 132.716 34.0491 133.435C33.4778 133.964 32.4996 133.58 32.5001 132.821C32.5069 132.369 32.8882 132.038 33.3081 132.013ZM31.7414 134.452C32.4368 134.453 31.6991 135.534 32.3132 136.297C32.4021 136.683 32.2704 136.572 31.5631 136.781C31.1614 136.902 30.5521 137.157 29.9122 137.493C28.9682 137.981 28.6984 138.228 28.3579 138.187C28.0979 138.128 27.7881 138.005 27.7017 137.732C27.3718 136.641 28.2547 135.541 30.3087 134.772C30.7095 134.602 31.4831 134.473 31.7414 134.452ZM33.5245 134.657C34.5106 134.637 34.6999 135.973 33.9607 136.198C32.2236 136.654 32.3762 134.649 33.5245 134.657ZM30.937 139.345C31.6159 139.331 32.085 139.337 32.2995 139.543C32.58 139.812 32.6213 140.247 32.3027 140.479C31.7264 140.766 29.5382 140.52 29.5255 139.907C29.5168 139.487 30.2419 139.359 30.937 139.345ZM132.254 139.484L129.574 141.235L132.334 144.908C132.334 144.908 132.055 148.627 132.108 148.82C132.144 149.013 134.782 141.273 134.782 141.273L132.254 139.484ZM25.5938 143.718C26.6715 145.004 27.255 145.848 29.0639 146.521C29.4868 165.405 29.4111 208.665 29.4111 208.665L34.7424 212.318L40.3506 208.246C40.2955 194.635 40.2467 185.238 40.18 172.628L48.4083 177.174C48.4083 177.174 48.6584 177.54 48.6288 179.236C48.0632 183.946 52.5736 187.002 55.5751 185.132C56.7293 184.64 56.8246 184.557 57.0748 184.923C57.7427 185.943 58.5114 190.271 58.6332 193.03C58.8163 197.192 59.9139 205.695 60.1739 205.754L46.7854 228.508L25.6007 228.509L25.5938 143.718ZM106.797 144.805L104.117 146.555L106.877 150.229C106.877 150.229 106.598 153.948 106.651 154.141C106.687 154.334 109.325 146.593 109.325 146.593L106.797 144.805ZM39.2373 145.81L39.7088 207.71C39.7088 207.71 37.1117 209.589 36.266 210.139C35.8329 210.309 35.6231 210.33 35.5174 209.912C35.3936 209.398 35.5995 208.409 35.7763 206.79C35.9392 205.285 35.9376 205.204 35.6995 203.078C35.4433 200.855 35.409 200.759 35.623 197.815C35.8624 194.533 35.9094 191.334 35.6424 189.37C35.3932 187.486 35.4018 183.206 35.5952 180.829C35.8257 177.901 35.7565 175.335 35.373 173.212C34.6964 169.431 34.5886 168.125 35.2896 165.269C35.5585 164.197 35.6761 163.63 35.6233 161.855C35.566 159.87 35.5203 159.225 34.815 154.831C34.4069 152.304 34.3834 151.95 34.7536 147.954C34.8339 147.144 34.8552 146.611 35.157 146.347C35.5224 146.032 39.2373 145.81 39.2373 145.81ZM33.9968 146.548C33.6837 147.83 33.6229 148.8 33.5773 149.722L29.9865 147.341L29.955 146.599L33.9968 146.548ZM30.0049 148.229L33.5627 150.578C33.5669 151.563 33.4896 152.517 33.6393 153.499L30.0316 151.087L30.0049 148.229ZM30.017 151.943L33.8229 154.561C33.9733 155.575 34.2859 156.618 34.4019 157.536L30.0879 154.589L30.017 151.943ZM153.152 152.972L153.356 228.522L115.45 228.529L103.439 205.266C103.439 205.266 103.556 203.132 103.857 202.028C104.218 200.712 104.309 200.42 104.809 200.361C106.149 201.06 107.666 200.125 108.114 199.098C108.686 197.827 107.531 195.913 105.776 195.497C104.995 195.303 104.146 195.66 103.286 196.323C102.793 196.737 102.681 196.788 102.577 196.419C102.349 195.6 103.08 193.372 104.366 191.457C105.088 190.392 105.276 190.082 105.511 190.497C106.45 192.14 108.464 191.792 109.238 190.872C110.169 189.755 109.97 187.191 107.87 186.524C103.768 185.204 101.881 189.36 101.929 189.343L101.05 184.356C105.989 183.14 108.842 182.709 110.428 181.191C111.665 180.003 112.253 177.94 112.102 176.118C112.102 176.118 125.845 170.49 132.274 166.999C143.356 160.957 153.152 152.972 153.152 152.972ZM132.853 153.552L130.172 155.303L132.932 158.976C132.932 158.976 132.654 162.696 132.706 162.889C132.742 163.082 135.38 155.341 135.38 155.341L132.853 153.552ZM115.548 154.28L112.867 156.031L115.628 159.705C115.628 159.705 115.349 163.424 115.401 163.617C115.438 163.81 118.075 156.069 118.075 156.069L115.548 154.28ZM30.1917 155.702L34.556 158.728C34.6572 159.711 34.7725 160.597 34.6497 161.697L30.0582 158.627L30.1917 155.702ZM30.1102 159.579L34.6196 162.586C34.6389 163.522 34.6731 164.393 34.3632 165.046L30.1016 162.292L30.1102 159.579ZM124.023 159.822L121.343 161.573L124.103 165.246C124.103 165.246 123.824 168.966 123.877 169.158C123.913 169.351 126.551 161.611 126.551 161.611L124.023 159.822ZM30.118 163.083L34.0266 165.973C34.0761 166.02 33.8115 167.302 33.875 168.027L30.1562 165.714L30.118 163.083ZM30.2244 166.665L33.8667 169.19C33.8702 170.142 33.9374 171.045 34.0838 171.866L30.1165 169.267L30.2244 166.665ZM30.1705 170.316L34.3893 173.345L34.6175 175.779L30.1441 172.948L30.1705 170.316ZM63.631 171.176C64.0345 171.135 64.4561 171.191 64.8955 171.327C68.9374 172.843 72.7366 180.612 72.621 190.658C72.5389 197.635 74.6367 207.588 74.5859 207.476C74.5859 207.476 73.4086 207.629 73.08 207.377C71.551 202.258 71.0509 196.843 70.8129 192.375C70.6227 188.649 70.4018 185.004 70.1736 184.137C69.5131 181.131 68.7937 177.625 66.887 175.355C65.3962 173.642 63.7081 173.338 62.6968 175.264C61.8724 176.847 63.6083 179.46 65.0619 178.59C65.4135 178.389 65.617 178.062 65.1644 178.071C63.665 178.296 62.6515 176.202 63.601 175.197C65.2787 173.435 68.2061 177.363 66.8435 179.506C66.2483 180.439 64.683 180.6 63.4306 180.255C60.6371 178.891 59.9541 175.579 60.8789 173.38C61.4197 172.158 62.4203 171.281 63.631 171.176ZM60.0002 172.332C60.3221 172.261 60.1102 172.96 59.8066 173.919C59.0939 176.21 60.4285 179.752 62.287 180.472C62.8446 180.848 62.8152 180.994 62.4478 181.212C61.233 181.899 59.0232 179.829 58.442 177.532C58.0193 175.861 58.1244 173.905 58.9157 173.065C59.2148 172.672 59.6139 172.421 60.0002 172.332ZM57.3105 173.647C57.65 173.64 57.5162 174.208 57.4241 175.227C57.2145 177.606 57.946 179.351 59.609 180.786C60.3171 181.401 60.5151 181.591 60.1981 181.904C59.7707 182.349 58.5292 181.745 57.5703 180.731C55.8013 178.862 55.2112 175.354 56.5915 174.066C56.9094 173.801 57.1327 173.651 57.3105 173.647ZM30.1268 173.675L34.6355 176.65C34.8488 177.582 34.7561 178.569 34.6148 179.557L30.1021 176.388L30.1268 173.675ZM107.434 174.051C109.357 173.979 110.99 174.72 111.169 177.107C111.434 180.573 108.223 182.48 105.983 180.492C103.968 178.482 106.006 175.356 108.333 176.826C109.496 177.577 108.108 179.269 107.152 178.384C106.723 177.989 106.534 178.236 106.835 178.698C107.753 180.084 109.557 178.932 109.419 177.724C109.159 175.34 106.249 175.367 105.152 176.31C103.659 177.584 102.339 179.469 101.349 180.845C100.549 182.041 100.37 182.012 100.485 180.54C100.825 176.626 104.429 174.178 107.434 174.051ZM54.9897 174.81C55.2968 174.803 55.1765 175.242 55.2002 176.388C55.3256 179.324 56.544 181.156 58.1014 182.173C58.631 182.76 57.9601 183.161 56.9681 182.891C54.7382 182.194 52.4548 177.348 54.3525 175.275C54.6212 174.979 54.8446 174.829 54.9897 174.81ZM52.8265 175.775C53.1333 175.752 52.9688 176.401 52.9942 177.628C53.0638 180.21 53.8492 181.437 55.7415 183.013C56.3668 183.533 56.4301 183.467 56.1933 183.747C55.5459 184.503 53.3407 183.434 52.4031 181.887C51.2817 180.053 51.1273 177.279 52.1569 176.24C52.4422 175.96 52.6652 175.794 52.8265 175.775ZM50.6528 177.014C50.9115 177.009 50.7595 177.48 50.7987 178.594C50.8868 181.288 51.5129 182.632 53.2042 183.873C54.2716 184.658 54.5256 184.427 54.2083 184.724C53.6374 185.269 52.0752 184.8 50.9065 183.807C49.1452 182.31 48.6646 178.622 50.0779 177.365C50.3484 177.15 50.5235 177.017 50.6528 177.014ZM30.2039 177.404L34.5358 180.431L34.4107 182.985L30.0967 180.038L30.2039 177.404ZM104.019 178.594C104.116 178.608 104.232 178.719 104.334 178.959C104.597 179.971 105.257 181.362 106.168 181.634C106.542 181.739 106.23 182.263 105.889 182.189C104.118 181.822 103.461 180.544 103.674 179.086C103.732 178.794 103.857 178.565 104.019 178.594ZM68.0011 179.176C69.9813 184.221 69.9496 189.728 70.2837 194.937C70.7179 201.855 71.9304 206.529 72.3347 207.312C72.3347 207.312 70.3946 207.336 70.2916 207.047C70.2916 207.047 68.4522 197.865 68.7302 193.322C68.7544 188.235 67.7729 183.782 67.1654 181.776C66.5464 179.997 66.5061 181.176 68.0011 179.176ZM88.9293 180.068C88.0402 180.086 86.1906 180.577 86.1977 180.916C86.2007 181.061 86.8018 181.194 87.735 180.965C88.781 180.717 89.8168 180.76 90.6139 180.986C91.4598 181.227 91.5673 180.95 90.7841 180.611C90.4083 180.425 89.8183 180.05 88.9293 180.068ZM102.617 180.383C102.746 180.381 102.91 180.49 103.062 180.81C103.163 181.002 103.479 181.415 103.761 181.748C104.292 182.383 104.453 182.38 104.2 182.644C103.646 183.236 102.464 182.373 102.328 181.294C102.269 180.778 102.407 180.404 102.617 180.383ZM65.7589 181.014C67.7089 183.816 67.9899 190.366 68.0375 195.016C68.0758 199.213 69.4801 206.903 69.5925 206.868C69.1931 207.102 68.6576 207.017 68.1525 206.833C67.6539 206.181 67.3408 204.331 66.7688 199.353C66.6128 198.065 66.3179 193.969 66.266 190.676C66.2059 187.771 64.604 181.474 64.604 181.474C64.604 181.474 65.2093 181.025 65.7589 181.014ZM83.518 181.148C83.324 181.152 83.3865 181.829 83.5325 182.634C83.5871 184.49 83.8142 183.742 84.471 183.438C84.9552 183.396 85.365 183.662 86.2775 183.998C87.4346 184.426 87.3406 184.574 88.1408 184.17C88.6369 183.917 89.0397 183.844 89.2862 184.033C90.2404 184.821 91.4603 184.376 92.1588 183.748C92.7027 183.462 93.288 183.611 93.7419 183.667C94.4063 183.734 94.2357 183.301 94.3153 182.46C94.3808 181.716 94.1043 181.641 93.3335 181.899C92.5464 182.157 91.7708 182.189 91.0872 181.977C89.3459 181.448 88.0756 181.797 87.2212 181.928C85.1902 182.244 85.0726 182.037 84.614 181.756C84.2861 181.536 83.7116 181.128 83.518 181.148ZM30.1682 181.151L34.3324 183.891C34.271 184.828 34.258 185.765 34.2774 186.701L30.1903 183.782L30.1682 181.151ZM63.5903 181.721C65.3707 185.705 65.6468 189.672 65.7301 194.482C65.8081 199.034 66.8076 204.358 67.1797 206.708C66.5826 206.769 65.9528 206.814 65.7047 206.544C64.6981 203.223 64.3896 197.691 64.1131 193.708C63.771 188.112 63.6777 186.725 62.8922 183.931C62.4389 182.342 62.294 182.377 62.6275 182.08C62.8811 181.832 63.3799 181.709 63.5903 181.721ZM101.708 181.775C101.822 181.821 101.924 182.045 102.123 182.299C102.572 182.887 102.707 183.175 102.32 183.231C101.32 183.381 101.076 183.273 101.111 182.643C101.133 182.142 101.242 181.946 101.562 181.778C101.627 181.76 101.659 181.759 101.708 181.775ZM61.5076 182.668C62.9777 184.156 63.3446 192.513 63.5109 194.301C64.0358 204.044 64.9543 205.446 64.4843 206.182C63.9344 206.177 63.7283 206.375 63.3785 205.882C62.124 202.307 62.1937 198.64 61.9876 194.93C61.7077 189.995 61.2158 187.325 60.5185 184.885C60.0645 183.263 60.0638 183.231 60.8957 182.794C61.0553 182.694 61.378 182.655 61.5076 182.668ZM58.9578 183.706C59.1356 183.702 59.3303 183.73 59.5266 183.839C60.0362 185.024 61.0853 190.395 61.2137 195.043C61.3222 198.723 62.1991 205.939 62.3617 205.984C61.829 206.027 61.1962 205.927 60.9289 205.513C59.3266 198.408 59.8471 191.519 57.9851 184.372C58.0929 184.111 58.4406 183.716 58.9578 183.706ZM96.6094 183.914C95.9615 183.863 95.2371 184.023 94.4359 184.379C91.9976 185.333 91.367 186.122 91.7531 186.808C92.0723 187.383 93.0546 187.185 95.6519 186.098C97.5918 185.283 98.1976 185.642 98.5951 186.877C98.5682 188.702 96.8254 188.883 95.8343 188.662C95.672 188.633 95.4922 188.539 95.4922 188.539C95.4922 188.539 95.5817 188.957 95.9272 189.241C97.8858 190.896 100.408 187.727 99.1701 185.751C98.5645 184.617 97.6945 183.989 96.6094 183.914ZM81.0001 184.511C80.3528 184.492 79.7412 184.633 79.1366 185.114C77.1319 186.706 77.8383 189.582 79.5126 189.999C79.9864 190.232 80.6795 190.121 80.9506 189.937C81.2059 189.771 81.2002 189.496 80.6809 189.41C79.1231 189.151 78.2424 188.007 78.9942 186.829C79.7309 185.699 81.0776 185.914 83.6721 187.039C85.9239 188.01 86.9042 187.715 87.1712 186.547C87.2898 186.028 87.1505 185.547 86.0661 185.504C84.0112 185.45 82.4239 184.546 81.0001 184.511ZM30.2258 184.718L34.5435 187.842L34.6309 190.505L30.2156 187.35L30.2258 184.718ZM106.669 187.098C108.045 187.166 108.92 188.036 108.957 189.004C109.051 191.215 106.431 191.237 106.072 189.5C105.942 188.679 104.601 189.514 103.726 190.985C102.85 192.424 102.773 192.636 102.597 191.138C102.341 188.915 104.633 187.172 106.055 187.111C106.265 187.09 106.475 187.086 106.669 187.098ZM30.1359 188.192L34.7133 191.359C34.7133 191.359 34.8615 193.051 34.7673 193.974L30.1782 191.017L30.1359 188.192ZM90.1642 188.956C90.0188 188.959 89.8742 189.01 89.7301 189.078C89.394 189.246 89.1545 189.397 88.4393 189.218C87.3674 188.998 86.0847 188.75 85.0761 189.239C83.0828 190.604 84.2499 193.083 85.6464 193.361C87.1079 193.653 87.2159 192.618 85.7544 192.325C84.9718 192.018 84.7783 191.263 85.0737 190.692C85.7616 189.547 87.0543 190.28 87.8059 190.652C89.4717 191.441 90.319 191.746 90.8572 191.186C91.6643 190.33 91.1331 188.888 90.1642 188.956ZM30.1814 191.953L34.6766 195.058L34.5393 197.805L30.3186 194.679L30.1814 191.953ZM30.2756 195.73L34.5109 198.775C34.4541 199.939 34.4799 200.406 34.5273 201.132L30.2489 198.346L30.2756 195.73ZM105.13 196.317C108.516 196.651 107.401 200.582 105.034 199.517C104.41 199.045 104.216 199.081 103.508 200.808C102.616 203.006 102.386 202.833 102.511 200.279C102.589 197.791 103.723 196.33 105.13 196.317ZM97.3762 196.752C98.2989 196.797 99.2542 197.634 100.002 199.411L98.9689 199.48C98.0496 197.255 96.7488 196.91 95.6462 199.113L94.8491 198.887C95.5313 197.468 96.4373 196.707 97.3762 196.752ZM94.872 196.868C95.4051 196.841 95.3293 197.085 94.7789 197.839C94.3073 198.495 94.1962 198.594 93.7036 198.233C92.9312 197.635 94.2258 196.898 94.872 196.868ZM80.8028 196.868C81.6592 196.834 82.4798 197.414 82.9156 198.939L82.303 199.033C81.3871 196.969 79.4887 197.444 78.8976 199.361L78.0547 199.266C78.5284 197.932 79.6878 196.907 80.8028 196.868ZM78.3781 196.918C78.4589 196.916 78.5239 196.931 78.5569 196.962C78.7886 197.216 78.0984 198.247 77.5126 198.857C77.0819 199.14 76.031 198.371 76.2981 197.994C76.5979 197.633 77.8295 196.977 78.3781 196.918ZM99.7248 196.93C99.8221 196.944 99.9352 196.941 100.081 196.971C101.138 197.24 101.618 197.746 101.113 198.386C100.782 198.797 100.478 198.949 100.262 198.679C99.5425 197.498 99.1418 196.893 99.7248 196.93ZM83.0762 197.321C83.3503 197.283 83.6931 197.438 83.7456 197.63C83.852 198.08 83.5023 198.378 83.1229 198.015C82.9582 197.873 82.8236 197.617 82.8519 197.423C82.8994 197.373 82.9957 197.339 83.0762 197.321ZM30.2332 199.154L34.584 202.31C34.7201 203.421 34.7537 204.26 34.7532 205.019L30.2765 202.027L30.2332 199.154ZM92.3543 199.455C92.6129 199.45 93.218 199.776 93.6615 200.106C96.1714 201.831 99.1143 201.819 100.943 200.295C101.356 199.948 101.711 199.94 101.718 200.263C101.452 201.48 98.2661 203.031 95.7574 202.146C94.3889 201.658 93.2632 201.18 92.3633 199.891C92.1626 199.572 92.1926 199.459 92.3543 199.455ZM92.4658 200.938C92.4981 200.938 92.5466 200.937 92.6116 200.952C96.2676 204.138 99.1925 203.254 101.391 201.643C101.712 201.555 101.719 201.862 101.795 202.409C101.89 203.118 101.315 203.469 99.7242 203.938C96.6544 204.857 93.0597 203.849 92.4023 201.779C92.33 201.41 92.2075 200.96 92.4658 200.938ZM30.2127 202.852L34.6261 205.91L34.4802 208.238L30.1826 205.307L30.2127 202.852ZM30.2865 206.419L34.453 209.272L34.4443 211.194L30.3898 208.29L30.2865 206.419ZM103.254 207.272L114.197 228.926L48.2189 229.011C52.5207 221.979 56.1133 214.283 60.5302 207.346C78.3054 211.387 90.8956 209.465 103.254 207.272Z" fill="#025E0B"/>
<path d="M62.1888 20.1125C64.0842 23.3998 65.5939 26.8081 67.297 30.1801L67.5755 30.3521L67.9798 31.1349L68.0201 31.5217L69.0405 33.1638L69.0317 33.5193L73.3384 41.585C76.8848 40.2523 106.057 37.8422 116.86 41.7855L118.438 39.1049L118.81 39.0972L121.587 34.1957L121.546 33.7766L122.478 32.7078L122.613 32.2205L125.667 27.394L125.683 26.6187L129.513 20.1937L62.1888 20.1125ZM128.236 21.0435C128.236 21.0435 126.246 24.9115 125.212 26.483C124.373 25.8221 121.973 26.2753 122.107 28.84C118.179 27.3386 117.225 32.0734 120.271 33.1409C118.715 34.5132 117.211 32.9617 116.041 31.904C114.883 32.1862 112.475 33.0432 111.113 30.52C111.113 30.52 111.685 30.8312 112.242 31.1589C115.464 32.142 115.713 27.7608 113.321 27.0511C113.012 26.9768 112.446 26.9401 112.446 26.9401C113.249 23.5809 108.082 22.3957 107.988 26.4507C107.988 26.4507 107.372 26.3504 106.905 26.4407C104.166 26.9493 104.8 31.0216 107.593 30.8187C107.981 30.7946 108.322 30.8682 108.322 30.8682C108.271 31.5151 104.885 32.7638 102.445 30.5212C101.283 31.4171 99.462 32.5204 97.0714 30.309C98.6387 30.2444 100.15 29.7934 100.129 28.0014C100.121 26.839 99.0804 25.7948 97.5751 25.7289C97.4834 24.4229 96.5198 23.1832 95.2724 23.0797C93.7381 23.176 92.9552 24.4193 92.95 25.7273C91.643 25.8673 90.4378 27.0226 90.7077 28.3411C91.0845 30.1418 92.4638 30.3717 94.0416 30.0323C92.1168 33.1401 88.9946 31.5252 88.0361 30.5277C86.8939 31.6008 84.8865 33.0631 82.4194 31.0633C83.7248 30.8426 85.1962 30.0533 84.948 28.2176C84.7563 26.7683 83.1302 26.3336 82.4365 26.4125C82.4326 25.4437 81.7206 23.8597 80.0099 24.0241C78.1539 24.2077 78.2673 26.563 78.2838 26.5788C76.7448 26.4491 75.6342 28.2643 76.0789 29.4339C76.6093 30.8439 77.7182 31.2894 79.7641 30.9082C77.3852 33.1694 75.8631 32.2965 74.5596 31.8229C73.4043 33.0416 71.8599 33.4287 70.285 32.347C73.8139 32.5165 73.2473 26.2305 69.0737 28.5127C66.0896 24.9733 66.1547 26.5544 63.476 21.3617L128.236 21.0435ZM95.3259 27.2286C95.5037 27.2249 95.6822 27.2535 95.862 27.3467C96.4176 27.6259 96.5249 28.1241 96.1843 28.8578C96.0603 29.1187 95.8886 29.413 95.9266 29.6867C99.8118 36.9215 108.38 33.6768 109.201 30.3335C109.245 30.1226 109.159 29.8822 109.041 29.6585C108.706 29.1003 108.761 28.647 109.191 28.2829C110.096 27.473 111.409 28.4309 110.882 29.5075C110.742 29.801 110.587 30.111 110.708 30.496C112.914 35.537 117.289 35.9151 120.967 33.9177C119.267 36.9723 112.708 38.8515 109.952 31.4805C105.548 37.4813 98.5758 37.3668 95.3953 30.5858C92.5467 37.5073 83.9468 37.6684 80.82 31.9197C77.9644 38.5022 71.3679 37.0074 69.4878 32.8963C75.6285 37.3717 79.6718 32.7024 80.3905 30.7014C80.3905 30.7014 80.24 30.4623 80.0582 30.2723C79.266 29.4974 79.2954 28.5763 80.1128 28.2204C81.1545 27.7629 82.1293 28.7601 81.6 29.756C81.444 30.0338 81.3161 30.1011 81.4181 30.3412C83.322 34.8233 92.7285 36.1309 94.6361 29.8425C94.6934 29.4861 94.6702 29.1475 94.5028 28.8764C94.0181 28.1113 94.5826 27.2601 95.3259 27.2286ZM67.8709 29.7809C69.3604 29.8632 68.9341 31.1477 68.6452 31.2505L67.8709 29.7809ZM122.968 30.5824C122.984 30.6144 122.048 32.2484 122.048 32.2484C121.563 31.4511 121.688 30.4796 122.968 30.5824ZM117.948 38.8728C117.948 38.8728 117.005 40.9914 116.685 41.1595C99.11 36.613 74.5789 40.5744 73.9733 41.0067L72.8961 38.9621C88.3244 35.8666 103.685 36.5187 117.948 38.8728ZM88.2598 70.2782C86.5687 76.869 82.459 77.5513 77.4947 78.348C71.354 79.3466 67.3453 77.0879 65.4628 73.6388C65.4628 73.6388 56.6699 76.9851 53.4596 78.9244C60.1212 82.0004 68.9465 88.8264 73.9419 96.5711C75.7212 98.9404 75.6291 98.3933 75.6392 103.576C75.6291 114.815 75.6505 118.981 75.6505 118.981C78.4082 119.392 78.5611 121.311 78.395 123.446C80.6063 122.463 82.7335 123.663 82.7122 125.763C82.695 129.622 78.9376 128.569 78.1527 128.15C79.3711 131.548 77.945 132.966 76.4767 133.125C74.6696 133.324 72.598 132.462 73.1964 128.559C68.723 129.636 68.4891 125.362 68.282 121.604C73.1526 112.364 67.0297 104.836 61.2863 102.371C61.2863 102.371 62.9142 98.9784 65.013 98.0309C65.2218 97.962 63.7372 95.7643 61.2407 96.2517C60.093 96.2754 60.3516 96.27 59.2712 94.8551C57.1272 92.0574 56.1203 91.8521 54.0318 94.8664C53.1052 96.1934 52.8957 96.23 51.8127 96.2523C50.6165 96.277 48.7746 97.1386 48.3865 97.9217C48.2931 98.1012 48.7659 98.2851 49.3955 99.0149C50.2908 100.078 51.679 101.519 51.4673 103.009C46.7367 104.947 38.8758 113.474 47.1386 124.381L41.1729 124.455L40.8874 85.6264L36.731 87.9567L36.923 118.359L35.7344 117.963C35.8247 108.257 35.6729 98.5713 35.3753 88.8728L24.4318 96.914L24.9218 142.504L26.0913 142.755C26.9476 148.97 39.1641 144.617 39.8708 145.167L40.0228 170.5L39.4827 171.754L49.1993 177.109L58.1106 172.452C58.1106 172.452 59.3189 172.233 59.7668 171.998C63.4618 170.033 66.2201 170.476 68.2203 173.358C69.4539 175.141 69.6694 175.395 69.6694 175.395C70.4206 170.277 74.9255 168.375 79.3035 169.722C82.5257 170.705 86.9105 173.941 88.2534 177.886C88.2534 177.886 88.4921 178.478 88.7402 178.748L88.9197 178.825C88.9015 178.728 88.7134 178.232 88.6275 177.991C84.1263 167.556 71.4145 165.945 69.4563 174.479L67.6572 171.932L77.1098 166.086L90.0304 174.668C90.0304 174.668 89.4298 177.684 89.3595 178.977L89.5881 179.085C89.6847 177.501 90.1488 175.699 90.8815 174.376C91.1934 173.82 91.5401 173.377 91.9375 173.046C92.7044 172.594 93.4331 172.644 94.2102 171.901L92.3212 170.487L92.2752 165.918L96.0732 171.282C97.2641 170.999 101.909 169.611 104.674 171.153C104.983 171.243 109.034 170.094 111.545 175.775C115.986 173.891 120.942 171.915 124.447 170.148C112.371 165.649 100.172 149.737 101.347 149.487C101.347 149.487 101.314 147.857 101.409 143.85C101.51 139.391 101.448 134.823 101.534 130.348C97.4149 129.028 98.4453 125.68 98.4453 125.68C95.9663 126.232 95.5842 125.739 94.9606 125.3L94.5337 121.078C96.0113 119.804 96.8984 119.689 98.734 120.088C98.734 120.088 97.8389 118.249 98.6487 116.747C99.3356 115.554 101.147 114.79 102.588 115.632C104.408 116.838 104.101 119.218 103.631 119.922C103.615 119.938 103.599 119.971 103.6 119.987C105.538 119.124 107.919 120.092 108.493 122.034C108.779 116.296 109.277 109.891 110.419 104.894C112.529 95.8723 115.972 86.4196 120.282 78.9997C121.422 77.0546 122.572 75.5938 123.616 73.6507C123.616 73.6507 122.689 74.1703 121.724 74.4324C120.325 74.8165 119.265 75.1776 119.107 75.3423C118.074 76.2195 116.728 76.8607 115.639 77.3353C111.756 78.8525 109.154 76.581 107.53 73.1266C106.635 77.5372 102.637 81.2528 96.7186 78.9365C93.3827 77.1484 92.3403 76.0073 89.22 71.3566C88.9339 70.8135 88.2598 70.2782 88.2598 70.2782ZM88.3876 70.9862C90.597 75.3812 93.896 78.5104 97.1074 79.7521C102.839 81.6524 106.627 77.941 107.689 74.5443L108.795 76.4269L100.11 82.6452L86.9995 74.2443C87.2383 74.0617 88.4061 71.0988 88.3876 70.9862ZM127.82 71.3033L123.922 73.612C123.922 73.612 121.341 77.8153 120.468 79.3996C115.929 87.4862 112.521 96.2762 110.744 104.984C109.163 112.202 108.572 121.144 108.746 127.228L109.044 127.561C109.044 127.561 108.56 128.411 108.219 129.112C107.289 131.037 107.069 132.139 107.115 134.367C107.238 139.515 110.348 144.457 114.739 146.465C114.984 146.573 115.311 146.728 115.311 146.728C115.311 146.728 114.561 148.778 113.2 150.227C112.282 151.183 112.089 151.235 112.422 151.713C112.872 152.366 114.324 152.949 116.118 152.912C116.748 152.899 116.748 152.899 117.923 154.183C120.223 156.703 120.901 156.657 122.993 153.788C123.606 152.935 123.974 152.734 124.879 152.715C126.204 152.688 128.64 151.604 128.629 151.088C126.981 150.363 125.091 146.575 125.382 146.537C134.355 141.749 136.252 131.828 129.697 124.535L135.954 124.439L136.19 164.028C137.419 163.211 140.196 161.442 140.196 161.442L140.109 130.634C140.547 130.722 140.974 131.02 141.818 131.164L142.068 160.499C142.068 160.499 150.117 154.779 153.936 151.793L153.703 106.908L152.782 106.911L152.933 151.765L142.308 159.59L142.233 131.705C142.233 131.705 143.071 131.574 143.394 131.536C146.506 131.1 147.943 127.098 145.884 124.492C145.154 123.571 145.672 123.625 147.235 123.334C149.995 123.083 151.536 120.985 150.729 119.483C150.392 118.845 150.831 118.916 151.125 118.297C151.309 117.808 151.28 117.212 151.19 116.745C151.08 116.118 151.333 115.854 151.487 115.447C151.732 114.829 151.491 114.123 151.092 113.55C150.658 112.929 150.774 112.281 150.782 111.861C150.763 110.957 150.437 110.818 149.48 109.934C148.755 109.271 149.334 109.129 150.406 108.574C152.086 107.7 152.201 104.63 149.974 103.319C147.185 102.166 142.812 103.418 138.036 103.905C138.036 103.905 138.012 86.3526 137.89 77.3125L127.82 71.3033ZM127.817 71.917C127.817 71.917 137.361 77.5494 137.283 77.6964C134.076 82.1223 122.118 99.7599 122.041 121.076C113.27 119.965 109.693 126.869 109.256 126.846C108.102 100.743 118.615 82.0697 123.998 74.1433L127.817 71.917ZM121.553 74.7912L121.567 76.2281L119.657 79.2871L119.59 76.059L121.553 74.7912ZM118.885 76.3479L118.947 80.9326L115.079 83.9189L114.964 79.1255L118.885 76.3479ZM82.9733 77.3954L84.9586 78.7754L84.8911 83.3304L81.899 77.8373L82.9733 77.3954ZM137.47 78.9198L137.49 82.2134C129.855 93.0767 125.843 105.48 124.615 121.201L122.754 121.142C123.256 105.517 128.476 91.2644 137.47 78.9198ZM85.7287 79.2602L90.434 82.3603L90.234 87.5477L85.956 84.7778L85.5622 83.7203L85.7287 79.2602ZM114.26 79.4792L114.246 84.3075L110.599 87.031L110.436 82.2385L114.26 79.4792ZM70.1377 80.7442C70.6715 80.7493 71.1163 81.1439 71.2128 81.9009C71.6187 85.1059 74.0415 84.184 74.6111 85.1411C74.8283 85.4757 74.3167 85.7606 72.648 85.6174C69.6031 85.3895 67.3849 82.9164 68.9519 81.2693C69.349 80.922 69.7821 80.7515 70.1377 80.7442ZM91.155 82.8136L95.1865 85.3948L95.1674 90.7239L91.2199 88.3025L91.155 82.8136ZM109.51 82.8388L109.818 87.5476L105.415 90.4965L105.254 85.8171L109.51 82.8388ZM117.904 82.8595L115.38 88.2887L100.626 98.992L88.3809 90.9932L86.1057 85.7598L100.401 95.1536L117.904 82.8595ZM78.1013 85.0044C82.03 84.9557 85.0278 89.1569 86.0579 92.8334C86.8037 95.2724 86.9187 96.142 86.9985 99.9997C87.0799 103.938 87.2071 104.614 87.93 105.164C88.3738 105.51 88.5173 105.41 88.5676 104.715C88.6972 103.162 90.5283 104.125 90.5621 105.755C90.5994 107.563 88.6222 108.137 87.1707 106.762C86.3953 106.019 86.3795 106.036 86.1344 107.478C85.9766 108.45 84.8412 114.545 87.7189 116.068C88.2537 116.121 88.3902 115.682 87.9915 115.174C87.1781 114.157 88.8032 112.977 90.1104 113.629C91.6953 114.419 91.5383 116.99 89.8432 117.913C87.908 118.954 85.3929 117.763 84.2248 115.236C83.3617 113.38 83.3733 110.813 84.2321 106.984C84.6321 105.216 84.8031 104.098 84.9047 102.756C84.928 102.319 84.9827 101.834 85.0281 101.687C85.1168 101.282 84.9221 101.253 84.2179 101.607C82.3133 102.567 80.2454 101.883 79.7399 100.117C79.1304 98.0143 81.4626 95.8348 82.8969 97.1616C83.441 97.6671 83.3706 98.169 82.7303 98.489C81.5937 99.0453 81.98 100.523 83.187 100.24C87.1566 99.0437 83.5287 87.8313 79.0654 87.0514C76.1115 86.531 73.7882 89.9216 75.928 91.7344C76.7674 92.4437 77.6168 92.071 77.4341 91.0574C77.1787 89.6579 79.0255 89.8135 79.7018 91.2367C80.8174 93.5712 77.9459 95.4713 75.2668 94.1702C70.4695 91.3141 73.7531 85.0941 78.1013 85.0044ZM95.8761 85.8974L99.8289 88.5772L99.8555 93.776L95.9259 91.4349L95.8761 85.8974ZM104.602 86.3473L104.62 91.1265L100.796 93.9181L100.804 88.8315L104.602 86.3473ZM114.871 89.4781L112.914 94.96L100.589 103.449L90.43 97.0223L88.6757 91.956L100.643 99.783L114.871 89.4781ZM34.9111 89.8836L34.9029 117.641C30.9123 117.82 28.6172 121.792 31.606 125.557C31.606 125.557 31.09 125.632 30.4771 125.71C27.7843 126.088 25.9705 127.53 26.3299 129.267C26.4379 129.797 26.3361 130.348 26.1798 130.61C25.9358 131.326 25.9957 131.873 26.332 132.496C26.5845 132.975 26.5403 133.186 26.4022 133.544C26.0949 134.326 26.1719 134.922 26.5237 135.512C26.9695 135.955 26.8475 136.313 26.7811 137.008C26.7045 137.995 26.8906 138.395 27.5132 138.785C28.316 139.286 28.6078 140.103 27.7009 140.041C27.2473 140.002 25.6622 141.553 25.6622 141.553L25.5172 97.0045L34.9111 89.8836ZM56.5575 93.4417C57.2691 93.4432 58.0155 94.3483 59.0659 95.8768C59.7032 96.9778 59.716 96.8161 61.1705 96.7699C62.6607 96.8845 63.5742 97.2693 63.9557 97.7298C64.1048 97.9043 63.7175 97.9446 62.7674 98.9169C61.7855 99.9222 61.648 100.312 61.0083 101.44C60.7742 101.848 60.2573 101.875 60.0233 101.509C59.823 101.206 60.3205 100.243 61.2509 99.0934C62.5669 97.8229 62.2891 97.6834 60.385 97.8841C59.0457 98.0248 58.8988 97.9632 58.3965 97.1338C56.8783 94.0971 56.0721 94.2107 54.6305 97.2277C54.2276 98.0757 54.3882 98.0239 52.6711 97.8817C51.3268 97.7803 50.9943 98.1262 51.7529 98.8372C52.9375 99.8139 53.4061 102.146 53.3408 102.115L52.4208 102.198C52.4208 102.198 52.1349 101.671 52.0151 101.351C51.7586 100.678 51.091 99.6744 50.3634 98.8982C49.3375 97.7728 49.9071 97.1637 52.1981 96.9065C53.4728 96.7672 53.5048 96.7503 54.1014 95.8822C55.153 94.3426 55.8459 93.4403 56.5575 93.4417ZM112.455 96.1968L111.13 100.939L100.626 108.374L92.0821 102.624L90.9551 98.1742L100.772 104.447L112.455 96.1968ZM76.211 99.9476C76.211 99.9476 79.2452 105.908 80.344 109.777C81.3028 113.132 82.6363 122.874 82.293 123.478C81.5439 122.444 79.0744 122.673 79.0424 122.69C79.2453 121.555 78.3405 119.248 76.2288 118.791L76.211 99.9476ZM110.799 102.141L109.747 106.797L100.793 113.311L93.411 108.232L92.4446 103.73L100.612 109.23L110.799 102.141ZM58.764 102.39L59.9207 102.803L60.1434 111.227L69.101 112.722L69.3088 114.171L58.9403 112.479C58.8335 108.88 58.764 102.39 58.764 102.39ZM54.225 102.646L54.4761 112.442C54.3785 112.412 47.0099 113.468 44.1955 114.22L44.3618 112.876C44.3618 112.876 49.4811 111.754 53.1916 111.322C53.1995 108.577 53.1725 105.703 53.1632 102.91L54.225 102.646ZM137.513 104.448C137.513 104.448 138.729 104.568 141.339 104.095C148.058 102.907 149.879 103.386 150.731 105.483C151.671 108.726 148.147 108.799 147.522 106.745C147.123 105.413 145.673 105.701 140.862 106.85C136.742 107.839 134.123 107.053 134.187 104.694C134.234 102.271 136.979 102.069 137.513 104.448ZM82.2995 102.68C83.1239 102.663 83.8172 103.343 83.8345 104.183C83.8519 105.022 83.187 105.714 82.3461 105.715C81.5217 105.732 80.8288 105.068 80.8276 104.228C80.7941 103.389 81.459 102.698 82.2995 102.68ZM60.4574 102.953L61.5151 103.27C61.5151 103.27 61.6797 109.661 61.6958 109.661C63.9864 110.163 68.776 111.081 68.776 111.081L69.0286 112.352C67.0297 111.876 60.62 110.813 60.62 110.813C60.4333 108.04 60.4574 102.953 60.4574 102.953ZM52.7136 103.064C52.7136 103.064 52.7221 108.167 52.633 110.897C52.665 110.881 47.2012 111.768 44.4319 112.358L44.6534 111.336C46.8424 110.839 49.2416 110.338 51.6566 109.82C51.6152 107.818 51.6049 103.41 51.6049 103.41L52.7136 103.064ZM56.6175 104.163C57.2802 104.149 57.8415 104.702 57.8552 105.364C57.8692 106.042 57.3306 106.586 56.6517 106.6C55.9728 106.614 55.4442 106.076 55.4302 105.398C55.4165 104.736 55.9547 104.176 56.6175 104.163ZM147.535 107.342C148.286 108.457 148.899 108.412 149.641 108.316C149.464 108.368 148.586 108.886 148.638 109.063C148.656 109.143 148.28 110.556 148.864 110.608C151.1 110.821 149.967 113.153 150.234 113.519C150.83 114.217 151.276 114.644 150.857 115.509C150.485 116.275 149.967 116.254 150.369 116.907C151.254 118.262 150.03 118.529 150.13 119.447C150.206 119.995 150.399 120.75 150.198 121.19C149.595 122.494 147.427 123.233 145.035 123.331C144.696 123.354 144.959 122.784 144.79 122.432C144.2 122.056 144.527 121.42 144.728 120.996C144.927 120.443 144.927 120.443 144.566 120.16C143.55 119.519 143.592 119.227 143.679 118.757C143.91 117.396 143.697 117.255 143.288 117.053C142.766 116.79 142.835 116.223 143.062 115.476C143.229 114.972 143.113 114.829 142.861 114.365C142.71 114.094 142.674 113.95 142.671 113.772C142.737 113.06 142.123 113.073 141.231 113.753C140.482 115.044 140.226 116.745 139.763 117.82C139.408 118.651 139.345 119.508 139.772 121.405C140.592 124.311 139.988 124.791 136.741 124.18C134.302 123.568 133.585 120.951 134.263 117.74C134.365 117.221 134.339 116.721 134.298 116.302C134.026 114.096 134.596 111.969 136.135 110.516C138.688 108.089 139.958 107.724 145.237 108.067C147.31 108.218 147.458 108.345 147.458 108.345C147.458 108.345 147.47 107.359 147.535 107.342ZM109.465 108.014L108.846 112.516L103.792 116.011C101.566 113.941 99.2196 114.636 98.0836 116.791C96.7761 116.123 94.1834 114.304 94.1834 114.304L93.5118 109.199L100.732 114.249L109.465 108.014ZM56.7193 109.085C57.382 109.072 57.9268 109.61 57.9408 110.287C57.9548 110.965 57.4162 111.509 56.7535 111.523C56.0907 111.537 55.5298 110.999 55.5158 110.321C55.5179 109.643 56.0562 109.083 56.7193 109.085ZM108.644 113.698L108.378 118.032L106.611 119.376L104.328 119.262C104.532 118.159 104.209 116.632 104.225 116.615L108.644 113.698ZM56.6861 113.737C57.3488 113.723 57.9101 114.276 57.9238 114.938C57.9378 115.616 57.3993 116.16 56.7203 116.174C56.0576 116.188 55.5128 115.65 55.4988 114.972C55.5009 114.294 56.023 113.734 56.6861 113.737ZM61.5563 113.862C62.2191 113.848 62.7638 114.386 62.7779 115.064C62.7919 115.742 62.2533 116.286 61.5905 116.3C60.9278 116.313 60.3669 115.776 60.369 115.098C60.355 114.42 60.8936 113.876 61.5563 113.862ZM51.8905 114.094C52.5533 114.08 53.1142 114.618 53.1121 115.296C53.1261 115.974 52.5875 116.518 51.9248 116.531C51.262 116.545 50.7011 116.008 50.687 115.33C50.6895 114.668 51.2116 114.108 51.8905 114.094ZM141.76 114.291C142.099 114.268 142.611 114.774 142.352 115.539C142.03 116.401 142.246 116.703 142.794 117.403C143.26 118.007 143.18 118.089 143.107 118.462C142.997 120.967 144.608 119.884 143.902 121.707C143.749 122.098 143.955 122.675 144.029 123.142C143.874 122.709 140.932 122.754 140.682 123.195C140.261 123.139 139.734 120.34 140.163 119.976C140.212 119.975 140.529 120.453 140.68 120.724C141.082 121.394 141.162 121.376 141.033 120.588C140.548 117.481 140.838 114.31 141.76 114.291ZM66.4375 114.52C67.1003 114.507 67.6613 115.044 67.6591 115.723C67.6731 116.4 67.1345 116.944 66.4718 116.958C65.809 116.972 65.2642 116.434 65.2502 115.756C65.2362 115.078 65.7744 114.518 66.4375 114.52ZM46.8582 114.73C47.5209 114.717 48.0657 115.255 48.0797 115.933C48.0937 116.61 47.5552 117.154 46.8924 117.168C46.2297 117.182 45.6687 116.644 45.6547 115.966C45.6572 115.304 46.1954 114.744 46.8582 114.73ZM94.2482 115.094L97.871 117.457C97.917 118.118 97.7274 118.332 98.0777 119.633C95.712 119.407 94.5112 120.772 94.5112 120.772L94.2482 115.094ZM68.4681 118.871L68.1873 120.152C61.0497 118.297 53.0752 118.203 45.4519 120.233L44.8577 118.873C52.5558 116.551 60.7368 116.463 68.4681 118.871ZM34.6842 118.792C35.7187 118.771 36.7781 119.169 37.5394 120.009C38.9467 121.595 38.2636 124.532 36.2779 125.477C33.2989 126.878 30.2131 123.89 31.4751 120.796C31.9822 119.51 33.3425 118.82 34.6842 118.792ZM108.224 119.165L108.17 120.458L107.265 119.702L108.224 119.165ZM89.3045 119.232C90.6138 119.205 91.6869 120.265 91.7143 121.589C91.7255 122.912 90.6806 124 89.371 124.011C88.0616 124.038 86.9885 122.978 86.9612 121.654C86.95 120.33 87.9948 119.243 89.3045 119.232ZM34.7434 119.308C34.4201 119.315 33.889 119.438 33.6512 119.669C33.0166 120.264 33.6474 120.267 34.4916 120.427C35.9689 120.704 36.3836 121.987 36.2506 123.378C36.1312 124.64 36.5511 124.615 36.8812 124.156C38.2647 122.239 37.0912 119.453 34.7434 119.308ZM56.7006 120.696C58.4787 120.659 58.6688 123.594 57.0874 126.889C56.6229 127.883 56.3777 127.759 55.8617 126.268C54.5888 122.58 54.874 120.733 56.7006 120.696ZM60.8098 120.773C61.1489 120.749 61.4914 120.888 61.7567 121.205C62.7173 122.3 61.9777 124.075 59.4306 126.808C58.8136 127.467 58.4956 127.731 58.2693 127.736C57.6389 127.749 57.6366 127.636 58.3637 125.264C58.82 123.865 59.065 120.857 60.8098 120.773ZM55.0623 125.929C55.2522 126.507 55.3925 127.037 55.3622 127.134C55.2095 127.573 54.0653 126.983 53.2694 126.031C51.6452 124.127 50.9963 122.46 51.3338 121.582C51.8203 120.861 53.2189 120.461 53.6704 121.178C54.5231 122.533 54.5279 124.325 55.0623 125.929ZM65.6119 121.513C67.3308 122.527 65.3577 124.861 61.5004 126.798C59.8518 127.623 59.9734 127.249 61.2174 125.625C61.6896 125.001 62.3317 123.987 62.6423 123.367C63.3413 121.98 64.0407 120.609 65.6119 121.513ZM48.47 121.511C49.0196 121.5 49.5657 122.103 50.5993 123.599C51.3504 124.73 52.6676 125.865 53.0595 126.826C52.8872 127.879 47.5299 124.534 47.1449 123.121C47.0141 122.268 47.6938 121.511 48.47 121.511ZM125.138 124.581C126.101 126.58 126.191 127.821 125.393 128.29C124.258 128.927 122.798 127.956 122.768 126.519C122.758 126.035 122.271 124.366 121.828 123.277C121.454 122.38 121.41 121.832 121.717 121.793C122.885 121.995 124.65 123.654 125.138 124.581ZM118.735 123.066C118.182 124.482 118.123 126.324 117.694 127.447C116.913 129.563 114.386 127.822 115.248 125.689C116.017 123.768 117.981 121.774 118.756 121.709C119.272 121.682 118.78 122.904 118.735 123.066ZM120.297 121.968C120.684 121.928 121.009 122.777 121.508 124.22C122.179 126.16 122.162 127.678 121.431 128.323C119.875 129.695 118.232 127.695 118.86 125.179C119.368 123.166 119.861 122.009 120.297 121.968ZM67.9249 122.321C69.8634 151.153 55.2014 173.319 54.1627 173.922L49.1741 176.673L40.4229 171.864C49.4946 159.324 54.9063 144.97 55.3212 128.281C63.7155 129.125 68.0388 122.351 67.9249 122.321ZM116.005 122.412C116.616 122.238 116.19 122.779 115.578 123.664C114.934 124.598 114.082 127.166 113.427 127.568C111.938 128.293 110.244 126.907 111.141 125.709C111.975 124.61 114.429 122.848 116.005 122.412ZM124.903 122.616C125.146 122.611 125.569 122.764 126.207 123.09C129.327 124.624 130.857 126.643 129.518 127.607C128.578 128.289 127.581 127.76 126.654 125.971C126.335 125.364 125.75 124.455 125.368 123.963C124.67 123.057 124.499 122.608 124.903 122.616ZM142.406 123.644C144.411 123.618 146.045 125.216 146.086 127.233C146.112 129.251 144.513 130.915 142.508 130.94C140.504 130.965 138.869 129.352 138.827 127.335C138.802 125.317 140.401 123.669 142.406 123.644ZM141.31 124.587C138.954 125.636 139.662 129.368 141.695 129.907C142.557 130.148 143.6 129.787 143.171 129.376C140.485 128.527 140.477 126.541 141.546 125.082C141.719 124.836 141.486 124.502 141.31 124.587ZM43.206 129.71C43.12 131.811 43.5587 134.256 42.5712 136.554C41.0592 140.073 36.1923 141.675 33.5983 141.357C33.0599 141.126 32.4251 140.929 31.896 141.15C31.5754 141.285 31.171 141.278 30.8279 141.107C30.5012 140.952 30.1819 141.153 29.8563 141.046C29.4792 140.796 28.8688 140.211 28.9406 139.773C29.0572 139.157 29.0155 138.706 28.2999 138.511C27.324 138.24 27.1187 137.696 27.41 136.14C27.4676 135.799 27.5454 135.652 27.3319 135.495C26.6103 135.01 26.3327 134.095 26.8144 133.148C27.1264 132.593 27.3325 132.395 26.8682 131.839C26.5198 131.41 26.6263 131.085 27.0982 130.446C27.6031 129.838 27.6987 129.771 27.3644 129.245C26.645 128.081 27.4678 127.209 28.4445 126.736C29.7593 126.193 30.9017 125.911 32.2892 125.753C32.8071 125.774 32.7845 126.243 33.0845 126.673C33.5359 127.39 32.8942 128.421 33.2737 128.785C33.8124 129.032 34.0491 129.527 34.0096 129.964C33.9976 130.949 34.0535 131.304 34.3208 131.718C34.6215 132.18 34.7196 133.018 34.4568 133.604C34.2085 134.11 34.2402 134.077 34.5537 134.377C34.8671 134.678 35.0275 136.176 34.9137 136.146L36.2533 136.022C36.1109 136.17 36.7614 133.218 38.2991 130.942C38.2136 129.151 37.5329 127.518 37.5973 125.159C40.9197 123.944 43.3237 126.801 43.206 129.71ZM94.8881 125.705C95.3649 126.083 97.7561 126.76 97.8353 126.678C97.762 127.826 98.4553 130.072 100.945 130.812C100.979 134.025 100.946 148.833 100.946 148.833C97.477 142.978 95.3319 135.433 94.8881 125.705ZM36.9724 126.221C36.9724 126.221 37.1108 126.655 37.2248 127.476C37.4377 129.167 37.216 129.398 36.7717 128.244C36.2587 126.898 36.2319 127.948 36.8133 131.037C36.958 131.776 36.9455 131.954 36.7619 132.459C36.655 132.768 36.4441 133.515 36.2779 134.083C35.8115 135.772 35.5306 136.263 35.05 134.916C34.8093 134.227 34.5968 134.118 34.7798 133.581C34.9924 132.915 34.9494 132.399 34.4993 131.747C34.4323 131.635 34.2656 131.396 34.2351 130.702C34.3644 129.133 33.6848 129.115 33.5471 128.714C33.5668 128.1 33.2936 126.62 33.6987 126.66C34.0388 126.686 35.2848 126.724 35.8786 126.502C36.1514 126.4 36.9724 126.221 36.9724 126.221ZM88.5798 126.417C89.873 126.39 90.9134 127.434 90.9401 128.726C90.9506 130.017 89.9378 131.088 88.6443 131.098C87.3508 131.109 86.2945 130.081 86.284 128.789C86.2573 127.498 87.3028 126.443 88.5798 126.417ZM52.6279 127.852L54.3975 128.187C54.7884 128.325 54.5031 152.843 40.3794 170.541L40.2623 166.442C46.9808 156.631 51.8102 144.614 52.6279 127.852ZM82.5558 128.366L82.8709 134.221C81.883 133.369 79.3596 131.774 79.3751 131.741L79.3789 129.578C79.395 129.577 81.5493 129.743 82.5558 128.366ZM68.9408 128.436C69.3651 128.621 69.7294 129.034 70.1075 129.333L68.9594 130.115L68.9408 128.436ZM109.376 128.733C116.991 131.014 124.493 130.94 131.914 129.285L132.429 130.712C124.372 132.913 116.381 132.787 108.436 130.222L109.376 128.733ZM72.4789 129.833L72.887 132.36L68.5948 135.161L68.8066 131.33L71.0403 129.863L72.4789 129.833ZM110.542 131.938C111.237 131.924 111.815 132.494 111.813 133.188C111.811 133.882 111.273 134.459 110.578 134.473C109.883 134.487 109.321 133.917 109.307 133.223C109.293 132.529 109.847 131.953 110.542 131.938ZM130.112 132.052C130.807 132.037 131.384 132.607 131.383 133.301C131.397 133.995 130.843 134.572 130.148 134.586C129.453 134.6 128.891 134.031 128.877 133.337C128.862 132.626 129.416 132.05 130.112 132.052ZM93.4513 135.989C94.0103 137.996 93.8936 142.519 93.1646 145.586C92.9412 146.511 92.8146 149.776 92.8146 149.776C92.6725 149.94 97.1366 146.069 98.5679 151.159C99.0569 152.909 97.0536 154.565 95.7177 154.092C95.4571 154 95.5361 153.127 95.7844 152.621C96.5292 151.104 94.4105 150.308 93.2093 151.657C90.4278 154.782 93.2915 162.668 97.6575 163.434C101.277 164.069 104.193 160.425 101.771 158.262C100.717 157.315 99.0135 158.626 99.7982 159.821C100.633 161.111 99.1079 161.627 97.951 160.424C95.9348 158.334 98.1988 155.203 101.238 155.932C106.096 157.043 105.09 164.701 100.005 165.129C96.1144 165.452 93.4917 163.745 91.8441 160.711C90.2962 157.804 90.1835 155.482 90.8866 150.381C91.3091 147.352 90.9651 144.792 90.1245 144.809C89.6719 144.819 89.3044 145.036 89.235 145.586C89.0802 146.704 88.9549 146.9 88.2673 146.495C87.3834 145.98 86.8964 144.327 88.3289 143.215C89.793 142.071 91.7058 143.856 91.6151 144.165C91.6465 144.116 91.8021 143.822 92.0013 142.51C92.6416 138.282 91.223 133.806 89.4589 134.521C89.074 134.674 89.1262 134.851 89.6174 135.147C90.7957 135.817 89.7635 137.518 88.2882 137.339C86.1969 137.091 85.732 134.162 87.5649 132.864C90.4759 131.303 92.8233 133.773 93.4513 135.989ZM79.212 132.455C79.212 132.455 82.9139 134.737 83.1038 135.314C83.2246 135.683 83.3732 138.958 83.3732 138.958L76.9502 134.908L67.738 140.653C67.8898 139.39 68.5504 136.147 68.5504 136.147L73.4506 133.026C73.4866 133.203 76.8481 135.443 79.212 132.455ZM125.192 132.686C125.887 132.672 126.465 133.241 126.463 133.935C126.478 134.629 125.924 135.206 125.229 135.22C124.534 135.235 123.956 134.665 123.958 133.971C123.943 133.277 124.497 132.684 125.192 132.686ZM115.393 132.694C116.088 132.68 116.665 133.249 116.68 133.943C116.694 134.637 116.124 135.23 115.429 135.229C114.734 135.243 114.172 134.673 114.158 133.979C114.143 133.285 114.698 132.709 115.393 132.694ZM120.315 132.98C121.01 132.966 121.588 133.535 121.602 134.229C121.616 134.924 121.062 135.5 120.367 135.514C119.672 135.529 119.094 134.959 119.096 134.265C119.066 133.571 119.62 132.995 120.315 132.98ZM107.981 134.785C111.311 135.491 114.656 136.197 117.85 136.551L117.973 146.447L117.034 146.386L116.9 137.54C113.806 137.313 110.898 136.646 108.166 135.927L107.981 134.785ZM132.778 135.113L132.609 136.279C132.609 136.279 126.84 137.286 123.824 137.671C123.768 139.659 123.776 146.311 123.776 146.311L122.616 146.529L122.618 136.453C126.039 136.076 129.459 135.698 132.778 135.113ZM76.9497 135.667L83.7383 140.194L84.5329 144.989L76.6122 139.679C76.6122 139.679 69.4356 144.542 66.7563 146.357L67.5684 141.835L76.9497 135.667ZM108.308 136.554C111.037 137.144 113.783 137.749 116.505 137.984L116.621 145.942L115.369 145.613L115.267 139.156C113.129 138.974 110.937 138.551 108.728 138.08L108.308 136.554ZM132.49 136.798L132.254 137.885C132.254 137.885 127.885 138.557 125.613 138.959C125.42 139.011 125.483 145.969 125.483 145.969L124.403 146.137L124.284 138.017L132.49 136.798ZM120.234 137.681C120.929 137.667 121.491 138.236 121.505 138.93C121.519 139.624 120.965 140.201 120.27 140.215C119.575 140.23 118.997 139.66 118.999 138.966C118.985 138.272 119.539 137.695 120.234 137.681ZM76.8407 140.562L84.8778 146.032C84.8778 146.032 85.8098 148.871 86.0042 150.449L76.7592 144.439L65.1947 152.17L66.5352 147.395L76.8407 140.562ZM28.1678 140.726C28.6369 140.732 29.1127 141.062 29.3706 141.799C29.7155 142.842 30.3688 143.151 32.0823 143.116C35.4422 142.933 38.967 141.343 42.129 142.537C43.677 143.103 44.2258 145.401 42.9281 145.992C41.5345 146.635 40.9277 146.227 40.4521 145.123C40.0056 144.648 39.4412 144.724 36.4281 145.254C35.1066 145.475 33.542 145.669 32.2343 145.777C28.8764 146.056 27.0268 144.98 26.6133 142.97C26.3276 141.668 27.3751 140.71 28.1678 140.726ZM120.173 142.575C120.869 142.561 121.446 143.13 121.445 143.824C121.459 144.518 120.905 145.111 120.21 145.109C119.515 145.124 118.937 144.554 118.939 143.86C118.908 143.166 119.478 142.589 120.173 142.575ZM95.56 144.116C96.4652 144.097 97.2079 144.825 97.227 145.745C97.2457 146.649 96.5175 147.406 95.6122 147.425C94.707 147.444 93.9643 146.716 93.9614 145.796C93.9585 144.876 94.6547 144.135 95.56 144.116ZM76.8573 145.277C76.8573 145.277 83.4665 149.726 86.533 151.778L88.2189 156.669L76.9566 149.295L63.1875 158.331L64.846 153.291L76.8573 145.277ZM124.563 146.812C125.163 148.447 126.255 149.683 127.397 150.936C127.397 150.936 126.759 152.16 124.478 152.094C123.232 152.055 123.155 152.25 122.736 153.099C122.031 154.179 121.463 154.885 121.017 155.233C120.222 155.847 118.715 154.926 117.479 153.046C117.028 152.361 116.847 152.203 115.489 152.231C113.404 152.274 112.648 151.692 113.728 150.749C114.675 149.583 115.344 148.31 116.192 147.098L117.132 147.207C117.167 147.352 116.407 149.693 115.327 150.636C114.774 151.261 115.539 151.487 116.891 151.201C117.743 150.941 117.955 151.05 118.597 152.36C119.91 154.869 120.587 154.742 122.152 152.206C122.694 151.081 122.676 150.968 124.17 151.293C125.775 151.454 126.255 151.25 125.597 150.682C124.264 149.547 123.529 146.849 123.529 146.849L124.563 146.812ZM76.9097 150.152C76.9097 150.152 88.8619 158.044 88.8259 157.867L91.2236 163.55L77.2026 154.151L60.0668 165.387L62.6349 159.764L76.9097 150.152ZM77.3728 155.342L81.5373 158.098L81.527 163.072L77.2789 160.188L77.3728 155.342ZM76.3082 155.477L76.3774 160.384L72.6396 162.625L72.4313 158.028L76.3082 155.477ZM71.6024 158.61L71.7804 163.305L67.4763 166.317L67.4863 161.327L71.6024 158.61ZM82.5684 158.691L86.4878 161.323L86.6451 166.583L82.3987 163.781L82.5684 158.691ZM87.4057 161.917L91.3274 164.662L91.4686 169.923L87.4502 167.197L87.4057 161.917ZM66.6093 161.926L66.5966 166.787L62.6904 169.483L62.5077 164.562L66.6093 161.926ZM107.96 168.195C107.184 169.002 106.891 168.911 106.233 167.568C105.541 166.178 104.509 165.521 103.006 165.552C101.114 165.591 102.35 164.338 104.352 164.184C107.826 164.031 109.588 166.369 107.96 168.195ZM61.5176 165.164L61.7144 169.988L57.7826 172.233L57.7032 169.958L59.7002 166.429L61.5176 165.164ZM56.978 170.861L57.0295 172.571L56.0245 173.238L56.978 170.861ZM103.425 206.961C87.0519 210.496 71.3557 209.237 60.0894 207.145L54.9363 216.019L54.5804 216.01L53.2531 218.298L53.3881 218.57C53.3881 218.57 49.112 226.845 47.3062 229.45C68.341 229.242 114.525 229.145 114.525 229.145L111.706 223.439L111.865 223.29L109.09 217.341L108.179 216.31C108.179 216.31 107.623 215.239 107.211 214.085C106.834 213.027 105.204 210.106 105.204 210.106L104.978 210.127L103.425 206.961ZM60.6775 208.214C60.8913 208.388 81.6402 212.336 103.161 208.275L104.334 210.253C85.5037 214.614 58.2656 210.444 59.3409 210.05L60.6775 208.214ZM61.0493 212.114C62.9399 212.043 64.8693 213.069 66.1662 214.786C66.5816 215.327 67.2619 216.944 67.2619 216.944C67.2619 216.944 68.1685 215.423 69.0583 214.662C70.4093 213.52 72.1522 212.564 74.6766 212.641C77.0069 212.722 79.5721 213.993 81.8796 217.659C82.4666 215.548 90.1121 208.334 96.4106 217.311C97.1375 214.923 100.5 210.154 105.97 213.497C106.342 214.297 106.733 215.193 106.733 215.193C103.516 212.918 98.195 214.449 96.9422 217.995C96.8219 218.433 96.9721 218.656 97.1424 219.073C98.8089 221.46 94.49 221.404 95.7599 219.472C95.9934 219.032 96.0184 218.676 95.6342 218.086C94.6161 216.557 91.5688 214.65 89.3381 214.696C86.7517 214.749 83.893 216.488 82.939 218.057C82.5789 218.63 82.5101 219.213 82.8117 219.723C83.0326 220.235 82.9604 220.657 82.5788 220.971C81.6883 221.7 80.5711 220.851 81.0016 219.777C81.2829 219.303 81.2383 218.706 80.6555 217.895C79.4896 216.255 76.8018 214.535 74.4418 214.583C71.0799 214.669 67.6697 217.113 67.8889 219.111C67.9881 219.997 67.7362 220.325 67.0226 220.226C66.1467 220.099 66.0488 219.278 66.6656 218.603C66.7582 218.391 66.9088 217.855 66.626 217.473C63.065 212.622 57.7577 214.039 56.5351 215.13C57.7057 213.088 59.3688 212.181 61.0493 212.114ZM57.8844 215.474C59.2106 215.479 60.6548 216.498 61.1079 217.296C61.4404 216.951 64.4506 215.5 65.9165 217.569C62.0778 217.277 62.0332 221.379 64.8717 221.789C63.5792 225.755 69.3735 225.991 69.0054 222.269C73.3367 222.922 72.8016 217.378 68.7223 217.963C70.857 216.401 72.3228 216.904 74.8825 218.692C75.7486 217.56 79.2683 216.502 80.134 218.487C76.102 218.231 76.7818 222.948 79.8065 222.982C78.9038 226.247 84.8474 227.448 83.9218 222.575C87.679 222.836 87.1364 217.713 83.5391 218.142C83.811 217.216 87.4734 216.801 89.0791 218.593C90.5709 217.222 92.201 216.284 95.1685 218.241C91.1278 217.566 91.0753 222.847 94.8366 222.527C94.4888 226.038 99.7941 226.09 98.9018 222.04C102.938 220.939 100.713 216.577 97.7465 217.784C99.0723 216.207 101.319 216.952 102.199 217.273C104.947 214.1 107.347 216.747 107.347 216.747C102.566 216.248 103.598 223.122 108.268 220.619C108.265 222.04 108.872 223.255 110.769 223.458L113.033 228.175L48.8733 228.594L52.4145 222.32C52.7724 222.426 54.8142 222.626 55.2656 220.211C59.4819 221.561 59.7677 216.614 56.6141 215.823C56.9974 215.589 57.4318 215.483 57.8844 215.474ZM55.3826 217.269C55.8011 217.955 55.4545 218.398 54.7271 218.413C54.7271 218.413 55.198 217.725 55.3826 217.269ZM108.152 218.151L108.575 219.031C108.118 218.846 108.066 218.654 108.152 218.151Z" fill="#025E0B"/>
<path d="M130.752 223.346C138.574 223.132 142.109 214.357 136.324 207.508C135.466 206.545 135.359 205.903 136.966 206.866C140.931 209.434 148.431 207.722 148.752 199.804C149.181 189.959 135.466 187.07 132.895 197.556C132.788 198.627 131.824 198.627 132.038 197.021C132.252 192.741 133.645 188.782 135.466 184.929C132.359 184.929 128.931 184.929 126.145 184.929C127.966 188.782 129.359 192.741 129.573 197.021C129.788 198.627 128.931 198.627 128.716 197.556C126.145 187.07 112.323 189.959 112.859 199.804C113.287 207.829 120.788 209.542 124.645 206.866C126.145 205.903 126.145 206.438 125.288 207.508C119.395 214.357 122.93 223.239 130.752 223.346Z" fill="#025E0B"/>
<path d="M47.9289 26.2354C55.7504 26.4494 59.2862 35.224 53.5004 42.0726C52.6433 43.0357 52.5361 43.6778 54.1433 42.7148C58.1076 40.1465 65.6078 41.8587 65.9292 49.7773C66.3578 59.6221 52.6432 62.5114 50.0718 52.0245C49.9646 50.9544 49.0003 50.9544 49.2146 52.5595C49.4289 56.8399 50.8218 60.7993 52.6433 64.6516C49.5361 64.6516 46.1074 64.6516 43.3217 64.6516C45.1431 60.7993 46.536 56.8399 46.7503 52.5595C46.9646 50.9544 46.1074 50.9544 45.8932 52.0245C43.3217 62.5114 29.4999 59.6221 30.0357 49.7773C30.4642 41.7516 37.9644 40.0395 41.8216 42.7148C43.3216 43.6778 43.3217 43.1427 42.4645 42.0726C36.5715 35.224 40.1073 26.3424 47.9289 26.2354Z" fill="#025E0B"/>
<path d="M29.6002 95.8C28.6002 95.8 27.9002 96.9 28.1002 97.8C28.2002 98.3 28.5002 98.6 28.7002 99C28.1002 98.9 27.5002 98.6 26.9002 98.8C26.3002 99.1 25.9002 99.8 26.0002 100.5C26.0002 101.3 26.6002 101.9 27.3002 102.1C27.8002 102.2 28.4002 102.1 28.8002 101.8C29.0002 101.7 29.2002 101.5 29.4002 101.4C29.3002 102.1 28.9002 102.8 28.7002 103.5C29.2002 103.6 29.8002 103.6 30.4002 103.6C30.6002 103.6 31.2002 103.8 31.0002 103.4C30.7002 102.7 30.4002 102 30.3002 101.3C30.4002 101.2 30.5002 101.4 30.6002 101.5C31.0002 101.9 31.6002 102.4 32.2002 102.2C33.2002 102 33.9002 100.9 33.6002 99.9C33.4002 99.3 33.0002 98.8 32.4002 98.6C31.9002 98.5 31.4002 98.8 30.9002 98.8C31.2002 98.3 31.6002 97.7 31.5002 97.1C31.4002 96.2 30.5002 95.7 29.6002 95.8Z" fill="#025E0B" fill-opacity="0.9698"/>
<path d="M29.9002 107.9C28.9002 107.9 28.1002 108.9 28.3002 109.9C28.4002 110.3 28.8002 110.6 28.9002 111.1C28.5002 111 28.0002 110.7 27.6002 110.8C26.8002 110.9 26.2002 111.8 26.2002 112.6C26.2002 113.1 26.3002 113.5 26.6002 113.9C27.0002 114.3 27.6002 114.7 28.2002 114.4C28.6002 114.2 28.9002 113.7 29.3002 113.5C29.3002 114.1 29.0002 114.7 28.8002 115.3C28.8002 115.5 28.5002 115.7 28.8002 115.8C29.5002 115.8 30.3002 115.8 31.0002 115.7C31.1002 115.5 30.9002 115.3 30.9002 115.1C30.7002 114.6 30.5002 114 30.4002 113.5C30.5002 113.4 30.6002 113.6 30.7002 113.6C31.1002 113.9 31.5002 114.4 32.0002 114.3C33.1002 114.3 33.8002 113.1 33.6002 112.1C33.5002 111.1 32.4002 110.3 31.5002 110.8C31.4002 110.8 31.3002 111 31.2002 110.9C31.3002 110.4 31.7002 110 31.6002 109.5C31.8002 108.6 30.8002 107.9 29.9002 107.9Z" fill="#025E0B" fill-opacity="0.9698"/>
<path d="M60.1 130.7C59.8 130.8 60.1 131.1 60.2 131.3C60.5 132 60.9 132.8 60.8 133.6C60.7 133.7 60.4 133.5 60.3 133.4C59.7 132.8 58.9 132.2 58 132.3C56.8 132.5 56 133.7 55.8 134.9C55.7 136.1 56.4 137.4 57.6 137.5C58.3 137.6 58.9 137.1 59.5 137C59.8 137 59.5 137.3 59.4 137.3C58.4 137.9 58.1 139.2 58.6 140.2C59 141.2 60.1 141.8 61.1 141.6C62.4 141.4 63.6 140.2 63.4 138.9C63.3 138.2 62.5 137.8 62.3 137.1C62.7 137.2 63.1 137.5 63.5 137.6C63.9 137.9 64.4 137.7 64.9 137.7C65.9 137.5 66.6 136.4 66.7 135.5C66.8 134.2 65.8 132.7 64.4 132.8C63.6 132.8 62.9 133.3 62.2 133.8C62.1 133.9 61.9 134 61.9 133.7C62.1 132.7 62.7 131.8 63.1 130.8C62.5 130.7 61.8 130.7 61.1 130.7C60.8 130.7 60.5 130.7 60.1 130.7Z" fill="#025E0B" fill-opacity="0.9698"/>
<path d="M57.2999 147.4C55.6999 147.4 54.1999 148.2 53.2999 149.6C52.6999 150.5 52.3999 151.6 52.4999 152.7C52.5999 153.6 52.8999 154.5 53.4999 155.3C53.9999 155.9 54.5999 156.5 55.3999 156.8C56.8999 157.5 58.6999 157.3 59.9999 156.5C61.1999 155.7 61.9999 154.4 62.1999 153C62.2999 152.3 62.1999 151.6 61.9999 151C61.4999 149.4 60.1999 148.1 58.5999 147.7C58.1999 147.5 57.7999 147.4 57.2999 147.4ZM57.3999 148.4C58.4999 148.4 59.4999 148.9 60.1999 149.6C61.0999 150.6 61.4999 152.1 60.9999 153.5C60.5999 154.8 59.3999 155.9 57.9999 156.1C57.4999 156.2 56.9999 156.2 56.4999 156.1C55.7999 155.9 55.0999 155.6 54.4999 155C53.7999 154.3 53.3999 153.4 53.3999 152.4C53.2999 151.1 53.8999 149.9 54.8999 149.1C55.3999 148.7 56.0999 148.4 56.6999 148.4C57.0999 148.4 57.2999 148.4 57.3999 148.4Z" fill="#025E0B" fill-opacity="0.9698"/>
<path d="M57.2998 149.8C56.1998 149.8 55.1998 150.6 54.9998 151.7C54.7998 152.4 54.9998 153.2 55.3998 153.8C55.9998 154.6 57.0998 155.1 58.0998 154.8C59.0998 154.5 59.8998 153.6 59.8998 152.5C59.9998 151.7 59.5998 150.8 58.8998 150.4C58.4998 150 57.8998 149.8 57.2998 149.8ZM57.4998 151.9C57.7998 151.9 58.0998 152.3 57.9998 152.6C57.8998 153 57.3998 153.2 57.0998 152.9C56.7998 152.7 56.7998 152.1 57.1998 152C57.2998 151.9 57.3998 151.9 57.4998 151.9Z" fill="#025E0B" fill-opacity="0.9698"/>
<path d="M51.4001 161.6C51.3001 161.6 51.3001 161.8 51.3001 161.9C51.3001 162.7 51.3001 163.6 51.0001 164.4C50.9001 164.5 50.9001 164.7 50.8001 164.8C50.7001 164.5 50.7001 164.1 50.6001 163.8C50.4001 163.2 49.9001 162.6 49.3001 162.4C48.7001 162.2 48.1001 162.2 47.6001 162.5C46.9001 162.8 46.2001 163.4 45.9001 164.2C45.7001 164.7 45.7001 165.2 45.8001 165.7C46.0001 166.4 46.5001 167 47.3001 167.2C47.7001 167.3 48.1001 167.2 48.5001 167.1C48.6001 167.1 48.7001 167.1 48.8001 167.2C48.7001 167.4 48.5001 167.5 48.3001 167.6C47.8001 167.9 47.3001 168.2 47.0001 168.7C46.6001 169.3 46.6001 170.2 47.0001 170.8C47.3001 171.4 47.9001 171.9 48.5001 172.2C48.9001 172.3 49.3001 172.3 49.7001 172.3C50.3001 172.2 50.9001 171.9 51.3001 171.4C51.6001 171 51.7001 170.5 51.7001 170C51.7001 169.6 51.7001 169.3 51.5001 168.9C51.5001 168.9 51.4001 168.7 51.5001 168.7C51.9001 168.9 52.1001 169.3 52.5001 169.6C52.9001 169.9 53.4001 170.1 54.0001 170.1C54.9001 170.1 55.8001 169.4 56.2001 168.6C56.6001 167.7 56.5001 166.6 55.8001 165.9C55.3001 165.3 54.4001 165 53.7001 165.1C53.3001 165.1 52.9001 165.3 52.4001 165.4C52.3001 165.4 52.2001 165.4 52.2001 165.3C52.3001 164.9 52.6001 164.7 52.9001 164.4C53.4001 163.9 53.9001 163.5 54.4001 163C54.5001 162.9 54.3001 162.8 54.2001 162.8C53.4001 162.4 52.6001 162 51.8001 161.6C51.5001 161.6 51.4001 161.6 51.4001 161.6Z" fill="#025E0B" fill-opacity="0.9698"/>
<path d="M145.7 145.9C145.7 146.1 145.9 146.3 146 146.6C146.2 147 146.4 147.4 146.4 147.9C146.4 148 146.2 147.8 146.2 147.8C145.7 147.5 145.1 147 144.4 147.3C143.5 147.7 142.8 148.9 143.2 149.9C143.4 150.6 144.1 151.1 144.8 151C145.2 151 145.5 150.8 145.8 150.7C145.6 151.1 145.2 151.4 145.2 151.9C145.1 153 146.1 153.9 147.1 153.8C147.9 153.8 148.7 153.2 148.9 152.4C149 151.9 148.8 151.4 148.5 150.9C148.4 150.8 148.3 150.7 148.3 150.6C148.8 150.7 149.2 151 149.7 150.9C150.6 150.7 151.1 149.5 150.8 148.7C150.5 147.8 149.5 147.1 148.5 147.4C148.1 147.5 147.8 147.9 147.5 148.1C147.3 147.8 147.6 147.4 147.7 147.1C147.8 146.8 148 146.5 148.1 146.1C148 145.9 147.7 146 147.5 146C146.9 145.9 146.3 145.9 145.7 145.9Z" fill="#025E0B" fill-opacity="0.9698"/>
<path d="M145.6 133.4C145.6 133.6 145.8 133.8 145.8 134C146 134.5 146.2 135 146.3 135.5C146.3 135.6 146.1 135.4 146.1 135.4C145.7 135.1 145.3 134.7 144.7 134.7C144.3 134.7 144 134.7 143.7 135C143 135.5 142.7 136.6 143 137.4C143.3 138.1 144 138.6 144.8 138.4C145.1 138.3 145.3 138.1 145.5 138C145.3 138.5 144.8 139 144.9 139.6C144.9 140.4 145.7 141.2 146.5 141.3C147 141.4 147.6 141.2 148 140.8C148.4 140.5 148.7 140 148.6 139.5C148.6 138.9 148.1 138.4 147.8 138C148.2 138.2 148.7 138.4 149.2 138.3C149.9 138.3 150.4 137.7 150.6 137.1C150.8 136.3 150.6 135.4 149.9 135C149.2 134.6 148.4 134.7 147.7 135.2C147.5 135.3 147.4 135.6 147.1 135.6C147.1 135.2 147.3 134.8 147.4 134.5C147.5 134.2 147.7 133.8 147.8 133.5C147.7 133.4 147.4 133.5 147.3 133.4C146.8 133.4 146.2 133.4 145.6 133.4Z" fill="#025E0B" fill-opacity="0.9698"/>
<path d="M126.9 76.6001C126 76.6001 125.2 77.1001 124.9 78.0001C124.6 78.7001 125 79.5001 125 80.2001C125 80.3001 125 80.5001 124.9 80.4001C124.5 80.0001 124.4 79.4001 123.9 79.0001C123.3 78.5001 122.4 78.5001 121.7 78.7001C120.9 79.0001 120.4 79.7001 120.2 80.5001C120 81.3001 120 82.2001 120.6 82.8001C121.3 83.7001 122.6 83.8001 123.6 83.6001C123.7 83.6001 124 83.5001 124 83.6001C123.4 84.3001 122.6 84.8001 121.8 85.2001C121.7 85.3001 121.4 85.3001 121.5 85.5001C122.5 86.1001 123.5 86.8001 124.5 87.4001C124.7 87.4001 124.6 87.1001 124.6 87.0001C124.6 86.0001 124.6 85.0001 125.2 84.2001C125.3 84.1001 125.3 84.1001 125.3 84.3001C125.4 84.9001 125.5 85.5001 125.9 85.9001C126.4 86.5001 127.1 86.9001 127.8 86.8001C128.8 86.8001 129.7 86.1001 130.1 85.2001C130.4 84.5001 130.4 83.8001 130.2 83.1001C129.9 82.4001 129.2 81.8001 128.4 81.9001C128.1 81.9001 127.8 82.0001 127.5 81.8001C127.7 81.5001 128.1 81.5001 128.4 81.4001C129.2 81.2001 129.8 80.5001 129.8 79.7001C129.9 78.7001 129.3 77.7001 128.4 77.2001C128 76.7001 127.4 76.6001 126.9 76.6001Z" fill="#025E0B" fill-opacity="0.9698"/>
<path d="M119.3 93.8999C118.7 93.8999 118.1 94.1999 117.7 94.5999C116.9 95.3999 116.7 96.6999 117.2 97.6999C117.7 98.5999 118.8 99.1999 119.9 98.9999C120.9 98.7999 121.7 97.9999 121.9 96.9999C122.1 95.8999 121.5 94.6999 120.5 94.1999C120.2 93.9999 119.8 93.8999 119.4 93.9999C119.4 93.8999 119.4 93.8999 119.3 93.8999ZM119.5 95.8999C119.9 95.8999 120.2 96.2999 120 96.6999C119.9 96.9999 119.5 97.1999 119.2 96.9999C119 96.8999 118.8 96.5999 118.9 96.2999C119 96.0999 119.2 95.8999 119.5 95.8999Z" fill="#025E0B" fill-opacity="0.9698"/>
<path d="M119.3 91.8999C117.8 91.8999 116.3 92.6999 115.5 93.9999C114.6 95.3999 114.6 97.1999 115.3 98.5999C116 99.9999 117.5 101 119.1 101.1C120.6 101.2 122.2 100.5 123.1 99.1999C124 97.9999 124.2 96.3999 123.7 94.9999C123.2 93.5999 122.1 92.4999 120.7 92.0999C120.2 91.9999 119.8 91.8999 119.3 91.8999ZM119.4 92.7999C120 92.7999 120.7 92.9999 121.2 93.2999C122.1 93.7999 122.8 94.7999 122.9 95.8999C123 96.4999 122.9 97.1999 122.7 97.7999C122.2 98.9999 121 99.8999 119.7 99.9999C118.3 100.1 116.8 99.3999 116.2 98.0999C115.9 97.4999 115.8 96.8999 115.8 96.2999C115.8 94.9999 116.7 93.7999 117.9 93.1999C118.4 92.9999 118.9 92.7999 119.4 92.7999Z" fill="#025E0B" fill-opacity="0.9698"/>
<path d="M116.2 105.8C114.5 105.8 113.2 108 114.3 109.4C114.5 109.8 115 110 115 110.4C114.1 110.1 113.2 109.2 112.2 109.6C111.1 110.1 110.5 111.3 110.7 112.4C110.8 114 112.7 115.1 114.1 114.3C114.6 114.1 114.9 113.6 115.4 113.5C115.4 114.3 114.8 115 114.5 115.6C114.4 115.9 114 116.2 114.2 116.5C115.2 116.7 116.3 116.8 117.4 116.8C117.2 115.8 116.5 114.8 116.7 113.7C117.1 113.7 117.3 114.2 117.6 114.5C118.7 115.7 120.8 115 121.3 113.6C121.9 112.4 121.5 110.7 120.3 110.1C119.5 109.7 118.7 110.2 118 110.5C118.3 109.7 119.1 109 119.1 108.1C119.2 107 118.3 106.1 117.3 106C116.8 105.9 116.5 105.8 116.2 105.8Z" fill="#025E0B" fill-opacity="0.9698"/>
</g>
<defs>
<clipPath id="clip0">
<rect width="178.6" height="249.4" fill="white"/>
</clipPath>
</defs>
</svg>
