<svg width="179" height="250" viewBox="0 0 179 250" fill="none" xmlns="http://www.w3.org/2000/svg">
<g clip-path="url(#clip0)">
<path d="M170.3 249.5H8.7998C4.0998 249.5 0.299805 245.7 0.299805 241V8.6001C0.299805 3.9001 4.0998 0.100098 8.7998 0.100098H170.3C175 0.100098 178.8 3.9001 178.8 8.6001V241C178.9 245.7 175 249.5 170.3 249.5Z" fill="white"/>
<path d="M24.2998 19.6001V230.1H154.9C154.8 166.6 154.9 88.7001 154.9 19.6001H24.2998V19.6001ZM61.0998 21.3001C84.0998 21.3001 106 21.3001 129.7 21.4001C127.6 26.5001 121.8 35.6001 118.2 42.9001C119.1 45.2001 118 45.5001 118.4 46.1001C119.1 47.4001 118.6 49.1001 117.1 49.5001C110.4 50.2001 103.2 48.4001 97.2998 46.1001C88.1998 42.6001 80.5998 41.7001 71.3998 42.5001C71.3998 42.5001 70.5998 42.4001 70.2998 40.6001C67.2998 31.3001 63.9998 27.4001 61.0998 21.3001ZM25.8998 21.6001H59.8998C59.8998 21.6001 61.4998 24.4001 64.8998 31.0001C66.2998 33.8001 67.4998 35.0001 67.5998 37.2001C67.4998 38.5001 68.0998 40.0001 69.0998 40.5001C69.4998 40.7001 69.9998 40.5001 69.7998 41.0001C69.5998 41.6001 70.1998 42.5001 70.3998 42.7001C70.5998 43.1001 70.4998 43.1001 70.4998 44.4001C70.4998 45.7001 70.5998 46.2001 70.8998 47.1001C71.5998 49.5001 71.6998 50.7001 71.2998 52.0001C70.2998 55.2001 69.1998 57.6001 67.8998 60.6001C67.0998 62.3001 67.1998 63.0001 69.6998 64.3001C71.4998 65.2001 71.7998 65.2001 71.4998 66.6001C71.3998 67.2001 71.2998 67.7001 71.3998 68.0001C71.4998 68.2001 71.7998 68.5001 71.9998 68.6001C72.1998 68.8001 72.1998 69.2001 71.8998 69.5001C71.6998 69.8001 71.6998 70.2001 71.8998 71.0001C72.6998 72.9001 70.4998 75.5001 68.0998 76.5001C67.5998 74.0001 63.9998 73.1001 61.9998 74.8001C60.1998 76.2001 59.8998 77.8001 60.3998 80.0001C55.9998 82.6001 51.2998 85.8001 46.5998 88.1001C45.9998 86.9001 45.7998 85.9001 45.4998 84.7001C45.1998 83.6001 45.1998 83.5001 45.2998 81.5001C45.3998 79.6001 45.4998 79.2001 44.9998 79.0001C42.4998 78.7001 41.8998 79.6001 41.3998 81.3001C41.1998 82.0001 40.7998 81.9001 40.4998 81.6001C39.4998 79.8001 38.2998 78.0001 37.4998 76.8001C36.4998 75.2001 34.7998 74.4001 33.9998 75.2001C33.7998 75.8001 33.6998 75.8001 32.5998 75.6001C31.2998 75.3001 30.4998 76.1001 30.3998 77.0001C30.2998 77.4001 30.5998 77.4001 29.8998 77.8001C28.0998 79.1001 28.7998 81.0001 29.0998 82.0001C29.0998 81.9001 28.2998 82.5001 28.2998 83.5001C28.1998 88.8001 32.7998 96.5001 32.6998 96.3001L25.9998 100.3L25.8998 21.6001ZM131.1 21.6001H152.9V25.6001L142.2 36.6001V44.7001C136.4 43.3001 134.1 36.8001 133.6 32.3001C122.9 42.1001 123.2 56.8001 133.3 66.0001C134.5 61.3001 139 54.4001 142.2 54.4001V83.5001L135.8 77.1001L122.8 77.2001C125 74.6001 123.8 68.9001 122.6 65.7001C120.3 59.8001 117.1 50.1001 117.3 50.0001C117.3 50.0001 119.2 49.5001 119.3 48.3001C119.6 46.5001 118.8 46.7001 119.9 45.1001C120.1 44.7001 120 44.1001 119.7 43.5001C119.5 43.1001 119.4 42.5001 119.7 42.0001L131.1 21.6001ZM153.6 25.9001V93.1001C152.8 98.6001 153.2 104.1 153.1 109.6L147.7 112.4L127.6 86.0001C127.6 86.0001 128.4 84.8001 128.8 84.6001C128.4 83.6001 126.9 86.0001 126.8 86.4001C134.1 95.5001 147.7 113.3 147.7 113.3L153.3 110.3C153.3 115.8 153.2 121.3 153.1 126.7C143.2 132.4 137.4 141.6 133.1 151.1C129.2 152.4 125.1 154.2 121.2 155.8L126.9 164.3L124.7 165.5C99.4998 127.2 110.3 100.3 130.4 77.9001L134.1 77.8001L142.7 85.9001L142.5 36.9001C146.2 33.2001 150.1 29.8001 153.6 25.9001ZM132.9 34.1001C133.1 34.7001 133.4 36.1001 133.4 36.0001C127.5 42.2001 124.7 52.3001 133.3 62.7001C133.3 62.7001 133.1 63.5001 132.9 64.3001C123.7 55.4001 125 41.2001 132.9 34.1001ZM133.8 36.7001C135.3 41.3001 139.1 44.1001 139.1 44.1001C137.7 47.3001 136.8 50.6001 139.5 54.8001C137 57.0001 135 59.5001 133.8 62.5001C125.5 52.7001 128.2 42.6001 133.8 36.7001ZM78.2998 42.6001C82.1998 42.6001 86.6998 43.1001 89.6998 44.2001C90.8998 53.4001 97.2998 66.9001 96.4998 70.4001C94.8998 67.9001 87.9998 68.6001 89.9998 75.5001C89.9998 75.5001 89.3998 76.4001 88.2998 77.5001C85.3998 80.5001 84.6998 80.9001 86.0998 78.3001C87.1998 76.3001 88.4998 73.7001 88.4998 73.2001C88.4998 72.8001 88.1998 72.7001 87.9998 73.0001C87.7998 73.2001 87.5998 73.8001 87.3998 74.3001C85.6998 78.4001 82.6998 82.0001 80.6998 82.9001C80.1998 83.1001 80.1998 82.9001 80.5998 82.4001C82.9998 79.4001 84.7998 76.6001 86.0998 73.0001C86.1998 72.6001 85.5998 72.5001 85.4998 72.8001C83.2998 77.5001 82.5998 78.6001 79.7998 81.9001C78.6998 83.2001 77.6998 83.9001 76.8998 83.8001C76.1998 83.7001 76.3998 83.6001 77.0998 82.9001C77.5998 82.4001 78.2998 81.6001 79.4998 80.2001C81.5998 77.6001 83.6998 73.3001 82.8998 73.5001C82.7998 73.1001 82.0998 74.3001 81.5998 75.4001C80.0998 78.0001 78.4998 81.3001 74.8998 83.6001C74.0998 83.9001 73.2998 84.1001 72.5998 84.1001C71.5998 84.1001 72.1998 83.8001 74.3998 82.3001C76.4998 80.8001 79.9998 76.2001 80.3998 74.4001C80.5998 73.6001 80.0998 73.6001 79.4998 74.6001C76.8998 79.6001 72.0998 84.1001 67.5998 83.9001C65.3998 83.8001 64.1998 83.2001 65.9998 83.0001C70.8998 82.4001 74.5998 79.6001 77.8998 73.9001C77.8998 73.8001 77.5998 73.8001 77.2998 74.0001C74.2998 77.6001 70.6998 82.6001 64.8998 82.2001C60.6998 81.9001 59.7998 76.5001 63.3998 74.8001C66.4998 73.4001 69.1998 77.3001 66.5998 79.3001C66.0998 79.7001 65.2998 79.5001 65.2998 79.5001C65.2998 79.5001 65.5998 79.5001 66.0998 79.1001C67.9998 77.6001 65.7998 74.6001 63.5998 75.7001C62.2998 76.2001 61.7998 78.0001 62.8998 79.4001C65.3998 82.4001 70.6998 80.1001 74.3998 75.2001C74.7998 74.7001 75.0998 73.6001 74.7998 73.7001C74.1998 73.9001 73.8998 74.4001 73.4998 74.9001C72.0998 77.0001 71.0998 78.0001 69.2998 79.0001C68.5998 79.4001 67.8998 79.5001 67.8998 79.5001C68.2998 79.2001 68.4998 78.5001 68.5998 77.8001C68.5998 77.8001 68.9998 77.4001 69.2998 77.2001C71.5998 75.7001 72.9998 73.6001 72.9998 72.3001C72.9998 71.3001 72.2998 70.1001 73.0998 69.8001C74.3998 69.2001 77.8998 69.7001 78.8998 70.9001C79.5998 71.8001 79.7998 71.3001 79.2998 69.8001C78.9998 68.9001 78.9998 68.3001 78.4998 68.4001C77.8998 68.7001 77.3998 68.7001 76.1998 68.0001C75.5998 67.7001 74.4998 67.4001 73.8998 67.2001C72.6998 66.9001 72.4998 67.0001 72.4998 66.5001C72.4998 66.3001 72.4998 65.9001 72.4998 65.6001C72.6998 64.0001 71.3998 63.5001 69.5998 62.5001C68.5998 61.9001 68.9998 61.3001 70.1998 58.3001C70.7998 57.0001 71.3998 55.1001 72.0998 53.8001C72.7998 52.3001 72.8998 50.6001 72.3998 48.7001C71.4998 45.1001 70.8998 43.3001 72.4998 43.0001C73.7998 42.8001 75.9998 42.6001 78.2998 42.6001ZM139.3 44.4001C140.7 45.2001 141.3 45.2001 142.1 45.5001V53.5001C141 53.7001 140.1 54.1001 139.5 54.4001C136.9 50.9001 138 46.0001 139.3 44.4001ZM90.7998 44.4001L92.1998 44.8001C93.5998 53.6001 97.7998 61.9001 99.0998 70.0001C100.5 76.2001 93.1998 79.7001 90.6998 74.3001C89.9998 72.9001 90.7998 71.1001 92.4998 70.2001C95.1998 68.8001 98.0998 72.5001 95.9998 74.5001C94.3998 76.0001 91.9998 74.9001 92.4998 72.9001C92.7998 71.6001 94.6998 71.6001 95.0998 72.8001C95.1998 73.2001 95.3998 73.6001 95.5998 73.4001C96.5998 71.1001 93.2998 70.0001 91.8998 72.1001C91.0998 73.8001 92.5998 76.1001 94.8998 75.7001C97.9998 75.1001 98.2998 70.6001 97.0998 65.9001C94.6998 58.0001 91.1998 50.7001 90.7998 44.4001ZM93.0998 45.2001L94.4998 45.7001C96.0998 52.7001 98.6998 60.0001 100.4 66.2001C101.6 70.4001 102.8 75.2001 98.2998 77.3001H96.9998C96.9998 77.3001 97.3998 77.1001 98.2998 76.1001C103.5 71.4001 95.0998 58.0001 93.1998 45.8001C93.1998 45.7001 93.0998 45.2001 93.0998 45.2001ZM77.9998 45.6001C75.6998 45.5001 73.4998 46.2001 73.5998 47.3001C73.6998 48.0001 74.1998 48.2001 75.9998 47.9001C79.8998 47.1001 83.6998 48.8001 86.5998 50.6001C87.3998 51.1001 87.7998 51.4001 87.8998 51.4001C87.9998 51.4001 88.0998 51.2001 87.8998 51.0001C85.8998 48.3001 81.6998 45.8001 77.9998 45.6001ZM95.6998 46.0001L97.1998 46.6001C98.4998 54.0001 101.8 61.7001 103.4 68.4001C104.3 72.3001 104.1 74.8001 101.9 76.9001C101.4 77.3001 101.2 77.4001 101.2 77.4001H99.9998C103.3 74.6001 102.6 70.5001 101.3 66.3001C99.0998 58.5001 95.3998 46.1001 95.6998 46.0001ZM98.2998 47.0001L99.5998 47.6001C101 54.0001 101.3 54.1001 104.6 64.4001C105.6 67.5001 106.5 70.2001 106.3 72.8001C106.3 74.3001 105 77.2001 103.6 77.4001H102.8C105.9 73.8001 104.5 68.9001 103.2 64.8001C100.7 57.2001 99.4998 53.1001 98.2998 47.0001ZM100.7 47.9001L102.3 48.5001C103.9 55.0001 106 61.4001 107.7 66.6001C108.4 68.7001 109 70.9001 109 72.7001C108.7 75.2001 108.3 75.8001 106.8 77.3001H105.5C105.5 77.3001 107.1 74.6001 107.2 73.0001C107.5 70.0001 106.5 67.5001 105.5 64.1001C102.8 55.9001 101.5 53.3001 100.7 47.9001ZM103.3 48.8001L104.7 49.2001C106.5 54.9001 108.1 60.8001 109.9 65.7001C110.8 68.4001 111.3 70.5001 111.2 72.3001C111 74.8001 110.3 75.8001 109.2 77.1001H108C109 75.8001 109.6 73.8001 109.6 72.5001C109.6 70.5001 109 68.5001 108.4 66.3001C106.4 59.5001 104.4 54.9001 103.3 48.8001ZM76.5998 49.5001C76.2998 49.6001 75.9998 49.8001 75.9998 50.1001C75.9998 50.3001 76.3998 50.5001 76.7998 50.4001C80.5998 49.3001 83.7998 51.8001 86.6998 53.3001C86.7998 53.4001 86.9998 53.5001 87.0998 53.5001C87.2998 53.5001 87.2998 53.4001 87.0998 53.2001C83.4998 51.0001 80.9998 48.6001 76.5998 49.5001ZM105.7 49.5001L107.2 49.8001C109 55.4001 110.9 61.4001 112.8 66.5001C114 69.6001 114.4 75.0001 111.8 77.3001H110.4C111.4 76.0001 112 74.1001 112 72.3001C112.1 70.2001 111.6 68.2001 110.8 66.1001C108.7 59.9001 107 54.5001 105.7 49.5001ZM108.3 49.9001L109.7 50.1001C110.7 56.0001 113.5 61.5001 115 66.4001C115.8 68.7001 116.4 71.6001 116.1 73.7001C115.9 75.2001 114.4 77.2001 114.1 77.3001H113.2C113.2 77.3001 114.6 74.4001 114.7 72.6001C114.8 70.6001 114.3 68.4001 113.7 66.3001C111.6 60.4001 109.6 55.1001 108.3 49.9001ZM74.3998 50.1001C74.1998 50.2001 74.2998 50.8001 74.6998 51.7001C75.0998 52.4001 75.3998 52.6001 75.1998 53.1001C74.7998 54.4001 75.3998 54.6001 76.0998 53.5001C76.6998 52.6001 76.6998 52.7001 77.1998 53.8001C77.8998 55.2001 77.5998 55.8001 76.4998 54.9001C75.6998 54.2001 75.4998 54.7001 75.1998 55.3001C74.7998 56.0001 74.8998 56.7001 75.5998 56.6001C75.9998 56.6001 76.3998 56.8001 76.6998 57.1001C77.2998 57.8001 78.5998 58.7001 79.7998 58.9001C80.1998 58.9001 80.0998 58.5001 79.0998 57.9001C76.8998 56.4001 76.6998 56.1001 78.7998 56.2001C79.2998 56.2001 80.1998 55.8001 80.6998 55.7001C83.4998 54.8001 83.5998 54.8001 84.8998 55.2001C85.2998 55.3001 85.7998 55.5001 85.9998 55.3001C86.2998 55.0001 86.5998 54.8001 86.2998 54.4001C85.9998 54.1001 85.4998 53.9001 84.8998 53.5001C81.6998 51.6001 81.3998 51.2001 77.5998 51.1001C77.1998 51.1001 76.8998 51.3001 76.6998 51.3001C76.0998 51.3001 75.7998 51.2001 75.0998 50.6001C74.7998 50.1001 74.5998 50.0001 74.3998 50.1001ZM116.4 50.1001C117.9 55.2001 119.8 60.4001 121.5 65.2001C122.8 69.1001 124.7 74.9001 121.1 77.4001H120.1C121.9 75.0001 122.1 73.0001 121.5 70.1001C119.4 61.2001 115.5 56.1001 115.1 50.3001L116.4 50.1001ZM110.4 50.2001L112 50.3001C113.1 56.4001 116.3 60.8001 118 68.1001C118.9 71.3001 119.4 75.0001 116.4 77.3001H115.5C115.5 77.3001 117 74.7001 117 73.2001C117.2 70.5001 116.1 67.6001 115.2 64.4001C113.7 59.6001 111.2 54.9001 110.4 50.2001ZM112.7 50.3001H114.1C115.7 57.5001 119 62.6001 120.7 70.4001C121.3 73.7001 120.8 75.7001 118.7 77.3001H117.7C117.7 77.3001 117.8 77.0001 118.2 76.4001C120 73.1001 119 70.0001 118.1 66.6001C116.6 60.1001 113.4 55.0001 112.7 50.3001ZM80.3998 53.3001C80.1998 53.9001 79.8998 54.8001 79.0998 55.1001C78.8998 55.2001 78.7998 55.0001 78.7998 55.0001C78.7998 54.5001 79.0998 53.6001 79.3998 53.1001C79.4998 52.9001 79.5998 52.9001 79.7998 52.8001C80.3998 52.7001 80.4998 52.8001 80.3998 53.3001ZM81.7998 53.3001C82.1998 53.5001 82.5998 54.1001 82.2998 54.3001C81.8998 54.5001 81.2998 54.8001 80.6998 54.8001C80.3998 54.8001 80.3998 54.7001 80.4998 54.5001C80.6998 54.1001 80.9998 53.8001 81.1998 53.4001C81.3998 53.1001 81.6998 53.3001 81.7998 53.3001ZM75.8998 59.8001C75.5998 59.8001 75.4998 60.1001 76.2998 60.6001C77.2998 61.2001 76.7998 62.9001 75.5998 62.8001C75.0998 62.8001 74.6998 62.6001 73.2998 61.5001C72.1998 60.7001 71.0998 60.6001 70.8998 61.7001C70.7998 62.4001 70.9998 62.7001 71.6998 62.5001C71.9998 62.4001 72.1998 62.6001 72.5998 62.9001C73.4998 63.4001 74.3998 64.2001 75.3998 64.0001C77.7998 63.3001 78.2998 61.0001 76.6998 60.0001C76.3998 59.9001 76.0998 59.8001 75.8998 59.8001ZM81.4998 63.3001C81.3998 63.5001 81.4998 63.8001 81.9998 63.9001C83.4998 64.4001 83.9998 66.2001 82.6998 66.9001C81.9998 67.3001 80.7998 67.0001 79.3998 66.0001C76.8998 64.1001 73.6998 64.0001 74.0998 65.9001C74.1998 66.4001 74.3998 66.4001 76.2998 66.7001C77.7998 66.9001 78.4998 67.4001 79.1998 67.7001C80.1998 68.3001 81.1998 68.5001 81.8998 68.5001C85.4998 68.3001 85.0998 63.9001 82.8998 63.2001C82.3998 63.0001 81.8998 63.1001 81.4998 63.3001ZM35.2998 75.9001C36.0998 75.9001 36.3998 76.5001 36.7998 77.0001C38.1998 78.9001 39.1998 80.8001 40.5998 83.0001L40.3998 85.0001C40.3998 85.0001 39.9998 84.9001 39.7998 85.0001C39.3998 85.2001 39.1998 85.8001 38.8998 86.7001C38.4998 87.4001 36.3998 89.1001 35.4998 90.0001C35.2998 90.1001 35.1998 90.3001 35.1998 90.4001C35.1998 90.7001 36.0998 90.5001 36.7998 89.8001C37.6998 89.0001 38.0998 89.3001 38.0998 90.3001C38.1998 91.6001 38.9998 90.9001 38.9998 89.7001C39.0998 88.7001 39.3998 88.1001 40.0998 87.6001C41.3998 86.6001 41.1998 86.8001 41.0998 85.4001C40.9998 82.9001 41.9998 80.8001 42.5998 82.2001C42.7998 82.7001 43.0998 83.2001 43.6998 83.3001C44.0998 83.3001 44.2998 83.7001 44.4998 84.7001C44.7998 86.3001 45.2998 87.3001 45.6998 88.8001L33.6998 95.7001C31.5998 93.3001 30.0998 89.2001 29.2998 86.5001C28.8998 85.2001 28.8998 83.7001 29.1998 83.5001C29.4998 83.3001 29.6998 83.5001 29.5998 84.3001C29.4998 85.0001 29.4998 85.5001 29.7998 85.5001C30.5998 85.3001 30.5998 86.5001 30.5998 86.8001C30.4998 87.0001 30.3998 87.1001 30.3998 87.2001C30.1998 87.7001 30.6998 87.6001 31.2998 87.6001C31.7998 87.6001 31.8998 87.9001 31.8998 88.3001C31.8998 88.8001 32.5998 88.7001 32.9998 88.3001C33.2998 87.9001 33.2998 87.5001 32.7998 87.2001C32.0998 86.8001 31.4998 85.8001 29.8998 82.2001C28.9998 80.1001 29.2998 78.7001 30.2998 78.7001C31.0998 78.7001 31.8998 80.8001 32.5998 82.3001C32.7998 82.7001 32.2998 83.1001 32.1998 83.4001C31.7998 84.0001 31.7998 84.1001 32.4998 84.1001C33.0998 84.1001 33.2998 84.1001 33.6998 84.8001C33.7998 85.1001 33.8998 85.5001 33.8998 85.7001C33.5998 86.5001 34.1998 86.7001 34.7998 86.4001C35.5998 86.1001 35.4998 85.4001 34.3998 84.3001C33.6998 83.1001 33.8998 83.2001 34.5998 82.3001C34.6998 82.0001 34.6998 81.8001 34.2998 81.8001C33.3998 82.1001 32.3998 80.5001 32.6998 79.9001C32.9998 79.7001 33.6998 78.8001 32.9998 79.0001C31.4998 79.4001 30.5998 77.2001 31.4998 76.5001C32.7998 75.9001 33.0998 76.1001 35.0998 80.0001C35.6998 81.2001 36.4998 82.6001 36.4998 82.7001C36.5998 82.8001 36.5998 83.2001 36.5998 83.5001C36.4998 84.2001 36.7998 84.4001 37.3998 84.1001C37.8998 84.0001 38.2998 83.6001 37.6998 83.2001C36.9998 82.0001 36.7998 81.8001 37.0998 81.5001C37.9998 80.8001 37.5998 80.8001 36.5998 80.6001C36.0998 80.5001 35.8998 80.2001 35.7998 79.9001C35.2998 78.8001 34.3998 77.2001 34.2998 76.9001C34.0998 76.2001 34.5998 75.9001 35.2998 75.9001ZM90.5998 76.5001C92.1998 77.2001 93.4998 77.8001 94.7998 78.4001C90.9998 86.0001 86.4998 88.7001 78.4998 92.1001L79.1998 95.5001C87.5998 92.3001 92.9998 88.6001 97.1998 81.2001C102.3 81.3001 123.1 81.4001 123.1 81.4001C114.6 91.1001 107.9 105.7 107.2 117.1C107 119.3 107.3 118.3 106.4 118.9L104.9 120.7L103.7 118.9C103.7 118.9 102.8 117.8 102.3 118.7C100.8 134.6 102.4 152.7 110 165.4C108.6 165.5 107.3 165.5 106 164.8C103 158 101.3 149.6 100.5 143.3C99.4998 135.3 99.6998 126.4 100.7 118.7L100.2 118.6C98.6998 128.5 99.1998 139 100.6 148.2C101.3 153 103.6 160.5 105.1 164C105.5 165 105.9 165.2 105.5 165.3C96.1998 166.1 91.8998 169.2 88.5998 174.2C87.1998 173.3 85.4998 172.2 83.5998 171.7C87.7998 164.1 94.4998 160.1 100.1 158.5C99.8998 157.5 99.7998 156.6 98.7998 156C98.7998 156.1 99.1998 157.9 99.1998 158.2C91.4998 160.2 84.5998 167.8 82.8998 171.8L48.7998 172.2C73.9998 147.8 74.9998 113.5 54.3998 84.8001L56.7998 83.4001C72.6998 107.3 72.4998 130.3 67.7998 145.8C64.3998 156.7 58.3998 165.1 53.7998 169.9C53.7998 169.9 72.2998 170.2 81.4998 169.8C82.7998 167.7 84.0998 166.1 85.8998 164.1C85.8998 164.1 81.1998 168.6 81.3998 169.4C72.8998 169.4 64.0998 169.9 55.5998 169.3C65.5998 157.3 70.4998 145 71.2998 133.3C71.2998 131.8 71.3998 132.6 71.8998 132.1L73.4998 129.6L74.7998 132.1C75.6998 132.4 77.2998 131.9 78.0998 132.2C81.5998 116.5 78.0998 97.5001 73.4998 85.1001C75.9998 84.3001 78.7998 85.1001 81.7998 83.5001C81.9998 83.3001 82.2998 83.0001 82.6998 82.8001C86.0998 81.6001 90.5998 76.4001 90.5998 76.5001ZM64.3998 76.6001C65.0998 76.6001 65.6998 77.2001 65.6998 77.9001C65.6998 78.6001 65.0998 79.2001 64.3998 79.2001C63.6998 79.2001 63.0998 78.6001 63.0998 77.9001C63.0998 77.2001 63.6998 76.6001 64.3998 76.6001ZM95.6998 78.1001H129.3C116.4 92.1001 110.5 103.9 109.5 119.8C108.6 135 112.5 148.9 124.1 165.6L121.7 167.2C101.7 136.9 102.6 104.6 124.9 80.2001H96.6998C93.0998 87.3001 87.0998 91.7001 79.4998 94.3001L78.9998 92.2001C87.7998 89.4001 92.1998 84.7001 95.6998 78.1001ZM44.3998 80.0001C44.7998 80.2001 44.5998 82.2001 43.9998 82.2001C43.3998 82.2001 42.6998 80.5001 43.0998 80.1001C43.5998 79.9001 43.9998 79.8001 44.3998 80.0001ZM60.6998 80.9001C60.9998 81.5001 61.4998 81.9001 61.8998 82.3001C61.1998 82.2001 60.3998 81.9001 59.7998 81.6001C60.1998 81.3001 60.3998 81.2001 60.6998 80.9001ZM62.5998 84.0001L66.7998 85.6001L65.9998 90.1001L61.7998 88.4001L62.5998 84.0001ZM72.7998 85.7001C78.3998 100.2 79.5998 118 77.3998 132L75.8998 131.9C78.2998 108.2 73.5998 96.1001 69.3998 85.7001C69.3998 85.7001 69.3998 85.3001 69.5998 85.2001C70.6998 84.8001 71.8998 84.8001 72.7998 85.7001ZM53.7998 85.1001C81.4998 123.9 63.7998 157.1 47.6998 172.6L44.3998 172.8C47.0998 170.3 49.2998 167.8 51.5998 165C44.7998 155.6 37.2998 145.4 30.8998 137.3C30.8998 137.3 28.6998 138.6 28.6998 138.8C28.6998 138.9 28.8998 139.3 28.8998 139.2C28.9998 139 30.6998 138 30.6998 138L50.7998 164.5C50.7998 164.5 49.6998 165.8 49.3998 166.2C47.7998 166.7 43.4998 172.1 43.2998 172C39.8998 169.4 29.5998 158.3 25.6998 154.9V124.1C26.0998 122.9 36.9998 118.1 44.7998 100.4C48.6998 98.2001 52.9998 97.0001 56.9998 95.1001C56.9998 95.1001 55.9998 93.5001 55.4998 93.0001C56.0998 94.3001 56.1998 94.6001 54.7998 95.1001L25.7998 107L25.8998 104.6C28.7998 102.4 47.8998 88.4001 53.7998 85.1001ZM37.1998 86.0001C36.1998 86.7001 33.9998 89.0001 33.8998 89.2001C33.5998 89.7001 33.8998 89.8001 33.9998 89.7001C35.1998 88.8001 36.2998 87.8001 37.5998 87.0001C38.0998 86.7001 38.5998 86.0001 38.6998 85.8001C38.4998 85.5001 37.6998 85.7001 37.1998 86.0001ZM66.3998 91.0001L70.0998 92.7001L69.0998 97.2001L65.4998 95.4001L66.3998 91.0001ZM69.2998 98.0001L72.5998 100.3L70.9998 104L67.8998 101.9L69.2998 98.0001ZM59.6998 100.3C56.2998 108.8 53.4998 114.5 46.8998 123.5C50.9998 128.9 62.6998 144.3 63.0998 144.2C68.0998 128.4 66.5998 113.3 59.6998 100.3ZM43.8998 100.9C43.8998 100.9 41.3998 106.4 36.9998 112.1C33.0998 117.1 26.1998 122.8 26.1998 122.7L25.9998 119.8L26.6998 120.9L27.9998 119.9L27.0998 118.7L25.9998 119.6L25.8998 118.4C33.0998 113.2 36.1998 107.1 39.1998 102.6L40.4998 102L41.9998 102.5L42.6998 101.2L43.8998 100.9ZM39.8998 102.8L39.2998 104.1L40.7998 104.9L41.5998 103.6L39.8998 102.8ZM38.1998 102.9C34.7998 108.6 30.8998 114 25.2998 118.2L25.1998 107.9L38.1998 102.9ZM38.9998 104.6L38.1998 105.9L39.5998 106.7L40.3998 105.4L38.9998 104.6ZM71.0998 105.1L74.0998 107.4L72.5998 110.7L69.5998 108.7L71.0998 105.1ZM115.4 105.4C110.2 121.2 112.1 135.9 118.3 149.6C121.9 141.8 125.5 133.8 131.3 127.7L115.4 105.4ZM37.8998 106.6L37.0998 107.9L38.4998 108.8L39.2998 107.5L37.8998 106.6ZM60.0998 107.3C63.2998 117.3 64.6998 127.2 61.6998 137.9L50.2998 123.1C53.9998 118.5 57.1998 113.1 60.0998 107.3ZM36.5998 108.5L35.6998 109.8L37.0998 110.7L37.9998 109.5L36.5998 108.5ZM35.1998 110.4L34.1998 111.6L35.4998 112.6L36.4998 111.4L35.1998 110.4ZM72.7998 111.7L75.2998 114.1L73.3998 117.3L70.9998 114.7L72.7998 111.7ZM33.6998 112.3L32.6998 113.4L33.8998 114.5L34.8998 113.4L33.6998 112.3ZM116.9 112.8L128.2 127.2C124 132.4 121.3 137.3 118.6 142.1C114 131.1 114.4 121.3 116.9 112.8ZM32.0998 114L30.9998 115.1L32.1998 116.2L33.2998 115.1L32.0998 114ZM30.3998 115.8L29.2998 116.8L30.3998 117.9L31.4998 116.9L30.3998 115.8ZM59.1998 116.3L53.8998 123.5L59.8998 130.9C60.1998 130.9 60.5998 121.1 59.1998 116.3ZM28.6998 117.3L27.4998 118.3L28.4998 119.5L29.6998 118.5L28.6998 117.3ZM73.2998 118L75.4998 120.6L73.5998 123.2L71.5998 120.7L73.2998 118ZM118.6 119.7C118 123.9 117.8 128.7 119.4 135L124.6 127.4L118.6 119.7ZM104.8 121.2L106.6 124.1L104.6 126.8L102.7 124L104.8 121.2ZM73.5998 124.3L75.4998 126.7L73.4998 129.2L71.6998 126.8L73.5998 124.3ZM104.8 127.3L106.8 129.6L104.7 132.4L102.6 129.9L104.8 127.3ZM152.9 127.4C152.9 128.2 152.9 128.3 152.9 128.7L152.4 129.1L152.9 130C152.9 130.5 152.9 130.8 152.9 132C148.7 135.4 144.3 138.4 139.4 148.1L137.9 148.8L138 148.5L136.6 147.8L135.9 149.2L136.4 149.4C135.6 149.8 135.6 149.8 134.1 150.5C134.1 150.5 135.2 147.9 136 146.3C140 139.5 145 132.6 152.9 127.4ZM151.7 129.6L150.5 130.5L151.4 131.7L152.6 130.8L151.7 129.6ZM149.7 131.1L148.5 132.1L149.5 133.3L150.7 132.3L149.7 131.1ZM147.9 132.6L146.8 133.6L147.8 134.7L148.9 133.7L147.9 132.6ZM153.3 132.6L153.5 142.1L140.4 147.6C143.3 141.2 147.6 136.2 153.3 132.6ZM104.7 133.3L107.3 135.7L105.6 138.9L103 136.4L104.7 133.3ZM146 134.3L144.9 135.4L146 136.5L147.1 135.4L146 134.3ZM144.3 136.2L143.3 137.4L144.5 138.4L145.5 137.2L144.3 136.2ZM142.7 138L141.8 139.2L143 140.1L143.9 138.9L142.7 138ZM105.8 139.7L108.7 142.1L106.9 145.4L104 142.7L105.8 139.7ZM141.3 139.9L140.4 141.2L141.7 142.1L142.6 140.8L141.3 139.9ZM140.1 141.8L139.3 143.1L140.6 143.9L141.4 142.6L140.1 141.8ZM153.1 143.1V145.4C153.1 145.4 131.5 153.5 123.7 157.9C123.7 157.9 123.5 157.6 122.5 156.1C132.8 152 143.6 146.6 153.1 143.1ZM138.9 143.7L138.1 145L139.4 145.8L140.2 144.5L138.9 143.7ZM137.7 145.7L136.9 147L138.2 147.8L139 146.5L137.7 145.7ZM107.2 146.2L110.4 148.4L108.9 152.2L105.7 149.9L107.2 146.2ZM152.9 149.9V228.2H118.2L110.2 213.6C110.4 212.5 110.1 211.7 109.7 211C109.5 210.7 109.3 210.2 109.3 209.7C109.2 209 109.2 209 108.2 208C108 207.8 107.9 207.7 108 207.5C108.3 206.6 108.1 204.8 107.5 202.7C106.6 200 106.4 200 108 196.4C108.3 195.6 108.7 194.6 109.2 193.7C111.2 189.6 111.5 188.5 108.1 186.3C107.1 185.7 106.9 185.1 107.1 183.9C107.3 182.9 107.3 182.3 106.9 181.8C106.6 181.4 106.3 181.4 106.4 181.1C106.5 180.9 106.7 180.1 106.6 179.4C106.4 177.6 108.5 174.9 110.4 173.9C110.5 173.8 110.8 173.7 110.8 173.7C110.8 173.7 110.9 174 111.1 174.3C113.1 177.8 118 176.4 118.3 172.2C118.4 171.1 118.2 170.7 118.2 170.7C124.2 167.1 128 164.6 132.3 162.2C134.2 165.5 133.5 168.4 133.1 171.2C133.1 171.7 133.6 171.8 134.2 171.8C135.3 171.8 136.8 170.7 137.1 169.7C137.4 168.8 137.6 168.3 137.8 168.3C138.1 168.3 138.2 168.7 138.8 169.9C140.1 172.5 140.3 172.8 141.6 174.3C142.6 175.5 143.4 175.7 144.4 174.8C145.1 174.2 145.1 174.7 145.6 175C146.6 175.7 148.1 175.1 148.1 174.1C148.1 173.3 148.1 172.7 149 172.6C149.9 172.5 150.3 171.4 150 169.7C149.9 168.8 149.8 168.7 150.1 168.4C151 167.3 151.1 166.6 150.6 165.1C149.2 160.9 147.2 158.1 145.4 154.3C145.4 154.2 150.1 151.5 152.9 149.9ZM109.3 153.2L113.2 155.4L112.1 159.6L108.3 157.6L109.3 153.2ZM150 165.1C150.8 166.9 150 168.1 148.9 166.6C148.5 166 148.7 165.7 148.9 164.6C148.9 164.4 148.8 164.5 148.4 164.4C147.9 164.5 147.6 164 147.6 163.1C147.9 161.9 147.5 162.6 147.2 162.6C146.8 162.6 146.7 162.3 146.4 161.8C146.3 161.1 145.9 161.3 145.5 161.8C145.1 162.2 145.1 162.2 145.9 163.1C147.2 164.5 148.9 167.6 149.4 169.5C149.5 170 149.5 170.4 149.4 170.7C148.8 172 148 172 147.2 170.2C147.1 169.9 146.8 169.4 146.6 169.1C146.3 168.6 146.1 168.2 146.1 167.4C146.4 166.8 146.4 166.7 146.2 166.6C145.6 166.4 144.7 165.4 144.6 164.5C144.6 163.6 144.4 163.1 143.7 163.6C142.9 164.2 143.2 164.5 144 165.3C144.8 166.3 144.9 167.2 144.4 167.9C144.3 168.1 144.4 168.2 144.7 168.2C145.7 168.1 146.6 169.3 145.9 170.3C145.6 170.9 145.6 171 146.1 171C146.3 171 146.7 171 146.9 171.1C147.2 171.6 147.8 172.4 147.8 173C147.5 173.9 147.1 174.2 146.6 174.2C146.1 174.2 145.5 173.7 145.1 173C144.2 171.4 143 168.8 142.3 167.3C142.1 166.9 142.1 166.6 142.1 166.4C142 165.5 141.8 165.2 141.3 165.6C140.8 166 140.1 166.6 140.9 166.7C141.7 167.3 142.2 168.2 141.7 168.8C141.3 169.2 141.5 169.5 141.8 169.5C142.9 169.5 144.6 172.9 143.8 173.7C142.7 174.7 141.5 173.5 139 168.4C137.9 166.2 137.8 163.7 138.8 164.9C139.1 165.2 139.1 165 139.4 164.1C139.7 163.4 139.9 163 141 162C142.3 160.7 143.1 159.7 143.2 159.5C143.3 159.1 142.5 159.5 141.9 160.2C140.6 161.4 140.6 161.8 140.6 160.1C140.6 158.6 140.7 158.3 140.4 158.3C140 158.3 139.8 159.5 139.6 160.9C139.4 162.2 138.7 162.8 137.6 163.5C137.3 163.7 137.3 163.8 137.3 164.4C137.5 166.2 136.5 169.6 136 168.8C135.9 168.6 135.7 168.2 135.6 167.9C135.5 167.4 135.2 166.9 134.8 166.8C134.2 166.4 134.2 166.1 134 164.6C133.8 163.5 133.4 162.5 133.2 161.5C133.2 161.5 140.7 156.8 144.7 154.5C146.8 157.9 148.5 161.9 150 165.1ZM25.6998 156.1L35.8998 166.2C35.8998 166.2 36.0998 179.2 36.0998 184.5C36.0998 189.8 35.9998 195.1 35.9998 196.1C35.9998 197.1 35.8998 201.3 35.8998 205.6C35.7998 214.7 36.6998 213.5 34.9998 215.3L25.7998 224L25.6998 156.1ZM112.2 159.8L117.1 162.1L116.2 166.9L111.5 164.7L112.2 159.8ZM143.7 160.9C142.5 162.5 140.8 163.2 139.8 164.7C139.6 165 139.8 165.1 140.1 165.1C140.3 165.1 140.9 164.9 141.6 164.2C142.9 163 144.7 160.9 144.7 160.6C144.4 160.3 144 160.6 143.7 160.9ZM105.9 165.7C107.3 165.7 106.8 166.1 105.5 166.9C102.7 168.7 98.8998 173.8 98.2998 175.6C98.1998 176 98.2998 176.3 98.5998 176.2C100.9 172.6 103.9 168.5 107.3 166.9C109.2 166 111.5 165.8 112.7 166.4C113.6 166.8 113.3 167 111.8 167.1C108.2 167.5 103.9 170.9 101.8 174.5C100.6 176.5 101.4 176.1 102.8 174.1C105.2 170.8 110 167.6 113 167.9C116 168.1 117.7 170.4 117.3 172.4C117.1 173.6 116.2 174.9 114.5 175.2C111.6 175.8 109.7 171.2 112.4 170.4C113.1 170.2 113.8 170.5 113.8 170.5C111 171.1 112.4 174.1 113.8 174.2C114.8 174.2 116 173.7 116.1 172C116.1 170.8 115.1 169.6 113.1 169.6C110.8 169.6 107.2 171.3 105 174.4C103.5 176.8 104.9 176 106 174.4C107 173 110.2 171 110.4 171.1C110.3 171.6 110.2 172 110.3 172.7C110.2 172.4 105.3 175.9 105.6 178.4C105.8 180.3 105.5 180.8 103.6 180.8C102.2 180.8 100.3 180.3 99.7998 179.6C99.1998 178.9 98.5998 178.7 98.8998 179.8C99.2998 181.6 98.7998 181.9 99.8998 181.6C100.6 181.4 101.3 181.9 102 182.5C102.8 183.1 103.8 183.3 105 183.3C105.9 183.3 106.3 183.3 106.2 184.2C106.1 184.8 106 185.3 106.2 185.7C106.5 186.3 107.6 187 108.9 187.9C110.4 189 110.1 189.1 106.9 196.4C105.6 199.5 105.6 200.1 106.4 202.4C107.7 206 107.9 207.4 105.5 208C104.2 208.2 102.8 208.2 101.4 208.2C97.1998 208.2 92.7998 207.5 88.7998 206.3C86.2998 193.4 81.7998 184.8 81.7998 179.7C83.5998 181.3 86.4998 181.8 88.3998 179.2C89.5998 177.6 88.3998 175.4 88.9998 174.4C90.1998 172.7 93.1998 169.4 93.6998 169.5C94.0998 169.6 93.9998 169.7 92.6998 171.8C91.2998 173.9 90.2998 175.8 90.6998 176.3C90.8998 176.5 90.9998 176.1 91.9998 174.3C94.3998 170.1 96.4998 167.6 97.2998 167.9C97.6998 168.1 97.4998 168.4 95.6998 170.7C93.6998 173.3 93.1998 175 93.3998 175.7C93.5998 176.3 93.8998 175.4 94.6998 173.7C95.5998 172 97.1998 170.1 98.4998 168.2C98.8998 167.5 99.3998 167.1 100.1 166.8C100.6 166.6 101.4 166.2 101.8 166.3C102 166.3 101.9 166.5 101.5 166.8C98.9998 169.4 96.7998 172.4 95.4998 175.2C95.2998 175.6 95.5998 176.1 95.8998 175.7C97.7998 172.3 100.4 168.1 103.3 166.3C104.3 165.9 105.1 165.7 105.9 165.7ZM36.5998 167.2L42.7998 173.2L56.0998 173C53.8998 176.6 53.8998 179.4 55.2998 182.8C57.6998 188.3 61.3998 200.8 61.0998 200.8C61.0998 200.8 60.9998 201.1 60.6998 201.1C59.5998 201.3 58.8998 202.4 59.1998 203.7C59.2998 204.1 59.2998 204 58.9998 204.6C57.8998 206.5 59.1998 208.5 59.1998 208.5L47.4998 228.2H25.8998V224.8L36.5998 214V205.9C40.6998 207.5 43.9998 213.1 45.0998 217.5C55.2998 209.9 55.7998 193.1 44.5998 184.6C44.4998 188.3 41.4998 195.6 36.5998 196.1V167.2ZM116.5 167.8C117.4 167.9 119.7 168.6 118.6 169.1L117.6 169.6C117 169.1 116.8 168.4 116.5 167.8ZM135.3 169.1C135.3 169.4 135.3 169.6 135.4 169.7C135.8 170 135.1 170.8 134.5 170.7C133.8 170.7 133.9 168.9 134.3 168.3C134.9 167.5 135.3 168.6 135.3 169.1ZM114.2 170.8C114.9 170.8 115.5 171.4 115.5 172.1C115.5 172.8 114.9 173.4 114.2 173.4C113.5 173.4 112.9 172.8 112.9 172.1C113 171.4 113.5 170.8 114.2 170.8ZM87.8998 175.3C88.5998 177 88.0998 179.1 86.0998 179.9C82.5998 181.1 80.0998 176.7 83.4998 175.3C85.2998 174.6 86.8998 175.9 86.0998 177.4C85.4998 178.4 83.9998 178.3 83.5998 177.3C83.2998 176.2 82.7998 176.7 82.9998 177.5C83.5998 180 86.7998 179.4 87.0998 177.1C87.0998 174.3 83.9998 173.6 82.1998 175.2C80.7998 176.5 80.5998 178.8 80.9998 180.7C81.4998 184.8 83.7998 190.2 85.4998 196.3C86.2998 199.3 87.4998 203 87.8998 206.1L86.6998 205.7C86.6998 205.7 82.8998 192.5 80.6998 186.1C78.9998 180.9 77.5998 174.4 83.6998 173C85.3998 172.6 87.3998 174.1 87.8998 175.3ZM79.8998 172.9H81.5998C81.5998 172.9 81.5998 173 80.8998 173.6C76.7998 176.7 79.2998 183.4 80.7998 188.6C83.4998 196.9 85.8998 205.4 85.8998 205.4L84.1998 204.7C83.2998 199.3 78.8998 189 77.3998 181.3C76.7998 176.7 76.7998 175.3 79.8998 172.9ZM71.7998 172.9H72.9998C68.5998 181.2 75.2998 189.8 77.8998 202.5L76.2998 202C74.1998 192.6 65.9998 177.2 71.7998 172.9ZM69.9998 172.9H70.4998C68.4998 176 68.7998 179.9 69.8998 184.1C71.3998 189.8 74.1998 196 75.1998 201.6C74.6998 201.3 73.9998 201.2 73.4998 201C71.7998 193.9 68.7998 186.9 67.3998 180.2C66.8998 176.7 67.6998 173.9 69.9998 172.9ZM74.1998 172.9H75.4998C74.2998 174.8 73.7998 176.4 73.9998 178.9C74.4998 187.4 78.7998 195.6 80.3998 203.4L78.8998 202.9C77.1998 193.5 68.8998 179.6 74.1998 172.9ZM77.0998 172.9H78.5998C76.9998 174.5 75.9998 174.9 76.3998 180.3C77.0998 187.2 81.5998 195.9 83.1998 204.5L81.5998 203.9C81.5998 203.9 81.1998 202.7 80.9998 201.9C79.4998 195 75.2998 187.3 74.7998 179.2C74.6998 176.6 75.0998 174.1 77.0998 172.9ZM62.2998 173.1H63.2998C61.2998 175.4 61.3998 178.6 62.2998 182.1C63.6998 187.8 66.9998 194.6 67.8998 200.3L66.4998 200.2C65.0998 194.1 62.3998 188.2 60.6998 182.1C60.3998 180.7 60.0998 179 60.1998 177.8C60.2998 175.1 61.3998 173.1 62.2998 173.1ZM65.7998 173.1C63.8998 175.6 63.6998 178.2 64.4998 181.6C66.2998 188.6 68.8998 194.7 70.1998 200.4L68.8998 200.1C67.2998 194.5 64.6998 187.5 62.9998 181.8C61.9998 178.2 62.3998 173.9 64.5998 173L65.7998 173.1ZM58.4998 173.1C57.1998 174.4 56.6998 176.5 56.8998 178.7C57.4998 184.9 61.8998 193.5 63.4998 200.2L61.9998 200.5C60.5998 194.7 57.3998 185.8 56.1998 182.8C54.5998 179.7 55.0998 175 57.4998 173.2L58.4998 173.1ZM60.6998 173.2C60.8998 173.2 59.0998 175.9 59.2998 178.2C59.2998 179.4 59.3998 180.8 59.6998 182.1C61.8998 188.4 63.9998 194 65.6998 200L64.2998 200.1C62.3998 192.7 58.6998 186 57.7998 179C57.5998 177 57.8998 175 59.5998 173.3L60.6998 173.2ZM66.9998 173.2H68.3998C66.8998 174.8 66.1998 177.2 66.6998 180.2C67.1998 183.2 68.6998 187.9 69.9998 192.1C71.4998 196.9 72.6998 201 72.4998 201L70.8998 200.8C67.8998 186.9 61.3998 178.3 66.9998 173.2ZM97.2998 182.1C95.9998 182.1 94.6998 182.8 94.3998 183.9C93.9998 185.2 94.2998 187.6 96.8998 187.6C97.7998 187.6 98.2998 186.9 97.1998 186.7C93.1998 186 95.8998 181.9 98.6998 184C101.2 186.3 104.6 186.3 104.6 184.6C104.6 184.2 104.6 184.2 104 184.1C102.6 183.8 100.5 183.2 99.6998 182.8C99.1998 182.6 98.6998 182.3 98.5998 182.3C98.1998 182.2 97.7998 182.1 97.2998 182.1ZM45.2998 185.8C55.3998 195 53.4998 208.1 45.7998 215.8L45.1998 214.2C49.4998 211.7 54.6998 198 45.0998 187.9L45.2998 185.8ZM103.8 186.4C102 186.4 100.5 188.1 101.6 190C101.9 190.5 102.6 190.9 102.9 190.8H103C103.1 190.7 102.9 190.3 102.5 189.9C101 187.8 103.1 187.2 104.6 188.3C106 189.4 108.2 189.3 107.9 188.1C107.8 187.7 107.9 187.5 107.1 187.5C106.4 187.5 106.2 187.5 105.6 187C105 186.6 104.4 186.4 103.8 186.4ZM44.7998 188.6C52.3998 196.3 50.6998 207.5 44.9998 213.9C43.4998 210.9 41.8998 208.2 39.5998 206.5C40.7998 203.6 41.3998 200.3 39.2998 195.9C40.6998 195.1 42.6998 193 44.7998 188.6ZM97.5998 191.7C96.7998 191.7 97.0998 192.2 98.0998 192.6C99.0998 193 100.2 194 100.2 194.3C100.2 194.5 99.8998 194.4 98.1998 194.9C97.4998 195.1 96.3998 195.6 95.9998 195.8C95.2998 196.1 95.1998 196.1 94.0998 196.1C92.0998 196 91.7998 196.1 93.1998 197.1C95.9998 199.2 99.6998 200.5 101.6 199.7C102.2 199.4 102.2 199.6 102.6 199.8C103.2 200.1 103.6 200.3 103.9 200.3C104.5 200.3 104.5 199.8 103.6 199C103 198.5 103.1 198.7 103.1 198.4C103.2 197.1 103 195.8 102.5 197.2C102.4 197.6 102.1 198 101.9 197.9C101.5 197.8 101.7 197 101.5 196.6C101.2 195.9 101.5 195.8 102.3 196C102.9 196.1 102.9 195.8 103.3 195.4C103.9 194.7 103.8 194.3 102.9 194.5C102.7 194.5 102.6 194.5 102.5 194.5C102.2 194.4 101.9 194.2 101.2 193.7C100.3 193 98.9998 192 98.0998 191.9C97.8998 191.7 97.6998 191.7 97.5998 191.7ZM99.3998 195.8C99.4998 195.8 99.6998 195.8 99.7998 195.9C99.9998 196.2 99.3998 197.4 98.9998 197.6C98.7998 197.7 98.5998 197.5 98.4998 197.5C98.3998 197.4 98.4998 197.2 98.4998 197.1C98.6998 196.7 99.0998 195.9 99.0998 195.9C99.0998 195.9 99.2998 195.8 99.3998 195.8ZM98.4998 195.9L97.8998 197C97.7998 197.2 97.6998 197.3 97.5998 197.3C97.4998 197.3 97.4998 197.3 97.3998 197.2C96.8998 197 95.9998 196.6 96.3998 196.3C96.9998 195.9 98.2998 195.8 98.4998 195.9ZM38.6998 196.7C41.3998 201.5 39.1998 206.2 38.9998 205.9L36.5998 205V197.4L38.6998 196.7ZM91.8998 197.2C91.6998 197.2 91.5998 197.3 91.6998 197.6C91.7998 197.8 92.8998 198.6 93.7998 199.2C95.8998 200.5 97.7998 201.5 99.9998 201.5C100.7 201.5 101.5 201.4 102.3 201.1C103.1 200.8 103 200.1 102.3 200.3C102 200.3 101.6 200.4 101.3 200.5C99.3998 200.8 97.0998 200.1 94.2998 198.4C93.5998 198 92.8998 197.6 92.6998 197.4C92.2998 197.3 92.0998 197.2 91.8998 197.2ZM90.2998 199.6C89.8998 199.7 90.3998 200.5 91.6998 201.3C95.1998 203.4 98.6998 205 102.1 204.8C104.7 204.7 105.1 204.5 105.1 203.9C105.1 202.8 104.7 202.4 102.3 202.6C100.2 202.8 97.2998 202.5 95.1998 201.6C92.8998 200.6 92.2998 200.4 91.4998 199.9C90.9998 199.7 90.4998 199.6 90.2998 199.6ZM93.6998 208.1C97.9998 208.8 103.2 208.8 107.7 208.5C108.5 208.4 108.6 210.5 108.6 210.5C109.2 216.8 113.6 222 116.7 228.8C94.1998 228.2 71.4998 228.8 48.7998 228.7C48.7998 228.7 56.9998 214.2 59.5998 209.7C60.0998 208.7 60.1998 208 59.8998 207.6C59.3998 207 59.4998 205.9 59.9998 205.2C60.5998 204.9 60.2998 204.5 60.0998 204C59.6998 202.6 60.6998 201.7 61.7998 201.2C72.9998 199.3 83.1998 206.2 93.6998 208.1Z" fill="#030D6D"/>
<path d="M129.4 21.3C129.4 21.3 120.4 38.8001 117.3 43.4001C100.3 45.2001 103.9 36.6 68.9002 36.6L61.3002 21.5L129.4 21.3ZM145.1 38.7001L145.3 87.1001L143 85L142.5 37L152.7 27.2001L152.8 30.1L145.1 38.7001ZM138.9 44.2001C136.5 49.1001 139.2 55.1 139.2 55.1C137.8 54.7 133.9 62.3 133.5 62C127.5 54.6 126.4 43.5001 133.8 36.7001C135.7 41.5001 138.9 44.2001 138.9 44.2001ZM134.4 78C129.8 82.7 126.2 86.4001 122.6 91.6001C122.3 92.0001 141.9 117.1 141.6 117.5C138.6 120.9 134.5 123.3 131.4 127.4C131.4 127.4 115.3 106.2 115 106.4C113.4 113 112.2 119 112.5 125.9C113.5 143.6 121 154.4 121.1 154.2C127.5 128.7 154.7 112.3 153.6 115V126.4C153.3 125.8 140.7 133.7 133.7 150.5C133.3 151.5 121.3 155.4 121.4 155.5C121.9 156.8 127.2 164.3 127.2 164.3C127.2 164.3 125.1 165.3 124.8 165.3C118 156.7 112.8 145.5 111 134.8C108.9 123.2 107.5 101.5 130.5 77.8001L134.4 78ZM65.4002 107.9C69.0002 119.2 68.9002 130.8 67.2002 138.9C64.7002 153.6 55.4002 164.2 48.0002 172.2L44.7002 172.1C50.2002 167.2 53.8002 162.4 55.9002 158.2L36.7002 132.9L25.7002 135.3C25.7002 135.3 26.0002 124 25.7002 124C34.2002 116.9 40.3002 110.5 44.7002 100.2C47.4002 99.2 56.3002 95.3 56.3002 95.3C59.0002 98.8 44.0002 124.5 46.9002 123.4C48.2002 124.5 62.9002 144.4 63.1002 144.3C69.8002 123.5 63.3002 101.7 51.4002 86.5C52.7002 85.6 54.0002 84.9 53.9002 85.1C59.0002 92.2 63.5002 100.7 65.4002 107.9ZM100.5 118.3C99.7002 117.1 96.3002 143.7 105.3 164.9C104.4 165.6 97.0002 167 97.0002 167L95.0002 160.6L100.1 158.4L99.2002 155.4C95.3002 157.3 86.8002 160.1 81.5002 168.9C81.5002 168.9 56.1002 169.1 55.5002 169.1C55.0002 169.1 60.7002 163.6 66.1002 152.4C68.6002 147.3 70.5002 140.7 71.0002 133C71.1002 131.5 76.8002 140.2 76.8002 140.2C75.4002 147.6 71.5002 154.8 67.7002 162C67.7002 162 73.5002 162.3 77.6002 162.2C84.0002 155.2 87.9002 151.5 97.5002 148.2C95.3002 137.2 101.5 136.1 77.4002 132.6C80.1002 118.4 78.9002 101.3 73.1002 85.1C78.7002 84.7 78.9002 84.4 81.8002 83.6L83.8002 89.5L78.5002 92L79.4002 95.3C79.4002 95.3 91.4002 91.6 97.3002 81.1H123.6C113.5 92.2 109.3 103.1 107.1 117.6C104.9 117.2 100.5 118.3 100.5 118.3ZM35.9002 213.8C32.6002 216.6 26.0002 223.8 26.0002 223.8L25.9002 220.1L33.4002 212.2L33.3002 163.6L35.8002 166.1L35.9002 213.8ZM39.3002 196C40.7002 195.4 43.4002 192.2 44.6002 188.6C53.3002 196.4 49.7002 210.8 45.0002 213.8C43.6002 210.7 39.6002 206.5 39.7002 206.6C40.7002 203.3 41.4002 199.9 39.3002 196ZM116.5 228.6L49.3002 228.5C53.1002 220.9 56.7002 214.8 60.7002 207.3C62.8002 204.7 108.7 215.6 109 214.5L116.5 228.6Z" fill="white"/>
<path d="M130.5 20.8999L60.3999 20.9999L68.7999 36.8999C68.7999 36.8999 68.0999 39.4999 69.4999 39.7999C69.8999 39.8999 70.1999 40.2999 70.2999 40.6999C70.1999 41.7999 70.6999 42.2999 71.0999 42.7999C77.7999 41.8999 83.4999 42.2999 88.2999 43.3999C98.9999 46.5999 107.6 51.3999 117.2 49.4999C118.7 49.0999 119.4 47.6999 118.9 46.4999C118.7 45.8999 118.3 45.8999 118.7 45.5999C119.2 45.0999 119.4 43.7999 118.9 43.3999C118.3 43.0999 118.1 43.6999 118.8 42.4999L130.5 20.8999ZM129.1 21.5999L123.4 32.2999C120 32.0999 120.1 35.3999 120.3 35.4999C118 33.8999 115.6 37.8999 118.9 39.0999C116.2 41.8999 112.2 39.2999 112.4 39.0999C116.2 39.7999 116.5 35.4999 113.9 34.7999C117.3 29.9999 108.3 28.1999 110 34.0999C105.4 33.2999 106.3 38.4999 109.7 38.4999C108.9 40.4999 102.6 38.9999 102.9 37.4999C107.1 36.9999 105.4 33.1999 103.6 33.1999C108 28.9999 99.1999 25.0999 99.3999 31.3999C95.7999 30.5999 95.3999 35.3999 98.7999 35.6999C97.4999 37.4999 93.0999 36.3999 91.7999 34.2999C95.2999 33.7999 95.0999 30.6999 92.2999 30.1999C95.7999 25.6999 87.1999 23.9999 88.0999 29.2999C84.9999 28.1999 83.2999 32.3999 87.2999 33.5999C83.1999 36.0999 78.6999 32.3999 79.1999 32.2999C83.8999 32.5999 82.9999 27.8999 79.5999 28.0999C81.7999 23.1999 73.1999 22.8999 75.3999 27.9999C71.5999 27.8999 71.8999 32.3999 75.5999 32.6999C73.2999 34.3999 70.6999 34.5999 68.9999 32.9999C72.4999 32.0999 70.9999 27.9999 67.4999 29.0999C67.1999 25.6999 64.3999 26.3999 64.2999 26.4999L61.7999 21.7999L129.1 21.5999ZM153.9 25.4999L142.4 36.9999L142.5 84.6999C140.1 82.3999 138 79.8999 135.2 77.6999H130.4C117.9 90.3999 111.1 101.3 109.6 120.9C108.6 134 112.9 150.4 124.4 166.3L127.2 164.6L121.7 156.2L133.4 151C138.1 141.1 143.6 132 153.7 126.8L153.8 114L154 113.7L153.9 109.7L148.9 112.4C147.4 110.2 142.6 103.8 137.9 97.5999C132.9 91.0999 128.2 84.8999 128.2 84.8999L127.9 85.0999L128.6 84.2999L149.4 111.7C149.4 111.7 152.7 110.1 153.6 109.5L153.5 95.5999H154.1L153.9 25.4999ZM152.6 27.3999L152.7 29.9999L144.9 38.0999C144.9 54.1999 144.9 70.2999 145 86.2999L143.1 84.3999L142.8 36.8999L152.6 27.3999ZM77.8999 28.0999C78.5999 28.1999 79.0999 28.8999 78.5999 29.6999C77.5999 31.3999 78.2999 32.8999 80.8999 34.1999C84.4999 36.0999 90.3999 33.9999 89.0999 31.1999C88.2999 30.2999 88.9999 29.6999 90.0999 29.6999C91.2999 29.6999 91.5999 30.4999 90.8999 31.2999C89.9999 32.3999 90.1999 33.3999 91.2999 34.6999C94.4999 39.2999 101 37.4999 100.2 33.3999C99.7999 32.3999 100.9 31.9999 102 32.3999C102.7 32.6999 102.6 33.7999 101.8 34.1999C100.9 34.2999 100.8 35.5999 100.9 36.3999C101.1 37.5999 102.8 38.7999 104.6 39.4999C105.9 39.9999 107.1 40.0999 108 39.9999C110 39.7999 111.1 38.4999 110.8 36.3999C110.6 35.1999 110.9 33.9999 112.3 34.5999C113.1 34.9999 112.9 35.7999 112.1 36.5999C109.4 39.2999 114.9 42.5999 118.2 40.2999C118.8 39.7999 119.2 39.7999 119.2 39.7999C117.1 44.9999 110.6 40.0999 110.6 39.8999C103.7 43.7999 100.8 38.3999 99.7999 37.5999C93.7999 38.8999 92.5999 38.2999 89.1999 34.5999C83.1999 37.5999 80.1999 34.9999 77.6999 33.3999C74.6999 36.1999 70.9999 36.2999 68.9999 34.8999C68.5999 34.2999 68.0999 33.4999 68.0999 33.2999C68.0999 33.0999 68.2999 33.2999 68.9999 33.7999C72.4999 36.3999 78.3999 33.1999 76.8999 29.7999C76.4999 28.8999 76.4999 28.4999 77.1999 28.0999C77.3999 28.0999 77.5999 28.0999 77.8999 28.0999ZM66.5999 29.8999C67.5999 29.8999 67.8999 31.5999 67.3999 31.8999C67.1999 31.4999 66.2999 29.8999 66.3999 29.8999C66.3999 29.8999 66.4999 29.8999 66.5999 29.8999ZM77.7999 34.2999C78.2999 34.7999 79.1999 35.2999 79.9999 35.7999L76.1999 35.5999C76.6999 35.1999 77.1999 34.8999 77.7999 34.2999ZM89.0999 35.4999C89.6999 36.1999 90.2999 36.6999 90.8999 37.2999L87.3999 36.3999L89.0999 35.4999ZM121 35.9999C121.2 35.9999 121.1 36.1999 120.8 36.8999C120.6 37.1999 120.5 37.4999 120.4 37.4999C120.1 37.2999 120.3 36.5999 120.5 36.3999C120.7 36.1999 120.9 35.9999 121 35.9999ZM133.9 36.4999C124.4 46.1999 128.9 57.4999 133.8 62.9999C134.9 59.1999 139.9 55.1999 139.8 55.0999C137.6 51.6999 137.8 46.6999 139.6 44.1999C139.6 44.2999 135.7 40.9999 135.2 39.2999C134.8 38.1999 134.7 37.3999 133.9 36.4999ZM133.7 36.9999L134.3 37.9999C127.5 45.9999 130.4 55.7999 134.3 60.4999L133.6 61.8999C124.4 50.4999 130.5 39.9999 133.7 36.9999ZM72.8999 37.1999C80.2999 37.0999 88.5999 37.6999 94.8999 40.0999C101.9 42.1999 108.4 46.1999 118 43.4999C118.3 43.4999 118.4 43.8999 118.4 44.2999C118.4 44.6999 118.2 44.9999 117.9 45.1999C105.3 48.3999 98.5999 41.5999 88.4999 39.6999C83.4999 38.7999 76.9999 38.2999 72.6999 38.6999C70.2999 38.8999 69.6999 38.8999 69.7999 37.7999C69.7999 37.1999 69.6999 37.1999 72.8999 37.1999ZM99.5999 38.3999L101.4 40.6999L97.1999 39.0999C98.2999 38.9999 98.9999 38.6999 99.5999 38.3999ZM134.4 39.1999C134.5 39.1999 134.5 39.1999 134.6 39.2999C135.2 39.9999 133.6 39.9999 134.2 39.2999C134.3 39.2999 134.4 39.1999 134.4 39.1999ZM74.8999 40.0999C84.7999 39.9999 93.1999 41.9999 99.3999 44.8999C105.6 47.1999 111.3 47.9999 115.7 47.2999C118.2 46.8999 118.5 46.8999 118.5 47.4999C118 49.5999 115.4 49.3999 113.4 49.3999C108 49.3999 101.9 47.7999 97.5999 45.8999C89.0999 42.0999 80.7999 40.9999 72.2999 42.0999C71.8999 42.1999 71.4999 42.0999 71.1999 41.7999C70.3999 40.8999 70.9999 40.3999 72.8999 40.1999C73.5999 40.0999 74.2999 40.0999 74.8999 40.0999ZM134.9 40.4999C135.3 40.4999 135.8 40.6999 136 40.8999C136.5 41.4999 135.9 43.2999 135.2 43.2999C134.7 43.2999 134 41.0999 134.4 40.5999C134.4 40.5999 134.6 40.4999 134.9 40.4999ZM110.6 40.8999C111.3 41.4999 112.2 42.1999 113.2 42.7999C111.2 42.7999 109.3 42.5999 107.5 42.2999C108.5 41.8999 109.5 41.4999 110.6 40.8999ZM133.3 41.1999C133.5 41.1999 133.6 41.4999 133.8 42.0999C134.2 43.2999 134.1 43.4999 133.4 43.6999C133 43.7999 132.6 43.9999 132.2 44.0999C131.8 44.0999 131.9 43.4999 132.6 42.0999C132.9 41.4999 133.1 41.1999 133.3 41.1999ZM136.8 42.4999L138.7 44.0999C137.4 47.1999 136.8 50.3999 138.9 54.5999L136.9 56.4999C134.2 50.8999 134.4 46.4999 136.8 42.4999ZM134.3 44.1999C134.7 44.1999 134.9 44.2999 135 44.6999C134.8 45.5999 134.4 47.1999 133.9 47.0999C133.1 46.8999 131.8 44.8999 133 44.5999C133.4 44.2999 133.9 44.1999 134.3 44.1999ZM140.7 44.6999L139.4 49.2999L140.8 54.0999L141.5 53.8999L140.1 49.2999L141.3 44.8999L140.7 44.6999ZM131.4 45.4999C131.9 45.4999 133.2 46.8999 133.2 47.3999C133.2 47.5999 131.8 48.4999 131.3 48.8999C131 49.0999 131.1 48.9999 131.1 48.7999C131.1 48.0999 131.1 46.3999 131.4 45.6999C131.3 45.5999 131.3 45.5999 131.4 45.4999ZM134 48.1999C134.3 48.1999 134.2 48.5999 134.2 49.6999C134.2 50.5999 134.2 51.0999 134 51.0999C133.8 51.0999 133.3 50.7999 132.8 50.3999C131.5 49.3999 131.8 48.7999 133.3 48.2999C133.5 48.1999 133.7 48.1999 133.9 48.0999C133.9 48.1999 134 48.1999 134 48.1999ZM131.3 50.1999C131.5 50.1999 131.7 50.3999 132 50.6999C133 51.5999 133.1 51.7999 132.2 52.4999C131.9 52.6999 131.6 52.9999 131.4 52.9999C131 52.9999 130.9 52.2999 130.8 51.0999C130.9 50.3999 131 50.0999 131.3 50.1999ZM134.1 51.9999C134.5 51.9999 134.7 52.3999 135 53.7999C135.2 54.6999 135.3 55.0999 135.1 55.0999C134.6 55.0999 134.1 54.9999 133.7 54.8999C131.8 54.2999 131.8 53.0999 133.6 52.1999C133.8 52.0999 134 51.9999 134.1 51.9999ZM132.2 55.1999C132.5 55.1999 133.8 55.4999 134.1 55.9999C134 56.3999 133.6 57.4999 133.3 57.7999C132.9 57.6999 132.2 56.1999 132.2 55.1999ZM135.3 55.7999C135.4 55.7999 135.5 55.7999 135.5 55.8999C135.7 56.1999 135.9 56.5999 136 56.8999C136.2 57.2999 136.1 57.4999 135.6 57.9999C135 58.5999 134.5 58.5999 134.1 58.2999C134.1 57.9999 134.8 55.8999 135.3 55.7999ZM134.5 58.9999L135 59.0999L134.7 59.6999C134.5 59.5999 134.2 58.9999 134.5 58.9999ZM90.5999 75.8999C87.1999 80.1999 81.6999 82.9999 81.6999 82.8999L81.4999 83.3999C81.4999 83.3999 80.4999 83.6999 79.5999 83.8999C79.2999 83.9999 78.6999 84.0999 78.2999 84.1999C77.6999 84.3999 77.3999 84.5999 76.4999 84.5999C74.5999 84.3999 72.5999 84.9999 72.6999 84.9999C78.3999 100.9 79.7999 115.3 77.5999 132C75.4999 132 70.7999 131.9 70.7999 131.9C70.2999 136.6 69.6999 141.3 68.2999 145.7C66.4999 151.4 64.1999 156.7 60.6999 161.5C58.6999 164.5 56.8999 166.7 54.7999 169.5L81.2999 169.4C84.7999 163.5 91.5999 158.5 96.9999 156.5C98.7999 155.8 99.0999 155.9 99.3999 156.8C99.8999 158.4 99.8999 158.3 98.4999 158.7C91.3999 161.2 86.9999 165.7 83.3999 171.4C82.9999 172 82.8999 172.3 83.0999 172.4C85.4999 172 86.8999 173.6 88.3999 174.7C89.8999 172.5 92.4999 169.6 94.3999 168.8C94.8999 168.8 95.7999 168.3 96.1999 167.8C96.6999 167.2 97.0999 167.3 97.5999 167.3C98.1999 167.3 99.1999 167.2 100.4 166.6C101.1 166.3 101.4 166.2 102.5 166.1C103.4 166.1 104.3 165.8 105.1 165.5C106 165.2 105.7 165 105.2 163.8C102.5 156.9 100.6 148.8 99.8999 142.2C99.0999 134.7 99.3999 125.5 100.4 118.5C103 118.5 104.6 118.6 107.3 118.6C109.1 103.5 114.2 91.4999 124.2 80.6999L96.9999 80.8999C93.8999 89.1999 79.6999 95.5999 79.2999 95.0999L78.5999 92.0999C78.5999 92.0999 88.7999 90.5999 95.5999 77.5999C94.8999 77.9999 92.2999 77.6999 90.5999 75.8999ZM90.6999 76.5999C92.4999 77.8999 93.4999 78.0999 94.5999 78.3999C91.5999 83.9999 87.9999 86.9999 84.2999 89.0999L81.9999 83.1999C85.0999 81.8999 88.2999 79.1999 90.6999 76.5999ZM134.1 77.9999C119.4 92.1999 112.9 104.3 112.3 120.4C111.7 138.8 117.3 151.1 126.7 164.2L124.7 165.4C115.7 153.3 109.2 137 110.3 120.8C111.3 102 118.4 91.1999 130.9 78.1999L134.1 77.9999ZM116.2 81.2999H122.8L117.9 87.5999L112 87.3999L116.2 81.2999ZM97.2999 81.2999H115.2L111.2 87.4999L100.6 87.5999C95.4999 93.7999 89.1999 98.7999 80.8999 101.7C80.8999 101.7 79.8999 95.8999 79.5999 95.3999C89.0999 91.7999 94.5999 86.4999 97.2999 81.2999ZM109.8 81.4999L107.4 84.2999L109.3 86.6999L112 84.2999L109.8 81.4999ZM104.1 81.7999L101.9 84.5999L104.2 86.8999L106.4 84.4999L104.1 81.7999ZM97.6999 81.8999L97.1999 85.5999L100.4 87.3999L100.8 83.7999L97.6999 81.8999ZM116.7 82.2999L114.4 85.8999L117.2 85.9999L119.9 82.2999H116.7ZM81.2999 83.8999L83.3999 89.5999C82.7999 89.8999 82.1999 90.1999 81.5999 90.2999L79.8999 84.2999L81.2999 83.8999ZM79.1999 84.5999L80.8999 90.4999C80.1999 90.8999 79.4999 90.9999 78.7999 91.2999L76.8999 84.9999L79.1999 84.5999ZM53.7999 84.7999L51.2999 86.2999L50.9999 85.9999L25.0999 101V105.5L55.0999 92.7999C55.6999 93.3999 55.9999 94.0999 56.4999 94.8999L44.4999 99.9999C40.8999 110 32.6999 118.3 25.0999 124.1C25.0999 134 25.1999 154.8 25.1999 154.8L43.2999 173C45.5999 170.9 47.6999 168.7 49.6999 166.3L28.9999 138.8L30.7999 137.6L51.3999 165C51.1999 165.2 50.9999 165.4 50.8999 165.6C50.4999 165.1 46.3999 159.8 41.5999 153.5C36.5999 147 31.2999 140 30.1999 138.3L29.7999 138.6C30.8999 140.4 36.1999 147.3 41.1999 153.8C45.9999 160.1 50.2999 165.6 50.5999 166C48.3999 168.5 46.0999 170.8 43.7999 173.1L47.8999 173C50.7999 170 71.7999 150.6 68.2999 121.2C66.6999 108.5 63.1999 97.6999 53.7999 84.7999ZM75.9999 84.8999C79.8999 95.9999 82.8999 111.8 79.7999 132C79.7999 132 78.6999 132 78.1999 132C81.3999 116 78.4999 98.9999 73.4999 85.0999L75.9999 84.8999ZM53.7999 85.1999C72.1999 110 75.5999 146.8 47.3999 172.1L44.9999 172C47.0999 170.1 48.9999 168.1 50.6999 166.1L50.8999 166.3L51.2999 166L51.0999 165.7C72.6999 140.8 69.8999 111 51.7999 86.3999L53.7999 85.1999ZM127.8 85.3999C127.8 85.3999 132.5 91.4999 137.4 97.9999C142.1 104.1 146.9 110.5 148.3 112.7L147.6 113.1L127 86.1999L127.8 85.3999ZM126.7 86.8999L146.9 113.2L141.8 116.9L122.8 91.7999L126.7 86.8999ZM93.6999 86.8999L93.5999 90.4999L96.7999 90.9999V87.1999L93.6999 86.8999ZM111.6 88.2999L113.5 88.3999L111 90.0999L112.6 92.1999L115.2 90.4999L113.8 88.3999L117.6 88.4999L115 92.5999L109.4 92.3999L111.6 88.2999ZM110.5 88.3999C110.3 88.3999 102.7 102.9 101.8 109.2L81.8999 109.3L81.0999 102.5C87.6999 100.1 94.7999 95.9999 101 88.4999C102 88.4999 110.5 88.3999 110.5 88.3999ZM89.9999 90.5999L89.3999 93.8999L92.2999 94.4999L92.8999 91.1999L89.9999 90.5999ZM122.3 92.5999L141 117.5L139.1 118.9L120.9 94.6999L122.3 92.5999ZM108.9 93.1999L114.5 93.3999L112.1 98.0999L106.6 97.9999L108.9 93.1999ZM85.3999 93.3999L84.9999 96.8999L87.9999 97.6999L88.3999 94.0999L85.3999 93.3999ZM110.7 93.4999L108.1 95.2999L109.8 97.6999L112.5 95.8999L110.7 93.4999ZM81.2999 95.4999L80.2999 98.4999L83.0999 99.9999L83.9999 97.1999L81.2999 95.4999ZM54.9999 96.0999C55.7999 97.0999 54.4999 101.8 52.8999 98.7999C52.5999 98.1999 52.0999 97.2999 52.0999 97.2999L52.9999 96.9999C53.5999 99.1999 54.1999 98.3999 54.2999 96.3999C54.7999 96.1999 54.8999 96.1999 54.9999 96.0999ZM57.6999 97.4999L59.3999 100.6C48.8999 126.7 34.5999 134.4 26.0999 139.7V136C48.9999 124.5 57.5999 97.4999 57.6999 97.4999ZM51.2999 97.6999C51.6999 98.5999 52.4999 99.4999 52.6999 100.5C52.7999 100.9 52.5999 101.1 52.0999 101.3C50.7999 101.9 49.3999 102.3 48.3999 101.8C48.0999 101.3 49.2999 98.4999 49.2999 98.4999L51.2999 97.6999ZM119.6 98.2999C120.4 98.3999 121.5 98.7999 122.4 99.5999C124.1 101 124.8 102.8 125 106.5C125.1 108.8 125.3 109.3 126 108.4C127.2 106.2 130.1 107.3 130.5 109.6C130.7 110.8 129.6 111.7 129.3 110.6C128.4 108.3 126.2 108.9 126.5 111.1C126.7 112.6 128.2 113.4 131.1 114.2C134.6 115.2 135.7 116.4 136.4 119.3C136.7 120.6 136.7 121.3 136 121.9C135.7 122.2 135.2 122.6 135.2 122.6C135.2 122.6 134.7 120.6 134.5 119.7C134.2 118 131.8 118.1 132.1 119.9C132.3 120.9 132.3 120.9 131.8 120.9C129.4 120.8 129.8 117 132.6 117.3C133.2 117.2 133.3 117 132.8 116.8C132.3 116.6 130.5 116.1 130.2 116.1C127.2 116.1 122.8 111.5 123 107.3C123.1 104.6 122.2 102.7 121.2 102.4C120.5 102.2 119.4 102.9 119.5 103.7C119.6 104.8 118.7 104.5 118.2 103.7C117.4 102.6 118.4 100.9 120.4 101.1C121.2 100.9 119.8 100.4 118.7 100.1C117.7 99.9999 118.6 98.8999 118.7 98.5999C118.8 98.3999 119 98.3999 119.3 98.2999C119.4 98.2999 119.5 98.2999 119.6 98.2999ZM106.2 98.6999H111.8L110 103.5L104.3 103.4L106.2 98.6999ZM48.1999 98.9999C43.7999 111 34.4999 121.4 25.9999 126.7V124C27.7999 122.7 39.1999 114.3 45.1999 100.3L48.1999 98.9999ZM108.1 98.9999L105.5 100.8L107.5 102.8L110.2 101.1L108.1 98.9999ZM54.7999 100.6C55.0999 100.6 55.3999 100.9 55.3999 101.2C55.3999 101.5 55.0999 101.8 54.7999 101.8C54.4999 101.8 54.1999 101.5 54.1999 101.2C54.1999 100.9 54.4999 100.6 54.7999 100.6ZM59.7999 101.1C65.3999 114.3 67.4999 127.2 63.0999 143.8L47.2999 123.2C51.9999 117.2 56.6999 110.3 59.7999 101.1ZM52.8999 101.9C53.1999 101.9 53.1999 102.3 53.0999 103.1C52.8999 105.1 51.5999 107.2 50.7999 107.3C50.4999 107.3 50.1999 106.8 50.0999 106.3C49.9999 105.8 48.9999 104.4 48.3999 103.7C47.6999 102.9 47.6999 102.8 48.7999 102.7C50.0999 102.6 51.2999 102.3 51.9999 102.1C52.3999 102 52.6999 101.9 52.8999 101.9ZM38.7999 102.4L24.8999 107.8V118.7C34.3999 111.9 38.0999 103.5 38.7999 102.4ZM51.3999 103.1C50.8999 103.2 49.8999 103.6 49.7999 104C49.7999 104.2 50.4999 105.4 50.8999 105.4C51.5999 105.3 51.8999 103.7 51.7999 103.2C51.6999 103.1 51.5999 103.1 51.3999 103.1ZM37.6999 103.3C33.6999 110.1 29.7999 114.2 25.9999 117.3L25.8999 108.3L37.6999 103.3ZM116.5 103.3L133 125L131.5 126.5L115.5 106L116.5 103.3ZM47.1999 104C48.1999 104 49.7999 107.7 49.2999 108.4C48.9999 108.8 47.0999 108.6 46.0999 108.5C45.0999 108.3 44.8999 108.3 45.2999 107.4C45.7999 106.3 46.7999 104.2 47.0999 104.1C47.0999 104 47.1999 104 47.1999 104ZM104 104.1L109.9 104.2L108.5 109.3H102.5L104 104.1ZM106.4 104.4L103.5 106.4L105.8 108.7L108.6 106.8L106.4 104.4ZM115.1 106.9L131 127.6C124.9 134.5 120.8 142.4 118.3 149.2C112.4 136.4 111 121.7 115.1 106.9ZM51.0999 108.2C51.3999 108.2 51.6999 108.5 51.6999 108.8C51.6999 109.1 51.3999 109.4 51.0999 109.4C50.7999 109.4 50.4999 109.1 50.4999 108.8C50.4999 108.5 50.7999 108.2 51.0999 108.2ZM44.5999 109C44.7999 109 44.9999 109 45.2999 109.1C46.4999 109.6 49.4999 109.1 49.4999 109.3C49.8999 109.9 49.2999 111.6 48.0999 112.8C47.4999 113.4 46.9999 113.7 46.5999 113.7C46.2999 113.7 46.1999 113.3 45.9999 112.5C45.5999 111.2 44.8999 110.1 44.3999 109.1C44.3999 109.1 44.4999 109 44.5999 109ZM43.7999 110.2C44.2999 110.1 44.8999 111.1 45.2999 112.7C45.6999 114.1 45.4999 114.5 44.6999 114.5C44.2999 114.6 43.9999 114.5 43.5999 114.5C41.3999 114.5 40.6999 114.4 41.2999 113.3C42.0999 112.3 42.5999 111.3 43.5999 110.3C43.5999 110.3 43.6999 110.2 43.7999 110.2ZM47.5999 110.3C47.1999 110.3 46.7999 110.5 46.5999 110.7C46.3999 111.1 46.4999 111.8 47.0999 112.1C47.3999 112.3 48.3999 110.9 48.0999 110.5C47.9999 110.3 47.7999 110.3 47.5999 110.3ZM102.4 110.3L108.2 110.4L107.1 116.5L102.4 110.3ZM152.9 110.9V113.9C134.4 124.5 126.8 137 120.5 152.9L118.7 149.9C125.1 133.5 135.1 121.2 148.7 113.2L149.1 112.9C150.4 112.2 151.6 111.5 152.9 110.9ZM46.9999 114.9C47.2999 114.9 47.5999 115.2 47.5999 115.5C47.5999 115.8 47.2999 116.1 46.9999 116.1C46.6999 116.1 46.3999 115.8 46.3999 115.5C46.3999 115.2 46.6999 114.9 46.9999 114.9ZM40.5999 114.9C40.7999 114.9 41.3999 115.1 42.1999 115.2C43.2999 115.3 44.9999 115.1 45.4999 115.4C45.6999 115.6 45.4999 116.3 45.1999 117C44.6999 118 43.7999 118.9 43.0999 119.3C41.3999 120.1 41.7999 119.1 41.4999 118.1C41.2999 117.5 41.0999 116.8 40.8999 116.2C40.4999 115.2 40.3999 114.9 40.5999 114.9ZM39.4999 116C39.8999 116 40.2999 116.6 40.4999 117.7C41.0999 119.6 41.1999 120.3 39.7999 120.1C39.3999 120.1 38.7999 120.1 38.1999 119.9C36.4999 119.6 36.2999 119.4 37.2999 118.2C37.6999 117.8 38.1999 117.1 38.4999 116.7C38.8999 116.2 39.1999 116 39.4999 116ZM153 116.1V117.7C151.6 118.2 150.8 119.3 153.1 119.7V121C152.1 120.6 151.2 120.1 150.1 119.7C149.4 119.5 149.6 118.9 150.3 118.1C151 117.1 151.8 116.6 153 116.1ZM43.3999 116.3C43.0999 116.3 42.8999 116.3 42.6999 116.4C42.0999 116.6 42.4999 118 43.0999 118C43.5999 117.9 44.3999 116.9 43.9999 116.5C43.8999 116.4 43.6999 116.3 43.3999 116.3ZM147.8 118.2C148.1 118.2 148.4 118.5 148.4 118.8C148.4 119.1 148.1 119.4 147.8 119.4C147.5 119.4 147.2 119.1 147.2 118.8C147.2 118.5 147.5 118.2 147.8 118.2ZM98.9999 118.7C99.4999 118.7 99.9999 118.8 99.9999 118.8C99.7999 118.7 99.0999 127.6 99.1999 133.1C99.2999 143.7 101.1 154.2 105.2 164.6C104.4 165.1 102.5 165.3 102.5 165.3C99.8999 157.3 97.5999 148.8 97.2999 140.7C96.9999 131.9 96.8999 126.5 98.3999 118.8C98.3999 118.7 98.4999 118.6 98.6999 118.6C98.6999 118.6 98.8999 118.6 98.9999 118.7ZM86.0999 118.8H92.3999V123H96.9999L96.5999 127.8H92.3999V132H86.0999V127.8H81.0999L81.4999 123H86.0999V118.8ZM35.9999 120C36.1999 120 36.3999 120 36.6999 120.2C37.2999 120.5 38.9999 120.8 39.8999 120.7C40.8999 120.6 40.8999 120.9 40.5999 121.8C40.0999 123.3 37.9999 125 36.9999 125C36.6999 125 36.4999 124.8 36.4999 124.4C36.4999 123.9 36.0999 121.7 35.8999 121C35.7999 120.4 35.7999 120.1 35.9999 120ZM149.1 120.2C149.7 120.2 150.6 120.6 151.9 121.3C153 121.9 153.2 122.3 152.7 122.7C151.8 123.3 149.1 125.5 148.6 125.3C147.9 124.7 148.1 121.1 148.8 120.4C148.8 120.3 148.9 120.2 149.1 120.2ZM42.4999 120.4C42.7999 120.4 43.0999 120.7 43.0999 121C43.0999 121.3 42.7999 121.6 42.4999 121.6C42.1999 121.6 41.8999 121.3 41.8999 121C41.9999 120.6 42.1999 120.4 42.4999 120.4ZM147.2 120.4C147.6 120.4 147.7 120.6 147.6 121C147.2 122.6 147.6 125.1 147.5 125.7C146 125.2 144.9 124.5 143.4 124.3C142.9 124.2 142.8 124.2 143 123.8C143.7 122.5 145 121.1 146.3 120.7C146.7 120.5 147 120.4 147.2 120.4ZM34.7999 120.9C35.2999 120.9 35.5999 121.7 35.7999 123.1C35.8999 124.5 35.6999 125.3 34.5999 125.2C34.2999 125.2 33.7999 125.1 33.2999 125C31.2999 124.6 30.8999 124.1 32.5999 122.7C33.1999 122.2 33.8999 121.6 34.0999 121.3C34.2999 121.1 34.5999 120.9 34.7999 120.9ZM38.1999 121.7C37.8999 121.7 37.5999 121.7 37.4999 121.8C37.1999 122.1 37.3999 123.2 37.5999 123.4C38.1999 123.6 39.2999 122.4 38.9999 121.9C38.7999 121.8 38.4999 121.7 38.1999 121.7ZM146.1 122.3C145.9 122.3 145.7 122.4 145.4 122.6C144.7 123.1 144.7 123.4 145.5 123.9C145.9 124.3 146.4 124.3 146.5 124.1C146.6 123.9 146.6 123.4 146.4 122.5C146.4 122.4 146.3 122.3 146.1 122.3ZM141.8 123C142.1 123 142.4 123.3 142.4 123.6C142.4 123.9 142.1 124.2 141.8 124.2C141.5 124.2 141.2 123.9 141.2 123.6C141.2 123.3 141.4 123 141.8 123ZM86.7999 123.4V127.6H91.8999V123.4H86.7999ZM152.9 123.4V126.3C139 134.7 133 150.5 133 150.5L129.8 151.7C134.4 140.9 140.6 131.4 152.9 123.4ZM47.0999 124L62.6999 144.5L61.6999 147.1L45.3999 125.7L47.0999 124ZM30.9999 124.9C31.0999 124.9 31.2999 125 31.5999 125.2C32.0999 125.5 33.1999 126 34.2999 126.1C35.1999 126.2 35.2999 126.6 34.9999 127.2C34.1999 128.6 32.5999 129.2 31.3999 129.6C30.6999 129.8 31.0999 127.8 30.7999 125.8C30.7999 125.2 30.7999 124.9 30.9999 124.9ZM143.9 125.1C145.2 125.2 147 126 147 126.6C147 126.9 144 129.4 143.7 129.4C143 129.4 142.1 125.5 142.8 125.2C143 125.1 143.4 125.1 143.9 125.1ZM141.2 125.4C141.6 125.4 141.7 125.7 141.7 126.3C141.7 127 142 128.3 142.4 129.2C142.7 129.9 143.1 130.4 142.7 130.4C142.5 130.4 141.8 130.1 141.3 130C140.4 129.8 139.8 129.7 139 129.6C137.4 129.6 137.2 129.6 137.9 128.3C138.4 127.4 139.5 126.1 140.3 125.7C140.6 125.5 140.9 125.4 141.2 125.4ZM29.6999 125.4C30.1999 125.3 30.2999 125.8 30.2999 127.1C30.3999 129 30.1999 130 29.1999 130C28.7999 130 27.9999 129.7 27.2999 129.4C25.3999 128.5 25.4999 128.3 27.9999 126.5C28.7999 125.8 29.3999 125.5 29.6999 125.4ZM36.7999 126.1C37.0999 126.1 37.3999 126.4 37.3999 126.7C37.3999 127 37.0999 127.3 36.7999 127.3C36.4999 127.3 36.1999 127 36.1999 126.7C36.1999 126.3 36.4999 126.1 36.7999 126.1ZM32.1999 126.6C31.9999 126.6 31.8999 126.8 31.8999 127.1C31.9999 128.3 31.9999 128.4 33.0999 127.8C33.6999 127.4 33.9999 127.1 33.0999 126.8C32.6999 126.7 32.3999 126.6 32.1999 126.6ZM140.5 127.2C140.3 127.2 140 127.3 139.8 127.6C139.1 128.4 139.2 128.8 140.3 129C140.7 129.1 141.1 129.1 141.3 129C141.8 128.9 141.3 128.3 141.1 127.8C140.9 127.4 140.7 127.2 140.5 127.2ZM42.4999 128.7C42.7999 128.7 42.8999 129.2 42.8999 129.8C43.0999 133 47.4999 133.5 45.9999 130.7C45.4999 129.8 45.7999 129.4 46.6999 129.9C48.1999 130.6 48.5999 132.4 47.1999 133.2C45.4999 133.9 46.0999 134 48.1999 134.7C52.7999 136.3 54.6999 139.1 54.8999 144.6C54.7999 147.1 55.1999 148 56.2999 148.3C57.3999 148.6 58.5999 147.2 57.7999 146.5C57.3999 146.1 56.9999 145.8 57.2999 145.5C57.9999 144.8 59.7999 145.9 59.7999 147.1C59.7999 147.9 59.4999 148 58.2999 149C57.9999 149.3 58.2999 149.7 58.6999 149.7C60.4999 149.1 60.3999 151.5 59.3999 151.6C56.0999 151.5 52.5999 147.9 52.9999 144.9C53.1999 142.8 52.7999 141.2 52.2999 142.1C50.9999 144 47.2999 142.7 47.3999 140.5C47.3999 139.3 48.1999 139.1 48.6999 140.2C49.3999 141.8 51.2999 141.9 51.5999 140.2C51.8999 138.6 50.4999 137.4 46.8999 136.1C42.6999 135.1 39.9999 131.2 41.6999 129.2C42.0999 128.8 42.2999 128.7 42.4999 128.7ZM136 128.7C136.3 128.7 136.6 129 136.6 129.3C136.6 129.6 136.3 129.9 136 129.9C135.7 129.9 135.4 129.6 135.4 129.3C135.5 129 135.7 128.7 136 128.7ZM26.0999 129.7C26.9999 130 27.4999 130.3 28.5999 130.7C29.1999 130.9 29.5999 131.1 28.9999 131.7C28.0999 132.7 27.1999 133.4 26.1999 134V132.7C27.8999 131.9 27.6999 131.3 26.1999 130.9L26.0999 129.7ZM139.5 130.3C140.7 130.3 141.6 130.7 142 131.2C142.1 131.1 139.2 134.6 138.7 134.9C137.5 133.9 137.3 132 137.4 130.6C137.9 130.5 138.5 130.4 138.9 130.4C139.2 130.2 139.3 130.2 139.5 130.3ZM136.4 130.6C136.7 130.6 136.7 130.9 136.8 131.6C136.9 133.1 137.7 134.6 138 135.7C136.9 135.6 135.7 135.3 134.5 135.3C133.1 135.3 132.7 135.4 132.7 134.9C132.7 133.5 134 131.6 135.5 130.8C136 130.7 136.2 130.6 136.4 130.6ZM30.9999 130.6C31.2999 130.6 31.5999 130.9 31.5999 131.2C31.5999 131.5 31.2999 131.8 30.9999 131.8C30.6999 131.8 30.3999 131.5 30.3999 131.2C30.3999 130.9 30.6999 130.6 30.9999 130.6ZM153.9 131.7C147.5 136 142.4 142.2 139.7 148.3L153.9 142.3V131.7ZM38.8999 131.8L57.3999 155.9L56.0999 157.9L37.1999 133.3L38.8999 131.8ZM135.3 132.5C135.2 132.5 135 132.6 134.8 132.8C134.2 133.4 134.1 133.9 134.5 134.2C135 134.4 135.4 134.4 136 134.4C136.5 134.4 136.3 134 135.9 133.1C135.7 132.7 135.5 132.5 135.3 132.5ZM153 133V142.1L140.9 147.2C143.3 141.9 147.8 136.6 153 133ZM71.1999 133.4L76.2999 140.6H70.2999L71.1999 133.4ZM36.4999 133.7L55.4999 158.4L51.4999 163.7L31.4999 137.4L36.4999 133.7ZM131.4 134.5C131.7 134.5 132 134.8 132 135.1C132 135.4 131.7 135.7 131.4 135.7C131.1 135.7 130.8 135.4 130.8 135.1C130.9 134.7 131.1 134.5 131.4 134.5ZM133.9 135.9C135.1 135.9 137 136.2 137.3 136.5C137.7 136.8 136.5 138.2 135.8 139.2C135.5 139.6 135.1 140.7 134.5 140.2C133.6 139.3 132.4 136.2 133 136C133.1 135.9 133.5 135.9 133.9 135.9ZM131.5 136.5C132 136.5 132.2 137.1 132.4 138.1C132.5 138.7 133.1 139.7 133.7 140.5C134.3 141.4 134.1 141.5 132.5 141.2C131.4 141 130.1 141.2 129 141.3C128 141.2 128.9 138.1 130.4 136.9C130.9 136.6 131.3 136.4 131.5 136.5ZM131 138.3C130.8 138.3 130.7 138.4 130.4 138.6C129.6 139.3 129.9 140.1 131.1 140.1C132 140.1 132.1 139.9 131.6 139C131.5 138.5 131.3 138.2 131 138.3ZM127.2 140.9C127.5 140.9 127.8 141.2 127.8 141.5C127.8 141.8 127.5 142.1 127.2 142.1C126.9 142.1 126.6 141.8 126.6 141.5C126.7 141.2 126.9 140.9 127.2 140.9ZM96.5999 141.4C96.5999 143.6 96.8999 145.7 97.1999 147.9C88.6999 151 82.1999 155.7 77.2999 161.9L68.1999 162C70.8999 156.9 74.6999 151 76.8999 141.5L96.5999 141.4ZM70.0999 141.4L76.0999 141.5L74.4999 146.2L68.7999 146.1L70.0999 141.4ZM131.7 141.7C132.6 141.7 133.7 141.9 133.6 142.3C133.3 143.1 131.3 146.4 131.2 146.4C130.7 146.4 129.5 144.6 129.2 143.3C129 142.3 129.2 142.1 131 141.8C131.1 141.7 131.4 141.7 131.7 141.7ZM72.5999 142L69.7999 143.7L72.0999 145.9L74.7999 144.1L72.5999 142ZM127.9 143.1C128.2 143.1 128.4 143.3 128.6 144C128.7 144.5 129.3 145.7 130 146.6C130.8 147.7 130.8 147.7 129.6 147.8C128.3 147.8 127.2 148.4 126.2 148.5C124.8 148.5 125.5 144.8 127.3 143.5C127.5 143.2 127.7 143.1 127.9 143.1ZM153.6 144.3L122.8 157.6L127.2 164.2L153.6 148.7V144.3ZM127.7 145.3C127.4 145.3 127.2 145.5 127 146C126.8 146.5 127 146.8 127.5 146.8C128.5 146.8 128.8 146.3 128.2 145.7C128 145.5 127.8 145.4 127.7 145.3ZM68.3999 147.2H74.2999L72.4999 151.5L66.8999 151.4L68.3999 147.2ZM71.1999 147.5L68.0999 149L69.7999 151.2L72.5999 149.6L71.1999 147.5ZM129.7 148.4C130.3 148.4 130.4 148.8 129.9 149.7C129 151.5 128.7 152.5 128.1 152.5C127.7 152.5 127.1 152 126.5 150.9C125.6 149.4 125.7 149.3 127.1 148.8C128.1 148.5 128.8 148.4 129.3 148.3C129.5 148.4 129.6 148.4 129.7 148.4ZM124 148.4C124.3 148.4 124.6 148.7 124.6 149C124.6 149.3 124.3 149.6 124 149.6C123.7 149.6 123.4 149.3 123.4 149C123.4 148.6 123.6 148.4 124 148.4ZM97.3999 148.7L97.8999 151.2L94.7999 150.4L94.0999 153.5L97.1999 154.5L97.8999 151.3L98.6999 155.3C98.6999 155.3 87.9999 157.9 81.0999 169L63.6999 168.9L67.4999 162.8L77.7999 162.7C83.9999 155 90.5999 151.3 97.3999 148.7ZM125.1 150.1C125.3 150.1 125.4 150.3 125.6 150.5C125.9 150.8 127.2 152.9 127.2 152.9L126.1 153.5C124.8 151.3 124.8 152.4 124.2 154.2L122.9 154.8C122.7 154.8 123.4 151 124.4 150.3C124.8 150.1 124.9 150 125.1 150.1ZM66.3999 152.3L72.0999 152.4L69.6999 157.2H63.9999L66.3999 152.3ZM68.1999 152.4L65.7999 154.3C65.6999 154.3 67.4999 156.8 67.4999 156.8L70.0999 154.6L68.1999 152.4ZM90.0999 152.5L89.4999 156L92.5999 156.6L93.3999 153.3L90.0999 152.5ZM85.6999 155.1L85.0999 159.1L87.9999 159.7L88.7999 156.3L85.6999 155.1ZM25.1999 155.1C25.1999 155.1 25.2999 202.3 25.3999 225.1L36.1999 214V166.1L25.1999 155.1ZM63.4999 158H69.2999L67.1999 161.9L61.1999 161.8L63.4999 158ZM65.5999 158.3L62.7999 159.4L64.5999 161.6L67.1999 160.1L65.5999 158.3ZM99.5999 158.9L101.7 165.5L99.9999 165.9L97.6999 159.5L99.5999 158.9ZM84.6999 159.5L81.1999 159.6L81.4999 163.1L84.8999 162.9L84.6999 159.5ZM97.0999 159.8L99.0999 166.2L97.3999 166.9L95.1999 160.8L97.0999 159.8ZM94.4999 161.1L96.5999 167.1C91.3999 169.5 89.9999 172 88.1999 174C86.9999 172.7 85.5999 172 83.6999 171.7C86.6999 167 90.2999 163.3 94.4999 161.1ZM60.3999 162.8H66.6999L62.5999 168.9H55.6999L60.3999 162.8ZM77.9999 162.9L77.4999 166.3L80.6999 167.9L81.0999 163.9L77.9999 162.9ZM74.0999 163.1L71.7999 165.7L74.1999 168.3L76.5999 165.6L74.0999 163.1ZM69.2999 163.3L66.7999 165.8L68.7999 168.4L71.1999 165.9L69.2999 163.3ZM33.6999 164.1L35.5999 166V213.3L26.0999 223.3V220.5L33.6999 212.6V164.1ZM60.5999 164.2L58.1999 167.7L61.6999 167.8L63.9999 164.2H60.5999ZM44.6999 188.1C43.3999 191 41.6999 194.8 38.7999 196C40.8999 200.2 40.5999 204.4 39.0999 206.7C41.1999 208.7 43.3999 211.1 44.7999 214.5C51.4999 208.5 52.5999 196.3 44.6999 188.1ZM44.7999 188.7C50.0999 194.3 52.3999 206.2 44.7999 213.4L44.2999 212.3C50.2999 204.9 48.3999 195.2 44.0999 190.1L44.7999 188.7ZM43.4999 192.1C43.5999 192.1 43.5999 192.1 43.6999 192.1C44.0999 192.2 44.2999 192.7 43.8999 193.5C43.6999 194.2 43.0999 194.8 42.5999 194.7C41.9999 194.6 42.0999 193.3 42.7999 192.5C42.9999 192.2 43.2999 192.1 43.4999 192.1ZM45.0999 192.8C45.2999 192.8 45.5999 193.2 46.0999 194.2C46.5999 195.2 46.7999 195.9 46.4999 195.9C45.6999 195.7 44.8999 195.4 44.2999 194.7C43.9999 194.3 44.3999 193.5 44.8999 192.9C44.8999 192.9 44.9999 192.8 45.0999 192.8ZM41.3999 194.6C42.4999 195.1 44.9999 204.3 41.5999 208.1L39.7999 206.6C40.7999 204 41.3999 200.8 39.4999 196.1C39.6999 196.1 40.9999 194.8 41.3999 194.6ZM43.6999 195.6C44.3999 195.6 45.4999 196 45.7999 196.5C46.0999 197 45.1999 198.6 44.4999 199.1C44.1999 199.3 43.9999 199.2 43.9999 199.1C43.5999 198.8 42.9999 196 43.2999 195.7C43.2999 195.6 43.4999 195.6 43.6999 195.6ZM37.5999 196.4L36.8999 196.6L38.2999 201.2L37.0999 205.6L37.7999 205.8L39.0999 201.2L37.5999 196.4ZM46.7999 197.4C47.0999 197.4 47.2999 197.8 47.3999 199C47.3999 199.7 47.4999 200.2 47.2999 200.2C47.0999 200.2 46.6999 199.9 46.1999 199.6C45.3999 199.1 45.3999 198.9 46.0999 198C46.3999 197.7 46.5999 197.5 46.7999 197.4ZM44.2999 199.6C44.8999 199.6 46.1999 200 46.3999 200.8C46.7999 201.5 45.2999 202.5 44.4999 202.5C44.2999 202.5 44.1999 202.5 44.0999 202.4L43.9999 199.6C43.8999 199.6 44.0999 199.6 44.2999 199.6ZM66.0999 200.7C61.3999 200.7 58.8999 201.9 59.7999 204.1C60.3999 204.7 59.9999 204.9 59.6999 205.3C58.6999 206.3 59.2999 207.1 59.8999 208.2C59.8999 208.2 52.0999 222.3 48.0999 229.3L117.3 229.5L114.6 224.3L115.1 224C114.4 222.8 113.7 221.4 113 220.1L112.5 220.2C111.6 218.5 111.2 217.8 110.1 215.8H110.6C110.3 214.9 109.6 214.3 109.6 213.6C109.6 212.8 109.8 212 109.3 211.4C108.7 210.7 108.6 210.6 108.8 210.2C109.1 209.2 108.2 208.1 107.3 208.2C100.8 209.1 94.1999 208.3 87.4999 206.3C80.7999 204.3 74.9999 201.3 68.3999 200.8C67.4999 200.7 66.7999 200.7 66.0999 200.7ZM65.2999 201C73.9999 200.8 79.9999 204.5 87.2999 206.7C94.2999 208.8 99.3999 209.4 107.3 208.6C108.3 208.7 108.3 209.3 108.3 209.8C99.8999 210.9 92.0999 210.1 83.5999 206.8C75.2999 203.7 66.1999 200.5 60.1999 203.3C60.1999 203.3 60.1999 202.1 60.7999 201.8C60.7999 201.8 61.3999 201.3 63.4999 201C64.0999 201.1 64.6999 201 65.2999 201ZM47.1999 201.7C47.4999 201.7 47.5999 202.3 47.3999 203.5C47.2999 204.5 47.0999 205.1 46.7999 205.1C46.5999 205.1 46.1999 204.5 45.7999 203.8C45.3999 203.2 45.4999 203 46.2999 202.3C46.6999 201.9 46.9999 201.7 47.1999 201.7ZM44.0999 203.3C44.2999 203.3 45.9999 204.7 45.8999 205.5C45.5999 206.4 44.3999 206.2 43.6999 206.2L44.0999 203.3ZM65.2999 203.9C65.5999 203.9 65.8999 203.9 66.1999 203.9C71.2999 204 77.5999 206.2 82.2999 208C93.3999 212.1 102 211.9 108.1 211.4C108.6 211.5 109.1 212.9 108.2 212.9C96.6999 213 98.5999 214.5 80.6999 209.2C73.7999 207.2 68.1999 204 60.1999 206.8V205.2C61.4999 204.3 63.2999 203.9 65.2999 203.9ZM46.3999 206.4C46.6999 206.4 46.5999 206.7 46.3999 207.4C46.0999 208.2 45.8999 208.5 45.5999 208.5C45.3999 208.5 45.1999 208.3 44.8999 207.9C44.3999 207.1 44.4999 206.9 45.3999 206.6C45.8999 206.5 46.1999 206.4 46.3999 206.4ZM43.2999 207.2C43.2999 207.2 44.1999 208 44.5999 208.8C44.8999 209.6 43.9999 209.8 43.0999 209.9L42.2999 208.8L43.2999 207.2ZM66.6999 207.6C68.2999 207.6 69.8999 207.7 71.5999 208.4L67.7999 209.7L65.1999 207.7C65.6999 207.6 66.1999 207.6 66.6999 207.6ZM62.7999 208.4C65.7999 208.3 67.7999 210.5 67.6999 210.6C71.8999 208.2 75.5999 208.7 78.6999 212.8C79.4999 212.3 85.2999 211.3 89.4999 215.9C93.6999 213.8 97.6999 214.7 101.2 217C103.8 214.5 106.5 214.2 109.3 215.3L110.1 217C109.9 217.1 109 215.3 104.5 216.1C103 216.4 100.5 218.9 101.9 220.1C102.6 221 102.6 221.5 102 222C101.4 222.6 100.5 222.3 100.1 221.7C99.8999 221.3 99.9999 220.7 100.3 220.3C101.9 218.4 96.9999 215 93.3999 215.6C90.6999 216 88.3999 217.7 89.3999 218.9C90.1999 219.9 89.6999 220.9 88.6999 220.9C87.6999 220.9 86.8999 220.1 87.7999 219C89.6999 216.6 86.7999 213.7 82.2999 213.7C79.0999 213.7 78.0999 214.4 78.2999 216.7C78.3999 217.8 78.1999 218.1 77.3999 218.2C76.1999 218.5 75.5999 217.1 76.5999 216.1C78.6999 213.9 76.2999 210.6 72.3999 210.4C70.9999 210.3 70.6999 210.4 68.9999 211.3C67.6999 212 67.2999 213.1 67.8999 213.9C68.6999 215 67.5999 216.3 66.3999 215.7C65.4999 215.3 65.0999 214.6 66.0999 213.5C67.3999 212 66.6999 210.8 64.2999 209.9C62.6999 209.3 61.6999 209.4 60.7999 209.7C60.1999 209.9 59.6999 210.3 59.2999 210.7C59.8999 209.6 60.3999 208.7 60.3999 208.7C61.3999 208.5 62.0999 208.4 62.7999 208.4ZM76.7999 209.5C78.4999 210 80.1999 210.6 81.6999 211.4L79.0999 211.9L76.7999 209.5ZM62.3999 210.5C62.5999 210.5 62.6999 210.5 62.8999 210.5C63.7999 210.6 64.5999 210.8 65.2999 211.5C62.5999 211.1 61.5999 214.8 64.8999 215.6C60.4999 218.9 68.7999 223.9 68.8999 217C72.7999 217.7 72.2999 212.5 69.7999 212.1C71.0999 210.7 74.7999 210.7 76.6999 213.6C73.3999 211.9 71.5999 216.3 74.9999 217.6C70.7999 221.3 79.0999 224.8 78.8999 218.7C81.9999 220.6 84.1999 215.8 79.9999 215.1C80.1999 214.2 85.6999 214.2 87.0999 216.5C83.1999 215.6 82.9999 220.4 86.4999 220.8C83.0999 225.2 91.7999 227.4 90.2999 221.4C93.6999 222.7 94.9999 218.5 91.6999 217.2C91.4999 216.5 96.9999 216 98.9999 218.4C94.7999 219 96.1999 223.2 98.9999 222.8C98.9999 222.8 98.9999 222.9 98.7999 223.3C97.4999 227.4 104.5 227.8 103.5 223.4C103.3 223 103.2 222.5 103.2 222.5C105.1 222.9 106.3 222.1 106.2 220.3C105.7 217.9 104.5 218.1 102.8 218.6C102.1 217.9 106.7 215.5 109.6 217.6C106.1 218.6 107.9 222.8 110.8 222.2C110.9 223.5 112.4 225.4 114.2 224.5L116.2 228.4H49.3999L55.0999 218.5C58.1999 219.1 58.8999 216.5 58.8999 216.1C62.8999 217.1 62.2999 211.9 60.2999 211.6C60.2999 211 61.1999 210.5 62.3999 210.5ZM44.3999 210.5C44.6999 210.5 44.9999 210.5 44.8999 210.7L44.2999 211.4L43.8999 210.8C43.7999 210.6 44.0999 210.5 44.3999 210.5ZM58.3999 212.6C58.7999 213.1 58.9999 214.2 57.5999 214.2L58.3999 212.6ZM87.9999 213.4L91.5999 214.2L89.6999 215.1L87.9999 213.4ZM99.1999 214.9H102.9L101.3 216.2L99.1999 214.9ZM111 218.7C111 218.7 111.1 218.7 111.1 218.8C111.2 219.1 112 220.2 112 220.2C111.7 220.2 111.3 219.9 111.1 219.6C110.9 219.2 110.9 218.7 111 218.7Z" fill="#030D6D"/>
<path d="M130.8 185C134.9 191.9 139.3 198.5 144.8 204.2C139.3 209.9 135 216.5 130.8 223.4C126.7 216.5 122.3 209.9 116.8 204.2C122.3 198.5 126.7 191.8 130.8 185Z" fill="#030D6D"/>
<path d="M164.8 193.6C166.5 196.5 168.3 199.2 170.6 201.6C168.3 204 166.5 206.7 164.8 209.6C163.1 206.7 161.3 204 159 201.6C161.2 199.2 163 196.4 164.8 193.6Z" fill="#030D6D"/>
<path d="M48.2998 64.5999C52.3998 57.6999 56.7998 51.1 62.2998 45.4C56.7998 39.7 52.4998 33.1 48.2998 26.2C44.1998 33.1 39.7998 39.7 34.2998 45.4C39.7998 51.1 44.1998 57.7999 48.2998 64.5999Z" fill="#030D6D"/>
<path d="M14.4001 56.1001C16.1001 53.2001 17.9001 50.5001 20.2001 48.1001C17.9001 45.7001 16.1001 43.0001 14.4001 40.1001C12.7001 43.0001 10.9001 45.7001 8.6001 48.1001C10.8001 50.4001 12.7001 53.2001 14.4001 56.1001Z" fill="#030D6D"/>
<path d="M164.1 215H161.4L165.3 224.7L168.3 220.6V215H166.2V212.1H173.6V215H171.2V236H173.6V238.5H166.1V235.9H168.2V225.7L161.7 236H164V238.5H156V236H158.1L163.5 227.6L158.2 215.1H155.9V212.2H164.1V215Z" fill="#030D6D"/>
<path d="M15 34.7H17.7L13.8 25L10.8 29.1V34.7H12.9V37.5999H5.5V34.7H8V13.7H5.6V11.2H13V13.8H11V24L17.5 13.7H15.2V11.2H23.2V13.7H21L15.6 22.1L20.9 34.5999H23.2V37.5H15V34.7Z" fill="#030D6D"/>
</g>
<defs>
<clipPath id="clip0">
<rect width="178.6" height="249.4" fill="white"/>
</clipPath>
</defs>
</svg>
