<svg width="179" height="250" viewBox="0 0 179 250" fill="none" xmlns="http://www.w3.org/2000/svg">
<g clip-path="url(#clip0)">
<path d="M8.78545 0.388672H170.253C174.967 0.388672 178.824 4.24099 178.824 8.94939V241.373C178.824 246.081 174.967 249.934 170.253 249.934H8.78545C4.07108 249.934 0.213867 246.081 0.213867 241.373V8.94939C0.321012 4.24099 4.07108 0.388672 8.78545 0.388672Z" fill="white"/>
<path d="M14.0356 40.4102C10.6069 44.7975 6.85693 47.3657 6.85693 50.79C6.85693 51.8601 7.49978 53.7863 9.64267 54.1073C11.0356 54.3213 12.857 53.3583 12.9641 51.3251C12.9641 50.897 13.3927 50.897 13.3927 51.4321C13.2856 53.0372 12.7499 54.8564 11.7856 56.3545C13.2856 56.3545 14.7857 56.3545 16.2857 56.3545C15.3214 54.8564 14.7857 53.0372 14.6786 51.4321C14.6786 50.897 15.107 50.897 15.107 51.3251C15.107 53.3583 17.0357 54.3213 18.4286 54.1073C20.5715 53.7863 21.2144 51.8601 21.2144 50.79C21.2144 47.2587 17.4642 44.7975 14.0356 40.4102Z" fill="black"/>
<path d="M165.109 209.912C161.681 205.525 157.931 202.957 157.931 199.532C157.931 198.462 158.574 196.536 160.716 196.215C162.109 196.001 163.931 196.964 164.038 198.997C164.038 199.425 164.466 199.425 164.466 198.89C164.359 197.285 163.824 195.466 162.859 193.968C164.359 193.968 165.859 193.968 167.359 193.968C166.395 195.466 165.859 197.285 165.752 198.89C165.752 199.425 166.181 199.425 166.181 198.997C166.181 196.964 168.109 196.001 169.502 196.215C171.645 196.536 172.288 198.462 172.288 199.532C172.181 202.957 168.538 205.525 165.109 209.912Z" fill="black"/>
<path d="M14.6783 34.9526H17.3569L13.4996 25.2148L10.4996 29.2811V34.9526H12.6425V37.8418H5.24951V34.9526H7.71389V13.9789H5.24951V11.4106H12.7496V14.0859H10.7139V24.2517L17.2497 13.9789H14.8925V11.4106H22.8213V13.9789H20.6784L15.3211 22.4325L20.5713 34.9526H22.9284V37.8418H14.7854L14.6783 34.9526Z" fill="black"/>
<path d="M164.467 215.263H161.788L165.645 225.001L168.646 220.934V215.263H166.503V212.374H173.896V215.263H171.431V236.237H173.896V238.805H166.396V236.13H168.431V225.964L161.895 236.237H164.253V238.805H156.324V236.237H158.467L163.824 227.783L158.574 215.263H156.217V212.374H164.36L164.467 215.263Z" fill="black"/>
<path d="M24 19.5435H155.252V230.779H24V19.5435ZM117.109 229.388C112.18 220.506 104.466 206.06 104.251 205.953C101.359 207.451 72.3223 211.41 58.3935 207.558C53.5719 214.728 48.9648 221.897 44.7861 229.067L117.109 229.388ZM72.4294 202.743C71.6794 202.743 70.9295 203.171 71.0366 202.85C71.1437 202.636 71.3581 200.389 71.4652 199.532C71.6795 199.211 72.0009 200.068 72.0009 201.031C72.0009 201.566 72.2151 201.138 73.9295 201.245C75.7509 201.352 77.1438 201.673 77.7866 201.78C79.9295 202.208 84.0011 201.887 85.7154 200.603C86.6797 199.961 87.0012 200.71 86.0369 201.352C81.6439 204.669 78.1082 203.385 74.2509 202.85C73.3938 202.85 73.1794 202.743 72.4294 202.743ZM74.3581 199.639C74.0366 199.425 73.9294 199.425 73.5008 199.639C72.108 200.282 72.5365 199.318 73.5008 198.462C73.9294 198.034 73.9295 197.82 73.6081 197.392C73.3938 197.178 73.1795 197.178 73.1795 196.857C73.5009 195.466 75.5366 193.219 77.7866 192.256C78.7509 191.828 78.8581 192.256 77.6795 193.005C75.8581 194.075 75.2153 195.038 76.2867 194.61C78.3225 193.861 80.1439 194.396 82.7154 195.68C83.4654 196.001 83.7868 196.108 84.4297 196.001C84.8583 195.573 85.2868 196.108 85.6083 196.322C85.8226 196.429 85.8226 196.536 86.0369 196.536C87.5369 196.215 86.5725 197.071 84.6439 198.569C81.001 200.924 77.0367 202.208 74.3581 199.639ZM79.8224 200.175C81.3224 199.746 83.0368 198.783 84.1082 197.82C85.3939 196.643 84.6439 196.857 83.1439 197.606C80.8938 198.676 79.3939 198.997 76.9296 198.89C74.8938 198.89 74.8938 198.783 74.8938 198.997C74.5723 199.961 77.4652 200.924 79.8224 200.175ZM75.751 196.643C75.8581 196.215 75.9653 195.68 75.8581 195.573C75.6438 195.252 75.2153 195.466 74.6795 196.108C74.3581 196.536 74.3581 196.536 74.6795 196.857C74.7867 196.964 75.0009 197.071 75.108 197.071C75.6437 197.392 75.6439 196.964 75.751 196.643ZM76.7152 197.178C77.3581 195.038 78.751 195.038 79.8224 197.178H80.5725C79.0725 193.112 76.2866 195.145 76.1795 197.178C76.3938 197.285 76.7152 197.178 76.7152 197.178ZM82.0724 196.857C82.7153 196.429 82.6082 196.215 81.7511 195.787C81.1082 195.466 80.7868 195.359 80.6796 195.573C80.6796 196.001 80.6796 196.643 81.001 197.071C81.2153 197.178 81.6439 197.071 82.0724 196.857ZM72.5367 190.651C72.4295 190.437 72.4294 190.116 72.858 189.902C75.7509 188.511 73.608 185.728 71.358 187.868C70.6079 188.404 69.6437 188.725 68.7866 188.404C68.0366 188.083 68.0365 187.119 69.0008 186.905C69.3223 186.798 70.1794 186.691 70.5009 186.477C74.3581 184.444 76.3938 188.939 73.7152 190.437C73.2866 190.651 72.6438 190.865 72.5367 190.651ZM61.7149 186.477C60.1077 185.728 59.8935 183.267 61.3936 182.304C62.3579 181.662 63.3221 181.448 65.8936 182.732C67.7151 183.588 68.7865 182.625 68.6793 183.695C68.6793 184.337 68.5722 184.979 67.5008 185.086C65.7864 185.3 64.6079 182.946 62.3579 183.16C60.7507 183.267 60.9649 185.193 62.1435 185.621C63.7507 186.37 62.7864 187.012 61.7149 186.477ZM90.5369 186.905C90.3226 186.905 90.2155 186.37 90.3227 186.049C91.0727 184.123 91.8227 182.732 92.5727 180.913C93.1084 179.522 93.537 178.88 93.7512 178.88C93.9655 178.88 94.1798 179.094 93.6441 179.95C93.0013 181.555 90.9655 185.942 90.644 186.691C90.644 186.905 90.644 186.905 90.5369 186.905ZM77.6795 186.37C76.9295 185.835 77.1439 185.086 77.8939 185.728C78.9653 186.477 80.5725 185.086 80.251 183.909C79.8224 182.411 77.8938 182.09 76.1795 183.374C73.608 185.514 70.7151 185.621 70.7151 183.909C70.7151 183.481 70.608 183.374 71.7866 183.267C73.0723 183.16 74.4653 182.625 75.2153 182.197C78.4296 180.271 81.8582 181.555 81.1082 184.872C80.7868 186.37 78.8581 187.119 77.6795 186.37ZM66.0007 181.555C65.7864 181.555 65.2508 181.769 65.1436 181.662C64.9293 181.448 64.9293 180.913 64.715 180.271C64.2864 179.201 64.715 179.522 65.3579 179.843C66.3222 180.164 67.1794 180.164 67.9294 179.843C68.7865 179.522 69.7509 179.629 71.4652 179.843C72.8581 180.057 73.6081 179.95 74.7867 179.629C76.1795 179.201 75.7509 179.308 75.5366 180.164C75.4295 180.699 75.2152 181.448 75.0009 181.662C74.0366 181.127 73.3938 181.341 72.7509 181.662C71.7866 182.09 71.0365 182.197 70.1794 181.983C69.4294 181.555 69.0008 181.555 68.358 181.983C67.5008 182.518 66.965 181.662 66.0007 181.555ZM86.0369 179.308C86.2512 178.987 86.4654 178.559 86.7868 178.024C88.8226 173.85 89.037 172.78 87.5369 171.389C85.6083 169.57 83.8939 170.319 81.9653 174.064C81.5367 174.92 81.2153 175.669 81.001 175.883C80.7867 176.205 80.5724 175.99 80.4653 175.883C80.251 175.669 82.2867 171.71 83.1439 170.854C85.2868 168.607 89.2511 170.426 89.0368 173.529C88.9297 175.027 88.6083 175.883 87.2154 178.773C86.894 179.522 86.5725 180.057 86.3582 180.378C85.7154 180.699 85.8226 179.629 86.0369 179.308ZM66.5364 179.201C66.8579 177.703 71.5723 177.061 72.858 178.987C72.9652 179.201 72.858 179.201 72.4294 178.987C70.0722 178.238 69.5366 178.238 67.2865 179.094C66.7508 179.201 66.5364 179.308 66.5364 179.201ZM84.4297 178.88C84.4297 178.773 84.644 178.238 84.8583 177.703C86.4655 174.599 86.894 173.85 86.3582 173.315C85.3939 172.138 84.2154 173.208 83.0368 176.419C82.6082 177.596 82.2867 177.382 82.0724 177.168C81.6439 176.847 83.4654 172.994 84.3226 172.459C86.2512 171.175 87.7511 172.673 86.894 175.241C86.2511 176.419 85.7154 178.131 85.0725 179.094C84.8583 179.308 84.4297 179.201 84.4297 178.88ZM77.3582 173.85C77.251 173.743 77.4653 173.529 78.1081 172.031C79.0724 169.998 79.2868 169.356 78.9653 168.179C78.3225 166.146 75.751 165.611 74.2509 167.002C73.7152 167.43 73.3938 168.072 73.1795 168.607C72.6438 169.891 72.2151 171.389 71.7866 171.817C71.4651 172.138 71.1437 172.138 71.1437 171.71C71.4652 170.64 71.6795 169.784 72.5367 168.179C74.6795 163.47 80.8938 165.611 79.3938 170.64C78.8581 172.459 78.2153 173.743 77.8939 174.278C77.7867 174.278 77.4653 174.064 77.3582 173.85ZM75.9652 172.994C75.9652 172.887 76.1795 172.352 76.3938 171.817C77.4653 169.249 77.4653 168.393 75.9652 168.393C75.0009 168.5 74.8938 168.928 74.1438 170.961C73.9295 171.603 73.7152 172.138 73.6081 172.352C73.3938 172.566 73.1794 172.459 72.9651 172.352C72.6437 172.031 74.0367 168.607 74.7867 167.965C76.501 166.467 78.751 168.607 77.6795 170.533C77.1438 171.924 76.7152 172.78 76.501 173.208C76.2867 173.422 75.9652 173.422 75.9652 172.994ZM38.8932 142.604L33.643 142.283C34.6073 147.954 34.6073 154.161 33.643 158.655C32.7859 162.4 32.7859 165.183 33.1073 168.5C33.4287 172.352 35.0359 175.562 35.3573 179.629C35.6788 182.518 35.0359 185.621 34.393 188.511C33.4287 193.433 33.643 193.861 33.7502 199.639C33.8573 204.99 33.4287 204.776 33.1073 204.455C33.1073 204.455 33.0002 203.492 33.0002 202.315C33.0002 201.245 32.8931 198.462 32.8931 196.536C32.7859 192.791 33.2145 189.367 33.5359 187.976C34.1788 185.193 34.8216 182.304 34.393 179.201C33.5358 175.241 32.2502 171.389 31.8216 167.644C31.2859 163.042 32.5716 158.334 33.0002 154.91C33.4288 151.699 33.0001 146.028 32.143 143.674C32.0358 142.925 31.2859 141.855 31.2859 141.855C30.4287 141.748 29.3573 141.641 28.6073 141.641C28.5001 164.005 28.6073 186.477 28.6073 208.842L33.5359 213.444L38.5717 208.628L38.8932 142.604ZM39.3218 168.393C39.3218 168.393 46.8218 172.78 55.1791 177.061C54.4291 172.138 56.8935 171.389 59.2507 170.854C58.7149 161.437 67.2865 163.363 68.5722 171.603H69.4294C70.9295 167.537 72.4295 164.648 75.751 164.006C78.4296 163.47 81.0011 165.183 81.644 169.142C81.5368 168.821 90.4297 163.899 90.644 174.385C94.7155 171.924 97.5013 174.064 98.6799 177.275C100.394 174.706 104.573 174.599 105.966 174.385C105.859 173.743 110.894 172.78 113.144 173.636C115.93 173.315 117.002 175.455 118.395 176.098C121.287 175.241 128.895 172.566 128.252 171.175C128.359 171.175 128.68 171.603 129.109 171.817C129.323 171.924 130.931 170.961 130.931 170.961C119.895 158.227 111.002 133.294 116.894 110.287C116.037 109.538 117.645 110.18 117.323 110.287C117.323 110.287 115.18 120.56 115.502 124.947C140.145 136.718 137.038 161.544 130.823 169.677L131.788 170.961C132.216 171.282 151.181 160.153 150.538 159.725L154.074 157.906L153.538 109.431L139.395 108.361C139.395 108.361 139.502 107.933 139.716 107.826C139.824 104.83 139.609 100.442 139.716 96.8039C139.824 86.317 139.824 82.7857 139.716 82.4647C135.323 79.5755 128.788 75.2951 123.323 73.262C123.537 73.369 123.216 77.6493 123.109 77.8633C117.966 79.4685 120.323 81.6086 118.502 83.8558C117.216 85.2469 114.216 85.5679 112.823 83.8558C111.109 82.1437 110.252 78.3984 110.252 78.3984C107.573 81.2876 108.109 84.8189 104.466 86.21C98.5728 89.0993 96.7513 80.4315 97.0727 80.6455C94.8227 82.7857 88.5011 84.6049 87.8583 75.4021C85.0725 77.9703 81.8582 76.6863 80.5725 73.476C78.8582 73.583 76.9296 74.8671 75.2153 75.6162C73.6081 76.3652 71.5723 76.7933 69.9651 76.6863C68.0365 76.9003 66.4293 76.9002 64.715 76.3652C63.8579 76.5792 62.0364 75.8302 61.5007 74.6531C60.6435 73.583 59.8935 73.583 59.0363 73.797C56.2505 75.2951 53.2505 75.6162 49.929 77.2213C49.7147 77.3283 50.2505 77.6493 50.0362 77.5423C49.9291 77.5423 48.3218 78.3984 48.3218 78.3984C65.1436 100.549 66.0008 122.914 62.465 138.858C62.3579 139.393 62.2507 139.821 62.5721 140.25C62.0364 140.143 62.0364 140.357 61.9293 139.929C62.2507 135.113 63.7507 133.08 63.7507 125.375C57.7506 122.058 50.8934 117.243 48.0005 111.25C41.5718 101.191 43.7147 89.2063 48.5362 79.6825L47.3576 78.3984C33.3217 85.461 24.9643 93.1656 24.9643 93.1656L25.0714 140.785L39.536 142.497L39.3218 168.393ZM32.3573 136.611C31.9288 136.076 30.7502 135.969 30.2145 136.397C30.1073 136.504 29.893 137.039 29.7858 136.932C29.4644 136.611 29.143 136.611 28.6073 136.076L29.2501 135.006C29.7858 134.15 30.643 133.829 31.9287 133.508C32.3573 133.401 33.1073 133.294 33.3215 133.187C34.2858 132.759 34.7145 131.796 33.643 132.224C32.893 132.438 31.8215 132.331 31.7144 131.689C31.6072 131.154 31.1786 130.94 30.6429 130.94C29.6786 131.154 28.8215 131.689 27.8572 132.224C27.4286 132.438 26.7857 132.973 26.7857 132.973C26.6786 133.187 26.25 131.796 26.6786 131.475C27.2143 131.582 27.643 131.582 28.0716 131.368C29.2501 130.94 30.4287 130.298 31.6073 129.87C32.3573 129.549 32.4644 129.549 32.2501 129.014C32.143 128.8 32.0358 128.158 32.143 127.837C32.2501 127.515 32.2502 127.301 32.0359 127.087C31.5001 126.766 30.2144 127.087 28.3929 127.943C27.8572 128.265 27.4287 128.372 27.1072 128.586C27.3215 128.051 27.2143 127.944 27.2143 127.301C27.9644 127.408 28.6073 127.087 29.2501 126.766C29.7858 126.552 30.3215 126.231 31.6073 126.124C31.9287 126.124 31.8216 124.733 31.393 124.305C30.9644 123.984 30.1073 123.877 29.143 124.198C28.2858 124.412 27.1073 124.626 26.4644 125.589C27.1073 123.984 26.5714 124.626 27.9643 123.556C28.6072 123.556 30.0001 123.235 30.3216 123.128C30.8573 123.021 30.9644 121.737 30.1072 121.095C29.5715 120.667 31.9287 120.667 31.9287 120.774C31.9287 120.881 31.9287 121.416 32.0359 121.523C33.0002 121.844 33.0002 122.7 33.1073 123.021C34.2859 124.947 34.8217 123.77 35.5717 123.021C35.3574 127.194 36.8573 127.622 37.0716 127.837C35.143 131.582 36.5359 131.582 38.4645 132.438C38.4645 132.438 37.7146 132.759 37.286 132.652C36.536 132.652 35.1431 133.508 34.5002 134.043C34.1788 134.364 34.1787 134.043 32.7858 134.043C31.5001 134.043 31.393 134.15 30.8573 134.364C29.6787 134.899 29.6787 135.327 30.8573 135.22C32.0359 135.006 33.2144 135.755 33.3215 136.718C33.4287 136.932 33.3215 136.932 33.3215 136.932C33.1073 136.932 32.4645 136.932 32.4645 136.825C32.5716 137.039 32.5716 136.932 32.3573 136.611ZM34.0716 131.582C34.3931 131.368 34.5002 130.726 34.1788 130.512C33.9645 130.298 32.7859 130.405 32.4645 130.726C31.8216 131.261 33.1073 132.224 34.0716 131.582ZM34.7145 129.121C35.1431 128.8 35.143 128.051 34.8216 127.622C34.1787 126.873 32.6787 127.301 32.5716 128.265C32.5716 129.228 33.9645 129.763 34.7145 129.121ZM34.2859 125.696C34.393 124.84 33.5358 124.305 32.7858 124.733C31.8215 125.268 32.4645 126.231 33.5359 126.231C34.1788 126.124 34.1787 126.124 34.2859 125.696ZM31.5001 122.272C31.0716 122.486 31.0716 123.021 31.5001 123.342C33.1073 124.305 32.5716 121.844 31.5001 122.272ZM145.502 127.194C144.752 124.519 142.824 127.194 142.824 127.194C142.716 124.519 143.252 123.235 141.216 122.379C143.252 119.276 142.824 118.848 140.681 117.671C140.895 117.671 143.574 117.136 144.002 115.53C144.109 115.637 148.181 116.601 148.717 114.353C147.431 114.888 145.074 114.995 145.074 112.641C145.288 112.534 145.931 112.641 145.824 112.748C145.502 114.246 148.288 114.674 148.717 113.497C148.717 113.497 149.681 114.139 150.109 114.246C150.109 114.246 148.824 116.066 147.645 116.387C145.502 117.136 144.752 117.35 144.752 117.778C144.752 117.992 145.074 117.992 145.716 118.099C147.109 118.206 147.002 118.527 147.217 118.955C147.324 119.383 147.538 119.383 147.966 119.383C149.467 118.848 150.324 118.634 151.395 117.564C151.502 117.564 151.717 118.741 151.717 118.741C151.717 118.527 150.645 118.848 148.931 119.918C147.538 120.774 147.002 120.881 146.788 121.095C146.681 121.309 147.002 121.737 147.002 122.379C147.002 122.807 146.681 123.021 147.002 123.235C147.217 123.449 147.645 123.342 148.181 123.235C149.359 122.914 150.217 122.486 151.288 121.844C151.074 122.272 151.395 123.342 151.395 123.342C151.395 123.342 150.859 123.021 150.431 123.128C149.467 123.663 148.502 124.091 147.217 124.305C147.002 124.412 147.109 124.84 147.109 125.268C147.109 125.589 147.002 125.91 147.217 126.017C148.931 126.231 149.895 125.803 151.181 125.054L150.859 126.552C150.431 126.124 149.359 126.445 148.609 126.766C148.181 126.873 148.074 127.087 148.074 127.408C147.859 127.943 148.288 128.372 148.717 128.586C149.038 128.693 149.467 128.693 149.467 128.693C148.181 129.442 148.181 129.763 146.788 129.121C146.145 128.479 145.717 127.943 145.502 127.194ZM147.538 127.194C147.217 126.766 146.681 126.552 146.359 126.766C146.038 126.873 146.145 127.194 146.252 127.515C146.466 128.265 148.181 128.05 147.538 127.194ZM146.467 125.375C146.895 124.733 146.467 123.984 145.609 123.984C145.074 123.984 144.752 124.305 144.752 124.84C144.645 125.589 146.038 125.803 146.467 125.375ZM145.502 123.021C146.359 122.807 146.574 121.951 146.038 121.416C145.609 120.988 144.324 120.988 144.002 121.309C143.038 122.272 144.002 123.449 145.502 123.021ZM146.145 120.025C146.681 119.811 146.788 119.383 146.252 118.848C145.502 118.206 144.109 118.741 144.538 119.704C144.859 120.239 145.609 120.346 146.145 120.025ZM44.4646 97.2319C45.2146 96.9109 45.7504 96.3759 46.5004 95.9479C47.0361 95.6268 46.8218 95.7338 46.1789 95.3058C45.6432 95.0918 44.5718 94.0217 44.4646 94.2357C44.3575 94.6637 44.3575 97.1249 44.4646 97.2319ZM63.4293 121.844C63.5365 120.774 63.3221 121.095 62.7864 121.416C62.3578 121.737 61.6079 122.165 61.3936 122.272C60.3221 122.807 60.4293 122.807 61.9293 123.556C62.8936 123.984 63.2149 124.091 63.3221 123.877C63.4292 123.235 63.4293 122.486 63.4293 121.844ZM61.9293 121.202C63.0007 120.56 63.3221 120.239 63.3221 119.49C63.3221 118.634 63.215 118.313 62.465 118.955C60.0007 120.988 57.4292 117.029 59.6793 114.888C60.1079 114.46 60.7507 113.711 60.7507 113.604C60.7507 112.32 59.3578 113.604 58.2863 115.316C57.0006 116.922 56.2506 118.848 57.322 120.774C58.1792 121.951 60.215 122.272 61.9293 121.202ZM56.1434 118.634C56.1434 117.992 56.2505 117.35 56.3577 117.136C56.6791 116.387 56.6792 116.28 55.3935 116.922C54.8578 117.136 54.322 117.243 54.0005 117.243C52.9291 117.243 53.2505 117.564 54.7505 118.848C56.2505 120.025 56.3577 120.132 56.1434 118.634ZM59.7864 112.641C59.8935 112.213 59.5721 112.106 59.2507 112.213C59.2507 112.213 58.715 112.641 58.0721 113.176C56.1435 114.674 54.7506 114.888 53.7863 113.711C52.822 112.534 53.2506 111.143 55.3935 109.538C56.3578 108.789 56.572 108.789 56.1434 108.468C55.822 108.254 55.822 108.254 54.4292 109.217C51.6434 111.143 50.7863 112.427 51.1077 114.353C51.2148 115.102 51.5362 115.53 51.9648 115.851C54.4291 118.099 58.1792 114.781 59.7864 112.641ZM62.5721 113.711L62.3579 111.143C56.4649 106.007 54.2148 99.0511 55.822 91.8815L54.322 88.9923C53.0363 92.0955 52.3934 96.8039 53.8934 101.619C55.072 105.686 57.5363 110.715 62.5721 113.711ZM50.572 112.213C51.4291 110.501 51.5362 110.608 49.7148 110.608C47.679 110.608 47.8933 110.394 49.0719 112.106C50.0362 113.497 49.9291 113.604 50.572 112.213ZM51.7505 109.859C52.9291 109.538 52.6076 109.538 54.1077 108.575C55.822 107.398 55.9291 106.863 54.2148 107.719C51.9647 108.896 50.0362 108.575 49.2861 107.077C48.6433 105.793 50.0362 104.081 52.2863 103.438C53.0363 103.224 53.4648 103.01 53.4648 102.689C53.4648 101.619 49.6076 103.01 48.1076 104.616C45.0004 107.612 47.679 111.143 51.7505 109.859ZM46.8219 105.151C46.929 105.044 47.2504 104.616 47.4647 104.187C48.5362 102.903 47.679 103.331 46.7146 103.01C46.1789 102.796 45.6433 102.689 45.429 102.689C44.8932 102.796 45.6433 103.866 45.8576 104.616C46.2861 106.221 46.179 106.114 46.8219 105.151ZM50.8933 102.261C52.8219 102.047 53.0362 101.833 53.0362 101.512C53.0362 101.084 52.822 101.191 51.8577 101.298C49.2862 101.619 47.5718 100.977 47.2504 99.5861C46.8218 98.195 48.6433 96.8039 50.8933 96.9109C52.1791 96.9109 52.9292 96.4829 52.1791 96.0548C51.7506 95.8408 48.3219 95.8408 47.5719 96.1618C45.3218 96.8039 44.3575 98.088 44.5718 99.9071C44.8932 102.047 46.0719 102.689 48.9648 102.582C49.6077 102.582 50.2505 102.368 50.8933 102.261ZM52.3934 95.0917C52.3934 94.7707 51.8577 94.6637 50.0362 94.4497C47.5719 94.1287 46.5004 91.8815 48.0005 90.4904C48.5362 89.9553 49.822 89.7413 50.572 89.8483C52.1791 90.1694 53.1433 90.4904 53.1433 89.9553C53.1433 89.4203 52.7148 89.4203 49.7148 88.7783C45.2147 87.8152 42.6432 92.3095 46.2862 94.4497C47.7862 95.3058 52.3934 95.8408 52.3934 95.0917ZM53.5719 88.7783C53.5719 88.5642 53.4648 88.4572 53.0362 88.3502C50.8933 87.8151 48.0005 84.9259 50.1434 83.2138C51.1077 82.1437 49.3933 80.9666 48.0005 82.1437C46.6076 83.3208 46.7146 85.2469 48.3218 86.7451C49.8218 88.1362 53.5719 89.5273 53.5719 88.7783ZM46.1789 88.4572C47.7861 87.7082 48.8576 88.1362 47.679 87.0661C47.0361 86.424 46.3933 84.6049 45.9647 86.21C45.6433 87.0661 45.3218 88.6712 45.3218 88.8852C45.429 88.9922 45.4289 88.7783 46.1789 88.4572ZM99.43 80.1105C99.6443 78.9334 100.716 76.2582 100.93 76.1512C101.68 75.5092 101.573 76.3652 100.93 77.8633C100.287 79.3615 99.7514 80.5385 99.9657 81.3946C100.287 82.6787 100.716 83.6418 102.109 83.9628C103.073 84.1769 103.93 83.8558 104.466 83.4278C105.216 82.8928 105.966 81.5016 106.823 79.4685C107.144 78.9334 107.466 77.2213 107.894 78.2914C108.109 78.8264 106.287 82.3577 105.537 83.2138C102.43 86.8521 98.4657 83.2137 99.43 80.1105ZM112.823 83.4278C113.68 84.2839 115.18 84.7119 116.145 84.3908C118.502 83.5348 119.573 81.2876 118.716 77.6493C118.287 75.6161 117.859 74.332 117.43 74.118C117.216 74.011 117.002 74.225 116.894 74.5461C116.68 74.7601 117.002 75.1881 117.216 76.1512C118.395 80.2175 118.073 81.9296 116.68 82.7857C114.645 83.8558 112.93 82.5717 112.394 79.7895C112.287 79.3614 112.073 78.3984 112.073 78.3984C111.966 77.9703 110.68 78.0773 111.109 79.4685C111.109 80.4315 112.073 82.8928 112.823 83.4278ZM122.895 72.9409C122.895 71.5498 119.895 65.4503 119.68 66.0923C119.68 66.0923 119.68 67.4835 119.787 68.1255C119.787 68.3396 120.002 68.5535 120.109 68.7676C122.68 73.369 122.252 76.5792 120.002 77.3283C119.252 77.6493 119.037 77.9703 119.466 78.3984C120.109 79.1474 121.823 77.6493 122.252 77.1143C123.109 75.8301 123.002 73.583 122.895 72.9409ZM79.9295 71.8709C84.4296 65.9854 87.9654 52.6092 88.5011 44.1555C88.394 43.9415 87.3226 44.0485 87.0012 44.2625C86.7869 44.4765 87.0011 44.9046 86.894 45.5466C86.0368 52.5022 84.3225 58.9228 81.8582 65.4503C80.7867 68.2325 79.8225 70.1587 78.4296 72.0848C78.2153 72.4058 77.8938 72.7269 77.7866 72.9409C77.4652 73.369 77.6795 73.69 78.1081 73.476C78.8581 73.155 79.3938 72.4059 79.9295 71.8709ZM76.6081 73.583C81.6439 66.0923 84.3225 57.9597 86.2511 44.4765C85.8225 44.3695 85.0725 44.4765 84.7511 44.6906C84.5368 44.9046 84.644 45.4396 84.5368 46.6167C84.1082 49.613 83.5725 52.6092 82.501 56.5685C79.8224 65.3433 77.4653 70.1587 74.2509 74.5461C74.0367 74.8671 73.7152 75.1881 73.8223 75.2951C73.8223 75.5091 74.1438 75.5091 74.6795 75.1881C75.4296 74.6531 76.1795 74.118 76.6081 73.583ZM71.8937 75.8301C73.3937 74.9741 76.0724 71.2288 77.8939 67.1624C80.0368 62.347 81.7511 56.9966 82.9296 52.3952C83.4654 50.362 84.1082 45.2256 84.0011 44.9046C83.8939 44.6906 82.3939 44.9046 82.6082 45.1186C82.6082 45.1186 81.1082 53.3583 79.6082 57.8526C76.7153 66.1993 74.1438 71.9778 71.4652 74.6531C71.1438 74.9741 70.3938 75.7231 70.3938 75.7231C70.3938 75.7231 70.3937 76.0442 70.608 76.0442C71.1437 76.1512 71.5722 76.0441 71.8937 75.8301ZM69.5365 75.5091C72.9652 73.583 76.9295 64.5942 80.251 53.3583C80.7867 51.4321 81.8582 45.0116 81.8582 45.0116C81.8582 45.0116 80.4653 45.0116 80.251 45.3326C80.0367 45.7606 80.0368 46.7237 79.6082 49.0779C78.1082 56.1405 75.9653 62.668 72.6438 69.0886C71.2509 71.9778 68.7866 74.6531 67.2865 75.4021C66.4294 75.8302 66.2151 76.2582 66.8579 76.3652C67.9294 76.3652 68.0366 76.5792 68.7866 76.2582L69.5365 75.5091ZM116.359 175.67C113.787 175.67 111.644 178.131 109.716 181.234C105.644 187.547 102.859 198.248 102.109 203.813L103.609 203.492C103.394 203.599 106.502 188.511 111.323 181.983C113.894 177.917 113.787 177.81 115.287 177.489C117.109 177.061 118.609 178.987 117.645 180.164C117.323 180.592 117.002 180.271 117.109 179.736C117.43 177.917 114.752 177.489 114.002 179.308C113.144 181.448 115.395 183.267 117.645 182.411C119.68 181.662 120.537 178.88 119.037 176.847C118.287 176.205 117.323 175.67 116.359 175.67ZM102.859 175.455C99.7514 179.308 98.2513 183.267 96.4299 188.725C94.5013 194.182 93.2155 199.425 92.5727 205.525L94.1798 205.311C94.0727 201.352 98.3585 182.732 104.359 175.777C104.68 175.348 105.001 174.92 104.894 174.813C104.68 173.957 103.287 175.027 102.859 175.455ZM109.609 173.957C105.644 177.275 102.43 184.337 100.394 190.972C98.1443 198.141 97.0728 204.669 97.2871 204.669L98.8942 204.455C98.7871 204.027 103.287 178.88 111.752 174.278C112.502 173.957 112.609 173.529 112.073 173.422C111.002 173.315 110.252 173.636 109.609 173.957ZM114.002 174.064C105.323 175.241 99.6442 201.994 99.5371 204.241V204.455L101.251 204.134V204.027C102.43 197.178 103.609 192.363 106.287 186.263C108.43 181.662 111.323 175.777 115.609 175.241C115.93 175.241 116.252 175.348 116.145 174.92C115.93 174.064 114.645 173.957 114.002 174.064ZM62.3579 165.611C59.2507 166.467 59.1434 170.212 61.1792 175.027C61.2863 175.348 61.2864 175.562 61.5007 175.777C61.8221 176.098 62.1435 175.669 62.1435 175.348C62.2507 174.92 62.0364 174.278 61.7149 173.422C60.4292 170.105 60.7507 168.179 62.0364 167.323C65.3579 165.611 66.2151 169.142 66.6437 170.747C66.7508 171.175 66.8579 171.71 67.0722 171.71C67.715 171.817 68.0365 171.603 68.0365 171.603C68.0365 171.603 67.1794 168.607 66.6437 167.43C65.7865 165.504 63.7508 165.183 62.3579 165.611ZM39.6431 169.142V208.949L33.643 214.621C31.0716 212.374 27.6429 208.949 27.6429 208.949L27.7501 141.641L25.8214 141.534C25.3928 170.426 25.8214 199.961 25.8214 228.96H43.3932C48.3218 221.041 53.4648 213.337 58.2863 205.418C58.5006 204.99 58.3935 204.348 58.3935 201.887C58.3935 200.924 58.5006 200.175 58.2863 199.854C58.1792 199.639 57.8578 199.746 57.5364 199.96C57.2149 200.068 57.1077 200.068 57.2149 199.747C57.322 199.533 57.6434 199.104 57.8577 198.676C58.7149 197.285 58.9293 196.857 58.6078 195.359C58.5007 195.038 58.1792 194.717 57.8577 194.289C55.3934 190.651 54.4291 185.193 55.6077 181.234C56.0363 179.522 55.822 179.094 54.9649 177.703L39.6431 169.142ZM117.323 126.338C115.716 125.482 115.716 125.482 115.716 127.087C115.716 128.265 115.716 128.586 116.145 128.372C116.787 128.051 117.537 127.73 118.18 127.515C119.252 127.087 117.859 126.659 117.323 126.338ZM123.645 130.405C122.359 129.442 122.895 129.549 122.466 131.796C122.252 133.187 121.93 133.187 123.43 132.759C124.18 132.438 125.895 132.652 125.145 131.689C125.145 131.689 123.966 130.619 123.645 130.405ZM69.5365 172.138C62.7864 172.994 60.0007 179.629 59.6793 185.086C59.465 189.474 59.1434 194.61 59.572 195.038C63.965 193.005 65.6794 195.359 66.108 194.717C66.3223 194.396 65.1436 193.54 63.6436 192.791C63.3221 192.577 62.7864 192.256 62.5721 192.149C62.0364 191.721 63.6436 192.042 64.6079 192.791C65.8936 193.647 66.108 193.54 65.5722 190.865C64.9294 188.083 64.8221 187.761 66.965 186.584C67.8222 186.156 68.358 185.728 68.8937 185.086C69.4294 184.551 69.5366 184.444 69.3223 185.193C69.0009 186.584 67.7151 187.226 66.6437 187.762C66.108 188.083 65.8936 188.618 65.8936 189.153C65.8936 189.688 66.4294 192.363 66.7508 193.326C66.9651 194.182 67.0722 195.038 67.2865 195.894C67.8223 198.141 67.8222 198.569 67.6079 200.175C67.5007 201.138 67.3936 201.673 67.3936 202.208C67.3936 202.743 67.5008 203.385 67.5008 203.385C67.5008 203.385 66.3222 202.101 63.6436 203.171C61.715 203.92 60.215 203.171 59.1435 202.636C58.9293 203.492 58.9292 204.455 59.0363 205.418C69.9651 207.451 79.2867 207.13 87.1083 206.381C87.2155 204.455 88.5011 192.577 93.3226 182.197C94.0727 180.806 94.8227 179.95 95.1442 179.843C95.2513 179.736 95.2513 179.629 95.2513 179.522C95.2513 179.094 95.1442 178.452 94.7156 178.131C93.8584 177.382 92.3584 178.345 91.9298 179.95C91.5013 180.913 89.5726 185.086 89.4655 185.086C89.3583 184.979 89.037 184.979 89.1441 184.658C89.8941 182.946 90.8584 181.127 91.3941 179.629C92.1441 177.382 93.8584 176.312 95.1442 177.703C95.5728 178.131 95.787 178.666 96.0013 178.773C96.1084 178.88 96.3227 178.773 96.4299 178.666C96.8584 177.917 95.787 176.312 94.6085 175.991C92.8941 175.562 91.6084 176.74 89.6798 180.806C88.6084 183.16 88.3941 183.802 88.1798 183.588C88.1798 183.588 87.8583 183.588 87.9654 183.16C88.1797 182.197 89.6798 179.308 90.7513 177.489C92.3584 174.813 95.2512 174.599 96.537 176.954C96.7513 177.275 96.7513 177.703 96.9656 177.917C97.3942 178.452 97.9299 178.345 98.1442 177.489C97.9299 176.954 96.9656 175.027 96.2156 174.706C94.5013 173.529 92.5727 173.743 90.8584 175.348C90.4298 175.669 90.1083 176.419 88.9297 178.666C87.3226 182.411 87.2154 182.411 86.7868 181.769C87.4297 179.95 89.2512 177.061 89.8941 175.241C90.0012 175.027 90.1083 174.706 90.0012 174.385C90.0012 173.101 90.2154 170.747 87.4297 169.142C85.0725 167.858 81.9653 169.249 81.001 171.71C80.251 173.636 79.6082 174.92 79.1796 175.241C78.6439 175.669 78.751 175.134 78.751 174.92C79.6081 173.208 80.6796 171.496 80.8939 169.677C81.001 165.397 77.1439 163.578 74.1438 164.969C71.8938 165.718 70.7151 169.035 69.5365 172.138ZM48.9648 77.0073C52.6077 75.2951 55.1791 74.4391 58.9292 73.262C59.4649 73.0479 59.5721 72.9409 58.9292 71.8709C56.572 67.0554 63.1078 63.3101 65.3579 68.0185C65.6793 68.6605 65.6793 68.9816 66.0007 68.6606C68.7865 65.6643 73.2866 54.2144 74.3581 46.1887C69.4294 37.521 60.6435 21.4697 60.6435 21.4697H25.7143V91.3464C35.5716 83.3208 42.2147 80.3245 48.9648 77.0073ZM90.4298 70.1587C90.7512 69.6236 91.1798 68.7675 91.287 68.3395C91.5013 67.5904 92.3584 67.1624 91.9298 68.4466C91.8227 68.7676 91.7155 69.0886 91.3941 69.6236C90.8584 70.5867 90.4297 71.6568 90.1083 72.4059C88.1797 76.3652 88.2869 78.6124 90.4298 80.3245C92.037 81.9297 95.4656 82.0366 97.2871 79.5754C97.6085 79.1474 97.8228 78.6124 97.8228 78.5054C98.5728 76.5792 99.2157 75.6162 99.3229 75.4021C100.073 74.332 100.287 75.6161 99.1085 77.6493C97.7156 79.8965 97.7157 82.3577 98.8942 84.0698C100.609 86.638 104.037 86.638 106.073 84.6049C107.144 83.3208 108.002 81.7156 108.752 79.5754C108.859 79.1474 109.073 78.7194 109.18 78.5054C109.394 78.0773 109.609 77.9704 110.252 77.7563C114.752 76.9003 118.502 72.2988 119.037 67.2694C119.145 66.6274 119.252 65.3433 119.359 64.7012C119.466 63.3101 119.466 55.8195 119.359 55.3914C119.252 55.1774 119.145 55.0704 118.823 55.0704C118.609 55.0704 118.287 55.1775 117.859 55.2845C116.359 55.8195 115.716 55.9265 114.323 55.3914C113.895 55.1774 113.573 55.1774 113.359 55.1774C112.716 55.2844 113.573 56.1405 115.395 57.1036C116.145 57.5316 116.787 58.0667 116.145 58.0667C115.93 58.0667 113.787 56.8896 113.466 56.6756C112.502 56.0335 112.716 56.7826 113.252 58.9227C113.895 61.705 113.573 62.454 111.43 63.5241C111.002 63.7381 110.466 64.1662 110.252 64.3802C109.073 66.0924 109.394 64.8082 109.93 63.9522C110.894 62.8821 110.359 62.5611 108.323 63.3101C106.073 64.1662 105.001 63.5242 104.359 62.24C103.609 60.7419 105.001 58.9227 106.18 58.9227C106.501 58.9227 106.502 59.0297 105.966 59.4578C105.323 59.8858 105.001 60.3139 104.894 61.17C104.787 62.7751 105.859 63.4171 107.466 62.347C108.216 61.812 108.751 61.4909 109.394 61.3839C109.93 61.2769 110.787 61.4909 110.787 61.919C110.787 62.133 110.787 62.561 110.787 62.668C110.894 63.2031 111.752 62.4541 112.073 62.24C113.252 61.384 113.252 61.1699 112.93 59.7788C112.394 57.7456 112.18 55.9265 111.645 53.8933C111.43 52.8232 111.323 51.6461 111.537 50.576C111.644 50.041 111.859 48.8639 111.859 48.1149C111.859 47.3658 111.859 46.2957 111.859 46.2957C113.037 47.1518 113.466 47.3658 114.644 46.9377C116.359 46.1887 117.537 46.2957 119.037 47.0448C119.573 47.2588 120.109 47.4728 120.109 47.4728L120.216 45.1186C120.216 45.1186 118.823 44.7976 116.252 44.4765C108.644 43.5134 92.8942 43.2994 92.3584 44.1555C91.287 50.362 89.8941 57.7457 88.2869 62.5611C87.9655 63.5241 87.7511 63.8452 87.8583 63.9522C87.9654 63.9522 88.1797 63.6311 88.2869 63.4171C89.0369 62.561 88.5011 64.5942 87.3226 67.0554C87.2154 67.2695 87.1083 67.4835 87.1083 67.5905C87.1083 67.6975 86.3583 69.5166 85.9298 70.4797C85.6083 71.1217 85.394 71.3358 85.394 70.9077C85.7155 69.5166 86.6797 67.5905 86.7868 66.4134C86.0368 67.5905 84.8583 69.5166 84.0011 70.5867C83.8939 70.9078 84.0011 71.0148 84.1082 71.3358C84.6439 72.7269 85.9297 72.8339 86.6797 71.5498C87.1083 70.8007 88.394 68.1255 88.8226 66.9484C89.2512 65.7713 89.5726 65.1293 89.7869 65.0223C90.1084 64.9152 90.1083 65.5573 89.5726 66.7344C87.9654 70.1587 87.2155 72.1918 86.4655 72.8339C85.8226 73.3689 84.7511 73.369 84.2153 72.4059C83.251 70.6938 82.2868 71.3358 83.2511 73.0479C84.2154 74.8671 86.3583 74.9741 87.5369 73.3689C87.9655 72.8339 89.6798 69.4096 90.2155 68.0185C90.537 67.2694 90.8584 66.6274 90.9655 66.6274C91.6084 66.4134 90.8584 68.1255 89.1441 71.7638C88.6084 73.1549 87.6441 74.546 86.4655 74.9741C83.5726 75.6161 83.1439 74.011 82.0724 72.2988C81.5367 71.8708 81.1082 72.5129 81.3225 73.3689C81.6439 74.653 82.2867 75.1881 83.1439 75.8301C84.9653 77.0072 87.4298 76.1512 88.0726 75.2951C88.3941 74.011 88.9298 73.2619 90.4298 70.1587ZM101.144 81.8227C100.93 81.1806 100.93 80.6455 101.037 80.1105C101.359 78.8264 101.894 77.6493 102.43 76.5792C103.394 76.1512 102.644 77.9703 102.537 78.1843C101.359 80.6455 101.251 81.6087 102.323 81.8227C103.287 82.0367 103.716 81.5016 104.68 79.2544C105.109 78.0773 105.323 77.6493 105.43 77.5423C105.751 77.4353 105.966 77.5423 105.859 77.8633C105.323 79.2544 104.787 80.8596 103.823 82.0367C103.073 82.8928 101.68 82.8928 101.144 81.8227ZM92.4656 80.0035C87.8583 78.2914 90.6441 73.2619 91.5012 71.4428C91.6084 71.1218 92.2513 69.9447 92.4656 69.5166C92.787 68.7676 93.1084 69.0886 93.1084 69.5166C93.1084 69.6237 92.5727 70.6937 92.037 71.7638C89.7869 76.1512 89.8941 77.9703 92.037 79.0404C94.1798 80.1105 95.1442 79.4684 96.8585 76.0442C97.8228 73.4759 98.3585 73.4759 98.2514 74.439C98.2514 74.7601 97.0728 77.2213 96.3227 78.3984C95.3584 80.0035 94.0727 80.5385 92.4656 80.0035ZM92.6798 77.8633C91.8226 77.3283 91.5012 76.0442 92.037 74.9741C92.4655 74.118 93.6441 70.6937 94.1798 70.5867C95.037 70.5867 94.6085 71.3358 93.537 73.3689C92.2513 76.1512 92.3583 76.7933 93.3226 77.2213C94.2869 77.6493 94.7155 76.7932 96.0013 73.583C96.2155 73.0479 96.5371 72.5129 96.6442 72.6199C96.8585 72.6199 97.1799 72.7269 96.537 74.225C96.3227 74.546 96.1085 75.2951 95.787 75.9372C94.7156 77.9703 93.6441 78.5054 92.6798 77.8633ZM107.787 72.0848C107.466 71.8708 105.644 71.2288 105.966 70.6937C105.966 70.6937 106.073 70.6937 106.18 70.6937C107.787 71.7638 109.716 72.0849 111.752 70.5867C112.073 70.2657 112.395 70.4797 112.18 70.9077C111.537 71.9778 108.751 72.5129 107.787 72.0848ZM102.644 70.2657C102.644 70.1587 102.859 69.8377 102.966 69.3026C103.18 68.5535 103.073 68.0185 103.287 68.1255C104.037 68.5536 105.323 68.5536 105.966 68.1255C106.609 67.6975 108.002 67.5905 108.537 67.9115C109.287 68.3395 109.609 68.1255 110.144 67.8045C110.68 67.3764 110.68 67.5905 111.752 67.9115C112.502 68.2325 112.823 68.3395 113.144 68.3395C113.252 68.3395 113.573 68.0185 113.573 68.0185C113.787 68.0185 113.894 68.7676 114.109 69.6236C114.323 70.3727 114.216 70.4797 113.573 70.0517C113.144 69.7307 111.752 69.6237 110.252 70.0517C109.18 70.3727 108.966 70.2657 108.216 70.1587C106.287 69.8376 104.894 69.6236 103.501 70.3727C102.644 70.8007 102.43 71.0148 102.644 70.2657ZM97.9299 66.6274C96.9656 64.7012 99.1085 62.24 101.037 63.0961C101.68 63.4171 102.216 64.4872 101.251 63.9522C96.9656 63.0961 98.0371 69.4096 102.644 66.0923C105.752 64.0592 107.894 63.7381 108.109 65.6643C108.002 66.4133 107.359 66.3064 106.93 66.3064C105.644 66.5204 105.216 66.7344 103.716 67.3765C101.359 68.2325 99.2157 68.7676 97.9299 66.6274ZM114.644 67.5905C113.573 67.2695 112.716 66.9484 111.645 66.7344C110.573 66.5204 110.037 65.9853 110.252 65.2363C110.466 64.4872 111.537 64.3802 113.144 65.3433C114.966 66.4134 116.252 66.7344 116.894 66.3064C118.18 65.4503 117.537 64.0592 116.252 63.7381C115.287 63.4171 116.037 63.0961 117.002 63.4171C118.716 64.0592 118.716 67.0554 117.002 67.6975C116.466 67.8045 115.502 67.6975 114.644 67.5905ZM100.073 57.5316C101.251 56.7826 102.43 56.1405 102.859 55.6055C103.073 55.3915 103.716 54.5354 103.18 54.8564C100.716 56.3545 97.8228 55.0704 95.6799 54.1073C94.7156 53.6793 94.9299 53.8933 94.1798 53.8933C93.6441 53.8933 93.2155 54.0004 93.1084 53.6793C93.1084 53.4653 92.787 53.5723 92.5727 53.5723C91.8227 53.4653 92.2513 52.5022 93.9656 51.3251C96.9657 49.1849 101.573 47.1517 103.93 49.827C104.466 50.255 104.359 50.576 104.787 50.362C105.859 49.72 105.859 50.576 105.001 51.4321C104.359 51.9672 104.573 52.1812 105.323 52.7162C105.644 52.9302 105.43 53.2513 105.216 53.5723C105.109 53.7863 105.216 54.1074 105.216 54.2144C105.002 55.0704 101.359 57.8526 100.073 58.3877C99.2157 58.4947 99.7514 57.7456 100.073 57.5316ZM102.001 52.2882C101.359 54.4283 100.073 55.1775 99.0014 52.6092H98.4656C98.4656 54.7494 102.109 56.1405 102.537 52.2882C102.323 52.2882 102.109 52.2882 102.001 52.2882ZM98.5728 54.3214C98.3585 53.8933 98.0371 52.9303 97.8228 52.9303C97.0728 52.9303 96.1085 53.0373 96.3227 53.4653C96.7513 54.1074 98.8942 54.7494 98.5728 54.3214ZM103.501 53.8933C104.144 53.4653 104.251 53.2512 103.823 52.8232C103.287 52.2882 102.966 52.5022 102.859 53.4653C102.644 54.2144 102.751 54.3213 103.501 53.8933ZM94.6085 52.3952C99.0014 50.362 100.716 50.148 102.43 50.683C102.859 50.79 103.18 51.0041 103.394 51.0041C104.251 51.0041 103.716 50.041 102.216 49.399C100.501 48.7569 99.3227 49.0779 96.0013 50.7901C94.0727 51.8602 92.4656 53.3583 94.6085 52.3952ZM107.359 49.934C107.252 49.827 107.037 48.9709 106.93 48.7569C106.823 48.4359 106.823 48.1149 106.716 48.1149C104.68 48.4359 102.859 48.0078 102.43 47.9008C99.3227 47.1518 96.3227 47.2588 94.1798 48.2218C93.6441 48.4359 93.0013 48.7569 92.8942 48.8639C92.6799 49.0779 92.4656 48.8639 92.4656 48.6499C92.4656 48.4359 93.8584 47.3658 94.7156 46.9377C97.287 45.6536 100.073 45.4396 103.073 46.1887C105.002 46.9378 106.287 46.8307 107.573 46.2957C108.216 45.9747 107.787 46.7237 107.573 47.5798C107.466 48.2219 107.573 48.7569 107.573 49.0779C107.573 49.934 107.573 50.3621 107.359 49.934ZM153.217 228.96V158.869C135.752 171.068 128.038 173.422 119.787 176.419C122.895 181.876 115.93 187.119 113.037 181.127C109.502 185.193 104.573 199.318 104.359 204.027C104.359 204.027 113.894 220.613 118.502 228.853L153.217 228.96ZM89.5726 205.953C89.894 202.422 90.6441 196.429 93.0013 189.474C93.9656 186.584 95.1442 183.16 96.8585 180.164C97.5013 179.094 97.6085 178.666 96.8585 179.094C96.4299 179.308 94.3942 181.662 94.0727 182.197C91.287 189.902 89.1441 195.573 88.0726 205.953H89.5726ZM91.8227 205.632C92.5727 197.071 95.6799 185.514 100.394 177.917C100.823 177.168 101.358 176.526 101.358 176.312C101.251 175.562 99.5371 176.847 98.037 178.987C96.4299 182.09 94.9298 185.407 93.7512 189.153C92.0369 194.396 90.8584 199.211 90.3227 205.739L91.8227 205.632ZM96.4299 204.883C96.8584 199.961 98.4656 195.466 99.6442 190.865C101.251 185.3 103.287 181.234 105.752 177.596C106.502 176.419 107.466 175.348 108.323 174.171C108.43 174.064 108.537 173.743 108.537 173.743C108.002 173.636 107.573 173.85 107.144 174.064C106.501 174.385 105.644 175.241 105.216 175.883C101.787 180.271 99.8585 185.514 98.1442 190.758C96.537 195.787 95.2514 200.603 95.0371 205.204L96.4299 204.883ZM65.3579 201.138C66.0007 201.031 66.5365 201.245 66.7508 201.031C66.9651 200.817 66.8579 200.389 66.965 199.747C67.0722 198.355 66.9651 198.462 66.108 199.318C64.7151 200.817 62.1435 201.352 60.6435 200.496C59.8935 200.068 59.3578 199.747 59.2507 200.068C59.1435 200.496 59.2506 200.817 59.572 201.031C61.3935 201.887 63.215 201.352 65.3579 201.138ZM63.7507 200.068C64.715 199.747 65.6794 199.211 66.2151 198.462C66.7508 197.713 66.7508 197.606 66.3222 197.713C64.3936 198.676 63.1079 199.211 61.2864 198.89C58.9293 198.569 58.8221 198.783 60.4292 199.854C61.5007 200.496 62.3578 200.496 63.7507 200.068ZM60.215 197.071C60.5364 196.75 60.6435 195.68 60.4292 195.573C60.1078 195.466 59.6792 196.108 59.572 196.536C59.4649 197.178 59.8936 197.285 60.215 197.071ZM63.9651 197.071L64.6079 196.964C64.2865 194.182 61.2864 194.075 60.7507 197.285L61.1792 197.392C61.7149 194.824 63.4293 194.824 63.9651 197.071ZM66.0007 196.536C66.7507 196.001 66.4293 195.466 65.2508 195.252C64.3936 195.038 64.5007 195.68 64.9293 196.643C65.1436 197.071 65.2508 197.071 65.6794 196.75C65.7865 196.643 65.8936 196.536 66.0007 196.536ZM58.8221 193.112C58.8221 192.791 58.7149 192.256 58.5006 192.042C57.4291 189.902 56.8935 187.226 57.0007 184.016C57.1078 181.662 57.1077 181.02 56.6792 181.02C56.0363 181.341 55.6078 185.621 56.4649 189.153C57.0007 191.721 58.8221 194.824 58.8221 193.112ZM58.8221 189.688C58.7149 188.511 59.0363 185.835 58.9292 185.193C58.7149 184.444 58.2864 183.695 58.0721 183.481C57.6435 183.16 57.5363 183.695 57.7506 185.193C57.9649 188.618 58.5006 191.186 58.8221 189.688ZM59.1435 183.481C59.3578 183.053 59.2507 182.518 58.7149 181.341C56.4649 176.847 56.1434 173.85 58.5006 172.673C58.7149 172.566 58.9293 172.566 59.1435 172.459C59.8936 172.031 59.572 171.282 58.5006 171.603C55.3934 172.459 54.7505 175.348 57.4291 180.806C58.7149 183.481 58.9293 183.909 59.1435 183.481ZM59.8935 179.843C59.8935 179.736 59.5721 179.308 59.2507 178.452C58.3935 176.205 58.3935 175.241 59.3578 174.599C59.6792 174.385 60.0006 174.385 60.0006 174.171C60.1078 173.85 60.1078 173.315 59.8935 173.101C58.5006 173.101 57.8578 173.957 57.6435 174.706C57.4292 177.489 58.6077 179.415 59.572 181.234C59.6792 180.913 59.7864 180.271 59.8935 179.843ZM60.7507 178.024C61.5007 176.526 60.7507 174.599 59.7864 175.241C59.1435 175.669 59.1435 176.098 59.4649 177.382C60.0006 178.88 60.215 178.987 60.7507 178.024ZM63.4293 173.85C63.5365 173.529 63.2149 172.994 62.7864 171.71C62.3578 170.319 62.5722 169.356 63.4293 169.035C64.7151 168.714 65.1436 170.854 65.3579 171.71C65.465 172.352 65.8936 172.566 66.3222 172.138C66.4293 172.031 66.4293 171.924 66.3222 171.175C65.465 167.965 64.3936 166.895 62.6792 167.751C61.0721 168.5 61.2864 170.212 62.465 173.636C62.5722 174.064 62.6792 174.492 62.7864 174.492C63.1078 174.385 63.3222 174.171 63.4293 173.85ZM64.715 172.994C65.1436 172.566 65.0365 172.78 64.6079 171.389C64.0722 169.891 63.8578 169.57 63.3221 170.105C63.0007 170.426 63.1079 170.747 63.5365 172.031C63.965 173.529 64.0722 173.529 64.715 172.994ZM130.716 167.751C133.181 166.039 132.216 162.828 128.895 161.758C128.466 161.651 128.038 161.437 127.93 161.437C126.43 160.688 125.252 160.474 125.252 161.009C125.252 161.33 125.68 161.544 127.181 162.186C129.323 163.256 129.859 164.434 128.788 166.039C127.931 167.109 129.43 168.286 130.716 167.751ZM133.073 163.899C133.288 163.042 133.609 162.186 133.823 161.758C134.038 160.902 133.716 161.116 133.181 161.223C131.788 161.972 130.823 161.544 131.466 162.507C132.216 163.898 132.752 164.862 133.073 163.899ZM132.859 160.795C134.573 159.725 135.002 157.05 133.395 155.766C132.966 155.445 132.323 155.017 131.573 154.803C129.966 154.268 127.609 154.054 126.752 154.375C126.538 154.589 126.538 154.91 126.752 155.017C126.966 155.124 127.395 155.124 128.038 155.231C134.145 156.301 131.681 160.795 127.502 159.832C126.109 159.511 125.466 159.725 126.002 160.046C126.645 160.474 128.038 160.902 129.431 161.223C130.502 161.223 131.895 161.33 132.859 160.795ZM124.609 160.367C126.538 155.98 127.609 144.423 116.466 136.183L116.787 138.537C123.323 144.316 124.93 151.699 123.538 158.441L124.609 160.367ZM134.466 152.449C133.823 152.877 133.181 153.412 132.323 153.733C131.788 153.947 131.788 154.054 132.538 154.482C132.859 154.696 133.502 155.017 133.716 155.231C134.145 155.659 134.573 155.766 134.681 155.659C134.681 155.017 134.895 152.877 134.466 152.449ZM131.145 153.305C133.395 152.556 134.573 151.485 134.359 149.666C133.931 146.991 131.788 146.456 127.609 147.526C125.573 148.061 125.466 149.024 127.288 148.489C129.645 147.847 131.573 148.81 131.359 150.522C131.252 152.021 129.966 152.984 127.823 152.984C126.645 152.984 126.323 153.091 126.538 153.519C126.645 153.733 130.288 153.626 131.145 153.305ZM127.502 146.884C131.145 145.6 132.859 143.674 132.002 141.427C131.038 138.858 127.823 138.751 124.609 141.213C123.109 142.283 123.323 142.711 124.823 142.176C126.752 141.32 127.93 141.213 128.68 141.855C130.073 143.139 129.109 145.279 126.966 146.135C125.895 146.563 125.573 146.777 125.573 147.098C125.68 147.633 125.788 147.526 127.502 146.884ZM133.716 146.884C133.823 146.135 132.966 143.46 132.538 144.102C132.431 144.316 132.109 145.065 131.681 145.386C130.395 146.563 130.609 146.135 131.895 146.456C132.645 146.67 133.609 147.098 133.716 146.884ZM123.966 141.213C127.716 139.072 129.109 135.969 127.181 133.936C125.466 132.117 122.573 133.187 119.895 136.504C118.716 138.002 119.573 137.895 121.288 136.397C123.216 134.685 125.68 135.541 125.68 137.681C125.68 138.644 124.395 140.143 123.216 140.785C122.787 140.999 122.788 141.32 122.895 141.534C122.895 141.748 123.216 141.641 123.966 141.213ZM130.502 138.965C130.288 138.43 128.895 135.862 128.573 135.969C128.252 136.611 128.252 137.467 127.823 138.109C127.288 139.179 127.395 138.965 129.002 138.965C130.288 138.965 130.395 139.072 130.502 138.965ZM119.573 136.076C122.68 132.866 123.002 129.014 120.002 128.158C118.395 127.622 115.823 128.8 115.823 130.084C115.823 130.833 115.93 130.94 116.573 130.726C119.359 129.656 121.502 132.331 119.037 135.434C118.395 136.29 118.287 136.504 118.502 136.718C118.716 136.932 118.823 136.825 119.573 136.076ZM153.217 108.682V21.5767H134.895L120.323 44.5836V50.255C120.323 50.4691 120.645 50.576 120.859 50.362C121.716 49.72 121.395 50.362 120.43 51.8602C119.466 53.3583 119.787 54.5354 120.859 56.1405C123.109 59.4578 124.287 65.5573 123.323 68.7676C123.002 69.9447 122.895 70.4797 123.109 71.1218C123.323 71.8708 123.538 72.2988 124.288 72.8339C124.93 73.2619 130.502 75.5091 139.395 81.1806V40.5172L144.967 35.0598L150.859 40.7312L151.074 108.361L153.217 108.682ZM150.002 41.0522L145.074 36.4509L140.145 41.0522C140.145 62.882 140.252 107.719 140.252 107.719L145.074 108.04C145.074 108.04 145.395 106.97 144.967 104.402C144.324 100.442 144.324 95.6268 145.395 88.2432C146.038 83.7488 145.395 79.7895 144.324 75.7231C143.467 72.9409 143.359 70.4797 143.574 68.0185C143.895 64.0592 144.966 61.1699 145.074 55.4984C145.181 52.2882 144.966 49.0779 145.074 45.1186C145.074 44.5836 145.395 44.6906 145.395 45.2256C145.502 48.8639 145.716 52.1812 145.716 55.7125C145.609 60.3138 144.538 64.9153 144.431 69.1956C144.324 72.0849 144.324 73.0479 145.502 76.5792C147.431 82.1437 146.145 90.5974 146.145 90.8114C145.288 96.2688 144.752 103.224 147.431 108.468L150.109 108.682L150.002 41.0522ZM115.823 82.2507C117.323 81.6086 117.537 80.4316 116.787 77.5423C116.68 77.0073 116.466 76.4722 116.466 76.1512C116.252 75.4021 115.93 75.4021 115.609 75.9372C115.395 76.2582 115.609 76.3652 115.93 77.9703C116.466 80.3245 116.144 81.1806 115.287 81.1806C114.537 81.1806 113.894 80.5385 113.68 78.9334C113.573 78.3984 113.466 78.0773 113.359 77.8633C113.145 77.5423 112.93 77.5423 112.716 77.9703C112.502 78.5054 112.93 80.5385 113.573 81.6086C114.323 82.5717 114.859 82.7857 115.823 82.2507ZM115.502 80.1105C115.823 79.4684 115.394 78.0773 115.18 77.1143C114.966 76.5792 114.752 76.4722 114.43 76.5792C113.895 76.6862 113.894 77.3283 114.109 78.1843C114.537 80.1105 114.752 80.3245 115.502 80.1105ZM119.895 76.6863C121.609 75.7232 121.716 74.118 120.645 71.0147C120.216 69.7306 119.573 68.8745 119.252 68.8745C119.145 69.6236 119.037 70.0517 119.145 70.3727C120.109 71.8708 120.859 74.3321 119.466 75.6162C118.609 76.3652 119.145 76.9003 119.895 76.6863ZM65.1436 75.5091C69.108 74.7601 72.6438 68.3395 74.7867 62.668C76.8224 56.9966 78.9653 50.6831 79.2867 45.4396C79.2867 45.4396 77.7867 45.5466 77.5724 45.8676C77.3581 46.1887 77.3581 46.8308 77.1438 47.7938C76.0724 52.6092 75.3223 56.2475 73.5008 60.7419C72.2151 63.8452 70.9294 67.3765 67.5008 72.1919C66.4293 73.476 65.1436 74.3321 63.5365 74.5461C63.1079 74.6531 62.4649 74.546 62.2506 74.6531C61.9292 74.8671 62.2507 75.4021 63.0007 75.5091C64.0722 75.7231 64.5008 75.6161 65.1436 75.5091ZM119.252 74.76C119.895 74.118 119.895 73.3689 119.252 71.7638C119.037 71.3358 118.93 71.0148 118.716 71.1218C118.287 71.2288 117.645 72.5129 117.966 73.583C118.502 74.9741 118.716 75.2951 119.252 74.76ZM63.7507 73.797C64.9293 73.69 66.4293 72.8339 67.3936 71.2288C73.8223 61.1699 74.8938 55.4985 76.9296 45.9747C76.9296 45.9747 75.4296 45.9747 75.2153 46.1887C74.6795 50.041 73.3937 53.8933 72.4294 57.2106C70.8222 62.6681 66.3221 71.4428 63.8578 71.8709C62.5721 72.0849 61.0722 70.9078 61.2864 69.7307C61.3936 68.9816 61.5007 68.7676 61.9293 68.5535C62.7864 68.2325 63.3222 68.8746 62.3579 69.1956C61.2864 70.1587 63.2149 71.5498 64.3935 70.5867C66.4293 68.8746 63.4293 65.5573 60.965 67.0554C58.2863 68.7676 58.9292 71.6568 60.6435 73.0479C61.6078 73.797 62.5721 73.904 63.7507 73.797ZM83.0368 69.8377C84.7511 68.1255 85.9296 65.8783 86.894 63.0961C88.9297 56.7826 90.5369 49.613 91.0726 43.9415C91.0726 43.9415 89.6798 43.8345 89.3583 44.0485C88.8226 50.148 86.3583 62.7751 82.2868 69.1956C81.4296 70.6938 81.751 71.1218 83.0368 69.8377ZM120.216 56.6756C120.109 56.5686 120.109 56.6756 120.002 56.6756C119.787 56.7826 119.895 57.6386 120.43 58.9227C121.823 61.1699 121.93 65.4503 121.823 67.0554C121.823 67.5905 121.716 67.8045 121.93 68.2325C122.038 68.6606 122.359 69.1956 122.787 68.3395C123.216 65.1292 122.895 61.812 121.716 59.1368C121.18 58.1737 120.752 57.2106 120.216 56.6756ZM121.288 66.0923C121.502 65.2363 121.073 61.812 120.537 60.6349C120.323 60.0999 119.895 60.0999 120.002 60.6349C120.002 61.812 119.895 64.0592 120.002 64.7012C120.537 66.0924 120.966 67.0554 121.288 66.0923ZM118.18 52.2882H117.537C117.537 54.5354 115.609 55.1774 114.859 52.5022L114.323 52.6092C115.073 56.4616 118.502 54.6424 118.18 52.2882ZM114.216 54.0003C113.894 53.0373 114.002 52.6092 113.144 53.1443C112.502 53.4653 112.073 53.8933 113.037 54.3214C113.894 54.6424 114.43 54.6424 114.216 54.0003ZM119.145 53.4653C119.466 52.9303 119.359 52.3952 118.93 52.3952C118.609 52.3952 118.502 52.6092 118.395 53.1443C118.395 54.1074 118.716 54.3214 119.145 53.4653ZM119.466 49.72C119.68 49.613 119.68 49.292 119.573 48.8639C118.502 47.3658 115.93 47.7938 114.966 48.1149C113.895 48.4359 113.573 48.3288 112.823 48.0078C112.18 47.9008 112.073 48.0079 111.966 48.3289C111.859 48.5429 111.859 49.0779 111.752 49.934C111.752 50.6831 111.752 51.0041 111.966 50.7901C114.323 48.5429 116.037 48.0078 119.466 49.72ZM112.287 51.7531C112.287 52.0741 112.502 51.8601 113.144 51.4321C115.502 50.041 116.895 50.255 118.93 50.8971C119.359 51.0041 119.68 50.576 119.145 50.148C116.787 48.2218 113.787 49.5059 112.287 51.7531ZM120.859 42.6574L133.716 21.3626H62.3579L74.4652 43.9415C84.2154 41.5873 100.501 38.591 120.859 42.6574Z" fill="black"/>
<path d="M57.536 209.377C59.036 207.13 66.5361 211.196 66.9647 212.801C71.3576 209.27 76.8221 209.056 81.1079 213.444C85.6079 208.521 90.3223 208.842 95.2509 211.731C94.7152 210.661 101.573 205.739 105.751 208.842L117.108 229.174L44.5714 229.388C48.8572 222.86 52.6073 215.049 57.536 209.377ZM25.821 103.438C25.3924 102.368 23.7853 91.0253 27.8568 90.8113C53.5716 106.756 54.1073 135.541 53.5716 135.755C53.143 135.648 61.8218 144.316 62.3575 145.172C64.179 147.74 45.9644 172.566 45.2143 171.603L39.3214 168.179L39.4285 159.511L39.5356 141.962L25.2853 140.677L25.821 136.825C30.6425 137.253 35.4642 138.109 39.8571 137.039C42.75 131.689 41.6785 123.663 38.1427 120.453C36.3212 119.276 34.4998 119.704 32.6783 119.918C25.1782 118.848 29.1425 106.007 25.821 103.438ZM153.216 109.217V112.427C148.18 113.497 139.287 109.217 136.609 116.172C136.93 123.663 138.645 126.98 139.716 129.228C140.573 131.261 146.68 128.906 148.823 130.94C155.038 138.537 153.538 148.703 153.538 157.906L150.859 159.297C132.43 148.382 118.18 114.246 116.251 104.508C116.144 98.302 133.18 78.2913 133.18 78.2913L139.395 82.0366C139.502 82.1436 139.287 108.254 139.287 108.147C144.323 108.468 149.038 108.896 153.216 109.217ZM116.573 85.3539C95.0367 123.342 103.823 151.378 119.68 175.562C119.68 175.562 118.287 175.883 118.18 175.776C113.894 171.496 108.537 173.422 104.251 174.385C91.0723 174.599 96.1081 170.533 77.3578 163.898C72.8577 164.326 65.8932 166.467 63.2146 164.755C81.4292 130.833 78.7506 109.217 59.786 73.6899C61.3932 74.1179 61.6074 75.6161 62.786 75.9371C66.6432 77.4352 72.0005 76.9001 75.2149 75.509C80.3578 73.1548 85.715 79.4684 101.358 86.317C102.644 86.959 104.251 85.8889 105.644 85.6749C108.537 85.1398 111.001 83.8557 113.144 84.6048C113.894 84.7118 116.573 85.3539 116.573 85.3539ZM73.072 40.9451C72.1077 39.233 62.6789 21.0415 62.6789 21.0415L133.287 21.4696L122.68 39.019C121.716 39.9821 116.68 42.6573 111.644 36.6648C111.537 37.5209 104.144 42.8713 97.7153 36.4508C93.8581 39.982 89.8937 42.0152 83.465 38.0559C83.3578 39.126 78.3221 44.0484 73.072 40.9451Z" fill="white"/>
<path d="M80.7866 213.015C73.9293 206.595 66.8577 212.373 66.9649 212.801C64.3934 210.126 62.0362 208.735 57.8576 208.949L58.0719 207.879C68.6793 209.805 85.0724 210.34 104.144 206.381L105.108 208.414C99.9655 206.595 97.394 209.056 95.144 211.945C86.8939 206.702 84.8581 211.196 80.7866 213.015ZM96.7512 137.788L101.573 137.681C102.537 151.913 114.216 173.636 114.537 173.636C113.68 172.459 105.966 173.422 105.966 173.529C101.787 162.079 97.0726 150.629 96.7512 137.788ZM68.572 171.496C68.6792 171.496 67.3935 167.43 66.1078 165.718C71.1436 156.943 75.3222 147.954 77.4651 137.788H80.8937C79.9294 151.699 68.8935 172.887 68.572 171.496ZM130.823 169.677C138.43 155.766 137.145 135.755 115.502 124.733C115.502 124.733 116.037 110.073 117.644 110.073C117.966 110.18 127.395 109.966 127.395 109.966C129.859 103.866 133.823 96.4828 139.395 91.4534L139.502 107.826C135.43 108.254 132.859 109.538 131.68 112.748L126.002 114.032C126.43 130.512 132.538 145.707 150.752 159.404C146.359 163.149 131.466 170.854 131.573 170.747L130.823 169.677ZM39.5358 159.297L39.7501 142.283C42.5358 141.641 44.6788 142.497 46.9288 137.467C46.9288 137.467 50.786 139.286 52.0717 139.928C48.4288 146.456 45.3216 153.304 39.5358 159.297ZM77.6794 111.999C76.1793 94.9847 64.6078 75.7231 64.5006 76.1511C65.8935 76.3651 68.2506 77.0071 69.5364 76.4721C71.1435 76.6861 72.5365 76.5791 72.6436 76.3651C72.4293 74.5459 81.7509 94.3426 81.9651 111.892C81.7509 112.106 78.0008 112.106 77.6794 111.999ZM98.0369 112.213C99.3226 104.401 102.537 89.9552 110.144 78.3983C111.001 80.4314 111.751 82.5716 112.93 84.4978C107.251 92.9515 103.716 102.475 101.573 112.32L98.0369 112.213ZM45.2146 107.933C41.7859 100.763 27.3213 89.5272 27.9641 90.7043C33.9642 85.2468 40.6072 81.8225 47.2502 78.3983C47.2502 78.3983 48.4288 79.5753 48.2145 79.7894C44.143 86.3169 42.1073 100.121 46.0716 108.04C49.9288 116.493 56.679 121.523 63.5363 125.375C63.0006 130.619 62.7863 134.471 61.5005 139.714C61.5005 139.714 57.2147 137.467 53.5718 135.969C53.1432 125.91 51.1075 117.028 45.2146 107.933ZM83.5723 37.8418C88.7153 40.9451 93.2154 40.6241 97.7155 36.3438C103.287 41.4802 109.287 39.0189 111.859 36.7717C114.216 39.447 117.323 40.9451 121.716 40.0891L120.644 42.4433C106.394 39.554 90.8582 40.7311 74.6794 43.4063C74.6794 43.4063 73.6079 41.3732 73.715 41.3732C74.8936 41.2662 79.5008 43.1923 83.5723 37.8418Z" fill="black"/>
<path d="M61.6078 20.5064L74.251 44.1553C74.251 44.1553 74.5724 44.0484 74.7867 44.0484C92.2513 40.6241 106.073 40.089 120.859 42.7642L134.038 20.7204C110.037 20.3993 61.6078 20.5064 61.6078 20.5064ZM63.0008 21.4695L132.966 21.5765L129.002 28.104C126.645 27.3549 125.359 28.425 125.038 30.7792C125.038 30.7792 124.716 30.6723 124.18 30.5653C120.752 30.1372 120.323 34.7385 123.538 35.3806C124.395 35.4876 124.502 35.3806 124.502 35.3806C121.609 37.8418 120.002 36.1297 118.609 35.3806C118.609 35.7016 116.037 37.6278 113.68 35.2736C117.109 35.5946 117.645 32.1703 116.037 30.8862C115.716 30.5652 115.395 30.2442 115.395 30.2442C116.252 29.4951 116.359 28.6391 115.823 27.462C114.752 25.3218 111.537 25.4287 111.002 27.7829C110.787 28.746 110.787 28.853 110.787 28.853C108.109 29.067 107.573 31.5283 108.537 32.9194C109.073 33.6685 110.144 33.8825 111.216 33.7755C109.823 35.8086 106.609 35.0596 105.109 33.4545C102.859 36.1297 100.18 35.8087 98.8943 34.4176C99.7514 34.4176 100.394 34.4175 101.144 33.6685C102.537 32.3844 101.894 30.1372 99.8586 29.4952C99.43 29.3882 99.2156 29.3881 99.2156 29.3881C99.2156 29.3881 99.2157 29.2811 99.3229 28.5321C99.8586 24.5727 93.8585 24.8937 94.5014 28.853C94.6085 29.2811 94.7156 29.6022 94.7156 29.6022C94.7156 29.6022 94.0727 29.6021 93.7513 29.7091C90.4298 31.2073 92.6799 35.4876 95.2513 34.4176C95.4656 34.3105 96.1085 33.9895 96.2157 33.9895C93.1085 37.9488 90.4299 35.1666 89.6799 34.7386C87.537 37.9488 83.894 35.7017 83.7869 35.4876C84.0012 35.5947 84.7512 35.3806 85.3941 35.0596C87.4298 33.9895 86.894 31.1003 85.2868 30.5653C84.7511 30.3512 84.2154 30.3511 83.4654 30.4581C83.4654 30.4581 83.4654 29.7092 83.4654 29.4952C82.394 25.6429 77.6795 27.569 78.8581 30.7792C78.9653 31.1003 79.2867 31.3143 79.2867 31.3143C79.2867 31.3143 78.6438 31.7423 78.3224 31.9563C76.0724 33.9895 78.3224 37.4138 81.001 36.0227C81.3225 35.8087 81.644 35.4876 81.7511 35.4876C80.4654 37.7348 78.6439 38.5909 75.9653 36.6647C74.3581 39.3399 71.5723 38.1629 70.8223 36.8788C73.3937 37.0928 75.0009 32.2774 70.1794 32.0633C69.7508 30.7792 69.858 28.7461 66.7508 29.0671L63.0008 21.4695ZM97.18 29.8161C97.7157 29.8161 98.1442 30.2442 98.1442 30.8862C98.1442 31.4213 97.7157 31.9563 97.18 31.9563C96.6443 31.9563 96.2157 31.5283 96.2157 30.8862C96.2157 30.3512 96.6443 29.8161 97.18 29.8161ZM112.823 29.9231C113.359 29.9231 113.895 30.4581 113.895 30.9932C113.895 31.6352 113.466 32.0633 112.823 32.0633C112.287 32.0633 111.752 31.6352 111.752 30.9932C111.859 30.4581 112.287 29.9231 112.823 29.9231ZM82.1797 31.1003C82.7154 31.1003 83.2512 31.5283 83.2512 32.1703C83.2512 32.7054 82.8226 33.2404 82.1797 33.2404C81.644 33.2404 81.1083 32.8124 81.1083 32.1703C81.2154 31.6353 81.644 31.1003 82.1797 31.1003ZM125.68 32.2774C125.788 32.2774 126.002 32.2774 126.109 32.3844L125.252 33.9895C124.395 33.2404 124.823 32.2774 125.68 32.2774ZM69.108 32.9194C70.7151 33.0264 70.1795 34.2035 69.9652 34.5245L69.108 32.9194ZM97.0727 33.6685C103.073 40.6241 108.43 38.4839 111.966 33.9895C113.466 37.9488 116.895 40.6241 122.68 37.9488C122.359 38.5909 121.502 39.661 121.502 39.661C116.359 41.0521 113.787 38.5909 111.859 36.3437C106.609 40.7311 101.787 39.661 97.7157 35.8087C94.2871 40.196 88.6084 41.1591 83.4654 37.5208C81.1082 41.0521 77.6796 42.4432 73.3938 40.731C73.3938 40.731 72.5366 39.34 72.4294 39.233C73.0723 39.768 80.894 43.0852 82.8226 35.1666C85.5012 39.768 94.5013 40.089 97.0727 33.6685ZM97.7157 36.5577C104.466 42.9783 111.537 37.4138 111.752 36.9857C111.859 37.3068 115.716 42.0152 121.288 40.196L120.43 41.8011C105.644 39.4469 91.5013 39.875 74.7867 43.0853L73.8224 41.4801C78.1082 42.7642 81.8582 41.1591 83.5725 38.2699C84.5368 38.9119 92.1442 43.2993 97.7157 36.5577ZM79.9296 72.2987C79.7153 72.2987 79.501 72.5127 79.1796 72.8337C78.4296 73.5828 78.2153 73.6898 77.4653 73.7968C76.9296 73.9038 75.6438 74.5459 74.8938 75.2949C74.6795 75.5089 74.3581 75.616 73.8224 75.723C73.3938 75.83 72.8581 75.937 72.6438 75.937C72.3224 75.937 72.1081 76.044 72.001 76.151C71.5724 76.3651 70.9294 76.472 70.2865 76.258C69.6437 76.044 69.5365 76.044 68.6794 76.365C67.6079 76.686 66.858 76.686 66.3222 76.365C65.7865 76.044 64.9293 75.937 64.3936 76.044C63.5364 76.258 61.5007 75.0809 61.5007 74.3319C61.5007 74.1179 60.3221 73.2618 60.0007 73.2618C58.9292 73.1548 49.5005 76.7931 49.6077 77.1141C61.1793 91.4533 70.8223 113.39 63.5365 140.249L62.2507 139.607C63.3221 134.685 63.7508 129.87 64.0722 124.84C42.429 115.423 40.6075 93.4864 48.9648 79.5753L47.5719 78.0772C42.4289 80.8594 37.2859 82.3575 24.75 93.0584C24.75 109.11 24.8572 125.054 24.8572 141.105C29.4645 141.64 34.3931 142.069 39.4289 142.497C39.4289 142.497 39.3217 157.906 39.2145 164.005C39.1074 169.142 39.3218 168.821 39.3218 168.821L55.7149 177.488C54.5363 172.887 57.4292 171.068 59.7864 171.282C58.715 166.895 61.3936 164.861 64.2865 165.396C66.3222 165.824 66.9651 166.895 68.1436 170.64C68.3579 171.282 68.5723 172.031 68.5723 172.031H69.7508C71.1437 168.928 72.108 164.968 75.5367 164.433C79.9296 163.791 81.644 166.788 81.644 169.891C85.9298 166.039 91.0727 169.035 90.7513 174.706C92.8942 173.315 96.5371 172.031 98.8943 177.488C99.7514 177.274 100.18 176.311 101.466 175.99C101.894 175.883 102.966 175.348 102.966 175.348V175.134C102.966 175.134 103.93 174.813 105.216 174.599C106.287 175.027 105.966 175.027 106.609 174.278C107.252 173.957 108.323 173.743 109.18 173.743C110.037 173.85 110.466 173.85 110.894 173.636C111.644 173.315 112.395 173.208 112.93 173.743C113.252 174.171 113.787 173.957 114.323 173.957C115.395 173.957 116.787 174.385 117.216 175.348C117.859 175.99 119.252 176.632 119.252 176.632L120.43 176.418L120.537 175.99L129.859 172.459C110.895 151.592 111.43 123.77 115.93 109.752L117.645 110.608C116.787 114.781 115.716 119.062 115.823 125.268C132.859 132.973 141.324 152.769 131.038 170.105L132.109 171.496C136.395 169.677 147.217 163.577 150.967 160.26L151.717 160.367C151.717 160.367 153.967 158.869 154.931 158.12L155.038 112.213L154.288 112.427L154.181 109.752L140.145 108.575C140.359 108.468 140.466 108.361 140.466 108.147L140.359 82.6786C139.824 81.8225 128.038 74.8669 123.645 73.2618C123.43 73.2618 123.538 73.5828 123.645 74.3319C123.859 76.7931 122.145 79.0402 120.216 79.0402C119.573 79.0402 119.359 79.3613 119.466 80.7524C119.466 82.7856 118.823 84.1767 116.68 84.9257C114.216 85.8888 112.502 84.4977 111.109 79.2543C110.787 77.8631 110.037 78.1842 109.287 80.1103C108.966 81.0734 107.787 83.3206 107.144 84.4977C106.609 85.4608 105.859 85.7818 104.787 86.3169C103.93 86.7449 102.109 86.6379 101.037 86.1029C99.1086 85.1398 98.3586 83.9627 97.8228 80.9664C97.7157 80.5384 97.5014 80.6454 96.8585 81.0734C93.4299 83.6416 88.6084 80.9664 88.7155 76.4721C88.7155 75.188 88.7155 75.0809 87.8583 75.723C85.5011 77.6491 82.394 76.686 81.1083 73.6898C80.3583 72.6197 80.251 72.2987 79.9296 72.2987ZM60.4293 73.9038C60.6436 73.9038 61.1793 74.5459 61.3936 74.8669C62.0365 75.616 63.0008 76.044 63.9651 76.579C64.0722 76.472 75.2152 91.6673 77.1438 112.534H82.394C81.4297 92.2024 75.8581 82.4646 73.2867 76.151L75.1081 75.509C79.2867 83.6416 84.4297 100.014 84.2154 114.46H75.6438C74.4652 100.014 68.8937 85.9958 61.0721 75.2949C60.6435 74.6529 60.215 74.0108 60.4293 73.9038C60.3221 73.9038 60.3221 73.9038 60.4293 73.9038ZM57.1078 76.044L57.9649 78.8263C57.9649 78.8263 58.0721 78.1842 58.2864 77.9701C60.0007 76.472 61.6079 78.5052 60.8579 81.1804C60.6436 82.0365 60.3222 83.7487 60.3222 83.7487C60.3222 83.7487 58.6078 82.8926 57.7507 82.5716C55.3935 81.5015 54.5363 79.5753 56.3577 79.3613C56.6792 79.3613 57.322 79.2543 57.322 79.2543C56.572 78.6122 54.8578 77.3281 54.8578 77.3281L57.1078 76.044ZM65.0366 76.365C65.7866 76.793 67.6079 77.2211 68.6794 76.7931C69.5365 76.472 70.1795 76.6861 71.0366 76.6861C71.5724 76.6861 72.5367 76.4721 72.5367 76.4721C77.6796 87.28 81.1082 100.121 81.7511 111.892H77.7867C76.2867 99.3719 71.4651 86.7449 65.465 77.3281C65.1436 77.0071 64.8223 76.365 65.0366 76.365ZM81.644 76.579C83.4655 76.686 85.2868 79.1472 85.8225 80.6454C86.3583 82.0365 86.4655 81.9295 87.2155 81.7155C88.9298 81.1804 90.7512 82.9996 88.394 83.3206C86.144 83.6416 87.4298 88.136 87.2155 88.4571C86.3583 88.5641 84.644 84.9258 84.644 83.7487C84.7511 81.0734 82.1797 78.7193 80.6797 79.8964C79.9297 80.4314 80.0367 80.8594 79.8225 80.6454C79.0724 80.0033 78.9653 78.3982 79.8225 77.4351C80.3582 76.793 81.0011 76.579 81.644 76.579ZM127.823 77.4351C127.823 77.4351 127.931 80.9664 127.823 81.8225C127.609 84.1767 124.502 84.4977 124.395 82.5716C123.859 83.3206 123.538 84.2837 123.323 85.1398L121.18 83.6417C122.037 82.9996 122.788 82.4645 123.43 81.7155C121.823 81.8225 120.859 80.4314 122.038 79.2543C123.109 77.8631 126.431 77.6491 127.823 77.4351ZM47.2504 78.6122L48.2147 79.6823C39.536 95.0916 42.6433 114.888 63.4294 125.268C63.3222 129.976 62.6793 134.792 61.6078 139.286L53.8935 135.541C53.8935 118.099 44.1432 101.405 28.5001 90.4902C34.1787 85.7818 40.5003 81.8225 47.2504 78.6122ZM110.252 78.7192C110.573 80.7524 112.502 84.4977 112.716 84.2837C112.716 84.1767 104.787 94.5565 101.251 111.892H98.2514C100.287 100.335 104.144 89.4201 110.252 78.7192ZM134.788 79.2543L136.395 80.2174C128.145 87.173 122.788 95.9477 118.716 105.471L116.68 104.508C122.788 90.7043 128.895 84.4977 134.788 79.2543ZM136.824 80.7524C137.574 80.7524 138.109 81.3944 138.645 81.7155C139.395 82.1435 139.181 82.3575 137.788 83.5346C136.073 84.8187 135.859 84.8188 135.966 82.8926C135.966 81.6085 136.288 80.7524 136.824 80.7524ZM135.002 82.6786C135.538 82.5716 135.216 84.8188 135.109 85.5678C134.895 86.3169 132.752 88.243 131.895 88.9921C131.573 89.2061 131.466 89.0991 131.359 88.7781C131.359 88.136 131.466 87.387 131.466 86.6379C131.466 86.4239 131.466 86.1028 131.681 85.9958C132.859 84.6047 134.359 82.7856 135.002 82.6786ZM139.181 83.3206C139.395 83.4276 139.288 85.9958 139.181 86.2098C138.538 86.4239 136.824 86.1028 136.395 85.8888C136.288 85.5678 138.859 83.3206 139.181 83.3206ZM62.0364 84.1767L62.6793 86.7449C62.6793 86.7449 62.8937 86.4239 62.8937 86.3169C64.0722 84.4977 65.5722 85.5678 65.465 88.136C65.465 88.9921 64.7151 92.2024 64.7151 92.2024C64.7151 92.2024 60.215 90.0622 59.8935 89.0991C59.5721 88.136 60.0007 87.3869 60.8579 87.2799C61.1793 87.2799 61.5008 87.1729 61.8222 87.2799L59.8935 85.2468L62.0364 84.1767ZM113.252 84.4977L115.287 85.2468C111.002 92.2024 106.716 99.0509 103.501 114.781H95.0371C96.2157 105.257 98.6799 95.8407 102.966 86.6379C103.609 86.5309 105.001 86.2099 105.537 85.7818C105.537 85.7818 98.4657 102.047 97.7157 112.427L101.787 112.534C103.93 102.368 108.109 91.8813 113.252 84.4977ZM97.18 84.7118C98.3586 84.7118 99.2157 85.4608 99.1085 86.9589C99.1085 88.243 99.0014 88.4571 98.0371 87.922C96.8585 87.28 95.8942 87.1729 94.8227 88.029C94.1799 88.457 93.6442 88.7781 93.6442 88.7781C93.6442 88.7781 94.1798 86.5309 94.9298 85.7818C95.6799 85.1398 96.43 84.8188 97.18 84.7118ZM90.4298 85.5678C91.7156 85.5678 92.8941 86.8519 92.787 88.136C92.6798 88.8851 92.4655 89.3131 92.2512 89.9552C92.2512 89.9552 92.8941 89.7412 93.2156 89.5272C94.7156 88.7781 96.3228 90.1692 96.3228 91.6673C96.4299 92.7374 95.2514 93.9145 93.9657 93.9145C93.5371 93.9145 93.0013 93.8075 92.5727 93.3795C92.8942 95.3056 93.0013 96.1617 91.6084 97.1248C90.4298 97.8738 88.0727 97.0178 88.1798 94.8776L88.2869 93.5935L87.1084 93.7005C83.894 93.8075 83.7869 89.8481 86.4655 89.2061C87.537 88.9921 88.6084 89.8482 88.6084 89.8482C88.0727 88.8851 88.0727 87.1729 88.7155 86.4239C89.2513 85.7818 89.8941 85.5678 90.4298 85.5678ZM120.966 85.6748C121.18 87.1729 121.716 88.7781 121.609 90.1692C121.395 91.9883 119.895 93.0584 118.609 91.8813C118.502 91.7743 118.18 91.4533 118.18 91.4533C117.645 92.0954 117.323 94.0215 117.323 94.0215L115.18 92.7374C115.18 92.7374 116.68 91.6673 117.002 91.1323C117.109 90.9183 117.216 90.7042 117.216 90.7042C116.037 91.0253 115.073 89.8482 115.395 88.7781C116.145 87.0659 119.252 86.4239 120.966 85.6748ZM135.859 86.6379C136.609 86.6379 137.895 86.8519 138.645 86.9589C139.395 87.0659 138.966 87.494 137.359 89.0991C135.859 90.5972 135.859 90.4902 134.681 90.3832C132.002 90.3832 131.466 90.3832 133.074 88.671C133.931 87.815 134.681 86.9589 135.216 86.6379C135.324 86.7449 135.538 86.6379 135.859 86.6379ZM130.716 86.9589H130.823C131.038 87.1729 130.931 88.457 130.931 89.0991C130.931 90.2762 130.931 90.2762 130.395 90.9183C129.752 91.7743 129.216 92.5234 128.573 93.3795C128.038 94.0215 128.038 93.9145 127.609 92.4163C127.288 90.9182 127.502 90.4902 129.323 88.35C129.752 87.922 130.395 87.1729 130.716 86.9589ZM139.181 88.136C139.181 88.9921 139.181 89.9552 139.181 90.9183C133.502 96.4827 129.752 102.689 127.181 109.645L125.252 108.682C129.002 100.121 133.823 93.4864 139.181 88.136ZM90.4298 89.7411C89.4655 89.7411 88.7155 90.4902 88.7155 91.4533C88.7155 92.4164 89.4655 93.1654 90.4298 93.1654C91.3941 93.1654 92.1441 92.4164 92.1441 91.4533C92.1441 90.4902 91.3941 89.7411 90.4298 89.7411ZM90.4298 90.2762C91.0727 90.2762 91.6084 90.8113 91.6084 91.4533C91.6084 92.0954 91.0727 92.6304 90.4298 92.6304C89.787 92.6304 89.2513 92.0954 89.2513 91.4533C89.2513 90.8113 89.787 90.2762 90.4298 90.2762ZM90.4298 90.9183C90.1084 90.9183 89.8941 91.1323 89.8941 91.4533C89.8941 91.7743 90.1084 91.9883 90.4298 91.9883C90.7513 91.9883 90.9655 91.7743 90.9655 91.4533C90.9655 91.1323 90.7513 90.9183 90.4298 90.9183ZM27.8572 90.9183C45.429 102.261 53.3578 119.918 53.2506 135.113L52.2863 134.685C51.2148 113.283 39.7503 100.121 27.2144 91.5603L27.8572 90.9183ZM131.681 91.1323C132.323 91.1323 132.966 91.2393 133.609 91.2393C135.109 91.3463 135.216 91.4533 134.252 92.5234C133.502 93.3795 132.431 94.9846 132.002 95.0916C131.681 95.1986 129.109 95.0916 128.466 94.9846C128.252 94.9846 128.573 94.6635 129.752 92.9514C130.716 91.6673 130.823 91.1323 131.681 91.1323ZM139.181 91.7743C139.181 91.7743 139.395 101.512 139.181 107.719C135.216 107.612 132.859 109.11 131.895 111.999L127.716 109.859C130.823 101.833 135.002 96.3757 139.181 91.7743ZM126.752 91.8813C126.966 91.8813 127.073 92.4164 127.181 93.3795C127.502 95.1986 127.395 95.3056 126.752 96.3757C126.109 97.4458 125.038 99.265 124.93 98.6229C124.395 96.8038 124.18 95.7336 124.395 95.3056C125.038 94.1285 125.895 92.7374 126.752 91.8813ZM26.5715 92.0953C40.7147 100.87 51.0005 115.958 51.4291 134.257C51.4291 134.257 48.429 132.866 46.6076 131.796L46.5004 129.977H47.4648L47.7861 132.01L49.929 131.903L49.3933 126.873L45.9647 127.194L45.3219 124.412L46.3933 124.198L46.9291 126.017L49.072 125.482L47.8934 121.095L44.4647 122.058L43.3932 119.062L44.5718 118.634L45.5361 120.453L47.5719 119.704L45.6432 115.209L42.5361 116.707L40.929 113.818L42.1075 113.176L43.0719 114.888L45.0004 113.925L42.6433 109.859L39.6432 111.571L38.1431 109.324L39.1074 108.682L40.0718 109.859L41.7861 108.682L39.2145 105.15L36.4288 107.398L34.2859 104.936L35.2502 104.08L36.6432 105.364L38.2504 103.973L35.1431 100.549L32.4645 103.01L30.4287 101.298L31.3931 100.228L32.6787 101.191L33.9646 99.586L30.643 96.8038L28.0716 99.3719L25.6072 97.7668V96.5897C26.3572 96.9107 27.2143 97.2318 27.9643 97.6598L29.2502 95.7337L25.6072 93.2725L26.5715 92.0953ZM65.8936 92.8444L66.4294 95.9477C66.9651 95.0916 67.3937 94.5566 68.4651 94.8776C69.7509 95.4126 69.7508 97.4458 68.6794 100.442C68.4651 100.977 68.2509 101.512 68.2509 101.512C68.2509 101.512 67.7151 101.298 67.2866 100.977C66.4294 100.442 65.1436 99.8 64.3936 98.7299C63.6436 97.5528 63.6437 95.9477 65.0366 96.0547C65.2508 96.0547 65.7865 96.1617 65.7865 96.1617L63.7507 93.5935L65.8936 92.8444ZM25.7143 93.8075L28.1787 95.4126L27.643 96.3757L25.7143 95.5196V93.8075ZM87.1084 94.5565C87.8584 95.5196 85.2869 98.5159 88.6084 99.693C88.6084 99.693 88.7155 100.335 87.9654 100.763C86.3583 101.94 84.1082 99.8 84.7511 97.5528C85.2868 96.1617 86.5726 94.5565 87.1084 94.5565ZM93.8584 94.6636C93.8584 94.6636 94.8228 95.4126 95.0371 95.6266C96.8586 97.3388 96.8585 99.907 95.2513 100.763C94.1799 101.298 92.8942 100.87 92.4656 100.014C92.2513 99.586 92.5727 99.1579 93.0013 99.2649C93.7513 99.2649 94.3942 97.7668 94.1799 96.1617C94.0727 95.4126 93.8584 94.6636 93.8584 94.6636ZM115.287 95.1986C115.287 95.1986 115.502 97.3388 115.823 98.3018C116.787 100.977 115.609 102.582 113.787 101.726C113.573 101.619 113.037 100.977 113.037 100.977L112.823 104.08L110.252 103.331C110.787 102.475 111.537 101.833 112.18 100.763C112.18 100.763 111.752 100.763 111.43 100.763C109.93 100.763 109.394 99.1579 110.894 97.7668C112.287 96.8037 115.287 95.1986 115.287 95.1986ZM128.788 95.9477C129.752 95.9477 130.716 96.0547 131.359 96.0547C130.716 97.3388 130.073 98.5159 129.216 99.586C129.109 99.693 128.895 99.693 128.68 99.8C127.716 100.014 126.645 99.907 125.466 99.907C125.252 99.907 125.68 99.0509 126.002 98.5159C126.645 97.2318 127.181 96.2687 127.823 95.9477C128.145 95.9477 128.466 95.9477 128.788 95.9477ZM123.538 96.9107C123.752 96.9107 123.859 97.2318 124.073 97.9808C124.502 99.693 124.609 99.693 123.966 101.084C123.645 101.833 123.002 103.01 122.788 103.438C122.145 104.722 122.145 104.722 121.716 103.545C120.966 101.405 120.859 101.619 122.145 99.158C122.895 97.7668 123.323 96.9107 123.538 96.9107ZM30.8573 97.5528L33.1073 99.3719L32.4645 100.014L31.1787 99.0509L29.3573 101.084L32.4645 103.866L35.036 101.298L37.286 103.652L36.6432 104.187L35.3574 102.903L33.4288 104.615L36.3217 108.04L39.2145 105.792L41.0361 108.254L40.286 108.682L39.1074 107.505L37.1789 108.789L39.536 112.106L42.5361 110.394L44.2504 113.176L43.2861 113.604L42.3218 112.106L40.1789 113.39L42.2147 117.349L45.429 115.958L46.7147 118.955L45.7505 119.383L44.8933 117.563L42.7504 118.42L44.2504 122.593L47.5719 121.63L48.3219 124.733L47.3577 125.054L46.8219 123.342L44.7862 123.877L45.6432 128.05L48.9648 127.836L49.3933 131.154H48.3219L48.1076 129.12H45.9647C45.9647 129.87 46.0718 131.261 46.0718 131.261L44.7862 130.619C42.8576 117.884 36.1074 107.184 26.0358 99.8V98.3018L28.5001 99.907C28.1786 100.014 30.5359 97.9809 30.8573 97.5528ZM126.752 100.549C127.288 100.549 127.716 100.549 128.359 100.549C128.573 100.763 128.252 101.405 127.609 102.689C126.645 104.508 126.43 104.615 124.716 105.043C122.573 105.578 122.573 105.685 123.752 103.117C124.18 102.154 124.823 100.977 125.252 100.656C125.68 100.549 126.216 100.549 126.752 100.549ZM25.9287 101.084C36.4289 107.933 43.0718 122.058 43.9289 130.619C43.9289 130.619 43.6076 130.405 43.0719 130.191C42.3219 129.87 42.1075 129.548 41.8932 128.371C39.8574 117.885 33.9645 109.003 26.0358 102.689L25.9287 101.084ZM120.537 102.796C121.073 102.582 121.93 106.542 121.716 106.863L119.145 105.685C119.145 105.685 120.216 102.903 120.537 102.796ZM69.9652 102.903V106.221C69.9652 106.221 70.3937 105.793 70.608 105.578C71.358 105.043 72.5367 105.792 72.6438 106.756C72.751 108.147 72.5367 108.682 71.4652 110.608C71.1438 111.143 70.608 111.892 70.608 111.892C70.608 111.892 69.3223 110.929 67.9294 109.538C66.4294 108.04 66.7508 106.006 68.0365 106.006C68.4651 106.006 68.7865 106.114 69.108 106.221C68.7865 105.257 67.7152 103.331 67.7152 103.331L69.9652 102.903ZM111.002 105.471C111.002 105.471 111.644 106.435 112.502 108.789C113.252 111.036 112.073 112.748 110.573 111.892C110.252 111.785 110.037 111.357 110.037 111.357C109.93 112.427 110.144 114.46 110.144 114.46L107.573 114.032C107.573 114.032 108.966 111.785 109.073 111.25C109.073 111.25 108.966 111.357 108.216 111.357C105.644 111.357 106.18 108.254 109.18 106.649C109.502 106.435 111.002 105.471 111.002 105.471ZM125.573 105.471C126.109 105.471 125.895 106.007 125.252 107.291C124.93 107.933 124.716 108.361 124.716 108.361C124.716 108.361 122.895 107.612 122.038 107.077C123.216 106.114 123.859 105.899 125.573 105.471ZM89.4655 105.9C91.5012 105.9 92.8941 107.933 92.6798 110.715C92.1441 115.53 92.4656 115.316 93.0013 115.744C93.9656 116.6 92.6799 117.135 91.5013 116.279C90.7513 115.744 90.4298 115.102 90.5369 112.427C90.5369 109.324 90.4298 108.575 89.3584 108.789C88.7155 109.003 88.5012 109.538 88.5012 111.571C88.6083 114.46 88.394 115.209 87.3226 116.172C86.144 117.135 84.8583 116.279 85.9298 115.637C86.4655 115.102 86.4654 114.353 86.3583 112.641C86.0368 111.25 85.1797 105.9 89.4655 105.9ZM138.109 108.361C138.645 108.361 139.074 108.361 139.609 108.361C143.467 108.468 153.11 109.324 153.11 109.324L153.217 112.213C152.574 112.106 139.181 111.036 137.145 111.571C138.002 111.892 137.895 116.279 134.145 115.209C130.931 114.032 132.431 109.538 136.609 108.468C137.145 108.361 137.574 108.361 138.109 108.361ZM89.4655 110.073C89.6798 110.073 89.8941 110.929 89.8941 111.999C89.8941 113.069 89.6798 113.925 89.4655 113.925C89.2512 113.925 89.0369 113.069 89.0369 111.999C89.0369 110.929 89.1441 110.073 89.4655 110.073ZM117.43 110.287L125.68 114.46C126.859 130.191 132.216 146.777 150.538 159.404C147.538 161.544 140.145 166.788 131.573 170.426L130.931 169.677C141.002 152.341 133.395 133.294 115.716 124.626C115.823 119.704 116.359 114.995 117.43 110.287ZM135.109 112.213C134.681 112.213 134.359 112.534 134.359 112.962C134.359 113.39 134.681 113.711 135.109 113.711C135.538 113.711 135.859 113.39 135.859 112.962C135.859 112.534 135.538 112.213 135.109 112.213ZM142.609 112.534C143.895 112.534 145.288 112.855 146.574 112.855C148.181 112.748 148.609 112.962 148.717 113.711C148.824 114.353 149.359 114.567 150.002 114.353C151.502 113.818 152.359 116.386 151.181 117.563C150.431 118.313 150.538 118.527 151.181 118.527C152.681 118.527 152.681 120.56 151.074 121.737C150.431 122.165 150.431 122.379 151.074 122.807C152.252 123.342 151.931 124.519 150.538 125.375C149.788 125.91 149.681 126.017 150.324 126.124C151.931 126.552 150.324 128.906 148.502 128.478C147.752 128.264 147.109 128.478 146.359 128.906C144.431 129.655 144.109 129.87 142.074 129.656C140.252 129.334 139.502 128.692 138.966 127.087C137.895 123.877 136.823 120.239 136.716 116.707C136.609 114.567 140.145 112.534 141.859 112.534C142.288 112.534 142.502 112.534 142.609 112.534ZM33.1073 112.962C35.036 112.962 36.5359 114.567 36.5359 116.493C36.5359 118.42 35.036 120.025 33.1073 120.025C31.1787 120.025 29.6788 118.42 29.6788 116.493C29.5716 114.567 31.1787 112.962 33.1073 112.962ZM71.4652 114.032L71.1438 117.028C71.1438 117.028 71.6795 116.6 71.7866 116.493C72.6438 115.744 74.1438 116.6 73.8224 117.777C73.7152 118.848 71.8937 121.951 71.2509 122.593C71.2509 122.593 68.3579 119.49 68.1436 118.848C67.5008 117.456 68.358 116.065 69.6437 116.707C69.858 116.814 70.2865 117.135 70.2865 117.135L69.4295 114.246L71.4652 114.032ZM33.4288 114.139C32.1431 114.032 30.9644 114.674 31.1787 116.065C31.2858 116.493 31.9288 115.851 32.5716 115.423C33.7502 114.888 34.5002 115.316 35.2502 116.279C35.4645 116.6 35.7859 116.814 35.8931 116.707C35.8931 114.995 34.6074 114.139 33.4288 114.139ZM126.323 114.674L127.609 115.316C129.323 137.574 140.359 150.629 152.145 158.441L151.181 158.976C136.716 149.666 126.752 133.08 126.323 114.674ZM128.145 115.637C128.145 115.637 131.252 117.242 132.859 117.992L132.966 120.025H131.895L131.573 118.098L129.323 118.313L130.073 122.914L133.716 122.486L134.252 125.268L133.074 125.482L132.431 123.77L130.395 124.305L131.788 128.799L135.109 127.729L136.181 130.726L135.109 131.154L134.359 129.441L132.216 130.191L133.931 134.578L137.359 133.508L138.752 136.29L137.681 136.718L136.716 135.006L134.681 136.076L137.038 140.142L140.145 138.537L141.538 140.784L140.359 141.533L139.288 140.142L137.681 141.212L140.359 144.851L143.038 142.818L145.074 145.172L144.216 145.921L142.824 144.53L141.216 145.921L144.324 149.452L147.109 147.098L149.038 148.917L148.502 149.559L147.217 148.703L145.502 150.522L148.824 153.411L151.502 150.522L153.752 152.234V153.411L151.717 152.341L150.431 154.375L153.752 156.943V157.906C134.145 146.563 129.109 128.799 128.145 115.637ZM89.2513 115.851C90.1084 115.851 90.9656 116.6 92.3585 118.313C96.3228 123.021 95.2513 130.298 90.1083 134.043C89.3583 134.578 89.037 134.578 88.0727 133.722C82.7154 129.013 82.394 122.807 87.2155 117.349C87.9655 116.386 88.6084 115.851 89.2513 115.851ZM108.43 116.493C109.395 117.991 110.68 119.597 110.787 121.416C110.68 123.235 109.502 123.556 108.216 122.486C108.002 123.449 108.644 125.375 108.644 125.375L106.394 125.161C106.394 125.161 107.252 123.556 107.359 122.593C105.752 123.663 104.573 122.272 104.787 121.095C105.109 119.062 106.716 117.67 108.43 116.493ZM89.2513 117.67C89.037 117.67 88.8227 117.777 88.6084 118.098C87.2155 119.276 86.1441 120.667 85.5012 122.058C84.3226 125.161 85.0726 128.585 87.7512 131.368C89.1441 132.759 89.5726 132.652 91.7155 129.762C93.537 127.408 93.8584 124.305 92.787 121.63C92.2512 120.346 91.2869 119.062 90.1083 118.098C89.7869 117.777 89.5727 117.67 89.2513 117.67ZM133.502 118.206L135.324 119.062C137.574 134.257 144.967 143.46 153.217 149.88V151.271L150.967 149.559L148.288 152.341L146.145 150.522L147.002 149.773L148.181 150.522L149.788 148.703L146.681 145.921L144.002 148.275L141.752 145.921L142.395 145.386L143.895 146.777L145.609 145.172L142.609 141.748L139.931 143.781L138.109 141.319L138.966 140.784L139.931 142.176L141.966 140.891L139.824 137.467L136.716 139.072L135.109 136.183L135.966 135.755L137.038 137.36L138.966 136.397L137.038 132.438L133.823 133.508L132.645 130.405L133.609 130.084L134.359 131.903L136.502 131.154L135.002 126.873L131.681 127.836L130.823 124.626L131.895 124.412L132.431 126.124L134.681 125.696L133.823 121.63L130.502 122.058C130.395 121.309 129.859 119.49 129.859 118.741L130.931 118.634L131.252 120.453L133.502 120.346V118.206ZM89.3584 118.527C90.6441 118.741 92.1442 121.095 92.4656 121.951C93.1085 123.663 93.2156 125.696 92.5727 127.194C92.037 128.478 90.6442 130.726 89.6799 131.368C88.9298 131.796 88.2869 131.475 87.2155 129.977C85.0726 127.087 84.7511 123.663 86.3583 121.202C87.7511 119.597 88.6084 118.527 89.3584 118.527ZM135.966 119.276L136.824 119.704C137.895 128.478 143.038 140.57 153.217 147.74V148.81C145.288 143.139 138.109 133.294 135.966 119.276ZM89.2513 119.918C85.7155 122.593 86.2511 126.766 88.9298 129.656C91.8227 127.729 92.8942 122.486 89.2513 119.918ZM35.2502 120.132C37.286 120.132 38.4646 120.774 39.1074 122.165C40.0717 124.305 40.179 124.733 40.3932 125.91C40.5004 126.552 40.7146 127.515 40.8217 128.05C41.8932 133.936 41.1432 136.183 37.5003 137.039C36.4288 137.36 34.9289 137.36 33.9646 137.146C33.6431 137.039 32.6788 137.039 31.9288 137.039C30.4288 137.039 29.8931 136.825 29.143 136.183C28.8216 135.969 28.6073 135.755 28.2858 135.755C26.5715 135.434 26.0358 133.829 27.3215 132.652C28.0715 132.01 28.1787 131.903 28.0716 131.796C28.0716 131.689 27.7501 131.689 27.3215 131.689C25.5 131.689 25.6072 129.869 27.3215 128.478C28.1787 127.836 28.6072 127.301 27.9643 127.408C26.3572 127.836 25.7143 125.375 27.4286 124.626C28.2858 124.091 29.0359 123.663 28.0716 123.663C27.3216 123.77 26.7859 123.128 27.0001 122.486C27.3216 121.737 28.7144 120.988 29.5715 121.309C30.2144 121.523 30.8574 121.737 31.2859 121.416C32.2502 120.667 32.7859 120.346 33.6431 120.239C34.3931 120.132 34.8217 120.132 35.2502 120.132ZM94.6085 120.56L102.644 120.667V128.799L94.8227 128.692C94.8227 128.692 96.5371 125.054 94.6085 120.56ZM76.0724 120.774L84.0011 120.881C82.7154 123.984 83.1439 127.087 83.6796 128.799L76.0724 128.692V120.774V120.774ZM89.2513 121.844C90.537 122.593 90.9656 126.231 89.1441 127.729C87.3227 125.91 87.6441 122.807 89.2513 121.844ZM69.9652 124.305L72.1081 124.519L71.358 127.515C71.358 127.515 71.6795 127.194 71.7866 127.087C74.4652 125.803 74.6795 128.692 71.8937 131.368C71.2508 131.903 70.2865 132.759 70.2865 132.759C70.2865 132.759 69.5366 131.582 68.8937 130.512C68.2509 129.441 67.7151 128.264 67.8223 127.729C68.0366 126.873 69.0008 126.231 69.7508 126.766C70.0723 126.98 70.5009 127.408 70.5009 127.408L69.9652 124.305ZM107.466 126.552C107.466 126.552 108.323 127.515 108.859 128.05C110.68 130.084 111.002 132.01 110.144 132.652C109.287 132.973 108.859 132.759 108.216 132.224C108.323 133.508 109.394 135.327 109.287 135.327L106.502 135.755C106.502 135.755 107.144 133.187 107.144 132.224C107.144 132.224 106.609 132.652 106.287 132.759C104.466 133.401 103.609 131.368 105.109 129.227C106.394 127.622 107.466 126.552 107.466 126.552ZM145.395 130.298C147.217 130.298 148.717 131.796 148.717 133.722C148.717 135.648 147.217 137.146 145.395 137.146C143.574 137.146 142.074 135.648 142.074 133.722C141.966 131.903 143.574 130.298 145.395 130.298ZM147.002 131.903C146.895 131.903 146.788 132.224 146.681 132.973C146.467 134.471 145.288 135.113 143.895 134.364C143.359 134.043 142.824 133.615 142.824 133.936C142.824 134.15 143.252 135.006 143.574 135.327C144.752 136.397 147.538 136.183 147.538 133.722C147.645 132.652 147.324 131.903 147.002 131.903ZM85.9298 133.187C86.2512 133.187 86.7869 133.294 87.1084 133.615C88.0727 134.257 88.1798 135.113 88.2869 138.109C88.2869 140.784 88.287 140.891 88.7155 141.212C89.787 141.962 90.4298 140.784 90.1083 138.109C89.7869 135.434 90.7513 133.508 92.3585 133.615C93.1085 133.615 93.3227 134.043 92.6798 134.685C92.037 135.327 91.9298 136.076 92.1441 137.574C92.6798 141.426 92.2513 143.353 90.5369 144.209C88.8226 145.065 86.6797 144.102 86.2511 141.962C86.0369 140.57 86.0369 138.858 86.144 137.253C86.144 135.541 86.1441 135.327 85.5012 134.364C85.0726 133.508 85.3941 133.187 85.9298 133.187ZM43.2861 134.471C44.2504 134.471 45.2148 135.006 45.7505 136.183C47.1434 139.072 44.1432 141.533 41.3574 141.748C36.5359 141.855 30.7502 141.105 25.9287 140.463L26.0358 137.681C30.5359 137.895 35.5717 138.323 40.929 138.537C40.179 135.969 41.6789 134.471 43.2861 134.471ZM68.6794 135.006L71.358 135.648L69.6437 138.43C70.1794 138.216 70.5009 138.002 71.0366 138.216C72.1081 138.644 72.108 140.035 71.358 141.319C70.7151 142.283 68.8938 143.46 67.7152 144.102C67.0723 142.604 65.4651 140.035 66.108 138.537C66.4294 137.788 67.2865 137.36 68.1436 137.788C68.4651 138.002 68.8937 138.216 68.8937 138.216L68.6794 135.006ZM75.1081 135.113L83.3583 135.22C82.1797 143.567 79.8225 154.803 75.2153 163.898L73.2867 164.433C77.3582 155.338 80.0368 146.884 81.3225 137.36H77.251C74.8938 147.526 71.358 157.05 66.0008 165.182L63.6436 164.433C69.3223 155.231 73.8223 144.958 75.1081 135.113ZM93.8584 135.22H102.966C104.68 152.341 110.359 163.898 118.823 175.455C118.823 175.455 118.287 175.562 117.966 175.455C117.109 174.385 116.252 173.636 114.966 173.315C107.787 162.935 103.073 148.382 101.894 137.253H96.4299C97.0728 151.164 100.93 162.614 105.966 173.743L103.18 174.278C99.2157 164.433 94.7156 155.766 93.8584 135.22ZM89.1441 136.29C89.3584 136.29 89.5726 137.146 89.5726 138.216C89.5726 139.286 89.3584 140.142 89.1441 140.142C88.9298 140.142 88.7155 139.286 88.7155 138.216C88.7155 137.146 88.9298 136.29 89.1441 136.29ZM43.2861 136.504C42.8575 136.504 42.5361 136.825 42.5361 137.253C42.5361 137.681 42.8575 138.002 43.2861 138.002C43.7147 138.002 44.0361 137.681 44.0361 137.253C44.0361 136.825 43.7147 136.504 43.2861 136.504ZM108.109 137.36C108.859 137.895 109.716 138.537 110.466 139.072C112.502 140.57 112.502 143.246 110.466 143.246C110.252 143.246 109.716 143.246 109.716 143.246C109.716 143.246 110.573 145.065 111.002 145.921C110.144 146.135 108.43 146.456 108.43 146.456C108.43 146.456 108.644 144.637 108.644 143.246C108.644 143.246 108.323 143.674 108.002 143.781C106.716 144.316 105.537 143.139 105.752 141.748C105.966 139.928 108.109 137.36 108.109 137.36ZM46.9291 137.681L51.4291 139.928C48.3219 146.991 44.7861 153.625 39.6432 158.655L39.8575 142.39C42.6433 142.283 45.5362 142.176 46.9291 137.681ZM77.6796 137.895H80.4653C79.2867 150.95 70.7151 168.5 69.108 170.64L68.5723 171.068C68.5723 171.068 67.5009 167.109 66.2151 165.61C71.0366 159.083 76.0724 146.563 77.6796 137.895ZM97.18 137.895H101.359C102.644 148.275 105.859 159.511 113.895 173.101C113.895 173.101 113.037 173.208 112.502 172.78C111.109 171.924 110.144 173.101 109.394 172.994C108.109 172.887 107.894 172.887 106.609 173.208C99.8585 159.083 98.0372 147.954 97.18 137.895ZM51.9648 140.249L53.4649 140.998C50.2505 148.489 47.2504 154.482 39.6432 161.758V159.618C45.0004 154.375 48.6433 147.419 51.9648 140.249ZM54.1077 141.319C54.9649 141.747 55.822 142.176 56.6792 142.711C55.7149 143.781 54.6435 144.316 53.2506 144.423C52.6078 144.53 52.822 143.888 53.4649 142.497C53.8934 141.748 54.1077 141.319 54.1077 141.319ZM57.1078 142.925L59.7864 144.316C59.7864 144.316 59.4649 145.386 58.9292 146.67C58.0721 148.596 57.8578 148.596 57.6435 147.098C57.6435 146.777 57.3221 145.921 57.2149 145.386C56.7864 143.888 57.1078 142.925 57.1078 142.925ZM60.4293 144.423C60.4293 144.423 61.5008 144.958 61.8222 145.172C57.1078 159.404 44.679 171.068 44.679 170.854L42.7504 169.677C51.1077 162.079 57.1078 153.09 60.4293 144.423ZM55.5006 144.637C55.9292 144.637 55.6078 145.172 54.9649 146.563C54.4292 147.847 54.2148 148.382 53.6791 148.596C52.9291 148.917 51.7505 148.917 50.7862 149.024C50.3577 149.131 50.572 148.81 51.2148 147.419C51.9649 145.814 52.072 145.493 53.2506 145.172C53.7863 145.172 54.7506 144.637 55.5006 144.637ZM56.3577 145.172C56.7863 145.279 57.0007 147.312 57.1078 147.419C57.6435 149.131 57.5364 149.559 57.2149 150.094C56.5721 151.271 55.822 152.555 55.6078 152.983C55.072 153.84 54.8577 153.732 54.5363 151.485C54.322 150.094 54.1078 149.559 54.3221 148.917C54.6435 148.275 55.3934 146.67 55.822 145.707C56.1434 145.279 56.2506 145.172 56.3577 145.172ZM65.7865 145.921L68.2509 146.777L66.3222 149.131L67.1794 149.024C69.1081 149.131 68.7866 151.057 67.2866 152.234C66.6437 152.769 63.6436 154.161 63.6436 154.161C63.3222 152.448 62.6793 151.271 62.7864 149.559C62.8936 148.596 63.0007 147.74 64.1793 147.74C64.8222 147.74 65.0364 148.382 65.465 148.81L65.7865 145.921ZM110.359 148.061C110.359 148.061 111.859 148.81 113.252 149.88C115.073 151.271 115.395 152.876 113.573 153.518C113.359 153.625 112.823 153.518 112.823 153.518C113.359 154.375 114.537 155.659 114.537 155.659C114.002 156.087 113.145 156.408 112.18 156.729C112.18 156.729 111.966 154.589 111.752 153.733C111.752 153.733 111.537 154.161 111.216 154.375C109.502 155.445 108.109 153.411 109.073 150.843C109.502 149.345 110.359 148.061 110.359 148.061ZM91.3941 148.382C95.6799 148.275 93.2156 155.445 91.0727 154.91C91.0727 154.803 92.8942 150.736 90.4298 149.987C89.2512 149.773 90.2156 148.382 91.3941 148.382ZM84.3226 148.917C85.7155 148.917 86.6798 149.88 85.3941 150.415C83.3583 151.378 84.5368 153.625 84.644 154.91C84.644 155.659 82.8225 154.268 82.5011 152.662C81.8582 150.629 82.1797 149.131 84.3226 148.917ZM52.3934 149.666C52.7148 149.666 52.9291 149.666 53.0363 149.773C53.1434 150.094 52.6078 151.164 51.6435 152.555C51.2149 153.304 51.0006 153.518 50.6791 153.625C50.0363 154.054 49.0719 153.946 48.2147 153.946C47.0361 153.946 47.2505 153.947 48.5362 151.913C49.072 150.95 49.5005 150.201 49.8219 149.987C50.0362 149.88 51.5363 149.666 52.3934 149.666ZM53.6791 150.415C53.7862 150.415 53.8935 150.736 53.8935 151.164C53.8935 153.732 54.7506 154.589 54.1077 155.445C53.3577 156.729 52.2862 158.12 51.9648 158.548C51.3219 159.297 51.4291 159.19 51.2148 157.264C51.1077 155.873 51.0006 154.91 51.1077 154.482C51.6435 153.197 52.2863 152.662 52.9291 151.271C53.3577 150.629 53.572 150.415 53.6791 150.415ZM87.9654 152.448C89.2512 152.448 90.0012 153.839 89.8941 155.017L89.787 156.194C91.3941 155.552 93.4299 156.194 93.537 157.799C93.6442 160.474 91.7155 160.153 90.0012 160.046C90.2155 160.153 90.4298 162.507 89.4655 163.363C87.8583 165.182 84.9654 163.363 85.7154 160.688C85.8226 160.153 85.9298 159.832 85.9298 159.832C85.9298 159.832 84.8583 160.26 84.5369 160.153C81.3225 160.046 81.6439 155.445 84.7511 155.98C85.394 156.087 85.8225 156.194 85.8225 156.194C85.8225 156.194 85.7154 155.873 85.6083 155.552C85.2869 154.053 86.2511 152.448 87.9654 152.448ZM151.502 153.304L153.217 154.268V156.194L150.752 154.375L151.502 153.304ZM48.9648 154.589C49.6077 154.589 50.1434 154.589 50.0363 154.803C50.0363 155.124 48.5362 157.264 47.679 158.12C46.929 158.976 46.8219 158.762 45.0004 158.762C44.2504 158.762 43.8218 158.762 43.8218 158.548C44.679 157.478 45.8576 155.98 46.6076 154.803C46.929 154.696 48.0005 154.589 48.9648 154.589ZM50.4648 155.552C50.7862 155.659 50.7862 157.585 50.8934 158.762C51.0005 159.832 51.0006 159.832 50.572 160.474C50.0363 161.116 49.3934 161.972 48.6433 162.721C47.5719 164.005 47.679 164.005 47.679 161.33C47.679 159.297 47.5719 159.297 48.0005 158.762C48.2148 158.548 48.9647 157.585 49.3933 156.943C50.0362 156.087 50.2505 155.552 50.4648 155.552ZM61.1792 155.766L63.4294 156.943L61.1792 159.297C61.1792 159.297 61.715 159.297 61.9293 159.297C63.4294 159.618 63.3222 161.116 61.8222 162.293C60.965 162.828 57.8578 164.005 57.8578 164.005C57.7506 162.721 57.4293 161.437 57.5364 160.046C57.5364 159.404 57.6436 158.655 58.0721 158.12C58.3936 157.692 59.0364 157.478 59.7864 158.013C60.215 158.441 60.4293 158.869 60.4293 158.869L61.1792 155.766ZM87.9654 156.622C87.1083 156.622 86.3583 157.371 86.3583 158.227C86.3583 159.083 87.1083 159.832 87.9654 159.832C88.8226 159.832 89.5726 159.083 89.5726 158.227C89.5726 157.371 88.9297 156.622 87.9654 156.622ZM113.466 156.943C113.466 156.943 116.466 158.12 117.752 159.297C119.037 160.367 118.395 162.079 117.216 162.079C117.109 162.079 116.573 161.972 116.573 161.972C117.002 162.614 118.395 164.219 118.395 164.219L116.037 165.182C116.037 165.182 115.716 163.363 115.395 162.4C114.645 164.219 112.609 163.042 112.502 161.865C112.18 160.26 112.93 158.655 113.466 156.943ZM87.9654 157.157C88.6083 157.157 89.0369 157.692 89.0369 158.334C89.0369 158.976 88.5012 159.511 87.9654 159.511C87.4297 159.511 86.894 158.976 86.894 158.334C86.894 157.692 87.4297 157.157 87.9654 157.157ZM87.9654 157.692C87.644 157.692 87.4297 157.906 87.4297 158.227C87.4297 158.548 87.644 158.762 87.9654 158.762C88.2869 158.762 88.5012 158.548 88.5012 158.227C88.5012 157.906 88.2869 157.692 87.9654 157.692ZM44.5718 159.404C45.1075 159.404 45.6433 159.404 46.2862 159.511C46.6076 159.725 45.9647 160.581 44.5718 162.079C43.5003 163.256 43.2862 163.042 42.0004 163.149C39.7504 163.149 39.6432 163.149 40.7146 161.972C41.8932 160.688 42.5361 159.832 43.0719 159.618C43.5004 159.511 44.0361 159.404 44.5718 159.404ZM46.7147 160.581C47.0361 160.581 46.8219 161.972 46.8219 162.507L46.7147 164.861L45.0004 166.574C42.9646 168.393 43.179 168.5 43.179 166.788C43.179 165.396 43.1789 164.433 43.5003 163.898C44.3575 162.828 45.3219 161.865 46.2862 160.795C46.6076 160.688 46.7147 160.581 46.7147 160.581ZM91.287 161.223C91.8228 161.223 93.0012 163.363 93.3227 165.182C94.0727 169.249 96.4299 171.282 98.1442 169.57C98.8942 168.607 98.8943 169.677 98.8943 170.212C98.5729 175.455 92.6799 173.208 92.037 168.072C90.0012 169.463 88.0727 166.681 89.2513 166.788C92.1442 165.717 91.3942 163.042 91.287 161.223ZM84.4297 161.223C84.7512 163.042 81.5368 166.146 79.7153 163.898C78.751 162.828 79.6082 160.581 80.7868 161.972C82.0725 162.935 83.3583 161.865 84.4297 161.223ZM40.7146 163.577C41.2503 163.577 41.8932 163.684 42.3218 163.684C42.9646 163.791 42.5361 164.005 41.2503 165.182C40.1789 166.146 39.7503 166.681 39.6432 166.253C39.536 165.61 39.6432 164.754 39.6432 163.791C39.6432 163.577 40.1789 163.577 40.7146 163.577ZM55.2863 164.861L57.2149 166.253L55.2863 168.072C57.0006 167.965 57.215 169.677 56.5721 170.533C56.1435 171.175 54.5363 171.817 52.822 172.138C51.8577 172.352 51.0005 172.459 51.0005 172.459C51.0005 172.459 51.0005 171.71 50.8934 170.426C50.7862 167.751 51.0005 166.788 51.9648 166.253C52.7148 165.931 53.8934 166.467 54.2148 167.109C54.322 167.323 54.5363 167.751 54.5363 167.751L55.2863 164.861ZM42.6433 165.075C42.7504 165.182 42.3218 169.57 42.3218 169.57L39.536 167.965C39.6432 167.858 42.429 165.075 42.6433 165.075ZM117.859 165.504C119.895 166.467 121.287 166.467 122.788 167.43C123.859 168.179 123.645 169.784 122.788 170.212C122.359 170.319 121.716 170.319 121.716 170.319C122.466 171.175 123.966 172.352 123.966 172.352L121.502 173.422C121.502 173.422 121.18 171.71 120.859 170.854C120.43 172.245 118.823 172.245 117.966 171.496C117.323 171.068 117.109 169.463 117.43 167.965C117.537 167.644 117.859 165.504 117.859 165.504ZM104.573 205.418C80.0367 211.303 60.0007 207.665 58.0721 206.916L56.465 209.27C56.2507 209.698 56.1435 210.875 55.072 211.196L53.4649 213.55L53.7863 213.871L52.3934 215.156L52.7149 215.584L51.6435 217.082H51.2148L48.8576 220.72L49.1791 221.148L43.7147 229.816H117.538C113.359 221.576 108.859 213.551 104.573 205.418ZM104.144 206.488L104.787 207.772C100.609 206.702 97.18 208.307 95.0371 211.41C90.537 207.986 84.7511 209.056 81.001 212.908C77.4652 209.27 71.358 208.735 66.9651 212.48C65.1436 208.414 58.1793 208.2 58.0721 208.735C58.0721 208.735 58.3935 208.307 58.3935 208.093C66.8579 209.912 86.4655 210.768 104.144 206.488ZM102.002 208.093C102.966 208.093 104.037 208.307 105.216 208.735L105.966 210.019C104.359 209.163 97.5014 207.237 95.5728 214.086C93.5371 211.303 85.0726 207.237 80.7868 215.798C79.6082 213.444 72.5366 206.809 66.0008 215.263C63.4293 209.912 61.2864 209.484 56.6792 210.233C60.0007 207.023 64.608 210.34 66.6437 213.122C72.2153 208.414 76.8224 209.912 80.8939 213.658C86.144 207.879 91.3942 209.27 95.0371 212.159C97.18 209.377 99.1086 207.986 102.002 208.093ZM105.001 211.089C105.109 211.089 105.323 211.089 105.43 211.089C106.073 211.196 106.823 211.41 107.466 211.945C107.466 211.945 106.823 212.052 106.609 212.159C103.716 212.908 104.359 217.082 107.359 217.082C107.68 217.082 108.323 216.975 108.323 216.975C108.216 219.757 109.073 220.506 111.966 220.292L116.787 228.96L45.429 228.746L49.929 221.469C52.1791 221.79 53.6791 220.506 53.1434 218.473C53.1434 218.473 54.5363 218.901 54.9649 218.901C57.5364 218.901 58.1792 214.942 55.7149 214.193C55.3934 214.086 54.7506 214.086 54.6434 213.979C55.822 211.089 58.9293 212.801 59.7864 213.979C61.8222 212.266 63.965 213.015 64.9293 215.263C64.9293 215.263 64.6079 215.049 64.3936 214.942C62.0364 213.229 59.8935 216.761 62.1436 218.473C62.3579 218.687 62.8937 218.794 62.8937 218.794C62.8937 218.794 62.5722 219.008 62.3579 219.436C61.1793 221.469 63.1079 223.93 65.3579 223.288C67.1794 222.539 67.1794 221.255 67.1794 219.757C67.1794 219.757 67.8223 219.757 68.358 219.864C70.5009 219.864 71.1437 217.082 69.7508 215.798C69.0008 215.156 68.1438 215.156 67.7152 215.049C70.1795 212.587 71.8938 214.3 73.6081 215.37C73.8224 215.37 76.6081 212.052 79.9296 215.263C78.3224 214.835 76.7152 215.905 76.7152 217.51C76.7152 218.58 77.4653 219.543 79.1796 219.65C78.9653 220.185 78.8581 220.613 78.8581 221.148C78.8581 222.86 80.1439 224.037 81.8582 223.716C83.2511 223.502 84.3226 221.897 83.7869 220.506C83.5726 219.864 83.2512 219.65 83.2512 219.65C87.1084 220.185 87.0012 215.156 84.0011 214.942C83.2511 214.835 82.7153 215.156 82.0725 215.798C83.7868 212.159 87.1083 212.908 88.2869 214.407C89.8941 213.229 92.2512 211.517 94.9298 214.514C94.5013 214.407 93.8584 214.407 93.3227 214.514C91.1798 215.049 91.1799 217.831 92.8942 218.687C93.4299 218.901 93.9656 219.115 94.6085 219.008C94.0728 221.362 96.6442 222.967 98.4657 221.897C99.7514 221.148 100.073 219.222 98.6799 217.51C101.037 217.403 101.251 214.407 99.9657 213.336C98.8943 212.48 97.6085 212.908 96.7514 213.979C96.43 213.122 98.7871 210.126 102.109 212.266C102.966 211.731 103.93 211.196 105.001 211.089ZM108.43 214.407L109.394 216.119C108.752 216.119 107.894 215.477 108.43 214.407ZM96.537 216.119C97.0727 216.119 97.6085 216.547 97.6085 217.189C97.6085 217.831 97.1799 218.259 96.537 218.259C96.0013 218.259 95.4656 217.831 95.4656 217.189C95.4656 216.547 95.8942 216.119 96.537 216.119ZM53.2506 216.119C53.3578 216.654 53.4649 217.296 52.3934 217.403L53.2506 216.119ZM65.2508 217.189C65.7865 217.189 66.2151 217.617 66.2151 218.152C66.2151 218.687 65.7865 219.115 65.2508 219.115C64.7151 219.115 64.2865 218.687 64.2865 218.152C64.2865 217.617 64.7151 217.189 65.2508 217.189ZM81.3225 217.51C81.8582 217.51 82.394 217.938 82.394 218.58C82.394 219.222 81.9654 219.65 81.3225 219.65C80.7868 219.65 80.2511 219.222 80.2511 218.58C80.2511 217.938 80.6796 217.51 81.3225 217.51Z" fill="black"/>
<path d="M48.1076 26.499C40.7146 36.9859 32.7859 43.0854 32.6787 51.3251C32.6787 54.0003 34.0716 58.4947 38.5717 59.3508C41.4646 59.8858 45.5361 57.5316 45.6432 52.7162C45.6432 51.7531 46.6075 51.7532 46.6075 53.1443C46.5004 56.8896 45.3218 61.384 43.2861 64.9153C46.5004 64.9153 49.7148 64.9153 52.9291 64.9153C50.8934 61.277 49.7148 56.8896 49.6076 53.1443C49.6076 51.8602 50.572 51.8601 50.572 52.7162C50.6791 57.5316 54.6434 59.8858 57.6435 59.3508C62.1436 58.4947 63.5365 54.0003 63.5365 51.3251C63.4293 43.0854 55.5006 37.0929 48.1076 26.499Z" fill="black"/>
<path d="M130.93 223.716C123.537 213.23 115.609 207.13 115.501 198.89C115.501 196.215 116.894 191.721 121.394 190.865C124.287 190.33 128.359 192.684 128.466 197.499C128.466 198.462 129.43 198.462 129.43 197.071C129.323 193.326 128.145 188.832 126.109 185.3C129.323 185.3 132.538 185.3 135.752 185.3C133.716 188.939 132.537 193.326 132.43 197.071C132.43 198.355 133.395 198.355 133.395 197.499C133.502 192.684 137.466 190.33 140.466 190.865C144.966 191.721 146.359 196.215 146.359 198.89C146.252 207.13 138.323 213.123 130.93 223.716Z" fill="black"/>
</g>
<defs>
<clipPath id="clip0">
<rect width="178.6" height="249.4" fill="white"/>
</clipPath>
</defs>
</svg>
