<svg width="179" height="250" viewBox="0 0 179 250" fill="none" xmlns="http://www.w3.org/2000/svg">
<g clip-path="url(#clip0)">
<path d="M8.5 0.899902H170C174.7 0.899902 178.5 4.6999 178.5 9.3999V241.8C178.5 246.5 174.7 250.3 170 250.3H8.5C3.8 250.3 0 246.5 0 241.8V9.3999C0 4.6999 3.8 0.899902 8.5 0.899902Z" fill="white"/>
<path d="M112.4 21.9C112.4 21.9 132.7 51.3 139.6 56.5C140.1 56.7 148.6 55.1 148.6 55.1C144.3 44.7 141.5 33.9 144.3 21.8L112.4 21.9ZM123.6 68.4001C109.6 72.4001 95.7 76.1 80.5 69.6L64 85.6C63.9 86 84 94.7 84.3 93.7C74.4 120.3 89.8 125.2 99.6 95.9001C112.4 94.2001 127.8 92.5 140.5 83.6C129.6 77 123.6 68.3001 123.6 68.4001ZM39.5 73.1C34.2 69.8 30.1 76.5001 33.9 79.9001C33.4 81.9001 33.3 84.8001 35.2 86.1001C36.9 87.2001 40.2 86.1001 40.6 86.1001C40.6 86.1001 40.7 89.6001 40.4 89.6001C39.9 89.6001 38 88.0001 36.8 87.6001C32.8 86.4001 27.2 85.6 27.3 85.8C27.5 86.1 26.4 87.1001 30.8 89.9001C32.4 90.9001 37.6 89.8001 41.7 91.1001C44.2 91.9001 46.5 93.2 47.8 92.5C51.4 91.5 52.8 86.8 52.6 86.8C52.5 86.7 41.7 89.6001 42.7 90.1001V86C46.9 86.5 50.8 83.4 46.6 78.1C49.9 75.1 45.5 67.7 39.5 73.1ZM57.2 91.8C46.8 102.3 25.5 122.1 25.5 122.1L25.7 136.9L46.5 155.6C48.1 135.8 59.4 117.3 70.1 108C71.1 105.1 59.5 92.8 57.2 91.8ZM131.5 95.4001C129.9 107.6 128.5 124.2 107.9 142.7C111.5 148.8 116 155 122.6 158C123.1 159 141.5 138.8 152.9 129.3L152.8 116.4L131.5 95.4001ZM38.5 98.1001C38.5 98.4001 37.7 101.6 37.5 101.5C37.5 101.7 39.6 100.7 39.8 99.8C40 99 40.5 98 40.5 97.8C40.1 94.5 39.2 96.9001 38.5 98.1001ZM30.8 106.6C30.1 108.4 29.3 111.7 29.6 113.9C33.3 115.8 34.3 108 33.3 107.3C32.7 107.1 31.3 106.6 30.8 106.6ZM144.8 141.9C144.5 143.4 144.5 143.9 145.2 144.2C146.4 144.7 146.9 144.1 147.9 141.6C148.5 140.1 149 137.9 148.5 137C146.3 135.4 145.1 140.8 144.8 141.9ZM80.2 154.9C65 157.3 49.9 158.8 37.8 168.2C39.2 168 53.7 181.8 54.5 183.7C76.8 172.8 98.5 181 98.5 181L114.8 165.2C115.4 164.9 97.1 157.3 93.6 156C106.1 122.3 86.3 127.4 80.2 154.9ZM139.9 151C138.9 151.8 138.4 152.5 137.6 153.6L138.4 154.9L140.4 152.7L139.9 151ZM125.6 165.2C127.7 164.2 135.2 160.6 135.5 161.5L135.3 165.1C134.2 164.7 126.8 165.9 131.1 173.6C128.4 179.7 134.4 182.8 138.6 178.8C147.4 181.8 146.2 173 144.4 171.6C145.8 169.4 144 164.6 143.1 164.6C143.1 164.6 150.8 166.3 150 165C149.7 164.4 149.2 163.3 147.5 162.2C145.5 160.9 142.1 161.4 139.3 160.8C136.3 160.2 134.4 159.1 131.9 159C128.2 159.2 124.6 162.5 125.6 165.2ZM40.3 193.8L29.7 196.6C34.1 207.5 35.8 217.5 34.6 229.7L65.2 229.9L40.3 193.8Z" fill="white"/>
<path d="M24 20.3V230.8H154.6V20.3H24ZM25.6 21.9H83.1C83.1 21.9 83.2 22.7 83 26.3C82.8 33.6 82.4 41.2 82.9 48.6C83 51.2 82.9 53.7001 83.3 56.2001C83.7 58.7001 83.8 61.3 85 63.6C85.5 64.8 85.5 64.8001 83.7 66.4001C82.8 67.2001 82.1 68.1 82.1 68.2C82.1 68.3 82.1 68.4001 82.2 68.3001C82.3 68.2001 82.9 67.6 83 67.5C83.5 66.9 84.3 67.7001 87 68.4001C87.5 68.6001 88.3 69.1 88.9 69.5C93 72.9 98.7 71.9 103 70C104.2 69.5 104.5 69.4 106.5 69.2C113.7 68.3 121.5 65.2 121.5 65.2L122.4 66.8001C122.4 66.8001 122.8 66.7 123 67.1C127.2 75 140.8 84 140.5 83.6L131.6 88.5C132.3 89.3 133.1 90.3 133.9 91.2H134L134.1 91.4001C141.3 99.4001 153 110.1 153 110.1V129.7C149 132.9 145.1 136.5 141.6 140.1C140.6 141.1 139.9 141.7 140.3 141.7C141.2 141.6 142 142.5 142.7 143.1C143.2 143.6 143.1 143.6 142.5 144.3C142.1 144.8 142 144.9 142 145.3C142 146 142 146.5 141.4 147C141 147.5 140.8 147.8 140.7 148.4C140.6 149 140.6 149.3 140.2 149.9C139.5 150 139.5 151 139.6 151.5C140.3 152.2 140 153 140 152.8C138.7 154.3 137.3 155.5 138.2 153.5C138.6 152.7 138.7 152.1 138.7 152.1C138.7 152.1 138.1 152.8 137.7 153.1C137.2 153.6 137 153.3 137 151.8C136.9 150.7 136.5 149.1 136.3 148.8C136.2 148.6 136.2 148.9 136.2 150C136.3 151.4 136.4 151.8 135.9 153.3C135.2 155.2 134.7 155.5 135.8 155.4C136.8 155.3 137.7 155.3 138.2 155.9C138.4 156.1 138.6 156.5 139 156.7C139.9 157.2 140.5 157.7 141 158.2C142.5 159.9 142.1 161.4 139.1 160.4C137.5 159.9 138.6 159.2 140.2 159.3C141.2 159.4 141.4 159 140.5 158.7C138.8 158.4 138.6 158.2 137.5 159.5C132.9 159 130.3 156.5 129 154.3C128.5 153.4 128.3 153.2 128.7 152.7C126.8 153.3 124.5 156.6 122.8 158.1C118 155.4 112.1 150.5 108.8 144.9C107.1 148.1 105.2 153.8 105.2 153.8L97.7 151.7L97.6 151.9L105 154L104.3 156.5C104.2 156.8 103.1 159.6 103.1 159.6L114.7 165C113.7 166.8 111.9 167.4 111.6 169.3L127.6 154C127.6 154 129.7 157.1 130.4 157.8C131.1 158.5 131.3 158.6 130.5 158.8C126.7 159.4 123.8 162.2 124.8 166.1C125 166.5 125.3 166.4 126 165.9C128.5 163.6 134.6 161.5 134.8 162.1V164.5C128.2 164.6 128.9 169.4 129.4 172.1C129.4 172.2 127.5 173.8 127.5 173.8C128.2 174.2 128.8 174.5 129.5 175C128.9 178.2 131.7 182.9 137.1 180.5C137.6 181 138 181.5 138.5 182.1C139.1 181.5 139.7 179.9 139.7 179.9C142.4 181.1 148 178.4 145.1 172.1L146.7 170.6L145.2 169.6C145.2 168 144.9 166.6 144 165.2C144 165.2 146.5 165.8 148.4 166C149.6 166.1 150.5 166.1 150.4 165.4C150.4 165.2 150.2 164.2 150.1 163.9C149.5 162.3 146.6 161.1 143.8 160.9C143.3 160.9 142.8 160.9 142.7 160.8C142.5 160.6 142.8 160.3 143.1 160.3C144.6 160.6 146.1 159.4 146.4 158C146.5 157.7 146.8 157.3 147.2 156.8C148 155.9 148.1 155.9 148.1 154.7C148.1 153.8 148.2 153.6 148.7 153C149.2 152.2 149.5 151.1 149.2 149.9C149.1 149.5 148.8 149 149.1 148.1C149.6 146.6 148.5 145.3 147.2 144.5C146.4 145.1 145.2 144.6 144.3 144.2C144 144 145.4 136.1 148.2 136.8C148.7 137.1 148.9 138.5 148.8 138.5C148.9 138.5 149 137.7 148.8 137.1C148.6 136.5 148.2 136 147.3 136.2C146.6 136.3 145.9 137.2 145.5 137.6C144.2 139.3 144.2 140.4 143.7 142.2C143.5 143 143.5 143 142.3 142.1C141.5 141.4 141.1 141.2 141.3 140.8C141.4 140.6 142 140.1 142 140.1L152.7 130.2V229.4H94.4L94.8 216.4C95.9 207.5 94 188.7 92.5 186.9C93.6 185.6 97.1 182.6 96.9 182.5L96.4 182.2L94.6 183.9L90.1 182.5C88.2 181.2 86.2 179.9 84.2 179.4C80.9 178.5 74.5 181.3 74.4 181.3C64.2 182.1 55.9 186.2 56.1 186.2C55.7 185.8 55.1 184.5 55 184.5C49.7 177.1 44.5 173 37.4 168L46.4 163L25.1 140.7L24.9 122.6L56.1 93C56.3 92.5 65.9 99.8 69.5 105.8C70.2 102.9 71.5 100.2 72.5 97.4001C72.6 97.1001 78.6 99.6 80.4 99.7C80.7 99.7 80.9 99.4001 80.9 99.4001L72.9 96.8L74.5 92.1001C74.5 92.1001 75.1 90.8001 74.4 90.6001C70.8 89.4001 67.4 87.4001 63.9 85.6001C63.9 85.6001 65.5 83.8 65.5 83.7C65.5 83.6 66.2 82.7001 66 82.3001C64.2 84.0001 49.8 97.4001 49.8 97.4001C49.4 95.1001 48.7 94.3001 47.3 92.9001C48.1 92.9001 49.3 92.1001 49.9 91.6001C52 90.1001 53.2 87.3 52.9 85.7C50.9 86.3 49 87.1001 46.5 87.6001C45.1 87.9001 43.7 88.5 42.9 89.2L42.8 86.6001C42.8 86.6001 46.2 87.2001 47.8 84.9001C49.2 82.9001 48.6 80.7 48.3 79.5C48.3 79.2 48.3 79.3 48.8 78.7C49.2 78.3 49.9 77.8001 49.9 77.8001C49.9 77.7001 48.1 77.0001 47.8 76.4001C48.3 71.7001 44.5 69.8 41.3 70.7C40.7 70.9 40.4 71 39.7 70.2C39.6 70.1 38.7 69.2 38.7 69.2C38.7 69.2 38.3 70.1 38.1 70.5C37.5 71.7 37.3 71.4001 35.9 71.4001C32.5 71.6001 30.9 74.3001 31.7 77.8001C31.9 78.6001 31.8 78.5 31.3 79.5C31 80 30.6 80.7 30.6 80.7C30.6 80.7 31.2 81 31.7 81.2C32.3 81.5 32.4 81.8001 32.4 82.4001C32.5 83.8001 32.8 84.7001 33.6 85.9001C30.9 86.0001 28.9 85.7001 26.4 84.9001C26.8 88.7001 29.5 90.0001 32.9 90.6001C32.9 90.6001 32.5 90.9001 32.2 91.1001C31.4 91.3001 30.9 92.0001 30.9 92.6001C30.8 93.2001 30.4 93.8001 30 94.1001C29.5 94.6001 29 95.2001 29.2 96.4001C29.1 97.3001 28.9 97.6001 28.7 97.9001C28.2 98.6001 28 99.3 28.1 100.2C28.2 100.6 28.3 101.5 28.2 102.5C28.1 104.1 28.6 104.6 29.3 105.7C29.8 106.4 29.7 106.4 29.6 106.9C29.3 108.1 29.1 108.8 28.8 109.7C28.2 111.8 28.2 113.4 28.7 113.8C29.5 114.4 30.3 114.2 30.7 114.1C33.7 113.2 33.2 110.2 33.3 108.3C33.4 107.8 33.6 107.5 33.7 107.6C34.5 108.6 35.4 109.2 36.6 109.8C32.6 113.9 30.1 116.3 25 120.8L25.6 21.9ZM84 21.9H86.4C85.9 22.8 84 25.8 83.8 25L84 21.9ZM87.3 21.9H88.7C87.3 25.1 85.4 27.1 83.6 29.1L83.7 27C83.7 27.1 86.4 24.1 87.3 21.9ZM89.7 21.9H91.1C91.1 21.9 91.1 22.6 91 23C90 26.4 83.5 32.8 83.6 31.9L83.5 30.2001C83.5 30.3001 88.4 25.4 89.7 21.9ZM92.1 21.9H93.6C98.5 30.5 107.4 33.5 109.6 34.1L110.9 36C100.5 34 94.9 27.2 92.3 23.1C92 22.8 92.1 21.9 92.1 21.9ZM94.6 21.9H96.2C99.5 27.4 105.4 30.4 107.5 31.1C108 31.7 108.6 32.8 108.9 33.1C103.3 31.5 97.1 26.8 94.6 21.9ZM97.1 21.9H98.6C100.4 24.4 103.1 26.3 104.7 27.5C105.5 28.2 106.6 29.5 106.5 29.8C103 28.7 98.9 24.8 97.1 21.9ZM99.3 21.9H101.2C102 23.1 102.8 24.1 103.6 25.3C103.8 25.5 103.9 25.8 103.8 25.9C103.7 26.2 103.3 26 102.2 25C100.5 23.5 99.3 21.9 99.3 21.9ZM101.8 21.9H143.6C142.5 33.6 142.4 42.6 148.4 54.7001C147.3 55.8001 139.1 56.2 136.5 57.5C136.5 57.8 137.2 58.4001 137.2 58.4001C139.9 57.1001 150.5 56 150.5 56C146.1 48.3 142.4 33.3 145.2 21.9H153.1V78.2C153.1 78.2 153.2 88.9 153.4 95C149.3 89.7 144.1 82.5 140.6 77.1C136.3 71.1 131.6 64.0001 126.7 57.4001C125.3 55.3001 123.2 52.6001 121.5 50.2001C118.9 46.4001 116.7 43.5 114 39.5C111.1 35.3 108.3 31.5001 104.9 26.6C101.9 22.4001 101.8 21.9 101.8 21.9ZM91.7 23.6L92.7 25.1C90.4 29.0001 87.4 32.4001 83.6 35.2001V33.2001C87.9 29.9001 89.9 26.7 91.7 23.6ZM93.3 25.8C96.1 29.6 102.1 35.4 111.7 37.1C111.7 37.1 112.2 37.6001 113 38.7001C114 40.1001 114 40.1001 114.2 42.4001C114.3 46.5001 115.6 52.1001 117 55.7001C116.8 56.6001 116.7 57 115 59.3C108.1 68.6 93.5 77.4001 86.3 65.4001C83.9 61.6001 83.7 54.2 83.5 49.6C83.5 49.6 83.5 49.3001 83.6 49.2001C83.8 48.4001 84 48.5001 85.3 48.9001C86.6 49.5001 88 49 89.4 48.6C91 48 91.1 48.5001 89.6 49.9001C89.1 50.4001 88.4 51.2 88.5 51.1C88.6 51.1 89.5 50.7001 89.9 50.4001C91.1 49.5001 91.4 49.8001 91 50.9001C89.1 55.3001 88.7 55.4001 91.4 56.7001C92 57.0001 92.3 57.2 92.7 57.5C94.6 59.2 93.9 58.3 93.4 57.5C92.6 56.2 93.3 55.6001 94.7 56.4001C95.6 56.9001 96.8 57.3 97.4 57.1C98.6 56.7 99 55.3 98.7 53.8C98.4 53 96.7 51.5 97.1 53C98.1 53 99 54.4001 98.1 55.4001C97.4 56.3001 96.2 55.8 94.4 54.6C93.4 53.8 92.2 54.2001 92.2 55.2001C92.2 55.8001 91.3 55.7001 90.8 54.9001C90.5 54.5001 90.7 53.2001 91.3 51.9001C95.1 44.2001 91.9 36.8001 85.3 38.9001C84.6 39.1001 83.9 39.3 83.9 39.3V36.4001C87.4 33.5001 91.4 29.3 93.3 25.8ZM102.3 37.7001C100.3 37.6001 98.5 38.1 97.1 39.6C96.1 40.8 96.5 41.9 98.6 40.8C100.4 39.9 100.6 39.8001 102.6 39.7001C105.4 39.6001 107.8 40.5001 110.9 42.4001C112.9 43.6001 113.2 43.7 112.7 43C111.6 40.8 106.6 37.8001 102.3 37.7001ZM86.2 39.8C86.7 39.8 87.3 39.8001 87.8 39.9001C89.7 40.4001 91.5 41.6001 91.2 42.2001C91.1 42.4001 91 42.4 90.7 42.3C89.3 41.6 87.1 40.5001 83.9 41.9001C83.5 42.1001 83.3 41.8001 83.3 41.4001C83.4 40.5001 84.8 39.8 86.2 39.8ZM103.5 40.9001C102.1 40.9001 100.6 41.4001 98.9 42.4001C97.8 43.0001 97.4 43.3 96.9 43C95.7 42.4 96 42.9 96.7 44.1C97.2 45 97.2 45.2001 97.1 45.7001C97 46.4001 97 46.4 97.6 47C98.7 48.4 99.8 49.8001 101.4 50.9001C101.9 51.2001 102.6 51.6 102.6 51.6C102.8 51.6 102.7 51.5001 102.4 51.2001C100.3 49.2001 98.7 47.4001 100.8 48.2001C103.3 49.0001 105.6 48 107.5 47.3C108.3 47.1 109.1 46.9001 109.3 46.9001C111.1 46.9001 111.5 46.2 110.4 45C108.1 42.3 105.9 40.9001 103.5 40.9001ZM103.6 41.4001C105.1 41.4001 106.7 42.0001 108.1 43.2001C108.9 43.9001 109.3 44.3 109.2 44.5C109.1 44.7 108.5 44.4 107.5 43.8C105.4 42.7 103.1 42.4 100.2 43.3C97.9 44 98.6 42.9001 101.1 41.9001C101.8 41.6001 102.7 41.4001 103.6 41.4001ZM86.8 41.7001C88.5 41.7001 90.3 42.2 91.5 43.3C92.3 44 91.7 44.2 90.4 43.6C88.3 42.7 86.6 42.6001 84.9 43.4001C84.4 43.7001 83.8 43.9001 83.6 43.9001C83.3 43.7001 83.2 43.1 83.4 42.8C84.1 42.1 85.5 41.7001 86.8 41.7001ZM115.4 42.3C115.5 42.3 115.7 42.5001 116 42.9001C116.5 43.6001 116.5 44 116.1 45.3C115.6 46.9 115.4 46.6001 115.2 44.4001C115.2 43.0001 115.2 42.3 115.4 42.3ZM117.1 44.6C117.3 44.6 117.5 44.9 117.9 45.6C118.2 46.1 118.1 46.3 117.3 48.6C117 49.6 116.6 50.4001 116.6 50.4001C116.4 50.6001 116.4 50.6001 116.3 50.4001C115.7 49.7001 115.8 48.2 116.3 46.5C116.7 45.3 116.9 44.7 117.1 44.6ZM101.5 44.8C101.6 44.8 101.9 44.9001 101.9 44.9001C101.9 48.4001 104.6 47.7001 104.9 45.2001C104.9 45.2001 105.6 45.1 105.7 45.3C106 45.8 105.3 47.3 104.2 47.8C103.4 48.2 102.3 48.1 101.6 47.5C101.4 47.2 100.9 45.9 101 45.3C101.1 45 101.3 44.8 101.5 44.8ZM89.2 45.2001C89.4 45.2001 89.5 45.3 89.5 45.6C89.6 46.8 88.5 48 87 48.1C85.6 48.3 84.8 47.1 84.8 46C84.8 45.2 85.5 45.1001 85.6 45.7001C85.8 47.6001 87.5 47.7001 88.2 46.7001C88.5 46.3001 88.4 45.3001 88.9 45.2001C89 45.2001 89.1 45.2001 89.2 45.2001ZM99.9 45.2001C100.2 45.2001 100.4 45.3 100.5 45.6L101.1 47.4001C100.7 47.9001 99.1 46.9 99.1 46.1C99.1 45.6 99.5 45.2001 99.9 45.2001ZM106.7 45.6C106.8 45.6 107 45.6001 107.2 45.7001C108.7 46.2001 108.7 46.4001 107.5 46.9001C106 47.4001 105.9 47.5 106.2 46.5C106.4 45.8 106.4 45.6 106.7 45.6ZM90.9 45.8C92 45.9 92.1 46.8 91.1 47.1C89.7 47.7 89.2 47.7 89.7 46.8C90 46.1 90.3 45.8 90.9 45.8ZM83.9 46.1C84 46.1 84.2 46.1 84.3 46.3C84.5 46.8 84.7 47.2001 85 47.7001C84.8 47.9001 84.2 47.9 83.9 47.6C83.3 47.1 83.4 46.1 83.9 46.1ZM118.7 47.2001C119.1 47.2001 119.6 47.9001 119.7 48.4001C118.2 50.3001 118.4 53.9 118.1 55C117.8 55.9 117.7 55.1 116.9 52.8C116.5 51.9 118.2 47.3001 118.7 47.2001C118.7 47.2001 118.6 47.2001 118.7 47.2001ZM120.2 49.2001C120.5 49.4001 121 49.8 121.1 50.5C121.1 50.9 120.9 51.4 120.8 52C120.5 53.3 120.1 55.6 119.9 57.8C119.8 58.7 119.8 59.6 119.8 59.6C119.3 60.5 118.4 58.1001 118.5 56.2001C118.8 54.7001 119 49.4001 120.2 49.2001ZM121.6 51.3C121.8 51.3 122 51.4001 122.3 51.9001C122.5 52.2001 122.6 52.4001 122.7 52.7001C122.8 53.1001 122.7 53.7 122.5 54.8C121.8 57.8 121.9 61.0001 122.4 64.3001C122.5 65.0001 122 64.6001 121.3 63.4001C120.9 62.7001 120.6 61.8 120.5 60.8C120.2 58.5 120.7 55.3 121.2 52.8C121.2 52 121.3 51.4 121.6 51.3ZM123.5 53.7001L124.7 55.2001C124.7 55.2001 124.2 58.5 124.2 60.3C124.1 61 124.8 68.2001 125 68.8001C124.3 68.0001 123.9 67.5001 123.1 66.4001C123 66.4001 122.3 59.2 122.8 56.5C123.1 54.9 123.5 53.7001 123.5 53.7001ZM125.4 56.6C125.6 56.6 125.9 56.8 126.2 57.3C126.5 57.7 126.6 58 126.7 58.6C126.7 59 126.5 59.3001 126.5 59.9001C126.5 63.9001 127 67.6 127.7 71.2C127.9 72.5 127.5 72 126.7 71.1C126 70.4 126 70.1 125.6 69C125.5 68.8 124.8 61.5001 124.8 60.9001C124.8 58.6001 124.9 57.4 125.2 56.8C125.2 56.7 125.3 56.6 125.4 56.6ZM117.3 56.9001C118.5 59.5001 119.5 62.1 121 64.5C121 64.5 119.6 65.2 119.2 65C118.6 63.4 116.5 59 116.4 58.3C116.5 58.1 117.3 56.9001 117.3 56.9001ZM95.1 59C94.9 59 94.8 59.1 94.6 59.3C94.2 59.8 93.7 59.6 92.7 59.1C92.2 58.9 92.3 59.2 91.4 59.6C90.7 60 90.5 60.1 90 60C89.4 60 89.2 59.8001 89.2 60.2001C89.2 60.4001 89.2 61.5 89 62C88.8 62.7 88.6 63.0001 88.8 63.2001C89.1 63.5001 89.3 63.3001 90 62.7001C91 61.7001 91.7 62.0001 92.9 62.4001C94.2 62.8001 94.5 63 95.7 62.6C97.4 62 98.4 62.0001 99.1 62.4001C100.3 63.1001 100.6 63.1 100.1 61.1C99.9 60.4 99.9 59.4001 99.8 59.2001C99.7 59.0001 99.4 59.6 99.1 59.8C98.5 60.2 98.2 60.2 96.8 59.8C96.3 59.5 95.7 59 95.1 59ZM115.9 59.4001C116 59.4001 116.2 59.4 116.3 59.6C116.8 60.8 118.9 64.9001 118.8 65.4001C118.4 65.8001 117.9 66 117.5 65.7C116.5 63.8 116.2 62.8001 115.3 60.7001C115.1 60.3001 115.5 59.5001 115.9 59.4001ZM127.4 59.5C127.5 59.5 127.9 59.8 128.1 60.1C128.8 61.1 128.9 61.2001 128.9 62.2001C129 65.9001 129.4 70.2 130.5 73.6C130.7 74.3 131.1 75.1 131.1 75.2C130.8 75.7 129.1 74.3001 128.6 72.3001C127.9 69.7001 127.5 66.9 127.3 65.1C127 61.9 127 59.6 127.4 59.5ZM114.6 61.1C114.7 61.1 114.8 61.2 114.9 61.5C115.5 62.7 116.2 64.6001 116.8 65.8001C117 66.3001 115.9 66.7 115.6 66.6C115.1 66.2 114.9 65.3 114.6 64.7C113.6 62.5 113.4 62.5 114 61.8C114.2 61.5 114.4 61.2 114.6 61.1ZM129.7 62.8C129.8 62.8 129.9 62.9 130 63.1C130.6 63.8 131 64.4001 131.2 64.9001C131.3 65.3001 131.2 65.6001 131.3 66.3001C131.4 68.2001 131.9 70.8 133.3 76C133.4 76.5 133.6 77.1001 133.6 77.3001C133.5 78.3001 132.1 76.7 131.6 75.1C131.1 73.3 130.3 70.9001 130 68.8001C129.5 65.4001 129.2 62.8 129.7 62.8ZM112.9 63C113.2 63.1 113.4 63.7 113.7 64.2C114.9 66.9 115 66.9 114.2 67.2C113.4 67.4 113.4 67.4 112.5 65.5C111.8 64.1 111.7 64 112.3 63.5C112.5 63.2 112.7 63.1 112.8 63.1C112.8 63 112.9 63 112.9 63ZM97.3 63.6C97.2 63.6 96.8 63.9 96.4 64.1C95.4 64.5 93.7 64.5 92.7 64.2C90.8 63.5 91.4 64.4 93 65C94.3 65.4 96.8 65.1001 97.2 64.3001C97.4 64.0001 97.5 63.6 97.3 63.6ZM111.2 64.9001C111.3 64.9001 111.4 64.9 111.5 65C112.5 66.6 112.9 67.3001 112.7 67.4001C112.5 67.6001 111.7 67.9 111.4 67.7C111 67.5 110.6 66.5 110.4 65.7C110.4 65.4 110.9 65.0001 111.2 64.9001ZM85.2 65.7C85.7 65.7 86.9 67.3 86.6 67.6C86.5 67.8 86.1 67.6001 85 67.3001C84.6 67.2001 83.8 67.1 84.1 66.5C84.3 66.4 85 65.7 85.2 65.7ZM109.5 66.2H109.6C109.8 66.3 110.3 67.6001 110.4 67.9001C110.3 68.2001 109.5 68.2 109.2 68.2C108.9 67.6 108.8 67.3001 108.8 66.9001C108.8 66.8001 109.2 66.3 109.5 66.2ZM132.2 66.4001C132.4 66.4001 132.7 66.7001 133.1 67.3001C133.9 68.5001 133.8 68.4 134.4 71.2C135.1 74.4 135.9 76.6001 136.7 79.8001C136.7 80.3001 136.5 80.2001 135.9 79.8001C134.9 79.2001 134.6 78.6001 134.3 76.8001C133.8 74.0001 132.7 71.4 132.3 68C132 67 132 66.4001 132.2 66.4001ZM107.8 67.5C108.4 67.5 108.3 68.4 108.1 68.5C107.7 68.9 106.5 68.8001 106.3 68.8001C105.9 68.1001 107.4 67.5 107.8 67.5ZM135.1 70.5C135.3 70.5 135.7 71.2001 136.6 72.4001C137.4 73.5001 137.2 73.4 137.7 75.2C138.4 77.8 139.5 79.7 140.2 82.1C140.2 82.4 139.9 82.3 139.6 82.2C139 81.9 138.4 81.5 137.9 81.1C137.5 80.7 137.5 80.2 136.5 76.6C136.1 75.3 136 75 135.5 73C135.1 71.2 134.9 70.5 135.1 70.5ZM47.1 78.3001C49.9 83.4001 48.8 85.6001 42.9 86.4001C42.5 86.3001 42.9 89 42.9 90.2C45.9 88.5 49.5 88.1 52.8 87C51.9 89.9 50.3 93.2 45.5 92.7C40.4 88.8 34.6 91.1001 30.6 89.6001C28.4 88.8001 27.6 86.4001 27.6 85.9001C30.2 86.2001 33.2 86.7 35.7 86.5C32.9 84.4 33.7 81.4 34.1 80.1C30.8 76.1 33.6 71.4 38.3 72.5C38.8 72.6 39.7 73.1 39.7 73.1C45 68.3 49.4 73.7001 47.1 78.3001ZM138.8 75.8001C139 75.8001 139.4 76.3001 140.2 77.4001C142.7 80.9001 144.8 84.1 144.8 84.3C144.7 84.9 142.1 83.9 141.5 83C140.8 82 138.7 77 138.7 76.2C138.7 75.9 138.7 75.8001 138.8 75.8001ZM38.4 90.6001C39.7 90.8001 40 90.9001 40 91.4001C40.1 91.8001 36.9 91.9001 36.5 91.6001C36.2 91.3001 36.6 90.8 36.9 90.7C37.5 90.5 38 90.5001 38.4 90.6001ZM126.9 91.2C109.1 99.8 101.9 122.3 110.9 139.6L109.7 140.5C100.8 122.1 107.4 102.5 121.9 92.5C122.5 92.1 123.8 91.8001 124.4 91.4001C124.4 91.4001 118.5 92.8 116.5 93.5C116.1 93.5 114.9 93.9 113.6 95.3C112.5 96.3 109 101.2 109.1 101.3L99.8 101.7V102L108.9 101.8C99.5 117.3 101.8 132 107.6 142.4L107.8 142.6C110.9 140.9 114.1 137.6 116.3 134.8C111 117.7 116.7 104.3 131.5 96.7C131.5 96.5 131.5 96.0001 131.4 95.6001L130.4 94.6001C114 101.9 107.4 119.9 114.1 136.3L113 137.5C104.6 120.6 113.5 99.5 129.1 93.3L128.5 92.7C111.6 100.6 104.3 120.8 112.6 138L111.6 138.9C102.2 120.1 112.1 99 127.6 91.8L126.9 91.2ZM35.6 91.2C35.6 91.2 35.5 92.2 35.8 92.5C36 93.2 35.7 93.1 35.1 93C33.6 92.6 34.8 93.5 36 94.2C37.2 94.9 37 94.9 36 95.5C35.3 95.9 35.4 96.1 35.5 96.5C35.6 97 35.7 96.7001 36 96.4001C36.6 95.8001 37.1 95.7 37.7 95.7C38.5 95.7 38.6 96.4001 38.5 96.9001C38.2 98.0001 37.1 97.9 36.2 97.7C34.7 97.3 32.3 94.7 32.3 93.2C32.1 91.7 34 91.2 35.6 91.2ZM41.4 91.3C41.7 91.3 42.1 91.5001 42.3 91.6001C42.9 91.8001 43.6 92.1001 44.4 92.4001C45.5 92.8001 46.6 93.3 47.3 93.8C49.5 95.3 49.4 98.2 49.2 98.5L37.9 109.3C37.9 109.3 37.3 109 36.7 108.7C34.8 107.7 34.3 107.2 35.4 106.7C35.9 106.4 36.1 105.9 36.2 105.3C36.3 104.6 36.3 104.7 36.7 104.4C37.5 103.8 37.5 103.6 37.5 102.6C37.5 102 37.6 101.7 37.8 101.3C38.4 100.2 38.1 99.3 38.6 98.2C39.2 97.6 39.5 95.9001 40.1 96.4001C40.6 97.0001 40.4 97.8 40.5 98.2C40.6 98.1 41.1 97.9001 41.2 97.9001C41.4 97.8001 41.7 97.9 41.7 98.3C41.6 99.4 41.7 100.5 41.9 101.5C42.7 104.4 42.6 104 42.3 101.6C42.1 100.3 42.1 99.2 42.6 98C43.1 97.1 43.1 97 42 96.5C41.6 96.3 40.9 96.1 40.8 95.8C40.6 95.5 40.1 95 39.4 94.8C37.8 94.4 36.8 92.8001 37.1 92.6001C37.3 92.4001 37.9 92.6 38.3 92.7C39.8 92.8 40.1 92.7001 40.8 92.1001C41 91.6001 41.2 91.3 41.4 91.3ZM119.4 93.3C104.2 105.6 101.5 125.6 109.1 141L107.8 142C98.3 123.9 104.7 104.4 116.4 93.8L119.4 93.3ZM31.6 94.8C31.9 94.8 32.2 95.2 33.2 96.3C33.9 97.1 34.7 97.7 35.1 98C36 98.4 35.8 98.2 35.1 99C34.3 99.9 34.8 100.6 33.8 100.2C31.4 99.1 29.8 95.8 31.3 95C31.4 94.8 31.5 94.8 31.6 94.8ZM30.4 98.2C30.5 98.2 30.5 98.2 30.6 98.2C30.9 98.3 31.2 98.8 31.6 99.2C32.7 100.3 33.1 100.7 34 101.1C34.8 101.5 34.8 101.6 34.3 102.2C34.1 102.4 34 102.7 33.9 102.9C33.9 103.1 33.8 103.3 33.7 103.3C32.8 103.5 29.7 101.6 29.6 100.3C29.6 99.2 29.9 98.3 30.4 98.2ZM36.9 98.6001C37.4 98.6001 37.7 99.1 37.7 99.8C37.7 100.3 37.4 100.6 36.8 100.8C35.5 101.3 34.7 100.4 35.6 99.3C36 98.9 36.5 98.6001 36.9 98.6001ZM36.1 101.7C37.1 101.7 37.4 102.5 36.6 103.2C35.9 103.9 34.6 103.9 34.6 103.1C34.6 102.6 35.5 101.7 36.1 101.7ZM30 102.7C30.7 102.9 32.3 104.1 33 104.2C33 104.6 32.6 104.7 33.2 105.4C33.5 105.7 33.5 106 33.3 106.1C32.5 106.5 29.7 105.2 29.5 103.8C29.4 103.1 29.6 102.7 30 102.7ZM33.7 104.4C34.7 104.4 35.8 104.5 35.6 104.9C35.5 105.2 35.2 106.1 34.7 106C34.5 105.9 34.3 105.7 34.1 105.6C33.7 105 33.5 104.4 33.7 104.4ZM30.7 106.7C31.3 106.4 33.2 107 33.4 107.5C34.2 109.4 33.2 113.6 31.4 114.1C30.7 114.3 29.9 114.5 29.4 113.3C29.3 113.2 30.4 106.8 30.7 106.7ZM70.8 107.8C70.4 108.1 70.3 108.1 70.2 108.4C73 111 83.2 137.6 61.9 157.1L57.4 158.5C77.9 142.4 74.5 119.5 68.9 109.7C68.3 109.8 68.1 110.3 68 110.5C74.2 120.1 76.6 147.3 52 160.4L52.1 160.5C52.1 160.5 52.3 160.7 52.4 160.8C52.4 160.4 63.5 157.8 62.7 157.7C73 148.5 82 126.7 70.8 107.8ZM67.1 111.1C66.6 111.6 66.5 111.6 66.4 111.9C75.3 129.3 67 150.8 50.7 158.9C51 159.2 51.1 159.3 51.3 159.5C70.1 149.3 75.3 127.7 67.1 111.1ZM65.7 112.6C65.3 112.9 65.3 112.9 65 113.3C72.4 128.2 66.6 148.8 49.1 157.3C49.2 157.4 49.5 157.7 49.8 158C70.2 147 72.1 126.1 65.7 112.6ZM64 114.4C63.3 115.3 61.9 116.6 61.9 116.6C64.1 118.3 69.3 142.9 47.2 153.8C47.2 154.6 46.5 155.3 48 156.2C64 148.9 71 129.6 64 114.4ZM144.3 144.8C144.9 144.8 145.4 145 146 145.1C148 145.4 149.3 146.8 148.4 147.7C148.1 148 147.7 147.8 146.4 147.2C145.8 146.9 145.7 146.6 145.6 146C145.5 145.2 145.3 145.1 145.1 145.7C144.9 146.3 144.7 146.7 144 146.5C142.1 146.1 142.8 144.8 144.3 144.8ZM143 147.3C144 147.4 143.9 148 143.2 148.7C142.5 149.2 142.1 149.3 141.7 148.9C141.1 148.3 142 147.3 143 147.3ZM145.4 147.8C146 147.8 146.8 148.1 147.8 148.9C148.9 149.9 149.2 152.2 148.2 152.6C147.8 152.8 147.7 152.6 146.8 151.7C146.2 151.1 145.5 150.6 144.8 150.2C143.4 149.5 143.2 149.3 144.2 148.8C144.4 148.7 144.6 148.5 144.8 148.3C144.9 147.9 145 147.8 145.4 147.8ZM142 150C143 150.1 143.1 151.2 142.2 151.6C142 151.8 141.1 151.5 141.1 151.7C141.2 152.1 140.8 151.9 140.7 151.8C140.6 151.6 140.5 151.4 140.5 151.2C140.6 150.6 141.3 149.9 142 150ZM143.8 150.8H143.9C144.1 150.8 144.3 150.9 144.7 151.1C147 152.4 148.2 154.4 147.4 155.5C146.9 156.2 146 156 145.4 154.9C145 154.3 144.1 153.6 143 153C141.8 152.4 141.7 152.3 142.6 151.8C143 151.6 143.2 151.4 143.4 151.1C143.6 150.9 143.7 150.8 143.8 150.8ZM141.4 153.4C141.8 153.4 142.3 153.6 142.4 154C142.6 154.6 141.5 154.9 140.6 154.9C140.2 154.9 139.6 155 139.5 154.7C139.4 154.4 139.8 153.9 140 153.7C140.4 153.5 140.7 153.4 141 153.4C141.2 153.4 141.3 153.4 141.4 153.4ZM143.5 154.5C143.9 154.6 144.4 155.4 144.6 155.6C146.4 157.4 146.2 158.3 145 159C144.2 159.5 143 159.6 142.6 159.2C141.9 158.6 142 158 142.7 157.7C143.4 157.6 143.1 157.3 142.5 157.1C140.2 156.5 138.8 155.2 141.3 155.5C142 155.6 142.7 155 143.1 154.6C143.3 154.5 143.4 154.4 143.5 154.5ZM25.1 156.3L76.2 229.4H34.9C36.4 217.8 33.4 204.9 29.6 196.5C33.8 195.8 37.8 194.7 41.8 193.6L41 192.5C36.2 194.4 31.8 195.1 27.7 195.6C33.2 205 35.2 218 33.5 229.4H25.6V172.7L25.1 156.3ZM132.6 158.7C136.1 159.8 139.5 161.5 142.8 161.2C144.6 161.2 146.4 161.5 148.2 162.4C149.4 163 150 165.1 150 165.1C148.1 166.1 142.4 164.3 142.4 164.3C146.1 166.7 144.8 171 144 171.5C149 177.9 141.2 181.2 138.7 178.9C135 182.6 128.7 179.5 131.1 173.4C131.1 173.4 126.5 164.5 135.6 165.1C135.6 165.1 135.8 161.5 135.5 161.4C132.4 161.2 128.8 163.8 125.7 165.4C124.7 160.8 129.3 159.5 132.6 158.7ZM34.3 167.1C35 167.1 36.8 168.3 37 169.3C37 169.5 37.5 170.7 38 171.8C38 172 39.8 175.2 39 174.9C37.4 172.8 34.7 169.2 34 167.4C34 167.2 34.1 167.1 34.3 167.1ZM38 169.2C38.4 169.2 39.5 170.1 39.8 170.4C39.9 170.9 40.4 172.3 40.9 173.2C42 175.6 43.7 179.3 43.4 180.4C43.3 180.8 43.3 180.9 43.2 180.9C42.4 180 41.7 178.7 40.9 177.7C40.9 177.6 40.9 177.6 40.7 176.8C39.9 173.3 38.7 171.5 37.9 169.5C37.8 169.2 37.9 169.1 38 169.2ZM40.8 170.9C40.9 171 43 172.4 43.2 172.6C43.9 175.2 46.8 183.4 46 184.8C45.7 184.6 44.6 183.3 44.5 182.6C44.2 178.7 42.9 175.8 41.6 172.9C41.2 172.1 40.9 171.2 40.8 170.9ZM44.6 173.8C45.2 174.1 45.9 174.8 46.3 175.5C46.6 175.9 46.7 176.4 46.9 177.5C47.6 180.8 49 184.2 48.4 187.8C48 188.3 47.2 187.1 47 185.9C46.6 181.9 46.2 180 44.9 175.4C44.6 174.5 44.4 173.8 44.6 173.8ZM47.8 176.8C47.9 176.8 48.2 177.1 48.7 177.5C49.6 178.4 49.7 178.7 49.7 180.1C49.7 182.2 50.4 184.6 50.5 186.7C50.6 187.9 50.8 191.1 50.6 191.3C50.3 191.7 49.2 190.3 49.2 188.3C49.3 185.8 49.2 184 48.2 179.7C47.9 177.7 47.6 176.9 47.8 176.8ZM50.7 179.8C51 179.8 51.9 181 52.2 182.1C52.5 183.1 52.4 184.4 52.7 185.5C53.3 189.2 53.2 192.9 53.1 194C53 194.6 52.7 194.3 52.2 193.8C51.5 193 51.6 193 51.6 190.9C51.6 189.1 51.2 184.5 51 183.6C50.7 181.9 50.5 180.3 50.6 180C50.5 179.8 50.6 179.8 50.7 179.8ZM82.7 180.1C83.2 180.1 83.7 180.1 84.2 180.2C87.9 180.8 90.8 183.3 92.5 187.5C94.1 191.7 94.5 197.5 94.8 202.8C94.8 204.1 94.3 203.7 92.9 203C91.4 202.3 91.1 202.5 88.9 203C87.5 203.3 87.7 202.4 89.9 200.8C90.7 200.3 91.5 199.6 91.3 199.5C91.2 199.4 90.5 199.6 90 200C87.8 201.8 87.2 202.2 87.8 200.5C88 200.1 88.5 198.9 88.7 198.3C89.5 196.1 88.6 195.2 85.9 193.8C85.2 193.5 84.8 192.9 85.5 194.1C86.1 195.1 84.9 195.9 83.5 194.7C82.5 193.9 80.6 194.4 79.9 195.4C79.3 196.4 79.6 198.2 80.8 198.7C81.9 199.2 82.3 198.8 81.2 198.1C79.9 197.2 80.1 195.6 81.6 195.6C82 195.6 82.6 196 84.3 196.9C85.5 197.5 86.3 197.3 86.3 196.3C86.3 195.7 86.7 195.7 87.4 196.1C88.4 196.6 88.3 197.1 87.8 198.5C87.4 199.5 87.2 200.7 86.9 201.7C86 205.3 85.9 209.3 86.9 210.5C89.5 213.8 92.2 213.5 94.6 211.3L94.5 215C92.1 216.9 89.3 218.2 85 225.4C83.5 223.5 77 215.7 66.6 214L64.3 210.8C64.3 210.6 62.6 198.9 61.4 194.9C61.4 194.9 62.7 192.9 63.9 191.5C68.1 186.2 75.3 180.1 82.7 180.1ZM71.4 182.7C71.8 182.7 71.8 183.1 70.6 183.5C70.2 183.6 70.1 182.8 70.3 182.7C70.7 182.7 71.1 182.7 71.4 182.7ZM68.8 182.9C69 182.9 69.1 182.9 69.2 183.1C69.8 183.8 70 184.3 69.5 184.6C68.8 185.2 68.2 185 67.8 183.9C67.6 183.2 68.2 183 68.8 182.9ZM53.1 183C53.6 183.4 54.3 184.4 54.9 185.3C55.3 187.4 55.2 189.5 55.4 191.7C55.6 194 55.3 195.9 55 196.6C54.7 197.4 54 196.9 53.8 195.7C53.8 195.4 54 192.6 54 191C53.9 188.4 53.2 185.1 53.1 183ZM66.7 183.7C67.2 184.1 67.7 185.2 67.9 185.9C67.9 186.1 67.7 186.3 67.3 186.6C66.9 187 66.8 186.9 66.3 186.2C65.6 185.1 65.3 184.4 65.4 184C65.9 183.6 66.3 183.4 66.7 183.7ZM91.2 183.7C92.2 183.8 93.2 184.2 94.2 184.5L92.7 185.9C92.3 185.2 91.8 184.5 91.2 183.7ZM63.5 184.3C63.8 184.3 64.2 184.3 64.4 184.5C65 185.2 65.9 187.1 65.9 187.8C65.8 188 65.5 188.3 65.3 188.4C65.1 188.4 64.9 188.1 64.3 187C63.3 185.1 63 184.5 63.5 184.3ZM62.3 184.9C62.9 185.4 64.3 188.3 64.4 189.1C64.4 189.3 64.3 189.5 64.2 189.7C63.3 190.7 63.5 190.5 62.2 187.7C61.1 185.4 60.8 185.2 61.5 184.9C61.7 184.8 62.1 184.7 62.3 184.9ZM60.1 185.7C60.5 185.7 60.6 186.4 61.4 187.9C62.7 190.8 63.2 191.2 62.9 191.5C62.5 192 62.3 192.3 62 191.7C61.2 190.4 60.4 188.8 59.7 187.4C59.1 186.3 59.1 186.2 59.4 185.9C59.6 185.7 60 185.7 60.1 185.7ZM84.6 186.4C84 186.4 83.5 186.4 83.2 186.5C82.7 186.6 80.8 187.3 82 187.4C82.2 187.4 82.9 187.3 83.3 187.2C84.5 187.1 87 187.3 86.9 187.1C86.7 186.6 85.6 186.4 84.6 186.4ZM59.1 187.9C61 191.4 62 192.8 61.6 193.3C61.3 193.6 60.9 194.1 60.7 194C60.3 193.8 59.8 192.7 58.5 190C57.1 187.3 57 187.1 57.7 186.7C58.5 186.2 58.7 187.2 59.1 187.9ZM55.9 187.2C56.2 187.2 56.4 187.8 56.6 188C57.4 189.4 57.3 189.2 57.3 193.7C57.3 196.5 56.9 198.3 56.5 199C56.3 199.4 55.8 199.1 55.6 198.4C55.5 198.1 55.8 197.6 55.8 197.1C56.2 193.7 55.9 190.4 55.9 187.2ZM78 187.8C77.9 187.8 77.8 187.8 77.8 187.9C77.7 188.1 77.9 188.5 78.4 189.1C78.8 189.7 78.7 190.1 78.7 190.9C78.7 192 78.8 192 79.5 191.5C80.2 191 80.2 191 81.4 191.8C82.1 192.3 83 192.3 83.5 191.8C83.9 191.4 84 191.6 84.6 191.7C85.2 192 85.3 192.1 86.6 191.5C87.4 191.1 87.5 191.1 88 191.3C88.9 192.1 89 191.8 88.9 190.8C88.9 190.4 89 189.8 89.1 189.4C89.5 187.6 88.8 187.6 87.9 188.7C87.5 189.1 86.7 189.3 86 189C84.9 188.5 83.2 188.7 81.9 188.9C80.4 189.2 79.7 188.7 79.1 188.2C78.8 188 78.3 187.8 78 187.8ZM58.3 191.6C58.5 191.6 58.8 192.1 59.2 193.3C59.7 194.8 58.8 200.1 58.2 201C57.9 201.5 57.7 201.7 57.1 200.9C56.9 200.5 57 200.4 57.3 199.4C57.7 197.8 58 195.3 58 194.1C58 192.5 58.1 191.7 58.3 191.6ZM60.2 196.8C60.3 196.8 60.5 197.1 60.7 197.7C61 198.5 60.9 200.1 60.5 201.3C60.3 202 60 202.8 59.7 203.4C59.6 203.8 58.9 203.6 58.7 202.8C58.6 202.3 59 201.7 59.2 200.9C59.4 200.1 59.6 199.1 59.7 198.6C59.9 197.4 60 196.7 60.2 196.8ZM75 199.1C74.9 199.1 74.9 199.1 75 199.1C74.9 199.2 76.4 200.8 76.8 201.2C77 201.4 78.8 203.5 77.7 203C74.9 201.8 71.7 202.4 69.7 204.3C69.4 204.5 69.2 204.3 68.5 204.2C66.9 204.1 66.4 204.7 67.3 205.5C67.4 205.6 67.7 205.7 67.9 205.9C68 206.1 68 206.4 68.1 206.5C71.1 210.5 76.7 211.3 80.2 208.7C80.6 208.4 80.9 208.3 81.3 208.4C82.1 208.6 82.2 208 81.5 207C81.2 206.6 80.8 206.1 81 206C81.4 205.6 81.7 205 80.9 204.8C80.4 204.6 79.8 204 79.5 203.2C78.9 202.1 75.5 199.2 75 199.1ZM61.3 200.8C61.4 200.8 61.5 201 61.6 201C62 201.8 61.9 204.8 61.3 205.8C60.9 206.2 60.1 205.4 60.2 204.6C60.3 204 61 201.1 61.1 200.9C61.2 200.9 61.3 200.8 61.3 200.8ZM74.7 203.3C75.2 203.3 76 203.5 76.6 204.1C76.9 204.4 77.5 205.7 77.3 206.2C77.2 206.5 76.6 206.4 76.5 206.3C76.1 203.7 74.1 203.4 73.4 205.8C73.4 205.8 73 206.2 72.9 205.5C73 203.9 73.6 203.3 74.7 203.3ZM91.3 203.5C92 203.5 92.6 203.8 92.9 204.5C93.1 205 93.1 205.4 93.1 205.6C93 205.8 92.8 205.7 92.8 205.7C91.8 202.8 90.3 204.2 89.8 205.7C89.8 205.7 89.3 205.9 89.2 205.7C89.1 205.5 89.2 205.2 89.4 204.8C89.8 203.9 90.5 203.5 91.3 203.5ZM77.3 203.7C77.7 203.7 78.3 204 78.8 204.5C79.3 205 79.3 205.3 78.9 205.6C78.7 205.8 77.8 206 77.7 205.7L77 204C76.9 203.8 77.1 203.7 77.3 203.7ZM72.2 203.7C72.6 203.7 72.7 203.8 72 205.3C71.9 205.6 70.2 205.2 70.5 204.5C71.1 204.1 71.8 203.7 72.2 203.7ZM89.3 204C89.2 204.1 88.5 205.7 88.5 205.7C87.9 205.6 87.2 205.7 87.1 205.2C87 204.7 87.2 204.5 88.1 204.1C88.6 203.8 89.3 203.8 89.3 204ZM93.9 204.3C94.5 204.5 94.7 205.1 94.6 205.3C94.5 205.5 94.2 205.5 94 205.3C93.8 205.1 93.6 204.7 93.5 204.4C93.5 204.2 93.8 204.2 93.9 204.3ZM62.3 205.8C62.5 206.2 62.8 208.3 62.4 208.2C62 208.1 61.8 207.5 61.7 206.9C61.8 206.7 62.1 205.8 62.3 205.8ZM69.3 206.9C69.5 206.9 69.9 207 70.6 207.4C72.9 208.5 75.2 208.7 77.7 208.1C79.1 207.7 79.5 207.5 79.7 207.8C80 208.2 79.5 208.6 77.5 209.3C75.3 210 73 209.9 70 207.8C69.2 207.2 69 206.9 69.3 206.9ZM94.3 207.3C94.4 207.3 94.4 207.4 94.5 207.5C94.9 208.2 93.6 208.9 93 209.1C91.2 209.4 89.5 209.2 88.1 208.4C87.1 207.7 87.5 207.2 88.6 207.7C89.7 208.3 92.1 208.4 93.3 207.8C93.7 207.5 94.1 207.2 94.3 207.3ZM66.3 208.7C66.2 208.7 66.4 209.1 66.8 209.5C69.9 213 77.3 214.9 81.5 211.3C82.8 210.1 82.6 209.5 80.5 210.5C77.1 211.3 72.6 212.1 67.4 209.4C66.8 208.9 66.4 208.7 66.3 208.7ZM87.6 208.8H87.7C87.9 208.8 88.2 209 89 209.3C90.3 209.9 92.5 209.6 93.2 209.4C94.8 208.8 95.2 209.6 93.6 210.4C91.9 211.5 89.5 211 88 209.7C87.6 209.3 87.4 208.8 87.6 208.8ZM67.1 215C73.2 215.6 82.8 222 86.4 229.3H84C80.4 223.5 74.8 218.6 68.2 216.8C67.9 216.7 66.9 215.3 67.1 215ZM94 216.4V218.4C93 219.2 89 222.6 86.3 227.5C86.1 227.2 85.8 226.7 85.5 226.3C88.3 221.1 91.3 218.1 94 216.4ZM69.5 218C70.9 217.9 80 223.2 83.1 229.4H81.5C78 224.9 74.2 221.6 70.8 220.4C69.9 219.5 68.9 218 69.5 218ZM94 219.4V222.1C91.8 224.2 90.2 226.7 89 229.3H87.3C87.3 229.3 87 228.9 86.8 228.2C88.6 225 90.7 222.2 94 219.4ZM71.9 221.6C72.7 221.6 79.2 226.4 80.2 229.3H78.6C77.2 227.3 75.2 225.1 73.3 224C72.4 223.1 71.4 221.9 71.9 221.6C71.8 221.6 71.8 221.6 71.9 221.6ZM94 223.4V225.7C93 226.8 92.1 227.7 91.1 229.4H89.7C90.9 226.8 93.7 223.2 94 223.4ZM75.1 226.5C75.1 226.5 75.2 226.5 75.1 226.5C75.7 226.6 77.5 228.7 77.5 229.3H76.7C76.2 228.7 75.7 227.7 75.3 227.1C75.1 226.8 75 226.5 75.1 226.5ZM94 227V229.3H92C91.8 229.3 93.2 227.3 94 226.8V227Z" fill="#030D6D"/>
<path d="M122.6 21.5C115.5 21.5 108.4 21.5 101.4 21.6L153.7 96V79.5L136.9 57.8C140.7 56.6 145.4 55.8 149.1 55.5C144.4 45 142 35.2 144.1 21.7C136.8 21.6 129.7 21.5 122.6 21.5ZM143.2 22C142.8 26.8 142.3 32.1 143.1 38C140.4 37 139.7 38.7 139.3 38.9C138.8 37.8 136.9 35.8 134.7 38.1C133.6 39.3 134.1 41.6 136.7 42.6C133.7 42.8 132.2 40.3 131.7 37.7C130.1 36.7 128.4 35.7 128.2 32L129 32.1C128.7 34.6 131.3 35.9 132.9 34.7C133.9 33.9 134 32.8 133.6 30.9C134.4 30.7 136.3 30 135.8 27.6C135.1 24.3 131.7 24.7 130.2 26.9C128.9 25.3 126.6 25 125.6 27.5C125.1 28.9 126.3 30.4 127.6 30.7C124.6 31.3 123 27.1 122.9 24.3L121.6 22.1C129.9 22 133.5 22 143.2 22ZM117.6 22.1H118.6C119.4 27.2 122.3 30.8 127.2 32.6C127.5 36.7 129.4 42.4 137 44.3C136.8 49 139.8 53.4 143 55.6C143 55.6 142.1 55.8 141.5 55.9C137.2 52.5 135.7 45.4 135.7 45.4C134.3 44.9 127.3 42.3 125.9 33C122.7 32.3 117.7 27.2 117.6 22.1ZM113.7 22.1H117.1C117.4 26.2 119.9 31.1 125.5 33.4C126.8 40 129.4 43 135.3 45.7C136.2 49.6 138.5 54.4 140.9 55.9L139.6 56.2L113.7 22.1ZM130.3 28.3C131.1 28.3 131.7 28.9 131.7 29.7C131.7 30.5 131.1 31.1 130.3 31.1C129.5 31.1 128.9 30.5 128.9 29.7C128.9 29 129.5 28.3 130.3 28.3ZM83.3001 36C83.4001 36.2 64.3001 52.4 66.1001 82.9L65.5001 83.5L65.7001 83.7C65.1001 84.4 64.5001 85 63.8001 85.7C67.8001 88.2 74.7001 91 74.7001 90.9L73.4001 94L81.7001 96.7L80.6001 99.6C80.6001 99.6 74.9001 97.7 72.5001 96.9C71.3001 99.5 70.6001 102.3 69.8001 105C69.7001 105.2 69.5001 105.1 69.2001 104.7C64.8001 97.3 56.0001 92.1 56.3001 92.6L25.0001 122.3L24.8001 140.7L46.4001 163C46.4001 163 40.1001 166.1 37.2001 168.1C39.5001 170 42.1001 171.4 44.4001 173.2C49.1001 176.5 52.3001 181.5 55.4001 184.8C69.9001 177.6 84.5001 178 97.1001 182.4C95.6001 183.9 94.0001 185.3 92.5001 187C96.2001 196.6 95.0001 215.7 94.8001 216.3C102.4 208.5 113.8 191.8 112.2 168.2L115.4 165C115.3 164.8 107.4 160.6 104.1 159.6L105 156.7L97.1001 154.2L98.0001 151.9L105.9 154.2C107.4 150.5 109 145.3 109 145.3C112.2 150 115.6 154.4 122.8 158.7L153.9 128.9L153.7 109.7L132.5 88.5L141.3 83.9C140.5 83.2 139.2 82.6 138.4 81.9C138.3 81.9 138.6 81.7 138.5 81.7C138.3 81.5 138.1 81.4 137.9 81.2C137.8 81.2 137.7 81.4 137.6 81.4C134.6 79.3 131.6 77.2 129.3 74.7C129.2 74.6 129.3 74.4 129.3 74.3C128.1 73 126.9 71.8 125.6 70.5C125 69.9 124.1 68.5 124.1 68.5L124 68L122.7 66.3C118.4 68.8 100.1 75.2 82.3001 68.2L85.7001 64.8C84.8001 62.6 84.2001 60.2 84.0001 58.2C83.0001 50.3 83.3001 36 83.3001 36ZM139.3 40.5C140.1 40.5 140.8 41.2 140.8 42C140.8 42.8 140.1 43.5 139.3 43.5C138.5 43.5 137.8 42.8 137.8 42C137.8 41.1 138.5 40.5 139.3 40.5ZM143.9 42.2C144.6 45.9 146.3 51.2 147.9 54.8L145.9 55C144.3 54 142.6 52.5 142.4 50.3C138.1 50.3 136.8 43.6 138.4 44.4C138.2 46.7 139.9 47.6 141.5 47.4C142.9 47.2 144.1 45.3 142.4 43.1C143.3 42.9 143.6 42.6 143.9 42.2ZM82.9001 53.1C83.2001 57.8 84.1001 61.2 85.0001 64.8L76.5001 72.8C77.1001 65.4 79.2001 58.9 82.9001 53.1ZM123.7 68.5L124.8 70.1C112.5 77.3 91.5001 77.8 78.7001 71.7L80.4001 70.1C91.6001 75.2 109.9 75.6 123.7 68.5ZM43.8001 70.9C42.6001 70.9 41.1001 71.4 39.6001 72.5C34.0001 70 30.3001 76 33.8001 80C33.3001 82.9 32.9001 83.4 35.0001 86.3C32.7001 86.6 29.8001 86 27.4001 85.6C27.8001 89.8 33.9001 90.8 36.4001 90.4C39.1001 89.8 41.7001 91.2 41.8001 91.2C43.4001 91.6 44.4001 92.4 46.0001 92.8C49.0001 93.2 52.4001 90.8 52.9001 86.6C51.1001 87.1 49.2001 87.7 47.4001 88.1C45.7001 88.5 44.4001 88.9 43.1001 89.9L43.0001 86.4C51.8001 86.8 48.0001 78.4 47.5001 78C49.2001 74.7 47.3001 71 43.8001 70.9ZM124.1 71.2L126 75.8L120.9 77.5L119.6 73L124.1 71.2ZM43.5001 71.3C46.5001 71.3 49.2001 74.5 46.3001 78C51.9001 82.9 44.7001 88.2 41.3001 84.6C36.8001 88.8 31.9001 84.4 34.5001 79.9C29.7001 75.6 35.6001 69.7 39.7001 73.5C40.7001 72 42.1001 71.3 43.5001 71.3ZM78.3001 73C79.0001 73 79.6001 73.6 79.6001 74.3C79.6001 75 79.0001 75.6 78.3001 75.6C77.6001 75.6 77.0001 75 77.0001 74.3C77.0001 73.6 77.6001 73 78.3001 73ZM45.2001 73.1C45.1001 73.1 45.1001 73.1 45.2001 73.1C43.9001 74 43.2001 75.3 42.1001 76.3C40.6001 75.8 39.5001 76.1 38.6001 76.8C37.1001 76 36.7001 75.4 35.3001 74.7C34.8001 74.5 34.8001 75 34.9001 75.2C35.9001 76.3 36.9001 76.7 38.1001 77.6C38.0001 78.7 38.2001 79.6 38.6001 80.4C37.8001 82 37.0001 82.4 36.3001 84.1C36.2001 84.4 36.4001 84.5 36.6001 84.3C37.8001 83.3 38.4001 82.3 39.4001 81C41.0001 81.5 41.5001 81.2 42.5001 80.9C43.5001 81.6 44.2001 82.4 45.5001 83.1C45.9001 83.3 45.9001 82.7 45.9001 82.7C45.0001 81.9 44.0001 81.2 43.1001 80.3C43.6001 78.3 43.1001 77.6 42.7001 77C43.5001 75.9 44.5001 75 45.4001 73.4C45.3001 73.3 45.2001 73.2 45.2001 73.1ZM81.3001 73.4L85.9001 74.8L84.9001 79.6L80.0001 78L81.3001 73.4ZM114.5 74.6L115.8 79.3L111 80.6L110.2 75.6L114.5 74.6ZM117.9 74.7C118.6 74.7 119.2 75.3 119.2 76C119.2 76.7 118.6 77.3 117.9 77.3C117.2 77.3 116.6 76.7 116.6 76C116.6 75.3 117.2 74.7 117.9 74.7ZM128.8 74.8L132.8 78.4L128.3 80.7L126.2 76L128.8 74.8ZM90.8001 75.9L95.5001 76.5L95.3001 81.5L90.0001 80.7L90.8001 75.9ZM74.6001 75.9L79.8001 78.2L78.0001 83.5L72.7001 81.2L74.6001 75.9ZM88.0001 76.3C89.9001 76.6 89.4001 78.9 88.0001 78.9C87.3001 78.9 86.7001 78.3 86.7001 77.6C86.7001 76.9 87.3001 76.3 88.0001 76.3ZM104.8 76.3L105.4 81.3L100.6 81.6L100.5 76.5L104.8 76.3ZM40.6001 76.8C41.6001 76.8 42.5001 77.6 42.5001 78.7C42.5001 79.7 41.7001 80.6 40.6001 80.6C39.6001 80.6 38.7001 79.8 38.7001 78.7C38.7001 77.6 39.6001 76.8 40.6001 76.8ZM108.2 76.9C108.9 76.9 109.5 77.5 109.5 78.2C109.5 78.9 108.9 79.5 108.2 79.5C107.5 79.5 106.9 78.9 106.9 78.2C106.9 77.5 107.5 76.9 108.2 76.9ZM98.1001 77.3C98.8001 77.3 99.4001 77.9 99.4001 78.6C99.4001 79.3 98.8001 79.9 98.1001 79.9C97.4001 79.9 96.8001 79.3 96.8001 78.6C96.8001 77.9 97.4001 77.3 98.1001 77.3ZM120.9 77.7L122.8 82.9L117.5 84.6L116 79.3L120.9 77.7ZM40.6001 77.7C40.0001 77.7 39.6001 78.1 39.6001 78.7C39.6001 79.3 40.0001 79.7 40.6001 79.7C41.2001 79.7 41.6001 79.3 41.6001 78.7C41.6001 78.1 41.2001 77.7 40.6001 77.7ZM124.6 77.8C125.3 77.8 125.9 78.4 125.9 79.1C125.9 79.8 125.3 80.4 124.6 80.4C123.9 80.4 123.3 79.8 123.3 79.1C123.3 78.4 123.9 77.8 124.6 77.8ZM133.8 79.3L137.2 81.7L135.5 82.6C135.1 81.6 134.3 80.3 133.8 79.3ZM84.9001 79.7L90.0001 80.8L89.2001 86.1L83.6001 85L84.9001 79.7ZM69.8001 80L72.5001 81.3L70.7001 85.7L66.4001 83.4L69.8001 80ZM81.8001 80.3C82.5001 80.3 83.1001 80.9 83.1001 81.6C83.1001 82.3 82.5001 82.9 81.8001 82.9C81.1001 82.9 80.5001 82.3 80.5001 81.6C80.5001 80.9 81.1001 80.3 81.8001 80.3ZM111 80.6L111.9 85.9L106.2 86.7L105.8 81.3L111 80.6ZM132.4 80.7C133.1 80.7 133.7 81.3 133.7 82C133.7 82.7 133.1 83.3 132.4 83.3C131.7 83.3 131.1 82.7 131.1 82C131.1 81.3 131.7 80.7 132.4 80.7ZM128.3 80.7L130.2 85.4L124.6 87.7L122.9 83L128.3 80.7ZM114.1 81.1C114.8 81.1 115.4 81.7 115.4 82.4C115.4 83.1 114.8 83.7 114.1 83.7C113.4 83.7 112.8 83.1 112.8 82.4C112.8 81.7 113.4 81.1 114.1 81.1ZM95.3001 81.6L100.6 81.7L100.5 87.1L94.7001 86.9L95.3001 81.6ZM138 82L140.1 83.5C118.5 97.4 88.1001 99.2 64.5001 85.4C64.5001 85.4 65.5001 84.4 66.0001 83.9C87.3001 96.7 118.5 94.9 138 82ZM92.4001 82.6C93.1001 82.6 93.7001 83.2 93.7001 83.9C93.7001 84.6 93.1001 85.2 92.4001 85.2C91.7001 85.2 91.1001 84.6 91.1001 83.9C91.1001 83.2 91.7001 82.6 92.4001 82.6ZM103.3 82.9C104 82.9 104.6 83.5 104.6 84.2C104.6 84.9 104 85.5 103.3 85.5C102.6 85.5 102 84.9 102 84.2C102 83.5 102.6 82.9 103.3 82.9ZM77.9001 83.6L83.5001 85.2L82.6001 89.6L76.5001 87.8L77.9001 83.6ZM74.2001 83.6C74.9001 83.6 75.5001 84.2 75.5001 84.9C75.5001 85.6 74.9001 86.2 74.2001 86.2C73.5001 86.2 72.9001 85.6 72.9001 84.9C72.9001 84.2 73.5001 83.6 74.2001 83.6ZM117.5 84.6L118.8 89.6L112.6 90.9L111.9 86L117.5 84.6ZM121.1 85.3C121.8 85.3 122.4 85.9 122.4 86.6C122.4 87.3 121.8 87.9 121.1 87.9C120.4 87.9 119.8 87.3 119.8 86.6C119.8 85.9 120.3 85.3 121.1 85.3ZM40.5001 86.1V89.6C39.5001 88.8 38.3001 87.9 37.1001 86.9C38.4001 87 39.5001 86.6 40.5001 86.1ZM27.9001 86.2C28.2001 86.2 28.8001 86.4 29.6001 86.4C32.1001 86.4 36.8001 87.2 38.2001 88.3C38.7001 88.7 39.4001 89 39.7001 89.6C39.7001 89.9 39.3001 89.9 38.7001 89.5C37.5001 88.8 35.6001 88.1 33.0001 87.8C32.5001 87.7 32.5001 87.8 32.5001 88C32.5001 88.3 32.9001 88.4 34.3001 88.7C36.1001 89 36.4001 89.2 36.8001 89.3C37.8001 89.6 37.2001 90 36.1001 90.1C31.7001 90.5 28.4001 88.6 27.7001 86.4C27.7001 86.2 27.7001 86.2 27.9001 86.2ZM89.1001 86.2L94.6001 86.9L94.3001 91.5L88.2001 90.8L89.1001 86.2ZM41.5001 86.4C41.7001 86.4 41.9001 86.5 42.1001 86.6C43.1001 87.3 42.4001 89.7 41.9001 90.3C41.6001 90.7 40.8001 90.5 40.8001 89.9C40.9001 89.4 40.8001 87.1 40.9001 86.4C41.1001 86.4 41.3001 86.4 41.5001 86.4ZM106.2 86.8L106.5 91.6L100.5 91.9V87.2L106.2 86.8ZM85.8001 87.2C86.5001 87.2 87.1001 87.8 87.1001 88.5C87.1001 89.2 86.5001 89.8 85.8001 89.8C85.1001 89.8 84.5001 89.2 84.5001 88.5C84.5001 87.8 85.1001 87.2 85.8001 87.2ZM52.2001 87.2C52.4001 90.7 47.0001 93.1 45.0001 92C44.1001 91.5 44.5001 91.2 46.2001 90.9C48.5001 90.3 50.0001 89.7 50.0001 89.3C50.0001 89 49.7001 89.1 48.7001 89.4C47.3001 89.9 45.8001 90.1 44.4001 90.7C43.4001 91.2 43.0001 91.3 42.7001 91C42.2001 90.4 44.5001 88.9 46.9001 88.5C48.8001 88.3 50.6001 87.4 52.2001 87.2ZM109.6 87.7C110.3 87.7 110.9 88.3 110.9 89C110.9 89.7 110.3 90.3 109.6 90.3C108.9 90.3 108.3 89.7 108.3 89C108.3 88.3 108.8 87.7 109.6 87.7ZM97.4001 88.6C98.1001 88.6 98.7001 89.2 98.7001 89.9C98.7001 90.6 98.1001 91.2 97.4001 91.2C96.7001 91.2 96.1001 90.6 96.1001 89.9C96.1001 89.2 96.7001 88.6 97.4001 88.6ZM126.4 90.8C135.1 99.1 144.7 108.7 152.5 116.6C152.5 120.7 152.5 129 152.5 129L122.4 157.7C117 154.4 112.3 150.2 108.1 142.8C108.6 142.4 109.2 142 109.5 141.6L107.7 142.6C102.2 133.7 99.8001 116 109.2 101.8L99.7001 102.1L101.3 98.9L111.7 98.3L115.9 93.8C115.9 93.8 117.2 93.6 118.3 93.3C119.4 93 121.6 92.4 123.3 91.9C125 91.3 126.4 90.8 126.4 90.8ZM56.1001 93.1C56.1001 93.1 65.0001 98 70.0001 107.7C53.9001 121.6 47.9001 137.7 46.5001 154.5C37.8001 146.3 33.3001 141.8 25.4001 133.8L25.7001 121.9L56.1001 93.1ZM89.9001 94.7C87.6001 99.7 85.6001 105.1 83.8001 110.9L81.3001 110.2C81.3001 110.2 82.9001 109.5 83.6001 109.1L82.3001 107L84.8001 106L83.3001 104.2L85.8001 102.8L84.6001 101.2L86.9001 100.1L85.5001 98.5L87.9001 97.2L86.7001 95.6L89.9001 94.7ZM90.7001 94.7C90.7001 94.7 91.0001 94.8 91.4001 94.8C91.5001 94.8 91.0001 96.1 91.0001 96.1C91.9001 96.3 91.9001 96.2 92.2001 96.3L92.9001 94.9L94.0001 95.1C91.8001 100.1 89.5001 105.5 88.1001 111.4L86.8001 111.1C86.8001 111.1 87.2001 109.9 87.2001 109.7C87.0001 109.7 86.3001 109.4 86.1001 109.3C86.0001 109.5 85.6001 110.9 85.6001 110.9H84.6001C86.2001 104.6 89.0001 97.5 90.7001 94.7ZM94.9001 94.9L97.2001 96.8L94.6001 97.8L95.9001 99.6L93.2001 100.6L94.8001 102.5L92.1001 103.5L93.7001 105.7L90.9001 106.7L92.7001 108.7L90.2001 109.9L91.7001 111.4C91.7001 111.4 90.1001 111.9 90.0001 111.9C89.7001 112 88.7001 111.7 88.7001 111.7C90.2001 105.9 92.2001 100.1 94.9001 94.9ZM39.6001 95.9C39.0001 96.3 39.3001 97.2 38.5001 98C38.4001 98.1 38.4001 98.4 38.3001 98.7C38.3001 98.9 37.6001 101.4 37.6001 101.4C37.6001 101.4 37.8001 101.2 38.0001 100.4C38.2001 99.7 38.4001 98.4 38.5001 98.2C39.1001 98 39.2001 96.1 39.8001 96.4C40.1001 96.6 40.1001 96.9 39.9001 97.6C39.5001 99.1 39.3001 99.7 40.0001 98.7C41.1001 97.4 41.2001 96.2 40.0001 96C39.9001 95.9 39.6001 95.9 39.6001 95.9ZM55.8001 96.4L27.7001 122.8L27.6001 132.7L37.4001 142.6L44.3001 149.3C46.8001 134.2 52.6001 119.8 66.8001 107.3C64.7001 103.9 60.9001 99.5 55.8001 96.4ZM131.5 96.7C115 104.5 111.2 120.4 116.3 134.9C124.2 124.7 130.4 115.2 131.5 96.7ZM72.8001 97.5L80.3001 99.9L77.5001 109.6L70.7001 107.5L70.0001 105.8L72.8001 97.5ZM130.7 97.7C130 110.6 125.1 123.2 116.7 133.1C112.4 122.6 115 105.7 130.7 97.7ZM90.3001 97.8L89.9001 99L90.9001 99.3L91.3001 98.1L90.3001 97.8ZM89.3001 100.6L88.9001 101.8L90.0001 102.2L90.4001 101L89.3001 100.6ZM133.5 100.8C131.2 118.7 121.5 135 111.3 143.3C114.5 148.6 118.4 152 122.2 154.8L150.9 127.2L150.8 118L133.5 100.8ZM56.9001 101.4C57.9001 101.3 58.2001 103.8 57.7001 105.6C57.5001 106.3 57.5001 106.6 57.5001 106.6C57.5001 106.6 57.8001 106.3 58.7001 105.8C64.3001 103 62.5001 107.3 59.9001 108.9C59.3001 109.2 58.7001 109.6 58.7001 109.6C58.7001 109.6 59.3001 109.7 59.9001 109.8C63.3001 110.5 62.6001 112.5 59.0001 112.2C58.5001 112.2 57.9001 112.1 57.9001 112.1C57.9001 112.1 58.1001 112.9 58.4001 113.5C59.6001 116.5 57.4001 116.8 55.9001 114.8C55.7001 114.5 55.2001 113.8 55.2001 113.8C55.2001 113.8 55.1001 114.4 55.0001 114.9C53.7001 119.7 50.6001 119.5 51.8001 114.7C51.9001 114.2 52.1001 113.3 52.1001 113.3C52.1001 113.3 51.4001 113.7 50.6001 114.1C46.5001 115.9 45.9001 114 49.6001 111.3C50.7001 110.5 51.0001 110.2 51.0001 110.2C50.3001 110.1 49.7001 110 49.2001 109.9C46.2001 109.2 45.5001 107.4 50.2001 107.5C50.9001 107.5 51.6001 107.6 51.6001 107.6C51.6001 107.6 51.4001 106.6 51.1001 105.8C50.0001 102.2 52.3001 101.8 54.2001 105C54.6001 105.7 54.7001 105.7 54.7001 105.7C54.7001 103.8 55.6001 101.5 56.9001 101.4ZM108.4 102.1C106.4 105.6 104.7 109.1 103.9 112.7L96.2001 112.6C96.7001 109.4 98.1001 106 99.7001 102.5C102.9 102.4 105.7 102.2 108.4 102.1ZM88.2001 103.6L87.8001 104.9L88.9001 105.2L89.3001 103.9L88.2001 103.6ZM30.8001 106C30.0001 108.1 29.7001 110.5 29.2001 112.4C29.0001 113.5 29.2001 114 29.9001 114.2C30.8001 114.6 32.2001 114.1 33.0001 113C33.4001 112.4 33.7001 111.1 33.8001 108.9L33.9001 106.9C32.7001 106.7 31.9001 106.4 30.8001 106ZM87.1001 106.3L86.7001 107.5L87.8001 107.9L88.2001 106.7L87.1001 106.3ZM136.8 106.7C138.1 106.7 138.3 106.9 139.5 107.6L141.8 110C141.2 110.6 140.8 111.4 140.8 112.3C140.8 114 142.2 115.5 143.9 115.5C144.8 115.5 146.1 114.6 146.1 114.6L149.7 118.4C147.4 119.3 145.7 117.6 144.5 116C144.4 117.5 143.2 122.5 140.9 122.9C139.1 122.6 140.9 115.6 141 115.7C139.8 117 133.8 118.4 134.3 116.9C135.1 114 139.6 112.9 140.1 112.4C137.9 110.9 134.9 106.9 136.8 106.7ZM31.1001 106.8C31.9001 106.9 32.4001 106.9 32.9001 107.2C33.1001 107.3 33.1001 107.5 33.2001 107.6C33.2001 108.4 33.4001 110.9 32.6001 111C31.7001 111 30.9001 111.2 30.3001 111.6C29.8001 112 29.7001 111.7 29.8001 110.8C29.9001 109.9 30.4001 108.1 30.5001 107.3C30.6001 107 30.8001 106.8 31.1001 106.8ZM54.5001 106.9C52.8001 106.9 51.4001 108.3 51.4001 110.1C51.4001 111.8 52.8001 113.3 54.5001 113.3C56.2001 113.3 57.6001 111.9 57.6001 110.1C57.7001 108.3 56.3001 106.9 54.5001 106.9ZM54.5001 108C55.6001 108 56.5001 108.9 56.5001 110.1C56.5001 111.2 55.6001 112.1 54.5001 112.1C53.4001 112.1 52.5001 111.2 52.5001 110.1C52.5001 108.9 53.4001 108 54.5001 108ZM70.7001 108C77.9001 120.5 77.1001 137.6 68.6001 150.1L77.7001 149.5L76.5001 151.8L66.8001 152.8C65.3001 154.2 64.0001 155.7 62.5001 157.2V157.7C59.2001 158.5 55.8001 159.4 52.4001 160.6C50.6001 158.8 47.2001 155.3 47.2001 155.2L47.4001 154.1C70.6001 142.3 63.8001 118.5 62.2001 116.5C65.0001 113.3 68.0001 110.3 70.7001 108ZM54.5001 109.5C54.2001 109.5 54.0001 109.7 54.0001 110C54.0001 110.3 54.2001 110.5 54.5001 110.5C54.8001 110.5 55.0001 110.3 55.0001 110C55.0001 109.7 54.8001 109.5 54.5001 109.5ZM135 110.3C135.9 110.3 136.7 111.1 136.7 112C136.7 112.9 135.9 113.7 135 113.7C134.1 113.7 133.3 112.9 133.3 112C133.3 111 134.1 110.3 135 110.3ZM142.6 110.7L143.7 111.8C143.6 111.9 143.5 112.1 143.5 112.2C143.5 112.5 143.7 112.7 144 112.7C144.2 112.7 144.3 112.6 144.4 112.5L145.4 113.6C145 114 144.5 114.2 144 114.2C142.9 114.2 142 113.3 142 112.2C142 111.6 142.2 111.1 142.6 110.7ZM44.8001 111.1C45.7001 111.1 46.5001 111.9 46.5001 112.8C46.5001 113.7 45.7001 114.5 44.8001 114.5C43.9001 114.5 43.1001 113.7 43.1001 112.8C43.1001 111.9 43.9001 111.1 44.8001 111.1ZM31.7001 111.8C31.9001 111.8 32.0001 111.8 32.2001 111.9C33.0001 112.2 32.8001 112.9 31.8001 113.6C31.1001 114 30.5001 114.1 29.9001 113.8C28.9001 113.2 30.6001 111.8 31.7001 111.8ZM45.3001 116L35.1001 125.9C35.7001 124.3 35.8001 122.6 35.8001 121C38.9001 121.3 40.2001 119.8 39.7001 116.5C41.7001 116.6 43.8001 116.4 45.3001 116ZM61.7001 117.1C66.4001 130.7 62.3001 145 47.5001 153.3C48.1001 140.4 53.5001 127.9 61.7001 117.1ZM75.2001 118.3C83.3001 120.4 92.6001 121.4 102.2 121.4C102.3 125.1 102.4 129 103.2 132.7C95.0001 130.5 85.8001 129.5 75.8001 129.7C76.3001 125.9 75.7001 121.5 75.2001 118.3ZM135.6 120.3L126.9 130.5L127.3 124.9C130.2 125.3 131.3 123.7 130.8 120.7C132.5 120.9 134.1 120.6 135.6 120.3ZM51.3001 120.9L50.6001 125C48.9001 125 47.2001 125.7 47.2001 129.5L42.0001 129.4L51.3001 120.9ZM146.8 121.6C147.7 121.6 148.5 122.4 148.5 123.3C148.5 124.2 147.7 125 146.8 125C145.9 125 145.1 124.2 145.1 123.3C145.1 122.4 145.9 121.6 146.8 121.6ZM43.5001 122.1C44.4001 122.1 45.2001 122.9 45.2001 123.8C45.2001 124.7 44.4001 125.5 43.5001 125.5C42.6001 125.5 41.8001 124.7 41.8001 123.8C41.8001 122.9 42.5001 122.1 43.5001 122.1ZM143 123.9L142.1 130.1C139.7 129.9 137.8 130.3 138.4 134.4C136.4 134.2 133.6 134.7 131.8 134.8L143 123.9ZM134.6 125C135.5 125 136.3 125.8 136.3 126.7C136.3 127.6 135.5 128.4 134.6 128.4C133.7 128.4 132.9 127.6 132.9 126.7C132.9 125.8 133.6 125 134.6 125ZM31.0001 126.3C31.9001 126.3 32.7001 127.1 32.7001 128C32.7001 128.9 31.9001 129.7 31.0001 129.7C30.1001 129.7 29.3001 128.9 29.3001 128C29.3001 127.1 30.1001 126.3 31.0001 126.3ZM36.7001 128.3C38.9001 128.8 37.9001 133.9 37.4001 135.2C37.4001 135.2 43.5001 132 43.8001 133.4C44.0001 136.3 38.8001 138.3 38.8001 138.3C38.8001 138.3 42.4001 141.4 42.5001 143.3C42.5001 144.6 41.0001 144.3 39.1001 142.7C38.3001 141.9 37.6001 141.3 37.1001 140.7C37.8001 140.1 38.2001 139.3 38.2001 138.3C38.2001 136.6 36.8001 135.1 35.1001 135.1C34.1001 135.1 33.3001 135.5 32.7001 136.2C32.2001 135.8 31.7001 135.3 31.1001 134.6C30.0001 133.5 29.2001 132.7 29.3001 132.3C30.8001 131.3 33.7001 134.1 34.0001 134.3C33.5001 134 35.1001 128.6 36.7001 128.3ZM126 132.7C127.6 132.7 126.8 136 126.3 137.6C126.3 137.6 127.2 136.9 127.6 136.7C130.4 135.4 131.5 136.9 130 138.6C129.3 139.5 128.4 139.7 127.6 140.4C129.5 140.5 131.1 140.9 132.1 142.5C131.3 144 128.7 143.6 126.6 143.1C127.8 144.5 128.3 148.3 126.9 148.3C125.4 147.9 124.7 146.2 124.1 145C123.6 146.3 123.1 147.8 122.1 148.8C121 149.8 120.5 149 120.5 147.3C120.5 146.6 121 144.6 121 144.6C114.7 146.7 115.1 143.8 120.1 141.3C117.1 139.8 115.2 138.5 120.4 138.2C120.3 138.1 119.4 135.3 120.3 134.6C121.2 134 123.1 136.1 123.2 136.2C123.8 134.4 124.4 132.7 126 132.7ZM34.8001 136.4C35.9001 136.4 36.8001 137.3 36.8001 138.5C36.8001 139.2 36.5001 139.7 36.0001 140.1C35.5001 139.6 35.3001 139.4 34.9001 139C35.0001 138.9 35.1001 138.7 35.1001 138.6C35.1001 138.3 34.9001 138.1 34.6001 138.1C34.4001 138.1 34.3001 138.2 34.2001 138.3C33.9001 138 33.5001 137.6 33.2001 137.3C33.6001 136.7 34.2001 136.4 34.8001 136.4ZM148.1 136.5C147 136.6 146.3 137.6 145.8 138.4C145.7 138.6 145.5 138.6 145.4 138.9C144.9 140.4 144.5 142.1 144.3 144.3C145 144.6 146.6 145.1 147.3 144.8C147.5 144.7 147.4 144.2 147.5 144C147.9 143 150.5 136.3 148.1 136.5ZM147.8 136.9C148.1 136.9 148.3 137 148.5 137.4C148.8 138.1 147.9 138.8 146.7 138.8C146 138.8 145.8 138.9 146.1 138.3C146.3 137.8 147.1 136.9 147.8 136.9ZM133 136.9C133.9 136.9 134.7 137.7 134.7 138.6C134.7 139.5 133.9 140.3 133 140.3C132.1 140.3 131.3 139.5 131.3 138.6C131.3 137.7 132.1 136.9 133 136.9ZM43.4001 137C44.3001 137 45.1001 137.8 45.1001 138.7C45.1001 139.6 44.3001 140.4 43.4001 140.4C42.5001 140.4 41.7001 139.6 41.7001 138.7C41.7001 137.8 42.5001 137 43.4001 137ZM123.8 137.7C122.1 137.7 120.7 139.1 120.7 140.9C120.7 142.6 122.1 144.1 123.8 144.1C125.5 144.1 126.9 142.7 126.9 140.9C126.9 139.1 125.5 137.7 123.8 137.7ZM81.8001 138.1C81.0001 141.7 79.7001 145.2 78.1001 148.6C75.1001 148.8 71.8001 148.9 69.6001 149.2C73.2001 142.9 73.3001 141.4 74.6001 138L81.8001 138.1ZM87.0001 138.6C87.9001 138.7 88.8001 138.8 89.6001 139C88.1001 144.5 86.0001 150.1 83.4001 155.5L81.8001 155.3L81.0001 154.4L83.5001 153.4L81.5001 151.4L84.8001 150.4L82.8001 148.4L86.0001 147.6L84.3001 145.5L87.2001 144.4L85.4001 142L88.5001 141.1L87.0001 138.6ZM123.8 138.8C124.9 138.8 125.8 139.7 125.8 140.9C125.8 142 124.9 142.9 123.8 142.9C122.7 142.9 121.8 142 121.8 140.9C121.8 139.7 122.7 138.8 123.8 138.8ZM90.2001 139.1L91.3001 139.3L91.0001 140.5L92.2001 140.8L92.6001 139.5C92.6001 139.5 93.6001 139.6 93.7001 139.7C92.4001 145 87.8001 156 87.8001 155.9L86.6001 155.7L86.9001 154.6L85.8001 154.4C85.8001 154.4 85.4001 155.2 85.3001 155.6L84.1001 155.5C86.9001 149.1 88.8001 144.1 90.2001 139.1ZM147.6 139.5C148.5 139.5 148.4 139.9 147.8 141.6C147.2 143.1 147 143.8 146.7 144C146 144.5 144.5 144.1 144.7 143.4C145.1 141.1 145.2 140.1 145.8 139.8C146.4 139.6 147 139.5 147.6 139.5ZM94.5001 139.7L97.3001 140.2L94.9001 141.6L96.4001 143.4L93.5001 144.6L95.3001 146.4L92.5001 147.5L94.2001 149.5L91.3001 150.7L93.3001 152.4L90.0001 153.4L91.2001 155.3L90.0001 156L88.5001 155.8C91.1001 150.1 92.7001 145.3 94.5001 139.7ZM123.8 140.3C123.5 140.3 123.3 140.5 123.3 140.8C123.3 141.1 123.5 141.3 123.8 141.3C124.1 141.3 124.3 141.1 124.3 140.8C124.3 140.5 124.1 140.3 123.8 140.3ZM101.5 141.1L107 142.6L108.1 144.6L105.5 153.4L98.1001 151.2L101.5 141.1ZM90.5001 142L90.0001 143.4L91.2001 143.7L91.7001 142.2L90.5001 142ZM89.4001 145.3L88.9001 146.7L90.0001 147L90.5001 145.5L89.4001 145.3ZM88.3001 148.2L87.8001 149.6L88.9001 149.8L89.4001 148.4L88.3001 148.2ZM140.2 150.8C140.2 150.8 139.6 151.2 139.5 151.4C139.6 151.7 140 152.2 139.9 152.6C139.9 152.8 139.6 153.1 139.2 153.5C138.2 154.7 137.8 154.6 138.4 153.3C138.6 152.9 138.7 152.5 138.7 152.5C138.5 152.8 138.3 153.2 138.1 153.6C137.8 154.3 137.4 154.9 137.4 154.9C138.1 155.1 138.5 155.6 138.9 155.9C138.9 155.9 139.1 155.3 139.3 154.8C139.5 154 139.9 153.7 140.4 153.4C140.7 153.2 141 152.9 141 152.9C140.5 152.3 140.5 151.5 140.2 150.8ZM87.2001 151.2L86.6001 152.7L87.7001 153L88.3001 151.4L87.2001 151.2ZM24.7001 155C24.6001 161.1 24.8001 165.1 24.6001 171.6L41.0001 193L38.4001 193.9C38.4001 193.9 38.4001 194.2 38.2001 194.2C34.7001 195.2 29.0001 196.1 29.0001 196.1C33.2001 205.8 36.0001 217.9 34.1001 230L76.6001 229.9L24.7001 155ZM78.9001 156.3C91.2001 156.4 103.5 159.5 114.5 165.3L113 166.8C91.4001 155.1 61.7001 155.1 39.9001 169.3L38.1001 168C50.8001 159.9 64.9001 156.2 78.9001 156.3ZM132.8 158.5C127.5 159.5 124.9 161.6 125.4 165.2C125.5 166.6 127.1 165.1 127.1 165.1C127.1 165.1 130 162.8 135.5 161.7L135.3 165C128.4 165 128.8 170.5 130.8 173.3C130.1 174.6 128.6 179.2 133.6 181C136.1 181.5 138.7 179.5 138.6 179.4C143.2 181.6 148.5 177.9 144.4 171.6C146 168.8 144.9 166.8 143.4 165C145.5 165.3 147.5 165.9 150.4 165.9C150.4 162.9 147.9 161.6 142.8 161.2C139.1 161.6 132.8 158.4 132.8 158.5ZM77.4001 158.8H78.1001L77.9001 163.9L72.3001 164.2L71.9001 159.1C73.9001 158.9 75.7001 158.8 77.4001 158.8ZM84.1001 158.9L90.1001 159.6L89.2001 164.3L83.7001 163.7L84.1001 158.9ZM132.7 159C133.2 159.1 133 159.6 132.4 159.8C131.3 160 128.6 161.6 128.6 162C128.6 162.3 128.7 162.2 129.7 161.7C131.1 161 132.5 160.5 134 159.9C134.9 159.5 135.4 159.8 135.1 160.6C134.9 161.1 134.8 161.2 132.6 161.8C130.3 162.5 129.2 163.3 127.2 164.4C125.9 165.1 125.7 165.1 125.7 164.2C125.8 160.5 130 159.3 132.7 159ZM80.9001 159.6C81.6001 159.6 82.3001 160.2 82.3001 161C82.3001 161.8 81.7001 162.4 80.9001 162.4C80.2001 162.4 79.5001 161.8 79.5001 161C79.5001 160.2 80.1001 159.6 80.9001 159.6ZM66.0001 160L66.4001 164.6L61.0001 166L59.7001 161.2C61.9001 160.7 63.9001 160.3 66.0001 160ZM136.7 160.3C138.2 160.5 138.1 164 137.3 164.6C136.1 165.5 135.4 163.7 135.9 161.3C136.1 160.6 136.4 160.3 136.7 160.3ZM69.2001 160.5C69.9001 160.5 70.6001 161.1 70.6001 161.9C70.6001 162.7 70.0001 163.3 69.2001 163.3C68.5001 163.3 67.8001 162.7 67.8001 161.9C67.8001 161.1 68.4001 160.5 69.2001 160.5ZM96.0001 160.9L102.2 162.6L100.7 167.4L94.9001 165.8L96.0001 160.9ZM92.6001 161C93.3001 161 94.0001 161.6 94.0001 162.4C94.0001 163.2 93.4001 163.8 92.6001 163.8C91.9001 163.8 91.2001 163.2 91.2001 162.4C91.2001 161.6 91.8001 161 92.6001 161ZM143.4 161.4C146.1 161.4 149.6 162.8 149.6 164.8C149.5 165.4 144 164.6 141.4 163.6C140.5 163.2 139.4 162.1 139.4 161.7C139.4 161.4 139.9 161.4 140.2 161.7C140.6 162.1 141.8 162.6 144.8 163.3C147.1 163.9 147.3 163.9 147.3 163.5C146.9 162.8 143.6 162.4 142 161.9C140.6 161.5 142.8 161.4 143.4 161.4ZM138.6 162.5C139.3 162.8 139.5 163.4 139.9 163.8C139.4 164 139.2 164.2 138.5 164.3C138.5 163.7 138.4 163.1 138.6 162.5ZM57.4001 162.8C58.1001 162.8 58.8001 163.4 58.8001 164.2C58.8001 165 58.2001 165.6 57.4001 165.6C56.6001 165.6 56.0001 165 56.0001 164.2C56.0001 163.4 56.6001 162.8 57.4001 162.8ZM53.7001 163.2L55.2001 167.9L50.0001 170.2L48.1001 165.5C49.9001 164.6 51.9001 163.9 53.7001 163.2ZM78.0001 164C78.0001 164 82.2001 164 83.6001 164L83.3001 169.3H78.1001L78.0001 164ZM72.4001 164.3L72.7001 169.6L67.7001 170.3L66.7001 165L72.4001 164.3ZM104.1 164.3C104.8 164.3 105.5 164.9 105.5 165.7C105.5 166.5 104.9 167.1 104.1 167.1C103.3 167.1 102.7 166.5 102.7 165.7C102.8 164.9 103.4 164.3 104.1 164.3ZM140.5 164.4C143.6 164.4 146.5 167.9 143.5 171.6C148.5 175.4 143.1 181.8 138.7 178.1C132.4 184.3 128.9 175.9 131.5 173.7C127.7 167.4 132.4 163.4 137.2 166.2C138 165 139.3 164.4 140.5 164.4ZM89.3001 164.6L94.8001 165.8L93.7001 171L88.3001 169.9L89.3001 164.6ZM107.5 164.7L112.5 167.2L108.6 171L105.7 169.6L107.5 164.7ZM75.2001 165.3C75.9001 165.3 76.6001 165.9 76.6001 166.7C76.6001 167.5 76.0001 168.1 75.2001 168.1C74.4001 168.1 73.8001 167.5 73.8001 166.7C73.8001 165.9 74.5001 165.3 75.2001 165.3ZM86.1001 165.5C86.8001 165.5 87.5001 166.1 87.5001 166.9C87.5001 167.7 86.9001 168.3 86.1001 168.3C84.1001 167.9 84.7001 165.5 86.1001 165.5ZM61.0001 166.3L62.2001 171.5L57.1001 173.2L55.3001 168.1L61.0001 166.3ZM64.5001 166.6C65.2001 166.6 65.9001 167.2 65.9001 168C65.9001 168.8 65.3001 169.4 64.5001 169.4C63.8001 169.4 63.1001 168.8 63.1001 168C63.2001 167.2 63.8001 166.6 64.5001 166.6ZM141.9 167.1C141.8 167.1 141.6 167.2 141.5 167.3C140.8 168.2 139.9 169.2 139.2 170.1C137.9 169.6 136.7 169.8 135.9 170.3C134.8 169.4 133.9 168.6 132.7 167.9C132.5 167.8 132.3 167.9 132.4 168.1C133.2 169.2 134.4 169.9 135.3 171C134.9 172.2 134.9 173.2 135.6 174.2C135.1 175.1 134 176.2 133.3 177.5C133 178 133.6 177.9 133.6 177.9C134.7 177.1 135.2 176 136.4 175C137.7 175.3 138.4 175.7 139.6 174.6C140.8 175.2 141.5 176 142.8 176.8C143.2 177.1 143.4 176.5 143.2 176.3C142.1 175.2 141.3 174.7 140.1 173.7C140.4 173.3 140.6 171.7 139.6 170.6C140.4 169.6 140.8 169.1 141.9 167.6C142.3 167.3 142.2 167.1 141.9 167.1ZM100.7 167.5L105.7 169.6L103.9 174.8L99.1001 172.8L100.7 167.5ZM46.0001 167.9C46.7001 167.9 47.4001 168.5 47.4001 169.3C47.4001 170.1 46.8001 170.7 46.0001 170.7C45.3001 170.7 44.6001 170.1 44.6001 169.3C44.7001 168.5 45.3001 167.9 46.0001 167.9ZM96.9001 168C97.6001 168 98.3001 168.6 98.3001 169.4C98.3001 170.2 97.7001 170.8 96.9001 170.8C96.1001 170.8 95.5001 170.2 95.5001 169.4C95.5001 168.6 96.1001 168 96.9001 168ZM42.6001 168.4L44.2001 172.4L40.5001 169.6L42.6001 168.4ZM83.3001 169.4L88.2001 170L87.4001 174.7L83.1001 174.3L83.3001 169.4ZM77.9001 169.5V174.4L73.2001 174.6L72.8001 169.7L77.9001 169.5ZM53.7001 170.3C54.4001 170.3 55.1001 170.9 55.1001 171.7C55.1001 172.5 54.5001 173.1 53.7001 173.1C53.0001 173.1 52.3001 172.5 52.3001 171.7C52.4001 170.9 53.0001 170.3 53.7001 170.3ZM50.0001 170.4L51.9001 175.3L48.9001 176.7L44.9001 172.9L50.0001 170.4ZM67.7001 170.5L68.5001 175.1L63.6001 176.3L62.4001 171.6L67.7001 170.5ZM137.8 170.5C138.9 170.5 139.7 171.4 139.7 172.4C139.7 173.5 138.8 174.3 137.8 174.3C136.7 174.3 135.9 173.4 135.9 172.4C135.8 171.4 136.7 170.5 137.8 170.5ZM80.4001 170.7C81.1001 170.7 81.8001 171.3 81.8001 172.1C81.8001 172.9 81.2001 173.5 80.4001 173.5C79.7001 173.5 79.0001 172.9 79.0001 172.1C79.0001 171.3 79.7001 170.7 80.4001 170.7ZM93.8001 171.2L99.0001 172.9L97.2001 177.1L92.7001 175.9L93.8001 171.2ZM70.6001 171.4C71.3001 171.4 72.0001 172 72.0001 172.8C72.0001 173.6 71.4001 174.2 70.6001 174.2C69.9001 174.2 69.2001 173.6 69.2001 172.8C69.2001 172 69.8001 171.4 70.6001 171.4ZM137.8 171.5C137.2 171.5 136.8 171.9 136.8 172.5C136.8 173.1 137.2 173.5 137.8 173.5C138.4 173.5 138.8 173.1 138.8 172.5C138.8 171.9 138.3 171.5 137.8 171.5ZM90.5001 171.9C91.2001 171.9 91.9001 172.5 91.9001 173.3C91.9001 174.1 91.3001 174.7 90.5001 174.7C89.8001 174.7 89.1001 174.1 89.1001 173.3C89.1001 172.5 89.7001 171.9 90.5001 171.9ZM57.3001 173.5L59.1001 177.7L54.2001 179.8L52.1001 175.6L57.3001 173.5ZM60.8001 173.7C61.5001 173.7 62.2001 174.3 62.2001 175.1C62.2001 175.9 61.6001 176.5 60.8001 176.5C60.1001 176.5 59.4001 175.9 59.4001 175.1C59.4001 174.3 60.0001 173.7 60.8001 173.7ZM78.9001 175C87.0001 175 94.3001 176.7 100.1 179.1L98.4001 180.7C79.4001 174.2 67.0001 177.1 54.3001 182.7L53.0001 181.1C61.9001 176.7 70.8001 175 78.9001 175ZM100.3 175C101 175 101.7 175.6 101.7 176.4C101.7 177.2 101.1 177.8 100.3 177.8C99.6001 177.8 98.9001 177.2 98.9001 176.4C98.9001 175.6 99.6001 175 100.3 175ZM50.9001 178C52.0001 178.1 52.1001 180.1 51.6001 179.5L50.4001 178.1C50.6001 178 50.7001 178 50.9001 178ZM101.6 178.8C101.6 180.3 100.1 190.7 95.2001 197.8C94.9001 194.2 94.0001 189.9 93.1001 187C93.1001 187.1 98.4001 182.2 101.6 178.8ZM38.6001 194.5L64.2001 229.1H61.5001C60.4001 222.6 56.7001 219.2 52.3001 217.4C51.9001 211.9 48.6001 207 43.0001 205.2C42.6001 201.5 41.0001 197.9 36.9001 194.9L38.6001 194.5ZM36.1001 195.3C41.0001 199.1 41.2001 200 42.7001 205.8C49.7001 208.2 51.5001 213.4 51.9001 217.8C56.5001 219.6 60.3001 223.5 61.0001 229.1H59.6001C58.6001 222.8 54.6001 220.2 50.4001 219C50.7001 210.1 43.8001 207.3 41.4001 206.8C41.5001 200.4 37.4001 197.7 34.7001 195.5C35.1001 195.5 35.6001 195.4 36.1001 195.3ZM32.0001 196.2C34.1001 196.9 35.7001 199.8 35.5001 201.2C38.3001 201.5 41.2001 204.2 40.5001 207C40.3001 207.1 40.0001 207.1 39.7001 206.8C40.4001 201.4 32.4001 204.1 35.6001 208L34.2001 208.9C33.0001 203.5 31.6001 200.4 30.1001 196.5C30.6001 196.4 32.0001 196.2 32.0001 196.2ZM38.7001 207.6C39.4001 207.6 40.0001 208.2 40.0001 208.9C40.0001 209.6 39.4001 210.2 38.7001 210.2C38.0001 210.2 37.4001 209.6 37.4001 208.9C37.4001 208.2 37.9001 207.6 38.7001 207.6ZM42.0001 208.2C43.9001 208.1 45.7001 211.6 45.6001 213.4C48.7001 214.3 49.7001 217.4 49.6001 218.5H48.9001C47.8001 213.5 42.2001 216.2 44.5001 220.2C41.5001 221.3 41.7001 224.1 42.6001 225.2C43.8001 226.7 46.9001 226.7 47.9001 224.3C50.8001 228.1 54.9001 223.8 51.3001 220.3C54.2001 221.4 54.7001 225.3 54.2001 226.5C55.6001 227 57.1001 229.1 56.9001 229.1H35.0001C35.0001 229.1 36.1001 220.3 34.9001 213.6C36.4001 214 37.3001 214.3 39.0001 212.3C41.7001 214.5 43.7001 212.9 43.5001 210.9C43.3001 209.5 42.6001 208.9 41.4001 208.2C41.7001 208.3 41.8001 208.2 42.0001 208.2ZM48.0001 219.7C48.7001 219.7 49.3001 220.3 49.3001 221C49.3001 221.7 48.7001 222.3 48.0001 222.3C47.3001 222.3 46.7001 221.7 46.7001 221C46.7001 220.3 47.3001 219.7 48.0001 219.7Z" fill="#030D6D"/>
<path d="M14.0998 56.8C12.3998 53.9 10.5998 51.2 8.2998 48.8C10.5998 46.4 12.3998 43.7 14.0998 40.8C15.7998 43.7 17.5998 46.4 19.8998 48.8C17.6998 51.2 15.7998 54 14.0998 56.8Z" fill="#030D6D"/>
<path d="M164.5 210.3C162.8 207.4 161 204.7 158.7 202.3C161 199.9 162.8 197.2 164.5 194.3C166.2 197.2 168 199.9 170.3 202.3C168 204.7 166.2 207.5 164.5 210.3Z" fill="#030D6D"/>
<path d="M48.1001 65.4C44.0001 58.5 39.6001 51.9 34.1001 46.2C39.6001 40.5 43.9001 33.9 48.1001 27C52.2001 33.9 56.6001 40.5 62.1001 46.2C56.6001 51.9 52.2001 58.6 48.1001 65.4Z" fill="#030D6D"/>
<path d="M130.5 224.2C126.4 217.3 122 210.7 116.5 205C122 199.3 126.3 192.7 130.5 185.8C134.6 192.7 139 199.3 144.5 205C139 210.6 134.7 217.3 130.5 224.2Z" fill="#030D6D"/>
<path d="M8.3001 29.6H6.1001V26.6H8.3001C8.3001 26.6 8.3001 25 8.4001 22.1C8.5001 16 8.7001 15.1 10.5001 13.4C14.0001 10.1 19.8001 12.8 19.7001 17.8C19.6001 24.8 19.7001 31.5 19.5001 32.5C19.1001 34.2 19.1001 34.3 19.2001 34.6C19.5001 35.2 22.1001 35.5 22.1001 35.3V38.3C20.1001 38.5 19.3001 38.3 17.6001 37.1C16.6001 38.1 13.5001 39 11.1001 37.9C9.3001 36.9 7.9001 34.7 8.3001 29.6ZM15.8001 34.8C14.7001 33.2 12.9001 31.1 11.1001 30.3C11.0001 32.1 11.1001 33.6 11.8001 34.5C12.8001 35.8 14.4001 36.1 15.8001 34.8ZM16.7001 17.5C15.9001 15.2 13.8001 14.4 12.3001 15.9C11.3001 16.8 11.2001 17.7 11.2001 22.9C11.2001 26.1 11.2001 27.4 11.2001 27.4C14.2001 28.4 16.9001 31.8 16.9001 31.8L17.0001 22.3C16.9001 20.5 16.9001 19 16.7001 17.5Z" fill="#030D6D"/>
<path d="M170.3 221.6H172.5V224.6H170.3C170.3 224.6 170.3 226.2 170.2 229.1C170.1 235.2 169.9 236.1 168.1 237.8C164.6 241.1 158.8 238.4 158.9 233.4C159 226.4 158.9 219.7 159.1 218.7C159.5 217 159.5 216.9 159.4 216.6C159.1 216 156.5 215.7 156.5 215.9V212.9C158.5 212.7 159.3 212.9 161 214.1C162 213.1 165.1 212.2 167.5 213.3C169.3 214.2 170.7 216.5 170.3 221.6ZM162.8 216.3C163.9 217.9 165.7 220 167.5 220.8C167.6 219 167.5 217.5 166.8 216.6C165.8 215.4 164.1 215.1 162.8 216.3ZM161.9 233.7C162.7 236 164.8 236.8 166.3 235.3C167.3 234.4 167.4 233.5 167.4 228.3C167.4 225.1 167.4 223.8 167.4 223.8C164.4 222.8 161.7 219.4 161.7 219.4L161.6 228.9C161.6 230.6 161.7 232.2 161.9 233.7Z" fill="#030D6D"/>
</g>
<defs>
<clipPath id="clip0">
<rect width="178.6" height="249.4" fill="white"/>
</clipPath>
</defs>
</svg>
