<svg width="179" height="250" viewBox="0 0 179 250" fill="none" xmlns="http://www.w3.org/2000/svg">
<g clip-path="url(#clip0)">
<path d="M8.5 -0.300049H170C174.7 -0.300049 178.5 3.49995 178.5 8.19995V240.6C178.5 245.3 174.7 249.1 170 249.1H8.5C3.8 249.1 0 245.3 0 240.6V8.19995C0 3.49995 3.8 -0.300049 8.5 -0.300049Z" fill="white"/>
<path d="M13.8001 55.6999C13.8001 55.6999 12.0001 53.0999 9.6001 50.0999C8.0001 48.0999 6.7001 45.8999 6.6001 43.9999C6.5001 41.8999 7.8001 39.6999 10.1001 39.5999C12.4001 39.4999 13.4001 41.1999 13.8001 42.6999C14.2001 41.2999 15.1001 39.4999 17.5001 39.5999C19.8001 39.6999 21.1001 41.8999 21.0001 43.9999C20.9001 45.8999 19.6001 47.9999 18.0001 50.0999C15.6001 53.0999 13.8001 55.6999 13.8001 55.6999Z" fill="#FF0000"/>
<path d="M164.8 193.2C164.8 193.2 163 195.8 160.6 198.8C159 200.8 157.7 203 157.6 204.9C157.5 207 158.8 209.2 161.1 209.3C163.4 209.4 164.4 207.7 164.8 206.2C165.2 207.6 166.1 209.4 168.5 209.3C170.8 209.2 172.1 207 172 204.9C171.9 203 170.6 200.9 169 198.8C166.6 195.7 164.8 193.2 164.8 193.2Z" fill="#FF0000"/>
<path d="M7.9998 28.4999H5.7998V25.4999H7.9998C7.9998 25.4999 7.9998 23.8999 8.0998 20.9999C8.1998 14.8999 8.3998 13.9999 10.1998 12.2999C13.6998 8.99992 19.4998 11.6999 19.3998 16.6999C19.2998 23.6999 19.3998 30.3999 19.1998 31.3999C18.7998 33.0999 18.7998 33.1999 18.8998 33.4999C19.1998 34.0999 21.7998 34.3999 21.7998 34.1999V37.1999C19.7998 37.3999 18.9998 37.1999 17.2998 35.9999C16.2998 36.9999 13.1998 37.8999 10.7998 36.7999C8.9998 35.7999 7.5998 33.4999 7.9998 28.4999ZM15.3998 33.6999C14.2998 32.0999 12.4998 29.9999 10.6998 29.1999C10.5998 30.9999 10.6998 32.4999 11.3998 33.3999C12.4998 34.6999 14.0998 34.9999 15.3998 33.6999ZM16.2998 16.2999C15.4998 13.9999 13.3998 13.1999 11.8998 14.6999C10.8998 15.5999 10.7998 16.4999 10.7998 21.6999C10.7998 24.8999 10.7998 26.1999 10.7998 26.1999C13.7998 27.1999 16.4998 30.5999 16.4998 30.5999L16.5998 21.0999C16.5998 19.3999 16.4998 17.8999 16.2998 16.2999Z" fill="#FF0000"/>
<path d="M170.6 220.4H172.8V223.4H170.6C170.6 223.4 170.6 225 170.5 227.9C170.4 234 170.2 234.9 168.4 236.6C164.9 239.9 159.1 237.2 159.2 232.2C159.3 225.2 159.2 218.5 159.4 217.5C159.8 215.8 159.8 215.7 159.7 215.4C159.4 214.8 156.8 214.5 156.8 214.7V211.7C158.8 211.5 159.6 211.7 161.3 212.9C162.3 211.9 165.4 211 167.8 212.1C169.6 213.1 171 215.3 170.6 220.4ZM163.2 215.2C164.3 216.8 166.1 218.9 167.9 219.7C168 217.9 167.9 216.4 167.2 215.5C166.1 214.2 164.5 213.9 163.2 215.2ZM162.3 232.6C163.1 234.9 165.2 235.7 166.7 234.2C167.7 233.3 167.8 232.4 167.8 227.2C167.8 224 167.8 222.7 167.8 222.7C164.8 221.7 162.1 218.3 162.1 218.3L162 227.8C162 229.5 162 231 162.3 232.6Z" fill="#FF0000"/>
<path d="M23.7002 18.8V230H154.9V18.8H23.7002ZM25.8002 20.5H79.9002L79.7002 34C79.7002 34 79.6002 34.3 79.5002 34.5C80.6002 35.1 80.8002 43.5001 80.4002 46.4001C80.6002 47.3001 80.5002 48.9001 80.5002 48.9001C77.2002 53.4001 75.5002 57.6 74.1002 62.8C73.5002 63 72.7002 63.5 72.1002 63.6L71.9002 64.3001C73.2002 63.6001 76.8002 62.4001 76.8002 62.4001C92.9002 70.3001 104.8 68.4 117.5 62.5C115.8 70.4 119.3 80.8001 130.2 80.8001C130.6 80.7001 127.9 74.6001 127.2 74.3001C123.7 72.8001 122.3 69.2 122.6 65.1L122 64.1C120.8 69.1 123.7 74.1001 127.6 75.4001L128.7 77.7C121.6 75.5 118.5 68.8001 120.9 62.2001C119.7 56.7001 118 55.9001 117 54.4001C110.8 52.0001 109.6 46.2 110.7 41.6C110.8 40.7 108.7 37.5 108.8 37.5C106.7 42.1 105.8 48.0001 110.6 53.9001C107.5 58.1001 103.4 61.4 98.9002 64.2C92.3002 67.7 87.3002 65.3 84.1002 57.6C82.2002 53 81.5002 48.4 81.5002 43.5C81.5002 40.5 81.5002 40.4001 82.7002 40.9001C83.7002 41.4001 86.0002 41.4001 87.4002 40.7001C88.2002 40.3001 88.6002 40.2 88.7002 40.3C88.8002 40.5 88.3002 41.2001 87.1002 42.4001C86.6002 43.0001 85.9002 43.8 85.9002 43.8C85.9002 43.8 86.8002 43.7001 88.0002 42.4001C88.4002 42.0001 89.3002 40.9001 89.3002 40.9001C89.3002 40.9001 89.1002 42.1001 88.9002 42.7001C88.8002 42.9001 88.6002 43.9001 88.4002 44.9001C88.2002 45.9001 87.9002 47.1 87.8002 47.5C87.3002 49.2 87.4002 50 89.0002 50.8C89.9002 51.2 91.3002 52.6 91.3002 52.6C91.3002 52.6 90.9002 51 91.1002 50.5C91.3002 49.9 92.0002 50.3001 92.7002 50.7001C94.3002 51.5001 95.2002 51.5 96.1002 50.8C97.3002 49.8 96.9002 47.6 95.5002 47C94.4002 46.6 94.2002 47.0001 95.3002 47.7001C96.9002 48.8001 95.1002 50.6 93.7002 49.5C92.6002 48.7 90.8002 48.6 90.6002 49.3C90.4002 50 90.2002 49.8001 89.5002 49.4001C88.3002 48.7001 88.3002 48.6001 89.3002 44.9001C91.1002 37.8001 91.0002 35.2 88.5002 33C86.7002 31.4 83.7002 30.7001 80.6002 32.4001V30C85.1002 28.2 88.4002 25.1 91.1002 20.1H91.6002C94.2002 25.9001 98.5002 30.1 106.5 33.1C107.2 33.5 105.2 28.6 104.8 29.1C100.5 27.4 96.7002 24.1 94.6002 20.1H95.8002C97.0002 21.9 99.5002 25.2 103.9 27.5C104.1 26.4 101.1 21.6 100.4 20.1H137.4C136.2 29.2001 134.6 38.9 141.1 56.5C138 54.9 125.8 58.3 128 59C129.1 57.7 136.9 55.9 142.7 57.3C142.2 56.9 133.9 37.4 138.7 20.1H152.8V102.2C152.7 101.7 151.6 101.2 151.7 100.9C151.8 100.1 151.7 98.7001 151.2 98.1001C151 97.8001 150.6 97.5 150.5 97.2C150.1 96.5 149.5 95.7 149.1 95.5C148.9 95.4 148.6 95.3 148.6 95.2C148.6 95 148.5 94.5001 148.4 94.1001C148.1 92.9001 147.9 93 148.7 91.8C151.4 87.1 153 83 151.4 77.6C148.9 80.1 147.1 83.2001 145.5 85.4001C145.1 82.1001 145.2 79.7 145.1 77.1C146.4 76.7 147.2 76 147.8 74.2C147.8 74.2 149.2 75.3 150.1 75.2L149.5 73.1C153.3 71.9 153.8 67.0001 149.3 65.9001L149.7 63.3C149 63.6 147.5 64.1 147.5 64.1C145.3 59.8 141.3 61.5001 140.4 64.3001L138.7 63.6C138.9 64.5 139.1 65.4001 139 66.3001C135.3 67.9001 136.2 72.4 139.2 73L138.9 75.1L141.1 74.4001C141.4 75.4001 141.3 76 143 77.1C143 81.5 142.9 84.2001 143 88.1001C140.7 85.7001 138.5 84.1001 134.6 82.9001C134.6 82.9001 134.6 83.8 134.8 85.3C134.9 85.8 134.9 85.7 134.6 85.7C134.1 85.7 131.7 81.9001 131.7 81.9001C127.8 90.1001 121.7 103.4 113.7 111.3C109.4 115.6 107.2 120.3 106.1 124.3C106.1 124.3 104.4 124.3 103 124C105 114.7 109.4 95.7 109.4 95.7C109.4 95.7 112.5 94.8001 114.3 94.6001V93.9001L110 94.9001L110.2 93.3L114.2 92.5V92.1001L109.9 92.7L110.6 90C110.6 90 101 91.4 97.6002 91.3C97.8002 101.8 97.0002 110.5 97.4002 121.9L92.7002 119.1C92.3002 111.2 92.2002 91.3 92.2002 91.3L79.3002 89.3L79.7002 92.4001C68.9002 88.3001 58.2002 84.4 50.3002 76C55.2002 72.2 63.3002 68.5 63.3002 68.5L63.0002 68C43.0002 78.4 35.8002 85.5 25.8002 94.5V20.5ZM80.6002 20.5H82.2002C81.8002 21.2 81.3002 21.9 80.5002 22.3L80.6002 20.5ZM83.4002 20.5H85.1002C83.7002 22.7 82.3002 24.1 80.5002 25.1V23.4C81.7002 22.6 82.6002 21.6 83.4002 20.5ZM86.3002 20.5H87.9002C85.7002 23.9 83.5002 26.2001 80.6002 27.7001V26.3C82.4002 25 84.9002 22.8 86.3002 20.5ZM88.8002 20.5H90.1002C87.9002 24.8 84.7002 27.9 80.6002 29.5V28.5C85.1002 26.1 87.1002 23.3 88.8002 20.5ZM92.4002 20.5H94.0002C96.2002 24.8 100.6 29.0001 105.5 30.7001L106.2 32.4001C99.7002 30.2001 95.4002 26.7 92.4002 20.5ZM96.9002 20.5H98.0002C99.2002 22.2 100.6 23.6001 102.3 24.7001L103.3 26.7001C101 25.2001 98.5002 23.3 96.9002 20.5ZM98.9002 20.5H100.2L101.9 23.4C100.7 22.9 99.9002 21.5 98.9002 20.5ZM97.5002 31.8C95.8002 31.8 94.2002 32.3001 93.1002 33.2001C91.9002 34.2001 92.8002 35.2001 94.5002 34.4001C97.4002 33.0001 100.8 33.6 104.4 35.6C107.5 37.3 106.4 35.5001 103.5 33.7001C101.6 32.4001 99.4002 31.8 97.5002 31.8ZM83.7002 34C86.2002 34 89.0002 35.1 89.0002 36.6C87.4002 35.2 84.1002 34.6 80.9002 36C80.7002 35.9 80.6002 35.1 80.8002 34.8C81.5002 34.2 82.6002 34 83.7002 34ZM98.6002 34.9001C97.0002 34.9001 95.6002 35.3001 95.0002 36.2001C94.7002 36.6001 94.6002 36.7 94.2002 36.6C93.5002 36.5 93.5002 36.9 94.3002 38.1C94.7002 38.7 94.6002 39.3 94.1002 40.1C93.5002 41 93.6002 41.0001 95.4002 41.9001C96.1002 42.2001 96.7002 42.6 97.2002 43C98.2002 43.7 99.0002 44.4001 100.2 44.7001C99.6002 44.0001 98.5002 43.2001 97.5002 42.4001C96.5002 41.8001 95.9002 41 95.9002 41C95.9002 41 97.0002 41.3001 97.4002 41.4001C98.7002 41.7001 100.1 41.9 101.2 41.6C102 41.4 103.1 40.9001 103.9 40.2001C104.1 40.1001 104.3 40.2001 104.9 40.2001C106.9 40.3001 106.5 39.7 103.6 38.1C100.7 36.5 98.4002 36.2 96.6002 37.1C95.8002 37.5 95.4002 37.6 95.5002 37.3C95.6002 37.1 95.8002 36.8 96.2002 36.6C99.2002 34.8 101.6 36.3 104.3 37.6C105.4 38.3 105.9 38.2001 105.9 38.2001C103.9 36.1001 101.2 35.0001 98.6002 34.9001ZM85.0002 35.8C86.5002 35.8 87.8002 36.4 89.0002 37.1C89.5002 37.3 89.3002 37.9001 88.8002 37.7001C86.0002 36.4001 85.5002 35.8 82.2002 37C81.1002 37.4 80.7002 37 82.0002 36.5C83.1002 35.9 84.1002 35.8 85.0002 35.8ZM87.1002 38.5C86.3002 42.3 82.5002 41.2 83.0002 38.5H83.7002C83.8002 40.8 86.1002 40.8 86.5002 38.5H87.1002ZM109.2 38.5L110.2 40.7001C108 46.2001 111 53.7 117.6 55.5C117.4 55.6 118.5 57.2001 118.5 57.4001C106.1 54.6001 107 42.7 109.2 38.5ZM97.4002 38.7001H97.7002C98.8002 41.4001 100.3 39.8001 100.6 38.7001H101.4C101.3 41.5001 97.1002 41.9001 97.4002 38.7001ZM87.9002 38.7001C88.4002 38.6001 88.6002 39.4 88.4002 39.5C88.4002 39.5 87.4002 40.4001 87.3002 39.9001C87.2002 39.2001 87.7002 38.8001 87.9002 38.7001ZM82.1002 38.8H82.2002C82.5002 39 82.6002 39.8 82.5002 40.1C82.3002 40.3 81.6002 40.0001 81.4002 39.7001C81.2002 39.4001 81.5002 38.8 82.1002 38.8ZM102.2 39.1C102.4 39.1 103.1 39.4001 103.1 39.7001C103.1 39.8001 102.1 40.5001 101.9 40.4001C101.5 40.1001 102.1 39.1 102.2 39.1ZM96.7002 39.2001C96.8002 39.3001 97.4002 39.6 96.9002 40.3C96.9002 40.3 96.2002 40.1 96.2002 40C96.1002 39.6 96.6002 39.2001 96.7002 39.2001ZM111.8 44C111.6 47.2 112.5 50.3 115.9 52.3L115.2 50.9001C114.3 50.2001 112.5 48.2001 112.7 45.7001L111.8 44ZM80.7002 49.7001L81.1002 51.8C79.2002 55 77.8002 58.1 76.6002 61.8L74.8002 62.5C76.2002 57.9 77.5002 54.2001 80.7002 49.7001ZM81.5002 53L82.0002 54.8C81.1002 56.5 80.1002 58.5 79.5002 60.8L77.5002 61.5C78.3002 58.5 79.6002 55.6 81.5002 53ZM87.8002 53.8C87.7002 53.8 87.7002 53.8 87.8002 53.8C87.7002 54.2 87.7002 55.1 87.8002 56.8C87.8002 57.1 88.1002 57 89.0002 56.5C89.7002 56.1 89.7002 56.1 90.4002 56.3C92.4002 57 93.3002 56.7 94.0002 56.5C95.2002 56.2 95.7002 56.3001 96.3002 56.7001C96.7002 56.9001 97.2002 57.1 97.3002 57.1C97.8002 57.3 97.6002 57.1 97.3002 55.6C96.9002 53.9 97.1002 53.8001 96.4002 54.2001C96.3002 54.3001 95.8002 54.5 95.6002 54.6C95.0002 54.7 94.1002 54.0001 93.5002 54.2001C92.1002 54.7001 92.1002 54.6 90.8002 54.3C90.2002 54.1 89.5002 54.5 89.0002 54.6C88.6002 54.6 88.2002 53.8 87.8002 53.8ZM111.4 54.6C113.7 56.8 116.2 57.5 118.8 58.3C118.5 59.4 117.9 60.6 117.6 62C104 69.2 90.3002 69.0001 77.4002 62.4001L84.1002 59.8C87.8002 66.2 92.4002 67.9001 97.7002 65.8001C103.5 63.1001 107.9 59.3 111.4 54.6ZM82.3002 55.9001L82.9002 57.5L82.0002 59.8L80.4002 60.5C80.7002 58.9 81.3002 57.5001 82.3002 55.9001ZM94.6002 57.7001C94.2002 57.7001 93.6002 58 92.2002 58C91.4002 58 90.8002 57.9 90.6002 58C90.0002 58.1 90.7002 58.4 92.1002 58.8C93.5002 59.2 95.1002 58.6 95.3002 58C95.3002 57.8 95.1002 57.7001 94.6002 57.7001ZM83.3002 58.5L83.7002 59.3L83.0002 59.5L83.3002 58.5ZM119.4 58.9001L120.4 61.2001C118.6 65.0001 117.5 75.5001 129.2 78.8001L129.7 80.3001C121.8 80.5001 113.8 70.3001 119.4 58.9001ZM92.5002 59.7001C91.4002 59.7001 90.2002 60 89.4002 60.6C88.7002 61.2 89.6002 61.5 90.5002 61.1C91.7002 60.5 93.6002 60.6 94.8002 61.3C95.7002 61.9 96.1002 61.8001 95.6002 60.9001C95.1002 60.1001 93.8002 59.7001 92.5002 59.7001ZM143.6 62.4001C145.9 62.4001 148.4 65 146.1 67.6C153.5 64.4 153.7 74.0001 147.1 72.8001C147.4 76.9001 144.5 77.3001 144.5 77.3001C144.7 80.8001 145.1 87.9001 145.1 87.9001C145.1 87.9001 148 81.6 151.2 79.5C152.2 84.5 149.5 89.9001 147.4 92.9001C146.1 94.7001 143.1 93.8 143.4 95C143.5 95.3 143.9 95.8 144.4 96.2C144.7 96.5 145 96.7 145.8 96.7C147.1 96.7 147.6 96.4 146.8 97.5C146.2 98.4 144.1 98.6 143.8 99C143.2 100.1 143.6 99.8 142.7 100.8C142 101.6 142.2 101.2 142.6 101.9C143.1 102.8 142.9 104.5 142.4 105.6C142 106.5 142 107.2 142 107.2C142 107.3 143.2 106 143.5 104.5C143.8 103.3 144.1 102.6 144.1 103.3C144.1 104.2 144.2 105.4 145 105.8C145.6 106.2 145.7 106.5 145.6 107C145.5 107.5 146 107.9 146.5 108.2C146.6 108.3 147 108.5 147 108.7C146.9 109.5 147.2 110.4 147.7 110.5C147.9 110.6 149.5 110.5 149.8 109.6C149.8 109.3 149.8 108.1 149.2 108.1C148.8 107.9 148.8 107.8 149.5 107.4C150.5 106.8 151.2 106.4 151.7 106.3C152.4 106.2 153 105.5 153 105.5L153.1 153.6C147.1 159.7 140.6 165.8 132 171.8C127 167.6 121.5 163.4 115.7 160.2L113.7 159L114.4 158.1L110.9 153.5L114.8 150.3L115.8 151.6L113.9 153.4L116.7 156.5L122.9 150.4L118.8 146.4L120.9 142.4L122.3 143.1L121.3 145.7L124.4 147.7L128.3 139.9L123.3 137.6L124.6 132.3L126.1 132.5L125.6 136.3L129.5 137.1L131.1 128.2L125.4 127.2L125.9 122.1H127.5L127.3 124.9L131.3 125.5L132.1 117.7L126.5 116.8L127.2 110.8L128.5 111L128.3 114.7L132.4 115.4C132.8 112.9 133.2 109.7 133.9 107.3L128.6 105.3L130.5 100.3L131.7 100.7L130.7 103.4L134.6 105.1L137.9 98.6001L133.3 95.3C134.3 93.6 135.3 92.0001 136.8 90.6001L137.7 91.4001L136.1 93.9001L139.2 96.2L141.2 93.8C141.9 94.1 143 95.1001 143 95.1001L143.1 94.6001C141.5 93.7001 134.8 88.7 134.8 84.8C138.8 85.6 140.9 87.9001 143.6 90.6001C143.4 86.4001 143 82 143.2 77.7C141.6 76.6 141 75.2001 141.2 73.4001C136 74.4001 134.7 67.4001 140.9 67.4001C140.6 63.6001 142 62.4001 143.6 62.4001ZM49.8002 76.3001C57.9002 83.2001 63.1002 87.8 79.6002 93L80.0002 95.5C70.5002 93.3 60.1002 88.8 47.8002 77.7L49.8002 76.3001ZM47.3002 77.8001C52.4002 82.6001 57.7002 86.3001 63.0002 89.4001L64.9002 90.5L63.9002 91.5L67.0002 96.1001L63.0002 99.4001L62.0002 98.4001L64.1002 96.3L61.1002 93.3L55.0002 99.5L59.2002 103.2L56.8002 107L55.9002 106.6L57.2002 104L53.3002 101.9L48.9002 109.9L54.4002 112.4L53.1002 117.3L51.8002 117.2L52.2002 113.3L48.0002 112.6L46.6002 121.6L52.0002 122.4L51.9002 127.6H50.5002L50.6002 124.7L46.4002 124.5L46.0002 132.1L51.2002 132.8L50.7002 139L49.4002 138.7L49.5002 134.7L45.5002 134.3L44.1002 142.8L49.5002 144.3L47.6002 149.6L46.4002 149L47.2002 146.3C46.2002 145.9 43.5002 144.7 43.5002 144.7L40.0002 151.3L44.5002 154.4L41.5002 160.1L40.5002 159.1L42.5002 155.7L38.7002 153.3L36.7002 156.1C35.8002 155.3 34.0002 154.3 33.4002 153.6C32.7002 153 32.2002 152.9 31.4002 153.1C30.7002 153.3 30.1002 153.4 30.2002 153.1C30.3002 153 31.6002 152.1 33.5002 150.9C34.1002 150.5 34.5002 150.2 34.5002 149.9C34.5002 149.7 34.8002 149.3 35.2002 149.1C35.6002 148.8 35.5002 148.6 35.5002 148.3C35.1002 146.8 35.4002 144.5 36.1002 142.9C36.6002 141.9 36.8002 141.7 36.4002 141.7C35.4002 141.8 34.3002 145.3 34.1002 146.3C34.0002 146.2 33.9002 145.3 33.9002 144.9C33.8002 144.3 33.7002 143.9 33.2002 143.7C32.6002 143.6 32.8002 143.3 32.7002 142.8C32.6002 142.1 32.2002 141.6 31.6002 141.3C31.0002 141 30.9002 140.9 30.9002 140.3C30.9002 139.8 30.4002 139 30.0002 138.7L27.9002 139.5C27.7002 140.1 28.0002 140.8 28.3002 141.1C29.4002 142.1 27.8002 142.1 26.7002 142.8C26.4002 143 26.1002 143.4 25.8002 143.3C23.5002 142.5 25.1002 106.6 24.7002 95.9001C30.8002 90.2001 47.3002 77.8001 47.3002 77.8001ZM133.4 86.5L134.2 87.4001C128.4 94.0001 124.9 101.6 123.8 109C122.6 115.6 122.8 122.2 121.7 128.6C120.6 137.8 118 142.7 112.4 147.9C109.9 150.2 102.3 154.5 102.1 154.5L100.3 154.1C115.9 146.1 119.8 140.5 121.5 121.4C121.8 97.4001 132.7 88.1 133.4 86.5ZM134.9 88.1001L135.7 88.9001L131.1 95.4001L135.6 98.6001L133.8 102.8L132.4 102.3L133.4 99.4001L129.6 97.8L126.5 106.1L131.9 107.8L131 113.2L129.9 112.9V109.2L125.9 108.4L124.7 117.7L130.6 118.5L130.2 123.3L128.8 123.2L128.7 120.3L124.6 120.1L123.7 128.2L129.5 129.2L128.4 134.9L127.2 134.6L127.5 130.8L123.6 130.3L121.3 138L126.2 140.5L123.8 145.5L122.8 144.8L124.1 141.9L120.3 140L116.6 146.4L120.6 150.3L116.7 154.4L115.8 153.3L117.8 151.1L114.8 148.1L108.6 153.1L111.8 157.3L111.4 157.8L108.1 156.5L106.5 154.4L104.6 155.2L103.1 154.6C112.3 149.7 118.3 144.1 120.8 135.6C122.2 130.9 122.6 125.8 123 120.6C123.6 113.7 124.4 106.1 126.7 100.4C129.1 95.5001 131.7 92.0001 134.9 88.1001ZM85.3002 91.3L91.6002 94.7L91.5002 96.9001L85.6002 94L85.3002 91.3ZM87.1002 91.4001L91.6002 92V93.8L87.1002 91.4001ZM66.7002 91.4001L69.3002 92.6001L71.5002 95.2L73.2002 94.1001L75.0002 94.8C69.3002 97.8 64.2002 101.3 60.2002 107.4C55.8002 114.2 55.3002 123.1 54.7002 131.8C53.0002 146.7 50.1002 154.2 43.6002 162.1L42.9002 161.2L47.0002 154.1L42.2002 151L44.4002 147L45.5002 147.4L44.6002 149.8L48.6002 151.9L51.6002 143.4L46.0002 141.7L46.9002 136.4L48.3002 136.5L47.9002 140.3L51.9002 140.9L53.0002 131.9L47.6002 131.1L47.7002 126.3L49.0002 126.4V129.3L53.2002 129.5L53.5002 121.3L48.2002 120.7L48.8002 114.9L50.3002 115.1L50.0002 118.6L54.1002 119.2L56.0002 111.7L50.7002 109.3L53.5002 104.2L54.8002 104.8L53.5002 107.6L57.2002 109.4L61.0002 103.5L56.9002 99.6001L60.9002 95.4001L61.9002 96.4001L59.7002 98.9001L62.7002 101.7L68.7002 96.7L65.8002 92.3L66.7002 91.4001ZM104.6 91.7L104.4 93.8L98.1002 97.4001V95.3L104.6 91.7ZM138.7 91.8L140 92.7L139.1 93.9001L137.9 93.1001L138.7 91.8ZM102 92.1001L98.2002 94.3V92.1001H102ZM146.7 94.1001C147.1 94.1001 147.4 94.2 147.5 94.3C147.8 94.6 147.6 95.2001 147.2 95.4001C146.6 95.8001 145.1 95.8001 144.9 95.4001C144.7 94.9001 145.5 94.4 146.2 94.2C146.4 94.2 146.5 94.1001 146.7 94.1001ZM86.1002 95L91.6002 98V100.1L86.4002 97.2L86.1002 95ZM103.9 95.1001L103.6 97.8L98.0002 100.8V98.4001L103.9 95.1001ZM76.7002 95.1001L78.9002 95.7C70.6002 99.4 62.4002 104.8 59.3002 114.2C58.3002 117 57.6002 120.1 57.2002 124.2C57.0002 128.4 56.7002 132.6 56.3002 136.1C55.4002 143.3 54.0002 152.7 45.0002 163.5L44.3002 162.7C57.8002 147.7 54.6002 127.2 57.7002 115.8C60.8002 106.3 65.3002 101 76.7002 95.1001ZM148.9 97C149 97 149.1 97 149.2 97C150.1 97.1 149.9 98.9001 148.5 100.1C147.7 100.7 147.3 100.7 146.8 100.1C146.6 99.9001 146.1 99.7 145.8 99.7C144.9 99.7 146.7 97.9001 148.2 97.1001C148.4 97.1001 148.6 97 148.9 97ZM86.8002 98.5L91.7002 101V103.1L87.2002 100.6L86.8002 98.5ZM103.2 98.8L102.9 101.1L97.8002 103.7V101.6L103.2 98.8ZM150.6 99.6001C150.8 99.6001 150.9 99.6 151 99.8C151.7 100.6 150.4 102.9 148.9 103.6C148.3 103.9 148 103.8 147.5 103.4C147.3 103.2 146.9 102.9 146.7 103C145.8 103.1 146.3 102.1 147 102.1C147.2 102.1 148.4 101.2 149.3 100.4C150 99.9001 150.3 99.7001 150.6 99.6001ZM145.5 100.6C146.6 100.6 147 101.5 145.7 101.9C144.8 102.2 144.3 102 144.3 101.4C144.4 100.7 145 100.6 145.5 100.6ZM87.4002 101.8L91.7002 104V106.2L87.7002 104.1L87.4002 101.8ZM102.9 102.1L102.6 104.2L98.0002 106.6V104.9L102.9 102.1ZM151.6 103C151.9 103 152 103.3 152 103.9C152 104.9 151.4 105.8 150.4 106.2C149.7 106.5 149.2 106.5 148.9 106.1C148.7 105.9 148.5 105.8 148.4 105.8C146.9 105.7 147.1 105.4 148.6 104.7C149.1 104.5 150.1 103.8 150.6 103.5C151 103.1 151.3 102.9 151.6 103ZM146 103.6C146.7 103.6 147.4 104.1 147 104.5C146.7 104.8 145.5 104.9 145.3 104.7C144.8 104.2 145.2 103.6 146 103.6ZM88.1002 105.1L91.8002 107.1V109.2L88.3002 107.2L88.1002 105.1ZM102.2 105.3L102.1 107.5L97.9002 109.6V107.5L102.2 105.3ZM147.7 106.2C148.4 106.3 148.3 106.9 147.7 107.3C147.3 107.6 146.7 107.4 146.5 107.1C146 106.1 147.1 106.2 147.7 106.2ZM148.5 108.2C148.8 108.2 149 108.2 149.1 108.4C149.3 108.7 149.2 109.1 148.9 109.2C148.6 109.3 147.8 109.2 147.6 109C147.5 108.8 147.5 108.7 147.7 108.5C147.9 108.4 148.2 108.3 148.5 108.2ZM88.7002 108.5L91.8002 110.2V112.3L88.9002 110.6L88.7002 108.5ZM101.7 108.5L101.5 110.5L97.8002 112.3V110.3L101.7 108.5ZM63.5002 109.8C64.3002 109.8 64.9002 110.3 64.4002 111.2C63.2002 112.6 62.3002 113.1 61.1002 114C60.0002 114.8 60.4002 113.2 61.8002 110.7C62.2002 110.1 62.9002 109.8 63.5002 109.8ZM101.5 111.6L101.2 113.8L97.9002 115.5V113.4L101.5 111.6ZM89.2002 111.8L91.8002 113.1V115.2L89.4002 113.9L89.2002 111.8ZM120.9 112C121 112 121.1 112 121.2 112.1C121.2 113.1 121 113.7 121 114.6C120.9 114.9 120.1 113 120.2 112.5C120.3 112.2 120.7 112 120.9 112ZM65.4002 112.4C66.5002 112.4 67.2002 113.1 66.9002 114.2C66.5002 115.3 64.1002 115.9 63.0002 116.6C62.3002 117 62.1002 116.6 62.3002 116C62.4002 115.7 62.5002 115.5 61.9002 115.4C60.6002 115.2 61.4002 114.6 63.8002 112.9C64.3002 112.5 64.9002 112.4 65.4002 112.4ZM118.4 113C118.8 113 119.2 113.2 119.7 113.7C120.5 114.6 121.1 116.5 120.7 117C120.4 117 120.2 117.5 120.2 117.7C120.1 118.3 119.1 117.2 118 115.5C117.1 114.2 117.5 113.1 118.4 113ZM73.9002 113.4C77.2002 113.4 83.4002 114.1 92.0002 119.5C93.1002 120.2 94.2002 121 95.4002 121.6C98.7002 123.4 101.4 124.6 105.6 125.4L105.5 127.6C106.2 130.1 106.4 133.5 106.8 135.2L107.8 137.2C107.8 137.2 102.6 137.2 100.3 136.7C96.5002 136.1 89.6002 132.9 86.3002 130.3C82.8002 127.7 77.6002 125.6 73.1002 124.8L73.0002 122.9C73.0002 122.9 72.6002 116.4 72.2002 115.6L71.4002 113.6C71.5002 113.5 72.4002 113.4 73.9002 113.4ZM101 114.8L100.7 117L97.8002 118.4V116.5L101 114.8ZM115.5 114.9C116.6 115 118.4 117.1 119.3 118.8C119.3 119 119.2 119.2 119 119.1C118.5 119 118.3 118.8 118.1 119.5C118.1 119.7 118.2 120 118 119.9C117 119.6 114.2 116.8 114.4 115.9C114.5 115.2 114.9 115 115.3 114.9C115.4 114.9 115.4 114.9 115.5 114.9ZM89.8002 115L91.9002 116.1L92.0002 118.2L90.1002 117.4L89.8002 115ZM67.4002 115.6C67.9002 115.6 68.3002 115.9 68.6002 116.4C69.1002 117.6 68.2002 118.3 65.6002 118.9C63.4002 119.4 63.4002 119.5 63.7002 118.6C63.9002 118 63.2002 118 62.8002 117.8C62.1002 117.6 62.7002 117.5 64.6002 116.5C65.6002 116.1 66.6002 115.5 67.4002 115.6ZM59.8002 116.1C63.6002 119.6 62.8002 127.2 57.8002 129.2L58.0002 127.2C58.0002 127.2 62.7002 124 59.3002 117.6C59.5002 117.1 59.6002 116.6 59.8002 116.1ZM113.2 117.5C114.5 117.5 118.1 120.8 116.6 120.9C116.4 120.9 116.5 121.1 116.5 121.3C116.5 121.5 116.5 121.7 116.5 121.8C116.4 122.1 116 122 115.3 121.6C113.7 120.6 113.3 120.3 112.7 119.8C111.5 118.8 111.8 117.5 113.2 117.5ZM100.4 118V119.8L97.8002 121.1V119.5L100.4 118ZM68.3002 119.3C69.7002 119.5 70.4002 121 68.8002 121.9C68.1002 122.3 65.8002 122 64.8002 121.9C63.6002 121.8 64.3002 121.4 64.4002 121.3C64.6002 121 64.7002 121 64.1002 120.6C63.6002 120.1 63.3002 119.9 64.6002 119.8C65.8002 119.8 67.0002 119.3 68.3002 119.3ZM120.6 119.7C120.7 119.7 120.7 119.9 120.7 120.5L120.6 121.7C119.8 121.8 115.9 126.7 119.1 132.4L118.8 133.4C118.7 133.9 118.6 134 118.2 133.7C115.8 132 115 123.6 120 120.1C120.3 119.9 120.5 119.7 120.6 119.7ZM111.3 120.7C111.8 120.7 112.3 120.8 113 121.1C114.5 121.8 115.5 122.3 115.7 122.7C115.8 122.9 115.6 123.1 115.3 123.2C114.9 123.3 114.9 123.5 115 123.9C115 124.2 115.1 124.4 114.7 124.4C114.1 124.4 112.8 124 111.5 123.3C109.3 122.2 109.6 120.7 111.3 120.7ZM100 120.8V123L97.9002 122L100 120.8ZM64.5002 122.6C65.3002 122.7 66.1002 122.8 67.0002 122.9C69.4002 122.9 70.4002 124.6 68.4002 125.4C67.5002 125.8 66.0002 125.1 64.2002 124.6C63.5002 124.4 63.2002 124.2 63.7002 124C64.1002 123.8 64.2002 123.5 63.9002 123.1C63.9002 122.8 64.0002 122.6 64.5002 122.6ZM120.6 122.6C120.3 125.9 120 128.6 119.5 131.8C119.1 131.7 116.5 125.5 120.6 122.6ZM110.4 124.2C111.2 124.2 112.5 124.5 113.8 125C114.9 125.4 115.1 125.5 114.3 125.9C113.8 126.1 113.9 126.3 114 126.6C114.2 126.9 114.8 127.2 114 127.2C113.2 127.3 111.3 127.1 110.6 127C108.8 126.7 108.3 125 109.8 124.3C110 124.2 110.2 124.2 110.4 124.2ZM63.7002 125.1C63.9002 125.1 64.2002 125.2 64.7002 125.4C68.0002 126.4 69.3002 127.7 67.7002 128.9C67.2002 129.3 66.5002 129.1 65.2002 128.3C63.8002 127.5 63.1002 127.1 62.9002 126.8C62.6002 126.5 62.8002 126.2 63.2002 126.2C63.7002 126.2 63.7002 126 63.6002 125.5C63.5002 125.2 63.5002 125.1 63.7002 125.1ZM78.5002 127.1L80.2002 127.8L78.3002 128.7L78.5002 127.1ZM62.3002 127.4C62.4002 127.4 62.5002 127.4 62.6002 127.5C62.9002 127.6 63.4002 128 64.1002 128.5C65.5002 129.5 66.3002 130.2 66.4002 130.9C66.4002 131.2 66.2002 131.6 65.8002 131.8C65.0002 132.3 64.1002 131.9 62.3002 130C61.7002 129.4 61.3002 129.1 61.1002 128.8C60.9002 128.5 61.0002 128.2 61.4002 128.3C62.6002 128.8 61.8002 127.5 62.3002 127.4ZM112.3 127.9C112.7 127.9 113.1 127.9 113.6 127.9C114.4 127.9 114.4 128.3 114.2 128.4C113.8 128.7 113.9 129.1 114.3 129.3C114.6 129.4 114.5 129.7 114.1 129.9C113.9 130 113.6 130.1 113.2 130.2C110.9 130.9 109.3 130.7 108.8 129.6C108.4 128.6 109 128 111 127.8C111.5 127.9 111.9 127.9 112.3 127.9ZM80.9002 128.2L85.2002 130.7L86.0002 158C101.7 159.6 113.3 163 126.3 175.2C122.1 177.5 120.1 178.6 116.1 180.8L115.5 181.7C125.8 176.8 141.5 166.8 152.8 155.6V228.1H98.8002C98.8002 223.8 98.8002 219.6 98.8002 215.3C98.2002 211.6 98.7002 207.4 98.1002 203.9L97.9002 200.5C101.2 196.6 103.1 191.7 104.7 186.6C104.7 186.6 106.3 186 107.1 185.7L107.4 184.7C105.8 185.5 102.3 186.8 102.3 186.8C90.9002 180.3 74.7002 180 62.0002 186.7C61.7002 186.9 61.5002 186.9 61.5002 186.9C63.8002 180.6 60.4002 171.2 48.9002 169.2L49.0002 169.8C61.2002 171.2 64.1002 184.2 59.4002 190.2C59.6002 190.6 59.8002 191 60.0002 191.3C60.8002 190.1 61.4002 188.6 61.9002 187.2C67.8002 183.8 75.2002 182.1 82.5002 182C89.4002 182 96.2002 183.5 101.6 186.6C99.8002 187.6 93.9002 189.1 93.9002 189.1C90.6002 185.4 88.9002 181.6 82.9002 183.6C76.6002 185.2 71.0002 190.7 67.8002 194.3C64.6002 192.4 62.9002 191.9 60.1002 191.8C60.2002 192.2 60.5002 192.5 60.5002 192.7C70.9002 192.7 74.5002 204.4 69.7002 210.9C69.7002 210.8 70.1002 211.7 70.1002 211.7C73.1002 207.7 73.9002 200.2 68.6002 195C72.5002 190.6 80.0002 183.6 86.5002 184C88.9002 184.1 91.2002 187 92.7002 189.3C96.0002 194.1 96.8002 200.9 97.1002 204.8C97.2002 205.8 97.3002 206.5 97.3002 207.1C97.3002 208.6 97.0002 208.5 96.0002 208.2C94.8002 207.9 93.0002 207.9 91.8002 208.2C91.1002 208.4 90.6002 208.5 90.5002 208.5C90.2002 208.4 90.8002 207.7 91.9002 206.3C93.0002 205 92.9002 204.4 92.9002 204.4C92.9002 204.4 92.1002 204.9 91.5002 205.8C90.7002 207.1 90.3002 207.5 90.2002 207.2C90.1002 206.9 90.5002 205.4 91.2002 203.1C92.0002 200.3 92.0002 200.1 89.7002 198.4C88.8002 197.8 88.0002 197.4 87.5002 196.5C87.5002 196.5 87.4002 197.5 87.7002 198.1C88.1002 198.8 87.3002 199.2 85.9002 198.4C82.6002 196.6 80.5002 200.3 83.4002 201.9C84.1002 202.3 84.5002 202 83.9002 201.5C82.1002 199.8 83.3002 198.4 85.8002 199.9C87.2002 200.8 87.8002 200.5 88.2002 199.4C88.5002 199 90.7002 200.5 90.7002 201.2C90.7002 201.6 90.4002 202.9 90.2002 203.8C89.5002 206.2 89.3002 207 89.0002 208.6C88.4002 211.5 88.5002 212.9 89.1002 214.2C90.4002 217 93.8002 218.4 96.7002 217.2C97.1002 217 97.9002 216.9 97.9002 216.9V219C92.2002 221.2 88.1002 228 88.2002 228.2H86.2002C83.5002 222.8 78.7002 218.7 72.7002 216.5C72.6002 216.5 73.3002 219.1 74.4002 220.1C77.3002 221.6 81.1002 224.2 83.2002 228.2H81.8002C80.0002 225.5 77.8002 223.7 75.6002 222.1C75.8002 222 77.3002 227.1 78.0002 228.5L40.7002 229.2C43.2002 219.2 43.7002 208.1 37.8002 193.5C42.7002 193.8 47.1002 192.7 51.1002 191L50.7002 190C46.0002 192 41.0002 192.5 36.0002 192C39.8002 199.1 43.1002 213.8 39.9002 228.1H25.8002V149C25.8002 149 26.2002 150.3 26.8002 150.9C27.2002 151.3 27.5002 152 27.6002 152.5C27.8002 153.1 27.9002 153.1 28.8002 153.8C29.2002 154.1 29.4002 154.4 29.4002 154.5C29.4002 154.7 29.4002 155.2 29.6002 155.6C30.4002 156.5 30.2002 157.1 29.7002 157.7C27.1002 160.4 25.4002 166.2 26.8002 172.3C29.9002 170.2 33.1002 164.7 33.2002 164.7L33.5002 172.2C33.2002 172.1 31.3002 173.3 31.3002 174.7C30.4002 175 29.4002 174.5 28.5002 174.3L29.1002 176.5C25.9002 177.8 25.7002 182.2 29.4002 183.4C29.4002 183.4 29.1002 185.1 28.8002 186L31.2002 185.6C32.6002 189.8 38.0002 188.4 37.9002 185.5C37.9002 185.5 39.5002 186.1 40.1002 186.4L39.6002 183.5C42.9002 183.5 44.5002 177.5 39.7002 176.5C39.7002 175.7 40.0002 175.5 40.3002 174.5L37.8002 174.7C37.3002 173.2 35.7002 172 35.6002 172.2L35.3002 161.4C37.2002 163 39.0002 164.7 41.5002 166C42.9002 166.7 43.5002 166.9 43.7002 166.5C43.9002 165.2 43.5002 164.1 43.0002 162.7C43.7002 162.8 46.2002 166.2 46.4002 167.7C55.3002 162.1 63.7002 154.9 63.7002 154.9L68.0002 154.2L67.6002 156.2L63.7002 156.9V157.6L68.1002 156.7L67.8002 159.3C67.8002 159.3 76.3002 157.8 80.6002 157.7C80.6002 157.7 80.7002 136 80.7002 133.6C80.9002 131.3 80.9002 128.2 80.9002 128.2ZM80.4002 128.6V130.2L78.1002 131.3L78.4002 129.6L80.4002 128.6ZM60.5002 129.1C60.7002 129.1 61.0002 129.4 61.5002 130C63.8002 132.8 64.1002 133.3 63.3002 134.1C62.4002 135 61.2002 134.1 59.9002 131.7C59.7002 131.4 59.5002 131 59.4002 130.8C58.9002 130.2 59.1002 130 59.7002 130.1C60.0002 130.1 60.2002 130 60.2002 129.7C60.2002 129.3 60.3002 129.1 60.5002 129.1ZM114.3 130.5C115.3 130.6 114.9 130.9 114.7 131.1C114.4 131.5 114.3 131.7 114.9 131.9C115 131.9 115.2 132.2 115 132.3C114.5 132.6 112.4 133.6 111.7 133.8C110.2 134.3 109.3 133.1 110.2 131.9C110.6 131.5 113.1 130.5 114.3 130.5ZM58.2002 130.8C58.7002 130.8 59.2002 132 59.3002 132.2C60.8002 134.4 61.0002 135.5 60.0002 136.2C59.4002 136.7 58.0002 136 57.7002 134.5C57.5002 133.4 57.4002 132.2 57.7002 131.3C57.9002 130.9 58.0002 130.8 58.2002 130.8ZM80.3002 131.2V133L77.5002 134.4L77.8002 132.5L80.3002 131.2ZM86.1002 131.3L88.8002 133L89.0002 134.5L86.2002 133L86.1002 131.3ZM116 133C116.1 133 116.1 133 116.1 133.1C116.1 133.3 116 134 116.4 134.1C117.2 134.2 117 134.5 116.3 135.1C115.6 135.8 114.9 136.6 114 137C111.7 137.9 111 135.4 113.1 134.1C114.1 133.6 115 133.2 116 133ZM86.2002 133.9L89.3002 135.7L89.4002 137.5L86.3002 135.9L86.2002 133.9ZM80.2002 134.1V135.7L77.2002 137.4L77.5002 135.6L80.2002 134.1ZM117.5 135.5C117.7 135.5 117.7 135.7 117.7 136.1C117.7 137.2 115.9 141.2 114.4 139.2C114 138.4 114.4 137.6 115.7 136.7C116.8 135.9 117.3 135.5 117.5 135.5ZM57.1002 135.7C57.3002 136.1 57.7002 136.5 57.9002 136.7C57.9002 137 57.4002 137.1 57.0002 137.3C57.0002 137.4 57.0002 136.3 57.1002 135.7ZM80.3002 136.7V138.7L76.7002 140.7L77.1002 138.4L80.3002 136.7ZM86.2002 136.9L89.8002 138.8L90.2002 141.1L86.3002 139L86.2002 136.9ZM80.3002 139.7V141.8L76.3002 143.9L76.6002 141.9L80.3002 139.7ZM86.3002 139.9L90.3002 142.2L90.8002 144.3L86.4002 142L86.3002 139.9ZM29.9002 140C30.6002 140 30.8002 140.7 30.3002 141.1C30.0002 141.4 29.1002 141.3 29.0002 141.1C28.5002 140.7 29.1002 140 29.9002 140ZM31.0002 142.2C31.1002 142.2 31.2002 142.2 31.4002 142.2C31.9002 142.3 32.2002 143 31.9002 143.4C31.4002 144.1 30.0002 143.6 30.2002 142.7C30.4002 142.3 30.7002 142.2 31.0002 142.2ZM80.2002 142.8V144.6L75.8002 146.9L76.1002 144.8L80.2002 142.8ZM86.4002 143.1L90.9002 145.5L91.2002 147.6L86.3002 145.1L86.4002 143.1ZM29.0002 143.1C29.2002 143.1 29.4002 143.1 29.5002 143.3C29.6002 143.4 29.7002 143.8 30.0002 144C30.6002 144.3 30.6002 144.4 29.5002 144.9C29.0002 145.1 28.1002 145.7 27.8002 146C26.8002 146.7 26.4002 146.4 26.3002 145.7C26.2002 144.7 28.0002 143.2 29.0002 143.1ZM32.4002 144.7C32.6002 144.7 32.9002 144.7 33.0002 144.8C33.4002 145.1 33.4002 145.6 33.0002 145.8C32.2002 146.3 30.9002 145.6 31.6002 145C31.8002 144.8 32.1002 144.7 32.4002 144.7ZM80.2002 145.7V148.1L75.3002 150.7L75.6002 148.3L80.2002 145.7ZM29.9002 145.9C30.2002 145.9 30.5002 146 30.8002 146.2C31.1002 146.6 31.4002 146.7 31.6002 146.7C32.4002 146.7 32.2002 147 31.3002 147.4C30.1002 148 29.2002 148.7 28.4002 149.5C27.5002 150.3 27.4002 150.5 27.1002 150.2C26.0002 148.9 28.2002 146 29.9002 145.9ZM86.5002 146L91.6002 148.8L92.0002 151.2L86.4002 148.1V146H86.5002ZM33.3002 147.6C33.5002 147.6 33.7002 147.6 33.9002 147.8C34.3002 148.1 34.1002 148.7 33.5002 148.9C33.1002 149.1 32.4002 149 32.2002 148.8C31.7002 148.4 32.6002 147.7 33.3002 147.6ZM30.8002 148.8C31.1002 148.8 31.4002 149.2 31.6002 149.6C31.7002 149.7 32.0002 149.7 32.3002 149.7C33.3002 149.7 33.4002 150.1 32.5002 150.6C32.2002 150.8 31.3002 151.4 30.7002 152C29.1002 153.5 28.2002 153.2 28.4002 151.6C28.7002 150.1 30.0002 148.9 30.8002 148.8ZM86.5002 149L92.2002 152.1L92.8002 154.7L86.6002 151.3V149H86.5002ZM80.2002 149V151.4L74.9002 154.2L75.3002 151.8L80.2002 149ZM86.6002 152L92.9002 155.9L93.1002 158.4L86.5002 154.6V152H86.6002ZM80.2002 152.5V154.8L74.3002 157.8L74.6002 155.6L80.2002 152.5ZM32.4002 154C32.6002 154 32.7002 154 32.8002 154.1C33.5002 154.4 33.3002 155 32.3002 155.5C31.2002 156.1 30.9002 156 30.7002 155.3C30.4002 154.8 31.6002 154 32.4002 154ZM98.6002 154.3C109.6 156.8 120.4 162.3 130.9 171.9L128.7 173.5C128.7 173.5 119.5 163 99.1002 156.8L98.6002 154.3ZM86.6002 155.4L89.7002 157.2V157.7L86.6002 157.4V155.4ZM34.5002 155.4C34.7002 155.4 34.9002 155.5 36.0002 156.1C40.4002 159.3 42.1002 161.2 43.2002 164.7C43.9002 166.8 43.8002 166.7 41.7002 165.6C39.7002 164.5 36.9002 162.7 35.1002 160.4C34.8002 165.8 35.4002 172.6 35.4002 172.6C38.1002 174 37.3002 177.5 37.2002 177.5C44.3002 175.6 42.7002 184.9 37.5002 182.9C38.8002 189.9 30.8002 189.4 31.6002 183.3C25.2002 183.1 26.4002 176.1 31.6002 177C31.1002 174.8 31.8002 173.4 33.8002 172.5L33.5002 163.3C33.5002 163.3 28.3002 170.8 27.4002 170.7C26.9002 170.6 26.1002 169.8 27.4002 163.2C28.1002 159.8 31.7002 155.6 33.7002 155.5C34.2002 155.5 34.4002 155.4 34.5002 155.4ZM39.6002 155.5L40.5002 156.1L39.6002 157.8L38.5002 156.9L39.6002 155.5ZM80.2002 156V157.4L77.3002 157.6L80.2002 156ZM49.9002 171.6C49.9002 172.2 50.2002 172.3 50.3002 172.5C57.0002 173.5 61.1002 181.8 58.0002 187.8C58.1002 188.2 58.4002 188.5 58.6002 188.9C61.9002 184.2 59.5002 172.7 49.9002 171.6ZM51.4002 174.7C51.8002 175.6 51.8002 175.7 52.1002 175.9C54.5002 176.8 57.0002 180.6 56.4002 184.5C56.5002 184.7 56.8002 185.3 57.0002 185.6C58.0002 182.5 56.7002 176.5 51.4002 174.7ZM103.9 186.9C102.5 191.4 100.8 195.8 97.8002 199.6L97.4002 197.7C100.2 193.3 101.6 189.4 102.2 187.6L103.9 186.9ZM101.2 188.1C101.4 188.4 98.5002 195.4 97.0002 196.6L96.4002 194.8C97.6002 193 99.3002 188.7 99.3002 188.7L101.2 188.1ZM83.4002 188.1C83.3002 188.1 83.3002 188.2 83.3002 188.4C83.3002 189 84.0002 189.5 85.2002 189.8C86.8002 190.2 89.1002 189.6 89.1002 188.8C89.1002 188.4 88.8002 188.3 87.8002 188.8C86.6002 189.3 85.6002 189.2 84.1002 188.4C83.8002 188.2 83.6002 188.1 83.4002 188.1ZM98.2002 189.2C97.7002 190.9 97.0002 192.3 96.2002 193.6L95.8002 192.6C96.4002 191.6 96.8002 190.5 97.3002 189.4L98.2002 189.2ZM96.3002 189.8C96.1002 190.4 95.8002 191.1 95.3002 191.6L94.6002 190.2L96.3002 189.8ZM85.9002 191.1C84.9002 191.1 83.8002 191.5 83.7002 192.1C83.7002 192.4 84.1002 192.3 86.1002 192C87.2002 191.9 87.7002 192.5 88.7002 192.4C89.2002 192.3 88.7002 191.9 88.6002 191.7C88.0002 191.3 86.9002 191.1 85.9002 191.1ZM81.2002 192.4C81.1002 192.4 81.2002 192.7 81.6002 193.4C81.8002 193.8 81.9002 194.6 81.9002 195.1C81.8002 196.3 81.9002 196.3 82.5002 195.6C82.9002 195.2 83.6002 195.3 84.8002 195.6C85.6002 195.8 85.7002 195.9 86.3002 195.5C86.9002 195.1 87.1002 195.3 87.6002 195.4C88.1002 195.5 88.6002 195.3 89.1002 195.1C89.8002 194.9 89.9002 195 90.5002 195.1C91.4002 195.5 91.3002 195.5 91.3002 194C91.4002 192.5 91.3002 192.4 90.4002 192.9C89.6002 193.4 89.0002 193.6 87.7002 193.2C86.3002 192.7 86.1002 192.8 85.1002 193.1C83.9002 193.5 83.3002 193.6 82.4002 193C81.8002 192.6 81.3002 192.3 81.2002 192.4ZM61.5002 194.6L62.0002 195.5C66.9002 197.3 70.2002 201.3 68.2002 208L68.7002 208.7C71.2002 202 68.4002 196.4 61.5002 194.6ZM63.0002 197.5L63.7002 198.9C67.4002 200.7 67.2002 205.6 66.9002 205.4L67.5002 206.7C68.4002 203.5 66.7002 198.8 63.0002 197.5ZM78.0002 204.9C78.0002 204.9 78.2002 205.4 79.9002 206.5C81.3002 207.5 82.5002 208.2 82.4002 208.4C82.3002 208.5 81.4002 208.3 80.8002 208.1C79.1002 207.6 76.7002 208.2 75.3002 209.2C74.9002 209.4 74.4002 209.2 73.9002 209C73.7002 208.9 73.2002 208.9 73.0002 208.9C72.0002 209.2 73.0002 210.2 75.5002 211.5C78.6002 213.1 80.3002 213.2 82.3002 212.3C83.6002 211.6 84.0002 212.1 82.6002 212.9C77.6002 214.5 75.7002 211.9 72.3002 210.4C75.6002 214.3 81.7002 215.4 84.1002 212.9C84.2002 212.9 84.5002 212.9 84.6002 212.9C85.3002 212.9 85.3002 212.7 84.6002 211.6C84.2002 210.9 83.4002 210.2 84.4002 209.4C85.2002 208.8 85.1002 208.5 84.2002 208.2C84.0002 208.1 84.0002 208.3 83.6002 208C82.4002 207 81.2002 206.2 80.2002 205.6C79.5002 205.3 78.8002 205 78.0002 204.9ZM79.3002 208.4C80.2002 208.4 81.2002 209.2 81.5002 210.5C81.5002 210.6 81.6002 210.7 81.6002 210.9H80.8002C80.1002 208.2 78.1002 209.1 77.9002 210.7L77.2002 210.6C77.4002 209.1 78.4002 208.4 79.3002 208.4ZM93.9002 208.6C94.8002 208.6 95.6002 209.4 95.8002 210.7L95.3002 210.8C95.0002 209.8 93.4002 208.5 92.6002 210.9H91.9002C92.2002 209.2 93.1002 208.5 93.9002 208.6ZM81.7002 209.2C81.9002 209.2 82.3002 209.3 82.4002 209.4C82.6002 209.9 82.0002 210.3 81.9002 210.1C81.8002 210.1 81.7002 209.3 81.7002 209.2ZM91.8002 209.4C92.0002 209.6 91.6002 210.2 91.4002 210.5C91.2002 210.7 90.7002 210.5 90.5002 210.3C90.3002 210.1 90.5002 209.7 90.7002 209.5C91.2002 209.2 91.4002 209.1 91.8002 209.4ZM96.5002 209.4C96.9002 209.5 97.2002 209.6 97.3002 210C97.3002 210.3 97.0002 210.5 96.7002 210.5C96.6002 210.5 96.0002 210.1 96.1002 209.5C96.1002 209.3 96.4002 209.3 96.5002 209.4ZM76.6002 209.4C76.8002 209.4 76.9002 209.4 77.0002 209.5C77.1002 209.7 76.9002 210.2 76.8002 210.3H76.1002C76.1002 210.2 76.0002 209.8 76.2002 209.5C76.3002 209.5 76.4002 209.4 76.6002 209.4ZM90.0002 211.3C90.1002 211.3 90.2002 211.3 90.4002 211.4C92.4002 212.7 95.0002 213.3 96.9002 212.4C97.3002 212.2 97.6002 212.2 97.6002 212.4C97.6002 212.6 97.1002 213.1 96.3002 213.3C94.4002 213.9 91.2002 213.1 90.1002 211.9C89.7002 211.6 89.8002 211.3 90.0002 211.3ZM72.4002 212.7C72.2002 212.7 72.1002 212.8 72.2002 213C72.3002 213.8 77.7002 216.9 80.0002 217.3C81.8002 217.6 83.3002 217.5 84.4002 216.8C87.1002 215.2 86.4002 213 83.8002 214.7C82.0002 215.8 77.4002 215.3 74.7002 213.7C73.4002 213 72.7002 212.7 72.4002 212.7ZM90.2002 213C90.4002 213 90.6002 213.1 90.8002 213.2C93.0002 214.4 94.7002 214.4 96.0002 214C97.4002 213.5 97.6002 213.4 97.8002 213.5C98.5002 214.1 97.4002 215 95.3002 215.3C93.6002 215.6 92.7002 215.6 90.8002 214.2C89.6002 213.5 89.7002 213 90.2002 213ZM73.0002 217.3C77.7002 219.1 83.0002 223.1 85.4002 228.1H83.9002C82.3002 225.2 79.0002 221.6 73.7002 219C73.5002 218.2 73.0002 217.6 73.0002 217.3ZM97.8002 219.5V221.1C94.9002 222.6 92.4002 224.9 90.5002 228H88.8002C90.8002 224.6 93.7002 221.5 97.8002 219.5ZM97.8002 221.9V223.8C95.9002 224.9 94.4002 226.3 93.3002 228H91.3002C92.9002 225.4 95.1002 223.2 97.8002 221.9ZM76.2002 223.5C77.6002 224.4 79.8002 226.5 80.7002 228.1H79.9002C79.1002 227.1 77.9002 226 76.9002 225.1C76.5002 224.7 76.3002 224.1 76.2002 223.5ZM97.8002 224.7C97.9002 224.7 97.9002 224.7 97.8002 224.7V226.3C97.8002 226.3 96.4002 227.3 95.8002 228.1H94.2002C95.3002 226.1 97.6002 224.7 97.8002 224.7ZM97.8002 227.2V228.1H96.8002C96.9002 228 97.5002 227.4 97.8002 227.2ZM78.2002 227.4C78.5002 227.6 78.7002 228.1 78.7002 228.1H78.4002L78.2002 227.4Z" fill="#FF0000"/>
<path d="M37.6002 193.5C40.9002 193.6 47.9002 192.3 47.8002 192.5C47.8002 192.5 69.5002 228.7 68.6002 228.3C68.3002 228.7 40.8002 228.7 40.8002 228.7C40.2002 228.8 46.6002 215.4 37.6002 193.5ZM47.4002 168C58.0002 159.2 69.0002 159.1 80.9002 157.9L81.2002 128L85.5002 130.6L85.6002 158C101.3 159.2 114.8 165 126.4 175.1C126.5 175.3 109.6 184.4 102.2 186.9C87.3002 179.1 74.2002 181.1 61.7002 186.8C64.1002 172.4 52.9002 170.1 48.9002 169.4C48.3002 169.3 47.8002 168.2 47.4002 168ZM33.8002 172.7C34.0002 169.6 33.8002 166.5 33.6002 163.4C33.5002 162.7 27.4002 172.8 27.1002 170.3C26.2002 164.2 29.3002 156.4 34.0002 155.5C34.5002 154.9 43.9002 160.7 43.4002 165.8C43.3002 167.4 35.0002 160.2 35.0002 160.7C34.8002 161.5 35.2002 172.8 35.5002 172.8C37.9002 174.1 37.4002 175.9 37.6002 177.3C44.0002 176.4 43.6002 183.5 37.6002 183.2C38.0002 191.6 30.2002 187.8 31.8002 183.3C24.0002 182.9 27.8002 175.6 31.7002 177.2C31.5002 175.3 31.9002 173.4 33.8002 172.7ZM43.2002 137.2L26.2002 136.1L27.0002 96.4999C36.7002 77.2999 62.7002 87.5999 62.8002 89.4999C48.2002 98.6999 43.3002 116 43.2002 137.2ZM72.6002 120.8L72.1002 116.4C70.8002 113.7 105.2 129.6 105.6 130L106.6 134.7C106.8 136.7 84.8002 126.3 72.6002 120.8ZM135.2 113C132.6 132.8 132.8 152.6 118.2 159.5C129.1 170.2 138.3 161.9 152.1 155C152.5 155 151.6 112.7 151.4 112.7C146 113.1 140.6 113.2 135.2 113ZM135.1 84.7999C134.3 83.7999 141.1 86.5999 143.7 90.5999C143.3 90.0999 143.2 76.6999 143.1 77.1999C142.8 77.3999 140.7 75.8999 141.3 72.9999C135.3 74.2999 135.6 66.4999 140.9 66.7999C140.2 59.6999 148.9 62.2999 146.6 67.0999C154 65.6999 152.7 74.0999 147.1 72.6999C147.6 75.8999 146.3 76.6999 144.5 77.3999C144.6 78.6999 145.1 87.5999 145.1 87.5999C145.1 87.5999 150.6 79.1999 151 79.8999C152.9 81.6999 149.5 93.7999 144.9 94.0999C140.9 94.7999 134.2 86.7999 135.1 84.7999ZM117.5 62.6999C115 71.1999 121.8 80.9999 128.1 80.9999C129.4 80.7999 131.8 81.4999 131 82.1999C120.9 90.3999 97.4002 92.0999 97.4002 91.6999C97.6002 101.8 97.2002 111.9 97.0002 122L92.7002 119.4C92.6002 110.2 92.3002 100.8 92.1002 91.6999C77.1002 89.6999 63.5002 84.7999 52.8002 74.4999C59.9002 69.1999 68.4002 65.8999 76.5002 62.5999C86.9002 67.7999 101.2 70.8999 117.5 62.6999ZM109 20.3999C109 20.3999 128.4 20.5999 137.8 20.4999C134.6 33.4999 136.9 45.1999 141 56.3999C139.9 56.0999 132.7 56.6999 131 57.4999C130.7 57.7999 109 20.3999 109 20.3999Z" fill="white"/>
<path d="M31.5002 180.3L34.6002 177.1L37.7002 180.2L34.5002 183.2L31.5002 180.3ZM99.3002 160.2L98.9002 157.6C111.1 160.6 121 166.9 128.2 173.7L126.5 175C127 174.9 109.2 161.4 99.3002 160.2ZM64.3002 157.9L67.8002 157.1L67.7002 159.3L64.3002 160V157.9ZM135.2 156L133.1 154.3L134.6 152.5L136.6 154.1L135.2 156ZM63.7002 138.6C71.9002 132.5 72.5002 125.4 72.5002 125.4L75.3002 126.1L68.7002 153.6L64.1002 154.6C64.2002 149.3 63.7002 143.8 63.7002 138.6ZM98.1002 154.1C96.3002 148.3 92.8002 135.2 92.8002 135.2C92.9002 135.6 104.1 138.8 108.1 137.7C109.8 140.1 111.7 142.1 113.7 144C109.6 148.1 104.4 151.5 98.1002 154.1ZM145.1 133.1L143.1 131.4L144.9 129.2L147.1 130.9L145.1 133.1ZM119.3 131.9C117.7 129 117.6 125.7 120.6 122.5L119.3 131.9ZM57.9002 126.8C57.8002 123.8 58.2002 121 58.9002 118.3C60.7002 121.5 60.6002 124.7 57.9002 126.8ZM103.1 124.1C103.1 124.1 107.4 103.9 109.3 95.9001L114.1 94.8001L113.9 111.2C109.1 115.1 105.8 124.4 105.9 124.4L103.1 124.1ZM33.3002 120.8L31.2002 118.8L33.3002 116.8L35.1002 118.8L33.3002 120.8ZM70.8002 112.9C69.3002 110.7 67.2002 108.4 65.0002 106.1C68.6002 101.1 74.5002 98.2001 80.8002 96.0001L85.0002 115C80.3002 113.5 75.1002 111.9 70.8002 112.9ZM41.4002 95.9001L42.9002 94.1001L44.8002 95.6001L43.3002 97.6001L41.4002 95.9001ZM110.9 90.4001L113.9 89.7001L114 92.0001L110.4 92.7001L110.9 90.4001ZM50.4002 75.9001L52.7002 74.5001C60.7002 81.7001 69.6002 86.7001 79.2002 89.6001L79.5002 92.3001C68.6002 88.8001 58.6002 84.1001 50.4002 75.9001ZM144 73.0001L141 70.1001L143.7 67.1001L146.9 69.9001C145.8 71.4001 144 73.0001 144 73.0001Z" fill="white"/>
<path d="M105.1 19.8999H99.8002L129.9 80.7999C120.7 80.7999 115.3 70.9999 117.6 62.2999C99.0002 70.7999 87.4002 67.6999 76.6002 62.2999L72.0002 64.0999C72.3002 61.2999 75.7002 50.7999 80.9002 45.8999V40.5999L80.8002 38.0999L80.4002 33.5999C72.8002 40.7999 63.9002 52.1999 62.7002 68.3999C62.7002 68.3999 55.7002 71.9999 49.8002 75.9999C50.1002 75.9999 59.0002 86.9999 80.5002 93.0999L79.6002 89.5999C82.8002 90.4999 87.3002 91.1999 91.8002 91.7999L92.4002 119.4L97.5002 122.4L97.7002 91.8999C97.9002 91.9999 105.9 91.5999 110.2 90.5999L109.6 93.4999L113.9 92.6999V94.7999L109.2 95.8999L102.6 124.4L106.5 125.3C107.6 119.6 110.5 114.9 114.6 112V110.9C117.3 109 122.8 107.5 122.8 107.5C124.7 98.1999 129.1 91.7999 133.7 85.6999L131.5 82.6999L140 79.5999L128.2 59.3999C132.7 56.1999 141.8 57.3999 141.8 57.3999C137.9 46.8999 134.5 36.0999 138.4 20.1999H105.5L105.1 19.8999ZM137 20.4999C134.9 32.6999 135.6 44.4999 140.5 55.7999C140.5 55.7999 139.8 55.7999 139.7 55.7999C139.6 55.7999 139.8 55.1999 139.7 54.9999C139.6 54.5999 138.9 54.7999 138.3 55.1999C138 55.3999 137.8 55.5999 137.6 55.6999C137 55.9999 134 55.9999 134 55.9999C135 55.2999 136.4 53.3999 135.6 52.2999C135.4 52.0999 135.3 52.1999 135.1 52.4999C134.2 53.9999 133.8 54.2999 132.6 54.2999C130.8 54.2999 129.5 53.0999 129.6 51.3999C129.7 49.6999 132.2 48.8999 131.8 50.4999C131.7 51.8999 133.1 52.1999 133.4 50.7999C133.5 50.2999 133.4 50.4999 133.5 49.8999C136.3 48.3999 134.8 45.2999 132.1 45.9999C131.5 46.1999 131.4 46.1999 131 45.9999C130.2 45.5999 129.5 45.6999 129.2 46.2999C128.9 46.7999 129.3 47.1999 129.9 47.1999C130.5 47.1999 130.6 47.4999 130.6 47.8999C130.6 48.7999 129.1 49.1999 128.1 48.6999C125.5 47.2999 126.4 43.7999 129.5 43.7999C130.4 43.7999 130.8 43.8999 130.9 43.6999C131 43.0999 129.6 42.0999 128.8 42.2999C128.1 42.3999 127.7 42.5999 128.1 41.6999C128.3 40.7999 128.3 40.2999 128.1 39.5999C127.6 38.5999 127.6 39.0999 127.3 39.8999C126.3 41.5999 124.8 41.9999 123.5 40.9999C122.3 40.0999 122.3 38.4999 123.5 37.3999C124.3 36.5999 125.2 37.0999 124.7 37.9999C124.5 38.3999 124.7 38.7999 125 38.8999C125.7 39.0999 126.2 38.6999 126.2 37.7999C126.2 37.2999 126 37.1999 126.9 36.6999C129.2 35.3999 127.5 31.8999 124.9 32.9999C124.3 33.1999 124.2 33.4999 124 33.3999C122.9 32.3999 121.4 33.6999 122.3 34.2999C122.7 34.4999 123.2 34.5999 123.3 34.5999C123.5 34.6999 123.4 34.9999 123.1 35.3999C122 36.5999 119.7 35.9999 119.1 34.2999C118.4 32.2999 120.5 30.0999 122.1 31.2999C122.6 31.6999 123 31.6999 123 31.1999C123 30.3999 122 29.4999 120.7 29.4999C119.4 29.5999 119.5 29.7999 120.2 28.5999C120.7 27.4999 120.7 26.4999 120.2 25.8999C119.8 25.3999 119.5 25.2999 119.5 25.7999C119.8 27.3999 117.9 28.8999 116.4 28.1999C114.9 27.4999 114.2 25.8999 114.9 24.4999C115.6 23.1999 117.2 23.0999 116.9 24.4999C116.8 25.3999 117.4 25.8999 118.1 25.2999C118.3 25.0999 118.4 24.8999 118.4 24.3999C118.4 23.7999 118.2 23.5999 118.6 23.1999C119.7 23.0999 119.7 20.7999 119.6 20.6999L137 20.4999ZM112 20.5999H115.9C115.9 23.1999 112.5 22.9999 112 20.5999ZM117.7 20.5999C118.4 20.5999 119 20.7999 119 21.4999C119 22.1999 118.4 22.6999 117.8 22.6999C117.1 22.6999 116.6 22.0999 116.6 21.4999C116.5 20.7999 117.1 20.5999 117.7 20.5999ZM105.6 20.6999H108.4L130.1 57.0999L127.5 58.3999L105.6 20.6999ZM110.1 21.8999C111.4 22.6999 112.6 23.2999 114.3 23.3999C113.8 24.3999 113.4 25.4999 113.3 27.2999L110.1 21.8999ZM114.6 29.2999C115.9 29.7999 117.1 30.4999 119.3 29.7999C118.1 30.7999 117.5 32.0999 117 33.3999L114.6 29.2999ZM125.9 33.6999C126.5 33.6999 127 34.1999 127 34.8999C127 35.4999 126.5 35.9999 125.9 35.9999C125.3 35.9999 124.8 35.4999 124.8 34.8999C124.7 34.1999 125.2 33.6999 125.9 33.6999ZM118.8 36.4999C119.8 36.8999 120.8 37.0999 121.9 36.9999C121.3 37.7999 121.2 38.8999 121.1 40.2999L118.8 36.4999ZM122.2 42.2999C123.1 42.6999 124.2 43.3999 126 43.1999C124.8 45.2999 125 45.8999 124.9 46.7999L122.2 42.2999ZM133 46.4999C133.7 46.4999 134.2 46.9999 134.2 47.6999C134.2 48.3999 133.7 48.8999 133 48.8999C132.3 48.8999 131.8 48.3999 131.8 47.6999C131.8 46.9999 132.4 46.4999 133 46.4999ZM126.3 49.1999C127.1 49.6999 128.7 49.8999 128.8 49.7999C128.7 49.6999 128.3 51.3999 128.3 52.3999L126.3 49.1999ZM130.1 55.3999C131.3 56.0999 132.6 55.9999 133.3 56.0999C132.5 56.2999 131.7 56.4999 130.9 56.7999L130.1 55.3999ZM143.8 62.1999C141 62.3999 140.3 64.5999 140.7 66.6999C138.6 66.3999 136.2 68.3999 136.8 70.8999C137.4 73.2999 139.6 73.3999 141.1 73.1999C141 73.7999 140.7 75.6999 143 77.2999L143.3 89.5999C143.3 89.5999 142.3 88.6999 141.6 87.9999C138.7 85.0999 134.3 82.9999 134.6 84.5999C134.6 84.7999 134.7 85.4999 134.8 85.9999C135.3 88.7999 139 91.7999 141.5 93.2999C142.4 93.7999 143 94.3999 143 94.3999C138.3 99.4999 135.7 104.9 135.1 110.4C134.5 115.4 134 119.9 133.6 124.6C131.7 147.7 121.8 153.5 121.3 154.7L121.1 157.8L118.3 157.6L115.1 160.4C125.5 165.8 131.6 172.3 131.5 172.4C139.8 166.9 147 160.9 153.7 154.6L153.6 103.1C153.6 103.1 153 103.3 152.9 103.3C152.4 103.3 152.3 103.5 152.1 104.5C152 105 151.7 105.5 151.4 105.9C150.9 106.6 151.1 106.2 151.7 106.5C153 107 151.3 109.5 149.4 109.8C148 110 147.3 110.3 147 110.6C144.1 113.1 141.3 113.5 139.1 112.6C138 112.1 136.9 111.5 136.5 110.4C135.6 107.9 137.5 104.2 138.5 102.1C140.5 98.1999 143.8 95.2999 143.8 95.2999L143.3 94.6999C144.8 94.5999 147 93.7999 147.6 92.7999C150.8 88.3999 152.4 82.3999 150.9 79.0999C148.7 80.7999 146.4 84.8999 145.1 87.2999C144.6 83.7999 144.5 77.5999 144.5 77.5999C145 77.0999 147.7 77.3999 147.1 72.8999C149.5 73.9999 152 72.2999 151.9 69.9999C151.7 66.3999 149 66.4999 146.8 66.9999C147.9 64.6999 145.9 62.0999 143.8 62.1999ZM143.8 62.4999C146.7 62.5999 147.3 65.8999 145.5 67.6999C145.5 67.6999 144.3 66.7999 143.7 66.2999C143.1 66.7999 142.9 67.1999 142.3 67.5999C141.5 66.9999 141.1 65.9999 141.1 65.0999C141.1 63.5999 142.6 62.4999 143.8 62.4999ZM76.7002 62.5999C88.6002 69.2999 103.5 69.7999 117.1 62.8999L116.9 63.9999L115.4 64.7999L116.2 66.3999L116.7 66.1999V67.1999C105.5 73.2999 86.6002 74.5999 71.9002 64.3999C72.7002 63.8999 74.8002 63.3999 74.8002 63.3999L74.1002 64.2999L75.9002 65.4999L76.8002 64.1999L75.4002 63.1999L76.7002 62.5999ZM77.8002 64.6999L77.1002 66.2999L78.8002 67.1999L79.4002 65.5999L77.8002 64.6999ZM71.3002 64.8999C89.6002 76.3999 106.6 72.9999 116.8 68.2999L116.9 69.4999C103.7 75.0999 86.4002 76.6999 69.8002 65.4999L71.3002 64.8999ZM114.4 65.5999L112.8 66.2999L113.4 67.7999L115.1 67.0999L114.4 65.5999ZM69.1002 65.8999C84.0002 75.4999 99.9002 77.3999 117.1 70.3999L117.8 72.1999C101.1 78.9999 83.4002 78.1999 67.3002 66.6999L69.1002 65.8999ZM80.6002 65.8999L79.9002 67.4999L81.7002 68.1999L82.2002 66.5999L80.6002 65.8999ZM111.8 66.5999L110.2 67.0999L110.7 68.5999L112.4 67.9999L111.8 66.5999ZM83.4002 66.9999L83.0002 68.6999L84.9002 69.1999L85.2002 67.5999L83.4002 66.9999ZM148.5 66.9999C149.9 66.9999 151.3 68.0999 151.4 69.6999C151.7 72.4999 147.6 73.7999 146.1 71.1999L147.4 69.5999L146.2 68.4999C146.9 67.4999 147.7 67.0999 148.5 66.9999ZM66.9002 67.0999L71.3002 70.1999L68.1002 75.1999L63.3002 71.9999L66.9002 67.0999ZM140 67.1999C140.7 67.1999 141.4 67.4999 141.9 68.0999L140.3 69.9999L142 71.7999C140 73.9999 136.9 72.5999 137 69.9999C137.1 68.5999 138.5 67.1999 140 67.1999ZM143.7 67.2999L146.5 69.7999L143.9 72.7999L141.3 70.0999L143.7 67.2999ZM109.1 67.3999L107.4 67.8999L107.8 69.3999L109.5 68.8999L109.1 67.3999ZM86.3002 67.8999L86.0002 69.4999L87.9002 69.8999L88.2002 68.2999L86.3002 67.8999ZM106.3 68.0999L104.5 68.4999L104.8 70.0999L106.6 69.6999L106.3 68.0999ZM143.9 68.4999L142.4 69.9999L143.9 71.4999L145.4 69.9999L143.9 68.4999ZM89.4002 68.4999L89.2002 70.0999L91.2002 70.3999L91.4002 68.7999L89.4002 68.4999ZM103.1 68.7999L101.3 68.9999L101.5 70.5999L103.4 70.3999L103.1 68.7999ZM92.3002 68.9999V70.6999L94.1002 70.7999V69.1999L92.3002 68.9999ZM100.2 69.0999L98.4002 69.1999V70.7999L100.2 70.6999V69.0999ZM67.5002 69.0999C66.4002 69.0999 65.6002 69.9999 65.6002 70.9999C65.6002 72.0999 66.5002 72.8999 67.5002 72.8999C68.5002 72.8999 69.4002 71.9999 69.4002 70.9999C69.4002 69.9999 68.6002 69.0999 67.5002 69.0999ZM97.2002 69.1999H95.4002V70.7999H97.2002V69.1999ZM143.9 69.1999L144.7 69.9999L143.9 70.7999L143.1 69.9999L143.9 69.1999ZM143.9 69.6999C143.7 69.6999 143.6 69.7999 143.6 69.9999C143.6 70.0999 143.7 70.2999 143.9 70.2999C144.1 70.2999 144.2 70.1999 144.2 69.9999C144.2 69.7999 144 69.6999 143.9 69.6999ZM67.5002 69.7999C68.2002 69.7999 68.8002 70.3999 68.8002 71.0999C68.8002 71.7999 68.2002 72.3999 67.5002 72.3999C66.8002 72.3999 66.2002 71.7999 66.2002 71.0999C66.2002 70.3999 66.8002 69.7999 67.5002 69.7999ZM60.7002 69.8999L63.2002 71.9999C62.4002 73.5999 59.8002 76.7999 59.8002 76.7999L55.2002 72.9999L57.7002 71.5999C57.6002 71.8999 57.5002 72.1999 57.5002 72.4999C57.5002 73.4999 58.3002 74.3999 59.4002 74.3999C60.4002 74.3999 61.3002 73.5999 61.3002 72.4999C61.3002 71.4999 60.5002 70.6999 59.5002 70.5999L60.7002 69.8999ZM59.3002 71.1999C60.0002 71.1999 60.6002 71.7999 60.6002 72.4999C60.6002 73.1999 60.0002 73.7999 59.3002 73.7999C58.6002 73.7999 58.0002 73.1999 58.0002 72.4999C58.0002 71.7999 58.6002 71.1999 59.3002 71.1999ZM145.5 71.7999C145.5 71.7999 146.2 72.0999 146.4 72.2999C147.8 74.3999 146.3 76.8999 144.1 76.7999C141.4 76.6999 140.7 73.3999 142.6 71.9999L144.1 73.3999L145.5 71.7999ZM76.3002 72.6999L81.6002 74.6999L79.6002 80.3999L73.9002 77.9999L76.3002 72.6999ZM54.7002 73.2999C76.1002 92.6999 106.6 94.0999 128.7 81.1999H130L130.7 81.8999C105.5 96.8999 74.2002 93.5999 53.0002 74.2999L54.7002 73.2999ZM113.7 74.3999L115.4 80.0999L109.6 81.5999L108.3 75.8999L113.7 74.3999ZM52.5002 74.5999C59.0002 80.8999 68.2002 86.3999 79.0002 89.5999L79.3002 91.8999C67.8002 88.3999 59.2002 83.7999 50.7002 75.7999L52.5002 74.5999ZM77.6002 74.6999C76.6002 74.6999 75.7002 75.4999 75.7002 76.5999C75.7002 77.5999 76.5002 78.4999 77.6002 78.4999C78.6002 78.4999 79.5002 77.6999 79.5002 76.5999C79.5002 75.5999 78.7002 74.6999 77.6002 74.6999ZM68.3002 75.1999L73.7002 78.0999L71.0002 83.4999L65.2002 80.3999L68.3002 75.1999ZM77.6002 75.3999C78.3002 75.3999 78.9002 75.9999 78.9002 76.6999C78.9002 77.3999 78.3002 77.9999 77.6002 77.9999C76.9002 77.9999 76.3002 77.3999 76.3002 76.6999C76.4002 75.8999 76.9002 75.3999 77.6002 75.3999ZM86.6002 76.0999L91.8002 76.8999L91.6002 82.6999L85.5002 81.9999C85.7002 79.8999 86.6002 76.0999 86.6002 76.0999ZM111.7 76.2999C110.7 76.2999 109.8 77.0999 109.8 78.1999C109.8 79.1999 110.6 80.0999 111.7 80.0999C112.7 80.0999 113.6 79.2999 113.6 78.1999C113.6 77.0999 112.8 76.2999 111.7 76.2999ZM111.7 76.8999C112.4 76.8999 113 77.4999 113 78.1999C113 78.8999 112.4 79.4999 111.7 79.4999C111 79.4999 110.4 78.8999 110.4 78.1999C110.5 77.4999 111 76.8999 111.7 76.8999ZM69.4002 76.9999C68.4002 76.9999 67.5002 77.7999 67.5002 78.8999C67.5002 79.8999 68.3002 80.7999 69.4002 80.7999C70.4002 80.7999 71.3002 79.9999 71.3002 78.8999C71.3002 77.7999 70.4002 76.9999 69.4002 76.9999ZM102.7 76.9999L103.4 82.7999L97.7002 83.0999L97.4002 77.2999L102.7 76.9999ZM143.4 77.4999H144.2C144.3 82.4999 144.7 88.2999 145.2 92.5999C145.3 93.1999 145.3 93.3999 145.3 93.4999C144.7 94.4999 144.1 93.1999 143.8 90.3999C143.7 89.5999 143.6 88.4999 143.5 87.6999C143.3 85.4999 143.4 77.4999 143.4 77.4999ZM47.3002 77.5999C38.8002 82.9999 24.6002 95.7999 24.7002 96.0999L24.8002 145.3L25.9002 145.4L26.8002 143.6C25.4002 143.2 25.8002 140.6 28.5002 140C29.0002 139.9 30.4002 139.4 30.7002 139.2C32.8002 137.6 36.1002 136.7 38.5002 137.3C41.9002 138.2 42.9002 140.8 41.0002 145.1C39.3002 148.8 37.5002 152.9 34.1002 154.6C34.1002 154.6 34.7002 155.1 34.9002 155.2C41.6002 151.3 45.0002 137.4 44.8002 128.7C45.1002 119.8 46.6002 110.9 50.2002 104.4C56.1002 93.6999 63.9002 89.3999 63.8002 89.3999C63.6002 89.4999 53.1002 82.9999 47.3002 77.5999ZM69.4002 77.5999C70.1002 77.5999 70.7002 78.1999 70.7002 78.8999C70.7002 79.5999 70.1002 80.1999 69.4002 80.1999C68.7002 80.1999 68.1002 79.5999 68.1002 78.8999C68.1002 78.1999 68.7002 77.5999 69.4002 77.5999ZM121.3 77.7999L123.3 83.1999L117.7 85.4999L115.7 79.7999L121.3 77.7999ZM88.9002 77.7999C87.9002 77.7999 87.0002 78.5999 87.0002 79.6999C87.0002 80.6999 87.8002 81.5999 88.9002 81.5999C89.9002 81.5999 90.8002 80.7999 90.8002 79.6999C90.8002 78.6999 89.9002 77.7999 88.9002 77.7999ZM100.3 78.2999C99.3002 78.2999 98.4002 79.0999 98.4002 80.1999C98.4002 81.1999 99.2002 82.0999 100.3 82.0999C101.3 82.0999 102.2 81.2999 102.2 80.1999C102.2 79.0999 101.4 78.2999 100.3 78.2999ZM88.9002 78.4999C89.6002 78.4999 90.2002 79.0999 90.2002 79.7999C90.2002 80.4999 89.6002 81.0999 88.9002 81.0999C88.2002 81.0999 87.6002 80.4999 87.6002 79.7999C87.6002 78.9999 88.2002 78.4999 88.9002 78.4999ZM100.3 78.8999C101 78.8999 101.6 79.4999 101.6 80.1999C101.6 80.8999 101 81.4999 100.3 81.4999C99.6002 81.4999 99.0002 80.8999 99.0002 80.1999C99.1002 79.4999 99.6002 78.8999 100.3 78.8999ZM119.5 79.5999C118.5 79.5999 117.6 80.3999 117.6 81.4999C117.6 82.4999 118.4 83.3999 119.5 83.3999C120.5 83.3999 121.4 82.5999 121.4 81.4999C121.4 80.3999 120.5 79.5999 119.5 79.5999ZM150.9 80.0999C151.8 82.9999 150.1 86.7999 150.1 86.9999C149.1 89.8999 147.8 92.2999 147.4 92.3999C147 92.4999 146.8 92.4999 146.9 92.0999C146.9 91.4999 148.2 87.7999 149.1 85.3999C149.4 84.4999 149.8 83.4999 149.9 82.5999C149 84.0999 146.9 88.2999 146.5 90.9999C146.3 92.7999 146 92.4999 145.7 90.3999C145.4 87.4999 146 85.9999 149.3 81.8999C149.7 81.0999 150.4 80.4999 150.9 80.0999ZM119.5 80.1999C120.2 80.1999 120.8 80.7999 120.8 81.4999C120.8 82.1999 120.2 82.7999 119.5 82.7999C118.8 82.7999 118.2 82.1999 118.2 81.4999C118.2 80.7999 118.8 80.1999 119.5 80.1999ZM79.7002 80.2999L85.3002 81.6999L84.0002 87.6999L77.6002 85.9999L79.7002 80.2999ZM109.5 81.5999L111.1 87.3999L104.5 88.4999L103.5 82.5999L109.5 81.5999ZM81.7002 82.1999C80.7002 82.1999 79.8002 82.9999 79.8002 84.0999C79.8002 85.0999 80.6002 85.9999 81.7002 85.9999C82.7002 85.9999 83.6002 85.1999 83.6002 84.0999C83.6002 83.0999 82.7002 82.1999 81.7002 82.1999ZM91.6002 82.5999L97.6002 82.8999L97.7002 88.8999L91.2002 88.5999L91.6002 82.5999ZM81.7002 82.8999C82.4002 82.8999 83.0002 83.4999 83.0002 84.1999C83.0002 84.8999 82.4002 85.4999 81.7002 85.4999C81.0002 85.4999 80.4002 84.8999 80.4002 84.1999C80.4002 83.3999 81.0002 82.8999 81.7002 82.8999ZM106.9 83.3999C105.9 83.3999 105 84.1999 105 85.2999C105 86.2999 105.8 87.1999 106.9 87.1999C108 87.1999 108.8 86.3999 108.8 85.2999C108.8 84.1999 108 83.3999 106.9 83.3999ZM94.5002 83.8999C93.5002 83.8999 92.6002 84.6999 92.6002 85.7999C92.6002 86.7999 93.4002 87.6999 94.5002 87.6999C95.5002 87.6999 96.4002 86.8999 96.4002 85.7999C96.3002 84.6999 95.5002 83.8999 94.5002 83.8999ZM106.9 83.9999C107.6 83.9999 108.2 84.5999 108.2 85.2999C108.2 85.9999 107.6 86.5999 106.9 86.5999C106.2 86.5999 105.6 85.9999 105.6 85.2999C105.7 84.5999 106.2 83.9999 106.9 83.9999ZM94.4002 84.4999C95.1002 84.4999 95.7002 85.0999 95.7002 85.7999C95.7002 86.4999 95.1002 86.9999 94.4002 86.9999C93.7002 86.9999 93.1002 86.3999 93.1002 85.6999C93.2002 85.0999 93.7002 84.4999 94.4002 84.4999ZM135.9 84.8999C137.4 85.0999 141.7 88.1999 142.8 90.0999C143.8 91.8999 143.3 92.4999 142.2 90.9999C140.7 89.2999 137.2 86.5999 137.2 86.5999C137.2 86.5999 137.6 87.2999 139.4 89.0999C141.2 90.8999 143.1 93.0999 143.1 93.4999C143.1 93.7999 142.7 93.6999 142.2 93.3999C140.8 92.5999 139.5 91.3999 138.4 90.3999C136.8 88.9999 135 85.7999 135.3 84.9999C135.4 84.6999 135.7 84.7999 135.9 84.8999ZM51.5002 85.2999C52.7002 85.2999 54.0002 85.9999 54.0002 87.3999C54.0002 88.3999 54.1002 88.3999 55.0002 88.3999C55.8002 88.3999 58.2002 88.6999 58.2002 88.6999V91.3999C58.2002 91.3999 57.1002 91.3999 55.7002 91.2999C53.4002 91.1999 53.5002 91.1999 53.2002 92.1999C53.1002 92.5999 52.9002 92.7999 52.5002 93.0999C50.5002 94.3999 48.5002 91.9999 49.8002 89.6999C50.2002 88.8999 50.3002 88.5999 50.0002 88.1999C49.3002 86.8999 50.1002 85.3999 51.5002 85.2999ZM52.0002 86.6999C51.8002 86.6999 51.5002 86.7999 51.2002 87.0999C50.9002 87.3999 50.9002 88.3999 51.2002 88.8999C51.5002 89.3999 51.5002 89.5999 51.1002 89.8999C50.4002 90.4999 50.4002 91.6999 51.1002 92.1999C51.7002 92.5999 52.3002 92.0999 52.3002 91.1999C52.3002 90.2999 52.9002 90.2999 52.9002 90.2999L57.1002 90.3999V89.6999L54.0002 89.4999C53.6002 89.4999 53.1002 89.4999 52.8002 89.1999C52.5002 88.9999 52.1002 88.4999 52.4002 87.9999C53.1002 87.3999 52.6002 86.6999 52.0002 86.6999ZM42.8002 88.2999L44.8002 91.6999L47.1002 91.7999L47.3002 93.8999L50.1002 95.6999L47.2002 97.3999L47.1002 99.4999L44.9002 99.7999L42.8002 102.4L40.8002 99.7999H38.6002V97.5999L35.6002 95.6999L38.9002 93.8999V91.3999L41.2002 91.1999L42.8002 88.2999ZM113.7 89.8999L113.8 91.9999L110.5 92.5999L110.9 90.4999L113.7 89.8999ZM92.7002 91.8999L97.1002 91.9999L96.8002 121.1C96.8002 121.1 95.9002 121.1 95.8002 121.1V120H94.4002L93.0002 119.1L92.7002 91.8999ZM42.8002 92.6999L40.2002 95.9999L43.3002 98.7999L46.1002 95.5999L42.8002 92.6999ZM94.0002 93.0999V94.3999H95.9002V93.0999H94.0002ZM42.9002 94.2999L44.7002 95.5999L43.3002 97.4999L41.5002 95.9999L42.9002 94.2999ZM113.8 94.9999L113.7 110.9C107.6 115.7 105.7 124.2 105.7 124.2L103.2 124.1L109.5 95.9999L113.8 94.9999ZM80.8002 95.3999C75.3002 97.9999 69.8002 99.9999 64.4002 106.3C66.5002 108.2 68.7002 110.1 70.7002 113.4C75.2002 112.7 80.3002 113.5 85.7002 115.7L80.8002 95.3999ZM94.0002 95.6999V97.0999H95.9002V95.6999H94.0002ZM30.2002 95.7999C31.6002 95.6999 32.2002 96.9999 32.5002 97.6999C32.6002 98.0999 32.7002 98.5999 32.7002 98.5999C36.7002 98.2999 35.7002 102.9 33.1002 103.1C32.8002 103.1 33.3002 103.9 33.9002 104.2C35.4002 104.8 36.5002 104.4 37.5002 103.1C38.3002 102.1 38.3002 101.9 38.3002 101.9L40.8002 103.2C40.8002 103.2 40.9002 103.2 40.4002 104.3C39.6002 106.4 40.8002 108.9 41.7002 107.1C42.2002 106.1 43.6002 105.5 44.6002 106C45.7002 106.5 46.1002 108.5 45.3002 109.8C45.1002 110.2 45.1002 110.3 45.2002 110.6C45.4002 111.1 45.6002 112.5 45.3002 113C45.0002 113.6 44.6002 113.7 44.0002 113.2C43.1002 112.5 42.5002 112.3 40.9002 111.8C38.0002 111.3 37.5002 110.2 36.3002 107.9C32.9002 108.9 27.9002 106.8 28.5002 101.7C28.8002 100.6 28.9002 98.3999 28.3002 97.9999C27.3002 97.2999 28.5002 95.9999 30.2002 95.7999ZM80.3002 96.2999L84.7002 114.8C79.9002 113 75.1002 111.6 70.9002 112.7C69.0002 109.6 67.3002 108.1 65.2002 106.1C69.4002 101 74.7002 98.1999 80.3002 96.2999ZM30.5002 97.1999C30.2002 97.1999 29.9002 97.2999 29.6002 97.5999C29.6002 97.5999 29.9002 97.8999 30.1002 98.1999C30.4002 98.6999 30.4002 98.6999 30.1002 99.8999C28.8002 104.7 31.9002 107.9 36.5002 106.5C37.6002 106.2 37.6002 106.2 37.9002 107.5C38.4002 109.7 39.9002 110.8 43.0002 111.2C43.2002 111.2 43.5002 111.3 43.7002 111.4C45.0002 112.3 44.5002 111.1 44.1002 110.7C43.8002 110.4 43.4002 110 43.4002 110C43.4002 110 43.8002 109.7 44.0002 109.6C44.9002 109.1 45.2002 107.4 44.5002 107C43.9002 106.7 42.8002 107.2 42.8002 107.8C42.8002 109 41.3002 109.1 40.0002 108.1C38.3002 106.8 39.8002 103.6 39.8002 103.6L38.8002 103.2C38.9002 103.3 36.8002 106.4 34.1002 105.3C32.3002 104.6 31.0002 102.4 31.8002 101.8C32.4002 101.6 33.2002 102 33.6002 101.6C34.5002 100.9 33.8002 99.4999 32.4002 99.5999C32.1002 99.5999 31.5002 99.6999 31.5002 99.6999C31.6002 99.0999 31.7002 98.6999 31.7002 98.0999C31.5002 97.6999 31.1002 97.1999 30.5002 97.1999ZM94.0002 98.5999V99.6999H95.8002V98.5999H94.0002ZM94.0002 101V102.2H95.9002V101H94.0002ZM94.0002 103.5V104.7H95.9002V103.5H94.0002ZM94.0002 105.9V107.2H95.9002V105.9H94.0002ZM94.0002 108.2V109.4H95.9002V108.2H94.0002ZM94.0002 110.7V111.9H95.9002V110.7H94.0002ZM33.3002 111.8L35.1002 114.5L37.0002 114.6L37.1002 116.4L40.3002 118.8L37.5002 120.8L37.3002 122.8L35.1002 122.9L33.3002 125.9L31.1002 123.3L29.3002 123L29.1002 120.6L26.4002 118.6L28.9002 116.6L29.1002 114.5L31.2002 114.7L33.3002 111.8ZM136.4 113.1C136.6 113.1 136.8 113.2 137 113.3C137.7 113.6 137.9 113.7 139.6 113.8C141.6 113.9 142.3 114.1 143.3 114.7C143.9 115.1 143.9 115.1 144.6 114.7C147.4 112.8 150.5 114.5 150.8 118C150.9 118.9 151 119.3 151.3 120C151.5 120.5 151.8 120.9 151.6 121.3C151.2 122.3 149 122.4 147.9 120.9C147.7 120.7 147.5 120.6 147.2 120.6C146.6 120.8 145.1 119.6 145.2 119.6C145.1 120.4 145 121.1 144.8 122.2H142.2C142.2 122.2 142.1 121.7 142 120.1C141.9 118.2 141.4 117.6 140.8 118.7C139.8 120.5 137 119.7 136.8 117.6C136.7 116.9 136.7 116.8 136.3 116.5C134.8 115.2 135.2 113.1 136.4 113.1ZM94.0002 113.2V114.3H95.9002V113.2H94.0002ZM136.7 114.3C136.2 114.2 136.5 115.3 137.3 115.7C137.8 116 137.8 116 137.7 116.8C137.6 118.3 139.1 119.1 139.7 117.8C139.8 117.6 139.9 117.3 139.8 117.1C139.5 116 141.9 116.3 142.5 117.4C142.6 117.7 142.8 118.4 142.9 119.1C143 119.8 143 120.6 143 120.6H143.8C143.8 120.6 143.8 120.1 143.8 119.7C144 117.8 144.8 116.6 146 116.6C146.5 116.6 146.5 116.7 146.2 117.3C145.6 118.4 146.2 119.1 147.5 119.1C148.3 119.1 148.3 119.1 148.7 119.7C149 120.4 149.3 120.6 149.6 120.4C149.8 120.3 149.8 120.4 149.5 118.2C149.1 114.8 147.1 113.9 144.4 115.8C143.6 116.3 143.5 116.3 142.8 115.7C141.8 114.7 141.1 114.5 139.2 114.4C138.3 114.6 137.5 114.4 136.7 114.3ZM72.9002 115.3C72.5002 115.3 72.0002 115.4 71.5002 115.4C72.0002 118 72.2002 120.6 72.4002 123.2C74.7002 122.8 77.6002 123.2 81.5002 125C83.9002 126.1 86.8002 128 89.8002 130.2C93.1002 132.5 96.9002 133.9 100.2 134.6C104.2 135.5 107.4 135.4 107.3 135.2C107.1 135.2 105.9 128.8 106 127.4C100.5 126.9 95.1002 124.8 91.0002 122C85.7002 118.4 79.5002 115.2 72.9002 115.3ZM94.0002 115.5V116.6H95.9002V115.5H94.0002ZM33.3002 115.7L30.1002 118.8L33.3002 121.8L36.0002 118.8L33.3002 115.7ZM33.3002 117.3L34.7002 118.9L33.2002 120.5L31.4002 118.9L33.3002 117.3ZM74.4002 117.4C74.8002 117.4 75.2002 117.7 76.5002 118.4C77.6002 119.2 78.5002 119.6 78.1002 118.4C78.3002 118.1 79.6002 119.2 81.0002 119.9C82.7002 121.3 82.7002 120.9 82.9002 120.3C83.1002 119.8 83.4002 120.1 84.8002 121.4C86.6002 123.1 86.4002 123.1 86.8002 122.7C87.2002 121.9 87.3002 121.9 88.8002 123.6C90.3002 125.3 90.6002 125.7 91.0002 124.9C91.5002 124.5 91.8002 124.9 93.8002 126.8C94.8002 127.8 95.1002 127.7 95.2002 127C95.4002 126.3 95.5002 126.5 97.2002 127.8C99.2002 129.4 99.4002 129.5 99.5002 129C99.6002 128.1 100.2 128.4 102.3 129.9C103.5 130.8 104 131 104.3 130.8C104.6 130.3 103.6 129.4 105.6 130.3L106.1 133.2L105.4 133C105 132.9 104 132.6 104.4 133.5C104.6 134 104.1 134 102.6 133C100.4 131.7 100 131.4 99.8002 131.6C99.5002 132.6 99.5002 132.7 98.0002 131.5C96.3002 130.2 95.9002 129.8 95.7002 130.3C95.7002 131.3 95.2002 131.1 93.6002 129.7C92.2002 128.5 91.9002 127.9 91.3002 128.8C91.1002 129.1 91.0002 129 90.7002 128.9C89.9002 128.3 88.3002 126.6 87.8002 126.1C87.4002 125.7 87.2002 125.8 86.9002 126.2C86.6002 126.5 86.6002 126.4 85.7002 125.6C83.6002 123.6 83.2002 123.2 82.9002 123.4C82.7002 123.9 82.9002 124.5 81.3002 123.2C79.3002 121.7 78.4002 121.1 78.5002 122C78.1002 122.4 78.4002 122.5 76.4002 121.4C74.5002 120.3 74.2002 120 73.9002 120.4C73.7002 121 73.1002 120.8 73.1002 120.7L72.7002 117.7H73.4002C73.4002 117.7 74.1002 117.4 74.4002 117.4ZM58.8002 117.6C58.6002 118.1 57.6002 120.7 57.6002 127.4C57.7002 127.6 60.3002 125 60.4002 122.6C60.5002 120.3 58.8002 117.6 58.8002 117.6ZM94.0002 117.8V119H95.9002V117.8H94.0002ZM59.0002 118.8C61.4002 122.6 58.8002 126.1 58.1002 126.4C58.1002 123.5 58.5002 120.9 59.0002 118.8ZM120.9 122C117 124.5 117.6 131.1 119.6 132.8C119.7 132.8 120.9 125.6 120.9 122ZM120.4 122.8L119.4 131.4C118 129.8 117.8 125.3 120.4 122.8ZM144.9 124.2L147 126.8L148.8 126.9L149.2 128.8L151.9 131L149.2 132.8L149 134.9L147 135.1L145 138.2L143.1 135.2L141.3 135L141.2 133L138.3 130.9L141.1 129.2L141.2 126.9H143.4L144.9 124.2ZM72.3002 125C71.0002 131.2 67.9002 135.5 63.5002 138.4V139L56.1002 142C54.5002 149.6 51.6002 157 45.5002 164L47.2002 167.5L38.9002 170.4L50.7002 190.8C51.5002 190.8 45.0002 193.9 37.1002 193.1C42.1002 205.4 43.1002 218.2 40.4002 229.3L79.0002 229L49.4002 170.6L48.9002 169.6C48.5002 168.8 64.4002 171.4 61.2002 186.9C61.2002 187.2 61.3002 187.3 61.5002 187.1C64.6002 184.4 85.5002 176.9 102.1 186.8L107 184.7C104.6 193 102 198.7 97.5002 203.7L98.3002 215.5C106.3 208.9 114.9 196.9 116.1 180.8C119.7 179 122.8 177 126.2 175.2L126.6 175.3L128.8 174C121.9 166.4 107.7 159 98.6002 157.1L99.1002 159.7C94.1002 158.3 90.3002 158.1 86.4002 157.6L85.8002 130.2L80.7002 127.2L80.5002 157.5C76.7002 157.5 68.0002 159 68.0002 159L68.4002 156.4L64.4002 157.2L64.3002 154.7L68.8002 153.4L75.3002 125.6L72.3002 125ZM72.8002 125.6L74.9002 126L68.4002 153.2C68.4002 153.2 64.8002 154.2 64.6002 154.1C64.3002 149 64.2002 138.6 64.2002 138.6C70.6002 133.3 71.5002 129.5 72.8002 125.6ZM28.5002 127.6C29.5002 127.6 30.5002 128.3 30.6002 128.9C30.8002 129.3 30.9002 129.5 31.2002 129.5C32.8002 129.7 32.9002 130.2 32.9002 131.1C32.7002 132.9 33.9002 131.4 34.2002 129.6C34.2002 129.4 34.2002 128 34.2002 128H36.2002C36.2002 128 36.3002 129.4 36.3002 129.7C36.5002 131.1 37.1002 132.2 37.5002 131.5C38.9002 129 42.1002 130.3 41.6002 132.7C41.5002 133.3 41.5002 133.3 41.9002 133.8C42.5002 134.5 42.8002 135.3 42.6002 135.9C42.4002 136.5 41.9002 136.6 41.0002 136.3C40.5002 136.1 40.0002 136.1 38.5002 136C36.5002 136 35.8002 135.8 35.0002 134.6C33.2002 136.2 31.1002 136.1 29.8002 135.2C28.8002 134.7 28.2002 133.4 28.0002 131.5C28.0002 130.5 27.7002 129.7 27.0002 129.5C26.7002 129.2 27.0002 128.5 27.6002 127.9C27.9002 127.7 28.2002 127.7 28.5002 127.6ZM144.7 127.9L142 131.3L145.3 134.2L148.3 130.6L144.7 127.9ZM81.3002 128.4L85.1002 130.6L85.6002 157.6L81.3002 157.5V128.4ZM28.7002 130C28.9002 130.6 28.9002 131 28.9002 131.5C28.5002 134.5 31.9002 136 34.3002 133.9C34.9002 133.2 35.1002 133.2 35.6002 134C36.3002 134.8 37.2002 135.1 39.3002 135C40.2002 134.9 40.8002 135.4 41.3002 135.1C41.6002 134.9 41.3002 134.3 40.7002 134C40.4002 133.8 40.3002 133.8 40.4002 133.1C40.6002 131.3 39.1002 130.9 38.1002 132.4C37.3002 133.6 36.0002 132.8 35.6002 130.8C35.4002 129.2 35.2002 129.3 35.0002 130.6C34.8002 132.2 32.6002 134 31.8002 133.2C31.6002 133 31.6002 133 31.8002 132.2C32.1002 131.1 31.9002 130.7 30.7002 130.5C30.5002 130.5 30.3002 130.3 30.2002 130.2C29.6002 129.3 29.6002 129 28.8002 128.9C27.9002 128.7 28.6002 129.5 28.7002 130ZM145 129.4L146.7 130.9L145.2 132.7L143.4 131.3L145 129.4ZM82.5002 130.4V131.6H84.1002V130.3H82.5002V130.4ZM82.5002 133V134.2V134.3H84.1002V133H82.5002ZM92.2002 134.5C94.0002 141.3 95.9002 148.1 97.7002 154.9C99.4002 154.2 109.4 149.7 114.1 144C113.9 144 109.8 140 108.4 137.4C103.7 138.2 98.3002 137.2 92.2002 134.5ZM82.5002 135.3V136.5H84.1002V135.2L82.5002 135.3ZM93.3002 135.7C97.6002 137 103.1 138.8 108.2 137.9C109.5 140.3 111.4 142.2 113.5 144C109.7 148.2 104.1 151.4 98.4002 153.9L93.3002 135.7ZM134 136.2C134.2 136.2 134.4 136.3 134.6 136.5C135.3 137.1 135.8 137.3 137.2 137.5C139.4 137.9 141.1 139.3 141.6 141.1C141.8 141.9 141.9 141.9 143 141.6C147.2 140.5 150.5 144.1 149.5 148.7C149.1 150.3 149 150.5 149.5 151.2C150.6 152.4 150.8 152.4 149.6 153.4C148.5 154.4 146.4 153.9 146 152.3C145.6 151.4 145.6 151.4 144.9 151.3C142.1 150.9 142.3 147 144.9 146.6C145.1 146.6 145.3 146.6 145.4 146.6C146.1 146.3 144.6 144.5 143.3 144.8C141.7 145.1 141 146.1 140.3 147.7L137.8 146.3C138.4 145 138.9 143.4 138.3 142.3C137.9 141.4 137.3 141.4 137.2 142.2C136.8 144.1 134.4 144.7 132.8 143.1C131.9 142.2 131.8 141.3 132.5 140C132.9 139.2 132.9 139.1 132.8 138.8C132.2 137.7 133.1 136.2 134 136.2ZM82.5002 137.7V139H84.1002V137.7H82.5002ZM134.3 137.8C133.8 137.8 133.8 138.3 134.3 138.9C134.7 139.3 134.8 139.5 134.2 139.9C133.5 140.6 133.3 141.6 133.8 142.3C134.5 143.4 136.2 142.8 136 141.5C135.9 140.6 136.6 140.1 137.8 140.5C139.5 141 140.3 142.9 139.6 144.9C139.5 145.3 139.2 146.1 139.2 146.1L139.7 146.4C139.7 146.4 140.3 145.4 140.5 145.2C142.4 142.8 147 144 146.5 147C146.4 147.9 146.4 148.1 145.4 147.8C144.7 147.4 144.1 148.2 144.1 149.1C144.1 149.9 144.8 150.6 145.8 150.4C146.6 150.3 146.8 150.3 146.7 151.3C146.8 152 147.1 152.5 147.5 152.8C148.7 153.3 149.2 152.6 148.3 151.6C147.7 151 147.8 150.1 148.1 149.2C148.5 148.2 148.3 145.9 147.7 144.7C146.8 142.9 144.2 142.1 142 143C141 143.5 140.9 143.7 140.8 142.7C140.3 140.4 138.5 138.6 136.3 138.5C135.7 138.4 134.8 138 134.3 137.8ZM82.5002 140.2V141.4H84.1002V140.2H82.5002ZM82.5002 142.6V143.9H84.1002V142.6H82.5002ZM82.5002 145.2V146.5C82.5002 146.5 83.4002 146.5 84.1002 146.5V145.2H82.5002ZM135.4 147.3L137.2 149.9L139.2 150L139.4 152.1L142.4 154L139.8 155.6V157.7L137.3 157.9L135.1 160.8L133.2 158.2H131.3L130.9 155.9L127.6 154.2L131 152.3V150H133.3L135.4 147.3ZM82.5002 147.6V149H84.1002V147.6H82.5002ZM82.5002 150.1V151.5H84.1002V150.1H82.5002ZM134.4 151.1L131.9 154.5L135.3 157.4L138 154L134.4 151.1ZM82.5002 152.5V154H84.1002V152.5H82.5002ZM134.7 152.7L136.5 154.1L135.2 155.7L133.4 154.4L134.7 152.7ZM82.5002 155.2V156.4H84.1002V155.2H82.5002ZM34.2002 155.4C31.1002 155.4 28.1002 160.5 27.4002 162.9C26.6002 166 26.4002 171.6 27.2002 171.7C30.0002 169.7 31.3002 166.2 33.4002 163.7C33.7002 166.7 33.7002 172.4 33.7002 172.4C33.7002 172.4 32.5002 173.1 31.8002 174.1C31.3002 175 31.2002 176 31.6002 177C30.0002 176.5 27.2002 177.1 27.1002 180C27.2002 184.1 31.6002 183.5 31.6002 183.4C31.5002 183.4 30.7002 187.7 34.7002 188.2C36.1002 188.4 38.6002 187.3 37.9002 183.4C40.4002 183.8 42.5002 182.4 42.5002 180C42.5002 178.4 41.3002 176.9 39.2002 176.9C38.8002 176.9 37.8002 177.1 37.8002 177.1C37.8002 176.9 38.7002 174.3 35.8002 172.5L35.3002 160.7C35.3002 160.7 36.3002 161.8 36.7002 162.2C38.6002 164 39.9002 164.9 42.1002 166C44.2002 167.1 44.0002 166.9 43.6002 164.7C42.6002 161.5 40.5002 159 36.0002 155.9C35.4002 155.6 34.8002 155.4 34.2002 155.4ZM34.5002 155.7L35.1002 172.4H34.2002L33.4002 155.7H34.5002ZM126.5 156.2C126.6 156.2 126.7 156.2 126.8 156.2C128.8 156.4 129.3 158.6 128.4 159.7C128 160.1 127.9 160.2 128.1 160.4C129 161.5 128.5 163.3 127.6 163.5C124.9 164.4 124.5 162.9 124.5 161.1L120.3 160.9V158.4L124.9 158.5C124.6 157.5 125.3 156.3 126.5 156.2ZM32.6002 156.2C33.0002 156.2 32.6002 157.4 31.4002 159.2C29.2002 162.4 28.3002 165.2 28.3002 168.2C29.3002 165.1 30.0002 162.6 32.6002 158.9C33.0002 158.5 33.1002 158.8 33.1002 160C33.1002 162.8 31.8002 165.7 28.7002 169.1C28.2002 169.7 27.5002 170.3 27.4002 170.3C27.1002 170.3 27.1002 169.7 27.1002 168.4C27.1002 163.2 29.1002 158.6 32.0002 156.5C32.2002 156.4 32.4002 156.2 32.6002 156.2ZM35.7002 156.5C37.1002 156.9 39.5002 159.1 40.5002 160.2C41.7002 161.5 43.2002 165 43.0002 165.5C42.9002 165.7 42.7002 165.7 42.0002 165.3C37.7002 162.8 34.6002 159.8 35.4002 158.9C35.6002 158.6 36.6002 159.2 37.8002 160.4C38.6002 161.2 39.5002 161.9 40.3002 162.7C41.5002 163.9 41.8002 164.1 41.1002 162.7C40.4002 161.5 38.6002 159.5 36.3002 157.8C35.3002 157 35.1002 156.5 35.7002 156.5ZM126.8 157.2C126.7 157.2 126.7 157.2 126.6 157.2C125.7 157.6 126.1 158.7 126 159.5L121.3 159.3V160L125.7 160.2C125.8 160.9 125.4 162.3 126 162.5C127.2 163 127.9 161.4 126.9 160.5C126.5 160.2 126.1 160 127.2 159.6C127.9 159 128 157.9 127.4 157.4C127.2 157.2 127 157.2 126.8 157.2ZM67.6002 157.4L67.4002 159.1L64.7002 159.8L64.6002 157.9L67.6002 157.4ZM99.6002 158C109.6 160.7 120.8 166.9 128 173.8L126.6 174.8C119.1 167.8 109.2 162.5 100.1 159.9L99.6002 158ZM82.3002 158.3C98.8002 158.3 113.9 164.7 126 175.1L124 176.4C112.9 167.2 100.7 161.1 84.1002 160.3C73.3002 159.8 61.0002 162.6 48.9002 169.3L48.0002 167.6C59.8002 161.2 71.4002 158.3 82.3002 158.3ZM81.0002 160.8L87.5002 161L87.1002 167.1L81.2002 166.9L81.0002 160.8ZM74.0002 161.2L75.0002 167L69.4002 168.1L67.8002 162.2L74.0002 161.2ZM94.6002 162L101 163.7L98.9002 169.7L93.2002 168.1L94.6002 162ZM84.3002 162C83.3002 162 82.4002 162.8 82.4002 163.9C82.4002 164.9 83.2002 165.8 84.3002 165.8C85.3002 165.8 86.2002 165 86.2002 163.9C86.1002 162.9 85.3002 162 84.3002 162ZM84.3002 162.7C85.0002 162.7 85.5002 163.2 85.5002 163.9C85.5002 164.6 84.9002 165.1 84.3002 165.1C83.6002 165.1 83.1002 164.6 83.1002 163.9C83.0002 163.2 83.6002 162.7 84.3002 162.7ZM71.5002 162.7C70.5002 162.7 69.6002 163.5 69.6002 164.6C69.6002 165.6 70.4002 166.5 71.5002 166.5C72.5002 166.5 73.4002 165.7 73.4002 164.6C73.3002 163.5 72.5002 162.7 71.5002 162.7ZM71.5002 163.3C72.2002 163.3 72.7002 163.8 72.7002 164.5C72.7002 165.2 72.1002 165.7 71.5002 165.7C70.8002 165.7 70.3002 165.2 70.3002 164.5C70.2002 163.9 70.8002 163.3 71.5002 163.3ZM97.0002 164.1C96.0002 164.1 95.1002 164.9 95.1002 166C95.1002 167 95.9002 167.9 97.0002 167.9C98.0002 167.9 98.9002 167.1 98.9002 166C98.9002 164.9 98.0002 164.1 97.0002 164.1ZM61.1002 164.3L63.0002 170L57.5002 172.2L55.4002 166.6L61.1002 164.3ZM97.0002 164.7C97.7002 164.7 98.2002 165.2 98.2002 165.9C98.2002 166.6 97.6002 167.1 97.0002 167.1C96.3002 167.1 95.8002 166.6 95.8002 165.9C95.8002 165.3 96.3002 164.7 97.0002 164.7ZM107.7 166.1L113.5 169.2L110.5 174.7L105.1 171.9L107.7 166.1ZM59.1002 166.6C58.1002 166.6 57.2002 167.4 57.2002 168.5C57.2002 169.5 58.0002 170.4 59.1002 170.4C60.1002 170.4 61.0002 169.6 61.0002 168.5C61.0002 167.4 60.1002 166.6 59.1002 166.6ZM81.0002 166.8L81.3002 172.6L76.2002 173L75.3002 167.3L81.0002 166.8ZM87.2002 167.1L93.1002 167.9L91.7002 173.4L86.4002 172.5L87.2002 167.1ZM59.1002 167.2C59.8002 167.2 60.3002 167.7 60.3002 168.4C60.3002 169.1 59.7002 169.6 59.1002 169.6C58.4002 169.6 57.9002 169.1 57.9002 168.4C57.9002 167.8 58.4002 167.2 59.1002 167.2ZM78.3002 168C77.3002 168 76.4002 168.8 76.4002 169.9C76.4002 170.9 77.2002 171.8 78.3002 171.8C79.3002 171.8 80.2002 171 80.2002 169.9C80.2002 168.8 79.3002 168 78.3002 168ZM68.9002 168.2L70.4002 173.8L64.7002 175.4L63.0002 170L68.9002 168.2ZM89.5002 168.3C88.5002 168.3 87.6002 169.1 87.6002 170.2C87.6002 171.2 88.4002 172.1 89.5002 172.1C90.5002 172.1 91.4002 171.3 91.4002 170.2C91.3002 169.2 90.5002 168.3 89.5002 168.3ZM78.3002 168.6C79.0002 168.6 79.5002 169.1 79.5002 169.8C79.5002 170.5 78.9002 171 78.3002 171C77.6002 171 77.1002 170.5 77.1002 169.8C77.1002 169.2 77.6002 168.6 78.3002 168.6ZM89.5002 169C90.2002 169 90.7002 169.5 90.7002 170.2C90.7002 170.9 90.1002 171.4 89.5002 171.4C88.8002 171.4 88.3002 170.9 88.3002 170.2C88.2002 169.5 88.8002 169 89.5002 169ZM109.3 169C108.3 169 107.4 169.8 107.4 170.9C107.4 171.9 108.2 172.8 109.3 172.8C110.4 172.8 111.2 172 111.2 170.9C111.1 169.8 110.3 169 109.3 169ZM99.3002 169.5L105 171.4L102.7 176.7L97.3002 174.6L99.3002 169.5ZM109.3 169.6C110 169.6 110.5 170.1 110.5 170.8C110.5 171.5 109.9 172 109.3 172C108.6 172 108.1 171.5 108.1 170.8C108 170.2 108.6 169.6 109.3 169.6ZM66.7002 169.8C65.7002 169.8 64.8002 170.6 64.8002 171.7C64.8002 172.7 65.6002 173.6 66.7002 173.6C67.7002 173.6 68.6002 172.8 68.6002 171.7C68.5002 170.7 67.7002 169.8 66.7002 169.8ZM66.7002 170.5C67.4002 170.5 67.9002 171 67.9002 171.7C67.9002 172.4 67.3002 172.9 66.7002 172.9C66.0002 172.9 65.5002 172.4 65.5002 171.7C65.5002 171 66.0002 170.5 66.7002 170.5ZM101 171.5C100 171.5 99.1002 172.3 99.1002 173.4C99.1002 174.4 99.9002 175.3 101 175.3C102 175.3 102.9 174.5 102.9 173.4C102.8 172.4 102 171.5 101 171.5ZM101 172.2C101.7 172.2 102.2 172.7 102.2 173.4C102.2 174.1 101.6 174.6 101 174.6C100.4 174.6 99.8002 174.1 99.8002 173.4C99.8002 172.7 100.3 172.2 101 172.2ZM34.7002 172.8C36.2002 172.9 37.3002 174.2 37.4002 175.6C37.5002 176.7 36.1002 178 36.1002 178L34.5002 176.5L33.0002 178C32.7002 178.1 31.6002 176.1 31.9002 175.1C32.4002 173.7 33.3002 172.8 34.7002 172.8ZM118.8 172.8L123.3 176.5C123.3 176.5 121.3 177.7 121 177.9C121 177.7 121.1 177.6 121.1 177.4C121.1 176.4 120.3 175.5 119.2 175.5C118.2 175.5 117.3 176.3 117.3 177.4C117.3 178.3 117.9 179 118.7 179.2C118.2 179.5 117.6 179.8 117.6 179.8L115.2 177.8L118.8 172.8ZM83.2002 173C92.2002 173.1 101.9 175.8 111.8 182.7L109.8 183.5C97.6002 175.4 80.9002 171 61.8002 179.1L61.1002 177.5C67.8002 174.8 75.2002 172.9 83.2002 173ZM110.7 174.6L115.5 177.6L112.4 182.3L107.7 179.3L110.7 174.6ZM82.0002 175.5C91.6002 175.5 101.1 178.5 109.3 183.8L107.3 184.6C92.4002 175 76.5002 175.5 62.3002 181.3L62.1002 179.9C68.8002 176.9 75.4002 175.5 82.0002 175.5ZM119.2 176.2C119.9 176.2 120.4 176.7 120.4 177.4C120.4 178.1 119.8 178.6 119.2 178.6C118.6 178.6 118 178.1 118 177.4C118 176.8 118.5 176.2 119.2 176.2ZM30.2002 177.1C31.0002 177.1 31.9002 177.5 32.5002 178.4L30.8002 180.1L32.3002 181.8C32.3002 181.8 31.8002 182.2 31.5002 182.4C29.5002 183.5 27.3002 181.8 27.5002 179.9C27.6002 178.3 28.9002 177.1 30.2002 177.1ZM111.4 177.1C110.4 177.1 109.5 177.9 109.5 179C109.5 180 110.3 180.9 111.4 180.9C112.5 180.9 113.3 180.1 113.3 179C113.2 178 112.4 177.1 111.4 177.1ZM39.2002 177.2C40.7002 177.2 41.8002 178.4 42.0002 179.7C42.1002 180.7 41.6002 181.7 40.4002 182.5C38.8002 183.5 37.0002 181.9 37.0002 181.8L38.3002 180.5L36.7002 178.9C36.7002 178.7 37.8002 177.2 39.2002 177.2ZM34.6002 177.5L37.3002 180.2L34.4002 182.9L31.7002 180.2L34.6002 177.5ZM106.6 184.8L105.1 185.5L103 184.2L102.4 185.4L103.6 186.1L102.4 186.6C88.5002 178.7 72.7002 181 62.3002 186.2L62.4002 185.4L63.5002 184.8L63.1002 183.4L62.5002 183.6V182C69.0002 179 75.4002 177.7 83.1002 177.8C90.7002 177.9 99.6002 180.3 106.6 184.8ZM111.4 177.8C112.1 177.8 112.6 178.3 112.6 179C112.6 179.7 112 180.2 111.4 180.2C110.7 180.2 110.2 179.7 110.2 179C110.1 178.3 110.7 177.8 111.4 177.8ZM34.5002 178.8L33.0002 180.3L34.4002 181.9L35.8002 180.4L34.5002 178.8ZM80.1002 179.1L78.2002 179.2L78.3002 180.8H80.2002L80.1002 179.1ZM81.4002 179.1V180.7H83.1002V179.2L81.4002 179.1ZM84.5002 179.1L84.4002 180.7L86.1002 180.8L86.2002 179.3L84.5002 179.1ZM77.1002 179.3L75.1002 179.5L75.3002 181.1L77.1002 180.9V179.3ZM87.7002 179.3L87.6002 180.9L89.4002 181.1L89.6002 179.6L87.7002 179.3ZM34.5002 179.4L35.3002 180.3L34.5002 181.1L33.6002 180.2L34.5002 179.4ZM73.8002 179.8L71.9002 180.1L72.1002 181.7L73.9002 181.3L73.8002 179.8ZM90.9002 179.8L90.6002 181.3L92.4002 181.7L92.7002 180.2L90.9002 179.8ZM34.5002 180C34.3002 180 34.2002 180.1 34.2002 180.3C34.2002 180.4 34.3002 180.6 34.5002 180.6C34.7002 180.6 34.8002 180.5 34.8002 180.3C34.8002 180.1 34.7002 180 34.5002 180ZM70.7002 180.5L69.1002 180.9L69.4002 182.5L71.1002 182.1L70.7002 180.5ZM93.9002 180.6L93.6002 182.1L95.4002 182.6L95.8002 181.1L93.9002 180.6ZM68.1002 181.3L66.4002 181.9L66.8002 183.4L68.5002 182.8L68.1002 181.3ZM97.0002 181.5L96.4002 183L97.9002 183.6L98.6002 182.3L97.0002 181.5ZM36.4002 182.3C38.0002 183.8 38.0002 187.2 35.1002 187.8C32.5002 188.3 30.2002 184.5 32.9002 182.4L34.5002 184L36.4002 182.3ZM65.3002 182.3L63.7002 182.9L64.3002 184.3L65.8002 183.6L65.3002 182.3ZM99.8002 182.7L99.2002 184L100.9 184.8L101.5 183.5L99.8002 182.7ZM51.0002 191.3L72.6002 228.2L69.2002 228.1L48.3002 192.4L51.0002 191.3ZM47.5002 192.7L48.7002 194.6C46.4002 192.7 42.9002 194.3 43.1002 196.7C43.2002 197.8 44.1002 198.4 44.1002 197.4C44.0002 196.3 45.5002 195.4 46.6002 195.5C48.6002 195.5 49.8002 198.1 48.4002 199.4C47.5002 200.2 46.3002 200.2 46.7002 199.1C46.8002 198.7 46.7002 198.6 46.5002 198.4C45.9002 197.9 44.9002 198.6 45.1002 199.3C45.3002 199.8 45.3002 199.9 44.7002 200.3C42.4002 201.9 44.0002 205.1 46.8002 203.7C47.4002 203.5 47.6002 203.5 47.9002 203.6C49.1002 204 49.8002 203 48.7002 202.5C48.1002 202.2 48.0002 201.7 48.7002 201.3C50.0002 200.4 52.0002 201.8 52.0002 203.6C52.0002 204.8 50.4002 205.8 48.8002 205.4C47.9002 205.2 47.8002 205.8 48.6002 206.5C50.3002 207.8 52.7002 206.7 53.5002 204.4C53.7002 203.7 53.7002 203.5 53.7002 203.5L55.9002 207.2C55.9002 207.2 55.2002 206.9 54.8002 206.7C52.7002 206.1 50.4002 207.4 50.4002 209.3C50.4002 210.2 50.9002 210.5 51.2002 209.8C51.9002 208.2 53.3002 207.6 54.8002 208.3C56.2002 208.9 56.8002 210.3 56.3002 211.6C55.7002 212.9 53.8002 213.3 54.1002 212.1C54.2002 211.5 53.8002 211.1 53.2002 211.2C53.0002 211.2 52.7002 211.9 52.7002 212.3C52.8002 212.6 52.7002 212.7 51.9002 213.3C50.0002 214.8 51.5002 217.3 53.9002 216.6C54.3002 216.5 54.5002 216.5 54.8002 216.7C55.7002 217.1 56.6002 216.9 56.6002 216.2C56.6002 215.7 56.4002 215.6 55.9002 215.6C55.1002 215.6 55.3002 214.7 56.2002 214.2C58.5002 213.1 60.8002 216 59.4002 218.2C58.8002 219.2 58.4002 219.3 56.3002 219C56.0002 219 55.8002 219.2 56.0002 219.5C56.6002 220.4 58.5002 220.7 59.6002 220.2C60.8002 219.7 61.5002 218.3 61.6002 216.9L64.0002 221.1C62.1002 219.1 58.9002 219.9 58.4002 222.7C58.4002 223.4 59.0002 223.8 59.3002 223.2C60.3002 220.6 64.0002 221.4 64.0002 224.2C64.0002 224.6 63.9002 224.9 63.6002 225.3C62.9002 226.6 61.2002 226.9 61.5002 225.8C61.6002 225.4 61.4002 225 60.9002 224.9C60.4002 224.8 60.1002 225.2 60.1002 225.9C60.1002 226.4 60.1002 226.6 60.1002 226.6C59.2002 227 58.7002 227.7 58.5002 228.8H41.6002C43.6002 217 43.1002 206.4 39.3002 196.3C39.0002 195.4 38.5002 194.2 38.5002 194.2L41.5002 194.3C42.2002 194.9 44.9002 194.7 46.0002 193.7L47.5002 192.7ZM50.3002 197.3L52.0002 200.5C51.3002 200.1 50.5002 199.8 49.4002 199.7C50.1002 198.8 50.1002 198 50.3002 197.3ZM45.7002 200.7C46.3002 200.7 46.9002 201.2 46.9002 201.9C46.9002 202.5 46.4002 203.1 45.7002 203.1C45.1002 203.1 44.5002 202.6 44.5002 201.9C44.5002 201.2 45.1002 200.7 45.7002 200.7ZM57.8002 210.1L59.5002 213.1C58.7002 212.7 58.0002 212.4 56.7002 212.4C57.1002 211.9 57.5002 210.9 57.8002 210.1ZM52.9002 213.3C53.5002 213.3 54.0002 213.8 54.0002 214.4C54.0002 215 53.5002 215.5 52.9002 215.5C52.3002 215.5 51.8002 215 51.8002 214.4C51.8002 213.8 52.3002 213.3 52.9002 213.3ZM65.1002 222.7L67.6002 227.1C66.6002 226.5 65.6002 225.8 64.3002 226C64.9002 224.7 65.2002 223.9 65.1002 222.7ZM60.5002 226.7C61.2002 226.6 61.9002 227.3 61.9002 228.2H59.2002C59.4002 227.2 59.9002 226.8 60.5002 226.7ZM64.3002 227.1C65.2002 227.1 66.0002 227.5 66.5002 228.3H63.1002C63.2002 228.3 63.2002 227.1 64.3002 227.1Z" fill="#FC0000"/>
<path d="M47.8999 64.3001C47.8999 64.3001 44.1999 58.2001 39.0999 51.0001C35.6999 46.2001 32.9999 41.0001 32.7999 36.5001C32.4999 31.4001 35.1999 26.2001 40.1999 26.0001C45.0999 25.8001 47.0999 30.0001 47.8999 33.4001C48.6999 29.9001 50.6999 25.7001 55.5999 26.0001C60.4999 26.2001 63.1999 31.4001 62.9999 36.5001C62.6999 41.0001 60.0999 46.2001 56.6999 51.0001C51.5999 58.2001 47.8999 64.3001 47.8999 64.3001Z" fill="#FC0000"/>
<path d="M130.7 184.6C130.7 184.6 127 190.7 121.9 197.9C118.5 202.7 115.8 207.9 115.6 212.4C115.3 217.5 118 222.7 123 222.9C127.9 223.1 129.9 218.9 130.7 215.5C131.5 219 133.5 223.2 138.4 222.9C143.3 222.7 146 217.5 145.8 212.4C145.5 207.9 142.9 202.7 139.5 197.9C134.4 190.7 130.7 184.6 130.7 184.6Z" fill="#FC0000"/>
</g>
<defs>
<clipPath id="clip0">
<rect width="178.6" height="249.4" fill="white"/>
</clipPath>
</defs>
</svg>
