<svg width="179" height="250" viewBox="0 0 179 250" fill="none" xmlns="http://www.w3.org/2000/svg">
<g clip-path="url(#clip0)">
<path d="M8.72852 -0.0205078H170.229C174.929 -0.0205078 178.729 3.77949 178.729 8.47949V240.879C178.729 245.579 174.929 249.379 170.229 249.379H8.72852C4.02852 249.379 0.228516 245.579 0.228516 240.879V8.57947C0.228516 3.77947 4.02852 -0.0205078 8.72852 -0.0205078Z" fill="white"/>
<path d="M14.0002 56C12.3002 53.1 10.5002 50.4 8.2002 48C10.5002 45.6 12.3002 42.9 14.0002 40C15.7002 42.9 17.5002 45.6 19.8002 48C17.5002 50.3 15.7002 53.1 14.0002 56Z" fill="#030D6D"/>
<path d="M130.9 64.5999C126.8 57.6999 122.4 51.1 116.9 45.4C122.4 39.7 126.7 33.1 130.9 26.2C135 33.1 139.4 39.7 144.9 45.4C139.4 51 135 57.6999 130.9 64.5999Z" fill="#030D6D"/>
<path d="M165 209.5C163.3 206.6 161.5 203.9 159.2 201.5C161.5 199.1 163.3 196.4 165 193.5C166.7 196.4 168.5 199.1 170.8 201.5C168.5 203.8 166.7 206.6 165 209.5Z" fill="#030D6D"/>
<path d="M48.1001 64.5999C44.0001 57.6999 39.6001 51.1 34.1001 45.4C39.6001 39.7 43.9001 33.1 48.1001 26.2C52.2001 33.1 56.6001 39.7 62.1001 45.4C56.6001 51 52.2001 57.6999 48.1001 64.5999Z" fill="#030D6D"/>
<path d="M130.9 117.5C126.8 110.6 122.4 104 116.9 98.3001C122.4 92.6001 126.7 86.0001 130.9 79.1001C135 86.0001 139.4 92.6001 144.9 98.3001C139.4 104 135 110.6 130.9 117.5Z" fill="#030D6D"/>
<path d="M48.1001 117.5C44.0001 110.6 39.6001 104 34.1001 98.3001C39.6001 92.6001 43.9001 86.0001 48.1001 79.1001C52.2001 86.0001 56.6001 92.6001 62.1001 98.3001C56.6001 104 52.2001 110.6 48.1001 117.5Z" fill="#030D6D"/>
<path d="M89.5 91.0001C85.4 84.1001 81 77.5001 75.5 71.8001C81 66.1001 85.3 59.5001 89.5 52.6001C93.6 59.5001 98 66.1001 103.5 71.8001C98 77.5001 93.6 84.2001 89.5 91.0001Z" fill="#030D6D"/>
<path d="M48.1001 223.3C44.0001 216.4 39.6001 209.8 34.1001 204.1C39.6001 198.4 43.9001 191.8 48.1001 184.9C52.2001 191.8 56.6001 198.4 62.1001 204.1C56.6001 209.8 52.2001 216.4 48.1001 223.3Z" fill="#030D6D"/>
<path d="M130.9 223.3C126.8 216.4 122.4 209.8 116.9 204.1C122.4 198.4 126.7 191.8 130.9 184.9C135 191.8 139.4 198.4 144.9 204.1C139.4 209.8 135 216.5 130.9 223.3Z" fill="#030D6D"/>
<path d="M130.9 170.4C126.8 163.5 122.4 156.9 116.9 151.2C122.4 145.5 126.7 138.9 130.9 132C135 138.9 139.4 145.5 144.9 151.2C139.4 156.9 135 163.5 130.9 170.4Z" fill="#030D6D"/>
<path d="M48.1001 170.4C44.0001 163.5 39.6001 156.9 34.1001 151.2C39.6001 145.5 43.9001 138.9 48.1001 132C52.2001 138.9 56.6001 145.5 62.1001 151.2C56.6001 156.8 52.2001 163.5 48.1001 170.4Z" fill="#030D6D"/>
<path d="M89.5 196.8C85.4 189.9 81 183.3 75.5 177.6C81 171.9 85.3 165.3 89.5 158.4C93.6 165.3 98 171.9 103.5 177.6C98 183.3 93.6 190 89.5 196.8Z" fill="#030D6D"/>
<path d="M5.97559 37.4626V11.0631H8.57556V37.4626H5.97559Z" fill="#030D6D"/>
<path d="M16.0758 11.0631C13.5758 11.0631 11.6758 13.3631 11.6758 16.063V32.3627C11.6758 35.1626 13.6758 37.3626 16.0758 37.3626H17.4758C19.9758 37.3626 21.8757 35.1626 21.8757 32.3627V16.063C21.8757 13.2631 19.8758 11.0631 17.4758 11.0631H16.0758ZM16.8757 13.5631C18.3757 13.5631 19.4758 14.663 19.4758 16.063V32.5627C19.4758 33.9627 18.2757 35.0626 16.8757 35.0626C15.3757 35.0626 14.2758 33.9627 14.2758 32.5627V16.063C14.1758 14.663 15.3757 13.5631 16.8757 13.5631Z" fill="#030D6D"/>
<path d="M172.973 211.959V238.358H170.373V211.959H172.973Z" fill="#030D6D"/>
<path d="M162.872 238.358C165.372 238.358 167.272 236.058 167.272 233.358V217.059C167.272 214.259 165.272 212.059 162.872 212.059H161.472C158.972 212.059 157.072 214.259 157.072 217.059V233.358C157.072 236.158 159.072 238.358 161.472 238.358H162.872ZM162.072 235.858C160.572 235.858 159.472 234.758 159.472 233.358V216.859C159.472 215.459 160.672 214.359 162.072 214.359C163.572 214.359 164.672 215.459 164.672 216.859V233.358C164.772 234.758 163.572 235.858 162.072 235.858Z" fill="#030D6D"/>
</g>
<defs>
<clipPath id="clip0">
<rect width="178.6" height="249.4" fill="white"/>
</clipPath>
</defs>
</svg>
