<svg width="179" height="250" viewBox="0 0 179 250" fill="none" xmlns="http://www.w3.org/2000/svg">
<g clip-path="url(#clip0)">
<path d="M8.56829 0.0244141H170.068C174.768 0.0244141 178.568 3.82441 178.568 8.52441V240.924C178.568 245.624 174.768 249.424 170.068 249.424H8.56829C3.86829 249.424 0.0682875 245.624 0.0682875 240.924V8.52441C-0.0317125 3.82441 3.86829 0.0244141 8.56829 0.0244141Z" fill="white"/>
<path d="M47.8999 117.5C47.8999 117.5 44.1999 111.4 39.0999 104.2C35.6999 99.4 32.9999 94.2 32.7999 89.7C32.4999 84.6 35.1999 79.4 40.1999 79.2C45.0999 79 47.0999 83.2 47.8999 86.6C48.6999 83.1 50.6999 78.9 55.5999 79.2C60.4999 79.4 63.1999 84.6 62.9999 89.7C62.6999 94.2 60.0999 99.4 56.6999 104.2C51.5999 111.3 47.8999 117.5 47.8999 117.5Z" fill="#FF0000"/>
<path d="M13.8001 56C13.8001 56 12.0001 53.4 9.6001 50.4C8.0001 48.4 6.7001 46.2 6.6001 44.3C6.5001 42.2 7.8001 40 10.1001 39.9C12.4001 39.8 13.4001 41.5 13.8001 43C14.2001 41.6 15.1001 39.8 17.5001 39.9C19.8001 40 21.1001 42.2 21.0001 44.3C20.9001 46.2 19.6001 48.3 18.0001 50.4C15.6001 53.4 13.8001 56 13.8001 56Z" fill="#FF0000"/>
<path d="M164.8 193.5C164.8 193.5 163 196.1 160.6 199.1C159 201.1 157.7 203.3 157.6 205.2C157.5 207.3 158.8 209.5 161.1 209.6C163.4 209.7 164.4 208 164.8 206.5C165.2 207.9 166.1 209.7 168.5 209.6C170.8 209.5 172.1 207.3 172 205.2C171.9 203.3 170.6 201.2 169 199.1C166.6 196 164.8 193.5 164.8 193.5Z" fill="#FF0000"/>
<path d="M89.2998 98.7C89.2998 98.7 85.5998 92.6 80.4998 85.4C77.0998 80.6 74.3998 75.4 74.1998 70.9C73.8998 65.8 76.5998 60.6 81.5998 60.4C86.4998 60.2 88.4998 64.4 89.2998 67.8C90.0998 64.3 92.0998 60.1 96.9998 60.4C101.9 60.6 104.6 65.8 104.4 70.9C104.1 75.4 101.5 80.6 98.0998 85.4C92.9998 92.5 89.2998 98.7 89.2998 98.7Z" fill="#FF0000"/>
<path d="M47.8999 64.6001C47.8999 64.6001 44.1999 58.5001 39.0999 51.3001C35.6999 46.5001 32.9999 41.3001 32.7999 36.8001C32.4999 31.7001 35.1999 26.5001 40.1999 26.3001C45.0999 26.1001 47.0999 30.3001 47.8999 33.7001C48.6999 30.2001 50.6999 26.0001 55.5999 26.3001C60.4999 26.5001 63.1999 31.7001 62.9999 36.8001C62.6999 41.3001 60.0999 46.5001 56.6999 51.3001C51.5999 58.4001 47.8999 64.6001 47.8999 64.6001Z" fill="#FF0000"/>
<path d="M130.7 117.5C130.7 117.5 127 111.4 121.9 104.2C118.5 99.4 115.8 94.2 115.6 89.7C115.3 84.6 118 79.4 123 79.2C127.9 79 129.9 83.2 130.7 86.6C131.5 83.1 133.5 78.9 138.4 79.2C143.3 79.4 146 84.6 145.8 89.7C145.5 94.2 142.9 99.4 139.5 104.2C134.4 111.3 130.7 117.5 130.7 117.5Z" fill="#FF0000"/>
<path d="M130.7 64.6001C130.7 64.6001 127 58.5001 121.9 51.3001C118.5 46.5001 115.8 41.3001 115.6 36.8001C115.3 31.7001 118 26.5001 123 26.3001C127.9 26.1001 129.9 30.3001 130.7 33.7001C131.5 30.2001 133.5 26.0001 138.4 26.3001C143.3 26.5001 146 31.7001 145.8 36.8001C145.5 41.3001 142.9 46.5001 139.5 51.3001C134.4 58.4001 130.7 64.6001 130.7 64.6001Z" fill="#FF0000"/>
<path d="M89.2998 150.8C89.2998 150.8 85.5998 156.9 80.4998 164.1C77.0998 168.9 74.3998 174.1 74.1998 178.6C73.8998 183.7 76.5998 188.9 81.5998 189.1C86.4998 189.3 88.4998 185.1 89.2998 181.7C90.0998 185.2 92.0998 189.4 96.9998 189.1C101.9 188.9 104.6 183.7 104.4 178.6C104.1 174.1 101.5 168.9 98.0998 164.1C92.9998 156.9 89.2998 150.8 89.2998 150.8Z" fill="#FF0000"/>
<path d="M130.7 132C130.7 132 127 138.1 121.9 145.3C118.5 150.1 115.8 155.3 115.6 159.8C115.3 164.9 118 170.1 123 170.3C127.9 170.5 129.9 166.3 130.7 162.9C131.5 166.4 133.5 170.6 138.4 170.3C143.3 170.1 146 164.9 145.8 159.8C145.5 155.3 142.9 150.1 139.5 145.3C134.4 138.1 130.7 132 130.7 132Z" fill="#FF0000"/>
<path d="M47.8999 132C47.8999 132 44.1999 138.1 39.0999 145.3C35.6999 150.1 32.9999 155.3 32.7999 159.8C32.4999 164.9 35.1999 170.1 40.1999 170.3C45.0999 170.5 47.0999 166.3 47.8999 162.9C48.6999 166.4 50.6999 170.6 55.5999 170.3C60.4999 170.1 63.1999 164.9 62.9999 159.8C62.6999 155.3 60.0999 150.1 56.6999 145.3C51.5999 138.1 47.8999 132 47.8999 132Z" fill="#FF0000"/>
<path d="M130.7 184.9C130.7 184.9 127 191 121.9 198.2C118.5 203 115.8 208.2 115.6 212.7C115.3 217.8 118 223 123 223.2C127.9 223.4 129.9 219.2 130.7 215.8C131.5 219.3 133.5 223.5 138.4 223.2C143.3 223 146 217.8 145.8 212.7C145.5 208.2 142.9 203 139.5 198.2C134.4 191 130.7 184.9 130.7 184.9Z" fill="#FF0000"/>
<path d="M47.8999 184.9C47.8999 184.9 44.1999 191 39.0999 198.2C35.6999 203 32.9999 208.2 32.7999 212.7C32.4999 217.8 35.1999 223 40.1999 223.2C45.0999 223.4 47.0999 219.2 47.8999 215.8C48.6999 219.3 50.6999 223.5 55.5999 223.2C60.4999 223 63.1999 217.8 62.9999 212.7C62.6999 208.2 60.0999 203 56.6999 198.2C51.5999 191 47.8999 184.9 47.8999 184.9Z" fill="#FF0000"/>
<path d="M5.71582 37.4872V11.0876H8.3158V37.4872H5.71582Z" fill="#FF0000"/>
<path d="M15.9156 11.0876C13.4156 11.0876 11.5156 13.2876 11.5156 16.0875V32.3872C11.5156 35.1871 13.5156 37.3871 15.9156 37.3871H17.3156C19.8156 37.3871 21.7156 35.1871 21.7156 32.3872V16.0875C21.7156 13.2876 19.7156 11.0876 17.3156 11.0876H15.9156ZM16.6156 13.5876C18.1156 13.5876 19.2156 14.6876 19.2156 16.0875V32.5872C19.2156 33.9872 18.0156 35.0872 16.6156 35.0872C15.2156 35.0872 14.0156 33.9872 14.0156 32.5872V16.0875C14.0156 14.6876 15.2156 13.5876 16.6156 13.5876Z" fill="#FF0000"/>
<path d="M172.813 211.983V238.383H170.214V211.983H172.813Z" fill="#FF0000"/>
<path d="M162.713 238.383C165.213 238.383 167.113 236.083 167.113 233.383V217.083C167.113 214.283 165.113 212.083 162.713 212.083H161.313C158.813 212.083 156.913 214.283 156.913 217.083V233.383C156.913 236.183 158.913 238.383 161.313 238.383H162.713ZM161.913 235.883C160.413 235.883 159.313 234.783 159.313 233.383V216.883C159.313 215.483 160.513 214.383 161.913 214.383C163.413 214.383 164.513 215.483 164.513 216.883V233.383C164.513 234.783 163.413 235.883 161.913 235.883Z" fill="#FF0000"/>
</g>
<defs>
<clipPath id="clip0">
<rect width="178.6" height="249.4" fill="white"/>
</clipPath>
</defs>
</svg>
