<svg width="179" height="250" viewBox="0 0 179 250" fill="none" xmlns="http://www.w3.org/2000/svg">
<g clip-path="url(#clip0)">
<path d="M8.53578 -0.03125H170.029C174.723 -0.03125 178.563 3.80875 178.563 8.50208V240.929C178.563 245.622 174.723 249.462 170.029 249.462H8.53578C3.84244 249.462 0.00244141 245.622 0.00244141 240.929V8.50208C0.00244141 3.80875 3.84244 -0.03125 8.53578 -0.03125Z" fill="white"/>
<path d="M47.8958 26.2087C40.5358 36.7687 32.6423 42.742 32.5356 50.9554C32.5356 53.622 33.9223 58.102 38.4023 58.9553C41.2823 59.4887 45.3358 57.1421 45.4424 52.3421C45.4424 51.3821 46.4023 51.3821 46.4023 52.7688C46.2956 56.6088 45.0158 60.9821 43.0958 64.6087C46.2958 64.6087 49.4956 64.6087 52.8023 64.6087C50.7756 60.9821 49.6025 56.6088 49.4958 52.7688C49.4958 51.4888 50.5624 51.3821 50.4557 52.3421C50.5624 57.1421 54.5091 59.4887 57.4958 58.9553C61.9758 58.102 63.4691 53.622 63.3625 50.9554C63.1491 42.742 55.2558 36.6621 47.8958 26.2087Z" fill="black"/>
<path d="M13.7626 39.9688C10.3493 44.3421 6.61572 46.902 6.61572 50.3154C6.61572 51.382 7.25583 53.302 9.38916 53.622C10.7758 53.8353 12.5893 52.8754 12.6959 50.8487C12.6959 50.422 13.1225 50.422 13.1225 50.9553C13.0158 52.5553 12.4825 54.3688 11.5225 55.8621C13.0158 55.8621 14.5091 55.8621 16.0024 55.8621C15.0424 54.3688 14.5091 52.5553 14.4024 50.9553C14.4024 50.422 14.8293 50.422 14.8293 50.8487C14.8293 52.8754 16.7491 53.8353 18.1358 53.622C20.2691 53.302 20.9092 51.382 20.9092 50.3154C20.9092 46.902 17.1759 44.3421 13.7626 39.9688Z" fill="black"/>
<path d="M47.8958 170.422C40.5358 159.862 32.6423 153.889 32.5356 145.675C32.5356 143.009 33.9223 138.529 38.4023 137.675C41.2823 137.142 45.3358 139.489 45.4424 144.289C45.4424 145.249 46.4023 145.249 46.4023 143.862C46.2956 140.022 45.0158 135.649 43.0958 132.022C46.2958 132.022 49.4956 132.022 52.8023 132.022C50.7756 135.649 49.6025 140.022 49.4958 143.862C49.4958 145.142 50.5624 145.249 50.4557 144.289C50.5624 139.489 54.5091 137.142 57.4958 137.675C61.9758 138.529 63.4691 143.009 63.3625 145.675C63.1491 153.782 55.2558 159.862 47.8958 170.422Z" fill="black"/>
<path d="M164.802 209.462C161.389 205.089 157.656 202.529 157.656 199.115C157.656 198.049 158.296 196.129 160.429 195.809C161.816 195.595 163.629 196.555 163.736 198.582C163.736 199.009 164.163 199.009 164.163 198.475C164.056 196.875 163.523 195.062 162.563 193.569C164.056 193.569 165.549 193.569 167.042 193.569C166.082 195.062 165.549 196.875 165.442 198.475C165.442 199.009 165.869 199.009 165.869 198.582C165.869 196.555 167.789 195.595 169.176 195.809C171.309 196.129 171.949 198.049 171.949 199.115C171.949 202.529 168.216 205.089 164.802 209.462Z" fill="black"/>
<path d="M130.669 26.2087C123.309 36.7687 115.416 42.742 115.309 50.9554C115.309 53.622 116.696 58.102 121.176 58.9553C124.056 59.4887 128.109 57.1421 128.216 52.3421C128.216 51.3821 129.176 51.3821 129.176 52.7688C129.069 56.6088 127.789 60.9821 125.869 64.6087C129.069 64.6087 132.269 64.6087 135.576 64.6087C133.549 60.9821 132.376 56.6088 132.269 52.7688C132.269 51.4888 133.336 51.3821 133.229 52.3421C133.336 57.1421 137.282 59.4887 140.269 58.9553C144.749 58.102 146.242 53.622 146.136 50.9554C146.029 42.742 138.136 36.6621 130.669 26.2087Z" fill="black"/>
<path d="M47.8958 79.1152C40.5358 89.6752 32.6423 95.6486 32.5356 103.862C32.5356 106.529 33.9223 111.009 38.4023 111.862C41.2823 112.395 45.3358 110.049 45.4424 105.249C45.4424 104.289 46.4023 104.289 46.4023 105.675C46.2956 109.515 45.0158 113.889 43.0958 117.515C46.2958 117.515 49.4956 117.515 52.8023 117.515C50.7756 113.889 49.6025 109.515 49.4958 105.675C49.4958 104.395 50.5624 104.289 50.4557 105.249C50.5624 110.049 54.5091 112.395 57.4958 111.862C61.9758 111.009 63.4691 106.529 63.3625 103.862C63.1491 95.6486 55.2558 89.5686 47.8958 79.1152Z" fill="black"/>
<path d="M89.2823 60.2354C81.9223 70.7953 74.029 76.7686 73.9224 84.982C73.9224 87.6486 75.309 92.1286 79.789 92.982C82.669 93.5153 86.7225 91.1687 86.8291 86.3687C86.8291 85.4087 87.789 85.4087 87.789 86.7954C87.6824 90.6354 86.4023 95.0087 84.4823 98.6353C87.6823 98.6353 90.8824 98.6353 94.189 98.6353C92.1624 95.0087 90.9889 90.6354 90.8823 86.7954C90.8823 85.5154 91.9491 85.4087 91.8424 86.3687C91.9491 91.1687 95.8956 93.5153 98.8823 92.982C103.362 92.1286 104.856 87.6486 104.749 84.982C104.536 76.8753 96.6423 70.7953 89.2823 60.2354Z" fill="black"/>
<path d="M130.669 79.1152C123.309 89.6752 115.416 95.6486 115.309 103.862C115.309 106.529 116.696 111.009 121.176 111.862C124.056 112.395 128.109 110.049 128.216 105.249C128.216 104.289 129.176 104.289 129.176 105.675C129.069 109.515 127.789 113.889 125.869 117.515C129.069 117.515 132.269 117.515 135.576 117.515C133.549 113.889 132.376 109.515 132.269 105.675C132.269 104.395 133.336 104.289 133.229 105.249C133.336 110.049 137.282 112.395 140.269 111.862C144.749 111.009 146.242 106.529 146.136 103.862C146.029 95.6486 138.136 89.5686 130.669 79.1152Z" fill="black"/>
<path d="M47.8958 223.329C40.5358 212.769 32.6423 206.795 32.5356 198.582C32.5356 195.915 33.9223 191.435 38.4023 190.582C41.2823 190.049 45.3358 192.395 45.4424 197.195C45.4424 198.155 46.4023 198.155 46.4023 196.769C46.2956 192.929 45.0158 188.555 43.0958 184.929C46.2958 184.929 49.4956 184.929 52.8023 184.929C50.7756 188.555 49.6025 192.929 49.4958 196.769C49.4958 198.049 50.5624 198.155 50.4557 197.195C50.5624 192.395 54.5091 190.049 57.4958 190.582C61.9758 191.435 63.4691 195.915 63.3625 198.582C63.1491 206.689 55.2558 212.769 47.8958 223.329Z" fill="black"/>
<path d="M130.669 223.329C123.309 212.769 115.416 206.795 115.309 198.582C115.309 195.915 116.696 191.435 121.176 190.582C124.056 190.049 128.109 192.395 128.216 197.195C128.216 198.155 129.176 198.155 129.176 196.769C129.069 192.929 127.789 188.555 125.869 184.929C129.069 184.929 132.269 184.929 135.576 184.929C133.549 188.555 132.376 192.929 132.269 196.769C132.269 198.049 133.336 198.155 133.229 197.195C133.336 192.395 137.282 190.049 140.269 190.582C144.749 191.435 146.242 195.915 146.136 198.582C146.029 206.689 138.136 212.769 130.669 223.329Z" fill="black"/>
<path d="M89.2823 189.195C81.9223 178.635 74.029 172.662 73.9224 164.449C73.9224 161.782 75.309 157.302 79.789 156.449C82.669 155.915 86.7225 158.262 86.8291 163.062C86.8291 164.022 87.789 164.022 87.789 162.635C87.6824 158.795 86.4023 154.422 84.4823 150.795C87.6823 150.795 90.8824 150.795 94.189 150.795C92.1624 154.422 90.9889 158.795 90.8823 162.635C90.8823 163.915 91.9491 164.022 91.8424 163.062C91.9491 158.262 95.8956 155.915 98.8823 156.449C103.362 157.302 104.856 161.782 104.749 164.449C104.536 172.555 96.6423 178.635 89.2823 189.195Z" fill="black"/>
<path d="M130.669 170.422C123.309 159.862 115.416 153.889 115.309 145.675C115.309 143.009 116.696 138.529 121.176 137.675C124.056 137.142 128.109 139.489 128.216 144.289C128.216 145.249 129.176 145.249 129.176 143.862C129.069 140.022 127.789 135.649 125.869 132.022C129.069 132.022 132.269 132.022 135.576 132.022C133.549 135.649 132.376 140.022 132.269 143.862C132.269 145.142 133.336 145.249 133.229 144.289C133.336 139.489 137.282 137.142 140.269 137.675C144.749 138.529 146.242 143.009 146.136 145.675C146.029 153.782 138.136 159.862 130.669 170.422Z" fill="black"/>
<path d="M5.7627 37.5156V11.1689H8.32259V37.5156H5.7627Z" fill="black"/>
<path d="M15.8962 11.062C13.4429 11.062 11.416 13.302 11.416 16.0753V32.3953C11.416 35.1687 13.4429 37.4086 15.8962 37.4086H17.2827C19.736 37.4086 21.7629 35.1687 21.7629 32.3953V16.0753C21.7629 13.302 19.736 11.062 17.2827 11.062H15.8962ZM16.6428 13.5153C18.1362 13.5153 19.3095 14.582 19.3095 16.0753V32.6086C19.3095 33.9953 18.1362 35.1686 16.6428 35.1686C15.1495 35.1686 13.9762 33.9953 13.9762 32.6086V16.0753C13.9762 14.6886 15.1495 13.5153 16.6428 13.5153Z" fill="black"/>
<path d="M172.844 212.022V238.369H170.284V212.022H172.844Z" fill="black"/>
<path d="M162.71 238.369C165.164 238.369 167.19 236.129 167.19 233.355V217.035C167.19 214.262 165.164 212.022 162.71 212.022H161.323C158.87 212.022 156.844 214.262 156.844 217.035V233.355C156.844 236.129 158.87 238.369 161.323 238.369H162.71ZM161.963 235.915C160.47 235.915 159.297 234.849 159.297 233.355V216.822C159.297 215.435 160.47 214.262 161.963 214.262C163.457 214.262 164.63 215.435 164.63 216.822V233.355C164.523 234.742 163.35 235.915 161.963 235.915Z" fill="black"/>
</g>
<defs>
<clipPath id="clip0">
<rect width="178.6" height="249.4" fill="white"/>
</clipPath>
</defs>
</svg>
