<svg id="Layer_2" data-name="Layer 2" xmlns="http://www.w3.org/2000/svg" viewBox="0 0 112.67 171.07"><defs><style>.cls-1{fill:#8c7d79;}.cls-2{fill:#b3a5a0;}.cls-3{fill:#e8e6e4;}.cls-4{fill:#68554f;}.cls-5{fill:#411f13;}.cls-6{fill:#54352a;}.cls-7{fill:#320b00;}.cls-8{fill:#ef4d5e;}.cls-9{fill:#c4273e;}.cls-10{fill:#cfc996;}.cls-11{fill:#f2f0e2;}.cls-12{fill:#6d6652;}.cls-13{fill:#ed4f4f;}.cls-14{fill:#f06a6a;}.cls-15{fill:#eb3b3b;}.cls-16{fill:#c5c0bb;}.cls-17{fill:#dbd5d2;}.cls-18{fill:#98928c;}.cls-19{fill:#7e7770;}.cls-20{fill:#362927;}.cls-21{fill:#4b3f3d;}.cls-22{fill:#ce8280;}.cls-23{fill:#f5a39d;}.cls-24{fill:#fff;}.cls-25{fill:#e2e2e2;}.cls-26{fill:#66391b;}.cls-27{fill:#86512d;}.cls-28{fill:#4d2103;}.cls-29{fill:none;}.cls-30{fill:#7f584b;}.cls-31{fill:#f1e9e5;}.cls-32{fill:#aaa;}.cls-33{fill:#787878;}.cls-34{fill:#423b31;}.cls-35{fill:#5a544b;}.cls-36{fill:#898177;}.cls-37{fill:#24201b;}</style></defs><path class="cls-1" d="M83.76,122.76c-2.51-4.23-4.88-22.38,2.49-28.6-15.5-.1-25.16,14.25-25.16,14.25a31.43,31.43,0,0,1-5.38,17.29c-1.14-1.29-6.67-3.66-11,4.3a36.81,36.81,0,0,0-4.59,14.42H97.82S98,122.76,83.76,122.76Z" transform="translate(-10.83 -11.51)"/><path class="cls-2" d="M86.38,124.8c-.72.31-1,.89-.84,1.24-.94-.29-3.19-3.34-4-5-2.3-4.45-3.34-11.52-2.63-18.19a4.42,4.42,0,0,0-3.8,2.36c-6.19,11-11.27,7.72-14.31,7.18-.23,3.52-2.91,10.63-5.06,13.27,0,0-.13.28-.18.24-.23.32-.67,1.12-1.07,1.64a3.35,3.35,0,0,1,.7-2.37c-2.77-1.51-7-1.59-10.42,4.79a36.81,36.81,0,0,0-4.59,14.42h8.77a9.74,9.74,0,0,1,3.82-6.74,25.7,25.7,0,0,0-1.67,6.74H87.72c-.41-2.3-1.29-6.1-2-8.5a67.16,67.16,0,0,1,4.31,8.5h5.21c.93-3.59-.46-11.64-2.08-14.63C91.36,126.49,88.21,124,86.38,124.8Z" transform="translate(-10.83 -11.51)"/><path class="cls-3" d="M44.74,130a36.81,36.81,0,0,0-4.59,14.42h.31c.51-3,4.21-21.14,13.68-19.67C51.42,123.77,47.79,124.36,44.74,130Z" transform="translate(-10.83 -11.51)"/><path class="cls-4" d="M83.84,122.61c-2.42-4.24-4.84-22.14,2.5-28.34l.3-.25h-.55c-15.3,0-25,14.17-25.12,14.31l0,0v0a31.55,31.55,0,0,1-5.26,17,5.51,5.51,0,0,0-3.6-1.27c-2,0-4.91,1-7.48,5.73A37.69,37.69,0,0,0,40,144.41v.15H98v-.14c0-.12,0-12.42-6-18.45A11.16,11.16,0,0,0,83.84,122.61ZM40.3,144.28a37.85,37.85,0,0,1,4.56-14.21c2.5-4.62,5.31-5.59,7.23-5.59a5.06,5.06,0,0,1,3.52,1.31l.12.14.1-.15a32,32,0,0,0,5.41-17.33c.56-.8,10-14,24.63-14.15-7.14,6.55-4.67,24.42-2.23,28.53l0,.07h.08a10.88,10.88,0,0,1,8,3.27c5.57,5.6,5.89,16.72,5.91,18.11Z" transform="translate(-10.83 -11.51)"/><path class="cls-5" d="M88.42,65.87s1,1.51,2.87,3.73a10.06,10.06,0,0,0-3.87-8s1-.21,3.44,1.79c-2.51-9.61-8.53-11.47-8.53-11.47l-2,12.33L91.58,81.44s0-1.87-.14-4.88S88.42,65.87,88.42,65.87Z" transform="translate(-10.83 -11.51)"/><path class="cls-6" d="M82.14,53,80.32,64.22l6.46,9.89A8.38,8.38,0,0,0,88,73a11.61,11.61,0,0,0-1.11-9.27,12.23,12.23,0,0,1,2.82,2.13c-1-2.91-2-3-3.75-4.8a2.9,2.9,0,0,1,3.4.37c-.25-.9-.55-1.82-.89-2.73C87.34,55.61,84.68,54.35,82.14,53Z" transform="translate(-10.83 -11.51)"/><path class="cls-7" d="M88.92,66.83c.49.66,1.25,1.66,2.26,2.87l.26.3v-.4a10.38,10.38,0,0,0-3.55-7.84,7.9,7.9,0,0,1,2.88,1.71l.34.29L91,63.33c-2.5-9.58-8.57-11.56-8.63-11.58l-.16,0-2,12.56L91.72,81.92v-.48s0-1.9-.14-4.88C91.47,74.17,89.7,69,88.92,66.83Zm-8.45-2.64,2-12.11c.94.37,5.88,2.69,8.17,10.9-1.79-1.4-2.75-1.56-3.09-1.56h-.13l-.33.07.28.19a10,10,0,0,1,3.8,7.51c-1.67-2-2.59-3.39-2.6-3.41l-.69-1,.44,1.16c0,.08,2.86,7.69,3,10.65.1,2.09.13,3.64.14,4.38Z" transform="translate(-10.83 -11.51)"/><path class="cls-8" d="M53.67,101.2c-4,3.35.82,6.7.82,6.7s3,.51,8.08-1.7,8.62-13.06,8.62-13.06l-2.91.6S57.63,97.84,53.67,101.2Z" transform="translate(-10.83 -11.51)"/><path class="cls-9" d="M53.57,101.08A3.89,3.89,0,0,0,52,104.2c.1,2.15,2.36,3.76,2.45,3.82l.07,0a6,6,0,0,0,.86,0,18.46,18.46,0,0,0,7.31-1.76c5.06-2.2,8.55-12.71,8.7-13.15l.08-.25-3.19.66C68.12,93.64,57.5,97.75,53.57,101.08ZM71,93.34C70.39,95,67,104.1,62.51,106.06a18.27,18.27,0,0,1-7.18,1.74c-.42,0-.69,0-.78,0-.26-.19-2.2-1.69-2.29-3.56a3.58,3.58,0,0,1,1.51-2.88c3.89-3.3,14.46-7.38,14.54-7.42Z" transform="translate(-10.83 -11.51)"/><path class="cls-10" d="M65.39,99.48c-1,.32-2.47,1.17-2.72,2.24s.85,3.22.85,3.22l3.69-4.64S66.41,99.15,65.39,99.48Z" transform="translate(-10.83 -11.51)"/><path class="cls-11" d="M62.67,101.72a4.42,4.42,0,0,0,.41,2.23c1.22-1.2,2.37-2.59,1.8-4.28A3.69,3.69,0,0,0,62.67,101.72Z" transform="translate(-10.83 -11.51)"/><path class="cls-12" d="M65.76,99.27a1.22,1.22,0,0,0-.42.06c-.84.27-2.53,1.11-2.82,2.36s.81,3.23.86,3.32l.11.21,3.91-4.91-.07-.09A2.2,2.2,0,0,0,65.76,99.27Zm-2.21,5.39a6,6,0,0,1-.74-2.9c.25-1,1.71-1.85,2.63-2.14a1.13,1.13,0,0,1,.32-.05,1.82,1.82,0,0,1,1.25.73Z" transform="translate(-10.83 -11.51)"/><path class="cls-10" d="M62.69,101.27c-1.17-.64-3.81,1.32-3.79,1.76a13,13,0,0,0,1.3,3.78L63.31,105S63.43,101.67,62.69,101.27Z" transform="translate(-10.83 -11.51)"/><path class="cls-11" d="M58.9,103A11.53,11.53,0,0,0,60,106.49c1.61-1.3,2.86-3.17,1.42-5.24C60.26,101.6,58.88,102.71,58.9,103Z" transform="translate(-10.83 -11.51)"/><path class="cls-12" d="M62.76,101.13a1.35,1.35,0,0,0-.62-.14A5.35,5.35,0,0,0,59,102.54c-.26.27-.29.41-.29.49a13.15,13.15,0,0,0,1.32,3.85l.08.14,3.32-2V105C63.48,104.42,63.55,101.56,62.76,101.13Zm.4,3.76-2.9,1.7A12.14,12.14,0,0,1,59.05,103a4.89,4.89,0,0,1,3.09-1.73,1,1,0,0,1,.47.11C63.08,101.66,63.2,103.64,63.16,104.89Z" transform="translate(-10.83 -11.51)"/><path class="cls-10" d="M58.87,103.14c-2-1.56-4.15.4-4.15.4l1.2,5.13,4.93-1.42S59.46,103.6,58.87,103.14Z" transform="translate(-10.83 -11.51)"/><path class="cls-11" d="M57.29,102.54a4.11,4.11,0,0,0-2.57,1l1.1,4.68c.87-.43,1.61-.48,2.1-1.13C59.35,105.67,58.39,102.86,57.29,102.54Z" transform="translate(-10.83 -11.51)"/><path class="cls-12" d="M59,103a2.92,2.92,0,0,0-1.78-.64,4.36,4.36,0,0,0-2.58,1l-.06.06,1.26,5.38,5.24-1.51L61,107.2C60.85,106.82,59.57,103.49,59,103ZM56,108.48l-1.15-4.89a3.94,3.94,0,0,1,2.3-.9,2.58,2.58,0,0,1,1.59.57,17.71,17.71,0,0,1,1.86,3.89Z" transform="translate(-10.83 -11.51)"/><path class="cls-10" d="M50.73,103.18c-.43.46,0,3.39,0,3.43l5.07,1.45s-.82-3.61-1.07-4.52S51.57,102.26,50.73,103.18Z" transform="translate(-10.83 -11.51)"/><path class="cls-11" d="M50.73,103.18c-.43.46,0,3.39,0,3.43l1.4.4c.94.25,1.44-.24,1.84-1.37a5,5,0,0,0-.46-2.88A3.22,3.22,0,0,0,50.73,103.18Z" transform="translate(-10.83 -11.51)"/><path class="cls-12" d="M54.86,103.49c-.18-.65-1.33-1-2.38-1a2.52,2.52,0,0,0-1.86.58c-.29.32-.31,1.49-.06,3.48v.18L56,108.27l-.06-.25S55.12,104.41,54.86,103.49Zm-4,3c-.26-2.1-.18-3,0-3.21a2.32,2.32,0,0,1,1.64-.49c1,0,2,.36,2.09.79.21.76.82,3.42,1,4.26Z" transform="translate(-10.83 -11.51)"/><path class="cls-13" d="M42,92.58S43.4,96.41,51.5,97A48.48,48.48,0,0,0,58,96.41C73.75,95,72.89,86.28,72.89,86.28S48.85,91.43,42,92.58Z" transform="translate(-10.83 -11.51)"/><path class="cls-14" d="M53.51,90.34c-4.76,1-9.17,1.84-11.55,2.24a4.71,4.71,0,0,0,1.32,1.65c.82.66,1.75,1,2.07.66,1.5-1.74,4.19-1.44,6,.46a3.45,3.45,0,0,1,5.74-.57,7.93,7.93,0,0,0,1.85-2.6A6.71,6.71,0,0,0,53.51,90.34Z" transform="translate(-10.83 -11.51)"/><path class="cls-15" d="M73,86.09l-.16,0c-.24.05-24.11,5.16-30.93,6.3l-.18,0,.07.18c.06.16,1.56,3.92,9.67,4.49l.64,0h0a25.28,25.28,0,0,0,3.4-.3c.79-.1,1.62-.21,2.51-.28,6.28-.56,10.71-2.34,13.14-5.28a7.32,7.32,0,0,0,1.86-5Zm-2.08,5C68.56,94,64.21,95.71,58,96.26c-.9.08-1.72.19-2.52.29a27.42,27.42,0,0,1-3.36.3h0l-.62,0c-6.91-.49-8.92-3.39-9.32-4.13,6.75-1.15,28.36-5.76,30.55-6.23A7.34,7.34,0,0,1,70.94,91.11Z" transform="translate(-10.83 -11.51)"/><path class="cls-10" d="M69.43,88.9l-2.84,3,.88,3.63s3.15-2,3.41-3.51S69.43,88.9,69.43,88.9Z" transform="translate(-10.83 -11.51)"/><path class="cls-11" d="M66.59,92l.82,3.38c1.88-1.59,3.26-3.48,1.64-6Z" transform="translate(-10.83 -11.51)"/><path class="cls-12" d="M69.54,88.79l-.11-.11-3,3.23,1,3.91.18-.11c.13-.09,3.21-2.06,3.48-3.62S69.61,88.86,69.54,88.79ZM70.73,92c-.21,1.22-2.5,2.84-3.16,3.29L66.76,92l2.68-2.87C69.8,89.51,70.93,90.85,70.73,92Z" transform="translate(-10.83 -11.51)"/><path class="cls-10" d="M61.4,93.57l1.24,4.87s4.24-.49,5.27-2.76S67,91,67,91Z" transform="translate(-10.83 -11.51)"/><path class="cls-11" d="M61.4,93.57l1.24,4.87h0c2.54-1.11,5.62-3.76,2.74-6.75Z" transform="translate(-10.83 -11.51)"/><path class="cls-12" d="M67.05,90.79l-5.83,2.69,1.3,5.13h.14c.17,0,4.33-.54,5.38-2.86s-.84-4.75-.92-4.85Zm.72,4.83c-.88,1.94-4.3,2.55-5,2.65l-1.18-4.62L67,91.17C67.29,91.64,68.63,93.71,67.77,95.62Z" transform="translate(-10.83 -11.51)"/><path class="cls-10" d="M60.92,93c-5.06.71-3.91,6-3.13,6.75s2.41.23,4-.43,2.13-1.1,1.38-3.75S60.92,93,60.92,93Z" transform="translate(-10.83 -11.51)"/><path class="cls-11" d="M60.92,93c-5.06.71-3.91,6-3.13,6.75a1.43,1.43,0,0,0,.41.26,5,5,0,0,0,3.16-1.66,4.29,4.29,0,0,0-.08-5.29A1.06,1.06,0,0,0,60.92,93Z" transform="translate(-10.83 -11.51)"/><path class="cls-12" d="M60.93,92.84h0a4.14,4.14,0,0,0-3.71,2.77,5,5,0,0,0,.5,4.24,1.66,1.66,0,0,0,1.2.42,8.36,8.36,0,0,0,3-.82c1.68-.7,2.24-1.22,1.46-3.93S61.09,92.84,60.93,92.84Zm.8,6.33a8.49,8.49,0,0,1-2.85.8,1.4,1.4,0,0,1-1-.34,4.8,4.8,0,0,1-.42-3.92,3.88,3.88,0,0,1,3.45-2.57c.14,0,1.4.08,2.09,2.46C63.75,98.18,63.26,98.53,61.73,99.17Z" transform="translate(-10.83 -11.51)"/><path class="cls-10" d="M54.33,94.08c-3.42.35-2.83,3.85-2.46,5.82s1.38,2.31,4.27,1.63,1.85-2.73,1.3-4.88S55.42,94,54.33,94.08Z" transform="translate(-10.83 -11.51)"/><path class="cls-11" d="M55,94.1a2.85,2.85,0,0,0-.71,0c-3.42.35-2.83,3.85-2.46,5.82a2.54,2.54,0,0,0,.69,1.5c.88.43,2.82-.35,3.59-1.5C57.28,98.5,56.93,94.62,55,94.1Z" transform="translate(-10.83 -11.51)"/><path class="cls-12" d="M57.59,96.62c-.64-2.51-2.45-2.71-3-2.71l-.3,0a3,3,0,0,0-2.23,1.12c-1,1.36-.59,3.65-.36,4.88C52,101.4,52.64,102,54,102a9.52,9.52,0,0,0,2.21-.32,2.63,2.63,0,0,0,1.81-1.1c.49-.84.17-2-.17-3.15C57.74,97.16,57.66,96.89,57.59,96.62Zm.13,3.81a2.37,2.37,0,0,1-1.62.95,9.51,9.51,0,0,1-2.14.32c-1.17,0-1.69-.5-1.94-1.82s-.63-3.39.31-4.65a2.7,2.7,0,0,1,2-1h.27c.61,0,2.11.25,2.68,2.47.07.28.15.56.23.83C57.84,98.64,58.14,99.7,57.72,100.43Z" transform="translate(-10.83 -11.51)"/><path class="cls-10" d="M48,94.29c-2.62-.11-2.91,1.95-1.79,4.15,1,1.9,1.67,3.82,3.85,3.41,2.49-.47,1.81-1.73,1.51-4C51.15,94.89,49.18,94.33,48,94.29Z" transform="translate(-10.83 -11.51)"/><path class="cls-11" d="M49,94.45a3.9,3.9,0,0,0-1-.16c-2.62-.11-2.91,1.95-1.79,4.15a8.84,8.84,0,0,0,1.93,3c.79.41,1.43-.08,2-.56C51.43,99.53,51.47,95.47,49,94.45Z" transform="translate(-10.83 -11.51)"/><path class="cls-12" d="M51.69,97.84c-.41-3.11-2.5-3.66-3.71-3.71a2.37,2.37,0,0,0-2.27.93c-.5.8-.37,2.06.33,3.45.09.17.18.35.26.52.77,1.55,1.49,3,3.15,3a3.31,3.31,0,0,0,.61-.06c2.25-.43,2.06-1.53,1.78-3.19C51.79,98.51,51.74,98.19,51.69,97.84ZM50,101.7a3.62,3.62,0,0,1-.55,0c-1.47,0-2.12-1.32-2.87-2.85l-.27-.53c-.65-1.29-.78-2.44-.34-3.15a2,2,0,0,1,1.83-.78H48c1.12,0,3,.55,3.43,3.44,0,.35.1.68.15,1C51.82,100.5,52,101.33,50,101.7Z" transform="translate(-10.83 -11.51)"/><path class="cls-16" d="M39.58,79.29c-1.93,3.32-.2,6.38,2.73,7.51.27-1.3,2.4-7.26,2.4-7.26S41.51,76,39.58,79.29Z" transform="translate(-10.83 -11.51)"/><path class="cls-4" d="M41.67,77.72a2.55,2.55,0,0,0-2.22,1.49,5.22,5.22,0,0,0-.57,4.45,5.63,5.63,0,0,0,3.38,3.28l.16.07,0-.18c.27-1.27,2.37-7.18,2.39-7.24l0-.09-.06-.07A5.19,5.19,0,0,0,41.67,77.72Zm.53,8.87a5.27,5.27,0,0,1-3-3,4.9,4.9,0,0,1,.54-4.18,2.25,2.25,0,0,1,2-1.34,4.77,4.77,0,0,1,2.86,1.54C44.27,80.31,42.57,85.11,42.2,86.59Z" transform="translate(-10.83 -11.51)"/><path class="cls-1" d="M42.65,81.75l.15-.38Z" transform="translate(-10.83 -11.51)"/><path class="cls-1" d="M68.36,97.24c.23-.44.45-.88.65-1.31C68.81,96.36,68.59,96.8,68.36,97.24Z" transform="translate(-10.83 -11.51)"/><path class="cls-1" d="M40.94,89.43,41,88.8Z" transform="translate(-10.83 -11.51)"/><path class="cls-1" d="M43.36,80.19c.06-.11.12-.22.19-.33C43.48,80,43.42,80.08,43.36,80.19Z" transform="translate(-10.83 -11.51)"/><path class="cls-1" d="M50.67,106v0Z" transform="translate(-10.83 -11.51)"/><path class="cls-1" d="M50.55,106.25l.06-.11Z" transform="translate(-10.83 -11.51)"/><path class="cls-1" d="M50.62,106.13l0-.07Z" transform="translate(-10.83 -11.51)"/><path class="cls-1" d="M71.61,88.06l-.14.63Z" transform="translate(-10.83 -11.51)"/><path class="cls-1" d="M71.84,86.86c0,.27-.12.68-.23,1.2.11-.52.18-.93.23-1.2Z" transform="translate(-10.83 -11.51)"/><path class="cls-2" d="M44,79.21c-.14.19-.28.42-.42.65C43.69,79.63,43.83,79.4,44,79.21Z" transform="translate(-10.83 -11.51)"/><path class="cls-2" d="M50.65,106.06h0Z" transform="translate(-10.83 -11.51)"/><path class="cls-2" d="M43.36,80.19c-.19.36-.38.76-.56,1.18C43,81,43.17,80.55,43.36,80.19Z" transform="translate(-10.83 -11.51)"/><path class="cls-2" d="M71.09,87.92l-.73,1Z" transform="translate(-10.83 -11.51)"/><path class="cls-2" d="M50.61,106.14h0Z" transform="translate(-10.83 -11.51)"/><path class="cls-2" d="M50.55,106.26h0Z" transform="translate(-10.83 -11.51)"/><path class="cls-2" d="M71.84,86.86h0c-.17.22-.34.47-.53.74C71.5,87.33,71.67,87.08,71.84,86.86Z" transform="translate(-10.83 -11.51)"/><path class="cls-2" d="M41.48,85.78c.13-.64.29-1.27.46-1.89C41.77,84.51,41.61,85.14,41.48,85.78Z" transform="translate(-10.83 -11.51)"/><path class="cls-2" d="M41.94,83.89c.21-.75.45-1.47.71-2.14C42.39,82.42,42.15,83.14,41.94,83.89Z" transform="translate(-10.83 -11.51)"/><path class="cls-2" d="M41,92.19c0-.23-.07-.49-.09-.77C40.94,91.7,41,92,41,92.19Z" transform="translate(-10.83 -11.51)"/><path class="cls-2" d="M80.87,54.49h0c-2.57-1.57-5.69-2-10.87-3.62C75.13,52.49,78.48,53.14,80.87,54.49Z" transform="translate(-10.83 -11.51)"/><path class="cls-2" d="M41.14,87.66c-.06.39-.11.77-.14,1.14C41,88.43,41.08,88.05,41.14,87.66Z" transform="translate(-10.83 -11.51)"/><path class="cls-2" d="M40.89,91v0Z" transform="translate(-10.83 -11.51)"/><path class="cls-2" d="M40.89,90.49c0-.17,0-.34,0-.52C40.9,90.15,40.89,90.32,40.89,90.49Z" transform="translate(-10.83 -11.51)"/><path class="cls-2" d="M41.14,87.66c.09-.61.2-1.25.34-1.88C41.34,86.41,41.23,87.05,41.14,87.66Z" transform="translate(-10.83 -11.51)"/><path class="cls-1" d="M49.87,108.51c0-.06,0-.13,0-.19S49.87,108.45,49.87,108.51Z" transform="translate(-10.83 -11.51)"/><path class="cls-1" d="M50.28,106.86s0-.09,0-.13S50.3,106.81,50.28,106.86Z" transform="translate(-10.83 -11.51)"/><path class="cls-1" d="M50.19,107.08l.06-.15Z" transform="translate(-10.83 -11.51)"/><path class="cls-1" d="M50,109.66a.08.08,0,0,1,0,0A.08.08,0,0,0,50,109.66Z" transform="translate(-10.83 -11.51)"/><path class="cls-1" d="M91.9,80.53c-.88-3-2.54-5-3.17-7.17-1.25-4.47-1.23-5.29-2.31-9.29-.13-.48-.27-1-.44-1.59-1.28-4.53-2.7-6.62-5.11-8s-5.74-2-10.87-3.62c-10.33-3.25-14.86.79-18.33,8.67s.3,16.84.3,16.84a18.77,18.77,0,0,0-6.85,1.77A3.51,3.51,0,0,0,44,79.21c-.14.19-.28.42-.42.65s-.13.22-.19.33c-.19.36-.38.76-.56,1.18l-.15.38c-.26.67-.5,1.39-.71,2.14s-.33,1.25-.46,1.89-.25,1.27-.34,1.88c-.06.39-.11.77-.14,1.14l-.06.63,0,.54c0,.35,0,.69,0,1l0,.45c0,.28,0,.54.09.77a1.58,1.58,0,0,0,.44.93c1.6,1.23,8.27-1.13,10-1s9.45,2.45,13.24,1.35c2.61-.75,4.37-2.79,5.64-4.55.35-.48.66-.94,1-1.35s.36-.52.53-.74h0c-.07.38-.18,1-.37,1.83A35.44,35.44,0,0,1,69,95.93c-.2.43-.42.87-.65,1.31a24.23,24.23,0,0,1-5.36,6.9c-6.81,6-12.33,1.9-12.33,1.9v0h0l0,.07h0l-.06.11h0a5.2,5.2,0,0,0-.62,3.13h0a1.66,1.66,0,0,0,.06.21v0h0s0,0,0,.06h0a.78.78,0,0,0,0,.14h0a1.85,1.85,0,0,0,.34.5c1.42,1.42,3.63,2.61,11.06,2.18s9.28-4,9.74-5.86a20.43,20.43,0,0,1,3.2-6.81c1.85-2.63,8-2.8,10.93-3.71s7.24-8.69,7.09-12.26A14,14,0,0,0,91.9,80.53Z" transform="translate(-10.83 -11.51)"/><path class="cls-2" d="M79.55,55.8c.43-.45.87-.88,1.32-1.31-2.39-1.35-5.74-2-10.87-3.62-10.33-3.25-14.86.79-18.33,8.67s.3,16.84.3,16.84a18.77,18.77,0,0,0-6.85,1.77A3.51,3.51,0,0,0,44,79.21c-.14.19-.28.42-.42.65s-.13.22-.19.33c-.19.36-.38.76-.56,1.18l-.15.38c-.26.67-.5,1.39-.71,2.14s-.33,1.25-.46,1.89-.25,1.27-.34,1.88c-.06.39-.11.77-.14,1.14l-.06.63,0,.54c0,.35,0,.69,0,1l0,.45c0,.28,0,.54.09.77a1.58,1.58,0,0,0,.44.93c1.6,1.23,8.27-1.13,10-1s9.45,2.45,13.24,1.35c2.61-.75,4.37-2.79,5.64-4.55.35-.48.66-.94,1-1.35s.36-.52.53-.74h0c-.07.38-.18,1-.37,1.83A35.44,35.44,0,0,1,69,95.93c-.2.43-.42.87-.65,1.31a24.23,24.23,0,0,1-5.36,6.9c-6.81,6-12.33,1.9-12.33,1.9v0h0l0,.07h0l-.06.11h0l-.06.14a.36.36,0,0,0-.05.09l0,.06a.61.61,0,0,1,0,.12l0,.07s0,.08,0,.13l0,.07-.06.15,0,.06-.06.17v0a5.47,5.47,0,0,0-.21.91v.06c0,.06,0,.13,0,.19a.22.22,0,0,0,0,.08v.27c0,.06,0,.12,0,.19s0,0,0,.08l0,.18s0,0,0,.07a2.07,2.07,0,0,0,.14.42c6.51,2.8,16,2.07,18.59-4.11A22,22,0,0,1,75.24,97a22.82,22.82,0,0,1,8.09-4.57c3.08-1.17,5-4.9,5.74-9.89.43-3-.83-8-2.63-10.2C85.53,63.22,82.9,57.1,79.55,55.8Z" transform="translate(-10.83 -11.51)"/><path class="cls-17" d="M51.67,59.54c-3.47,7.87.3,16.84.3,16.84a16.28,16.28,0,0,0-1.87.22,20.32,20.32,0,0,0,3.95,3c-4.71-8.94-4.72-19.51,3.16-27.9C54.9,53.4,53.18,56.1,51.67,59.54Z" transform="translate(-10.83 -11.51)"/><path class="cls-18" d="M71.4,81.81c-2.35.25-7.86-1-8.82-2.43-2.44-3.48-7.39-3.61-7.39-3.61l-1.68.54L52,76.43l-.06,0a18.73,18.73,0,0,0-6.79,1.76c-3.22,1.62-5.28,13.74-3.67,15s8.27-1.13,10-1,9.45,2.45,13.24,1.35,5.79-4.91,7.12-6.64c-.36,2-2,11.33-8.84,17.28S50.67,106,50.67,106s-1.66,2.84-.25,4.26,3.63,2.61,11.06,2.18,9.28-4,9.74-5.86a20.43,20.43,0,0,1,3.2-6.81,4,4,0,0,1,.93-.91h0a45.38,45.38,0,0,1,.68-12A4.28,4.28,0,0,0,71.4,81.81Z" transform="translate(-10.83 -11.51)"/><path class="cls-17" d="M57.13,65.77c3.27.62,1.85,5.58.31,8A5.56,5.56,0,0,1,52,76.35l0,0a18.77,18.77,0,0,0-6.85,1.77c-2.54,1.28-4.36,9.12-4.22,12.95C42,86.63,42.07,81.57,45.48,79c3.15-2,7.64-.77,11-3.09a6.88,6.88,0,0,0,1-1.08C59.36,72.1,61.25,66.08,57.13,65.77Z" transform="translate(-10.83 -11.51)"/><path class="cls-16" d="M71.4,81.81c-2.35.25-7.86-1-8.82-2.43-2.44-3.48-7.39-3.61-7.39-3.61l-1.68.54L52,76.43l-.06,0a18.73,18.73,0,0,0-6.79,1.76c-3,1.51-4.44,10.64-4.17,12.59-.09,1.26.07,2.13.73,2.43,1.11.5,6.27-2.94,9.71-3S58.8,92.33,62.74,92c5.4-.4,9.55-6.77,9.59-6.82-1,4.69-2.52,13-9.33,18.92S50.67,106,50.67,106s-1.32,2.26-.6,3.76c2.45,3.3,14.48,2.62,18.91-7-.19,1.87-.71,5.27-1.5,6.69,2.17-1.64,2.81-4.08,3.53-6.12A17.65,17.65,0,0,1,75.24,97a43.85,43.85,0,0,1,.79-10A4.28,4.28,0,0,0,71.4,81.81Z" transform="translate(-10.83 -11.51)"/><path class="cls-3" d="M53.51,76.31,52,76.43l-.06,0a18.73,18.73,0,0,0-6.79,1.76c-3,1.51-4.44,10.64-4.17,12.59a5.33,5.33,0,0,0,.33,2.07C41,87.62,43.39,80.14,45.4,78.93A23.34,23.34,0,0,1,51,77.25c1.57-.31,3.48.12,5.37-1.35a9.43,9.43,0,0,0-1.2-.13Z" transform="translate(-10.83 -11.51)"/><path class="cls-4" d="M92,80.49a21.94,21.94,0,0,0-1.79-4.11,15.76,15.76,0,0,1-1.37-3.06c-.68-2.43-1-3.75-1.29-5.15-.26-1.13-.53-2.31-1-4.14-.13-.48-.27-1-.44-1.59-1.26-4.45-2.66-6.64-5.18-8.07A31,31,0,0,0,74.4,52c-1.28-.37-2.74-.78-4.36-1.3a21.7,21.7,0,0,0-6.45-1.13c-5.39,0-9,2.95-12.05,9.88-3.18,7.22-.29,15.44.22,16.77A19.17,19.17,0,0,0,45.06,78a3.46,3.46,0,0,0-1.2,1.1,6.52,6.52,0,0,0-.44.67l-.18.33a11.22,11.22,0,0,0-.57,1.2l-.15.37c-.26.67-.5,1.4-.72,2.16s-.33,1.25-.46,1.9S41.09,87,41,87.64q-.09.57-.15,1.14c0,.22,0,.43-.05.63s0,.37,0,.55c0,.36,0,.7,0,1,0,.16,0,.31,0,.46a7.15,7.15,0,0,0,.1.78,1.67,1.67,0,0,0,.49,1,2.75,2.75,0,0,0,1.67.39,27.86,27.86,0,0,0,5-.78,16.11,16.11,0,0,1,3.41-.54c.43,0,1.25.21,2.29.43a44.09,44.09,0,0,0,8.41,1.21,9.5,9.5,0,0,0,2.59-.3c2.67-.77,4.46-2.87,5.72-4.61l.71-1,.23-.34c.06-.07.11-.15.16-.22-.06.33-.14.73-.25,1.19a35,35,0,0,1-2.45,7.22c-.21.44-.43.88-.65,1.3A24.05,24.05,0,0,1,62.91,104a11.49,11.49,0,0,1-7.54,3.21,8.51,8.51,0,0,1-4.62-1.32l-.14-.07-.19.34a5.33,5.33,0,0,0-.63,3.22l.06.23v0h0l0,0h0l.24-.1-.08,0,.09,0v0l-.05,0,0,0a1.33,1.33,0,0,1,0-.19,5,5,0,0,1,.61-3l0-.08a8.77,8.77,0,0,0,4.65,1.29,11.79,11.79,0,0,0,7.73-3.28,24.39,24.39,0,0,0,5.38-6.94q.34-.65.66-1.32a35,35,0,0,0,2.47-7.27c.18-.78.29-1.4.36-1.77l.12-.64-.36.47c-.18.23-.38.5-.54.74l-.24.34-.7,1c-1.24,1.71-3,3.75-5.57,4.5a9,9,0,0,1-2.51.29,43.7,43.7,0,0,1-8.35-1.2c-1-.22-1.87-.4-2.33-.44a16.07,16.07,0,0,0-3.49.55,27.46,27.46,0,0,1-5,.77,2.56,2.56,0,0,1-1.5-.33,1.4,1.4,0,0,1-.38-.84,7,7,0,0,1-.09-.75c0-.14,0-.29,0-.44,0-.31,0-.64,0-1l0-.54.06-.63c0-.38.09-.76.14-1.13.09-.62.2-1.25.34-1.87s.29-1.28.46-1.88a21.25,21.25,0,0,1,.71-2.13l.15-.37a10.68,10.68,0,0,1,.55-1.17l.18-.32a7.46,7.46,0,0,1,.42-.65,3.32,3.32,0,0,1,1.1-1A18.92,18.92,0,0,1,52,76.53h.21l-.08-.19c0-.09-3.71-9-.3-16.73,3-6.81,6.53-9.71,11.79-9.71A21.07,21.07,0,0,1,70,51c1.63.51,3.09.93,4.38,1.3a30.68,30.68,0,0,1,6.47,2.31c2.44,1.39,3.81,3.53,5,7.9.16.58.31,1.11.44,1.59.49,1.82.75,3,1,4.13.31,1.4.61,2.72,1.3,5.16A15.93,15.93,0,0,0,90,76.51a21.12,21.12,0,0,1,1.78,4.06,13.8,13.8,0,0,1,.54,3.28c.15,3.66-4.22,11.25-7,12.11a30.73,30.73,0,0,1-3.16.68c-3,.55-6.5,1.17-7.84,3.09a20.21,20.21,0,0,0-3.22,6.85c-.49,2-2.39,5.33-9.62,5.75-1,.06-2,.09-2.85.09-5.17,0-6.94-1.07-8.09-2.22a1.52,1.52,0,0,1-.32-.46l0,0h0l0-.07-.26.12a.52.52,0,0,0,.06.13v0a1.73,1.73,0,0,0,.36.52c1.2,1.2,3,2.31,8.3,2.31.87,0,1.84,0,2.87-.09,7.41-.43,9.37-3.93,9.87-6a20.44,20.44,0,0,1,3.18-6.76c1.28-1.82,4.67-2.43,7.66-3a28.76,28.76,0,0,0,3.19-.69c3.07-1,7.34-8.94,7.19-12.39A13.88,13.88,0,0,0,92,80.49Z" transform="translate(-10.83 -11.51)"/><path class="cls-1" d="M50.1,107.35a5.47,5.47,0,0,0-.21.91A5.47,5.47,0,0,1,50.1,107.35Z" transform="translate(-10.83 -11.51)"/><path class="cls-1" d="M49.86,108.78v0Z" transform="translate(-10.83 -11.51)"/><path class="cls-1" d="M50.36,106.66a.61.61,0,0,0,0-.12A.61.61,0,0,1,50.36,106.66Z" transform="translate(-10.83 -11.51)"/><path class="cls-1" d="M50.11,107.31l.06-.17Z" transform="translate(-10.83 -11.51)"/><path class="cls-1" d="M49.91,109.31l0-.18Z" transform="translate(-10.83 -11.51)"/><path class="cls-1" d="M50.44,106.48a.36.36,0,0,1,.05-.09A.36.36,0,0,0,50.44,106.48Z" transform="translate(-10.83 -11.51)"/><path class="cls-1" d="M49.87,109.05c0-.07,0-.13,0-.19S49.87,109,49.87,109.05Z" transform="translate(-10.83 -11.51)"/><path class="cls-2" d="M49.88,109.13s0-.06,0-.08S49.88,109.1,49.88,109.13Z" transform="translate(-10.83 -11.51)"/><path class="cls-2" d="M49.86,108.86v0Z" transform="translate(-10.83 -11.51)"/><path class="cls-2" d="M50.41,106.54l0-.06Z" transform="translate(-10.83 -11.51)"/><path class="cls-2" d="M49.93,109.38s0,0,0-.07S49.92,109.36,49.93,109.38Z" transform="translate(-10.83 -11.51)"/><path class="cls-2" d="M50.49,106.39a.81.81,0,0,1,.06-.13A.81.81,0,0,0,50.49,106.39Z" transform="translate(-10.83 -11.51)"/><path class="cls-2" d="M50.33,106.73l0-.07Z" transform="translate(-10.83 -11.51)"/><path class="cls-2" d="M50.1,107.35v0Z" transform="translate(-10.83 -11.51)"/><path class="cls-2" d="M49.88,108.32v0Z" transform="translate(-10.83 -11.51)"/><path class="cls-2" d="M50.17,107.14l0-.06Z" transform="translate(-10.83 -11.51)"/><path class="cls-2" d="M49.86,108.59a.22.22,0,0,1,0-.08A.22.22,0,0,0,49.86,108.59Z" transform="translate(-10.83 -11.51)"/><path class="cls-2" d="M50.25,106.93l0-.07Z" transform="translate(-10.83 -11.51)"/><path class="cls-19" d="M46,87.41a5.35,5.35,0,0,0-2.21,1.76s5-4.76,12.81-1.07a13.74,13.74,0,0,0-2.45-1.24A11.78,11.78,0,0,0,46,87.41Z" transform="translate(-10.83 -11.51)"/><path class="cls-16" d="M56,77.92c-2.55,2.43-1.63,6.25-1.63,6.25l5.87.29a7.7,7.7,0,0,0,.88-3.64C61.18,77.56,58,75.94,56,77.92Z" transform="translate(-10.83 -11.51)"/><path class="cls-4" d="M59.19,77.16a3,3,0,0,0-3.33.65c-2.58,2.46-1.52,6.36-1.52,6.36s-.72-3.8,1.74-6.14a2.65,2.65,0,0,1,3-.59,3.44,3.44,0,0,1,1.88,3.37,9.7,9.7,0,0,1-.73,3.65,6.73,6.73,0,0,0,1-3.64A3.74,3.74,0,0,0,59.19,77.16Z" transform="translate(-10.83 -11.51)"/><path class="cls-20" d="M58.15,80.93c-.53-.16-1.21.55-1.52,1.59s-.14,2,.39,2.16,1.2-.55,1.51-1.59S58.68,81.09,58.15,80.93Z" transform="translate(-10.83 -11.51)"/><path class="cls-21" d="M58.15,80.93a.8.8,0,0,0-.75.26c.13,0,.25.16.34.33a3.54,3.54,0,0,1-.86,3.09.61.61,0,0,0,.14.07c.52.16,1.2-.55,1.51-1.59S58.68,81.09,58.15,80.93Z" transform="translate(-10.83 -11.51)"/><path class="cls-4" d="M58.19,80.79c-.6-.19-1.37.57-1.71,1.68A3.34,3.34,0,0,0,56.36,84a1,1,0,0,0,.61.87.64.64,0,0,0,.2,0c.57,0,1.21-.72,1.51-1.71S58.81,81,58.19,80.79Zm.2,2.26c-.31,1-1,1.6-1.33,1.48-.19-.06-.34-.29-.4-.63a2.89,2.89,0,0,1,.12-1.34c.28-.94.84-1.5,1.22-1.5l.11,0C58.49,81.2,58.7,82,58.39,83.05Z" transform="translate(-10.83 -11.51)"/><path class="cls-1" d="M61.77,46.86c1.48-2.09.69-8-.93-11.33S49.76,20.28,48.13,17.92,45.19,13.73,42,16s-7.45,16.28-.09,27.33S56.74,54.2,56.74,54.2l5.68-3L65,46.87S64.22,47.23,61.77,46.86Z" transform="translate(-10.83 -11.51)"/><path class="cls-2" d="M45,15a4,4,0,0,0-3,1c-3.23,2.26-7.45,16.28-.09,27.33S56.74,54.2,56.74,54.2l1.81-1c.57-.41,7-8.36-.67-19.66C48.32,22.26,47.15,15.88,45,15Zm-.55,3c-.31,1.23.3,2.15.29,3.37C43.43,21.07,43.84,18.93,44.46,18Z" transform="translate(-10.83 -11.51)"/><path class="cls-17" d="M41.78,41.08c-4.67-7.88-3.14-22.52,1.64-25.89A6.76,6.76,0,0,0,42,16c-3.23,2.26-7.45,16.28-.09,27.33a27.54,27.54,0,0,0,9,9C46.7,48.82,44.46,45.61,41.78,41.08Z" transform="translate(-10.83 -11.51)"/><path class="cls-4" d="M62,46.74c1.35-2.29.56-7.93-1.05-11.28-1.14-2.39-6.24-9.07-9.61-13.49-1.46-1.92-2.62-3.44-3.1-4.13-1-1.41-1.89-2.75-3.26-3a4.27,4.27,0,0,0-3.13,1C40.27,17,38.35,21,37.79,26.35a26.14,26.14,0,0,0,4,17.06c3.45,5.19,7,8,9.77,9.42a9.77,9.77,0,0,0,5.23,1.37s-7.54-.14-14.75-11c-7.33-11-3-25,.06-27.12a4,4,0,0,1,2.9-1c1.24.22,2.12,1.5,3.06,2.86.48.7,1.64,2.22,3.11,4.14,3.36,4.42,8.44,11.08,9.58,13.44,1.61,3.36,2.37,9.18.94,11.18L61.5,47l.24,0a9.32,9.32,0,0,0,2.92.1l-2.38,4,.27.16,2.81-4.74-.44.19A6.19,6.19,0,0,1,62,46.74Z" transform="translate(-10.83 -11.51)"/><path class="cls-22" d="M49.63,28.87a23,23,0,0,1-4.82-8.12c-.62-1.3-3.61-1-3.81,7.46-.17,7.43,6.33,17.33,10.73,20.51s8.5.84,7.39-4.73S53.1,32.55,49.63,28.87Z" transform="translate(-10.83 -11.51)"/><path class="cls-23" d="M55.72,39.8c-3.88-5.12-9.57-10.1-11.18-16.22-.36-1.39-.27-3.5-.9-3.36-1.09.28-2.5,2.27-2.64,8-.17,7.43,6.33,17.33,10.73,20.51A8,8,0,0,0,54.21,50c2.16.65,3.23-.46,3.5-4.25a9,9,0,0,0-.48-3.32A11.24,11.24,0,0,0,55.72,39.8Z" transform="translate(-10.83 -11.51)"/><path class="cls-4" d="M49.74,28.76a22.31,22.31,0,0,1-4.64-7.68,3.54,3.54,0,0,0-.16-.4,1.15,1.15,0,0,0-1-.66c-1.34,0-2.94,2.14-3.08,8.19-.17,7.59,6.38,17.45,10.79,20.63a7,7,0,0,0,3.91,1.47A3.61,3.61,0,0,0,58.44,49a6,6,0,0,0,.83-5C58.43,39.7,55.22,34.58,49.74,28.76Zm8.47,20.05A3.33,3.33,0,0,1,55.55,50a6.61,6.61,0,0,1-3.73-1.41C47.41,45.41,41,35.45,41.16,28.22c.14-6.24,1.8-7.89,2.76-7.89a.82.82,0,0,1,.75.48c0,.07.08.2.14.38A22.59,22.59,0,0,0,49.52,29C55,34.75,58.14,39.81,59,44A5.73,5.73,0,0,1,58.21,48.81Z" transform="translate(-10.83 -11.51)"/><path class="cls-24" d="M44.81,20.75" transform="translate(-10.83 -11.51)"/><path class="cls-24" d="M44.56,18.12" transform="translate(-10.83 -11.51)"/><path class="cls-4" d="M44.66,20.8l.29-.11a12.13,12.13,0,0,1-.54-2.59A6.83,6.83,0,0,0,44.66,20.8Z" transform="translate(-10.83 -11.51)"/><path class="cls-5" d="M63.62,42.73c3.31,1.34,3.46,3.44,3.46,3.44S62.4,43,58.47,48.72a12.81,12.81,0,0,1,6.18-.81s-10.94,1.8-6.22,11.34c.41-2.83,3.17-5.84,5.09-6.18-2.23,1.87-4.39,6.72-1.37,10.18.2-4.25,4.88-9.9,9.35-9.47a2.51,2.51,0,0,1,.32-1,2.26,2.26,0,0,1,.57-.73l4.33-4.74A12.09,12.09,0,0,0,63.62,42.73Z" transform="translate(-10.83 -11.51)"/><path class="cls-6" d="M65,42.41c1.17.12,3.08.86,2.82,4.89-2.29-2.19-5.09-2.48-8.06.28,1.91-.42,4.8-.73,6.69.47-3.17.37-9.37,1.58-8.81,8.24,2.32-3.84,5.22-4.73,7.52-3.9-3.15,1.34-4.69,6-3.94,8.39,2.5-5.56,6.87-8.46,10.27-7a4.09,4.09,0,0,1,.32-1,2.26,2.26,0,0,1,.57-.73l4.33-4.74A12.36,12.36,0,0,0,65,42.41Z" transform="translate(-10.83 -11.51)"/><path class="cls-7" d="M63.58,42.59l-.45.11.43.18c2.42,1,3.1,2.37,3.29,3-1.12-.58-5.11-2.14-8.51,2.77l-.27.39.45-.16A14.18,14.18,0,0,1,63.65,48c-1.56.43-4.58,1.56-5.91,4.15-1,2-.83,4.4.56,7.19l.22.45.07-.49a8.62,8.62,0,0,1,4.34-5.87,9,9,0,0,0-2.4,5.3A6.19,6.19,0,0,0,62,63.35l.25.29,0-.38a11.76,11.76,0,0,1,4.07-7.47,7.11,7.11,0,0,1,5.13-2,3.79,3.79,0,0,0-2.54.07,9.65,9.65,0,0,0-2.79,1.7A12.15,12.15,0,0,0,62,62.86a5.93,5.93,0,0,1-1.18-4.13,8.51,8.51,0,0,1,2.78-5.54l.44-.37-.57.1c-1.84.32-4.49,3.07-5.12,5.84-1.15-2.52-1.28-4.7-.36-6.49,1.73-3.36,6.61-4.21,6.66-4.21l.86-.15-.85-.16a12.87,12.87,0,0,0-5.8.67c3.73-5,7.93-2.25,8.11-2.13l.26.18,0-.32c0-.08-.18-2-3.13-3.38a12,12,0,0,1,12.49,4.58l.26-.16A12.32,12.32,0,0,0,63.58,42.59Z" transform="translate(-10.83 -11.51)"/><path d="M70.53,58.17c-1-.12-2.7.43-2.33,3.07,1.39-3.63,6.86,1.59,6.86,1.59S72.32,58.39,70.53,58.17Z" transform="translate(-10.83 -11.51)"/><path d="M70.55,58l-.27,0a2.25,2.25,0,0,0-1.7.74,3,3,0,0,0-.53,2.52l.08.59.21-.56a1.6,1.6,0,0,1,1.59-1.18c2,0,5,2.81,5,2.83l.86.83-.63-1C75.08,62.57,72.39,58.25,70.55,58Zm-.61,1.78a1.82,1.82,0,0,0-1.64.89,2.48,2.48,0,0,1,.51-1.75,2,2,0,0,1,1.47-.63h.23c1.2.15,2.89,2.35,3.8,3.65C73.24,61.11,71.41,59.81,69.94,59.8Z" transform="translate(-10.83 -11.51)"/><path d="M51.24,66.76s2.59-6.3,6.8-3.3C56.36,60.8,53.69,58.85,51.24,66.76Z" transform="translate(-10.83 -11.51)"/><path d="M55.17,61c-1.53,0-2.9,1.92-4.08,5.73l-.2.9.49-.79s1.69-4,4.42-4a3.72,3.72,0,0,1,2.15.78l.63.45-.42-.66C57.16,61.79,56.15,61,55.17,61Zm.64,1.52c-1.74,0-3,1.4-3.83,2.58,1-2.52,2.05-3.8,3.18-3.8A3.33,3.33,0,0,1,57.51,63,3.65,3.65,0,0,0,55.81,62.5Z" transform="translate(-10.83 -11.51)"/><path class="cls-25" d="M55.13,66.33c-2,0-3.62,2.19-3.63,4.92,0,2.37,1.22,4.36,2.86,4.83,1.32-.39,2.82-1.46,4.08-4.46.11-.26.2-.5.28-.73C58.58,68.34,57,66.33,55.13,66.33Z" transform="translate(-10.83 -11.51)"/><path class="cls-24" d="M55.13,66.33c-2,0-3.62,2.19-3.63,4.92a6.55,6.55,0,0,0,.14,1.34,8.85,8.85,0,0,0,6.88-1.16c.07-.18.14-.36.2-.54C58.58,68.34,57,66.33,55.13,66.33Z" transform="translate(-10.83 -11.51)"/><path d="M55.12,66.18c-2.08,0-3.77,2.27-3.78,5.08,0,2.39,1.24,4.48,3,5h.09c1.75-.52,3.12-2,4.18-4.55.1-.23.19-.47.28-.74v-.06C58.72,68.26,57.08,66.19,55.12,66.18Zm3.17,5.39c-1,2.43-2.31,3.86-3.95,4.36-1.57-.48-2.7-2.44-2.7-4.67,0-2.64,1.57-4.78,3.48-4.77s3.29,1.93,3.43,4.39C58.47,71.13,58.38,71.35,58.29,71.57Z" transform="translate(-10.83 -11.51)"/><path class="cls-26" d="M55.78,69.22c-1.24,0-2.26,1.37-2.26,3.07a3,3,0,0,0,2.17,3.16,7.08,7.08,0,0,0,2.37-3.09C58,70.52,57,69.22,55.78,69.22Z" transform="translate(-10.83 -11.51)"/><path class="cls-27" d="M55.78,69.22c-1.24,0-2.26,1.37-2.26,3.07,1.31,2.23,3.92,1.81,4.53,0C58,70.47,57,69.22,55.78,69.22Z" transform="translate(-10.83 -11.51)"/><path d="M55.78,70.31c-.81,0-1.46.88-1.47,2s.65,2,1.46,2,1.46-.89,1.46-2S56.59,70.31,55.78,70.31Z" transform="translate(-10.83 -11.51)"/><path class="cls-28" d="M55.78,69.06c-1.33,0-2.41,1.45-2.42,3.23a3.14,3.14,0,0,0,1.93,3.17l.28.05c.13-.08.19-.19.32-.28h-.25c-1.1-.09-2-1.37-2-2.93s.95-2.92,2.11-2.92,2.1,1.32,2.1,2.93a.41.41,0,0,1,0,.11s0,.21,0,.24c.1-.2.2-.37.3-.59v-.24C58,70.27,57,69.07,55.78,69.06Z" transform="translate(-10.83 -11.51)"/><path class="cls-4" d="M57.08,65.77A2.51,2.51,0,0,1,58.67,67c.57,1.06.44,2.6-.38,4.57-1.88,4.49-4.24,4.56-5.81,4.61a6.76,6.76,0,0,0-.71,0l0,.31c.19,0,.42,0,.68,0,1.55,0,4.13-.16,6.08-4.83.86-2.06,1-3.69.36-4.84A2.08,2.08,0,0,0,57.08,65.77Z" transform="translate(-10.83 -11.51)"/><path class="cls-29" d="M55.78,69.37c-1.16,0-2.11,1.31-2.11,2.92s.92,2.92,2.08,2.93a7.55,7.55,0,0,0,2.12-2.74c0-.06,0-.12,0-.18C57.88,70.69,56.94,69.37,55.78,69.37Z" transform="translate(-10.83 -11.51)"/><path class="cls-29" d="M56.37,75.1a2.51,2.51,0,0,0,1.35-1.72A7.68,7.68,0,0,1,56.37,75.1Z" transform="translate(-10.83 -11.51)"/><path class="cls-25" d="M70.31,66.13c-2.35.36-3.85,3.29-3.35,6.54.23,1.47.62,2.67,1.4,3.21.93.64,2.34.46,3.62.26s2.73-.54,3.33-1.55a5.25,5.25,0,0,0,.15-3.23C75,68.11,72.65,65.76,70.31,66.13Z" transform="translate(-10.83 -11.51)"/><path class="cls-24" d="M70.31,66.13c-2.32.35-3.8,3.21-3.36,6.42a7.45,7.45,0,0,0,7.64.08,5.17,5.17,0,0,0,1-.61q0-.31-.09-.66C75,68.11,72.65,65.76,70.31,66.13Z" transform="translate(-10.83 -11.51)"/><path d="M70.8,65.94a4.53,4.53,0,0,0-.52,0,4,4,0,0,0-2.85,2.27,7.5,7.5,0,0,0-.62,4.45c.27,1.76.74,2.81,1.46,3.31a3.14,3.14,0,0,0,1.84.48A12.23,12.23,0,0,0,72,76.29c1.42-.21,2.81-.56,3.44-1.62a5.44,5.44,0,0,0,.18-3.33C75.14,68.27,73.07,65.94,70.8,65.94Zm4.38,8.57c-.57.95-1.88,1.27-3.23,1.48a11.58,11.58,0,0,1-1.84.18,2.88,2.88,0,0,1-1.67-.42c-.65-.45-1.07-1.44-1.32-3.1a7.13,7.13,0,0,1,.58-4.27,3.63,3.63,0,0,1,2.63-2.1,2.42,2.42,0,0,1,.47,0c2.12,0,4.06,2.22,4.51,5.14A5.18,5.18,0,0,1,75.18,74.51Z" transform="translate(-10.83 -11.51)"/><path class="cls-4" d="M70.5,64a4.91,4.91,0,0,0-3.3,1.62,13,13,0,0,0,1.38-.73,3.78,3.78,0,0,1,1.92-.58h0a3.16,3.16,0,0,1,1.55.43l1.51.9A4.1,4.1,0,0,0,70.5,64Z" transform="translate(-10.83 -11.51)"/><path class="cls-1" d="M94.4,11.83c-4.84-1.52-17.81,7.41-18.65,25.66C75.1,51.42,72.39,52,72.39,52l10.75,4.45A44.21,44.21,0,0,1,89.83,49c3.36-3,4.86-5.4,6.86-10.92C100.16,28.46,98.75,13.2,94.4,11.83Z" transform="translate(-10.83 -11.51)"/><path class="cls-2" d="M94.4,11.83c-4.84-1.52-17.81,7.41-18.65,25.66C75.1,51.42,72.39,52,72.39,52l2.67,1.83,5.07,1.37C84.36,51,89.82,48,92.76,43c4.85-8.28,6-19.15,3.94-28.71A4.31,4.31,0,0,0,94.4,11.83Zm-1.86,6.35c-.61.3-.61.61-.62,1.22-.91-2.15-.69-4.47,1.1-5.6C91.91,15.25,92.24,16.64,92.54,18.18Z" transform="translate(-10.83 -11.51)"/><path class="cls-17" d="M75.75,37.49c-.42,9-1.94,13.69-3.36,14.52a4.6,4.6,0,0,0,2.67-3c1.68-5.1,1.94-10.78,2.73-16.46.94-6.73,5.78-16.79,13-19.61a26,26,0,0,1,4-1,2.2,2.2,0,0,0-.39-.17C89.56,10.31,76.59,19.24,75.75,37.49Z" transform="translate(-10.83 -11.51)"/><path class="cls-4" d="M94.45,11.68c-1.8-.56-4.53.25-7.3,2.19-2.53,1.77-10.86,8.71-11.55,23.61a47.68,47.68,0,0,1-1.49,11.05c-.88,2.94-1.76,3.5-1.76,3.5s2.91-.63,3.55-14.53c.69-14.76,8.92-21.63,11.43-23.38s5.34-2.68,7-2.15a4.16,4.16,0,0,1,2.19,2.32c2.34,4.73,2.84,15.89,0,23.76-2,5.54-3.46,7.87-6.81,10.86A45.94,45.94,0,0,0,83,56.38l.26.16a45.71,45.71,0,0,1,6.7-7.4c3.35-3,4.89-5.46,6.89-11,2.86-7.93,2.35-19.21,0-24A4.42,4.42,0,0,0,94.45,11.68Z" transform="translate(-10.83 -11.51)"/><path class="cls-22" d="M83.09,28.48c-1.94,8.11-1.2,14.62-4.37,23.26,0,0,8.44-2.54,14.14-15C97.57,26.39,92.48,17,92.48,17S85,20.37,83.09,28.48Z" transform="translate(-10.83 -11.51)"/><path class="cls-23" d="M86.24,26.12c-1.09,2.94-1.33,8.26-2.35,13.54a76.37,76.37,0,0,1-3.35,11.28c2.79-1.47,8.25-5.31,12.32-14.23,3.71-8.13,1.24-16.31.18-18.22C91.7,17.87,87.32,23.17,86.24,26.12Z" transform="translate(-10.83 -11.51)"/><path class="cls-4" d="M92.55,16.77l-.13.06c-.08,0-7.54,3.53-9.48,11.62a75.59,75.59,0,0,0-1.48,9.34,56.08,56.08,0,0,1-2.88,13.9l-.11.29.3-.09c.08,0,8.57-2.7,14.23-15.12,4.68-10.27-.33-19.78-.38-19.88Zm.17,19.87c-5,11-12.2,14.25-13.74,14.85a57,57,0,0,0,2.78-13.67,75,75,0,0,1,1.48-9.3c1.76-7.35,8.17-10.85,9.17-11.35C93,18.34,97,27.17,92.72,36.64Z" transform="translate(-10.83 -11.51)"/><path class="cls-4" d="M92.34,17l.28-.13a3.34,3.34,0,0,1,.4-3.12A3,3,0,0,0,92.34,17Z" transform="translate(-10.83 -11.51)"/><path class="cls-26" d="M72.18,68.93C70.9,69,70,70.54,70.07,72.35s1.26,3.19,2.55,3.1,2.23-1.61,2.11-3.42S73.47,68.84,72.18,68.93Z" transform="translate(-10.83 -11.51)"/><path class="cls-27" d="M72.18,68.93C70.9,69,70,70.54,70.07,72.35c0,.13,0,.27.05.4,1.81,1.46,3.3,1.26,4.62-.43a2.81,2.81,0,0,0,0-.29C74.61,70.23,73.47,68.84,72.18,68.93Z" transform="translate(-10.83 -11.51)"/><ellipse cx="72.4" cy="72.19" rx="1.43" ry="2" transform="translate(-15.49 -6.52) rotate(-3.82)"/><path class="cls-28" d="M72.17,68.71c-1.41.1-2.44,1.73-2.31,3.65s1.28,3.31,2.64,3.31h.13c1.41-.1,2.44-1.73,2.31-3.65S73.58,68.63,72.17,68.71Zm.43,6.53c-1.18.08-2.2-1.23-2.31-2.91s.74-3.11,1.91-3.19h.1c1.13,0,2.11,1.28,2.22,2.91S73.77,75.16,72.6,75.24Z" transform="translate(-10.83 -11.51)"/><path class="cls-4" d="M77.12,53.73a3.58,3.58,0,0,0,1.74-1.93l-.28-.12A5.11,5.11,0,0,1,77.12,53.73Z" transform="translate(-10.83 -11.51)"/><path class="cls-30" d="M57.81,54.73c2.64-4.68,5.66-5.26,8.9-6.14C58.26,48.71,57.81,54.73,57.81,54.73Z" transform="translate(-10.83 -11.51)"/><path class="cls-30" d="M61.28,60.13c1-4,2.08-5.87,4.67-7.49C61,53.48,61.28,60.13,61.28,60.13Z" transform="translate(-10.83 -11.51)"/><path class="cls-30" d="M60.44,47.2c3.06-1,4.53-1.22,6.7-.22C64.45,44.1,60.44,47.2,60.44,47.2Z" transform="translate(-10.83 -11.51)"/><path class="cls-30" d="M66.44,42.78c3.23.29,5.36,1.3,6.94,3.09C72.09,42.14,66.44,42.78,66.44,42.78Z" transform="translate(-10.83 -11.51)"/><path class="cls-3" d="M58.08,77.42c-3,.29-3.46,4.16-3.46,4.16S56,78.72,57.23,78.3s2.62-.11,3.47,2.15A2.94,2.94,0,0,0,58.08,77.42Z" transform="translate(-10.83 -11.51)"/><path class="cls-3" d="M39.19,82.75c.77-3.65,2.34-4,4.37-3.75C39.19,76.36,39.19,82.75,39.19,82.75Z" transform="translate(-10.83 -11.51)"/><path class="cls-3" d="M43.75,89.33a17.51,17.51,0,0,1,12.81-1.08C48.62,84.59,43.75,89.33,43.75,89.33Z" transform="translate(-10.83 -11.51)"/><path class="cls-24" d="M55.78,69.21c-.72,0-1.31.41-1.31.92s.58.93,1.3.94,1.31-.42,1.31-.93S56.5,69.21,55.78,69.21Z" transform="translate(-10.83 -11.51)"/><path class="cls-24" d="M54.52,71.13a.62.62,0,1,0,.59.62A.61.61,0,0,0,54.52,71.13Z" transform="translate(-10.83 -11.51)"/><path class="cls-24" d="M72.27,68.87c-.72,0-1.31.41-1.31.92s.58.93,1.3.94,1.31-.42,1.31-.93S73,68.87,72.27,68.87Z" transform="translate(-10.83 -11.51)"/><path class="cls-24" d="M71,70.8a.6.6,0,0,0-.59.61.59.59,0,1,0,1.18,0A.6.6,0,0,0,71,70.8Z" transform="translate(-10.83 -11.51)"/><path class="cls-4" d="M58.78,112.42l.07.3a13.12,13.12,0,0,0,10.13-10A13.36,13.36,0,0,1,58.78,112.42Z" transform="translate(-10.83 -11.51)"/><path class="cls-4" d="M86.4,72.3s1.8.51,3.16,3.39l.26-.12C88.4,72.55,86.4,72.3,86.4,72.3Z" transform="translate(-10.83 -11.51)"/><path class="cls-4" d="M54.46,127.61a15.2,15.2,0,0,0,1.38-1.84l-.25-.15C55,126.64,54.46,127.61,54.46,127.61Z" transform="translate(-10.83 -11.51)"/><path class="cls-4" d="M83.63,122.82c.87,1.65,1.9,3.22,1.91,3.23s-.79-1.72-1.65-3.36Z" transform="translate(-10.83 -11.51)"/><path class="cls-4" d="M51.41,144.71c.14-4.77,1.4-7,1.41-7s-1.55,2.13-1.7,7Z" transform="translate(-10.83 -11.51)"/><polygon class="cls-4" points="76.95 133.09 77.23 133.03 75.42 126.35 76.95 133.09"/><path class="cls-31" d="M69.44,131.65c-6.91,0-12.51,5-12.51,10.14s5.6,8.51,12.51,8.51,12.5-3.26,12.5-8.41S76.34,131.65,69.44,131.65Z" transform="translate(-10.83 -11.51)"/><rect class="cls-32" x="0.14" y="130.09" width="112.38" height="40.84"/><path class="cls-24" d="M108.84,143.66c-.23.32,0,.72.61,1.46a7.14,7.14,0,0,1,1.81,4.58,2.29,2.29,0,0,1-.43,1.24c2.13,1.31,3.78,3.61,3.78,7.58,0,7-8.5,8.58-11.77,8.58-2.24,0-7.35-1.23-9.61-4.18a5.62,5.62,0,0,1-.9-5.14c1.34-4.91,3.59-7,6.15-7.9a8.47,8.47,0,0,1,1.8-4.54c.52-.78.9-1.34.65-1.68a11.29,11.29,0,0,1-1.14-2.06H40.19A14.16,14.16,0,0,1,39,143.66c-.23.32.05.72.61,1.46a7.15,7.15,0,0,1,1.82,4.58,2.31,2.31,0,0,1-.44,1.24c2.14,1.31,3.78,3.61,3.78,7.58,0,7-8.49,8.58-11.77,8.58-2.23,0-7.35-1.23-9.6-4.18a5.62,5.62,0,0,1-.91-5.14c1.35-4.91,3.59-7,6.15-7.9a8.54,8.54,0,0,1,1.8-4.54c.53-.78.91-1.34.66-1.68a10.72,10.72,0,0,1-1.14-2.06H11v40.84H123.36V141.6H110.05A13.28,13.28,0,0,1,108.84,143.66Z" transform="translate(-10.83 -11.51)"/><path class="cls-33" d="M10.83,182.58H123.5V141.46H10.83Zm.29-40.84H123.21v40.55H11.12Z" transform="translate(-10.83 -11.51)"/><path class="cls-1" d="M35.27,142.17c2.46-3.44,4.57-10-3.92-10-7.17,0-6.31,6.43-3.75,10,.72,1-2.44,2.9-2.44,6.59,0,1.8,2.84,3.6,5.78,3.65s6.73-2.22,6.73-4.11C37.67,144.61,34.55,143.18,35.27,142.17Z" transform="translate(-10.83 -11.51)"/><path class="cls-2" d="M34.34,132.55a10.55,10.55,0,0,0-3-.37c-7.17,0-6.31,6.43-3.75,10,.69,1-2.23,2.77-2.43,6.21,2.43-1.3,5.76-1.33,8.57-1,.26-1.62-1-3.68-.19-5.06C34.87,139.37,38.43,133.35,34.34,132.55Z" transform="translate(-10.83 -11.51)"/><path class="cls-3" d="M29.44,132.41c-5.32,1-3.93,6.85-1.84,9.76.63.89-2.41,3.09-2.41,6.27.16-1.9,3.16-4.68,3.16-6.08,0-.47-1.6-2.3-2-4.63A4.84,4.84,0,0,1,29.44,132.41Z" transform="translate(-10.83 -11.51)"/><path class="cls-4" d="M35.39,142.26c1.55-2.16,2.94-5.5,1.76-7.79-.83-1.62-2.78-2.44-5.8-2.44-2.6,0-4.41.86-5.24,2.48-1.2,2.34-.13,5.65,1.37,7.75.25.34-.13.9-.66,1.68a8.32,8.32,0,0,0-1.8,4.82c0,1.9,2.87,3.74,5.92,3.79H31a9,9,0,0,0,4.54-1.37c1.4-.87,2.24-2,2.24-2.88A7.2,7.2,0,0,0,36,143.72C35.44,143,35.16,142.58,35.39,142.26Zm0,8.67A8.66,8.66,0,0,1,31,152.26h-.09c-2.84,0-5.64-1.77-5.64-3.5a8.09,8.09,0,0,1,1.76-4.66c.59-.87,1-1.5.65-2-1.45-2-2.49-5.22-1.34-7.45.78-1.52,2.5-2.32,5-2.32,2.9,0,4.77.77,5.55,2.28,1.11,2.18-.24,5.39-1.75,7.49-.36.51.05,1,.62,1.8a7,7,0,0,1,1.75,4.41C37.52,149.13,36.74,150.12,35.42,150.93Z" transform="translate(-10.83 -11.51)"/><path class="cls-34" d="M30.68,148c-4.81-.07-9.44.27-11.67,8.41-1.86,6.82,7.41,9.14,10.38,9.14,3.2,0,11.62-1.53,11.62-8.44C41,148.51,33.12,148,30.68,148Z" transform="translate(-10.83 -11.51)"/><path class="cls-35" d="M37,161.08c2.83-3.16,0-8.67-2.17-12.5a16,16,0,0,0-4.15-.57c-4.81-.07-9.44.27-11.67,8.41-1.86,6.82,7.41,9.14,10.38,9.14.32,0,.7,0,1.11-.06C32.8,164.46,35.69,163.27,37,161.08Z" transform="translate(-10.83 -11.51)"/><path class="cls-36" d="M19,156.42a5.49,5.49,0,0,0,.64,4.66c-.73-1.55-.28-3.31.23-4.86,2-5.22,4.63-8.18,12.45-8.12a16,16,0,0,0-1.65-.09C25.87,147.94,21.24,148.28,19,156.42Z" transform="translate(-10.83 -11.51)"/><path class="cls-37" d="M30.68,147.86h-.82c-4.38,0-8.83.66-11,8.53a5.63,5.63,0,0,0,.91,5.13c2.25,2.95,7.37,4.18,9.61,4.18,3.27,0,11.76-1.54,11.76-8.58C41.15,149.2,34.59,147.92,30.68,147.86Zm-1.29,17.55c-2.19,0-7.19-1.19-9.38-4.06a5.37,5.37,0,0,1-.86-4.89c2.1-7.68,6.26-8.32,10.71-8.32h.82c3.8.06,10.19,1.3,10.19,9C40.87,163.92,32.58,165.41,29.39,165.41Z" transform="translate(-10.83 -11.51)"/><path class="cls-1" d="M105.14,142.17c2.46-3.44,4.56-10-3.92-10-7.18,0-6.31,6.43-3.76,10,.72,1-2.43,2.9-2.43,6.59,0,1.8,2.84,3.6,5.78,3.65s6.72-2.22,6.72-4.11C107.53,144.61,104.42,143.18,105.14,142.17Z" transform="translate(-10.83 -11.51)"/><path class="cls-2" d="M104.2,132.55a10.42,10.42,0,0,0-3-.37c-7.18,0-6.31,6.43-3.76,10,.7,1-2.22,2.77-2.42,6.21,2.43-1.3,5.76-1.33,8.57-1,.26-1.62-1-3.68-.19-5.06C104.73,139.37,108.29,133.35,104.2,132.55Z" transform="translate(-10.83 -11.51)"/><path class="cls-3" d="M99.3,132.41c-5.32,1-3.93,6.85-1.84,9.76.64.89-2.4,3.09-2.4,6.27.16-1.9,3.15-4.68,3.15-6.08,0-.47-1.59-2.3-1.95-4.63A4.85,4.85,0,0,1,99.3,132.41Z" transform="translate(-10.83 -11.51)"/><path class="cls-4" d="M105.25,142.26c1.55-2.16,2.94-5.5,1.77-7.79-.83-1.62-2.78-2.44-5.8-2.44-2.6,0-4.41.86-5.24,2.48-1.2,2.34-.13,5.65,1.37,7.75.25.34-.13.9-.66,1.68a8.32,8.32,0,0,0-1.81,4.82c0,1.9,2.88,3.74,5.93,3.79h.09a9,9,0,0,0,4.54-1.37c1.4-.87,2.24-2,2.24-2.88a7.15,7.15,0,0,0-1.82-4.58C105.3,143,105,142.58,105.25,142.26Zm0,8.67a8.66,8.66,0,0,1-4.39,1.33h-.09c-2.85,0-5.64-1.77-5.64-3.5a8.09,8.09,0,0,1,1.76-4.66c.59-.87,1-1.5.65-2-1.45-2-2.49-5.22-1.34-7.45.77-1.52,2.5-2.32,5-2.32,2.9,0,4.77.77,5.54,2.28,1.12,2.18-.24,5.39-1.74,7.49-.36.51,0,1,.62,1.8a7,7,0,0,1,1.75,4.41C107.39,149.13,106.61,150.12,105.29,150.93Z" transform="translate(-10.83 -11.51)"/><path class="cls-34" d="M100.55,148c-4.81-.07-9.44.27-11.67,8.41-1.87,6.82,7.41,9.14,10.37,9.14,3.21,0,11.63-1.53,11.63-8.44C110.88,148.51,103,148,100.55,148Z" transform="translate(-10.83 -11.51)"/><path class="cls-35" d="M106.68,160.13c.85-1.63-.28-7.95-3.2-11.84a18,18,0,0,0-2.93-.28c-4.81-.07-9.44.27-11.67,8.41-1.87,6.82,7.41,9.14,10.37,9.14a8.59,8.59,0,0,0,4.25-1.68A7,7,0,0,0,106.68,160.13Z" transform="translate(-10.83 -11.51)"/><path class="cls-36" d="M88.88,156.42a5.49,5.49,0,0,0,.63,4.66c-.73-1.55-.28-3.31.24-4.86,2-5.22,4.63-8.18,12.45-8.12a16.11,16.11,0,0,0-1.65-.09C95.74,147.94,91.11,148.28,88.88,156.42Z" transform="translate(-10.83 -11.51)"/><path class="cls-37" d="M100.55,147.86h-.83c-4.37,0-8.83.66-11,8.53a5.61,5.61,0,0,0,.91,5.13c2.25,2.95,7.37,4.18,9.6,4.18,3.28,0,11.77-1.54,11.77-8.58C111,149.2,104.46,147.92,100.55,147.86Zm-1.3,17.55c-2.18,0-7.18-1.19-9.38-4.06a5.34,5.34,0,0,1-.85-4.89c2.1-7.68,6.26-8.32,10.7-8.32h.82c3.81.06,10.19,1.3,10.19,9C110.73,163.92,102.45,165.41,99.25,165.41Z" transform="translate(-10.83 -11.51)"/></svg>