<svg xmlns="http://www.w3.org/2000/svg" viewBox="0 0 5082.59 3767.33"><defs><style>.cls-1{fill:#e5c877;}.cls-2{fill:#ffd246;}.cls-11,.cls-3,.cls-5{opacity:0.2;}.cls-4,.cls-5{fill:#001937;}.cls-6{fill:#3d2a11;}.cls-21,.cls-7,.cls-8{fill:#fff;}.cls-15,.cls-7,.cls-9{opacity:0.5;}.cls-9{fill:#c65e4a;}.cls-10{fill:#f2efeb;}.cls-11,.cls-12{fill:#cfe8ff;}.cls-12{opacity:0.4;}.cls-13{fill:#a33e56;}.cls-14{fill:#3c0010;opacity:0.3;}.cls-15{fill:#310018;}.cls-16,.cls-21{opacity:0.8;}.cls-17{fill:#443c3a;}.cls-18{fill:#ffa6ca;}.cls-19{fill:#ede6e7;}.cls-20{fill:#510002;}</style></defs><g id="Fish"><path class="cls-1" d="M4753.33,3263.34s211.05,370.8,438.64,504c-36-308.79-94.5-416.91-203.57-462.89,264.62-23.86,577.06-409.43,602.47-650.61C5216.54,2573.15,4762.34,3198,4762.34,3198Z" transform="translate(-508.28)"/><path class="cls-2" d="M4762.35,3198s-61.29-66.13-185.21-164.72L4368.81,3152.7l155.49,180.89c95.36-23.53,175.13-48.22,229-70.25C4762.73,3245.87,4769.47,3214.58,4762.35,3198Z" transform="translate(-508.28)"/><g class="cls-3"><path class="cls-4" d="M4661.8,3295.59l1.33-.41Z" transform="translate(-508.28)"/><path class="cls-4" d="M4675.22,3291.31c9-2.91,17.87-5.81,26.23-8.67-25.38-55.56-85.47-99.49-201.86-148.54l-7,9.36C4597.64,3188.1,4651.67,3231.22,4675.22,3291.31Z" transform="translate(-508.28)"/><path class="cls-4" d="M4523.58,3333.76h0l.92-.23Z" transform="translate(-508.28)"/><path class="cls-4" d="M4618.87,3308.44l2.72-.79Z" transform="translate(-508.28)"/><path class="cls-4" d="M4641.51,3301.8l1.22-.37Z" transform="translate(-508.28)"/><path class="cls-4" d="M4595.68,3315l2.8-.78Z" transform="translate(-508.28)"/><path class="cls-4" d="M4572.28,3321.3l1.82-.48Z" transform="translate(-508.28)"/></g><path class="cls-2" d="M4460.16,3130.24l-330.69,134.35L4193.92,3398c188.23-27.71,363-68.62,481.31-106.67C4649.38,3225.33,4586.77,3179.79,4460.16,3130.24Z" transform="translate(-508.28)"/><path class="cls-5" d="M4645.22,3089.3c-50.85,49.53-132.69,70.63-219.89,77.72l-8,13.5c140.12-14.54,210.33-59.52,237.95-82.63C4652,3095.09,4648.62,3092.2,4645.22,3089.3Z" transform="translate(-508.28)"/><path class="cls-2" d="M4645.23,3089.29c-79.6-67.9-200-161.55-362-263.13l-130.57,56.71,237.9,286.29C4490.39,3165,4587.66,3145.37,4645.23,3089.29Z" transform="translate(-508.28)"/><path class="cls-5" d="M4516,3170.16c23.5-120.26-59.09-162.09-235.61-246.23,0,0-1.41,5.11-3.74,14.08,154.49,68.83,242.9,119.66,228.4,219.47-15.3,105.35-72.1,139.91-222.32,140.2a296.2,296.2,0,0,1-43.36-3.39c5.71,13.76,14.14,22.93,26.07,25.68C4354.39,3340.44,4492.51,3290.41,4516,3170.16Z" transform="translate(-508.28)"/><path class="cls-2" d="M4250.33,2926.36c170.73,75,270,125.76,254.74,231.12s-72.1,139.91-222.32,140.2-385.58-144.53-385.58-144.53l170.48-242Z" transform="translate(-508.28)"/><path class="cls-5" d="M4344.17,2865.23q-7.6-5-15.36-10l.1.07c-41.14,158.85-170.59,206.29-304,224.83l5.94,22.5C4219.81,3060.25,4322.37,2981.8,4344.17,2865.23Z" transform="translate(-508.28)"/><path class="cls-2" d="M3931.76,2631.27l-257.31,265.05,230,195c167-11.18,370.8-28.92,424.45-236.08C4218.1,2783.39,4085.81,2706.51,3931.76,2631.27Z" transform="translate(-508.28)"/><path class="cls-5" d="M4020.22,3056.8c206.48,62,278.66,193.32,279.61,324,9.17-1.62,18.34-3.24,27.39-4.92,3.72-229.8-245.87-315.6-350.77-336.86l.59,7.37A394.29,394.29,0,0,1,4020.22,3056.8Z" transform="translate(-508.28)"/><path class="cls-2" d="M4020.22,3056.8c-315.39-94.69-401.46,270-401.46,270l119.59,104.07q27,.55,52.28.4c166.41-1,346.49-21.65,509.2-50.47C4298.89,3250.15,4226.71,3118.81,4020.22,3056.8Z" transform="translate(-508.28)"/><path class="cls-5" d="M4021.28,3085.41c4.34-121.48-124.49-175.7-238.38-216l-5.09,12.76c155.84,49.56,227.77,104.51,229.05,204.86,1.62,127.39-91.67,243.89-364.76,240.35,18.31,15.22,50.69,23.12,104.24,17.56C3970.74,3321.63,4017,3206.89,4021.28,3085.41Z" transform="translate(-508.28)"/><path class="cls-2" d="M3611.51,2837.22c271.88,65.22,393.68,118.88,395.35,249.83s-97,250.43-388.1,239.78S3331,3150.38,3331,3150.38Z" transform="translate(-508.28)"/><path class="cls-5" d="M4080.83,2708c-16-8.68-26.16-14.1-15-8.11-88.8,173.22-186.14,183-381.81,185.69l-9.56,10.7C3912.27,2908.3,4016.88,2872.41,4080.83,2708Z" transform="translate(-508.28)"/><path class="cls-2" d="M4065.82,2699.93q-73.56-39.49-155-78.83C3794.14,2564.94,3673,2511.89,3547.58,2465c-21.38,101.55-54.42,258.44-54.82,260.09-.59,2.43,66.24,162.11,173.92,160.79C3874,2883.32,3974.44,2878.2,4065.82,2699.93Z" transform="translate(-508.28)"/><path class="cls-5" d="M3743.81,2544.57c-63.48,85.95-145.52,100.51-236.29,90.88l-14.23,26.17c165.88,5.44,242.38-41.17,274.21-106.72C3759.64,2551.42,3751.71,2548,3743.81,2544.57Z" transform="translate(-508.28)"/><path class="cls-2" d="M3275.47,2375.71c55.54,84,169.28,250.06,169.28,250.06,115.54,22.26,221.27,24.17,299.1-81.26C3594.27,2479.41,3438,2421.25,3275.47,2375.71Z" transform="translate(-508.28)"/><path class="cls-5" d="M3717.51,2898.2c.77-88-17.69-186.38-295.08-383.21l-2.42,21.58c162,88.11,284.57,219.11,288.71,338.88,4.49,129.92-122,222.85-327.8,235.54-5.84.36-11.64.48-17.4.43,14.3,21.92,43,36.4,96.22,32.18C3630.23,3130.07,3716.73,2986.19,3717.51,2898.2Z" transform="translate(-508.28)"/><path class="cls-2" d="M3378,2515.07c182.35,87.27,326.2,230.45,330.69,360.38s-122,222.85-327.8,235.54-364.68-234.65-364.68-234.65l75.19-295.22Z" transform="translate(-508.28)"/><path class="cls-5" d="M3972.74,3423.24q-49.57-89.65-375.42-124.81l32.93,127.87c57.61,3.62,111.5,5.29,160.38,5C3850.06,3431,3911.23,3428.09,3972.74,3423.24Z" transform="translate(-508.28)"/><path class="cls-2" d="M3938.57,3425.73c-47.51-79-217.05-119.17-374.17-115.55l-21.93,109.34c91.11,8.31,175.19,12.21,248.16,11.78C3839,3431,3888.61,3429.06,3938.57,3425.73Z" transform="translate(-508.28)"/><g class="cls-3"><path class="cls-4" d="M3575.22,3422.32q-13.65-1.11-27.54-2.35Q3561.57,3421.22,3575.22,3422.32Z" transform="translate(-508.28)"/><path class="cls-4" d="M3540.1,3419.28q-12.53-1.16-25.23-2.42Q3527.58,3418.12,3540.1,3419.28Z" transform="translate(-508.28)"/><path class="cls-4" d="M3449.51,3409.74v0q29.88,3.53,58.94,6.45Q3479.41,3413.29,3449.51,3409.74Z" transform="translate(-508.28)"/><path class="cls-4" d="M3608,3424.81q-14.74-1-29.76-2.23Q3593.29,3423.78,3608,3424.81Z" transform="translate(-508.28)"/><path class="cls-4" d="M3345.22,3007l15.67,63.4,39.92-12.95c152.18,84.14,333.3,209.67,209.4,367.53,14.56,1,28.95,1.93,43.05,2.7C3744.89,3290.56,3655.53,3158.68,3345.22,3007Z" transform="translate(-508.28)"/></g><path class="cls-2" d="M3400.81,3057.42,3039,3174.76l-6,162.7c203.21,46.7,405.74,75.57,577.16,87.51C3734.12,3267.1,3553,3141.56,3400.81,3057.42Z" transform="translate(-508.28)"/><path class="cls-5" d="M3250.75,3380.93c8.39,1.44,16.8,2.9,25.15,4.28-9-38.2-50.9-83-153.82-162.21l-2.95,21.23C3187.25,3289.44,3237,3331.82,3250.75,3380.93Z" transform="translate(-508.28)"/><path class="cls-2" d="M2790.71,3272.79c151.14,46.43,308.95,82.37,460.06,108.2-18.86-67.38-105.35-122.07-214.24-188.81L2848.36,3143Z" transform="translate(-508.28)"/><path class="cls-5" d="M3423.47,3127.91c35.1-163.24-80.7-289.88-285.4-390l-76.15-30.62-5.39,22.14a198.38,198.38,0,0,1,24.28,5.64c203.54,60.82,346.65,188,322.93,366.88-23.14,174.41-199.64,170.31-470,132.69l-3.94,16.18C3193.85,3315.09,3389.12,3287.69,3423.47,3127.91Z" transform="translate(-508.28)"/><path class="cls-2" d="M2912.7,3231.66c282.24,40.25,467.31,49.16,491-129.73s-119.39-306.06-322.93-366.88S2839,2980.12,2839,2980.12Z" transform="translate(-508.28)"/><path class="cls-5" d="M3415.39,2418.42c74.45,92.64,8.86,204.3-79,264.33-92.7,63.36-178.7,67.36-273.17,46.12-34.44-7.75-67-31.72-94.43-59l-14.43,3.94,130.24,104.95c257.48.74,347.91-121.57,371.59-214.3S3415.39,2418.42,3415.39,2418.42Z" transform="translate(-508.28)"/><path class="cls-2" d="M3336.42,2682.75c87.83-60,153.42-171.69,79-264.33-117.11-38.63-237.7-71.28-361.57-95.69l-165.32,241.7s80.28,143.19,174.75,164.44S3243.72,2746.11,3336.42,2682.75Z" transform="translate(-508.28)"/><path class="cls-5" d="M3107.81,2330c-32.45,113.24-115.41,164.46-217.1,197.94,9.35,10.93,30.41,22,77.36,9.44C3046.48,2516.37,3102.42,2404,3107.81,2330Z" transform="translate(-508.28)"/><path class="cls-2" d="M2804.54,2289.68c14.17,93.2,18.68,177.42,13.93,259,133.39-34,249.48-79.54,289.34-218.65C2915,2292.22,2823.59,2289.74,2804.54,2289.68Z" transform="translate(-508.28)"/><path class="cls-5" d="M3106.45,2731.35c5.71-117.71-109.16-224.65-265.8-282.19v.1c174.48,74.4,273.06,175.41,255.06,322.71-16.63,136-122.81,178.66-280.66,154,9.89,19.77,31.5,33.95,71.32,37.05C3052.72,2976,3100.74,2849.06,3106.45,2731.35Z" transform="translate(-508.28)"/><path class="cls-2" d="M3095.72,2772c18.72-153.19-88.6-256.33-276.32-331.52,6.39,161.58-21.25,303.67-80.3,469.58C2938.34,2961.56,3076.54,2928.83,3095.72,2772Z" transform="translate(-508.28)"/><path class="cls-2" d="M2993.91,3101.33c-13.77-75.33-88.2-226.64-223.83-288.62-33.86,118.19-85.72,244.46-154.47,397.07,97.9,43.79,299.24,102.56,299.24,102.56S3009,3184,2993.91,3101.33Z" transform="translate(-508.28)"/><path class="cls-1" d="M2613.83,3212.15c172-380.46,241-597.13,190.13-926.34-286.35-27.93-588.55-7.15-904.66,88,73.5,55.66,267.87,226.58,301.53,380.2-146-47.69-277.11-121.54-331.52-154.19a30.68,30.68,0,0,0-42.43,11.13s130,265.84,545.72,491.72C2446.84,3143,2528.21,3179.46,2613.83,3212.15Z" transform="translate(-508.28)"/><path class="cls-6" d="M2652.77,2588.44c-56-45.11-146.23-32.11-187.5,12.83s-43,132.13,5.63,179.45,151.53,59.73,203.39,4.2S2708.79,2633.55,2652.77,2588.44Zm2,182c-42.42,45.43-126.61,35.27-166.39-3.44s-38.36-110-4.6-146.79,107.55-47.4,153.38-10.5S2697.23,2725,2654.8,2770.43Z" transform="translate(-508.28)"/><path class="cls-5" d="M2457.35,3145.63h0c65.28,30.95,134.69,59.3,206.64,85.08,173.58-304.23,179.06-732.21,140.55-941v0c49.69,327-19.4,543.5-190.7,922.43C2559.73,3191.49,2507.33,3169.32,2457.35,3145.63Z" transform="translate(-508.28)"/><path class="cls-7" d="M3909.17,2627.9c-560.32-269.66-1223.75-467.65-1964.75-260.79,355.41-54.62,1295.22-42.05,1915.5,239.66,17.66,8,34.06,15,49.38,21.19Z" transform="translate(-508.28)"/><path class="cls-5" d="M2954.14,3318.43c143.67-171.74,36.13-352-113.54-463.89l0,1.88c91.17,72.87,142.19,183.85,153.36,244.91,13.65,74.71-61.9,186.66-76.6,207.56Q2935.7,3313.75,2954.14,3318.43Z" transform="translate(-508.28)"/><path class="cls-8" d="M2654.8,2770.43c-42.42,45.43-126.61,35.27-166.39-3.44s-38.36-110-4.6-146.79,107.55-47.4,153.38-10.5S2697.23,2725,2654.8,2770.43Z" transform="translate(-508.28)"/><circle cx="2525.35" cy="2660.97" r="49.66" transform="translate(-917.17 459.07) rotate(-9.61)"/><path class="cls-9" d="M1872.42,2683.29c67.64,94.55,218.13,266.14,500.18,419.38,415.77,225.88,1054.49,330.74,1418,328.63s792.31-98.29,962.69-168h0c-348.16,84.86-884.63,96.47-1537-27.73C2575.12,3113.52,2297.63,3024.5,1872.42,2683.29Z" transform="translate(-508.28)"/><path class="cls-9" d="M4832.66,3198.45c139.06-155.16,398.87-473.19,696.62-512.64C5317.75,2778.69,5018.92,3018.69,4832.66,3198.45Z" transform="translate(-508.28)"/><path class="cls-9" d="M4878.07,3209.49c190.7-120.27,466-242.31,594.46-410.36C5299.31,2868.69,5047.81,3041.18,4878.07,3209.49Z" transform="translate(-508.28)"/><path class="cls-9" d="M4942.64,3240.64c192-40.93,342.07-128.14,455.66-277.46C5259.37,3075.42,5086.85,3191.52,4942.64,3240.64Z" transform="translate(-508.28)"/><path class="cls-9" d="M5133.08,3573.8c-31.63-131.37-104.72-202.68-270.34-294.17C4949.77,3402.13,5133.08,3573.8,5133.08,3573.8Z" transform="translate(-508.28)"/><path class="cls-9" d="M5141.21,3702.89c-152-145.16-290.68-309.42-343.65-423.65C4930.75,3402.66,5047.33,3523.75,5141.21,3702.89Z" transform="translate(-508.28)"/><path class="cls-10" d="M2535.53,2719.9l18.89,76.18s85.74,15.76,112.79-53.83c31.87-82-36.62-130.22-49.19-138.47-17.62,16.15-39.74,38.65-39.74,38.65s6.28,27.67-3.56,47.29S2535.53,2719.9,2535.53,2719.9Z" transform="translate(-508.28)"/><circle class="cls-11" cx="4980.21" cy="438.91" r="194.2" transform="translate(640.03 3650.09) rotate(-45)"/><circle class="cls-11" cx="4412.48" cy="371.53" r="93.12"/><circle class="cls-12" cx="2292.93" cy="1314.96" r="22.62" transform="matrix(0.99, -0.16, 0.16, 0.99, -689.31, 384.27)"/><path class="cls-11" d="M713.05,2658.36c-113.09,0-204.77,91.68-204.77,204.77S600,3067.9,713.05,3067.9s204.77-91.68,204.77-204.77S826.14,2658.36,713.05,2658.36Zm0,383.76a179,179,0,1,1,179-179A179,179,0,0,1,713.05,3042.12Z" transform="translate(-508.28)"/><path class="cls-11" d="M2353.31,1236.85A132.11,132.11,0,1,0,2485.42,1369,132.11,132.11,0,0,0,2353.31,1236.85Zm0,247.59A115.48,115.48,0,1,1,2468.79,1369,115.48,115.48,0,0,1,2353.31,1484.44Z" transform="translate(-508.28)"/><circle class="cls-11" cx="1473.01" cy="475.9" r="75.96"/></g><g id="Worm"><path d="M1898.36,1176.66c-28.65,0-51.88,23.5-51.88,52.5s23.23,52.5,51.88,52.5,51.89-23.5,51.89-52.5S1927,1176.66,1898.36,1176.66Zm0,88.12a35.62,35.62,0,1,1,35.2-35.62A35.41,35.41,0,0,1,1898.36,1264.78Z" transform="translate(-508.28)"/><path class="cls-13" d="M1490.69,1941.36c-68,17.29-82.24-22.92-100.48-48.59-22.24-31.3-75-35.42-65.89,37.88,4.23,34.2,47.77,124.36,147.83,135.48s131-13.59,131-13.59Z" transform="translate(-508.28)"/><path class="cls-14" d="M1526.92,2039.64a245.68,245.68,0,0,1,1.13-61.33l-5.81-5.75c-3.45,25.86-1.68,56.25-.53,80.81,0,0,3.33,12.57,5.46,15.57l1.36,0C1529.25,2066.71,1529.07,2058.67,1526.92,2039.64Z" transform="translate(-508.28)"/><path class="cls-15" d="M1532.69,2031.13c-46.81,19.63-159.37-3-201.9-76.67,15.76,41,59.77,102.61,141.36,111.67,100.07,11.12,131-13.59,131-13.59l-101.55-100.43C1505.31,1971.71,1514,2004.37,1532.69,2031.13Z" transform="translate(-508.28)"/><g class="cls-16"><path class="cls-14" d="M928.81,1920.62c-.85-1.07-1.68-2.15-2.49-3.23-29.65-9.32-69.73,11.08-70.54,49.43,1,2.08,2.06,4.2,3.19,6.34-.83-14.88,2.87-30.42,18.9-41.59C898.85,1917,917.24,1916.93,928.81,1920.62Z" transform="translate(-508.28)"/><path class="cls-14" d="M927.56,1993c-.17-23.58,27.41-43.88,47.12-47.36-2.21-.15-4.33-.4-6.37-.73-9.69,1.62-27.57,6.56-38.35,21.46-12.89,17.83-11.74,60.81,2.59,82a159.72,159.72,0,0,0,14.51,6.8C927,2039.51,927.73,2015.57,927.56,1993Z" transform="translate(-508.28)"/></g><path class="cls-13" d="M1909.07,1771.7c-237.61-33.77-171.31-149.07-171.31-149.07s84,29.65,118.6-55.59-121.07-231-242.14-8.65,105,335.83,200.14,350.85C1931.72,1927.77,1950.66,1829.35,1909.07,1771.7Z" transform="translate(-508.28)"/><path class="cls-15" d="M1596.38,1756.88l-.07.16c43,92.78,157.26,142.6,218,152.2,73.49,11.6,108.39-22.66,114-64-15.28-2-31.9,1-49.75,11.06C1776.47,1913.91,1648,1843.08,1596.38,1756.88Z" transform="translate(-508.28)"/><path d="M1908.24,1278l-21,1.23v453.39c0,58.74-5.81,227.09-112.06,287.89l16.15,26.69c98.79-54.07,116.91-196.13,116.91-276.28Z" transform="translate(-508.28)"/><path class="cls-17" d="M1887.24,1659.12v73.46c0,32.43-1.77,98.25-21.23,160.94,9.18-3.62,17.55-11.58,22.47-27.11,15.65-49.41,4.76-181.19,0-202.6C1888.09,1662.07,1887.68,1660.51,1887.24,1659.12Z" transform="translate(-508.28)"/><path class="cls-17" d="M1688.35,2068.6c-190.25-8.64-276.73-161.83-142.07-384.2,0,103.77-2.47,193.95-2.47,193.95l-29.65-24.7s-13.59,192.72,175.42,189Z" transform="translate(-508.28)"/><path d="M1832.94,1965.24c-29.28,43.84-74.27,76.07-143.36,77.42-189,3.71-175.42-189-175.42-189l29.65,24.7s2.3-84,2.46-183.15c-91,185.1-37.17,286.82,1.24,327.69l.08.38c35.29,26.91,83.29,42.72,140.76,45.33,72.42,3.29,121.56-24.21,154.66-65.18Z" transform="translate(-508.28)"/><path class="cls-13" d="M1690.82,1924.06c53.12-37.06,162.24-37.88,210.42-66.3,4.12-33.76,7.83-72.47,7.83-86.06,37.06,11.94,105.46,66.48,86.06,155.25-21.41,98-168,86.06-266,107.06S1690.82,1924.06,1690.82,1924.06Z" transform="translate(-508.28)"/><path class="cls-15" d="M1995.13,1927c-31.16,81.67-197.25,80.84-197.25,80.84s-31.5-67.58-101.84-87.15c-1.79,1.11-3.54,2.25-5.22,3.42,0,0-19.37,42.5-17.93,75.2,17.62,10.62,31.65,17.87,31.65,17.87l9,19a97.8,97.8,0,0,0,15.55-2.16C1827.12,2013,1973.72,2025,1995.13,1927Z" transform="translate(-508.28)"/><path class="cls-14" d="M1876.32,2012.42c18.46-17.58,21.3-50.1,7.22-91.93-9.44-28-23.77-39.48-40.56-42.5-9.91,2.32-20.26,4.5-30.78,6.7,51.61,9.89,66.31,104.09,55.54,129.3Q1872.06,2013.24,1876.32,2012.42Z" transform="translate(-508.28)"/><path class="cls-13" d="M1523.42,1929.21c87.72-28.41,177.28-18.74,216.81,23.27,27.45,29.16,46.18,116.75,9.12,190.37-46.18,91.71-204,84.4-230,24.23-22-50.95-20.93-114.88,17-152.83a220,220,0,0,0,99.25,47.76c3.29-11.11-1.24-24.5-1.24-24.5s-40.56-7.2-69.59-37.06S1523.42,1929.21,1523.42,1929.21Z" transform="translate(-508.28)"/><path class="cls-15" d="M1749.35,2142.85c16.61-33,22-68.82,20.44-100.92-2.7,63.33-27.7,98.16-101.48,141.56-60.67,35.69-110.83,19.19-144-7.69C1561.05,2227.73,1705.51,2229.92,1749.35,2142.85Z" transform="translate(-508.28)"/><path class="cls-15" d="M1737.76,1622.63c-38.16-19.49-54.08-46.94-53.53-72.2-18.12,39,28.55,89,28.55,89s-42.45,102.87,130.06,118.93C1684.89,1714.6,1737.76,1622.63,1737.76,1622.63Z" transform="translate(-508.28)"/><path class="cls-14" d="M1648.54,1680.56c62.7,9.18,70.06-1.84,80.75-20.52-.07-2.45,0-4.82.13-7.1-30.5,32.43-128-6.16-141.82-30.24q-2.92,10.59-4.77,20.77C1589,1658.3,1607.25,1674.51,1648.54,1680.56Z" transform="translate(-508.28)"/><path class="cls-14" d="M1780.3,1733.14c-58.61-4.92-111.06,36.36-118.94,104.89q6.11,5,12.43,9.66c4.41-35.66,49.84-105.66,122.53-106.16C1790.51,1738.81,1785.19,1736,1780.3,1733.14Z" transform="translate(-508.28)"/><path class="cls-15" d="M1607.63,2013.83c-32.72-4.09-44.33-22-81.62-77.16,5,13.27,17.31,41.68,38.8,63.78,29,29.86,69.59,37.06,69.59,37.06s4.53,13.39,1.24,24.5a221.69,221.69,0,0,1-60.78-21.71c.49.51,1,1,1.48,1.54-21.41,40.35,68.36,70.83,89.77,28.82S1640.58,2018,1607.63,2013.83Z" transform="translate(-508.28)"/><path class="cls-14" d="M1591.18,2048.16c-2.87-1.23-5.64-2.52-8.37-3.83-14.4-2.69-35-4.06-50.67,4.92-12.92,7.38-20.39,13.89-25,23.61a142.41,142.41,0,0,0-2,17.11C1519.82,2057.65,1565.26,2047.73,1591.18,2048.16Z" transform="translate(-508.28)"/><path class="cls-14" d="M1733,1945.59c-17.94-4.39-35.73-10.72-73,4.42-47.38,19.23-62.39,52.76-54.14,78.18,1.87.83,3.69,1.58,5.45,2.28-2.24-46.73,68-94.79,125-81.94Q1734.67,1947,1733,1945.59Z" transform="translate(-508.28)"/><path class="cls-14" d="M1533.27,1953.71c5.1-17.45,12.47-30,21.38-32.67,1.27-.38,2.48-.76,3.66-1.13q-6,1.26-12,2.77c-7.67,4.81-13.17,12.45-17.09,21.93C1530.35,1947.39,1531.71,1950.45,1533.27,1953.71Z" transform="translate(-508.28)"/><path class="cls-7" d="M1600.64,1593.89c50.07-88.52,100.29-127.58,151.74-135.33,37.41-5.64,62.8,2.36,80.11,18-45.08-48.75-137.45-60.6-215.28,82.35A332.25,332.25,0,0,0,1600.64,1593.89Z" transform="translate(-508.28)"/><path class="cls-7" d="M1359.32,1875.47c-17.15-2.77-30.47,38.3,2.06,62.59s81.54,29.24,124.78,13.18c-46.13,4.94-72.36-7.77-88.13-24.29C1380.74,1908.83,1387.33,1880,1359.32,1875.47Z" transform="translate(-508.28)"/><path class="cls-7" d="M1562.34,1923.65c36.24-11.12,116.54-3.29,137.12,9.06s33.36,25.12-27.59,10.3S1616.28,1921.18,1562.34,1923.65Z" transform="translate(-508.28)"/><path class="cls-18" d="M1713.88,1917.89c38.71-18.53,108.3-29.24,108.3-29.24s-70.42,17.29-92.24,30.06C1723.76,1916.65,1713.88,1917.89,1713.88,1917.89Z" transform="translate(-508.28)"/><path class="cls-14" d="M1697.41,2124.47c-51.75-13.14-67.88-40.68-68.6-63.95-1.23-.29-2.43-.59-3.64-.89-7.59,26.83,10.13,65,64.82,78.84,45.64,11.52,61.6-6.64,70.82-24q2.12-6.78,3.71-13.6C1758.23,2113.43,1742.05,2135.8,1697.41,2124.47Z" transform="translate(-508.28)"/><path class="cls-14" d="M1968.94,1814.94a13.89,13.89,0,0,0-2-.41c-12.19-1.58-40.18-4-62.54,15.17-.4,3.78-.82,7.59-1.25,11.4,26.27-20.38,55.09-17.36,80.91-3.28A137.44,137.44,0,0,0,1968.94,1814.94Z" transform="translate(-508.28)"/><path class="cls-17" d="M1897.54,1543.57l.82-261.91-11.12-2.47v252.5Z" transform="translate(-508.28)"/><ellipse class="cls-19" cx="1256.93" cy="1550.43" rx="35.96" ry="35.14"/><ellipse class="cls-19" cx="1324.74" cy="1538.44" rx="28" ry="27.36"/><ellipse cx="1332.76" cy="1549.15" rx="15.1" ry="14.75"/><ellipse cx="1264.54" cy="1565.51" rx="16.06" ry="15.69"/><path class="cls-20" d="M1766.83,1602.06c14.28,5.21,58,1.34,73.34-11-13.18,15.37-32.42,31.26-47.8,31.26S1766.83,1602.06,1766.83,1602.06Z" transform="translate(-508.28)"/><path class="cls-21" d="M1921.66,1161.81a5.26,5.26,0,0,0-.53.15,79.08,79.08,0,0,1,22.24-11.47l-3.27-9.43c-15.07,5.22-25.42,12.31-32.67,19.87a17.36,17.36,0,0,0-6.28-2.15V0h-10V1159.36a58.89,58.89,0,0,0-13,4.86c-11.81-16.48-22.85-29.86-23.77-31l-7.68,6.36c.22.26,11,13.38,22.7,29.53-3.36,2.08-6.25,4.08-8.42,5.57l-.63.44c-3.58,2.46-5,6.54-3.89,11.2,2.5,10.54,18.87,24.85,30.2,26.4a8,8,0,0,0,7.8-2.91,52.13,52.13,0,0,1,2.86,8c1.43,5.58,4,8.92,7.69,9.9a8,8,0,0,0,2.16.29c2.85,0,5.75-1.49,8.64-4.44,10.21-10.44,23.07-43.43,19.68-55.06C1933.83,1162.67,1928.38,1160,1921.66,1161.81Zm-34.28,41c-5.6-1.18-14.41-7.79-19-14.33-2-2.81-2.34-4.53-2.32-5.09l.58-.41q4.53-3.12,8.56-5.56c4.9,7.1,9.66,14.45,13.56,21.32A24.36,24.36,0,0,1,1887.38,1202.76Zm-3.34-30.21a51.68,51.68,0,0,1,7.14-2.84v13.4h2.37c-.33.86-.65,1.71-.94,2.54C1889.9,1181.28,1887,1176.87,1884,1172.55Zm19.58,27.94c-.88-4.81.82-9.88,3.58-14.37A47.49,47.49,0,0,1,1903.62,1200.49Zm16.2-3.31c-5.09,12.39-9.83,18.55-12.06,20.36a13.49,13.49,0,0,1-.72-2.17c-.25-1-.54-1.94-.87-3a13.15,13.15,0,0,0,5-5.09c3.87-6.32,7.72-20.35,5.57-31.8,4.7-3.64,8.15-4.43,9.19-4.29a.62.62,0,0,1,0,.1C1926.88,1174.45,1924.83,1185,1919.82,1197.18Z" transform="translate(-508.28)"/></g></svg>