<svg viewBox="0 0 582.42 497.24" xmlns="http://www.w3.org/2000/svg"><g transform="translate(-9.58 -49.25)"><path d="m14 370.77c-8.85 21.16-27.16 172.47 209.09 174.93s338.67-65.93 360.57-118.26c29.39-70.22-22.6-117-98.34-91.16s-213.63 24.64-270.15 13.55-172.94-46.83-201.17 20.94z" fill="#774e3a"/><path d="m295.43 240.19c-119.82 9.86-157.12-61.59-209.12 14.81-28.31 41.63-21.47 128.09 167.29 138s318.18-51.47 275.81-134.28c-32.78-64.11-109.26-28.79-233.98-18.53z" fill="#805941"/><path d="m73.88 369.54c25.3 34.93 128.86 48 248.68 43.12 107.24-4.41 170.89-42.22 192.25-76.33-42.09 39.67-139.26 62.98-261.21 56.67-100.15-5.23-149.1-32-168.76-62.25-5.49.25-27.91 15.38-10.96 38.79z" fill="#0e0600" opacity=".42"/><path d="m269.43 277.15c100.63 19.55 174.07-29.15 180.9-55.75-39.26 1.58-90.68 13.51-154.9 18.79-50.76 4.18-86.71-6.24-115.24-13.82-9.33-2.49-56.57 22.45 89.24 50.78z" fill="#0e0600" opacity=".42"/><path d="m310.12 49.25c-73.47 64.06-125.47 62.83-141.29 120.75-9.17 33.56 2.1 99.55 145.81 98.55 176.36-1.26 177.12-115.55 82.52-126.91-133.38-16.01-87.04-92.39-87.04-92.39z" fill="#8f694b"/><g fill="#0e0600"><path d="m168.83 170c-9.17 33.55 2.1 99.55 145.81 98.55 129.57-.93 164.36-62.88 136.16-100.18-35.25 21.14-121.5 63-201.72 25-53.65-25.42-43.81-59.7-18.15-89.3-31.14 18.36-52.83 31.99-62.1 65.93z" opacity=".25"/><path d="m253.6 393c159.27 8.31 276.29-34 283.52-97.22l-41.62 24.49c-68.95 40.65-364 19.71-396.75-4.93-16.5-12.4-18.11-35.4-15.64-55.2-24.32 43.24-10.78 123.34 170.49 132.86z" opacity=".25"/><path d="m224.18 546.43c236.24 2.46 338.67-65.93 360.57-118.26a109.49 109.49 0 0 0 7.25-24.65c-5 7.86-11.72 17.58-20.8 29.57-37.3 49.28-288.24 80.08-438.57 24.64-90.63-33.43-114.33-63.73-118.82-82.51-8.72 31.06-15 168.86 210.37 171.21z" opacity=".25"/></g><path d="m383.68 179.5c0 5.49 19.46 8.73 17.84 2.91s-17.84-9.69-17.84-2.91z" fill="#8f694b"/><path d="m398.79 164.15c0 4.8 20.44 7.63 18.73 2.54s-18.73-8.48-18.73-2.54z" fill="#8f694b"/><path d="m182.28 216.75c0 5.76 32.95 9.16 30.21 3.06s-30.21-10.18-30.21-3.06z" fill="#523626"/><path d="m477.93 239.59c0 5.48 32 8.72 29.35 2.91s-29.35-9.7-29.35-2.91z" fill="#8f6349"/><path d="m532.69 438.72c1.18 5.33 15.24 5 12.87-.4s-14.33-6.19-12.87.4z" fill="#8f5e48"/><path d="m120.91 348.33c-1.09 6 34.8 17.43 32.92 10.42s-31.57-17.83-32.92-10.42z" fill="#442d1e"/><g fill="#3b2517"><path d="m62.77 488.4c-.14 6.21 27.06 10.6 24.93 3.94s-24.76-11.63-24.93-3.94z"/><path d="m49.05 472.47c1.39 6 14.62 6.19 12.11.08s-13.83-7.55-12.11-.08z"/></g></g></svg>