<svg height="218.09151" viewBox="0 0 142.56088 218.0915" width="142.56088" xmlns="http://www.w3.org/2000/svg"><path d="m44.318626 47.223501c-3.907 3.902-3.909 10.234-.005 14.141 26.269 26.287 26.252 69.073999-.037 95.378999-3.904 3.908-3.902 10.238.004 14.143 1.953 1.951 4.511 2.928 7.069 2.928 2.561 0 5.12-.979 7.073-2.932 34.079-34.1 34.096-89.569999.037-123.653999-3.902-3.907-10.235-3.911-14.141-.005z"/><path d="m2.9336256 75.909501c-3.90700001 3.902-3.90900001 10.234-.005 14.141 10.4720004 10.479999 10.4710004 27.532999-.002 38.013999-3.90400001 3.906-3.90200001 10.238.005 14.143 1.952 1.951 4.511 2.926 7.068 2.926 2.5610004 0 5.1210004-.976 7.0730004-2.932 18.263-18.275 18.264-48.011999.002-66.286999-3.902-3.909-10.2350004-3.911-14.1410004-.005z"/><path d="m98.729626 2.9325008c-3.904-3.90800003-10.235-3.91000003-14.142-.006-3.907 3.904-3.909 10.2360002-.005 14.1430002 50.671004 50.703 50.649004 133.224999-.052 183.950999-3.904 3.906-3.902 10.238.004 14.143 1.953 1.951 4.511 2.928 7.069 2.928 2.56 0 5.12-.979 7.073-2.932 58.492004-58.523 58.515004-153.727999.053-212.2269992z"/></svg>