<svg width="63" height="88" viewBox="0 0 63 88" fill="none" xmlns="http://www.w3.org/2000/svg">
<path d="M59.9867 0H3.01345C1.34917 0 0 1.34746 0 3.00964V84.9907C0 86.6528 1.34917 88.0003 3.01345 88.0003H59.9867C61.651 88.0003 63.0002 86.6528 63.0002 84.9907V3.00964C63.0002 1.34746 61.651 0 59.9867 0Z" fill="white"/>
<path d="M4.85912 14.1036C3.64257 15.6508 2.34089 16.5411 2.31927 17.7482C2.31193 18.1391 2.54898 18.8034 3.29122 18.9306C3.77278 19.0127 4.43578 18.6651 4.44964 17.959C4.44682 17.8184 4.61655 17.822 4.61497 18.0147C4.59239 18.5717 4.39458 19.2202 4.06229 19.7481C4.59352 19.7481 5.12471 19.7481 5.65594 19.7481C5.32365 19.2202 5.12592 18.5717 5.10326 18.0147C5.10044 17.822 5.27071 17.8184 5.26859 17.959C5.28242 18.6651 5.94545 19.0127 6.42701 18.9306C7.16926 18.8034 7.40621 18.1391 7.39896 17.7482C7.37723 16.5411 6.07565 15.6508 4.85912 14.1036V14.1036Z" fill="black"/>
<path d="M58.1413 73.8967C56.9247 72.3495 55.6231 71.4592 55.6015 70.2521C55.5941 69.8612 55.8311 69.1969 56.5734 69.0697C57.0549 68.9876 57.7179 69.3352 57.7318 70.0414C57.729 70.1819 57.8987 70.1783 57.8971 69.9856C57.8746 69.4286 57.6767 68.7801 57.3445 68.2522C57.8757 68.2522 58.4069 68.2522 58.9381 68.2522C58.6058 68.7801 58.4081 69.4286 58.3854 69.9856C58.3826 70.1783 58.5529 70.1819 58.5508 70.0414C58.5646 69.3352 59.2276 68.9876 59.7092 69.0697C60.4514 69.1969 60.6884 69.8612 60.6811 70.2521C60.6594 71.4592 59.3578 72.3495 58.1413 73.8967V73.8967Z" fill="black"/>
<path d="M31.5001 9.22725C28.8963 12.9405 26.1103 15.0773 26.064 17.9743C26.0485 18.9124 26.5557 20.5068 28.1443 20.812C29.175 21.0091 30.594 20.1749 30.6237 18.4801C30.6192 18.1427 30.9809 18.1515 30.9775 18.6138C30.929 19.9506 30.5058 21.507 29.7946 22.774C30.9316 22.774 32.0686 22.774 33.2056 22.774C32.4944 21.507 32.0712 19.9506 32.0227 18.6138C32.0193 18.1515 32.3811 18.1427 32.3766 18.4801C32.4062 20.1749 33.8252 21.0091 34.8559 20.812C36.4445 20.5068 36.9517 18.9124 36.9362 17.9743C36.8899 15.0773 34.1039 12.9405 31.5001 9.22725V9.22725Z" fill="black"/>
<path d="M31.5001 78.773C28.8963 75.0598 26.1103 72.9229 26.064 70.026C26.0485 69.0879 26.5557 67.4935 28.1443 67.1883C29.175 66.9912 30.594 67.8254 30.6237 69.5202C30.6192 69.8576 30.9809 69.8488 30.9775 69.3865C30.929 68.0497 30.5058 66.4933 29.7946 65.2263C30.9316 65.2263 32.0686 65.2263 33.2056 65.2263C32.4944 66.4933 32.0712 68.0497 32.0227 69.3865C32.0193 69.8488 32.3811 69.8576 32.3766 69.5202C32.4062 67.8254 33.8252 66.9912 34.8559 67.1883C36.4445 67.4935 36.9517 69.0879 36.9362 70.026C36.8899 72.9229 34.1039 75.0598 31.5001 78.773V78.773Z" fill="black"/>
<path d="M2.20808 13.1987L2.25347 12.6244C2.39679 10.8497 2.77811 10.251 4.94107 8.39831C5.99117 7.50025 6.33552 7.05713 6.38378 6.54306C6.5213 5.33049 5.44835 4.95204 4.7495 4.94651C3.84382 4.93832 2.81912 5.48941 3.30824 6.77034L2.2919 7.0745C2.08763 5.87968 2.29782 4.75876 3.24875 4.26132C4.51872 3.61271 6.14718 3.86697 6.96941 4.88884C7.52203 5.57439 7.6483 6.52311 7.35185 7.26559C6.48574 9.16224 3.54773 9.99671 3.30533 12.1913H6.55248V10.9695H7.50933V13.2187L2.20808 13.1986V13.1987Z" fill="black"/>
<path d="M60.7915 74.8016L60.7461 75.3759C60.6028 77.1506 60.2215 77.7493 58.0585 79.602C57.0084 80.5 56.6641 80.9432 56.6158 81.4572C56.4783 82.6698 57.5512 83.0483 58.2501 83.0538C59.1558 83.062 60.1805 82.5109 59.6913 81.23L60.7077 80.9258C60.9119 82.1206 60.7018 83.2415 59.7508 83.739C58.4809 84.3876 56.8524 84.1333 56.0302 83.1115C55.4775 82.4259 55.3513 81.4772 55.6477 80.7347C56.5138 78.8381 59.4518 78.0036 59.6942 75.809H56.4471V77.0308H55.4902V74.7816L60.7915 74.8016V74.8016Z" fill="black"/>
</svg>
