<svg width="63" height="88" viewBox="0 0 63 88" fill="none" xmlns="http://www.w3.org/2000/svg">
<g clip-path="url(#clip0)">
<path d="M59.9867 0H3.01344C1.34915 0 0 1.34745 0 3.00962V84.9904C0 86.6526 1.34915 88 3.01344 88H59.9867C61.651 88 63.0001 86.6526 63.0001 84.9904V3.00962C63.0001 1.34745 61.651 0 59.9867 0Z" fill="white"/>
<path d="M46.1086 9.34462C43.3376 9.4047 42.0951 12.5205 44.1473 14.9402C44.4449 15.2931 44.4756 15.4956 43.9305 15.1566C42.5488 14.2339 39.8995 14.8405 39.7639 17.6615C39.5963 21.1375 44.4592 22.139 45.3723 18.4429C45.4205 18.0529 45.7379 18.0618 45.6613 18.6153C45.5781 20.1177 45.1083 21.5219 44.4626 22.8913C45.5509 22.8913 46.7672 22.8913 47.7568 22.8913C47.1111 21.5219 46.6413 20.1177 46.558 18.6153C46.4815 18.0618 46.7988 18.0529 46.847 18.4429C47.7601 22.139 52.6231 21.1375 52.4555 17.6615C52.3198 14.8405 49.6705 14.2339 48.2888 15.1566C47.7437 15.4956 47.7745 15.2931 48.0721 14.9402C50.1243 12.5205 48.8818 9.4047 46.1109 9.34462C46.1109 9.34459 46.1109 9.34462 46.108 9.34462H46.1086Z" fill="black"/>
<path d="M16.8893 9.34462C14.1184 9.4047 12.8759 12.5205 14.928 14.9402C15.2257 15.2931 15.2564 15.4956 14.7113 15.1566C13.3296 14.2339 10.6803 14.8405 10.5446 17.6615C10.3771 21.1375 15.24 22.139 16.1531 18.4429C16.2013 18.0529 16.5186 18.0618 16.4421 18.6153C16.3588 20.1177 15.8891 21.5219 15.2434 22.8913C16.3317 22.8913 17.548 22.8913 18.5375 22.8913C17.8919 21.5219 17.422 20.1177 17.3388 18.6153C17.2623 18.0618 17.5796 18.0529 17.6277 18.4429C18.5408 22.139 23.4038 21.1375 23.2362 17.6615C23.1006 14.8405 20.4512 14.2339 19.0695 15.1566C18.5245 15.4956 18.5552 15.2931 18.8528 14.9402C20.905 12.5205 19.6625 9.4047 16.8916 9.34462C16.8916 9.34459 16.8916 9.34462 16.8888 9.34462H16.8893Z" fill="black"/>
<path d="M46.1086 78.8902C43.3376 78.8301 42.0951 75.7143 44.1473 73.2946C44.4449 72.9417 44.4756 72.7392 43.9305 73.0782C42.5488 74.001 39.8996 73.3943 39.7639 70.5733C39.5963 67.0973 44.4592 66.0958 45.3723 69.7919C45.4205 70.1819 45.7379 70.173 45.6613 69.6195C45.5781 68.1171 45.1083 66.7129 44.4626 65.3435C45.5509 65.3435 46.7672 65.3435 47.7568 65.3435C47.1111 66.7129 46.6413 68.1171 46.558 69.6195C46.4815 70.173 46.7988 70.1819 46.847 69.7919C47.7601 66.0958 52.6231 67.0973 52.4555 70.5733C52.3198 73.3943 49.6705 74.001 48.2888 73.0782C47.7437 72.7392 47.7745 72.9417 48.0721 73.2946C50.1243 75.7143 48.8818 78.8301 46.1109 78.8902C46.1109 78.8902 46.1109 78.8902 46.108 78.8902H46.1086Z" fill="black"/>
<path d="M16.8893 78.8902C14.1184 78.8301 12.8759 75.7143 14.928 73.2946C15.2257 72.9417 15.2564 72.7392 14.7113 73.0782C13.3296 74.001 10.6803 73.3943 10.5446 70.5733C10.3771 67.0973 15.24 66.0958 16.1531 69.7919C16.2013 70.1819 16.5186 70.173 16.4421 69.6195C16.3588 68.1171 15.8891 66.7129 15.2434 65.3435C16.3317 65.3435 17.548 65.3435 18.5375 65.3435C17.8919 66.7129 17.422 68.1171 17.3388 69.6195C17.2623 70.173 17.5796 70.1819 17.6277 69.7919C18.5408 66.0958 23.4038 67.0973 23.2362 70.5733C23.1006 73.3943 20.4512 74.001 19.0695 73.0782C18.5245 72.7392 18.5552 72.9417 18.8528 73.2946C20.905 75.7143 19.6625 78.8301 16.8916 78.8902C16.8916 78.8902 16.8916 78.8902 16.8888 78.8902H16.8893Z" fill="black"/>
<path d="M31.499 23.3444C28.7281 23.4045 27.4856 26.5203 29.5377 28.9399C29.8354 29.2929 29.8661 29.4954 29.3209 29.1564C27.9393 28.2336 25.29 28.8402 25.1543 31.6613C24.9867 35.1373 29.8497 36.1388 30.7627 32.4426C30.811 32.0527 31.1283 32.0616 31.0518 32.6151C30.9685 34.1175 30.4987 35.5217 29.853 36.8911C30.9413 36.8911 32.1577 36.8911 33.1472 36.8911C32.5015 35.5217 32.0317 34.1175 31.9484 32.6151C31.8719 32.0616 32.1892 32.0527 32.2374 32.4426C33.1505 36.1388 38.0135 35.1373 37.8459 31.6613C37.7102 28.8402 35.0609 28.2336 33.6792 29.1564C33.1341 29.4954 33.1649 29.2929 33.4625 28.9399C35.5147 26.5203 34.2721 23.4045 31.5012 23.3444C31.5012 23.3444 31.5012 23.3444 31.4984 23.3444H31.499Z" fill="black"/>
<path d="M46.1086 37.3441C43.3376 37.4042 42.0951 40.52 44.1473 42.9396C44.4449 43.2926 44.4756 43.4951 43.9305 43.1561C42.5488 42.2333 39.8995 42.8399 39.7639 45.661C39.5963 49.137 44.4592 50.1385 45.3723 46.4423C45.4205 46.0524 45.7378 46.0613 45.6613 46.6148C45.5781 48.1172 45.1083 49.5214 44.4626 50.8908C45.5509 50.8908 46.7672 50.8908 47.7568 50.8908C47.1111 49.5214 46.6413 48.1172 46.558 46.6148C46.4815 46.0613 46.7988 46.0524 46.847 46.4423C47.7601 50.1385 52.6231 49.137 52.4555 45.661C52.3198 42.8399 49.6705 42.2333 48.2888 43.1561C47.7437 43.4951 47.7745 43.2926 48.0721 42.9396C50.1243 40.52 48.8818 37.4042 46.1109 37.3441C46.1109 37.3441 46.1109 37.3441 46.108 37.3441H46.1086Z" fill="black"/>
<path d="M16.8893 37.3441C14.1184 37.4042 12.8759 40.52 14.928 42.9396C15.2257 43.2926 15.2564 43.4951 14.7113 43.1561C13.3296 42.2333 10.6803 42.8399 10.5446 45.661C10.3771 49.137 15.24 50.1385 16.1531 46.4423C16.2013 46.0524 16.5186 46.0613 16.4421 46.6148C16.3588 48.1172 15.8891 49.5214 15.2434 50.8908C16.3317 50.8908 17.548 50.8908 18.5375 50.8908C17.8919 49.5214 17.4221 48.1172 17.3388 46.6148C17.2623 46.0613 17.5796 46.0524 17.6277 46.4423C18.5408 50.1385 23.4038 49.137 23.2362 45.661C23.1006 42.8399 20.4512 42.2333 19.0695 43.1561C18.5245 43.4951 18.5552 43.2926 18.8528 42.9396C20.905 40.52 19.6625 37.4042 16.8916 37.3441C16.8916 37.3441 16.8916 37.3441 16.8888 37.3441H16.8893Z" fill="black"/>
<path d="M31.499 64.8905C28.7281 64.8304 27.4855 61.7145 29.5377 59.2949C29.8354 58.942 29.866 58.7395 29.3209 59.0785C27.9393 60.0013 25.29 59.3946 25.1543 56.5736C24.9867 53.0976 29.8497 52.0961 30.7627 55.7922C30.811 56.1822 31.1283 56.1733 31.0518 55.6198C30.9685 54.1174 30.4988 52.7132 29.853 51.3438C30.9414 51.3438 32.1577 51.3438 33.1472 51.3438C32.5015 52.7132 32.0317 54.1174 31.9484 55.6198C31.8719 56.1733 32.1892 56.1822 32.2374 55.7922C33.1505 52.0961 38.0135 53.0976 37.8459 56.5736C37.7102 59.3946 35.0609 60.0013 33.6792 59.0785C33.1341 58.7395 33.1649 58.942 33.4625 59.2949C35.5147 61.7145 34.2722 64.8304 31.5013 64.8905C31.5013 64.8905 31.5013 64.8905 31.4985 64.8905H31.499Z" fill="black"/>
<path d="M58.1417 73.8965C59.2501 73.8715 59.7472 72.5732 58.9263 71.565C58.8072 71.418 58.7949 71.3336 59.013 71.4749C59.5656 71.8593 60.6254 71.6066 60.6796 70.4311C60.7467 68.9828 58.8014 68.5655 58.4362 70.1056C58.4169 70.2681 58.29 70.2644 58.3206 70.0337C58.3539 69.4077 58.5418 68.8226 58.8001 68.2521C58.3609 68.2521 57.9217 68.2521 57.4826 68.2521C57.7408 68.8226 57.9287 69.4077 57.9621 70.0337C57.9927 70.2644 57.8657 70.2681 57.8464 70.1056C57.4812 68.5655 55.5361 68.9828 55.6031 70.4311C55.6573 71.6066 56.717 71.8593 57.2697 71.4749C57.4877 71.3336 57.4755 71.418 57.3564 71.565C56.5355 72.5732 57.0325 73.8715 58.1409 73.8965C58.1409 73.8965 58.1409 73.8965 58.1409 73.8965H58.1417Z" fill="black"/>
<path d="M4.8588 14.1036C3.75042 14.1285 3.25343 15.4269 4.07429 16.4351C4.19336 16.5821 4.20557 16.6665 3.98757 16.5253C3.43486 16.1408 2.37519 16.3936 2.3209 17.569C2.25389 19.0173 4.19902 19.4346 4.56424 17.8946C4.58351 17.7321 4.71053 17.7358 4.67989 17.9664C4.64658 18.5924 4.45868 19.1775 4.2004 19.7481C4.6396 19.7481 5.07883 19.7481 5.51803 19.7481C5.25975 19.1775 5.07178 18.5924 5.03847 17.9664C5.00788 17.7358 5.13484 17.7321 5.15412 17.8946C5.51934 19.4346 7.4645 19.0173 7.39745 17.569C7.34319 16.3936 6.28354 16.1408 5.73086 16.5253C5.51283 16.6665 5.5251 16.5821 5.64413 16.4351C6.46503 15.4269 5.96795 14.1287 4.85963 14.1036H4.8588Z" fill="black"/>
<path d="M1.83342 10.4907C1.87768 9.2404 2.32979 8.77143 3.21986 8.11726C2.50975 7.60505 2.21044 6.84999 2.27139 6.20732C2.41761 4.65105 3.61932 3.87312 4.93068 3.90639C6.24309 3.94113 7.37266 4.98145 7.46082 6.11235C7.53739 7.0954 7.24527 7.56996 6.54786 8.08698C7.37553 8.78586 7.90426 9.24485 7.88467 10.4763C7.86511 11.7077 6.81752 13.173 4.99166 13.2177C3.16582 13.2624 1.78807 11.7409 1.83342 10.4907V10.4907ZM6.93039 10.4952C7.00838 9.36319 6.00764 8.59967 4.87808 8.58858C3.77829 8.57668 2.79456 9.51545 2.79456 10.5318C2.79456 11.6231 4.07436 12.2163 4.90092 12.2189C5.90569 12.2234 6.8625 11.4698 6.93039 10.4952ZM6.56897 6.44583C6.59052 5.49344 5.71154 4.81009 4.80444 4.83744C3.99783 4.86207 3.14476 5.47718 3.14331 6.27396C3.14331 7.27144 4.1143 7.7696 4.94342 7.78882C5.69596 7.80581 6.55191 7.16611 6.56897 6.44583V6.44583Z" fill="black"/>
<path d="M55.1155 77.5095C55.1598 78.7597 55.6119 79.2287 56.502 79.8829C55.7919 80.3951 55.4924 81.1501 55.5534 81.7928C55.6997 83.3491 56.9015 84.127 58.2128 84.0938C59.5252 84.059 60.6548 83.0187 60.7429 81.8878C60.8195 80.9047 60.5273 80.4302 59.83 79.9132C60.6576 79.2143 61.1863 78.7553 61.1667 77.5239C61.1471 76.2925 60.0996 74.8271 58.2737 74.7824C56.4478 74.7377 55.0701 76.2592 55.1155 77.5095ZM60.2124 77.505C60.2904 78.637 59.2897 79.4005 58.1602 79.4116C57.0604 79.4235 56.0767 78.4847 56.0767 77.4684C56.0767 76.377 57.3565 75.7839 58.183 75.7813C59.1878 75.7768 60.1446 76.5304 60.2124 77.505V77.505ZM59.851 81.5544C59.8726 82.5067 58.9936 83.1901 58.0865 83.1627C57.2799 83.1379 56.4268 82.523 56.4253 81.7262C56.4253 80.7287 57.3963 80.2306 58.2255 80.2113C58.978 80.1944 59.834 80.8341 59.851 81.5544V81.5544Z" fill="black"/>
</g>
<defs>
<clipPath id="clip0">
<rect width="63.0001" height="88" fill="white"/>
</clipPath>
</defs>
</svg>
