<svg width="63" height="88" viewBox="0 0 63 88" fill="none" xmlns="http://www.w3.org/2000/svg">
<g clip-path="url(#clip0)">
<path d="M59.9867 0H3.01343C1.34914 0 0 1.34746 0 3.00963V84.9907C0 86.6528 1.34914 88.0003 3.01343 88.0003H59.9867C61.651 88.0003 63.0002 86.6528 63.0002 84.9907V3.00963C63.0002 1.34746 61.651 0 59.9867 0Z" fill="white"/>
<path d="M39.638 7.42028C39.638 7.42028 46.7934 17.7885 49.2202 19.6287C49.3986 19.7126 52.3905 19.1397 52.3905 19.1397C50.857 15.4595 49.8706 11.652 50.8657 7.38332L39.638 7.42028ZM43.614 23.818C38.6811 25.2137 33.7574 26.5263 28.4097 24.2511L22.5695 29.9075C22.521 30.0534 29.6248 33.1298 29.7445 32.7698C26.2619 42.1657 31.6917 43.8716 35.1486 33.5362C39.6738 32.9421 45.1024 32.3269 49.5891 29.2045C45.7054 26.8645 43.61 23.7901 43.614 23.818V23.818ZM13.9439 25.4906C12.0742 24.3404 10.6129 26.7075 11.9819 27.8895C11.821 28.58 11.7664 29.6077 12.4328 30.0592C13.0451 30.4472 14.1872 30.0448 14.3521 30.049C14.364 30.0493 14.3817 31.2919 14.2865 31.2887C14.1094 31.2827 13.4409 30.7119 13.0285 30.5879C11.635 30.1691 9.65836 29.8961 9.69301 29.9682C9.75115 30.0891 9.36251 30.4419 10.9175 31.4207C11.4951 31.7843 13.3199 31.3748 14.7733 31.8344C15.6588 32.1144 16.4542 32.5611 16.935 32.3292C18.2028 31.9819 18.6984 30.3215 18.6116 30.3337C18.5692 30.2835 14.7779 31.3116 15.1345 31.4919L15.1229 30.0503C16.6183 30.2153 17.968 29.1289 16.4983 27.2663C17.5928 26.1757 16.0619 23.5765 13.9439 25.4906H13.9439ZM20.1738 32.0843C16.4961 35.8007 8.97864 42.7755 8.97864 42.7755L9.05912 47.981L16.4032 54.5691C16.985 47.5755 20.9495 41.0484 24.7244 37.7831C25.0711 36.7901 20.9732 32.4327 20.1738 32.0843ZM46.3768 33.3699C45.8227 37.6702 45.3191 43.5345 38.0417 50.0531C39.3027 52.206 40.9078 54.3973 43.2178 55.4431C43.3818 55.813 49.8946 48.6871 53.9013 45.318L53.8801 40.7544L46.3768 33.3699ZM13.5777 34.293C13.5625 34.3867 13.2939 35.5162 13.2246 35.4863C13.23 35.5478 13.9699 35.2109 14.0535 34.9011C14.1268 34.6296 14.2964 34.2616 14.3075 34.2096C14.1407 33.0469 13.8253 33.8727 13.5777 34.293V34.293ZM10.8534 37.2994C10.589 37.9394 10.3416 39.115 10.4329 39.8802C11.7358 40.5339 12.0899 37.8144 11.7395 37.5544C11.5296 37.4655 11.0321 37.2931 10.8534 37.2994V37.2994ZM51.0911 49.7686C50.9702 50.311 50.9958 50.4719 51.2366 50.5777C51.6582 50.7631 51.8479 50.5392 52.1865 49.656C52.3881 49.1303 52.5677 48.3392 52.4051 48.0246C51.6059 47.4656 51.1836 49.359 51.0911 49.7686ZM28.3042 54.3322C22.9568 55.1814 17.6058 55.7055 13.3592 59.0263C13.8377 58.9701 18.9846 63.8154 19.2509 64.4969C27.1165 60.6453 34.7561 63.5546 34.7561 63.5546L40.5125 57.9931C40.7343 57.8878 34.2517 55.2108 33.0304 54.7596C37.4452 42.8466 30.4536 44.6369 28.3042 54.3322V54.3322ZM49.3541 52.9721C49.0045 53.2547 48.8286 53.5109 48.5562 53.8775L48.8308 54.3226L49.5344 53.5446L49.3541 52.9721ZM44.3167 57.9845C45.0579 57.6493 47.689 56.3707 47.802 56.6662L47.7462 57.9462C47.3437 57.8142 44.7459 58.2446 46.2483 60.9328C45.3021 63.0683 47.4106 64.1696 48.8876 62.7576C51.9831 63.8223 51.5687 60.7173 50.93 60.2155C51.4334 59.4317 50.8007 57.7627 50.4858 57.7569C50.4858 57.7569 53.1871 58.3674 52.923 57.8853C52.8024 57.6652 52.6515 57.2858 52.0512 56.884C51.3593 56.4209 50.1439 56.589 49.1601 56.3827C48.1084 56.1621 47.4312 55.785 46.5474 55.7318C45.2133 55.8537 43.9681 57.0277 44.3167 57.9845V57.9845ZM14.2131 68.0624L10.4912 69.0596C12.045 72.8997 12.6594 76.43 12.2141 80.7338L23.0164 80.7886L14.2131 68.0624Z" fill="#FFCD00"/>
<path d="M23.9128 80.7505C19.1731 73.9689 14.7813 67.518 8.9505 60.4081C8.9505 60.4081 8.95532 57.6602 8.97593 54.9348L26.8888 80.6837L23.9128 80.7505ZM33.5082 69.801C33.3555 68.5129 33.0938 66.9716 32.7175 65.6449L35.9882 62.5535C35.6352 65.316 35.0934 67.4354 33.5082 69.801V69.801ZM49.1394 60.0574C49.8713 61.032 48.6362 61.573 48.1697 61.1393C47.2241 60.2599 48.6092 59.3514 49.1394 60.0574ZM16.71 53.9198C16.1673 54.2684 17.6853 45.4211 21.8521 40.8487C24.3865 48.1263 19.9148 52.2066 16.71 53.9198ZM37.2667 53.887L34.4993 53.1382L35.8023 49.2584C35.8023 49.2584 38.4756 49.8687 38.254 50.6743C37.5326 53.297 37.2667 53.887 37.2667 53.887V53.887ZM24.4558 52.3956C25.2051 51.1606 25.774 49.799 26.2978 48.4056L29.0701 48.3477L27.677 52.1928L24.4558 52.3956ZM41.1346 46.9511C38.9928 42.676 41.516 35.9094 46.1762 34.0469C46.0083 38.3823 44.6664 42.7737 41.1346 46.9511ZM26.7393 45.7364C26.8336 44.2179 26.6601 42.6267 26.4506 41.2164C29.4047 41.8988 32.6247 42.3555 36.1914 42.5181L36.5318 46.6111C33.3642 46.0293 30.1412 45.6138 26.7393 45.7364ZM33.8147 39.4996C34.13 38.2304 34.5341 36.988 35.0849 35.7897L38.4601 35.6321C38.4426 35.5661 37.0201 37.8836 36.6793 39.5565C36.1419 39.4994 33.8147 39.4996 33.8147 39.4996V39.4996ZM27.4154 38.4878C26.4303 38.1393 25.0834 38.042 24.5595 37.2782L25.5842 34.023L28.6192 34.9563L27.4154 38.4878ZM35.9327 7.42785L38.3112 7.40509C38.3112 7.40509 49.7396 22.0643 54.023 27.7689C53.8802 28.3496 54.0708 33.2704 54.0708 33.2704C48.0037 24.7111 35.9327 7.42785 35.9327 7.42785V7.42785ZM13.8645 28.1031C12.8506 27.0794 14.4333 26.2682 15.0111 27.0466C15.4782 27.6759 14.4838 28.7284 13.8645 28.1031ZM26.8404 25.4781C26.8773 22.081 29.2803 18.0494 29.2553 18.1525C29.2274 18.1458 29.5978 21.4734 30.0596 22.5205C29.935 22.705 26.954 25.691 26.8404 25.4781V25.4781Z" fill="#C8102E"/>
<path d="M8.46191 6.86583V81.134H54.5399V6.86583H8.46191ZM9.03602 7.42987H29.3088C29.3088 7.42987 29.3301 7.72187 29.2818 8.9841C29.1942 11.5494 29.0864 14.237 29.2543 16.8522C29.2826 17.7573 29.2642 18.6509 29.394 19.5464C29.5203 20.4189 29.576 21.3597 29.9826 22.1723C30.146 22.6127 30.1516 22.5788 29.5289 23.1557C29.2235 23.4387 28.9637 23.7397 28.9751 23.7929C28.9788 23.8105 28.9612 23.8771 29.0083 23.8395C29.0395 23.8145 29.2651 23.5907 29.2901 23.5611C29.4588 23.3617 29.7411 23.6175 30.7041 23.8898C30.893 23.9432 31.1593 24.1215 31.3629 24.2693C32.8023 25.4853 34.8278 25.1061 36.3419 24.443C36.7716 24.2547 36.8769 24.2352 37.5675 24.1532C40.1247 23.8492 42.857 22.7292 42.8512 22.7327L43.185 23.2806C43.185 23.2806 43.3104 23.2573 43.3999 23.3952C44.8707 26.18 49.6727 29.3624 49.5874 29.215L46.449 30.9569C46.6898 31.2553 46.9693 31.5787 47.2665 31.9129L47.3153 31.9243L47.3344 31.9902C49.864 34.8186 53.9891 38.5892 53.9891 38.5892V45.4904C52.5863 46.6153 51.2023 47.9048 49.9688 49.1639C49.6141 49.5159 49.3638 49.7167 49.4985 49.7233C49.8187 49.6744 50.095 49.9911 50.3555 50.2107C50.5206 50.3951 50.481 50.3781 50.2907 50.63C50.1569 50.807 50.1074 50.8582 50.1069 50.9862C50.1117 51.2338 50.1104 51.3998 49.8904 51.5855C49.7539 51.7573 49.6758 51.8676 49.6511 52.0713C49.6267 52.2746 49.628 52.4051 49.4887 52.585C49.2523 52.6354 49.23 52.9802 49.2717 53.1345C49.5192 53.3807 49.4059 53.6472 49.429 53.5913C48.9562 54.1057 48.4601 54.5516 48.777 53.8323C48.9199 53.5646 48.9696 53.3424 48.9696 53.3424C48.9696 53.3424 48.742 53.5787 48.6228 53.6903C48.4406 53.8595 48.3739 53.7603 48.3685 53.2351C48.3451 52.8377 48.1779 52.2829 48.1115 52.177C48.0744 52.1178 48.0684 52.2205 48.0855 52.6031C48.1083 53.1065 48.1678 53.2525 47.991 53.7551C47.7522 54.434 47.5823 54.5302 47.9703 54.5068C48.3377 54.4845 48.6483 54.4803 48.8091 54.7002C48.8633 54.7743 48.9332 54.9012 49.0816 54.976C49.3839 55.1416 49.6242 55.3258 49.7922 55.5089C50.3357 56.1014 50.1802 56.6307 49.1294 56.2715C48.5761 56.0825 48.938 55.8442 49.5327 55.8993C49.898 55.9336 49.9599 55.7982 49.6438 55.7013C49.0556 55.5922 48.9607 55.5262 48.5729 55.9885C46.9442 55.8269 46.0297 54.914 45.5903 54.1704C45.4065 53.8594 45.3522 53.7772 45.4802 53.6011C44.8116 53.8285 43.9884 54.9665 43.4153 55.4975C41.7304 54.539 39.6496 52.8106 38.4601 50.8467C37.8688 51.959 37.1738 53.9833 37.1738 53.9832L34.5296 53.2429L34.4985 53.2984L37.1121 54.0532L36.8572 54.9278C36.8296 55.0223 36.4253 56.0175 36.4253 56.0175L40.5079 57.9274C40.1547 58.5469 39.5275 58.758 39.4246 59.4298L45.0847 54.0169C45.0847 54.0169 45.8149 55.1025 46.0865 55.3487C46.3412 55.5796 46.4205 55.6354 46.1234 55.7044C44.7934 55.8998 43.7613 56.9097 44.1212 58.2638C44.1794 58.4145 44.2962 58.359 44.5485 58.2001C45.4315 57.3984 47.5898 56.656 47.6635 56.8444L47.6722 57.7065C45.3486 57.7402 45.5867 59.4527 45.7568 60.3712C45.7568 60.3911 45.0846 60.9804 45.0846 60.9804C45.3223 61.1053 45.5549 61.2344 45.7745 61.3884C45.5703 62.5308 46.5415 64.1863 48.4488 63.3387C48.6137 63.5082 48.7694 63.6789 48.9513 63.8918C49.1464 63.6653 49.3712 63.1313 49.3712 63.1313C50.3186 63.561 52.2848 62.599 51.2794 60.3956L51.8332 59.8658L51.3012 59.5293C51.2873 58.9691 51.2009 58.4688 50.8672 57.9808C50.8672 57.9808 51.7616 58.2092 52.4234 58.2478C52.8321 58.2848 53.1767 58.2953 53.1423 58.0476C53.1322 57.9747 53.0712 57.6181 53.0313 57.5012C52.8339 56.924 51.8098 56.5001 50.8153 56.4442C50.6531 56.4351 50.4783 56.4402 50.4436 56.398C50.3786 56.3188 50.4951 56.2062 50.6019 56.2249C51.1465 56.3198 51.6703 55.9165 51.7647 55.4032C51.7833 55.3132 51.8947 55.1481 52.0544 54.9729C52.3377 54.6619 52.3603 54.6705 52.3549 54.2212C52.3512 53.9093 52.4055 53.8398 52.549 53.6307C52.7342 53.3326 52.8202 52.9439 52.7271 52.5415C52.6976 52.414 52.5772 52.2335 52.6798 51.9157C52.8468 51.3989 52.4799 50.9258 51.9988 50.6565C51.7183 50.8566 51.2957 50.6975 50.9721 50.5445C50.8624 50.4905 51.3441 47.6864 52.3414 47.9369C52.5072 48.0377 52.5771 48.5249 52.5646 48.5335C52.6105 48.5335 52.6351 48.2468 52.5705 48.0561C52.5029 47.8563 52.3483 47.6659 52.0508 47.7222C51.8202 47.7659 51.5537 48.0727 51.4332 48.2267C50.9673 48.8218 50.9623 49.2021 50.8066 49.8353C50.7318 50.1346 50.7236 50.117 50.3104 49.7933C50.0138 49.561 49.8697 49.4868 49.9729 49.3506C50.0193 49.2894 50.2118 49.096 50.2118 49.096L53.9886 45.6133V80.6058L33.4059 80.6058L33.5486 76.0068C33.9317 72.8556 33.2582 66.238 32.7482 65.6156C33.1415 65.1726 34.3619 64.1043 34.2946 64.0562L34.1326 63.9603L33.4874 64.5554L31.8938 64.0717C31.2141 63.6011 30.5204 63.1656 29.8009 62.9804C28.6258 62.6781 26.3629 63.6418 26.3609 63.6518C22.7455 63.9202 19.85 65.3914 19.8905 65.3802C19.733 65.2353 19.5248 64.773 19.5193 64.7757C17.6557 62.1758 15.8235 60.7191 13.3205 58.9419L16.491 57.1865L8.97779 49.3174L8.91189 42.9279L19.795 32.4972C19.8591 32.3171 23.2674 34.9102 24.5363 37.0204C24.7796 35.9889 25.2327 35.0523 25.6103 34.0395C25.6498 33.9468 27.776 34.827 28.4066 34.8643C28.5009 34.8699 28.5769 34.7705 28.5769 34.7705L25.7712 33.856L26.3448 32.2084C26.3448 32.2084 26.5445 31.7611 26.3188 31.6869C25.0398 31.2722 23.8398 30.5408 22.6166 29.918C22.6166 29.918 23.1879 29.2816 23.1965 29.2534C23.2047 29.2269 23.4359 28.8849 23.3807 28.7671C22.7585 29.3723 17.6807 34.0934 17.6807 34.0934C17.5363 33.2832 17.3095 32.9997 16.8159 32.4998C17.0849 32.4868 17.5059 32.2202 17.7492 32.0425C18.4933 31.4991 18.8983 30.5297 18.8009 29.9631C18.0865 30.1909 17.4412 30.4577 16.5465 30.6205C16.0437 30.712 15.5671 30.9398 15.2778 31.184L15.2332 30.2799C15.2361 30.2902 16.4372 30.4914 16.9939 29.6827C17.4737 28.9857 17.2769 28.1878 17.1668 27.7811C17.1793 27.6908 17.1524 27.701 17.3594 27.5099C17.5121 27.3689 17.7502 27.1864 17.7502 27.1864C17.7603 27.1351 17.1297 26.9008 17.023 26.6867C17.191 25.0112 15.8553 24.3646 14.725 24.6623C14.5138 24.7261 14.413 24.766 14.1618 24.4855C14.1244 24.4437 13.8228 24.1241 13.8228 24.1241C13.8228 24.1241 13.6901 24.4321 13.622 24.5669C13.4003 25.005 13.3394 24.8731 12.8615 24.8966C11.6509 24.9561 11.1105 25.9359 11.3883 27.1388C11.4536 27.4211 11.4243 27.3774 11.2394 27.7344C11.1449 27.9168 10.9907 28.1497 10.9907 28.1497C10.9907 28.1497 11.2128 28.2729 11.3624 28.34C11.584 28.4393 11.5958 28.5555 11.5949 28.777C11.6259 29.2651 11.7323 29.5921 12.0123 30.0113C11.064 30.0332 10.3368 29.9442 9.47812 29.6583C9.60951 30.982 10.5829 31.4748 11.7751 31.6687C11.7751 31.6687 11.6497 31.7861 11.5181 31.8383C11.2392 31.9193 11.065 32.1647 11.0676 32.3847C11.0274 32.5947 10.8914 32.8059 10.7665 32.9181C10.5809 33.0792 10.4287 33.3061 10.5018 33.745C10.4831 34.0631 10.4065 34.155 10.3133 34.2764C10.1263 34.5203 10.0627 34.7625 10.1093 35.0831C10.1311 35.2322 10.1774 35.5519 10.1467 35.882C10.0954 36.4321 10.2917 36.6383 10.5412 37.0256C10.7029 37.2765 10.6689 37.2832 10.6315 37.4652C10.5417 37.9024 10.4482 38.127 10.3512 38.4596C10.1343 39.2035 10.1261 39.7675 10.3035 39.9127C10.5708 40.1315 10.8733 40.0656 11.0141 40.0221C12.0688 39.6957 11.8861 38.6576 11.9417 37.9608C11.9718 37.7817 12.033 37.6958 12.0922 37.7042C12.3904 38.0541 12.7058 38.2561 13.1117 38.4767C11.708 39.9088 10.8092 40.7854 9.03482 42.3477L9.03602 7.42987ZM29.6192 7.42987H30.4659C30.2872 7.76344 29.6204 8.80496 29.5601 8.52582L29.6192 7.42987ZM30.7955 7.42987H31.2891C30.8073 8.5759 30.1328 9.26885 29.4936 9.96288L29.5154 9.22569C29.5351 9.27189 30.4728 8.195 30.7955 7.42987ZM31.6452 7.42987H32.1327C32.1327 7.42987 32.1467 7.65986 32.0885 7.82076C31.7192 9.01572 29.4272 11.2841 29.4931 10.9443L29.4697 10.359C29.4596 10.3841 31.1916 8.67156 31.6452 7.42987H31.6452ZM32.481 7.42987H33.0135C34.7557 10.4649 37.8739 11.5271 38.6586 11.7317L39.1148 12.3995C35.4382 11.6772 33.4693 9.31141 32.5448 7.84824C32.4729 7.73441 32.481 7.42987 32.481 7.42987V7.42987ZM33.3847 7.42987H33.9474C35.1133 9.37112 37.2051 10.4395 37.9293 10.6653C38.1224 10.8788 38.3311 11.269 38.412 11.3554C36.4594 10.8252 34.2719 9.13635 33.3847 7.42987ZM34.2396 7.42987H34.7535C35.3745 8.32814 36.3476 8.98401 36.8958 9.41387C37.1905 9.6455 37.5794 10.1183 37.5431 10.2122C36.3224 9.82552 34.8948 8.43491 34.2396 7.42987V7.42987ZM35.0255 7.42987H35.7024C35.9913 7.84899 36.2536 8.18947 36.5573 8.61809C36.6139 8.69981 36.6484 8.79648 36.6341 8.83324C36.588 8.95229 36.4508 8.86398 36.0715 8.52685C35.4491 7.97386 35.0255 7.42987 35.0255 7.42987ZM35.9168 7.42987H50.6639C50.2891 11.5423 50.2236 14.7225 52.352 18.9876C51.9675 19.3918 49.0711 19.5064 48.1583 19.985C48.1416 20.0999 48.393 20.2987 48.393 20.2987C49.3479 19.8545 53.0715 19.449 53.0715 19.449C51.5121 16.7242 50.2287 11.4493 51.1944 7.42987H53.9892V27.2756C53.9892 27.2756 54.0222 31.048 54.1018 33.2017C52.6709 31.3479 50.8276 28.8088 49.5884 26.8868C48.085 24.7667 46.4115 22.2794 44.6929 19.9462C44.1862 19.211 43.4641 18.2574 42.8746 17.3986C41.9491 16.0723 41.1835 15.0429 40.2236 13.6152C39.1986 12.1369 38.2159 10.7955 36.9975 9.07897C35.9648 7.618 35.9168 7.42987 35.9168 7.42987V7.42987ZM32.3605 8.01154L32.6995 8.55329C31.8775 9.91205 30.8466 11.136 29.4718 12.1009L29.4647 11.3911C31.0248 10.2649 31.699 9.13292 32.3606 8.01154H32.3605ZM32.9092 8.79643C33.8893 10.1199 36.0012 12.1679 39.3884 12.78C39.3884 12.78 39.5807 12.9543 39.8613 13.3373C40.2173 13.8231 40.2228 13.8423 40.2698 14.6385C40.3013 16.0957 40.7736 18.0736 41.2426 19.3178C41.1845 19.6272 41.1304 19.7846 40.5486 20.5724C38.1241 23.8552 32.9591 26.9602 30.4145 22.7223C29.5659 21.3646 29.4831 18.7615 29.4293 17.1384C29.4293 17.1384 29.4455 17.0241 29.4516 16.9932C29.5129 16.6986 29.5969 16.7452 30.0563 16.8714C30.522 17.0718 31.0071 16.9099 31.4999 16.7755C32.0611 16.5483 32.1075 16.7233 31.5664 17.2296C31.3792 17.4047 31.1504 17.6723 31.1745 17.6594C31.1984 17.6465 31.5133 17.5178 31.6525 17.4116C32.0849 17.0816 32.187 17.2081 32.0268 17.5713C31.3469 19.1119 31.2262 19.1729 32.1825 19.6009C32.3818 19.6901 32.5176 19.7897 32.6294 19.8876C33.2833 20.5044 33.0484 20.1723 32.8656 19.8892C32.5843 19.4459 32.8386 19.2119 33.3136 19.4863C33.6309 19.6698 34.0477 19.8173 34.2744 19.7471C34.7144 19.6035 34.8488 19.1206 34.7182 18.589C34.6138 18.2949 34.0127 17.7752 34.1514 18.3189C34.5127 18.3026 34.8246 18.8167 34.5106 19.1644C34.2736 19.4847 33.8511 19.3114 33.203 18.8819C32.8449 18.612 32.4101 18.7501 32.427 19.082C32.4384 19.3048 32.1234 19.2534 31.9188 18.9695C31.8053 18.8118 31.8824 18.358 32.0958 17.928C33.4394 15.2201 32.3069 12.5945 29.98 13.3347C29.7242 13.4161 29.4931 13.482 29.4931 13.482L29.4806 12.4462C30.8166 11.5129 32.2335 10.0247 32.9087 8.79646L32.9092 8.79643ZM36.0886 12.9998C35.3919 12.9771 34.7372 13.157 34.2692 13.6577C33.9184 14.0822 34.0424 14.4602 34.8127 14.0797C35.4399 13.7698 35.527 13.7333 36.2106 13.7085C37.1808 13.6733 38.0518 13.9826 39.1294 14.6453C39.8436 15.0845 39.9477 15.118 39.7538 14.8428C39.3572 14.0819 37.6213 13.0498 36.0886 12.9998V12.9998ZM30.4238 13.7354C30.6093 13.7352 30.8112 13.7449 30.9741 13.7847C31.6474 13.9547 32.294 14.4004 32.1814 14.5851C32.141 14.6516 32.1016 14.6642 32.0159 14.6194C31.5233 14.3754 30.7383 13.9767 29.6032 14.4633C29.478 14.517 29.4084 14.4336 29.409 14.2824C29.409 13.9888 29.9031 13.7544 30.4238 13.7354V13.7354ZM36.5257 14.1258C36.0213 14.1201 35.487 14.2903 34.8859 14.6432C34.4845 14.8523 34.3469 14.9637 34.1763 14.8703C33.7689 14.6471 33.8548 14.8221 34.1078 15.2715C34.2863 15.5887 34.2848 15.6537 34.2583 15.848C34.2295 16.0592 34.2336 16.0676 34.4384 16.2933C34.8215 16.798 35.2026 17.2849 35.7761 17.6677C35.9549 17.787 36.1941 17.9227 36.2121 17.9233C36.2692 17.9251 36.2474 17.8791 36.1452 17.7791C35.4106 17.0708 34.8314 16.4364 35.5794 16.706C36.4503 16.9907 37.2786 16.6358 37.9578 16.4043C38.2347 16.3187 38.5257 16.2466 38.5978 16.2467C39.2251 16.2472 39.3733 15.9853 38.9721 15.5862C38.124 14.6328 37.3662 14.1353 36.5257 14.1258V14.1258ZM36.5328 14.3062C37.0633 14.3135 37.6277 14.5093 38.1057 14.9289C38.3863 15.1886 38.5339 15.3299 38.5059 15.3975C38.4758 15.4701 38.26 15.3473 37.8981 15.1539C37.1699 14.7647 36.3445 14.6728 35.313 14.9714C34.5122 15.2032 34.7487 14.8353 35.6411 14.4892C35.909 14.3654 36.2146 14.3019 36.5328 14.3062ZM30.6283 14.4037C31.2399 14.3939 31.8768 14.5949 32.3028 14.9631C32.6 15.2199 32.383 15.28 31.9 15.0797C31.1694 14.7768 30.5534 14.7284 29.954 15.0097C29.7658 15.098 29.5488 15.2031 29.4894 15.1974C29.3892 15.1294 29.3465 14.9318 29.4333 14.792C29.6743 14.5549 30.1525 14.4113 30.6283 14.4037ZM40.7099 14.6142C40.7548 14.616 40.8227 14.6873 40.9233 14.8288C41.1063 15.0863 41.1128 15.2136 40.9611 15.6645C40.7759 16.215 40.702 16.1256 40.6554 15.3576C40.6252 14.8593 40.6242 14.6105 40.7099 14.6142V14.6142ZM41.3167 15.4442C41.3865 15.4342 41.4678 15.5572 41.598 15.8122C41.689 15.9902 41.6676 16.0435 41.3837 16.8766C41.2649 17.2252 41.1531 17.503 41.1501 17.5054C41.0627 17.5744 41.0737 17.5683 41.0364 17.5204C40.8339 17.2611 40.8487 16.7553 41.0228 16.1492C41.1549 15.6899 41.2269 15.4569 41.3166 15.4442L41.3167 15.4442ZM35.8046 15.5069C35.8266 15.505 35.9624 15.5349 35.9624 15.5349C35.9483 16.7688 36.9005 16.5202 37.0265 15.6438C37.0265 15.6438 37.261 15.6196 37.2969 15.678C37.4097 15.8615 37.1479 16.3897 36.7561 16.5624C36.4701 16.6903 36.0814 16.659 35.8492 16.4447C35.7843 16.324 35.5878 15.8655 35.6245 15.6754C35.6702 15.5644 35.7385 15.5126 35.8046 15.5069V15.5069ZM31.4588 15.6464C31.5345 15.6513 31.5662 15.6854 31.5787 15.7863C31.6273 16.1936 31.2207 16.6363 30.6937 16.6604C30.1837 16.7176 29.9082 16.3213 29.9239 15.9346C29.9239 15.6406 30.1777 15.6037 30.2057 15.8361C30.2866 16.5071 30.8586 16.5457 31.1198 16.1751C31.2187 16.0299 31.1961 15.6723 31.3675 15.65C31.4034 15.6465 31.4335 15.6447 31.4588 15.6464V15.6464ZM35.2377 15.651C35.2476 15.6505 35.2566 15.6505 35.2663 15.651C35.3597 15.6558 35.4277 15.6812 35.4646 15.7946L35.6686 16.4214C35.5185 16.6012 34.948 16.2371 34.9491 15.9636C34.9491 15.7748 35.0918 15.6582 35.2377 15.651ZM37.6302 15.7863C37.6708 15.7847 37.7251 15.7999 37.8051 15.8273C38.3312 15.9956 38.3454 16.0774 37.8955 16.2399C37.3588 16.4337 37.3241 16.4587 37.45 16.0834C37.5203 15.874 37.5408 15.79 37.6302 15.7863V15.7863ZM32.0537 15.8454C32.4436 15.8696 32.4766 16.2005 32.1336 16.311C31.6229 16.5369 31.4504 16.522 31.6482 16.1886C31.7556 15.9525 31.8517 15.8499 32.0537 15.8454ZM29.614 15.9647C29.6604 15.9644 29.7137 15.9822 29.7708 16.0248C29.8294 16.2022 29.9285 16.3386 30.0069 16.522C29.9268 16.6016 29.7357 16.6006 29.614 16.5038C29.3699 16.3098 29.4115 15.9672 29.614 15.9647V15.9647ZM41.8753 16.3467C42.0267 16.3478 42.181 16.588 42.2313 16.7672C41.7022 17.4486 41.7855 18.7211 41.6624 19.1053C41.5558 19.4179 41.5213 19.1481 41.2269 18.3385C41.1081 18.0117 41.7066 16.387 41.8451 16.3509C41.855 16.3482 41.8654 16.3467 41.8753 16.3468V16.3467ZM42.4166 17.0451C42.5344 17.1125 42.6941 17.2676 42.7224 17.5111C42.7389 17.6525 42.6693 17.8401 42.6243 18.0259C42.5174 18.4677 42.3726 19.3025 42.3206 20.0737C42.2986 20.4019 42.2999 20.6973 42.2853 20.7259C42.1261 21.0386 41.7905 20.1972 41.8192 19.5273C41.9235 18.9924 41.9819 17.1185 42.4166 17.0451V17.0451ZM42.9046 17.803C42.9628 17.7863 43.0442 17.8411 43.1641 18.0067C43.2389 18.1109 43.2859 18.1907 43.3089 18.2805C43.349 18.4365 43.3153 18.6228 43.2238 19.0202C42.9811 20.0737 43.0167 21.2093 43.175 22.375C43.2083 22.6202 43.0385 22.4972 42.7816 22.0748C42.6391 21.8406 42.5476 21.5196 42.5038 21.1406C42.4143 20.312 42.587 19.1889 42.7338 18.3028C42.7744 18.0577 42.8075 17.8309 42.9046 17.803V17.803ZM43.5669 18.648L43.9921 19.1613C43.9921 19.1613 43.8103 20.3422 43.8115 20.9721C43.7818 21.2081 44.0226 23.774 44.1011 23.9816C43.84 23.6883 43.7178 23.5159 43.4315 23.1474C43.3989 23.1527 43.1513 20.6196 43.3224 19.6507C43.4259 19.0646 43.5669 18.648 43.5669 18.648V18.648ZM44.234 19.6683C44.3053 19.6656 44.3956 19.7464 44.5096 19.9068C44.6124 20.0514 44.6629 20.1703 44.6685 20.3505C44.6724 20.4819 44.6076 20.5833 44.6056 20.8176C44.5934 22.2133 44.7815 23.5302 45.0183 24.8001C45.1019 25.2545 44.9393 25.0695 44.6705 24.782C44.4241 24.5188 44.4195 24.4184 44.2879 24.0443C44.2616 23.9696 43.9997 21.3958 44.0019 21.2013C44.0112 20.4014 44.034 19.9561 44.126 19.7642C44.156 19.7015 44.1912 19.6698 44.234 19.6683V19.6683ZM41.3982 19.7766C41.8147 20.6823 42.1895 21.609 42.6892 22.4729C42.6892 22.4729 42.1948 22.7279 42.0652 22.6383C41.8563 22.0672 41.1023 20.5383 41.0894 20.2676C41.1027 20.1786 41.3982 19.7766 41.3982 19.7766ZM33.5544 20.5283C33.4908 20.5367 33.4315 20.569 33.3789 20.6367C33.2296 20.8123 33.0519 20.7391 32.6922 20.5807C32.5077 20.524 32.5364 20.5998 32.2317 20.7585C31.9954 20.8816 31.9122 20.8848 31.7557 20.8835C31.5492 20.8816 31.475 20.8089 31.4744 20.9545C31.4744 21.035 31.4619 21.3994 31.4131 21.5875C31.3467 21.8435 31.2889 21.9562 31.3254 22.0007C31.4304 22.0971 31.5187 22.0383 31.7401 21.8239C32.1074 21.4682 32.3551 21.5703 32.7643 21.7026C33.2296 21.853 33.326 21.9082 33.7516 21.7591C34.3546 21.5478 34.7173 21.5477 34.9574 21.701C35.3712 21.9652 35.4964 21.9494 35.326 21.2272C35.271 20.9943 35.2669 20.6334 35.233 20.5709C35.1947 20.5 35.0899 20.7019 34.9798 20.7761C34.7693 20.9181 34.6601 20.9159 34.1856 20.7601C33.9748 20.6908 33.7449 20.5033 33.5544 20.5283V20.5283ZM40.8848 20.6528C40.9293 20.6441 40.9737 20.6653 41.011 20.731C41.1946 21.1648 41.9255 22.6143 41.9033 22.7762C41.7609 22.9044 41.5704 22.9976 41.4574 22.883C41.092 22.2146 40.9824 21.854 40.6855 21.1038C40.6191 20.9693 40.7516 20.6787 40.8848 20.6528V20.6528ZM44.9363 20.6776C44.9881 20.6704 45.0962 20.7782 45.1766 20.886C45.4269 21.2217 45.4417 21.263 45.4496 21.6227C45.4784 22.9268 45.6421 24.462 46.0087 25.6457C46.0809 25.8787 46.2178 26.1619 46.2029 26.2004C46.08 26.38 45.5095 25.8991 45.3375 25.1677C45.1003 24.2389 44.9614 23.2697 44.8859 22.6388C44.7904 21.5293 44.7913 20.7355 44.9363 20.6776V20.6776ZM40.4343 21.2645C40.4782 21.2599 40.5187 21.2951 40.5516 21.3967C40.7621 21.8037 41.0271 22.5062 41.2057 22.9276C41.2871 23.1106 40.871 23.2547 40.7753 23.1925C40.609 23.068 40.5299 22.7177 40.4208 22.5077C40.0733 21.7461 40.0112 21.7304 40.2038 21.4931C40.2779 21.39 40.361 21.272 40.4343 21.2645V21.2645ZM45.7611 21.8638C45.7917 21.8638 45.8314 21.894 45.8815 21.9587C46.1012 22.2189 46.2503 22.4175 46.3077 22.6103C46.3494 22.7503 46.3162 22.8554 46.3311 23.109C46.3704 23.7734 46.5445 24.6799 47.0376 26.5358C47.0857 26.7168 47.1506 26.9312 47.1424 26.9894C47.0948 27.3302 46.5967 26.7777 46.4515 26.2071C46.2832 25.5595 45.9762 24.7328 45.8857 23.9681C45.6994 22.7541 45.596 21.8637 45.7611 21.8638V21.8638ZM39.843 21.9255C39.9626 21.9482 40.0263 22.1621 40.1125 22.3547C40.527 23.3245 40.5598 23.3226 40.2988 23.3994C40.0229 23.4805 40.0062 23.4542 39.6821 22.7938C39.4456 22.312 39.3987 22.2511 39.5975 22.0774C39.6734 21.9877 39.7358 21.9419 39.788 21.9281C39.8077 21.9229 39.826 21.9223 39.843 21.9254V21.9255ZM34.3387 22.1235C34.2915 22.1246 34.1528 22.2299 34.0132 22.2853C33.6707 22.4212 33.0623 22.4304 32.6916 22.3185C32.0347 22.0541 32.2196 22.3973 32.8006 22.6062C33.2516 22.7582 34.1448 22.6406 34.2832 22.3589C34.3683 22.2687 34.3994 22.1223 34.3387 22.1235ZM39.229 22.6C39.2685 22.5929 39.3048 22.6016 39.3333 22.6331C39.7033 23.2065 39.8147 23.4356 39.7522 23.4802C39.693 23.5395 39.3997 23.6504 39.2793 23.5912C39.128 23.5169 38.9964 23.1627 38.93 22.8851C38.9648 22.7834 39.1104 22.6212 39.229 22.6ZM30.0635 22.8747C30.2289 22.8752 30.6589 23.455 30.5717 23.5596C30.5475 23.6133 30.3863 23.5622 30.0095 23.4574C29.8837 23.411 29.5993 23.3738 29.6892 23.191C29.734 23.1079 29.9977 22.8744 30.0635 22.8747V22.8747ZM38.6294 23.0645C38.6438 23.0623 38.6571 23.0637 38.6689 23.0691C38.7253 23.1197 38.9074 23.5647 38.9362 23.6695C38.8992 23.7686 38.6202 23.7914 38.5017 23.784C38.3997 23.5715 38.3734 23.4701 38.345 23.3294C38.3787 23.2555 38.5291 23.0787 38.6294 23.0645V23.0645ZM46.6353 23.1106H46.6379C46.697 23.1127 46.7992 23.2161 46.9509 23.4336C47.2377 23.8446 47.1988 23.8148 47.4046 24.7965C47.6382 25.9099 47.9176 26.7029 48.1999 27.8402C48.2038 28.0289 48.1271 27.9787 47.918 27.851C47.5764 27.6425 47.4644 27.411 47.3569 26.8075C47.1733 25.8106 46.7851 24.8881 46.6364 23.7104C46.5581 23.3226 46.5516 23.1094 46.6364 23.1106H46.6353ZM38.0288 23.5082C38.2305 23.5014 38.2034 23.8129 38.1457 23.8633C37.9983 23.992 37.592 23.9536 37.5222 23.9608C37.3662 23.7155 37.8974 23.5165 38.0288 23.5082V23.5082ZM47.6605 24.5679C47.7198 24.5761 47.879 24.8013 48.1769 25.2211C48.4632 25.6244 48.4006 25.5584 48.572 26.2222C48.8143 27.1395 49.2153 27.8011 49.4502 28.6453C49.4502 28.7418 49.3338 28.7294 49.2223 28.6837C49.0054 28.5925 48.8117 28.4389 48.628 28.2881C48.5023 28.152 48.503 27.9791 48.1318 26.6991C47.9978 26.2373 47.9632 26.1171 47.7959 25.4155C47.656 24.8288 47.5932 24.5586 47.6605 24.5679V24.5679ZM16.6223 27.3083C17.5957 29.1039 17.2352 29.9 15.1414 30.1487C14.9902 30.1274 15.1332 31.0687 15.1289 31.4894C16.178 30.8878 17.4465 30.7472 18.6156 30.3696C18.2973 31.3914 17.7384 32.5495 16.0461 32.3712C14.2371 31.001 12.1952 31.8243 10.7826 31.268C10.0143 30.9811 9.72091 30.1254 9.71177 29.9787C10.6332 30.0712 11.6734 30.269 12.5662 30.2042C11.5909 29.451 11.8759 28.4091 12.0134 27.9325C10.8524 26.5361 11.8243 24.8696 13.4829 25.2445C13.6542 25.2834 13.9921 25.4503 13.9921 25.4503C15.8851 23.7994 17.4425 25.6852 16.6223 27.3083V27.3083ZM48.9737 26.4347C49.0399 26.4284 49.1862 26.6017 49.4793 27.0128C50.3488 28.2322 51.1014 29.3664 51.09 29.4302C51.0525 29.6402 50.1466 29.2722 49.9179 28.9714C49.6575 28.6287 48.9249 26.8644 48.926 26.584C48.926 26.4905 48.9393 26.438 48.9737 26.4347V26.4347ZM13.5634 31.6573C14.0157 31.7239 14.1422 31.7626 14.1375 31.9398C14.1762 32.0903 13.04 32.1101 12.886 31.9984C12.7629 31.9093 12.9213 31.714 13.0428 31.6672C13.2208 31.6176 13.3894 31.6406 13.5634 31.6573V31.6573ZM44.7738 31.8756C38.5081 34.9223 35.9593 42.8558 39.1443 48.9457L38.7037 49.2651C35.5621 42.7877 37.899 35.8465 43.0032 32.3411C43.2099 32.1939 43.6669 32.08 43.8794 31.9388C43.8794 31.9388 41.7973 32.4152 41.0925 32.6916C40.9495 32.6867 40.5295 32.8351 40.0782 33.3256C39.6837 33.692 38.4503 35.397 38.4898 35.4563L35.2123 35.5885L35.2155 35.7098L38.4323 35.6352C35.1199 41.1024 35.9334 46.3046 37.9786 49.9452L38.0528 50.0142C39.1565 49.4046 40.2881 48.2623 41.0567 47.2525C39.1976 41.2312 41.1941 36.502 46.4054 33.8036C46.4104 33.7217 46.3939 33.5629 46.3768 33.4251L46.0124 33.0731C40.2241 35.6444 37.9071 42.001 40.2646 47.7829L39.8753 48.208C36.925 42.2446 40.0598 34.8009 45.5562 32.6314L45.3288 32.4116C39.3665 35.216 36.7741 42.3191 39.703 48.3765L39.3334 48.7041C36.0019 42.0732 39.4938 34.6456 44.9862 32.0803L44.7738 31.8756ZM12.5761 31.8813C12.5761 31.8813 12.5344 32.2353 12.6591 32.3562C12.7165 32.6088 12.6249 32.5811 12.4105 32.5298C11.8828 32.4037 12.2944 32.7047 12.7261 32.9477C13.1514 33.187 13.0941 33.179 12.7229 33.4148C12.4736 33.5733 12.4994 33.633 12.533 33.7533C12.5827 33.9319 12.617 33.8128 12.7203 33.7175C12.9374 33.5175 13.1109 33.4674 13.3038 33.4682C13.5935 33.4692 13.6229 33.7021 13.5716 33.8834C13.4564 34.2641 13.0653 34.2435 12.7447 34.1489C12.2204 33.994 11.3642 33.0826 11.3775 32.5459C11.3411 32.0651 11.9971 31.8593 12.576 31.8813H12.5761ZM14.6202 31.8958C14.7239 31.8937 14.8561 31.9711 14.9327 31.9984C15.1359 32.0733 15.3916 32.1738 15.6729 32.2919C16.0616 32.4157 16.4555 32.6172 16.7095 32.787C17.4829 33.3038 17.4355 34.3375 17.3797 34.4402L13.3838 38.2366C13.3838 38.2366 13.1582 38.1261 12.9457 38.0173C12.2738 37.6737 12.1124 37.4922 12.4852 37.3019C12.6661 37.2096 12.7246 37.0113 12.7505 36.8172C12.7852 36.5571 12.7715 36.6013 12.9265 36.4828C13.1965 36.2766 13.2096 36.1916 13.2109 35.8488C13.2109 35.6219 13.2351 35.5174 13.3173 35.3749C13.5183 34.985 13.4319 34.6866 13.5924 34.2945C13.8133 34.0753 13.9176 33.4831 14.1126 33.6491C14.305 33.8507 14.2315 34.1259 14.2423 34.2697C14.2781 34.2341 14.4385 34.158 14.4718 34.1504C14.5555 34.1313 14.6392 34.16 14.6607 34.2914C14.6316 34.6631 14.6541 35.0576 14.7204 35.4107C15.0171 36.4372 14.9747 36.2929 14.8574 35.4408C14.7943 34.9819 14.7881 34.6018 14.9737 34.1722C15.1491 33.8658 15.1583 33.8056 14.778 33.6548C14.6367 33.5988 14.3959 33.5002 14.3462 33.4023C14.2852 33.2826 14.1042 33.12 13.8681 33.0643C13.294 32.929 12.9598 32.3729 13.0427 32.2903C13.097 32.2362 13.3284 32.3069 13.4746 32.3121C13.9987 32.3308 14.1098 32.3041 14.342 32.1042C14.4656 31.9978 14.5213 31.9027 14.6197 31.8958H14.6202ZM42.1327 32.6138C36.7645 36.9676 35.8237 44.0103 38.5017 49.4449L38.0382 49.8099C34.6727 43.4351 36.9334 36.5581 41.0681 32.7973L42.1327 32.6138ZM11.1408 33.1328C11.2356 33.1239 11.3391 33.2629 11.716 33.6667C11.9698 33.9387 12.2341 34.1753 12.3731 34.2546C12.6884 34.406 12.6201 34.3426 12.3569 34.5926C12.0883 34.9015 12.2367 35.1559 11.9157 35.0012C11.0804 34.6081 10.4937 33.45 11.0369 33.1711C11.0778 33.1501 11.1091 33.1357 11.1407 33.1328H11.1408ZM10.7255 34.3505C10.7457 34.3489 10.7681 34.3519 10.7899 34.3573C10.8929 34.3825 11.0175 34.5765 11.1517 34.7119C11.523 35.0866 11.6954 35.2532 11.9921 35.3848C12.2837 35.5141 12.2918 35.5453 12.0866 35.7736C12.0119 35.8566 11.9671 35.9565 11.9496 36.0121C11.932 36.0676 11.9278 36.1379 11.8649 36.15C11.5398 36.2126 10.4592 35.5556 10.4167 35.1022C10.4516 34.6783 10.5584 34.3633 10.7255 34.3505V34.3505ZM13.0157 34.4765C13.2032 34.4717 13.3132 34.6389 13.3121 34.9104C13.3121 35.0985 13.2056 35.1751 12.9909 35.2557C12.5319 35.428 12.249 35.0987 12.5699 34.7352C12.7048 34.5824 12.8875 34.4798 13.0157 34.4765V34.4765ZM12.7354 35.5818C13.0817 35.5831 13.1819 35.8757 12.928 36.1282C12.6896 36.3654 12.2086 36.3667 12.2096 36.1064C12.2096 35.9023 12.5151 35.5809 12.7354 35.5818V35.5818ZM10.5885 35.9317C10.8228 36.0011 11.3931 36.4131 11.6438 36.4616C11.6571 36.6004 11.4902 36.6385 11.7269 36.8996C11.8344 37.0182 11.8437 37.0991 11.7502 37.149C11.4642 37.3017 10.4732 36.8188 10.4069 36.3216C10.3746 36.0788 10.4553 35.9404 10.5885 35.9317V35.9317ZM11.8815 36.5269C12.2224 36.5411 12.6078 36.5513 12.5673 36.7145C12.5379 36.8329 12.416 37.1458 12.26 37.0873C12.1841 37.0588 12.1102 36.983 12.0575 36.9323C11.8756 36.7574 11.8276 36.5246 11.8815 36.5269ZM10.8221 37.3398C11.0309 37.2367 11.6956 37.4455 11.7606 37.6093C12.0313 38.292 11.6751 39.7757 11.0547 39.9236C10.8167 39.9803 10.5398 40.067 10.357 39.6416C10.3315 39.6389 10.7347 37.3816 10.8221 37.3398ZM24.9941 37.7348C24.8478 37.8413 24.8291 37.8564 24.7725 37.9416C25.7654 38.8429 29.3729 48.2568 21.8552 55.1154L20.2596 55.595C27.4774 49.9135 26.2768 41.8474 24.3292 38.3678C24.1232 38.41 24.0427 38.5965 24.0105 38.6405C26.2102 42.0337 27.0324 51.6134 18.3779 56.2446C18.3808 56.2478 18.4169 56.2842 18.4173 56.285C18.4261 56.3023 18.4731 56.3484 18.5113 56.3819C18.5264 56.2574 22.4157 55.3104 22.1412 55.2865C25.7665 52.0741 28.9232 44.4125 24.9941 37.7348V37.7348ZM23.6897 38.9033C23.5102 39.0923 23.4931 39.065 23.4312 39.1786C26.5547 45.326 23.6546 52.8858 17.8899 55.7422C17.994 55.849 18.0211 55.8771 18.1028 55.9615C24.7144 52.3734 26.5798 44.766 23.6897 38.9033ZM23.1789 39.4269C23.0418 39.5173 23.0233 39.5169 22.9484 39.6623C25.543 44.912 23.509 52.1963 17.3491 55.1854C17.4007 55.2381 17.4822 55.3228 17.5827 55.4255C24.7629 51.5564 25.4282 44.1997 23.1789 39.4269V39.4269ZM22.583 40.0537C22.3392 40.3786 21.8485 40.8339 21.8485 40.8339C22.6238 41.4239 24.4649 50.1037 16.6649 53.9469C16.6612 54.2255 16.4303 54.4699 16.9463 54.8049C22.5951 52.2396 25.0528 45.4209 22.583 40.0537V40.0537ZM50.9208 50.7835C51.1288 50.7981 51.3154 50.8614 51.5084 50.8867C52.2101 50.9778 52.6655 51.4908 52.3519 51.8027C52.2489 51.9052 52.1049 51.8463 51.6491 51.6228C51.4396 51.5201 51.4059 51.4236 51.3626 51.192C51.3106 50.9143 51.2554 50.8864 51.185 51.1018C51.1139 51.3195 51.0373 51.4545 50.7978 51.3994C50.1251 51.2426 50.379 50.7783 50.9208 50.7835ZM50.4495 51.671C50.803 51.6891 50.7751 51.9321 50.5284 52.1558C50.2965 52.3318 50.1375 52.3657 50.0067 52.2335C49.7775 52.002 50.0959 51.6531 50.4495 51.671ZM51.3091 51.8266C51.5319 51.8266 51.816 51.9285 52.1536 52.2097C52.5566 52.5454 52.6488 53.3583 52.2787 53.499C52.1238 53.5579 52.0994 53.499 51.769 53.1854C51.5462 52.9731 51.3046 52.7815 51.0667 52.668C50.5809 52.4362 50.5189 52.3483 50.8471 52.1905C50.9162 52.155 51.0055 52.0716 51.0464 52.0059C51.1307 51.8706 51.1567 51.8273 51.3091 51.8266V51.8266ZM50.1058 52.6094C50.4473 52.6341 50.492 53.0392 50.1884 53.1885C50.1007 53.2596 49.8171 53.1548 49.8016 53.2336C49.8226 53.3716 49.6837 53.3135 49.6569 53.2636C49.6098 53.2051 49.599 53.1215 49.5992 53.0542C49.6046 52.8302 49.8573 52.5803 50.1058 52.6094ZM50.7339 52.9075C50.7472 52.9075 50.7636 52.9074 50.7843 52.9101C50.8488 52.9128 50.935 52.9512 51.0698 53.0237C51.8886 53.472 52.2891 54.1749 52.0119 54.5716C51.8302 54.8319 51.5341 54.7323 51.3085 54.3633C51.1816 54.1554 50.8442 53.8896 50.4614 53.695C50.023 53.4722 50.014 53.4402 50.3306 53.288C50.4605 53.2256 50.5578 53.1375 50.6213 53.0252C50.6766 52.9275 50.6938 52.9101 50.7339 52.9086V52.9075ZM49.9003 53.8189C50.0543 53.8268 50.2037 53.8814 50.245 54.034C50.299 54.2337 49.9167 54.3517 49.6075 54.357C49.4501 54.3599 49.2681 54.3905 49.2208 54.2797C49.1765 54.1759 49.3288 53.9845 49.3921 53.9376C49.5175 53.8495 49.6225 53.8417 49.7487 53.8251C49.7972 53.8192 49.849 53.8163 49.9003 53.819V53.8189ZM50.641 54.1937C50.7979 54.2275 50.9628 54.4999 51.0464 54.5835C51.665 55.2018 51.5942 55.5366 51.1923 55.7884C50.918 55.9602 50.478 56.0027 50.3337 55.8604C50.1006 55.6562 50.1066 55.4224 50.3644 55.3472C50.6048 55.2956 50.5147 55.199 50.2901 55.1419C49.488 54.9137 48.9952 54.4868 49.8671 54.5794C50.1173 54.606 50.3596 54.4111 50.4905 54.2554C50.5378 54.1978 50.5887 54.1824 50.641 54.1937V54.1937ZM8.86206 54.8215L26.8784 80.6058H12.3202C12.8328 76.5048 11.8038 71.9535 10.4427 68.9838C11.924 68.7319 13.3355 68.339 14.748 67.949L14.4609 67.5763C12.7755 68.2514 11.2208 68.4984 9.75696 68.666C11.7001 71.9814 12.3936 76.5517 11.811 80.6058H9.03596V60.5884L8.86206 54.8215ZM46.7713 55.6961C48.0185 56.081 49.2061 56.6855 50.3617 56.5914C50.9981 56.5951 51.649 56.6982 52.2658 57.03C52.682 57.2268 52.8985 57.9652 52.8985 57.9652C52.2455 58.3076 50.2128 57.693 50.2128 57.693C51.5027 58.5232 51.048 60.0554 50.7718 60.2437C52.553 62.4999 49.7839 63.6547 48.9052 62.8436C47.6045 64.1393 45.3728 63.0538 46.2324 60.9181C46.2324 60.9181 44.5985 57.7899 47.8203 57.9989C47.8203 57.9989 47.8759 56.7347 47.785 56.6769C46.7044 56.5891 45.4074 57.5199 44.3289 58.0943C44.0055 56.4119 45.6101 55.9543 46.7713 55.6961V55.6961ZM12.0887 58.6589C12.3436 58.6488 12.9792 59.0984 13.0568 59.4365C13.0725 59.5057 13.2376 59.9215 13.4227 60.308C13.4265 60.3793 14.0523 61.5125 13.7772 61.4138C13.2301 60.6685 12.2526 59.3996 12.0066 58.7812C12.0066 58.6988 12.0173 58.6617 12.0887 58.6589ZM13.4185 59.3738C13.5608 59.3809 13.9419 59.6908 14.0389 59.7921C14.0731 59.9794 14.2626 60.4691 14.4121 60.7917C14.8017 61.6324 15.4047 62.9505 15.2821 63.3257C15.2416 63.4496 15.2415 63.5096 15.2259 63.5019C14.9474 63.1769 14.6821 62.7095 14.422 62.3693C14.4074 62.341 14.4274 62.3233 14.3602 62.0659C14.0914 60.8433 13.6571 60.2012 13.375 59.4868C13.3497 59.4029 13.3712 59.3714 13.4185 59.3738V59.3738ZM14.3862 59.9788C14.4386 60.0157 15.1542 60.5202 15.2265 60.5926C15.4802 61.4967 16.4939 64.393 16.2315 64.9105C16.14 64.8388 15.7536 64.3719 15.6999 64.1313C15.583 62.7463 15.1445 61.7498 14.6742 60.7175C14.5419 60.4064 14.4381 60.0954 14.3862 59.9788V59.9788ZM15.7316 60.9959C15.9581 61.1067 16.1926 61.3604 16.3254 61.5869C16.4142 61.7407 16.4599 61.9215 16.5434 62.3023C16.8027 63.4841 17.2975 64.6822 17.075 65.9432C16.9362 66.1318 16.6343 65.7045 16.5912 65.2833C16.4482 63.8867 16.3253 63.2174 15.8354 61.575C15.7404 61.2564 15.6685 61.0069 15.7316 60.9959V60.9959ZM16.8809 62.0794C16.9292 62.0821 17.0285 62.1716 17.1938 62.3272C17.5155 62.6299 17.561 62.7412 17.5629 63.2433C17.5733 63.9813 17.8187 64.8243 17.8567 65.5694C17.8788 65.9993 17.9568 67.1116 17.8905 67.1776C17.7969 67.307 17.3819 66.8357 17.4139 66.1133C17.4669 65.2448 17.4235 64.5912 17.0542 63.0888C16.8836 62.3944 16.7975 62.0976 16.8715 62.0805H16.8808L16.8809 62.0794ZM17.8718 63.1246C17.991 63.1389 18.2833 63.5563 18.4152 63.938C18.5364 64.2918 18.4967 64.7412 18.585 65.1226C18.7833 66.4295 18.771 67.7388 18.7184 68.1346C18.6921 68.3317 18.5654 68.2516 18.3919 68.0636C18.1395 67.7902 18.1746 67.7842 18.1775 67.0252C18.1805 66.3747 18.0362 64.7674 17.9699 64.4408C17.8473 63.8368 17.7963 63.2603 17.825 63.1614C17.833 63.1336 17.8495 63.1219 17.8718 63.1246ZM29.1613 63.249C29.3346 63.249 29.5079 63.2599 29.6814 63.2806C30.9818 63.4882 32.0212 64.3781 32.6169 65.8432C33.1919 67.3329 33.3338 69.3655 33.423 71.2342C33.4169 71.6813 33.233 71.5686 32.7513 71.2908C32.225 71.0331 32.1133 71.1075 31.3451 71.2841C30.8658 71.3941 30.9091 71.0672 31.6976 70.5252C31.9661 70.3496 32.2783 70.1149 32.1757 70.0798C32.1236 70.062 31.8837 70.1268 31.71 70.2675C30.9364 70.8943 30.7265 71.047 30.9496 70.4375C31.0059 70.2835 31.1851 69.8562 31.26 69.6516C31.5403 68.8859 31.2171 68.5583 30.2654 68.0735C30.0273 67.9522 29.871 67.7495 30.1087 68.1731C30.303 68.5195 29.9008 68.7993 29.4032 68.3939C29.0574 68.1122 28.3626 68.3 28.1382 68.6516C27.9209 68.9921 28.0375 69.6272 28.4657 69.833C28.8432 69.996 28.9839 69.8784 28.6189 69.6246C28.1494 69.2983 28.2406 68.748 28.7679 68.7501C28.8981 68.7501 29.1281 68.8962 29.7095 69.213C30.1255 69.4387 30.4217 69.3431 30.4222 69.0062C30.4222 68.7807 30.5514 68.7991 30.825 68.9346C31.1935 69.1172 31.153 69.2827 30.9584 69.7932C30.8271 70.1496 30.7616 70.5549 30.6413 70.9274C30.3309 72.1815 30.2896 73.6015 30.633 74.0442C31.5459 75.2216 32.5151 75.097 33.3452 74.319L33.3099 75.6083C32.4635 76.2894 31.4745 76.7536 29.9478 79.2782C29.4155 78.6077 27.1312 75.8671 23.4681 75.248L22.6438 74.1173C22.6579 74.0472 22.028 69.9125 21.616 68.5048C21.616 68.5048 22.0691 67.8147 22.4808 67.3063C24.0227 65.4019 26.5625 63.2397 29.1614 63.2491L29.1613 63.249ZM25.1934 64.1677C25.3216 64.1756 25.3185 64.3227 24.9043 64.4543C24.7634 64.4991 24.7177 64.2176 24.7943 64.164C24.9304 64.1481 25.0776 64.1608 25.1934 64.1677V64.1677ZM24.2674 64.2376C24.332 64.2339 24.3814 64.235 24.4242 64.291C24.6214 64.5443 24.7015 64.6976 24.5218 64.8364C24.2836 65.0357 24.0669 64.9854 23.9347 64.6067C23.8497 64.3371 24.0502 64.2523 24.2674 64.2376V64.2376ZM18.7226 64.2432C18.9055 64.3738 19.1287 64.7253 19.347 65.0457C19.4711 65.7796 19.4658 66.5415 19.5193 67.3144C19.5758 68.1273 19.5 68.8073 19.3813 69.0526C19.2602 69.3461 19.0145 69.1432 18.9536 68.7416C18.939 68.6451 19.0194 67.6482 19.0195 67.1008C19.0195 66.1591 18.779 64.9967 18.7226 64.2432V64.2432ZM23.5447 64.4904C23.7262 64.6169 23.9039 65.0099 23.9788 65.2511C23.9652 65.3256 23.8999 65.3885 23.7571 65.5041C23.6157 65.6341 23.571 65.6258 23.413 65.376C23.1653 64.9881 23.0494 64.7328 23.0979 64.5989C23.2546 64.4533 23.4034 64.3919 23.5447 64.4904V64.4904ZM32.1918 64.5098C32.5467 64.5399 32.8975 64.7026 33.2429 64.7845L32.7155 65.2951C32.5588 65.0334 32.3805 64.7715 32.1918 64.5098V64.5098ZM22.4148 64.7124C22.519 64.701 22.6778 64.7061 22.7455 64.7762C22.9401 65.0303 23.2795 65.6947 23.2614 65.9416C23.2118 66.0257 23.1349 66.1004 23.0533 66.1474C22.9885 66.165 22.9298 66.0517 22.7102 65.6622C22.3283 64.9851 22.2166 64.7938 22.4148 64.7124ZM21.9751 64.9326C22.1888 65.1176 22.6829 66.1485 22.7117 66.4148C22.7059 66.4946 22.6826 66.5637 22.6354 66.6175C22.315 66.9629 22.3961 66.9077 21.9191 65.9233C21.5163 65.1138 21.4098 65.0336 21.6761 64.9425C21.7823 64.9 21.8933 64.8618 21.9751 64.9327V64.9326ZM21.2095 65.1971C21.3493 65.1945 21.3885 65.4296 21.6611 65.9634C22.1174 66.9727 22.2887 67.1127 22.1854 67.2206C22.0581 67.3815 21.9834 67.4949 21.8625 67.2994C21.5873 66.8508 21.3146 66.2786 21.0584 65.7762C20.8533 65.4012 20.8348 65.3553 20.9665 65.2635C21.0421 65.2109 21.1548 65.198 21.2095 65.1971V65.1971ZM29.846 65.4455C29.6346 65.4428 29.4417 65.4614 29.3545 65.4839C29.183 65.5322 28.4935 65.7507 28.9158 65.7903C29.0012 65.7982 29.2175 65.7443 29.3695 65.7337C29.7964 65.7042 30.684 65.7846 30.6522 65.7026C30.6015 65.5105 30.1983 65.4496 29.846 65.4455ZM20.8332 65.9846C21.4988 67.2318 21.8428 67.698 21.7276 67.8966C21.6328 68.0164 21.4861 68.1672 21.3995 68.1314C21.26 68.0738 21.074 67.6629 20.6099 66.7322C20.1303 65.7704 20.0805 65.6984 20.3271 65.5736C20.641 65.4 20.7078 65.7497 20.8332 65.9846V65.9846ZM19.7348 65.7327C19.8248 65.7234 19.9166 65.9422 19.9647 66.0215C20.2629 66.5071 20.2235 66.4429 20.2201 68.0236C20.2172 69.0073 20.092 69.6349 19.9279 69.877C19.8419 70.0037 19.6901 69.9291 19.6149 69.681C19.5805 69.5675 19.6785 69.3992 19.6969 69.2196C19.8129 68.0359 19.7321 66.853 19.7348 65.7327ZM27.5174 65.939C27.4855 65.939 27.4627 65.9488 27.4551 65.9686C27.4247 66.0472 27.4872 66.1708 27.6534 66.4087C27.7922 66.6074 27.7583 66.7678 27.7572 67.035C27.7543 67.4129 27.783 67.4404 28.0432 67.2496C28.2739 67.0804 28.2924 67.0696 28.704 67.3497C28.9482 67.5158 29.2559 67.5346 29.4552 67.3523C29.5955 67.223 29.6444 67.2814 29.8325 67.3306C30.0372 67.4446 30.0954 67.4619 30.5348 67.2481C30.8315 67.1166 30.8433 67.0975 31.0197 67.1906C31.33 67.4648 31.3762 67.3656 31.3342 67.0071C31.3342 66.8819 31.3712 66.6483 31.4079 66.4964C31.5624 65.8586 31.3124 65.8515 30.9817 66.2579C30.8537 66.4153 30.5684 66.4834 30.2987 66.3564C29.9124 66.1745 29.3091 66.2481 28.8634 66.3233C28.336 66.4122 28.0921 66.2665 27.8803 66.0853C27.7902 66.0083 27.613 65.9376 27.5174 65.9401V65.939ZM20.5809 67.3035C20.6469 67.2892 20.7482 67.4853 20.8965 67.9007C21.0878 68.4369 20.7536 70.3006 20.5523 70.6059C20.4459 70.7661 20.3776 70.8642 20.1589 70.5675C20.0719 70.4371 20.1397 70.3953 20.2258 70.0288C20.357 69.4713 20.4675 68.5692 20.4745 68.1496C20.4774 67.605 20.5061 67.3197 20.5809 67.3035ZM21.2531 69.1112C21.3006 69.1147 21.3562 69.2223 21.4322 69.4347C21.5397 69.7266 21.4874 70.2888 21.346 70.7194C21.2641 70.9702 21.1865 71.2375 21.047 71.4618C20.9995 71.5876 20.7559 71.5438 20.6889 71.2648C20.6464 71.0882 20.793 70.8687 20.8638 70.5877C20.935 70.3054 21.0161 69.9467 21.0563 69.766C21.1306 69.325 21.1836 69.1064 21.2531 69.1112ZM26.4564 69.9371C26.4506 69.9371 26.445 69.9371 26.4413 69.9397C26.4413 69.9371 26.4375 69.9427 26.4359 69.944C26.425 69.9551 26.9431 70.5214 27.0822 70.6796C27.1549 70.7413 27.7799 71.5025 27.3916 71.3277C26.4118 70.9205 25.2649 71.12 24.5589 71.8026C24.4705 71.8881 24.3972 71.7999 24.1296 71.7808C23.5812 71.7398 23.3819 71.9578 23.7154 72.2287C23.7665 72.2702 23.8729 72.2887 23.921 72.3552C23.9651 72.4162 23.952 72.5258 23.975 72.5564C25.0354 73.9675 26.9995 74.2422 28.2325 73.3205C28.3876 73.2045 28.4746 73.1638 28.6192 73.207C28.906 73.2925 28.9317 73.0515 28.6784 72.715C28.5679 72.5683 28.4315 72.3992 28.5107 72.3505C28.6673 72.2155 28.7446 71.9946 28.4723 71.912C28.2846 71.855 28.0743 71.6458 27.9688 71.3536C27.8456 71.0123 26.6381 69.9637 26.4551 69.9388L26.4564 69.9371ZM21.6383 70.5488C21.6905 70.5417 21.7204 70.6154 21.727 70.6287C21.8698 70.9176 21.8475 71.9734 21.6289 72.3291C21.498 72.4859 21.1988 72.194 21.2438 71.8947C21.2779 71.667 21.5278 70.6457 21.5786 70.5877C21.6009 70.5622 21.6208 70.5512 21.6383 70.5488V70.5488ZM26.3417 71.4068C26.5351 71.4042 26.7998 71.492 27.0103 71.6826C27.1241 71.7857 27.3235 72.2319 27.2407 72.4069C27.2176 72.4958 26.9785 72.4909 26.9568 72.4255C26.8254 71.5247 26.097 71.3938 25.8657 72.2347C25.8657 72.2347 25.7156 72.3627 25.6965 72.1165C25.7483 71.639 25.9723 71.4105 26.3417 71.4068V71.4068ZM32.2073 71.483C32.4388 71.4788 32.6592 71.5955 32.7726 71.8434C32.8517 72.0162 32.8606 72.1615 32.8292 72.2373C32.8058 72.294 32.7279 72.2695 32.7279 72.2695C32.3582 71.253 31.8549 71.7229 31.6726 72.2851C31.6726 72.2851 31.4825 72.3443 31.4588 72.2825C31.4351 72.2217 31.4495 72.1074 31.5252 71.9491C31.6697 71.647 31.9449 71.4869 32.2073 71.482V71.483ZM27.261 71.5483C27.3919 71.5412 27.6161 71.6475 27.7837 71.8169C27.9539 71.9889 27.9706 72.0917 27.833 72.2192C27.7504 72.296 27.4565 72.3717 27.3996 72.2383L27.1525 71.6593C27.1291 71.6042 27.2014 71.5515 27.261 71.5483V71.5483ZM25.4795 71.5753C25.6261 71.5753 25.6567 71.6093 25.4265 72.1461C25.3774 72.2608 24.7872 72.0942 24.8996 71.8729C25.0685 71.6967 25.3329 71.575 25.4795 71.5753ZM31.5211 71.651C31.4683 71.6701 31.2455 72.2358 31.2455 72.2358C31.0348 72.2103 30.7823 72.24 30.7367 72.0673C30.6937 71.904 30.7788 71.8044 31.0757 71.6904C31.2485 71.6124 31.5065 71.598 31.5211 71.651V71.651ZM33.1225 71.7631C33.344 71.851 33.3982 72.0353 33.3696 72.1332C33.3478 72.2073 33.2358 72.2161 33.1677 72.1508C33.0889 72.075 33.0108 71.9266 32.9995 71.8319C32.9865 71.7235 33.0904 71.7503 33.1225 71.7631V71.7631ZM21.9829 72.2861C22.0516 72.4158 22.1756 73.1505 22.0307 73.1316C21.89 73.0952 21.8244 72.8733 21.7997 72.6739C21.7947 72.6328 21.92 72.2909 21.9829 72.2861ZM24.4434 72.678C24.5085 72.6687 24.6726 72.7266 24.9163 72.8646C25.718 73.2529 26.54 73.3078 27.4131 73.1124C27.9166 72.9815 28.0453 72.9045 28.1164 72.9911C28.2373 73.1383 28.0462 73.2855 27.3352 73.5251C26.5555 73.7878 25.7465 73.7436 24.6827 72.9911C24.3968 72.7889 24.3597 72.69 24.4434 72.678V72.678ZM33.273 72.8263C33.3004 72.8308 33.3232 72.8475 33.341 72.8807C33.473 73.1275 33.0296 73.3881 32.796 73.4276C32.1663 73.5341 31.5594 73.4792 31.0658 73.1866C30.7293 72.9354 30.8685 72.7559 31.2434 72.9496C31.6465 73.158 32.4668 73.1963 32.9018 72.9859C33.0654 72.9069 33.1906 72.8123 33.273 72.8263ZM23.385 73.3411C23.3402 73.3511 23.4156 73.4647 23.5719 73.6345C24.6687 74.8686 27.2856 75.5378 28.7565 74.2659C29.2171 73.8325 29.1467 73.6377 28.4201 73.9839C27.213 74.2837 25.6377 74.5657 23.8096 73.5904C23.5568 73.4051 23.4244 73.3323 23.385 73.3411V73.3411ZM30.9013 73.354C30.9077 73.3514 30.9306 73.354 30.9402 73.3567C31.0071 73.362 31.124 73.4249 31.3861 73.542C31.8442 73.7465 32.6318 73.6632 32.8785 73.567C33.4569 73.3414 33.5801 73.6253 33.0285 73.9309C32.4139 74.3039 31.5656 74.1579 31.0705 73.6774C30.9173 73.5397 30.834 73.3687 30.9013 73.3549V73.354ZM23.6644 75.561C25.8244 75.7588 29.2013 78.0248 30.4724 80.6058H29.6352C28.3583 78.5746 26.3934 76.8225 24.0618 76.2126C23.9696 76.1415 23.615 75.651 23.6644 75.561V75.561ZM33.1622 76.0455V76.7476C32.8002 77.045 31.4125 78.2339 30.4284 79.9593C30.3584 79.8687 30.2586 79.6646 30.1294 79.52C31.1678 77.6946 32.2143 76.6502 33.1622 76.0455ZM24.5102 76.5921C25.0057 76.558 28.2302 78.4112 29.3159 80.6058H28.745C27.5237 79.0115 26.1662 77.854 24.9614 77.4366C24.6685 77.1269 24.3241 76.6057 24.5102 76.5921V76.5921ZM33.1622 77.1127V78.053C32.3908 78.8058 31.8227 79.6804 31.3813 80.6058H30.7828C30.8004 80.617 30.6702 80.4574 30.6042 80.2238C31.2568 79.08 31.9894 78.0746 33.1622 77.1127ZM25.3532 77.8814C25.6424 77.8814 27.9412 79.5773 28.2659 80.6058H27.6861C27.1969 79.9125 26.4705 79.1281 25.8034 78.7311C25.53 78.3915 25.1998 77.9722 25.3231 77.9042C25.3231 77.8886 25.334 77.8814 25.3532 77.8814V77.8814ZM33.1622 78.4963C33.1683 78.5005 33.1648 78.5104 33.1622 78.5269V79.3004C32.8265 79.6901 32.4972 80.0186 32.1291 80.6058H31.6354C32.0572 79.693 33.0674 78.4361 33.1622 78.4963V78.4963ZM26.5 79.6036C26.5061 79.6036 26.5141 79.6036 26.5239 79.6068C26.7027 79.6541 27.3556 80.3964 27.3347 80.6058H27.0409C26.876 80.397 26.6804 80.0538 26.5644 79.8401C26.5008 79.7219 26.4572 79.6117 26.5 79.6037L26.5 79.6036ZM33.1622 79.7789V80.6058H32.4742C32.4208 80.596 32.9049 79.9111 33.1622 79.7374V79.7789Z" fill="#004C97"/>
<path d="M43.2362 7.29507C40.7259 7.29534 38.2348 7.30959 35.7557 7.33499L54.2138 33.5895L54.2295 27.7572L48.3062 20.0939C49.6543 19.6771 51.3003 19.3895 52.5965 19.2737C50.9318 15.5743 50.0992 12.0995 50.8326 7.33758C48.2765 7.30811 45.7466 7.29472 43.2363 7.29507H43.2362ZM50.5252 7.45941C50.3807 9.1405 50.1908 11.0153 50.4951 13.0973C49.5345 12.7456 49.309 13.3467 49.1496 13.4099C48.9689 13.0059 48.2991 12.3069 47.541 13.1284C47.1469 13.5554 47.3383 14.3587 48.2532 14.721C47.2056 14.8016 46.6612 13.9042 46.4774 12.9785C45.9112 12.6152 45.3163 12.256 45.2596 10.9821L45.5498 11.0303C45.4533 11.9191 46.3748 12.3721 46.9139 11.9479C47.2625 11.6802 47.2995 11.2667 47.1621 10.6249C47.442 10.5675 48.098 10.2927 47.9246 9.44808C47.6852 8.28209 46.4907 8.41892 45.9448 9.18576C45.4911 8.62278 44.6594 8.51784 44.3258 9.39209C44.14 9.87911 44.5636 10.4264 45.0447 10.5321C43.9763 10.7375 43.4377 9.26043 43.3779 8.26089L42.9352 7.47341C45.8237 7.45669 47.0868 7.45969 50.5252 7.45943V7.45941ZM36.0563 7.48844L38.2001 7.4911L53.8463 27.7874L53.879 32.8404L36.0563 7.48844ZM41.4765 7.4911L41.8181 7.49576C42.0859 9.2822 43.1111 10.5752 44.8641 11.2046C44.9551 12.6641 45.6569 14.6468 48.3207 15.3167C48.2421 16.9647 49.2985 18.5397 50.4292 19.2946C50.4292 19.2945 50.1237 19.3702 49.8852 19.3931C48.365 18.1847 47.84 15.6713 47.84 15.6713C47.3571 15.4977 44.8899 14.5925 44.3756 11.2854C43.2695 11.0793 41.5312 9.2874 41.4765 7.49162V7.4911ZM40.0979 7.49576H41.2995C41.4222 8.93489 42.3049 10.6786 44.251 11.497C44.7084 13.8317 45.6389 14.8814 47.7009 15.8429C48.0133 17.2029 48.8325 18.8978 49.6822 19.448L49.2083 19.5527L40.0979 7.49576ZM45.9651 9.69751C46.2366 9.69751 46.4566 9.9183 46.4566 10.1905C46.4566 10.4627 46.2366 10.6825 45.9651 10.6825C45.6935 10.6825 45.473 10.4627 45.473 10.1905C45.473 9.9183 45.6935 9.69751 45.9651 9.69751ZM29.3886 12.3881C29.417 12.4593 22.6713 18.1799 23.3278 28.9429L23.1321 29.1617L23.1861 29.2384C22.9633 29.4919 22.7482 29.6953 22.5051 29.9424C23.904 30.8362 26.3423 31.8121 26.3499 31.7865L25.8838 32.8684L28.7984 33.8119L28.4076 34.841C28.4076 34.841 26.38 34.1669 25.5396 33.8861C25.125 34.8076 24.8744 35.781 24.5726 36.7395C24.5441 36.8167 24.4777 36.7793 24.3743 36.6296C22.8604 34.0413 19.7514 32.1737 19.8562 32.3588L8.82928 42.847L8.75401 49.3283L16.3856 57.2125C16.3856 57.2125 14.1769 58.3021 13.132 59.0166C13.9446 59.6814 14.8641 60.1931 15.6718 60.8218C17.3428 62.0031 18.4705 63.7401 19.5536 64.9163C24.6611 62.3777 29.8054 62.5187 34.2478 64.0598C33.7302 64.6058 33.1524 65.0786 32.6189 65.6706C33.9102 69.067 33.4968 75.8126 33.4318 75.996C36.1201 73.243 40.119 67.3394 39.5855 59.0275L40.7171 57.8906C40.6964 57.8324 37.8877 56.3251 36.7171 55.9968L37.0404 54.9636L34.2364 54.0854L34.5494 53.2653L37.342 54.0761C37.8709 52.7747 38.4311 50.9515 38.4311 50.9515C39.5464 52.6242 40.7758 54.1455 43.3063 55.6935L54.2699 45.1784L54.1993 38.4171L46.7343 30.9342L49.8416 29.311C49.5431 29.0696 49.11 28.841 48.8029 28.5992C48.7808 28.5819 48.8649 28.5296 48.8429 28.5126C48.7649 28.4525 48.7074 28.4037 48.628 28.3483C48.6101 28.3358 48.5543 28.4167 48.5366 28.4043C47.4823 27.6631 46.4275 26.9338 45.5975 26.047C45.5765 26.0247 45.6082 25.9325 45.5872 25.9101C45.1559 25.4482 44.7261 25.0185 44.2874 24.5638C44.084 24.358 43.748 23.8691 43.7481 23.8691L43.7289 23.7079L43.2576 23.1133C41.7397 24.0108 35.2676 26.2634 29.0051 23.7691L30.1954 22.5762C29.8786 21.8099 29.6728 20.955 29.5912 20.2547C29.2637 17.446 29.3893 12.3881 29.3893 12.3881H29.3886ZM49.1299 13.9786C49.4164 13.9786 49.649 14.2119 49.649 14.4991C49.649 14.7864 49.4164 15.0196 49.1299 15.0196C48.8433 15.0196 48.6119 14.7864 48.6119 14.4991C48.6119 14.2119 48.8433 13.9786 49.1299 13.9786ZM50.7536 14.5976C51.0178 15.8913 51.5995 17.7696 52.1785 19.0359L51.4886 19.1126C50.927 18.7468 50.3337 18.2132 50.2714 17.4562C48.7528 17.4679 48.3079 15.0799 48.8626 15.3665C48.7919 16.1821 49.3757 16.5036 49.9485 16.4235C50.4416 16.3546 50.868 15.6725 50.2812 14.9191C50.542 14.8173 50.6695 14.7403 50.7536 14.5976V14.5976ZM29.2334 18.4231C29.334 20.0774 29.6573 21.2839 29.9596 22.5337L26.9593 25.372C27.1933 22.7815 27.9528 20.4662 29.2334 18.4231ZM43.624 23.8722L44.0045 24.4197C39.6683 26.9723 32.2675 27.1531 27.7587 25.0008L28.3572 24.4295C32.322 26.2242 38.7775 26.3577 43.624 23.8722V23.8722ZM15.4616 24.724C15.0248 24.7188 14.5201 24.8857 13.9859 25.2937C11.9967 24.3853 10.6938 26.5089 11.9241 27.9154C11.742 28.9278 11.6048 29.1166 12.3648 30.1415C11.5575 30.2445 10.5375 30.0326 9.67071 29.8989C9.81718 31.3981 11.9591 31.747 12.8506 31.5822C13.8132 31.3731 14.7208 31.8506 14.7603 31.8616C15.3263 32.02 15.678 32.2932 16.2361 32.4246C17.2865 32.5498 18.4982 31.7151 18.6846 30.2525C18.0554 30.4138 17.3644 30.641 16.7515 30.7755C16.1513 30.9232 15.6987 31.069 15.2415 31.4277L15.2031 30.1892C18.3193 30.3378 16.9633 27.368 16.7868 27.2404C17.3658 26.0687 16.6697 24.7393 15.4621 24.724H15.4616ZM43.7859 24.8173L44.4633 26.4514L42.6626 27.0636L42.2022 25.4638L43.7859 24.8173ZM15.3318 24.8666C16.391 24.8769 17.338 25.9951 16.3207 27.2472C18.2926 28.9906 15.7659 30.8588 14.5626 29.5619C12.9606 31.0325 11.2585 29.4962 12.1535 27.8947C10.4451 26.3621 12.5523 24.3067 13.9916 25.6307C14.3451 25.086 14.8504 24.8619 15.3318 24.8666V24.8666ZM27.6289 25.4648C27.8825 25.4648 28.0878 25.671 28.0878 25.9252C28.0878 26.1793 27.8825 26.3855 27.6289 26.3855C27.3753 26.3855 27.1695 26.1793 27.1695 25.9252C27.1695 25.671 27.3753 25.4648 27.6289 25.4648ZM15.9288 25.4939C15.919 25.4896 15.9078 25.4908 15.8961 25.499C15.4623 25.8047 15.2113 26.2645 14.8231 26.6339C14.305 26.4639 13.9235 26.5791 13.582 26.7956C13.0608 26.5204 12.92 26.3087 12.4047 26.06C12.2371 25.9791 12.2289 26.1694 12.2786 26.2196C12.6488 26.5938 12.9949 26.75 13.4164 27.0719C13.3762 27.4617 13.4395 27.7785 13.5867 28.0735C13.2968 28.6242 13.0223 28.7793 12.7728 29.3701C12.7346 29.4603 12.8176 29.5114 12.8833 29.4567C13.3189 29.0936 13.5269 28.7539 13.8878 28.2799C14.4421 28.4723 14.6365 28.3555 14.9841 28.2316C15.3278 28.4957 15.6005 28.7524 16.0383 29.0025C16.1752 29.0807 16.1822 28.8768 16.1774 28.8729C15.8526 28.6065 15.491 28.3451 15.1777 28.0284C15.366 27.3244 15.1747 27.0924 15.0297 26.8646C15.2987 26.4782 15.6514 26.144 15.9823 25.5949C15.9775 25.5643 15.9581 25.5066 15.9288 25.4939V25.4939ZM28.6645 25.5991L30.2866 26.1046L29.929 27.7951L28.2004 27.2363L28.6645 25.5991ZM40.4015 26.0143L40.8536 27.6634L39.1666 28.1129L38.8899 26.3622L40.4015 26.0143ZM41.5861 26.0418C41.8397 26.0418 42.0449 26.2475 42.0449 26.5017C42.0449 26.7558 41.8397 26.962 41.5861 26.962C41.3325 26.962 41.1267 26.7558 41.1267 26.5017C41.1267 26.2475 41.3325 26.0418 41.5861 26.0418ZM45.4216 26.1004L46.8397 27.3664L45.2653 28.1632L44.5075 26.5141L45.4216 26.1004ZM32.0474 26.4664L33.6955 26.6608L33.6285 28.4359L31.7375 28.1824L32.0474 26.4664ZM26.3307 26.4851L28.1646 27.2917L27.5038 29.1435L25.6258 28.3353L26.3307 26.4851ZM31.0575 26.6287C31.7333 26.7347 31.5514 27.5343 31.0575 27.5494C30.8039 27.5494 30.5981 27.3432 30.5981 27.089C30.5981 26.8349 30.8039 26.6287 31.0575 26.6287ZM36.9854 26.6318L37.2112 28.4079L35.5003 28.5121L35.4635 26.707L36.9854 26.6318ZM14.329 26.7837C14.6968 26.7837 14.996 27.0812 14.996 27.4499C14.996 27.8185 14.6968 28.1181 14.329 28.1181C13.9613 28.1181 13.6645 27.8185 13.6645 27.4499C13.6645 27.0812 13.9613 26.7837 14.329 26.7837ZM38.1622 26.834C38.4157 26.834 38.6211 27.0402 38.6211 27.2943C38.6211 27.5485 38.4157 27.7542 38.1622 27.7542C37.9086 27.7542 37.7028 27.5485 37.7028 27.2943C37.7028 27.0402 37.9086 26.834 38.1622 26.834ZM34.6044 26.9833C34.8579 26.9833 35.0638 27.1895 35.0638 27.4436C35.0638 27.6978 34.8579 27.9035 34.6044 27.9035C34.3507 27.9035 34.145 27.6978 34.145 27.4436C34.145 27.1895 34.3507 26.9833 34.6044 26.9833ZM42.6616 27.0968L43.3281 28.9227L41.4589 29.5267L40.9299 27.6515L42.6616 27.0968ZM14.3399 27.1093C14.1455 27.1092 13.9879 27.2666 13.9879 27.4607C13.9879 27.6549 14.1455 27.8122 14.3399 27.8122C14.5341 27.8122 14.6918 27.6549 14.6918 27.4607C14.6918 27.2666 14.5341 27.1093 14.3399 27.1093ZM43.9728 27.1461C44.2264 27.1461 44.4322 27.3522 44.4322 27.6064C44.4322 27.8606 44.2264 28.0668 43.9728 28.0668C43.7192 28.0668 43.5139 27.8606 43.5139 27.6064C43.5139 27.3522 43.7192 27.1461 43.9728 27.1461ZM47.2051 27.664L48.412 28.5199L47.814 28.8543C47.6572 28.4779 47.3807 28.0317 47.2051 27.664ZM29.9399 27.8299L31.723 28.2171L31.4504 30.0897L29.5049 29.7009L29.9399 27.8299ZM24.6364 27.9325L25.5832 28.3789L24.9588 29.9393L23.4275 29.1213L24.6364 27.9325ZM28.8695 28.0336C29.1231 28.0336 29.3284 28.2398 29.3284 28.494C29.3284 28.7481 29.1231 28.9543 28.8695 28.9543C28.616 28.9543 28.4107 28.7481 28.4107 28.494C28.4107 28.2398 28.616 28.0336 28.8695 28.0336ZM39.1677 28.1363L39.4859 30.0088L37.4749 30.2924L37.3503 28.383L39.1677 28.1363ZM46.698 28.172C46.9516 28.172 47.1564 28.3782 47.1564 28.6324C47.1564 28.8866 46.9516 29.0927 46.698 29.0927C46.4444 29.0927 46.2386 28.8866 46.2386 28.6324C46.2386 28.3782 46.4444 28.172 46.698 28.172ZM45.2716 28.186L45.9365 29.8361L43.9692 30.661L43.3868 29.0093L45.2716 28.186ZM40.2541 28.3047C40.5077 28.3047 40.713 28.5109 40.713 28.7651C40.713 29.0193 40.5077 29.2254 40.2541 29.2254C40.0005 29.2254 39.7947 29.0193 39.7947 28.7651C39.7947 28.5109 40.0005 28.3047 40.2541 28.3047ZM33.6098 28.4924L35.492 28.5266L35.4702 30.4199L33.4084 30.3623L33.6098 28.4924ZM48.6679 28.6241L49.4081 29.1394C41.7867 34.0525 31.0804 34.6612 22.7252 29.8253C22.7252 29.8253 23.0672 29.4845 23.2614 29.2845C30.7934 33.8034 41.7892 33.169 48.6679 28.6241ZM32.5888 28.8377C32.8424 28.8377 33.0477 29.0438 33.0477 29.298C33.0477 29.5522 32.8424 29.7584 32.5888 29.7584C32.3352 29.7584 32.1294 29.5522 32.1294 29.298C32.1294 29.0438 32.3352 28.8377 32.5888 28.8377ZM36.4539 28.9419C36.7074 28.9419 36.9133 29.148 36.9133 29.4022C36.9133 29.6564 36.7074 29.8626 36.4539 29.8626C36.2003 29.8626 35.995 29.6564 35.995 29.4022C35.995 29.148 36.2003 28.9419 36.4539 28.9419ZM27.4872 29.1954L29.453 29.7651L29.1182 31.3209L26.9619 30.6993L27.4872 29.1954ZM26.1859 29.2063C26.4395 29.2063 26.6453 29.4124 26.6453 29.6666C26.6453 29.9208 26.4395 30.1265 26.1859 30.1265C25.9323 30.1265 25.7275 29.9208 25.7275 29.6666C25.7275 29.4124 25.9323 29.2063 26.1859 29.2063ZM41.4578 29.5375L41.9276 31.2841L39.7537 31.7496L39.4916 30.0321L41.4578 29.5375ZM42.7062 29.791C42.9598 29.791 43.1656 29.9972 43.1656 30.2514C43.1656 30.5056 42.9598 30.7118 42.7062 30.7118C42.4527 30.7118 42.2474 30.5056 42.2474 30.2514C42.2474 29.9972 42.4527 29.791 42.7062 29.791ZM14.3046 30.0622L14.2998 31.2867C13.9393 30.9888 13.5321 30.672 13.1152 30.3515C13.5404 30.374 13.9356 30.2562 14.3039 30.0622H14.3046ZM9.83007 30.0922C9.92926 30.0922 10.1613 30.173 10.4379 30.1721C11.3231 30.1692 12.9762 30.446 13.4652 30.8486C13.6282 30.9823 13.8723 31.1008 14.0051 31.3168C14.0051 31.4197 13.8595 31.4228 13.6459 31.2898C13.236 31.0346 12.5543 30.807 11.6417 30.6801C11.4768 30.6573 11.4557 30.6639 11.4553 30.7418C11.4553 30.838 11.6075 30.894 12.0881 30.973C12.7101 31.0754 12.8426 31.1369 12.9804 31.1747C13.3498 31.2761 13.1136 31.4115 12.7333 31.4479C11.1814 31.5936 10.0198 30.9242 9.78595 30.1596C9.76708 30.1095 9.78596 30.0927 9.83007 30.0922V30.0922ZM31.4494 30.1197L33.4017 30.3732L33.3129 32.0114L31.1758 31.7662L31.4494 30.1197ZM14.628 30.1778C14.699 30.1831 14.7656 30.2106 14.8455 30.2623C15.2098 30.4983 14.9518 31.3447 14.766 31.5843C14.6458 31.7188 14.3643 31.6475 14.3658 31.4583C14.4083 31.2884 14.3483 30.4788 14.385 30.2281C14.4816 30.1895 14.5569 30.1725 14.6279 30.1778H14.628ZM37.4723 30.3349L37.573 32.0239L35.4427 32.1208L35.4592 30.4624L37.4723 30.3349ZM30.2856 30.4484C30.5391 30.4484 30.744 30.6546 30.744 30.9088C30.744 31.1629 30.5391 31.3691 30.2856 31.3691C30.032 31.3691 29.8257 31.1629 29.8257 30.9088C29.8257 30.6546 30.032 30.4484 30.2856 30.4484ZM18.4157 30.4717C18.4944 31.7111 16.5955 32.5521 15.8852 32.1716C15.5706 32.0032 15.7012 31.8993 16.3248 31.773C17.1319 31.5588 17.6641 31.3502 17.6646 31.1991C17.6646 31.1064 17.542 31.1179 17.213 31.2406C16.7065 31.4111 16.1804 31.4842 15.6968 31.7019C15.3352 31.8665 15.1946 31.9243 15.1133 31.8253C14.943 31.6179 15.7461 31.0945 16.5792 30.9554C17.2043 30.8511 17.8346 30.5169 18.4157 30.4717V30.4717ZM38.647 30.6267C38.9006 30.6267 39.1059 30.8329 39.1059 31.0871C39.1059 31.3413 38.9006 31.5469 38.647 31.5469C38.3934 31.5469 38.1881 31.3413 38.1881 31.0871C38.1881 30.8329 38.3934 30.6267 38.647 30.6267ZM34.377 30.9637C34.6307 30.9637 34.8369 31.1699 34.8369 31.4241C34.8369 31.6783 34.6307 31.8839 34.377 31.8839C34.1235 31.8839 33.9182 31.6783 33.9182 31.4241C33.9182 31.1699 34.1235 30.9637 34.377 30.9637ZM44.6071 31.7455C47.6798 34.6784 51.0479 38.0551 53.8261 40.8324C53.8221 42.2856 53.8136 45.1923 53.8136 45.1923L43.2051 55.2995C41.2841 54.1239 39.658 52.6541 38.1606 50.0438C38.3294 49.8977 38.5428 49.7706 38.6709 49.6109L38.0526 49.9769C36.0957 46.8393 35.266 40.5879 38.5899 35.5766L35.2314 35.7L35.779 34.5538L39.4355 34.3537L40.9138 32.7637C40.9138 32.7637 41.3826 32.6767 41.7708 32.5869C42.156 32.4978 42.9417 32.2723 43.5181 32.0856C44.0944 31.8988 44.585 31.7454 44.6071 31.7455H44.6071ZM19.8063 32.5579C19.8063 32.5579 22.9637 34.2784 24.7169 37.7234C19.0497 42.6104 16.9144 48.301 16.4323 54.2243C13.3478 51.3321 11.7886 49.7325 9.00162 46.9239L9.10232 42.7324L19.8063 32.5579ZM31.7266 33.1043C30.9097 34.8551 30.2066 36.7735 29.5771 38.8287L28.6988 38.5685C28.6988 38.5685 29.2671 38.3299 29.52 38.1791L29.0642 37.4424L29.929 37.0863L29.4172 36.4616L30.2944 35.952L29.8558 35.4004L30.6599 34.9976L30.1605 34.4221L31.0035 33.9509L30.5638 33.4003L31.7266 33.1043ZM31.9955 33.1089C31.9955 33.1089 32.1087 33.1307 32.2415 33.1572C32.2734 33.145 32.0831 33.616 32.1034 33.6326C32.4104 33.6959 32.4283 33.6784 32.5203 33.7062L32.7539 33.2214L33.138 33.294C32.3635 35.0463 31.535 36.9635 31.0596 39.0387L30.6074 38.9443C30.6074 38.9443 30.7394 38.5065 30.7398 38.4482C30.6867 38.4371 30.432 38.3298 30.3531 38.2978C30.326 38.3663 30.1647 38.8728 30.1647 38.8728L29.807 38.8634C30.3929 36.5976 31.414 34.0847 31.9955 33.1089V33.1089ZM33.4671 33.1763L34.2691 33.842L33.3596 34.1966L33.8304 34.8254L32.866 35.1749L33.4193 35.8281L32.4647 36.1816L33.0342 36.9717L32.0406 37.3071L32.6677 38.0018L31.7717 38.4223L32.3085 38.9552C32.3085 38.9552 31.7496 39.1398 31.7172 39.1481C31.6273 39.1711 31.2511 39.0786 31.2511 39.0786C31.8177 37.0564 32.5176 35.0066 33.4671 33.1763V33.1763ZM13.9542 33.5133C13.7327 33.6574 13.8594 33.971 13.5815 34.2391C13.5372 34.2872 13.534 34.3978 13.5166 34.4942C13.5033 34.5673 13.283 35.4419 13.283 35.4419C13.283 35.4419 13.3389 35.3752 13.4268 35.0961C13.5018 34.8579 13.5668 34.4058 13.6074 34.3304C13.8122 34.2676 13.8436 33.5979 14.0513 33.6896C14.1712 33.7426 14.148 33.8522 14.0803 34.109C13.9325 34.6222 13.8744 34.8385 14.1281 34.4885C14.507 34.0312 14.5446 33.6184 14.1177 33.531C14.0727 33.5222 13.9804 33.5146 13.9542 33.5138L13.9542 33.5133ZM19.6849 33.7036L9.77245 43.0342L9.74183 46.5159L13.1922 50.0215L15.6407 52.4005C16.5295 47.0719 18.5683 41.9887 23.5884 37.5897C22.8192 36.3498 21.5016 34.7877 19.6849 33.7036ZM46.4058 33.7995C40.5812 36.5437 39.241 42.1717 41.0447 47.2666C43.8203 43.6879 45.9997 40.3259 46.4058 33.7995ZM25.6756 34.0846L28.3204 34.9379L27.3242 38.3429L24.9427 37.6182L24.6992 37.0158L25.6756 34.0846ZM46.1125 34.1733C45.8594 38.7268 44.1469 43.1744 41.1666 46.6642C39.6597 42.9374 40.5657 36.9788 46.1125 34.1733ZM31.8657 34.1982L31.6996 34.6217L32.0661 34.7254L32.2213 34.2951L31.8657 34.1982ZM31.5003 35.1982L31.3497 35.628L31.725 35.7555L31.8657 35.3185L31.5003 35.1982ZM47.1034 35.2765C46.2881 41.5928 42.8847 47.3403 39.2886 50.2693C40.4346 52.1328 41.7819 53.331 43.1511 54.3316L53.2805 44.6039L53.2416 41.3591L47.1034 35.2765ZM20.0581 35.4719C20.4067 35.4491 20.506 36.3138 20.3337 36.9531C20.2715 37.184 20.2496 37.3014 20.2496 37.3014C20.2496 37.3014 20.3663 37.193 20.6743 37.0241C22.6647 36.0289 22.0232 37.5421 21.0854 38.1019C20.8758 38.2138 20.6602 38.3466 20.6602 38.3466C20.6602 38.3466 20.8587 38.392 21.0745 38.4321C22.2824 38.6837 22.0254 39.3926 20.7656 39.2823C20.5793 39.2661 20.3603 39.2299 20.3602 39.2403C20.3602 39.2507 20.436 39.5168 20.5232 39.737C20.9479 40.8094 20.1557 40.8931 19.6345 40.2113C19.562 40.1164 19.3978 39.8541 19.3978 39.8541C19.3978 39.8541 19.3461 40.0529 19.3148 40.2445C18.8646 41.9253 17.754 41.8824 18.1686 40.1771C18.2205 40.0009 18.2834 39.6851 18.2834 39.6851C18.2834 39.6851 18.034 39.8367 17.7622 39.9584C16.3237 40.6022 16.09 39.9398 17.3968 38.9708C17.7686 38.695 17.8951 38.5866 17.8951 38.5866C17.6636 38.5688 17.4497 38.5334 17.2613 38.486C16.2188 38.2238 15.9413 37.5987 17.6117 37.628C17.8584 37.6331 18.1089 37.6498 18.1089 37.6498C18.1089 37.6498 18.0268 37.2905 17.9397 37.0199C17.5368 35.767 18.3494 35.6181 19.0345 36.7405C19.1802 36.9792 19.2213 36.9805 19.2213 36.9805C19.314 36.3297 19.6239 35.5121 20.0581 35.4719V35.4719ZM38.2494 35.7068C37.5536 36.9391 36.9467 38.1639 36.6574 39.4415L33.9509 39.3948C34.1381 38.262 34.6166 37.0835 35.1878 35.8374C36.2896 35.8072 37.283 35.7595 38.2494 35.7068V35.7068ZM31.1032 36.2527L30.9474 36.7063L31.3399 36.8271L31.4826 36.3854L31.1032 36.2527ZM10.8625 37.1034C10.5725 37.8588 10.4753 38.6998 10.3144 39.3741C10.2465 39.765 10.3145 39.928 10.5495 40.0154C10.8821 40.1398 11.3619 39.9701 11.6303 39.5851C11.7816 39.368 11.8922 38.9196 11.9152 38.1278L11.9413 37.4222C11.5299 37.3456 11.2488 37.2354 10.8631 37.1034H10.8625ZM30.7372 37.2019L30.6074 37.6182L30.9864 37.7592L31.1307 37.3388L30.7372 37.2019ZM48.2641 37.3579C48.724 37.3694 48.81 37.411 49.227 37.6581L50.0321 38.4881C49.8211 38.6906 49.6884 38.9754 49.6884 39.2911C49.6884 39.9052 50.1857 40.4037 50.7982 40.4037C51.1018 40.4037 51.5774 40.0823 51.5774 40.0823L52.8523 41.4068C52.0503 41.7173 51.4579 41.1134 51.0261 40.5675C50.9835 41.1097 50.5847 42.8463 49.7689 42.9875C49.1442 42.883 49.7803 40.3961 49.787 40.4534C49.3575 40.9086 47.2645 41.393 47.4111 40.8848C47.7024 39.8752 49.268 39.4862 49.474 39.3108C48.6418 38.809 47.5872 37.4173 48.2629 37.3579H48.2641ZM10.9638 37.3911C11.2288 37.4097 11.4106 37.4416 11.5908 37.5171C11.6747 37.5397 11.6786 37.6096 11.6879 37.6757C11.6908 37.9739 11.7637 38.8488 11.488 38.8577C11.1818 38.8514 10.8944 38.917 10.6928 39.0713C10.5306 39.1954 10.4772 39.1062 10.521 38.7883C10.5634 38.4802 10.7157 37.8326 10.7816 37.5705C10.7919 37.4624 10.8783 37.3862 10.9638 37.3911V37.3911ZM19.2338 37.4025C18.6213 37.4025 18.1245 37.9005 18.1245 38.5145C18.1245 39.1286 18.6213 39.6271 19.2338 39.6271C19.8464 39.6271 20.3436 39.1286 20.3436 38.5145C20.3436 37.9005 19.8464 37.4025 19.2338 37.4025ZM19.2338 37.7913C19.632 37.7913 19.9558 38.1154 19.9558 38.5145C19.9558 38.9137 19.632 39.2367 19.2338 39.2367C18.8357 39.2367 18.5128 38.9137 18.5128 38.5145C18.5128 38.1154 18.8357 37.7913 19.2338 37.7913ZM24.9588 37.8048C27.5018 42.2053 27.2073 48.2456 24.2092 52.6395L27.4322 52.4135L27.0086 53.2403L23.5723 53.5763C23.0473 54.058 22.5694 54.6085 22.0529 55.1238L22.0479 55.3063C20.8698 55.5805 19.6909 55.8958 18.4901 56.3296C17.8562 55.7058 16.6639 54.4584 16.6717 54.427L16.7486 54.0237C24.921 49.8439 22.5303 41.4611 21.955 40.7718C22.9287 39.6663 23.999 38.6239 24.9589 37.8048H24.9588ZM19.2219 38.3222C19.1716 38.3222 19.1234 38.3422 19.0879 38.3776C19.0524 38.4131 19.0324 38.4612 19.0324 38.5114C19.0323 38.5363 19.0372 38.561 19.0467 38.584C19.0562 38.607 19.0701 38.6279 19.0877 38.6456C19.1053 38.6632 19.1262 38.6772 19.1492 38.6867C19.1723 38.6963 19.1969 38.7012 19.2219 38.7012C19.2468 38.7012 19.2714 38.6963 19.2945 38.6867C19.3175 38.6772 19.3384 38.6632 19.356 38.6456C19.3736 38.6279 19.3876 38.607 19.397 38.584C19.4065 38.561 19.4114 38.5363 19.4113 38.5114C19.4113 38.4612 19.3913 38.4131 19.3558 38.3776C19.3203 38.3422 19.2721 38.3222 19.2219 38.3222V38.3222ZM47.6401 38.6047C47.9712 38.6047 48.2386 38.8743 48.2386 39.2061C48.2386 39.538 47.9712 39.8075 47.6401 39.8075C47.3091 39.8075 47.0406 39.538 47.0406 39.2061C47.0406 38.8743 47.3091 38.6047 47.6401 38.6047ZM50.3046 38.7665L50.6835 39.1574C50.6624 39.1751 50.6454 39.1973 50.6338 39.2223C50.6221 39.2473 50.6161 39.2745 50.616 39.302C50.6161 39.3522 50.636 39.4003 50.6716 39.4358C50.7071 39.4713 50.7553 39.4912 50.8055 39.4913C50.832 39.4912 50.8583 39.4856 50.8825 39.4748C50.9068 39.464 50.9284 39.4482 50.9462 39.4285L51.309 39.8034C51.1787 39.9323 50.9996 40.0133 50.8019 40.0133C50.4037 40.0133 50.0804 39.6903 50.0804 39.2911C50.0804 39.0852 50.1667 38.8983 50.3046 38.7665V38.7665ZM15.812 38.8956C16.143 38.8956 16.41 39.1636 16.41 39.4954C16.41 39.8272 16.143 40.0968 15.812 40.0968C15.481 40.0968 15.2119 39.8272 15.2119 39.4954C15.2119 39.1636 15.481 38.8956 15.812 38.8956ZM11.1911 39.1278C11.2492 39.1244 11.3036 39.1305 11.3515 39.1475C11.6322 39.2417 11.5668 39.5046 11.2041 39.7359C10.9694 39.8856 10.7544 39.9183 10.548 39.8075C10.2057 39.6238 10.7846 39.1513 11.1911 39.1278V39.1278ZM15.9848 40.6183L12.3736 44.1208C12.6008 43.5388 12.6092 42.9587 12.6264 42.3773C13.713 42.4896 14.1681 41.9368 14.0092 40.7992C14.7111 40.8412 15.4384 40.7669 15.9848 40.6183ZM21.7711 41.0185C23.4455 45.8048 21.9915 50.8699 16.7541 53.8034C16.9698 49.2169 18.8898 44.8322 21.7711 41.0185ZM26.5415 41.4374C29.4156 42.1916 32.687 42.5434 36.0838 42.5458C36.1093 43.8415 36.1714 45.2119 36.4362 46.5345C33.5427 45.7758 30.3113 45.423 26.7808 45.4853C26.9272 44.1158 26.6926 42.5621 26.5415 41.4374ZM47.854 42.1456L44.793 45.7331L44.9217 43.7745C45.9525 43.906 46.3193 43.3608 46.1675 42.284C46.7298 42.3538 47.2917 42.2549 47.854 42.1456V42.1456ZM18.1136 42.3441L17.8717 43.7771C17.2609 43.7935 16.6615 44.0112 16.6695 45.3785L14.8439 45.3562L18.1136 42.3441ZM51.7964 42.6085C52.1275 42.6085 52.3955 42.8781 52.3955 43.2099C52.3955 43.5417 52.1275 43.8113 51.7964 43.8113C51.4654 43.8113 51.1969 43.5417 51.1969 43.2099C51.1969 42.8781 51.4654 42.6085 51.7964 42.6085ZM15.337 42.791C15.6681 42.791 15.9371 43.0606 15.9371 43.3924C15.9371 43.7242 15.6681 43.9922 15.337 43.9922C15.006 43.9922 14.738 43.7242 14.738 43.3924C14.738 43.0606 15.006 42.791 15.337 42.791ZM50.4598 43.4074L50.1395 45.577C49.3057 45.5035 48.6101 45.6322 48.8242 47.1027C48.1186 47.0335 47.1386 47.2008 46.4821 47.2577L50.4598 43.4074ZM47.4709 43.8003C47.8019 43.8003 48.0705 44.0699 48.0705 44.4017C48.0705 44.7335 47.8019 45.0015 47.4709 45.0015C47.1399 45.0015 46.8709 44.7335 46.8709 44.4017C46.8709 44.0699 47.1399 43.8003 47.4709 43.8003ZM10.943 44.2659C11.274 44.2659 11.543 44.5354 11.543 44.8672C11.543 45.1991 11.274 45.4671 10.943 45.4671C10.612 45.4671 10.345 45.1991 10.345 44.8672C10.345 44.5354 10.612 44.2659 10.943 44.2659ZM12.9311 44.9772C13.6966 45.1494 13.3432 46.9381 13.1709 47.4246C13.1579 47.4379 15.3061 46.2959 15.4341 46.7999C15.5181 47.8104 13.6552 48.5149 13.6552 48.5149C13.6552 48.5149 14.9106 49.6084 14.9462 50.2957C14.9494 50.7403 14.4213 50.6581 13.7357 50.0945C13.4426 49.8059 13.2163 49.5895 13.0147 49.389C13.2502 49.1849 13.3983 48.8828 13.3983 48.5465C13.3983 47.9324 12.902 47.4345 12.2895 47.4345C11.9512 47.4345 11.648 47.5864 11.4444 47.8259C11.2854 47.6724 11.1053 47.4935 10.8636 47.2644C10.4675 46.8932 10.1897 46.5982 10.2298 46.4645C10.7523 46.0957 11.7918 47.0867 11.8846 47.1768C11.8067 46.9837 12.3814 45.0799 12.9311 44.9772V44.9772ZM44.4379 46.507C45.0025 46.507 44.7306 47.6667 44.5563 48.2303C44.5563 48.2303 44.8632 47.9897 44.999 47.9259C45.99 47.4607 46.3593 47.9874 45.8597 48.5983C45.6196 48.9126 45.2925 48.9825 45.0266 49.2464C45.7007 49.2913 46.2524 49.4055 46.6212 49.9929C46.3369 50.5132 45.4084 50.3725 44.6814 50.193C45.1072 50.6982 45.2983 52.0296 44.7722 52.0448C44.2407 51.9024 43.9813 51.31 43.7735 50.8846C43.6029 51.3587 43.4377 51.866 43.0577 52.2185C42.6809 52.568 42.4875 52.2782 42.5069 51.6861C42.5146 51.4506 42.687 50.7477 42.687 50.7477C40.4548 51.5032 40.6215 50.481 42.3637 49.5859C41.2906 49.073 40.6381 48.6112 42.4633 48.5066C42.415 48.4628 42.0967 47.4831 42.4373 47.2536C42.7542 47.0403 43.4295 47.7727 43.4619 47.8083C43.6647 47.1122 43.8894 46.5074 44.4378 46.507H44.4379ZM12.2916 47.815C12.6897 47.815 13.0136 48.1391 13.0136 48.5382C13.0136 48.7677 12.906 48.9716 12.7395 49.1038C12.5613 48.9256 12.4792 48.8441 12.3507 48.715C12.3743 48.6974 12.3934 48.6745 12.4065 48.6482C12.4197 48.6219 12.4265 48.593 12.4265 48.5636C12.4265 48.5134 12.4066 48.4653 12.371 48.4298C12.3355 48.3943 12.2873 48.3744 12.2371 48.3744C12.2077 48.3745 12.1788 48.3814 12.1526 48.3945C12.1264 48.4076 12.1036 48.4266 12.086 48.4501C11.9805 48.3445 11.8364 48.1989 11.7258 48.0903C11.8579 47.9226 12.0621 47.815 12.2916 47.815V47.815ZM52.2356 47.8596C51.8468 47.8951 51.6051 48.2408 51.4253 48.5423C51.3888 48.6035 51.3211 48.6254 51.296 48.7062C51.1349 49.2261 50.9944 49.8485 50.9083 50.6238C51.1546 50.7253 51.7101 50.8968 51.9558 50.8047C52.025 50.7757 52.0036 50.5963 52.0269 50.5372C52.173 50.1425 53.1053 47.7948 52.2356 47.8596V47.8596ZM52.1229 47.9804C52.2241 47.9703 52.3149 48.0174 52.3731 48.1592C52.4706 48.3965 52.1573 48.6544 51.7518 48.6528C51.5107 48.6528 51.4322 48.6856 51.5395 48.476C51.6274 48.3008 51.9004 48.0024 52.1229 47.9804ZM46.9337 47.9918C47.2647 47.9918 47.5337 48.2614 47.5337 48.5932C47.5337 48.925 47.2646 49.193 46.9337 49.193C46.6026 49.193 46.3346 48.925 46.3346 48.5932C46.3346 48.2613 46.6026 47.9918 46.9337 47.9918ZM15.3152 48.0343C15.6462 48.0343 15.9153 48.3023 15.9153 48.6341C15.9153 48.9659 15.6462 49.2355 15.3152 49.2355C14.9842 49.2355 14.7167 48.9659 14.7167 48.6341C14.7167 48.3023 14.9842 48.0343 15.3152 48.0343ZM43.6723 48.278C43.0597 48.278 42.563 48.7759 42.563 49.39C42.563 50.0041 43.0597 50.5025 43.6723 50.5025C44.2848 50.5025 44.7821 50.0041 44.7821 49.39C44.7821 48.7759 44.2848 48.278 43.6723 48.278ZM28.8446 48.4273C28.5529 49.7088 28.104 50.9338 27.5371 52.1459C26.4675 52.2105 25.3118 52.2608 24.5492 52.3693C25.8192 50.1396 25.8497 49.6152 26.3198 48.434L28.8446 48.4273ZM30.6827 48.6082C30.9831 48.6438 31.312 48.6894 31.6088 48.7466C31.0629 50.673 30.3415 52.6504 29.4094 54.554L28.8446 54.4664L28.5778 54.1351L29.4738 53.7764L28.7751 53.0609L29.9326 52.7105L29.2204 52.0065L30.364 51.7203L29.752 50.9748L30.7782 50.5735L30.1263 49.7301L31.2194 49.4283L30.6827 48.6082ZM43.6723 48.6668C44.0704 48.6668 44.3938 48.9908 44.3938 49.39C44.3938 49.7891 44.0704 50.1122 43.6723 50.1122C43.2741 50.1122 42.9518 49.7891 42.9518 49.39C42.9518 48.9908 43.2741 48.6668 43.6723 48.6668ZM31.8138 48.7767L32.1958 48.8384L32.0775 49.2479L32.5125 49.3407L32.6532 48.8985C32.6532 48.8985 33.0021 48.9307 33.0393 48.9587C32.5842 50.8183 30.9753 54.7105 30.9547 54.6898L30.5405 54.6281L30.65 54.2352L30.2643 54.1802C30.2643 54.1802 30.1318 54.459 30.0785 54.6027L29.6674 54.5685C30.6637 52.2892 31.342 50.5397 31.8138 48.7767V48.7767ZM52.0658 48.9244C52.3714 48.9218 52.3532 49.0808 52.1318 49.6585C51.9236 50.2012 51.8456 50.4187 51.7445 50.489C51.5037 50.6604 50.9846 50.5171 51.0266 50.2671C51.1631 49.4563 51.2119 49.1102 51.4206 49.0001C51.6382 48.9572 51.85 48.9254 52.0658 48.9244V48.9244ZM33.3472 48.9918L34.3417 49.1847L33.5102 49.6808L34.0386 50.2998L33.0165 50.7368L33.6368 51.3802L32.65 51.7845L33.2501 52.4927L32.2265 52.9256L32.9236 53.5311L31.7728 53.8951L32.2088 54.5664L31.7759 54.809L31.2412 54.7256C32.128 52.6517 32.6984 50.9457 33.3472 48.9918V48.9918ZM43.6759 49.1971C43.651 49.1971 43.6263 49.202 43.6033 49.2116C43.5803 49.2211 43.5593 49.2351 43.5417 49.2527C43.5241 49.2704 43.5102 49.2913 43.5007 49.3143C43.4912 49.3373 43.4864 49.362 43.4864 49.3868C43.4864 49.437 43.5064 49.4852 43.5419 49.5206C43.5775 49.5561 43.6256 49.5761 43.6759 49.5761C43.7261 49.5761 43.7743 49.5561 43.8099 49.5206C43.8454 49.4852 43.8654 49.437 43.8654 49.3868C43.8654 49.362 43.8606 49.3373 43.8511 49.3143C43.8416 49.2913 43.8276 49.2704 43.81 49.2527C43.7924 49.2351 43.7715 49.2211 43.7485 49.2116C43.7255 49.202 43.7008 49.1971 43.6759 49.1971V49.1971ZM35.7915 49.4875L37.7397 50.0188L38.129 50.7161L37.2154 53.8106L34.6189 53.0459L35.7915 49.4875ZM31.9192 49.7861L31.7339 50.2941L32.1626 50.3833L32.3277 49.8602L31.9192 49.7861ZM31.5423 50.953L31.3565 51.4611L31.7593 51.5409L31.9498 51.0271L31.5423 50.953ZM31.1623 51.979L30.9724 52.4845L31.3643 52.5653L31.5517 52.0583L31.1623 51.979ZM49.4678 52.909C49.4678 52.9091 49.269 53.0534 49.2166 53.1174C49.2599 53.2334 49.3859 53.4121 49.3671 53.5291C49.3499 53.617 49.2525 53.688 49.1055 53.8448C48.7387 54.2728 48.6091 54.2258 48.8221 53.7691C48.8921 53.6255 48.9238 53.4928 48.9238 53.4928C48.839 53.6118 48.7752 53.7527 48.7178 53.8645C48.5967 54.098 48.4831 54.3186 48.4831 54.3186C48.7168 54.3995 48.8726 54.5738 49.0235 54.6867C49.0235 54.6867 49.0997 54.4793 49.1527 54.2813C49.2267 54.0051 49.3728 53.8915 49.5519 53.7966C49.6648 53.7365 49.7731 53.6276 49.7731 53.6276C49.576 53.4261 49.5528 53.1379 49.4678 52.909ZM30.7564 53.034L30.5555 53.5721L30.9464 53.668L31.1634 53.1185L30.7564 53.034ZM8.71197 54.387C8.67633 56.5306 8.74684 57.9418 8.672 60.2535L14.4613 67.7748L13.5587 68.0786C13.5587 68.0786 13.5483 68.1833 13.4995 68.1968C12.2624 68.5379 10.2562 68.8775 10.2562 68.8775C11.7486 72.2936 12.7168 76.5652 12.0492 80.8323L27.032 80.7929L8.71197 54.387ZM27.847 54.8282C32.203 54.8635 36.5225 55.9633 40.4 58.0196L39.8835 58.5386C32.2635 54.4044 21.7688 54.4206 14.1104 59.4261L13.4865 58.9673C17.9271 56.1153 22.9101 54.7882 27.847 54.8282V54.8282ZM8.99175 55.1388L26.6271 80.5353L24.556 80.5653L9.00733 60.1742L8.99175 55.1388ZM46.8387 55.5981C44.9777 55.9399 44.0686 56.7031 44.2152 57.9579C44.2485 58.4594 44.8231 57.9299 44.8231 57.9289C44.8231 57.9289 45.8316 57.1079 47.7964 56.721L47.732 57.8729C45.3058 57.8639 45.438 59.7956 46.1358 60.7999C45.8915 61.2643 45.3571 62.8857 47.1169 63.5025C47.9947 63.6777 48.9245 62.9629 48.8958 62.926C50.515 63.6937 52.3944 62.4064 50.9291 60.1768C51.48 59.2044 51.0917 58.4827 50.5657 57.862C51.2961 57.9629 52.0127 58.1868 53.0277 58.1881C53.0306 57.1392 52.1629 56.6707 50.3555 56.5281C49.0753 56.7092 46.8387 55.5891 46.8387 55.5981V55.5981ZM27.3159 55.7158H27.577L27.4924 57.5074L25.523 57.5982L25.3953 55.8132C26.0734 55.7663 26.7032 55.7168 27.3159 55.7147V55.7158ZM29.6757 55.7635L31.7884 56.0211L31.4681 57.6961L29.5226 57.4867L29.6757 55.7635ZM46.8003 55.7836C46.9751 55.8036 46.9197 56.0062 46.6804 56.0532C46.3006 56.1277 45.3261 56.6963 45.3255 56.8438C45.3255 56.9389 45.3734 56.9254 45.7299 56.7344C46.2372 56.4802 46.7285 56.3092 47.255 56.0905C47.5824 55.9425 47.7451 56.045 47.6272 56.3248C47.5492 56.5099 47.5176 56.5241 46.7587 56.7655C45.9443 56.9962 45.5661 57.3116 44.8698 57.6904C44.4213 57.9232 44.3303 57.9238 44.3315 57.6106C44.3834 56.3143 45.8726 55.8947 46.8003 55.7836ZM28.527 56.0003C28.791 56.0003 29.0045 56.2151 29.0045 56.4799C29.0045 56.7447 28.791 56.9594 28.527 56.9594C28.2628 56.9594 28.0484 56.7447 28.0484 56.4799C28.0484 56.2151 28.2628 56.0003 28.527 56.0003ZM23.3003 56.1278L23.4576 57.7536L21.5214 58.2523L21.0786 56.5732C21.8193 56.3913 22.5596 56.2633 23.3003 56.1278ZM48.2418 56.2513C48.7725 56.3322 48.7301 57.5506 48.4587 57.7619C48.041 58.0635 47.7844 57.4331 47.9708 56.5965C48.0233 56.345 48.1205 56.257 48.2418 56.2513ZM24.3987 56.3171C24.6628 56.3171 24.8768 56.5314 24.8768 56.7961C24.8768 57.0609 24.6628 57.2756 24.3987 57.2756C24.1346 57.2756 23.9206 57.0609 23.9206 56.7961C23.9206 56.5314 24.1346 56.3171 24.3987 56.3171ZM33.8569 56.4565L36.0454 57.0553L35.5102 58.7537L33.4562 58.1741L33.8569 56.4565ZM32.6651 56.4897C32.9292 56.4897 33.1437 56.7039 33.1437 56.9687C33.1437 57.2335 32.9292 57.4483 32.6651 57.4483C32.401 57.4483 32.187 57.2335 32.187 56.9687C32.187 56.7039 32.401 56.4897 32.6651 56.4897ZM50.5709 56.6318C51.5139 56.6416 52.7576 57.116 52.7599 57.8469C52.7407 58.0546 50.7844 57.7788 49.881 57.4141C49.5605 57.2847 49.1697 56.8911 49.1704 56.7266C49.1704 56.6289 49.3619 56.6355 49.4398 56.7309C49.5669 56.8858 50.0173 57.0476 51.0521 57.3089C51.8469 57.5096 51.9263 57.5174 51.9267 57.3965C51.8002 57.1651 50.6372 57.0212 50.0601 56.832C49.5862 56.675 50.3784 56.6412 50.5709 56.6319V56.6318ZM48.9062 57.0102C49.144 57.1221 49.2291 57.3444 49.3604 57.4618C49.1972 57.5393 49.1246 57.6178 48.8605 57.6375C48.8653 57.4626 48.8183 57.2538 48.9062 57.0102ZM20.2408 57.1414C20.5049 57.1414 20.7199 57.3562 20.7199 57.6209C20.7199 57.8857 20.5049 58.1005 20.2408 58.1005C19.9767 58.1005 19.7633 57.8857 19.7633 57.6209C19.7633 57.3562 19.9767 57.1414 20.2408 57.1414ZM18.954 57.2772L19.4705 58.9372L17.6205 59.7439L16.9649 58.0989C17.6044 57.7618 18.3037 57.5171 18.954 57.2772V57.2772ZM27.5085 57.5483C27.5085 57.5483 28.9826 57.551 29.4914 57.556L29.372 59.4296L27.5334 59.4442L27.5085 57.5483ZM25.5396 57.651L25.6424 59.522L23.8713 59.7605L23.5214 57.8786L25.5396 57.651ZM36.7352 57.6672C36.9993 57.6672 37.2143 57.882 37.2143 58.1467C37.2143 58.4115 36.9993 58.6257 36.7352 58.6257C36.4711 58.6257 36.2577 58.4115 36.2577 58.1467C36.2577 57.882 36.4711 57.6672 36.7352 57.6672ZM49.5483 57.7107C50.6265 57.7155 51.6545 58.959 50.5891 60.2614C52.3365 61.6091 50.4363 63.8746 48.8916 62.5543C46.683 64.7291 45.4487 61.776 46.3627 60.9929C45.0128 58.7694 46.6715 57.3643 48.3824 58.3452C48.6974 57.8972 49.1264 57.7089 49.5483 57.7107ZM31.5003 57.7641L33.4427 58.197L33.0518 60.0478L31.154 59.6615L31.5003 57.7641ZM37.9296 57.8097L39.7059 58.6942L38.3288 60.0229L37.3052 59.5122L37.9296 57.8097ZM26.5415 58.0192C26.8056 58.0192 27.0195 58.234 27.0195 58.4987C27.0195 58.7635 26.8056 58.9777 26.5415 58.9777C26.2773 58.9777 26.0629 58.7635 26.0629 58.4987C26.0629 58.234 26.2773 58.0192 26.5415 58.0192ZM30.3796 58.0793C30.6437 58.0793 30.8581 58.2941 30.8582 58.5588C30.8582 58.8236 30.6437 59.0384 30.3796 59.0384C29.6757 58.9279 29.8651 58.095 30.3796 58.0793ZM21.5328 58.3494L21.9657 60.1997L20.1661 60.8093L19.5229 59.0067L21.5328 58.3494ZM22.7688 58.4806C23.0329 58.4806 23.2468 58.6953 23.2468 58.9601C23.2468 59.225 23.0329 59.4397 22.7688 59.4397C22.5047 59.4397 22.2907 59.225 22.2907 58.9601C22.2907 58.6953 22.5047 58.4806 22.7688 58.4806ZM50.0731 58.6428C50.0248 58.6428 49.9658 58.6678 49.9168 58.7299C49.659 59.0578 49.3675 59.3864 49.0925 59.7014C48.6448 59.5164 48.2108 59.5899 47.9204 59.7896C47.5307 59.4805 47.2192 59.1841 46.7821 58.9264C46.7149 58.8868 46.6381 58.9357 46.6783 58.9943C46.9523 59.3955 47.3691 59.6223 47.7092 60.0136C47.5768 60.4422 47.5783 60.7776 47.8312 61.138C47.6438 61.4543 47.2605 61.8485 47.0255 62.2925C46.9373 62.4593 47.129 62.4366 47.1418 62.4268C47.5213 62.1387 47.7056 61.7544 48.125 61.4102C48.5722 61.5311 48.8198 61.6406 49.2669 61.2707C49.6896 61.4658 49.9339 61.7628 50.4074 62.039C50.5629 62.1298 50.6102 61.9326 50.5413 61.8628C50.1453 61.4619 49.8795 61.3011 49.4642 60.9622C49.5588 60.8065 49.626 60.2538 49.3022 59.8751C49.5993 59.5051 49.7352 59.3588 50.1302 58.8207C50.2047 58.7191 50.1536 58.6442 50.0731 58.6428V58.6428ZM35.5278 58.8041L37.2808 59.5423L36.6537 61.3791L34.9605 60.686L35.5278 58.8041ZM16.2392 58.9275C16.5034 58.9275 16.7178 59.1418 16.7178 59.4065C16.7178 59.6713 16.5034 59.886 16.2392 59.886C15.9752 59.886 15.7611 59.6713 15.7611 59.4065C15.7611 59.1418 15.9751 58.9275 16.2392 58.9275ZM34.1725 58.9767C34.4366 58.9767 34.6506 59.191 34.6506 59.4557C34.6506 59.7205 34.4366 59.9353 34.1725 59.9353C33.9084 59.9353 33.6939 59.7205 33.6939 59.4557C33.6939 59.191 33.9084 58.9767 34.1725 58.9767ZM15.0147 59.1079L15.5888 60.5325L14.2838 59.5573L15.0147 59.1079ZM29.4011 59.4749L31.1473 59.6818L30.8711 61.3501L29.3653 61.2132L29.4011 59.4749ZM27.495 59.4797L27.478 61.1941L25.819 61.2656L25.6784 59.5533L27.495 59.4797ZM18.9608 59.7918C19.2248 59.7918 19.4388 60.0059 19.4388 60.2708C19.4388 60.5356 19.2248 60.7503 18.9608 60.7503C18.6966 60.7503 18.4827 60.5356 18.4827 60.2708C18.4827 60.0059 18.6966 59.7918 18.9608 59.7918ZM17.6381 59.826L18.3129 61.5492L17.2665 62.0557L15.8634 60.7249L17.6381 59.826ZM23.8817 59.8478L24.1516 61.488L22.422 61.9163L22.0021 60.248L23.8817 59.8478ZM48.6051 59.8642C48.9816 59.8642 49.2867 60.1701 49.2867 60.5475C49.2867 60.925 48.9816 61.2313 48.6051 61.2313C48.2286 61.2313 47.923 60.925 47.923 60.5475C47.923 60.1701 48.2286 59.8642 48.6051 59.8642ZM28.365 59.9161C28.6291 59.9161 28.8436 60.1308 28.8436 60.3956C28.8436 60.6604 28.6291 60.8751 28.365 60.8751C28.1009 60.8751 27.8869 60.6604 27.8869 60.3956C27.8869 60.1308 28.1009 59.9161 28.365 59.9161ZM33.0762 60.0928L34.921 60.6916L34.3007 62.1722L32.7077 61.7394L33.0762 60.0928ZM24.9017 60.1545C25.1658 60.1545 25.3797 60.3693 25.3797 60.6341C25.3797 60.8988 25.1658 61.1131 24.9017 61.1131C24.6376 61.1131 24.4241 60.8988 24.4241 60.6341C24.4241 60.3693 24.6376 60.1547 24.9017 60.1545ZM48.6015 60.1882C48.4071 60.1882 48.2495 60.3456 48.2495 60.5397C48.2495 60.7339 48.4071 60.8912 48.6015 60.8912C48.7958 60.8912 48.9534 60.7339 48.9534 60.5397C48.9534 60.3456 48.7958 60.1882 48.6015 60.1882ZM31.9155 60.3313C32.1796 60.3313 32.3931 60.5456 32.3931 60.8103C32.3931 61.0751 32.1796 61.2899 31.9155 61.2899C31.6514 61.2899 31.4369 61.0751 31.4369 60.8103C31.4369 60.5456 31.6514 60.3313 31.9155 60.3313ZM20.2029 60.8928L20.8383 62.3584L19.103 63.1106L18.3472 61.616L20.2029 60.8928ZM21.4332 60.9804C21.6972 60.9804 21.9107 61.1952 21.9107 61.4599C21.9107 61.7248 21.6972 61.9395 21.4332 61.9395C21.169 61.9395 20.954 61.7248 20.954 61.4599C20.954 61.1952 21.169 60.9804 21.4332 60.9804ZM27.8257 61.4226C30.6745 61.4168 33.2464 62.0139 35.3109 62.8706L34.6963 63.4486C28.0003 61.1419 23.6206 62.181 19.13 64.1552L18.6768 63.5938C21.8508 62.0373 24.9769 61.4285 27.8257 61.4226ZM35.4007 61.4406C35.6648 61.4406 35.8787 61.6554 35.8787 61.9202C35.8787 62.185 35.6648 62.3992 35.4007 62.3992C35.1366 62.3992 34.9231 62.185 34.9231 61.9202C34.9231 61.6554 35.1366 61.4406 35.4007 61.4406ZM17.9511 62.4889V62.4916C18.3354 62.5144 18.3721 63.2327 18.193 63.0255L17.7653 62.5268C17.8348 62.497 17.8963 62.4852 17.9511 62.4884V62.4889ZM35.8512 62.7896C35.8371 63.3346 35.3231 66.9873 33.5854 69.4985C33.4799 68.2283 33.1734 66.71 32.8317 65.6964C32.8317 65.6964 34.7014 63.9642 35.8512 62.7896ZM13.6225 68.3248L22.6649 80.5482L21.7155 80.5415C21.335 78.2451 20.01 77.0585 18.4713 76.4304C18.3477 74.498 17.1498 72.7499 15.1896 72.1353C15.062 70.8431 14.4802 69.572 13.0214 68.5017L13.6225 68.3248ZM12.725 68.6058C14.456 69.9344 14.5409 70.2569 15.037 72.3057C17.512 73.1419 18.1336 74.9878 18.2937 76.5542C19.9236 77.1945 21.2593 78.5637 21.4918 80.5347L20.9945 80.5373C20.6397 78.3011 19.2357 77.4091 17.7513 76.9913C17.8668 73.8344 15.4182 72.8496 14.5631 72.7013C14.6133 70.4275 13.1458 69.4892 12.1987 68.7261C12.3834 68.6788 12.5607 68.6447 12.725 68.6058V68.6058ZM11.2794 68.9313C12.019 69.1737 12.58 70.2065 12.5231 70.6821C13.4987 70.8053 14.5233 71.7508 14.2983 72.7355C14.2262 72.7773 14.1122 72.7859 13.9994 72.6728C14.2608 70.7624 11.4164 71.7079 12.5532 73.0901L12.0445 73.4229C11.6357 71.511 11.1326 70.428 10.5864 69.0469C10.7856 68.9942 11.2794 68.9313 11.2794 68.9313ZM13.635 72.9367C13.8876 72.9367 14.0912 73.1422 14.0912 73.3954C14.0912 73.6488 13.8876 73.8542 13.635 73.8542C13.3823 73.8542 13.1776 73.6488 13.1776 73.3954C13.1776 73.1422 13.3823 72.9367 13.635 72.9367ZM14.807 73.1575C15.4679 73.1122 16.1091 74.3396 16.0778 74.9989C17.1641 75.307 17.5156 76.4092 17.4798 76.8103L17.2416 76.8052C16.8596 75.0586 14.8745 76.0086 15.7035 77.4015C14.642 77.7948 14.7255 78.7767 15.038 79.1651C15.4695 79.7012 16.5689 79.6848 16.9041 78.8598C17.9362 80.1981 19.3605 78.696 18.1043 77.4486C19.1331 77.8285 19.2981 79.2105 19.1435 79.6421C19.621 79.8053 20.1711 80.5651 20.0976 80.5607L12.3892 80.5634C12.3892 80.5634 12.7618 77.4451 12.3652 75.0914C12.8782 75.2151 13.2223 75.3391 13.8125 74.6446C14.7675 75.4372 15.4535 74.8389 15.404 74.1541C15.3306 73.6752 15.084 73.4376 14.6746 73.1847C14.7187 73.1698 14.763 73.1608 14.807 73.1577L14.807 73.1575ZM16.9374 77.1955C17.1977 77.1955 17.4087 77.4073 17.4087 77.6683C17.4087 77.9293 17.1977 78.1411 16.9374 78.1411C16.677 78.1411 16.4666 77.9293 16.4666 77.6683C16.4666 77.4073 16.677 77.1955 16.9374 77.1955Z" fill="black"/>
<path d="M4.97803 19.7481C4.36817 18.741 3.72654 17.7621 2.92474 16.9259C3.72654 16.0897 4.36817 15.1108 4.97803 14.1036C5.58788 15.1108 6.22949 16.0897 7.03131 16.9259C6.22949 17.7621 5.58788 18.741 4.97803 19.7481Z" fill="#C8102E"/>
<path d="M58.0224 73.8967C57.4125 72.8896 56.7709 71.9107 55.9691 71.0745C56.7709 70.2383 57.4125 69.2594 58.0224 68.2522C58.6323 69.2594 59.2739 70.2383 60.0757 71.0745C59.2739 71.9107 58.6323 72.8896 58.0224 73.8967Z" fill="#C8102E"/>
<path d="M16.9557 22.774C15.492 20.3568 13.9521 18.0075 12.0278 16.0006C13.9521 13.9938 15.492 11.6445 16.9557 9.22726C18.4193 11.6445 19.9591 13.9938 21.8835 16.0006C19.9591 18.0075 18.4193 20.3568 16.9557 22.774Z" fill="#C8102E"/>
<path d="M46.0446 78.7764C44.581 76.3593 43.0411 74.0099 41.1168 72.0031C43.0411 69.9963 44.581 67.6469 46.0446 65.2297C47.5083 67.6469 49.0482 69.9963 50.9725 72.0031C49.0482 74.0099 47.5083 76.3593 46.0446 78.7764Z" fill="#C8102E"/>
<path d="M2.92663 10.1369H2.14832V9.07585H2.92663C2.92663 9.07585 2.93257 8.50412 2.95495 7.49557C3.00321 5.34579 3.05688 5.01207 3.67918 4.42039C4.90815 3.25108 6.96623 4.20384 6.9419 5.96223C6.90634 8.4439 6.93204 10.8099 6.85957 11.1451C6.73073 11.7353 6.71773 11.7685 6.77034 11.8764C6.87809 12.093 7.80773 12.1869 7.80773 12.1263V13.1714C7.09763 13.2265 6.80262 13.1598 6.23442 12.7542C5.87992 13.0964 4.80008 13.4401 3.94122 13.0358C3.28807 12.7283 2.79309 11.9341 2.92663 10.1369V10.1369ZM5.55732 11.9892C5.1716 11.4319 4.52247 10.6713 3.9118 10.4011C3.8737 11.042 3.92901 11.5793 4.15419 11.8683C4.51267 12.3284 5.09216 12.4337 5.55732 11.9892V11.9892ZM5.87737 5.8595C5.59108 5.04867 4.85556 4.7737 4.31818 5.28111C3.98219 5.59675 3.92849 5.92898 3.92124 7.73357C3.917 8.84672 3.91703 9.31458 3.91703 9.31458C4.96315 9.65384 5.94098 10.8734 5.93263 10.8575L5.95805 7.49114C5.97837 6.94493 5.95128 6.39795 5.8775 5.8595H5.87737Z" fill="#C8102E"/>
<path d="M60.0738 77.8634H60.8521V78.9245H60.0738C60.0738 78.9245 60.0678 79.4962 60.0455 80.5047C59.9972 82.6545 59.9435 82.9882 59.3212 83.5799C58.0923 84.7492 56.0342 83.7965 56.0585 82.0381C56.0941 79.5564 56.0684 77.1904 56.1408 76.8552C56.2697 76.265 56.2827 76.2318 56.2301 76.1239C56.1224 75.9073 55.1927 75.8134 55.1927 75.8741V74.8289C55.9029 74.7738 56.1979 74.8405 56.7661 75.2461C57.1206 74.9039 58.2004 74.5602 59.0593 74.9645C59.7124 75.272 60.2073 76.0662 60.0738 77.8634V77.8634ZM57.4432 76.0112C57.8289 76.5685 58.478 77.329 59.0887 77.5992C59.1268 76.9584 59.0715 76.421 58.8463 76.132C58.4878 75.6719 57.9083 75.5666 57.4432 76.0112V76.0112ZM57.1231 82.1408C57.4094 82.9516 58.1448 83.2266 58.6822 82.7192C59.0182 82.4036 59.0719 82.0713 59.0792 80.2667C59.0834 79.1536 59.0834 78.6857 59.0834 78.6857C58.0373 78.3464 57.0594 77.1269 57.0678 77.1428L57.0424 80.5092C57.0221 81.0554 57.0492 81.6024 57.123 82.1408H57.1231Z" fill="#C8102E"/>
</g>
<defs>
<clipPath id="clip0">
<rect width="63.0002" height="88.0003" fill="white"/>
</clipPath>
</defs>
</svg>
