<svg width="63" height="88" viewBox="0 0 63 88" fill="none" xmlns="http://www.w3.org/2000/svg">
<g clip-path="url(#clip0)">
<path d="M59.9868 0H3.01347C1.34918 0 1.52588e-05 1.34746 1.52588e-05 3.00964V84.9907C1.52588e-05 86.6528 1.34918 88.0003 3.01347 88.0003H59.9868C61.6511 88.0003 63.0002 86.6528 63.0002 84.9907V3.00964C63.0002 1.34746 61.6511 0 59.9868 0Z" fill="white"/>
<path d="M4.85914 14.1036C3.64258 15.6508 2.34092 16.5411 2.3193 17.7482C2.31196 18.1391 2.54899 18.8034 3.29124 18.9306C3.77279 19.0127 4.4358 18.6651 4.44965 17.959C4.44683 17.8184 4.61656 17.822 4.61498 18.0147C4.59241 18.5717 4.39459 19.2202 4.0623 19.7481C4.59353 19.7481 5.12475 19.7481 5.65597 19.7481C5.32368 19.2202 5.12595 18.5717 5.10329 18.0147C5.10047 17.822 5.27072 17.8184 5.26861 17.959C5.28243 18.6651 5.94547 19.0127 6.42702 18.9306C7.16927 18.8034 7.40623 18.1391 7.39897 17.7482C7.37724 16.5411 6.07566 15.6508 4.85914 14.1036V14.1036Z" fill="black"/>
<path d="M58.1413 73.8967C56.9247 72.3495 55.6231 71.4592 55.6014 70.2521C55.5941 69.8612 55.8311 69.1969 56.5734 69.0697C57.0549 68.9876 57.7179 69.3352 57.7318 70.0414C57.729 70.1819 57.8987 70.1783 57.8971 69.9856C57.8745 69.4286 57.6767 68.7801 57.3445 68.2522C57.8757 68.2522 58.4069 68.2522 58.9381 68.2522C58.6058 68.7801 58.4081 69.4286 58.3854 69.9856C58.3826 70.1783 58.5529 70.1819 58.5508 70.0414C58.5646 69.3352 59.2276 68.9876 59.7092 69.0697C60.4514 69.1969 60.6884 69.8612 60.6811 70.2521C60.6594 71.4592 59.3578 72.3495 58.1413 73.8967Z" fill="black"/>
<path d="M31.5001 9.22725C28.8963 12.9405 26.1103 15.0773 26.064 17.9743C26.0485 18.9124 26.5557 20.5068 28.1443 20.812C29.175 21.0091 30.5941 20.1749 30.6237 18.4801C30.6192 18.1427 30.981 18.1515 30.9776 18.6138C30.929 19.9506 30.5059 21.507 29.7947 22.774C30.9316 22.774 32.0686 22.774 33.2056 22.774C32.4944 21.507 32.0712 19.9506 32.0227 18.6138C32.0193 18.1515 32.3811 18.1427 32.3766 18.4801C32.4062 20.1749 33.8253 21.0091 34.8559 20.812C36.4446 20.5068 36.9517 18.9124 36.9362 17.9743C36.8899 15.0773 34.1039 12.9405 31.5001 9.22725V9.22725Z" fill="black"/>
<path d="M31.5001 78.773C28.8963 75.0598 26.1103 72.9229 26.064 70.026C26.0485 69.0879 26.5557 67.4935 28.1443 67.1883C29.175 66.9912 30.5941 67.8254 30.6237 69.5202C30.6192 69.8576 30.981 69.8488 30.9776 69.3865C30.929 68.0497 30.5059 66.4933 29.7947 65.2263C30.9316 65.2263 32.0686 65.2263 33.2056 65.2263C32.4944 66.4933 32.0712 68.0497 32.0227 69.3865C32.0193 69.8488 32.3811 69.8576 32.3766 69.5202C32.4062 67.8254 33.8253 66.9912 34.8559 67.1883C36.4446 67.4935 36.9517 69.0879 36.9362 70.026C36.8899 72.9229 34.1039 75.0598 31.5001 78.773V78.773Z" fill="black"/>
<path d="M31.5001 37.2268C28.8963 40.94 26.1103 43.0769 26.064 45.9738C26.0485 46.9119 26.5557 48.5063 28.1443 48.8115C29.175 49.0086 30.5941 48.1744 30.6237 46.4796C30.6192 46.1422 30.981 46.151 30.9776 46.6133C30.929 47.9501 30.5059 49.5065 29.7947 50.7735C30.9316 50.7735 32.0686 50.7735 33.2056 50.7735C32.4944 49.5065 32.0712 47.9501 32.0227 46.6133C32.0193 46.151 32.3811 46.1422 32.3766 46.4796C32.4062 48.1744 33.8253 49.0086 34.8559 48.8115C36.4446 48.5063 36.9517 46.9119 36.9362 45.9738C36.8899 43.0769 34.1039 40.94 31.5001 37.2268V37.2268Z" fill="black"/>
<path d="M1.83607 11.1772L2.55309 10.6498C3.17536 11.6631 3.8713 12.3305 4.93589 12.216C6.53316 12.1062 7.19501 10.4318 6.86083 9.17018C6.53754 8.0383 5.21493 7.48691 4.1634 8.09039C3.91521 8.23339 3.67575 8.35018 3.62893 8.35018C3.51863 8.35018 3.26898 7.85352 3.3031 7.702C4.00883 6.67135 5.72257 4.86577 5.72257 4.86577H3.04508V6.0749H2.01751V3.90533H7.25052V4.64146C7.25052 4.64146 5.84846 6.09558 5.3851 6.89196C6.52627 6.9337 7.4461 7.6569 7.7763 8.80027C7.96897 9.40225 7.88261 10.7792 7.63042 11.3726C7.20917 12.3619 6.05855 13.1646 5.00667 13.2108C3.24067 13.3294 2.3038 12.0921 1.83607 11.1772V11.1772Z" fill="black"/>
<path d="M61.1635 76.8231L60.4465 77.3505C59.8242 76.3372 59.1283 75.6698 58.0637 75.7844C56.4664 75.8941 55.8046 77.5685 56.1388 78.8301C56.4621 79.962 57.7847 80.5134 58.8362 79.9099C59.0844 79.7669 59.3239 79.6501 59.3707 79.6501C59.481 79.6501 59.7306 80.1468 59.6965 80.2983C58.9908 81.329 57.277 83.1345 57.277 83.1345H59.9545V81.9254H60.9821V84.095H55.7491V83.3589C55.7491 83.3589 57.1511 81.9047 57.6145 81.1084C56.4733 81.0666 55.5535 80.3434 55.2233 79.2C55.0306 78.5981 55.117 77.2212 55.3692 76.6277C55.7904 75.6384 56.9411 74.8357 57.9929 74.7895C59.759 74.6709 60.6958 75.9082 61.1635 76.8231V76.8231Z" fill="black"/>
</g>
<defs>
<clipPath id="clip0">
<rect width="63.0002" height="88.0003" fill="white"/>
</clipPath>
</defs>
</svg>
