<svg width="63" height="88" viewBox="0 0 63 88" fill="none" xmlns="http://www.w3.org/2000/svg">
<g clip-path="url(#clip0)">
<path d="M59.9867 0H3.01345C1.34917 0 0 1.34746 0 3.00964V84.9907C0 86.6528 1.34917 88.0003 3.01345 88.0003H59.9867C61.651 88.0003 63.0002 86.6528 63.0002 84.9907V3.00964C63.0002 1.34746 61.651 0 59.9867 0Z" fill="white"/>
<path d="M4.85904 19.7492C4.85904 19.7492 4.23118 18.849 3.38423 17.7905C2.81761 17.0822 2.36464 16.3153 2.32251 15.6547C2.27422 14.9001 2.73145 14.143 3.55924 14.1063C4.38654 14.0696 4.72233 14.6881 4.85904 15.1981C4.99575 14.6881 5.33157 14.0696 6.15885 14.1063C6.98664 14.143 7.44389 14.9001 7.39558 15.6547C7.35347 16.3153 6.90047 17.0822 6.33388 17.7905C5.4869 18.849 4.85904 19.7492 4.85904 19.7492V19.7492Z" fill="#C8102E"/>
<path d="M58.1412 68.2533C58.1412 68.2533 57.5133 69.1535 56.6664 70.212C56.0998 70.9202 55.6468 71.6872 55.6047 72.3478C55.5564 73.1024 56.0136 73.8595 56.8414 73.8962C57.6687 73.9329 58.0045 73.3143 58.1412 72.8044C58.2779 73.3143 58.6137 73.9329 59.441 73.8962C60.2688 73.8595 60.7261 73.1024 60.6777 72.3478C60.6356 71.6872 60.1826 70.9202 59.616 70.212C58.7691 69.1535 58.1412 68.2533 58.1412 68.2533V68.2533Z" fill="#C8102E"/>
<path d="M31.5 22.775C31.5 22.775 30.1831 20.6144 28.4066 18.0742C27.2182 16.3743 26.268 14.5336 26.1797 12.9482C26.0784 11.137 27.0374 9.32007 28.7737 9.23201C30.509 9.144 31.2133 10.6285 31.5 11.8523C31.7868 10.6285 32.4911 9.144 34.2263 9.23201C35.9626 9.32007 36.9217 11.137 36.8204 12.9482C36.732 14.5336 35.7819 16.3743 34.5935 18.0742C32.817 20.6144 31.5 22.775 31.5 22.775V22.775Z" fill="#C8102E"/>
<path d="M31.5 65.2274C31.5 65.2274 30.1831 67.388 28.4066 69.9282C27.2182 71.6281 26.268 73.4688 26.1797 75.0542C26.0784 76.8654 27.0374 78.6823 28.7737 78.7704C30.509 78.8584 31.2133 77.3739 31.5 76.1501C31.7868 77.3739 32.4911 78.8584 34.2263 78.7704C35.9626 78.6823 36.9217 76.8654 36.8204 75.0542C36.732 73.4688 35.7819 71.6281 34.5935 69.9282C32.817 67.388 31.5 65.2274 31.5 65.2274V65.2274Z" fill="#C8102E"/>
<path d="M2.20807 13.2L2.25344 12.6257C2.39675 10.851 2.7781 10.2523 4.94105 8.39962C5.99115 7.50153 6.3355 7.0584 6.38376 6.54433C6.52129 5.33176 5.44833 4.95333 4.74949 4.94777C3.84381 4.93958 2.81911 5.49069 3.30823 6.77164L2.29189 7.07581C2.08762 5.88096 2.29781 4.76005 3.24873 4.2626C4.51871 3.614 6.14717 3.86829 6.9694 4.89016C7.52202 5.57574 7.64828 6.5244 7.35184 7.26687C6.48572 9.16353 3.54772 9.99803 3.30532 12.1926H6.55247V10.9707H7.50931V13.22L2.20807 13.1999V13.2Z" fill="#C8102E"/>
<path d="M60.7915 74.8028L60.7461 75.3771C60.6028 77.1518 60.2215 77.7505 58.0585 79.6032C57.0084 80.5012 56.6641 80.9444 56.6158 81.4585C56.4783 82.671 57.5512 83.0495 58.2501 83.055C59.1558 83.0632 60.1804 82.5121 59.6913 81.2311L60.7077 80.927C60.9119 82.1218 60.7017 83.2428 59.7508 83.7402C58.4808 84.3888 56.8524 84.1345 56.0302 83.1126C55.4775 82.4271 55.3513 81.4784 55.6477 80.7359C56.5138 78.8393 59.4518 78.0048 59.6942 75.8102H56.4471V77.0321H55.4902V74.7828L60.7915 74.8029V74.8028Z" fill="#C8102E"/>
</g>
<defs>
<clipPath id="clip0">
<rect width="63.0002" height="88.0003" fill="white"/>
</clipPath>
</defs>
</svg>
