<svg width="63" height="88" viewBox="0 0 63 88" fill="none" xmlns="http://www.w3.org/2000/svg">
<g clip-path="url(#clip0)">
<path d="M59.9867 1.52588e-05H3.01342C1.34913 1.52588e-05 -3.05176e-05 1.34747 -3.05176e-05 3.00964V84.9904C-3.05176e-05 86.6526 1.34913 88 3.01342 88H59.9867C61.6509 88 63.0001 86.6526 63.0001 84.9904V3.00964C63.0001 1.34747 61.6509 1.52588e-05 59.9867 1.52588e-05Z" fill="white"/>
<path d="M31.4988 9.34445C28.7278 9.40456 27.4853 12.5204 29.5375 14.94C29.8351 15.2929 29.8658 15.4955 29.3207 15.1565C27.9391 14.2337 25.2898 14.8403 25.1541 17.6614C24.9865 21.1373 29.8495 22.1388 30.7625 18.4427C30.8108 18.0527 31.128 18.0616 31.0516 18.6152C30.9683 20.1176 30.4985 21.5218 29.8528 22.8911C30.9411 22.8911 32.1574 22.8911 33.147 22.8911C32.5013 21.5218 32.0315 20.1176 31.9482 18.6152C31.8717 18.0616 32.189 18.0527 32.2372 18.4427C33.1503 22.1388 38.0133 21.1373 37.8457 17.6614C37.7101 14.8403 35.0607 14.2337 33.679 15.1565C33.1339 15.4955 33.1646 15.2929 33.4623 14.94C35.5144 12.5204 34.272 9.40456 31.5011 9.34445C31.5011 9.34442 31.501 9.34445 31.4982 9.34445H31.4988Z" fill="black"/>
<path d="M31.4988 78.89C28.7278 78.8299 27.4853 75.7141 29.5375 73.2945C29.8351 72.9415 29.8658 72.739 29.3207 73.078C27.9391 74.0008 25.2898 73.3942 25.1541 70.5731C24.9865 67.0972 29.8495 66.0956 30.7625 69.7918C30.8108 70.1817 31.1281 70.1728 31.0516 69.6193C30.9683 68.1169 30.4985 66.7127 29.8528 65.3433C30.9411 65.3433 32.1574 65.3433 33.147 65.3433C32.5013 66.7127 32.0315 68.1169 31.9482 69.6193C31.8717 70.1728 32.189 70.1817 32.2372 69.7918C33.1503 66.0956 38.0133 67.0972 37.8457 70.5731C37.7101 73.3942 35.0607 74.0008 33.679 73.078C33.134 72.739 33.1646 72.9415 33.4623 73.2945C35.5144 75.7141 34.272 78.8299 31.5011 78.89C31.5011 78.89 31.501 78.89 31.4982 78.89H31.4988Z" fill="black"/>
<path d="M31.4988 37.3439C28.7278 37.404 27.4853 40.5198 29.5375 42.9395C29.8351 43.2924 29.8658 43.4949 29.3207 43.1559C27.9391 42.2331 25.2898 42.8398 25.1541 45.6608C24.9865 49.1368 29.8495 50.1383 30.7625 46.4422C30.8108 46.0522 31.128 46.0611 31.0516 46.6146C30.9683 48.117 30.4985 49.5212 29.8528 50.8906C30.9411 50.8906 32.1574 50.8906 33.147 50.8906C32.5013 49.5212 32.0315 48.117 31.9482 46.6146C31.8717 46.0611 32.189 46.0522 32.2372 46.4422C33.1503 50.1383 38.0133 49.1368 37.8457 45.6608C37.7101 42.8398 35.0607 42.2331 33.679 43.1559C33.1339 43.4949 33.1646 43.2924 33.4623 42.9395C35.5144 40.5198 34.272 37.404 31.5011 37.3439C31.5011 37.3439 31.501 37.3439 31.4982 37.3439H31.4988Z" fill="black"/>
<path d="M58.1415 73.8964C59.2499 73.8713 59.7469 72.5731 58.926 71.5649C58.8069 71.4178 58.7947 71.3334 59.0127 71.4747C59.5654 71.8592 60.6251 71.6064 60.6794 70.431C60.7464 68.9827 58.8012 68.5654 58.436 70.1054C58.4167 70.2679 58.2898 70.2642 58.3204 70.0336C58.3537 69.4076 58.5416 68.8225 58.7999 68.2519C58.3607 68.2519 57.9215 68.2519 57.4823 68.2519C57.7406 68.8225 57.9285 69.4076 57.9618 70.0336C57.9924 70.2642 57.8654 70.2679 57.8462 70.1054C57.4809 68.5654 55.5358 68.9827 55.6028 70.431C55.6571 71.6064 56.7168 71.8592 57.2694 71.4747C57.4875 71.3334 57.4752 71.4178 57.3561 71.5649C56.5353 72.5731 57.0323 73.8713 58.1407 73.8964C58.1409 73.8964 58.1407 73.8964 58.1407 73.8964H58.1415Z" fill="black"/>
<path d="M4.85855 14.1034C3.75017 14.1283 3.25316 15.4267 4.07403 16.4349C4.1931 16.582 4.20536 16.6664 3.98733 16.5251C3.43464 16.1406 2.37495 16.3934 2.32066 17.5688C2.25365 19.0171 4.19882 19.4344 4.56406 17.8944C4.58334 17.7319 4.71029 17.7356 4.67964 17.9662C4.64636 18.5922 4.45844 19.1773 4.20015 19.7479C4.63936 19.7479 5.07856 19.7479 5.51777 19.7479C5.25949 19.1773 5.07156 18.5922 5.03828 17.9662C5.00766 17.7356 5.13458 17.7319 5.15386 17.8944C5.51911 19.4344 7.46428 19.0171 7.39726 17.5688C7.34297 16.3934 6.28328 16.1406 5.73059 16.5251C5.51256 16.6664 5.52483 16.582 5.64389 16.4349C6.46476 15.4267 5.96775 14.1285 4.8594 14.1034C4.85912 14.1034 4.8594 14.1034 4.8594 14.1034H4.85855Z" fill="black"/>
<path d="M1.83615 11.177L2.55316 10.6496C3.17544 11.6629 3.87138 12.3303 4.93599 12.2158C6.53324 12.1061 7.1951 10.4316 6.8609 9.17003C6.53764 8.03811 5.21503 7.48676 4.16349 8.09022C3.91529 8.23323 3.67582 8.35002 3.62899 8.35002C3.51871 8.35002 3.26905 7.85335 3.30318 7.70185C4.00889 6.67121 5.72264 4.8656 5.72264 4.8656H3.04518V6.07477H2.0176V3.90517H7.25061V4.64133C7.25061 4.64133 5.84853 6.09542 5.3852 6.8918C6.52635 6.93356 7.44619 7.65676 7.7764 8.80011C7.96906 9.4021 7.88269 10.779 7.6305 11.3725C7.20924 12.3618 6.05862 13.1644 5.00677 13.2106C3.24076 13.3292 2.30388 12.092 1.83615 11.177V11.177Z" fill="black"/>
<path d="M61.1633 76.8228L60.4463 77.3501C59.824 76.3368 59.1281 75.6694 58.0635 75.784C56.4662 75.8938 55.8044 77.5681 56.1386 78.8297C56.4618 79.9617 57.7845 80.513 58.836 79.9096C59.0842 79.7665 59.3236 79.6498 59.3705 79.6498C59.4807 79.6498 59.7304 80.1464 59.6963 80.2979C58.9906 81.3286 57.2768 83.1342 57.2768 83.1342H59.9543V81.925H60.9819V84.0946H55.7488V83.3585C55.7488 83.3585 57.1509 81.9043 57.6142 81.108C56.4731 81.0662 55.5533 80.343 55.2231 79.1997C55.0304 78.5977 55.1167 77.2208 55.3689 76.6273C55.7902 75.638 56.9408 74.8354 57.9927 74.7892C59.7587 74.6706 60.6956 75.9078 61.1633 76.8228V76.8228Z" fill="black"/>
</g>
<defs>
<clipPath id="clip0">
<rect width="63.0001" height="88" fill="white"/>
</clipPath>
</defs>
</svg>
