<svg width="63" height="88" viewBox="0 0 63 88" fill="none" xmlns="http://www.w3.org/2000/svg">
<g clip-path="url(#clip0)">
<path d="M59.9868 3.05176e-05H3.0135C1.34921 3.05176e-05 4.57764e-05 1.34749 4.57764e-05 3.00967V84.9907C4.57764e-05 86.6529 1.34921 88.0003 3.0135 88.0003H59.9868C61.6511 88.0003 63.0002 86.6529 63.0002 84.9907V3.00967C63.0002 1.34749 61.6511 3.05176e-05 59.9868 3.05176e-05Z" fill="white"/>
<path d="M4.85991 19.7492C4.85991 19.7483 4.23205 18.849 3.3851 17.7905C2.81848 17.0822 2.36551 16.3153 2.32337 15.6547C2.27509 14.9001 2.73232 14.143 3.56011 14.1063C4.38741 14.0696 4.7232 14.6881 4.85991 15.1981C4.99662 14.6881 5.33244 14.0696 6.15972 14.1063C6.98751 14.143 7.44476 14.9001 7.39645 15.6547C7.35434 16.3153 6.90134 17.0822 6.33475 17.7905C5.48777 18.849 4.86045 19.7485 4.85991 19.7492V19.7492Z" fill="#C8102E"/>
<path d="M58.1421 68.2534C58.1421 68.2542 57.5142 69.1536 56.6673 70.212C56.1006 70.9203 55.6477 71.6873 55.6055 72.3479C55.5573 73.1025 56.0145 73.8596 56.8423 73.8963C57.6696 73.9329 58.0054 73.3144 58.1421 72.8045C58.2788 73.3144 58.6146 73.9329 59.4419 73.8963C60.2697 73.8596 60.7269 73.1025 60.6786 72.3479C60.6365 71.6873 60.1835 70.9203 59.6169 70.212C58.7699 69.1536 58.1426 68.2541 58.1421 68.2534V68.2534Z" fill="#C8102E"/>
<path d="M16.8912 22.775C16.8912 22.7733 15.5743 20.6145 13.7978 18.0743C12.6094 16.3744 11.6592 14.5337 11.5709 12.9482C11.4696 11.1371 12.4286 9.32013 14.1649 9.23207C15.9002 9.14406 16.6045 10.6285 16.8912 11.8524C17.178 10.6285 17.8823 9.14406 19.6176 9.23207C21.3539 9.32013 22.3129 11.1371 22.2116 12.9482C22.1233 14.5337 21.1731 16.3744 19.9847 18.0743C18.2082 20.6145 16.8924 22.7733 16.8912 22.775Z" fill="#C8102E"/>
<path d="M46.1106 22.775C46.1106 22.7733 44.7936 20.6145 43.0171 18.0743C41.8287 16.3744 40.8786 14.5337 40.7902 12.9482C40.6889 11.1371 41.648 9.32013 43.3843 9.23207C45.1195 9.14406 45.8239 10.6285 46.1106 11.8524C46.3973 10.6285 47.1016 9.14406 48.8369 9.23207C50.5732 9.32013 51.5322 11.1371 51.4309 12.9482C51.3426 14.5337 50.3925 16.3744 49.204 18.0743C47.4275 20.6145 46.1117 22.7733 46.1106 22.775Z" fill="#C8102E"/>
<path d="M46.1106 65.2274C46.1106 65.2291 44.7936 67.388 43.0171 69.9282C41.8287 71.6281 40.8786 73.4688 40.7902 75.0543C40.6889 76.8654 41.648 78.6824 43.3843 78.7704C45.1195 78.8584 45.8239 77.374 46.1106 76.1501C46.3973 77.374 47.1016 78.8584 48.8369 78.7704C50.5732 78.6824 51.5322 76.8654 51.4309 75.0543C51.3426 73.4688 50.3925 71.6281 49.204 69.9282C47.4275 67.388 46.1117 65.2292 46.1106 65.2274V65.2274Z" fill="#C8102E"/>
<path d="M16.8912 65.2274C16.8912 65.2291 15.5743 67.388 13.7978 69.9282C12.6094 71.6281 11.6592 73.4688 11.5709 75.0543C11.4696 76.8654 12.4286 78.6824 14.1649 78.7704C15.9002 78.8584 16.6045 77.374 16.8912 76.1501C17.178 77.374 17.8823 78.8584 19.6176 78.7704C21.3539 78.6824 22.3129 76.8654 22.2116 75.0543C22.1233 73.4688 21.1731 71.6281 19.9847 69.9282C18.2082 67.388 16.8924 65.2292 16.8912 65.2274V65.2274Z" fill="#C8102E"/>
<path d="M4.92441 13.2189V12.3962H5.6668V11.0393H1.95338V10.0818L5.97162 3.90659L6.62801 3.91V10.0819H7.7648V11.0394H6.62801L6.60655 12.3963H7.22881V13.22H4.92438L4.92441 13.2189ZM5.6668 6.16737L3.11563 10.0822H5.6668V6.16737Z" fill="#C8102E"/>
<path d="M58.0759 74.784V75.6066H57.3336V76.9635H61.0469V77.921L57.0287 84.0963L56.3723 84.0929V77.9209H55.2355V76.9635H56.3723L56.3938 75.6065H55.7715V74.7829H58.0759V74.784ZM57.3336 81.8355L59.8847 77.9206H57.3336V81.8355Z" fill="#C8102E"/>
</g>
<defs>
<clipPath id="clip0">
<rect width="63.0002" height="88.0003" fill="white"/>
</clipPath>
</defs>
</svg>
