<svg width="63" height="88" viewBox="0 0 63 88" fill="none" xmlns="http://www.w3.org/2000/svg">
<path d="M59.9867 3.05176e-05H3.01347C1.34918 3.05176e-05 0 1.34749 0 3.00966V84.9907C0 86.6529 1.34918 88.0003 3.01347 88.0003H59.9867C61.651 88.0003 63.0002 86.6529 63.0002 84.9907V3.00966C63.0002 1.34749 61.651 3.05176e-05 59.9867 3.05176e-05Z" fill="white"/>
<path d="M31.5001 22.774C30.0364 20.3568 28.4966 18.0075 26.5722 16.0006C28.4966 13.9938 30.0364 11.6445 31.5001 9.22729C32.9638 11.6445 34.5037 13.9938 36.428 16.0006C34.5037 18.0075 32.9638 20.3568 31.5001 22.774Z" fill="#C8102E"/>
<path d="M4.85913 19.7481C4.24927 18.741 3.60765 17.7621 2.80585 16.9259C3.60765 16.0897 4.24927 15.1108 4.85913 14.1036C5.46899 15.1108 6.11061 16.0897 6.91241 16.9259C6.11061 17.7621 5.46899 18.741 4.85913 19.7481Z" fill="#C8102E"/>
<path d="M58.1413 73.8967C57.5314 72.8896 56.8898 71.9107 56.088 71.0745C56.8898 70.2383 57.5314 69.2594 58.1413 68.2523C58.7512 69.2594 59.3928 70.2383 60.1946 71.0745C59.3928 71.9107 58.7512 72.8896 58.1413 73.8967Z" fill="#C8102E"/>
<path d="M31.5001 78.7731C30.0364 76.3559 28.4966 74.0066 26.5722 71.9997C28.4966 69.9929 30.0364 67.6436 31.5001 65.2263C32.9638 67.6436 34.5037 69.9929 36.428 71.9997C34.5037 74.0066 32.9638 76.3559 31.5001 78.7731Z" fill="#C8102E"/>
<path d="M2.20807 13.1988L2.25344 12.6244C2.39675 10.8497 2.7781 10.251 4.94105 8.39838C5.99115 7.50029 6.3355 7.05717 6.38376 6.5431C6.52129 5.33053 5.44833 4.9521 4.74949 4.94654C3.84381 4.93835 2.81911 5.48945 3.30823 6.7704L2.29189 7.07455C2.08762 5.87971 2.29781 4.7588 3.24873 4.26135C4.51871 3.61275 6.14717 3.86703 6.9694 4.88891C7.52202 5.57445 7.64828 6.52315 7.35184 7.26562C6.48572 9.16227 3.54772 9.99678 3.30532 12.1913H6.55247V10.9695H7.50931V13.2187L2.20807 13.1987V13.1988Z" fill="#C8102E"/>
<path d="M60.7915 74.8016L60.7461 75.3759C60.6028 77.1506 60.2215 77.7493 58.0585 79.602C57.0084 80.5 56.6641 80.9432 56.6158 81.4573C56.4783 82.6698 57.5512 83.0483 58.2501 83.0538C59.1557 83.062 60.1804 82.5109 59.6913 81.23L60.7077 80.9258C60.9119 82.1206 60.7017 83.2416 59.7508 83.739C58.4808 84.3876 56.8524 84.1333 56.0302 83.1115C55.4775 82.4259 55.3513 81.4772 55.6477 80.7347C56.5138 78.8381 59.4518 78.0036 59.6942 75.8091H56.4471V77.0309H55.4902V74.7816L60.7915 74.8017V74.8016Z" fill="#C8102E"/>
</svg>
