<svg width="63" height="88" viewBox="0 0 63 88" fill="none" xmlns="http://www.w3.org/2000/svg">
<g clip-path="url(#clip0)">
<path d="M3.01345 88.0003L59.9867 88.0003C61.651 88.0003 63.0002 86.6528 63.0002 84.9906L63.0002 3.00962C63.0002 1.34745 61.651 -7.62939e-06 59.9867 -7.62939e-06L3.01345 -7.62939e-06C1.34916 -7.62939e-06 -1.90735e-05 1.34745 -1.90735e-05 3.00962L-1.90735e-05 84.9906C-1.90735e-05 86.6528 1.34916 88.0003 3.01345 88.0003Z" fill="white"/>
<path d="M46.1098 78.773C48.7136 75.0598 51.4996 72.9229 51.5459 70.026C51.5614 69.0879 51.0542 67.4935 49.4656 67.1883C48.4349 66.9912 47.0159 67.8254 46.9862 69.5202C46.9907 69.8576 46.629 69.8488 46.6323 69.3865C46.6809 68.0497 47.1041 66.4933 47.8153 65.2263C46.6783 65.2263 45.5413 65.2263 44.4043 65.2263C45.1155 66.4933 45.5387 68.0497 45.5872 69.3865C45.5906 69.8488 45.2288 69.8576 45.2333 69.5202C45.2037 67.8254 43.7847 66.9912 42.754 67.1883C41.1653 67.4935 40.6582 69.0879 40.6737 70.026C40.72 72.9229 43.506 75.0598 46.1098 78.773V78.773Z" fill="black"/>
<path d="M58.1411 73.8967C59.3577 72.3495 60.6593 71.4591 60.681 70.2521C60.6883 69.8612 60.4512 69.1969 59.709 69.0697C59.2274 68.9876 58.5644 69.3352 58.5506 70.0413C58.5534 70.1819 58.3837 70.1783 58.3852 69.9856C58.4078 69.4286 58.6057 68.7801 58.9379 68.2522C58.4067 68.2522 57.8755 68.2522 57.3443 68.2522C57.6766 68.7801 57.8743 69.4286 57.897 69.9856C57.8998 70.1783 57.7295 70.1819 57.7316 70.0413C57.7178 69.3352 57.0548 68.9876 56.5732 69.0697C55.831 69.1969 55.594 69.8612 55.6013 70.2521C55.623 71.4591 56.9246 72.3495 58.1411 73.8967Z" fill="black"/>
<path d="M4.85893 14.1036C6.07548 15.6508 7.37714 16.5411 7.39876 17.7482C7.4061 18.139 7.16907 18.8034 6.42683 18.9306C5.94527 19.0127 5.28227 18.6651 5.26841 17.9589C5.27123 17.8183 5.1015 17.822 5.10308 18.0146C5.12566 18.5716 5.32345 19.2202 5.65574 19.748C5.12452 19.748 4.59334 19.748 4.06211 19.748C4.3944 19.2202 4.59211 18.5716 4.61477 18.0146C4.61759 17.822 4.44732 17.8183 4.44944 17.9589C4.43561 18.6651 3.77258 19.0127 3.29102 18.9306C2.54878 18.8034 2.31184 18.139 2.31909 17.7482C2.34082 16.5411 3.6424 15.6508 4.85893 14.1036Z" fill="black"/>
<path d="M16.8905 78.773C19.4942 75.0598 22.2803 72.9229 22.3266 70.026C22.3421 69.0879 21.8349 67.4935 20.2463 67.1883C19.2156 66.9912 17.7965 67.8254 17.7669 69.5202C17.7714 69.8576 17.4096 69.8488 17.413 69.3865C17.4616 68.0497 17.8847 66.4933 18.5959 65.2263C17.4589 65.2263 16.322 65.2263 15.185 65.2263C15.8962 66.4933 16.3194 68.0497 16.3679 69.3865C16.3713 69.8488 16.0095 69.8576 16.014 69.5202C15.9844 67.8254 14.5653 66.9912 13.5347 67.1883C11.946 67.4935 11.4388 69.0879 11.4544 70.026C11.5006 72.9229 14.2867 75.0598 16.8905 78.773V78.773Z" fill="black"/>
<path d="M46.1098 9.22725C48.7136 12.9405 51.4996 15.0773 51.5459 17.9743C51.5614 18.9124 51.0542 20.5068 49.4656 20.812C48.4349 21.0091 47.0159 20.1749 46.9862 18.4801C46.9907 18.1427 46.629 18.1515 46.6323 18.6138C46.6809 19.9506 47.1041 21.507 47.8153 22.774C46.6783 22.774 45.5413 22.774 44.4043 22.774C45.1155 21.507 45.5387 19.9506 45.5872 18.6138C45.5906 18.1515 45.2288 18.1427 45.2333 18.4801C45.2037 20.1749 43.7847 21.0091 42.754 20.812C41.1653 20.5068 40.6582 18.9124 40.6737 17.9743C40.72 15.0773 43.506 12.9405 46.1098 9.22725V9.22725Z" fill="black"/>
<path d="M16.8905 9.22725C19.4942 12.9405 22.2803 15.0773 22.3266 17.9743C22.3421 18.9124 21.8349 20.5068 20.2463 20.812C19.2156 21.0091 17.7965 20.1749 17.7669 18.4801C17.7714 18.1427 17.4096 18.1515 17.413 18.6138C17.4616 19.9506 17.8847 21.507 18.5959 22.774C17.4589 22.774 16.322 22.774 15.185 22.774C15.8962 21.507 16.3194 19.9506 16.3679 18.6138C16.3713 18.1515 16.0095 18.1427 16.014 18.4801C15.9844 20.1749 14.5653 21.0091 13.5347 20.812C11.946 20.5068 11.4388 18.9124 11.4544 17.9743C11.5006 15.0773 14.2867 12.9405 16.8905 9.22725V9.22725Z" fill="black"/>
<path d="M31.5001 50.7735C34.1039 47.0603 36.8899 44.9234 36.9362 42.0265C36.9517 41.0884 36.4446 39.494 34.8559 39.1888C33.8252 38.9917 32.4062 39.8259 32.3765 41.5207C32.3811 41.8581 32.0193 41.8493 32.0227 41.387C32.0712 40.0501 32.4944 38.4937 33.2056 37.2268C32.0686 37.2268 30.9316 37.2268 29.7946 37.2268C30.5058 38.4937 30.929 40.0501 30.9776 41.387C30.9809 41.8493 30.6192 41.8581 30.6237 41.5207C30.594 39.8259 29.175 38.9917 28.1443 39.1888C26.5557 39.494 26.0485 41.0884 26.064 42.0265C26.1103 44.9234 28.8963 47.0603 31.5001 50.7735V50.7735Z" fill="black"/>
<path d="M61.077 77.1927L60.1641 77.2014C59.99 76.6393 59.6046 76.0679 59.0814 75.9094C57.6031 75.5557 56.6521 76.3972 56.339 77.3674C55.9591 78.5441 56.3474 80.1966 57.3651 80.7831C58.2084 81.2695 59.4613 80.8592 60.0368 79.8189L60.6761 80.2173L60.3329 84.0949H56.1561V83.1784H59.5407L59.5944 81.5629C58.8658 82.084 57.7461 82.0785 57.0178 81.713C55.6386 81.0429 54.9979 79.5195 55.2657 77.724C55.6372 75.9382 56.4565 74.9263 58.3045 74.7818C60.3601 74.7629 61.0858 76.2025 61.077 77.1926V77.1927Z" fill="black"/>
<path d="M1.92383 10.8076L2.83678 10.7988C3.01094 11.3609 3.39627 11.9323 3.91951 12.0909C5.39774 12.4446 6.34879 11.603 6.66195 10.6329C7.04185 9.4561 6.65349 7.80369 5.63579 7.21714C4.79254 6.73079 3.5396 7.14103 2.96415 8.18138L2.3248 7.78297L2.66804 3.90531H6.84478V4.82189H3.46014L3.40643 6.43733C4.13504 5.9162 5.2548 5.92177 5.98302 6.28727C7.36222 6.95733 8.00301 8.48077 7.73524 10.2762C7.36369 12.062 6.54438 13.074 4.69638 13.2185C2.64083 13.2374 1.91511 11.7978 1.92383 10.8077V10.8076Z" fill="black"/>
</g>
<defs>
<clipPath id="clip0">
<rect width="63.0002" height="88.0003" fill="white"/>
</clipPath>
</defs>
</svg>
