<svg width="63" height="88" viewBox="0 0 63 88" fill="none" xmlns="http://www.w3.org/2000/svg">
<g clip-path="url(#clip0)">
<path d="M59.9867 3.05176e-05H3.01343C1.34914 3.05176e-05 -2.28882e-05 1.34749 -2.28882e-05 3.00967V84.9907C-2.28882e-05 86.6529 1.34914 88.0003 3.01343 88.0003H59.9867C61.651 88.0003 63.0002 86.6529 63.0002 84.9907V3.00967C63.0002 1.34749 61.651 3.05176e-05 59.9867 3.05176e-05Z" fill="white"/>
<path d="M4.8571 19.7492C4.8571 19.7492 4.22923 18.849 3.38228 17.7905C2.81566 17.0822 2.3627 16.3153 2.32056 15.6547C2.27227 14.9001 2.7295 14.143 3.55729 14.1063C4.3846 14.0696 4.72039 14.6881 4.8571 15.1981C4.99381 14.6881 5.32962 14.0696 6.1569 14.1063C6.98469 14.143 7.44195 14.9001 7.39363 15.6547C7.35152 16.3153 6.89853 17.0822 6.33194 17.7905C5.48496 18.849 4.8571 19.7492 4.8571 19.7492V19.7492Z" fill="#C8102E"/>
<path d="M58.1392 68.2534C58.1392 68.2534 57.5114 69.1536 56.6644 70.212C56.0978 70.9203 55.6448 71.6873 55.6027 72.3479C55.5544 73.1025 56.0116 73.8596 56.8394 73.8963C57.6667 73.9329 58.0025 73.3144 58.1392 72.8045C58.2759 73.3144 58.6118 73.9329 59.439 73.8963C60.2668 73.8596 60.7241 73.1025 60.6758 72.3479C60.6337 71.6873 60.1807 70.9203 59.6141 70.212C58.7671 69.1536 58.1392 68.2534 58.1392 68.2534V68.2534Z" fill="#C8102E"/>
<path d="M16.8884 22.775C16.8884 22.775 15.5714 20.6145 13.7949 18.0743C12.6065 16.3744 11.6564 14.5337 11.568 12.9482C11.4667 11.1371 12.4258 9.32013 14.1621 9.23207C15.8973 9.14406 16.6016 10.6285 16.8884 11.8524C17.1751 10.6285 17.8794 9.14406 19.6147 9.23207C21.351 9.32013 22.31 11.1371 22.2087 12.9482C22.1204 14.5337 21.1702 16.3744 19.9818 18.0743C18.2053 20.6145 16.8884 22.775 16.8884 22.775Z" fill="#C8102E"/>
<path d="M46.1077 22.775C46.1077 22.775 44.7908 20.6145 43.0143 18.0743C41.8259 16.3744 40.8757 14.5337 40.7874 12.9482C40.6861 11.1371 41.6451 9.32013 43.3814 9.23207C45.1167 9.14406 45.821 10.6285 46.1077 11.8524C46.3945 10.6285 47.0988 9.14406 48.834 9.23207C50.5703 9.32013 51.5294 11.1371 51.4281 12.9482C51.3397 14.5337 50.3896 16.3744 49.2012 18.0743C47.4247 20.6145 46.1077 22.775 46.1077 22.775Z" fill="#C8102E"/>
<path d="M31.498 50.7746C31.498 50.7746 30.1811 48.6141 28.4046 46.0738C27.2162 44.3739 26.266 42.5332 26.1777 40.9478C26.0764 39.1367 27.0354 37.3197 28.7717 37.2316C30.507 37.1436 31.2113 38.6281 31.498 39.852C31.7848 38.6281 32.4891 37.1436 34.2244 37.2316C35.9607 37.3197 36.9197 39.1367 36.8184 40.9478C36.7301 42.5332 35.7799 44.3739 34.5915 46.0738C32.815 48.6141 31.498 50.7746 31.498 50.7746V50.7746Z" fill="#C8102E"/>
<path d="M46.1077 65.2274C46.1077 65.2274 44.7908 67.388 43.0143 69.9282C41.8259 71.6281 40.8757 73.4688 40.7874 75.0543C40.6861 76.8654 41.6451 78.6824 43.3814 78.7704C45.1167 78.8584 45.821 77.374 46.1077 76.1501C46.3945 77.374 47.0988 78.8584 48.834 78.7704C50.5703 78.6824 51.5294 76.8654 51.4281 75.0543C51.3397 73.4688 50.3896 71.6281 49.2012 69.9282C47.4247 67.388 46.1077 65.2274 46.1077 65.2274V65.2274Z" fill="#C8102E"/>
<path d="M16.8884 65.2274C16.8884 65.2274 15.5714 67.388 13.7949 69.9282C12.6065 71.6281 11.6564 73.4688 11.568 75.0543C11.4667 76.8654 12.4258 78.6824 14.1621 78.7704C15.8973 78.8584 16.6016 77.374 16.8884 76.1501C17.1751 77.374 17.8794 78.8584 19.6147 78.7704C21.351 78.6824 22.31 76.8654 22.2087 75.0543C22.1204 73.4688 21.1702 71.6281 19.9818 69.9282C18.2053 67.388 16.8884 65.2274 16.8884 65.2274V65.2274Z" fill="#C8102E"/>
<path d="M1.92245 10.8089L2.83537 10.8001C3.00953 11.3623 3.39489 11.9336 3.91813 12.0922C5.39636 12.4459 6.34738 11.6043 6.66054 10.6342C7.04044 9.4574 6.65207 7.80499 5.63438 7.21847C4.79112 6.73209 3.53819 7.14233 2.96273 8.18272L2.32339 7.78429L2.66663 3.90659H6.8434V4.82319H3.45876L3.40505 6.43864C4.13367 5.91754 5.25339 5.92307 5.98161 6.2886C7.36081 6.95865 8.0016 8.48207 7.73383 10.2775C7.36228 12.0634 6.54296 13.0753 4.69497 13.2198C2.63942 13.2387 1.91373 11.7991 1.92245 10.809V10.8089Z" fill="#C8102E"/>
<path d="M61.0757 77.194L60.1627 77.2027C59.9885 76.6406 59.6032 76.0692 59.0799 75.9107C57.6017 75.557 56.6507 76.3985 56.3375 77.3687C55.9576 78.5454 56.346 80.1978 57.3637 80.7844C58.207 81.2708 59.4599 80.8605 60.0353 79.8201L60.6747 80.2186L60.3315 84.0962H56.1547V83.1797H59.5394L59.5931 81.5642C58.8644 82.0853 57.7447 82.0798 57.0165 81.7142C55.6373 81.0442 54.9965 79.5207 55.2643 77.7253C55.6358 75.9395 56.4551 74.9276 58.3031 74.7831C60.3587 74.7641 61.0844 76.2037 61.0757 77.1939V77.194Z" fill="#C8102E"/>
</g>
<defs>
<clipPath id="clip0">
<rect width="63.0002" height="88.0003" fill="white"/>
</clipPath>
</defs>
</svg>
