<svg width="63" height="88" viewBox="0 0 63 88" fill="none" xmlns="http://www.w3.org/2000/svg">
<g clip-path="url(#clip0)">
<path d="M59.9867 3.05176e-05H3.01347C1.34918 3.05176e-05 0 1.34749 0 3.00966V84.9907C0 86.6529 1.34918 88.0003 3.01347 88.0003H59.9867C61.651 88.0003 63.0002 86.6529 63.0002 84.9907V3.00966C63.0002 1.34749 61.651 3.05176e-05 59.9867 3.05176e-05Z" fill="white"/>
<path d="M4.85907 19.7481C4.24921 18.741 3.60758 17.7621 2.80579 16.9259C3.60758 16.0897 4.24921 15.1108 4.85907 14.1036C5.46893 15.1108 6.11053 16.0897 6.91235 16.9259C6.11053 17.7621 5.46893 18.741 4.85907 19.7481Z" fill="#C8102E"/>
<path d="M46.1097 22.774C44.6461 20.3568 43.1062 18.0075 41.1819 16.0006C43.1062 13.9938 44.6461 11.6445 46.1097 9.22729C47.5734 11.6445 49.1133 13.9938 51.0376 16.0006C49.1133 18.0075 47.5734 20.3568 46.1097 22.774Z" fill="#C8102E"/>
<path d="M58.1413 73.8967C57.5314 72.8896 56.8898 71.9107 56.088 71.0745C56.8898 70.2383 57.5314 69.2594 58.1413 68.2523C58.7511 69.2594 59.3927 70.2383 60.1945 71.0745C59.3927 71.9107 58.7511 72.8896 58.1413 73.8967Z" fill="#C8102E"/>
<path d="M16.8904 22.774C15.4267 20.3568 13.8869 18.0075 11.9625 16.0006C13.8869 13.9938 15.4267 11.6445 16.8904 9.22729C18.3541 11.6445 19.8939 13.9938 21.8183 16.0006C19.8939 18.0075 18.3541 20.3568 16.8904 22.774Z" fill="#C8102E"/>
<path d="M31.5001 50.7735C30.0364 48.3563 28.4965 46.007 26.5721 44.0002C28.4965 41.9933 30.0364 39.644 31.5001 37.2268C32.9637 39.644 34.5036 41.9933 36.4279 44.0002C34.5036 46.007 32.9637 48.3563 31.5001 50.7735Z" fill="#C8102E"/>
<path d="M16.8904 78.7745C15.4267 76.3573 13.8869 74.008 11.9625 72.0011C13.8869 69.9943 15.4267 67.645 16.8904 65.2278C18.3541 67.645 19.8939 69.9943 21.8183 72.0011C19.8939 74.008 18.3541 76.3573 16.8904 78.7745Z" fill="#C8102E"/>
<path d="M46.1097 78.7764C44.6461 76.3593 43.1062 74.01 41.1819 72.0031C43.1062 69.9963 44.6461 67.6469 46.1097 65.2297C47.5734 67.6469 49.1133 69.9963 51.0376 72.0031C49.1133 74.01 47.5734 76.3593 46.1097 78.7764Z" fill="#C8102E"/>
<path d="M1.92314 10.8076L2.83606 10.7989C3.01022 11.361 3.39558 11.9324 3.91882 12.091C5.39705 12.4446 6.34808 11.6031 6.66123 10.6329C7.04113 9.45619 6.65277 7.80377 5.63507 7.21725C4.79182 6.73087 3.53888 7.14111 2.96343 8.1815L2.32408 7.78308L2.66732 3.9054H6.8441V4.82197H3.45945L3.40574 6.43742C4.13436 5.91632 5.25412 5.92185 5.98234 6.28739C7.36154 6.95744 8.00229 8.48085 7.73452 10.2763C7.36297 12.0621 6.54366 13.0741 4.69566 13.2186C2.64012 13.2375 1.91442 11.7979 1.92314 10.8078V10.8076Z" fill="#C8102E"/>
<path d="M61.0764 77.1928L60.1634 77.2015C59.9893 76.6394 59.6039 76.068 59.0807 75.9095C57.6025 75.5557 56.6514 76.3973 56.3383 77.3674C55.9584 78.5442 56.3467 80.1966 57.3644 80.7832C58.2077 81.2695 59.4606 80.8593 60.0361 79.8189L60.6754 80.2173L60.3322 84.095H56.1554V83.1784H59.5401L59.5938 81.563C58.8652 82.0841 57.7454 82.0786 57.0172 81.713C55.638 81.043 54.9972 79.5195 55.265 77.7241C55.6365 75.9383 56.4558 74.9264 58.3038 74.7818C60.3594 74.7629 61.0851 76.2025 61.0764 77.1926V77.1928Z" fill="#C8102E"/>
</g>
<defs>
<clipPath id="clip0">
<rect width="63.0002" height="88.0003" fill="white"/>
</clipPath>
</defs>
</svg>
