<svg width="63" height="88" viewBox="0 0 63 88" fill="none" xmlns="http://www.w3.org/2000/svg">
<g clip-path="url(#clip0)">
<path d="M59.9867 0H3.01344C1.34915 0 -3.05176e-05 1.34746 -3.05176e-05 3.00964V84.9907C-3.05176e-05 86.6528 1.34915 88.0003 3.01344 88.0003H59.9867C61.651 88.0003 63.0002 86.6528 63.0002 84.9907V3.00964C63.0002 1.34746 61.651 0 59.9867 0Z" fill="white"/>
<path d="M16.8904 9.22725C14.2866 12.9405 11.5006 15.0773 11.4543 17.9743C11.4388 18.9124 11.946 20.5068 13.5346 20.812C14.5653 21.0091 15.9843 20.1749 16.0139 18.4801C16.0094 18.1427 16.3712 18.1515 16.3678 18.6138C16.3193 19.9506 15.8961 21.507 15.1849 22.774C16.3219 22.774 17.4589 22.774 18.5959 22.774C17.8847 21.507 17.4615 19.9506 17.4129 18.6138C17.4096 18.1515 17.7713 18.1427 17.7668 18.4801C17.7965 20.1749 19.2155 21.0091 20.2462 20.812C21.8348 20.5068 22.342 18.9124 22.3265 17.9743C22.2802 15.0773 19.4942 12.9405 16.8904 9.22725V9.22725Z" fill="black"/>
<path d="M4.859 14.1036C3.64245 15.6508 2.34078 16.5411 2.31916 17.7482C2.31183 18.1391 2.54889 18.8034 3.29113 18.9306C3.77269 19.0127 4.43569 18.6651 4.44955 17.959C4.44673 17.8184 4.61643 17.822 4.61485 18.0147C4.59227 18.5717 4.39447 19.2202 4.06218 19.7481C4.59341 19.7481 5.12462 19.7481 5.65585 19.7481C5.32356 19.2202 5.12582 18.5717 5.10316 18.0147C5.10033 17.822 5.2706 17.8184 5.26849 17.959C5.28231 18.6651 5.94535 19.0127 6.4269 18.9306C7.16915 18.8034 7.40609 18.1391 7.39884 17.7482C7.3771 16.5411 6.07552 15.6508 4.859 14.1036Z" fill="black"/>
<path d="M58.1413 73.8967C56.9247 72.3495 55.6231 71.4592 55.6015 70.2521C55.5941 69.8612 55.8311 69.1969 56.5734 69.0697C57.0549 68.9876 57.718 69.3352 57.7318 70.0414C57.729 70.1819 57.8987 70.1783 57.8971 69.9856C57.8746 69.4286 57.6768 68.7801 57.3445 68.2522C57.8757 68.2522 58.4069 68.2522 58.9381 68.2522C58.6058 68.7801 58.4081 69.4286 58.3854 69.9856C58.3826 70.1783 58.5529 70.1819 58.5507 70.0414C58.5646 69.3352 59.2276 68.9876 59.7092 69.0697C60.4514 69.1969 60.6884 69.8612 60.6811 70.2521C60.6594 71.4592 59.3578 72.3495 58.1413 73.8967V73.8967Z" fill="black"/>
<path d="M46.1097 9.22725C43.5059 12.9405 40.7199 15.0773 40.6736 17.9743C40.6581 18.9124 41.1653 20.5068 42.7539 20.812C43.7846 21.0091 45.2036 20.1749 45.2333 18.4801C45.2287 18.1427 45.5905 18.1515 45.5871 18.6138C45.5386 19.9506 45.1154 21.507 44.4042 22.774C45.5412 22.774 46.6782 22.774 47.8152 22.774C47.104 21.507 46.6808 19.9506 46.6322 18.6138C46.6289 18.1515 46.9906 18.1427 46.9861 18.4801C47.0158 20.1749 48.4348 21.0091 49.4655 20.812C51.0541 20.5068 51.5613 18.9124 51.5458 17.9743C51.4995 15.0773 48.7135 12.9405 46.1097 9.22725V9.22725Z" fill="black"/>
<path d="M16.8904 37.2268C14.2866 40.94 11.5006 43.0769 11.4543 45.9738C11.4388 46.9119 11.946 48.5063 13.5346 48.8115C14.5653 49.0086 15.9843 48.1744 16.0139 46.4796C16.0094 46.1422 16.3712 46.151 16.3678 46.6133C16.3193 47.9501 15.8961 49.5065 15.1849 50.7735C16.3219 50.7735 17.4589 50.7735 18.5959 50.7735C17.8847 49.5065 17.4615 47.9501 17.4129 46.6133C17.4096 46.151 17.7713 46.1422 17.7668 46.4796C17.7965 48.1744 19.2155 49.0086 20.2462 48.8115C21.8348 48.5063 22.342 46.9119 22.3265 45.9738C22.2802 43.0769 19.4942 40.94 16.8904 37.2268V37.2268Z" fill="black"/>
<path d="M16.8904 78.773C14.2866 75.0598 11.5006 72.9229 11.4543 70.026C11.4388 69.0879 11.946 67.4935 13.5346 67.1883C14.5653 66.9912 15.9843 67.8254 16.0139 69.5202C16.0094 69.8576 16.3712 69.8488 16.3678 69.3865C16.3193 68.0497 15.8961 66.4933 15.1849 65.2263C16.3219 65.2263 17.4589 65.2263 18.5959 65.2263C17.8847 66.4933 17.4615 68.0497 17.4129 69.3865C17.4096 69.8488 17.7713 69.8576 17.7668 69.5202C17.7965 67.8254 19.2155 66.9912 20.2462 67.1883C21.8348 67.4935 22.342 69.0879 22.3265 70.026C22.2802 72.9229 19.4942 75.0598 16.8904 78.773V78.773Z" fill="black"/>
<path d="M46.1097 78.773C43.5059 75.0598 40.7199 72.9229 40.6736 70.026C40.6581 69.0879 41.1653 67.4935 42.7539 67.1883C43.7846 66.9912 45.2036 67.8254 45.2333 69.5202C45.2287 69.8576 45.5905 69.8488 45.5871 69.3865C45.5386 68.0497 45.1154 66.4933 44.4042 65.2263C45.5412 65.2263 46.6782 65.2263 47.8152 65.2263C47.104 66.4933 46.6808 68.0497 46.6322 69.3865C46.6289 69.8488 46.9906 69.8576 46.9861 69.5202C47.0158 67.8254 48.4348 66.9912 49.4655 67.1883C51.0541 67.4935 51.5613 69.0879 51.5458 70.026C51.4995 72.9229 48.7135 75.0598 46.1097 78.773V78.773Z" fill="black"/>
<path d="M46.1097 37.2268C43.5059 40.94 40.7199 43.0769 40.6736 45.9738C40.6581 46.9119 41.1653 48.5063 42.7539 48.8115C43.7846 49.0086 45.2036 48.1744 45.2333 46.4796C45.2287 46.1422 45.5905 46.151 45.5871 46.6133C45.5386 47.9501 45.1154 49.5065 44.4042 50.7735C45.5412 50.7735 46.6782 50.7735 47.8152 50.7735C47.104 49.5065 46.6808 47.9501 46.6322 46.6133C46.6289 46.151 46.9906 46.1422 46.9861 46.4796C47.0158 48.1744 48.4348 49.0086 49.4655 48.8115C51.0541 48.5063 51.5613 46.9119 51.5458 45.9738C51.4995 43.0769 48.7135 40.94 46.1097 37.2268V37.2268Z" fill="black"/>
<path d="M2.12361 10.3533C2.00895 9.56949 2.01186 7.54313 2.10556 6.94369C2.39475 5.10729 3.09612 4.26688 4.27102 3.99265C5.41219 3.72547 7.01526 4.02296 7.36686 5.5578L6.41294 5.57643C5.89698 4.53867 4.59145 4.81583 3.85595 5.26745C3.26924 5.62706 3.00396 7.12862 3.11753 7.22099C3.11753 7.22099 4.22714 6.39908 5.10198 6.4597C6.97136 6.65447 7.74242 8.27575 7.67709 9.80653C7.6176 11.6481 7.03378 13.1208 5.05226 13.2188C3.16834 13.146 2.30513 12.1189 2.12372 10.3535L2.12361 10.3533ZM6.76989 9.86698C6.78005 8.58939 6.20023 7.63183 5.10191 7.52687C4.00465 7.42118 2.89757 8.49218 2.97414 9.79453C3.05071 11.1025 3.55686 12.2027 4.88779 12.1968C6.31923 12.1911 6.763 10.7765 6.76989 9.86698Z" fill="black"/>
<path d="M60.8759 77.647C60.9906 78.4308 60.9876 80.4572 60.8939 81.0566C60.6048 82.893 59.9034 83.7334 58.7285 84.0077C57.5873 84.2748 55.9842 83.9774 55.6327 82.4425L56.5865 82.4239C57.1025 83.4616 58.4081 83.1845 59.1436 82.7329C59.7303 82.3733 59.9955 80.8717 59.882 80.7793C59.882 80.7793 58.7724 81.6012 57.8975 81.5406C56.0281 81.3458 55.2571 79.7246 55.3224 78.1938C55.3819 76.3522 55.9657 74.8795 57.9472 74.7815C59.8311 74.8544 60.6943 75.8814 60.8758 77.6468L60.8759 77.647ZM56.2296 78.1333C56.2195 79.4109 56.7993 80.3685 57.8976 80.4734C58.9949 80.5791 60.1019 79.5081 60.0254 78.2058C59.9488 76.8978 59.4426 75.7977 58.1117 75.8036C56.6802 75.8092 56.2365 77.2238 56.2296 78.1333Z" fill="black"/>
</g>
<defs>
<clipPath id="clip0">
<rect width="63.0002" height="88.0003" fill="white"/>
</clipPath>
</defs>
</svg>
