<svg width="63" height="88" viewBox="0 0 63 88" fill="none" xmlns="http://www.w3.org/2000/svg">
<g clip-path="url(#clip0)">
<path d="M59.9867 0H3.01343C1.34915 0 0 1.34746 0 3.00964V84.9907C0 86.6528 1.34915 88.0003 3.01343 88.0003H59.9867C61.651 88.0003 63.0002 86.6528 63.0002 84.9907V3.00964C63.0002 1.34746 61.651 0 59.9867 0Z" fill="white"/>
<path d="M16.8905 9.22723C14.2867 12.9405 11.5007 15.0773 11.4544 17.9743C11.4389 18.9123 11.946 20.5068 13.5347 20.812C14.5654 21.009 15.9844 20.1748 16.0141 18.4801C16.0095 18.1427 16.3713 18.1514 16.3679 18.6138C16.3194 19.9506 15.8962 21.507 15.185 22.7739C16.322 22.7739 17.459 22.7739 18.596 22.7739C17.8847 21.507 17.4616 19.9506 17.413 18.6138C17.4097 18.1514 17.7714 18.1427 17.7669 18.4801C17.7966 20.1748 19.2156 21.009 20.2463 20.812C21.8349 20.5068 22.3421 18.9123 22.3266 17.9743C22.2803 15.0773 19.4943 12.9405 16.8905 9.22723V9.22723Z" fill="black"/>
<path d="M4.85919 14.1036C3.64264 15.6508 2.34094 16.5411 2.31932 17.7482C2.31198 18.1391 2.549 18.8034 3.29125 18.9306C3.77281 19.0127 4.43584 18.6651 4.4497 17.959C4.44688 17.8184 4.61658 17.822 4.615 18.0147C4.59242 18.5717 4.39462 19.2202 4.06233 19.7481C4.59356 19.7481 5.12474 19.7481 5.65597 19.7481C5.32368 19.2202 5.12597 18.5717 5.10331 18.0147C5.10049 17.822 5.27072 17.8184 5.2686 17.959C5.28243 18.6651 5.9455 19.0127 6.42706 18.9306C7.1693 18.8034 7.40624 18.1391 7.39899 17.7482C7.37726 16.5411 6.07571 15.6508 4.85919 14.1036V14.1036Z" fill="black"/>
<path d="M58.1414 73.8967C56.9248 72.3495 55.6231 71.4592 55.6015 70.2521C55.5941 69.8612 55.8312 69.1969 56.5734 69.0697C57.055 68.9876 57.718 69.3352 57.7319 70.0414C57.729 70.1819 57.8987 70.1783 57.8972 69.9856C57.8746 69.4286 57.6768 68.7801 57.3445 68.2522C57.8757 68.2522 58.4069 68.2522 58.9381 68.2522C58.6058 68.7801 58.4081 69.4286 58.3855 69.9856C58.3827 70.1783 58.553 70.1819 58.5508 70.0414C58.5647 69.3352 59.2277 68.9876 59.7092 69.0697C60.4515 69.1969 60.6884 69.8612 60.6812 70.2521C60.6594 71.4592 59.3579 72.3495 58.1414 73.8967V73.8967Z" fill="black"/>
<path d="M46.1098 9.22723C43.506 12.9405 40.72 15.0773 40.6737 17.9743C40.6582 18.9123 41.1654 20.5068 42.754 20.812C43.7847 21.009 45.2037 20.1748 45.2334 18.4801C45.2288 18.1427 45.5906 18.1514 45.5872 18.6138C45.5387 19.9506 45.1155 21.507 44.4043 22.7739C45.5413 22.7739 46.6783 22.7739 47.8153 22.7739C47.1041 21.507 46.681 19.9506 46.6324 18.6138C46.629 18.1514 46.9908 18.1427 46.9863 18.4801C47.0159 20.1748 48.4349 21.009 49.4656 20.812C51.0542 20.5068 51.5614 18.9123 51.5459 17.9743C51.4996 15.0773 48.7136 12.9405 46.1098 9.22723V9.22723Z" fill="black"/>
<path d="M31.5001 23.227C28.8963 26.9402 26.1103 29.0771 26.064 31.974C26.0485 32.9121 26.5557 34.5065 28.1443 34.8117C29.175 35.0088 30.594 34.1746 30.6237 32.4798C30.6192 32.1424 30.9809 32.1512 30.9776 32.6135C30.929 33.9503 30.5058 35.5068 29.7946 36.7737C30.9316 36.7737 32.0686 36.7737 33.2056 36.7737C32.4944 35.5068 32.0712 33.9503 32.0227 32.6135C32.0193 32.1512 32.3811 32.1424 32.3765 32.4798C32.4062 34.1746 33.8252 35.0088 34.8559 34.8117C36.4445 34.5065 36.9517 32.9121 36.9362 31.974C36.8899 29.0771 34.1039 26.9402 31.5001 23.227V23.227Z" fill="black"/>
<path d="M16.8905 37.2268C14.2867 40.94 11.5007 43.0769 11.4544 45.9738C11.4389 46.9119 11.946 48.5063 13.5347 48.8115C14.5654 49.0086 15.9844 48.1744 16.0141 46.4796C16.0095 46.1422 16.3713 46.151 16.3679 46.6133C16.3194 47.9501 15.8962 49.5065 15.185 50.7735C16.322 50.7735 17.459 50.7735 18.596 50.7735C17.8847 49.5065 17.4616 47.9501 17.413 46.6133C17.4097 46.151 17.7714 46.1422 17.7669 46.4796C17.7966 48.1744 19.2156 49.0086 20.2463 48.8115C21.8349 48.5063 22.3421 46.9119 22.3266 45.9738C22.2803 43.0769 19.4943 40.94 16.8905 37.2268V37.2268Z" fill="black"/>
<path d="M16.8905 78.773C14.2867 75.0598 11.5007 72.9229 11.4544 70.026C11.4389 69.0879 11.946 67.4935 13.5347 67.1883C14.5654 66.9912 15.9844 67.8254 16.0141 69.5202C16.0095 69.8576 16.3713 69.8488 16.3679 69.3865C16.3194 68.0497 15.8962 66.4933 15.185 65.2263C16.322 65.2263 17.459 65.2263 18.596 65.2263C17.8847 66.4933 17.4616 68.0497 17.413 69.3865C17.4097 69.8488 17.7714 69.8576 17.7669 69.5202C17.7966 67.8254 19.2156 66.9912 20.2463 67.1883C21.8349 67.4935 22.3421 69.0879 22.3266 70.026C22.2803 72.9229 19.4943 75.0598 16.8905 78.773V78.773Z" fill="black"/>
<path d="M46.1098 78.773C43.506 75.0598 40.72 72.9229 40.6737 70.026C40.6582 69.0879 41.1654 67.4935 42.754 67.1883C43.7847 66.9912 45.2037 67.8254 45.2334 69.5202C45.2288 69.8576 45.5906 69.8488 45.5872 69.3865C45.5387 68.0497 45.1155 66.4933 44.4043 65.2263C45.5413 65.2263 46.6783 65.2263 47.8153 65.2263C47.1041 66.4933 46.681 68.0497 46.6324 69.3865C46.629 69.8488 46.9908 69.8576 46.9863 69.5202C47.0159 67.8254 48.4349 66.9912 49.4656 67.1883C51.0542 67.4935 51.5614 69.0879 51.5459 70.026C51.4996 72.9229 48.7136 75.0598 46.1098 78.773V78.773Z" fill="black"/>
<path d="M46.1098 37.2268C43.506 40.94 40.72 43.0769 40.6737 45.9738C40.6582 46.9119 41.1654 48.5063 42.754 48.8115C43.7847 49.0086 45.2037 48.1744 45.2334 46.4796C45.2288 46.1422 45.5906 46.151 45.5872 46.6133C45.5387 47.9501 45.1155 49.5065 44.4043 50.7735C45.5413 50.7735 46.6783 50.7735 47.8153 50.7735C47.1041 49.5065 46.681 47.9501 46.6324 46.6133C46.629 46.151 46.9908 46.1422 46.9863 46.4796C47.0159 48.1744 48.4349 49.0086 49.4656 48.8115C51.0542 48.5063 51.5614 46.9119 51.5459 45.9738C51.4996 43.0769 48.7136 40.94 46.1098 37.2268V37.2268Z" fill="black"/>
<path d="M3.4271 13.2177C4.03961 9.97965 4.6916 7.54875 6.40353 4.9105H2.92384V6.04613H2V3.90533H7.08966L7.71743 4.9105C5.89918 6.89537 4.2351 13.3115 4.52974 13.2177H3.4271Z" fill="black"/>
<path d="M59.5725 74.7826C58.96 78.0207 58.308 80.4516 56.5961 83.0898H60.0758V81.9542H60.9996V84.095H55.9099L55.2822 83.0898C57.1004 81.1049 58.7645 74.6888 58.4698 74.7826H59.5725Z" fill="black"/>
</g>
<defs>
<clipPath id="clip0">
<rect width="63.0002" height="88.0003" fill="white"/>
</clipPath>
</defs>
</svg>
