<svg width="63" height="88" viewBox="0 0 63 88" fill="none" xmlns="http://www.w3.org/2000/svg">
<g clip-path="url(#clip0)">
<path d="M59.9867 0H3.01346C1.34917 0 0 1.34746 0 3.00964V84.9906C0 86.6528 1.34917 88.0003 3.01346 88.0003H59.9867C61.651 88.0003 63.0002 86.6528 63.0002 84.9906V3.00964C63.0002 1.34746 61.651 0 59.9867 0Z" fill="white"/>
<path d="M4.8591 19.7481C4.8591 19.7481 4.23124 18.8478 3.38429 17.7894C2.81767 17.0811 2.3647 16.3142 2.32257 15.6536C2.27428 14.8989 2.73151 14.1419 3.5593 14.1052C4.38661 14.0685 4.72239 14.687 4.8591 15.197C4.99581 14.687 5.33163 14.0685 6.15891 14.1052C6.9867 14.1419 7.44395 14.8989 7.39564 15.6536C7.35353 16.3142 6.90054 17.0811 6.33394 17.7894C5.48696 18.8478 4.8591 19.7481 4.8591 19.7481V19.7481Z" fill="#C8102E"/>
<path d="M58.1413 68.2522C58.1413 68.2522 57.5134 69.1525 56.6665 70.2109C56.0998 70.9192 55.6469 71.6861 55.6047 72.3467C55.5564 73.1014 56.0137 73.8584 56.8415 73.8951C57.6688 73.9318 58.0046 73.3133 58.1413 72.8033C58.278 73.3133 58.6138 73.9318 59.4411 73.8951C60.2689 73.8584 60.7261 73.1014 60.6778 72.3467C60.6357 71.6861 60.1827 70.9192 59.6161 70.2109C58.7691 69.1525 58.1413 68.2522 58.1413 68.2522V68.2522Z" fill="#C8102E"/>
<path d="M31.5001 36.7737C31.5001 36.7737 30.1832 34.6131 28.4067 32.0729C27.2182 30.373 26.2681 28.5323 26.1798 26.9468C26.0785 25.1357 27.0375 23.3188 28.7738 23.2307C30.5091 23.1427 31.2134 24.6271 31.5001 25.851C31.7868 24.6271 32.4912 23.1427 34.2264 23.2307C35.9627 23.3188 36.9218 25.1357 36.8205 26.9468C36.7321 28.5323 35.782 30.373 34.5936 32.0729C32.8171 34.6131 31.5001 36.7737 31.5001 36.7737V36.7737Z" fill="#C8102E"/>
<path d="M16.8905 22.7739C16.8905 22.7739 15.5735 20.6134 13.7971 18.0731C12.6086 16.3732 11.6585 14.5325 11.5702 12.9471C11.4688 11.136 12.4279 9.319 14.1642 9.23094C15.8994 9.14293 16.6038 10.6274 16.8905 11.8513C17.1772 10.6274 17.8816 9.14293 19.6168 9.23094C21.3531 9.319 22.3122 11.136 22.2108 12.9471C22.1225 14.5325 21.1724 16.3732 19.9839 18.0731C18.2075 20.6134 16.8905 22.7739 16.8905 22.7739Z" fill="#C8102E"/>
<path d="M46.1097 50.7735C46.1097 50.7735 44.7928 48.6129 43.0163 46.0727C41.8279 44.3728 40.8777 42.5321 40.7894 40.9467C40.6881 39.1355 41.6471 37.3186 43.3834 37.2305C45.1187 37.1425 45.823 38.627 46.1097 39.8508C46.3965 38.627 47.1008 37.1425 48.8361 37.2305C50.5723 37.3186 51.5314 39.1355 51.4301 40.9467C51.3417 42.5321 50.3916 44.3728 49.2032 46.0727C47.4267 48.6129 46.1097 50.7735 46.1097 50.7735V50.7735Z" fill="#C8102E"/>
<path d="M46.1097 22.7739C46.1097 22.7739 44.7928 20.6134 43.0163 18.0731C41.8279 16.3732 40.8777 14.5325 40.7894 12.9471C40.6881 11.136 41.6471 9.319 43.3834 9.23094C45.1187 9.14293 45.823 10.6274 46.1097 11.8513C46.3965 10.6274 47.1008 9.14293 48.8361 9.23094C50.5723 9.319 51.5314 11.136 51.4301 12.9471C51.3417 14.5325 50.3916 16.3732 49.2032 18.0731C47.4267 20.6134 46.1097 22.7739 46.1097 22.7739Z" fill="#C8102E"/>
<path d="M16.8905 50.7735C16.8905 50.7735 15.5735 48.6129 13.7971 46.0727C12.6086 44.3728 11.6585 42.5321 11.5702 40.9467C11.4688 39.1355 12.4279 37.3186 14.1642 37.2305C15.8994 37.1425 16.6038 38.627 16.8905 39.8508C17.1772 38.627 17.8816 37.1425 19.6168 37.2305C21.3531 37.3186 22.3122 39.1355 22.2108 40.9467C22.1225 42.5321 21.1724 44.3728 19.9839 46.0727C18.2075 48.6129 16.8905 50.7735 16.8905 50.7735V50.7735Z" fill="#C8102E"/>
<path d="M46.1097 65.2263C46.1097 65.2263 44.7928 67.3869 43.0163 69.9271C41.8279 71.627 40.8777 73.4677 40.7894 75.0531C40.6881 76.8643 41.6471 78.6812 43.3834 78.7693C45.1187 78.8573 45.823 77.3728 46.1097 76.149C46.3965 77.3728 47.1008 78.8573 48.8361 78.7693C50.5723 78.6812 51.5314 76.8643 51.4301 75.0531C51.3417 73.4677 50.3916 71.627 49.2032 69.9271C47.4267 67.3869 46.1097 65.2263 46.1097 65.2263V65.2263Z" fill="#C8102E"/>
<path d="M16.8905 65.2263C16.8905 65.2263 15.5735 67.3869 13.7971 69.9271C12.6086 71.627 11.6585 73.4677 11.5702 75.0531C11.4688 76.8643 12.4279 78.6812 14.1642 78.7693C15.8994 78.8573 16.6038 77.3728 16.8905 76.149C17.1772 77.3728 17.8816 78.8573 19.6168 78.7693C21.3531 78.6812 22.3122 76.8643 22.2108 75.0531C22.1225 73.4677 21.1724 71.627 19.9839 69.9271C18.2075 67.3869 16.8905 65.2263 16.8905 65.2263V65.2263Z" fill="#C8102E"/>
<path d="M3.42625 13.2178C4.03876 9.97979 4.69074 7.54889 6.40268 4.91067H2.92299V6.04628H1.99915V3.90546H7.08881L7.71657 4.91067C5.89832 6.89552 4.23432 13.3117 4.52896 13.2178H3.42625Z" fill="#C8102E"/>
<path d="M59.5717 74.7828C58.9592 78.0208 58.3071 80.4517 56.5952 83.0899H60.075V81.9543H60.9987V84.0951H55.9091L55.2813 83.0899C57.0996 81.1051 58.7636 74.6889 58.469 74.7828H59.5717Z" fill="#C8102E"/>
</g>
<defs>
<clipPath id="clip0">
<rect width="63.0002" height="88.0003" fill="white"/>
</clipPath>
</defs>
</svg>
