<svg width="63" height="88" viewBox="0 0 63 88" fill="none" xmlns="http://www.w3.org/2000/svg">
<path d="M59.9867 3.05176e-05H3.01343C1.34914 3.05176e-05 0 1.34749 0 3.00966V84.9907C0 86.6529 1.34914 88.0003 3.01343 88.0003H59.9867C61.651 88.0003 63.0002 86.6529 63.0002 84.9907V3.00966C63.0002 1.34749 61.651 3.05176e-05 59.9867 3.05176e-05Z" fill="white"/>
<path d="M4.85913 19.7481C4.24927 18.741 3.60764 17.7621 2.80585 16.9259C3.60764 16.0897 4.24927 15.1108 4.85913 14.1036C5.46899 15.1108 6.11059 16.0897 6.91241 16.9259C6.11059 17.7621 5.46899 18.741 4.85913 19.7481Z" fill="#C8102E"/>
<path d="M46.1098 22.774C44.6462 20.3568 43.1063 18.0075 41.1819 16.0006C43.1063 13.9938 44.6462 11.6445 46.1098 9.22729C47.5735 11.6445 49.1134 13.9938 51.0377 16.0006C49.1134 18.0075 47.5735 20.3568 46.1098 22.774Z" fill="#C8102E"/>
<path d="M58.1414 73.8967C57.5315 72.8896 56.8899 71.9107 56.0881 71.0745C56.8899 70.2383 57.5315 69.2594 58.1414 68.2523C58.7512 69.2594 59.3928 70.2383 60.1946 71.0745C59.3928 71.9107 58.7512 72.8896 58.1414 73.8967Z" fill="#C8102E"/>
<path d="M16.8905 22.774C15.4268 20.3568 13.8869 18.0075 11.9626 16.0006C13.8869 13.9938 15.4268 11.6445 16.8905 9.22729C18.3541 11.6445 19.894 13.9938 21.8183 16.0006C19.894 18.0075 18.3541 20.3568 16.8905 22.774Z" fill="#C8102E"/>
<path d="M31.5001 36.7692C30.0364 34.352 28.4965 32.0027 26.5722 29.9958C28.4965 27.989 30.0364 25.6397 31.5001 23.2225C32.9638 25.6397 34.5036 27.989 36.428 29.9958C34.5036 32.0027 32.9638 34.352 31.5001 36.7692Z" fill="#C8102E"/>
<path d="M16.8905 50.7644C15.4268 48.3472 13.8869 45.9979 11.9626 43.991C13.8869 41.9842 15.4268 39.6349 16.8905 37.2177C18.3541 39.6349 19.894 41.9842 21.8183 43.991C19.894 45.9979 18.3541 48.3472 16.8905 50.7644Z" fill="#C8102E"/>
<path d="M46.1098 50.7688C44.6462 48.3516 43.1063 46.0023 41.1819 43.9954C43.1063 41.9886 44.6462 39.6393 46.1098 37.2221C47.5735 39.6393 49.1134 41.9886 51.0377 43.9954C49.1134 46.0023 47.5735 48.3516 46.1098 50.7688Z" fill="#C8102E"/>
<path d="M16.8905 78.7745C15.4268 76.3573 13.8869 74.008 11.9626 72.0011C13.8869 69.9943 15.4268 67.645 16.8905 65.2278C18.3541 67.645 19.894 69.9943 21.8183 72.0011C19.894 74.008 18.3541 76.3573 16.8905 78.7745Z" fill="#C8102E"/>
<path d="M46.1098 78.7764C44.6462 76.3593 43.1063 74.01 41.1819 72.0031C43.1063 69.9963 44.6462 67.6469 46.1098 65.2297C47.5735 67.6469 49.1134 69.9963 51.0377 72.0031C49.1134 74.01 47.5735 76.3593 46.1098 78.7764Z" fill="#C8102E"/>
<path d="M3.42703 13.2177C4.03954 9.97968 4.6916 7.54878 6.40353 4.91056H2.92377V6.04617H2V3.90536H7.08966L7.71743 4.91056C5.89918 6.89541 4.2351 13.3116 4.52974 13.2177H3.42703Z" fill="#C8102E"/>
<path d="M59.5725 74.7827C58.96 78.0207 58.308 80.4516 56.5961 83.0898H60.0758V81.9542H60.9996V84.095H55.9099L55.2822 83.0898C57.1004 81.105 58.7644 74.6888 58.4698 74.7827H59.5725Z" fill="#C8102E"/>
</svg>
