<svg width="63" height="88" viewBox="0 0 63 88" fill="none" xmlns="http://www.w3.org/2000/svg">
<path d="M59.9867 0H3.01344C1.34915 0 0 1.34745 0 3.00962V84.9904C0 86.6526 1.34915 88 3.01344 88H59.9867C61.651 88 63.0001 86.6526 63.0001 84.9904V3.00962C63.0001 1.34745 61.651 0 59.9867 0Z" fill="white"/>
<path d="M46.1085 9.34462C43.3376 9.4047 42.095 12.5205 44.1472 14.9402C44.4448 15.2931 44.4756 15.4956 43.9305 15.1566C42.5488 14.2339 39.8995 14.8405 39.7638 17.6615C39.5962 21.1375 44.4592 22.139 45.3722 18.4429C45.4204 18.0529 45.7378 18.0618 45.6613 18.6153C45.578 20.1177 45.1083 21.522 44.4625 22.8913C45.5509 22.8913 46.7671 22.8913 47.7567 22.8913C47.111 21.522 46.6412 20.1177 46.558 18.6153C46.4815 18.0618 46.7987 18.0529 46.8469 18.4429C47.76 22.139 52.623 21.1375 52.4554 17.6615C52.3198 14.8405 49.6704 14.2339 48.2887 15.1566C47.7437 15.4956 47.7744 15.2931 48.072 14.9402C50.1242 12.5205 48.8817 9.4047 46.1108 9.34462C46.1108 9.34459 46.1108 9.34462 46.108 9.34462H46.1085Z" fill="black"/>
<path d="M16.8892 9.34462C14.1182 9.4047 12.8757 12.5205 14.9279 14.9402C15.2255 15.2931 15.2562 15.4956 14.7111 15.1566C13.3294 14.2339 10.6802 14.8405 10.5444 17.6615C10.3769 21.1375 15.2398 22.139 16.1529 18.4429C16.2011 18.0529 16.5184 18.0618 16.4419 18.6153C16.3586 20.1177 15.8889 21.522 15.2432 22.8913C16.3315 22.8913 17.5478 22.8913 18.5373 22.8913C17.8916 21.522 17.4219 20.1177 17.3386 18.6153C17.2621 18.0618 17.5794 18.0529 17.6276 18.4429C18.5406 22.139 23.4036 21.1375 23.2361 17.6615C23.1004 14.8405 20.4511 14.2339 19.0694 15.1566C18.5243 15.4956 18.555 15.2931 18.8527 14.9402C20.9048 12.5205 19.6624 9.4047 16.8914 9.34462C16.8914 9.34459 16.8914 9.34462 16.8886 9.34462H16.8892Z" fill="black"/>
<path d="M46.1085 78.8902C43.3376 78.8301 42.095 75.7143 44.1472 73.2947C44.4448 72.9417 44.4756 72.7392 43.9305 73.0782C42.5488 74.001 39.8995 73.3943 39.7638 70.5733C39.5963 67.0973 44.4592 66.0958 45.3722 69.7919C45.4204 70.1819 45.7378 70.173 45.6613 69.6195C45.578 68.1171 45.1083 66.7129 44.4625 65.3435C45.5509 65.3435 46.7671 65.3435 47.7567 65.3435C47.111 66.7129 46.6412 68.1171 46.558 69.6195C46.4815 70.173 46.7987 70.1819 46.8469 69.7919C47.76 66.0958 52.623 67.0973 52.4554 70.5733C52.3198 73.3943 49.6704 74.001 48.2887 73.0782C47.7437 72.7392 47.7744 72.9417 48.072 73.2947C50.1242 75.7143 48.8817 78.8301 46.1108 78.8902C46.1108 78.8902 46.1108 78.8902 46.108 78.8902H46.1085Z" fill="black"/>
<path d="M16.8892 78.8902C14.1182 78.8301 12.8757 75.7143 14.9279 73.2947C15.2255 72.9417 15.2562 72.7392 14.7111 73.0782C13.3294 74.001 10.6802 73.3943 10.5444 70.5733C10.3769 67.0973 15.2398 66.0958 16.1529 69.7919C16.2011 70.1819 16.5184 70.173 16.4419 69.6195C16.3586 68.1171 15.8889 66.7129 15.2432 65.3435C16.3315 65.3435 17.5478 65.3435 18.5373 65.3435C17.8916 66.7129 17.4219 68.1171 17.3386 69.6195C17.2621 70.173 17.5794 70.1819 17.6276 69.7919C18.5406 66.0958 23.4036 67.0973 23.2361 70.5733C23.1004 73.3943 20.4511 74.001 19.0694 73.0782C18.5243 72.7392 18.555 72.9417 18.8527 73.2947C20.9048 75.7143 19.6624 78.8301 16.8914 78.8902C16.8914 78.8902 16.8914 78.8902 16.8886 78.8902H16.8892Z" fill="black"/>
<path d="M31.4989 23.3444C28.7279 23.4045 27.4855 26.5203 29.5376 28.9399C29.8352 29.2929 29.8659 29.4954 29.3208 29.1564C27.9392 28.2336 25.2899 28.8402 25.1542 31.6613C24.9866 35.1373 29.8496 36.1388 30.7626 32.4426C30.8108 32.0527 31.1282 32.0616 31.0517 32.6151C30.9684 34.1175 30.4986 35.5217 29.8529 36.8911C30.9412 36.8911 32.1575 36.8911 33.1471 36.8911C32.5014 35.5217 32.0315 34.1175 31.9483 32.6151C31.8718 32.0616 32.1891 32.0527 32.2373 32.4426C33.1504 36.1388 38.0134 35.1373 37.8458 31.6613C37.7102 28.8402 35.0608 28.2336 33.6791 29.1564C33.134 29.4954 33.1648 29.2929 33.4624 28.9399C35.5146 26.5203 34.272 23.4045 31.5011 23.3444C31.5011 23.3444 31.5011 23.3444 31.4983 23.3444H31.4989Z" fill="black"/>
<path d="M46.1085 37.3441C43.3376 37.4042 42.095 40.52 44.1472 42.9396C44.4448 43.2926 44.4756 43.4951 43.9305 43.1561C42.5488 42.2333 39.8995 42.84 39.7638 45.661C39.5963 49.137 44.4592 50.1385 45.3722 46.4423C45.4204 46.0524 45.7378 46.0613 45.6613 46.6148C45.578 48.1172 45.1083 49.5214 44.4625 50.8908C45.5509 50.8908 46.7671 50.8908 47.7567 50.8908C47.111 49.5214 46.6412 48.1172 46.558 46.6148C46.4815 46.0613 46.7987 46.0524 46.8469 46.4423C47.76 50.1385 52.623 49.137 52.4554 45.661C52.3198 42.84 49.6704 42.2333 48.2887 43.1561C47.7437 43.4951 47.7744 43.2926 48.072 42.9396C50.1242 40.52 48.8817 37.4042 46.1108 37.3441C46.1108 37.3441 46.1108 37.3441 46.108 37.3441H46.1085Z" fill="black"/>
<path d="M16.8892 37.3441C14.1182 37.4042 12.8757 40.52 14.9279 42.9396C15.2255 43.2926 15.2562 43.4951 14.7111 43.1561C13.3294 42.2333 10.6801 42.84 10.5445 45.661C10.3769 49.137 15.2398 50.1385 16.1529 46.4423C16.2011 46.0524 16.5184 46.0613 16.4419 46.6148C16.3587 48.1172 15.8889 49.5214 15.2432 50.8908C16.3315 50.8908 17.5478 50.8908 18.5373 50.8908C17.8916 49.5214 17.4219 48.1172 17.3386 46.6148C17.2621 46.0613 17.5794 46.0524 17.6276 46.4423C18.5406 50.1385 23.4036 49.137 23.2361 45.661C23.1004 42.84 20.4511 42.2333 19.0694 43.1561C18.5243 43.4951 18.555 43.2926 18.8527 42.9396C20.9048 40.52 19.6624 37.4042 16.8914 37.3441C16.8914 37.3441 16.8914 37.3441 16.8886 37.3441H16.8892Z" fill="black"/>
<path d="M58.1416 73.8965C59.25 73.8715 59.747 72.5732 58.9262 71.565C58.8071 71.418 58.7948 71.3336 59.0128 71.4749C59.5655 71.8593 60.6252 71.6066 60.6795 70.4311C60.7465 68.9828 58.8013 68.5655 58.4361 70.1056C58.4168 70.2681 58.2899 70.2644 58.3205 70.0337C58.3538 69.4077 58.5417 68.8226 58.8 68.2521C58.3608 68.2521 57.9216 68.2521 57.4824 68.2521C57.7407 68.8226 57.9286 69.4077 57.9619 70.0337C57.9925 70.2644 57.8656 70.2681 57.8463 70.1056C57.4811 68.5655 55.5359 68.9828 55.6029 70.4311C55.6572 71.6066 56.7169 71.8593 57.2696 71.4749C57.4876 71.3336 57.4753 71.418 57.3563 71.565C56.5354 72.5732 57.0324 73.8715 58.1408 73.8965C58.1411 73.8965 58.1408 73.8965 58.1408 73.8965H58.1416Z" fill="black"/>
<path d="M4.85868 14.1036C3.75033 14.1285 3.25331 15.4269 4.07417 16.4351C4.19324 16.5821 4.20548 16.6666 3.98745 16.5253C3.43474 16.1408 2.37504 16.3936 2.32078 17.569C2.25374 19.0173 4.19893 19.4346 4.56412 17.8946C4.58339 17.7321 4.71038 17.7358 4.67977 17.9664C4.64643 18.5924 4.45859 19.1775 4.20028 19.7481C4.63948 19.7481 5.0787 19.7481 5.51791 19.7481C5.25963 19.1775 5.07169 18.5924 5.03835 17.9664C5.00776 17.7358 5.1347 17.7321 5.154 17.8946C5.51919 19.4346 7.46438 19.0173 7.39733 17.569C7.34307 16.3936 6.28342 16.1408 5.73074 16.5253C5.5127 16.6666 5.52498 16.5821 5.64401 16.4351C6.46491 15.4269 5.96783 14.1287 4.85951 14.1036H4.85868Z" fill="black"/>
<path d="M3.42701 13.2177C4.03951 9.97967 4.69156 7.5488 6.40349 4.91055H2.9237V6.04617H1.99988V3.90536H7.08958L7.71732 4.91055C5.89909 6.89542 4.23505 13.3115 4.52967 13.2177H3.42701Z" fill="black"/>
<path d="M59.5724 74.7825C58.9599 78.0205 58.3079 80.4514 56.5959 83.0896H60.0757V81.954H60.9995V84.0948H55.9098L55.282 83.0896C57.1003 81.1047 58.7643 74.6886 58.4697 74.7825H59.5724Z" fill="black"/>
</svg>
