<svg width="63" height="88" viewBox="0 0 63 88" fill="none" xmlns="http://www.w3.org/2000/svg">
<g clip-path="url(#clip0)">
<path d="M59.9866 3.05176e-05H3.01336C1.34907 3.05176e-05 -9.15527e-05 1.34749 -9.15527e-05 3.00967V84.9907C-9.15527e-05 86.6529 1.34907 88.0003 3.01336 88.0003H59.9866C61.6509 88.0003 63.0001 86.6529 63.0001 84.9907V3.00967C63.0001 1.34749 61.6509 3.05176e-05 59.9866 3.05176e-05Z" fill="white"/>
<path d="M4.857 19.7492C4.857 19.7492 4.22913 18.849 3.38218 17.7905C2.81556 17.0822 2.3626 16.3153 2.32046 15.6547C2.27217 14.9001 2.7294 14.143 3.55719 14.1063C4.3845 14.0696 4.72029 14.6881 4.857 15.1981C4.99371 14.6881 5.32952 14.0696 6.1568 14.1063C6.98459 14.143 7.44185 14.9001 7.39353 15.6547C7.35142 16.3153 6.89843 17.0822 6.33184 17.7905C5.48486 18.849 4.857 19.7492 4.857 19.7492V19.7492Z" fill="#C8102E"/>
<path d="M58.1392 68.2534C58.1392 68.2542 57.5113 69.1536 56.6643 70.212C56.0977 70.9203 55.6448 71.6873 55.6026 72.3479C55.5543 73.1025 56.0116 73.8596 56.8394 73.8963C57.6667 73.9329 58.0025 73.3144 58.1392 72.8045C58.2759 73.3144 58.6117 73.9329 59.439 73.8963C60.2668 73.8596 60.724 73.1025 60.6757 72.3479C60.6336 71.6873 60.1806 70.9203 59.614 70.212C58.767 69.1536 58.1397 68.2541 58.1392 68.2534V68.2534Z" fill="#C8102E"/>
<path d="M31.4989 36.775C31.4989 36.775 30.1819 34.6144 28.4054 32.0742C27.217 30.3743 26.2669 28.5336 26.1785 26.9482C26.0772 25.137 27.0363 23.3201 28.7726 23.232C30.5078 23.144 31.2122 24.6285 31.4989 25.8523C31.7856 24.6285 32.4899 23.144 34.2252 23.232C35.9615 23.3201 36.9205 25.137 36.8192 26.9482C36.7309 28.5336 35.7807 30.3743 34.5923 32.0742C32.8158 34.6144 31.4989 36.775 31.4989 36.775Z" fill="#C8102E"/>
<path d="M16.8883 22.775C16.8883 22.775 15.5713 20.6145 13.7948 18.0743C12.6064 16.3744 11.6563 14.5337 11.5679 12.9482C11.4666 11.1371 12.4257 9.32013 14.162 9.23207C15.8972 9.14406 16.6015 10.6285 16.8883 11.8524C17.175 10.6285 17.8793 9.14406 19.6146 9.23207C21.3509 9.32013 22.3099 11.1371 22.2086 12.9482C22.1203 14.5337 21.1701 16.3744 19.9817 18.0743C18.2052 20.6145 16.8883 22.775 16.8883 22.775Z" fill="#C8102E"/>
<path d="M46.1077 50.7746C46.1077 50.7746 44.7907 48.6141 43.0143 46.0738C41.8258 44.3739 40.8757 42.5332 40.7874 40.9478C40.686 39.1367 41.6451 37.3197 43.3814 37.2316C45.1166 37.1436 45.821 38.6281 46.1077 39.852C46.3944 38.6281 47.0988 37.1436 48.834 37.2316C50.5703 37.3197 51.5294 39.1367 51.428 40.9478C51.3397 42.5332 50.3896 44.3739 49.2011 46.0738C47.4246 48.6141 46.1077 50.7746 46.1077 50.7746V50.7746Z" fill="#C8102E"/>
<path d="M46.1077 22.775C46.1077 22.775 44.7907 20.6145 43.0143 18.0743C41.8258 16.3744 40.8757 14.5337 40.7874 12.9482C40.686 11.1371 41.6451 9.32013 43.3814 9.23207C45.1166 9.14406 45.821 10.6285 46.1077 11.8524C46.3944 10.6285 47.0988 9.14406 48.834 9.23207C50.5703 9.32013 51.5294 11.1371 51.428 12.9482C51.3397 14.5337 50.3896 16.3744 49.2011 18.0743C47.4246 20.6145 46.1077 22.775 46.1077 22.775Z" fill="#C8102E"/>
<path d="M16.8883 50.7746C16.8883 50.7746 15.5713 48.6141 13.7948 46.0738C12.6064 44.3739 11.6563 42.5333 11.5679 40.9478C11.4666 39.1367 12.4257 37.3197 14.162 37.2316C15.8972 37.1436 16.6015 38.6281 16.8883 39.852C17.175 38.6281 17.8793 37.1436 19.6146 37.2316C21.3509 37.3197 22.3099 39.1367 22.2086 40.9478C22.1203 42.5333 21.1701 44.3739 19.9817 46.0738C18.2052 48.6141 16.8883 50.7746 16.8883 50.7746V50.7746Z" fill="#C8102E"/>
<path d="M31.4989 51.2278C31.4989 51.2278 30.182 53.3884 28.4054 55.9286C27.217 57.6285 26.2668 59.4692 26.1785 61.0547C26.0772 62.8658 27.0363 64.6827 28.7726 64.7708C30.5078 64.8588 31.2122 63.3743 31.4989 62.1505C31.7856 63.3743 32.4899 64.8588 34.2252 64.7708C35.9615 64.6827 36.9205 62.8658 36.8192 61.0547C36.7309 59.4692 35.7807 57.6285 34.5923 55.9286C32.8158 53.3884 31.4989 51.2278 31.4989 51.2278Z" fill="#C8102E"/>
<path d="M46.1077 65.2274C46.1077 65.2274 44.7907 67.388 43.0143 69.9282C41.8258 71.6281 40.8757 73.4688 40.7874 75.0543C40.686 76.8654 41.6451 78.6824 43.3814 78.7704C45.1166 78.8584 45.821 77.374 46.1077 76.1501C46.3944 77.374 47.0988 78.8584 48.834 78.7704C50.5703 78.6824 51.5294 76.8654 51.428 75.0543C51.3397 73.4688 50.3896 71.6281 49.2011 69.9282C47.4246 67.388 46.1077 65.2274 46.1077 65.2274V65.2274Z" fill="#C8102E"/>
<path d="M16.8883 65.2274C16.8883 65.2274 15.5713 67.388 13.7948 69.9282C12.6064 71.6281 11.6563 73.4688 11.5679 75.0543C11.4666 76.8654 12.4257 78.6824 14.162 78.7704C15.8972 78.8584 16.6015 77.374 16.8883 76.1501C17.175 77.374 17.8793 78.8584 19.6146 78.7704C21.3509 78.6824 22.3099 76.8654 22.2086 75.0543C22.1203 73.4688 21.1701 71.6281 19.9817 69.9282C18.2052 67.388 16.8883 65.2274 16.8883 65.2274V65.2274Z" fill="#C8102E"/>
<path d="M1.83217 10.492C1.87643 9.24168 2.32855 8.77269 3.21862 8.11852C2.50852 7.60632 2.20916 6.85127 2.27012 6.20859C2.41634 4.65233 3.61811 3.87439 4.92946 3.90764C6.24188 3.94238 7.37138 4.98275 7.45955 6.11364C7.53612 7.09671 7.24407 7.57121 6.54666 8.08824C7.37434 8.78708 7.90295 9.2461 7.88337 10.4775C7.86389 11.7089 6.81624 13.1743 4.99037 13.219C3.16453 13.2637 1.78679 11.7422 1.83217 10.492V10.492ZM6.92907 10.4965C7.00708 9.36448 6.00639 8.6009 4.87682 8.58981C3.77703 8.57796 2.79329 9.51675 2.79329 10.5331C2.79329 11.6244 4.07312 12.2175 4.8997 12.2201C5.90444 12.2247 6.8612 11.471 6.92907 10.4965ZM6.56768 6.44706C6.58913 5.4947 5.71029 4.81133 4.80316 4.83868C3.99657 4.86351 3.14344 5.47838 3.142 6.27518C3.142 7.27267 4.11303 7.77088 4.94214 7.7901C5.69469 7.80703 6.55063 7.16738 6.56768 6.44706V6.44706Z" fill="#C8102E"/>
<path d="M55.1143 77.5109C55.1585 78.7612 55.6107 79.2302 56.5007 79.8843C55.7906 80.3965 55.4913 81.1516 55.5522 81.7943C55.6984 83.3505 56.9002 84.1285 58.2116 84.0952C59.524 84.0605 60.6536 83.0201 60.7417 81.8892C60.8183 80.9062 60.5262 80.4316 59.8288 79.9146C60.6564 79.2158 61.1851 78.7567 61.1655 77.5253C61.1461 76.2939 60.0983 74.8286 58.2725 74.7838C56.4466 74.7391 55.0689 76.2607 55.1143 77.5109ZM60.2112 77.5064C60.2893 78.6384 59.2885 79.4019 58.1589 79.413C57.0591 79.4249 56.0755 78.4861 56.0755 77.4698C56.0755 76.3785 57.3552 75.7853 58.1818 75.7827C59.1865 75.7782 60.1434 76.5318 60.2112 77.5064ZM59.8498 81.5558C59.8712 82.5082 58.9924 83.1915 58.0853 83.1642C57.2787 83.1393 56.4256 82.5245 56.4242 81.7277C56.4242 80.7302 57.3951 80.232 58.2242 80.2128C58.9768 80.1958 59.8327 80.8355 59.8498 81.5558V81.5558Z" fill="#C8102E"/>
</g>
<defs>
<clipPath id="clip0">
<rect width="63.0002" height="88.0003" fill="white"/>
</clipPath>
</defs>
</svg>
