<svg width="46" height="71" viewBox="0 0 46 71" fill="none" xmlns="http://www.w3.org/2000/svg">
<path d="M33.6619 57.787H12.5869V64.706H33.6619V57.787Z" fill="#333333"/>
<path d="M33.712 57.787L26.88 59.995L23.38 57.787L19.88 59.995L12.529 57.787L10.053 33.651V24.541L23.117 20.124L36.18 24.541V33.651L33.712 57.787Z" fill="#DB2A05"/>
<path d="M27.9849 15.584H18.2639V23.91H27.9849V15.584Z" fill="#DEB78E"/>
<path d="M29.8439 4.61798H16.4619V10.646H29.8439V4.61798Z" fill="#B89544"/>
<path d="M25.5148 18.195L24.9698 18.541C24.4259 18.8862 23.795 19.0696 23.1508 19.0696C22.5066 19.0696 21.8757 18.8862 21.3318 18.541L20.7868 18.195C19.6839 17.4952 18.7757 16.5281 18.1463 15.3836C17.517 14.2391 17.1869 12.9541 17.1868 11.648V6.86699C17.1868 5.30221 17.8084 3.80152 18.9148 2.69505C20.0213 1.58859 21.522 0.96698 23.0868 0.96698H23.2058C24.7705 0.96698 26.2712 1.58859 27.3777 2.69505C28.4842 3.80152 29.1058 5.30221 29.1058 6.86699V11.648C29.1066 12.9533 28.7779 14.2377 28.1501 15.3821C27.5224 16.5266 26.616 17.4941 25.5148 18.195Z" fill="#EDC69D"/>
<path d="M27.1959 6.37599H21.6359C21.3355 6.37599 21.0382 6.31684 20.7607 6.2019C20.4832 6.08697 20.2311 5.91851 20.0187 5.70615C19.8064 5.49378 19.6379 5.24166 19.523 4.96419C19.408 4.68672 19.3489 4.38932 19.3489 4.08899V2.88899C19.3489 2.25619 19.6003 1.64931 20.0477 1.20184C20.4952 0.754381 21.1021 0.502991 21.7349 0.502991H31.7709L30.9709 3.48399C30.7474 4.31415 30.2564 5.04743 29.5739 5.57027C28.8914 6.0931 28.0556 6.3763 27.1959 6.37599Z" fill="#B89544"/>
<path d="M16.4608 6.43901H17.7748C18.3583 6.43901 18.9179 6.20723 19.3304 5.79465C19.743 5.38207 19.9748 4.82249 19.9748 4.23901V1.401H19.0378C18.353 1.401 17.6963 1.67304 17.2121 2.15726C16.7278 2.64148 16.4558 3.29821 16.4558 3.983L16.4608 6.43901Z" fill="#B89544"/>
<path d="M29.2959 11.777H28.6379V8.806H29.4749C29.565 8.80591 29.6541 8.82479 29.7365 8.8614C29.8188 8.89802 29.8925 8.95156 29.9527 9.01852C30.013 9.08549 30.0585 9.1644 30.0863 9.25011C30.1141 9.33582 30.1235 9.4264 30.1139 9.51599L29.9349 11.203C29.9181 11.3607 29.8436 11.5066 29.7256 11.6126C29.6076 11.7186 29.4545 11.7771 29.2959 11.777Z" fill="#EDC69D"/>
<path d="M17.0089 11.777H17.6669V8.806H16.8299C16.7398 8.80591 16.6507 8.82479 16.5684 8.8614C16.486 8.89802 16.4123 8.95156 16.3521 9.01852C16.2918 9.08549 16.2463 9.1644 16.2185 9.25011C16.1907 9.33582 16.1813 9.4264 16.1909 9.51599L16.3699 11.203C16.3867 11.3607 16.4612 11.5066 16.5792 11.6126C16.6972 11.7186 16.8503 11.7771 17.0089 11.777Z" fill="#EDC69D"/>
<path d="M30.4479 22.6C30.4479 22.6 29.2079 37.339 23.2929 37.333C17.3409 37.327 16.1379 22.486 16.1379 22.486L18.2629 21.767V20.124L23.1239 21.97L27.9849 20.124V21.77L30.4479 22.6Z" fill="white"/>
<path d="M23.963 23.285H22.624V24.451H23.963V23.285Z" fill="#333333"/>
<path d="M23.9099 24.451L26.9849 25.673C27.3035 25.1248 27.4714 24.502 27.4714 23.868C27.4714 23.2339 27.3035 22.6112 26.9849 22.063L23.9099 23.285V24.451Z" fill="#333333"/>
<path d="M25.6299 24.166H23.9099V23.566H25.6299C25.7095 23.566 25.7858 23.5976 25.842 23.6538C25.8983 23.7101 25.9299 23.7864 25.9299 23.866V23.872C25.9283 23.9505 25.896 24.0253 25.84 24.0802C25.7839 24.1352 25.7084 24.166 25.6299 24.166Z" fill="#666666"/>
<path d="M22.6759 24.451L19.601 25.673C19.2823 25.1248 19.1145 24.502 19.1145 23.868C19.1145 23.2339 19.2823 22.6112 19.601 22.063L22.6759 23.285V24.451Z" fill="#333333"/>
<path d="M20.9549 24.166H22.6759V23.566H20.9549C20.8762 23.5673 20.8012 23.5995 20.746 23.6556C20.6908 23.7117 20.6599 23.7873 20.6599 23.866V23.872C20.6615 23.9496 20.6931 24.0237 20.7481 24.0785C20.8031 24.1333 20.8772 24.1647 20.9549 24.166Z" fill="#666666"/>
<path d="M23.1239 27.498C23.3851 27.498 23.5969 27.2862 23.5969 27.025C23.5969 26.7638 23.3851 26.552 23.1239 26.552C22.8626 26.552 22.6509 26.7638 22.6509 27.025C22.6509 27.2862 22.8626 27.498 23.1239 27.498Z" fill="#F2F2F2"/>
<path d="M23.1239 31.876C23.3851 31.876 23.5969 31.6642 23.5969 31.403C23.5969 31.1418 23.3851 30.93 23.1239 30.93C22.8626 30.93 22.6509 31.1418 22.6509 31.403C22.6509 31.6642 22.8626 31.876 23.1239 31.876Z" fill="#F2F2F2"/>
<path d="M23.1239 39.383C23.4724 39.383 23.7549 39.1005 23.7549 38.752C23.7549 38.4035 23.4724 38.121 23.1239 38.121C22.7754 38.121 22.4929 38.4035 22.4929 38.752C22.4929 39.1005 22.7754 39.383 23.1239 39.383Z" fill="#CF2805"/>
<path d="M23.1239 44.851C23.4724 44.851 23.7549 44.5685 23.7549 44.22C23.7549 43.8715 23.4724 43.589 23.1239 43.589C22.7754 43.589 22.4929 43.8715 22.4929 44.22C22.4929 44.5685 22.7754 44.851 23.1239 44.851Z" fill="#CF2805"/>
<path d="M23.1239 50.32C23.4724 50.32 23.7549 50.0375 23.7549 49.689C23.7549 49.3405 23.4724 49.058 23.1239 49.058C22.7754 49.058 22.4929 49.3405 22.4929 49.689C22.4929 50.0375 22.7754 50.32 23.1239 50.32Z" fill="#CF2805"/>
<path d="M23.1239 55.788C23.4724 55.788 23.7549 55.5055 23.7549 55.157C23.7549 54.8085 23.4724 54.526 23.1239 54.526C22.7754 54.526 22.4929 54.8085 22.4929 55.157C22.4929 55.5055 22.7754 55.788 23.1239 55.788Z" fill="#CF2805"/>
<path d="M43.287 60.469H37.988V63.281H43.287V60.469Z" fill="#F2F2F2"/>
<path d="M37.5619 63.426L36.5619 64.413L36.582 64.642C36.6001 64.8387 36.5792 65.0371 36.5204 65.2258C36.4617 65.4144 36.3662 65.5896 36.2396 65.7412C36.1129 65.8929 35.9575 66.018 35.7824 66.1094C35.6072 66.2009 35.4158 66.2568 35.2189 66.274H35.2009C35.1708 66.2769 35.1403 66.2737 35.1114 66.2648C35.0824 66.2558 35.0555 66.2412 35.0323 66.2217C35.009 66.2023 34.9899 66.1784 34.9759 66.1515C34.9619 66.1246 34.9534 66.0952 34.9509 66.065V66.056L34.8069 64.456L34.768 64.015C34.7547 63.873 34.793 63.731 34.8759 63.615L36.4119 61.464C36.4563 61.402 36.5136 61.3505 36.5799 61.313C36.6463 61.2755 36.72 61.253 36.7959 61.247L38.1459 61.14L37.5619 63.426Z" fill="#E0B88D"/>
<path d="M42.8578 62.571L38.4768 61.213C38.2595 61.1458 38.031 61.123 37.8048 61.146L36.7798 61.246C37.0428 61.246 37.3188 61.455 37.1698 61.984L36.8698 62.907L43.7028 65.024L43.8678 64.508C43.9304 64.3144 43.9538 64.1102 43.9366 63.9075C43.9194 63.7047 43.862 63.5074 43.7678 63.327L43.7618 63.316C43.5709 62.9578 43.2459 62.6899 42.8578 62.571Z" fill="#EDC69D"/>
<path d="M39.8598 68.103L39.8428 68.098C39.6188 68.0285 39.4315 67.8728 39.3222 67.6652C39.2128 67.4576 39.1904 67.2151 39.2598 66.991L40.3478 63.823L42.0558 64.352L40.9678 67.52C40.9334 67.6311 40.8774 67.7343 40.8031 67.8237C40.7287 67.9131 40.6375 67.987 40.5346 68.0411C40.4317 68.0952 40.3192 68.1286 40.2034 68.1392C40.0876 68.1498 39.9709 68.1375 39.8598 68.103Z" fill="#EDC69D"/>
<path d="M38.6399 63.292L37.6399 66.175C37.6055 66.2861 37.5496 66.3892 37.4754 66.4787C37.4012 66.5681 37.3101 66.6421 37.2073 66.6963C37.1045 66.7505 36.9921 66.784 36.8763 66.7947C36.7606 66.8055 36.6439 66.7934 36.5329 66.759L36.5159 66.753C36.4048 66.7187 36.3016 66.6628 36.2122 66.5886C36.1228 66.5144 36.0488 66.4233 35.9946 66.3205C35.9404 66.2177 35.9069 66.1052 35.8961 65.9895C35.8854 65.8738 35.8975 65.7571 35.9318 65.646L36.9318 62.763L38.6399 63.292Z" fill="#EDC69D"/>
<g style="mix-blend-mode:multiply">
<path d="M38.6399 63.292L37.6399 66.175C37.6056 66.2861 37.5497 66.3892 37.4755 66.4787C37.4012 66.5681 37.3102 66.6421 37.2074 66.6963C37.1046 66.7505 36.9921 66.784 36.8764 66.7948C36.7607 66.8055 36.6439 66.7934 36.5329 66.759H36.5249L37.6569 63.451C37.6917 63.3394 37.7694 63.2461 37.8729 63.1918C37.9764 63.1374 38.0972 63.1263 38.2089 63.161L38.6399 63.292Z" fill="#F2F2F2"/>
</g>
<path d="M38.1508 67.571L38.1338 67.566C38.0227 67.5317 37.9196 67.4758 37.8301 67.4016C37.7407 67.3274 37.6667 67.2363 37.6125 67.1335C37.5583 67.0307 37.5248 66.9182 37.5141 66.8025C37.5033 66.6868 37.5154 66.57 37.5498 66.459L38.6858 63.139L40.3938 63.668L39.2578 66.988C39.1882 67.2121 39.0325 67.3993 38.825 67.5087C38.6174 67.618 38.3749 67.6404 38.1508 67.571Z" fill="#EDC69D"/>
<g style="mix-blend-mode:multiply">
<path d="M40.3948 63.669L39.2588 66.99C39.1892 67.214 39.0335 67.4013 38.826 67.5106C38.6184 67.62 38.3759 67.6424 38.1518 67.573H38.1438L39.4348 63.751C39.4487 63.7057 39.4714 63.6636 39.5016 63.6271C39.5319 63.5906 39.569 63.5605 39.6109 63.5384C39.6528 63.5163 39.6986 63.5026 39.7458 63.4983C39.793 63.4939 39.8406 63.4989 39.8858 63.513L40.3948 63.669Z" fill="#F2F2F2"/>
</g>
<g style="mix-blend-mode:multiply">
<path d="M42.0548 64.35L40.9668 67.518C40.9324 67.6291 40.8764 67.7322 40.8021 67.8216C40.7278 67.9111 40.6365 67.985 40.5336 68.0391C40.4307 68.0933 40.3182 68.1266 40.2024 68.1372C40.0866 68.1478 39.9699 68.1355 39.8588 68.101H39.8508L41.0948 64.432C41.1089 64.3868 41.1317 64.3448 41.1619 64.3085C41.1922 64.2721 41.2293 64.242 41.2712 64.22C41.3131 64.198 41.3589 64.1845 41.406 64.1802C41.4532 64.1759 41.5007 64.1809 41.5458 64.195L42.0548 64.35Z" fill="#F2F2F2"/>
</g>
<path d="M41.7449 68.06L41.7279 68.055C41.6168 68.0206 41.5136 67.9646 41.4242 67.8903C41.3348 67.816 41.2609 67.7247 41.2068 67.6218C41.1526 67.5189 41.1193 67.4064 41.1087 67.2906C41.0981 67.1748 41.1103 67.0581 41.1448 66.9471L42.0569 64.347L43.7649 64.876L42.8529 67.476C42.8185 67.5872 42.7626 67.6905 42.6883 67.78C42.6141 67.8695 42.5228 67.9435 42.4199 67.9977C42.317 68.052 42.2044 68.0854 42.0886 68.0961C41.9728 68.1068 41.856 68.0945 41.7449 68.06Z" fill="#EDC69D"/>
<g style="mix-blend-mode:multiply">
<path d="M43.7619 64.879L42.8499 67.479C42.8155 67.5901 42.7597 67.6932 42.6855 67.7827C42.6112 67.8721 42.5201 67.9461 42.4173 68.0003C42.3145 68.0545 42.2021 68.088 42.0863 68.0988C41.9706 68.1095 41.8539 68.0974 41.7429 68.063H41.7349L42.8019 64.963C42.8158 64.9178 42.8385 64.8757 42.8687 64.8392C42.899 64.8027 42.9361 64.7725 42.978 64.7504C43.0199 64.7283 43.0657 64.7147 43.1129 64.7103C43.1601 64.706 43.2076 64.711 43.2529 64.725L43.7619 64.879Z" fill="#F2F2F2"/>
</g>
<path d="M35.3318 66.003L34.9528 66.056L34.8088 64.456H34.8148C34.8983 64.4444 34.9833 64.4494 35.0649 64.4707C35.1465 64.492 35.2231 64.5291 35.2903 64.58C35.3576 64.6309 35.4141 64.6946 35.4568 64.7673C35.4994 64.84 35.5273 64.9205 35.5388 65.004L35.6238 65.616C35.6361 65.706 35.6123 65.7972 35.5576 65.8697C35.5029 65.9422 35.4217 65.9901 35.3318 66.003Z" fill="#EDC69D"/>
<path d="M45.432 47.324L43.353 33.194C43.0866 31.3841 42.3631 29.672 41.2507 28.2197C40.1384 26.7673 38.674 25.6227 36.996 24.894L36.188 24.54V33.652L37.548 44.483L37.648 45.325L37.724 45.905L37.824 46.744L37.897 47.324V60.47H43.897C44.302 60.47 44.6903 60.3091 44.9767 60.0228C45.2631 59.7364 45.424 59.348 45.424 58.943V47.324H45.432Z" fill="white"/>
<path d="M40.7858 48.164H37.9028V47.324H40.7858C40.8962 47.324 41.002 47.3678 41.08 47.4459C41.158 47.5239 41.2018 47.6297 41.2018 47.74V47.748C41.2018 47.8583 41.158 47.9642 41.08 48.0422C41.002 48.1202 40.8962 48.164 40.7858 48.164Z" fill="#F2F2F2"/>
<path d="M40.8579 46.318V46.328C40.8579 46.4383 40.8141 46.5441 40.7361 46.6222C40.658 46.7002 40.5522 46.744 40.4419 46.744H37.8329L37.7329 45.905H40.4459C40.5551 45.9058 40.6596 45.9496 40.7367 46.0269C40.8138 46.1042 40.8574 46.2088 40.8579 46.318Z" fill="#F2F2F2"/>
<path d="M40.5109 44.901V44.911C40.5109 44.9657 40.5001 45.0199 40.4791 45.0704C40.4582 45.121 40.4274 45.1669 40.3887 45.2055C40.3499 45.2442 40.304 45.2748 40.2534 45.2956C40.2028 45.3165 40.1486 45.3271 40.0939 45.327H37.6469L37.5469 44.485H40.0929C40.1477 44.4848 40.202 44.4953 40.2527 44.5161C40.3034 44.5369 40.3495 44.5675 40.3883 44.6061C40.4272 44.6448 40.458 44.6907 40.479 44.7413C40.5001 44.7919 40.5109 44.8462 40.5109 44.901Z" fill="#F2F2F2"/>
<path d="M8.26091 60.469H2.96191V63.281H8.26091V60.469Z" fill="#F2F2F2"/>
<path d="M8.68683 63.426L9.68683 64.413L9.66583 64.642C9.64769 64.8387 9.6686 65.0371 9.72736 65.2258C9.78611 65.4144 9.88156 65.5896 10.0082 65.7412C10.1349 65.8929 10.2902 66.018 10.4654 66.1094C10.6405 66.2009 10.832 66.2568 11.0288 66.274H11.0468C11.077 66.2769 11.1074 66.2737 11.1364 66.2648C11.1654 66.2558 11.1922 66.2412 11.2155 66.2217C11.2388 66.2023 11.2579 66.1784 11.2719 66.1515C11.2858 66.1246 11.2943 66.0952 11.2968 66.065V66.056L11.4408 64.456L11.4798 64.015C11.4932 63.873 11.4548 63.731 11.3718 63.615L9.83484 61.464C9.79055 61.402 9.73321 61.3504 9.66687 61.313C9.60053 61.2755 9.5268 61.253 9.45084 61.247L8.10083 61.14L8.68683 63.426Z" fill="#E0B88D"/>
<path d="M3.38994 62.571L7.77194 61.213C7.98917 61.1458 8.21771 61.123 8.44394 61.146L9.46895 61.246C9.20595 61.246 8.92995 61.455 9.07895 61.984L9.37895 62.907L2.54594 65.024L2.38095 64.508C2.31835 64.3144 2.29493 64.1102 2.3121 63.9075C2.32927 63.7047 2.38667 63.5074 2.48094 63.327L2.48694 63.316C2.67753 62.958 3.00224 62.6901 3.38994 62.571Z" fill="#EDC69D"/>
<path d="M6.38884 68.103L6.40584 68.098C6.51687 68.0637 6.62006 68.0078 6.7095 67.9336C6.79894 67.8594 6.87288 67.7683 6.92711 67.6655C6.98134 67.5627 7.0148 67.4502 7.02556 67.3345C7.03632 67.2188 7.02418 67.1021 6.98984 66.991L5.90184 63.823L4.19385 64.352L5.28284 67.52C5.35241 67.7438 5.50794 67.931 5.71529 68.0403C5.92263 68.1496 6.16486 68.1721 6.38884 68.103Z" fill="#EDC69D"/>
<path d="M7.60889 63.292L8.60889 66.175C8.64323 66.2861 8.6991 66.3892 8.77332 66.4787C8.84753 66.5681 8.93865 66.6421 9.04144 66.6963C9.14424 66.7505 9.2567 66.784 9.37242 66.7947C9.48814 66.8055 9.60486 66.7934 9.7159 66.759L9.73289 66.753C9.84393 66.7187 9.9471 66.6628 10.0365 66.5886C10.126 66.5144 10.1999 66.4233 10.2542 66.3205C10.3084 66.2177 10.3419 66.1052 10.3526 65.9895C10.3634 65.8738 10.3512 65.7571 10.3169 65.646L9.31689 62.763L7.60889 63.292Z" fill="#EDC69D"/>
<g style="mix-blend-mode:multiply">
<path d="M7.60889 63.292L8.60889 66.175C8.64323 66.2861 8.6991 66.3892 8.77332 66.4787C8.84753 66.5681 8.93865 66.6421 9.04144 66.6963C9.14424 66.7505 9.2567 66.784 9.37242 66.7948C9.48814 66.8055 9.60486 66.7934 9.7159 66.759H9.72389L8.59189 63.451C8.55712 63.3394 8.47944 63.2461 8.37593 63.1918C8.27242 63.1374 8.15154 63.1263 8.03989 63.161L7.60889 63.292Z" fill="#F2F2F2"/>
</g>
<path d="M8.09676 67.571L8.11375 67.566C8.22479 67.5317 8.32798 67.4758 8.41742 67.4016C8.50686 67.3274 8.5808 67.2363 8.63503 67.1335C8.68925 67.0307 8.72271 66.9182 8.73347 66.8025C8.74424 66.6868 8.7321 66.57 8.69775 66.459L7.56175 63.139L5.85376 63.668L6.98976 66.988C7.05932 67.2121 7.215 67.3993 7.42258 67.5087C7.63016 67.618 7.87265 67.6404 8.09676 67.571Z" fill="#EDC69D"/>
<g style="mix-blend-mode:multiply">
<path d="M5.85376 63.669L6.98976 66.99C7.0242 67.101 7.08018 67.2042 7.15451 67.2936C7.22884 67.383 7.32006 67.457 7.42296 67.5111C7.52586 67.5652 7.63843 67.5986 7.75421 67.6092C7.87 67.6198 7.98673 67.6075 8.09776 67.573H8.10577L6.81477 63.751C6.78643 63.6597 6.72302 63.5834 6.63847 63.5387C6.55392 63.4941 6.45514 63.4849 6.36377 63.513L5.85376 63.669Z" fill="#F2F2F2"/>
</g>
<g style="mix-blend-mode:multiply">
<path d="M4.19385 64.35L5.28185 67.518C5.3514 67.7421 5.50708 67.9294 5.71466 68.0387C5.92224 68.148 6.16473 68.1704 6.38884 68.101H6.39784L5.15384 64.432C5.12529 64.3409 5.06181 64.2648 4.97728 64.2204C4.89275 64.176 4.79409 64.1668 4.70285 64.195L4.19385 64.35Z" fill="#F2F2F2"/>
</g>
<path d="M4.50485 68.06L4.52185 68.055C4.63291 68.0206 4.73609 67.9646 4.8255 67.8903C4.91491 67.816 4.9888 67.7247 5.04294 67.6218C5.09708 67.5189 5.13043 67.4064 5.14105 67.2906C5.15168 67.1748 5.13937 67.0581 5.10486 66.9471L4.19286 64.347L2.48486 64.876L3.39685 67.476C3.43118 67.5872 3.4871 67.6905 3.56139 67.78C3.63567 67.8695 3.72688 67.9435 3.82979 67.9977C3.9327 68.052 4.04528 68.0854 4.16112 68.0961C4.27695 68.1068 4.39376 68.0945 4.50485 68.06Z" fill="#EDC69D"/>
<g style="mix-blend-mode:multiply">
<path d="M2.48682 64.879L3.39882 67.479C3.43316 67.5901 3.48903 67.6932 3.56325 67.7827C3.63746 67.8721 3.72856 67.9461 3.83136 68.0003C3.93415 68.0545 4.04663 68.088 4.16235 68.0988C4.27808 68.1095 4.39478 68.0974 4.50581 68.063H4.51381L3.44681 64.963C3.43289 64.9178 3.41018 64.8757 3.37996 64.8392C3.34974 64.8027 3.31262 64.7725 3.27072 64.7504C3.22882 64.7283 3.18298 64.7147 3.1358 64.7103C3.08863 64.706 3.04106 64.711 2.99582 64.725L2.48682 64.879Z" fill="#F2F2F2"/>
</g>
<path d="M10.9169 66.003L11.2959 66.056L11.4399 64.456H11.4339C11.3503 64.4444 11.2654 64.4494 11.1838 64.4707C11.1022 64.492 11.0256 64.5291 10.9584 64.58C10.8911 64.6309 10.8346 64.6946 10.7919 64.7673C10.7493 64.84 10.7214 64.9205 10.7099 65.004L10.6249 65.616C10.6123 65.706 10.636 65.7974 10.6908 65.8699C10.7455 65.9425 10.8269 65.9903 10.9169 66.003Z" fill="#EDC69D"/>
<path d="M0.816895 47.324L2.89589 33.194C3.16221 31.3841 3.88576 29.672 4.99812 28.2197C6.11048 26.7673 7.5749 25.6227 9.2529 24.894L10.0609 24.54V33.652L8.7009 44.483L8.60089 45.325L8.52489 45.905L8.4249 46.744L8.3519 47.324V60.47H2.3519C1.94682 60.47 1.55832 60.3092 1.27179 60.0228C0.985263 59.7365 0.824163 59.3481 0.823898 58.943V47.324H0.816895Z" fill="white"/>
<path d="M5.46288 48.164H8.34587V47.324H5.46288C5.35255 47.324 5.24673 47.3678 5.16872 47.4459C5.0907 47.5239 5.04688 47.6297 5.04688 47.74V47.748C5.04688 47.8583 5.0907 47.9642 5.16872 48.0422C5.24673 48.1202 5.35255 48.164 5.46288 48.164Z" fill="#F2F2F2"/>
<path d="M5.39185 46.318V46.328C5.39185 46.4383 5.43567 46.5441 5.51369 46.6222C5.5917 46.7002 5.6975 46.744 5.80783 46.744H8.41684L8.51685 45.905H5.80783C5.69794 45.9047 5.59244 45.9481 5.51445 46.0255C5.43646 46.1029 5.39237 46.2081 5.39185 46.318Z" fill="#F2F2F2"/>
<path d="M5.73779 44.901V44.911C5.73779 44.9657 5.74859 45.0199 5.76956 45.0704C5.79053 45.121 5.82127 45.1669 5.86 45.2055C5.89874 45.2441 5.94471 45.2748 5.9953 45.2956C6.04589 45.3165 6.10009 45.3271 6.1548 45.327H8.5968L8.69679 44.485H6.1508C6.04099 44.4858 5.93595 44.53 5.85858 44.6079C5.78121 44.6858 5.73779 44.7912 5.73779 44.901Z" fill="#F2F2F2"/>
<path d="M21.2219 61.657H15.1489V62.685H21.2219V61.657Z" fill="#D22805"/>
<path d="M15.3659 61.657H15.1489V62.685H15.3659V61.657Z" fill="white"/>
<path d="M16.4989 61.657H15.6599V62.685H16.4989V61.657Z" fill="white"/>
<path d="M21.2219 61.657H21.0049V62.685H21.2219V61.657Z" fill="white"/>
<path d="M20.7098 61.657H19.8718V62.685H20.7098V61.657Z" fill="white"/>
<path d="M18.778 61.657H17.593V62.685H18.778V61.657Z" fill="white"/>
<g style="mix-blend-mode:multiply">
<path d="M21.2219 62.171H15.1489V62.685H21.2219V62.171Z" fill="#E6E6E6"/>
</g>
<path d="M21.4739 62.685H15.4009V63.713H21.4739V62.685Z" fill="#D22805"/>
<path d="M15.6179 62.685H15.4009V63.713H15.6179V62.685Z" fill="white"/>
<path d="M16.7509 62.685H15.9119V63.713H16.7509V62.685Z" fill="white"/>
<path d="M21.4738 62.685H21.2568V63.713H21.4738V62.685Z" fill="white"/>
<path d="M20.9628 62.685H20.1238V63.713H20.9628V62.685Z" fill="white"/>
<path d="M19.03 62.685H17.845V63.713H19.03V62.685Z" fill="white"/>
<g style="mix-blend-mode:multiply">
<path d="M21.4739 63.199H15.4009V63.713H21.4739V63.199Z" fill="#E6E6E6"/>
</g>
<path d="M20.5498 63.713H14.4768V64.741H20.5498V63.713Z" fill="#D22805"/>
<path d="M14.6938 63.713H14.4768V64.741H14.6938V63.713Z" fill="white"/>
<path d="M15.8268 63.713H14.9878V64.741H15.8268V63.713Z" fill="white"/>
<path d="M20.5498 63.713H20.3328V64.741H20.5498V63.713Z" fill="white"/>
<path d="M20.0387 63.713H19.1997V64.741H20.0387V63.713Z" fill="white"/>
<path d="M18.1059 63.713H16.9209V64.741H18.1059V63.713Z" fill="white"/>
<g style="mix-blend-mode:multiply">
<path d="M20.5498 64.227H14.4768V64.741H20.5498V64.227Z" fill="#E6E6E6"/>
</g>
<path d="M21.4739 64.741H15.4009V65.769H21.4739V64.741Z" fill="#D22805"/>
<path d="M15.6179 64.741H15.4009V65.769H15.6179V64.741Z" fill="white"/>
<path d="M16.7509 64.741H15.9119V65.769H16.7509V64.741Z" fill="white"/>
<path d="M21.4738 64.741H21.2568V65.769H21.4738V64.741Z" fill="white"/>
<path d="M20.9628 64.741H20.1238V65.769H20.9628V64.741Z" fill="white"/>
<path d="M19.03 64.741H17.845V65.769H19.03V64.741Z" fill="white"/>
<g style="mix-blend-mode:multiply">
<path d="M21.4739 65.255H15.4009V65.769H21.4739V65.255Z" fill="#E6E6E6"/>
</g>
<path d="M21.3538 65.769H15.2808V66.797H21.3538V65.769Z" fill="#D22805"/>
<path d="M15.4978 65.769H15.2808V66.797H15.4978V65.769Z" fill="white"/>
<path d="M16.6307 65.769H15.7917V66.797H16.6307V65.769Z" fill="white"/>
<path d="M21.3537 65.769H21.1367V66.797H21.3537V65.769Z" fill="white"/>
<path d="M20.8427 65.769H20.0037V66.797H20.8427V65.769Z" fill="white"/>
<path d="M18.9099 65.769H17.7249V66.797H18.9099V65.769Z" fill="white"/>
<g style="mix-blend-mode:multiply">
<path d="M21.3538 66.283H15.2808V66.797H21.3538V66.283Z" fill="#E6E6E6"/>
</g>
<path d="M21.2329 66.797H15.1599V67.825H21.2329V66.797Z" fill="#D22805"/>
<path d="M15.3769 66.797H15.1599V67.825H15.3769V66.797Z" fill="white"/>
<path d="M16.5099 66.797H15.6709V67.825H16.5099V66.797Z" fill="white"/>
<path d="M21.2329 66.797H21.0159V67.825H21.2329V66.797Z" fill="white"/>
<path d="M20.7208 66.797H19.8828V67.825H20.7208V66.797Z" fill="white"/>
<path d="M18.789 66.797H17.604V67.825H18.789V66.797Z" fill="white"/>
<g style="mix-blend-mode:multiply">
<path d="M21.2329 67.311H15.1599V67.825H21.2329V67.311Z" fill="#E6E6E6"/>
</g>
<path d="M21.5679 67.825H15.4949V68.853H21.5679V67.825Z" fill="#D22805"/>
<path d="M15.7119 67.825H15.4949V68.853H15.7119V67.825Z" fill="white"/>
<path d="M16.8449 67.825H16.0059V68.853H16.8449V67.825Z" fill="white"/>
<path d="M21.5678 67.825H21.3508V68.853H21.5678V67.825Z" fill="white"/>
<path d="M21.0558 67.825H20.2178V68.853H21.0558V67.825Z" fill="white"/>
<path d="M19.124 67.825H17.939V68.853H19.124V67.825Z" fill="white"/>
<g style="mix-blend-mode:multiply">
<path d="M21.5679 68.339H15.4949V68.853H21.5679V68.339Z" fill="#E6E6E6"/>
</g>
<path d="M30.5107 63.199H24.4377V64.227H30.5107V63.199Z" fill="#2061B5"/>
<path d="M30.5107 63.199H30.2937V64.227H30.5107V63.199Z" fill="white"/>
<path d="M29.9996 63.199H29.1606V64.227H29.9996V63.199Z" fill="white"/>
<path d="M24.6547 63.199H24.4377V64.227H24.6547V63.199Z" fill="white"/>
<path d="M25.7877 63.199H24.9487V64.227H25.7877V63.199Z" fill="white"/>
<path d="M28.0668 63.199H26.8818V64.227H28.0668V63.199Z" fill="white"/>
<g style="mix-blend-mode:multiply">
<path d="M30.5107 63.713H24.4377V64.227H30.5107V63.713Z" fill="#E6E6E6"/>
</g>
<path d="M30.2588 64.227H24.1858V65.255H30.2588V64.227Z" fill="#2061B5"/>
<path d="M30.2587 64.227H30.0417V65.255H30.2587V64.227Z" fill="white"/>
<path d="M29.7477 64.227H28.9087V65.255H29.7477V64.227Z" fill="white"/>
<path d="M24.4028 64.227H24.1858V65.255H24.4028V64.227Z" fill="white"/>
<path d="M25.5358 64.227H24.6968V65.255H25.5358V64.227Z" fill="white"/>
<path d="M27.8149 64.227H26.6299V65.255H27.8149V64.227Z" fill="white"/>
<g style="mix-blend-mode:multiply">
<path d="M30.2588 64.741H24.1858V65.255H30.2588V64.741Z" fill="#E6E6E6"/>
</g>
<path d="M30.7358 65.255H24.6628V66.283H30.7358V65.255Z" fill="#2061B5"/>
<path d="M30.7358 65.255H30.5188V66.283H30.7358V65.255Z" fill="white"/>
<path d="M30.2247 65.255H29.3857V66.283H30.2247V65.255Z" fill="white"/>
<path d="M24.8798 65.255H24.6628V66.283H24.8798V65.255Z" fill="white"/>
<path d="M26.0128 65.255H25.1738V66.283H26.0128V65.255Z" fill="white"/>
<path d="M28.2919 65.255H27.1069V66.283H28.2919V65.255Z" fill="white"/>
<g style="mix-blend-mode:multiply">
<path d="M30.7358 65.769H24.6628V66.283H30.7358V65.769Z" fill="#E6E6E6"/>
</g>
<path d="M30.2588 66.283H24.1858V67.311H30.2588V66.283Z" fill="#2061B5"/>
<path d="M30.2587 66.283H30.0417V67.311H30.2587V66.283Z" fill="white"/>
<path d="M29.7477 66.283H28.9087V67.311H29.7477V66.283Z" fill="white"/>
<path d="M24.4028 66.283H24.1858V67.311H24.4028V66.283Z" fill="white"/>
<path d="M25.5358 66.283H24.6968V67.311H25.5358V66.283Z" fill="white"/>
<path d="M27.8149 66.283H26.6299V67.311H27.8149V66.283Z" fill="white"/>
<g style="mix-blend-mode:multiply">
<path d="M30.2588 66.797H24.1858V67.311H30.2588V66.797Z" fill="#E6E6E6"/>
</g>
<path d="M30.8257 67.311H24.7527V68.339H30.8257V67.311Z" fill="#2061B5"/>
<path d="M30.8256 67.311H30.6086V68.339H30.8256V67.311Z" fill="white"/>
<path d="M30.3146 67.311H29.4756V68.339H30.3146V67.311Z" fill="white"/>
<path d="M24.9697 67.311H24.7527V68.339H24.9697V67.311Z" fill="white"/>
<path d="M26.1027 67.311H25.2637V68.339H26.1027V67.311Z" fill="white"/>
<path d="M28.3818 67.311H27.1968V68.339H28.3818V67.311Z" fill="white"/>
<g style="mix-blend-mode:multiply">
<path d="M30.8257 67.825H24.7527V68.339H30.8257V67.825Z" fill="#E6E6E6"/>
</g>
<path d="M30.4988 68.339H24.4258V69.367H30.4988V68.339Z" fill="#2061B5"/>
<path d="M30.4987 68.339H30.2817V69.367H30.4987V68.339Z" fill="white"/>
<path d="M29.9867 68.339H29.1487V69.367H29.9867V68.339Z" fill="white"/>
<path d="M24.6428 68.339H24.4258V69.367H24.6428V68.339Z" fill="white"/>
<path d="M25.7758 68.339H24.9368V69.367H25.7758V68.339Z" fill="white"/>
<path d="M28.0549 68.339H26.8699V69.367H28.0549V68.339Z" fill="white"/>
<g style="mix-blend-mode:multiply">
<path d="M30.4988 68.853H24.4258V69.367H30.4988V68.853Z" fill="#E6E6E6"/>
</g>
<path d="M30.6118 69.367H24.5388V70.395H30.6118V69.367Z" fill="#2061B5"/>
<path d="M30.6118 69.367H30.3948V70.395H30.6118V69.367Z" fill="white"/>
<path d="M30.0997 69.367H29.2617V70.395H30.0997V69.367Z" fill="white"/>
<path d="M24.7558 69.367H24.5388V70.395H24.7558V69.367Z" fill="white"/>
<path d="M25.8888 69.367H25.0498V70.395H25.8888V69.367Z" fill="white"/>
<path d="M28.1679 69.367H26.9829V70.395H28.1679V69.367Z" fill="white"/>
<g style="mix-blend-mode:multiply">
<path d="M30.6118 69.881H24.5388V70.395H30.6118V69.881Z" fill="#E6E6E6"/>
</g>
</svg>
