<svg width="31" height="31" viewBox="0 0 31 31" fill="none" xmlns="http://www.w3.org/2000/svg">
<path d="M2.46805 3.51899C3.29151 3.51899 3.95905 2.85144 3.95905 2.02799C3.95905 1.20453 3.29151 0.536987 2.46805 0.536987C1.64459 0.536987 0.977051 1.20453 0.977051 2.02799C0.977051 2.85144 1.64459 3.51899 2.46805 3.51899Z" fill="white"/>
<path d="M6.89627 8.03797C7.71973 8.03797 8.38727 7.37043 8.38727 6.54697C8.38727 5.72351 7.71973 5.05597 6.89627 5.05597C6.07282 5.05597 5.40527 5.72351 5.40527 6.54697C5.40527 7.37043 6.07282 8.03797 6.89627 8.03797Z" fill="white"/>
<path d="M6.89627 3.51899C7.71973 3.51899 8.38727 2.85144 8.38727 2.02799C8.38727 1.20453 7.71973 0.536987 6.89627 0.536987C6.07282 0.536987 5.40527 1.20453 5.40527 2.02799C5.40527 2.85144 6.07282 3.51899 6.89627 3.51899Z" fill="white"/>
<path d="M11.4148 8.03797C12.2383 8.03797 12.9058 7.37043 12.9058 6.54697C12.9058 5.72351 12.2383 5.05597 11.4148 5.05597C10.5914 5.05597 9.92383 5.72351 9.92383 6.54697C9.92383 7.37043 10.5914 8.03797 11.4148 8.03797Z" fill="white"/>
<path d="M11.4148 12.466C12.2383 12.466 12.9058 11.7985 12.9058 10.975C12.9058 10.1516 12.2383 9.48401 11.4148 9.48401C10.5914 9.48401 9.92383 10.1516 9.92383 10.975C9.92383 11.7985 10.5914 12.466 11.4148 12.466Z" fill="white"/>
<path d="M11.4148 3.51899C12.2383 3.51899 12.9058 2.85144 12.9058 2.02799C12.9058 1.20453 12.2383 0.536987 11.4148 0.536987C10.5914 0.536987 9.92383 1.20453 9.92383 2.02799C9.92383 2.85144 10.5914 3.51899 11.4148 3.51899Z" fill="white"/>
<path d="M15.844 8.03797C16.6675 8.03797 17.335 7.37043 17.335 6.54697C17.335 5.72351 16.6675 5.05597 15.844 5.05597C15.0206 5.05597 14.353 5.72351 14.353 6.54697C14.353 7.37043 15.0206 8.03797 15.844 8.03797Z" fill="white"/>
<path d="M15.844 12.466C16.6675 12.466 17.335 11.7985 17.335 10.975C17.335 10.1516 16.6675 9.48401 15.844 9.48401C15.0206 9.48401 14.353 10.1516 14.353 10.975C14.353 11.7985 15.0206 12.466 15.844 12.466Z" fill="white"/>
<path d="M15.844 3.51899C16.6675 3.51899 17.335 2.85144 17.335 2.02799C17.335 1.20453 16.6675 0.536987 15.844 0.536987C15.0206 0.536987 14.353 1.20453 14.353 2.02799C14.353 2.85144 15.0206 3.51899 15.844 3.51899Z" fill="white"/>
<path d="M20.2723 8.03797C21.0957 8.03797 21.7633 7.37043 21.7633 6.54697C21.7633 5.72351 21.0957 5.05597 20.2723 5.05597C19.4488 5.05597 18.7812 5.72351 18.7812 6.54697C18.7812 7.37043 19.4488 8.03797 20.2723 8.03797Z" fill="white"/>
<path d="M20.2723 12.466C21.0957 12.466 21.7633 11.7985 21.7633 10.975C21.7633 10.1516 21.0957 9.48401 20.2723 9.48401C19.4488 9.48401 18.7812 10.1516 18.7812 10.975C18.7812 11.7985 19.4488 12.466 20.2723 12.466Z" fill="white"/>
<path d="M15.844 16.894C16.6675 16.894 17.335 16.2264 17.335 15.403C17.335 14.5795 16.6675 13.912 15.844 13.912C15.0206 13.912 14.353 14.5795 14.353 15.403C14.353 16.2264 15.0206 16.894 15.844 16.894Z" fill="white"/>
<path d="M20.2723 16.894C21.0957 16.894 21.7633 16.2264 21.7633 15.403C21.7633 14.5795 21.0957 13.912 20.2723 13.912C19.4488 13.912 18.7812 14.5795 18.7812 15.403C18.7812 16.2264 19.4488 16.894 20.2723 16.894Z" fill="white"/>
<path d="M11.4148 21.413C12.2383 21.413 12.9058 20.7454 12.9058 19.922C12.9058 19.0985 12.2383 18.431 11.4148 18.431C10.5914 18.431 9.92383 19.0985 9.92383 19.922C9.92383 20.7454 10.5914 21.413 11.4148 21.413Z" fill="white"/>
<path d="M15.844 21.413C16.6675 21.413 17.335 20.7454 17.335 19.922C17.335 19.0985 16.6675 18.431 15.844 18.431C15.0206 18.431 14.353 19.0985 14.353 19.922C14.353 20.7454 15.0206 21.413 15.844 21.413Z" fill="white"/>
<path d="M20.2723 21.413C21.0957 21.413 21.7633 20.7454 21.7633 19.922C21.7633 19.0985 21.0957 18.431 20.2723 18.431C19.4488 18.431 18.7812 19.0985 18.7812 19.922C18.7812 20.7454 19.4488 21.413 20.2723 21.413Z" fill="white"/>
<path d="M6.89627 25.847C7.71973 25.847 8.38727 25.1794 8.38727 24.356C8.38727 23.5325 7.71973 22.865 6.89627 22.865C6.07282 22.865 5.40527 23.5325 5.40527 24.356C5.40527 25.1794 6.07282 25.847 6.89627 25.847Z" fill="white"/>
<path d="M11.4148 25.847C12.2383 25.847 12.9058 25.1794 12.9058 24.356C12.9058 23.5325 12.2383 22.865 11.4148 22.865C10.5914 22.865 9.92383 23.5325 9.92383 24.356C9.92383 25.1794 10.5914 25.847 11.4148 25.847Z" fill="white"/>
<path d="M15.844 25.847C16.6675 25.847 17.335 25.1794 17.335 24.356C17.335 23.5325 16.6675 22.865 15.844 22.865C15.0206 22.865 14.353 23.5325 14.353 24.356C14.353 25.1794 15.0206 25.847 15.844 25.847Z" fill="white"/>
<path d="M20.2723 25.847C21.0957 25.847 21.7633 25.1794 21.7633 24.356C21.7633 23.5325 21.0957 22.865 20.2723 22.865C19.4488 22.865 18.7812 23.5325 18.7812 24.356C18.7812 25.1794 19.4488 25.847 20.2723 25.847Z" fill="white"/>
<path d="M24.887 12.466C25.7105 12.466 26.378 11.7985 26.378 10.975C26.378 10.1516 25.7105 9.48401 24.887 9.48401C24.0635 9.48401 23.396 10.1516 23.396 10.975C23.396 11.7985 24.0635 12.466 24.887 12.466Z" fill="white"/>
<path d="M24.887 16.894C25.7105 16.894 26.378 16.2264 26.378 15.403C26.378 14.5795 25.7105 13.912 24.887 13.912C24.0635 13.912 23.396 14.5795 23.396 15.403C23.396 16.2264 24.0635 16.894 24.887 16.894Z" fill="white"/>
<path d="M24.887 21.413C25.7105 21.413 26.378 20.7454 26.378 19.922C26.378 19.0985 25.7105 18.431 24.887 18.431C24.0635 18.431 23.396 19.0985 23.396 19.922C23.396 20.7454 24.0635 21.413 24.887 21.413Z" fill="white"/>
<path d="M2.46805 30.462C3.29151 30.462 3.95905 29.7944 3.95905 28.971C3.95905 28.1475 3.29151 27.48 2.46805 27.48C1.64459 27.48 0.977051 28.1475 0.977051 28.971C0.977051 29.7944 1.64459 30.462 2.46805 30.462Z" fill="white"/>
<path d="M6.89627 30.462C7.71973 30.462 8.38727 29.7944 8.38727 28.971C8.38727 28.1475 7.71973 27.48 6.89627 27.48C6.07282 27.48 5.40527 28.1475 5.40527 28.971C5.40527 29.7944 6.07282 30.462 6.89627 30.462Z" fill="white"/>
<path d="M11.4148 30.462C12.2383 30.462 12.9058 29.7944 12.9058 28.971C12.9058 28.1475 12.2383 27.48 11.4148 27.48C10.5914 27.48 9.92383 28.1475 9.92383 28.971C9.92383 29.7944 10.5914 30.462 11.4148 30.462Z" fill="white"/>
<path d="M15.844 30.462C16.6675 30.462 17.335 29.7944 17.335 28.971C17.335 28.1475 16.6675 27.48 15.844 27.48C15.0206 27.48 14.353 28.1475 14.353 28.971C14.353 29.7944 15.0206 30.462 15.844 30.462Z" fill="white"/>
<path d="M29.3211 16.894C30.1445 16.894 30.8121 16.2264 30.8121 15.403C30.8121 14.5795 30.1445 13.912 29.3211 13.912C28.4976 13.912 27.8301 14.5795 27.8301 15.403C27.8301 16.2264 28.4976 16.894 29.3211 16.894Z" fill="white"/>
</svg>
