<svg width="70" height="70" viewBox="0 0 70 70" fill="none" xmlns="http://www.w3.org/2000/svg">
<path d="M35 70C54.33 70 70 54.33 70 35C70 15.67 54.33 0 35 0C15.67 0 0 15.67 0 35C0 54.33 15.67 70 35 70Z" fill="white"/>
<path d="M35.0002 65.966C52.1022 65.966 65.9662 52.102 65.9662 35C65.9662 17.8979 52.1022 4.034 35.0002 4.034C17.8981 4.034 4.03418 17.8979 4.03418 35C4.03418 52.102 17.8981 65.966 35.0002 65.966Z" fill="#168348"/>
<path style="mix-blend-mode:screen" opacity="0.412" d="M34.8662 67.042C51.8942 67.042 65.6982 53.238 65.6982 36.21C65.6982 19.1819 51.8942 5.37799 34.8662 5.37799C17.8381 5.37799 4.03418 19.1819 4.03418 36.21C4.03418 53.238 17.8381 67.042 34.8662 67.042Z"/>
<path d="M29.2274 48.3274L17.5274 36.6274C17.3602 36.4603 17.2276 36.2618 17.1371 36.0434C17.0466 35.825 17 35.5908 17 35.3544C17 35.118 17.0466 34.8839 17.1371 34.6654C17.2276 34.447 17.3602 34.2486 17.5274 34.0814L20.0734 31.5274C20.2406 31.3602 20.439 31.2276 20.6574 31.1371C20.8759 31.0466 21.11 31 21.3464 31C21.5828 31 21.817 31.0466 22.0354 31.1371C22.2538 31.2276 22.4523 31.3602 22.6194 31.5274L30.5004 39.4134L47.3824 22.5274C47.5496 22.3602 47.748 22.2276 47.9664 22.1371C48.1849 22.0466 48.419 22 48.6554 22C48.8918 22 49.126 22.0466 49.3444 22.1371C49.5628 22.2276 49.7613 22.3602 49.9284 22.5274L52.4734 25.0774C52.6406 25.2446 52.7733 25.443 52.8638 25.6615C52.9543 25.8799 53.0008 26.114 53.0008 26.3504C53.0008 26.5868 52.9543 26.821 52.8638 27.0394C52.7733 27.2578 52.6406 27.4563 52.4734 27.6234L31.7734 48.3234C31.6065 48.4909 31.4083 48.6238 31.19 48.7147C30.9717 48.8055 30.7377 48.8525 30.5012 48.8528C30.2648 48.8532 30.0306 48.807 29.8121 48.7168C29.5935 48.6267 29.3948 48.4944 29.2274 48.3274V48.3274Z" fill="white"/>

</svg>
