<svg width="93" height="93" viewBox="0 0 93 93" fill="none" xmlns="http://www.w3.org/2000/svg">
<path d="M46.819 92.806C72.2616 92.806 92.887 72.1806 92.887 46.738C92.887 21.2953 72.2616 0.669998 46.819 0.669998C21.3763 0.669998 0.750977 21.2953 0.750977 46.738C0.750977 72.1806 21.3763 92.806 46.819 92.806Z" fill="white"/>
<path d="M46.8192 88.772C70.0339 88.772 88.8532 69.9527 88.8532 46.738C88.8532 23.5233 70.0339 4.70399 46.8192 4.70399C23.6044 4.70399 4.78516 23.5233 4.78516 46.738C4.78516 69.9527 23.6044 88.772 46.8192 88.772Z" fill="#168348"/>
<path style="mix-blend-mode:screen" opacity="0.412" d="M46.6852 89.848C69.8259 89.848 88.5852 71.0887 88.5852 47.948C88.5852 24.8073 69.8259 6.048 46.6852 6.048C23.5444 6.048 4.78516 24.8073 4.78516 47.948C4.78516 71.0887 23.5444 89.848 46.6852 89.848Z" fill="url(#paint0_radial)"/>
<path d="M21.5148 37.943C21.1283 37.6728 20.8306 37.2941 20.6595 36.8546C20.4884 36.4152 20.4515 35.9349 20.5535 35.4745C20.6554 35.0141 20.8917 34.5943 21.2324 34.2683C21.5731 33.9422 22.0029 33.7246 22.4673 33.6429C22.9317 33.5612 23.41 33.6192 23.8415 33.8094C24.2729 33.9997 24.6383 34.3137 24.8912 34.7116C25.1442 35.1096 25.2734 35.5737 25.2624 36.0451C25.2515 36.5166 25.1009 36.9742 24.8298 37.36C24.4651 37.8739 23.9126 38.2233 23.292 38.3324C22.6715 38.4416 22.0329 38.3016 21.5148 37.943ZM34.1838 53.836H25.7738C24.9223 53.8368 24.0987 53.5322 23.4526 52.9775C22.8065 52.4229 22.3808 51.6548 22.2528 50.813L19.9088 39.561H17.5298L19.8968 51.171C20.1156 52.5757 20.8293 53.856 21.9093 54.7806C22.9892 55.7052 24.3641 56.2132 25.7858 56.213H34.1858L34.1838 53.836ZM34.4578 49.078H28.6518L27.4298 44.2C29.2376 45.389 31.4067 45.9028 33.5558 45.651V43.113C32.5736 43.2606 31.5715 43.2048 30.6118 42.949C29.6521 42.6932 28.7552 42.2429 27.9768 41.626L26.0228 40.12C25.7539 39.914 25.4486 39.7607 25.1228 39.668C24.7406 39.5553 24.3378 39.5311 23.9448 39.597H23.9178C23.2185 39.7219 22.5965 40.1173 22.1868 40.6976C21.777 41.2778 21.6125 41.9962 21.7288 42.697L23.3348 49.739C23.4922 50.5545 23.9284 51.2899 24.5686 51.819C25.2088 52.3481 26.0132 52.638 26.8438 52.639H34.9918L39.5368 56.213L41.3208 54.429L34.4568 49.076L34.4578 49.078Z" fill="white"/>
<path d="M70.9769 37.943C71.3628 37.6724 71.6599 37.2935 71.8304 36.8541C72.001 36.4147 72.0374 35.9346 71.9351 35.4745C71.8328 35.0145 71.5964 34.595 71.2557 34.2693C70.9151 33.9436 70.4854 33.7262 70.0212 33.6447C69.557 33.5631 69.079 33.6211 68.6477 33.8112C68.2165 34.0013 67.8512 34.3151 67.5983 34.7128C67.3453 35.1104 67.2159 35.5742 67.2265 36.0454C67.2372 36.5166 67.3873 36.9741 67.6579 37.36C68.0226 37.875 68.5759 38.2252 69.1975 38.3344C69.819 38.4435 70.4585 38.3029 70.9769 37.943ZM58.3079 53.835H66.7179C67.5694 53.8361 68.3931 53.5318 69.0394 52.9772C69.6857 52.4227 70.1116 51.6548 70.2399 50.813L72.5829 39.561H74.9619L72.5949 51.171C72.3762 52.5756 71.6625 53.8557 70.5828 54.7803C69.5031 55.7048 68.1284 56.213 66.7069 56.213H58.3069L58.3079 53.835ZM58.0339 49.077H63.8389L65.0639 44.2C63.2561 45.389 61.087 45.9028 58.9379 45.651V43.113C59.9201 43.2606 60.9221 43.2048 61.8819 42.949C62.8416 42.6932 63.7385 42.2429 64.5169 41.626L66.4709 40.12C66.7398 39.914 67.0451 39.7607 67.3709 39.668C67.7531 39.5553 68.1559 39.5311 68.5489 39.597H68.5709C69.2702 39.7219 69.8921 40.1173 70.3019 40.6976C70.7116 41.2778 70.8762 41.9962 70.7599 42.697L69.1569 49.743C68.9995 50.5585 68.5633 51.2939 67.9231 51.823C67.2828 52.3521 66.4785 52.642 65.6479 52.643H57.4989L52.9549 56.213L51.1709 54.43L58.0349 49.077H58.0339Z" fill="white"/>
<path d="M39.1367 31.02V30.548C39.1367 30.3602 39.2113 30.1801 39.3441 30.0474C39.4769 29.9146 39.6569 29.84 39.8447 29.84H50.4587V28.425C50.459 28.2852 50.5006 28.1485 50.5784 28.0323C50.6563 27.9161 50.7667 27.8256 50.8959 27.7721C51.0252 27.7186 51.1673 27.7046 51.3045 27.7318C51.4417 27.759 51.5677 27.8262 51.6667 27.925L54.0247 30.281C54.1571 30.4137 54.2315 30.5935 54.2315 30.781C54.2315 30.9685 54.1571 31.1483 54.0247 31.281L51.6667 33.643C51.5677 33.7418 51.4417 33.809 51.3045 33.8362C51.1673 33.8634 51.0252 33.8494 50.8959 33.7959C50.7667 33.7424 50.6563 33.6519 50.5784 33.5357C50.5006 33.4195 50.459 33.2828 50.4587 33.143V31.727H39.8447C39.6571 31.727 39.4772 31.6525 39.3444 31.52C39.2117 31.3874 39.137 31.2076 39.1367 31.02V31.02ZM53.5247 35.501H42.9107V34.081C42.9105 33.9412 42.8688 33.8045 42.791 33.6883C42.7132 33.5721 42.6027 33.4816 42.4735 33.4281C42.3443 33.3746 42.2021 33.3606 42.0649 33.3878C41.9278 33.415 41.8017 33.4822 41.7027 33.581L39.3437 35.944C39.2113 36.0767 39.137 36.2565 39.137 36.444C39.137 36.6315 39.2113 36.8113 39.3437 36.944L41.7027 39.303C41.8017 39.4018 41.9278 39.469 42.0649 39.4962C42.2021 39.5234 42.3443 39.5094 42.4735 39.4559C42.6027 39.4024 42.7132 39.3119 42.791 39.1957C42.8688 39.0795 42.9105 38.9428 42.9107 38.803V37.388H53.5247C53.6179 37.3885 53.7104 37.3706 53.7967 37.3354C53.883 37.3001 53.9614 37.2481 54.0276 37.1824C54.0937 37.1167 54.1463 37.0386 54.1822 36.9526C54.218 36.8665 54.2366 36.7742 54.2367 36.681V36.209C54.2367 36.1157 54.2183 36.0233 54.1824 35.9371C54.1466 35.851 54.0941 35.7727 54.0279 35.7069C53.9618 35.6412 53.8832 35.5891 53.7969 35.5537C53.7105 35.5184 53.618 35.5005 53.5247 35.501Z" fill="white"/>
<defs>
<radialGradient id="paint0_radial" cx="0" cy="0" r="1" gradientUnits="userSpaceOnUse" gradientTransform="translate(47.188 97.5576) scale(63.1014)">
<stop stop-color="#38FF4F"/>
<stop offset="0.174" stop-color="#38FF85"/>
<stop offset="0.302" stop-color="#2AC253"/>
<stop offset="0.44" stop-color="#1D873A"/>
<stop offset="0.574" stop-color="#135723"/>
<stop offset="0.699" stop-color="#0A3116"/>
<stop offset="0.815" stop-color="#041609"/>
<stop offset="0.917" stop-color="#010503"/>
<stop offset="0.995"/>
<stop offset="1"/>
</radialGradient>
</defs>
</svg>
