<svg width="93" height="93" viewBox="0 0 93 93" fill="none" xmlns="http://www.w3.org/2000/svg">
<path d="M46.2072 92.806C71.6498 92.806 92.2752 72.1806 92.2752 46.738C92.2752 21.2953 71.6498 0.669998 46.2072 0.669998C20.7645 0.669998 0.13916 21.2953 0.13916 46.738C0.13916 72.1806 20.7645 92.806 46.2072 92.806Z" fill="white"/>
<path d="M46.2073 88.772C69.4221 88.772 88.2413 69.9527 88.2413 46.738C88.2413 23.5233 69.4221 4.70399 46.2073 4.70399C22.9926 4.70399 4.17334 23.5233 4.17334 46.738C4.17334 69.9527 22.9926 88.772 46.2073 88.772Z" fill="#168348"/>
<path d="M46.0733 89.848C69.2141 89.848 87.9733 71.0887 87.9733 47.948C87.9733 24.8073 69.2141 6.048 46.0733 6.048C22.9326 6.048 4.17334 24.8073 4.17334 47.948C4.17334 71.0887 22.9326 89.848 46.0733 89.848Z"/>
<path d="M35.6743 26.225L66.9623 44.998L35.6743 63.771V26.225Z" fill="white"/>
</svg>
