<svg width="93" height="93" viewBox="0 0 93 93" fill="none" xmlns="http://www.w3.org/2000/svg">
<path d="M46.068 92.136C71.5107 92.136 92.136 71.5107 92.136 46.068C92.136 20.6253 71.5107 0 46.068 0C20.6253 0 0 20.6253 0 46.068C0 71.5107 20.6253 92.136 46.068 92.136Z" fill="white"/>
<path d="M46.0682 88.102C69.2829 88.102 88.1022 69.2827 88.1022 46.068C88.1022 22.8533 69.2829 4.034 46.0682 4.034C22.8534 4.034 4.03418 22.8533 4.03418 46.068C4.03418 69.2827 22.8534 88.102 46.0682 88.102Z" fill="#831616"/>
<path d="M45.9342 89.178C69.0749 89.178 87.8342 70.4187 87.8342 47.278C87.8342 24.1373 69.0749 5.37801 45.9342 5.37801C22.7934 5.37801 4.03418 24.1373 4.03418 47.278C4.03418 70.4187 22.7934 89.178 45.9342 89.178Z"/>
<path d="M58.277 25.555L46.544 37.289L34.813 25.555L27.773 32.595L39.504 44.328L27.77 56.062L34.81 63.102L46.544 51.368L58.277 63.102L65.317 56.062L53.583 44.328L65.313 32.595L58.277 25.555Z" fill="white"/>
</svg>
