<svg xmlns="http://www.w3.org/2000/svg" width="17.477" height="17.734" viewBox="0 0 17.477 17.734">
  <g id="card" transform="translate(-3.703)">
    <path id="Path_2937" data-name="Path 2937" d="M15.656,0H4.049A.347.347,0,0,0,3.7.347v17.04a.347.347,0,0,0,.346.347H15.656A.347.347,0,0,0,16,17.387V.347A.347.347,0,0,0,15.656,0ZM13.219,9.99a1.937,1.937,0,0,1-1.754,1.1H10.372V12.5H11a.52.52,0,0,1,0,1.04H8.707a.52.52,0,0,1,0-1.04h.626v-1.41H8.24A1.949,1.949,0,0,1,6.7,7.938l.485-.619c.933-1.191,2.094-2.673,2.216-2.867a.519.519,0,0,1,.895,0c.123.194,1.286,1.679,2.221,2.872l.48.614A1.934,1.934,0,0,1,13.219,9.99Z" fill="#fff"/>
    <path id="Path_2938" data-name="Path 2938" d="M392.723,44.2l-3.91-1.421v13.67l4.119-11.809A.347.347,0,0,0,392.723,44.2Z" transform="translate(-371.771 -41.294)" fill="#fff"/>
    <path id="Path_2939" data-name="Path 2939" d="M112.69,163.806c-.885-1.13-1.484-1.9-1.851-2.375-.366.478-.964,1.243-1.846,2.369l-.485.619a.9.9,0,0,0-.2.555.914.914,0,0,0,.094.4.893.893,0,0,0,.82.512h3.225a.908.908,0,0,0,.718-1.467Z" transform="translate(-100.987 -155.84)" fill="#fff"/>
  </g>
</svg>
