<svg xmlns="http://www.w3.org/2000/svg" width="23.91" height="15.23" viewBox="0 0 23.91 15.23">
  <g id="casino" transform="translate(23.91) rotate(90)">
    <path id="Path_19" data-name="Path 19" d="M27.055,132.173a.4.4,0,1,0,.4-.4A.4.4,0,0,0,27.055,132.173Zm0,0" transform="translate(-14.024 -124.901)" fill="#fff"/>
    <path id="Path_20" data-name="Path 20" d="M78.287,398.573a.4.4,0,1,1,.4-.4A.4.4,0,0,1,78.287,398.573Zm0,0" transform="translate(-67.507 -377.027)" fill="#fff"/>
    <path id="Path_21" data-name="Path 21" d="M87.1,92.084a3.444,3.444,0,0,1-3.442,3.429h0a3.444,3.444,0,0,1-3.442-3.429V83.429a3.442,3.442,0,0,1,6.884,0Zm0,0" transform="translate(-76.046 -75.828)" fill="#fff"/>
    <path id="Path_22" data-name="Path 22" d="M208.286,397.773a.4.4,0,1,1-.4.4A.4.4,0,0,1,208.286,397.773Zm0,0" transform="translate(-204.287 -377.027)" fill="#fff"/>
    <path id="Path_23" data-name="Path 23" d="M27.055,222.173a.4.4,0,1,0,.4-.4A.4.4,0,0,0,27.055,222.173Zm0,0" transform="translate(-14.024 -210.207)" fill="#fff"/>
    <path id="Path_24" data-name="Path 24" d="M208.287,46.573a.4.4,0,1,1,.4-.4A.4.4,0,0,1,208.287,46.573Zm0,0" transform="translate(-204.288 -43.386)" fill="#fff"/>
    <path id="Path_25" data-name="Path 25" d="M78.287,46.573a.4.4,0,1,1,.4-.4A.4.4,0,0,1,78.287,46.573Zm0,0" transform="translate(-67.507 -43.386)" fill="#fff"/>
    <path id="Path_26" data-name="Path 26" d="M27.055,312.173a.4.4,0,1,0,.4-.4A.4.4,0,0,0,27.055,312.173Zm0,0" transform="translate(-14.024 -295.513)" fill="#fff"/>
    <path id="Path_27" data-name="Path 27" d="M7.834,23.91h0A7.6,7.6,0,0,1,.219,16.332V7.6a7.615,7.615,0,0,1,15.23,0v8.731A7.6,7.6,0,0,1,7.834,23.91ZM4.218,22.38a1.234,1.234,0,1,0-1.234-1.234A1.234,1.234,0,0,0,4.218,22.38Zm-2.2-4.485A1.234,1.234,0,1,0,.784,16.661a1.234,1.234,0,0,0,1.234,1.234Zm0-4.694A1.234,1.234,0,1,0,.784,11.967,1.234,1.234,0,0,0,2.018,13.2Zm0-7.163A1.234,1.234,0,1,0,3.253,7.273,1.234,1.234,0,0,0,2.018,6.038Zm2.2-4.485A1.234,1.234,0,1,0,5.452,2.787,1.234,1.234,0,0,0,4.218,1.553ZM3.557,7.6v8.656A4.279,4.279,0,0,0,7.834,20.52h0a4.28,4.28,0,0,0,4.277-4.263V7.6a4.277,4.277,0,0,0-8.553,0ZM11,1.553a1.234,1.234,0,1,0,1.234,1.234A1.234,1.234,0,0,0,11,1.553Zm0,18.359a1.234,1.234,0,1,0,1.234,1.234A1.234,1.234,0,0,0,11,19.912ZM13.649,6.038a1.234,1.234,0,1,0,1.234,1.234A1.234,1.234,0,0,0,13.649,6.038Zm0,4.694a1.234,1.234,0,1,0,1.234,1.234A1.234,1.234,0,0,0,13.649,10.732Zm1.234,5.928a1.234,1.234,0,1,0-1.234,1.234A1.234,1.234,0,0,0,14.884,16.661Zm0,0" transform="translate(-0.219)" fill="#fff"/>
    <path id="Path_28" data-name="Path 28" d="M250.055,222.173a.4.4,0,1,0,.4-.4A.4.4,0,0,0,250.055,222.173Zm0,0" transform="translate(-248.655 -210.207)" fill="#fff"/>
    <path id="Path_29" data-name="Path 29" d="M250.055,132.173a.4.4,0,1,0,.4-.4A.4.4,0,0,0,250.055,132.173Zm0,0" transform="translate(-248.655 -124.901)" fill="#fff"/>
    <path id="Path_30" data-name="Path 30" d="M250.055,312.173a.4.4,0,1,0,.4-.4A.4.4,0,0,0,250.055,312.173Zm0,0" transform="translate(-248.655 -295.513)" fill="#fff"/>
  </g>
</svg>
