<svg xmlns="http://www.w3.org/2000/svg" width="19.677" height="15.741" viewBox="0 0 19.677 15.741">
  <g id="coin" transform="translate(19.677 -51.208) rotate(90)">
    <g id="Group_351" data-name="Group 351" transform="translate(53.503 2.296)">
      <g id="Group_350" data-name="Group 350">
        <ellipse id="Ellipse_82" data-name="Ellipse 82" cx="4.263" cy="7.543" rx="4.263" ry="7.543" fill="#fff"/>
      </g>
    </g>
    <g id="Group_353" data-name="Group 353" transform="translate(51.208)">
      <g id="Group_352" data-name="Group 352" transform="translate(0)">
        <path id="Path_2936" data-name="Path 2936" d="M66.949,9.839a14.661,14.661,0,0,0-.093-1.64h.007l-.051-.373c0-.024-.009-.047-.012-.071q-.05-.349-.117-.688c-.017-.089-.035-.176-.054-.264q-.058-.266-.125-.524c-.038-.146-.078-.291-.121-.434-.036-.121-.073-.242-.112-.36-.066-.2-.137-.4-.212-.589-.025-.063-.049-.127-.074-.189-.033-.081-.062-.166-.1-.246l-.086-.2h-.011a9.877,9.877,0,0,0-.947-1.64h.051l-.461-.54A6.2,6.2,0,0,0,62.352.45L62.294.424a4.841,4.841,0,0,0-.461-.181C61.761.218,61.689.2,61.615.174s-.132-.038-.2-.053C61.278.088,61.138.063,61,.044L60.871.029A4.412,4.412,0,0,0,60.391,0H57.767c-3.617,0-6.559,4.414-6.559,9.839s2.942,9.839,6.559,9.839h2.624a4.418,4.418,0,0,0,.481-.029L61,19.634c.141-.02.281-.045.419-.077.067-.015.132-.035.2-.053s.146-.044.219-.068a4.757,4.757,0,0,0,.459-.181l.06-.027a6.2,6.2,0,0,0,2.081-1.633l.46-.54h-.05a9.875,9.875,0,0,0,.947-1.64H65.8l.086-.2c.035-.08.063-.165.1-.246.026-.064.05-.129.075-.193.074-.192.145-.386.211-.585.04-.12.077-.243.114-.366.042-.142.082-.284.119-.429.045-.173.087-.349.126-.526q.028-.131.054-.263.066-.339.117-.687c0-.024.009-.047.012-.071l.051-.373h-.007A14.662,14.662,0,0,0,66.949,9.839Zm-.981-3,.008.037q.072.329.129.666H64.146c-.005-.032-.012-.064-.018-.1-.023-.135-.048-.268-.074-.4-.031-.157-.065-.312-.1-.467-.014-.057-.027-.115-.041-.172a12.525,12.525,0,0,0-.462-1.488h1.918A11.792,11.792,0,0,1,65.968,6.84Zm-.892-2.576H63.167l0,0-.056-.118q-.111-.234-.231-.458c-.012-.023-.024-.048-.037-.071-.09-.165-.184-.324-.281-.479l-.069-.109q-.132-.207-.272-.4h1.816A8.642,8.642,0,0,1,65.076,4.263ZM60.39.656c.121,0,.242.008.362.019.036,0,.072.009.108.013q.132.016.263.042l.106.021a4.088,4.088,0,0,1,.706.227l.073.032c.106.048.212.1.316.155l.027.014a5.34,5.34,0,0,1,1.069.788H61.709A6.4,6.4,0,0,0,60.138.656h.253ZM57.767,18.038c-2.667,0-4.919-3.754-4.919-8.2s2.253-8.2,4.919-8.2,4.919,3.754,4.919,8.2S60.433,18.038,57.767,18.038Zm4.585.461-.026.013c-.1.057-.211.109-.318.156l-.072.032a4.061,4.061,0,0,1-.707.227l-.105.021q-.131.026-.264.042L60.752,19c-.12.011-.241.019-.362.019h-.252a6.4,6.4,0,0,0,1.571-1.312H63.42A5.345,5.345,0,0,1,62.351,18.5Zm1.684-1.445H62.22c.093-.13.184-.264.272-.4.023-.036.047-.072.069-.109.1-.155.191-.315.281-.479.013-.023.025-.047.037-.071q.12-.224.231-.458l.056-.118,0,0h1.909A8.624,8.624,0,0,1,64.035,17.054ZM65.976,12.8l-.008.037a11.8,11.8,0,0,1-.6,1.921H63.451a12.5,12.5,0,0,0,.462-1.489c.014-.056.027-.112.04-.169.036-.156.071-.314.1-.473.026-.131.05-.263.073-.4.005-.032.012-.064.018-.1h1.959C66.068,12.359,66.024,12.581,65.976,12.8Zm.221-1.322H64.233c0-.017,0-.034.006-.051s.006-.045.008-.067c.023-.22.04-.443.052-.668q0-.081.008-.161c.01-.229.018-.459.018-.691s-.007-.463-.018-.691c0-.054-.005-.108-.008-.161-.013-.225-.03-.448-.052-.668,0-.023-.006-.045-.008-.067s0-.034-.006-.051H66.2a14.041,14.041,0,0,1,0,3.28Z" transform="translate(-51.208)" fill="#fff"/>
      </g>
    </g>
  </g>
</svg>
