<svg xmlns="http://www.w3.org/2000/svg" width="49.785" height="44.237" viewBox="0 0 49.785 44.237">
  <g id="coin-stack" transform="translate(0 -22.379)">
    <g id="Group_302" data-name="Group 302" transform="translate(0 22.379)">
      <path id="Path_2859" data-name="Path 2859" d="M14.466,126.553a31.009,31.009,0,0,0,4.031-.259V112.267a31.029,31.029,0,0,0-4.031-.258C6.477,112.009,0,114.946,0,118.569v1.423C0,123.615,6.477,126.553,14.466,126.553Z" transform="translate(-0.001 -100.898)" fill="#319ffe"/>
      <path id="Path_2860" data-name="Path 2860" d="M14.466,222.5a31.054,31.054,0,0,0,4.031-.258v-4.111a31.023,31.023,0,0,1-4.031.26c-6.973,0-12.793-2.238-14.16-5.217a3.2,3.2,0,0,0-.3,1.344v1.423C0,219.564,6.477,222.5,14.466,222.5Z" transform="translate(-0.001 -189.522)" fill="#319ffe"/>
      <path id="Path_2861" data-name="Path 2861" d="M18.5,277.535v-.32a31.026,31.026,0,0,1-4.031.26c-6.973,0-12.793-2.238-14.16-5.217A3.2,3.2,0,0,0,0,273.6v1.423c0,3.623,6.476,6.561,14.465,6.561a30.719,30.719,0,0,0,4.571-.335,5.175,5.175,0,0,1-.54-2.293Z" transform="translate(0 -241.281)" fill="#319ffe"/>
      <path id="Path_2862" data-name="Path 2862" d="M182.7,22.379c-7.989,0-14.465,2.937-14.465,6.56v1.423c0,3.623,6.476,6.56,14.465,6.56s14.465-2.937,14.465-6.56V28.939C197.168,25.316,190.692,22.379,182.7,22.379Z" transform="translate(-147.383 -22.379)" fill="#319ffe"/>
      <path id="Path_2863" data-name="Path 2863" d="M182.7,128.761c-6.973,0-12.793-2.238-14.16-5.217a3.2,3.2,0,0,0-.3,1.344v1.423c0,3.623,6.476,6.56,14.465,6.56s14.465-2.937,14.465-6.56v-1.423a3.2,3.2,0,0,0-.3-1.344C195.5,126.523,189.677,128.761,182.7,128.761Z" transform="translate(-147.383 -111.003)" fill="#319ffe"/>
      <path id="Path_2864" data-name="Path 2864" d="M182.7,187.845c-6.973,0-12.793-2.238-14.16-5.217a3.2,3.2,0,0,0-.3,1.344v1.423c0,3.623,6.476,6.561,14.465,6.561s14.465-2.937,14.465-6.561v-1.423a3.2,3.2,0,0,0-.3-1.344C195.5,185.607,189.677,187.845,182.7,187.845Z" transform="translate(-147.383 -162.762)" fill="#319ffe"/>
      <path id="Path_2865" data-name="Path 2865" d="M182.7,250.118c-6.973,0-12.793-2.238-14.16-5.217a3.2,3.2,0,0,0-.3,1.344v1.423c0,3.623,6.476,6.56,14.465,6.56s14.465-2.937,14.465-6.56v-1.423a3.2,3.2,0,0,0-.3-1.344C195.5,247.88,189.677,250.118,182.7,250.118Z" transform="translate(-147.383 -217.316)" fill="#319ffe"/>
      <path id="Path_2866" data-name="Path 2866" d="M182.7,309.2c-6.973,0-12.793-2.238-14.16-5.217a3.2,3.2,0,0,0-.3,1.344v1.423c0,3.623,6.476,6.56,14.465,6.56s14.465-2.937,14.465-6.56v-1.423a3.2,3.2,0,0,0-.3-1.344C195.5,306.963,189.677,309.2,182.7,309.2Z" transform="translate(-147.383 -269.074)" fill="#319ffe"/>
    </g>
  </g>
</svg>
