<svg xmlns="http://www.w3.org/2000/svg" width="17.053" height="17.053" viewBox="0 0 17.053 17.053">
  <g id="gambling" transform="translate(0)">
    <path id="Path_2895" data-name="Path 2895" d="M348.455,30.809l1.853-.767a8.561,8.561,0,0,0-3.938-3.971l-.768,1.853A6.572,6.572,0,0,1,348.455,30.809Z" transform="translate(-334.091 -25.203)" fill="#fff"/>
    <path id="Path_2896" data-name="Path 2896" d="M173.846,442.29a6.5,6.5,0,0,1-2.064-.335l-.767,1.851a8.56,8.56,0,0,0,5.593.024l-.767-1.853A6.5,6.5,0,0,1,173.846,442.29Z" transform="translate(-165.319 -427.236)" fill="#fff"/>
    <circle id="Ellipse_77" data-name="Ellipse 77" cx="3.5" cy="3.5" r="3.5" transform="translate(5 5.422)" fill="#fff"/>
    <path id="Path_2897" data-name="Path 2897" d="M343.661,348.455l.767,1.853a8.561,8.561,0,0,0,3.971-3.938l-1.853-.768A6.572,6.572,0,0,1,343.661,348.455Z" transform="translate(-332.215 -334.091)" fill="#fff"/>
    <path id="Path_2898" data-name="Path 2898" d="M95.529,90a5.529,5.529,0,1,0,5.529,5.529A5.535,5.535,0,0,0,95.529,90Zm0,10.058a4.53,4.53,0,1,1,4.53-4.53A4.535,4.535,0,0,1,95.529,100.058Z" transform="translate(-87.002 -87.002)" fill="#fff"/>
    <path id="Path_2899" data-name="Path 2899" d="M26.964,343.661l-1.853.767a8.561,8.561,0,0,0,3.938,3.971l.768-1.853A6.572,6.572,0,0,1,26.964,343.661Z" transform="translate(-24.275 -332.215)" fill="#fff"/>
    <path id="Path_2900" data-name="Path 2900" d="M443.831,173.064l-1.853.767a6.533,6.533,0,0,1-.022,4.059l1.851.767a8.56,8.56,0,0,0,.024-5.593Z" transform="translate(-427.236 -167.3)" fill="#fff"/>
    <path id="Path_2901" data-name="Path 2901" d="M2,173.846a6.5,6.5,0,0,1,.335-2.064l-1.851-.767a8.56,8.56,0,0,0-.024,5.593l1.853-.767A6.5,6.5,0,0,1,2,173.846Z" transform="translate(0 -165.319)" fill="#fff"/>
    <path id="Path_2902" data-name="Path 2902" d="M30.809,26.964l-.767-1.853a8.561,8.561,0,0,0-3.971,3.938l1.853.768A6.572,6.572,0,0,1,30.809,26.964Z" transform="translate(-25.203 -24.275)" fill="#fff"/>
    <path id="Path_2903" data-name="Path 2903" d="M175.826,2a6.5,6.5,0,0,1,2.064.335l.767-1.851a8.56,8.56,0,0,0-5.593-.024l.767,1.853A6.5,6.5,0,0,1,175.826,2Z" transform="translate(-167.3 0)" fill="#fff"/>
  </g>
</svg>
