<svg xmlns="http://www.w3.org/2000/svg" width="19" height="16.117" viewBox="0 0 19 16.117">
  <g id="group" transform="translate(0 -38.84)">
    <g id="Group_338" data-name="Group 338" transform="translate(14.788 47.541)">
      <g id="Group_337" data-name="Group 337" transform="translate(0 0)">
        <path id="Path_2922" data-name="Path 2922" d="M399.963,273.32h-1.469a3.823,3.823,0,0,1,.232,1.314v5.553a1.638,1.638,0,0,1-.094.549h2.429a1.647,1.647,0,0,0,1.646-1.646v-3.027A2.746,2.746,0,0,0,399.963,273.32Z" transform="translate(-398.494 -273.32)" fill="#fff"/>
      </g>
    </g>
    <g id="Group_340" data-name="Group 340" transform="translate(0 47.541)">
      <g id="Group_339" data-name="Group 339">
        <path id="Path_2923" data-name="Path 2923" d="M3.981,274.635a3.822,3.822,0,0,1,.232-1.314H2.743A2.746,2.746,0,0,0,0,276.064v3.027a1.648,1.648,0,0,0,1.646,1.646H4.075a1.638,1.638,0,0,1-.094-.549Z" transform="translate(0 -273.321)" fill="#fff"/>
      </g>
    </g>
    <g id="Group_342" data-name="Group 342" transform="translate(5.078 46.113)">
      <g id="Group_341" data-name="Group 341">
        <path id="Path_2924" data-name="Path 2924" d="M142.931,234.815h-3.359a2.746,2.746,0,0,0-2.743,2.743v5.553a.549.549,0,0,0,.549.549h7.748a.549.549,0,0,0,.549-.549v-5.553A2.746,2.746,0,0,0,142.931,234.815Z" transform="translate(-136.829 -234.815)" fill="#fff"/>
      </g>
    </g>
    <g id="Group_344" data-name="Group 344" transform="translate(6.202 38.84)">
      <g id="Group_343" data-name="Group 343" transform="translate(0 0)">
        <path id="Path_2925" data-name="Path 2925" d="M170.413,38.84a3.3,3.3,0,1,0,3.3,3.3A3.3,3.3,0,0,0,170.413,38.84Z" transform="translate(-167.114 -38.84)" fill="#fff"/>
      </g>
    </g>
    <g id="Group_346" data-name="Group 346" transform="translate(1.241 41.914)">
      <g id="Group_345" data-name="Group 345" transform="translate(0 0)">
        <path id="Path_2926" data-name="Path 2926" d="M35.91,121.689a2.466,2.466,0,1,0,2.467,2.467A2.47,2.47,0,0,0,35.91,121.689Z" transform="translate(-33.443 -121.689)" fill="#fff"/>
      </g>
    </g>
    <g id="Group_348" data-name="Group 348" transform="translate(12.825 41.914)">
      <g id="Group_347" data-name="Group 347" transform="translate(0 0)">
        <path id="Path_2927" data-name="Path 2927" d="M348.074,121.689a2.467,2.467,0,1,0,2.467,2.467A2.47,2.47,0,0,0,348.074,121.689Z" transform="translate(-345.607 -121.689)" fill="#fff"/>
      </g>
    </g>
  </g>
</svg>
