<svg id="Group_300" data-name="Group 300" xmlns="http://www.w3.org/2000/svg" width="49.119" height="38.929" viewBox="0 0 49.119 38.929">
  <g id="Group_299" data-name="Group 299" transform="translate(0 0)">
    <path id="Path_2852" data-name="Path 2852" d="M0,160.915a4.408,4.408,0,0,0,2.862,4.179v-7.957c0-.115.057-.286.057-.4A4.465,4.465,0,0,0,0,160.915Z" transform="translate(0 -144.657)" fill="#319ffe"/>
    <path id="Path_2853" data-name="Path 2853" d="M81.689,284.735h-7.5L77,294.925a3.549,3.549,0,0,0,3.435,2.633,3.607,3.607,0,0,0,2.92-1.431,3.32,3.32,0,0,0,.572-3.091Z" transform="translate(-66.061 -258.63)" fill="#319ffe"/>
    <path id="Path_2854" data-name="Path 2854" d="M26.648,155.747h.057v-.057C26.705,155.747,26.705,155.747,26.648,155.747Z" transform="translate(-23.728 -143.725)" fill="#319ffe"/>
    <path id="Path_2855" data-name="Path 2855" d="M397.522,148.9h-.458v10.3h.458a5.152,5.152,0,0,0,0-10.3Z" transform="translate(-353.555 -137.677)" fill="#319ffe"/>
    <path id="Path_2856" data-name="Path 2856" d="M41.8,131.549v8.129a3.893,3.893,0,0,0,3.893,3.778H56.111V128H45.692A3.722,3.722,0,0,0,41.8,131.549Z" transform="translate(-37.219 -119.069)" fill="#319ffe"/>
    <path id="Path_2857" data-name="Path 2857" d="M188.084,71.115l21.182,8.473V46.5l-21.182,8.473Z" transform="translate(-167.475 -46.498)" fill="#319ffe"/>
  </g>
</svg>
