<svg xmlns="http://www.w3.org/2000/svg" width="43.226" height="36.814" viewBox="0 0 43.226 36.814">
  <g id="history" transform="translate(0 -37.627)">
    <g id="Group_294" data-name="Group 294" transform="translate(0 37.627)">
      <g id="Group_293" data-name="Group 293" transform="translate(0 0)">
        <path id="Path_2844" data-name="Path 2844" d="M131.757,375.691l-2.045,1.81a18.79,18.79,0,0,0,2.116,2.036l1.729-2.113A15.761,15.761,0,0,1,131.757,375.691Z" transform="translate(-118.659 -346.885)" fill="#319ffe"/>
        <path id="Path_2845" data-name="Path 2845" d="M95.274,326.187l-2.506,1.076a18.169,18.169,0,0,0,1.376,2.6l2.3-1.462A15.639,15.639,0,0,1,95.274,326.187Z" transform="translate(-84.863 -301.599)" fill="#319ffe"/>
        <path id="Path_2846" data-name="Path 2846" d="M34.049,40.11A18.385,18.385,0,0,0,6.6,53.6l-4.67-4.67L0,50.861l7.781,7.781,7.781-7.781-1.928-1.928L9.417,53.145A15.662,15.662,0,1,1,16.956,69.6l-1.37,2.357A18.405,18.405,0,0,0,34.049,40.11Z" transform="translate(0 -37.627)" fill="#319ffe"/>
        <path id="Path_2847" data-name="Path 2847" d="M267.312,109.627v15l6,4.5,1.636-2.181-4.908-3.681V109.627Z" transform="translate(-244.534 -103.492)" fill="#319ffe"/>
      </g>
    </g>
  </g>
</svg>
