<svg xmlns="http://www.w3.org/2000/svg" width="39.994" height="40.001" viewBox="0 0 39.994 40.001">
  <g id="message" transform="translate(-0.05)">
    <path id="Path_2830" data-name="Path 2830" d="M21.944,15.405a7.553,7.553,0,0,0,7.542-7.864A7.55,7.55,0,0,0,21.944,0H7.592A7.552,7.552,0,0,0,.05,7.864a7.554,7.554,0,0,0,6.37,7.451v5.012a1.173,1.173,0,0,0,2.047.779l5.078-5.7Zm-.031-9.154A1.452,1.452,0,1,1,20.461,7.7,1.452,1.452,0,0,1,21.912,6.251Zm-14.29,2.9A1.452,1.452,0,1,1,9.075,7.7,1.452,1.452,0,0,1,7.622,9.154Zm7.146-2.9A1.452,1.452,0,1,1,13.316,7.7,1.452,1.452,0,0,1,14.768,6.251Z" fill="#319ffe"/>
    <path id="Path_2831" data-name="Path 2831" d="M157.084,236.83H142.732a7.7,7.7,0,0,0,0,15.406h8.4l5.078,5.7a1.173,1.173,0,0,0,2.047-.78v-5.012a7.717,7.717,0,0,0-1.172-15.315Zm-14.321,9.155a1.452,1.452,0,1,1,1.452-1.452A1.452,1.452,0,0,1,142.763,245.985Zm7.145,0a1.452,1.452,0,1,1,1.452-1.452A1.452,1.452,0,0,1,149.908,245.985Zm7.146,0a1.452,1.452,0,1,1,1.452-1.452A1.452,1.452,0,0,1,157.053,245.985Z" transform="translate(-124.582 -218.327)" fill="#319ffe"/>
  </g>
</svg>
