<svg id="pie-chart" xmlns="http://www.w3.org/2000/svg" width="45.785" height="45.785" viewBox="0 0 45.785 45.785">
  <g id="Group_296" data-name="Group 296" transform="translate(14.436 7.789)">
    <path id="Path_2849" data-name="Path 2849" d="M173.782,125.1a18.843,18.843,0,0,1-11.273-3.705l-1.078-.8,11.01-14.925V87.106h1.341a19,19,0,0,1,0,38Zm-8.569-5.11a16.317,16.317,0,1,0,9.91-30.148v16.714Z" transform="translate(-161.43 -87.106)" fill="#319ffe"/>
  </g>
  <g id="Group_297" data-name="Group 297" transform="translate(0 10.614)">
    <path id="Path_2850" data-name="Path 2850" d="M8.8,148.2l-1.08-.8a19,19,0,0,1-3.12-27.694l.876-1.016,15.334,13.225Zm-3-25.686A16.316,16.316,0,0,0,8.272,144.4l8.909-12.076Z" transform="translate(0 -118.692)" fill="#319ffe"/>
  </g>
  <g id="Group_298" data-name="Group 298" transform="translate(7.206 0)">
    <path id="Path_2851" data-name="Path 2851" d="M94.782,18.76,80.579,6.51l.876-1.016A15.815,15.815,0,0,1,93.441,0h1.341ZM84.414,6.275,92.1,12.9V2.751A13.13,13.13,0,0,0,84.414,6.275Z" transform="translate(-80.579 0)" fill="#319ffe"/>
  </g>
</svg>
