<svg viewBox="0 0 272.4 367.2" xmlns="http://www.w3.org/2000/svg"><path d="m23.7 367.2a23.69 23.69 0 0 1 -23.7-23.7v-319.8a23.69 23.69 0 0 1 23.7-23.7h225a23.69 23.69 0 0 1 23.7 23.7v319.8a23.69 23.69 0 0 1 -23.7 23.7z" fill="#fff"/><path d="m248.6 9.7h-225a13.87 13.87 0 0 0 -13.9 13.9v319.9a13.87 13.87 0 0 0 13.9 13.9h225a13.87 13.87 0 0 0 13.9-13.9v-319.8a13.89 13.89 0 0 0 -13.9-14z" fill="#016f87"/><g fill="#fff"><path d="m241.1 336h-209.9v-304.8h209.9zm-206.9-3h203.9v-298.8h-203.9z"/><path d="m248.6 352.5h-225a8.92 8.92 0 0 1 -8.9-8.9v-319.9a8.92 8.92 0 0 1 8.9-8.9h225a8.92 8.92 0 0 1 8.9 8.9v319.8a8.88 8.88 0 0 1 -8.9 9zm-224.9-333.8a4.91 4.91 0 0 0 -4.9 4.9v319.9a4.91 4.91 0 0 0 4.9 4.9h225a4.91 4.91 0 0 0 4.9-4.9v-319.8a4.91 4.91 0 0 0 -4.9-4.9h-225z"/><path d="m58.7 43.7-7.5-9.4-7.5 9.4 7.5 9.5z"/><path d="m60.7 46.2-7.6 9.4 7.6 9.5 7.5-9.5z"/><path d="m43.7 67.5 7.5 9.4 7.5-9.4-7.5-9.4z"/><path d="m41.7 46.2-7.5 9.4 7.5 9.5 7.6-9.5z"/><path d="m92.7 43.7-7.5-9.4-7.5 9.4 7.5 9.5z"/><path d="m94.6 46.2-7.5 9.4 7.5 9.5 7.6-9.5z"/><path d="m77.7 67.5 7.5 9.4 7.5-9.4-7.5-9.4z"/><path d="m75.7 46.2-7.5 9.4 7.5 9.5 7.5-9.5z"/><path d="m126.7 43.7-7.5-9.4-7.6 9.4 7.6 9.5z"/><path d="m128.6 46.2-7.5 9.4 7.5 9.5 7.5-9.5z"/><path d="m111.6 67.5 7.6 9.4 7.5-9.4-7.5-9.4z"/><path d="m109.7 46.2-7.5 9.4 7.5 9.5 7.5-9.5z"/><path d="m160.7 43.7-7.6-9.4-7.5 9.4 7.5 9.5z"/><path d="m162.6 46.2-7.5 9.4 7.5 9.5 7.5-9.5z"/><path d="m145.6 67.5 7.5 9.4 7.6-9.4-7.6-9.4z"/><path d="m143.7 46.2-7.6 9.4 7.6 9.5 7.5-9.5z"/><path d="m194.6 43.7-7.5-9.4-7.5 9.4 7.5 9.5z"/><path d="m196.6 46.2-7.6 9.4 7.6 9.5 7.5-9.5z"/><path d="m179.6 67.5 7.5 9.4 7.5-9.4-7.5-9.4z"/><path d="m177.6 46.2-7.5 9.4 7.5 9.5 7.6-9.5z"/><path d="m228.6 43.7-7.5-9.4-7.5 9.4 7.5 9.5z"/><path d="m230.5 46.2-7.5 9.4 7.5 9.5 7.6-9.5z"/><path d="m213.6 67.5 7.5 9.4 7.5-9.4-7.5-9.4z"/><path d="m211.6 46.2-7.5 9.4 7.5 9.5 7.5-9.5z"/><path d="m58.7 86.4-7.5-9.5-7.5 9.5 7.5 9.4z"/><path d="m60.7 88.8-7.6 9.5 7.6 9.4 7.5-9.4z"/><path d="m43.7 110.2 7.5 9.4 7.5-9.4-7.5-9.5z"/><path d="m41.7 88.8-7.5 9.5 7.5 9.4 7.6-9.4z"/><path d="m92.7 86.4-7.5-9.5-7.5 9.5 7.5 9.4z"/><path d="m94.6 88.8-7.5 9.5 7.5 9.4 7.6-9.4z"/><path d="m77.7 110.2 7.5 9.4 7.5-9.4-7.5-9.5z"/><path d="m75.7 88.8-7.5 9.5 7.5 9.4 7.5-9.4z"/><path d="m126.7 86.4-7.5-9.5-7.6 9.5 7.6 9.4z"/><path d="m128.6 88.8-7.5 9.5 7.5 9.4 7.5-9.4z"/><path d="m111.6 110.2 7.6 9.4 7.5-9.4-7.5-9.5z"/><path d="m109.7 88.8-7.5 9.5 7.5 9.4 7.5-9.4z"/><path d="m160.7 86.4-7.6-9.5-7.5 9.5 7.5 9.4z"/><path d="m162.6 88.8-7.5 9.5 7.5 9.4 7.5-9.4z"/><path d="m145.6 110.2 7.5 9.4 7.6-9.4-7.6-9.5z"/><path d="m143.7 88.8-7.6 9.5 7.6 9.4 7.5-9.4z"/><path d="m194.6 86.4-7.5-9.5-7.5 9.5 7.5 9.4z"/><path d="m196.6 88.8-7.6 9.5 7.6 9.4 7.5-9.4z"/><path d="m179.6 110.2 7.5 9.4 7.5-9.4-7.5-9.5z"/><path d="m177.6 88.8-7.5 9.5 7.5 9.4 7.6-9.4z"/><path d="m228.6 86.4-7.5-9.5-7.5 9.5 7.5 9.4z"/><path d="m230.5 88.8-7.5 9.5 7.5 9.4 7.6-9.4z"/><path d="m213.6 110.2 7.5 9.4 7.5-9.4-7.5-9.5z"/><path d="m211.6 88.8-7.5 9.5 7.5 9.4 7.5-9.4z"/><path d="m58.7 129.1-7.5-9.5-7.5 9.5 7.5 9.4z"/><path d="m60.7 131.5-7.6 9.4 7.6 9.5 7.5-9.5z"/><path d="m43.7 152.8 7.5 9.5 7.5-9.5-7.5-9.4z"/><path d="m41.7 131.5-7.5 9.4 7.5 9.5 7.6-9.5z"/><path d="m92.7 129.1-7.5-9.5-7.5 9.5 7.5 9.4z"/><path d="m94.6 131.5-7.5 9.4 7.5 9.5 7.6-9.5z"/><path d="m77.7 152.8 7.5 9.5 7.5-9.5-7.5-9.4z"/><path d="m75.7 131.5-7.5 9.4 7.5 9.5 7.5-9.5z"/><path d="m126.7 129.1-7.5-9.5-7.6 9.5 7.6 9.4z"/><path d="m128.6 131.5-7.5 9.4 7.5 9.5 7.5-9.5z"/><path d="m111.6 152.8 7.6 9.5 7.5-9.5-7.5-9.4z"/><path d="m109.7 131.5-7.5 9.4 7.5 9.5 7.5-9.5z"/><path d="m160.7 129.1-7.6-9.5-7.5 9.5 7.5 9.4z"/><path d="m162.6 131.5-7.5 9.4 7.5 9.5 7.5-9.5z"/><path d="m145.6 152.8 7.5 9.5 7.6-9.5-7.6-9.4z"/><path d="m143.7 131.5-7.6 9.4 7.6 9.5 7.5-9.5z"/><path d="m194.6 129.1-7.5-9.5-7.5 9.5 7.5 9.4z"/><path d="m196.6 131.5-7.6 9.4 7.6 9.5 7.5-9.5z"/><path d="m179.6 152.8 7.5 9.5 7.5-9.5-7.5-9.4z"/><path d="m177.6 131.5-7.5 9.4 7.5 9.5 7.6-9.5z"/><path d="m228.6 129.1-7.5-9.5-7.5 9.5 7.5 9.4z"/><path d="m230.5 131.5-7.5 9.4 7.5 9.5 7.6-9.5z"/><path d="m213.6 152.8 7.5 9.5 7.5-9.5-7.5-9.4z"/><path d="m211.6 131.5-7.5 9.4 7.5 9.5 7.5-9.5z"/><path d="m58.7 171.7-7.5-9.4-7.5 9.4 7.5 9.5z"/><path d="m60.7 174.2-7.6 9.4 7.6 9.4 7.5-9.4z"/><path d="m43.7 195.5 7.5 9.4 7.5-9.4-7.5-9.5z"/><path d="m41.7 174.2-7.5 9.4 7.5 9.4 7.6-9.4z"/><path d="m92.7 171.7-7.5-9.4-7.5 9.4 7.5 9.5z"/><path d="m94.6 174.2-7.5 9.4 7.5 9.4 7.6-9.4z"/><path d="m77.7 195.5 7.5 9.4 7.5-9.4-7.5-9.5z"/><path d="m75.7 174.2-7.5 9.4 7.5 9.4 7.5-9.4z"/><path d="m126.7 171.7-7.5-9.4-7.6 9.4 7.6 9.5z"/><path d="m128.6 174.2-7.5 9.4 7.5 9.4 7.5-9.4z"/><path d="m111.6 195.5 7.6 9.4 7.5-9.4-7.5-9.5z"/><path d="m109.7 174.2-7.5 9.4 7.5 9.4 7.5-9.4z"/><path d="m160.7 171.7-7.6-9.4-7.5 9.4 7.5 9.5z"/><path d="m162.6 174.2-7.5 9.4 7.5 9.4 7.5-9.4z"/><path d="m145.6 195.5 7.5 9.4 7.6-9.4-7.6-9.5z"/><path d="m143.7 174.2-7.6 9.4 7.6 9.4 7.5-9.4z"/><path d="m194.6 171.7-7.5-9.4-7.5 9.4 7.5 9.5z"/><path d="m196.6 174.2-7.6 9.4 7.6 9.4 7.5-9.4z"/><path d="m179.6 195.5 7.5 9.4 7.5-9.4-7.5-9.5z"/><path d="m177.6 174.2-7.5 9.4 7.5 9.4 7.6-9.4z"/><path d="m228.6 171.7-7.5-9.4-7.5 9.4 7.5 9.5z"/><path d="m230.5 174.2-7.5 9.4 7.5 9.4 7.6-9.4z"/><path d="m213.6 195.5 7.5 9.4 7.5-9.4-7.5-9.5z"/><path d="m211.6 174.2-7.5 9.4 7.5 9.4 7.5-9.4z"/><path d="m58.7 214.4-7.5-9.5-7.5 9.5 7.5 9.4z"/><path d="m60.7 216.8-7.6 9.5 7.6 9.4 7.5-9.4z"/><path d="m43.7 238.1 7.5 9.5 7.5-9.5-7.5-9.4z"/><path d="m41.7 216.8-7.5 9.5 7.5 9.4 7.6-9.4z"/><path d="m92.7 214.4-7.5-9.5-7.5 9.5 7.5 9.4z"/><path d="m94.6 216.8-7.5 9.5 7.5 9.4 7.6-9.4z"/><path d="m77.7 238.1 7.5 9.5 7.5-9.5-7.5-9.4z"/><path d="m75.7 216.8-7.5 9.5 7.5 9.4 7.5-9.4z"/><path d="m126.7 214.4-7.5-9.5-7.6 9.5 7.6 9.4z"/><path d="m128.6 216.8-7.5 9.5 7.5 9.4 7.5-9.4z"/><path d="m111.6 238.1 7.6 9.5 7.5-9.5-7.5-9.4z"/><path d="m109.7 216.8-7.5 9.5 7.5 9.4 7.5-9.4z"/><path d="m160.7 214.4-7.6-9.5-7.5 9.5 7.5 9.4z"/><path d="m162.6 216.8-7.5 9.5 7.5 9.4 7.5-9.4z"/><path d="m145.6 238.1 7.5 9.5 7.6-9.5-7.6-9.4z"/><path d="m143.7 216.8-7.6 9.5 7.6 9.4 7.5-9.4z"/><path d="m194.6 214.4-7.5-9.5-7.5 9.5 7.5 9.4z"/><path d="m196.6 216.8-7.6 9.5 7.6 9.4 7.5-9.4z"/><path d="m179.6 238.1 7.5 9.5 7.5-9.5-7.5-9.4z"/><path d="m177.6 216.8-7.5 9.5 7.5 9.4 7.6-9.4z"/><path d="m228.6 214.4-7.5-9.5-7.5 9.5 7.5 9.4z"/><path d="m230.5 216.8-7.5 9.5 7.5 9.4 7.6-9.4z"/><path d="m213.6 238.1 7.5 9.5 7.5-9.5-7.5-9.4z"/><path d="m211.6 216.8-7.5 9.5 7.5 9.4 7.5-9.4z"/><path d="m58.7 257-7.5-9.4-7.5 9.4 7.5 9.5z"/><path d="m60.7 259.5-7.6 9.4 7.6 9.5 7.5-9.5z"/><path d="m43.7 280.8 7.5 9.5 7.5-9.5-7.5-9.4z"/><path d="m41.7 259.5-7.5 9.4 7.5 9.5 7.6-9.5z"/><path d="m92.7 257-7.5-9.4-7.5 9.4 7.5 9.5z"/><path d="m94.6 259.5-7.5 9.4 7.5 9.5 7.6-9.5z"/><path d="m77.7 280.8 7.5 9.5 7.5-9.5-7.5-9.4z"/><path d="m75.7 259.5-7.5 9.4 7.5 9.5 7.5-9.5z"/><path d="m126.7 257-7.5-9.4-7.6 9.4 7.6 9.5z"/><path d="m128.6 259.5-7.5 9.4 7.5 9.5 7.5-9.5z"/><path d="m111.6 280.8 7.6 9.5 7.5-9.5-7.5-9.4z"/><path d="m109.7 259.5-7.5 9.4 7.5 9.5 7.5-9.5z"/><path d="m160.7 257-7.6-9.4-7.5 9.4 7.5 9.5z"/><path d="m162.6 259.5-7.5 9.4 7.5 9.5 7.5-9.5z"/><path d="m145.6 280.8 7.5 9.5 7.6-9.5-7.6-9.4z"/><path d="m143.7 259.5-7.6 9.4 7.6 9.5 7.5-9.5z"/><path d="m194.6 257-7.5-9.4-7.5 9.4 7.5 9.5z"/><path d="m196.6 259.5-7.6 9.4 7.6 9.5 7.5-9.5z"/><path d="m179.6 280.8 7.5 9.5 7.5-9.5-7.5-9.4z"/><path d="m177.6 259.5-7.5 9.4 7.5 9.5 7.6-9.5z"/><path d="m228.6 257-7.5-9.4-7.5 9.4 7.5 9.5z"/><path d="m230.5 259.5-7.5 9.4 7.5 9.5 7.6-9.5z"/><path d="m213.6 280.8 7.5 9.5 7.5-9.5-7.5-9.4z"/><path d="m211.6 259.5-7.5 9.4 7.5 9.5 7.5-9.5z"/><path d="m58.7 299.7-7.5-9.4-7.5 9.4 7.5 9.4z"/><path d="m60.7 302.1-7.6 9.5 7.6 9.4 7.5-9.4z"/><path d="m43.7 323.5 7.5 9.4 7.5-9.4-7.5-9.5z"/><path d="m41.7 302.1-7.5 9.5 7.5 9.4 7.6-9.4z"/><path d="m92.7 299.7-7.5-9.4-7.5 9.4 7.5 9.4z"/><path d="m94.6 302.1-7.5 9.5 7.5 9.4 7.6-9.4z"/><path d="m77.7 323.5 7.5 9.4 7.5-9.4-7.5-9.5z"/><path d="m75.7 302.1-7.5 9.5 7.5 9.4 7.5-9.4z"/><path d="m126.7 299.7-7.5-9.4-7.6 9.4 7.6 9.4z"/><path d="m128.6 302.1-7.5 9.5 7.5 9.4 7.5-9.4z"/><path d="m111.6 323.5 7.6 9.4 7.5-9.4-7.5-9.5z"/><path d="m109.7 302.1-7.5 9.5 7.5 9.4 7.5-9.4z"/><path d="m160.7 299.7-7.6-9.4-7.5 9.4 7.5 9.4z"/><path d="m162.6 302.1-7.5 9.5 7.5 9.4 7.5-9.4z"/><path d="m145.6 323.5 7.5 9.4 7.6-9.4-7.6-9.5z"/><path d="m143.7 302.1-7.6 9.5 7.6 9.4 7.5-9.4z"/><path d="m194.6 299.7-7.5-9.4-7.5 9.4 7.5 9.4z"/><path d="m196.6 302.1-7.6 9.5 7.6 9.4 7.5-9.4z"/><path d="m179.6 323.5 7.5 9.4 7.5-9.4-7.5-9.5z"/><path d="m177.6 302.1-7.5 9.5 7.5 9.4 7.6-9.4z"/><path d="m228.6 299.7-7.5-9.4-7.5 9.4 7.5 9.4z"/><path d="m230.5 302.1-7.5 9.5 7.5 9.4 7.6-9.4z"/><path d="m213.6 323.5 7.5 9.4 7.5-9.4-7.5-9.5z"/><path d="m211.6 302.1-7.5 9.5 7.5 9.4 7.5-9.4z"/></g></svg>