<svg viewBox="0 0 272.4 367.2" xmlns="http://www.w3.org/2000/svg"><path d="m23.7 367.2a23.69 23.69 0 0 1 -23.7-23.7v-319.8a23.69 23.69 0 0 1 23.7-23.7h225a23.69 23.69 0 0 1 23.7 23.7v319.8a23.69 23.69 0 0 1 -23.7 23.7z" fill="#fff"/><path d="m248.6 9.7h-225a13.87 13.87 0 0 0 -13.9 13.9v319.8a13.87 13.87 0 0 0 13.9 13.9h225a13.87 13.87 0 0 0 13.9-13.9v-319.7a13.89 13.89 0 0 0 -13.9-14z" fill="#252960"/><g fill="#fff"><path d="m248.6 352.5h-225a8.92 8.92 0 0 1 -8.9-8.9v-319.9a8.92 8.92 0 0 1 8.9-8.9h225a8.92 8.92 0 0 1 8.9 8.9v319.8a8.88 8.88 0 0 1 -8.9 9zm-224.9-333.8a4.91 4.91 0 0 0 -4.9 4.9v319.8a4.91 4.91 0 0 0 4.9 4.9h225a4.91 4.91 0 0 0 4.9-4.9v-319.7a4.91 4.91 0 0 0 -4.9-4.9h-225z"/><path d="m30.9 29.6h6.1a6.71 6.71 0 0 0 -6.1-5.9z"/><path d="m29.7 29.6v-5.9a6.46 6.46 0 0 0 -6.1 5.9z"/><path d="m29.7 30.7h-6.1a6.71 6.71 0 0 0 6.1 5.9z"/><path d="m30.9 30.7v5.9a6.46 6.46 0 0 0 6.1-5.9z"/><path d="m30.9 44.2h6.1a6.71 6.71 0 0 0 -6.1-5.9z"/><path d="m29.7 44.2v-5.9a6.46 6.46 0 0 0 -6.1 5.9z"/><path d="m29.7 45.3h-6.1a6.71 6.71 0 0 0 6.1 5.9z"/><path d="m30.9 45.3v5.9a6.46 6.46 0 0 0 6.1-5.9z"/><path d="m30.9 58.8h6.1a6.71 6.71 0 0 0 -6.1-5.9z"/><path d="m29.7 58.8v-5.9a6.46 6.46 0 0 0 -6.1 5.9z"/><path d="m29.7 59.9h-6.1a6.71 6.71 0 0 0 6.1 5.9z"/><path d="m30.9 59.9v5.9a6.46 6.46 0 0 0 6.1-5.9z"/><path d="m30.9 73.4h6.1a6.71 6.71 0 0 0 -6.1-5.9z"/><path d="m29.7 73.4v-5.9a6.46 6.46 0 0 0 -6.1 5.9z"/><path d="m29.7 74.6h-6.1a6.71 6.71 0 0 0 6.1 5.9z"/><path d="m30.9 74.6v5.9a6.46 6.46 0 0 0 6.1-5.9z"/><path d="m30.9 88h6.1a6.71 6.71 0 0 0 -6.1-5.9z"/><path d="m29.7 88v-5.9a6.46 6.46 0 0 0 -6.1 5.9z"/><path d="m29.7 89.2h-6.1a6.71 6.71 0 0 0 6.1 5.9z"/><path d="m30.9 89.2v5.9a6.46 6.46 0 0 0 6.1-5.9z"/><path d="m30.9 102.6h6.1a6.71 6.71 0 0 0 -6.1-5.9z"/><path d="m29.7 102.6v-5.9a6.46 6.46 0 0 0 -6.1 5.9z"/><path d="m29.7 103.8h-6.1a6.71 6.71 0 0 0 6.1 5.9z"/><path d="m30.9 103.8v5.9a6.46 6.46 0 0 0 6.1-5.9z"/><path d="m30.9 117.3h6.1a6.71 6.71 0 0 0 -6.1-5.9z"/><path d="m29.7 117.3v-5.9a6.46 6.46 0 0 0 -6.1 5.9z"/><path d="m29.7 118.4h-6.1a6.71 6.71 0 0 0 6.1 5.9z"/><path d="m30.9 118.4v5.9a6.46 6.46 0 0 0 6.1-5.9z"/><path d="m30.9 131.9h6.1a6.71 6.71 0 0 0 -6.1-5.9z"/><path d="m29.7 131.9v-5.9a6.46 6.46 0 0 0 -6.1 5.9z"/><path d="m29.7 133h-6.1a6.71 6.71 0 0 0 6.1 5.9z"/><path d="m30.9 133v5.9a6.46 6.46 0 0 0 6.1-5.9z"/><path d="m30.9 146.5h6.1a6.71 6.71 0 0 0 -6.1-5.9z"/><path d="m29.7 146.5v-5.9a6.46 6.46 0 0 0 -6.1 5.9z"/><path d="m29.7 147.6h-6.1a6.71 6.71 0 0 0 6.1 5.9z"/><path d="m30.9 147.6v5.9a6.46 6.46 0 0 0 6.1-5.9z"/><path d="m30.9 161.1h6.1a6.71 6.71 0 0 0 -6.1-5.9z"/><path d="m29.7 161.1v-5.9a6.46 6.46 0 0 0 -6.1 5.9z"/><path d="m29.7 162.3h-6.1a6.71 6.71 0 0 0 6.1 5.9z"/><path d="m30.9 162.3v5.9a6.46 6.46 0 0 0 6.1-5.9z"/><path d="m30.9 175.7h6.1a6.71 6.71 0 0 0 -6.1-5.9z"/><path d="m29.7 175.7v-5.9a6.46 6.46 0 0 0 -6.1 5.9z"/><path d="m29.7 176.9h-6.1a6.71 6.71 0 0 0 6.1 5.9z"/><path d="m30.9 176.9v5.9a6.46 6.46 0 0 0 6.1-5.9z"/><path d="m30.9 190.3h6.1a6.71 6.71 0 0 0 -6.1-5.9z"/><path d="m29.7 190.3v-5.9a6.46 6.46 0 0 0 -6.1 5.9z"/><path d="m29.7 191.5h-6.1a6.71 6.71 0 0 0 6.1 5.9z"/><path d="m30.9 191.5v5.9a6.46 6.46 0 0 0 6.1-5.9z"/><path d="m30.9 204.9h6.1a6.71 6.71 0 0 0 -6.1-5.9z"/><path d="m29.7 204.9v-5.9a6.46 6.46 0 0 0 -6.1 5.9z"/><path d="m29.7 206.1h-6.1a6.71 6.71 0 0 0 6.1 5.9z"/><path d="m30.9 206.1v5.9a6.46 6.46 0 0 0 6.1-5.9z"/><path d="m30.9 219.6h6.1a6.71 6.71 0 0 0 -6.1-5.9z"/><path d="m29.7 219.6v-5.9a6.46 6.46 0 0 0 -6.1 5.9z"/><path d="m29.7 220.7h-6.1a6.71 6.71 0 0 0 6.1 5.9z"/><path d="m30.9 220.7v5.9a6.46 6.46 0 0 0 6.1-5.9z"/><path d="m30.9 234.2h6.1a6.71 6.71 0 0 0 -6.1-5.9z"/><path d="m29.7 234.2v-5.9a6.46 6.46 0 0 0 -6.1 5.9z"/><path d="m29.7 235.3h-6.1a6.71 6.71 0 0 0 6.1 5.9z"/><path d="m30.9 235.3v5.9a6.46 6.46 0 0 0 6.1-5.9z"/><path d="m30.9 248.8h6.1a6.71 6.71 0 0 0 -6.1-5.9z"/><path d="m29.7 248.8v-5.9a6.46 6.46 0 0 0 -6.1 5.9z"/><path d="m29.7 249.9h-6.1a6.71 6.71 0 0 0 6.1 5.9z"/><path d="m30.9 249.9v5.9a6.46 6.46 0 0 0 6.1-5.9z"/><path d="m30.9 263.4h6.1a6.71 6.71 0 0 0 -6.1-5.9z"/><path d="m29.7 263.4v-5.9a6.46 6.46 0 0 0 -6.1 5.9z"/><path d="m29.7 264.6h-6.1a6.71 6.71 0 0 0 6.1 5.9z"/><path d="m30.9 264.6v5.9a6.46 6.46 0 0 0 6.1-5.9z"/><path d="m30.9 278h6.1a6.71 6.71 0 0 0 -6.1-5.9z"/><path d="m29.7 278v-5.9a6.46 6.46 0 0 0 -6.1 5.9z"/><path d="m29.7 279.2h-6.1a6.71 6.71 0 0 0 6.1 5.9z"/><path d="m30.9 279.2v5.9a6.46 6.46 0 0 0 6.1-5.9z"/><path d="m30.9 292.6h6.1a6.71 6.71 0 0 0 -6.1-5.9z"/><path d="m29.7 292.6v-5.9a6.46 6.46 0 0 0 -6.1 5.9z"/><path d="m29.7 293.8h-6.1a6.71 6.71 0 0 0 6.1 5.9z"/><path d="m30.9 293.8v5.9a6.46 6.46 0 0 0 6.1-5.9z"/><path d="m30.9 307.3h6.1a6.71 6.71 0 0 0 -6.1-5.9z"/><path d="m29.7 307.3v-5.9a6.46 6.46 0 0 0 -6.1 5.9z"/><path d="m29.7 308.4h-6.1a6.71 6.71 0 0 0 6.1 5.9z"/><path d="m30.9 308.4v5.9a6.46 6.46 0 0 0 6.1-5.9z"/><path d="m30.9 321.9h6.1a6.71 6.71 0 0 0 -6.1-5.9z"/><path d="m29.7 321.9v-5.9a6.46 6.46 0 0 0 -6.1 5.9z"/><path d="m29.7 323h-6.1a6.71 6.71 0 0 0 6.1 5.9z"/><path d="m30.9 323v5.9a6.46 6.46 0 0 0 6.1-5.9z"/><path d="m242.5 44.2h6.1a6.71 6.71 0 0 0 -6.1-5.9z"/><path d="m241.3 44.2v-5.9a6.46 6.46 0 0 0 -6.1 5.9z"/><path d="m241.3 45.3h-6.1a6.71 6.71 0 0 0 6.1 5.9z"/><path d="m242.5 45.3v5.9a6.46 6.46 0 0 0 6.1-5.9z"/><path d="m242.5 58.8h6.1a6.71 6.71 0 0 0 -6.1-5.9z"/><path d="m241.3 58.8v-5.9a6.46 6.46 0 0 0 -6.1 5.9z"/><path d="m241.3 59.9h-6.1a6.71 6.71 0 0 0 6.1 5.9z"/><path d="m242.5 59.9v5.9a6.46 6.46 0 0 0 6.1-5.9z"/><path d="m242.5 73.4h6.1a6.71 6.71 0 0 0 -6.1-5.9z"/><path d="m241.3 73.4v-5.9a6.46 6.46 0 0 0 -6.1 5.9z"/><path d="m241.3 74.6h-6.1a6.71 6.71 0 0 0 6.1 5.9z"/><path d="m242.5 74.6v5.9a6.46 6.46 0 0 0 6.1-5.9z"/><path d="m242.5 88h6.1a6.71 6.71 0 0 0 -6.1-5.9z"/><path d="m241.3 88v-5.9a6.46 6.46 0 0 0 -6.1 5.9z"/><path d="m241.3 89.2h-6.1a6.71 6.71 0 0 0 6.1 5.9z"/><path d="m242.5 89.2v5.9a6.46 6.46 0 0 0 6.1-5.9z"/><path d="m242.5 102.6h6.1a6.71 6.71 0 0 0 -6.1-5.9z"/><path d="m241.3 102.6v-5.9a6.46 6.46 0 0 0 -6.1 5.9z"/><path d="m241.3 103.8h-6.1a6.71 6.71 0 0 0 6.1 5.9z"/><path d="m242.5 103.8v5.9a6.46 6.46 0 0 0 6.1-5.9z"/><path d="m242.5 117.3h6.1a6.71 6.71 0 0 0 -6.1-5.9z"/><path d="m241.3 117.3v-5.9a6.46 6.46 0 0 0 -6.1 5.9z"/><path d="m241.3 118.4h-6.1a6.71 6.71 0 0 0 6.1 5.9z"/><path d="m242.5 118.4v5.9a6.46 6.46 0 0 0 6.1-5.9z"/><path d="m242.5 131.9h6.1a6.71 6.71 0 0 0 -6.1-5.9z"/><path d="m241.3 131.9v-5.9a6.46 6.46 0 0 0 -6.1 5.9z"/><path d="m241.3 133h-6.1a6.71 6.71 0 0 0 6.1 5.9z"/><path d="m242.5 133v5.9a6.46 6.46 0 0 0 6.1-5.9z"/><path d="m242.5 146.5h6.1a6.71 6.71 0 0 0 -6.1-5.9z"/><path d="m241.3 146.5v-5.9a6.46 6.46 0 0 0 -6.1 5.9z"/><path d="m241.3 147.6h-6.1a6.71 6.71 0 0 0 6.1 5.9z"/><path d="m242.5 147.6v5.9a6.46 6.46 0 0 0 6.1-5.9z"/><path d="m242.5 161.1h6.1a6.71 6.71 0 0 0 -6.1-5.9z"/><path d="m241.3 161.1v-5.9a6.46 6.46 0 0 0 -6.1 5.9z"/><path d="m241.3 162.3h-6.1a6.71 6.71 0 0 0 6.1 5.9z"/><path d="m242.5 162.3v5.9a6.46 6.46 0 0 0 6.1-5.9z"/><path d="m242.5 175.7h6.1a6.71 6.71 0 0 0 -6.1-5.9z"/><path d="m241.3 175.7v-5.9a6.46 6.46 0 0 0 -6.1 5.9z"/><path d="m241.3 176.9h-6.1a6.71 6.71 0 0 0 6.1 5.9z"/><path d="m242.5 176.9v5.9a6.46 6.46 0 0 0 6.1-5.9z"/><path d="m242.5 190.3h6.1a6.71 6.71 0 0 0 -6.1-5.9z"/><path d="m241.3 190.3v-5.9a6.46 6.46 0 0 0 -6.1 5.9z"/><path d="m241.3 191.5h-6.1a6.71 6.71 0 0 0 6.1 5.9z"/><path d="m242.5 191.5v5.9a6.46 6.46 0 0 0 6.1-5.9z"/><path d="m242.5 204.9h6.1a6.71 6.71 0 0 0 -6.1-5.9z"/><path d="m241.3 204.9v-5.9a6.46 6.46 0 0 0 -6.1 5.9z"/><path d="m241.3 206.1h-6.1a6.71 6.71 0 0 0 6.1 5.9z"/><path d="m242.5 206.1v5.9a6.46 6.46 0 0 0 6.1-5.9z"/><path d="m242.5 219.6h6.1a6.71 6.71 0 0 0 -6.1-5.9z"/><path d="m241.3 219.6v-5.9a6.46 6.46 0 0 0 -6.1 5.9z"/><path d="m241.3 220.7h-6.1a6.71 6.71 0 0 0 6.1 5.9z"/><path d="m242.5 220.7v5.9a6.46 6.46 0 0 0 6.1-5.9z"/><path d="m242.5 234.2h6.1a6.71 6.71 0 0 0 -6.1-5.9z"/><path d="m241.3 234.2v-5.9a6.46 6.46 0 0 0 -6.1 5.9z"/><path d="m241.3 235.3h-6.1a6.71 6.71 0 0 0 6.1 5.9z"/><path d="m242.5 235.3v5.9a6.46 6.46 0 0 0 6.1-5.9z"/><path d="m242.5 248.8h6.1a6.71 6.71 0 0 0 -6.1-5.9z"/><path d="m241.3 248.8v-5.9a6.46 6.46 0 0 0 -6.1 5.9z"/><path d="m241.3 249.9h-6.1a6.71 6.71 0 0 0 6.1 5.9z"/><path d="m242.5 249.9v5.9a6.46 6.46 0 0 0 6.1-5.9z"/><path d="m242.5 263.4h6.1a6.71 6.71 0 0 0 -6.1-5.9z"/><path d="m241.3 263.4v-5.9a6.46 6.46 0 0 0 -6.1 5.9z"/><path d="m241.3 264.6h-6.1a6.71 6.71 0 0 0 6.1 5.9z"/><path d="m242.5 264.6v5.9a6.46 6.46 0 0 0 6.1-5.9z"/><path d="m242.5 278h6.1a6.71 6.71 0 0 0 -6.1-5.9z"/><path d="m241.3 278v-5.9a6.46 6.46 0 0 0 -6.1 5.9z"/><path d="m241.3 279.2h-6.1a6.71 6.71 0 0 0 6.1 5.9z"/><path d="m242.5 279.2v5.9a6.46 6.46 0 0 0 6.1-5.9z"/><path d="m242.5 292.6h6.1a6.71 6.71 0 0 0 -6.1-5.9z"/><path d="m241.3 292.6v-5.9a6.46 6.46 0 0 0 -6.1 5.9z"/><path d="m241.3 293.8h-6.1a6.71 6.71 0 0 0 6.1 5.9z"/><path d="m242.5 293.8v5.9a6.46 6.46 0 0 0 6.1-5.9z"/><path d="m242.5 307.3h6.1a6.71 6.71 0 0 0 -6.1-5.9z"/><path d="m241.3 307.3v-5.9a6.46 6.46 0 0 0 -6.1 5.9z"/><path d="m241.3 308.4h-6.1a6.71 6.71 0 0 0 6.1 5.9z"/><path d="m242.5 308.4v5.9a6.46 6.46 0 0 0 6.1-5.9z"/><path d="m242.5 321.9h6.1a6.71 6.71 0 0 0 -6.1-5.9z"/><path d="m241.3 321.9v-5.9a6.46 6.46 0 0 0 -6.1 5.9z"/><path d="m241.3 323h-6.1a6.71 6.71 0 0 0 6.1 5.9z"/><path d="m242.5 323v5.9a6.46 6.46 0 0 0 6.1-5.9z"/><path d="m30.9 336.5h6.1a6.71 6.71 0 0 0 -6.1-5.9z"/><path d="m29.7 336.5v-5.9a6.46 6.46 0 0 0 -6.1 5.9z"/><path d="m29.7 337.6h-6.1a6.71 6.71 0 0 0 6.1 5.9z"/><path d="m30.9 337.6v5.9a6.46 6.46 0 0 0 6.1-5.9z"/><path d="m46.1 29.6h6.1a6.71 6.71 0 0 0 -6.1-5.9z"/><path d="m44.9 29.6v-5.9a6.46 6.46 0 0 0 -6.1 5.9z"/><path d="m44.9 30.7h-6.1a6.71 6.71 0 0 0 6.1 5.9z"/><path d="m46.1 30.7v5.9a6.46 6.46 0 0 0 6.1-5.9z"/><path d="m46.1 336.5h6.1a6.71 6.71 0 0 0 -6.1-5.9z"/><path d="m44.9 336.5v-5.9a6.46 6.46 0 0 0 -6.1 5.9z"/><path d="m44.9 337.6h-6.1a6.71 6.71 0 0 0 6.1 5.9z"/><path d="m46.1 337.6v5.9a6.46 6.46 0 0 0 6.1-5.9z"/><path d="m61.2 29.6h6.1a6.71 6.71 0 0 0 -6.1-5.9z"/><path d="m60 29.6v-5.9a6.46 6.46 0 0 0 -6.1 5.9z"/><path d="m60 30.7h-6.1a6.71 6.71 0 0 0 6.1 5.9z"/><path d="m61.2 30.7v5.9a6.46 6.46 0 0 0 6.1-5.9z"/><path d="m61.2 336.5h6.1a6.71 6.71 0 0 0 -6.1-5.9z"/><path d="m60 336.5v-5.9a6.46 6.46 0 0 0 -6.1 5.9z"/><path d="m60 337.6h-6.1a6.71 6.71 0 0 0 6.1 5.9z"/><path d="m61.2 337.6v5.9a6.46 6.46 0 0 0 6.1-5.9z"/><path d="m76.3 29.6h6.1a6.71 6.71 0 0 0 -6.1-5.9z"/><path d="m75.1 29.6v-5.9a6.46 6.46 0 0 0 -6.1 5.9z"/><path d="m75.1 30.7h-6.2a6.71 6.71 0 0 0 6.1 5.9v-5.9z"/><path d="m76.3 30.7v5.9a6.46 6.46 0 0 0 6.1-5.9z"/><path d="m76.3 336.5h6.1a6.71 6.71 0 0 0 -6.1-5.9z"/><path d="m75.1 336.5v-5.9a6.46 6.46 0 0 0 -6.1 5.9z"/><path d="m75.1 337.6h-6.2a6.71 6.71 0 0 0 6.1 5.9v-5.9z"/><path d="m76.3 337.6v5.9a6.46 6.46 0 0 0 6.1-5.9z"/><path d="m91.4 29.6h6.1a6.71 6.71 0 0 0 -6.1-5.9z"/><path d="m90.2 29.6v-5.9a6.46 6.46 0 0 0 -6.1 5.9z"/><path d="m90.2 30.7h-6.1a6.71 6.71 0 0 0 6.1 5.9z"/><path d="m91.4 30.7v5.9a6.46 6.46 0 0 0 6.1-5.9z"/><path d="m91.4 336.5h6.1a6.71 6.71 0 0 0 -6.1-5.9z"/><path d="m90.2 336.5v-5.9a6.46 6.46 0 0 0 -6.1 5.9z"/><path d="m90.2 337.6h-6.1a6.71 6.71 0 0 0 6.1 5.9z"/><path d="m91.4 337.6v5.9a6.46 6.46 0 0 0 6.1-5.9z"/><path d="m106.5 29.6h6.1a6.71 6.71 0 0 0 -6.1-5.9z"/><path d="m105.3 29.6v-5.9a6.46 6.46 0 0 0 -6.1 5.9z"/><path d="m105.3 30.7h-6.1a6.71 6.71 0 0 0 6.1 5.9z"/><path d="m106.5 30.7v5.9a6.46 6.46 0 0 0 6.1-5.9z"/><path d="m106.5 336.5h6.1a6.71 6.71 0 0 0 -6.1-5.9z"/><path d="m105.3 336.5v-5.9a6.46 6.46 0 0 0 -6.1 5.9z"/><path d="m105.3 337.6h-6.1a6.71 6.71 0 0 0 6.1 5.9z"/><path d="m106.5 337.6v5.9a6.46 6.46 0 0 0 6.1-5.9z"/><path d="m121.6 29.6h6.1a6.71 6.71 0 0 0 -6.1-5.9z"/><path d="m120.4 29.6v-5.9a6.46 6.46 0 0 0 -6.1 5.9z"/><path d="m120.4 30.7h-6.1a6.71 6.71 0 0 0 6.1 5.9z"/><path d="m121.6 30.7v5.9a6.46 6.46 0 0 0 6.1-5.9z"/><path d="m121.6 336.5h6.1a6.71 6.71 0 0 0 -6.1-5.9z"/><path d="m120.4 336.5v-5.9a6.46 6.46 0 0 0 -6.1 5.9z"/><path d="m120.4 337.6h-6.1a6.71 6.71 0 0 0 6.1 5.9z"/><path d="m121.6 337.6v5.9a6.46 6.46 0 0 0 6.1-5.9z"/><path d="m136.7 29.6h6.1a6.71 6.71 0 0 0 -6.1-5.9z"/><path d="m135.5 29.6v-5.9a6.46 6.46 0 0 0 -6.1 5.9z"/><path d="m135.5 30.7h-6.1a6.71 6.71 0 0 0 6.1 5.9z"/><path d="m136.7 30.7v5.9a6.46 6.46 0 0 0 6.1-5.9z"/><path d="m136.7 336.5h6.1a6.71 6.71 0 0 0 -6.1-5.9z"/><path d="m135.5 336.5v-5.9a6.46 6.46 0 0 0 -6.1 5.9z"/><path d="m135.5 337.6h-6.1a6.71 6.71 0 0 0 6.1 5.9z"/><path d="m136.7 337.6v5.9a6.46 6.46 0 0 0 6.1-5.9z"/><path d="m151.9 29.6h6.1a6.71 6.71 0 0 0 -6.1-5.9z"/><path d="m150.7 29.6v-5.9a6.46 6.46 0 0 0 -6.1 5.9z"/><path d="m150.7 30.7h-6.1a6.71 6.71 0 0 0 6.1 5.9z"/><path d="m151.9 30.7v5.9a6.46 6.46 0 0 0 6.1-5.9z"/><path d="m151.9 336.5h6.1a6.71 6.71 0 0 0 -6.1-5.9z"/><path d="m150.7 336.5v-5.9a6.46 6.46 0 0 0 -6.1 5.9z"/><path d="m150.7 337.6h-6.1a6.71 6.71 0 0 0 6.1 5.9z"/><path d="m151.9 337.6v5.9a6.46 6.46 0 0 0 6.1-5.9z"/><path d="m167 29.6h6.1a6.71 6.71 0 0 0 -6.1-5.9z"/><path d="m165.8 29.6v-5.9a6.46 6.46 0 0 0 -6.1 5.9z"/><path d="m165.8 30.7h-6.1a6.71 6.71 0 0 0 6.1 5.9z"/><path d="m167 30.7v5.9a6.46 6.46 0 0 0 6.1-5.9z"/><path d="m167 336.5h6.1a6.71 6.71 0 0 0 -6.1-5.9z"/><path d="m165.8 336.5v-5.9a6.46 6.46 0 0 0 -6.1 5.9z"/><path d="m165.8 337.6h-6.1a6.71 6.71 0 0 0 6.1 5.9z"/><path d="m167 337.6v5.9a6.46 6.46 0 0 0 6.1-5.9z"/><path d="m182.1 29.6h6.1a6.71 6.71 0 0 0 -6.1-5.9z"/><path d="m180.9 29.6v-5.9a6.46 6.46 0 0 0 -6.1 5.9z"/><path d="m180.9 30.7h-6.1a6.71 6.71 0 0 0 6.1 5.9z"/><path d="m182.1 30.7v5.9a6.46 6.46 0 0 0 6.1-5.9z"/><path d="m182.1 336.5h6.1a6.71 6.71 0 0 0 -6.1-5.9z"/><path d="m180.9 336.5v-5.9a6.46 6.46 0 0 0 -6.1 5.9z"/><path d="m180.9 337.6h-6.1a6.71 6.71 0 0 0 6.1 5.9z"/><path d="m182.1 337.6v5.9a6.46 6.46 0 0 0 6.1-5.9z"/><path d="m197.2 29.6h6.1a6.71 6.71 0 0 0 -6.1-5.9z"/><path d="m196 29.6v-5.9a6.46 6.46 0 0 0 -6.1 5.9z"/><path d="m196 30.7h-6.1a6.71 6.71 0 0 0 6.1 5.9z"/><path d="m197.2 30.7v5.9a6.46 6.46 0 0 0 6.1-5.9z"/><path d="m197.2 336.5h6.1a6.71 6.71 0 0 0 -6.1-5.9z"/><path d="m196 336.5v-5.9a6.46 6.46 0 0 0 -6.1 5.9z"/><path d="m196 337.6h-6.1a6.71 6.71 0 0 0 6.1 5.9z"/><path d="m197.2 337.6v5.9a6.46 6.46 0 0 0 6.1-5.9z"/><path d="m212.3 29.6h6.1a6.71 6.71 0 0 0 -6.1-5.9z"/><path d="m211.1 29.6v-5.9a6.46 6.46 0 0 0 -6.1 5.9z"/><path d="m211.1 30.7h-6.1a6.71 6.71 0 0 0 6.1 5.9z"/><path d="m212.3 30.7v5.9a6.46 6.46 0 0 0 6.1-5.9z"/><path d="m212.3 336.5h6.1a6.71 6.71 0 0 0 -6.1-5.9z"/><path d="m211.1 336.5v-5.9a6.46 6.46 0 0 0 -6.1 5.9z"/><path d="m211.1 337.6h-6.1a6.71 6.71 0 0 0 6.1 5.9z"/><path d="m212.3 337.6v5.9a6.46 6.46 0 0 0 6.1-5.9z"/><path d="m227.4 29.6h6.1a6.71 6.71 0 0 0 -6.1-5.9z"/><path d="m226.2 29.6v-5.9a6.46 6.46 0 0 0 -6.1 5.9z"/><path d="m226.2 30.7h-6.1a6.71 6.71 0 0 0 6.1 5.9z"/><path d="m227.4 30.7v5.9a6.46 6.46 0 0 0 6.1-5.9z"/><path d="m227.4 336.5h6.1a6.71 6.71 0 0 0 -6.1-5.9z"/><path d="m226.2 336.5v-5.9a6.46 6.46 0 0 0 -6.1 5.9z"/><path d="m226.2 337.6h-6.1a6.71 6.71 0 0 0 6.1 5.9z"/><path d="m227.4 337.6v5.9a6.46 6.46 0 0 0 6.1-5.9z"/><path d="m242.5 29.6h6.1a6.71 6.71 0 0 0 -6.1-5.9z"/><path d="m241.3 29.6v-5.9a6.46 6.46 0 0 0 -6.1 5.9z"/><path d="m241.3 30.7h-6.1a6.71 6.71 0 0 0 6.1 5.9z"/><path d="m242.5 30.7v5.9a6.46 6.46 0 0 0 6.1-5.9z"/><path d="m242.5 336.5h6.1a6.71 6.71 0 0 0 -6.1-5.9z"/><path d="m241.3 336.5v-5.9a6.46 6.46 0 0 0 -6.1 5.9z"/><path d="m241.3 337.6h-6.1a6.71 6.71 0 0 0 6.1 5.9z"/><path d="m242.5 337.6v5.9a6.46 6.46 0 0 0 6.1-5.9z"/><path d="m232.2 327.1h-192v-287h192zm-189.3-2.8h186.5v-281.4h-186.5z"/><path d="m226 320.6h-179.7v-274h179.7zm-177.1-2.7h174.6v-268.6h-174.6z"/><path d="m136.1 86a40.6 40.6 0 1 0 40.6 40.6 40.63 40.63 0 0 0 -40.6-40.6zm0 79.3a38.7 38.7 0 1 1 38.7-38.7 38.67 38.67 0 0 1 -38.7 38.7z"/><path d="m136.1 91.1a35.5 35.5 0 1 0 35.5 35.5 35.51 35.51 0 0 0 -35.5-35.5zm0 69.3a33.8 33.8 0 1 1 33.8-33.8 33.76 33.76 0 0 1 -33.8 33.8z"/><path d="m136.1 180.1-.8-3.8c-.1-.3-8-34.9-52-49l-2.5-.8 2.5-.8c44-14.1 51.9-48.6 52-49l.8-3.8.8 3.8c.1.3 8 34.9 52 49l2.5.8-2.5.8c-44 14.1-51.9 48.6-52 49zm-49.9-53.5c35.7 12.4 47.1 38.2 49.9 46.7 2.8-8.5 14.2-34.3 49.9-46.7-35.7-12.4-47.1-38.2-49.9-46.7-2.8 8.5-14.2 34.3-49.9 46.7z"/><path d="m136.1 167-.6-2.8c-.1-.3-6-26.3-39.2-36.9l-1.9-.6 1.9-.6c33.2-10.6 39.1-36.7 39.2-36.9l.6-2.8.6 2.8c.1.3 6 26.3 39.2 36.9l1.9.6-1.9.6c-33.2 10.6-39.1 36.7-39.2 36.9zm-37.6-40.4c26.9 9.3 35.5 28.8 37.7 35.2 2.1-6.4 10.7-25.9 37.7-35.2-26.9-9.3-35.5-28.8-37.7-35.2-2.2 6.4-10.8 25.9-37.7 35.2z"/><path d="m136.1 200a40.6 40.6 0 1 0 40.6 40.6 40.63 40.63 0 0 0 -40.6-40.6zm0 79.3a38.7 38.7 0 1 1 38.7-38.7 38.67 38.67 0 0 1 -38.7 38.7z"/><path d="m136.1 205.1a35.5 35.5 0 1 0 35.5 35.5 35.51 35.51 0 0 0 -35.5-35.5zm0 69.3a33.8 33.8 0 1 1 33.8-33.8 33.76 33.76 0 0 1 -33.8 33.8z"/><path d="m136.1 294.1-.8-3.8c-.1-.3-8-34.9-52-49l-2.5-.8 2.5-.8c44-14.1 51.9-48.6 52-49l.8-3.8.8 3.8c.1.3 8 34.9 52 49l2.5.8-2.5.8c-44 14.1-51.9 48.6-52 49zm-49.9-53.5c35.7 12.4 47.1 38.2 49.9 46.7 2.8-8.5 14.2-34.3 49.9-46.7-35.7-12.4-47.1-38.2-49.9-46.7-2.8 8.5-14.2 34.3-49.9 46.7z"/><path d="m136.1 281-.6-2.8c-.1-.3-6-26.3-39.2-36.9l-1.9-.6 1.9-.6c33.2-10.6 39.1-36.7 39.2-36.9l.6-2.8.6 2.8c.1.3 6 26.3 39.2 36.9l1.9.6-1.9.6c-33.2 10.6-39.1 36.7-39.2 36.9zm-37.6-40.4c26.9 9.3 35.5 28.8 37.7 35.2 2.1-6.4 10.7-25.9 37.7-35.2-26.9-9.3-35.5-28.8-37.7-35.2-2.2 6.4-10.8 25.9-37.7 35.2z"/><path d="m136.1 125.1a57.7 57.7 0 1 0 57.7 57.7 57.72 57.72 0 0 0 -57.7-57.7zm0 112.6a55 55 0 1 1 55-55 55 55 0 0 1 -55 55z"/><path d="m136.1 132.3a50.5 50.5 0 1 0 50.5 50.5 50.49 50.49 0 0 0 -50.5-50.5zm0 98.5a48.1 48.1 0 1 1 48.1-48.1 48.06 48.06 0 0 1 -48.1 48.1z"/><path d="m136.1 258.8-1.1-5.3c-.1-.5-11.3-49.6-73.9-69.6l-3.5-1.1 3.5-1.1c62.5-20 73.8-69.1 73.9-69.6l1.1-5.3 1.1 5.3c.1.5 11.3 49.6 73.9 69.6l3.5 1.1-3.5 1.1c-62.5 20-73.8 69.1-73.9 69.6zm-70.9-76.1c50.8 17.6 66.9 54.3 70.9 66.3 4-12 20.2-48.7 70.9-66.3-50.8-17.6-66.9-54.3-70.9-66.3-4 12-20.1 48.7-70.9 66.3z"/><path d="m136.1 240.1-.9-4c-.1-.4-8.5-37.4-55.7-52.5l-2.6-.9 2.6-.8c47.2-15.1 55.6-52.1 55.7-52.5l.9-4 .9 4c.1.4 8.5 37.4 55.7 52.5l2.6.8-2.6.8c-47.2 15.1-55.6 52.1-55.7 52.5zm-53.5-57.4c38.3 13.3 50.5 40.9 53.5 50 3-9.1 15.2-36.8 53.5-50-38.3-13.3-50.5-40.9-53.5-50-3 9.1-15.2 36.7-53.5 50z"/></g></svg>