<svg viewBox="0 0 272.4 367.2" xmlns="http://www.w3.org/2000/svg"><path d="m23.7 367.2a23.69 23.69 0 0 1 -23.7-23.7v-319.8a23.69 23.69 0 0 1 23.7-23.7h225a23.69 23.69 0 0 1 23.7 23.7v319.8a23.69 23.69 0 0 1 -23.7 23.7z" fill="#fff"/><path d="m248.7 9.7h-225a13.87 13.87 0 0 0 -13.9 13.9v319.8a13.87 13.87 0 0 0 13.9 13.9h225a13.87 13.87 0 0 0 13.9-13.9v-319.7a13.89 13.89 0 0 0 -13.9-14z" fill="#ee3131"/><g fill="#fff"><path d="m223.5 309h-174.5v-250.8h174.5zm-170.6-4h166.7v-242.8h-166.7z"/><path d="m248.7 352.5h-225a8.92 8.92 0 0 1 -8.9-8.9v-319.9a8.92 8.92 0 0 1 8.9-8.9h225a8.92 8.92 0 0 1 8.9 8.9v319.8a8.88 8.88 0 0 1 -8.9 9zm-225-333.8a4.91 4.91 0 0 0 -4.9 4.9v319.8a4.91 4.91 0 0 0 4.9 4.9h225a4.91 4.91 0 0 0 4.9-4.9v-319.7a4.91 4.91 0 0 0 -4.9-4.9h-225z"/><path d="m214.2 307 5-4.5-10.8-9.7-10.8 9.7 5 4.5h-2.5l-3.8-3.4-3.8 3.4h-2.5l5-4.5-10.8-9.7-10.8 9.7 5 4.5h-2.5l-3.8-3.4-3.8 3.4h-2.5l5-4.5-10.8-9.7-10.8 9.7 5 4.5h-2.5l-3.8-3.4-3.8 3.4h-2.5l5-4.5-10.8-9.7-10.8 9.7 5 4.5h-2.5l-3.8-3.4-3.8 3.4h-2l5-4.5-10.8-9.7-10.8 9.7 5 4.5h-2.4l-3.8-3.4-3.8 3.4h-2.4l5-4.5-10.8-9.7-10.8 9.7 5 4.5h-2.5l-3.8-3.4-3.8 3.4h-2.5l5-4.5-10.8-9.7-10.8 9.7 5 4.5h-2.5l-3.8-3.4-1 .9v-4l1 .9 10.8-9.7-10.8-9.7-1 .9v-4l1 .9 10.8-9.7-10.8-9.7-1 .9v-4l1 .9 10.8-9.7-10.8-9.7-1 .9v-4l1 .9 10.8-9.7-10.8-9.7-1 .9v-4l1 .9 10.8-9.7-10.8-9.7-1 .9v-4l1 .9 10.8-9.7-10.8-9.7-1 .9v-4l1 .9 10.8-9.7-10.8-9.7-1 .9v-4l1 .9 10.8-9.7-10.8-9.7-1 .9v-4l1 .9 10.8-9.7-10.8-9.7-1 .9v-4l1 .9 10.8-9.7-10.8-9.7-1 .9v-4l1 .9 10.8-9.7-10.8-9.7-1 .9v-4l1 .9 3.8-3.4h2.5l-5 4.5 10.8 9.7 10.8-9.7-5-4.5h2.5l3.8 3.4 3.8-3.4h2.5l-5 4.5 10.8 9.7 10.8-9.9-5-4.5h2.5l3.8 3.4 3.8-3.4h2.5l-5 4.5 10.8 9.7 10.8-9.7-5-4.5h2.5l3.8 3.4 3.8-3.4h2.5l-5 4.5 10.8 9.7 10.8-9.7-5-4.5h2.5l3.8 3.4 3.8-3.4h2.5l-5 4.5 10.8 9.7 10.8-9.7-5-4.5h2.5l3.8 3.4 3.8-3.4h2.5l-5 4.5 10.8 9.7 10.8-9.7-5-4.5h2.5l3.8 3.4 3.8-3.4h2.5l-5 4.5 10.8 9.7 10.8-9.7-5-4.5h2.5l3.8 3.4 1-.9v4l-1-.9-10.8 9.7 10.8 9.7 1-.9v4l-1-.9-10.8 9.7 10.8 9.7 1-.9v4l-1-.9-10.8 9.7 10.8 9.7 1-.9v4l-1-.9-10.8 9.7 10.8 9.7 1-.9v4l-1-.9-10.8 9.7 10.8 9.7 1-.9v4l-1-.9-10.8 9.7 10.8 9.7 1-.9v4l-1-.9-10.8 9.7 10.8 9.7 1-.9v4l-1-.9-10.8 9.7 10.8 9.7 1-.9v4l-1-.9-10.8 9.7 10.8 9.7 1-.9v4l-1-.9-10.8 9.7 10.8 9.7 1-.9v4l-1-.9-10.8 9.7 10.8 9.7 1-.9v4l-1-.9-3.8 3.4h-3.2zm-28.6-15.3 10.8 9.7 10.8-9.7-10.8-9.7zm-48.1 0 10.8 9.7 10.8-9.7-10.8-9.7zm-24.1 0 10.8 9.7 10.8-9.7-10.8-9.7zm48.1 0 10.8 9.7 10.8-9.7-10.8-9.7zm-96.2 0 10.8 9.7 10.8-9.7-10.8-9.7zm24 0 10.8 9.7 10.8-9.7-10.8-9.7zm12.1-10.8 10.8 9.7 10.8-9.7-10.8-9.7zm96.3 0 10.8 9.7 10.8-9.7-10.8-9.7zm-48.2 0 10.8 9.7 10.8-9.7-10.8-9.7zm-24.1 0 10.8 9.7 10.8-9.7-10.8-9.7zm-48.1 0 10.8 9.7 10.8-9.7-10.8-9.7zm-24.1 0 10.8 9.7 10.8-9.7-10.8-9.7zm120.4 0 10.8 9.7 10.8-9.7-10.8-9.7zm12-10.9 10.8 9.7 10.8-9.7-10.8-9.7zm-24.1 0 10.8 9.7 10.8-9.7-10.8-9.7zm-24 0 10.8 9.7 10.8-9.7-10.8-9.7zm-24.1 0 10.8 9.7 10.8-9.7-10.8-9.7zm-48.1 0 10.8 9.7 10.8-9.7-10.8-9.7zm24 0 10.8 9.7 10.8-9.7-10.8-9.7zm12.1-10.8 10.8 9.7 10.8-9.7-10.8-9.7zm96.3 0 10.8 9.7 10.8-9.7-10.8-9.7zm-48.2 0 10.8 9.7 10.8-9.7-10.8-9.7zm-24.1 0 10.8 9.7 10.8-9.7-10.8-9.7zm-48.1 0 10.8 9.7 10.8-9.7-10.8-9.7zm-24.1 0 10.8 9.7 10.8-9.7-10.8-9.7zm120.4 0 10.8 9.7 10.8-9.7-10.8-9.7zm-12.1-10.8 10.8 9.7 10.8-9.7-10.8-9.7zm24.1 0 10.8 9.7 10.8-9.7-10.8-9.7zm-48.1 0 10.8 9.7 10.8-9.7-10.8-9.7zm-24.1 0 10.8 9.7 10.8-9.7-10.8-9.7zm-48.1 0 10.8 9.7 10.8-9.7-10.8-9.7zm24 0 10.8 9.7 10.8-9.7-10.8-9.7zm12.1-10.8 10.8 9.7 10.8-9.7-10.8-9.7zm96.3 0 10.8 9.7 10.8-9.7-10.8-9.7zm-48.2 0 10.8 9.7 10.8-9.7-10.8-9.7zm-24.1 0 10.8 9.7 10.8-9.7-10.8-9.7zm-48.1 0 10.8 9.7 10.8-9.7-10.8-9.7zm-24.1 0 10.8 9.7 10.8-9.7-10.8-9.7zm120.4 0 10.8 9.7 10.8-9.7-10.8-9.7zm-60.2-10.8 10.8 9.7 10.8-9.7-10.8-9.7zm-48.1 0 10.8 9.7 10.8-9.7-10.8-9.7zm120.3 0 10.8 9.7 10.8-9.7-10.8-9.7zm-24.1 0 10.8 9.7 10.8-9.7-10.8-9.7zm-24 0 10.8 9.7 10.8-9.7-10.8-9.7zm-48.2 0 10.8 9.7 10.8-9.7-10.8-9.7zm36.1-10.8 10.8 9.7 10.8-9.7-10.8-9.7zm-24 0 10.8 9.7 10.8-9.7-10.8-9.7zm96.3 0 10.8 9.7 10.8-9.7-10.8-9.7zm-48.2 0 10.8 9.7 10.8-9.7-10.8-9.7zm-72.2 0 10.8 9.7 10.8-9.7-10.8-9.7zm-24.1 0 10.8 9.7 10.8-9.7-10.8-9.7zm120.4 0 10.8 9.7 10.8-9.7-10.8-9.7zm-12.1-10.8 10.8 9.7 10.8-9.7-10.8-9.7zm-48.1 0 10.8 9.7 10.8-9.7-10.8-9.7zm-48.1 0 10.8 9.7 10.8-9.7-10.8-9.7zm120.3 0 10.8 9.7 10.8-9.7-10.8-9.7zm-48.1 0 10.8 9.7 10.8-9.7-10.8-9.7zm-48.2 0 10.8 9.7 10.8-9.7-10.8-9.7zm12.1-10.8 10.8 9.7 10.8-9.7-10.8-9.7zm96.3 0 10.8 9.7 10.8-9.7-10.8-9.7zm-48.2 0 10.8 9.7 10.8-9.7-10.8-9.7zm-24.1 0 10.8 9.7 10.8-9.7-10.8-9.7zm-48.1 0 10.8 9.7 10.8-9.7-10.8-9.7zm-24.1 0 10.8 9.7 10.8-9.7-10.8-9.7zm120.4 0 10.8 9.7 10.8-9.7-10.8-9.7zm-12.1-10.8 10.8 9.7 10.8-9.7-10.8-9.7zm24.1 0 10.8 9.7 10.8-9.7-10.8-9.7zm-48.1 0 10.8 9.7 10.8-9.7-10.8-9.7zm-24.1 0 10.8 9.7 10.8-9.7-10.8-9.7zm-48.1 0 10.8 9.7 10.8-9.7-10.8-9.7zm24 0 10.8 9.7 10.8-9.7-10.8-9.7zm12.1-10.8 10.8 9.7 10.8-9.7-10.8-9.7zm96.3 0 10.8 9.7 10.8-9.7-10.8-9.7zm-48.2 0 10.8 9.7 10.8-9.7-10.8-9.7zm-24.1 0 10.8 9.7 10.8-9.7-10.8-9.7zm-48.1 0 10.8 9.7 10.8-9.7-10.8-9.7zm-24.1 0 10.8 9.7 10.8-9.7-10.8-9.7zm120.4 0 10.8 9.7 10.8-9.7-10.8-9.7zm12-10.8 10.8 9.7 10.8-9.7-10.8-9.7zm-24.1 0 10.8 9.7 10.8-9.7-10.8-9.7zm-24 0 10.8 9.7 10.8-9.7-10.8-9.7zm-24.1 0 10.8 9.7 10.8-9.7-10.8-9.7zm-48.1 0 10.8 9.7 10.8-9.7-10.8-9.7zm24 0 10.8 9.7 10.8-9.7-10.8-9.7zm12.1-10.8 10.8 9.7 10.8-9.7-10.8-9.7zm96.3 0 10.8 9.7 10.8-9.7-10.8-9.7zm-48.2 0 10.8 9.7 10.8-9.7-10.8-9.7zm-24.1 0 10.8 9.7 10.8-9.7-10.8-9.7zm-48.1 0 10.8 9.7 10.8-9.7-10.8-9.7zm-24.1 0 10.8 9.7 10.8-9.7-10.8-9.7zm120.4 0 10.8 9.7 10.8-9.7-10.8-9.7zm-12.1-10.8 10.8 9.7 10.8-9.7-10.8-9.7zm24.1 0 10.8 9.7 10.8-9.7-10.8-9.7zm-120.3 0 10.8 9.7 10.8-9.7-10.8-9.7zm72.2 0 10.8 9.7 10.8-9.7-10.8-9.7zm-24.1 0 10.8 9.7 10.8-9.7-10.8-9.7zm-24.1 0 10.8 9.7 10.8-9.7-10.8-9.7zm12.1-10.8 10.8 9.7 10.8-9.7-10.8-9.7zm96.3 0 10.8 9.7 10.8-9.7-10.8-9.7zm-48.2 0 10.8 9.7 10.8-9.7-10.8-9.7zm-24.1 0 10.8 9.7 10.8-9.7-10.8-9.7zm-48.1 0 10.8 9.7 10.8-9.7-10.8-9.7zm-24.1 0 10.8 9.7 10.8-9.7-10.8-9.7zm120.4 0 10.8 9.7 10.8-9.7-10.8-9.7zm12-10.8 10.8 9.7 10.8-9.7-10.8-9.7zm-24.1 0 10.8 9.7 10.8-9.7-10.8-9.7zm-24 0 10.8 9.7 10.8-9.7-10.8-9.7zm-72.2 0 10.8 9.7 10.8-9.7-10.8-9.7zm48.1 0 10.8 9.7 10.8-9.7-10.8-9.7zm-24.1 0 10.8 9.7 10.8-9.7-10.8-9.7zm12.1-10.8 10.8 9.7 10.8-9.7-10.8-9.7zm96.3 0 10.8 9.7 10.8-9.7-10.8-9.7zm-48.2 0 10.8 9.7 10.8-9.7-10.8-9.7zm-24.1 0 10.8 9.7 10.8-9.7-10.8-9.7zm-48.1 0 10.8 9.7 10.8-9.7-10.8-9.7zm-24.1 0 10.8 9.7 10.8-9.7-10.8-9.7zm120.4 0 10.8 9.7 10.8-9.7-10.8-9.7zm-12.1-10.8 10.8 9.7 10.8-9.7-10.8-9.7zm24.1 0 10.8 9.7 10.8-9.7-10.8-9.7zm-48.1 0 10.8 9.7 10.8-9.7-10.8-9.7zm-24.1 0 10.8 9.7 10.8-9.7-10.8-9.7zm-48.1 0 10.8 9.7 10.8-9.7-10.8-9.7zm24 0 10.8 9.7 10.8-9.7-10.8-9.7zm12.1-10.9 10.8 9.7 10.8-9.7-10.8-9.7zm96.3 0 10.8 9.7 10.8-9.7-10.8-9.7zm-48.2 0 10.8 9.7 10.8-9.7-10.8-9.7zm-24.1 0 10.8 9.7 10.8-9.7-10.8-9.7zm-48.1 0 10.8 9.7 10.8-9.7-10.8-9.7zm-24.1 0 10.8 9.7 10.8-9.7-10.8-9.7zm120.4 0 10.8 9.7 10.8-9.7-10.8-9.7zm-60.2-10.8 10.8 9.7 10.8-9.7-10.8-9.7zm-48.1 0 10.8 9.7 10.8-9.7-10.8-9.7zm120.3 0 10.8 9.7 10.8-9.7-10.8-9.7zm-24.1 0 10.8 9.7 10.8-9.7-10.8-9.7zm-24 0 10.8 9.7 10.8-9.7-10.8-9.7zm-48.2 0 10.8 9.7 10.8-9.7-10.8-9.7z"/><path d="m40.2 29.6-5.6-7.1-5.7 7.1 5.7 7.1z"/><path d="m41.6 31.4-5.6 7.1 5.6 7.1 5.7-7.1z"/><path d="m28.9 47.4 5.7 7 5.6-7-5.6-7.1z"/><path d="m27.5 31.4-5.7 7.1 5.7 7.1 5.6-7.1z"/><path d="m65.6 29.6-5.6-7.1-5.7 7.1 5.7 7.1z"/><path d="m67.1 31.4-5.7 7.1 5.7 7.1 5.6-7.1z"/><path d="m54.3 47.4 5.7 7 5.6-7-5.6-7.1z"/><path d="m52.9 31.4-5.6 7.1 5.6 7.1 5.6-7.1z"/><path d="m91 29.6-5.6-7.1-5.6 7.1 5.6 7.1z"/><path d="m92.5 31.4-5.7 7.1 5.7 7.1 5.6-7.1z"/><path d="m79.8 47.4 5.6 7 5.6-7-5.6-7.1z"/><path d="m78.3 31.4-5.6 7.1 5.6 7.1 5.6-7.1z"/><path d="m116.4 29.6-5.6-7.1-5.6 7.1 5.6 7.1z"/><path d="m117.9 31.4-5.6 7.1 5.6 7.1 5.6-7.1z"/><path d="m105.2 47.4 5.6 7 5.6-7-5.6-7.1z"/><path d="m103.7 31.4-5.6 7.1 5.6 7.1 5.7-7.1z"/><path d="m141.9 29.6-5.7-7.1-5.6 7.1 5.6 7.1z"/><path d="m143.3 31.4-5.6 7.1 5.6 7.1 5.6-7.1z"/><path d="m130.6 47.4 5.6 7 5.7-7-5.7-7.1z"/><path d="m129.2 31.4-5.7 7.1 5.7 7.1 5.6-7.1z"/><path d="m167.3 29.6-5.6-7.1-5.7 7.1 5.7 7.1z"/><path d="m168.7 31.4-5.6 7.1 5.6 7.1 5.7-7.1z"/><path d="m156 47.4 5.7 7 5.6-7-5.6-7.1z"/><path d="m154.6 31.4-5.7 7.1 5.7 7.1 5.6-7.1z"/><path d="m192.7 29.6-5.6-7.1-5.6 7.1 5.6 7.1z"/><path d="m194.2 31.4-5.7 7.1 5.7 7.1 5.6-7.1z"/><path d="m181.5 47.4 5.6 7 5.6-7-5.6-7.1z"/><path d="m180 31.4-5.6 7.1 5.6 7.1 5.6-7.1z"/><path d="m218.1 29.6-5.6-7.1-5.6 7.1 5.6 7.1z"/><path d="m219.6 31.4-5.6 7.1 5.6 7.1 5.6-7.1z"/><path d="m206.9 47.4 5.6 7 5.6-7-5.6-7.1z"/><path d="m205.4 31.4-5.6 7.1 5.6 7.1 5.6-7.1z"/><path d="m243.6 29.6-5.7-7.1-5.6 7.1 5.6 7.1z"/><path d="m245 31.4-5.6 7.1 5.6 7.1 5.6-7.1z"/><path d="m232.3 47.4 5.6 7 5.7-7-5.7-7.1z"/><path d="m230.8 31.4-5.6 7.1 5.6 7.1 5.7-7.1z"/><path d="m40.2 316-5.6-7-5.7 7 5.7 7.1z"/><path d="m41.6 317.8-5.6 7.1 5.6 7.1 5.7-7.1z"/><path d="m28.9 333.8 5.7 7.1 5.6-7.1-5.6-7.1z"/><path d="m27.5 317.8-5.7 7.1 5.7 7.1 5.6-7.1z"/><path d="m65.6 316-5.6-7-5.7 7 5.7 7.1z"/><path d="m67.1 317.8-5.7 7.1 5.7 7.1 5.6-7.1z"/><path d="m54.3 333.8 5.7 7.1 5.6-7.1-5.6-7.1z"/><path d="m52.9 317.8-5.6 7.1 5.6 7.1 5.6-7.1z"/><path d="m91 316-5.6-7-5.6 7 5.6 7.1z"/><path d="m92.5 317.8-5.7 7.1 5.7 7.1 5.6-7.1z"/><path d="m79.8 333.8 5.6 7.1 5.6-7.1-5.6-7.1z"/><path d="m78.3 317.8-5.6 7.1 5.6 7.1 5.6-7.1z"/><path d="m116.4 316-5.6-7-5.6 7 5.6 7.1z"/><path d="m117.9 317.8-5.6 7.1 5.6 7.1 5.6-7.1z"/><path d="m105.2 333.8 5.6 7.1 5.6-7.1-5.6-7.1z"/><path d="m103.7 317.8-5.6 7.1 5.6 7.1 5.7-7.1z"/><path d="m141.9 316-5.7-7-5.6 7 5.6 7.1z"/><path d="m143.3 317.8-5.6 7.1 5.6 7.1 5.6-7.1z"/><path d="m130.6 333.8 5.6 7.1 5.7-7.1-5.7-7.1z"/><path d="m129.2 317.8-5.7 7.1 5.7 7.1 5.6-7.1z"/><path d="m167.3 316-5.6-7-5.7 7 5.7 7.1z"/><path d="m168.7 317.8-5.6 7.1 5.6 7.1 5.7-7.1z"/><path d="m156 333.8 5.7 7.1 5.6-7.1-5.6-7.1z"/><path d="m154.6 317.8-5.7 7.1 5.7 7.1 5.6-7.1z"/><path d="m192.7 316-5.6-7-5.6 7 5.6 7.1z"/><path d="m194.2 317.8-5.7 7.1 5.7 7.1 5.6-7.1z"/><path d="m181.5 333.8 5.6 7.1 5.6-7.1-5.6-7.1z"/><path d="m180 317.8-5.6 7.1 5.6 7.1 5.6-7.1z"/><path d="m218.1 316-5.6-7-5.6 7 5.6 7.1z"/><path d="m219.6 317.8-5.6 7.1 5.6 7.1 5.6-7.1z"/><path d="m206.9 333.8 5.6 7.1 5.6-7.1-5.6-7.1z"/><path d="m205.4 317.8-5.6 7.1 5.6 7.1 5.6-7.1z"/><path d="m243.6 316-5.7-7-5.6 7 5.6 7.1z"/><path d="m245 317.8-5.6 7.1 5.6 7.1 5.6-7.1z"/><path d="m232.3 333.8 5.6 7.1 5.7-7.1-5.7-7.1z"/><path d="m230.8 317.8-5.6 7.1 5.6 7.1 5.7-7.1z"/><path d="m40.2 61.4-5.6-7.1-5.7 7.1 5.7 7.1z"/><path d="m41.6 63.2-5.6 7.1 5.6 7.1 5.7-7.1z"/><path d="m28.9 79.2 5.7 7.1 5.6-7.1-5.6-7.1z"/><path d="m27.5 63.2-5.7 7.1 5.7 7.1 5.6-7.1z"/><path d="m243.6 61.4-5.7-7.1-5.6 7.1 5.6 7.1z"/><path d="m245 63.2-5.6 7.1 5.6 7.1 5.6-7.1z"/><path d="m232.3 79.2 5.6 7.1 5.7-7.1-5.7-7.1z"/><path d="m230.8 63.2-5.6 7.1 5.6 7.1 5.7-7.1z"/><path d="m40.2 93.2-5.6-7-5.7 7 5.7 7.1z"/><path d="m41.6 95-5.6 7.1 5.6 7.1 5.7-7.1z"/><path d="m28.9 111 5.7 7.1 5.6-7.1-5.6-7.1z"/><path d="m27.5 95-5.7 7.1 5.7 7.1 5.6-7.1z"/><path d="m243.6 93.2-5.7-7-5.6 7 5.6 7.1z"/><path d="m245 95-5.6 7.1 5.6 7.1 5.6-7.1z"/><path d="m232.3 111 5.6 7.1 5.7-7.1-5.7-7.1z"/><path d="m230.8 95-5.6 7.1 5.6 7.1 5.7-7.1z"/><path d="m40.2 125-5.6-7-5.7 7 5.7 7.1z"/><path d="m41.6 126.9-5.6 7 5.6 7.1 5.7-7.1z"/><path d="m28.9 142.8 5.7 7.1 5.6-7.1-5.6-7z"/><path d="m27.5 126.9-5.7 7 5.7 7.1 5.6-7.1z"/><path d="m243.6 125-5.7-7-5.6 7 5.6 7.1z"/><path d="m245 126.9-5.6 7 5.6 7.1 5.6-7.1z"/><path d="m232.3 142.8 5.6 7.1 5.7-7.1-5.7-7z"/><path d="m230.8 126.9-5.6 7 5.6 7.1 5.7-7.1z"/><path d="m40.2 156.8-5.6-7-5.7 7 5.7 7.1z"/><path d="m41.6 158.7-5.6 7 5.6 7.1 5.7-7.1z"/><path d="m28.9 174.6 5.7 7.1 5.6-7.1-5.6-7z"/><path d="m27.5 158.7-5.7 7 5.7 7.1 5.6-7.1z"/><path d="m243.6 156.8-5.7-7-5.6 7 5.6 7.1z"/><path d="m245 158.7-5.6 7 5.6 7.1 5.6-7.1z"/><path d="m232.3 174.6 5.6 7.1 5.7-7.1-5.7-7z"/><path d="m230.8 158.7-5.6 7 5.6 7.1 5.7-7.1z"/><path d="m40.2 188.7-5.6-7.1-5.7 7.1 5.7 7z"/><path d="m41.6 190.5-5.6 7.1 5.6 7 5.7-7z"/><path d="m28.9 206.4 5.7 7.1 5.6-7.1-5.6-7z"/><path d="m27.5 190.5-5.7 7.1 5.7 7 5.6-7z"/><path d="m243.6 188.7-5.7-7.1-5.6 7.1 5.6 7z"/><path d="m245 190.5-5.6 7.1 5.6 7 5.6-7z"/><path d="m232.3 206.4 5.6 7.1 5.7-7.1-5.7-7z"/><path d="m230.8 190.5-5.6 7.1 5.6 7 5.7-7z"/><path d="m40.2 220.5-5.6-7.1-5.7 7.1 5.7 7z"/><path d="m41.6 222.3-5.6 7.1 5.6 7 5.7-7z"/><path d="m28.9 238.3 5.7 7 5.6-7-5.6-7.1z"/><path d="m27.5 222.3-5.7 7.1 5.7 7 5.6-7z"/><path d="m243.6 220.5-5.7-7.1-5.6 7.1 5.6 7z"/><path d="m245 222.3-5.6 7.1 5.6 7 5.6-7z"/><path d="m232.3 238.3 5.6 7 5.7-7-5.7-7.1z"/><path d="m230.8 222.3-5.6 7.1 5.6 7 5.7-7z"/><path d="m40.2 252.3-5.6-7.1-5.7 7.1 5.7 7.1z"/><path d="m41.6 254.1-5.6 7.1 5.6 7 5.7-7z"/><path d="m28.9 270.1 5.7 7 5.6-7-5.6-7.1z"/><path d="m27.5 254.1-5.7 7.1 5.7 7 5.6-7z"/><path d="m243.6 252.3-5.7-7.1-5.6 7.1 5.6 7.1z"/><path d="m245 254.1-5.6 7.1 5.6 7 5.6-7z"/><path d="m232.3 270.1 5.6 7 5.7-7-5.7-7.1z"/><path d="m230.8 254.1-5.6 7.1 5.6 7 5.7-7z"/><path d="m40.2 284.1-5.6-7.1-5.7 7.1 5.7 7.1z"/><path d="m41.6 285.9-5.6 7.1 5.6 7.1 5.7-7.1z"/><path d="m28.9 301.9 5.7 7.1 5.6-7.1-5.6-7.1z"/><path d="m27.5 285.9-5.7 7.1 5.7 7.1 5.6-7.1z"/><path d="m243.6 284.1-5.7-7.1-5.6 7.1 5.6 7.1z"/><path d="m245 285.9-5.6 7.1 5.6 7.1 5.6-7.1z"/><path d="m232.3 301.9 5.6 7.1 5.7-7.1-5.7-7.1z"/><path d="m230.8 285.9-5.6 7.1 5.6 7.1 5.7-7.1z"/></g></svg>