<svg viewBox="0 0 272.4 367.2" xmlns="http://www.w3.org/2000/svg"><path d="m23.7 367.2a23.69 23.69 0 0 1 -23.7-23.7v-319.8a23.69 23.69 0 0 1 23.7-23.7h225a23.69 23.69 0 0 1 23.7 23.7v319.8a23.69 23.69 0 0 1 -23.7 23.7z" fill="#fff"/><path d="m248.7 9.7h-225a13.87 13.87 0 0 0 -13.9 13.9v319.9a13.87 13.87 0 0 0 13.9 13.9h225a13.87 13.87 0 0 0 13.9-13.9v-319.8a14 14 0 0 0 -13.9-14z" fill="#252960"/><g fill="#fff"><path d="m234.6 327.9h-196.8v-288.6h196.9v288.6zm-192.8-4h188.9v-280.6h-188.9z"/><path d="m248.7 352.5h-225a8.92 8.92 0 0 1 -8.9-8.9v-319.9a8.92 8.92 0 0 1 8.9-8.9h225a8.92 8.92 0 0 1 8.9 8.9v319.8a9 9 0 0 1 -8.9 9zm-225-333.8a4.91 4.91 0 0 0 -4.9 4.9v319.9a4.91 4.91 0 0 0 4.9 4.9h225a4.91 4.91 0 0 0 4.9-4.9v-319.8a4.91 4.91 0 0 0 -4.9-4.9h-225z"/><path d="m23.7 173.1h8.7v-10.1h-6.6v5.4h1.5v-3.3h3.6v5.9h-5.8v-8.8h7.8v12.3h-3.9-5.3v16.7h10.7v-13.1h-8.8v10.1h6.7v-5.4h-1.5v3.3h-3.7v-5.9h5.8v8.8h-7.8v-12.3h3.9 5.4v-16.7h-10.7z"/><path d="m23.7 140.9h8.7v-10.1h-6.6v5.3h1.5v-3.2h3.6v5.8h-5.8v-8.7h7.8v12.3h-3.9-5.3v16.6h10.7v-13.1h-8.8v10.2h6.7v-5.4h-1.5v3.2h-3.7v-5.8h5.8v8.8h-7.8v-12.3h3.9 5.4v-16.7h-10.7z"/><path d="m23.7 108.7h8.7v-10.2h-6.6v5.4h1.5v-3.2h3.6v5.8h-5.8v-8.8h7.8v12.4h-3.9-5.3v16.6h10.7v-13.1h-8.8v10.2h6.7v-5.4h-1.5v3.2h-3.7v-5.8h5.8v8.8h-7.8v-12.4h3.9 5.4v-16.6h-10.7z"/><path d="m23.7 76.4h8.7v-10.1h-6.6v5.4h1.5v-3.2h3.6v5.8h-5.8v-8.8h7.8v12.3h-3.9-5.3v16.7h10.7v-13.1h-8.8v10.1h6.7v-5.3h-1.5v3.2h-3.7v-5.9h5.8v8.8h-7.8v-12.3h3.9 5.4v-16.7h-10.7z"/><path d="m23.7 44.2h8.7v-9l-6.6-2.2v6.4h1.5v-3.2h3.6v5.9h-5.8v-10.7l7.8 3.7v10.5h-3.9-5.3v16.7h10.7v-13.1h-8.8v10.1h6.7v-5.4h-1.5v3.2h-3.7v-5.8h5.8v8.8h-7.8v-12.3h3.9 5.4v-12l-10.7-9.4z"/><path d="m48 25.3v8.6h10.4v-6.5h-5.5v1.5h3.3v3.5h-5.9v-5.6h8.9v7.6h-12.6v-3.8-5.3h-21.8l9.6 10.5h8.6v-8.5h-11.5l2.2 6.4h4.4v-1.4h-3.3v-3.6h6v5.7h-7.1l-3.8-7.6h14.5v3.8 5.2h17.1v-10.5z"/><path d="m81 25.3v8.6h10.4v-6.5h-5.5v1.5h3.3v3.5h-6v-5.6h9v7.6h-12.6v-3.8-5.3h-17v10.5h13.4v-8.5h-10.4v6.4h5.5v-1.4h-3.3v-3.6h6v5.7h-9v-7.6h12.6v3.8 5.2h17v-10.5z"/><path d="m114 25.3v8.6h10.4v-6.5h-5.5v1.5h3.3v3.5h-6v-5.6h9v7.6h-12.6v-3.8-5.3h-17.1v10.5h13.4v-8.5h-10.3v6.4h5.5v-1.4h-3.3v-3.6h5.9v5.7h-9v-7.6h12.7v3.8 5.2h17v-10.5z"/><path d="m147 25.3v8.6h10.3v-6.5h-5.5v1.5h3.3v3.5h-5.9v-5.6h9v7.6h-12.7v-3.8-5.3h-17v10.5h13.4v-8.5h-10.4v6.4h5.5v-1.4h-3.3v-3.6h6v5.7h-9v-7.6h12.6v3.8 5.2h17.1v-10.5z"/><path d="m179.9 25.3v8.6h10.4v-6.5h-5.5v1.5h3.3v3.5h-6v-5.6h9v7.6h-12.6v-3.8-5.3h-17v10.5h13.4v-8.5h-10.4v6.4h5.5v-1.4h-3.3v-3.6h6v5.7h-9v-7.6h12.6v3.8 5.2h17v-10.5z"/><path d="m212.9 25.3v8.6h10.4v-6.5h-5.5v1.5h3.3v3.5h-6v-5.6h9v7.6h-12.6v-3.8-5.3h-17.1v10.5h13.5v-8.5h-10.4v6.4h5.5v-1.4h-3.3v-3.6h5.9v5.7h-8.9v-7.6h12.6v3.8 5.2h17v-10.5z"/><path d="m248.7 30.2-8.7 4.6v8.4h6.6v-5.4h-1.5v3.2h-3.7v-5.6l5.9-.7v9.3h-7.8v-9.3l3.9-3.1 5.3-4.1v-2.2h-21.3v10.5h10.6l4.6-8.5h-12.2v6.4h5.5v-1.4h-3.2v-3.6h6.1l-.7 5.7h-8.5v-7.6h15.7l-3.1 3.8-4.2 5.2v10.3h10.7z"/><path d="m248.7 65.3h-8.7v10.1h6.6v-5.4h-1.5v3.2h-3.7v-5.8h5.9v8.8h-7.8v-12.3h3.9 5.3v-16.7h-10.7v13.1h8.8v-10.1h-6.7v5.3h1.5v-3.2h3.7v5.9h-5.8v-8.8h7.8v12.3h-3.9-5.4v16.7h10.7z"/><path d="m248.7 97.5h-8.7v10.1h6.6v-5.3h-1.5v3.2h-3.7v-5.8h5.9v8.7h-7.8v-12.3h3.9 5.3v-16.6h-10.7v13.1h8.8v-10.2h-6.7v5.4h1.5v-3.2h3.7v5.8h-5.8v-8.8h7.8v12.3h-3.9-5.4v16.7h10.7z"/><path d="m248.7 129.7h-8.7v10.2h6.6v-5.4h-1.5v3.2h-3.7v-5.8h5.9v8.8h-7.8v-12.4h3.9 5.3v-16.6h-10.7v13.1h8.8v-10.2h-6.7v5.4h1.5v-3.2h3.7v5.8h-5.8v-8.8h7.8v12.4h-3.9-5.4v16.6h10.7z"/><path d="m248.7 161.9h-8.7v10.2h6.6v-5.4h-1.5v3.2h-3.7v-5.8h5.9v8.8h-7.8v-12.3h3.9 5.3v-16.7h-10.7v13.1h8.8v-10.1h-6.7v5.3h1.5v-3.2h3.7v5.9h-5.8v-8.8h7.8v12.3h-3.9-5.4v16.6h10.7z"/><path d="m248.7 194.1h-8.7v10.1h6.6v-5.4h-1.5v3.3h-3.7v-5.9h5.9v8.8h-7.8v-12.3h3.9 5.3v-16.7h-10.7v13.1h8.8v-10.1h-6.7v5.4h1.5v-3.3h3.7v5.9h-5.8v-8.8h7.8v12.3h-3.9-5.4v16.7h10.7z"/><path d="m248.7 226.3h-8.7v10.1h6.6v-5.3h-1.5v3.2h-3.7v-5.8h5.9v8.7h-7.8v-12.3h3.9 5.3v-16.6h-10.7v13.1h8.8v-10.2h-6.7v5.4h1.5v-3.2h3.7v5.8h-5.8v-8.8h7.8v12.3h-3.9-5.4v16.7h10.7z"/><path d="m248.7 258.5h-8.7v10.2h6.6v-5.4h-1.5v3.2h-3.7v-5.8h5.9v8.8h-7.8v-12.4h3.9 5.3v-16.6h-10.7v13.1h8.8v-10.2h-6.7v5.4h1.5v-3.2h3.7v5.8h-5.8v-8.8h7.8v12.4h-3.9-5.4v16.6h10.7z"/><path d="m248.7 290.8h-8.7v10.1h6.6v-5.4h-1.5v3.2h-3.7v-5.8h5.9v8.8h-7.8v-12.3h3.9 5.3v-16.7h-10.7v13.1h8.8v-10.1h-6.7v5.3h1.5v-3.2h3.7v5.9h-5.8v-8.8h7.8v12.3h-3.9-5.4v16.7h10.7z"/><path d="m248.7 323h-8.7v9l6.6 2.2v-6.4h-1.5v3.2h-3.7v-5.9h5.9v10.7l-7.8-3.7v-10.5h3.9 5.3v-16.7h-10.7v13.1h8.8v-10.1h-6.7v5.4h1.5v-3.2h3.7v5.8h-5.8v-8.8h7.8v12.3h-3.9-5.4v12l10.7 9.4z"/><path d="m224.3 341.9v-8.6h-10.3v6.5h5.5v-1.5h-3.3v-3.5h5.9v5.6h-8.9v-7.6h12.6v3.8 5.3h21.8l-9.6-10.5h-8.6v8.5h11.5l-2.2-6.4h-4.4v1.4h3.3v3.6h-6v-5.7h7.1l3.8 7.6h-14.5v-3.8-5.2h-17.1v10.5z"/><path d="m191.4 341.9v-8.6h-10.4v6.5h5.5v-1.5h-3.3v-3.5h6v5.6h-9v-7.6h12.6v3.8 5.3h17v-10.5h-13.4v8.5h10.4v-6.4h-5.5v1.4h3.3v3.6h-6v-5.7h9v7.6h-12.6v-3.8-5.2h-17v10.5z"/><path d="m158.4 341.9v-8.6h-10.4v6.5h5.5v-1.5h-3.3v-3.5h6v5.6h-9v-7.6h12.6v3.8 5.3h17.1v-10.5h-13.4v8.5h10.3v-6.4h-5.5v1.4h3.3v3.6h-5.9v-5.7h9v7.6h-12.7v-3.8-5.2h-17v10.5z"/><path d="m125.4 341.9v-8.6h-10.3v6.5h5.4v-1.5h-3.2v-3.5h5.9v5.6h-9v-7.6h12.7v3.8 5.3h17v-10.5h-13.4v8.5h10.4v-6.4h-5.5v1.4h3.3v3.6h-6v-5.7h9v7.6h-12.6v-3.8-5.2h-17.1v10.5z"/><path d="m92.5 341.9v-8.6h-10.4v6.5h5.5v-1.5h-3.3v-3.5h6v5.6h-9v-7.6h12.6v3.8 5.3h17v-10.5h-13.4v8.5h10.4v-6.4h-5.5v1.4h3.3v3.6h-6v-5.7h9v7.6h-12.6v-3.8-5.2h-17v10.5z"/><path d="m59.5 341.9v-8.6h-10.4v6.5h5.5v-1.5h-3.3v-3.5h6v5.6h-9v-7.6h12.6v3.8 5.3h17v-10.5h-13.4v8.5h10.4v-6.4h-5.5v1.4h3.3v3.6h-5.9v-5.7h8.9v7.6h-12.6v-3.8-5.2h-17v10.5z"/><path d="m23.7 337 8.7-4.6v-8.4h-6.6v5.4h1.5v-3.2h3.6v5.6l-5.8.7v-9.3h7.8v9.3l-3.9 3.1-5.3 4.1v2.2h21.3v-10.5h-10.6l-4.6 8.5h12.2v-6.4h-5.5v1.4h3.2v3.6h-6.1l.6-5.7h8.6v7.6h-15.7l3.1-3.8 4.2-5.2v-10.3h-10.7z"/><path d="m23.7 301.9h8.7v-10.1h-6.6v5.4h1.5v-3.2h3.6v5.8h-5.8v-8.8h7.8v12.3h-3.9-5.3v16.7h10.7v-13.1h-8.8v10.1h6.7v-5.3h-1.5v3.2h-3.7v-5.9h5.8v8.8h-7.8v-12.3h3.9 5.4v-16.7h-10.7z"/><path d="m23.7 269.7h8.7v-10.1h-6.6v5.3h1.5v-3.2h3.6v5.8h-5.8v-8.7h7.8v12.3h-3.9-5.3v16.6h10.7v-13.1h-8.8v10.2h6.7v-5.4h-1.5v3.2h-3.7v-5.8h5.8v8.8h-7.8v-12.3h3.9 5.4v-16.7h-10.7z"/><path d="m23.7 237.5h8.7v-10.2h-6.6v5.4h1.5v-3.2h3.6v5.8h-5.8v-8.8h7.8v12.4h-3.9-5.3v16.6h10.7v-13.1h-8.8v10.2h6.7v-5.4h-1.5v3.2h-3.7v-5.8h5.8v8.8h-7.8v-12.4h3.9 5.4v-16.6h-10.7z"/><path d="m23.7 205.3h8.7v-10.2h-6.6v5.4h1.5v-3.2h3.6v5.8h-5.8v-8.8h7.8v12.3h-3.9-5.3v16.7h10.7v-13.1h-8.8v10.1h6.7v-5.3h-1.5v3.2h-3.7v-5.9h5.8v8.8h-7.8v-12.3h3.9 5.4v-16.6h-10.7z"/><path d="m136.2 162.2a23.9 23.9 0 1 1 23.9-23.9 23.9 23.9 0 0 1 -23.9 23.9zm0-44.7a20.9 20.9 0 1 0 20.9 20.9 21 21 0 0 0 -20.9-20.9z"/><path d="m136.2 154.7a16.4 16.4 0 1 1 16.4-16.4 16.41 16.41 0 0 1 -16.4 16.4zm0-29.7a13.4 13.4 0 1 0 13.4 13.4 13.4 13.4 0 0 0 -13.4-13.4z"/><path d="m136.2 162.2a1.5 1.5 0 0 1 -1.1-.4l-22.4-22.4a1.45 1.45 0 0 1 0-2.1l22.4-22.4a1.45 1.45 0 0 1 2.1 0l22.4 22.4a1.45 1.45 0 0 1 0 2.1l-22.3 22.4a1.5 1.5 0 0 1 -1.1.4zm-20.3-23.9 20.3 20.3 20.3-20.3-20.3-20.3z"/><path d="m136.2 207.5a23.9 23.9 0 1 1 23.9-23.9 23.9 23.9 0 0 1 -23.9 23.9zm0-44.8a20.9 20.9 0 1 0 20.9 20.9 21 21 0 0 0 -20.9-20.9z"/><path d="m136.2 200a16.4 16.4 0 1 1 16.4-16.4 16.41 16.41 0 0 1 -16.4 16.4zm0-29.8a13.4 13.4 0 1 0 13.4 13.4 13.4 13.4 0 0 0 -13.4-13.4z"/><path d="m136.2 207.5a1.5 1.5 0 0 1 -1.1-.4l-22.4-22.4a1.5 1.5 0 0 1 -.4-1.1 2.1 2.1 0 0 1 .4-1.1l22.4-22.4a1.45 1.45 0 0 1 2.1 0l22.4 22.4a1.5 1.5 0 0 1 .4 1.1 2.1 2.1 0 0 1 -.4 1.1l-22.3 22.3a1.61 1.61 0 0 1 -1.1.5zm-20.3-23.9 20.3 20.3 20.3-20.3-20.3-20.3z"/><path d="m136.2 252.7a23.9 23.9 0 1 1 23.9-23.9 23.9 23.9 0 0 1 -23.9 23.9zm0-44.7a20.9 20.9 0 1 0 20.9 20.9 21 21 0 0 0 -20.9-20.9z"/><path d="m136.2 245.2a16.4 16.4 0 1 1 16.4-16.4 16.41 16.41 0 0 1 -16.4 16.4zm0-29.7a13.4 13.4 0 1 0 13.4 13.4 13.4 13.4 0 0 0 -13.4-13.4z"/><path d="m136.2 252.7a1.5 1.5 0 0 1 -1.1-.4l-22.4-22.4a1.5 1.5 0 0 1 -.4-1.1 2.1 2.1 0 0 1 .4-1.1l22.4-22.4a1.45 1.45 0 0 1 2.1 0l22.4 22.4a1.5 1.5 0 0 1 .4 1.1 2.1 2.1 0 0 1 -.4 1.1l-22.3 22.4a1.5 1.5 0 0 1 -1.1.4zm-20.3-23.8 20.3 20.3 20.3-20.3-20.3-20.3z"/><path d="m181.5 207.5a23.9 23.9 0 1 1 23.9-23.9 23.9 23.9 0 0 1 -23.9 23.9zm0-44.8a20.9 20.9 0 1 0 20.9 20.9 21 21 0 0 0 -20.9-20.9z"/><path d="m181.5 200a16.4 16.4 0 1 1 16.4-16.4 16.41 16.41 0 0 1 -16.4 16.4zm0-29.8a13.4 13.4 0 1 0 13.4 13.4 13.4 13.4 0 0 0 -13.4-13.4z"/><path d="m181.5 207.5a1.5 1.5 0 0 1 -1.1-.4l-22.4-22.4a1.5 1.5 0 0 1 -.4-1.1 2.1 2.1 0 0 1 .4-1.1l22.4-22.4a1.45 1.45 0 0 1 2.1 0l22.4 22.4a1.45 1.45 0 0 1 0 2.1l-22.4 22.4a1.59 1.59 0 0 1 -1 .5zm-20.3-23.9 20.3 20.3 20.3-20.3-20.3-20.3z"/><path d="m90.9 207.5a23.9 23.9 0 1 1 23.9-23.9 23.9 23.9 0 0 1 -23.9 23.9zm0-44.8a20.9 20.9 0 1 0 20.9 20.9 21 21 0 0 0 -20.9-20.9z"/><path d="m90.9 200a16.4 16.4 0 1 1 16.4-16.4 16.41 16.41 0 0 1 -16.4 16.4zm0-29.8a13.4 13.4 0 1 0 13.4 13.4 13.4 13.4 0 0 0 -13.4-13.4z"/><path d="m90.9 207.5a1.5 1.5 0 0 1 -1.1-.4l-22.4-22.4a1.45 1.45 0 0 1 0-2.1l22.4-22.4a1.45 1.45 0 0 1 2.1 0l22.4 22.4a1.5 1.5 0 0 1 .4 1.1 2.1 2.1 0 0 1 -.4 1.1l-22.4 22.4a2.37 2.37 0 0 1 -1 .3zm-20.2-23.9 20.3 20.3 20.3-20.3-20.3-20.3z"/><path d="m219.4 191-4.2 4-7.7 7.4-4.2 4-7.7 7.4-4.2 4-7.7 7.4-4.2 4-7.7 7.4-4.2 4-7.7 7.4-4.2 4-7.7 7.4-4.2 4-7.7 7.4-23.8-22.8-7.7-7.4-9.3-8.9-2.6-2.5-16.1-15.4-7.7-7.4-4.2-4-7.7-7.4-7.2-6.9v13.7l3-2.9 7.7 7.4-7.7 7.4-3-2.9v13.7l3-2.9 7.7 7.4-7.7 7.4-3-2.9v13.7l3-2.9 7.7 7.4-7.7 7.4-3-2.9v13.7l3-2.9 7.7 7.4-7.7 7.4-3-2.9v13.7l3-2.9 7.7 7.4-7.7 7.4-3-2.9v13.7l3-2.9 3 2.9h8.4l-7.2-6.9 7.7-7.4 7.7 7.4-7.2 6.9h8.4l3-2.9 3 2.9h8.4l-7.2-6.9 7.7-7.4 7.7 7.4-7.2 6.9h8.4l3-2.9 3 2.9h8.4l-7.2-6.9 7.7-7.4 7.7 7.4-7.2 6.9h8.4l3-2.9 3 2.9h8.4l-7.2-6.9 7.7-7.4 7.7 7.4-7.2 6.9h8.4l3-2.9 3 2.9h8.4l-7.2-6.9 7.7-7.4 7.7 7.4-7.2 6.9h8.4l3-2.9 3 2.9h8.4l-7.2-6.9 7.7-7.4 7.7 7.4-7.2 6.9h8.4l3-2.9 3 2.9h8.4l-7.2-6.9 7.7-7.4 7.7 7.4-7.2 6.9h8.4l3-2.9 3 2.9v-13.7l-3 2.9-7.7-7.4 7.7-7.4 3 2.9v-13.7l-3 2.9-7.7-7.4 7.7-7.4 3 2.9v-13.7l-3 2.9-7.7-7.4 7.7-7.4 3 2.9v-13.7l-3 2.9-7.7-7.4 7.7-7.4 3 2.9v-13.7l-3 2.9-7.7-7.4 7.7-7.4 3 2.9v-13.7zm-23.8 30.8 7.7 7.4-7.7 7.4-7.7-7.4zm-19.6 41.5 7.7-7.4 7.7 7.4-7.7 7.4zm3.6 11.4-7.7 7.4-7.7-7.4 7.7-7.4zm16-7.4 7.7 7.4-7.7 7.4-7.7-7.4zm-7.7-15.4 7.7-7.4 7.7 7.4-7.7 7.4zm-4.2-18.8 7.7 7.4-7.7 7.4-7.7-7.4zm-11.8 11.4 7.7 7.4-7.7 7.4-7.7-7.4zm-11.9 11.4 7.7 7.4-7.7 7.4-7.7-7.4zm-11.9 11.4 7.7 7.4-7.7 7.4-7.7-7.4zm-16.1 7.4-7.7 7.4-7.7-7.4 7.7-7.4zm-11.9-11.4-7.7 7.4-7.7-7.4 7.7-7.4zm-35.6 11.4-7.7 7.4-7.7-7.4 7.7-7.4zm-15.4-22.8 7.7-7.4 7.7 7.4-7.7 7.4zm11.8 11.4 7.7-7.4 7.7 7.4-7.7 7.4zm19.6 4 7.7 7.4-7.7 7.4-7.7-7.4zm7.7-15.4-7.7 7.4-7.7-7.4 7.7-7.4zm-11.8-11.4-7.7 7.4-7.7-7.4 7.7-7.4zm-11.9-11.4-7.7 7.4-7.7-7.4 7.7-7.4zm-27.3-11.3 7.7-7.4 7.7 7.4-7.7 7.4zm0 22.7 7.7-7.4 7.7 7.4-7.7 7.4zm0 22.8 7.7-7.4 7.7 7.4-7.7 7.4zm0 22.8 7.7-7.4 7.7 7.4-7.7 7.4zm19.6 18.7-7.7-7.4 7.7-7.4 7.7 7.4zm4.1-18.7 7.7-7.4 7.7 7.4-7.7 7.4zm19.6 18.7-7.7-7.4 7.7-7.4 7.7 7.4zm4.2-18.7 7.7-7.4 7.7 7.4-7.7 7.4zm19.6 18.7-7.7-7.4 7.7-7.4 7.7 7.4zm4.2-18.7 7.7-7.4 7.7 7.4-7.7 7.4zm19.6 18.7-7.7-7.4 7.7-7.4 7.7 7.4zm4.2-18.7 7.7-7.4 7.7 7.4-7.7 7.4zm19.6 18.7-7.7-7.4 7.7-7.4 7.7 7.4zm4.1-18.7 7.7-7.4 7.7 7.4-7.7 7.4zm19.6 18.7-7.7-7.4 7.7-7.4 7.7 7.4zm19.6-18.7-7.7 7.4-7.7-7.4 7.7-7.4zm0-22.8-7.7 7.4-7.7-7.4 7.7-7.4zm0-22.8-7.7 7.4-7.7-7.4 7.7-7.4zm0-22.7-7.7 7.4-7.7-7.4 7.7-7.4z"/><path d="m219.4 54.4-3-2.9h-8.4l7.2 6.9-7.7 7.4-7.7-7.4 7.2-6.9h-8.4l-3 2.9-3-2.9h-8.3l7.2 6.9-7.7 7.4-7.7-7.4 7.2-6.9h-8.4l-3 2.9-3-2.9h-8.4l7.2 6.9-7.7 7.4-7.7-7.4 7.2-6.9h-8.4l-3 2.9-3-2.9h-8.4l7.2 6.9-7.7 7.4-7.7-7.4 7.2-6.9h-8.4l-3 2.9-3-2.9h-8.4l7.2 6.9-7.7 7.4-7.7-7.4 7.2-6.9h-8.4l-3 2.9-3-2.9h-8.4l7.2 6.9-7.7 7.4-7.7-7.4 7.2-6.9h-8.4l-3 2.9-3-2.9h-8.4l7.2 6.9-7.7 7.4-7.7-7.4 7.2-6.9h-8.4l-3 2.9-3-2.9v13.7l3-2.9 7.7 7.4-7.7 7.4-3-2.9v13.7l3-2.9 7.7 7.4-7.7 7.4-3-2.9v13.7l3-2.9 7.7 7.4-7.7 7.4-3-2.9v13.7l3-2.9 7.7 7.4-7.7 7.4-3-2.9v13.7l3-2.9 7.7 7.4-7.7 7.4-3-2.9v13.7l7.2-6.9 5-4.8 11.5-11 3-2.9 16.1-15.4 7.7-7.4 35.7-34.2 7.7 7.4 4.2 4 7.7 7.4 4.2 4 7.7 7.4 4.2 4 7.7 7.4 16.1 15.4 7.4 7.1 4.5 4.3 7.7 7.4 4.2 4 3 2.9v-13.7l-3 2.9-7.7-7.4 7.7-7.4 3 2.9v-13.7l-3 2.9-7.7-7.4 7.7-7.4 3 2.9v-13.7l-3 2.9-7.7-7.4 7.7-7.4 3 2.9v-13.7l-3 2.9-7.7-7.4 7.7-7.4 3 2.9v-13.7l-3 2.9-7.7-7.4 7.7-7.4 3 2.9v-13.8zm-23.8 8 7.7 7.4-7.7 7.4-7.7-7.4zm-11.9 34.1 7.7 7.4-7.7 7.4-7.7-7.4zm-11.8 3.4-7.7-7.4 7.7-7.4 7.7 7.4zm23.7 8 7.7 7.4-7.7 7.4-7.7-7.4zm-7.7-15.4 7.7-7.4 7.7 7.4-7.7 7.4zm3.6-11.4-7.7 7.4-7.7-7.4 7.7-7.4zm-19.6-18.7 7.7 7.4-7.7 7.4-7.7-7.4zm-4.2 18.7-7.7 7.4-7.7-7.4 7.7-7.4zm-19.6-18.7 7.7 7.4-7.7 7.4-7.7-7.4zm-23.8 0 7.7 7.4-7.7 7.4-7.7-7.4zm-4.2 18.7-7.7 7.4-7.7-7.4 7.7-7.4zm-35.6 34.2-7.7 7.4-7.7-7.4 7.7-7.4zm-15.4-22.8 7.7-7.4 7.7 7.4-7.7 7.4zm11.8 11.4 7.7-7.4 7.7 7.4-7.7 7.4zm11.9-11.4 7.7-7.4 7.7 7.4-7.7 7.4zm7.7-30.1 7.7 7.4-7.7 7.4-7.7-7.4zm-4.1 18.7-7.7 7.4-7.7-7.4 7.7-7.4zm-19.6-18.7 7.7 7.4-7.7 7.4-7.7-7.4zm-19.6 18.7 7.7-7.4 7.7 7.4-7.7 7.4zm0 22.8 7.7-7.4 7.7 7.4-7.7 7.4zm0 22.8 7.7-7.4 7.7 7.4-7.7 7.4zm7.7 30.1-7.7-7.4 7.7-7.4 7.7 7.4zm11.9-11.4-7.7-7.4 7.7-7.4 7.7 7.4zm11.8-11.3-7.7-7.4 7.7-7.4 7.7 7.4zm11.9-11.4-7.7-7.4 7.7-7.4 7.7 7.4zm11.9-11.4-7.7-7.4 7.7-7.4 7.7 7.4zm11.9-11.4-7.7-7.4 7.7-7.4 7.7 7.4zm4.2-18.8 7.7-7.4 7.7 7.4-7.7 7.4zm11.9 11.4 7.7-7.4 7.7 7.4-7.7 7.4zm11.9 11.4 7.7-7.4 7.7 7.4-7.7 7.4zm11.9 11.4 7.7-7.4 7.7 7.4-7.7 7.4zm11.8 11.4 7.7-7.4 7.7 7.4-7.7 7.4zm11.9 11.4 7.7-7.4 7.7 7.4-7.7 7.4zm27.3 11.3-7.7 7.4-7.7-7.4 7.7-7.4zm0-22.7-7.7 7.4-7.7-7.4 7.7-7.4zm0-22.8-7.7 7.4-7.7-7.4 7.7-7.4zm0-22.8-7.7 7.4-7.7-7.4 7.7-7.4z"/></g></svg>