<svg viewBox="0 0 272.4 367.2" xmlns="http://www.w3.org/2000/svg"><path d="m23.7 367.2a23.69 23.69 0 0 1 -23.7-23.7v-319.8a23.69 23.69 0 0 1 23.7-23.7h225a23.69 23.69 0 0 1 23.7 23.7v319.8a23.69 23.69 0 0 1 -23.7 23.7z" fill="#fff"/><path d="m248.7 9.7h-225a13.87 13.87 0 0 0 -13.9 13.9v319.8a13.87 13.87 0 0 0 13.9 13.9h225a13.87 13.87 0 0 0 13.9-13.9v-319.7a14 14 0 0 0 -13.9-14z" fill="#00a651"/><g fill="#fff"><path d="m248.7 352.5h-225a8.92 8.92 0 0 1 -8.9-8.9v-319.9a8.92 8.92 0 0 1 8.9-8.9h225a8.92 8.92 0 0 1 8.9 8.9v319.8a9 9 0 0 1 -8.9 9zm-225-333.8a4.91 4.91 0 0 0 -4.9 4.9v319.8a4.91 4.91 0 0 0 4.9 4.9h225a4.91 4.91 0 0 0 4.9-4.9v-319.7a4.91 4.91 0 0 0 -4.9-4.9h-225z"/><path d="m23.6 173.1h8.8v-10.1h-6.6v5.4h1.5v-3.3h3.6v5.9h-5.8v-8.8h7.8v12.3h-3.9-5.4v16.7h10.8v-13.1h-8.8v10.1h6.6v-5.4h-1.5v3.3h-3.6v-5.9h5.8v8.8h-7.8v-12.3h3.9 5.4v-16.7h-10.8z"/><path d="m23.6 140.9h8.8v-10.1h-6.6v5.3h1.5v-3.2h3.6v5.8h-5.8v-8.7h7.8v12.3h-3.9-5.4v16.6h10.8v-13.1h-8.8v10.2h6.6v-5.4h-1.5v3.2h-3.6v-5.8h5.8v8.8h-7.8v-12.3h3.9 5.4v-16.7h-10.8z"/><path d="m23.6 108.7h8.8v-10.2h-6.6v5.4h1.5v-3.2h3.6v5.8h-5.8v-8.8h7.8v12.4h-3.9-5.4v16.6h10.8v-13.1h-8.8v10.2h6.6v-5.4h-1.5v3.2h-3.6v-5.8h5.8v8.8h-7.8v-12.4h3.9 5.4v-16.6h-10.8z"/><path d="m23.6 76.4h8.8v-10.1h-6.6v5.4h1.5v-3.2h3.6v5.8h-5.8v-8.8h7.8v12.3h-3.9-5.4v16.7h10.8v-13.1h-8.8v10.1h6.6v-5.3h-1.5v3.2h-3.6v-5.9h5.8v8.8h-7.8v-12.3h3.9 5.4v-16.7h-10.8z"/><path d="m23.6 44.2h8.8v-9l-6.6-2.2v6.4h1.5v-3.2h3.6v5.9h-5.8v-10.7l7.8 3.7v10.5h-3.9-5.4v16.7h10.8v-13.1h-8.8v10.1h6.6v-5.4h-1.5v3.2h-3.6v-5.8h5.8v8.8h-7.8v-12.3h3.9 5.4v-12l-10.8-9.4z"/><path d="m48 25.3v8.6h10.4v-6.5h-5.5v1.5h3.3v3.5h-6v-5.6h9v7.6h-12.6v-3.8-5.3h-21.9l9.7 10.5h8.6v-8.5h-11.6l2.3 6.4h4.4v-1.4h-3.3v-3.6h6v5.7h-7.1l-3.8-7.6h14.5v3.8 5.2h17v-10.5z"/><path d="m81 25.3v8.6h10.4v-6.5h-5.5v1.5h3.3v3.5h-6v-5.6h9v7.6h-12.6v-3.8-5.3h-17.1v10.5h13.4v-8.5h-10.3v6.4h5.4v-1.4h-3.2v-3.6h5.9v5.7h-9v-7.6h12.7v3.8 5.2h17v-10.5z"/><path d="m114 25.3v8.6h10.3v-6.5h-5.5v1.5h3.3v3.5h-5.9v-5.6h8.9v7.6h-12.6v-3.8-5.3h-17v10.5h13.4v-8.5h-10.4v6.4h5.5v-1.4h-3.3v-3.6h6v5.7h-9v-7.6h12.6v3.8 5.2h17.1v-10.5z"/><path d="m146.9 25.3v8.6h10.4v-6.5h-5.5v1.5h3.3v3.5h-6v-5.6h9v7.6h-12.6v-3.8-5.3h-17v10.5h13.4v-8.5h-10.4v6.4h5.5v-1.4h-3.3v-3.6h6v5.7h-9v-7.6h12.6v3.8 5.2h17v-10.5z"/><path d="m179.9 25.3v8.6h10.4v-6.5h-5.5v1.5h3.3v3.5h-6v-5.6h9v7.6h-12.6v-3.8-5.3h-17.1v10.5h13.4v-8.5h-10.3v6.4h5.5v-1.4h-3.3v-3.6h5.9v5.7h-9v-7.6h12.7v3.8 5.2h17v-10.5z"/><path d="m212.9 25.3v8.6h10.3v-6.5h-5.4v1.5h3.2v3.5h-5.9v-5.6h9v7.6h-12.7v-3.8-5.3h-17v10.5h13.4v-8.5h-10.4v6.4h5.5v-1.4h-3.3v-3.6h6v5.7h-9v-7.6h12.6v3.8 5.2h17.1v-10.5z"/><path d="m248.7 30.2-8.8 4.6v8.4h6.7v-5.4h-1.5v3.2h-3.7v-5.6l5.8-.7v9.3h-7.8v-9.3l3.9-3.1 5.4-4.1v-2.2h-21.3v10.5h10.5l4.7-8.5h-12.2v6.4h5.5v-1.4h-3.3v-3.6h6.2l-.7 5.7h-8.5v-7.6h15.7l-3.1 3.8-4.3 5.2v10.3h10.8z"/><path d="m248.7 65.3h-8.8v10.1h6.7v-5.4h-1.5v3.2h-3.7v-5.8h5.8v8.8h-7.8v-12.3h3.9 5.4v-16.7h-10.8v13.1h8.8v-10.1h-6.6v5.3h1.5v-3.2h3.6v5.9h-5.8v-8.8h7.8v12.3h-3.9-5.4v16.7h10.8z"/><path d="m248.7 97.5h-8.8v10.1h6.7v-5.3h-1.5v3.2h-3.7v-5.8h5.8v8.7h-7.8v-12.3h3.9 5.4v-16.6h-10.8v13.1h8.8v-10.2h-6.6v5.4h1.5v-3.2h3.6v5.8h-5.8v-8.8h7.8v12.3h-3.9-5.4v16.7h10.8z"/><path d="m248.7 129.7h-8.8v10.2h6.7v-5.4h-1.5v3.2h-3.7v-5.8h5.8v8.8h-7.8v-12.4h3.9 5.4v-16.6h-10.8v13.1h8.8v-10.2h-6.6v5.4h1.5v-3.2h3.6v5.8h-5.8v-8.8h7.8v12.4h-3.9-5.4v16.6h10.8z"/><path d="m248.7 161.9h-8.8v10.2h6.7v-5.4h-1.5v3.2h-3.7v-5.8h5.8v8.8h-7.8v-12.3h3.9 5.4v-16.7h-10.8v13.1h8.8v-10.1h-6.6v5.3h1.5v-3.2h3.6v5.9h-5.8v-8.8h7.8v12.3h-3.9-5.4v16.6h10.8z"/><path d="m248.7 194.1h-8.8v10.1h6.7v-5.4h-1.5v3.3h-3.7v-5.9h5.8v8.8h-7.8v-12.3h3.9 5.4v-16.7h-10.8v13.1h8.8v-10.1h-6.6v5.4h1.5v-3.3h3.6v5.9h-5.8v-8.8h7.8v12.3h-3.9-5.4v16.7h10.8z"/><path d="m248.7 226.3h-8.8v10.1h6.7v-5.3h-1.5v3.2h-3.7v-5.8h5.8v8.7h-7.8v-12.3h3.9 5.4v-16.6h-10.8v13.1h8.8v-10.2h-6.6v5.4h1.5v-3.2h3.6v5.8h-5.8v-8.8h7.8v12.3h-3.9-5.4v16.7h10.8z"/><path d="m248.7 258.5h-8.8v10.2h6.7v-5.4h-1.5v3.2h-3.7v-5.8h5.8v8.8h-7.8v-12.4h3.9 5.4v-16.6h-10.8v13.1h8.8v-10.2h-6.6v5.4h1.5v-3.2h3.6v5.8h-5.8v-8.8h7.8v12.4h-3.9-5.4v16.6h10.8z"/><path d="m248.7 290.8h-8.8v10.1h6.7v-5.4h-1.5v3.2h-3.7v-5.8h5.8v8.8h-7.8v-12.3h3.9 5.4v-16.7h-10.8v13.1h8.8v-10.1h-6.6v5.3h1.5v-3.2h3.6v5.9h-5.8v-8.8h7.8v12.3h-3.9-5.4v16.7h10.8z"/><path d="m248.7 323h-8.8v9l6.7 2.2v-6.4h-1.5v3.2h-3.7v-5.9h5.8v10.7l-7.8-3.7v-10.5h3.9 5.4v-16.7h-10.8v13.1h8.8v-10.1h-6.6v5.4h1.5v-3.2h3.6v5.8h-5.8v-8.8h7.8v12.3h-3.9-5.4v12l10.8 9.4z"/><path d="m224.3 341.9v-8.6h-10.4v6.5h5.5v-1.5h-3.3v-3.5h6v5.6h-9v-7.6h12.6v3.8 5.3h21.9l-9.7-10.5h-8.5v8.5h11.5l-2.2-6.4h-4.5v1.4h3.3v3.6h-5.9v-5.7h7.1l3.8 7.6h-14.6v-3.8-5.2h-17v10.5z"/><path d="m191.3 341.9v-8.6h-10.3v6.5h5.5v-1.5h-3.3v-3.5h5.9v5.6h-9v-7.6h12.7v3.8 5.3h17v-10.5h-13.4v8.5h10.4v-6.4h-5.5v1.4h3.3v3.6h-6v-5.7h9v7.6h-12.6v-3.8-5.2h-17.1v10.5z"/><path d="m158.4 341.9v-8.6h-10.4v6.5h5.5v-1.5h-3.3v-3.5h6v5.6h-9v-7.6h12.6v3.8 5.3h17v-10.5h-13.4v8.5h10.4v-6.4h-5.5v1.4h3.3v3.6h-6v-5.7h9v7.6h-12.6v-3.8-5.2h-17v10.5z"/><path d="m125.4 341.9v-8.6h-10.4v6.5h5.5v-1.5h-3.3v-3.5h6v5.6h-9v-7.6h12.6v3.8 5.3h17.1v-10.5h-13.4v8.5h10.3v-6.4h-5.5v1.4h3.3v3.6h-5.9v-5.7h8.9v7.6h-12.6v-3.8-5.2h-17v10.5z"/><path d="m92.4 341.9v-8.6h-10.3v6.5h5.4v-1.5h-3.2v-3.5h5.9v5.6h-9v-7.6h12.6v3.8 5.3h17.1v-10.5h-13.4v8.5h10.4v-6.4h-5.5v1.4h3.2v3.6h-5.9v-5.7h9v7.6h-12.6v-3.8-5.2h-17.1v10.5z"/><path d="m59.5 341.9v-8.6h-10.4v6.5h5.5v-1.5h-3.3v-3.5h5.9v5.6h-8.9v-7.6h12.6v3.8 5.3h17v-10.5h-13.4v8.5h10.4v-6.4h-5.5v1.4h3.3v3.6h-6v-5.7h9v7.6h-12.6v-3.8-5.2h-17v10.5z"/><path d="m23.6 337 8.8-4.6v-8.4h-6.6v5.4h1.5v-3.2h3.6v5.6l-5.8.7v-9.3h7.8v9.3l-3.9 3.1-5.4 4.1v2.2h21.3v-10.5h-10.5l-4.7 8.5h12.2v-6.4h-5.5v1.4h3.3v3.6h-6.2l.7-5.7h8.5v7.6h-15.7l3.1-3.8 4.3-5.2v-10.3h-10.8z"/><path d="m23.6 301.9h8.8v-10.1h-6.6v5.4h1.5v-3.2h3.6v5.8h-5.8v-8.8h7.8v12.3h-3.9-5.4v16.7h10.8v-13.1h-8.8v10.1h6.6v-5.3h-1.5v3.2h-3.6v-5.9h5.8v8.8h-7.8v-12.3h3.9 5.4v-16.7h-10.8z"/><path d="m23.6 269.7h8.8v-10.1h-6.6v5.3h1.5v-3.2h3.6v5.8h-5.8v-8.7h7.8v12.3h-3.9-5.4v16.6h10.8v-13.1h-8.8v10.2h6.6v-5.4h-1.5v3.2h-3.6v-5.8h5.8v8.8h-7.8v-12.3h3.9 5.4v-16.7h-10.8z"/><path d="m23.6 237.5h8.8v-10.2h-6.6v5.4h1.5v-3.2h3.6v5.8h-5.8v-8.8h7.8v12.4h-3.9-5.4v16.6h10.8v-13.1h-8.8v10.2h6.6v-5.4h-1.5v3.2h-3.6v-5.8h5.8v8.8h-7.8v-12.4h3.9 5.4v-16.6h-10.8z"/><path d="m23.6 205.3h8.8v-10.2h-6.6v5.4h1.5v-3.2h3.6v5.8h-5.8v-8.8h7.8v12.3h-3.9-5.4v16.7h10.8v-13.1h-8.8v10.1h6.6v-5.3h-1.5v3.2h-3.6v-5.9h5.8v8.8h-7.8v-12.3h3.9 5.4v-16.6h-10.8z"/><path d="m80.8 46.3a25.81 25.81 0 1 0 0 36.5 25.77 25.77 0 0 0 0-36.5zm-35.7 35.6a24.61 24.61 0 1 1 34.8 0 24.63 24.63 0 0 1 -34.8 0z"/><path d="m78.5 48.6a22.56 22.56 0 1 0 0 31.9 22.57 22.57 0 0 0 0-31.9zm-31.2 31.2a21.5 21.5 0 1 1 30.4 0 21.49 21.49 0 0 1 -30.4 0z"/><path d="m38.5 88.6 1.3-2.1c.1-.2 12.1-19.3-1.3-45.4l-.8-1.5 1.5.8c26.1 13.4 45.2 1.5 45.4 1.3l2.1-1.3-1.3 2.1c-.1.2-12.1 19.3 1.3 45.4l.8 1.5-1.5-.8c-26.1-13.4-45.2-1.5-45.4-1.3zm1.6-46.5c10.5 21.6 4 38.3 1.5 43.4 5.1-2.5 21.8-9 43.4 1.5-10.5-21.6-4-38.3-1.5-43.4-5.1 2.5-21.8 9-43.4-1.5z"/><path d="m44.4 82.7 1-1.5c.1-.1 9.1-14.5-1-34.2l-.6-1.1 1.1.6c19.7 10.1 34.1 1.1 34.2 1l1.5-1-1 1.5c-.1.1-9.1 14.5 1 34.2l.6 1.1-1.1-.6c-19.7-10.1-34.1-1.1-34.2-1zm1.2-35.1c7.9 16.3 3 28.9 1.1 32.8 3.8-1.9 16.4-6.8 32.8 1.1-7.9-16.3-3-28.9-1.1-32.8-3.9 1.9-16.5 6.8-32.8-1.1z"/><path d="m190.9 82.8a25.81 25.81 0 1 0 0-36.5 25.77 25.77 0 0 0 0 36.5zm.8-.9a24.61 24.61 0 1 1 34.8 0 24.62 24.62 0 0 1 -34.8 0z"/><path d="m193.2 80.5a22.56 22.56 0 1 0 0-31.9 22.57 22.57 0 0 0 0 31.9zm.7-.7a21.5 21.5 0 1 1 30.4 0 21.49 21.49 0 0 1 -30.4 0z"/><path d="m231.1 87.3c-.2-.1-19.3-12.1-45.4 1.3l-1.5.8.8-1.5c13.4-26.1 1.5-45.2 1.3-45.4l-1.3-2.1 2.1 1.3c.2.1 19.3 12.1 45.4-1.3l1.5-.8-.8 1.5c-13.4 26.1-1.5 45.2-1.3 45.4l1.3 2.1zm-42.9-43.7c2.5 5.1 9 21.8-1.5 43.4 21.6-10.5 38.3-4 43.4-1.5-2.5-5.1-9-21.8 1.5-43.4-21.7 10.5-38.4 4-43.4 1.5z"/><path d="m225.7 81.7c-.1-.1-14.5-9.1-34.2 1l-1.1.6.6-1.1c10.1-19.7 1.1-34.1 1-34.2l-1-1.5 1.5 1c.1.1 14.5 9.1 34.2-1l1.1-.6-.6 1.1c-10.1 19.7-1.1 34.1-1 34.2l1 1.5zm-32.4-33c1.9 3.8 6.8 16.4-1.1 32.8 16.3-7.9 28.9-3 32.8-1.1-1.9-3.8-6.8-16.4 1.1-32.8-16.4 7.9-29 3-32.8 1.1z"/><path d="m80.8 284.8a25.81 25.81 0 1 0 0 36.5 25.77 25.77 0 0 0 0-36.5zm-35.7 35.6a24.61 24.61 0 1 1 34.8 0 24.63 24.63 0 0 1 -34.8 0z"/><path d="m78.5 287a22.56 22.56 0 1 0 0 31.9 22.57 22.57 0 0 0 0-31.9zm-31.2 31.2a21.5 21.5 0 1 1 30.4 0 21.49 21.49 0 0 1 -30.4 0z"/><path d="m38.5 327.1 1.3-2.1c.1-.2 12.1-19.3-1.3-45.4l-.8-1.5 1.5.8c26.1 13.4 45.2 1.5 45.4 1.3l2.1-1.3-1.3 2.1c-.1.2-12.1 19.3 1.3 45.4l.8 1.5-1.5-.8c-26.1-13.4-45.2-1.5-45.4-1.3zm1.6-46.5c10.5 21.6 4 38.3 1.5 43.4 5.1-2.5 21.8-9 43.4 1.5-10.5-21.6-4-38.3-1.5-43.4-5.1 2.5-21.8 9-43.4-1.5z"/><path d="m44.4 321.2 1-1.5c.1-.1 9.1-14.5-1-34.2l-.6-1.1 1.1.6c19.7 10.1 34.1 1.1 34.2 1l1.5-1-1 1.5c-.1.1-9.1 14.5 1 34.2l.6 1.1-1.1-.6c-19.7-10.1-34.1-1.1-34.2-1zm1.2-35.1c7.9 16.3 3 28.9 1.1 32.8 3.8-1.9 16.4-6.8 32.8 1.1-7.9-16.3-3-28.9-1.1-32.8-3.9 1.9-16.5 6.8-32.8-1.1z"/><path d="m190.9 321.2a25.81 25.81 0 1 0 0-36.5 25.77 25.77 0 0 0 0 36.5zm.8-.8a24.61 24.61 0 1 1 34.8 0 24.62 24.62 0 0 1 -34.8 0z"/><path d="m193.2 319a22.56 22.56 0 1 0 0-31.9 22.57 22.57 0 0 0 0 31.9zm.7-.8a21.5 21.5 0 1 1 30.4 0 21.49 21.49 0 0 1 -30.4 0z"/><path d="m231.1 325.7c-.2-.1-19.3-12.1-45.4 1.3l-1.5.8.8-1.5c13.4-26.1 1.5-45.2 1.3-45.4l-1.3-2.1 2.1 1.3c.2.1 19.3 12.1 45.4-1.3l1.5-.8-.8 1.5c-13.4 26.1-1.5 45.2-1.3 45.4l1.3 2.1zm-42.9-43.7c2.5 5.1 9 21.8-1.5 43.4 21.6-10.5 38.3-4 43.4-1.5-2.5-5.1-9-21.8 1.5-43.4-21.7 10.6-38.4 4.1-43.4 1.5z"/><path d="m225.7 320.2c-.1-.1-14.5-9.1-34.2 1l-1.1.6.6-1.1c10.1-19.7 1.1-34.1 1-34.2l-1-1.5 1.5 1c.1.1 14.5 9.1 34.2-1l1.1-.6-.6 1.1c-10.1 19.7-1.1 34.1-1 34.2l1 1.5zm-32.4-33c1.9 3.8 6.8 16.4-1.1 32.8 16.3-7.9 28.9-3 32.8-1.1-1.9-3.8-6.8-16.4 1.1-32.8-16.4 7.9-29 3-32.8 1.1z"/><path d="m136.2 111.6a72 72 0 1 0 72 72 72 72 0 0 0 -72-72zm0 140.7a68.7 68.7 0 1 1 68.7-68.7 68.69 68.69 0 0 1 -68.7 68.7z"/><path d="m136.2 120.6a63 63 0 1 0 63 63 63 63 0 0 0 -63-63zm0 123.1a60.1 60.1 0 1 1 60.1-60.1 60.09 60.09 0 0 1 -60.1 60.1z"/><path d="m136.2 278.6-1.4-6.7c-.1-.6-14.2-61.9-92.3-87l-4.4-1.4 4.4-1.4c78.1-25 92.2-86.4 92.3-87l1.4-6.7 1.4 6.7c.1.6 14.2 61.9 92.3 87l4.4 1.4-4.4 1.4c-78.1 25-92.2 86.4-92.3 87zm-88.7-95c63.4 22 83.6 67.8 88.6 82.9 5-15 25.2-60.9 88.6-82.9-63.4-22-83.6-67.8-88.6-82.9-5 15.1-25.1 60.9-88.6 82.9z"/><path d="m136.2 255.3-1.1-5c-.1-.5-10.7-46.7-69.6-65.6l-3.3-1.1 3.3-1.1c58.9-18.9 69.5-65.1 69.6-65.6l1.1-5 1.1 5c.1.5 10.7 46.7 69.6 65.6l3.3 1.1-3.3 1.1c-58.9 18.9-69.5 65.1-69.6 65.6zm-66.9-71.7c47.8 16.6 63.1 51.2 66.9 62.5 3.8-11.3 19-45.9 66.9-62.5-47.8-16.6-63.1-51.2-66.9-62.5-3.8 11.3-19.1 45.9-66.9 62.5z"/></g></svg>