<svg viewBox="0 0 272.4 367.2" xmlns="http://www.w3.org/2000/svg"><path d="m23.7 367.2a23.69 23.69 0 0 1 -23.7-23.7v-319.8a23.69 23.69 0 0 1 23.7-23.7h225a23.69 23.69 0 0 1 23.7 23.7v319.8a23.69 23.69 0 0 1 -23.7 23.7z" fill="#fff"/><path d="m248.7 9.7h-225a13.87 13.87 0 0 0 -13.9 13.9v319.9a13.87 13.87 0 0 0 13.9 13.9h225a13.87 13.87 0 0 0 13.9-13.9v-319.8a13.89 13.89 0 0 0 -13.9-14z" fill="#00a651"/><g fill="#fff"><path d="m248.7 352.5h-225a8.92 8.92 0 0 1 -8.9-8.9v-319.9a8.92 8.92 0 0 1 8.9-8.9h225a8.92 8.92 0 0 1 8.9 8.9v319.8a8.88 8.88 0 0 1 -8.9 9zm-225-333.8a4.91 4.91 0 0 0 -4.9 4.9v319.9a4.91 4.91 0 0 0 4.9 4.9h225a4.91 4.91 0 0 0 4.9-4.9v-319.8a4.91 4.91 0 0 0 -4.9-4.9h-225z"/><path d="m232.3 327.1h-192v-287h192zm-189.3-2.8h186.5v-281.4h-186.5z"/><path d="m65.4 51.8-6.9-8.9-6.9 8.9 6.9 8.9z"/><path d="m67.2 54.1-6.9 8.9 6.9 8.9 6.9-8.9z"/><path d="m51.6 74.2 6.9 8.9 6.9-8.9-6.9-8.9z"/><path d="m49.9 54.1-6.9 8.9 6.9 8.9 6.8-8.9z"/><path d="m96.5 51.8-6.9-8.9-6.9 8.9 6.9 8.9z"/><path d="m98.3 54.1-6.9 8.9 6.9 8.9 6.9-8.9z"/><path d="m82.7 74.2 6.9 8.9 6.9-8.9-6.9-8.9z"/><path d="m80.9 54.1-6.8 8.9 6.8 8.9 6.9-8.9z"/><path d="m127.6 51.8-6.9-8.9-6.9 8.9 6.9 8.9z"/><path d="m129.4 54.1-6.9 8.9 6.9 8.9 6.8-8.9z"/><path d="m113.8 74.2 6.9 8.9 6.9-8.9-6.9-8.9z"/><path d="m112 54.1-6.8 8.9 6.8 8.9 6.9-8.9z"/><path d="m158.7 51.8-6.9-8.9-6.9 8.9 6.9 8.9z"/><path d="m160.4 54.1-6.8 8.9 6.8 8.9 6.9-8.9z"/><path d="m144.9 74.2 6.9 8.9 6.9-8.9-6.9-8.9z"/><path d="m143.1 54.1-6.9 8.9 6.9 8.9 6.9-8.9z"/><path d="m189.7 51.8-6.8-8.9-6.9 8.9 6.9 8.9z"/><path d="m191.5 54.1-6.9 8.9 6.9 8.9 6.9-8.9z"/><path d="m176 74.2 6.9 8.9 6.8-8.9-6.8-8.9z"/><path d="m174.2 54.1-6.9 8.9 6.9 8.9 6.9-8.9z"/><path d="m220.8 51.8-6.8-8.9-6.9 8.9 6.9 8.9z"/><path d="m222.6 54.1-6.9 8.9 6.9 8.9 6.9-8.9z"/><path d="m207.1 74.2 6.9 8.9 6.8-8.9-6.8-8.9z"/><path d="m205.3 54.1-6.9 8.9 6.9 8.9 6.9-8.9z"/><path d="m65.4 92-6.9-8.9-6.9 8.9 6.9 8.9z"/><path d="m67.2 94.3-6.9 8.9 6.9 8.9 6.9-8.9z"/><path d="m51.6 114.4 6.9 8.9 6.9-8.9-6.9-8.9z"/><path d="m49.9 94.3-6.9 8.9 6.9 8.9 6.8-8.9z"/><path d="m96.5 92-6.9-8.9-6.9 8.9 6.9 8.9z"/><path d="m98.3 94.3-6.9 8.9 6.9 8.9 6.9-8.9z"/><path d="m82.7 114.4 6.9 8.9 6.9-8.9-6.9-8.9z"/><path d="m80.9 94.3-6.8 8.9 6.8 8.9 6.9-8.9z"/><path d="m127.6 92-6.9-8.9-6.9 8.9 6.9 8.9z"/><path d="m129.4 94.3-6.9 8.9 6.9 8.9 6.8-8.9z"/><path d="m113.8 114.4 6.9 8.9 6.9-8.9-6.9-8.9z"/><path d="m112 94.3-6.8 8.9 6.8 8.9 6.9-8.9z"/><path d="m158.7 92-6.9-8.9-6.9 8.9 6.9 8.9z"/><path d="m160.4 94.3-6.8 8.9 6.8 8.9 6.9-8.9z"/><path d="m144.9 114.4 6.9 8.9 6.9-8.9-6.9-8.9z"/><path d="m143.1 94.3-6.9 8.9 6.9 8.9 6.9-8.9z"/><path d="m189.7 92-6.8-8.9-6.9 8.9 6.9 8.9z"/><path d="m191.5 94.3-6.9 8.9 6.9 8.9 6.9-8.9z"/><path d="m176 114.4 6.9 8.9 6.8-8.9-6.8-8.9z"/><path d="m174.2 94.3-6.9 8.9 6.9 8.9 6.9-8.9z"/><path d="m220.8 92-6.8-8.9-6.9 8.9 6.9 8.9z"/><path d="m222.6 94.3-6.9 8.9 6.9 8.9 6.9-8.9z"/><path d="m207.1 114.4 6.9 8.9 6.8-8.9-6.8-8.9z"/><path d="m205.3 94.3-6.9 8.9 6.9 8.9 6.9-8.9z"/><path d="m65.4 132.2-6.9-8.9-6.9 8.9 6.9 8.9z"/><path d="m67.2 134.5-6.9 8.9 6.9 8.9 6.9-8.9z"/><path d="m51.6 154.6 6.9 8.9 6.9-8.9-6.9-8.9z"/><path d="m49.9 134.5-6.9 8.9 6.9 8.9 6.8-8.9z"/><path d="m96.5 132.2-6.9-8.9-6.9 8.9 6.9 8.9z"/><path d="m98.3 134.5-6.9 8.9 6.9 8.9 6.9-8.9z"/><path d="m82.7 154.6 6.9 8.9 6.9-8.9-6.9-8.9z"/><path d="m80.9 134.5-6.8 8.9 6.8 8.9 6.9-8.9z"/><path d="m127.6 132.2-6.9-8.9-6.9 8.9 6.9 8.9z"/><path d="m129.4 134.5-6.9 8.9 6.9 8.9 6.8-8.9z"/><path d="m113.8 154.6 6.9 8.9 6.9-8.9-6.9-8.9z"/><path d="m112 134.5-6.8 8.9 6.8 8.9 6.9-8.9z"/><path d="m158.7 132.2-6.9-8.9-6.9 8.9 6.9 8.9z"/><path d="m160.4 134.5-6.8 8.9 6.8 8.9 6.9-8.9z"/><path d="m144.9 154.6 6.9 8.9 6.9-8.9-6.9-8.9z"/><path d="m143.1 134.5-6.9 8.9 6.9 8.9 6.9-8.9z"/><path d="m189.7 132.2-6.8-8.9-6.9 8.9 6.9 8.9z"/><path d="m191.5 134.5-6.9 8.9 6.9 8.9 6.9-8.9z"/><path d="m176 154.6 6.9 8.9 6.8-8.9-6.8-8.9z"/><path d="m174.2 134.5-6.9 8.9 6.9 8.9 6.9-8.9z"/><path d="m220.8 132.2-6.8-8.9-6.9 8.9 6.9 8.9z"/><path d="m222.6 134.5-6.9 8.9 6.9 8.9 6.9-8.9z"/><path d="m207.1 154.6 6.9 8.9 6.8-8.9-6.8-8.9z"/><path d="m205.3 134.5-6.9 8.9 6.9 8.9 6.9-8.9z"/><path d="m65.4 172.4-6.9-8.9-6.9 8.9 6.9 8.9z"/><path d="m67.2 174.7-6.9 8.9 6.9 8.9 6.9-8.9z"/><path d="m51.6 194.8 6.9 8.9 6.9-8.9-6.9-8.9z"/><path d="m49.9 174.7-6.9 8.9 6.9 8.9 6.8-8.9z"/><path d="m96.5 172.4-6.9-8.9-6.9 8.9 6.9 8.9z"/><path d="m98.3 174.7-6.9 8.9 6.9 8.9 6.9-8.9z"/><path d="m82.7 194.8 6.9 8.9 6.9-8.9-6.9-8.9z"/><path d="m80.9 174.7-6.8 8.9 6.8 8.9 6.9-8.9z"/><path d="m127.6 172.4-6.9-8.9-6.9 8.9 6.9 8.9z"/><path d="m129.4 174.7-6.9 8.9 6.9 8.9 6.8-8.9z"/><path d="m113.8 194.8 6.9 8.9 6.9-8.9-6.9-8.9z"/><path d="m112 174.7-6.8 8.9 6.8 8.9 6.9-8.9z"/><path d="m158.7 172.4-6.9-8.9-6.9 8.9 6.9 8.9z"/><path d="m160.4 174.7-6.8 8.9 6.8 8.9 6.9-8.9z"/><path d="m144.9 194.8 6.9 8.9 6.9-8.9-6.9-8.9z"/><path d="m143.1 174.7-6.9 8.9 6.9 8.9 6.9-8.9z"/><path d="m189.7 172.4-6.8-8.9-6.9 8.9 6.9 8.9z"/><path d="m191.5 174.7-6.9 8.9 6.9 8.9 6.9-8.9z"/><path d="m176 194.8 6.9 8.9 6.8-8.9-6.8-8.9z"/><path d="m174.2 174.7-6.9 8.9 6.9 8.9 6.9-8.9z"/><path d="m220.8 172.4-6.8-8.9-6.9 8.9 6.9 8.9z"/><path d="m222.6 174.7-6.9 8.9 6.9 8.9 6.9-8.9z"/><path d="m207.1 194.8 6.9 8.9 6.8-8.9-6.8-8.9z"/><path d="m205.3 174.7-6.9 8.9 6.9 8.9 6.9-8.9z"/><path d="m65.4 212.6-6.9-8.9-6.9 8.9 6.9 8.9z"/><path d="m67.2 214.9-6.9 8.9 6.9 8.9 6.9-8.9z"/><path d="m51.6 235 6.9 8.9 6.9-8.9-6.9-8.9z"/><path d="m49.9 214.9-6.9 8.9 6.9 8.9 6.8-8.9z"/><path d="m96.5 212.6-6.9-8.9-6.9 8.9 6.9 8.9z"/><path d="m98.3 214.9-6.9 8.9 6.9 8.9 6.9-8.9z"/><path d="m82.7 235 6.9 8.9 6.9-8.9-6.9-8.9z"/><path d="m80.9 214.9-6.8 8.9 6.8 8.9 6.9-8.9z"/><path d="m127.6 212.6-6.9-8.9-6.9 8.9 6.9 8.9z"/><path d="m129.4 214.9-6.9 8.9 6.9 8.9 6.8-8.9z"/><path d="m113.8 235 6.9 8.9 6.9-8.9-6.9-8.9z"/><path d="m112 214.9-6.8 8.9 6.8 8.9 6.9-8.9z"/><path d="m158.7 212.6-6.9-8.9-6.9 8.9 6.9 8.9z"/><path d="m160.4 214.9-6.8 8.9 6.8 8.9 6.9-8.9z"/><path d="m144.9 235 6.9 8.9 6.9-8.9-6.9-8.9z"/><path d="m143.1 214.9-6.9 8.9 6.9 8.9 6.9-8.9z"/><path d="m189.7 212.6-6.8-8.9-6.9 8.9 6.9 8.9z"/><path d="m191.5 214.9-6.9 8.9 6.9 8.9 6.9-8.9z"/><path d="m176 235 6.9 8.9 6.8-8.9-6.8-8.9z"/><path d="m174.2 214.9-6.9 8.9 6.9 8.9 6.9-8.9z"/><path d="m220.8 212.6-6.8-8.9-6.9 8.9 6.9 8.9z"/><path d="m222.6 214.9-6.9 8.9 6.9 8.9 6.9-8.9z"/><path d="m207.1 235 6.9 8.9 6.8-8.9-6.8-8.9z"/><path d="m205.3 214.9-6.9 8.9 6.9 8.9 6.9-8.9z"/><path d="m65.4 252.8-6.9-8.9-6.9 8.9 6.9 8.9z"/><path d="m67.2 255.1-6.9 8.9 6.9 8.9 6.9-8.9z"/><path d="m51.6 275.2 6.9 8.9 6.9-8.9-6.9-8.9z"/><path d="m49.9 255.1-6.9 8.9 6.9 8.9 6.8-8.9z"/><path d="m96.5 252.8-6.9-8.9-6.9 8.9 6.9 8.9z"/><path d="m98.3 255.1-6.9 8.9 6.9 8.9 6.9-8.9z"/><path d="m82.7 275.2 6.9 8.9 6.9-8.9-6.9-8.9z"/><path d="m80.9 255.1-6.8 8.9 6.8 8.9 6.9-8.9z"/><path d="m127.6 252.8-6.9-8.9-6.9 8.9 6.9 8.9z"/><path d="m129.4 255.1-6.9 8.9 6.9 8.9 6.8-8.9z"/><path d="m113.8 275.2 6.9 8.9 6.9-8.9-6.9-8.9z"/><path d="m112 255.1-6.8 8.9 6.8 8.9 6.9-8.9z"/><path d="m158.7 252.8-6.9-8.9-6.9 8.9 6.9 8.9z"/><path d="m160.4 255.1-6.8 8.9 6.8 8.9 6.9-8.9z"/><path d="m144.9 275.2 6.9 8.9 6.9-8.9-6.9-8.9z"/><path d="m143.1 255.1-6.9 8.9 6.9 8.9 6.9-8.9z"/><path d="m189.7 252.8-6.8-8.9-6.9 8.9 6.9 8.9z"/><path d="m191.5 255.1-6.9 8.9 6.9 8.9 6.9-8.9z"/><path d="m176 275.2 6.9 8.9 6.8-8.9-6.8-8.9z"/><path d="m174.2 255.1-6.9 8.9 6.9 8.9 6.9-8.9z"/><path d="m220.8 252.8-6.8-8.9-6.9 8.9 6.9 8.9z"/><path d="m222.6 255.1-6.9 8.9 6.9 8.9 6.9-8.9z"/><path d="m207.1 275.2 6.9 8.9 6.8-8.9-6.8-8.9z"/><path d="m205.3 255.1-6.9 8.9 6.9 8.9 6.9-8.9z"/><path d="m65.4 293-6.9-8.9-6.9 8.9 6.9 8.9z"/><path d="m67.2 295.3-6.9 8.9 6.9 8.9 6.9-8.9z"/><path d="m51.6 315.4 6.9 8.9 6.9-8.9-6.9-8.9z"/><path d="m49.9 295.3-6.9 8.9 6.9 8.9 6.8-8.9z"/><path d="m96.5 293-6.9-8.9-6.9 8.9 6.9 8.9z"/><path d="m98.3 295.3-6.9 8.9 6.9 8.9 6.9-8.9z"/><path d="m82.7 315.4 6.9 8.9 6.9-8.9-6.9-8.9z"/><path d="m80.9 295.3-6.8 8.9 6.8 8.9 6.9-8.9z"/><path d="m127.6 293-6.9-8.9-6.9 8.9 6.9 8.9z"/><path d="m129.4 295.3-6.9 8.9 6.9 8.9 6.8-8.9z"/><path d="m113.8 315.4 6.9 8.9 6.9-8.9-6.9-8.9z"/><path d="m112 295.3-6.8 8.9 6.8 8.9 6.9-8.9z"/><path d="m158.7 293-6.9-8.9-6.9 8.9 6.9 8.9z"/><path d="m160.4 295.3-6.8 8.9 6.8 8.9 6.9-8.9z"/><path d="m144.9 315.4 6.9 8.9 6.9-8.9-6.9-8.9z"/><path d="m143.1 295.3-6.9 8.9 6.9 8.9 6.9-8.9z"/><path d="m189.7 293-6.8-8.9-6.9 8.9 6.9 8.9z"/><path d="m191.5 295.3-6.9 8.9 6.9 8.9 6.9-8.9z"/><path d="m176 315.4 6.9 8.9 6.8-8.9-6.8-8.9z"/><path d="m174.2 295.3-6.9 8.9 6.9 8.9 6.9-8.9z"/><path d="m220.8 293-6.8-8.9-6.9 8.9 6.9 8.9z"/><path d="m222.6 295.3-6.9 8.9 6.9 8.9 6.9-8.9z"/><path d="m207.1 315.4 6.9 8.9 6.8-8.9-6.8-8.9z"/><path d="m205.3 295.3-6.9 8.9 6.9 8.9 6.9-8.9z"/><circle cx="74.1" cy="83.1" r="7.7"/><circle cx="105.2" cy="83.1" r="7.7"/><circle cx="136.2" cy="83.1" r="7.7" transform="matrix(.16022575 -.9870804 .9870804 .16022575 32.36 204.23)"/><circle cx="167.3" cy="83.1" r="7.7"/><circle cx="198.4" cy="83.1" r="7.7"/><circle cx="74.1" cy="123.3" r="7.7"/><circle cx="105.2" cy="123.3" r="7.7"/><circle cx="136.2" cy="123.3" r="7.7" transform="matrix(.16022575 -.9870804 .9870804 .16022575 -7.32 237.99)"/><circle cx="167.3" cy="123.3" r="7.7"/><circle cx="198.4" cy="123.3" r="7.7"/><circle cx="74.1" cy="163.5" r="7.7"/><circle cx="105.2" cy="163.5" r="7.7"/><circle cx="136.2" cy="163.5" r="7.7" transform="matrix(.16022575 -.9870804 .9870804 .16022575 -47.01 271.75)"/><circle cx="167.3" cy="163.5" r="7.7"/><circle cx="198.4" cy="163.5" r="7.7"/><circle cx="74.1" cy="203.7" r="7.7"/><circle cx="105.2" cy="203.7" r="7.7"/><circle cx="136.2" cy="203.7" r="7.7"/><circle cx="167.3" cy="203.7" r="7.7"/><circle cx="198.4" cy="203.7" r="7.7"/><circle cx="74.1" cy="243.9" r="7.7"/><circle cx="105.2" cy="243.9" r="7.7"/><circle cx="136.2" cy="243.9" r="7.7"/><circle cx="167.3" cy="243.9" r="7.7"/><circle cx="198.4" cy="243.9" r="7.7"/><circle cx="74.1" cy="284.1" r="7.7"/><circle cx="105.2" cy="284.1" r="7.7"/><circle cx="136.2" cy="284.1" r="7.7"/><circle cx="167.3" cy="284.1" r="7.7"/><circle cx="198.4" cy="284.1" r="7.7"/><path d="m23.7 173.1h8.8v-10.1h-6.7v5.4h1.5v-3.3h3.7v5.9h-5.8v-8.8h7.8v12.3h-3.9-5.4v16.7h10.8v-13.1h-8.8v10.1h6.6v-5.4h-1.5v3.3h-3.6v-5.9h5.8v8.8h-7.8v-12.3h3.9 5.4v-16.7h-10.8z"/><path d="m23.7 140.9h8.8v-10.1h-6.7v5.3h1.5v-3.2h3.7v5.8h-5.8v-8.7h7.8v12.3h-3.9-5.4v16.6h10.8v-13.1h-8.8v10.2h6.6v-5.4h-1.5v3.2h-3.6v-5.8h5.8v8.8h-7.8v-12.3h3.9 5.4v-16.7h-10.8z"/><path d="m23.7 108.7h8.8v-10.2h-6.7v5.4h1.5v-3.2h3.7v5.8h-5.8v-8.8h7.8v12.4h-3.9-5.4v16.6h10.8v-13.1h-8.8v10.2h6.6v-5.4h-1.5v3.2h-3.6v-5.8h5.8v8.8h-7.8v-12.4h3.9 5.4v-16.6h-10.8z"/><path d="m23.7 76.4h8.8v-10.1h-6.7v5.4h1.5v-3.2h3.7v5.8h-5.8v-8.8h7.8v12.3h-3.9-5.4v16.7h10.8v-13.1h-8.8v10.1h6.6v-5.3h-1.5v3.2h-3.6v-5.9h5.8v8.8h-7.8v-12.3h3.9 5.4v-16.7h-10.8z"/><path d="m23.7 44.2h8.8v-9l-6.7-2.2v6.4h1.5v-3.2h3.7v5.9h-5.8v-10.7l7.8 3.7v10.5h-3.9-5.4v16.7h10.8v-13.1h-8.8v10.1h6.6v-5.4h-1.5v3.2h-3.6v-5.8h5.8v8.8h-7.8v-12.3h3.9 5.4v-12l-10.8-9.4z"/><path d="m48.1 25.3v8.6h10.4v-6.5h-5.5v1.5h3.3v3.5h-6v-5.6h9v7.6h-12.6v-3.8-5.3h-21.9l9.7 10.5h8.5v-8.5h-11.5l2.2 6.4h4.5v-1.4h-3.3v-3.6h5.9v5.7h-7.1l-3.8-7.6h14.6v3.8 5.2h17v-10.5z"/><path d="m81.1 25.3v8.6h10.3v-6.5h-5.5v1.5h3.3v3.5h-5.9v-5.6h9v7.6h-12.7v-3.8-5.3h-17v10.5h13.4v-8.5h-10.4v6.4h5.5v-1.4h-3.3v-3.6h6v5.7h-9v-7.6h12.6v3.8 5.2h17.1v-10.5z"/><path d="m114 25.3v8.6h10.4v-6.5h-5.5v1.5h3.3v3.5h-6v-5.6h9v7.6h-12.6v-3.8-5.3h-17v10.5h13.4v-8.5h-10.4v6.4h5.5v-1.4h-3.3v-3.6h6v5.7h-9v-7.6h12.6v3.8 5.2h17v-10.5z"/><path d="m147 25.3v8.6h10.4v-6.5h-5.5v1.5h3.3v3.5h-6v-5.6h9v7.6h-12.6v-3.8-5.3h-17.1v10.5h13.4v-8.5h-10.3v6.4h5.5v-1.4h-3.3v-3.6h5.9v5.7h-8.9v-7.6h12.6v3.8 5.2h17v-10.5z"/><path d="m180 25.3v8.6h10.3v-6.5h-5.4v1.5h3.2v3.5h-5.9v-5.6h9v7.6h-12.6v-3.8-5.3h-17.1v10.5h13.4v-8.5h-10.4v6.4h5.5v-1.4h-3.2v-3.6h5.9v5.7h-9v-7.6h12.6v3.8 5.2h17.1v-10.5z"/><path d="m212.9 25.3v8.6h10.4v-6.5h-5.5v1.5h3.3v3.5h-5.9v-5.6h8.9v7.6h-12.6v-3.8-5.3h-17v10.5h13.4v-8.5h-10.4v6.4h5.5v-1.4h-3.3v-3.6h6v5.7h-9v-7.6h12.6v3.8 5.2h17v-10.5z"/><path d="m248.8 30.2-8.8 4.6v8.4h6.6v-5.4h-1.5v3.2h-3.6v-5.6l5.8-.7v9.3h-7.8v-9.3l3.9-3.1 5.4-4.1v-2.2h-21.3v10.5h10.5l4.7-8.5h-12.2v6.4h5.5v-1.4h-3.3v-3.6h6.2l-.7 5.7h-8.5v-7.6h15.7l-3.1 3.8-4.3 5.2v10.3h10.8z"/><path d="m248.8 65.3h-8.8v10.1h6.6v-5.4h-1.5v3.2h-3.6v-5.8h5.8v8.8h-7.8v-12.3h3.9 5.4v-16.7h-10.8v13.1h8.8v-10.1h-6.6v5.3h1.5v-3.2h3.6v5.9h-5.8v-8.8h7.8v12.3h-3.9-5.4v16.7h10.8z"/><path d="m248.8 97.5h-8.8v10.1h6.6v-5.3h-1.5v3.2h-3.6v-5.8h5.8v8.7h-7.8v-12.3h3.9 5.4v-16.6h-10.8v13.1h8.8v-10.2h-6.6v5.4h1.5v-3.2h3.6v5.8h-5.8v-8.8h7.8v12.3h-3.9-5.4v16.7h10.8z"/><path d="m248.8 129.7h-8.8v10.2h6.6v-5.4h-1.5v3.2h-3.6v-5.8h5.8v8.8h-7.8v-12.4h3.9 5.4v-16.6h-10.8v13.1h8.8v-10.2h-6.6v5.4h1.5v-3.2h3.6v5.8h-5.8v-8.8h7.8v12.4h-3.9-5.4v16.6h10.8z"/><path d="m248.8 161.9h-8.8v10.2h6.6v-5.4h-1.5v3.2h-3.6v-5.8h5.8v8.8h-7.8v-12.3h3.9 5.4v-16.7h-10.8v13.1h8.8v-10.1h-6.6v5.3h1.5v-3.2h3.6v5.9h-5.8v-8.8h7.8v12.3h-3.9-5.4v16.6h10.8z"/><path d="m248.8 194.1h-8.8v10.1h6.6v-5.4h-1.5v3.3h-3.6v-5.9h5.8v8.8h-7.8v-12.3h3.9 5.4v-16.7h-10.8v13.1h8.8v-10.1h-6.6v5.4h1.5v-3.3h3.6v5.9h-5.8v-8.8h7.8v12.3h-3.9-5.4v16.7h10.8z"/><path d="m248.8 226.3h-8.8v10.1h6.6v-5.3h-1.5v3.2h-3.6v-5.8h5.8v8.7h-7.8v-12.3h3.9 5.4v-16.6h-10.8v13.1h8.8v-10.2h-6.6v5.4h1.5v-3.2h3.6v5.8h-5.8v-8.8h7.8v12.3h-3.9-5.4v16.7h10.8z"/><path d="m248.8 258.5h-8.8v10.2h6.6v-5.4h-1.5v3.2h-3.6v-5.8h5.8v8.8h-7.8v-12.4h3.9 5.4v-16.6h-10.8v13.1h8.8v-10.2h-6.6v5.4h1.5v-3.2h3.6v5.8h-5.8v-8.8h7.8v12.4h-3.9-5.4v16.6h10.8z"/><path d="m248.8 290.8h-8.8v10.1h6.6v-5.4h-1.5v3.2h-3.6v-5.8h5.8v8.8h-7.8v-12.3h3.9 5.4v-16.7h-10.8v13.1h8.8v-10.1h-6.6v5.3h1.5v-3.2h3.6v5.9h-5.8v-8.8h7.8v12.3h-3.9-5.4v16.7h10.8z"/><path d="m248.8 323h-8.8v9l6.6 2.2v-6.4h-1.5v3.2h-3.6v-5.9h5.8v10.7l-7.8-3.7v-10.5h3.9 5.4v-16.7h-10.8v13.1h8.8v-10.1h-6.6v5.4h1.5v-3.2h3.6v5.8h-5.8v-8.8h7.8v12.3h-3.9-5.4v12l10.8 9.4z"/><path d="m224.4 341.9v-8.6h-10.4v6.5h5.5v-1.5h-3.3v-3.5h6v5.6h-9v-7.6h12.6v3.8 5.3h21.9l-9.7-10.5h-8.6v8.5h11.6l-2.3-6.4h-4.4v1.4h3.3v3.6h-6v-5.7h7.1l3.8 7.6h-14.5v-3.8-5.2h-17v10.5z"/><path d="m191.4 341.9v-8.6h-10.4v6.5h5.5v-1.5h-3.3v-3.5h6v5.6h-9v-7.6h12.6v3.8 5.3h17.1v-10.5h-13.4v8.5h10.3v-6.4h-5.4v1.4h3.2v3.6h-5.9v-5.7h9v7.6h-12.7v-3.8-5.2h-17v10.5z"/><path d="m158.4 341.9v-8.6h-10.3v6.5h5.5v-1.5h-3.3v-3.5h5.9v5.6h-8.9v-7.6h12.6v3.8 5.3h17v-10.5h-13.4v8.5h10.4v-6.4h-5.5v1.4h3.3v3.6h-6v-5.7h9v7.6h-12.6v-3.8-5.2h-17.1v10.5z"/><path d="m125.5 341.9v-8.6h-10.4v6.5h5.5v-1.5h-3.3v-3.5h6v5.6h-9v-7.6h12.6v3.8 5.3h17v-10.5h-13.4v8.5h10.4v-6.4h-5.5v1.4h3.3v3.6h-6v-5.7h9v7.6h-12.6v-3.8-5.2h-17v10.5z"/><path d="m92.5 341.9v-8.6h-10.4v6.5h5.5v-1.5h-3.3v-3.5h6v5.6h-9v-7.6h12.6v3.8 5.3h17.1v-10.5h-13.4v8.5h10.3v-6.4h-5.5v1.4h3.3v3.6h-5.9v-5.7h9v7.6h-12.7v-3.8-5.2h-17v10.5z"/><path d="m59.5 341.9v-8.6h-10.3v6.5h5.4v-1.5h-3.2v-3.5h5.9v5.6h-9v-7.6h12.7v3.8 5.3h17v-10.5h-13.4v8.5h10.4v-6.4h-5.5v1.4h3.3v3.6h-6v-5.7h9v7.6h-12.6v-3.8-5.2h-17.1v10.5z"/><path d="m23.7 337 8.8-4.6v-8.4h-6.7v5.4h1.5v-3.2h3.7v5.6l-5.8.7v-9.3h7.8v9.3l-3.9 3.1-5.4 4.1v2.2h21.3v-10.5h-10.5l-4.7 8.5h12.2v-6.4h-5.5v1.4h3.3v3.6h-6.2l.7-5.7h8.5v7.6h-15.7l3.1-3.8 4.3-5.2v-10.3h-10.8z"/><path d="m23.7 301.9h8.8v-10.1h-6.7v5.4h1.5v-3.2h3.7v5.8h-5.8v-8.8h7.8v12.3h-3.9-5.4v16.7h10.8v-13.1h-8.8v10.1h6.6v-5.3h-1.5v3.2h-3.6v-5.9h5.8v8.8h-7.8v-12.3h3.9 5.4v-16.7h-10.8z"/><path d="m23.7 269.7h8.8v-10.1h-6.7v5.3h1.5v-3.2h3.7v5.8h-5.8v-8.7h7.8v12.3h-3.9-5.4v16.6h10.8v-13.1h-8.8v10.2h6.6v-5.4h-1.5v3.2h-3.6v-5.8h5.8v8.8h-7.8v-12.3h3.9 5.4v-16.7h-10.8z"/><path d="m23.7 237.5h8.8v-10.2h-6.7v5.4h1.5v-3.2h3.7v5.8h-5.8v-8.8h7.8v12.4h-3.9-5.4v16.6h10.8v-13.1h-8.8v10.2h6.6v-5.4h-1.5v3.2h-3.6v-5.8h5.8v8.8h-7.8v-12.4h3.9 5.4v-16.6h-10.8z"/><path d="m23.7 205.3h8.8v-10.2h-6.7v5.4h1.5v-3.2h3.7v5.8h-5.8v-8.8h7.8v12.3h-3.9-5.4v16.7h10.8v-13.1h-8.8v10.1h6.6v-5.3h-1.5v3.2h-3.6v-5.9h5.8v8.8h-7.8v-12.3h3.9 5.4v-16.6h-10.8z"/></g></svg>