<svg viewBox="0 0 272.4 367.2" xmlns="http://www.w3.org/2000/svg"><path d="m23.7 367.2a23.69 23.69 0 0 1 -23.7-23.7v-319.8a23.69 23.69 0 0 1 23.7-23.7h225a23.69 23.69 0 0 1 23.7 23.7v319.8a23.69 23.69 0 0 1 -23.7 23.7z" fill="#fff"/><path d="m248.7 9.7h-225a13.87 13.87 0 0 0 -13.9 13.9v319.8a13.87 13.87 0 0 0 13.9 13.9h225a13.87 13.87 0 0 0 13.9-13.9v-319.7a14 14 0 0 0 -13.9-14z" fill="#016f87"/><g fill="#fff"><path d="m234.6 327.9h-196.8v-288.6h196.9v288.6zm-192.8-4h188.9v-280.6h-188.9z"/><path d="m248.7 352.5h-225a8.92 8.92 0 0 1 -8.9-8.9v-319.9a8.92 8.92 0 0 1 8.9-8.9h225a8.92 8.92 0 0 1 8.9 8.9v319.8a9 9 0 0 1 -8.9 9zm-225-333.8a4.91 4.91 0 0 0 -4.9 4.9v319.8a4.91 4.91 0 0 0 4.9 4.9h225a4.91 4.91 0 0 0 4.9-4.9v-319.7a4.91 4.91 0 0 0 -4.9-4.9h-225z"/><path d="m23.7 173.1h8.7v-10.1h-6.6v5.4h1.5v-3.3h3.6v5.9h-5.8v-8.8h7.8v12.3h-3.9-5.3v16.7h10.7v-13.1h-8.8v10.1h6.7v-5.4h-1.5v3.3h-3.7v-5.9h5.8v8.8h-7.8v-12.3h3.9 5.4v-16.7h-10.7z"/><path d="m23.7 140.9h8.7v-10.1h-6.6v5.3h1.5v-3.2h3.6v5.8h-5.8v-8.7h7.8v12.3h-3.9-5.3v16.6h10.7v-13.1h-8.8v10.2h6.7v-5.4h-1.5v3.2h-3.7v-5.8h5.8v8.8h-7.8v-12.3h3.9 5.4v-16.7h-10.7z"/><path d="m23.7 108.7h8.7v-10.2h-6.6v5.4h1.5v-3.2h3.6v5.8h-5.8v-8.8h7.8v12.4h-3.9-5.3v16.6h10.7v-13.1h-8.8v10.2h6.7v-5.4h-1.5v3.2h-3.7v-5.8h5.8v8.8h-7.8v-12.4h3.9 5.4v-16.6h-10.7z"/><path d="m23.7 76.5h8.7v-10.2h-6.6v5.4h1.5v-3.2h3.6v5.8h-5.8v-8.8h7.8v12.3h-3.9-5.3v16.7h10.7v-13.1h-8.8v10.1h6.7v-5.3h-1.5v3.2h-3.7v-5.9h5.8v8.8h-7.8v-12.3h3.9 5.4v-16.7h-10.7z"/><path d="m23.7 44.2h8.7v-9l-6.6-2.2v6.4h1.5v-3.2h3.6v5.9h-5.8v-10.7l7.8 3.7v10.5h-3.9-5.3v16.7h10.7v-13.1h-8.8v10.1h6.7v-5.4h-1.5v3.2h-3.7v-5.8h5.8v8.8h-7.8v-12.3h3.9 5.4v-12l-10.7-9.4z"/><path d="m48 25.3v8.6h10.4v-6.5h-5.5v1.5h3.3v3.5h-5.9v-5.6h8.9v7.6h-12.6v-3.8-5.3h-21.8l9.6 10.5h8.6v-8.5h-11.5l2.2 6.4h4.4v-1.4h-3.3v-3.6h6v5.7h-7.1l-3.8-7.6h14.5v3.8 5.2h17.1v-10.5z"/><path d="m81 25.3v8.6h10.4v-6.5h-5.5v1.5h3.3v3.5h-6v-5.6h9v7.6h-12.6v-3.8-5.3h-17v10.5h13.4v-8.5h-10.4v6.4h5.5v-1.4h-3.3v-3.6h6v5.7h-9v-7.6h12.6v3.8 5.2h17v-10.5z"/><path d="m114 25.3v8.6h10.4v-6.5h-5.5v1.5h3.3v3.5h-6v-5.6h9v7.6h-12.6v-3.8-5.3h-17.1v10.5h13.4v-8.5h-10.3v6.4h5.5v-1.4h-3.3v-3.6h5.9v5.7h-9v-7.6h12.7v3.8 5.2h17v-10.5z"/><path d="m147 25.3v8.6h10.3v-6.5h-5.5v1.5h3.3v3.5h-5.9v-5.6h9v7.6h-12.7v-3.8-5.3h-17v10.5h13.4v-8.5h-10.4v6.4h5.5v-1.4h-3.3v-3.6h6v5.7h-9v-7.6h12.6v3.8 5.2h17.1v-10.5z"/><path d="m179.9 25.3v8.6h10.4v-6.5h-5.5v1.5h3.3v3.5h-6v-5.6h9v7.6h-12.6v-3.8-5.3h-17v10.5h13.4v-8.5h-10.4v6.4h5.5v-1.4h-3.3v-3.6h6v5.7h-9v-7.6h12.6v3.8 5.2h17v-10.5z"/><path d="m212.9 25.3v8.6h10.4v-6.5h-5.5v1.5h3.3v3.5h-6v-5.6h9v7.6h-12.6v-3.8-5.3h-17.1v10.5h13.5v-8.5h-10.4v6.4h5.5v-1.4h-3.3v-3.6h5.9v5.7h-8.9v-7.6h12.6v3.8 5.2h17v-10.5z"/><path d="m248.7 30.2-8.7 4.6v8.4h6.6v-5.4h-1.5v3.2h-3.7v-5.6l5.9-.7v9.3h-7.8v-9.3l3.9-3.1 5.3-4.1v-2.2h-21.3v10.5h10.6l4.6-8.5h-12.2v6.4h5.5v-1.4h-3.2v-3.6h6.1l-.7 5.7h-8.5v-7.6h15.7l-3.1 3.8-4.2 5.2v10.3h10.7z"/><path d="m248.7 65.3h-8.7v10.1h6.6v-5.4h-1.5v3.2h-3.7v-5.8h5.9v8.8h-7.8v-12.3h3.9 5.3v-16.7h-10.7v13.1h8.8v-10.1h-6.7v5.3h1.5v-3.2h3.7v5.9h-5.8v-8.8h7.8v12.3h-3.9-5.4v16.7h10.7z"/><path d="m248.7 97.5h-8.7v10.1h6.6v-5.3h-1.5v3.2h-3.7v-5.8h5.9v8.7h-7.8v-12.3h3.9 5.3v-16.6h-10.7v13.1h8.8v-10.2h-6.7v5.4h1.5v-3.2h3.7v5.8h-5.8v-8.8h7.8v12.3h-3.9-5.4v16.7h10.7z"/><path d="m248.7 129.7h-8.7v10.2h6.6v-5.4h-1.5v3.2h-3.7v-5.8h5.9v8.8h-7.8v-12.4h3.9 5.3v-16.6h-10.7v13.1h8.8v-10.2h-6.7v5.4h1.5v-3.2h3.7v5.8h-5.8v-8.8h7.8v12.4h-3.9-5.4v16.6h10.7z"/><path d="m248.7 161.9h-8.7v10.2h6.6v-5.4h-1.5v3.2h-3.7v-5.8h5.9v8.8h-7.8v-12.3h3.9 5.3v-16.7h-10.7v13.1h8.8v-10.1h-6.7v5.3h1.5v-3.2h3.7v5.9h-5.8v-8.8h7.8v12.3h-3.9-5.4v16.6h10.7z"/><path d="m248.7 194.1h-8.7v10.1h6.6v-5.4h-1.5v3.3h-3.7v-5.9h5.9v8.8h-7.8v-12.3h3.9 5.3v-16.7h-10.7v13.1h8.8v-10.1h-6.7v5.4h1.5v-3.3h3.7v5.9h-5.8v-8.8h7.8v12.3h-3.9-5.4v16.7h10.7z"/><path d="m248.7 226.3h-8.7v10.1h6.6v-5.3h-1.5v3.2h-3.7v-5.8h5.9v8.7h-7.8v-12.3h3.9 5.3v-16.6h-10.7v13.1h8.8v-10.2h-6.7v5.4h1.5v-3.2h3.7v5.8h-5.8v-8.8h7.8v12.3h-3.9-5.4v16.7h10.7z"/><path d="m248.7 258.5h-8.7v10.2h6.6v-5.4h-1.5v3.2h-3.7v-5.8h5.9v8.8h-7.8v-12.4h3.9 5.3v-16.6h-10.7v13.1h8.8v-10.2h-6.7v5.4h1.5v-3.2h3.7v5.8h-5.8v-8.8h7.8v12.4h-3.9-5.4v16.6h10.7z"/><path d="m248.7 290.8h-8.7v10.1h6.6v-5.4h-1.5v3.2h-3.7v-5.8h5.9v8.8h-7.8v-12.3h3.9 5.3v-16.7h-10.7v13.1h8.8v-10.1h-6.7v5.3h1.5v-3.2h3.7v5.9h-5.8v-8.8h7.8v12.3h-3.9-5.4v16.7h10.7z"/><path d="m248.7 323h-8.7v9l6.6 2.2v-6.4h-1.5v3.2h-3.7v-5.9h5.9v10.7l-7.8-3.7v-10.5h3.9 5.3v-16.7h-10.7v13.1h8.8v-10.1h-6.7v5.4h1.5v-3.2h3.7v5.8h-5.8v-8.8h7.8v12.3h-3.9-5.4v12l10.7 9.4z"/><path d="m224.3 341.9v-8.6h-10.3v6.5h5.5v-1.5h-3.3v-3.5h5.9v5.6h-8.9v-7.6h12.6v3.8 5.3h21.8l-9.6-10.5h-8.6v8.5h11.5l-2.2-6.4h-4.4v1.4h3.3v3.6h-6v-5.7h7.1l3.8 7.6h-14.5v-3.8-5.2h-17.1v10.5z"/><path d="m191.4 341.9v-8.6h-10.4v6.5h5.5v-1.5h-3.3v-3.5h6v5.6h-9v-7.6h12.6v3.8 5.3h17v-10.5h-13.4v8.5h10.4v-6.4h-5.5v1.4h3.3v3.6h-6v-5.7h9v7.6h-12.6v-3.8-5.2h-17v10.5z"/><path d="m158.4 341.9v-8.6h-10.4v6.5h5.5v-1.5h-3.3v-3.5h6v5.6h-9v-7.6h12.6v3.8 5.3h17.1v-10.5h-13.4v8.5h10.3v-6.4h-5.5v1.4h3.3v3.6h-5.9v-5.7h9v7.6h-12.7v-3.8-5.2h-17v10.5z"/><path d="m125.4 341.9v-8.6h-10.3v6.5h5.4v-1.5h-3.2v-3.5h5.9v5.6h-9v-7.6h12.7v3.8 5.3h17v-10.5h-13.4v8.5h10.4v-6.4h-5.5v1.4h3.3v3.6h-6v-5.7h9v7.6h-12.6v-3.8-5.2h-17.1v10.5z"/><path d="m92.5 341.9v-8.6h-10.4v6.5h5.5v-1.5h-3.3v-3.5h6v5.6h-9v-7.6h12.6v3.8 5.3h17v-10.5h-13.4v8.5h10.4v-6.4h-5.5v1.4h3.3v3.6h-6v-5.7h9v7.6h-12.6v-3.8-5.2h-17v10.5z"/><path d="m59.5 341.9v-8.6h-10.4v6.5h5.5v-1.5h-3.3v-3.5h6v5.6h-9v-7.6h12.6v3.8 5.3h17v-10.5h-13.4v8.5h10.4v-6.4h-5.5v1.4h3.3v3.6h-5.9v-5.7h8.9v7.6h-12.6v-3.8-5.2h-17v10.5z"/><path d="m23.7 337 8.7-4.6v-8.4h-6.6v5.4h1.5v-3.2h3.6v5.6l-5.8.7v-9.3h7.8v9.3l-3.9 3.1-5.3 4.1v2.2h21.3v-10.5h-10.6l-4.6 8.5h12.2v-6.4h-5.5v1.4h3.2v3.6h-6.1l.6-5.7h8.6v7.6h-15.7l3.1-3.8 4.2-5.2v-10.3h-10.7z"/><path d="m23.7 301.9h8.7v-10.1h-6.6v5.4h1.5v-3.2h3.6v5.8h-5.8v-8.8h7.8v12.3h-3.9-5.3v16.7h10.7v-13.1h-8.8v10.1h6.7v-5.3h-1.5v3.2h-3.7v-5.9h5.8v8.8h-7.8v-12.3h3.9 5.4v-16.7h-10.7z"/><path d="m23.7 269.7h8.7v-10.1h-6.6v5.3h1.5v-3.2h3.6v5.8h-5.8v-8.7h7.8v12.3h-3.9-5.3v16.6h10.7v-13.1h-8.8v10.2h6.7v-5.4h-1.5v3.2h-3.7v-5.8h5.8v8.8h-7.8v-12.3h3.9 5.4v-16.7h-10.7z"/><path d="m23.7 237.5h8.7v-10.2h-6.6v5.4h1.5v-3.2h3.6v5.8h-5.8v-8.8h7.8v12.4h-3.9-5.3v16.6h10.7v-13.1h-8.8v10.2h6.7v-5.4h-1.5v3.2h-3.7v-5.8h5.8v8.8h-7.8v-12.4h3.9 5.4v-16.6h-10.7z"/><path d="m23.7 205.3h8.7v-10.2h-6.6v5.4h1.5v-3.2h3.6v5.8h-5.8v-8.8h7.8v12.3h-3.9-5.3v16.7h10.7v-13.1h-8.8v10.1h6.7v-5.3h-1.5v3.2h-3.7v-5.9h5.8v8.8h-7.8v-12.3h3.9 5.4v-16.6h-10.7z"/><path d="m227.7 47.8v-1.5h-183v272.9h183v-1.5-10.3-1.5-10.3-1.5-10.3-1.5-10.3-1.5-10.3-1.5-9-1.5-10.3-1.5-10.3-1.5-10.3-1.5-10.3-1.5-10.3-1.5-10.3-1.5-10.3-1.5-10.9-1.5-10.3-1.5-10.3-1.5-10.3-1.5-10.3-1.5-10.3-1.5-10.3-1.5-10.3-1.5-10.9-1.5zm-13.6 0v10.3h-10.6v-10.3zm-83.2 188.5v-10.3h10.6v10.3zm10.6 1.5v10.3h-10.6v-10.3zm-10.6-13.4v-10.3h10.6v10.3zm0-11.9v-10.3h10.6v10.3zm0-11.9v-10.3h10.6v10.3zm0-11.8v-10.3h10.6v10.3zm0-11.9v-10.3h10.6v10.3zm0-11.9v-10.3h10.6v10.3zm0-11.9v-10.3h10.6v10.3zm0-11.8v-10.3h10.6v10.3zm0-11.9v-10.3h10.6v10.3zm-1.5 0h-10.6v-10.3h10.6zm0 1.5v10.3h-10.6v-10.3zm0 11.9v10.3h-10.6v-10.3zm0 11.9v10.3h-10.6v-10.3zm0 11.9v10.3h-10.6v-10.3zm0 11.8v10.3h-10.6v-10.3zm0 11.9v10.3h-10.6v-10.3zm0 11.9v10.3h-10.6v-10.3zm0 11.9v10.3h-10.6v-10.3zm0 11.8v10.3h-10.6v-10.3zm0 11.9v10.3h-10.6v-10.3zm0 11.9v10.3h-10.6v-10.3zm1.5 0h10.6v10.3h-10.6zm12.1 0h10.6v10.3h-10.6zm0-1.6v-10.3h10.6v10.3zm0-11.8v-10.3h10.6v10.3zm0-11.9v-10.3h10.6v10.3zm0-11.9v-10.3h10.6v10.3zm0-11.9v-10.3h10.6v10.3zm0-11.8v-10.3h10.6v10.3zm0-11.9v-10.3h10.6v10.3zm0-11.9v-10.3h10.6v10.3zm0-11.9v-10.3h10.6v10.3zm0-11.8v-10.3h10.6v10.3zm0-11.9v-10.3h10.6v10.3zm0-11.9v-10.3h10.6v10.3zm-1.5 0h-10.6v-10.3h10.6zm-12.1 0h-10.6v-10.3h10.6zm-12.1 0h-10.6v-10.3h10.6zm0 1.6v10.3h-10.6v-10.3zm0 11.8v10.3h-10.6v-10.3zm0 11.9v10.3h-10.6v-10.3zm0 11.9v10.3h-10.6v-10.3zm0 11.9v10.3h-10.6v-10.3zm0 11.8v10.3h-10.6v-10.3zm0 11.9v10.3h-10.6v-10.3zm0 11.9v10.3h-10.6v-10.3zm0 11.9v10.3h-10.6v-10.3zm0 11.8v10.3h-10.6v-10.3zm0 11.9v10.3h-10.6v-10.3zm0 11.9v10.3h-10.6v-10.3zm0 11.9v10.3h-10.6v-10.3zm1.5 0h10.6v10.3h-10.6zm12.1 0h10.6v10.3h-10.6zm12.1 0h10.6v10.3h-10.6zm12.1 0h10.6v10.3h-10.6zm0-1.6v-10.3h10.6v10.3zm0-11.9v-10.3h10.6v10.3zm0-11.8v-10.3h10.6v10.3zm0-11.9v-10.3h10.6v10.3zm0-11.9v-10.3h10.6v10.3zm0-11.9v-10.3h10.6v10.3zm0-11.8v-10.3h10.6v10.3zm0-11.9v-10.3h10.6v10.3zm0-11.9v-10.3h10.6v10.3zm0-11.9v-10.3h10.6v10.3zm0-11.8v-10.3h10.6v10.3zm0-11.9v-10.3h10.6v10.3zm0-11.9v-10.3h10.6v10.3zm0-11.9v-10.3h10.6v10.3zm-1.5 0h-10.6v-10.3h10.6zm-12.1 0h-10.6v-10.3h10.6zm-12.1 0h-10.6v-10.3h10.6zm-12.1 0h-10.6v-10.3h10.6zm-12.1 0h-10.6v-10.3h10.6zm0 1.6v10.3h-10.6v-10.3zm0 11.9v10.3h-10.6v-10.3zm0 11.8v10.3h-10.6v-10.3zm0 11.9v10.3h-10.6v-10.3zm0 11.9v10.3h-10.6v-10.3zm0 11.9v10.3h-10.6v-10.3zm0 11.8v10.3h-10.6v-10.3zm0 11.9v10.3h-10.6v-10.3zm0 11.9v10.3h-10.6v-10.3zm0 11.9v10.3h-10.6v-10.3zm0 11.8v10.3h-10.6v-10.3zm0 11.9v10.3h-10.6v-10.3zm0 11.9v10.3h-10.6v-10.3zm0 11.9v10.3h-10.6v-10.3zm0 11.8v10.3h-10.6v-10.3zm1.5 0h10.6v10.3h-10.6zm12.1 0h10.6v10.3h-10.6zm12.1 0h10.6v10.3h-10.6zm12.1 0h10.6v10.3h-10.6zm12.1 0h10.6v10.3h-10.6zm12.1 0h10.6v10.3h-10.6zm0-1.5v-10.3h10.6v10.3zm0-11.9v-10.3h10.6v10.3zm0-11.9v-10.3h10.6v10.3zm0-11.8v-10.3h10.6v10.3zm0-11.9v-10.3h10.6v10.3zm0-11.9v-10.3h10.6v10.3zm0-11.9v-10.3h10.6v10.3zm0-11.8v-10.3h10.6v10.3zm0-11.9v-10.3h10.6v10.3zm0-11.9v-10.3h10.6v10.3zm0-11.9v-10.3h10.6v10.3zm0-11.8v-10.3h10.6v10.3zm0-11.9v-10.3h10.6v10.3zm0-11.9v-10.3h10.6v10.3zm0-11.9v-10.3h10.6v10.3zm0-11.8v-10.3h10.6v10.3zm-1.5 0h-10.6v-10.3h10.6zm-12.1 0h-10.6v-10.3h10.6zm-12.1 0h-10.6v-10.3h10.6zm-12.1 0h-10.6v-10.3h10.6zm-12.1 0h-10.6v-10.3h10.6zm-12.1 0h-10.6v-10.3h10.6zm-12.1 0h-10.6v-10.3h10.6zm0 1.5v10.3h-10.6v-10.3zm0 11.9v10.3h-10.6v-10.3zm0 11.9v10.3h-10.6v-10.3zm0 11.8v10.3h-10.6v-10.3zm0 11.9v10.3h-10.6v-10.3zm0 11.9v10.3h-10.6v-10.3zm0 11.9v10.3h-10.6v-10.3zm0 11.8v10.3h-10.6v-10.3zm0 11.9v10.3h-10.6v-10.3zm0 11.9v10.3h-10.6v-10.3zm0 11.9v10.3h-10.6v-10.3zm0 11.8v10.3h-10.6v-10.3zm0 11.9v10.3h-10.6v-10.3zm0 11.9v10.3h-10.6v-10.3zm0 11.9v10.3h-10.6v-10.3zm0 11.8v10.3h-10.6v-10.3zm0 11.9v10.3h-10.6v-10.3zm1.5 0h10.6v10.3h-10.6zm12.1 0h10.6v10.3h-10.6zm12.1 0h10.6v10.3h-10.6zm12.1 0h10.6v10.3h-10.6zm12.1 0h10.6v10.3h-10.6zm12.1 0h10.6v10.3h-10.6zm12.1 0h10.6v10.3h-10.6zm12.1 0h10.6v10.3h-10.6zm0-1.5v-10.3h10.6v10.3zm0-11.9v-10.3h10.6v10.3zm0-11.9v-10.3h10.6v10.3zm0-11.9v-10.3h10.6v10.3zm0-11.8v-10.3h10.6v10.3zm0-11.9v-10.3h10.6v10.3zm0-11.9v-10.3h10.6v10.3zm0-11.9v-10.3h10.6v10.3zm0-11.8v-10.3h10.6v10.3zm0-11.9v-10.3h10.6v10.3zm0-11.9v-10.3h10.6v10.3zm0-11.9v-10.3h10.6v10.3zm0-11.8v-10.3h10.6v10.3zm0-11.9v-10.3h10.6v10.3zm0-11.9v-10.3h10.6v10.3zm0-11.9v-10.3h10.6v10.3zm0-11.8v-10.3h10.6v10.3zm0-11.9v-10.3h10.6v10.3zm-1.5 0h-10.6v-10.3h10.6zm-12.1 0h-10.6v-10.3h10.6zm-12.1 0h-10.6v-10.3h10.6zm-12.1 0h-10.6v-10.3h10.6zm-12.1 0h-10.6v-10.3h10.6zm-12.1 0h-10.6v-10.3h10.6zm-12.1 0h-10.6v-10.3h10.6zm-12.1 0h-10.6v-10.3h10.6zm-12.1 0h-10.6v-10.3h10.6zm0 1.5v10.3h-10.6v-10.3zm0 11.9v10.3h-10.6v-10.3zm0 11.9v10.3h-10.6v-10.3zm0 11.9v10.3h-10.6v-10.3zm0 11.8v10.3h-10.6v-10.3zm0 11.9v10.3h-10.6v-10.3zm0 11.9v10.3h-10.6v-10.3zm0 11.9v10.3h-10.6v-10.3zm0 11.8v10.3h-10.6v-10.3zm0 11.9v10.3h-10.6v-10.3zm0 11.9v10.3h-10.6v-10.3zm0 11.9v10.3h-10.6v-10.3zm0 11.8v10.3h-10.6v-10.3zm0 11.9v10.3h-10.6v-10.3zm0 11.9v10.3h-10.6v-10.3zm0 11.9v10.3h-10.6v-10.3zm0 11.8v10.3h-10.6v-10.3zm0 11.9v10.3h-10.6v-10.3zm0 11.9v10.3h-10.6v-10.3zm1.5 0h10.6v10.3h-10.6zm12.1 0h10.6v10.3h-10.6zm12.1 0h10.6v10.3h-10.6zm12.1 0h10.6v10.3h-10.6zm12.1 0h10.6v10.3h-10.6zm12.1 0h10.6v10.3h-10.6zm12.1 0h10.6v10.3h-10.6zm12.1 0h10.6v10.3h-10.6zm12.1 0h10.6v10.3h-10.6zm12.1 0h10.6v10.3h-10.6zm0-1.6v-10.3h10.6v10.3zm0-11.8v-10.3h10.6v10.3zm0-11.9v-10.3h10.6v10.3zm0-11.9v-10.3h10.6v10.3zm0-11.9v-10.3h10.6v10.3zm0-11.8v-10.3h10.6v10.3zm0-11.9v-10.3h10.6v10.3zm0-11.9v-10.3h10.6v10.3zm0-11.9v-10.3h10.6v10.3zm0-11.8v-10.3h10.6v10.3zm0-11.9v-10.3h10.6v10.3zm0-11.9v-10.3h10.6v10.3zm0-11.9v-10.3h10.6v10.3zm0-11.8v-10.3h10.6v10.3zm0-11.9v-10.3h10.6v10.3zm0-11.9v-10.3h10.6v10.3zm0-11.9v-10.3h10.6v10.3zm0-11.8v-10.3h10.6v10.3zm0-11.9v-10.3h10.6v10.3zm0-11.9v-10.3h10.6v10.3zm-1.5 0h-10.6v-10.3h10.6zm-12.1 0h-10.6v-10.3h10.6zm-12.1 0h-10.6v-10.3h10.6zm-12.1 0h-10.6v-10.3h10.6zm-12.1 0h-10.6v-10.3h10.6zm-12.1 0h-10.6v-10.3h10.6zm-12.1 0h-10.6v-10.3h10.6zm-12.1 0h-10.6v-10.3h10.6zm-12.1 0h-10.6v-10.3h10.6zm-12.1 0h-10.6v-10.3h10.6zm-12.1 0h-10.6v-10.3h10.6zm0 1.6v10.3h-10.6v-10.3zm0 11.8v10.3h-10.6v-10.3zm0 11.9v10.3h-10.6v-10.3zm0 11.9v10.3h-10.6v-10.3zm0 11.9v10.3h-10.6v-10.3zm0 11.8v10.3h-10.6v-10.3zm0 11.9v10.3h-10.6v-10.3zm0 11.9v10.3h-10.6v-10.3zm0 11.9v10.3h-10.6v-10.3zm0 11.8v10.3h-10.6v-10.3zm0 11.9v10.3h-10.6v-10.3zm0 11.9v10.3h-10.6v-10.3zm0 11.9v10.3h-10.6v-10.3zm0 11.8v10.3h-10.6v-10.3zm0 11.9v10.3h-10.6v-10.3zm0 11.9v10.3h-10.6v-10.3zm0 11.9v10.3h-10.6v-10.3zm0 11.8v10.3h-10.6v-10.3zm0 11.9v10.3h-10.6v-10.3zm0 11.9v10.3h-10.6v-10.3zm0 11.9v10.3h-10.6v-10.3zm1.5 0h10.6v10.3h-10.6zm12.1 0h10.6v10.3h-10.6zm12.1 0h10.6v10.3h-10.6zm12.1 0h10.6v10.3h-10.6zm12.1 0h10.6v10.3h-10.6zm12.1 0h10.6v10.3h-10.6zm12.1 0h10.6v10.3h-10.6zm12.1 0h10.6v10.3h-10.6zm12.1 0h10.6v10.3h-10.6zm12.1 0h10.6v10.3h-10.6zm12.1 0h10.6v10.3h-10.6zm12.1 0h10.6v10.3h-10.6zm0-1.6v-10.3h10.6v10.3zm0-11.9v-10.3h10.6v10.3zm0-11.8v-10.3h10.6v10.3zm0-11.9v-10.3h10.6v10.3zm0-11.9v-10.3h10.6v10.3zm0-11.9v-10.3h10.6v10.3zm0-11.8v-10.3h10.6v10.3zm0-11.9v-10.3h10.6v10.3zm0-11.9v-10.3h10.6v10.3zm0-11.9v-10.3h10.6v10.3zm0-11.8v-10.3h10.6v10.3zm0-11.9v-10.3h10.6v10.3zm0-11.9v-10.3h10.6v10.3zm0-11.9v-10.3h10.6v10.3zm0-11.8v-10.3h10.6v10.3zm0-11.9v-10.3h10.6v10.3zm0-11.9v-10.3h10.6v10.3zm0-11.9v-10.3h10.6v10.3zm0-11.8v-10.3h10.6v10.3zm0-11.9v-10.3h10.6v10.3zm0-11.9v-10.3h10.6v10.3zm-1.5-22.2v10.3h-10.6v-10.3zm-12.1 0v10.3h-10.6v-10.3zm-12.1 0v10.3h-10.6v-10.3zm-12.1 0v10.3h-10.6v-10.3zm-12.1 0v10.3h-10.6v-10.3zm-12.1 0v10.3h-10.6v-10.3zm-12.1 0v10.3h-10.6v-10.3zm-12.1 0v10.3h-10.6v-10.3zm-12.1 0v10.3h-10.6v-10.3zm-12.1 0v10.3h-10.6v-10.3zm-12.1 0v10.3h-10.6v-10.3zm-12.1 0v10.3h-10.6v-10.3zm-22.7 0h10.6v10.3h-10.6zm0 11.9h10.6v10.3h-10.6zm0 11.9h10.6v10.3h-10.6zm0 11.8h10.6v10.3h-10.6zm0 11.9h10.6v10.3h-10.6zm0 11.9h10.6v10.3h-10.6zm0 11.9h10.6v10.3h-10.6zm0 11.8h10.6v10.3h-10.6zm0 11.9h10.6v10.3h-10.6zm0 11.9h10.6v10.3h-10.6zm0 11.9h10.6v10.3h-10.6zm0 11.8h10.6v10.3h-10.6zm0 11.9h10.6v10.3h-10.6zm0 11.9h10.6v10.3h-10.6zm0 11.9h10.6v10.3h-10.6zm0 11.8h10.6v10.3h-10.6zm0 11.9h10.6v10.3h-10.6zm0 11.9h10.6v10.3h-10.6zm0 11.9h10.6v10.3h-10.6zm0 11.8h10.6v10.3h-10.6zm0 11.9h10.6v10.3h-10.6zm0 11.9h10.6v10.3h-10.6zm0 11.9h10.6v10.3h-10.6zm180 10.3h-10.6v-10.3h10.6zm0-11.9h-10.6v-10.3h10.6zm0-11.9h-10.6v-10.3h10.6zm0-11.8h-10.6v-10.3h10.6zm0-11.9h-10.6v-10.3h10.6zm0-11.9h-10.6v-10.3h10.6zm0-11.9h-10.6v-10.3h10.6zm0-11.8h-10.6v-10.3h10.6zm0-11.9h-10.6v-10.3h10.6zm0-11.9h-10.6v-10.3h10.6zm0-11.9h-10.6v-10.3h10.6zm0-11.8h-10.6v-10.3h10.6zm0-11.9h-10.6v-10.3h10.6zm0-11.9h-10.6v-10.3h10.6zm0-11.9h-10.6v-10.3h10.6zm0-11.8h-10.6v-10.3h10.6zm0-11.9h-10.6v-10.3h10.6zm0-11.9h-10.6v-10.3h10.6zm0-11.9h-10.6v-10.3h10.6zm0-11.8h-10.6v-10.3h10.6zm0-11.9h-10.6v-10.3h10.6zm0-11.9h-10.6v-10.3h10.6zm0-11.9h-10.6v-10.3h10.6z"/></g></svg>