<svg viewBox="0 0 272.4 367.2" xmlns="http://www.w3.org/2000/svg"><path d="m23.7 367.2a23.69 23.69 0 0 1 -23.7-23.7v-319.8a23.69 23.69 0 0 1 23.7-23.7h225a23.69 23.69 0 0 1 23.7 23.7v319.8a23.69 23.69 0 0 1 -23.7 23.7z" fill="#fff"/><path d="m248.7 9.7h-225a13.87 13.87 0 0 0 -13.9 13.9v319.9a13.87 13.87 0 0 0 13.9 13.9h225a13.87 13.87 0 0 0 13.9-13.9v-319.8a14 14 0 0 0 -13.9-14z" fill="#ee3131"/><g fill="#fff"><path d="m248.7 352.5h-225a8.92 8.92 0 0 1 -8.9-8.9v-319.9a8.92 8.92 0 0 1 8.9-8.9h225a8.92 8.92 0 0 1 8.9 8.9v319.8a9 9 0 0 1 -8.9 9zm-225-333.8a4.91 4.91 0 0 0 -4.9 4.9v319.9a4.91 4.91 0 0 0 4.9 4.9h225a4.91 4.91 0 0 0 4.9-4.9v-319.8a4.91 4.91 0 0 0 -4.9-4.9h-225z"/><path d="m39.3 25a17.6 17.6 0 1 0 17.6 17.6 17.63 17.63 0 0 0 -17.6-17.6zm0 33.8a16.2 16.2 0 1 1 16.2-16.2 16.2 16.2 0 0 1 -16.2 16.2z"/><path d="m39.3 42.6a17.6 17.6 0 1 0 17.6 17.6 17.63 17.63 0 0 0 -17.6-17.6zm0 33.8a16.2 16.2 0 1 1 16.2-16.2 16.2 16.2 0 0 1 -16.2 16.2z"/><path d="m39.3 60.3a17.6 17.6 0 1 0 17.6 17.6 17.63 17.63 0 0 0 -17.6-17.6zm0 33.8a16.2 16.2 0 1 1 16.2-16.2 16.2 16.2 0 0 1 -16.2 16.2z"/><path d="m39.3 77.9a17.6 17.6 0 1 0 17.6 17.6 17.63 17.63 0 0 0 -17.6-17.6zm0 33.8a16.2 16.2 0 1 1 16.2-16.2 16.2 16.2 0 0 1 -16.2 16.2z"/><path d="m39.3 95.5a17.6 17.6 0 1 0 17.6 17.6 17.63 17.63 0 0 0 -17.6-17.6zm0 33.8a16.2 16.2 0 1 1 16.2-16.2 16.2 16.2 0 0 1 -16.2 16.2z"/><path d="m39.3 113.1a17.6 17.6 0 1 0 17.6 17.6 17.63 17.63 0 0 0 -17.6-17.6zm0 33.8a16.2 16.2 0 1 1 16.2-16.2 16.2 16.2 0 0 1 -16.2 16.2z"/><path d="m39.3 130.7a17.6 17.6 0 1 0 17.6 17.6 17.63 17.63 0 0 0 -17.6-17.6zm0 33.8a16.2 16.2 0 1 1 16.2-16.2 16.2 16.2 0 0 1 -16.2 16.2z"/><path d="m39.3 148.4a17.6 17.6 0 1 0 17.6 17.6 17.63 17.63 0 0 0 -17.6-17.6zm0 33.7a16.2 16.2 0 1 1 16.2-16.2 16.2 16.2 0 0 1 -16.2 16.2z"/><path d="m39.3 166a17.6 17.6 0 1 0 17.6 17.6 17.63 17.63 0 0 0 -17.6-17.6zm0 33.8a16.2 16.2 0 1 1 16.2-16.2 16.2 16.2 0 0 1 -16.2 16.2z"/><path d="m39.3 183.6a17.6 17.6 0 1 0 17.6 17.6 17.63 17.63 0 0 0 -17.6-17.6zm0 33.8a16.2 16.2 0 1 1 16.2-16.2 16.2 16.2 0 0 1 -16.2 16.2z"/><path d="m39.3 201.2a17.6 17.6 0 1 0 17.6 17.6 17.63 17.63 0 0 0 -17.6-17.6zm0 33.8a16.2 16.2 0 1 1 16.2-16.2 16.2 16.2 0 0 1 -16.2 16.2z"/><path d="m39.3 218.8a17.6 17.6 0 1 0 17.6 17.6 17.63 17.63 0 0 0 -17.6-17.6zm0 33.8a16.2 16.2 0 1 1 16.2-16.2 16.2 16.2 0 0 1 -16.2 16.2z"/><path d="m39.3 236.5a17.6 17.6 0 1 0 17.6 17.6 17.63 17.63 0 0 0 -17.6-17.6zm0 33.7a16.2 16.2 0 1 1 16.2-16.2 16.2 16.2 0 0 1 -16.2 16.2z"/><path d="m39.3 254.1a17.6 17.6 0 1 0 17.6 17.6 17.63 17.63 0 0 0 -17.6-17.6zm0 33.8a16.2 16.2 0 1 1 16.2-16.2 16.2 16.2 0 0 1 -16.2 16.2z"/><path d="m39.3 271.7a17.6 17.6 0 1 0 17.6 17.6 17.63 17.63 0 0 0 -17.6-17.6zm0 33.8a16.2 16.2 0 1 1 16.2-16.2 16.2 16.2 0 0 1 -16.2 16.2z"/><path d="m39.3 289.3a17.6 17.6 0 1 0 17.6 17.6 17.63 17.63 0 0 0 -17.6-17.6zm0 33.8a16.2 16.2 0 1 1 16.2-16.2 16.2 16.2 0 0 1 -16.2 16.2z"/><path d="m56.9 25a17.6 17.6 0 1 0 17.6 17.6 17.63 17.63 0 0 0 -17.6-17.6zm0 33.8a16.2 16.2 0 1 1 16.2-16.2 16.2 16.2 0 0 1 -16.2 16.2z"/><path d="m74.5 25a17.6 17.6 0 1 0 17.6 17.6 17.63 17.63 0 0 0 -17.6-17.6zm0 33.8a16.2 16.2 0 1 1 16.2-16.2 16.2 16.2 0 0 1 -16.2 16.2z"/><path d="m92.1 25a17.6 17.6 0 1 0 17.6 17.6 17.63 17.63 0 0 0 -17.6-17.6zm0 33.8a16.2 16.2 0 1 1 16.2-16.2 16.2 16.2 0 0 1 -16.2 16.2z"/><path d="m109.7 25a17.6 17.6 0 1 0 17.6 17.6 17.63 17.63 0 0 0 -17.6-17.6zm0 33.8a16.2 16.2 0 1 1 16.2-16.2 16.2 16.2 0 0 1 -16.2 16.2z"/><path d="m127.4 25a17.6 17.6 0 1 0 17.6 17.6 17.63 17.63 0 0 0 -17.6-17.6zm0 33.8a16.2 16.2 0 1 1 16.2-16.2 16.2 16.2 0 0 1 -16.2 16.2z"/><path d="m145 25a17.6 17.6 0 1 0 17.6 17.6 17.63 17.63 0 0 0 -17.6-17.6zm0 33.8a16.2 16.2 0 1 1 16.2-16.2 16.2 16.2 0 0 1 -16.2 16.2z"/><path d="m162.6 25a17.6 17.6 0 1 0 17.6 17.6 17.63 17.63 0 0 0 -17.6-17.6zm0 33.8a16.2 16.2 0 1 1 16.2-16.2 16.2 16.2 0 0 1 -16.2 16.2z"/><path d="m180.2 25a17.6 17.6 0 1 0 17.6 17.6 17.63 17.63 0 0 0 -17.6-17.6zm0 33.8a16.2 16.2 0 1 1 16.2-16.2 16.2 16.2 0 0 1 -16.2 16.2z"/><path d="m197.8 25a17.6 17.6 0 1 0 17.6 17.6 17.63 17.63 0 0 0 -17.6-17.6zm0 33.8a16.2 16.2 0 1 1 16.2-16.2 16.2 16.2 0 0 1 -16.2 16.2z"/><path d="m215.4 25a17.6 17.6 0 1 0 17.6 17.6 17.63 17.63 0 0 0 -17.6-17.6zm0 33.8a16.2 16.2 0 1 1 16.2-16.2 16.2 16.2 0 0 1 -16.2 16.2z"/><path d="m39.3 306.9a17.6 17.6 0 1 0 17.6 17.6 17.63 17.63 0 0 0 -17.6-17.6zm0 33.8a16.2 16.2 0 1 1 16.2-16.2 16.2 16.2 0 0 1 -16.2 16.2z"/><path d="m233.1 25a17.6 17.6 0 1 0 17.6 17.6 17.63 17.63 0 0 0 -17.6-17.6zm0 33.8a16.2 16.2 0 1 1 16.2-16.2 16.2 16.2 0 0 1 -16.2 16.2z"/><path d="m233.1 42.6a17.6 17.6 0 1 0 17.6 17.6 17.63 17.63 0 0 0 -17.6-17.6zm0 33.8a16.2 16.2 0 1 1 16.2-16.2 16.2 16.2 0 0 1 -16.2 16.2z"/><path d="m233.1 60.3a17.6 17.6 0 1 0 17.6 17.6 17.63 17.63 0 0 0 -17.6-17.6zm0 33.8a16.2 16.2 0 1 1 16.2-16.2 16.2 16.2 0 0 1 -16.2 16.2z"/><path d="m233.1 77.9a17.6 17.6 0 1 0 17.6 17.6 17.63 17.63 0 0 0 -17.6-17.6zm0 33.8a16.2 16.2 0 1 1 16.2-16.2 16.2 16.2 0 0 1 -16.2 16.2z"/><path d="m233.1 95.5a17.6 17.6 0 1 0 17.6 17.6 17.63 17.63 0 0 0 -17.6-17.6zm0 33.8a16.2 16.2 0 1 1 16.2-16.2 16.2 16.2 0 0 1 -16.2 16.2z"/><path d="m233.1 113.1a17.6 17.6 0 1 0 17.6 17.6 17.63 17.63 0 0 0 -17.6-17.6zm0 33.8a16.2 16.2 0 1 1 16.2-16.2 16.2 16.2 0 0 1 -16.2 16.2z"/><path d="m233.1 130.7a17.6 17.6 0 1 0 17.6 17.6 17.63 17.63 0 0 0 -17.6-17.6zm0 33.8a16.2 16.2 0 1 1 16.2-16.2 16.2 16.2 0 0 1 -16.2 16.2z"/><path d="m233.1 148.4a17.6 17.6 0 1 0 17.6 17.6 17.63 17.63 0 0 0 -17.6-17.6zm0 33.7a16.2 16.2 0 1 1 16.2-16.2 16.2 16.2 0 0 1 -16.2 16.2z"/><path d="m233.1 166a17.6 17.6 0 1 0 17.6 17.6 17.63 17.63 0 0 0 -17.6-17.6zm0 33.8a16.2 16.2 0 1 1 16.2-16.2 16.2 16.2 0 0 1 -16.2 16.2z"/><path d="m233.1 183.6a17.6 17.6 0 1 0 17.6 17.6 17.63 17.63 0 0 0 -17.6-17.6zm0 33.8a16.2 16.2 0 1 1 16.2-16.2 16.2 16.2 0 0 1 -16.2 16.2z"/><path d="m233.1 201.2a17.6 17.6 0 1 0 17.6 17.6 17.63 17.63 0 0 0 -17.6-17.6zm0 33.8a16.2 16.2 0 1 1 16.2-16.2 16.2 16.2 0 0 1 -16.2 16.2z"/><path d="m233.1 218.8a17.6 17.6 0 1 0 17.6 17.6 17.63 17.63 0 0 0 -17.6-17.6zm0 33.8a16.2 16.2 0 1 1 16.2-16.2 16.2 16.2 0 0 1 -16.2 16.2z"/><path d="m233.1 236.5a17.6 17.6 0 1 0 17.6 17.6 17.63 17.63 0 0 0 -17.6-17.6zm0 33.7a16.2 16.2 0 1 1 16.2-16.2 16.2 16.2 0 0 1 -16.2 16.2z"/><path d="m233.1 254.1a17.6 17.6 0 1 0 17.6 17.6 17.63 17.63 0 0 0 -17.6-17.6zm0 33.8a16.2 16.2 0 1 1 16.2-16.2 16.2 16.2 0 0 1 -16.2 16.2z"/><path d="m233.1 271.7a17.6 17.6 0 1 0 17.6 17.6 17.63 17.63 0 0 0 -17.6-17.6zm0 33.8a16.2 16.2 0 1 1 16.2-16.2 16.2 16.2 0 0 1 -16.2 16.2z"/><path d="m233.1 289.3a17.6 17.6 0 1 0 17.6 17.6 17.63 17.63 0 0 0 -17.6-17.6zm0 33.8a16.2 16.2 0 1 1 16.2-16.2 16.2 16.2 0 0 1 -16.2 16.2z"/><path d="m233.1 306.9a17.6 17.6 0 1 0 17.6 17.6 17.63 17.63 0 0 0 -17.6-17.6zm0 33.8a16.2 16.2 0 1 1 16.2-16.2 16.2 16.2 0 0 1 -16.2 16.2z"/><path d="m56.9 306.9a17.6 17.6 0 1 0 17.6 17.6 17.63 17.63 0 0 0 -17.6-17.6zm0 33.8a16.2 16.2 0 1 1 16.2-16.2 16.2 16.2 0 0 1 -16.2 16.2z"/><path d="m74.5 306.9a17.6 17.6 0 1 0 17.6 17.6 17.63 17.63 0 0 0 -17.6-17.6zm0 33.8a16.2 16.2 0 1 1 16.2-16.2 16.2 16.2 0 0 1 -16.2 16.2z"/><path d="m92.1 306.9a17.6 17.6 0 1 0 17.6 17.6 17.63 17.63 0 0 0 -17.6-17.6zm0 33.8a16.2 16.2 0 1 1 16.2-16.2 16.2 16.2 0 0 1 -16.2 16.2z"/><path d="m109.7 306.9a17.6 17.6 0 1 0 17.6 17.6 17.63 17.63 0 0 0 -17.6-17.6zm0 33.8a16.2 16.2 0 1 1 16.2-16.2 16.2 16.2 0 0 1 -16.2 16.2z"/><path d="m127.4 306.9a17.6 17.6 0 1 0 17.6 17.6 17.63 17.63 0 0 0 -17.6-17.6zm0 33.8a16.2 16.2 0 1 1 16.2-16.2 16.2 16.2 0 0 1 -16.2 16.2z"/><path d="m145 306.9a17.6 17.6 0 1 0 17.6 17.6 17.63 17.63 0 0 0 -17.6-17.6zm0 33.8a16.2 16.2 0 1 1 16.2-16.2 16.2 16.2 0 0 1 -16.2 16.2z"/><path d="m162.6 306.9a17.6 17.6 0 1 0 17.6 17.6 17.63 17.63 0 0 0 -17.6-17.6zm0 33.8a16.2 16.2 0 1 1 16.2-16.2 16.2 16.2 0 0 1 -16.2 16.2z"/><path d="m180.2 306.9a17.6 17.6 0 1 0 17.6 17.6 17.63 17.63 0 0 0 -17.6-17.6zm0 33.8a16.2 16.2 0 1 1 16.2-16.2 16.2 16.2 0 0 1 -16.2 16.2z"/><path d="m197.8 306.9a17.6 17.6 0 1 0 17.6 17.6 17.63 17.63 0 0 0 -17.6-17.6zm0 33.8a16.2 16.2 0 1 1 16.2-16.2 16.2 16.2 0 0 1 -16.2 16.2z"/><path d="m215.4 306.9a17.6 17.6 0 1 0 17.6 17.6 17.63 17.63 0 0 0 -17.6-17.6zm0 33.8a16.2 16.2 0 1 1 16.2-16.2 16.2 16.2 0 0 1 -16.2 16.2z"/><path d="m66 299.5 2.5 2.5h7.1l-6.1-6.1z"/><path d="m63.5 289.7v5.1l2.5-2.5z"/><path d="m86.1 292.3-6.5-6.6-3.6 3.6 6.5 6.6z"/><path d="m86.1 299.5 2.5 2.5h7l-6-6.1z"/><path d="m76 282.1-6.5-6.6-3.5 3.5 6.5 6.7z"/><path d="m63.5 269.3v5.1l2.5-2.5z"/><path d="m106.1 292.3-6.5-6.6-3.5 3.6 6.5 6.6z"/><path d="m96.1 282.1-6.5-6.6-3.5 3.5 6.5 6.7z"/><path d="m76 261.7-6.5-6.7-3.5 3.6 6.5 6.7z"/><path d="m106.1 299.5 2.5 2.5h7.1l-6.1-6.1z"/><path d="m86.1 271.9-6.5-6.6-3.6 3.5 6.5 6.7z"/><path d="m63.5 248.9v5.1l2.5-2.5z"/><path d="m76 241.2-6.5-6.6-3.5 3.6 6.5 6.6z"/><path d="m126.1 299.5 2.6 2.5h7l-6-6.1z"/><path d="m126.1 292.3-6.5-6.6-3.5 3.6 6.5 6.6z"/><path d="m116.1 282.1-6.5-6.6-3.5 3.5 6.5 6.7z"/><path d="m96.1 261.7-6.5-6.7-3.5 3.6 6.5 6.7z"/><path d="m86.1 251.5-6.5-6.7-3.6 3.6 6.5 6.6z"/><path d="m63.5 228.5v5.1l2.5-2.6z"/><path d="m106.1 271.9-6.5-6.6-3.5 3.5 6.5 6.7z"/><path d="m63.5 208.1v5.1l2.5-2.6z"/><path d="m126.1 271.9-6.5-6.6-3.5 3.5 6.5 6.7z"/><path d="m86.1 231-6.5-6.6-3.6 3.6 6.5 6.6z"/><path d="m106.1 251.5-6.5-6.7-3.5 3.6 6.5 6.6z"/><path d="m96.1 241.2-6.5-6.6-3.5 3.6 6.5 6.6z"/><path d="m136.2 282.1-6.5-6.6-3.6 3.5 6.5 6.7z"/><path d="m76 220.8-6.5-6.6-3.5 3.6 6.5 6.6z"/><path d="m116.1 261.7-6.5-6.7-3.5 3.6 6.5 6.7z"/><path d="m146.2 299.5 2.5 2.5h7l-6-6.1z"/><path d="m146.2 292.3-6.5-6.6-3.5 3.6 6.5 6.6z"/><path d="m166.2 299.5 2.5 2.5h7.1l-6.1-6.1z"/><path d="m63.5 187.7v5.1l2.5-2.6z"/><path d="m96.1 220.8-6.5-6.6-3.5 3.6 6.5 6.6z"/><path d="m116.1 241.2-6.5-6.6-3.5 3.6 6.5 6.6z"/><path d="m106.1 231-6.5-6.6-3.5 3.6 6.5 6.6z"/><path d="m86.1 210.6-6.5-6.6-3.6 3.6 6.5 6.6z"/><path d="m156.2 282.1-6.5-6.6-3.5 3.5 6.5 6.7z"/><path d="m166.2 292.3-6.5-6.6-3.5 3.6 6.5 6.6z"/><path d="m126.1 251.5-6.5-6.7-3.5 3.6 6.5 6.6z"/><path d="m66 197.4 6.5 6.6 3.5-3.6-6.5-6.6z"/><path d="m136.2 261.7-6.5-6.7-3.6 3.6 6.5 6.7z"/><path d="m146.2 271.9-6.5-6.6-3.5 3.5 6.5 6.7z"/><path d="m176.2 282.1-6.5-6.6-3.5 3.5 6.5 6.7z"/><path d="m156.2 261.7-6.5-6.7-3.5 3.6 6.5 6.7z"/><path d="m146.2 251.5-6.5-6.7-3.5 3.6 6.5 6.6z"/><path d="m186.3 299.5 2.5 2.5h7l-6-6.1z"/><path d="m126.1 231-6.5-6.6-3.5 3.6 6.5 6.6z"/><path d="m166.2 271.9-6.5-6.6-3.5 3.5 6.5 6.7z"/><path d="m186.3 292.3-6.5-6.6-3.6 3.6 6.5 6.6z"/><path d="m76 187.2 6.5 6.6 3.6-3.6-6.5-6.6z"/><path d="m116.1 220.8-6.5-6.6-3.5 3.6 6.5 6.6z"/><path d="m106.1 210.6-6.5-6.6-3.5 3.6 6.5 6.6z"/><path d="m66 177 6.5 6.6 3.5-3.6-6.5-6.6z"/><path d="m96.1 200.4-6.5-6.6-3.5 3.6 6.5 6.6z"/><path d="m136.2 241.2-6.5-6.6-3.6 3.6 6.5 6.6z"/><path d="m63.5 167.2v5.2l2.5-2.6z"/><path d="m206.3 292.3-6.5-6.6-3.5 3.6 6.5 6.6z"/><path d="m208.8 302v-5.1l-2.5 2.6z"/><path d="m196.3 282.1-6.5-6.6-3.5 3.5 6.5 6.7z"/><path d="m136.2 220.8-6.5-6.6-3.6 3.6 6.5 6.6z"/><path d="m176.2 261.7-6.5-6.7-3.5 3.6 6.5 6.7z"/><path d="m126.1 210.6-6.5-6.6-3.5 3.6 6.5 6.6z"/><path d="m66 156.6 6.5 6.6 3.5-3.6-6.5-6.6z"/><path d="m63.5 146.8v5.1l2.5-2.5z"/><path d="m76 166.8 6.5 6.6 3.6-3.6-6.5-6.6z"/><path d="m116.1 200.4-6.5-6.6-3.5 3.6 6.5 6.6z"/><path d="m106.1 190.2-6.5-6.6-3.5 3.6 6.5 6.6z"/><path d="m146.2 231-6.5-6.6-3.5 3.6 6.5 6.6z"/><path d="m86.1 177 6.5 6.6 3.5-3.6-6.5-6.6z"/><path d="m156.2 241.2-6.5-6.6-3.5 3.6 6.5 6.6z"/><path d="m186.3 271.9-6.5-6.6-3.6 3.5 6.5 6.7z"/><path d="m166.2 251.5-6.5-6.7-3.5 3.6 6.5 6.6z"/><path d="m96.1 166.8 6.5 6.6 3.5-3.6-6.5-6.6z"/><path d="m86.1 156.6 6.5 6.6 3.5-3.6-6.5-6.6z"/><path d="m156.2 220.8-6.5-6.6-3.5 3.6 6.5 6.6z"/><path d="m166.2 231-6.5-6.6-3.5 3.6 6.5 6.6z"/><path d="m63.5 126.4v5.1l2.5-2.5z"/><path d="m66 136.2 6.5 6.6 3.5-3.6-6.5-6.6z"/><path d="m126.1 190.2-6.5-6.6-3.5 3.6 6.5 6.6z"/><path d="m76 146.4 6.5 6.6 3.6-3.6-6.5-6.6z"/><path d="m146.2 210.6-6.5-6.6-3.5 3.6 6.5 6.6z"/><path d="m116.1 180-6.5-6.6-3.5 3.6 6.5 6.6z"/><path d="m208.8 281.6v-5.1l-2.5 2.5z"/><path d="m186.3 251.5-6.5-6.7-3.6 3.6 6.5 6.6z"/><path d="m136.2 200.4-6.5-6.6-3.6 3.6 6.5 6.6z"/><path d="m206.3 271.9-6.5-6.6-3.5 3.5 6.5 6.7z"/><path d="m196.3 261.7-6.5-6.7-3.5 3.6 6.5 6.7z"/><path d="m176.2 241.2-6.5-6.6-3.5 3.6 6.5 6.6z"/><path d="m76 125.9 6.5 6.7 3.6-3.6-6.5-6.6z"/><path d="m126.1 169.8-6.5-6.6-3.5 3.6 6.5 6.6z"/><path d="m146.2 190.2-6.5-6.6-3.5 3.6 6.5 6.6z"/><path d="m63.5 106v5.1l2.5-2.5z"/><path d="m96.1 146.4 6.5 6.6 3.5-3.6-6.5-6.6z"/><path d="m86.1 136.2 6.5 6.6 3.5-3.6-6.5-6.6z"/><path d="m66 115.7 6.5 6.7 3.5-3.6-6.5-6.6z"/><path d="m156.2 200.4-6.5-6.6-3.5 3.6 6.5 6.6z"/><path d="m196.3 241.2-6.5-6.6-3.5 3.6 6.5 6.6z"/><path d="m166.2 210.6-6.5-6.6-3.5 3.6 6.5 6.6z"/><path d="m208.8 261.2v-5.1l-2.5 2.5z"/><path d="m206.3 251.5-6.5-6.7-3.5 3.6 6.5 6.6z"/><path d="m176.2 220.8-6.5-6.6-3.5 3.6 6.5 6.6z"/><path d="m186.3 231-6.5-6.6-3.6 3.6 6.5 6.6z"/><path d="m136.2 180-6.5-6.6-3.6 3.6 6.5 6.6z"/><path d="m106.1 156.6 6.5 6.6 3.5-3.6-6.5-6.6z"/><path d="m196.3 220.8-6.5-6.6-3.5 3.6 6.5 6.6z"/><path d="m206.3 231-6.5-6.6-3.5 3.6 6.5 6.6z"/><path d="m136.2 159.6-6.5-6.6-3.6 3.6 6.5 6.6z"/><path d="m186.3 210.6-6.5-6.6-3.6 3.6 6.5 6.6z"/><path d="m176.2 200.4-6.5-6.6-3.5 3.6 6.5 6.6z"/><path d="m116.1 146.4 6.5 6.6 3.5-3.6-6.5-6.6z"/><path d="m146.2 169.8-6.5-6.6-3.5 3.6 6.5 6.6z"/><path d="m166.2 190.2-6.5-6.6-3.5 3.6 6.5 6.6z"/><path d="m208.8 240.8v-5.1l-2.5 2.5z"/><path d="m86.1 115.7 6.5 6.7 3.5-3.6-6.5-6.6z"/><path d="m156.2 180-6.5-6.6-3.5 3.6 6.5 6.6z"/><path d="m76 105.5 6.5 6.7 3.6-3.6-6.5-6.7z"/><path d="m63.5 85.6v5.1l2.5-2.5z"/><path d="m96.1 125.9 6.5 6.7 3.5-3.6-6.5-6.6z"/><path d="m106.1 136.2 6.5 6.6 3.5-3.6-6.5-6.6z"/><path d="m66 95.3 6.5 6.6 3.5-3.5-6.5-6.7z"/><path d="m63.5 65.2v5.1l2.5-2.6z"/><path d="m166.2 169.8-6.5-6.6-3.5 3.6 6.5 6.6z"/><path d="m146.2 149.4-6.5-6.6-3.5 3.6 6.5 6.6z"/><path d="m126.1 136.2 6.5 6.6 3.6-3.6-6.5-6.6z"/><path d="m116.1 125.9 6.5 6.7 3.5-3.6-6.5-6.6z"/><path d="m156.2 159.6-6.5-6.6-3.5 3.6 6.5 6.6z"/><path d="m196.3 200.4-6.5-6.6-3.5 3.6 6.5 6.6z"/><path d="m186.3 190.2-6.5-6.6-3.6 3.6 6.5 6.6z"/><path d="m86.1 95.3 6.5 6.6 3.5-3.5-6.5-6.7z"/><path d="m66 74.9 6.5 6.6 3.5-3.6-6.5-6.6z"/><path d="m96.1 105.5 6.5 6.7 3.5-3.6-6.5-6.7z"/><path d="m106.1 115.7 6.5 6.7 3.5-3.6-6.5-6.6z"/><path d="m176.2 180-6.5-6.6-3.5 3.6 6.5 6.6z"/><path d="m206.3 210.6-6.5-6.6-3.5 3.6 6.5 6.6z"/><path d="m76 85.1 6.5 6.6 3.6-3.5-6.5-6.7z"/><path d="m208.8 220.4v-5.1l-2.5 2.5z"/><path d="m166.2 149.4-6.5-6.6-3.5 3.6 6.5 6.6z"/><path d="m106.1 95.3 6.5 6.6 3.5-3.5-6.5-6.7z"/><path d="m86.1 74.9 6.5 6.6 3.5-3.6-6.5-6.6z"/><path d="m86.1 67.7-2.5-2.5h-7.1l6 6.1z"/><path d="m96.1 85.1 6.5 6.6 3.5-3.5-6.5-6.7z"/><path d="m156.2 139.2-6.5-6.6-3.5 3.6 6.5 6.6z"/><path d="m116.1 105.5 6.5 6.7 3.5-3.6-6.5-6.7z"/><path d="m126.1 115.7 6.5 6.7 3.6-3.6-6.5-6.6z"/><path d="m208.8 200v-5.2l-2.5 2.6z"/><path d="m186.3 169.8-6.5-6.6-3.6 3.6 6.5 6.6z"/><path d="m206.3 190.2-6.5-6.6-3.5 3.6 6.5 6.6z"/><path d="m176.2 159.6-6.5-6.6-3.5 3.6 6.5 6.6z"/><path d="m136.2 125.9 6.5 6.7 3.5-3.6-6.5-6.6z"/><path d="m196.3 180-6.5-6.6-3.5 3.6 6.5 6.6z"/><path d="m206.3 169.8-6.5-6.6-3.5 3.6 6.5 6.6z"/><path d="m126.1 95.3 6.5 6.6 3.6-3.5-6.5-6.7z"/><path d="m196.3 159.6-6.5-6.6-3.5 3.6 6.5 6.6z"/><path d="m166.2 129-6.5-6.6-3.5 3.5 6.5 6.7z"/><path d="m146.2 115.7 6.5 6.7 3.5-3.6-6.5-6.6z"/><path d="m136.2 105.5 6.5 6.7 3.5-3.6-6.5-6.7z"/><path d="m176.2 139.2-6.5-6.6-3.5 3.6 6.5 6.6z"/><path d="m186.3 149.4-6.5-6.6-3.6 3.6 6.5 6.6z"/><path d="m106.1 74.9 6.5 6.6 3.5-3.6-6.5-6.6z"/><path d="m106.1 67.7-2.5-2.5h-7.1l6.1 6.1z"/><path d="m208.8 179.5v-5.1l-2.5 2.6z"/><path d="m116.1 85.1 6.5 6.6 3.5-3.5-6.5-6.7z"/><path d="m208.8 159.1v-5.1l-2.5 2.6z"/><path d="m196.3 139.2-6.5-6.6-3.5 3.6 6.5 6.6z"/><path d="m176.2 118.8-6.5-6.6-3.5 3.5 6.5 6.7z"/><path d="m206.3 149.4-6.5-6.6-3.5 3.6 6.5 6.6z"/><path d="m136.2 85.1 6.5 6.6 3.5-3.5-6.5-6.7z"/><path d="m186.3 129-6.5-6.6-3.6 3.5 6.5 6.7z"/><path d="m156.2 105.5 6.5 6.7 3.5-3.6-6.5-6.7z"/><path d="m126.1 74.9 6.5 6.6 3.6-3.6-6.5-6.6z"/><path d="m126.1 67.7-2.5-2.5h-7l6 6.1z"/><path d="m146.2 95.3 6.5 6.6 3.5-3.5-6.5-6.7z"/><path d="m196.3 118.8-6.5-6.6-3.5 3.5 6.5 6.7z"/><path d="m208.8 138.7v-5.1l-2.5 2.6z"/><path d="m186.3 108.6-6.5-6.7-3.6 3.6 6.5 6.7z"/><path d="m166.2 95.3 6.5 6.6 3.5-3.5-6.5-6.7z"/><path d="m146.2 74.9 6.5 6.6 3.5-3.6-6.5-6.6z"/><path d="m146.2 67.7-2.5-2.5h-7.1l6.1 6.1z"/><path d="m156.2 85.1 6.5 6.6 3.5-3.5-6.5-6.7z"/><path d="m206.3 129-6.5-6.6-3.5 3.5 6.5 6.7z"/><path d="m206.3 108.6-6.5-6.7-3.5 3.6 6.5 6.7z"/><path d="m208.8 118.3v-5.1l-2.5 2.5z"/><path d="m166.2 74.9 6.5 6.6 3.5-3.6-6.5-6.6z"/><path d="m166.2 67.7-2.5-2.5h-7l6 6.1z"/><path d="m196.3 98.4-6.5-6.7-3.5 3.6 6.5 6.6z"/><path d="m176.2 85.1 6.5 6.6 3.6-3.5-6.5-6.7z"/><path d="m186.3 67.7-2.6-2.5h-7l6 6.1z"/><path d="m206.3 88.2-6.5-6.7-3.5 3.6 6.5 6.6z"/><path d="m186.3 74.9 6.5 6.6 3.5-3.6-6.5-6.6z"/><path d="m208.8 97.9v-5.1l-2.5 2.5z"/><path d="m208.8 77.5v-5.1l-2.5 2.5z"/><path d="m206.3 67.7-2.5-2.5h-7.1l6.1 6.1z"/><path d="m202.8 295.9-6.1 6.1h7.1l2.5-2.5 2.5-2.6v-7.2l-2.5 2.6z"/><path d="m202.8 275.5-6.5 6.6-3.5 3.6-6.5 6.6-3.6 3.6-6 6.1h7l2.6-2.5 3.5-3.6 6.5-6.6 3.5-3.6 6.5-6.7 2.5-2.5v-7.2l-2.5 2.6z"/><path d="m202.8 255-6.5 6.7-3.5 3.6-6.5 6.6-3.6 3.6-6.5 6.6-3.5 3.6-6.5 6.6-3.5 3.6-6 6.1h7l2.5-2.5 3.5-3.6 6.5-6.6 3.6-3.6 6.5-6.7 3.5-3.5 6.5-6.7 3.5-3.5 6.5-6.7 2.5-2.5v-7.2l-2.5 2.6z"/><path d="m202.8 234.6-6.5 6.6-3.5 3.6-6.5 6.7-3.6 3.5-6.5 6.7-3.5 3.6-6.5 6.6-3.5 3.6-6.5 6.6-3.5 3.6-6.5 6.6-3.5 3.6-6.1 6.1h7.1l2.5-2.5 3.5-3.6 6.5-6.6 3.5-3.6 6.5-6.7 3.5-3.5 6.5-6.7 3.6-3.5 6.5-6.7 3.5-3.6 6.5-6.6 3.5-3.6 6.5-6.6 2.5-2.5v-7.2l-2.5 2.5z"/><path d="m202.8 214.2-6.5 6.6-3.5 3.6-6.5 6.6-3.6 3.6-6.5 6.6-3.5 3.6-6.5 6.7-3.5 3.5-6.5 6.7-3.5 3.6-6.5 6.6-3.5 3.6-6.5 6.6-3.6 3.6-6.5 6.6-3.5 3.6-6 6.1h7l2.5-2.5 3.6-3.6 6.5-6.6 3.5-3.6 6.5-6.7 3.5-3.5 6.5-6.7 3.5-3.5 6.5-6.7 3.5-3.6 6.5-6.6 3.6-3.6 6.5-6.6 3.5-3.6 6.5-6.6 3.5-3.6 6.5-6.6 2.5-2.5v-7.2l-2.5 2.5z"/><path d="m202.8 193.8-6.5 6.6-3.5 3.6-6.5 6.6-3.6 3.6-6.5 6.6-3.5 3.6-6.5 6.6-3.5 3.6-6.5 6.6-3.5 3.6-6.5 6.7-3.5 3.5-6.5 6.7-3.6 3.6-6.5 6.6-3.5 3.6-6.5 6.6-3.5 3.6-6.5 6.6-3.5 3.6-6.1 6.1h7.1l2.5-2.5 3.5-3.6 6.5-6.6 3.5-3.6 6.5-6.7 3.6-3.5 6.5-6.7 3.5-3.5 6.5-6.7 3.5-3.6 6.5-6.6 3.5-3.6 6.5-6.6 3.5-3.6 6.5-6.6 3.6-3.6 6.5-6.6 3.5-3.6 6.5-6.6 3.5-3.6 6.5-6.6 2.5-2.6v-7.1l-2.5 2.5z"/><path d="m202.8 173.4-6.5 6.6-3.5 3.6-6.5 6.6-3.6 3.6-6.5 6.6-3.5 3.6-6.5 6.6-3.5 3.6-6.5 6.6-3.5 3.6-6.5 6.6-3.5 3.6-6.5 6.6-3.6 3.6-6.5 6.7-3.5 3.5-6.5 6.7-3.5 3.6-6.5 6.6-3.5 3.6-6.5 6.6-3.5 3.6-6.5 6.6-3.6 3.6-6 6.1h7.1l2.5-2.5 3.5-3.6 6.5-6.6 3.5-3.6 6.5-6.7 3.5-3.5 6.5-6.7 3.5-3.5 6.5-6.7 3.6-3.6 6.5-6.6 3.5-3.6 6.5-6.6 3.5-3.6 6.5-6.6 3.5-3.6 6.5-6.6 3.5-3.6 6.5-6.6 3.6-3.6 6.5-6.6 3.5-3.6 6.5-6.6 3.5-3.6 6.5-6.6 2.5-2.6v-7.2l-2.5 2.6z"/><path d="m202.8 153-6.5 6.6-3.5 3.6-6.5 6.6-3.6 3.6-6.5 6.6-3.5 3.6-6.5 6.6-3.5 3.6-6.5 6.6-3.5 3.6-6.5 6.6-3.5 3.6-6.5 6.6-3.6 3.6-6.5 6.6-3.5 3.6-6.5 6.6-3.5 3.6-6.5 6.7-3.5 3.5-6.5 6.7-3.5 3.6-6.5 6.6-3.6 3.6-6.5 6.6-3.5 3.6-6.5 6.6-2.5 2.5v7.2l2.5-2.5 3.5-3.6 6.5-6.6 3.6-3.6 6.5-6.7 3.5-3.5 6.5-6.7 3.5-3.5 6.5-6.7 3.5-3.6 6.5-6.6 3.5-3.6 6.5-6.6 3.6-3.6 6.5-6.6 3.5-3.6 6.5-6.6 3.5-3.6 6.5-6.6 3.5-3.6 6.5-6.6 3.5-3.6 6.5-6.6 3.6-3.6 6.5-6.6 3.5-3.6 6.5-6.6 3.5-3.6 6.5-6.6 2.5-2.6v-7.2l-2.5 2.6z"/><path d="m202.8 132.6-6.5 6.6-3.5 3.6-6.5 6.6-3.6 3.6-6.5 6.6-3.5 3.6-6.5 6.6-3.5 3.6-6.5 6.6-3.5 3.6-6.5 6.6-3.5 3.6-6.5 6.6-3.6 3.6-6.5 6.6-3.5 3.6-6.5 6.6-3.5 3.6-6.5 6.6-3.5 3.6-6.5 6.6-3.5 3.6-6.5 6.7-3.6 3.5-6.5 6.7-3.5 3.6-6.5 6.6-2.5 2.5v7.2l2.5-2.6 3.5-3.5 6.5-6.7 3.6-3.5 6.5-6.7 3.5-3.6 6.5-6.6 3.5-3.6 6.5-6.6 3.5-3.6 6.5-6.6 3.5-3.6 6.5-6.6 3.6-3.6 6.5-6.6 3.5-3.6 6.5-6.6 3.5-3.6 6.5-6.6 3.5-3.6 6.5-6.6 3.5-3.6 6.5-6.6 3.6-3.6 6.5-6.6 3.5-3.6 6.5-6.6 3.5-3.6 6.5-6.6 2.5-2.6v-7.2l-2.5 2.6z"/><path d="m202.8 112.2-6.5 6.6-3.5 3.6-6.5 6.6-3.6 3.6-6.5 6.6-3.5 3.6-6.5 6.6-3.5 3.6-6.5 6.6-3.5 3.6-6.5 6.6-3.5 3.6-6.5 6.6-3.6 3.6-6.5 6.6-3.5 3.6-6.5 6.6-3.5 3.6-6.5 6.6-3.5 3.6-6.5 6.6-3.5 3.6-6.5 6.6-3.6 3.6-6.5 6.6-3.5 3.6-6.5 6.7-2.5 2.5v7.2l2.5-2.6 3.5-3.6 6.5-6.6 3.6-3.6 6.5-6.6 3.5-3.6 6.5-6.6 3.5-3.6 6.5-6.6 3.5-3.6 6.5-6.6 3.5-3.6 6.5-6.6 3.6-3.6 6.5-6.6 3.5-3.6 6.5-6.6 3.5-3.6 6.5-6.6 3.5-3.6 6.5-6.6 3.5-3.6 6.5-6.6 3.6-3.6 6.5-6.6 3.5-3.6 6.5-6.7 3.5-3.5 6.5-6.7 2.5-2.5v-7.2l-2.5 2.6z"/><path d="m202.8 91.7-6.5 6.7-3.5 3.5-6.5 6.7-3.6 3.6-6.5 6.6-3.5 3.6-6.5 6.6-3.5 3.6-6.5 6.6-3.5 3.6-6.5 6.6-3.5 3.6-6.5 6.6-3.6 3.6-6.5 6.6-3.5 3.6-6.5 6.6-3.5 3.6-6.5 6.6-3.5 3.6-6.5 6.6-3.5 3.6-6.5 6.6-3.6 3.6-6.5 6.6-3.5 3.6-6.5 6.6-2.5 2.6v7.2l2.5-2.6 3.5-3.6 6.5-6.6 3.6-3.6 6.5-6.6 3.5-3.6 6.5-6.6 3.5-3.6 6.5-6.6 3.5-3.6 6.5-6.6 3.5-3.6 6.5-6.6 3.6-3.6 6.5-6.6 3.5-3.6 6.5-6.6 3.5-3.6 6.5-6.6 3.5-3.6 6.5-6.6 3.5-3.6 6.5-6.7 3.6-3.5 6.5-6.7 3.5-3.5 6.5-6.7 3.5-3.6 6.5-6.6 2.5-2.5v-7.2l-2.5 2.6z"/><path d="m202.8 71.3-6.5 6.6-3.5 3.6-6.5 6.7-3.6 3.5-6.5 6.7-3.5 3.5-6.5 6.7-3.5 3.6-6.5 6.6-3.5 3.6-6.5 6.6-3.5 3.6-6.5 6.6-3.6 3.6-6.5 6.6-3.5 3.6-6.5 6.6-3.5 3.6-6.5 6.6-3.5 3.6-6.5 6.6-3.5 3.6-6.5 6.6-3.6 3.6-6.5 6.6-3.5 3.6-6.5 6.6-2.5 2.6v7.2l2.5-2.6 3.5-3.6 6.5-6.6 3.6-3.6 6.5-6.6 3.5-3.6 6.5-6.6 3.5-3.6 6.5-6.6 3.5-3.6 6.5-6.6 3.5-3.6 6.5-6.6 3.6-3.6 6.5-6.6 3.5-3.6 6.5-6.6 3.5-3.6 6.5-6.7 3.5-3.5 6.5-6.7 3.5-3.5 6.5-6.7 3.6-3.6 6.5-6.6 3.5-3.6 6.5-6.6 3.5-3.6 6.5-6.6 2.5-2.5v-7.2l-2.5 2.5z"/><path d="m69.5 193.8 6.5-6.6 3.6-3.6 6.5-6.6 3.5-3.6 6.5-6.6 3.5-3.6 6.5-6.6 3.5-3.6 6.5-6.6 3.5-3.6 6.5-6.6 3.6-3.6 6.5-6.7 3.5-3.5 6.5-6.7 3.5-3.5 6.5-6.7 3.5-3.6 6.5-6.6 3.5-3.6 6.5-6.6 3.6-3.6 6.5-6.6 3.5-3.6 6-6.1h-7l-2.5 2.5-3.6 3.6-6.5 6.6-3.5 3.6-6.5 6.7-3.5 3.5-6.5 6.7-3.5 3.5-6.5 6.7-3.5 3.6-6.5 6.6-3.6 3.6-6.5 6.6-3.5 3.6-6.5 6.6-3.5 3.6-6.5 6.6-3.5 3.6-6.5 6.6-3.5 3.6-6.5 6.6-3.6 3.6-6.5 6.6-3.5 3.6-6.5 6.6-2.5 2.6v7.2l2.5-2.6z"/><path d="m69.5 173.4 6.5-6.6 3.6-3.6 6.5-6.6 3.5-3.6 6.5-6.6 3.5-3.6 6.5-6.6 3.5-3.6 6.5-6.7 3.5-3.5 6.5-6.7 3.6-3.5 6.5-6.7 3.5-3.6 6.5-6.6 3.5-3.6 6.5-6.6 3.5-3.6 6.5-6.6 3.5-3.6 6.1-6.1h-7.1l-2.5 2.5-3.5 3.6-6.5 6.6-3.5 3.6-6.5 6.7-3.5 3.5-6.5 6.7-3.6 3.5-6.5 6.7-3.5 3.6-6.5 6.6-3.5 3.6-6.5 6.6-3.5 3.6-6.5 6.6-3.5 3.6-6.5 6.6-3.6 3.6-6.5 6.6-3.5 3.6-6.5 6.6-2.5 2.6v7.1l2.5-2.5z"/><path d="m69.5 153 6.5-6.6 3.6-3.6 6.5-6.6 3.5-3.6 6.5-6.7 3.5-3.5 6.5-6.7 3.5-3.5 6.5-6.7 3.5-3.6 6.5-6.6 3.6-3.6 6.5-6.6 3.5-3.6 6.5-6.6 3.5-3.6 6-6.1h-7l-2.5 2.5-3.5 3.6-6.5 6.6-3.6 3.6-6.5 6.7-3.5 3.5-6.5 6.7-3.5 3.5-6.5 6.7-3.5 3.6-6.5 6.6-3.5 3.6-6.5 6.6-3.6 3.6-6.5 6.6-3.5 3.6-6.5 6.6-2.5 2.5v7.2l2.5-2.5z"/><path d="m69.5 132.6 6.5-6.7 3.6-3.5 6.5-6.7 3.5-3.5 6.5-6.7 3.5-3.6 6.5-6.6 3.5-3.6 6.5-6.6 3.5-3.6 6.5-6.6 3.6-3.6 6-6.1h-7l-2.6 2.5-3.5 3.6-6.5 6.6-3.5 3.6-6.5 6.7-3.5 3.5-6.5 6.7-3.5 3.5-6.5 6.7-3.6 3.6-6.5 6.6-3.5 3.6-6.5 6.6-2.5 2.5v7.2l2.5-2.5z"/><path d="m69.5 112.2 6.5-6.7 3.6-3.6 6.5-6.6 3.5-3.6 6.5-6.6 3.5-3.6 6.5-6.6 3.5-3.6 6.1-6.1h-7.1l-2.5 2.5-3.5 3.6-6.5 6.6-3.5 3.6-6.5 6.7-3.6 3.5-6.5 6.7-3.5 3.5-6.5 6.7-2.5 2.5v7.2l2.5-2.6z"/><path d="m69.5 91.7 6.5-6.6 3.6-3.6 6.5-6.6 3.5-3.6 6-6.1h-7l-2.5 2.5-3.6 3.6-6.5 6.6-3.5 3.6-6.5 6.7-2.5 2.5v7.2l2.5-2.6z"/><path d="m69.5 71.3 6.1-6.1h-7.1l-2.5 2.5-2.5 2.6v7.2l2.5-2.6z"/></g></svg>