<svg width="210" height="211" viewBox="0 0 210 211" fill="none" xmlns="http://www.w3.org/2000/svg">
<g style="mix-blend-mode:multiply">
<g style="mix-blend-mode:multiply" opacity="0.687">
<path d="M209.27 107.638C209.269 128.041 203.217 147.985 191.881 164.948C180.544 181.911 164.432 195.132 145.582 202.938C126.732 210.744 105.99 212.785 85.9799 208.803C65.9697 204.821 47.5897 194.995 33.1641 180.567C18.7385 166.139 8.91522 147.757 4.93655 127.747C0.95788 107.736 3.00249 86.9944 10.8118 68.1456C18.6211 49.2967 31.8444 33.1869 48.8095 21.8533C65.7746 10.5197 85.7195 4.47136 106.122 4.47314C119.669 4.47341 133.083 7.14215 145.599 12.327C158.114 17.5118 169.486 25.1112 179.064 34.6911C188.643 44.271 196.24 55.6439 201.423 68.1602C206.606 80.6765 209.272 94.0912 209.27 107.638Z" fill="#8F8F8F"/>
</g>
<g style="mix-blend-mode:multiply" opacity="0.693">
<path d="M209.113 107.543C209.113 127.915 203.072 147.829 191.754 164.768C180.436 181.706 164.349 194.908 145.527 202.704C126.706 210.499 105.996 212.538 86.0155 208.563C66.0352 204.588 47.6824 194.778 33.2779 180.372C18.8735 165.966 9.06436 147.613 5.0911 127.632C1.11784 107.651 3.15887 86.9412 10.9561 68.1206C18.7533 49.2999 31.9565 33.2142 48.8959 21.8975C65.8354 10.5808 85.7502 4.54143 106.122 4.54321C119.648 4.54295 133.041 7.20701 145.537 12.3833C158.034 17.5595 169.388 25.1466 178.951 34.7112C188.515 44.2758 196.101 55.6306 201.276 68.1272C206.452 80.6238 209.115 94.0174 209.113 107.543Z" fill="#8E8E8E"/>
</g>
<g style="mix-blend-mode:multiply" opacity="0.699">
<path d="M208.957 107.447C208.959 127.788 202.928 147.674 191.629 164.588C180.329 181.501 164.267 194.685 145.474 202.47C126.681 210.255 106.002 212.292 86.0514 208.324C66.1008 204.356 47.7749 194.561 33.3914 180.178C19.0079 165.794 9.21274 147.468 5.24477 127.518C1.2768 107.567 3.31421 86.8879 11.0993 68.0952C18.8845 49.3026 32.0677 33.2406 48.9816 21.9407C65.8956 10.6407 85.7807 4.61028 106.122 4.61206C133.395 4.61498 159.55 15.4503 178.834 34.735C198.119 54.0196 208.954 80.1744 208.957 107.447Z" fill="#8D8D8D"/>
</g>
<g style="mix-blend-mode:multiply" opacity="0.706">
<path d="M208.8 107.36C208.8 127.67 202.777 147.524 191.494 164.411C180.21 181.298 164.172 194.46 145.408 202.231C126.643 210.003 105.996 212.036 86.0765 208.073C66.1569 204.11 47.8599 194.33 33.4992 179.968C19.1385 165.606 9.35926 147.308 5.39808 127.388C1.43689 107.468 3.47172 86.8207 11.2452 68.0572C19.0188 49.2938 32.1818 33.2569 49.0698 21.9746C65.9578 10.6923 85.8121 4.67132 106.122 4.6731C133.355 4.67442 159.472 15.4939 178.728 34.7514C197.984 54.0089 208.801 80.127 208.8 107.36Z" fill="#8C8C8C"/>
</g>
<g style="mix-blend-mode:multiply" opacity="0.712">
<path d="M208.644 107.264C208.644 127.543 202.631 147.366 191.364 164.228C180.098 181.089 164.084 194.23 145.349 201.99C126.613 209.75 105.998 211.78 86.1085 207.823C66.2194 203.867 47.9503 194.101 33.6115 179.761C19.2728 165.421 9.50838 147.151 5.55314 127.262C1.5979 107.372 3.62948 86.7568 11.391 68.0221C19.1524 49.2873 32.2952 33.2748 49.1572 22.0097C66.0193 10.7445 85.8432 4.73255 106.122 4.73413C133.314 4.73546 159.391 15.5384 178.617 34.7664C197.844 53.9945 208.645 80.0726 208.644 107.264Z" fill="#8B8B8B"/>
</g>
<g style="mix-blend-mode:multiply" opacity="0.718">
<path d="M208.487 107.169C208.488 127.417 202.485 147.209 191.237 164.045C179.989 180.88 164.001 194.002 145.295 201.751C126.589 209.5 106.005 211.527 86.1469 207.577C66.2886 203.628 48.0476 193.878 33.7306 179.561C19.4136 165.244 9.66369 147.003 5.71388 127.144C1.76407 107.286 3.79176 86.7025 11.5405 67.9966C19.2893 49.2907 32.4111 33.3028 49.2465 22.0546C66.0819 10.8064 85.8748 4.80321 106.122 4.8042C133.271 4.80579 159.307 15.5912 178.503 34.788C197.7 53.9848 208.486 80.0208 208.487 107.169Z" fill="#8A8A8A"/>
</g>
<g style="mix-blend-mode:multiply" opacity="0.724">
<path d="M208.331 107.074C208.332 127.29 202.338 147.053 191.107 163.862C179.876 180.672 163.912 193.773 145.235 201.51C126.558 209.247 106.006 211.271 86.1783 207.327C66.3505 203.384 48.1376 193.649 33.8426 179.354C19.5476 165.059 9.81266 146.846 5.86887 127.018C1.92509 107.19 3.94959 86.6383 11.6863 67.9612C19.4231 49.284 32.5246 33.3206 49.3341 22.0896C66.1435 10.8586 85.9059 4.86444 106.122 4.86523C133.229 4.86683 159.225 15.6358 178.393 34.8033C197.561 53.9709 208.329 79.9672 208.331 107.074Z" fill="#898989"/>
</g>
<g style="mix-blend-mode:multiply" opacity="0.73">
<path d="M208.178 106.986C208.177 127.171 202.191 146.902 190.976 163.684C179.762 180.466 163.822 193.546 145.174 201.27C126.526 208.994 106.006 211.014 86.209 207.075C66.4124 203.137 48.2282 193.417 33.9559 179.144C19.6837 164.871 9.96427 146.686 6.02682 126.889C2.08937 107.093 4.11071 86.5728 11.8352 67.9248C19.5598 49.2767 32.6405 33.3381 49.4235 22.1242C66.2064 10.9104 85.9376 4.92505 106.122 4.92505C119.525 4.92452 132.797 7.56409 145.179 12.693C157.562 17.8219 168.813 25.3397 178.29 34.8172C187.767 44.2946 195.284 55.5459 200.412 67.9288C205.54 80.3116 208.179 93.5833 208.178 106.986Z" fill="#888888"/>
</g>
<g style="mix-blend-mode:multiply" opacity="0.736">
<path d="M208.009 106.89C208.01 127.045 202.034 146.747 190.837 163.505C179.64 180.264 163.725 193.325 145.105 201.038C126.484 208.751 105.995 210.769 86.2276 206.837C66.4603 202.904 48.303 193.199 34.052 178.946C19.8011 164.694 10.0966 146.536 6.16579 126.769C2.23502 107.001 4.25454 86.5117 11.969 67.8918C19.6834 49.272 32.7462 33.358 49.5054 22.1624C66.2645 10.9668 85.9673 4.99255 106.122 4.99512C119.503 4.99525 132.752 7.63099 145.114 12.7518C157.476 17.8727 168.708 25.3783 178.17 34.8403C187.631 44.3022 195.135 55.535 200.255 67.8973C205.375 80.2597 208.01 93.5095 208.009 106.89Z" fill="#878787"/>
</g>
<g style="mix-blend-mode:multiply" opacity="0.742">
<path d="M207.855 106.795C207.855 126.917 201.888 146.588 190.708 163.319C179.529 180.05 163.639 193.09 145.048 200.79C126.458 208.491 106.001 210.505 86.2655 206.579C66.5299 202.653 48.4018 192.962 34.1735 178.733C19.9453 164.504 10.2561 146.376 6.33115 126.64C2.40621 106.904 4.42184 86.4474 12.1231 67.8572C19.8244 49.2669 32.8655 33.3779 49.5972 22.1993C66.3289 11.0208 85.9997 5.05497 106.122 5.05615C119.482 5.05536 132.712 7.68643 145.056 12.7991C157.399 17.9117 168.615 25.4058 178.062 34.8534C187.509 44.301 195.002 55.517 200.114 67.8608C205.226 80.2047 207.857 93.4347 207.855 106.795Z" fill="#868686"/>
</g>
<g style="mix-blend-mode:multiply" opacity="0.748">
<path d="M207.694 106.699C207.696 126.791 201.739 146.432 190.578 163.138C179.416 179.845 163.551 192.866 144.989 200.555C126.427 208.245 106.001 210.257 86.2956 206.338C66.5899 202.418 48.4889 192.743 34.282 178.536C20.0751 164.329 10.4004 146.228 6.48131 126.522C2.56223 106.816 4.57485 86.3904 12.2646 67.8284C19.9544 49.2664 32.976 33.4017 49.6826 22.2406C66.3891 11.0795 86.0303 5.12327 106.122 5.12524C119.461 5.12511 132.669 7.75233 144.993 12.8569C157.316 17.9614 168.513 25.4433 177.945 34.8754C187.377 44.3075 194.859 55.505 199.963 67.8286C205.068 80.1521 207.694 93.3604 207.694 106.699Z" fill="#858585"/>
</g>
<g style="mix-blend-mode:multiply" opacity="0.755">
<path d="M207.54 106.612C207.54 126.673 201.592 146.283 190.447 162.963C179.302 179.643 163.461 192.643 144.928 200.32C126.394 207.997 106 210.005 86.3251 206.091C66.65 202.177 48.5775 192.517 34.3929 178.331C20.2083 164.146 10.5489 146.073 6.63608 126.397C2.72327 106.722 4.73287 86.3283 12.4107 67.7951C20.0886 49.2619 33.0899 33.4218 49.7704 22.2778C66.4509 11.1339 86.0614 5.18665 106.122 5.18823C119.441 5.18863 132.629 7.81235 144.934 12.9096C157.239 18.0068 168.419 25.4778 177.837 34.8959C187.254 44.314 194.724 55.4948 199.821 67.7999C204.917 80.105 207.54 93.2934 207.54 106.612Z" fill="#848484"/>
</g>
<g style="mix-blend-mode:multiply" opacity="0.761">
<path d="M207.382 106.516C207.381 126.545 201.441 146.125 190.312 162.778C179.183 179.431 163.367 192.41 144.861 200.074C126.356 207.738 105.994 209.742 86.3501 205.833C66.7059 201.924 48.662 192.278 34.5001 178.114C20.3382 163.95 10.6945 145.905 6.78843 126.26C2.88237 106.616 4.88941 86.2539 12.5557 67.7498C20.2221 49.2458 33.2034 33.4306 49.8581 22.3044C66.5127 11.1781 86.0928 5.24041 106.122 5.24219C119.421 5.24284 132.589 7.86292 144.875 12.9528C157.161 18.0427 168.324 25.5028 177.727 34.907C187.13 44.3112 194.589 55.4754 199.677 67.7621C204.765 80.0489 207.383 93.2175 207.382 106.516Z" fill="#838383"/>
</g>
<g style="mix-blend-mode:multiply" opacity="0.767">
<path d="M207.226 106.43C207.225 126.427 201.294 145.975 190.184 162.601C179.073 179.228 163.282 192.186 144.807 199.838C126.332 207.49 106.003 209.492 86.3902 205.59C66.7775 201.688 48.7622 192.058 34.6225 177.918C20.4827 163.778 10.8536 145.762 6.95257 126.149C3.05159 106.536 5.05401 86.2071 12.7066 67.7323C20.3593 49.2575 33.3184 33.4668 49.9453 22.357C66.5721 11.2473 86.12 5.31734 106.117 5.31714C119.395 5.31688 132.544 7.93209 144.811 13.0135C157.079 18.0948 168.225 25.5428 177.614 34.9321C187.003 44.3214 194.45 55.4682 199.531 67.7359C204.612 80.0035 207.227 93.1519 207.226 106.43Z" fill="#828282"/>
</g>
<g style="mix-blend-mode:multiply" opacity="0.773">
<path d="M207.07 106.334C207.069 126.301 201.148 145.818 190.054 162.419C178.961 179.02 163.194 191.959 144.747 199.599C126.3 207.239 106.002 209.238 86.4194 205.342C66.8368 201.446 48.8492 191.83 34.7314 177.711C20.6136 163.592 10.9995 145.604 7.10504 126.021C3.21057 106.438 5.21056 86.1401 12.8521 67.6938C20.4937 49.2476 33.4336 33.4815 50.0355 22.3894C66.6374 11.2973 86.1556 5.37738 106.122 5.37817C119.379 5.37857 132.507 7.9902 144.755 13.0639C157.002 18.1377 168.131 25.5742 177.505 34.9489C186.879 44.3235 194.315 55.4527 199.387 67.7011C204.46 79.9494 207.071 93.0769 207.07 106.334Z" fill="#818181"/>
</g>
<g style="mix-blend-mode:multiply" opacity="0.779">
<path d="M206.904 106.239C206.902 126.174 200.989 145.66 189.913 162.234C178.836 178.808 163.094 191.725 144.676 199.352C126.258 206.979 105.992 208.974 86.4409 205.083C66.8897 201.192 48.9313 191.591 34.8367 177.494C20.7421 163.397 11.1443 145.437 7.25698 125.885C3.36968 106.333 5.3675 86.0673 12.9978 67.6509C20.628 49.2344 33.5481 33.4941 50.1241 22.4206C66.7001 11.347 86.1875 5.43743 106.122 5.43921C119.358 5.44013 132.465 8.04816 144.693 13.1144C156.921 18.1806 168.031 25.6058 177.39 34.966C186.749 44.3262 194.172 55.4381 199.236 67.6672C204.3 79.8963 206.906 93.0031 206.904 106.239Z" fill="#808080"/>
</g>
<g style="mix-blend-mode:multiply" opacity="0.785">
<path d="M206.756 106.142C206.757 126.047 200.855 145.505 189.797 162.056C178.739 178.607 163.022 191.507 144.632 199.124C126.243 206.742 106.007 208.736 86.4846 204.853C66.9621 200.97 49.0295 191.385 34.9545 177.31C20.8796 163.235 11.2946 145.302 7.41158 125.78C3.52856 106.257 5.52197 86.0214 13.1397 67.6319C20.7575 49.2423 33.6574 33.5247 50.2081 22.4667C66.7589 11.4087 86.2171 5.50707 106.122 5.50806C132.811 5.50991 158.407 16.113 177.279 34.9851C196.151 53.8573 206.754 79.4528 206.756 106.142Z" fill="#7F7F7F"/>
</g>
<g style="mix-blend-mode:multiply" opacity="0.791">
<path d="M206.591 106.055C206.589 125.928 200.695 145.354 189.653 161.876C178.611 178.399 162.917 191.276 144.557 198.88C126.196 206.483 105.993 208.471 86.5026 204.593C67.012 200.714 49.1093 191.143 35.0584 177.09C21.0074 163.036 11.4393 145.132 7.56403 125.641C3.68873 106.15 5.68028 85.9471 13.2868 67.5877C20.8934 49.2284 33.7733 33.537 50.2978 22.4978C66.8224 11.4585 86.2493 5.56731 106.122 5.56909C132.77 5.57227 158.325 16.1607 177.167 35.0053C196.008 53.8499 206.592 79.4071 206.591 106.055Z" fill="#7E7E7E"/>
</g>
<g style="mix-blend-mode:multiply" opacity="0.798">
<path d="M206.434 105.96C206.434 125.802 200.55 145.199 189.526 161.696C178.502 178.194 162.834 191.053 144.502 198.646C126.17 206.238 105.999 208.225 86.5381 204.353C67.0775 200.481 49.202 190.926 35.1722 176.895C21.1424 162.864 11.5885 144.987 7.71858 125.526C3.84869 106.065 5.83666 85.8939 13.4311 67.5627C21.0255 49.2316 33.8853 33.5643 50.3842 22.5419C66.8831 11.5196 86.28 5.63738 106.122 5.63916C119.296 5.63942 132.341 8.23455 144.512 13.2764C156.682 18.3182 167.741 25.7079 177.056 35.0236C186.371 44.3394 193.76 55.3986 198.8 67.57C203.841 79.7413 206.435 92.7863 206.434 105.96Z" fill="#7D7D7D"/>
</g>
<g style="mix-blend-mode:multiply" opacity="0.804">
<path d="M206.278 105.865C206.278 125.676 200.403 145.043 189.397 161.515C178.39 177.987 162.746 190.825 144.442 198.406C126.139 205.987 105.999 207.971 86.5685 204.105C67.1382 200.239 49.2905 190.699 35.2825 176.689C21.2745 162.68 11.7355 144.832 7.87159 125.401C4.00772 105.97 5.9926 85.8301 13.5752 67.5275C21.1579 49.2249 33.9977 33.5819 50.4709 22.5767C66.9441 11.5715 86.3109 5.69842 106.122 5.7002C119.275 5.70046 132.3 8.29155 144.452 13.3255C156.604 18.3595 167.645 25.7377 176.946 35.039C186.246 44.3402 193.623 55.3823 198.656 67.5347C203.689 79.6871 206.279 92.7118 206.278 105.865Z" fill="#7C7C7C"/>
</g>
<g style="mix-blend-mode:multiply" opacity="0.81">
<path d="M206.121 105.768C206.12 125.546 200.253 144.879 189.264 161.323C178.275 177.767 162.657 190.583 144.384 198.15C126.111 205.718 106.005 207.697 86.6072 203.838C67.2096 199.978 49.3921 190.454 35.4076 176.468C21.4232 162.483 11.8999 144.664 8.04203 125.266C4.18415 105.868 6.16495 85.7622 13.734 67.4901C21.3029 49.2179 34.1202 33.6005 50.5649 22.6127C67.0097 11.6249 86.3434 5.76025 106.121 5.76025C119.254 5.76025 132.258 8.3471 144.391 13.3731C156.524 18.399 167.549 25.7657 176.835 35.0524C186.121 44.3391 193.486 55.364 198.511 67.4975C203.536 79.6309 206.122 92.6354 206.121 105.768Z" fill="#7B7B7B"/>
</g>
<g style="mix-blend-mode:multiply" opacity="0.816">
<path d="M205.965 105.681C205.965 125.43 200.109 144.736 189.136 161.157C178.164 177.577 162.569 190.375 144.323 197.933C126.077 205.49 105.999 207.466 86.6299 203.613C67.2603 199.759 49.4686 190.248 35.5047 176.282C21.5407 162.317 12.0318 144.524 8.18037 125.154C4.32896 105.784 6.30805 85.7066 13.8674 67.4614C21.4267 49.2163 34.2267 33.6225 50.6487 22.6522C67.0707 11.6818 86.377 5.82771 106.126 5.83008C119.238 5.83087 132.221 8.41422 144.335 13.4326C156.448 18.451 167.455 25.8062 176.726 35.0782C185.996 44.3503 193.35 55.3575 198.367 67.4716C203.384 79.5856 205.966 92.5692 205.965 105.681Z" fill="#7A7A7A"/>
</g>
<g style="mix-blend-mode:multiply" opacity="0.822">
<path d="M205.8 105.586C205.798 125.302 199.95 144.575 188.995 160.967C178.04 177.359 162.47 190.135 144.254 197.678C126.038 205.222 105.995 207.194 86.6578 203.346C67.321 199.498 49.5595 190.002 35.6194 176.06C21.6793 162.117 12.1866 144.354 8.34183 125.017C4.49705 105.679 6.47284 85.6359 14.0193 67.4213C21.5658 49.2067 34.3441 33.639 50.7382 22.6867C67.1323 11.7344 86.406 5.88953 106.122 5.89111C119.213 5.89151 132.176 8.47059 144.271 13.4811C156.365 18.4916 167.354 25.8353 176.61 35.093C185.866 44.3507 193.208 55.341 198.217 67.4362C203.225 79.5315 205.802 92.4949 205.8 105.586Z" fill="#797979"/>
</g>
<g style="mix-blend-mode:multiply" opacity="0.828">
<path d="M205.652 105.49C205.651 125.176 199.813 144.42 188.875 160.788C177.938 177.155 162.392 189.912 144.204 197.445C126.017 204.978 106.004 206.948 86.696 203.107C67.3884 199.266 49.6536 189.785 35.734 175.864C21.8145 161.944 12.3355 144.208 8.49577 124.9C4.656 105.592 6.62791 85.5796 14.1621 67.3924C21.6964 49.2053 34.4545 33.6607 50.8232 22.7244C67.1919 11.7882 86.4361 5.95136 106.122 5.95215C119.193 5.95175 132.137 8.52617 144.213 13.5284C156.289 18.5306 167.262 25.8626 176.504 35.1058C185.746 44.3489 193.078 55.3221 198.079 67.3987C203.08 79.4754 205.653 92.4189 205.652 105.49Z" fill="#787878"/>
</g>
<g style="mix-blend-mode:multiply" opacity="0.834">
<path d="M205.486 105.394C205.486 125.049 199.658 144.262 188.738 160.604C177.818 176.946 162.298 189.683 144.139 197.204C125.981 204.725 106 206.692 86.723 202.857C67.4463 199.022 49.7397 189.557 35.8425 175.658C21.9453 161.76 12.4817 144.052 8.64836 124.775C4.81505 105.498 6.78425 85.5175 14.3069 67.3596C21.8296 49.2017 34.5679 33.6824 50.9109 22.7642C67.2539 11.8461 86.4675 6.01946 106.122 6.02124C132.476 6.02336 157.75 16.494 176.384 35.1298C195.018 53.7657 205.486 79.0404 205.486 105.394Z" fill="#777777"/>
</g>
<g style="mix-blend-mode:multiply" opacity="0.84">
<path d="M106.118 204.523C160.915 204.523 205.336 160.102 205.336 105.305C205.336 50.5086 160.915 6.08716 106.118 6.08716C51.3216 6.08716 6.90015 50.5086 6.90015 105.305C6.90015 160.102 51.3216 204.523 106.118 204.523Z" fill="#767676"/>
</g>
<g style="mix-blend-mode:multiply" opacity="0.847">
<path d="M205.173 105.212C205.173 124.805 199.363 143.958 188.478 160.248C177.592 176.539 162.12 189.236 144.019 196.733C125.917 204.23 105.999 206.191 86.7826 202.368C67.5665 198.544 49.9157 189.109 36.0624 175.253C22.2092 161.398 12.7756 143.746 8.95485 124.53C5.13406 105.313 7.09764 85.3951 14.5973 67.2945C22.0969 49.1938 34.7956 33.7237 51.0877 22.8404C67.3797 11.9571 86.5332 6.14953 106.126 6.1521C119.134 6.15276 132.014 8.71556 144.032 13.6942C156.049 18.6728 166.969 25.9697 176.166 35.1684C185.363 44.367 192.659 55.2871 197.636 67.3052C202.613 79.3234 205.174 92.2041 205.173 105.212Z" fill="#757575"/>
</g>
<g style="mix-blend-mode:multiply" opacity="0.853">
<path d="M205.017 105.116C205.017 124.677 199.217 143.798 188.349 160.062C177.482 176.327 162.035 189.003 143.963 196.488C125.891 203.974 106.006 205.932 86.8208 202.115C67.6359 198.299 50.0137 188.879 36.1825 175.047C22.3512 161.215 12.9323 143.592 9.11681 124.407C5.3013 105.222 7.26056 85.3367 14.7468 67.2652C22.2331 49.1937 34.9101 33.748 51.1748 22.8813C67.4395 12.0146 86.5613 6.21508 106.122 6.21606C132.351 6.21739 157.505 16.6378 176.052 35.185C194.598 53.7322 205.017 78.887 205.017 105.116Z" fill="#747474"/>
</g>
<g style="mix-blend-mode:multiply" opacity="0.859">
<path d="M204.86 105.03C204.858 124.56 199.065 143.652 188.213 159.89C177.361 176.127 161.938 188.783 143.894 196.255C125.849 203.727 105.994 205.681 86.8396 201.869C67.6849 198.057 50.0907 188.651 36.282 174.839C22.4732 161.028 13.0701 143.432 9.26165 124.277C5.45322 105.122 7.41055 85.267 14.8861 67.224C22.3617 49.181 35.0198 33.76 51.2596 22.911C67.4995 12.0621 86.5917 6.27239 106.122 6.27417C119.09 6.2743 131.931 8.82892 143.911 13.7921C155.892 18.7554 166.778 26.03 175.946 35.2005C185.115 44.3711 192.388 55.2579 197.349 67.2394C202.31 79.2209 204.862 92.0622 204.86 105.03Z" fill="#737373"/>
</g>
<g style="mix-blend-mode:multiply" opacity="0.865">
<path d="M204.704 104.933C204.703 124.432 198.92 143.492 188.087 159.704C177.254 175.916 161.856 188.551 143.842 196.012C125.827 203.473 106.005 205.425 86.8809 201.62C67.7573 197.815 50.1913 188.425 36.4044 174.637C22.6174 160.849 13.2287 143.282 9.42555 124.159C5.62236 105.035 7.5755 85.2123 15.038 67.1983C22.5004 49.1844 35.1371 33.7879 51.3499 22.9558C67.5627 12.1237 86.6236 6.34247 106.122 6.34326C119.069 6.34339 131.888 8.89365 143.849 13.8484C155.81 18.8032 166.678 26.0654 175.833 35.2204C184.987 44.3754 192.248 55.2439 197.202 67.2053C202.156 79.1666 204.705 91.9867 204.704 104.933Z" fill="#727272"/>
</g>
<g style="mix-blend-mode:multiply" opacity="0.871">
<path d="M204.547 104.838C204.547 124.307 198.774 143.338 187.957 159.526C177.141 175.714 161.767 188.33 143.78 195.78C125.793 203.23 106.001 205.179 86.9062 201.38C67.8116 197.581 50.2723 188.205 36.5065 174.438C22.7406 160.671 13.3664 143.131 9.56928 124.036C5.7722 104.941 7.72281 85.1491 15.1744 67.1628C22.626 49.1764 35.244 33.8038 51.4325 22.9888C67.6211 12.1738 86.6532 6.40227 106.122 6.40405C119.048 6.40353 131.848 8.9493 143.79 13.896C155.733 18.8427 166.584 26.0934 175.723 35.2341C184.863 44.3747 192.113 55.2263 197.058 67.1691C202.004 79.1118 204.549 91.9118 204.547 104.838Z" fill="#717171"/>
</g>
<g style="mix-blend-mode:multiply" opacity="0.877">
<path d="M204.382 104.742C204.38 124.178 198.615 143.177 187.816 159.336C177.016 175.495 161.667 188.089 143.71 195.525C125.753 202.961 105.994 204.905 86.9326 201.111C67.8707 197.317 50.3619 187.956 36.6202 174.211C22.8786 160.467 13.5214 142.956 9.73194 123.893C5.94245 104.83 7.89086 85.0718 15.3308 67.1165C22.7707 49.1611 35.368 33.8152 51.5296 23.0193C67.6912 12.2234 86.6912 6.46252 106.127 6.46509C119.032 6.4664 131.809 9.00947 143.731 13.9491C155.653 18.8887 166.485 26.1281 175.609 35.254C184.732 44.3799 191.969 55.2135 196.906 67.1363C201.843 79.0591 204.384 91.8376 204.382 104.742Z" fill="#707070"/>
</g>
<g style="mix-blend-mode:multiply" opacity="0.883">
<path d="M106.119 202.766C160.307 202.766 204.234 158.839 204.234 104.651C204.234 50.4637 160.307 6.53613 106.119 6.53613C51.9317 6.53613 8.00415 50.4637 8.00415 104.651C8.00415 158.839 51.9317 202.766 106.119 202.766Z" fill="#6F6F6F"/>
</g>
<g style="mix-blend-mode:multiply" opacity="0.89">
<path d="M204.069 104.559C204.067 123.933 198.321 142.871 187.556 158.978C176.791 175.086 161.491 187.64 143.592 195.052C125.692 202.465 105.997 204.403 86.9957 200.621C67.9946 196.84 50.5416 187.509 36.8436 173.809C23.1455 160.108 13.8177 142.654 10.0398 123.652C6.26179 104.65 8.20329 84.9551 15.6188 67.0568C23.0342 49.1586 35.5906 33.8612 51.7001 23.0991C67.8096 12.337 86.7486 6.59363 106.122 6.59522C132.102 6.59787 157.016 16.9204 175.384 35.2922C193.753 53.6639 204.071 78.5799 204.069 104.559Z" fill="#6E6E6E"/>
</g>
<g style="mix-blend-mode:multiply" opacity="0.896">
<path d="M203.913 104.464C203.913 123.807 198.177 142.717 187.43 158.8C176.683 174.883 161.408 187.418 143.537 194.82C125.666 202.222 106.001 204.159 87.0295 200.384C68.0579 196.61 50.6316 187.294 36.9545 173.616C23.2773 159.937 13.9635 142.51 10.191 123.538C6.41851 104.566 8.3567 84.9011 15.7605 67.0307C23.1643 49.1603 35.7011 33.8867 51.7855 23.1415C67.87 12.3963 86.7796 6.66209 106.123 6.66406C132.059 6.66671 156.933 16.9718 175.272 35.3126C193.611 53.6533 203.913 78.5276 203.913 104.464Z" fill="#6D6D6D"/>
</g>
<g style="mix-blend-mode:multiply" opacity="0.902">
<path d="M203.755 104.368C203.755 123.68 198.028 142.559 187.299 158.616C176.569 174.673 161.319 187.188 143.477 194.578C125.635 201.968 106.002 203.902 87.0607 200.133C68.1197 196.365 50.7216 187.065 37.0665 173.408C23.4114 159.752 14.1126 142.353 10.3461 123.412C6.57954 104.47 8.51445 84.8374 15.9061 66.9959C23.2978 49.1543 35.8142 33.9053 51.8725 23.1773C67.9309 12.4494 86.8098 6.72429 106.122 6.72607C118.944 6.72621 131.641 9.25195 143.486 14.1591C155.332 19.0662 166.096 26.2586 175.162 35.3256C184.228 44.3926 191.419 55.1566 196.325 67.0029C201.231 78.8493 203.756 91.546 203.755 104.368Z" fill="#6C6C6C"/>
</g>
<g style="mix-blend-mode:multiply" opacity="0.908">
<path d="M203.599 104.281C203.598 123.561 197.88 142.408 187.168 158.438C176.456 174.468 161.231 186.961 143.418 194.339C125.605 201.716 106.005 203.645 87.0959 199.883C68.1866 196.121 50.8176 186.836 37.1853 173.202C23.553 159.569 14.2697 142.199 10.5092 123.289C6.74876 104.38 8.68006 84.7798 16.0589 66.9679C23.4378 49.1559 35.9328 33.932 51.9639 23.2214C67.995 12.5107 86.8421 6.79437 106.122 6.79517C118.924 6.79503 131.6 9.31656 143.427 14.2158C155.254 19.1149 166 26.2959 175.052 35.3484C184.104 44.401 191.284 55.1479 196.182 66.9754C201.08 78.803 203.6 91.4795 203.599 104.281Z" fill="#6B6B6B"/>
</g>
<g style="mix-blend-mode:multiply" opacity="0.914">
<path d="M203.442 104.185C203.442 123.435 197.734 142.253 187.039 158.259C176.344 174.265 161.142 186.74 143.357 194.106C125.572 201.473 106.002 203.4 87.122 199.643C68.2417 195.887 50.8994 186.617 37.288 173.004C23.6767 159.391 14.4077 142.048 10.6533 123.168C6.89883 104.287 8.82755 84.7172 16.1955 66.9328C23.5635 49.1484 36.0398 33.9483 52.0467 23.2547C68.0535 12.5612 86.872 6.85442 106.122 6.8562C131.934 6.85779 156.688 17.1129 174.939 35.3655C193.19 53.6181 203.443 78.3733 203.442 104.185Z" fill="#6A6A6A"/>
</g>
<g style="mix-blend-mode:multiply" opacity="0.92">
<path d="M203.277 104.09C203.276 123.308 197.576 142.093 186.898 158.071C176.221 174.049 161.045 186.502 143.29 193.855C125.535 201.208 105.998 203.13 87.1503 199.38C68.3024 195.629 50.9901 186.374 37.4024 172.784C23.8147 159.194 14.5621 141.881 10.8145 123.032C7.06687 104.184 8.99267 84.6474 16.3483 66.8935C23.704 49.1396 36.1592 33.9656 52.1388 23.2905C68.1184 12.6153 86.9047 6.91839 106.122 6.92017C118.882 6.92043 131.517 9.43409 143.305 14.3176C155.093 19.2011 165.804 26.3589 174.826 35.3821C183.848 44.4053 191.004 55.1173 195.885 66.9063C200.767 78.6953 203.279 91.3304 203.277 104.09Z" fill="#696969"/>
</g>
<g style="mix-blend-mode:multiply" opacity="0.926">
<path d="M203.129 103.994C203.131 123.183 197.442 141.941 186.783 157.897C176.123 173.852 160.972 186.288 143.244 193.632C125.516 200.976 106.009 202.898 87.1885 199.155C68.3684 195.412 51.081 186.172 37.5125 172.604C23.9441 159.035 14.704 141.748 10.9609 122.928C7.21781 104.108 9.13981 84.6002 16.4838 66.8725C23.8279 49.1448 36.264 33.993 52.2196 23.3335C68.1752 12.6739 86.9335 6.98528 106.122 6.98706C131.85 6.98812 156.523 17.2088 174.715 35.4009C192.907 53.593 203.128 78.2665 203.129 103.994Z" fill="#686868"/>
</g>
<g style="mix-blend-mode:multiply" opacity="0.933">
<path d="M202.965 103.907C202.964 123.062 197.282 141.787 186.638 157.713C175.995 173.639 160.868 186.052 143.17 193.381C125.472 200.71 105.999 202.626 87.2117 198.888C68.4247 195.149 51.1683 185.923 37.6246 172.377C24.0808 158.831 14.8581 141.574 11.1226 122.786C7.38716 103.998 9.30675 84.525 16.6386 66.8284C23.9705 49.1318 36.3854 34.0068 52.3134 23.366C68.2413 12.7252 86.9669 7.04651 106.122 7.0481C118.841 7.04836 131.435 9.55399 143.186 14.4219C154.936 19.2898 165.613 26.4246 174.606 35.419C183.599 44.4133 190.732 55.091 195.598 66.8423C200.464 78.5936 202.967 91.1882 202.965 103.907Z" fill="#676767"/>
</g>
<g style="mix-blend-mode:multiply" opacity="0.939">
<path d="M202.812 103.811C202.813 122.937 197.143 141.634 186.518 157.537C175.892 173.441 160.79 185.836 143.12 193.155C125.45 200.475 106.006 202.39 87.2473 198.659C68.4887 194.928 51.2578 185.718 37.7339 172.193C24.2099 158.669 15.0002 141.438 11.2696 122.679C7.5389 103.92 9.45481 84.4767 16.775 66.8069C24.0952 49.137 36.4909 34.0348 52.3944 23.4101C68.298 12.7854 86.9951 7.11541 106.121 7.11719C131.765 7.11957 156.358 17.3078 174.49 35.441C192.623 53.5742 202.811 78.1674 202.812 103.811Z" fill="#666666"/>
</g>
<g style="mix-blend-mode:multiply" opacity="0.945">
<path d="M202.651 103.716C202.651 122.81 196.989 141.475 186.381 157.351C175.773 173.227 160.695 185.6 143.054 192.907C125.414 200.213 106.003 202.124 87.2761 198.399C68.5493 194.673 51.3479 185.478 37.8471 171.976C24.3464 158.474 15.1528 141.271 11.4288 122.544C7.70492 103.817 9.61798 84.4063 16.9261 66.7665C24.2342 49.1266 36.6091 34.0501 52.4859 23.4434C68.3627 12.8368 87.0282 7.17644 106.122 7.17822C131.724 7.18088 156.276 17.353 174.379 35.457C192.481 53.5611 202.651 78.1144 202.651 103.716Z" fill="#656565"/>
</g>
<g style="mix-blend-mode:multiply" opacity="0.951">
<path d="M202.497 103.62C202.497 122.683 196.844 141.317 186.254 157.167C175.663 173.017 160.61 185.371 142.998 192.665C125.386 199.96 106.007 201.868 87.3109 198.149C68.6147 194.43 51.4413 185.25 37.9624 171.77C24.4835 158.29 15.3046 141.116 11.5864 122.42C7.86815 103.723 9.77767 84.3439 17.0734 66.7327C24.3692 49.1215 36.7235 34.0692 52.5741 23.4795C68.4247 12.8897 87.0595 7.23807 106.122 7.23926C118.779 7.23886 131.312 9.73161 143.005 14.5751C154.698 19.4187 165.323 26.5181 174.273 35.4681C183.222 44.418 190.321 55.0432 195.164 66.7368C200.006 78.4305 202.498 90.9635 202.497 103.62Z" fill="#646464"/>
</g>
<g style="mix-blend-mode:multiply" opacity="0.957">
<path d="M202.336 103.533C202.336 122.565 196.693 141.169 186.119 156.993C175.545 172.817 160.516 185.151 142.933 192.433C125.35 199.716 106.002 201.621 87.3362 197.907C68.6703 194.194 51.5248 185.028 38.068 171.57C24.6113 158.112 15.4476 140.966 11.7359 122.299C8.02423 103.633 9.93121 84.2853 17.2157 66.7028C24.5002 49.1204 36.835 34.0929 52.6603 23.5209C68.4856 12.9489 87.0905 7.3071 106.122 7.30908C131.641 7.3112 156.114 17.4501 174.157 35.4954C192.2 53.5407 202.337 78.0145 202.336 103.533Z" fill="#636363"/>
</g>
<g style="mix-blend-mode:multiply" opacity="0.963">
<path d="M202.172 103.438C202.17 122.437 196.535 141.008 185.978 156.804C175.422 172.6 160.418 184.911 142.865 192.18C125.312 199.448 105.997 201.349 87.364 197.641C68.7307 193.932 51.6155 184.782 38.1827 171.347C24.7498 157.911 15.6027 140.794 11.898 122.16C8.19328 103.527 10.0974 84.2124 17.3695 66.6606C24.6416 49.1088 36.9551 34.1076 52.753 23.554C68.5508 13.0004 87.1233 7.36834 106.122 7.37012C131.598 7.37383 156.029 17.497 174.042 35.513C192.054 53.5289 202.173 77.9621 202.172 103.438Z" fill="#626262"/>
</g>
<g style="mix-blend-mode:multiply" opacity="0.969">
<path d="M202.025 103.341C202.025 122.311 196.4 140.855 185.86 156.628C175.321 172.4 160.341 184.693 142.815 191.952C125.289 199.211 106.004 201.11 87.3988 197.408C68.7936 193.707 51.7039 184.571 38.291 171.157C24.878 157.742 15.7442 140.651 12.0447 122.046C8.34522 103.44 10.2462 84.1553 17.5071 66.63C24.7681 49.1048 37.0629 34.1263 52.8369 23.5887C68.6108 13.0512 87.1553 7.428 106.125 7.43018C131.561 7.43283 155.953 17.5389 173.938 35.5255C191.922 53.512 202.025 77.9058 202.025 103.341Z" fill="#616161"/>
</g>
<g style="mix-blend-mode:multiply" opacity="0.975">
<path d="M201.859 103.246C201.859 122.183 196.243 140.695 185.722 156.441C175.201 172.186 160.247 184.458 142.751 191.705C125.256 198.951 106.004 200.847 87.4306 197.152C68.8574 193.457 51.7971 184.337 38.4072 170.946C25.0172 157.554 15.899 140.493 12.2056 121.92C8.51226 103.346 10.4096 84.0947 17.6578 66.5996C24.906 49.1045 37.1794 34.1516 52.9259 23.632C68.6724 13.1124 87.1848 7.49846 106.122 7.50024C118.695 7.50077 131.145 9.97774 142.76 14.7897C154.376 19.6017 164.93 26.6545 173.82 35.5453C182.71 44.4362 189.762 54.991 194.573 66.6071C199.384 78.2233 201.86 90.6733 201.859 103.246Z" fill="#606060"/>
</g>
<g style="mix-blend-mode:multiply" opacity="0.982">
<path d="M201.711 103.159C201.711 122.067 196.104 140.551 185.599 156.273C175.094 171.994 160.162 184.247 142.693 191.483C125.224 198.718 106.002 200.611 87.4567 196.921C68.9119 193.232 51.8776 184.126 38.5081 170.755C25.1386 157.384 16.0344 140.349 12.3467 121.804C8.65912 103.258 10.5537 84.0361 17.791 66.5676C25.0283 49.0992 37.2831 34.1692 53.0058 23.6657C68.7284 13.1623 87.2127 7.5571 106.121 7.55908C118.675 7.55921 131.106 10.0321 142.704 14.8367C154.302 19.6412 164.84 26.6832 173.717 35.5606C182.593 44.438 189.634 54.9768 194.437 66.5755C199.241 78.1741 201.712 90.6052 201.711 103.159Z" fill="#5F5F5F"/>
</g>
<g style="mix-blend-mode:multiply" opacity="0.988">
<path d="M201.546 103.063C201.546 121.938 195.949 140.39 185.462 156.084C174.976 171.778 160.07 184.01 142.632 191.233C125.193 198.455 106.004 200.345 87.4919 196.662C68.9794 192.979 51.9749 183.889 38.6287 170.541C25.2825 157.194 16.1941 140.188 12.5128 121.676C8.83155 103.163 10.7227 83.9742 17.9472 66.5363C25.1717 49.0983 37.405 34.1943 53.1 23.7091C68.7951 13.2239 87.247 7.62835 106.122 7.63013C131.431 7.63251 155.702 17.6881 173.598 35.585C191.493 53.4819 201.546 77.7543 201.546 103.063Z" fill="#5E5E5E"/>
</g>
<g style="mix-blend-mode:multiply" opacity="0.994">
<path d="M201.398 102.967C201.4 121.814 195.813 140.237 185.343 155.908C174.874 171.579 159.993 183.793 142.581 191.006C125.17 198.219 106.011 200.107 87.5262 196.431C69.0419 192.754 52.0629 183.679 38.7365 170.353C25.4101 157.026 16.3349 140.047 12.6586 121.563C8.9823 103.079 10.87 83.9194 18.083 66.508C25.296 49.0966 37.5104 34.2152 53.1813 23.7458C68.8522 13.2765 87.2758 7.68938 106.122 7.69116C131.391 7.69196 155.624 17.7302 173.492 35.5977C191.359 53.4653 201.397 77.6986 201.398 102.967Z" fill="#5D5D5D"/>
</g>
<g style="mix-blend-mode:multiply">
<path d="M201.233 102.872C201.233 121.686 195.654 140.076 185.202 155.719C174.75 171.362 159.893 183.553 142.512 190.752C125.131 197.952 106.005 199.835 87.5529 196.164C69.1012 192.493 52.1524 183.433 38.85 170.129C25.5476 156.825 16.489 139.876 12.8198 121.424C9.1506 102.972 11.0356 83.8459 18.2364 66.4651C25.4372 49.0844 37.6303 34.2293 53.2739 23.7784C68.9175 13.3276 87.3089 7.75042 106.122 7.7522C118.613 7.75207 130.982 10.2124 142.522 14.9927C154.062 19.773 164.547 26.7796 173.379 35.6125C182.211 44.4453 189.217 54.9314 193.996 66.4719C198.775 78.0124 201.235 90.3812 201.233 102.872Z" fill="#5C5C5C"/>
</g>
</g>
<path d="M209.348 104.672C209.348 125.374 203.21 145.612 191.709 162.826C180.207 180.039 163.86 193.456 144.734 201.379C125.607 209.302 104.561 211.376 84.2562 207.337C63.9515 203.299 45.3001 193.331 30.6608 178.692C16.0215 164.054 6.05168 145.403 2.01208 125.099C-2.02751 104.794 0.0445528 83.7478 7.96625 64.6209C15.888 45.494 29.3035 29.1457 46.5164 17.6433C63.7294 6.1409 83.9666 0.000988904 104.669 0C132.43 0.000265121 159.055 11.028 178.686 30.6576C198.316 50.2871 209.346 76.9107 209.348 104.672Z" fill="url(#paint0_linear)"/>
<path d="M205.468 104.672C205.47 124.609 199.56 144.098 188.485 160.676C177.41 177.254 161.667 190.175 143.249 197.805C124.83 205.436 104.562 207.434 85.0082 203.545C65.4543 199.657 47.4927 190.057 33.3947 175.96C19.2967 161.863 9.6956 143.902 5.80559 124.349C1.91558 104.795 3.91137 84.5271 11.5406 66.1078C19.1698 47.6885 32.0897 31.9452 48.6665 20.8689C65.2433 9.79254 84.7324 3.88066 104.669 3.88086C131.401 3.88112 157.039 14.5 175.942 33.4017C194.845 52.3034 205.466 77.9398 205.468 104.672Z" fill="url(#paint1_radial)"/>
<path d="M205.468 104.672C205.47 124.609 199.56 144.098 188.485 160.676C177.41 177.254 161.667 190.175 143.249 197.805C124.83 205.436 104.562 207.434 85.0082 203.545C65.4543 199.657 47.4927 190.057 33.3947 175.96C19.2967 161.863 9.6956 143.902 5.80559 124.349C1.91558 104.795 3.91137 84.5271 11.5406 66.1078C19.1698 47.6885 32.0897 31.9452 48.6665 20.8689C65.2433 9.79254 84.7324 3.88066 104.669 3.88086C131.401 3.88112 157.039 14.5 175.942 33.4017C194.845 52.3034 205.466 77.9398 205.468 104.672ZM96.5162 14.3009L95.7072 13.4659C94.6752 12.4011 93.3967 11.6069 91.9849 11.1535C90.5731 10.7001 89.0713 10.6015 87.6122 10.8663C86.1532 11.1311 84.7819 11.7512 83.6194 12.6719C82.457 13.5925 81.5392 14.7853 80.9472 16.1449L80.4772 17.2059L79.5382 16.5359C78.3328 15.6714 76.9328 15.1173 75.4623 14.9227C73.9917 14.7281 72.4959 14.8989 71.1071 15.4201C69.7182 15.9412 68.4793 16.7966 67.4998 17.9106C66.5203 19.0246 65.8304 20.3628 65.4912 21.8069L65.2212 22.9379L64.1692 22.4379C62.8281 21.8038 61.3515 21.5098 59.8698 21.5817C58.3881 21.6537 56.947 22.0895 55.6737 22.8506C54.4003 23.6117 53.3341 24.6747 52.5691 25.9456C51.804 27.2166 51.3638 28.6564 51.2872 30.1379L51.2352 31.2949L50.1042 30.9949C48.6719 30.6109 47.1671 30.5855 45.7226 30.9208C44.2781 31.2561 42.9383 31.9418 41.8216 32.9174C40.7048 33.893 39.8454 35.1286 39.3192 36.515C38.7929 37.9013 38.6161 39.3959 38.8042 40.8669L38.9522 42.0239L37.7952 41.9239C36.3172 41.8024 34.832 42.0465 33.4706 42.6345C32.1091 43.2226 30.9133 44.1366 29.9886 45.2959C29.0638 46.4553 28.4385 47.8244 28.1677 49.2824C27.897 50.7405 27.9892 52.2428 28.4362 53.6569L28.7932 54.7569L27.6362 54.8699C26.1598 55.0123 24.7414 55.5165 23.5063 56.3377C22.2711 57.1589 21.2575 58.2719 20.5549 59.5782C19.8523 60.8844 19.4825 62.3437 19.4782 63.8269C19.4739 65.3101 19.8352 66.7715 20.5302 68.0819L21.0692 69.1079L19.9472 69.4299C18.5203 69.8345 17.2152 70.5845 16.147 71.6134C15.0788 72.6424 14.2806 73.9186 13.8228 75.3293C13.365 76.7401 13.2618 78.2418 13.5222 79.7019C13.7827 81.162 14.3988 82.5355 15.3162 83.7009L16.0382 84.6139L14.9942 85.1269C13.6621 85.7789 12.5112 86.7492 11.6434 87.952C10.7757 89.1548 10.2178 90.5529 10.0191 92.0227C9.82048 93.4925 9.98722 94.9886 10.5046 96.3786C11.0219 97.7686 11.8739 99.0096 12.9852 99.9919L13.8462 100.766L12.9152 101.466C11.7222 102.346 10.7642 103.506 10.1257 104.844C9.48721 106.182 9.18786 107.657 9.25407 109.138C9.32028 110.619 9.75003 112.06 10.5054 113.336C11.2607 114.612 12.3184 115.682 13.5852 116.452L14.5772 117.052L13.7772 117.896C12.7613 118.976 12.0267 120.289 11.6381 121.72C11.2495 123.151 11.2189 124.655 11.5489 126.101C11.8789 127.546 12.5594 128.888 13.5305 130.009C14.5015 131.129 15.7333 131.994 17.1172 132.526L18.2042 132.943L17.5692 133.917C16.7607 135.161 16.2711 136.585 16.1438 138.063C16.0165 139.541 16.2553 141.027 16.8392 142.391C17.4231 143.755 18.334 144.954 19.4914 145.882C20.6488 146.81 22.0171 147.438 23.4752 147.712L24.6062 147.929L24.1622 149.008C23.5887 150.376 23.3611 151.864 23.4995 153.341C23.638 154.817 24.1383 156.237 24.9561 157.475C25.7739 158.712 26.8841 159.729 28.1884 160.435C29.4927 161.141 30.951 161.515 32.4342 161.524L33.5912 161.533L33.3392 162.672C33.0223 164.12 33.0665 165.624 33.4677 167.052C33.8689 168.479 34.615 169.786 35.6401 170.857C36.6652 171.928 37.9379 172.731 39.3463 173.194C40.7546 173.658 42.2553 173.768 43.7162 173.515L44.8552 173.306L44.8112 174.472C44.7553 175.953 45.0648 177.426 45.7126 178.759C46.3604 180.092 47.3265 181.246 48.5256 182.118C49.7247 182.989 51.1199 183.552 52.5881 183.757C54.0563 183.962 55.5524 183.802 56.9442 183.292L58.0442 182.892L58.2092 184.04C58.4191 185.508 58.9869 186.901 59.8627 188.098C60.7385 189.294 61.8952 190.257 63.2309 190.901C64.5666 191.545 66.0403 191.85 67.5218 191.789C69.0033 191.729 70.4473 191.305 71.7262 190.555L72.7352 189.964L73.1002 191.064C73.5681 192.472 74.3757 193.742 75.4516 194.763C76.5275 195.785 77.8386 196.525 79.2687 196.919C80.6989 197.313 82.2041 197.348 83.6511 197.022C85.0982 196.695 86.4426 196.017 87.5652 195.048L88.4432 194.3L89.0002 195.318C89.7132 196.618 90.7351 197.722 91.9759 198.534C93.2166 199.345 94.638 199.839 96.1147 199.971C97.5914 200.104 99.0779 199.871 100.443 199.292C101.808 198.714 103.01 197.809 103.943 196.657L104.674 195.757L105.413 196.657C106.347 197.807 107.549 198.71 108.914 199.287C110.278 199.863 111.764 200.095 113.239 199.961C114.715 199.828 116.135 199.334 117.374 198.523C118.614 197.711 119.635 196.608 120.347 195.309L120.912 194.291L121.79 195.039C122.912 196.008 124.256 196.685 125.702 197.011C127.149 197.338 128.653 197.302 130.082 196.908C131.512 196.514 132.822 195.774 133.897 194.753C134.972 193.732 135.779 192.462 136.246 191.055L136.611 189.955L137.629 190.546C138.907 191.296 140.351 191.721 141.832 191.781C143.313 191.841 144.786 191.536 146.121 190.892C147.457 190.248 148.613 189.285 149.487 188.089C150.362 186.892 150.929 185.498 151.137 184.031L151.302 182.883L152.402 183.283C153.794 183.793 155.29 183.953 156.758 183.748C158.227 183.543 159.622 182.98 160.821 182.109C162.02 181.237 162.986 180.083 163.634 178.75C164.282 177.417 164.591 175.944 164.535 174.463L164.492 173.297L165.64 173.506C167.101 173.758 168.601 173.647 170.009 173.183C171.416 172.718 172.688 171.915 173.712 170.844C174.737 169.772 175.482 168.466 175.882 167.038C176.282 165.611 176.326 164.108 176.008 162.66L175.747 161.521L176.921 161.512C178.404 161.503 179.861 161.128 181.164 160.421C182.467 159.714 183.576 158.697 184.392 157.459C185.209 156.222 185.707 154.802 185.844 153.326C185.98 151.849 185.751 150.362 185.175 148.996L184.74 147.917L185.871 147.7C187.33 147.427 188.699 146.799 189.857 145.871C191.014 144.943 191.926 143.744 192.509 142.38C193.093 141.015 193.331 139.528 193.202 138.05C193.073 136.572 192.582 135.148 191.771 133.905L191.145 132.931L192.232 132.514C193.618 131.984 194.851 131.12 195.824 130C196.797 128.88 197.478 127.537 197.808 126.091C198.138 124.644 198.107 123.139 197.717 121.707C197.327 120.276 196.59 118.963 195.572 117.884L194.772 117.04L195.764 116.44C197.031 115.67 198.089 114.6 198.844 113.324C199.599 112.048 200.029 110.607 200.095 109.126C200.162 107.645 199.862 106.17 199.224 104.832C198.585 103.494 197.627 102.334 196.434 101.454L195.503 100.754L196.381 99.9799C197.489 98.9948 198.337 97.7523 198.851 96.362C199.366 94.9717 199.53 93.4762 199.33 92.0074C199.129 90.5387 198.571 89.1417 197.703 87.9397C196.836 86.7377 195.686 85.7676 194.355 85.1149L193.311 84.6019L194.033 83.6889C194.947 82.5225 195.56 81.1492 195.817 79.69C196.075 78.2309 195.97 76.7307 195.51 75.322C195.051 73.9132 194.252 72.6391 193.184 71.612C192.116 70.585 190.812 69.8366 189.386 69.4329L188.264 69.1109L188.803 68.0849C189.498 66.7749 189.859 65.3141 189.855 63.8314C189.851 62.3487 189.481 60.8899 188.78 59.5838C188.078 58.2777 187.065 57.1647 185.831 56.3431C184.597 55.5214 183.179 55.0165 181.703 54.8729L180.537 54.7599L180.885 53.6599C181.334 52.2465 181.428 50.7443 181.159 49.2861C180.889 47.8278 180.265 46.4583 179.341 45.2985C178.417 44.1388 177.221 43.2245 175.86 42.6365C174.498 42.0484 173.013 41.8047 171.535 41.9269L170.378 42.0269L170.526 40.8699C170.714 39.3989 170.537 37.9043 170.011 36.518C169.485 35.1316 168.626 33.896 167.509 32.9204C166.392 31.9448 165.052 31.2591 163.608 30.9238C162.163 30.5885 160.659 30.6139 159.226 30.9979L158.104 31.2979L158.034 30.1409C157.959 28.6596 157.521 27.2196 156.757 25.9483C155.993 24.6771 154.927 23.6137 153.654 22.8524C152.382 22.091 150.941 21.6552 149.459 21.5834C147.978 21.5116 146.502 21.8061 145.161 22.4409L144.109 22.9409L143.839 21.8099C143.5 20.3661 142.811 19.028 141.832 17.914C140.853 16.7999 139.615 15.9442 138.227 15.4225C136.839 14.9009 135.343 14.7293 133.873 14.9229C132.403 15.1166 131.003 15.6695 129.797 16.5329L128.858 17.2029L128.388 16.1419C127.796 14.7823 126.878 13.5895 125.716 12.6689C124.554 11.7482 123.182 11.1281 121.723 10.8633C120.264 10.5985 118.762 10.6971 117.351 11.1505C115.939 11.6039 114.66 12.3981 113.628 13.4629L112.819 14.2979L112.175 13.3329C111.351 12.1001 110.235 11.0895 108.927 10.3907C107.619 9.69188 106.158 9.32629 104.675 9.32629C103.192 9.32629 101.732 9.69188 100.424 10.3907C99.1155 11.0895 97.9998 12.1001 97.1752 13.3329L96.5162 14.3009Z" fill="url(#paint2_linear)"/>
<path d="M112.415 197.807C111.398 197.808 110.393 197.581 109.475 197.143C108.557 196.705 107.748 196.067 107.109 195.276L106.378 194.376C106.173 194.122 105.914 193.917 105.62 193.775C105.326 193.634 105.004 193.56 104.678 193.558H104.669C104.341 193.558 104.017 193.632 103.72 193.774C103.424 193.915 103.163 194.121 102.956 194.376L102.217 195.276C101.581 196.069 100.774 196.708 99.856 197.146C98.9385 197.584 97.934 197.81 96.9172 197.807C96.7082 197.807 96.5082 197.798 96.3082 197.781C95.1899 197.683 94.1132 197.31 93.1738 196.696C92.2345 196.081 91.4617 195.243 90.9242 194.258L90.3672 193.24C90.21 192.952 89.9898 192.704 89.7231 192.514C89.4564 192.323 89.1502 192.195 88.8272 192.14C88.6987 192.112 88.5677 192.098 88.4362 192.097C87.9071 192.097 87.3951 192.285 86.9922 192.628L86.1142 193.385C85.2652 194.116 84.2493 194.627 83.1561 194.873C82.0629 195.119 80.926 195.092 79.8457 194.795C78.7653 194.497 77.7748 193.939 76.9613 193.168C76.1479 192.398 75.5365 191.439 75.1812 190.376L74.8162 189.263C74.7114 188.954 74.5393 188.672 74.3122 188.437C74.0852 188.202 73.8088 188.021 73.5032 187.906C73.2554 187.814 72.9934 187.767 72.7292 187.767C72.3351 187.765 71.9478 187.869 71.6072 188.067L70.6072 188.658C69.641 189.225 68.5502 189.546 67.4309 189.592C66.3115 189.638 65.198 189.409 64.1883 188.923C63.1786 188.438 62.3039 187.711 61.641 186.808C60.9782 185.905 60.5476 184.853 60.3872 183.744L60.2222 182.587C60.148 182.06 59.8864 181.578 59.4854 181.229C59.0844 180.88 58.5709 180.688 58.0392 180.687C57.7782 180.69 57.5196 180.737 57.2742 180.826L56.1742 181.226C55.4255 181.504 54.6329 181.646 53.8342 181.644C52.9167 181.643 52.0087 181.458 51.1645 181.099C50.3203 180.739 49.5571 180.213 48.9206 179.553C48.2841 178.892 47.7874 178.109 47.46 177.252C47.1326 176.395 46.9813 175.481 47.0152 174.564L47.0582 173.398C47.0668 173.07 47.0034 172.745 46.8727 172.444C46.7419 172.143 46.5468 171.875 46.3012 171.658C45.9002 171.304 45.3833 171.109 44.8482 171.11C44.7231 171.11 44.5981 171.119 44.4742 171.136L43.3262 171.345C42.9386 171.413 42.5457 171.446 42.1522 171.445C41.1314 171.445 40.1237 171.216 39.203 170.775C38.2823 170.334 37.4722 169.693 36.8322 168.898C36.1922 168.102 35.7387 167.174 35.5049 166.18C35.2711 165.187 35.263 164.153 35.4812 163.156L35.7422 162.017C35.8112 161.696 35.8088 161.363 35.7352 161.043C35.6615 160.723 35.5185 160.423 35.3162 160.164C35.1106 159.907 34.85 159.699 34.5536 159.556C34.2571 159.413 33.9323 159.339 33.6032 159.338L32.4462 159.329C31.3237 159.323 30.22 159.04 29.233 158.506C28.2459 157.971 27.4059 157.201 26.7874 156.265C26.1689 155.328 25.791 154.253 25.6872 153.135C25.5834 152.018 25.7568 150.892 26.1922 149.857L26.6442 148.787C26.7701 148.484 26.8268 148.156 26.8103 147.828C26.7938 147.501 26.7044 147.18 26.5487 146.891C26.393 146.602 26.1748 146.352 25.9101 146.158C25.6453 145.963 25.3407 145.831 25.0182 145.769L23.8702 145.552C22.7683 145.345 21.7344 144.869 20.8601 144.167C19.9858 143.465 19.2981 142.558 18.8578 141.527C18.4175 140.496 18.2382 139.372 18.3358 138.255C18.4334 137.138 18.8048 136.062 19.4172 135.123L20.0522 134.149C20.2318 133.874 20.3471 133.563 20.3893 133.237C20.4316 132.912 20.3998 132.581 20.2962 132.27C20.1957 131.957 20.0268 131.671 19.802 131.432C19.5772 131.193 19.3019 131.007 18.9962 130.887L17.9092 130.469C16.8615 130.068 15.9288 129.415 15.1936 128.568C14.4583 127.721 13.9432 126.705 13.6937 125.612C13.4443 124.518 13.4682 123.38 13.7634 122.298C14.0586 121.215 14.616 120.222 15.3862 119.407L16.1862 118.563C16.4097 118.323 16.577 118.036 16.6762 117.723C16.7754 117.41 16.804 117.079 16.7599 116.754C16.7158 116.429 16.6002 116.117 16.4212 115.842C16.2423 115.567 16.0046 115.335 15.7252 115.163L14.7332 114.563C13.7748 113.981 12.9743 113.172 12.4024 112.208C11.8306 111.244 11.505 110.153 11.4543 109.033C11.4036 107.913 11.6294 106.798 12.1117 105.786C12.5941 104.774 13.3183 103.896 14.2202 103.23L15.1592 102.543C15.4231 102.349 15.6399 102.098 15.7935 101.809C15.9471 101.52 16.0334 101.2 16.0462 100.873C16.0648 100.544 16.0079 100.216 15.8798 99.9131C15.7517 99.6101 15.5558 99.3404 15.3072 99.125L14.4462 98.351C13.6065 97.6078 12.9628 96.6693 12.5717 95.6184C12.1807 94.5674 12.0544 93.4364 12.2041 92.3251C12.3537 91.2138 12.7746 90.1565 13.4297 89.2464C14.0848 88.3364 14.9539 87.6016 15.9602 87.1069L17.0042 86.6069C17.3004 86.4625 17.5604 86.2536 17.7652 85.9955C17.97 85.7374 18.1144 85.4367 18.1878 85.1154C18.2612 84.7942 18.2617 84.4606 18.1892 84.1392C18.1168 83.8178 17.9733 83.5166 17.7692 83.2579L17.0472 82.3579C16.3549 81.4753 15.8905 80.4357 15.695 79.3311C15.4995 78.2265 15.5788 77.0907 15.9261 76.024C16.2734 74.9573 16.8778 73.9925 17.6862 73.2146C18.4945 72.4368 19.4819 71.8699 20.5612 71.5639L21.6742 71.251C21.9889 71.159 22.2796 70.9993 22.526 70.783C22.7723 70.5667 22.9683 70.2991 23.1002 69.999C23.2301 69.6966 23.2906 69.3689 23.2771 69.0401C23.2636 68.7113 23.1765 68.3897 23.0222 68.099L22.4742 67.073C21.951 66.0808 21.6799 64.9751 21.6848 63.8534C21.6898 62.7318 21.9707 61.6285 22.5026 60.641C23.0346 59.6535 23.8014 58.8121 24.7354 58.1909C25.6693 57.5697 26.7418 57.1878 27.8582 57.079L29.0062 56.966C29.3336 56.9349 29.6499 56.8308 29.9318 56.6613C30.2137 56.4919 30.454 56.2614 30.635 55.9868C30.816 55.7122 30.9332 55.4005 30.9779 55.0747C31.0226 54.7488 30.9936 54.4171 30.8932 54.104L30.5452 53.004C30.2211 51.9811 30.1427 50.8963 30.3163 49.8374C30.4899 48.7786 30.9106 47.7756 31.5443 46.9098C32.178 46.044 33.0069 45.3397 33.9637 44.8541C34.9205 44.3685 35.9782 44.1153 37.0512 44.115C37.2422 44.115 37.4252 44.124 37.6162 44.132C37.6162 44.132 38.8952 44.232 38.9552 44.232C39.268 44.2317 39.5772 44.1651 39.8623 44.0365C40.1475 43.9079 40.402 43.7202 40.6092 43.4859C40.8164 43.2516 40.9715 42.9759 41.0643 42.6772C41.157 42.3784 41.1853 42.0634 41.1472 41.753L40.9902 40.596C40.8477 39.4832 40.9814 38.3525 41.3797 37.3037C41.7779 36.2549 42.4283 35.3204 43.2735 34.5826C44.1187 33.8449 45.1325 33.3267 46.2255 33.0739C47.3185 32.8211 48.4569 32.8413 49.5402 33.1329L50.6622 33.4329C50.8502 33.4781 51.0428 33.5016 51.2362 33.503C51.6988 33.5046 52.1498 33.3581 52.5232 33.0849C52.7886 32.8916 53.0072 32.6412 53.1629 32.3522C53.3187 32.0632 53.4076 31.7429 53.4232 31.415L53.4932 30.249C53.5496 29.1292 53.8815 28.0407 54.4594 27.0799C55.0373 26.1191 55.8433 25.3158 56.806 24.7411C57.7687 24.1664 58.8583 23.8382 59.9782 23.7855C61.0982 23.7328 62.2138 23.9572 63.2262 24.439L64.2782 24.939C64.5747 25.0786 64.8986 25.1502 65.2263 25.1486C65.554 25.147 65.8772 25.0722 66.1723 24.9297C66.4674 24.7872 66.7269 24.5805 66.9319 24.3249C67.1369 24.0692 67.2822 23.771 67.3572 23.452L67.6272 22.321C67.8838 21.2293 68.4054 20.2177 69.146 19.3756C69.8866 18.5335 70.8234 17.8869 71.8733 17.493C72.9233 17.0992 74.0542 16.9701 75.1659 17.1173C76.2776 17.2645 77.3359 17.6834 78.2472 18.337L79.1952 19.007C79.5662 19.2788 80.0142 19.4253 80.4742 19.425C80.6745 19.4259 80.8737 19.3965 81.0652 19.338C81.3809 19.2512 81.6734 19.0954 81.9216 18.8818C82.1697 18.6682 82.3674 18.4022 82.5002 18.103L82.9612 17.033C83.4106 16.0059 84.1059 15.1052 84.9858 14.4104C85.8656 13.7156 86.9029 13.248 88.0062 13.049C88.4046 12.9726 88.8095 12.9347 89.2152 12.936C90.1305 12.9384 91.0363 13.1227 91.8799 13.478C92.7234 13.8334 93.488 14.3527 94.1292 15.006L94.9292 15.841C95.1343 16.0536 95.3802 16.2225 95.6523 16.3377C95.9243 16.4528 96.2168 16.5118 96.5122 16.511L96.7032 16.502C97.0305 16.4734 97.3472 16.3719 97.6302 16.2049C97.9131 16.0379 98.155 15.8097 98.3382 15.537L98.9902 14.572C99.6142 13.6405 100.458 12.8771 101.447 12.3492C102.436 11.8213 103.54 11.5452 104.661 11.5452C105.782 11.5452 106.886 11.8213 107.875 12.3492C108.864 12.8771 109.708 13.6405 110.332 14.572L110.976 15.537C111.162 15.8092 111.406 16.0369 111.69 16.2037C111.974 16.3705 112.292 16.4724 112.62 16.502L112.811 16.511C113.107 16.5118 113.399 16.4528 113.671 16.3377C113.943 16.2225 114.189 16.0536 114.394 15.841L115.203 15.006C115.841 14.3526 116.603 13.833 117.445 13.4776C118.286 13.1222 119.19 12.9381 120.103 12.936C120.515 12.9347 120.925 12.9726 121.329 13.049C122.432 13.249 123.469 13.7169 124.349 14.4116C125.228 15.1062 125.924 16.0064 126.374 17.033L126.826 18.103C126.958 18.403 127.155 18.6697 127.403 18.8835C127.652 19.0972 127.945 19.2525 128.261 19.338C128.453 19.3966 128.652 19.4259 128.852 19.425C129.312 19.4266 129.761 19.2801 130.131 19.007L131.079 18.337C131.989 17.6825 133.046 17.2625 134.157 17.114C135.268 16.9656 136.398 17.0933 137.448 17.4858C138.498 17.8784 139.435 18.5237 140.176 19.3646C140.917 20.2055 141.439 21.2161 141.696 22.307L141.974 23.438C142.085 23.9219 142.358 24.3537 142.747 24.6625C143.135 24.9714 143.618 25.139 144.114 25.138C144.442 25.1373 144.765 25.066 145.062 24.929L146.106 24.429C147.119 23.9487 148.235 23.7253 149.355 23.7786C150.475 23.8319 151.565 24.1602 152.528 24.7344C153.49 25.3087 154.297 26.1113 154.876 27.0714C155.455 28.0314 155.789 29.1193 155.848 30.239L155.9 31.407C155.92 31.7354 156.012 32.0555 156.17 32.3442C156.328 32.6329 156.547 32.8831 156.813 33.077C157.191 33.3511 157.646 33.4975 158.113 33.4949C158.307 33.4931 158.499 33.4696 158.687 33.4249L159.8 33.125C160.883 32.8349 162.021 32.8158 163.114 33.0692C164.206 33.3226 165.219 33.8409 166.064 34.5782C166.909 35.3156 167.559 36.2495 167.958 37.2975C168.356 38.3455 168.491 39.4755 168.35 40.588L168.193 41.745C168.154 42.0707 168.188 42.4009 168.292 42.7121C168.395 43.0233 168.567 43.3077 168.793 43.545C168.999 43.7602 169.246 43.9314 169.519 44.0479C169.793 44.1645 170.088 44.2241 170.385 44.223C170.446 44.223 171.733 44.123 171.733 44.123C171.916 44.114 172.098 44.106 172.29 44.106C173.364 44.1041 174.423 44.356 175.381 44.8409C176.339 45.3259 177.169 46.0303 177.803 46.8967C178.437 47.7631 178.857 48.7671 179.03 49.8268C179.203 50.8865 179.123 51.9721 178.796 52.995L178.448 54.095C178.345 54.4081 178.314 54.7406 178.358 55.0673C178.401 55.3941 178.518 55.7069 178.7 55.9821C178.881 56.2574 179.123 56.488 179.406 56.6568C179.689 56.8256 180.007 56.9282 180.335 56.957L181.492 57.07C182.607 57.1798 183.678 57.5621 184.61 58.1831C185.542 58.8041 186.308 59.6448 186.839 60.6312C187.369 61.6175 187.65 62.7193 187.655 63.8395C187.66 64.9597 187.389 66.0639 186.867 67.055L186.315 68.089C186.161 68.3797 186.074 68.7013 186.06 69.0301C186.047 69.3589 186.107 69.6866 186.237 69.989C186.368 70.2911 186.565 70.5602 186.814 70.7767C187.062 70.9933 187.355 71.1519 187.672 71.241L188.785 71.554C189.863 71.8614 190.849 72.4293 191.657 73.2077C192.464 73.986 193.067 74.9509 193.413 76.0173C193.759 77.0837 193.838 78.2189 193.642 79.3228C193.446 80.4268 192.982 81.4657 192.29 82.348L191.577 83.248C191.372 83.5057 191.227 83.8064 191.153 84.1276C191.08 84.4489 191.079 84.7827 191.152 85.1042C191.224 85.4257 191.368 85.7267 191.573 85.9851C191.778 86.2435 192.038 86.4526 192.334 86.597L193.378 87.097C194.384 87.5922 195.252 88.3268 195.907 89.2362C196.562 90.1457 196.984 91.2021 197.135 92.3127C197.286 93.4233 197.162 94.554 196.774 95.6055C196.386 96.6569 195.746 97.597 194.909 98.3429L194.03 99.117C193.785 99.3347 193.591 99.6045 193.464 99.9067C193.336 100.209 193.278 100.536 193.293 100.863C193.308 101.191 193.396 101.511 193.551 101.8C193.705 102.09 193.923 102.341 194.187 102.535L195.118 103.235C196.02 103.9 196.744 104.777 197.226 105.789C197.709 106.8 197.934 107.915 197.884 109.034C197.833 110.154 197.507 111.243 196.936 112.207C196.364 113.171 195.563 113.979 194.605 114.56L193.613 115.16C193.334 115.333 193.097 115.565 192.918 115.841C192.739 116.116 192.623 116.427 192.578 116.752C192.533 117.077 192.561 117.409 192.66 117.722C192.759 118.035 192.928 118.321 193.152 118.561L193.952 119.405C194.723 120.22 195.282 121.213 195.577 122.296C195.873 123.378 195.897 124.517 195.648 125.611C195.399 126.705 194.883 127.721 194.148 128.568C193.412 129.416 192.478 130.068 191.43 130.469L190.343 130.878C190.037 130.997 189.762 131.183 189.536 131.421C189.311 131.66 189.141 131.945 189.04 132.258C188.938 132.57 188.907 132.9 188.949 133.226C188.991 133.552 189.105 133.864 189.282 134.14L189.917 135.114C190.53 136.053 190.901 137.129 190.999 138.246C191.096 139.363 190.917 140.487 190.477 141.518C190.036 142.549 189.349 143.456 188.474 144.158C187.6 144.86 186.566 145.336 185.464 145.543L184.325 145.76C184.002 145.82 183.696 145.952 183.43 146.145C183.164 146.339 182.944 146.59 182.788 146.879C182.631 147.168 182.541 147.489 182.524 147.817C182.507 148.146 182.564 148.474 182.69 148.778L183.142 149.848C183.577 150.882 183.751 152.007 183.647 153.124C183.544 154.241 183.167 155.315 182.549 156.252C181.932 157.188 181.093 157.958 180.107 158.493C179.122 159.029 178.019 159.312 176.897 159.32L175.731 159.329C175.404 159.329 175.081 159.403 174.786 159.546C174.492 159.689 174.233 159.897 174.031 160.155C173.826 160.412 173.68 160.712 173.605 161.032C173.53 161.353 173.527 161.686 173.596 162.008L173.857 163.147C174.075 164.144 174.067 165.178 173.834 166.171C173.6 167.165 173.146 168.093 172.506 168.889C171.866 169.684 171.056 170.325 170.135 170.766C169.215 171.207 168.207 171.436 167.186 171.436C166.793 171.437 166.4 171.404 166.012 171.336L164.864 171.127C164.74 171.109 164.615 171.101 164.49 171.101C164.193 171.099 163.899 171.158 163.626 171.273C163.352 171.389 163.105 171.559 162.899 171.773C162.693 171.987 162.533 172.24 162.428 172.518C162.324 172.796 162.277 173.092 162.29 173.389L162.325 174.546C162.369 175.666 162.136 176.779 161.647 177.788C161.158 178.796 160.428 179.669 159.522 180.329C158.615 180.988 157.561 181.414 156.451 181.569C155.341 181.724 154.209 181.603 153.157 181.217L152.07 180.817C151.825 180.729 151.566 180.682 151.305 180.678C150.907 180.678 150.516 180.786 150.174 180.991C149.893 181.161 149.652 181.391 149.47 181.664C149.289 181.938 149.17 182.249 149.122 182.574L148.957 183.722C148.803 184.833 148.376 185.888 147.715 186.795C147.054 187.701 146.18 188.43 145.17 188.917C144.159 189.404 143.044 189.634 141.924 189.587C140.803 189.539 139.712 189.216 138.746 188.645L137.737 188.054C137.399 187.858 137.015 187.754 136.624 187.754C136.36 187.752 136.097 187.799 135.85 187.893C135.543 188.008 135.266 188.189 135.037 188.423C134.809 188.658 134.635 188.94 134.528 189.25L134.163 190.363C133.81 191.427 133.2 192.388 132.387 193.16C131.573 193.933 130.582 194.492 129.501 194.79C128.912 194.954 128.304 195.036 127.692 195.034C126.056 195.031 124.474 194.445 123.23 193.381L122.352 192.616C121.951 192.277 121.443 192.089 120.917 192.085C120.783 192.086 120.649 192.1 120.517 192.128C120.195 192.185 119.889 192.313 119.623 192.503C119.357 192.694 119.136 192.941 118.978 193.228L118.421 194.246C117.885 195.23 117.113 196.067 116.176 196.682C115.238 197.296 114.163 197.67 113.046 197.769C112.828 197.8 112.628 197.807 112.415 197.807ZM112.833 195.589C113.589 195.521 114.317 195.268 114.953 194.852C115.588 194.437 116.112 193.871 116.477 193.206L117.025 192.188C117.341 191.612 117.781 191.113 118.314 190.728C118.847 190.344 119.459 190.083 120.106 189.964C120.752 189.846 121.417 189.873 122.052 190.044C122.686 190.215 123.275 190.526 123.774 190.953L124.652 191.718C125.495 192.441 126.569 192.839 127.679 192.84C128.093 192.837 128.505 192.782 128.905 192.675C129.637 192.469 130.307 192.087 130.858 191.563C131.408 191.038 131.822 190.387 132.062 189.666L132.427 188.566C132.637 187.943 132.984 187.374 133.441 186.902C133.898 186.43 134.455 186.065 135.071 185.835C135.563 185.648 136.085 185.554 136.611 185.557C137.395 185.557 138.164 185.767 138.838 186.166L139.838 186.757C140.551 187.171 141.361 187.39 142.186 187.392C143.297 187.388 144.37 186.986 145.21 186.258C146.049 185.53 146.6 184.525 146.761 183.426L146.926 182.269C147.078 181.219 147.603 180.259 148.405 179.564C149.207 178.87 150.231 178.486 151.292 178.485C151.814 178.488 152.332 178.579 152.823 178.755L153.91 179.155C154.416 179.346 154.953 179.443 155.493 179.442C156.115 179.441 156.731 179.315 157.303 179.072C157.876 178.828 158.393 178.472 158.825 178.024C159.257 177.576 159.594 177.046 159.817 176.465C160.039 175.884 160.142 175.264 160.12 174.642L160.076 173.477C160.055 172.886 160.153 172.296 160.364 171.743C160.575 171.19 160.896 170.686 161.307 170.26C161.717 169.833 162.21 169.494 162.754 169.263C163.299 169.031 163.884 168.911 164.476 168.911C164.73 168.91 164.983 168.93 165.233 168.972L166.381 169.172C166.643 169.216 166.908 169.24 167.173 169.242C167.865 169.241 168.548 169.086 169.172 168.787C169.796 168.488 170.345 168.053 170.778 167.514C171.212 166.975 171.52 166.346 171.679 165.673C171.837 164.999 171.843 164.299 171.696 163.623L171.435 162.484C171.296 161.842 171.302 161.178 171.452 160.539C171.602 159.899 171.892 159.302 172.302 158.789C172.712 158.276 173.231 157.86 173.821 157.573C174.411 157.285 175.058 157.132 175.714 157.126L176.871 157.117C177.631 157.113 178.378 156.921 179.046 156.56C179.714 156.198 180.282 155.677 180.701 155.043C181.12 154.41 181.376 153.682 181.447 152.926C181.518 152.17 181.401 151.407 181.107 150.707L180.655 149.637C180.4 149.031 180.283 148.375 180.314 147.718C180.346 147.061 180.524 146.419 180.836 145.84C181.148 145.261 181.586 144.759 182.118 144.372C182.65 143.984 183.261 143.721 183.908 143.601L185.047 143.392C185.794 143.25 186.493 142.927 187.085 142.45C187.677 141.974 188.142 141.359 188.439 140.66C188.737 139.961 188.857 139.199 188.791 138.442C188.724 137.686 188.472 136.957 188.056 136.321L187.43 135.347C187.072 134.796 186.842 134.171 186.756 133.519C186.67 132.867 186.731 132.204 186.935 131.579C187.138 130.954 187.479 130.382 187.932 129.905C188.385 129.429 188.938 129.059 189.552 128.824L190.631 128.415C191.34 128.143 191.97 127.7 192.467 127.127C192.964 126.553 193.313 125.866 193.482 125.127C193.651 124.387 193.636 123.617 193.438 122.884C193.239 122.152 192.864 121.479 192.344 120.926L191.544 120.074C191.095 119.595 190.758 119.022 190.558 118.397C190.358 117.771 190.3 117.109 190.388 116.458C190.477 115.807 190.709 115.184 191.068 114.635C191.428 114.085 191.905 113.623 192.466 113.281L193.458 112.69C194.106 112.296 194.647 111.748 195.034 111.096C195.42 110.444 195.641 109.706 195.676 108.949C195.712 108.191 195.56 107.437 195.236 106.751C194.911 106.066 194.424 105.471 193.815 105.018L192.876 104.318C192.343 103.932 191.903 103.43 191.592 102.85C191.28 102.27 191.104 101.627 191.076 100.969C191.049 100.312 191.168 99.6566 191.425 99.0512C191.682 98.4458 192.071 97.9053 192.563 97.4689L193.433 96.695C194.001 96.1912 194.436 95.5553 194.7 94.8434C194.964 94.1315 195.049 93.3656 194.947 92.6133C194.844 91.861 194.558 91.1454 194.114 90.5299C193.669 89.9143 193.08 89.4177 192.398 89.084L191.354 88.571C190.764 88.2826 190.245 87.8655 189.837 87.3502C189.429 86.8349 189.142 86.2346 188.997 85.5936C188.852 84.9525 188.852 84.2871 188.998 83.6463C189.144 83.0055 189.432 82.4056 189.841 81.891L190.554 80.978C191.022 80.3804 191.336 79.6771 191.468 78.9299C191.6 78.1826 191.546 77.4144 191.312 76.6927C191.077 75.9711 190.669 75.3182 190.122 74.7914C189.576 74.2647 188.909 73.8802 188.179 73.672L187.057 73.35C186.426 73.1718 185.842 72.8549 185.348 72.4224C184.855 71.9899 184.464 71.4527 184.204 70.85C183.944 70.2462 183.824 69.5917 183.853 68.9351C183.882 68.2785 184.058 67.6368 184.369 67.058L184.908 66.023C185.262 65.3517 185.445 64.604 185.442 63.8454C185.438 63.0868 185.249 62.3406 184.89 61.6724C184.531 61.0042 184.013 60.4343 183.382 60.013C182.752 59.5917 182.027 59.3317 181.272 59.256L180.115 59.143C179.461 59.0818 178.828 58.8748 178.264 58.537C177.7 58.1992 177.218 57.7393 176.855 57.1911C176.492 56.6429 176.257 56.0203 176.166 55.369C176.075 54.7178 176.132 54.0545 176.331 53.428L176.688 52.315C176.908 51.622 176.961 50.8869 176.844 50.1694C176.726 49.4519 176.441 48.7723 176.011 48.1858C175.582 47.5994 175.02 47.1226 174.371 46.7942C173.722 46.4658 173.005 46.2951 172.278 46.296C172.147 46.296 172.026 46.305 171.895 46.313C171.895 46.313 170.442 46.426 170.373 46.426C169.747 46.4242 169.128 46.2894 168.558 46.0305C167.987 45.7716 167.478 45.3945 167.065 44.9241C166.651 44.4538 166.342 43.9009 166.158 43.3022C165.974 42.7034 165.92 42.0724 165.998 41.451L166.155 40.303C166.237 39.6515 166.18 38.9901 165.987 38.3625C165.795 37.7348 165.471 37.1552 165.038 36.6619C164.604 36.1686 164.071 35.7729 163.474 35.5008C162.876 35.2288 162.228 35.0867 161.571 35.084C161.163 35.0869 160.756 35.1424 160.362 35.249L159.231 35.549C158.862 35.6451 158.482 35.6949 158.1 35.697C156.97 35.6961 155.884 35.2616 155.065 34.483C154.246 33.7045 153.758 32.6413 153.7 31.513L153.63 30.347C153.595 29.59 153.372 28.8536 152.982 28.2039C152.592 27.5541 152.047 27.0113 151.395 26.624C150.677 26.1968 149.856 25.9716 149.02 25.972C148.337 25.9709 147.663 26.1226 147.046 26.416L145.985 26.916C145.396 27.1877 144.755 27.3302 144.106 27.334C143.115 27.3307 142.153 26.9934 141.377 26.3765C140.6 25.7596 140.054 24.8992 139.827 23.934L139.549 22.803C139.375 22.0644 139.023 21.38 138.522 20.8097C138.022 20.2395 137.389 19.8011 136.679 19.533C136.158 19.3423 135.608 19.2452 135.053 19.246C134.085 19.2421 133.14 19.5434 132.353 20.107L131.414 20.785C130.878 21.1643 130.265 21.4203 129.618 21.5346C128.972 21.6489 128.308 21.6186 127.674 21.446C127.038 21.2737 126.449 20.9591 125.952 20.5261C125.454 20.093 125.062 19.5527 124.804 18.946L124.343 17.885C124.04 17.1884 123.569 16.5774 122.973 16.1064C122.376 15.6354 121.673 15.3189 120.925 15.185C120.653 15.1336 120.376 15.1075 120.099 15.107C119.481 15.1088 118.869 15.2344 118.3 15.4764C117.731 15.7184 117.216 16.0718 116.785 16.516L115.967 17.351C115.559 17.7756 115.069 18.1143 114.528 18.3471C113.987 18.58 113.404 18.7023 112.815 18.707L112.415 18.69C111.762 18.6287 111.13 18.4229 110.566 18.0873C110.002 17.7518 109.519 17.295 109.153 16.75L108.509 15.785C108.086 15.1534 107.514 14.6358 106.844 14.2778C106.173 13.9199 105.425 13.7326 104.665 13.7326C103.905 13.7326 103.156 13.9199 102.486 14.2778C101.815 14.6358 101.243 15.1534 100.82 15.785L100.176 16.75C99.8126 17.2924 99.3329 17.7471 98.7718 18.081C98.2107 18.415 97.5823 18.62 96.9322 18.681C96.8542 18.69 96.5932 18.707 96.5142 18.707C95.9234 18.704 95.3391 18.5832 94.7955 18.3517C94.2519 18.1203 93.7598 17.7828 93.3482 17.359L92.5482 16.533C92.1144 16.0886 91.5964 15.7351 91.0245 15.4932C90.4526 15.2513 89.8382 15.1258 89.2172 15.124C88.9401 15.1249 88.6636 15.151 88.3912 15.202C87.6446 15.3386 86.943 15.6568 86.3484 16.1286C85.7537 16.6003 85.2842 17.211 84.9812 17.907L84.5112 18.968C84.2533 19.5705 83.8629 20.1071 83.3689 20.5379C82.875 20.9687 82.2902 21.2825 81.6582 21.456C81.2726 21.5605 80.8748 21.6133 80.4752 21.613C79.556 21.6115 78.6597 21.3258 77.9092 20.795L76.9702 20.117C76.1831 19.5533 75.2383 19.2521 74.2702 19.256C73.2281 19.2515 72.2154 19.6009 71.3979 20.2472C70.5804 20.8934 70.0065 21.798 69.7702 22.813L69.5092 23.944C69.2786 24.9123 68.7283 25.7746 67.9471 26.3915C67.166 27.0085 66.1996 27.344 65.2042 27.344C64.5553 27.3393 63.9148 27.1968 63.3252 26.926L62.2732 26.426C61.6617 26.134 60.9928 25.9823 60.3152 25.982C59.4794 25.9827 58.6592 26.2079 57.9402 26.634C57.2888 27.0213 56.7437 27.5641 56.3537 28.2139C55.9636 28.8636 55.7408 29.6 55.7052 30.357L55.6442 31.5229C55.5865 32.6513 55.0979 33.7145 54.2792 34.493C53.4604 35.2716 52.374 35.7061 51.2442 35.707C50.8569 35.7048 50.4714 35.6551 50.0962 35.559L48.9742 35.259C48.5855 35.1535 48.1849 35.0981 47.7822 35.094C46.6594 35.0958 45.5751 35.5035 44.7292 36.242C44.1564 36.7407 43.716 37.3734 43.4472 38.0838C43.1785 38.7941 43.0899 39.56 43.1892 40.313L43.3372 41.461C43.4175 42.0827 43.3643 42.7145 43.1812 43.3141C42.9981 43.9137 42.6892 44.4674 42.2752 44.9382C41.8612 45.409 41.3515 45.7861 40.7802 46.0444C40.2089 46.3027 39.5892 46.4361 38.9622 46.436C38.8922 46.436 37.4492 46.323 37.4222 46.323C37.2912 46.314 37.1782 46.306 37.0572 46.306C36.3301 46.3051 35.6131 46.4758 34.9645 46.8042C34.3158 47.1325 33.7538 47.6094 33.3241 48.1958C32.8944 48.7823 32.6091 49.4619 32.4915 50.1794C32.3739 50.8969 32.4272 51.632 32.6472 52.325L32.9952 53.438C33.1961 54.0632 33.2543 54.7255 33.1654 55.3762C33.0764 56.0269 32.8427 56.6493 32.4813 57.1977C32.12 57.746 31.6402 58.2064 31.0774 58.5447C30.5146 58.8831 29.883 59.091 29.2292 59.153L28.0722 59.266C27.3156 59.3399 26.5888 59.5991 25.9562 60.0208C25.3236 60.4424 24.8046 61.0134 24.4452 61.6832C24.0857 62.3531 23.8969 63.1012 23.8953 63.8615C23.8937 64.6217 24.0795 65.3706 24.4362 66.042L24.9752 67.06C25.2835 67.6407 25.4577 68.2832 25.485 68.9401C25.5123 69.5971 25.392 70.2518 25.133 70.8562C24.874 71.4605 24.4829 71.9991 23.9883 72.4324C23.4937 72.8657 22.9084 73.1827 22.2752 73.36L21.1532 73.682C20.4247 73.892 19.7589 74.2775 19.2142 74.8048C18.6695 75.3321 18.2625 75.985 18.0289 76.7063C17.7953 77.4275 17.7423 78.1951 17.8745 78.9416C18.0067 79.6881 18.3201 80.3908 18.7872 80.988L19.5092 81.901C19.9146 82.4178 20.1994 83.0188 20.3427 83.6598C20.486 84.3009 20.4842 84.9659 20.3375 85.6062C20.1907 86.2465 19.9027 86.8459 19.4945 87.3606C19.0863 87.8753 18.5683 88.2923 17.9782 88.581L16.9342 89.0939C16.2543 89.4297 15.6672 89.9272 15.2244 90.5427C14.7816 91.1583 14.4966 91.8731 14.3944 92.6245C14.2923 93.3758 14.376 94.1408 14.6384 94.8522C14.9007 95.5636 15.3337 96.1998 15.8992 96.7049L16.7692 97.479C17.2605 97.9144 17.6483 98.4541 17.9045 99.0586C18.1607 99.663 18.2787 100.317 18.25 100.973C18.2212 101.629 18.0464 102.27 17.7384 102.85C17.4303 103.429 16.9967 103.933 16.4692 104.324L15.5382 105.011C14.9264 105.461 14.4349 106.054 14.1071 106.739C13.7793 107.424 13.6254 108.179 13.6589 108.937C13.6924 109.696 13.9124 110.435 14.2993 111.088C14.6862 111.741 15.2281 112.289 15.8772 112.683L16.8772 113.292C17.4367 113.634 17.9129 114.096 18.2712 114.645C18.6294 115.195 18.8607 115.817 18.9481 116.467C19.0356 117.117 18.977 117.778 18.7767 118.402C18.5764 119.026 18.2394 119.598 17.7902 120.076L16.9902 120.928C16.4733 121.482 16.0997 122.153 15.902 122.884C15.7044 123.616 15.6887 124.384 15.8564 125.123C16.0241 125.861 16.37 126.548 16.864 127.122C17.3579 127.696 17.9849 128.141 18.6902 128.417L19.7902 128.834C20.4031 129.069 20.9556 129.439 21.4074 129.915C21.8591 130.391 22.1987 130.963 22.4014 131.587C22.604 132.212 22.6645 132.873 22.5785 133.524C22.4925 134.175 22.2621 134.799 21.9042 135.349L21.2782 136.323C20.8654 136.96 20.6152 137.688 20.5497 138.444C20.4841 139.2 20.6052 139.96 20.9024 140.659C21.1995 141.357 21.6635 141.971 22.2537 142.448C22.8439 142.925 23.5422 143.25 24.2872 143.394L25.4262 143.603C26.0724 143.724 26.6834 143.988 27.2143 144.376C27.7452 144.764 28.1826 145.265 28.4946 145.844C28.8065 146.423 28.9849 147.064 29.0169 147.721C29.0488 148.377 28.9334 149.033 28.6792 149.639L28.2272 150.709C27.9333 151.41 27.8169 152.173 27.8883 152.93C27.9596 153.687 28.2166 154.415 28.6364 155.049C29.0562 155.682 29.6259 156.203 30.295 156.564C30.9641 156.925 31.7119 157.116 32.4722 157.119L33.6292 157.128C34.2856 157.134 34.9323 157.286 35.5223 157.574C36.1124 157.862 36.6308 158.277 37.04 158.79C37.4491 159.304 37.7386 159.902 37.8874 160.541C38.0362 161.18 38.0406 161.845 37.9002 162.486L37.6482 163.625C37.4834 164.364 37.5037 165.133 37.7073 165.862C37.9108 166.592 38.2914 167.26 38.8152 167.807C39.2481 168.256 39.7668 168.614 40.3406 168.859C40.9143 169.104 41.5314 169.231 42.1552 169.233C42.4203 169.231 42.6849 169.208 42.9462 169.163L44.1032 168.963C44.3503 168.921 44.6006 168.901 44.8512 168.902C45.4443 168.9 46.0316 169.019 46.5776 169.251C47.1237 169.482 47.6171 169.822 48.0283 170.25C48.4394 170.677 48.7597 171.184 48.9699 171.738C49.1801 172.293 49.2758 172.884 49.2512 173.477L49.2162 174.634C49.1924 175.255 49.2942 175.875 49.5156 176.457C49.737 177.038 50.0734 177.568 50.5047 178.016C50.9359 178.465 51.4532 178.821 52.0254 179.065C52.5977 179.308 53.2133 179.434 53.8352 179.434C54.3759 179.435 54.9122 179.338 55.4182 179.147L56.5182 178.747C57.0067 178.572 57.5213 178.48 58.0402 178.477C58.8341 178.477 59.6129 178.694 60.2932 179.103C60.8598 179.435 61.3433 179.892 61.7071 180.439C62.071 180.986 62.3056 181.609 62.3932 182.26L62.5672 183.417C62.6749 184.168 62.9657 184.88 63.4138 185.492C63.862 186.104 64.4538 186.596 65.137 186.925C65.8203 187.254 66.574 187.41 67.3318 187.379C68.0895 187.348 68.828 187.132 69.4822 186.748L70.4912 186.157C71.1685 185.758 71.9402 185.548 72.7262 185.548C73.2518 185.546 73.7733 185.641 74.2652 185.826C74.8804 186.058 75.4361 186.425 75.8919 186.899C76.3477 187.373 76.6922 187.942 76.9002 188.566L77.2652 189.666C77.5052 190.388 77.9197 191.04 78.4719 191.563C79.024 192.087 79.6968 192.466 80.4306 192.667C81.1644 192.868 81.9365 192.886 82.6785 192.717C83.4204 192.548 84.1094 192.199 84.6842 191.701L85.5542 190.944C86.0536 190.516 86.6421 190.205 87.2769 190.034C87.9116 189.863 88.5766 189.835 89.2234 189.953C89.8702 190.072 90.4824 190.333 91.0153 190.718C91.5483 191.103 91.9886 191.602 92.3042 192.179L92.8522 193.197C93.2196 193.863 93.7448 194.428 94.3817 194.844C95.0186 195.259 95.7478 195.512 96.5052 195.58C96.6442 195.589 96.7752 195.597 96.9142 195.597C97.6028 195.597 98.2827 195.444 98.9042 195.147C99.5257 194.851 100.073 194.419 100.506 193.884L101.237 192.984C101.651 192.473 102.173 192.062 102.766 191.779C103.359 191.496 104.007 191.349 104.664 191.349C105.321 191.349 105.97 191.496 106.563 191.779C107.156 192.062 107.678 192.473 108.091 192.984L108.822 193.884C109.254 194.421 109.801 194.855 110.423 195.153C111.045 195.451 111.726 195.606 112.415 195.607C112.558 195.607 112.689 195.599 112.837 195.591L112.833 195.589Z" fill="url(#paint3_linear)"/>
<path d="M104.674 21.677C88.258 21.677 72.2108 26.5449 58.5615 35.665C44.9123 44.7852 34.2739 57.748 27.9919 72.9143C21.7098 88.0806 20.0661 104.769 23.2687 120.869C26.4713 136.97 34.3762 151.759 45.984 163.367C57.5918 174.975 72.3809 182.88 88.4814 186.082C104.582 189.285 121.27 187.641 136.437 181.359C151.603 175.077 164.566 164.439 173.686 150.789C182.806 137.14 187.674 121.093 187.674 104.677C187.676 93.7768 185.53 82.983 181.36 72.9121C177.189 62.8412 171.075 53.6907 163.368 45.983C155.66 38.2754 146.51 32.1617 136.439 27.9913C126.368 23.8208 115.574 21.6752 104.674 21.677ZM104.674 185.823C88.6248 185.822 72.9365 181.062 59.5925 172.146C46.2486 163.229 35.8484 150.555 29.707 135.728C23.5657 120.9 21.9591 104.585 25.0903 88.844C28.2215 73.1034 35.9499 58.6448 47.2983 47.2964C58.6466 35.948 73.1053 28.2196 88.8459 25.0884C104.586 21.9572 120.902 23.5639 135.73 29.7052C150.557 35.8465 163.231 46.2467 172.147 59.5907C181.064 72.9346 185.824 88.623 185.825 104.672C185.799 126.187 177.24 146.812 162.027 162.025C146.814 177.239 126.188 185.797 104.674 185.823Z" fill="url(#paint4_linear)"/>
<g style="mix-blend-mode:hard-light" opacity="0.16">
<path d="M104.791 16C78.1106 16.0023 52.5194 26.5821 33.6263 45.4207C14.7332 64.2592 4.07941 89.8197 4 116.5C37.2437 122.671 70.9884 125.743 104.8 125.676C138.603 125.742 172.338 122.671 205.573 116.5C205.497 89.8202 194.846 64.2589 175.954 45.4198C157.062 26.5806 131.471 16.001 104.791 16Z" fill="white"/>
</g>
<defs>
<linearGradient id="paint0_linear" x1="30.5648" y1="178.783" x2="178.783" y2="30.5648" gradientUnits="userSpaceOnUse">
<stop stop-color="#FAB865"/>
<stop offset="0.253" stop-color="#FFFE9E"/>
<stop offset="0.5" stop-color="#FAB865"/>
<stop offset="0.806" stop-color="#FFFE9E"/>
<stop offset="1" stop-color="#FAB865"/>
</linearGradient>
<radialGradient id="paint1_radial" cx="0" cy="0" r="1" gradientUnits="userSpaceOnUse" gradientTransform="translate(104.668 104.681) scale(100.8)">
<stop stop-color="#79973C"/>
<stop offset="1" stop-color="#434F1A"/>
</radialGradient>
<linearGradient id="paint2_linear" x1="33.3018" y1="176.047" x2="176.035" y2="33.3145" gradientUnits="userSpaceOnUse">
<stop stop-color="#953900"/>
<stop offset="0.253" stop-color="#C89B14"/>
<stop offset="0.5" stop-color="#953900"/>
<stop offset="0.806" stop-color="#C89B14"/>
<stop offset="1" stop-color="#953900"/>
</linearGradient>
<linearGradient id="paint3_linear" x1="11.4473" y1="104.676" x2="197.891" y2="104.676" gradientUnits="userSpaceOnUse">
<stop stop-color="#FAB865"/>
<stop offset="0.253" stop-color="#FFFE9E"/>
<stop offset="0.5" stop-color="#FAB865"/>
<stop offset="0.806" stop-color="#FFFE9E"/>
<stop offset="1" stop-color="#FAB865"/>
</linearGradient>
<linearGradient id="paint4_linear" x1="21.6738" y1="104.677" x2="187.674" y2="104.677" gradientUnits="userSpaceOnUse">
<stop stop-color="#FAB865"/>
<stop offset="0.253" stop-color="#FFFE9E"/>
<stop offset="0.5" stop-color="#FAB865"/>
<stop offset="0.806" stop-color="#FFFE9E"/>
<stop offset="1" stop-color="#FAB865"/>
</linearGradient>
</defs>
</svg>
