<svg width="97" height="97" viewBox="0 0 97 97" fill="none" xmlns="http://www.w3.org/2000/svg">
<path d="M95.8182 49.5241C96.4128 23.362 75.6862 1.67131 49.5241 1.0767C23.3619 0.482079 1.67126 21.2087 1.07665 47.3708C0.482031 73.533 21.2086 95.2236 47.3708 95.8182C73.5329 96.4128 95.2236 75.6863 95.8182 49.5241Z" fill="url(#paint0_linear)"/>
<path d="M48.5006 94.7262C74.0597 94.6967 94.7557 73.9531 94.7262 48.3939C94.6968 22.8347 73.9531 2.13881 48.394 2.16825C22.8348 2.19769 2.13886 22.9414 2.1683 48.5005C2.19774 74.0597 22.9414 94.7556 48.5006 94.7262Z" fill="url(#paint1_linear)"/>
<path d="M91.119 48.4465C91.1196 40.0062 88.6172 31.7552 83.9284 24.737C79.2395 17.7189 72.5748 12.2488 64.777 9.01849C56.9793 5.78822 48.3987 4.94288 40.1205 6.58937C31.8422 8.23586 24.2382 12.3002 18.2699 18.2685C12.3017 24.2367 8.23733 31.8408 6.59084 40.119C4.94435 48.3972 5.78969 56.9778 9.01995 64.7756C12.2502 72.5733 17.7203 79.2381 24.7385 83.9269C31.7566 88.6158 40.0076 91.1181 48.448 91.1176C54.0517 91.1177 59.6005 90.0141 64.7777 87.8697C69.9548 85.7253 74.6589 82.5822 78.6213 78.6198C82.5837 74.6574 85.7268 69.9533 87.8711 64.7762C90.0155 59.599 91.1191 54.0502 91.119 48.4465V48.4465Z" fill="url(#paint2_linear)"/>
<path d="M48.4441 5.77454C52.1732 5.77496 55.8863 6.26276 59.4891 7.22554L56.5621 18.1605C51.2457 16.7392 45.6494 16.7392 40.3331 18.1605L37.399 7.22554C41.0018 6.26282 44.7149 5.77502 48.4441 5.77454V5.77454ZM7.22705 37.4005L18.1611 40.3305C19.5903 35.0161 22.388 30.1693 26.2751 26.2735L18.2751 18.2735C12.9779 23.5694 9.16768 30.1659 7.22705 37.4005V37.4005ZM18.2721 78.6205L26.2721 70.6205C22.3835 66.7252 19.5865 61.8767 18.1611 56.5605L7.22705 59.4905C9.16618 66.7263 12.9754 73.3242 18.2721 78.6215V78.6205ZM59.4921 89.6655L56.5621 78.7315C51.2457 80.1528 45.6494 80.1528 40.3331 78.7315L37.399 89.6665C44.6356 91.6069 52.2555 91.6069 59.4921 89.6665V89.6655ZM89.6681 59.4905L78.7331 56.5605C77.3062 61.876 74.5082 66.7234 70.619 70.6175L78.619 78.6175C83.9165 73.3218 87.7271 66.7252 89.6681 59.4905V59.4905ZM78.6231 18.2705L70.6231 26.2705C74.5101 30.1663 77.3078 35.0131 78.7371 40.3275L89.6681 37.4005C87.7288 30.1652 83.9195 23.5676 78.6231 18.2705V18.2705Z" fill="url(#paint3_linear)"/>
<path d="M79.803 48.4425C79.8022 42.242 77.9629 36.181 74.5176 31.0258C71.0723 25.8706 66.1757 21.8527 60.4471 19.4803C54.7184 17.1078 48.4149 16.4873 42.3336 17.6971C36.2522 18.907 30.6662 21.8929 26.2818 26.2773C21.8974 30.6617 18.9115 36.2477 17.7016 42.329C16.4918 48.4104 17.1123 54.7139 19.4848 60.4425C21.8572 66.1712 25.8751 71.0678 31.0303 74.5131C36.1855 77.9584 42.2465 79.7977 48.447 79.7985C52.5649 79.7989 56.6424 78.9881 60.4469 77.4125C64.2514 75.8368 67.7082 73.5272 70.6199 70.6154C73.5317 67.7037 75.8413 64.2468 77.417 60.4424C78.9926 56.6379 79.8034 52.5603 79.803 48.4425V48.4425Z" fill="url(#paint4_linear)"/>
<path d="M55.2598 77.8321C71.4885 74.0696 81.5943 57.8636 77.8318 41.6349C74.0693 25.4062 57.8633 15.3004 41.6346 19.0629C25.4059 22.8254 15.3001 39.0314 19.0626 55.2601C22.8251 71.4888 39.0312 81.5946 55.2598 77.8321Z" fill="url(#paint5_radial)"/>
<path style="mix-blend-mode:hard-light" opacity="0.67" d="M48.447 56.4545C32.982 56.4545 18.373 53.3945 6.14697 47.5925C6.34865 36.5071 10.8939 25.9438 18.8047 18.1756C26.7156 10.4074 37.3597 6.05505 48.447 6.05505C59.5342 6.05505 70.1784 10.4074 78.0892 18.1756C86 25.9438 90.5453 36.5071 90.747 47.5925C78.525 53.3945 63.913 56.4545 48.447 56.4545Z" fill="url(#paint6_linear)"/>
<defs>
<linearGradient id="paint0_linear" x1="95.8182" y1="49.5241" x2="1.07665" y2="47.3708" gradientUnits="userSpaceOnUse">
<stop stop-color="#953900"/>
<stop offset="0.253" stop-color="#C89B14"/>
<stop offset="0.5" stop-color="#953900"/>
<stop offset="0.806" stop-color="#C89B14"/>
<stop offset="1" stop-color="#953900"/>
</linearGradient>
<linearGradient id="paint1_linear" x1="48.5006" y1="94.7262" x2="48.394" y2="2.16825" gradientUnits="userSpaceOnUse">
<stop stop-color="#FAB865"/>
<stop offset="0.253" stop-color="#FFFE9E"/>
<stop offset="0.5" stop-color="#FAB865"/>
<stop offset="0.806" stop-color="#FFFE9E"/>
<stop offset="1" stop-color="#FAB865"/>
</linearGradient>
<linearGradient id="paint2_linear" x1="48.445" y1="91.1176" x2="48.445" y2="5.76953" gradientUnits="userSpaceOnUse">
<stop stop-color="#D76200"/>
<stop offset="1" stop-color="#FFC12B"/>
</linearGradient>
<linearGradient id="paint3_linear" x1="18.2741" y1="18.2352" x2="80.6389" y2="76.5012" gradientUnits="userSpaceOnUse">
<stop stop-color="#324357"/>
<stop offset="0.083" stop-color="#243549"/>
<stop offset="0.279" stop-color="#0A1A2D"/>
<stop offset="0.393" stop-color="#001023"/>
<stop offset="0.494" stop-color="#0E1E32"/>
<stop offset="0.786" stop-color="#36475B"/>
<stop offset="0.865" stop-color="#334458"/>
<stop offset="0.913" stop-color="#2B3C50"/>
<stop offset="0.952" stop-color="#1D2E41"/>
<stop offset="0.986" stop-color="#0A1A2D"/>
<stop offset="1" stop-color="#001023"/>
</linearGradient>
<linearGradient id="paint4_linear" x1="48.451" y1="79.7985" x2="48.451" y2="17.0945" gradientUnits="userSpaceOnUse">
<stop stop-color="#FFC12B"/>
<stop offset="1" stop-color="#D76200"/>
</linearGradient>
<radialGradient id="paint5_radial" cx="0" cy="0" r="1" gradientUnits="userSpaceOnUse" gradientTransform="translate(42.505 55.9153) rotate(0.0103374) scale(30.1603)">
<stop stop-color="#7789A0"/>
<stop offset="0.602" stop-color="#304156"/>
<stop offset="1" stop-color="#001023"/>
</radialGradient>
<linearGradient id="paint6_linear" x1="48.447" y1="56.4545" x2="48.447" y2="6.05505" gradientUnits="userSpaceOnUse">
<stop offset="0.006" stop-color="#858585"/>
<stop offset="0.41" stop-color="#B4B4B4"/>
<stop offset="1" stop-color="white"/>
</linearGradient>
</defs>
</svg>
