<svg width="32" height="32" viewBox="0 0 32 32" fill="none" xmlns="http://www.w3.org/2000/svg">
<path d="M14 32C10.287 32 6.72601 30.525 4.1005 27.8995C1.475 25.274 0 21.713 0 18C0 14.287 1.475 10.726 4.1005 8.1005C6.72601 5.475 10.287 4 14 4C14.2652 4 14.5196 4.10536 14.7071 4.29289C14.8946 4.48043 15 4.73478 15 5V17H27C27.2652 17 27.5196 17.1054 27.7071 17.2929C27.8946 17.4804 28 17.7348 28 18C28 21.713 26.525 25.274 23.8995 27.8995C21.274 30.525 17.713 32 14 32V32ZM13 6C10.7244 6.19905 8.5529 7.04346 6.74064 8.43401C4.92838 9.82457 3.55066 11.7035 2.76937 13.85C1.98808 15.9965 1.83568 18.3214 2.33008 20.5516C2.82448 22.7817 3.94513 24.8244 5.56036 26.4396C7.17559 28.0549 9.21829 29.1755 11.4484 29.6699C13.6786 30.1643 16.0035 30.0119 18.15 29.2306C20.2965 28.4493 22.1754 27.0716 23.566 25.2594C24.9565 23.4471 25.801 21.2756 26 19H14C13.7348 19 13.4804 18.8946 13.2929 18.7071C13.1054 18.5196 13 18.2652 13 18V6ZM31 15H18C17.7348 15 17.4804 14.8946 17.2929 14.7071C17.1054 14.5196 17 14.2652 17 14V1C17 0.734784 17.1054 0.48043 17.2929 0.292893C17.4804 0.105357 17.7348 0 18 0C21.713 0 25.274 1.475 27.8995 4.1005C30.525 6.72601 32 10.287 32 14C32 14.2652 31.8946 14.5196 31.7071 14.7071C31.5196 14.8946 31.2652 15 31 15ZM19 13H30C29.7716 10.1588 28.5394 7.49166 26.5239 5.47614C24.5083 3.46063 21.8412 2.22837 19 2V13Z" fill="black"/>
</svg>
