<svg width="88" height="76" viewBox="0 0 88 76" fill="none" xmlns="http://www.w3.org/2000/svg">
<path d="M7 0C3.15659 0 0 3.15698 0 7.00098V35.005C0 38.848 3.15659 42.006 7 42.006H9.9375L10 54.007C10.0023 54.4295 10.1382 54.8404 10.3884 55.1809C10.6385 55.5214 10.99 55.7739 11.3925 55.9023C11.795 56.0306 12.2278 56.0282 12.6289 55.8954C13.0299 55.7626 13.3786 55.5062 13.625 55.163L23 42.006H30V55.007C30 58.851 33.1566 62.0079 37 62.0079H65L74.375 75.166C74.6214 75.5092 74.9701 75.7656 75.3711 75.8984C75.7722 76.0312 76.205 76.0336 76.6075 75.9053C77.01 75.7769 77.3615 75.5244 77.6116 75.184C77.8618 74.8435 77.9977 74.4325 78 74.01L78.0625 62.0079H81C84.8434 62.0079 88 58.851 88 55.007V27.004C88 23.16 84.8434 20.003 81 20.003H58V7.00098C58 3.15698 54.8434 0 51 0H7V0ZM7 4H51C52.6965 4 54 5.30398 54 7.00098V20.003H37C33.1566 20.003 30 23.16 30 27.004V38.005H21.9688C21.653 38.0025 21.3412 38.0748 21.0588 38.2159C20.7763 38.357 20.5313 38.563 20.3438 38.817L13.9688 47.756L13.9375 39.974C13.9293 39.4489 13.7149 38.9482 13.3408 38.5798C12.9666 38.2115 12.4626 38.005 11.9375 38.005H7.00005C5.30346 38.005 4.00005 36.7 4.00005 35.005V7.00098C4.00005 5.30398 5.30346 4 7.00005 4H7ZM37 24.003H81C82.6966 24.003 84 25.306 84 27.004V55.007C84 56.703 82.6966 58.008 81 58.008H76.0625C75.5375 58.008 75.0335 58.2144 74.6593 58.5828C74.2851 58.9512 74.0708 59.452 74.0625 59.9771L74.0313 67.759L67.6563 58.82C67.4687 58.566 67.2237 58.36 66.9413 58.2189C66.6588 58.0777 66.347 58.0055 66.0313 58.008H37C35.3035 58.008 34 56.703 34 55.007V27.004C34 25.306 35.3035 24.003 37 24.003H37Z" fill="black"/>
</svg>
