<svg width="36" height="37" viewBox="0 0 36 37" fill="none" xmlns="http://www.w3.org/2000/svg">
<path d="M33 17.6242C33.6386 16.9001 33.9938 15.9695 34 15.0042V13.0042C34 11.9433 33.5786 10.9259 32.8284 10.1757C32.0783 9.42558 31.0609 9.00415 30 9.00415C28.9391 9.00415 27.9217 9.42558 27.1716 10.1757C26.4214 10.9259 26 11.9433 26 13.0042V15.0042C26.0062 15.9695 26.3614 16.9001 27 17.6242C26.6961 17.7789 26.408 17.9632 26.14 18.1742C26.2658 18.3412 26.3826 18.5147 26.49 18.6942C27.4851 20.2858 28.0087 22.127 28 24.0042V26.0042H35C35.2652 26.0042 35.5196 25.8988 35.7071 25.7113C35.8946 25.5237 36 25.2694 36 25.0042V22.5042C35.9999 21.4929 35.7195 20.5015 35.1899 19.64C34.6603 18.7786 33.9023 18.0808 33 17.6242Z" fill="black"/>
<path d="M23.66 18.3442C23.47 18.1542 23.28 17.9841 23.08 17.8141C22.5465 17.3791 21.9581 17.016 21.33 16.7341C21.8377 16.2767 22.249 15.7225 22.54 15.1042C22.8414 14.445 22.9982 13.729 23 13.0042V11.0042C23 9.67807 22.4732 8.4063 21.5355 7.46862C20.5979 6.53093 19.3261 6.00415 18 6.00415C16.6739 6.00415 15.4021 6.53093 14.4645 7.46862C13.5268 8.4063 13 9.67807 13 11.0042V13.0042C13.0018 13.729 13.1586 14.445 13.46 15.1042C13.751 15.7225 14.1623 16.2767 14.67 16.7341C14.0414 17.0135 13.4556 17.3804 12.93 17.8242C12.2674 18.3617 11.6966 19.0034 11.24 19.7241C10.4297 21.0046 9.99965 22.4888 10 24.0042V27.0042C10 27.2694 10.1054 27.5237 10.2929 27.7113C10.4804 27.8988 10.7348 28.0042 11 28.0042H25C25.2652 28.0042 25.5196 27.8988 25.7071 27.7113C25.8946 27.5237 26 27.2694 26 27.0042V24.0042C26.004 22.4915 25.5736 21.0094 24.76 19.7341C24.4504 19.2284 24.081 18.7617 23.66 18.3442V18.3442Z" fill="black"/>
<path d="M0 22.5042V25.0042C0 25.2694 0.105357 25.5237 0.292893 25.7113C0.48043 25.8988 0.734784 26.0042 1 26.0042H8V24.0042C8.00283 22.1105 8.54009 20.2561 9.55 18.6542C9.64839 18.4865 9.75868 18.3261 9.88 18.1742C9.61357 17.961 9.32529 17.7766 9.02 17.6242C9.65134 16.8972 9.9993 15.967 10 15.0042V13.0042C10 11.9433 9.57857 10.9259 8.82843 10.1757C8.07828 9.42558 7.06087 9.00415 6 9.00415C4.93913 9.00415 3.92172 9.42558 3.17157 10.1757C2.42143 10.9259 2 11.9433 2 13.0042V15.0042C2.00624 15.9695 2.36142 16.9001 3 17.6242C2.09773 18.0808 1.33971 18.7786 0.810118 19.64C0.280528 20.5015 0.000106069 21.4929 0 22.5042V22.5042Z" fill="black"/>
<path d="M6.68998 29.3142C6.59674 29.2209 6.48605 29.147 6.36423 29.0965C6.24241 29.0461 6.11184 29.0201 5.97998 29.0201C5.84812 29.0201 5.71756 29.0461 5.59573 29.0965C5.47391 29.147 5.36322 29.2209 5.26998 29.3142C5.17674 29.4074 5.10278 29.5181 5.05232 29.6399C5.00186 29.7617 4.97589 29.8923 4.97589 30.0242C4.97589 30.156 5.00186 30.2866 5.05232 30.4084C5.10278 30.5302 5.17674 30.6409 5.26998 30.7342C6.94151 32.4062 8.92608 33.7326 11.1103 34.6376C13.2946 35.5426 15.6357 36.0083 18 36.0083C20.3643 36.0083 22.7054 35.5426 24.8896 34.6376C27.0739 33.7326 29.0585 32.4062 30.73 30.7342C30.9183 30.5459 31.0241 30.2905 31.0241 30.0242C31.0241 29.7579 30.9183 29.5025 30.73 29.3142C30.5417 29.1259 30.2863 29.0201 30.02 29.0201C29.7537 29.0201 29.4983 29.1259 29.31 29.3142C26.3097 32.3125 22.2416 33.9968 18 33.9968C13.7583 33.9968 9.69026 32.3125 6.68998 29.3142V29.3142Z" fill="black"/>
<path d="M30.73 6.69416C30.8237 6.60119 30.8981 6.49059 30.9489 6.36873C30.9996 6.24687 31.0258 6.11617 31.0258 5.98416C31.0258 5.85214 30.9996 5.72144 30.9489 5.59958C30.8981 5.47772 30.8237 5.36712 30.73 5.27416C29.0584 3.60208 27.0739 2.27568 24.8896 1.37073C22.7054 0.465779 20.3643 0 18 0C15.6357 0 13.2946 0.465779 11.1103 1.37073C8.92608 2.27568 6.94151 3.60208 5.26998 5.27416C5.17625 5.36712 5.10186 5.47772 5.05109 5.59958C5.00032 5.72144 4.97418 5.85214 4.97418 5.98416C4.97418 6.11617 5.00032 6.24687 5.05109 6.36873C5.10186 6.49059 5.17625 6.60119 5.26998 6.69416C5.36409 6.79288 5.4774 6.87131 5.60293 6.92462C5.72847 6.97793 5.86359 7.005 5.99998 7.00416C6.13159 7.00492 6.26205 6.97969 6.38389 6.92993C6.50572 6.88016 6.61654 6.80684 6.70998 6.71416C9.71026 3.71584 13.7783 2.03157 18.02 2.03157C22.2616 2.03157 26.3297 3.71584 29.33 6.71416C29.5195 6.89474 29.7723 6.99379 30.0341 6.99005C30.2958 6.98631 30.5457 6.88008 30.73 6.69416V6.69416Z" fill="black"/>
</svg>
