<svg width="64" height="75" viewBox="0 0 64 75" fill="none" xmlns="http://www.w3.org/2000/svg">
<path d="M10.2188 11.9062C11.8005 11.9021 13.3163 11.2719 14.4347 10.1534C15.5532 9.03497 16.1834 7.51919 16.1875 5.93744C16.1841 5.5067 16.137 5.07741 16.0469 4.65619C16.0701 4.56917 16.0701 4.47759 16.0469 4.39057C16.0257 4.29063 15.977 4.19861 15.9063 4.12494C15.5666 3.07905 14.9445 2.14733 14.1088 1.4326C13.273 0.717867 12.2561 0.247915 11.1701 0.0745988C10.0842 -0.0987173 8.97149 0.0313412 7.95479 0.450421C6.9381 0.869501 6.05694 1.56131 5.40855 2.44951C4.76017 3.33771 4.36976 4.38777 4.28042 5.48381C4.19107 6.57986 4.40626 7.67929 4.90224 8.66077C5.39821 9.64225 6.1557 10.4676 7.0911 11.0458C8.0265 11.624 9.10346 11.9326 10.2031 11.9374L10.2188 11.9062ZM10.2188 10.6718C8.99954 10.6724 7.82808 10.1979 6.95294 9.34897C6.0778 8.50008 5.56784 7.34361 5.53126 6.12494C5.9078 6.19101 6.28961 6.22239 6.67188 6.21869C7.49842 6.22003 8.31608 6.04834 9.07226 5.71465C9.82844 5.38096 10.5064 4.89267 11.0625 4.2812C12.0301 4.90992 13.1586 5.24628 14.3125 5.24995H14.8594C14.8755 5.47362 14.8755 5.69815 14.8594 5.92182C14.8676 6.53871 14.754 7.15115 14.5251 7.72404C14.2962 8.29693 13.9564 8.81899 13.5252 9.26029C13.0941 9.70158 12.5801 10.0534 12.0127 10.2956C11.4453 10.5379 10.8357 10.6657 10.2188 10.6718V10.6718ZM10.2188 1.20307C11.1424 1.19636 12.0475 1.4627 12.8203 1.96864C13.5931 2.47458 14.1992 3.19757 14.5625 4.04682H14.3438C13.2691 4.08079 12.2154 3.74427 11.3594 3.09369C11.2223 2.99896 11.0567 2.95478 10.8906 2.96869C10.7248 2.98884 10.5735 3.07294 10.4688 3.20307C10.0225 3.783 9.44666 4.25041 8.78734 4.56786C8.12802 4.88531 7.40353 5.04399 6.67188 5.03119C6.30329 5.02392 5.93658 4.97677 5.57813 4.89057C5.80845 3.8354 6.39606 2.89212 7.24162 2.22023C8.08719 1.54833 9.13884 1.18903 10.2188 1.20307V1.20307Z" fill="black"/>
<path d="M17.2344 33.0468V29.9218C17.5902 30.1284 17.9948 30.2363 18.4063 30.2343C19.0354 30.2226 19.636 29.9696 20.0839 29.5275C20.5317 29.0855 20.7926 28.4883 20.8125 27.8593V19.4218C20.7919 17.7571 20.1162 16.1675 18.9316 14.9976C17.7471 13.8277 16.1493 13.1717 14.4844 13.1718H6.25C4.5924 13.1718 3.00269 13.8303 1.83058 15.0024C0.658481 16.1745 0 17.7642 0 19.4218V27.8593C0.00412637 28.4906 0.257817 29.0947 0.7057 29.5396C1.15358 29.9846 1.75929 30.2343 2.39063 30.2343C2.80239 30.2386 3.20753 30.1305 3.5625 29.9218V33.0468C3.5625 33.2084 3.6267 33.3634 3.74098 33.4777C3.85526 33.592 4.01026 33.6562 4.17188 33.6562H16.6719C16.8266 33.6481 16.972 33.5798 17.0771 33.466C17.1822 33.3521 17.2387 33.2017 17.2344 33.0468ZM16.0469 32.4374H4.73438V23.4062C4.69328 23.2811 4.61375 23.1723 4.50713 23.0951C4.40051 23.0179 4.27225 22.9763 4.14063 22.9763C4.009 22.9763 3.88074 23.0179 3.77412 23.0951C3.6675 23.1723 3.58798 23.2811 3.54688 23.4062V27.8437C3.54277 28.1518 3.41749 28.4458 3.19817 28.6622C2.97884 28.8786 2.68311 29 2.375 28.9999C2.07103 29 1.77928 28.8803 1.56288 28.6668C1.34649 28.4534 1.22286 28.1633 1.21875 27.8593V19.4218C1.22287 18.0763 1.75921 16.787 2.71065 15.8356C3.66209 14.8841 4.95134 14.3478 6.29688 14.3437H14.4844C15.8326 14.3437 17.1259 14.8782 18.0807 15.8301C19.0355 16.782 19.574 18.0736 19.5781 19.4218V27.7968C19.5706 28.1082 19.4457 28.4053 19.2284 28.6284C19.011 28.8515 18.7173 28.9843 18.4063 28.9999C18.0981 29 17.8024 28.8786 17.5831 28.6622C17.3638 28.4458 17.2385 28.1518 17.2344 27.8437V23.4062C17.2365 23.3256 17.2222 23.2454 17.1924 23.1705C17.1625 23.0956 17.1177 23.0275 17.0607 22.9705C17.0037 22.9135 16.9356 22.8687 16.8607 22.8388C16.7858 22.809 16.7056 22.7947 16.625 22.7968C16.4689 22.8048 16.3218 22.8726 16.2142 22.986C16.1066 23.0994 16.0467 23.2498 16.0469 23.4062V32.3749V32.4374Z" fill="black"/>
<path d="M12.4063 15.8906H8.34375C8.25447 15.8763 8.16316 15.8816 8.07613 15.9061C7.98909 15.9305 7.9084 15.9736 7.83962 16.0323C7.77084 16.0909 7.7156 16.1638 7.67773 16.2459C7.63985 16.328 7.62024 16.4173 7.62024 16.5077C7.62024 16.5982 7.63985 16.6875 7.67773 16.7696C7.7156 16.8517 7.77084 16.9246 7.83962 16.9832C7.9084 17.0419 7.98909 17.085 8.07613 17.1094C8.16316 17.1339 8.25447 17.1392 8.34375 17.1249H9.79688V24.4687C9.82031 24.6155 9.89532 24.7492 10.0084 24.8457C10.1216 24.9422 10.2654 24.9952 10.4141 24.9952C10.5627 24.9952 10.7066 24.9422 10.8197 24.8457C10.9328 24.7492 11.0078 24.6155 11.0313 24.4687V17.1562H12.4531C12.6 17.1328 12.7336 17.0577 12.8301 16.9446C12.9266 16.8315 12.9796 16.6877 12.9796 16.539C12.9796 16.3903 12.9266 16.2465 12.8301 16.1334C12.7336 16.0203 12.6 15.9452 12.4531 15.9218L12.4063 15.8906Z" fill="black"/>
<path d="M51.1406 47.2499C51.1429 46.7542 51.0799 46.2604 50.9531 45.7812C50.5619 44.3222 49.6306 43.0665 48.3481 42.2685C47.0655 41.4705 45.5276 41.1899 44.0459 41.4836C42.5642 41.7772 41.2495 42.6231 40.3682 43.8499C39.4869 45.0767 39.105 46.5927 39.2997 48.0906C39.4944 49.5885 40.2513 50.9564 41.417 51.9171C42.5826 52.8778 44.0699 53.3595 45.5774 53.2645C47.085 53.1695 48.5 52.505 49.5359 51.4056C50.5718 50.3063 51.151 48.8542 51.1562 47.3437L51.1406 47.2499ZM45.1719 42.5624C46.095 42.5671 46.997 42.8398 47.7681 43.3474C48.5393 43.855 49.1463 44.5757 49.5156 45.4218C48.338 45.4857 47.1773 45.1192 46.25 44.3906C46.1185 44.2835 45.9499 44.2329 45.7812 44.2499C45.6136 44.2756 45.4624 44.3652 45.3594 44.4999C44.9212 45.0892 44.3508 45.5673 43.694 45.8957C43.0372 46.2241 42.3124 46.3936 41.5781 46.3906C41.2359 46.3885 40.895 46.3465 40.5625 46.2656C40.776 45.2013 41.3522 44.2441 42.1928 43.5573C43.0335 42.8706 44.0864 42.4968 45.1719 42.4999V42.5624ZM40.4844 47.5156C40.8503 47.5836 41.2215 47.6202 41.5937 47.6249C42.4185 47.6245 43.2343 47.4535 43.9899 47.1227C44.7454 46.792 45.4245 46.3087 45.9844 45.7031C47.1391 46.4302 48.5 46.7595 49.8594 46.6406C49.8754 46.8642 49.8754 47.0888 49.8594 47.3124C49.8863 48.5556 49.4183 49.7586 48.5582 50.6567C47.6982 51.5549 46.5166 52.0746 45.2734 52.1015C44.0302 52.1284 42.8272 51.6604 41.9291 50.8004C41.031 49.9404 40.5113 48.7588 40.4844 47.5156V47.5156Z" fill="black"/>
<path d="M49.4375 54.4843H41.2032C39.5456 54.4843 37.9558 55.1428 36.7837 56.3149C35.6116 57.487 34.9532 59.0767 34.9532 60.7343V69.1562C34.951 69.5726 35.0583 69.9823 35.2645 70.3441C35.4706 70.7059 35.7682 71.0072 36.1275 71.2177C36.4868 71.4283 36.8951 71.5406 37.3116 71.5435C37.728 71.5464 38.1378 71.4398 38.5 71.2343V74.3593C38.5041 74.5223 38.5718 74.6773 38.6885 74.7912C38.8053 74.905 38.9619 74.9687 39.125 74.9687H51.625C51.7854 74.9647 51.9381 74.8992 52.0515 74.7858C52.165 74.6724 52.2304 74.5197 52.2344 74.3593V71.2343C52.5873 71.4343 52.9851 71.5418 53.3907 71.5468C54.0212 71.5311 54.6219 71.2747 55.0693 70.8302C55.5168 70.3856 55.7771 69.7866 55.7969 69.1562V60.7968C55.8054 59.9615 55.6463 59.133 55.3292 58.3602C55.012 57.5874 54.5431 56.8861 53.9503 56.2976C53.3574 55.7091 52.6526 55.2455 51.8775 54.934C51.1024 54.6226 50.2727 54.4696 49.4375 54.4843V54.4843ZM54.5157 69.1562C54.5159 69.4714 54.3939 69.7745 54.1754 70.0018C53.9569 70.2291 53.6588 70.3628 53.3438 70.3749C53.0357 70.3708 52.7416 70.2455 52.5252 70.0262C52.3088 69.8069 52.1875 69.5112 52.1875 69.2031V64.7812C52.2018 64.6919 52.1965 64.6006 52.172 64.5136C52.1476 64.4265 52.1045 64.3458 52.0458 64.277C51.9872 64.2083 51.9143 64.153 51.8322 64.1152C51.7501 64.0773 51.6608 64.0577 51.5703 64.0577C51.4799 64.0577 51.3906 64.0773 51.3085 64.1152C51.2264 64.153 51.1535 64.2083 51.0949 64.277C51.0362 64.3458 50.9931 64.4265 50.9687 64.5136C50.9442 64.6006 50.9389 64.6919 50.9532 64.7812V73.7343H39.6719V64.7812C39.674 64.6998 39.6598 64.6189 39.6301 64.5432C39.6004 64.4674 39.5558 64.3984 39.499 64.3401C39.4423 64.2819 39.3744 64.2356 39.2994 64.204C39.2244 64.1724 39.1439 64.1562 39.0625 64.1562C38.8968 64.1562 38.7378 64.222 38.6206 64.3392C38.5034 64.4564 38.4375 64.6154 38.4375 64.7812V69.2031C38.4376 69.5112 38.3162 69.8069 38.0998 70.0262C37.8834 70.2455 37.5894 70.3708 37.2813 70.3749C37.1294 70.3749 36.9791 70.345 36.8388 70.2869C36.6985 70.2288 36.5711 70.1436 36.4637 70.0363C36.3563 69.9289 36.2712 69.8014 36.2131 69.6612C36.1549 69.5209 36.125 69.3705 36.125 69.2187V60.7968C36.123 60.1294 36.2529 59.4681 36.5074 58.851C36.7619 58.234 37.1358 57.6734 37.6078 57.2014C38.0797 56.7295 38.6404 56.3555 39.2574 56.101C39.8744 55.8466 40.5357 55.7166 41.2032 55.7187H49.4375C50.7843 55.7187 52.076 56.2537 53.0283 57.206C53.9806 58.1584 54.5157 59.45 54.5157 60.7968V69.1562Z" fill="black"/>
<path d="M47.2969 57.1874H43.2969C43.1311 57.1874 42.9721 57.2533 42.8549 57.3705C42.7377 57.4877 42.6719 57.6467 42.6719 57.8124C42.6718 57.8938 42.6881 57.9743 42.7197 58.0493C42.7513 58.1243 42.7976 58.1922 42.8558 58.249C42.9141 58.3058 42.9831 58.3503 43.0589 58.38C43.1346 58.4097 43.2155 58.4239 43.2969 58.4218H44.7031V65.7656C44.701 65.8469 44.7153 65.9278 44.7449 66.0036C44.7746 66.0793 44.8192 66.1483 44.876 66.2066C44.9328 66.2648 45.0007 66.3111 45.0756 66.3427C45.1506 66.3743 45.2311 66.3906 45.3125 66.3906C45.4783 66.3906 45.6372 66.3247 45.7544 66.2075C45.8717 66.0903 45.9375 65.9313 45.9375 65.7656V58.4218H47.2969C47.3775 58.424 47.4577 58.4097 47.5326 58.3798C47.6075 58.3499 47.6755 58.3051 47.7326 58.2481C47.7896 58.1911 47.8344 58.1231 47.8642 58.0482C47.8941 57.9733 47.9084 57.8931 47.9062 57.8124C47.9083 57.7311 47.8941 57.6502 47.8644 57.5744C47.8347 57.4987 47.7902 57.4297 47.7334 57.3714C47.6766 57.3132 47.6087 57.2669 47.5337 57.2353C47.4588 57.2037 47.3782 57.1874 47.2969 57.1874V57.1874Z" fill="black"/>
<path d="M62.7969 6.39059H27.8437C27.7624 6.38851 27.6815 6.40273 27.6058 6.43242C27.53 6.4621 27.461 6.50666 27.4027 6.56345C27.3445 6.62025 27.2982 6.68813 27.2666 6.7631C27.235 6.83807 27.2187 6.91861 27.2188 6.99997V29.5468C27.2228 29.7099 27.2905 29.8649 27.4072 29.9787C27.524 30.0926 27.6807 30.1563 27.8437 30.1562H33.3438L32.0938 38.6562C32.0731 38.7801 32.0922 38.9073 32.1483 39.0196C32.2045 39.1319 32.2948 39.2235 32.4063 39.2812C32.4946 39.3377 32.5984 39.3651 32.7031 39.3593C32.846 39.361 32.9847 39.3111 33.0938 39.2187L43.8906 30.1562H62.7969C62.9585 30.1562 63.1135 30.092 63.2278 29.9777C63.342 29.8635 63.4063 29.7085 63.4063 29.5468V6.99997C63.4084 6.91936 63.3941 6.83915 63.3642 6.76425C63.3344 6.68934 63.2896 6.62131 63.2326 6.56429C63.1755 6.50727 63.1075 6.46246 63.0326 6.4326C62.9577 6.40273 62.8775 6.38844 62.7969 6.39059V6.39059ZM62.1719 28.9218H43.6562C43.5134 28.9202 43.3747 28.9701 43.2656 29.0625L33.5469 37.2343L34.6563 29.6562C34.6698 29.5701 34.6642 29.4821 34.6399 29.3984C34.6156 29.3146 34.5732 29.2373 34.5156 29.1718C34.4583 29.1032 34.3866 29.0481 34.3056 29.0103C34.2246 28.9725 34.1363 28.9529 34.0469 28.9531H28.4531V7.60934H62.1719V28.9218Z" fill="black"/>
<path d="M34.1094 11.4062H49.5C49.5893 11.4204 49.6806 11.4152 49.7676 11.3907C49.8547 11.3662 49.9354 11.3232 50.0041 11.2645C50.0729 11.2058 50.1282 11.1329 50.166 11.0508C50.2039 10.9687 50.2235 10.8794 50.2235 10.789C50.2235 10.6986 50.2039 10.6093 50.166 10.5272C50.1282 10.4451 50.0729 10.3722 50.0041 10.3135C49.9354 10.2548 49.8547 10.2118 49.7676 10.1873C49.6806 10.1629 49.5893 10.1576 49.5 10.1718H34.1094C34.0201 10.1576 33.9288 10.1629 33.8418 10.1873C33.7547 10.2118 33.674 10.2548 33.6052 10.3135C33.5365 10.3722 33.4812 10.4451 33.4434 10.5272C33.4055 10.6093 33.3859 10.6986 33.3859 10.789C33.3859 10.8794 33.4055 10.9687 33.4434 11.0508C33.4812 11.1329 33.5365 11.2058 33.6052 11.2645C33.674 11.3232 33.7547 11.3662 33.8418 11.3907C33.9288 11.4152 34.0201 11.4204 34.1094 11.4062V11.4062Z" fill="black"/>
<path d="M52.6719 11.4062H56.5469C56.6937 11.3828 56.8274 11.3077 56.9239 11.1946C57.0204 11.0815 57.0734 10.9377 57.0734 10.789C57.0734 10.6403 57.0204 10.4965 56.9239 10.3834C56.8274 10.2703 56.6937 10.1952 56.5469 10.1718H52.6719C52.5826 10.1576 52.4913 10.1629 52.4043 10.1873C52.3172 10.2118 52.2365 10.2548 52.1677 10.3135C52.099 10.3722 52.0437 10.4451 52.0059 10.5272C51.968 10.6093 51.9484 10.6986 51.9484 10.789C51.9484 10.8794 51.968 10.9687 52.0059 11.0508C52.0437 11.1329 52.099 11.2058 52.1677 11.2645C52.2365 11.3232 52.3172 11.3662 52.4043 11.3907C52.4913 11.4152 52.5826 11.4204 52.6719 11.4062V11.4062Z" fill="black"/>
<path d="M29.2188 65.7499H10.2031V35.5781C10.1797 35.4312 10.1047 35.2976 9.99156 35.2011C9.87844 35.1046 9.73462 35.0516 9.58594 35.0516C9.43725 35.0516 9.29344 35.1046 9.18032 35.2011C9.0672 35.2976 8.99219 35.4312 8.96875 35.5781V66.3593C8.9687 66.5224 9.0324 66.679 9.14625 66.7958C9.2601 66.9126 9.41509 66.9802 9.57813 66.9843H29.2188C29.3845 66.9843 29.5435 66.9185 29.6607 66.8013C29.7779 66.684 29.8437 66.5251 29.8437 66.3593C29.8438 66.278 29.8275 66.1974 29.7959 66.1224C29.7643 66.0475 29.718 65.9796 29.6598 65.9228C29.6015 65.866 29.5325 65.8214 29.4567 65.7918C29.381 65.7621 29.3001 65.7479 29.2188 65.7499V65.7499Z" fill="black"/>
<path d="M56.5469 13.7031H41.125C40.9782 13.7265 40.8445 13.8015 40.748 13.9146C40.6515 14.0277 40.5985 14.1716 40.5985 14.3202C40.5985 14.4689 40.6515 14.6128 40.748 14.7259C40.8445 14.839 40.9782 14.914 41.125 14.9374H56.5469C56.6937 14.914 56.8274 14.839 56.9239 14.7259C57.0204 14.6128 57.0734 14.4689 57.0734 14.3202C57.0734 14.1716 57.0204 14.0277 56.9239 13.9146C56.8274 13.8015 56.6937 13.7265 56.5469 13.7031V13.7031Z" fill="black"/>
<path d="M34.1094 14.9374H37.9219C38.0687 14.914 38.2024 14.839 38.2989 14.7259C38.3954 14.6128 38.4484 14.4689 38.4484 14.3202C38.4484 14.1716 38.3954 14.0278 38.2989 13.9146C38.2024 13.8015 38.0687 13.7265 37.9219 13.7031H34.1094C34.0201 13.6888 33.9288 13.6941 33.8418 13.7186C33.7547 13.743 33.674 13.7861 33.6052 13.8448C33.5365 13.9034 33.4812 13.9763 33.4434 14.0584C33.4055 14.1405 33.3859 14.2298 33.3859 14.3202C33.3859 14.4107 33.4055 14.5 33.4434 14.5821C33.4812 14.6642 33.5365 14.7371 33.6052 14.7957C33.674 14.8544 33.7547 14.8975 33.8418 14.9219C33.9288 14.9464 34.0201 14.9517 34.1094 14.9374V14.9374Z" fill="black"/>
<path d="M34.1094 18.4687H49.5C49.5813 18.4708 49.6623 18.4566 49.738 18.4269C49.8137 18.3972 49.8828 18.3526 49.941 18.2958C49.9993 18.239 50.0456 18.1711 50.0772 18.0962C50.1088 18.0212 50.125 17.9407 50.125 17.8593C50.125 17.6936 50.0592 17.5346 49.9419 17.4174C49.8247 17.3002 49.6658 17.2343 49.5 17.2343H34.1094C33.9436 17.2343 33.7846 17.3002 33.6674 17.4174C33.5502 17.5346 33.4844 17.6936 33.4844 17.8593C33.4843 17.9407 33.5006 18.0212 33.5322 18.0962C33.5638 18.1711 33.6101 18.239 33.6683 18.2958C33.7266 18.3526 33.7956 18.3972 33.8714 18.4269C33.9471 18.4566 34.028 18.4708 34.1094 18.4687V18.4687Z" fill="black"/>
<path d="M56.5469 17.2343H52.6719C52.5061 17.2343 52.3471 17.3002 52.2299 17.4174C52.1127 17.5346 52.0469 17.6936 52.0469 17.8593C52.0468 17.9407 52.0631 18.0212 52.0947 18.0962C52.1263 18.1711 52.1726 18.239 52.2308 18.2958C52.2891 18.3526 52.3581 18.3972 52.4339 18.4269C52.5096 18.4566 52.5905 18.4708 52.6719 18.4687H56.5469C56.7085 18.4687 56.8635 18.4045 56.9778 18.2902C57.092 18.1759 57.1563 18.0209 57.1563 17.8593C57.1563 17.6962 57.0926 17.5396 56.9787 17.4228C56.8649 17.306 56.7099 17.2384 56.5469 17.2343V17.2343Z" fill="black"/>
<path d="M56.5469 20.7656H41.125C40.962 20.7696 40.807 20.8373 40.6931 20.9541C40.5793 21.0708 40.5156 21.2275 40.5156 21.3906C40.5156 21.4706 40.5314 21.5498 40.562 21.6238C40.5926 21.6977 40.6375 21.7649 40.6941 21.8215C40.7507 21.878 40.8179 21.9229 40.8918 21.9536C40.9657 21.9842 41.045 21.9999 41.125 21.9999H56.5469C56.7085 21.9999 56.8635 21.9357 56.9778 21.8215C57.092 21.7072 57.1563 21.5522 57.1563 21.3906C57.1563 21.2275 57.0926 21.0708 56.9787 20.9541C56.8649 20.8373 56.7099 20.7696 56.5469 20.7656V20.7656Z" fill="black"/>
<path d="M34.1094 21.9999H37.9219C38.0835 21.9999 38.2385 21.9357 38.3528 21.8215C38.467 21.7072 38.5312 21.5522 38.5312 21.3906C38.5313 21.2275 38.4676 21.0708 38.3538 20.9541C38.2399 20.8373 38.0849 20.7696 37.9219 20.7656H34.1094C33.9436 20.7656 33.7846 20.8314 33.6674 20.9486C33.5502 21.0658 33.4844 21.2248 33.4844 21.3906C33.4843 21.4719 33.5006 21.5525 33.5322 21.6274C33.5638 21.7024 33.6101 21.7703 33.6683 21.8271C33.7266 21.8839 33.7956 21.9284 33.8714 21.9581C33.9471 21.9878 34.028 22.002 34.1094 21.9999V21.9999Z" fill="black"/>
<path d="M34.1094 25.5312H49.5C49.5813 25.5333 49.6623 25.5191 49.738 25.4894C49.8137 25.4597 49.8828 25.4151 49.941 25.3583C49.9993 25.3015 50.0456 25.2336 50.0772 25.1587C50.1088 25.0837 50.125 25.0032 50.125 24.9218C50.125 24.7561 50.0592 24.5971 49.9419 24.4799C49.8247 24.3627 49.6658 24.2968 49.5 24.2968H34.1094C33.9436 24.2968 33.7846 24.3627 33.6674 24.4799C33.5502 24.5971 33.4844 24.7561 33.4844 24.9218C33.4843 25.0032 33.5006 25.0837 33.5322 25.1587C33.5638 25.2336 33.6101 25.3015 33.6683 25.3583C33.7266 25.4151 33.7956 25.4597 33.8714 25.4894C33.9471 25.5191 34.028 25.5333 34.1094 25.5312Z" fill="black"/>
<path d="M56.5469 24.2968H52.6719C52.5061 24.2968 52.3471 24.3627 52.2299 24.4799C52.1127 24.5971 52.0469 24.7561 52.0469 24.9218C52.0468 25.0032 52.0631 25.0837 52.0947 25.1587C52.1263 25.2336 52.1726 25.3015 52.2308 25.3583C52.2891 25.4151 52.3581 25.4597 52.4339 25.4894C52.5096 25.5191 52.5905 25.5333 52.6719 25.5312H56.5469C56.7085 25.5312 56.8635 25.467 56.9778 25.3527C57.092 25.2384 57.1563 25.0834 57.1563 24.9218C57.1563 24.7587 57.0926 24.6021 56.9787 24.4853C56.8649 24.3685 56.7099 24.3009 56.5469 24.2968V24.2968Z" fill="black"/>
</svg>
