<svg width="35" height="35" viewBox="0 0 35 35" fill="none" xmlns="http://www.w3.org/2000/svg">
<path d="M27.0295 26.8466C29.5262 24.3091 30.9254 20.892 30.9254 17.3323C30.9254 13.7725 29.5262 10.3554 27.0295 7.81799C27.006 7.78122 26.9748 7.75 26.9381 7.72651C26.9146 7.68973 26.8833 7.65851 26.8466 7.63502C24.3091 5.1384 20.892 3.7392 17.3323 3.7392C13.7725 3.7392 10.3554 5.1384 7.81797 7.63502C7.7812 7.65851 7.74998 7.68973 7.72649 7.72651C7.68972 7.75 7.6585 7.78122 7.63501 7.81799C5.13839 10.3554 3.73918 13.7725 3.73918 17.3323C3.73918 20.892 5.13839 24.3091 7.63501 26.8466L7.72649 26.9381C7.74998 26.9748 7.7812 27.0061 7.81797 27.0295C10.3554 29.5262 13.7725 30.9254 17.3323 30.9254C20.892 30.9254 24.3091 29.5262 26.8466 27.0295C26.8833 27.0061 26.9146 26.9748 26.9381 26.9381C26.9748 26.9146 27.006 26.8834 27.0295 26.8466ZM5.88375 18.3778H9.0334C9.22158 19.8654 9.80864 21.2743 10.7324 22.4554L8.49757 24.6902C7.00341 22.9016 6.09142 20.6991 5.88375 18.3778V18.3778ZM8.49757 9.97439L10.7324 12.2092C9.80864 13.3903 9.22158 14.7992 9.0334 16.2868H5.88375C6.09142 13.9654 7.00341 11.763 8.49757 9.97439ZM28.7808 16.2868H25.6311C25.443 14.7992 24.8559 13.3903 23.9322 12.2092L26.167 9.97439C27.6611 11.763 28.5731 13.9654 28.7808 16.2868V16.2868ZM17.3323 23.6054C16.0916 23.6054 14.8787 23.2375 13.8471 22.5482C12.8155 21.8589 12.0114 20.8792 11.5366 19.7329C11.0618 18.5867 10.9376 17.3253 11.1796 16.1085C11.4217 14.8916 12.0192 13.7738 12.8965 12.8965C13.7738 12.0192 14.8916 11.4217 16.1084 11.1797C17.3253 10.9376 18.5866 11.0618 19.7329 11.5366C20.8792 12.0114 21.8589 12.8155 22.5482 13.8471C23.2375 14.8787 23.6054 16.0916 23.6054 17.3323C23.6054 18.996 22.9445 20.5916 21.7681 21.7681C20.5916 22.9445 18.996 23.6054 17.3323 23.6054ZM22.4554 10.7324C21.2743 9.80866 19.8653 9.2216 18.3778 9.03341V5.88376C20.6991 6.09144 22.9016 7.00342 24.6902 8.49758L22.4554 10.7324ZM16.2867 9.03341C14.7992 9.2216 13.3903 9.80866 12.2092 10.7324L9.97437 8.49758C11.763 7.00342 13.9654 6.09144 16.2867 5.88376V9.03341ZM12.2092 23.9322C13.3903 24.8559 14.7992 25.443 16.2867 25.6312V28.7808C13.9654 28.5731 11.763 27.6611 9.97437 26.167L12.2092 23.9322ZM18.3778 25.6312C19.8653 25.443 21.2743 24.8559 22.4554 23.9322L24.6902 26.167C22.9016 27.6611 20.6991 28.5731 18.3778 28.7808V25.6312ZM23.9322 22.4554C24.8559 21.2743 25.443 19.8654 25.6311 18.3778H28.7808C28.5731 20.6991 27.6611 22.9016 26.167 24.6902L23.9322 22.4554Z" fill="#FFF4D1"/>
</svg>
