<svg width="34" height="34" viewBox="0 0 34 34" fill="none" xmlns="http://www.w3.org/2000/svg">
<path d="M22.3226 26.0225L21.6007 20.2431C21.4984 19.4245 21.1006 18.6715 20.482 18.1256C19.8635 17.5798 19.0668 17.2787 18.2418 17.279H15.7559C14.9313 17.2793 14.1352 17.5806 13.5171 18.1264C12.8991 18.6722 12.5015 19.4249 12.3993 20.2431L11.6763 26.0225C11.6366 26.34 11.665 26.6623 11.7594 26.9681C11.8539 27.2738 12.0123 27.5559 12.2241 27.7957C12.436 28.0356 12.6965 28.2275 12.9882 28.359C13.28 28.4904 13.5963 28.5582 13.9163 28.558H20.0837C20.4036 28.5581 20.7198 28.4901 21.0114 28.3586C21.3031 28.2271 21.5634 28.0351 21.7751 27.7953C21.9868 27.5555 22.1452 27.2735 22.2395 26.9678C22.3339 26.6622 22.3622 26.3399 22.3226 26.0225V26.0225Z" stroke="#979387" stroke-width="2" stroke-linecap="round" stroke-linejoin="round"/>
<path d="M17 12.7674C18.8688 12.7674 20.3837 11.2525 20.3837 9.3837C20.3837 7.51493 18.8688 6 17 6C15.1312 6 13.6163 7.51493 13.6163 9.3837C13.6163 11.2525 15.1312 12.7674 17 12.7674Z" stroke="#979387" stroke-width="2"/>
<path d="M7.97681 16.1511C9.22265 16.1511 10.2326 15.1411 10.2326 13.8953C10.2326 12.6494 9.22265 11.6395 7.97681 11.6395C6.73096 11.6395 5.72101 12.6494 5.72101 13.8953C5.72101 15.1411 6.73096 16.1511 7.97681 16.1511Z" stroke="#979387" stroke-width="2"/>
<path d="M26.0232 16.1511C27.269 16.1511 28.279 15.1411 28.279 13.8953C28.279 12.6494 27.269 11.6395 26.0232 11.6395C24.7774 11.6395 23.7674 12.6494 23.7674 13.8953C23.7674 15.1411 24.7774 16.1511 26.0232 16.1511Z" stroke="#979387" stroke-width="2"/>
<path d="M7.9768 19.5348H7.63167C7.09768 19.5348 6.58098 19.7241 6.17349 20.0692C5.76601 20.4143 5.49416 20.8928 5.40632 21.4195L5.03073 23.6753C4.97683 23.9985 4.99399 24.3296 5.081 24.6455C5.16802 24.9614 5.3228 25.2545 5.53459 25.5045C5.74639 25.7545 6.0101 25.9554 6.30739 26.0932C6.60468 26.2309 6.92842 26.3023 7.25608 26.3022H11.3605M26.0232 19.5348H26.3683C26.9023 19.5348 27.419 19.7241 27.8265 20.0692C28.234 20.4143 28.5058 20.8928 28.5937 21.4195L28.9693 23.6753C29.0232 23.9985 29.006 24.3296 28.919 24.6455C28.832 24.9614 28.6772 25.2545 28.4654 25.5045C28.2536 25.7545 27.9899 25.9554 27.6926 26.0932C27.3953 26.2309 27.0716 26.3023 26.7439 26.3022H22.6395" stroke="#979387" stroke-width="2" stroke-linecap="round" stroke-linejoin="round"/>
</svg>
