<svg width="34" height="34" viewBox="0 0 34 34" fill="none" xmlns="http://www.w3.org/2000/svg">
<path d="M16.5 16.7316C19.1873 16.7316 21.3658 14.5531 21.3658 11.8658C21.3658 9.17849 19.1873 7 16.5 7C13.8127 7 11.6342 9.17849 11.6342 11.8658C11.6342 14.5531 13.8127 16.7316 16.5 16.7316Z" stroke="#979387" stroke-width="2"/>
<path d="M21.3658 18.6779H21.7083C22.4198 18.6781 23.1067 18.9381 23.64 19.4091C24.1733 19.88 24.5163 20.5294 24.6045 21.2354L24.985 24.2756C25.0192 24.5494 24.9948 24.8275 24.9133 25.0912C24.8319 25.3549 24.6953 25.5983 24.5126 25.8052C24.3299 26.0121 24.1053 26.1777 23.8537 26.2912C23.6021 26.4046 23.3293 26.4633 23.0533 26.4632H9.94674C9.67074 26.4633 9.39788 26.4046 9.14627 26.2912C8.89466 26.1777 8.67006 26.0121 8.48737 25.8052C8.30468 25.5983 8.16809 25.3549 8.08665 25.0912C8.00521 24.8275 7.9808 24.5494 8.01502 24.2756L8.39455 21.2354C8.48282 20.5291 8.82607 19.8794 9.35976 19.4084C9.89346 18.9374 10.5808 18.6777 11.2926 18.6779H11.6342" stroke="#979387" stroke-width="2" stroke-linecap="round" stroke-linejoin="round"/>
</svg>
