<svg width="85" height="88" viewBox="0 0 85 88" fill="none" xmlns="http://www.w3.org/2000/svg">
<path d="M77.64 45.23C78.997 42.105 79.694 38.784 79.694 35.338C79.694 21.607 68.522 10.435 54.791 10.435C51.821 10.435 48.929 10.951 46.177 11.967C41.799 4.797 33.901 0 24.903 0C11.172 0 0 11.171 0 24.903C0 32.128 3.096 38.642 8.027 43.195C6.84 46.142 6.233 49.258 6.233 52.474C6.233 66.205 17.404 77.376 31.136 77.376C33.805 77.376 36.416 76.934 38.925 76.106C43.363 82.976 51.082 87.536 59.852 87.536C73.583 87.536 84.754 76.365 84.754 62.634C84.754 55.866 82.036 49.723 77.64 45.23ZM82.254 62.634C82.254 63.602 82.186 64.553 82.066 65.488H75.835C76 64.559 76.102 63.609 76.102 62.634C76.102 61.659 76 60.708 75.835 59.78H82.066C82.186 60.715 82.254 61.666 82.254 62.634ZM75.176 57.279C73.544 52.626 69.86 48.941 65.206 47.31V40.883C73.264 42.867 79.618 49.221 81.602 57.279H75.176ZM59.852 76.384C52.27 76.384 46.102 70.216 46.102 62.634C46.102 55.053 52.27 48.885 59.852 48.885C67.433 48.885 73.601 55.053 73.601 62.634C73.601 70.216 67.433 76.384 59.852 76.384ZM43.869 65.488H37.637C37.517 64.552 37.449 63.601 37.449 62.634C37.449 61.667 37.517 60.715 37.637 59.78H43.869C43.703 60.709 43.602 61.659 43.602 62.634C43.602 63.609 43.703 64.559 43.869 65.488ZM22.87 63.82C24.005 64.649 25.265 65.312 26.62 65.774V74.418C23.227 73.722 20.115 72.25 17.468 70.205L22.87 63.82ZM19.577 52.473C19.577 51.396 19.723 50.339 20.012 49.319C21.595 49.635 23.229 49.804 24.903 49.804C27.931 49.804 30.835 49.259 33.521 48.265C34.508 49.885 35.673 51.384 37.002 52.742C35.684 55.776 34.948 59.12 34.948 62.634C34.948 62.881 34.96 63.124 34.967 63.369C33.739 63.801 32.456 64.032 31.136 64.032C24.763 64.032 19.577 58.846 19.577 52.473ZM2.5 24.903C2.5 23.936 2.568 22.985 2.688 22.049H8.92C8.754 22.977 8.653 23.928 8.653 24.903C8.653 25.878 8.755 26.828 8.92 27.757H2.688C2.569 26.821 2.5 25.87 2.5 24.903ZM9.579 19.549H3.152C3.701 17.321 4.579 15.221 5.74 13.31L10.284 17.855C10.019 18.404 9.783 18.968 9.579 19.549ZM9.579 30.256C9.783 30.837 10.019 31.401 10.285 31.95L5.741 36.496C4.58 34.584 3.701 32.484 3.153 30.256H9.579ZM11.154 24.903C11.154 17.321 17.322 11.153 24.904 11.153C32.485 11.153 38.653 17.321 38.653 24.903C38.653 32.484 32.486 38.652 24.904 38.652C17.322 38.652 11.154 32.484 11.154 24.903ZM17.856 10.283L13.311 5.738C15.223 4.578 17.322 3.699 19.549 3.151V9.578C18.969 9.782 18.405 10.018 17.856 10.283ZM30.257 9.578V3.151C32.485 3.699 34.585 4.578 36.496 5.739L31.951 10.283C31.402 10.018 30.838 9.781 30.257 9.578ZM54.79 21.589C62.371 21.589 68.539 27.757 68.539 35.338C68.539 36.626 68.362 37.89 68.014 39.112C65.455 38.221 62.71 37.731 59.852 37.731C53.746 37.731 48.148 39.944 43.811 43.606C43.459 43.139 43.134 42.653 42.845 42.146C47.151 37.667 49.807 31.591 49.807 24.902C49.807 24.12 49.766 23.348 49.696 22.585C51.312 21.937 53.019 21.589 54.79 21.589ZM60.145 20.014V13.586C62.373 14.135 64.472 15.013 66.383 16.173L61.838 20.718C61.289 20.454 60.725 20.218 60.145 20.014ZM77.193 35.338C77.193 36.301 77.127 37.252 77.007 38.192H70.783C70.949 37.255 71.038 36.302 71.038 35.338C71.038 34.363 70.936 33.412 70.771 32.484H77.003C77.125 33.42 77.193 34.371 77.193 35.338ZM71.615 40.692H76.544C76.316 41.619 76.028 42.53 75.682 43.424C74.424 42.386 73.062 41.47 71.615 40.692ZM70.114 29.984C69.91 29.403 69.674 28.839 69.408 28.291L73.954 23.746C75.114 25.658 75.993 27.757 76.542 29.985L70.114 29.984ZM59.852 46.385C58.876 46.385 57.926 46.487 56.998 46.652V40.421C57.934 40.302 58.885 40.233 59.852 40.233C60.819 40.233 61.771 40.302 62.706 40.421V46.652C61.777 46.486 60.827 46.385 59.852 46.385ZM38.187 50.377C37.312 49.413 36.532 48.371 35.838 47.27C37.695 46.359 39.421 45.221 40.984 43.895C41.29 44.387 41.615 44.867 41.972 45.326C40.508 46.838 39.234 48.534 38.187 50.377ZM24.904 41.152C25.879 41.152 26.829 41.05 27.757 40.885V47.116C26.821 47.236 25.871 47.304 24.903 47.304C23.935 47.304 22.985 47.236 22.049 47.116V40.885C22.978 41.05 23.928 41.152 24.904 41.152ZM30.257 40.227C30.838 40.023 31.403 39.787 31.951 39.521L36.495 44.065C34.583 45.226 32.484 46.104 30.256 46.652L30.257 40.227ZM47.307 24.903C47.307 25.87 47.239 26.821 47.119 27.757H40.887C41.052 26.829 41.154 25.879 41.154 24.903C41.154 23.927 41.052 22.977 40.887 22.049H47.12C47.238 22.984 47.307 23.935 47.307 24.903ZM40.228 30.256H46.656C46.107 32.484 45.229 34.583 44.068 36.495L39.523 31.95C39.788 31.401 40.024 30.837 40.228 30.256ZM38.222 34.184L42.623 38.586C41.454 40.096 40.098 41.453 38.587 42.622L34.186 38.221C35.757 37.122 37.124 35.755 38.222 34.184ZM40.227 19.549C40.023 18.968 39.788 18.404 39.522 17.856L44.067 13.311C45.228 15.222 46.106 17.321 46.655 19.549H40.227ZM19.549 40.226V46.653C17.321 46.104 15.222 45.226 13.311 44.066L17.856 39.522C18.405 39.787 18.969 40.023 19.549 40.226ZM44.527 57.279H38.101C40.085 49.221 46.439 42.867 54.497 40.883V47.309C49.843 48.941 46.158 52.626 44.527 57.279ZM72.51 21.654L68.109 26.056C67.01 24.485 65.644 23.118 64.073 22.02L68.474 17.618C69.984 18.787 71.341 20.144 72.51 21.654ZM57.645 13.123V19.356C56.716 19.19 55.766 19.089 54.791 19.089C53.821 19.089 52.872 19.196 51.937 19.361V13.136C52.879 13.017 53.829 12.935 54.791 12.935C55.758 12.935 56.709 13.004 57.645 13.123ZM49.436 13.606V19.994C49.399 20.007 49.364 20.026 49.327 20.039C48.921 17.997 48.265 16.044 47.391 14.213C48.064 13.977 48.745 13.775 49.436 13.606ZM42.623 11.219L38.222 15.621C37.123 14.05 35.757 12.683 34.186 11.585L38.588 7.184C40.098 8.352 41.454 9.709 42.623 11.219ZM27.757 2.688V8.92C26.829 8.755 25.879 8.653 24.904 8.653C23.928 8.653 22.978 8.755 22.05 8.92V2.688C22.986 2.568 23.937 2.5 24.904 2.5C25.871 2.5 26.821 2.568 27.757 2.688ZM11.22 7.182L15.622 11.583C14.051 12.682 12.684 14.048 11.585 15.619L7.184 11.217C8.353 9.708 9.71 8.351 11.22 7.182ZM7.184 38.587L11.585 34.185C12.684 35.756 14.05 37.123 15.622 38.221L11.22 42.622C9.71 41.453 8.353 40.096 7.184 38.587ZM17.591 48.707C17.302 49.748 17.146 50.82 17.103 51.909H8.748C8.807 49.488 9.247 47.134 10.059 44.884C12.308 46.559 14.849 47.863 17.591 48.707ZM8.822 54.409H17.226C17.641 57.4 18.993 60.092 20.986 62.176L15.577 68.57C11.798 64.915 9.299 59.948 8.822 54.409ZM31.136 74.876C30.456 74.876 29.784 74.84 29.12 74.781V66.371C29.78 66.466 30.45 66.532 31.136 66.532C32.519 66.532 33.87 66.325 35.174 65.933C35.551 68.764 36.404 71.445 37.652 73.894C35.546 74.534 33.364 74.876 31.136 74.876ZM38.101 67.988H44.528C46.159 72.642 49.843 76.327 54.498 77.958V84.385C46.438 82.4 40.085 76.046 38.101 67.988ZM56.997 84.847V78.617C57.926 78.782 58.876 78.884 59.851 78.884C60.826 78.884 61.777 78.782 62.705 78.617V84.847C61.769 84.967 60.818 85.035 59.851 85.035C58.884 85.035 57.933 84.968 56.997 84.847ZM65.206 84.385V77.958C69.859 76.327 73.544 72.643 75.176 67.988H81.603C79.618 76.046 73.264 82.4 65.206 84.385Z" fill="black"/>
</svg>
